<?xml version="1.0" encoding="UTF-8"?>
<svg width="302px" height="233px" viewBox="0 0 302 233" version="1.1" xmlns="http://www.w3.org/2000/svg" xmlns:xlink="http://www.w3.org/1999/xlink">
    <!-- Generator: Sketch 53.1 (72631) - https://sketchapp.com -->
    <title>Group 10Screen</title>
    <desc>Created with Sketch.</desc>
    <defs>
        <polygon id="path-1" points="0.80519927 0.479 276.7245 0.479 276.7245 233 0.80519927 233"></polygon>
        <path d="M23.423,9.639 C15.792,9.361 8.242,8.885 0.928,8.22 C0.623,5.438 0.408,2.893 0.277,0.515 C7.552,2.229 14.83,3.819 21.96,5.25 L23.423,9.639 Z" id="path-3"></path>
        <path d="M0.503,8.985 L2.22,2.941 C11.617,2.435 22.034,1.497 33.959,0.08 C33.461,2.841 32.777,5.334 31.917,7.523 C21.856,8.292 11.14,8.985 0.616,8.985 L0.503,8.985 Z" id="path-5"></path>
        <polygon id="path-7" points="0 0.6015 266.6418 0.6015 266.6418 30.8144362 0 30.8144362"></polygon>
        <path d="M3.21,3.35 C3.687,2.959 4.229,2.605 4.828,2.292 C6.776,1.279 9.347,0.703 12.326,0.742 C15.501,0.782 18.65,1.513 21.379,2.715 C21.999,2.988 22.598,3.286 23.17,3.605 C23.854,3.986 24.499,4.399 25.1,4.838 C27.21,6.382 28.755,8.255 29.39,10.263 C30.036,12.309 29.64,14.188 28.44,15.706 C28.128,16.102 27.761,16.473 27.342,16.816 C26.968,17.124 26.553,17.408 26.101,17.667 C24.112,18.809 21.401,19.465 18.227,19.425 C15.248,19.387 12.291,18.74 9.685,17.668 C8.881,17.338 8.11,16.967 7.383,16.561 C6.743,16.205 6.137,15.821 5.57,15.413 C3.399,13.853 1.809,11.948 1.163,9.903 C0.528,7.894 0.898,6.046 2.047,4.543" id="path-9"></path>
        <path d="M3.24,2.943 C3.717,2.553 4.258,2.198 4.858,1.886 C6.807,0.872 9.377,0.297 12.356,0.335 C15.531,0.375 18.681,1.107 21.409,2.308 C22.029,2.582 22.628,2.879 23.2,3.198 C23.884,3.58 24.529,3.992 25.13,4.431 C27.24,5.976 28.785,7.848 29.42,9.856 C30.065,11.902 29.67,13.782 28.472,15.299 C28.158,15.695 27.791,16.066 27.372,16.409 C26.998,16.717 26.583,17.001 26.131,17.261 C24.143,18.402 21.432,19.059 18.257,19.018 C15.277,18.98 12.321,18.334 9.715,17.262 C8.911,16.932 8.141,16.561 7.413,16.154 C6.773,15.798 6.167,15.414 5.601,15.006 C3.43,13.446 1.839,11.542 1.193,9.496 C0.559,7.488 0.929,5.639 2.077,4.137" id="path-11"></path>
        <path d="M2.938,4.104 C3.35,3.612 3.812,3.156 4.316,2.743 C5.954,1.402 8.046,0.511 10.407,0.289 C12.925,0.052 15.36,0.613 17.419,1.753 C17.888,2.013 18.336,2.302 18.762,2.618 C19.271,2.997 19.747,3.414 20.184,3.865 C21.722,5.455 22.782,7.473 23.106,9.729 C23.437,12.026 22.955,14.225 21.868,16.079 C21.584,16.562 21.259,17.023 20.896,17.456 C20.571,17.843 20.217,18.208 19.835,18.546 C18.154,20.038 15.943,21.035 13.426,21.271 C11.064,21.494 8.774,21.014 6.801,20.012 C6.192,19.703 5.613,19.345 5.071,18.942 C4.596,18.588 4.148,18.201 3.735,17.782 C2.151,16.18 1.058,14.129 0.728,11.832 C0.402,9.576 0.861,7.415 1.907,5.583" id="path-13"></path>
        <path d="M2.839,4.796 C3.252,4.304 3.714,3.848 4.218,3.435 C5.855,2.094 7.947,1.202 10.31,0.98 C12.826,0.744 15.262,1.305 17.32,2.445 C17.789,2.704 18.238,2.993 18.664,3.31 C19.173,3.688 19.648,4.105 20.086,4.557 C21.624,6.146 22.684,8.165 23.008,10.42 C23.339,12.718 22.856,14.917 21.77,16.771 C21.485,17.254 21.161,17.715 20.798,18.147 C20.474,18.534 20.118,18.899 19.736,19.238 C18.056,20.729 15.845,21.727 13.327,21.963 C10.966,22.185 8.677,21.705 6.702,20.703 C6.094,20.395 5.515,20.037 4.974,19.634 C4.497,19.28 4.051,18.892 3.637,18.474 C2.053,16.871 0.959,14.82 0.629,12.523 C0.305,10.267 0.763,8.106 1.809,6.274" id="path-15"></path>
        <path d="M2.815,4.104 C3.229,3.612 3.69,3.156 4.195,2.743 C5.832,1.402 7.925,0.511 10.286,0.289 C12.804,0.052 15.239,0.613 17.298,1.753 C17.766,2.013 18.215,2.302 18.641,2.618 C19.149,2.997 19.625,3.414 20.062,3.865 C21.601,5.455 22.66,7.473 22.985,9.729 C23.315,12.026 22.834,14.225 21.746,16.079 C21.463,16.562 21.138,17.023 20.775,17.456 C20.45,17.843 20.096,18.208 19.713,18.546 C18.033,20.038 15.822,21.035 13.305,21.271 C10.943,21.494 8.653,21.014 6.68,20.012 C6.07,19.703 5.492,19.345 4.95,18.942 C4.475,18.588 4.027,18.201 3.614,17.782 C2.029,16.18 0.937,14.129 0.605,11.832 C0.281,9.576 0.74,7.415 1.786,5.583" id="path-17"></path>
        <path d="M2.781,3.176 C3.258,2.786 3.8,2.431 4.4,2.119 C6.349,1.105 8.919,0.529 11.897,0.568 C15.073,0.608 18.223,1.339 20.95,2.541 C21.57,2.814 22.17,3.112 22.741,3.431 C23.425,3.812 24.071,4.225 24.671,4.664 C26.782,6.208 28.327,8.081 28.962,10.089 C29.607,12.135 29.212,14.014 28.013,15.531 C27.7,15.927 27.332,16.299 26.914,16.642 C26.539,16.949 26.125,17.234 25.673,17.494 C23.685,18.635 20.974,19.292 17.798,19.25 C14.819,19.213 11.863,18.566 9.256,17.495 C8.452,17.164 7.682,16.793 6.954,16.387 C6.314,16.03 5.709,15.646 5.143,15.239 C2.972,13.679 1.38,11.774 0.734,9.729 C0.1,7.72 0.471,5.872 1.618,4.37" id="path-19"></path>
        <path d="M2.81,3.053 C3.286,2.662 3.827,2.308 4.428,1.996 C6.376,0.982 8.946,0.406 11.926,0.444 C15.101,0.485 18.25,1.216 20.978,2.418 C21.599,2.691 22.197,2.989 22.77,3.308 C23.453,3.689 24.099,4.102 24.699,4.541 C26.81,6.085 28.354,7.958 28.989,9.966 C29.635,12.012 29.239,13.891 28.04,15.408 C27.728,15.804 27.359,16.176 26.941,16.519 C26.567,16.826 26.152,17.111 25.7,17.371 C23.712,18.512 21.001,19.168 17.826,19.127 C14.847,19.089 11.891,18.443 9.284,17.372 C8.48,17.041 7.71,16.67 6.981,16.264 C6.343,15.907 5.736,15.523 5.17,15.116 C2.999,13.556 1.408,11.651 0.762,9.606 C0.128,7.597 0.498,5.749 1.646,4.247" id="path-21"></path>
        <polygon id="path-23" points="0.0832 0.7991 5.9632 0.7991 5.9632 12 0.0832 12"></polygon>
    </defs>
    <g id="Page-1" stroke="none" stroke-width="1" fill="none" fill-rule="evenodd">
        <g id="Desktop-HD" transform="translate(-475.000000, -200.000000)">
            <g id="Group-10" transform="translate(475.000000, 199.521000)">
                <g id="Group-3" transform="translate(25.000000, -0.000000)">
                    <mask id="mask-2" fill="white">
                        <use xlink:href="#path-1"></use>
                    </mask>
                    <g id="Clip-2"></g>
                    <path d="M14.9435,17.0094 C-4.1375,83.6084 -2.3775,156.5224 11.1395,233.0004 L249.1095,233.0004 C261.8875,156.4924 271.2785,81.7294 276.7245,8.9954 C271.6525,5.0504 259.8505,1.2014 253.4775,0.4784 C168.4525,0.9574 88.0845,5.6864 14.9435,17.0094" id="Fill-1" fill="#D8D8D8" mask="url(#mask-2)"></path>
                </g>
                <polygon id="Fill-4" fill="#BD5174" points="224.9997 213.5465 178.1277 213.5465 174.0247 190.4935 168.0347 190.4935 168.0347 213.5465 104.2557 213.5465 101.9617 190.4935 92.0917 190.4935 91.0017 213.5465 45.6377 213.5465 42.4847 192.6935 43.2677 192.5745 46.3177 212.7545 90.2477 212.7545 91.3377 189.7015 102.6787 189.7015 104.9727 212.7545 167.2427 212.7545 167.2427 189.7015 174.6867 189.7015 178.7897 212.7545 224.2357 212.7545 225.1047 189.2385 225.8967 189.2675"></polygon>
                <path d="M274.1096,233 C286.8876,156.493 296.2786,81.729 301.7246,8.996 C296.6526,5.051 284.8516,1.201 278.4776,0.479 C278.5826,54.529 274.0126,106.397 266.6426,156.072 C255.1106,166.573 242.5056,175.82 228.6006,183.546 L231.7006,198.622 L244.0996,198.622 C246.4236,208.26 246.1766,220.413 245.4856,233 L274.1096,233 Z" id="Fill-6" fill="#993661"></path>
                <path d="M1.42108547e-14,183.5462 C2.306,187.9792 5.485,191.5632 9.51,194.3242 C75.961,196.8992 151.253,198.1472 231.701,198.6222 C231.515,193.6832 230.637,188.6732 228.601,183.5462 L1.42108547e-14,183.5462 Z" id="Fill-8" fill="#BD5174"></path>
                <path d="M41.8119,43.2749 C36.3549,67.5829 33.8229,93.3659 34.7309,120.0029 C46.6809,123.7119 59.4269,126.7579 72.7719,129.3019 L79.2529,144.8199 C114.0509,147.6449 155.2359,147.6779 199.8589,146.2089 L205.2119,129.0199 C222.5629,128.0539 240.6939,126.1089 259.5179,123.2959 C263.8549,93.0339 266.7489,64.8359 266.6419,40.9269 C252.5819,38.3789 237.6909,36.7049 222.1199,35.7479 L213.3839,13.7689 C163.4269,14.6949 118.4209,16.5009 76.0129,21.5519 C73.1279,27.2109 71.0039,33.5649 69.2499,40.2569 C59.3379,40.8939 50.1109,41.9109 41.8119,43.2749" id="Fill-10" fill="#BD5174"></path>
                <path d="M199.8584,146.2093 L205.2124,129.0203 C222.5634,128.0533 240.6944,126.1093 259.5184,123.2953 C263.7364,93.8663 266.5804,66.4003 266.6354,42.9213 C254.1144,40.8683 241.0044,39.4363 227.3324,38.5963 L222.1194,35.7483 L214.5474,16.6963 C166.2084,17.6453 122.4814,19.4863 81.2254,24.4003 C78.3404,30.0593 76.2164,36.4123 74.4624,43.1043 C64.5504,43.7413 55.3244,44.7583 47.0244,46.1223 C41.6594,70.0233 39.1404,95.3553 39.9194,121.5183 C50.3584,124.5393 61.3274,127.1203 72.7714,129.3023 L77.9854,132.1493 L83.4074,145.1333 C117.3144,147.6373 156.9914,147.6203 199.8584,146.2093" id="Fill-12" fill="#53ACD3"></path>
                <path d="M67.7455,144.3741 C57.8305,144.0671 48.1375,143.4551 38.7035,142.4911 C38.1405,137.9901 37.7555,133.6851 37.6185,129.6541 C46.8935,131.8711 55.9615,133.8481 64.8115,135.5721 L67.7455,144.3741 Z" id="Fill-14" fill="#BD5174"></path>
                <path d="M65.2258,136.8153 C57.1648,135.2093 48.9348,133.4073 40.5248,131.3973 C40.6468,134.9783 40.9728,138.7853 41.4358,142.7433 C50.0098,143.5543 58.7818,144.0963 67.7458,144.3743 L65.2258,136.8153 Z" id="Fill-16" fill="#00EBAA"></path>
                <g id="Group-20" transform="translate(42.000000, 133.000000)">
                    <mask id="mask-4" fill="white">
                        <use xlink:href="#path-3"></use>
                    </mask>
                    <g id="Clip-19"></g>
                    <path d="M23.423,9.639 C15.792,9.361 8.242,8.885 0.928,8.22 C0.623,5.438 0.408,2.893 0.277,0.515 C7.552,2.229 14.83,3.819 21.96,5.25 L23.423,9.639 Z" id="Fill-18" mask="url(#mask-4)"></path>
                </g>
                <path d="M211.6382,135.3544 L208.7352,145.5754 C221.3522,145.9034 234.1232,145.0954 247.0582,144.0954 C248.5902,140.5614 249.6092,136.4344 250.1452,131.7464 C236.3712,133.4874 223.4122,134.7614 211.6382,135.3544" id="Fill-21" fill="#BD5174"></path>
                <path d="M247.0579,144.0958 C248.4299,140.9318 249.3679,137.2658 249.9389,133.1748 C237.4769,134.6908 225.7139,135.8068 214.9509,136.3488 L212.3139,145.6298 C223.7669,145.7398 235.3449,145.0008 247.0579,144.0958" id="Fill-23" fill="#00EBAA"></path>
                <g id="Group-27" transform="translate(214.000000, 135.000000)">
                    <mask id="mask-6" fill="white">
                        <use xlink:href="#path-5"></use>
                    </mask>
                    <g id="Clip-26"></g>
                    <path d="M0.503,8.985 L2.22,2.941 C11.617,2.435 22.034,1.497 33.959,0.08 C33.461,2.841 32.777,5.334 31.917,7.523 C21.856,8.292 11.14,8.985 0.616,8.985 L0.503,8.985 Z" id="Fill-25" mask="url(#mask-6)"></path>
                </g>
                <g id="Group-30" transform="translate(0.000000, 154.000000)">
                    <mask id="mask-8" fill="white">
                        <use xlink:href="#path-7"></use>
                    </mask>
                    <g id="Clip-29"></g>
                    <path d="M26.6848,0.6015 C17.3188,8.7345 8.4638,18.5115 -0.0002,29.5465 C75.5638,31.2135 151.7468,31.2605 228.6008,29.5465 C242.8788,21.3875 255.6768,12.3035 266.6418,2.0715 C179.2568,3.0685 97.8358,2.8665 26.6848,0.6015" id="Fill-28" fill="#D8D8D8" mask="url(#mask-8)"></path>
                </g>
                <path d="M191.0299,160.862 L175.9219,178.555 C191.5279,178.313 207.4629,178.003 223.7069,177.629 C231.0639,172.044 237.6299,166.456 242.9719,160.862 C225.2929,160.909 207.9659,160.91 191.0299,160.862 L191.0299,160.862 Z M183.2909,160.837 C146.5209,160.695 111.7859,160.294 79.9079,159.529 L68.6529,178.83 C97.7439,179.248 129.1999,179.176 162.3699,178.748 L183.2909,160.837 Z M55.4409,178.606 C43.7119,178.37 32.3979,178.049 21.5569,177.629 C25.7939,170.928 30.6989,164.42 36.5559,158.185 C48.1039,158.638 60.1899,159.022 72.7199,159.349 L55.4409,178.606 Z" id="Fill-31" fill="#BD5174"></path>
                <path d="M190.0584,138.378 C190.7074,135.758 191.0214,134.453 191.6294,131.848 C188.9834,131.239 187.6564,130.935 184.9944,130.329 C186.5594,124.718 187.3094,121.928 188.7404,116.373 C183.9534,116.389 181.5674,116.397 176.8214,116.416 C176.3134,122.068 176.0204,124.906 175.3484,130.617 C172.2574,131.214 170.7234,131.512 167.6814,132.105 C167.3354,134.264 167.1584,135.345 166.7954,137.512 C176.0204,137.861 180.6914,138.038 190.0584,138.378 M164.9734,139.697 C175.5824,139.766 180.9874,139.8 191.8514,139.845 C194.9664,129.276 196.3714,124.062 198.8694,113.717 C186.3204,113.761 180.0784,113.784 167.8064,113.856 C166.8734,124.105 166.3164,129.263 164.9734,139.697 M192.8904,142.247 C180.7774,142.188 174.7484,142.141 162.9604,142.046 C164.5134,129.714 165.1344,123.631 166.1444,111.552 C180.0284,111.456 187.1084,111.426 201.3414,111.371 C198.4064,123.572 196.7134,129.729 192.8904,142.247 M149.9484,138.168 C150.2254,135.605 150.3604,134.326 150.6264,131.772 C148.0154,131.175 146.7094,130.877 144.0994,130.286 C144.9134,124.792 145.3224,122.054 146.1414,116.591 C141.5534,116.626 139.2774,116.646 134.7684,116.691 C134.8644,122.228 134.9084,125.006 134.9804,130.583 C132.1334,131.172 130.7274,131.466 127.9524,132.052 C127.9064,134.155 127.8834,135.208 127.8414,137.316 C136.5054,137.644 140.9454,137.817 149.9484,138.168 M126.4444,139.442 C136.3324,139.499 141.4454,139.537 151.8584,139.608 C153.4364,129.267 154.1914,124.139 155.6294,113.937 C143.5164,114.028 137.5544,114.085 125.9644,114.242 C126.1234,124.27 126.2294,129.304 126.4444,139.442 M153.1774,141.964 C141.5554,141.864 135.8584,141.81 124.9084,141.724 C124.5644,129.756 124.3994,123.82 124.1634,112.002 C137.2714,111.798 144.0404,111.728 157.8024,111.615 C156.0654,123.66 155.1384,129.719 153.1774,141.964 M112.3494,137.992 C112.2234,135.511 112.1644,134.271 112.0574,131.794 C109.5694,131.227 108.3294,130.946 105.8554,130.39 C105.8274,125.064 105.8514,122.403 105.9714,117.083 C101.7194,117.16 99.6204,117.202 95.4864,117.294 C96.2704,122.663 96.6944,125.352 97.5924,130.74 C95.1014,131.331 93.8794,131.626 91.4854,132.214 C91.7794,134.243 91.9324,135.257 92.2504,137.287 C100.0154,137.54 104.0524,137.684 112.3494,137.992 M91.3764,139.341 C100.1374,139.328 104.7554,139.34 114.3134,139.381 C114.2234,129.366 114.2654,124.375 114.5174,114.416 C103.1854,114.608 97.6744,114.725 87.1114,115.023 C88.5524,124.733 89.4154,129.595 91.3764,139.341 M115.8744,141.657 C105.2074,141.584 100.0744,141.555 90.4254,141.545 C87.9594,130.053 86.8944,124.321 85.1794,112.876 C97.1314,112.505 103.3994,112.363 116.3114,112.132 C115.9144,123.903 115.8244,129.804 115.8744,141.657 M206.7464,25.357 C206.6464,26.36 206.5944,26.861 206.4884,27.863 C208.7754,27.843 209.9204,27.835 212.2134,27.822 C212.2024,26.821 212.1944,26.32 212.1774,25.318 C210.0014,25.331 208.9154,25.339 206.7464,25.357 M205.1104,27.875 C205.2184,26.873 205.2704,26.372 205.3724,25.369 C198.0674,25.437 194.4314,25.488 187.1954,25.624 C187.1784,26.624 187.1694,27.124 187.1494,28.124 C194.3004,27.992 197.8934,27.942 205.1104,27.875 M193.9324,33.896 C194.4984,33.888 194.7814,33.884 195.3474,33.876 C200.9304,33.8 203.7314,33.771 209.3524,33.731 C209.3594,32.731 209.3604,32.231 209.3614,31.23 C208.0614,31.24 207.4124,31.245 206.1144,31.256 C205.2664,31.263 204.8424,31.267 203.9954,31.276 C200.0504,31.314 198.0814,31.337 194.1554,31.394 C194.0684,32.395 194.0244,32.895 193.9324,33.896 M192.5354,33.916 C192.6374,32.915 192.6874,32.415 192.7854,31.414 C190.4964,31.449 189.3544,31.468 187.0724,31.509 C187.0474,32.508 187.0334,33.007 187.0044,34.006 C189.2134,33.967 190.3194,33.949 192.5354,33.916 M196.9404,39.738 C196.9984,38.738 197.0274,38.238 197.0804,37.238 C192.9964,37.289 190.9604,37.319 186.8974,37.389 C186.8634,38.387 186.8454,38.887 186.8074,39.885 C190.8494,39.817 192.8764,39.788 196.9404,39.738 M204.4894,39.657 C204.5144,38.657 204.5254,38.157 204.5444,37.157 C202.1064,37.18 200.8884,37.193 198.4584,37.221 C198.4054,38.221 198.3774,38.721 198.3194,39.721 C200.7834,39.692 202.0184,39.679 204.4894,39.657 M207.3314,43.018 C207.2984,44.018 207.2804,44.518 207.2424,45.517 C209.1494,45.502 210.1044,45.496 212.0164,45.485 C212.0504,44.485 212.0654,43.985 212.0924,42.985 C210.1864,42.997 209.2334,43.003 207.3314,43.018 M205.8524,45.528 C205.8914,44.529 205.9094,44.029 205.9434,43.029 C198.1964,43.094 194.3404,43.141 186.6694,43.267 C186.6264,44.265 186.6034,44.764 186.5564,45.763 C194.2364,45.639 198.0974,45.593 205.8524,45.528 M192.5684,49.055 C192.5534,50.054 192.5444,50.553 192.5254,51.552 C196.6344,51.499 198.6954,51.476 202.8264,51.438 C202.8784,50.438 202.9024,49.938 202.9484,48.939 C198.7854,48.977 196.7094,49.001 192.5684,49.055 M191.1394,51.571 C191.1594,50.572 191.1684,50.073 191.1844,49.074 C189.2634,49.101 188.3044,49.115 186.3884,49.145 C186.3354,50.143 186.3084,50.642 186.2514,51.641 C188.2044,51.611 189.1814,51.597 191.1394,51.571 M199.7404,57.352 C199.8674,56.351 199.9294,55.851 200.0504,54.85 C194.4304,54.906 191.6304,54.941 186.0514,55.024 C185.9904,56.023 185.9584,56.523 185.8924,57.522 C191.4104,57.441 194.1814,57.407 199.7404,57.352 M201.4454,54.836 C201.3234,55.837 201.2614,56.337 201.1334,57.339 C205.2454,57.3 207.3064,57.284 211.4364,57.258 C211.5014,56.258 211.5324,55.758 211.5904,54.757 C207.5224,54.782 205.4934,54.798 201.4454,54.836 M197.6364,60.76 C197.5374,61.761 197.4864,62.262 197.3834,63.263 C202.8164,63.208 205.5424,63.186 211.0104,63.152 C211.0904,62.15 211.1284,61.649 211.2024,60.648 C205.7594,60.682 203.0454,60.704 197.6364,60.76 M195.9954,63.278 C196.0984,62.276 196.1494,61.776 196.2474,60.775 C192.0004,60.821 189.8824,60.847 185.6604,60.908 C185.5884,61.907 185.5524,62.407 185.4764,63.408 C189.6724,63.349 191.7754,63.323 195.9954,63.278 M203.1224,69.106 C203.1964,68.103 203.2324,67.602 203.3004,66.6 C196.0324,66.66 192.4114,66.698 185.2124,66.796 C185.1314,67.797 185.0904,68.298 185.0054,69.3 C192.2154,69.204 195.8424,69.165 203.1224,69.106 M189.7284,72.632 C189.6364,73.635 189.5884,74.136 189.4924,75.14 C191.3604,75.119 192.2954,75.109 194.1684,75.091 C194.1554,74.088 194.1474,73.586 194.1274,72.584 C192.3654,72.602 191.4854,72.612 189.7284,72.632 M205.9754,72.481 C205.8924,73.485 205.8494,73.987 205.7614,74.992 C207.4074,74.98 208.2314,74.974 209.8804,74.964 C209.9924,73.959 210.0464,73.457 210.1514,72.452 C208.4794,72.463 207.6444,72.468 205.9754,72.481 M188.1154,75.156 C188.2114,74.152 188.2574,73.651 188.3484,72.648 C186.8904,72.665 186.1624,72.674 184.7084,72.693 C184.6174,73.695 184.5714,74.197 184.4764,75.199 C185.9304,75.181 186.6584,75.173 188.1154,75.156 M204.3744,75.002 C204.4614,73.997 204.5044,73.495 204.5854,72.491 C200.9514,72.518 199.1384,72.534 195.5214,72.57 C195.5394,73.572 195.5474,74.074 195.5604,75.077 C199.0784,75.043 200.8414,75.028 204.3744,75.002 M196.9714,80.977 C197.7724,80.97 198.1734,80.967 198.9754,80.96 C199.0944,79.954 199.1524,79.45 199.2644,78.445 C195.2094,78.479 193.1874,78.498 189.1544,78.541 C189.0504,79.546 188.9974,80.049 188.8884,81.054 C191.5924,81.026 192.9474,81.013 195.6614,80.989 C196.1854,80.984 196.4474,80.982 196.9714,80.977 M187.5204,81.069 C187.6274,80.064 187.6794,79.561 187.7814,78.556 C186.3254,78.573 185.5984,78.581 184.1454,78.599 C184.0454,79.603 183.9944,80.105 183.8894,81.11 C185.3404,81.093 186.0664,81.085 187.5204,81.069 M190.6184,84.442 C189.7764,84.45 189.3554,84.454 188.5144,84.463 C188.4004,85.47 188.3424,85.974 188.2234,86.982 C189.0594,86.973 189.4774,86.97 190.3144,86.962 C190.4874,86.123 190.5894,85.28 190.6184,84.442 M191.6914,86.949 C196.3224,86.908 198.6454,86.889 203.3034,86.858 C203.3874,85.848 203.4284,85.344 203.5054,84.336 C198.8914,84.368 196.5904,84.387 192.0024,84.429 C191.9654,85.267 191.8574,86.111 191.6914,86.949 M186.8624,86.995 C186.9794,85.987 187.0374,85.483 187.1504,84.477 C185.6984,84.492 184.9734,84.5 183.5254,84.516 C183.4144,85.522 183.3584,86.025 183.2444,87.032 C184.6894,87.017 185.4134,87.009 186.8624,86.995 M193.6614,92.872 C196.2994,92.852 197.6214,92.843 200.2684,92.825 C200.2334,91.814 200.2134,91.308 200.1714,90.298 C198.5674,90.31 197.7664,90.315 196.1654,90.328 C195.2374,90.412 194.7744,90.454 193.8484,90.538 C193.7754,91.471 193.7384,91.938 193.6614,92.872 M192.3034,92.883 C192.3854,91.872 192.4244,91.367 192.5004,90.357 C188.6274,90.389 186.6964,90.407 182.8454,90.446 C182.7254,91.454 182.6634,91.959 182.5394,92.969 C186.4324,92.931 188.3864,92.914 192.3034,92.883 M199.3054,96.26 C199.2214,97.274 199.1774,97.781 199.0864,98.796 C202.0434,98.779 203.5244,98.77 206.4914,98.755 C206.6674,97.738 206.7544,97.23 206.9234,96.215 C203.8714,96.232 202.3474,96.241 199.3054,96.26 M192.3504,96.308 C188.2394,96.338 186.1904,96.355 182.1064,96.391 C181.9754,97.403 181.9084,97.909 181.7734,98.921 C188.1254,98.867 191.3204,98.845 197.7324,98.805 C197.8314,97.79 197.8794,97.282 197.9704,96.269 C195.7194,96.283 194.5954,96.291 192.3504,96.308 M163.3444,99.107 C163.4474,98.1 163.4984,97.596 163.5994,96.59 C159.6774,96.64 157.7254,96.666 153.8414,96.724 C153.7234,97.728 153.6644,98.23 153.5464,99.234 C157.4454,99.179 159.4054,99.154 163.3444,99.107 M147.9204,96.817 C147.8474,97.818 147.8104,98.318 147.7354,99.319 C149.5344,99.292 150.4354,99.278 152.2434,99.252 C152.3594,98.249 152.4164,97.747 152.5314,96.744 C150.6824,96.772 149.7604,96.787 147.9204,96.817 M148.3494,90.932 C148.2774,91.931 148.2414,92.431 148.1684,93.43 C153.4514,93.336 156.1134,93.295 161.4674,93.218 C161.5034,92.215 161.5194,91.714 161.5524,90.711 C156.2374,90.791 153.5954,90.835 148.3494,90.932 M172.4864,93.076 C172.5964,92.069 172.6504,91.565 172.7574,90.559 C168.7924,90.608 166.8174,90.634 162.8844,90.692 C162.8514,91.694 162.8334,92.196 162.7974,93.2 C166.6564,93.146 168.5954,93.121 172.4864,93.076 M173.1124,87.153 C173.2154,86.148 173.2654,85.645 173.3654,84.641 C168.0764,84.713 165.4434,84.753 160.2104,84.843 C160.1514,85.843 160.1214,86.343 160.0604,87.345 C165.2524,87.259 167.8644,87.221 173.1124,87.153 M148.7684,85.058 C148.6974,86.055 148.6624,86.554 148.5914,87.552 C152.6254,87.472 154.6534,87.435 158.7284,87.367 C158.7874,86.366 158.8164,85.866 158.8744,84.866 C154.8124,84.937 152.7904,84.975 148.7684,85.058 M149.1774,79.193 C149.1084,80.189 149.0744,80.687 149.0044,81.683 C155.9434,81.533 159.4434,81.467 166.4894,81.352 C166.5954,80.35 166.6484,79.85 166.7514,78.849 C159.6704,78.968 156.1524,79.037 149.1774,79.193 M158.5784,75.622 C158.7664,74.622 158.8604,74.122 159.0464,73.123 C157.2144,73.161 156.3004,73.181 154.4754,73.222 C154.4034,74.218 154.3664,74.716 154.2924,75.712 C156.0044,75.675 156.8614,75.657 158.5784,75.622 M174.2314,75.342 C174.3184,74.341 174.3614,73.841 174.4464,72.84 C172.8264,72.866 172.0184,72.879 170.4024,72.907 C170.3014,73.907 170.2494,74.407 170.1444,75.408 C171.7774,75.381 172.5944,75.368 174.2314,75.342 M149.5794,73.337 C149.5114,74.331 149.4774,74.828 149.4094,75.823 C150.8234,75.79 151.5324,75.773 152.9504,75.742 C153.0234,74.746 153.0594,74.248 153.1314,73.253 C151.7084,73.285 150.9974,73.302 149.5794,73.337 M160.4084,73.095 C160.2204,74.094 160.1264,74.594 159.9364,75.594 C163.4644,75.524 165.2344,75.492 168.7864,75.431 C168.8904,74.431 168.9414,73.93 169.0424,72.931 C165.5774,72.991 163.8504,73.024 160.4084,73.095 M161.5704,67.211 C158.8924,67.269 157.5574,67.299 154.8944,67.363 C154.8254,68.358 154.7904,68.855 154.7194,69.85 C158.6774,69.758 160.6654,69.715 164.6554,69.635 C164.7304,68.638 164.7674,68.139 164.8404,67.142 C164.0484,67.158 163.6534,67.166 162.8624,67.183 C162.3454,67.194 162.0864,67.199 161.5704,67.211 M149.9734,67.487 C149.9074,68.48 149.8734,68.977 149.8064,69.97 C151.2304,69.934 151.9434,69.917 153.3724,69.882 C153.4424,68.888 153.4774,68.391 153.5474,67.396 C152.1154,67.431 151.4004,67.45 149.9734,67.487 M157.3804,61.457 C156.5494,61.478 156.1334,61.488 155.3034,61.51 C155.2354,62.504 155.2014,63.001 155.1324,63.995 C155.9644,63.974 156.3804,63.964 157.2144,63.944 C157.3394,63.114 157.3954,62.282 157.3804,61.457 M158.5854,63.911 C163.1274,63.803 165.4094,63.754 169.9894,63.666 C170.1154,62.667 170.1774,62.167 170.3004,61.169 C165.6604,61.261 163.3494,61.312 158.7484,61.424 C158.7554,62.249 158.7034,63.081 158.5854,63.911 M150.3604,61.642 C150.2954,62.635 150.2624,63.131 150.1974,64.124 C151.6284,64.085 152.3454,64.066 153.7814,64.029 C153.8504,63.035 153.8844,62.539 153.9524,61.545 C152.5134,61.583 151.7954,61.602 150.3604,61.642 M161.5984,57.801 C162.5084,57.855 162.9634,57.882 163.8744,57.937 C165.4734,57.9 166.2744,57.882 167.8784,57.848 C168.1304,56.847 168.2554,56.347 168.5054,55.347 C165.8484,55.405 164.5234,55.435 161.8794,55.501 C161.7674,56.421 161.7114,56.881 161.5984,57.801 M150.7424,55.802 C150.6784,56.793 150.6454,57.289 150.5814,58.282 C154.4204,58.171 156.3474,58.12 160.2144,58.024 C160.3374,57.028 160.3984,56.53 160.5194,55.534 C156.5944,55.633 154.6384,55.687 150.7424,55.802 M175.9534,51.821 C176.0124,50.823 176.0414,50.325 176.0974,49.328 C173.0934,49.388 171.5954,49.42 168.6054,49.489 C168.4724,50.487 168.4054,50.986 168.2714,51.983 C171.3364,51.913 172.8734,51.881 175.9534,51.821 M166.9264,52.014 C167.0514,51.017 167.1144,50.518 167.2374,49.521 C160.7544,49.676 157.5294,49.764 151.1194,49.964 C151.0554,50.956 151.0234,51.451 150.9594,52.443 C155.0664,52.318 157.1284,52.26 161.2664,52.153 C163.5264,52.095 164.6584,52.067 166.9264,52.014 M157.1214,46.428 C163.0044,46.255 165.9624,46.178 171.9024,46.045 C171.9564,45.049 171.9834,44.551 172.0354,43.554 C166.2274,43.688 163.3354,43.764 157.5804,43.936 C157.4864,44.475 157.3904,45.006 157.2914,45.521 C157.2334,45.819 157.1784,46.126 157.1214,46.428 M156.3094,43.975 C154.3784,44.034 153.4154,44.065 151.4914,44.128 C151.4284,45.119 151.3964,45.615 151.3334,46.606 C153.0944,46.55 153.9764,46.522 155.7434,46.469 C155.8334,46.058 155.9264,45.655 156.0194,45.254 C156.1174,44.832 156.2154,44.409 156.3094,43.975 M170.5734,37.732 C163.0454,37.921 159.3004,38.033 151.8604,38.292 C151.7974,39.284 151.7664,39.779 151.7034,40.771 C159.1234,40.518 162.8574,40.409 170.3664,40.225 C170.4014,39.806 170.4334,39.386 170.4714,38.968 C170.5084,38.556 170.5404,38.144 170.5734,37.732 M161.8494,32.128 C157.9894,32.249 156.0644,32.314 152.2264,32.455 C152.1644,33.447 152.1324,33.943 152.0704,34.934 C155.8574,34.798 157.7564,34.735 161.5654,34.618 C161.6094,34.201 161.6574,33.791 161.7064,33.391 C161.7584,32.963 161.8074,32.547 161.8494,32.128 M162.9224,34.577 C168.4584,34.41 171.2384,34.338 176.8194,34.211 C176.8584,33.214 176.8774,32.715 176.9134,31.717 C171.3994,31.845 168.6524,31.919 163.1814,32.086 C163.1364,32.555 163.0914,33.029 163.0374,33.476 C162.9924,33.848 162.9604,34.212 162.9224,34.577 M166.8644,28.609 C169.2014,28.54 170.3724,28.508 172.7164,28.446 C172.7554,27.449 172.7734,26.95 172.8094,25.953 C170.4594,26.016 169.2864,26.049 166.9444,26.12 C166.9484,26.948 166.9244,27.778 166.8644,28.609 M165.7674,28.642 C160.4134,28.804 157.7474,28.894 152.4354,29.096 C152.4974,28.104 152.5284,27.608 152.5904,26.616 C157.8704,26.411 160.5214,26.319 165.8424,26.154 C165.8494,26.981 165.8294,27.81 165.7674,28.642 M111.7724,70.27 C112.0894,70.706 112.5504,71.612 112.8684,72.049 C115.9524,66.702 118.8554,60.746 120.9854,54.737 C119.7554,69.96 120.1074,84.959 121.1364,100.169 C121.6604,100.257 122.7214,100.084 123.2474,100.172 C123.4304,90.564 124.2104,80.673 124.6274,71.118 C125.2444,70.809 128.2404,70.951 128.8844,71.019 C128.3824,82.186 127.8434,90.875 127.8214,100.51 C128.3494,100.287 128.9914,100.026 129.4614,100.344 C131.5194,85.054 133.7544,69.564 136.3074,54.534 C137.6804,59.241 139.1964,63.957 139.8984,68.964 C140.7944,68.496 141.7214,67.817 142.6224,67.349 C141.2924,58.672 139.1774,50.248 136.4504,42.299 C130.8884,42.392 125.3254,42.915 119.8004,43.855 C117.4924,52.215 115.1654,62.495 111.7724,70.27 M125.7464,40.676 C124.2104,37.04 123.9144,32.608 124.9064,28.334 C127.4574,27.239 130.3144,26.4 132.7794,26.995 C132.9004,31.536 132.1704,36.323 130.5484,40.731 C129.0034,40.938 127.2304,40.925 125.7464,40.676 M90.4584,76.991 C89.0654,75.882 87.6934,74.847 86.5284,73.648 C86.4344,73.551 86.3514,73.447 86.2604,73.348 C88.6654,73.781 91.1114,74.015 93.5804,74.066 C93.4844,74.158 93.3954,74.262 93.2994,74.352 C92.3754,75.221 91.4144,76.111 90.4584,76.991 M92.7034,82.248 C93.5714,83.162 94.3994,84.192 95.1624,85.276 C91.2864,85.514 89.3644,85.637 85.5594,85.893 C86.1324,84.952 86.7594,84.055 87.4894,83.27 C88.4184,82.208 89.4464,81.236 90.5154,80.28 C91.2834,80.889 92.0284,81.537 92.7034,82.248 M82.7764,94.559 C82.9934,92.107 83.6264,89.747 84.6184,87.623 C89.2044,87.317 91.5264,87.17 96.2194,86.889 C97.2324,88.565 98.0954,90.386 98.8024,92.312 C93.3414,92.746 87.9444,93.503 82.7764,94.559 M84.0054,65.16 C88.8904,66 93.9064,66.565 98.9654,66.834 C97.9534,68.836 96.6754,70.725 95.1894,72.408 C91.6674,72.454 88.1844,72.092 84.7984,71.351 C84.5164,70.844 84.2734,70.315 84.1114,69.758 C83.6914,68.317 83.6754,66.745 84.0054,65.16 M87.6084,58.077 C92.5964,57.98 95.1094,57.943 100.1694,57.886 C100.8444,60.223 100.6434,62.795 99.7244,65.192 C94.5624,64.948 89.4404,64.383 84.4544,63.536 C85.1224,61.578 86.2404,59.711 87.6084,58.077 M95.7324,50.932 C97.2794,52.477 98.6304,54.203 99.5324,56.218 C95.3734,56.271 93.3054,56.304 89.1934,56.383 C89.2084,56.369 89.2224,56.353 89.2374,56.339 C91.2144,54.46 93.4734,52.791 95.7324,50.932 M91.4484,43.664 C95.5394,42.738 97.5964,42.28 101.7274,41.372 C100.2664,43.656 98.5104,45.682 96.5164,47.261 C96.3614,47.393 96.1954,47.513 96.0374,47.642 C94.4444,46.302 92.8494,45.061 91.4484,43.664 M89.6274,41.576 C88.8824,40.536 88.2794,39.324 87.8924,38.021 C94.6344,36.629 98.0324,35.947 104.8614,34.613 C104.3274,36.297 103.6434,37.928 102.8164,39.476 C97.7524,40.59 95.2324,41.154 90.2244,42.297 C90.0274,42.055 89.8104,41.831 89.6274,41.576 M101.5934,67.905 C102.4394,66.068 103.0394,63.952 103.1954,61.829 C103.3514,59.705 103.0014,57.589 102.3284,55.814 C101.2744,53.032 99.5834,50.922 97.7644,49.182 C103.6774,44.062 107.5464,35.409 107.6904,27.424 C107.0724,27.54 106.7634,27.598 106.1464,27.715 C106.0734,29.428 105.7954,31.157 105.3744,32.859 C98.1994,34.267 94.6284,34.988 87.5434,36.46 C87.5434,36.462 87.5434,36.463 87.5434,36.466 C87.3654,35.229 87.3934,33.935 87.7094,32.625 C87.1264,32.555 86.8354,32.52 86.2534,32.451 C85.1614,36.564 86.3414,40.341 88.1274,43.089 C89.7634,45.604 91.9414,47.419 93.9744,49.262 C91.9544,50.782 89.8544,52.264 87.8534,54.07 C84.9744,56.67 82.3864,60.145 81.3664,64.482 C80.8614,66.632 80.9854,69.074 81.7244,71.082 C82.4684,73.104 83.7144,74.699 85.0004,75.928 C86.1534,77.03 87.3814,77.922 88.5684,78.795 C87.7174,79.632 86.8844,80.519 86.0964,81.448 C81.5764,86.778 79.9644,95.297 82.0944,102.666 C82.6094,102.478 82.8684,102.384 83.3874,102.196 C82.8924,100.249 82.6864,98.246 82.7114,96.264 C88.0684,95.156 93.6854,94.374 99.3654,93.948 C100.1274,96.399 100.6494,98.98 100.8754,101.616 C101.4444,101.563 101.7294,101.536 102.3004,101.482 C101.8344,93.409 98.8414,85.628 94.0844,80.306 C93.5444,79.702 92.9734,79.151 92.3964,78.629 C93.1524,77.977 93.9214,77.319 94.6844,76.627 C97.2154,74.334 99.8904,71.602 101.5934,67.905" id="Fill-33" fill="#00EBAA"></path>
                <path d="M49.6342,111.3674 L70.5882,113.0394 C70.1652,90.4224 70.5672,71.2834 71.8192,54.5984 L53.3822,56.7984 C50.5052,72.0734 49.2782,89.9384 49.6342,111.3674 L49.6342,111.3674 Z M72.2792,114.8354 L48.0062,112.8984 L47.9922,112.1484 C47.5892,89.9894 48.8562,71.5884 51.8682,55.8914 L51.9832,55.2974 L73.6242,52.7154 L73.5452,53.7214 C72.2212,70.8104 71.8012,90.5024 72.2612,113.9214 L72.2792,114.8354 Z" id="Fill-35" fill="#00EBAA"></path>
                <path d="M66.7909,57.3835 C66.6389,58.1445 66.5629,58.5245 66.4149,59.2845 C67.7999,59.1075 68.4929,59.0195 69.8789,58.8425 C69.9499,58.0685 69.9859,57.6815 70.0599,56.9075 C68.7519,57.0985 68.0979,57.1935 66.7909,57.3835 L66.7909,57.3835 Z M65.5789,59.3915 C65.7299,58.6365 65.8069,58.2595 65.9629,57.5035 C61.5569,58.1445 59.3539,58.4655 54.9489,59.1055 C54.8189,59.7755 54.7569,60.1115 54.6359,60.7875 C59.0129,60.2295 61.2019,59.9505 65.5789,59.3915 L65.5789,59.3915 Z M58.2639,64.4235 C58.6119,64.3915 58.7869,64.3755 59.1349,64.3435 C62.5729,64.0295 64.2909,63.8725 67.7279,63.5595 C67.7939,62.7945 67.8289,62.4125 67.8989,61.6485 C67.1069,61.7325 66.7109,61.7745 65.9199,61.8585 C65.4019,61.9135 65.1439,61.9405 64.6269,61.9955 C62.2169,62.2495 61.0119,62.3775 58.6029,62.6325 C58.4639,63.3475 58.3959,63.7055 58.2639,64.4235 L58.2639,64.4235 Z M57.4019,64.5015 C57.5429,63.7875 57.6139,63.4315 57.7609,62.7215 C56.3559,62.8705 55.6529,62.9445 54.2479,63.0935 C54.1389,63.7785 54.0869,64.1225 53.9869,64.8135 C55.3529,64.6885 56.0359,64.6265 57.4019,64.5015 L57.4019,64.5015 Z M59.7509,68.5365 C59.8379,67.8025 59.8829,67.4365 59.9759,66.7055 C57.4529,66.8905 56.1909,66.9835 53.6679,67.1695 C53.5789,67.8695 53.5369,68.2205 53.4569,68.9265 C55.9739,68.7705 57.2329,68.6925 59.7509,68.5365 L59.7509,68.5365 Z M64.4189,68.2475 C64.4809,67.4935 64.5129,67.1175 64.5789,66.3665 C63.0779,66.4765 62.3279,66.5315 60.8269,66.6425 C60.7349,67.3775 60.6909,67.7455 60.6049,68.4835 C62.1309,68.3885 62.8939,68.3415 64.4189,68.2475 L64.4189,68.2475 Z M66.0399,70.7155 C65.9859,71.4785 65.9599,71.8605 65.9109,72.6235 C67.0919,72.5785 67.6829,72.5555 68.8629,72.5095 C68.9079,71.7355 68.9309,71.3485 68.9799,70.5745 C67.8039,70.6315 67.2159,70.6595 66.0399,70.7155 L66.0399,70.7155 Z M65.0499,72.6575 C65.0999,71.8965 65.1269,71.5165 65.1809,70.7565 C60.3899,70.9865 57.9929,71.1015 53.2019,71.3305 C53.1319,72.0445 53.0999,72.4025 53.0369,73.1225 C57.8419,72.9365 60.2449,72.8435 65.0499,72.6575 L65.0499,72.6575 Z M56.7109,75.4645 C56.6839,76.2015 56.6719,76.5715 56.6509,77.3135 C59.2209,77.2605 60.5049,77.2335 63.0749,77.1805 C63.1139,76.4215 63.1339,76.0415 63.1779,75.2845 C60.5909,75.3565 59.2979,75.3925 56.7109,75.4645 L56.7109,75.4645 Z M55.7849,77.3315 C55.8059,76.5925 55.8179,76.2235 55.8459,75.4885 C54.6449,75.5215 54.0449,75.5385 52.8439,75.5715 C52.7919,76.2985 52.7679,76.6635 52.7229,77.3955 C53.9479,77.3705 54.5599,77.3575 55.7849,77.3315 L55.7849,77.3315 Z M61.1699,81.6755 C61.2359,80.9155 61.2699,80.5355 61.3419,79.7765 C57.8399,79.8205 56.0889,79.8435 52.5879,79.8875 C52.5519,80.6265 52.5359,80.9975 52.5079,81.7415 C55.9719,81.7155 57.7049,81.7025 61.1699,81.6755 L61.1699,81.6755 Z M62.2099,79.7655 C62.1389,80.5265 62.1039,80.9075 62.0379,81.6695 C64.5979,81.6495 65.8789,81.6405 68.4389,81.6205 C68.4669,80.8465 68.4809,80.4605 68.5119,79.6865 C65.9919,79.7175 64.7309,79.7335 62.2099,79.7655 L62.2099,79.7655 Z M59.9199,84.2585 C59.8819,85.0205 59.8649,85.4015 59.8319,86.1655 C63.2209,86.1695 64.9149,86.1715 68.3029,86.1765 C68.3219,85.4025 68.3319,85.0155 68.3549,84.2415 C64.9809,84.2485 63.2939,84.2515 59.9199,84.2585 L59.9199,84.2585 Z M58.9669,86.1645 C58.9989,85.4015 59.0159,85.0205 59.0529,84.2605 C56.4019,84.2655 55.0769,84.2685 52.4259,84.2735 C52.4059,85.0245 52.3979,85.4005 52.3839,86.1555 C55.0169,86.1595 56.3339,86.1615 58.9669,86.1645 L58.9669,86.1645 Z M63.6489,90.7035 C63.6439,89.9325 63.6429,89.5465 63.6429,88.7765 C59.1269,88.7555 56.8679,88.7455 52.3529,88.7245 C52.3469,89.4865 52.3459,89.8675 52.3469,90.6335 C56.8669,90.6615 59.1279,90.6755 63.6489,90.7035 L63.6489,90.7035 Z M55.5009,93.2595 C55.5069,94.0315 55.5119,94.4185 55.5229,95.1935 C56.6889,95.2015 57.2719,95.2065 58.4379,95.2145 C58.3589,94.4395 58.3209,94.0525 58.2459,93.2795 C57.1479,93.2715 56.5989,93.2675 55.5009,93.2595 L55.5009,93.2595 Z M65.6059,93.3345 C65.6149,94.1075 65.6209,94.4945 65.6349,95.2685 C66.6539,95.2765 67.1629,95.2805 68.1819,95.2875 C68.1839,94.5135 68.1849,94.1265 68.1909,93.3535 C67.1569,93.3455 66.6399,93.3415 65.6059,93.3345 L65.6059,93.3345 Z M54.6629,95.1865 C54.6509,94.4115 54.6459,94.0255 54.6389,93.2535 C53.7279,93.2465 53.2719,93.2435 52.3609,93.2365 C52.3689,94.0075 52.3749,94.3945 52.3879,95.1695 C53.2979,95.1765 53.7529,95.1805 54.6629,95.1865 L54.6629,95.1865 Z M64.7759,95.2625 C64.7609,94.4875 64.7549,94.1015 64.7449,93.3275 C62.4929,93.3115 61.3659,93.3025 59.1139,93.2865 C59.1879,94.0595 59.2259,94.4465 59.3049,95.2215 C61.4929,95.2375 62.5869,95.2455 64.7759,95.2625 L64.7759,95.2625 Z M60.6479,99.8035 C61.1449,99.8055 61.3929,99.8075 61.8909,99.8095 C61.8769,99.0315 61.8699,98.6435 61.8599,97.8665 C59.3449,97.8505 58.0879,97.8415 55.5729,97.8255 C55.5899,98.6045 55.5999,98.9945 55.6219,99.7765 C57.3069,99.7855 58.1489,99.7895 59.8349,99.7985 C60.1599,99.8005 60.3219,99.8015 60.6479,99.8035 L60.6479,99.8035 Z M54.7689,99.7715 C54.7459,98.9895 54.7349,98.5985 54.7159,97.8195 C53.8079,97.8135 53.3529,97.8105 52.4449,97.8045 C52.4649,98.5845 52.4769,98.9755 52.5019,99.7595 C53.4089,99.7645 53.8619,99.7675 54.7689,99.7715 L54.7689,99.7715 Z M57.0189,102.4345 C56.4949,102.4335 56.2329,102.4325 55.7099,102.4315 C55.7379,103.2175 55.7529,103.6105 55.7859,104.3995 L57.0869,104.3995 C57.1059,103.7455 57.0839,103.0885 57.0189,102.4345 L57.0189,102.4345 Z M57.9429,104.3995 L65.1349,104.3995 C65.0819,103.6215 65.0559,103.2325 65.0069,102.4555 C62.1559,102.4485 60.7309,102.4445 57.8799,102.4375 C57.9379,103.0895 57.9579,103.7455 57.9429,104.3995 L57.9429,104.3995 Z M54.9389,104.3995 C54.9049,103.6095 54.8889,103.2155 54.8589,102.4295 C53.9549,102.4265 53.5029,102.4255 52.5979,102.4235 C52.6299,103.2115 52.6459,103.6065 52.6819,104.3995 L54.9389,104.3995 Z" id="Fill-37" fill="#00EBAA"></path>
                <path d="M223.5787,109.6883 C233.2257,110.8253 242.9437,110.8213 252.4867,109.6743 C256.3627,89.1353 258.7257,68.5243 259.5147,48.3923 C247.0587,47.2403 236.7627,46.9113 228.0977,47.3953 C224.9837,64.0443 223.5047,84.4373 223.5787,109.6883 M238.0157,112.1943 C232.8977,112.1943 227.7647,111.8773 222.6527,111.2433 L221.9297,111.1543 L221.9267,110.4253 C221.8197,84.4083 223.3447,63.4813 226.5907,46.4513 L226.7117,45.8183 L227.3537,45.7803 C236.4187,45.2283 247.2437,45.5683 260.4497,46.8183 L261.2287,46.8913 L261.1997,47.6723 C260.4297,68.3293 258.0077,89.4933 254.0007,110.5763 L253.8867,111.1683 L253.2907,111.2433 C248.2367,111.8773 243.1327,112.1943 238.0157,112.1943" id="Fill-39" fill="#00EBAA"></path>
                <path d="M250.3934,85.4014 C250.2734,87.0024 250.1854,88.3704 250.0964,89.7364 C250.0114,91.0504 249.9264,92.3614 249.8144,93.8784 C249.6434,93.8744 249.4654,93.8734 249.2744,93.8734 C248.9074,93.8734 247.4394,93.9014 247.0894,93.9014 C246.9514,93.9014 246.8204,93.9004 246.6974,93.8984 L247.0504,85.4414 C247.6404,85.3044 248.2384,85.2354 248.8384,85.2354 C249.3714,85.2354 249.8924,85.2904 250.3934,85.4014 M245.8484,84.4964 C245.7004,88.0144 245.5534,91.5334 245.4054,95.0514 C247.0694,95.2824 249.2934,94.9744 250.9584,95.2054 C251.2814,91.0914 251.3834,88.6094 251.7074,84.4954 C249.8334,83.8024 247.7344,83.8514 245.8484,84.4964" id="Fill-41" fill="#00EBAA"></path>
                <path d="M232.351,85.4006 C232.23,87.0146 232.141,88.3936 232.052,89.7706 C231.968,91.0726 231.884,92.3746 231.772,93.8786 C231.603,93.8746 231.423,93.8726 231.234,93.8726 C230.865,93.8726 229.399,93.9016 229.046,93.9016 C228.909,93.9016 228.778,93.9006 228.655,93.8976 L229.009,85.4406 C229.599,85.3046 230.197,85.2356 230.796,85.2356 C231.329,85.2356 231.85,85.2906 232.351,85.4006 M227.807,84.4966 C227.659,88.0146 227.511,91.5326 227.364,95.0516 C229.028,95.2826 231.252,94.9746 232.917,95.2056 C233.24,91.0916 233.342,88.6096 233.666,84.4956 C231.792,83.8016 229.693,83.8506 227.807,84.4966" id="Fill-43" fill="#00EBAA"></path>
                <path d="M241.3722,85.4014 C241.2512,87.0144 241.1622,88.3934 241.0732,89.7704 C240.9892,91.0724 240.9052,92.3754 240.7932,93.8784 C240.6232,93.8744 240.4442,93.8734 240.2532,93.8734 C239.8862,93.8734 238.4182,93.9014 238.0672,93.9014 C237.9302,93.9014 237.7992,93.9004 237.6762,93.8984 L238.0302,85.4414 C238.6202,85.3044 239.2172,85.2354 239.8172,85.2354 C240.3502,85.2354 240.8712,85.2904 241.3722,85.4014 M236.8272,84.4964 C236.6802,88.0144 236.5322,91.5334 236.3842,95.0514 C238.0492,95.2824 240.2732,94.9744 241.9372,95.2054 C242.2612,91.0914 242.3632,88.6094 242.6872,84.4954 C240.8132,83.8024 238.7132,83.8514 236.8272,84.4964" id="Fill-45" fill="#00EBAA"></path>
                <path d="M246.2417,81.0476 L246.2397,81.0476 C240.1887,81.0476 234.2237,80.5986 229.0917,80.1326 C228.9337,79.1496 228.9837,78.1396 229.2387,77.1776 C233.0137,77.2666 236.7827,77.3886 240.5507,77.5116 C244.1857,77.6286 247.8197,77.7466 251.4587,77.8336 C251.4027,78.8786 251.4477,79.9116 251.5167,80.9276 C249.8097,81.0076 248.0397,81.0476 246.2417,81.0476 M252.8317,76.6236 C244.6617,76.4436 236.5217,76.0956 228.3517,75.9166 C227.6737,77.6106 227.5767,79.5306 228.0777,81.2856 C236.3687,82.0546 244.5397,82.5926 252.8517,82.1016 C252.7087,80.2676 252.5467,78.4406 252.8317,76.6236" id="Fill-47" fill="#00EBAA"></path>
                <path d="M253.1709,71.4597 C251.5269,71.5367 249.8709,71.5757 248.2389,71.5757 C242.0689,71.5757 235.7869,71.0167 229.5539,69.9147 C229.1289,63.8177 229.7369,57.7517 231.3619,51.8577 C233.2679,51.7437 235.2529,51.6857 237.2769,51.6857 C242.5359,51.6857 248.2189,52.0607 255.0929,52.8617 C255.5699,59.0147 254.8799,65.6887 253.1709,71.4597 M256.2409,51.7487 C247.6869,50.7167 239.0009,50.0767 230.4059,50.6757 C228.4859,57.2357 227.7989,64.1557 228.3909,70.9657 C236.9259,72.5507 245.4349,73.1307 254.1019,72.6567 C255.9199,66.9407 257.0009,59.4247 256.2409,51.7487" id="Fill-49" fill="#00EBAA"></path>
                <path d="M50.2416,35.7255 C51.1416,35.5815 52.0366,35.4435 52.9266,35.3095 C53.6076,31.3555 54.6406,27.4655 56.0126,23.6885 C54.7906,23.8555 53.5696,24.0255 52.3506,24.2235 C51.4176,28.0035 50.7106,31.8535 50.2416,35.7255" id="Fill-51" fill="#BD5174"></path>
                <path d="M61.2647,23.0558 C60.1297,23.1738 58.9947,23.2908 57.8637,23.4318 C56.4357,27.2018 55.3607,31.0958 54.6447,35.0568 C55.6597,34.9108 56.6517,34.7738 57.6257,34.6448 C58.5367,30.6948 59.7577,26.8188 61.2647,23.0558" id="Fill-53" fill="#BD5174"></path>
                <path d="M59.3701,34.4155 C60.8301,34.2295 62.2151,34.0645 63.4931,33.9215 C64.4711,30.0615 66.1841,26.2335 67.5681,22.4995 C66.0811,22.6025 64.6021,22.7275 63.1261,22.8655 C61.5751,26.6105 60.3121,30.4745 59.3701,34.4155" id="Fill-55" fill="#BD5174"></path>
                <path d="M50.5694,24.5393 C49.6484,24.7003 48.7274,24.8493 47.8054,25.0293 C46.3924,28.7363 45.5024,32.6413 45.1684,36.5943 C46.2834,36.3893 47.4124,36.1953 48.5434,36.0063 C48.9914,32.1493 49.6684,28.3123 50.5694,24.5393" id="Fill-57" fill="#BD5174"></path>
                <path d="M251.7797,14.1361 C248.9897,14.0631 246.2027,14.0341 243.4167,14.0211 L245.2137,30.7941 C247.0357,30.9661 248.8577,31.1411 250.6807,31.3211 L251.7797,14.1361 Z" id="Fill-59" fill="#BD5174"></path>
                <path d="M236.9704,29.998 C238.5974,30.159 240.2234,30.315 241.8494,30.469 L240.0864,14.02 C238.0814,14.025 236.0754,14.041 234.0684,14.069 C234.7984,19.399 235.7714,24.742 236.9704,29.998" id="Fill-61" fill="#BD5174"></path>
                <path d="M255.0893,14.2694 L253.9773,31.6614 C256.1253,31.8844 258.2733,32.1074 260.4243,32.3634 C261.4163,26.4104 261.9613,20.5884 261.8633,14.5534 C259.5993,14.4224 257.3453,14.3504 255.0893,14.2694" id="Fill-63" fill="#BD5174"></path>
                <path d="M230.7326,14.1194 C227.9336,14.1734 225.1316,14.2364 222.3196,14.3184 C223.4916,19.3584 225.1856,24.2774 227.3676,28.9694 C229.4126,29.2124 231.4556,29.4234 233.4976,29.6364 C232.3616,24.5084 231.4306,19.3074 230.7326,14.1194" id="Fill-65" fill="#BD5174"></path>
                <path d="M45.4894,160.1704 C42.8374,160.0754 40.2094,159.9774 37.6134,159.8764 C36.4674,161.0964 35.3774,162.3324 34.3034,163.5734 L43.2224,164.2554 L45.4894,160.1704 Z" id="Fill-67" fill="#FFFFEB"></path>
                <polygon id="Fill-69" fill="#69DBB7" points="39.0468 171.7796 50.2128 172.0926 55.0908 165.1636 43.2218 164.2556"></polygon>
                <path d="M55.0903,165.164 L58.3073,160.594 C53.9773,160.46 49.6913,160.321 45.4893,160.17 L43.2223,164.256 L55.0903,165.164 Z" id="Fill-71" fill="#CDF7E6"></path>
                <path d="M66.7049,166.0527 L71.2649,160.9707 C66.8839,160.8527 62.5759,160.7257 58.3069,160.5937 L55.0899,165.1637 L66.7049,166.0527 Z" id="Fill-73" fill="#83F7C7"></path>
                <path d="M45.7834,178.3867 C48.9724,178.4657 52.1844,178.5407 55.4404,178.6067 L61.0124,172.3967 L50.2134,172.0927 L45.7834,178.3867 Z" id="Fill-75" fill="#69DBB7"></path>
                <polygon id="Fill-77" fill="#FFFFEB" points="55.0903 165.164 50.2133 172.093 61.0133 172.396 66.7053 166.053"></polygon>
                <path d="M43.2222,164.2557 L34.3042,163.5727 C32.0642,166.1627 29.9862,168.7997 28.0282,171.4697 L39.0472,171.7797 L43.2222,164.2557 Z" id="Fill-79" fill="#83F7C7"></path>
                <path d="M39.0468,171.7796 L35.5378,178.1016 C38.9158,178.2046 42.3258,178.3006 45.7838,178.3866 L50.2128,172.0926 L39.0468,171.7796 Z" id="Fill-81" fill="#FFFFEB"></path>
                <path d="M28.0278,171.4701 C26.5168,173.5301 25.0528,175.6041 23.6838,177.7051 C27.5718,177.8511 31.5358,177.9801 35.5378,178.1021 L39.0468,171.7791 L28.0278,171.4701 Z" id="Fill-83" fill="#CDF7E6"></path>
                <g id="Group-87" transform="translate(27.000000, 165.000000)">
                    <mask id="mask-10" fill="white">
                        <use xlink:href="#path-9"></use>
                    </mask>
                    <g id="Clip-86"></g>
                    <path d="M3.21,3.35 C3.687,2.959 4.229,2.605 4.828,2.292 C6.776,1.279 9.347,0.703 12.326,0.742 C15.501,0.782 18.65,1.513 21.379,2.715 C21.999,2.988 22.598,3.286 23.17,3.605 C23.854,3.986 24.499,4.399 25.1,4.838 C27.21,6.382 28.755,8.255 29.39,10.263 C30.036,12.309 29.64,14.188 28.44,15.706 C28.128,16.102 27.761,16.473 27.342,16.816 C26.968,17.124 26.553,17.408 26.101,17.667 C24.112,18.809 21.401,19.465 18.227,19.425 C15.248,19.387 12.291,18.74 9.685,17.668 C8.881,17.338 8.11,16.967 7.383,16.561 C6.743,16.205 6.137,15.821 5.57,15.413 C3.399,13.853 1.809,11.948 1.163,9.903 C0.528,7.894 0.898,6.046 2.047,4.543 C2.374,4.116 2.763,3.717 3.21,3.35" id="Fill-85" mask="url(#mask-10)"></path>
                </g>
                <g id="Group-90" transform="translate(43.000000, 158.000000)">
                    <mask id="mask-12" fill="white">
                        <use xlink:href="#path-11"></use>
                    </mask>
                    <g id="Clip-89"></g>
                    <path d="M3.24,2.943 C3.717,2.553 4.258,2.198 4.858,1.886 C6.807,0.872 9.377,0.297 12.356,0.335 C15.531,0.375 18.681,1.107 21.409,2.308 C22.029,2.582 22.628,2.879 23.2,3.198 C23.884,3.58 24.529,3.992 25.13,4.431 C27.24,5.976 28.785,7.848 29.42,9.856 C30.065,11.902 29.67,13.782 28.472,15.299 C28.158,15.695 27.791,16.066 27.372,16.409 C26.998,16.717 26.583,17.001 26.131,17.261 C24.143,18.402 21.432,19.059 18.257,19.018 C15.277,18.98 12.321,18.334 9.715,17.262 C8.911,16.932 8.141,16.561 7.413,16.154 C6.773,15.798 6.167,15.414 5.601,15.006 C3.43,13.446 1.839,11.542 1.193,9.496 C0.559,7.488 0.929,5.639 2.077,4.137 C2.404,3.709 2.793,3.311 3.24,2.943" id="Fill-88" mask="url(#mask-12)"></path>
                </g>
                <path d="M163.8703,166.4 L167.6383,162.441 C163.9513,162.419 160.2953,162.392 156.6533,162.364 L153.0073,166.395 L163.8703,166.4 Z" id="Fill-91" fill="#69DBB7"></path>
                <path d="M153.0071,166.3948 L156.6541,162.3638 C152.9731,162.3348 149.3261,162.3018 145.6941,162.2668 L142.1591,166.3898 L153.0071,166.3948 Z" id="Fill-93" fill="#CDF7E6"></path>
                <polygon id="Fill-95" fill="#83F7C7" points="147.0258 173.0073 157.4388 173.1553 163.8708 166.4003 153.0068 166.3953"></polygon>
                <path d="M142.1589,166.3896 L145.6949,162.2666 C142.0219,162.2316 138.3799,162.1916 134.7589,162.1496 L131.3259,166.3846 L142.1589,166.3896 Z" id="Fill-97" fill="#FFFFEB"></path>
                <polygon id="Fill-99" fill="#FFFFEB" points="142.1589 166.3896 136.6109 172.8596 147.0259 173.0076 153.0069 166.3946"></polygon>
                <path d="M120.5061,166.3793 L123.8461,162.0113 C120.1861,161.9613 116.5541,161.9083 112.9531,161.8503 L109.7011,166.3743 L120.5061,166.3793 Z" id="Fill-101" fill="#FFFFEB"></path>
                <polygon id="Fill-103" fill="#69DBB7" points="120.5061 166.3793 115.7781 172.5633 126.1951 172.7113 131.3251 166.3843"></polygon>
                <polygon id="Fill-105" fill="#83F7C7" points="88.1343 166.3636 84.5193 172.1186 94.9403 172.2676 98.9113 166.3686"></polygon>
                <path d="M176.7858,166.4064 L181.3328,162.5134 C176.7348,162.4934 172.1718,162.4694 167.6388,162.4414 L163.8708,166.4004 L176.7858,166.4064 Z" id="Fill-107" fill="#83F7C7"></path>
                <polygon id="Fill-109" fill="#83F7C7" points="131.3254 166.3844 126.1944 172.7114 136.6114 172.8594 142.1584 166.3894"></polygon>
                <polygon id="Fill-111" fill="#FFFFEB" points="98.9108 166.3689 94.9398 172.2669 105.3598 172.4149 109.7018 166.3739"></polygon>
                <polygon id="Fill-113" fill="#CDF7E6" points="109.7014 166.3739 105.3594 172.4149 115.7774 172.5629 120.5064 166.3789"></polygon>
                <path d="M109.7014,166.3739 L112.9524,161.8499 C109.2984,161.7919 105.6704,161.7299 102.0784,161.6639 L98.9104,166.3689 L109.7014,166.3739 Z" id="Fill-115" fill="#69DBB7"></path>
                <path d="M131.3254,166.3844 L134.7594,162.1504 C131.0934,162.1074 127.4564,162.0614 123.8454,162.0114 L120.5064,166.3794 L131.3254,166.3844 Z" id="Fill-117" fill="#CDF7E6"></path>
                <path d="M115.7777,172.5632 L110.7777,179.1022 C114.1697,179.1012 117.5867,179.0952 121.0267,179.0842 L126.1947,172.7112 L115.7777,172.5632 Z" id="Fill-119" fill="#83F7C7"></path>
                <path d="M136.6109,172.8593 L131.3119,179.0383 C134.7329,179.0183 138.1719,178.9953 141.6359,178.9663 L147.0259,173.0073 L136.6109,172.8593 Z" id="Fill-121" fill="#CDF7E6"></path>
                <path d="M126.1948,172.7112 L121.0268,179.0842 C124.4328,179.0742 127.8608,179.0582 131.3118,179.0382 L136.6108,172.8592 L126.1948,172.7112 Z" id="Fill-123" fill="#FFFFEB"></path>
                <path d="M147.0258,173.0073 L141.6358,178.9663 C145.0718,178.9373 148.5228,178.9053 152.0008,178.8683 L157.4388,173.1553 L147.0258,173.0073 Z" id="Fill-125" fill="#69DBB7"></path>
                <polygon id="Fill-127" fill="#FFFFEB" points="163.8703 166.4 157.4393 173.155 168.7153 173.315 176.7853 166.406"></polygon>
                <path d="M152.0004,178.8684 C155.4404,178.8314 158.8914,178.7924 162.3704,178.7474 L168.7154,173.3154 L157.4394,173.1554 L152.0004,178.8684 Z" id="Fill-129" fill="#CDF7E6"></path>
                <path d="M84.5195,172.119 L80.2205,178.964 C83.5755,178.997 86.9645,179.023 90.3775,179.044 L94.9395,172.267 L84.5195,172.119 Z" id="Fill-131" fill="#CDF7E6"></path>
                <polygon id="Fill-133" fill="#CDF7E6" points="88.1343 166.3636 77.9683 166.3586 74.6903 171.9796 84.5193 172.1186"></polygon>
                <path d="M91.2209,161.4494 C87.7749,161.3764 84.3469,161.3014 80.9649,161.2194 L77.9679,166.3584 L88.1339,166.3634 L91.2209,161.4494 Z" id="Fill-135" fill="#83F7C7"></path>
                <path d="M74.6906,171.9794 L70.6816,178.8554 C73.8306,178.8974 77.0176,178.9324 80.2206,178.9644 L84.5196,172.1194 L74.6906,171.9794 Z" id="Fill-137" fill="#69DBB7"></path>
                <path d="M98.9108,166.3689 L102.0788,161.6639 C98.4288,161.5959 94.8038,161.5249 91.2208,161.4499 L88.1338,166.3639 L98.9108,166.3689 Z" id="Fill-139" fill="#CDF7E6"></path>
                <path d="M105.3595,172.4152 L100.5625,179.0892 C103.9415,179.0992 107.3485,179.1032 110.7775,179.1022 L115.7775,172.5632 L105.3595,172.4152 Z" id="Fill-141" fill="#69DBB7"></path>
                <path d="M94.9399,172.2672 L90.3779,179.0442 C93.7439,179.0652 97.1419,179.0802 100.5619,179.0892 L105.3599,172.4152 L94.9399,172.2672 Z" id="Fill-143" fill="#83F7C7"></path>
                <g id="Group-147" transform="translate(90.000000, 158.000000)">
                    <mask id="mask-14" fill="white">
                        <use xlink:href="#path-13"></use>
                    </mask>
                    <g id="Clip-146"></g>
                    <path d="M2.938,4.104 C3.35,3.612 3.812,3.156 4.316,2.743 C5.954,1.402 8.046,0.511 10.407,0.289 C12.925,0.052 15.36,0.613 17.419,1.753 C17.888,2.013 18.336,2.302 18.762,2.618 C19.271,2.997 19.747,3.414 20.184,3.865 C21.722,5.455 22.782,7.473 23.106,9.729 C23.437,12.026 22.955,14.225 21.868,16.079 C21.584,16.562 21.259,17.023 20.896,17.456 C20.571,17.843 20.217,18.208 19.835,18.546 C18.154,20.038 15.943,21.035 13.426,21.271 C11.064,21.494 8.774,21.014 6.801,20.012 C6.192,19.703 5.613,19.345 5.071,18.942 C4.596,18.588 4.148,18.201 3.735,17.782 C2.151,16.18 1.058,14.129 0.728,11.832 C0.402,9.576 0.861,7.415 1.907,5.583 C2.205,5.062 2.55,4.567 2.938,4.104" id="Fill-145" mask="url(#mask-14)"></path>
                </g>
                <g id="Group-150" transform="translate(117.000000, 164.000000)">
                    <mask id="mask-16" fill="white">
                        <use xlink:href="#path-15"></use>
                    </mask>
                    <g id="Clip-149"></g>
                    <path d="M2.839,4.796 C3.252,4.304 3.714,3.848 4.218,3.435 C5.855,2.094 7.947,1.202 10.31,0.98 C12.826,0.744 15.262,1.305 17.32,2.445 C17.789,2.704 18.238,2.993 18.664,3.31 C19.173,3.688 19.648,4.105 20.086,4.557 C21.624,6.146 22.684,8.165 23.008,10.42 C23.339,12.718 22.856,14.917 21.77,16.771 C21.485,17.254 21.161,17.715 20.798,18.147 C20.474,18.534 20.118,18.899 19.736,19.238 C18.056,20.729 15.845,21.727 13.327,21.963 C10.966,22.185 8.677,21.705 6.702,20.703 C6.094,20.395 5.515,20.037 4.974,19.634 C4.497,19.28 4.051,18.892 3.637,18.474 C2.053,16.871 0.959,14.82 0.629,12.523 C0.305,10.267 0.763,8.106 1.809,6.274 C2.106,5.753 2.451,5.259 2.839,4.796" id="Fill-148" mask="url(#mask-16)"></path>
                </g>
                <g id="Group-153" transform="translate(155.000000, 158.000000)">
                    <mask id="mask-18" fill="white">
                        <use xlink:href="#path-17"></use>
                    </mask>
                    <g id="Clip-152"></g>
                    <path d="M2.815,4.104 C3.229,3.612 3.69,3.156 4.195,2.743 C5.832,1.402 7.925,0.511 10.286,0.289 C12.804,0.052 15.239,0.613 17.298,1.753 C17.766,2.013 18.215,2.302 18.641,2.618 C19.149,2.997 19.625,3.414 20.062,3.865 C21.601,5.455 22.66,7.473 22.985,9.729 C23.315,12.026 22.834,14.225 21.746,16.079 C21.463,16.562 21.138,17.023 20.775,17.456 C20.45,17.843 20.096,18.208 19.713,18.546 C18.033,20.038 15.822,21.035 13.305,21.271 C10.943,21.494 8.653,21.014 6.68,20.012 C6.07,19.703 5.492,19.345 4.95,18.942 C4.475,18.588 4.027,18.201 3.614,17.782 C2.029,16.18 0.937,14.129 0.605,11.832 C0.281,9.576 0.74,7.415 1.786,5.583 C2.083,5.062 2.428,4.567 2.815,4.104" id="Fill-151" mask="url(#mask-18)"></path>
                </g>
                <path d="M219.4296,167.1577 L224.5916,162.5827 C217.7656,162.5877 210.9826,162.5877 204.2726,162.5787 L200.9366,166.7407 L219.4296,167.1577 Z" id="Fill-154" fill="#83F7C7"></path>
                <path d="M204.2729,162.5786 C200.1889,162.5726 196.1259,162.5646 192.0869,162.5526 L188.7459,166.4656 L200.9359,166.7406 L204.2729,162.5786 Z" id="Fill-156" fill="#FFFFEB"></path>
                <path d="M236.0063,167.5316 C237.8573,165.8746 239.6503,164.2166 241.3063,162.5586 C235.6943,162.5716 230.1313,162.5786 224.5913,162.5826 L219.4293,167.1576 L236.0063,167.5316 Z" id="Fill-158" fill="#69DBB7"></path>
                <polygon id="Fill-160" fill="#69DBB7" points="196.1964 172.6527 213.2294 172.6527 219.4294 167.1577 200.9364 166.7407"></polygon>
                <polygon id="Fill-162" fill="#83F7C7" points="200.9362 166.7406 188.7452 166.4656 183.4622 172.6526 196.1962 172.6526"></polygon>
                <path d="M219.4296,167.1577 L213.2296,172.6527 L230.0066,172.6527 C232.0976,170.9457 234.0996,169.2387 236.0066,167.5317 L219.4296,167.1577 Z" id="Fill-164" fill="#83F7C7"></path>
                <path d="M207.2121,177.9857 C212.6771,177.8737 218.1671,177.7567 223.7071,177.6287 C225.8911,175.9707 227.9741,174.3117 230.0071,172.6527 L213.2291,172.6527 L207.2121,177.9857 Z" id="Fill-166" fill="#FFFFEB"></path>
                <path d="M183.4625,172.6527 L178.4585,178.5137 C182.8375,178.4437 187.2505,178.3667 191.6795,178.2867 L196.1965,172.6527 L183.4625,172.6527 Z" id="Fill-168" fill="#CDF7E6"></path>
                <path d="M196.1964,172.6527 L191.6794,178.2867 C196.8214,178.1937 202.0024,178.0927 207.2124,177.9857 L213.2294,172.6527 L196.1964,172.6527 Z" id="Fill-170" fill="#83F7C7"></path>
                <g id="Group-174" transform="translate(183.000000, 154.000000)">
                    <mask id="mask-20" fill="white">
                        <use xlink:href="#path-19"></use>
                    </mask>
                    <g id="Clip-173"></g>
                    <path d="M2.781,3.176 C3.258,2.786 3.8,2.431 4.4,2.119 C6.349,1.105 8.919,0.529 11.897,0.568 C15.073,0.608 18.223,1.339 20.95,2.541 C21.57,2.814 22.17,3.112 22.741,3.431 C23.425,3.812 24.071,4.225 24.671,4.664 C26.782,6.208 28.327,8.081 28.962,10.089 C29.607,12.135 29.212,14.014 28.013,15.531 C27.7,15.927 27.332,16.299 26.914,16.642 C26.539,16.949 26.125,17.234 25.673,17.494 C23.685,18.635 20.974,19.292 17.798,19.25 C14.819,19.213 11.863,18.566 9.256,17.495 C8.452,17.164 7.682,16.793 6.954,16.387 C6.314,16.03 5.709,15.646 5.143,15.239 C2.972,13.679 1.38,11.774 0.734,9.729 C0.1,7.72 0.471,5.872 1.618,4.37 C1.945,3.942 2.335,3.543 2.781,3.176" id="Fill-172" mask="url(#mask-20)"></path>
                </g>
                <g id="Group-177" transform="translate(202.000000, 165.000000)">
                    <mask id="mask-22" fill="white">
                        <use xlink:href="#path-21"></use>
                    </mask>
                    <g id="Clip-176"></g>
                    <path d="M2.81,3.053 C3.286,2.662 3.827,2.308 4.428,1.996 C6.376,0.982 8.946,0.406 11.926,0.444 C15.101,0.485 18.25,1.216 20.978,2.418 C21.599,2.691 22.197,2.989 22.77,3.308 C23.453,3.689 24.099,4.102 24.699,4.541 C26.81,6.085 28.354,7.958 28.989,9.966 C29.635,12.012 29.239,13.891 28.04,15.408 C27.728,15.804 27.359,16.176 26.941,16.519 C26.567,16.826 26.152,17.111 25.7,17.371 C23.712,18.512 21.001,19.168 17.826,19.127 C14.847,19.089 11.891,18.443 9.284,17.372 C8.48,17.041 7.71,16.67 6.981,16.264 C6.343,15.907 5.736,15.523 5.17,15.116 C2.999,13.556 1.408,11.651 0.762,9.606 C0.128,7.597 0.498,5.749 1.646,4.247 C1.973,3.819 2.362,3.42 2.81,3.053" id="Fill-175" mask="url(#mask-22)"></path>
                </g>
                <polygon id="Fill-178" fill="#53ACD3" points="34.0148 220.3975 25.0788 228.3505 240.0838 228.3505 245.9628 221.7995"></polygon>
                <polygon id="Fill-180" fill="#BD5174" points="25.0792 228.3506 27.8552 232.9996 240.4592 232.9996 240.0832 228.3506"></polygon>
                <g id="Group-184" transform="translate(240.000000, 221.000000)">
                    <mask id="mask-24" fill="white">
                        <use xlink:href="#path-23"></use>
                    </mask>
                    <g id="Clip-183"></g>
                    <polygon id="Fill-182" fill="#993661" mask="url(#mask-24)" points="5.9632 0.7991 0.0832 7.3511 0.4592 12.0001 5.4862 12.0001"></polygon>
                </g>
            </g>
        </g>
    </g>
</svg>