<?xml version="1.0" encoding="UTF-8"?>
<svg width="16px" height="23px" viewBox="0 0 16 23" version="1.1" xmlns="http://www.w3.org/2000/svg" xmlns:xlink="http://www.w3.org/1999/xlink">
    <!-- Generator: Sketch 53.1 (72631) - https://sketchapp.com -->
    <title>Group 5Backward</title>
    <desc>Created with Sketch.</desc>
    <defs>
        <polygon id="path-1" points="0.9565 0.25 15.581 0.25 15.581 23 0.9565 23"></polygon>
    </defs>
    <g id="Page-1" stroke="none" stroke-width="1" fill="none" fill-rule="evenodd">
        <g id="Desktop-HD" transform="translate(-654.000000, -1091.000000)">
            <g id="Group-5" transform="translate(654.000000, 1090.750000)">
                <mask id="mask-2" fill="white">
                    <use xlink:href="#path-1"></use>
                </mask>
                <g id="Clip-4"></g>
                <path d="M4.5635,12.665 L4.5635,19.393 L8.6255,19.393 C9.5575,19.371 10.3485,19.035 10.9995,18.385 C11.6485,17.735 11.9735,16.944 11.9735,16.012 C11.9735,15.081 11.6485,14.296 10.9995,13.656 C10.3485,13.017 9.5575,12.687 8.6255,12.665 L4.5635,12.665 Z M4.5635,3.857 L4.5635,9.058 L7.3585,9.058 C8.0735,9.058 8.6795,8.798 9.1785,8.278 C9.6765,7.758 9.9255,7.14 9.9255,6.425 C9.9255,5.71 9.6765,5.104 9.1785,4.605 C8.6795,4.107 8.0735,3.857 7.3585,3.857 L4.5635,3.857 Z M2.8745,23 L2.8405,22.967 C2.8195,22.967 2.7875,22.979 2.7445,23 C2.2455,23 1.8225,22.827 1.4765,22.48 C1.1285,22.134 0.9565,21.711 0.9565,21.212 L0.9565,2.038 C0.9565,1.539 1.1285,1.117 1.4765,0.77 C1.8225,0.424 2.2455,0.25 2.7445,0.25 L7.3585,0.25 C9.0705,0.25 10.5275,0.851 11.7295,2.054 C12.9325,3.256 13.5335,4.627 13.5335,6.165 C13.5335,7.704 13.1225,9.025 12.2985,10.13 C13.2945,10.759 14.0905,11.592 14.6875,12.633 C15.2835,13.673 15.5815,14.799 15.5815,16.012 C15.5815,17.941 14.9035,19.587 13.5495,20.952 C12.1955,22.317 10.5545,23 8.6255,23 L2.8745,23 Z" id="Fill-3" fill="#FFFFFF" mask="url(#mask-2)"></path>
            </g>
        </g>
    </g>
</svg>