<?xml version="1.0" encoding="UTF-8"?>
<svg width="28px" height="36px" viewBox="0 0 28 36" version="1.1" xmlns="http://www.w3.org/2000/svg" xmlns:xlink="http://www.w3.org/1999/xlink">
    <!-- Generator: Sketch 53.1 (72631) - https://sketchapp.com -->
    <title>Fill 1Bag</title>
    <desc>Created with Sketch.</desc>
    <g id="Page-1" stroke="none" stroke-width="1" fill="none" fill-rule="evenodd">
        <g id="Desktop-HD" transform="translate(-1165.000000, -640.000000)" fill="#FFFFFF">
            <path d="M1189.0734,658.1852 C1189.0734,652.5752 1184.5094,648.0112 1178.8994,648.0112 C1173.2894,648.0112 1168.7254,652.5752 1168.7254,658.1852 C1168.7254,658.6912 1169.1364,659.1022 1169.6424,659.1022 C1170.1484,659.1022 1170.5584,658.6912 1170.5584,658.1852 C1170.5584,653.5862 1174.3004,649.8442 1178.8994,649.8442 C1183.4984,649.8442 1187.2404,653.5862 1187.2404,658.1852 C1187.2404,658.6912 1187.6504,659.1022 1188.1564,659.1022 C1188.6624,659.1022 1189.0734,658.6912 1189.0734,658.1852 L1189.0734,658.1852 Z M1189.0734,664.3562 C1189.0734,663.8502 1188.6634,663.4392 1188.1564,663.4392 L1169.6424,663.4392 C1169.1364,663.4392 1168.7254,663.8502 1168.7254,664.3562 L1168.7254,670.9552 C1168.7254,671.4612 1169.1364,671.8722 1169.6424,671.8722 L1188.1564,671.8722 C1188.6634,671.8722 1189.0734,671.4612 1189.0734,670.9552 L1189.0734,664.3562 Z M1175.2714,645.6492 C1176.4224,645.3062 1177.6294,645.1242 1178.8654,645.1222 L1178.8874,645.1222 C1180.1534,645.1222 1181.3744,645.3132 1182.5284,645.6622 C1182.5004,644.0682 1181.1974,642.7802 1179.5974,642.7802 L1178.2014,642.7802 C1176.6054,642.7802 1175.3064,644.0612 1175.2714,645.6492 L1175.2714,645.6492 Z M1192.2514,644.6622 L1190.3534,652.4832 C1191.0894,654.0792 1191.5044,655.8522 1191.5074,657.7212 L1191.5324,672.1562 C1191.5344,672.9772 1191.2154,673.7492 1190.6364,674.3302 C1190.0574,674.9122 1189.2854,675.2332 1188.4654,675.2342 L1169.3704,675.2672 L1169.3644,675.2672 C1167.6734,675.2672 1166.2944,673.8912 1166.2914,672.2002 L1166.2664,657.7652 C1166.2634,655.8922 1166.6674,654.0812 1167.4334,652.4312 L1165.5474,644.6622 C1165.4494,644.2582 1165.6354,643.8382 1166.0014,643.6402 L1169.1554,641.9312 C1169.4054,641.7952 1169.7044,641.7842 1169.9644,641.8992 C1170.2244,642.0152 1170.4154,642.2442 1170.4834,642.5212 L1171.6654,647.3932 C1172.2284,646.9982 1172.8214,646.6542 1173.4354,646.3592 L1173.4354,645.7132 C1173.4354,643.0852 1175.5734,640.9472 1178.2014,640.9472 L1179.5974,640.9472 C1182.2254,640.9472 1184.3634,643.0852 1184.3634,645.7132 L1184.3634,646.3802 C1184.9804,646.6792 1185.5714,647.0252 1186.1274,647.4172 L1187.3154,642.5212 C1187.3834,642.2442 1187.5744,642.0152 1187.8344,641.8992 C1188.0944,641.7842 1188.3924,641.7952 1188.6434,641.9312 L1191.7974,643.6402 C1192.1634,643.8382 1192.3494,644.2582 1192.2514,644.6622 L1192.2514,644.6622 Z M1170.5584,670.0382 L1187.2404,670.0382 L1187.2404,665.2722 L1170.5584,665.2722 L1170.5584,670.0382 Z" id="Fill-1"></path>
        </g>
    </g>
</svg>