<?xml version="1.0" encoding="UTF-8"?>
<svg width="22px" height="22px" viewBox="0 0 22 22" version="1.1" xmlns="http://www.w3.org/2000/svg" xmlns:xlink="http://www.w3.org/1999/xlink">
    <!-- Generator: Sketch 53.1 (72631) - https://sketchapp.com -->
    <title>Fill 8 CopyCross</title>
    <desc>Created with Sketch.</desc>
    <g id="Page-1" stroke="none" stroke-width="1" fill="none" fill-rule="evenodd">
        <g id="Desktop-HD" transform="translate(-820.000000, -905.000000)" fill="#FFFFFF">
            <g id="Fill-8-Copy" transform="translate(831.000000, 916.250900) rotate(-315.000000) translate(-831.000000, -916.250900) translate(817.000000, 902.250900)">
                <path d="M24.8890007,16.025 L16.0250007,16.025 L16.0250007,24.889 C16.0240007,26.208 14.9560007,27.276 13.6370007,27.277 C12.9790007,27.277 12.3820007,27.01 11.9500007,26.578 C11.5180007,26.146 11.2510007,25.549 11.2510007,24.89 L11.2510007,16.025 L2.3860007,16.025 C1.7270007,16.025 1.1300007,15.758 0.698000701,15.326 C0.267000701,14.894 7.01018308e-07,14.298 7.01018308e-07,13.639 C-0.000999298982,12.32 1.0680007,11.252 2.3870007,11.252 L11.2510007,11.251 L11.2510007,2.387 C11.2510007,1.068 12.3190007,1.42108547e-14 13.6380007,1.42108547e-14 C14.9560007,1.42108547e-14 16.0240007,1.068 16.0240007,2.386 L16.0250007,11.251 L24.8890007,11.251 C26.2070007,11.252 27.2750007,12.32 27.2760007,13.638 C27.2760007,14.956 26.2070007,16.025 24.8890007,16.025" id="Fill-7"></path>
            </g>
        </g>
    </g>
</svg>