<?xml version="1.0" encoding="UTF-8"?>
<svg width="27px" height="28px" viewBox="0 0 27 28" version="1.1" xmlns="http://www.w3.org/2000/svg" xmlns:xlink="http://www.w3.org/1999/xlink">
    <!-- Generator: Sketch 53.1 (72631) - https://sketchapp.com -->
    <title>Group 9Flip</title>
    <desc>Created with Sketch.</desc>
    <g id="Page-1" stroke="none" stroke-width="1" fill="none" fill-rule="evenodd">
        <g id="Desktop-HD" transform="translate(-523.000000, -902.000000)" fill="#FFFFFF">
            <g id="Group-9" transform="translate(523.297660, 902.474775)">
                <g id="Group-6">
                    <path d="M26.3990395,8.4481251 L24.2410395,1.1041251 C24.1950395,0.952125098 24.0630395,0.841125098 23.9030395,0.824125098 C23.7440395,0.806125098 23.5920395,0.886125098 23.5160395,1.0241251 L22.2930395,3.2401251 C17.0280395,-1.0788749 9.38503951,-1.0808749 4.12003951,3.2391251 L2.89903951,1.0241251 C2.82303951,0.886125098 2.66903951,0.806125098 2.51003951,0.824125098 C2.35203951,0.841125098 2.22003951,0.952125098 2.17403951,1.1041251 L0.0160395102,8.4481251 C-0.0249604898,8.5871251 0.0140395102,8.7371251 0.11703951,8.8381251 C0.21703951,8.9411251 0.36803951,8.9791251 0.50703951,8.9391251 L7.84903951,6.7811251 C8.00303951,6.7361251 8.11403951,6.6021251 8.13003951,6.4441251 C8.14903951,6.2861251 8.06803951,6.1321251 7.92803951,6.0561251 L6.17403951,5.0881251 C10.3160395,1.9341251 16.0980395,1.9341251 20.2400395,5.0881251 L18.4850395,6.0561251 C18.3470395,6.1321251 18.2660395,6.2861251 18.2830395,6.4441251 C18.3010395,6.6021251 18.4110395,6.7361251 18.5640395,6.7811251 L25.9080395,8.9391251 C26.0470395,8.9791251 26.1970395,8.9411251 26.2980395,8.8381251 C26.4010395,8.7371251 26.4400395,8.5871251 26.3990395,8.4481251" id="Fill-17"></path>
                    <path d="M13.2072395,9.4026251 C12.7072395,9.4026251 12.3022395,9.8076251 12.3022395,10.3076251 L12.3022395,24.6726251 C12.3022395,25.1726251 12.7072395,25.5776251 13.2072395,25.5776251 C13.7072395,25.5776251 14.1122395,25.1726251 14.1122395,24.6726251 L14.1122395,10.3076251 C14.1122395,9.8076251 13.7072395,9.4026251 13.2072395,9.4026251" id="Fill-21"></path>
                    <path d="M25.5890395,12.5583251 C25.3590395,12.4483251 25.0870395,12.4813251 24.8890395,12.6423251 L16.8900395,19.1493251 C16.7360395,19.2753251 16.6460395,19.4623251 16.6460395,19.6613251 C16.6460395,19.8603251 16.7360395,20.0473251 16.8900395,20.1723251 L24.8890395,26.6813251 C25.0870395,26.8423251 25.3590395,26.8743251 25.5890395,26.7653251 C25.8190395,26.6563251 25.9650395,26.4243251 25.9650395,26.1693251 L25.9650395,13.1533251 C25.9650395,12.8993251 25.8190395,12.6673251 25.5890395,12.5583251" id="Fill-23"></path>
                </g>
                <path d="M9.52473951,19.1495251 L1.52573951,12.6425251 C1.32773951,12.4815251 1.05573951,12.4485251 0.82573951,12.5585251 C0.59573951,12.6665251 0.44973951,12.8995251 0.44973951,13.1535251 L0.44973951,26.1695251 C0.44973951,26.4235251 0.59573951,26.6565251 0.82573951,26.7645251 C1.05573951,26.8745251 1.32773951,26.8415251 1.52573951,26.6805251 L9.52473951,20.1725251 C9.67873951,20.0475251 9.76873951,19.8595251 9.76873951,19.6615251 C9.76873951,19.4625251 9.67873951,19.2745251 9.52473951,19.1495251" id="Fill-19"></path>
            </g>
        </g>
    </g>
</svg>