<?xml version="1.0" encoding="UTF-8"?>
<svg width="1440px" height="751px" viewBox="0 0 1440 751" version="1.1" xmlns="http://www.w3.org/2000/svg" xmlns:xlink="http://www.w3.org/1999/xlink">
    <!-- Generator: Sketch 53.1 (72631) - https://sketchapp.com -->
    <title>Group 31Bckground</title>
    <desc>Created with Sketch.</desc>
    <defs>
        <polygon id="path-1" points="0.483 0.2173 1441 0.2173 1441 251 0.483 251"></polygon>
        <polygon id="path-3" points="0.0751 0.0645 451.746 0.0645 451.746 70.0315 0.0751 70.0315"></polygon>
        <polygon id="path-5" points="0.7767 0.9061 267.1807 0.9061 267.1807 150 0.7767 150"></polygon>
        <polygon id="path-7" points="0 0.0264 1151.40226 0.0264 1151.40226 398.7644 0 398.7644"></polygon>
    </defs>
    <g id="Page-1" stroke="none" stroke-width="1" fill="none" fill-rule="evenodd">
        <g id="Desktop-HD" transform="translate(0.000000, -3606.000000)">
            <g id="Group-31" transform="translate(0.000000, 3605.000000)">
                <polygon id="Fill-1" fill="#330A32" points="1189.6527 450.3898 534.6697 450.3898 534.6697 18.4918 1192.8897 41.5408"></polygon>
                <g id="Group-30" transform="translate(0.000000, 0.974000)">
                    <path d="M819.8329,473.5047 C743.5759,523.8847 640.9169,502.9077 590.5359,426.6507 C540.1559,350.3937 561.1329,247.7337 637.3899,197.3537 C713.6469,146.9737 816.3069,167.9517 866.6869,244.2077 C917.0669,320.4647 896.0899,423.1247 819.8329,473.5047" id="Fill-2" fill="#EE7D61"></path>
                    <path d="M590.5363,426.6508 C540.1563,350.3938 561.1333,247.7338 637.3903,197.3538 C662.4873,180.7728 690.4453,171.9248 718.4573,170.2288 C708.5453,177.3988 699.3193,185.6078 691.3313,194.6778 C665.1943,224.3528 654.8563,263.4948 655.9083,302.4358 C656.6193,328.7388 662.9293,354.3758 674.6523,377.2408 C680.7063,389.1298 688.2513,400.2928 697.3493,410.4028 C702.3083,415.9538 707.7013,421.1898 713.5313,426.0548 C742.0153,449.8268 777.5403,460.9928 814.4963,458.1078 C824.8353,457.3008 835.0313,455.5528 845.0493,453.0538 C837.4693,460.5418 829.0603,467.4088 819.8333,473.5048 C743.5763,523.8848 640.9163,502.9078 590.5363,426.6508" id="Fill-4" fill="#DB2823"></path>
                    <path d="M1132.5175,340.7017 C1124.5465,275.9937 1108.3005,213.3537 1079.5455,153.8407 C1075.4795,145.4267 1068.4955,139.9787 1060.7645,139.2727 C931.0035,127.4237 801.2425,127.3947 671.4805,139.1857 C663.2245,139.9357 655.8885,146.1067 651.9655,155.4017 C626.6595,215.3607 609.4645,276.8177 599.9005,339.6927 C597.0225,358.6117 608.4705,376.1597 623.5825,376.1597 L1108.6955,376.1597 C1123.4805,376.1597 1134.8125,359.3297 1132.5175,340.7017 L1132.5175,340.7017 Z M1250.8895,417.0337 L357.7325,410.1097 L351.3975,8.1977 L1250.8895,6.6987 L1250.8895,417.0337 Z" id="Fill-6" fill="#00B8C4"></path>
                    <path d="M594.1877,340.8816 C603.9417,274.7396 621.4767,210.0886 647.2847,147.0136 C651.2857,137.2356 658.7657,130.7436 667.1867,129.9546 C799.5207,117.5516 931.8537,117.5816 1064.1877,130.0466 C1072.0707,130.7886 1079.1937,136.5196 1083.3407,145.3716 C1112.6657,207.9766 1129.2337,273.8716 1137.3627,341.9426 C1139.7027,361.5386 1128.1467,379.2436 1113.0677,379.2436 L618.3387,379.2436 C602.9277,379.2436 591.2527,360.7836 594.1877,340.8816 L594.1877,340.8816 Z M1444.0447,0.0266 L1.4157,0.0266 L3.9997,555.1956 L1443.9997,555.1956 L1444.0447,0.0266 Z" id="Fill-8" fill="#0E4361"></path>
                    <g id="Group-12" transform="translate(3.000000, 500.000000)">
                        <mask id="mask-2" fill="white">
                            <use xlink:href="#path-1"></use>
                        </mask>
                        <g id="Clip-11"></g>
                        <polygon id="Fill-10" fill="#53D7D3" mask="url(#mask-2)" points="1441 0.2173 0.999 0.2173 0.483 251.0003 1441 251.0003"></polygon>
                    </g>
                    <path d="M429.9201,565.9503 C429.9201,590.7723 555.8391,610.8953 711.1691,610.8953 C866.4981,610.8953 992.4181,590.7723 992.4181,565.9503 C992.4181,541.1273 866.4981,521.0053 711.1691,521.0053 C555.8391,521.0053 429.9201,541.1273 429.9201,565.9503 M711.1691,519.3293 C872.2151,519.3293 1002.7681,541.2843 1002.7681,568.3673 C1002.7681,595.4493 872.2151,617.4043 711.1691,617.4043 C550.1231,617.4043 419.5701,595.4493 419.5701,568.3673 C419.5701,541.2843 550.1231,519.3293 711.1691,519.3293" id="Fill-13" fill="#44BCB6"></path>
                    <g id="Group-17" transform="translate(993.000000, 571.000000)">
                        <mask id="mask-4" fill="white">
                            <use xlink:href="#path-3"></use>
                        </mask>
                        <g id="Clip-16"></g>
                        <polygon id="Fill-15" fill="#44BCB6" mask="url(#mask-4)" points="5.5321 0.0645 451.7461 58.9875 451.7461 70.0315 0.0751 1.0655"></polygon>
                    </g>
                    <g id="Group-20" transform="translate(796.000000, 601.000000)">
                        <mask id="mask-6" fill="white">
                            <use xlink:href="#path-5"></use>
                        </mask>
                        <g id="Clip-19"></g>
                        <polygon id="Fill-18" fill="#44BCB6" mask="url(#mask-6)" points="99.4487 1.8361 241.7447 60.7301 0.7767 82.4271 74.8057 150.0001 91.0147 150.0001 27.3117 90.4861 267.1807 64.4491 103.6487 0.9061"></polygon>
                    </g>
                    <polygon id="Fill-21" fill="#44BCB6" points="572.2058 610.8953 354.1088 671.3383 232.8518 594.6223 3.9998 598.6953 3.9998 616.5513 234.0798 598.6783 355.8118 682.1873 579.3098 612.1153"></polygon>
                    <polygon id="Fill-23" fill="#44BCB6" points="487.5985 536.884 425.4885 500.257 422.5805 500.217 485.9475 537.217"></polygon>
                    <polygon id="Fill-25" fill="#44BCB6" points="1007.0583 505.3412 926.5453 535.3092 923.9603 535.3092 1000.5633 505.4702"></polygon>
                    <g id="Group-29">
                        <mask id="mask-8" fill="white">
                            <use xlink:href="#path-7"></use>
                        </mask>
                        <g id="Clip-28"></g>
                        <path d="M1139.1077,377.7354 C1132.9177,387.3144 1123.9077,392.8074 1114.3877,392.8074 L618.7757,392.8074 C609.0247,392.8074 599.8727,387.0944 593.6647,377.1334 C587.4887,367.2194 585.0047,354.3174 586.8487,341.7324 C596.8237,273.6784 614.9877,206.9454 640.8377,143.3834 C646.1787,130.2504 656.0157,121.7824 667.1517,120.7334 C733.1447,114.5094 800.0717,111.3544 866.0747,111.3544 C866.0897,111.3544 866.1047,111.3544 866.1197,111.3544 L872.2427,111.3724 C936.5687,111.5644 1001.7137,114.7354 1065.9827,120.8254 C1076.3617,121.8084 1085.8317,129.4254 1091.3117,141.2024 C1119.5097,201.7624 1137.5637,267.8274 1146.5067,343.1704 C1147.9807,355.5784 1145.2827,368.1764 1139.1077,377.7354 M1150.9527,342.2454 C1141.9157,266.1084 1123.6607,199.3234 1095.1447,138.0774 C1088.9067,124.6734 1078.1247,116.0024 1066.3037,114.8824 C1001.8907,108.7794 936.5987,105.6024 872.1277,105.4154 L872.1177,104.8754 C872.1177,94.4694 866.4527,84.6854 856.1657,77.3264 L833.9397,61.4264 C824.7857,54.8784 819.7447,46.1724 819.7447,36.9124 L819.7447,0.0264 L813.7467,0.0264 L813.7467,36.9124 C813.7467,47.3184 819.4117,57.1014 829.6977,64.4604 L851.9247,80.3604 C861.0787,86.9094 866.1197,95.6154 866.1197,104.8754 L866.1197,105.3974 C866.1047,105.3974 866.0897,105.3974 866.0747,105.3974 C818.5787,105.3974 770.6067,107.0374 722.8467,110.2674 L722.8467,104.7064 C722.8467,89.8004 730.9727,75.9934 744.5847,67.7744 L759.7567,58.6124 C775.0547,49.3764 784.1867,33.8604 784.1867,17.1094 L784.1867,0.0264 L778.1887,0.0264 L778.1887,17.1094 C778.1887,32.0154 770.0617,45.8214 756.4497,54.0414 L741.2777,63.2024 C725.9797,72.4394 716.8477,87.9554 716.8477,104.7064 L717.3457,110.6394 C700.4677,111.8244 683.6197,113.2074 666.8317,114.7904 C654.1487,115.9864 642.9497,125.6204 636.8737,140.5604 C635.9987,142.7134 635.1547,144.8784 634.2967,147.0384 L506.0277,147.0384 C488.6597,147.0384 472.5747,156.1084 462.9967,171.3004 L453.4997,186.3674 C445.0027,199.8484 430.6207,207.9584 415.2097,207.9584 L-0.0003,207.9584 L-0.0003,213.9164 L415.2077,213.9164 C432.5267,213.9164 448.6897,204.8024 458.2397,189.6524 L467.7357,174.5864 C476.2337,161.1054 490.6167,152.9954 506.0277,152.9954 L631.9327,152.9954 C608.4847,213.3344 591.8437,276.3784 582.4297,340.5984 C581.3397,348.0354 581.5877,355.5654 583.0497,362.6704 L474.9777,362.6704 C462.7167,362.6704 451.1897,357.6644 442.5207,348.5744 L369.4107,271.9114 C359.6697,261.6954 346.7167,256.0694 332.9387,256.0694 L-0.0003,256.0694 L-0.0003,262.0274 L332.9387,262.0274 C345.1987,262.0274 356.7247,267.0334 365.3937,276.1234 L438.5037,352.7864 C448.2457,363.0024 461.1997,368.6274 474.9777,368.6274 L584.5967,368.6274 C585.9807,373.0104 587.8467,377.1584 590.1927,380.9234 C597.2577,392.2624 607.6757,398.7644 618.7757,398.7644 L1114.3877,398.7644 C1125.2247,398.7644 1135.4817,392.5114 1142.5277,381.6074 C1149.5607,370.7234 1152.6317,356.3774 1150.9527,342.2454" id="Fill-27" fill="#146875" mask="url(#mask-8)"></path>
                    </g>
                </g>
            </g>
        </g>
    </g>
</svg>