<?xml version="1.0" encoding="UTF-8"?>
<svg width="27px" height="26px" viewBox="0 0 27 26" version="1.1" xmlns="http://www.w3.org/2000/svg" xmlns:xlink="http://www.w3.org/1999/xlink">
    <!-- Generator: Sketch 53.1 (72631) - https://sketchapp.com -->
    <title>Group 2profile</title>
    <desc>Created with Sketch.</desc>
    <g id="Page-1" stroke="none" stroke-width="1" fill="none" fill-rule="evenodd">
        <g id="Desktop-HD" transform="translate(-337.000000, -643.000000)" fill="#FFFFFF">
            <g id="Group-2" transform="translate(337.442100, 643.734800)">
                <path d="M12.874,5.8721 C12.458,5.8721 12.12,6.1981 12.12,6.6001 C12.12,7.0021 12.458,7.3281 12.874,7.3281 C13.29,7.3281 13.628,7.0021 13.628,6.6001 C13.628,6.1981 13.29,5.8721 12.874,5.8721" id="Fill-52"></path>
                <path d="M10.611,6.6 C10.611,5.396 11.626,4.416 12.874,4.416 C14.122,4.416 15.137,5.396 15.137,6.6 C15.137,7.804 14.122,8.784 12.874,8.784 C11.626,8.784 10.611,7.804 10.611,6.6 M23.707,18.742 C23.668,18.552 23.553,18.386 23.386,18.279 L14.234,12.423 L23.386,6.568 C23.553,6.461 23.668,6.294 23.707,6.105 C23.747,5.915 23.706,5.719 23.595,5.558 C21.207,2.108 17.167,1.77635684e-15 12.874,1.77635684e-15 C5.803,1.77635684e-15 -1.42108547e-14,5.6 -1.42108547e-14,12.423 C-1.42108547e-14,19.247 5.803,24.846 12.874,24.846 C17.167,24.846 21.207,22.738 23.595,19.289 C23.706,19.128 23.747,18.931 23.707,18.742" id="Fill-53"></path>
                <path d="M23.485,10.2396 C22.237,10.2396 21.222,11.2196 21.222,12.4236 C21.222,13.6276 22.237,14.6066 23.485,14.6066 C24.733,14.6066 25.748,13.6276 25.748,12.4236 C25.748,11.2196 24.733,10.2396 23.485,10.2396" id="Fill-54"></path>
                <path d="M18.959,11.6954 C19.376,11.6954 19.713,12.0214 19.713,12.4234 C19.713,12.8254 19.376,13.1514 18.959,13.1514 C18.542,13.1514 18.205,12.8254 18.205,12.4234 C18.205,12.0214 18.542,11.6954 18.959,11.6954" id="Fill-55"></path>
            </g>
        </g>
    </g>
</svg>