<?xml version="1.0" encoding="UTF-8"?>
<svg width="392px" height="192px" viewBox="0 0 392 192" version="1.1" xmlns="http://www.w3.org/2000/svg" xmlns:xlink="http://www.w3.org/1999/xlink">
    <!-- Generator: Sketch 53.1 (72631) - https://sketchapp.com -->
    <title>Group 62WallHanging</title>
    <desc>Created with Sketch.</desc>
    <defs>
        <polygon id="path-1" points="3.884 2.761 0.996 3.224 3.12 5.235 2.669 8.126 5.237 6.727 5.139 0.119"></polygon>
        <polygon id="path-3" points="0.237 6.727 2.846 8.048 2.312 5.173 4.374 3.099 1.473 2.723 0.139 0.119"></polygon>
        <linearGradient x1="36.1371684%" y1="50.2455076%" x2="64.3574604%" y2="49.4586367%" id="linearGradient-5">
            <stop stop-color="#FFC333" offset="0%"></stop>
            <stop stop-color="#FF9000" offset="100%"></stop>
        </linearGradient>
        <polygon id="path-6" points="0.0294 0.569 1.5184 0.569 1.5184 61.2364 0.0294 61.2364"></polygon>
        <polygon id="path-8" points="2.941 2.752 0.052 3.214 2.176 5.225 1.726 8.116 4.294 6.719 4.195 0.11"></polygon>
        <polygon id="path-10" points="0.294 6.719 2.903 8.039 2.368 5.163 4.43 3.09 1.529 2.714 0.195 0.11"></polygon>
        <linearGradient x1="36.1386053%" y1="50.2431643%" x2="64.3588973%" y2="49.4562934%" id="linearGradient-12">
            <stop stop-color="#FFC333" offset="0%"></stop>
            <stop stop-color="#FF9000" offset="100%"></stop>
        </linearGradient>
        <path d="M0.48,39.288 L16.947,53.245 C16.947,53.245 34.759,40.869 45.844,26.44 L45.844,26.44 C54.701,14.911 57.747,0.723 55.136,0.4 L55.136,0.4 C54.157,0.278 53.173,0.22 52.189,0.22 L52.189,0.22 C26.751,0.218 0.48,39.288 0.48,39.288" id="path-13"></path>
        <path d="M0.48,39.288 L16.947,53.245 C16.947,53.245 34.759,40.869 45.844,26.44 L45.844,26.44 C54.701,14.911 57.747,0.723 55.136,0.4 L55.136,0.4 C54.157,0.278 53.173,0.22 52.189,0.22 L52.189,0.22 C26.751,0.218 0.48,39.288 0.48,39.288" id="path-15"></path>
    </defs>
    <g id="Page-1" stroke="none" stroke-width="1" fill="none" fill-rule="evenodd">
        <g id="Desktop-HD" transform="translate(-896.000000, -2164.000000)">
            <g id="Group-62" transform="translate(895.000000, 2164.000000)">
                <g id="Group-721" transform="translate(12.000000, 2.000000)">
                    <polygon id="Fill-679" fill="#146875" points="12.6688 30.4711 12.0828 30.4801 11.6878 3.9591 12.2738 3.9501"></polygon>
                    <polygon id="Fill-681" fill="#146875" points="83.6544 34.9232 83.0684 34.9322 82.5914 2.9032 83.1774 2.8942"></polygon>
                    <polygon id="Fill-683" fill="#146875" points="141.7418 34.0581 141.1558 34.0671 140.6788 2.0381 141.2648 2.0291"></polygon>
                    <polygon id="Fill-685" fill="#146875" points="254.5515 64.9753 253.9665 64.9843 253.0045 0.3653 253.5895 0.3563"></polygon>
                    <polygon id="Fill-687" fill="#146875" points="111.4925 63.1446 110.9065 63.1536 110.0035 2.4946 110.5895 2.4856"></polygon>
                    <polygon id="Fill-689" fill="#146875" points="234.9987 32.6692 234.4127 32.6782 233.9357 0.6492 234.5217 0.6402"></polygon>
                    <polygon id="Fill-691" fill="#F79E3C" points="8.5106 24.3975 0.0906 25.7485 6.2856 31.6105 4.9696 40.0365 12.4576 35.9565 12.1706 16.6945"></polygon>
                    <polygon id="Fill-693" fill="#F79E3C" points="18.4974 31.4287 24.5144 25.3847 16.0574 24.2847 12.1704 16.6937 12.4574 35.9567 20.0644 39.8117"></polygon>
                    <polygon id="Fill-695" fill="#F79E3C" points="24.5143 25.3843 16.0573 24.2853 12.1703 16.6943 12.2063 19.0853 14.8783 24.3023 23.3343 25.4023 17.3183 31.4463 18.7573 39.1493 20.0643 39.8123 18.4973 31.4283"></polygon>
                    <polygon id="Fill-697" fill="#F79E3C" points="80.3005 35.8196 73.4425 36.9196 78.4875 41.6936 77.4155 48.5556 83.5145 45.2316 83.2805 29.5466"></polygon>
                    <polygon id="Fill-699" fill="#F79E3C" points="88.4349 41.5458 93.3359 36.6238 86.4479 35.7278 83.2809 29.5458 83.5149 45.2318 89.7109 48.3728"></polygon>
                    <polygon id="Fill-701" fill="#F79E3C" points="93.3361 36.6237 86.4481 35.7277 83.2811 29.5467 83.3101 31.4917 85.4891 35.7427 92.3731 36.6377 87.4751 41.5597 88.6461 47.8337 89.7111 48.3727 88.4351 41.5457"></polygon>
                    <polygon id="Fill-703" fill="#146875" points="30.0738 108.5922 29.4888 108.6012 27.9268 3.7172 28.5118 3.7082"></polygon>
                    <polygon id="Fill-705" fill="#146875" points="57.1405 158.9431 57.6745 158.9351 55.3455 2.5431 54.8115 2.5511"></polygon>
                    <polygon id="Fill-707" fill="#F79E3C" points="26.667 105.7451 19.809 106.8471 24.854 111.6171 23.782 118.4791 29.878 115.1591 29.644 99.4691"></polygon>
                    <polygon id="Fill-709" fill="#F79E3C" points="34.7979 111.469 39.6979 106.55 32.8119 105.654 29.6439 99.469 29.8779 115.159 36.0749 118.296"></polygon>
                    <polygon id="Fill-711" fill="#F79E3C" points="39.6983 106.5504 32.8113 105.6534 29.6443 99.4694 29.6733 101.4184 31.8513 105.6674 38.7393 106.5644 33.8383 111.4834 35.0103 117.7564 36.0743 118.2954 34.7983 111.4694"></polygon>
                    <polygon id="Fill-713" fill="#146875" points="216.1666 131.7041 215.5806 131.7131 213.6336 0.9511 214.2196 0.9421"></polygon>
                    <polygon id="Fill-715" fill="#F79E3C" points="212.7567 128.858 205.8997 129.958 210.9447 134.732 209.8727 141.594 215.9717 138.271 215.7387 122.586"></polygon>
                    <polygon id="Fill-717" fill="#F79E3C" points="220.8893 134.5836 225.7893 129.6626 218.9013 128.7666 215.7383 122.5856 215.9723 138.2706 222.1643 141.4106"></polygon>
                    <polygon id="Fill-719" fill="#F79E3C" points="225.7892 129.6622 218.9012 128.7662 215.7382 122.5862 215.7672 124.5302 217.9422 128.7812 224.8302 129.6762 219.9292 134.5982 221.1012 140.8732 222.1642 141.4112 220.8892 134.5832"></polygon>
                </g>
                <g id="Group-724" transform="translate(118.000000, 61.000000)">
                    <mask id="mask-2" fill="white">
                        <use xlink:href="#path-1"></use>
                    </mask>
                    <g id="Clip-723"></g>
                    <polygon id="Fill-722" mask="url(#mask-2)" points="3.884 2.761 0.996 3.224 3.12 5.235 2.669 8.126 5.237 6.727 5.139 0.119"></polygon>
                </g>
                <g id="Group-727" transform="translate(123.000000, 61.000000)">
                    <mask id="mask-4" fill="white">
                        <use xlink:href="#path-3"></use>
                    </mask>
                    <g id="Clip-726"></g>
                    <polygon id="Fill-725" fill="url(#linearGradient-5)" mask="url(#mask-4)" points="0.237 6.727 2.846 8.048 2.312 5.173 4.374 3.099 1.473 2.723 0.139 0.119"></polygon>
                </g>
                <g id="Group-875">
                    <polygon id="Fill-728" fill="#FFDC42" points="127.3738 64.0987 124.4728 63.7227 123.1388 61.1187 123.1518 61.9367 124.0688 63.7287 126.9698 64.1047 124.9038 66.1787 125.3978 68.8207 125.8458 69.0487 125.3118 66.1727"></polygon>
                    <polygon id="Fill-730" fill="#F79E3C" points="151.26 30.4825 146.556 31.2385 150.017 34.5115 149.28 39.2175 153.462 36.9385 153.302 26.1815"></polygon>
                    <polygon id="Fill-732" fill="#F79E3C" points="156.8367 34.4095 160.1987 31.0355 155.4757 30.4195 153.3017 26.1815 153.4617 36.9385 157.7097 39.0915"></polygon>
                    <polygon id="Fill-734" fill="#F79E3C" points="160.199 31.0356 155.475 30.4196 153.302 26.1816 153.322 27.5176 154.814 30.4296 159.538 31.0456 156.178 34.4196 156.981 38.7206 157.71 39.0916 156.837 34.4096"></polygon>
                    <polygon id="Fill-736" fill="#F79E3C" points="242.7502 22.517 234.3302 23.868 240.5252 29.729 239.2092 38.156 246.6972 34.076 246.4102 14.814"></polygon>
                    <polygon id="Fill-738" fill="#F79E3C" points="252.7371 29.5468 258.7551 23.5038 250.2981 22.4048 246.4101 14.8138 246.6971 34.0758 254.3031 37.9318"></polygon>
                    <polygon id="Fill-740" fill="#F79E3C" points="258.7551 23.5039 250.2981 22.4049 246.4101 14.8139 246.4461 17.2049 249.1181 22.4219 257.5751 23.5219 251.5571 29.5639 252.9971 37.2679 254.3031 37.9319 252.7371 29.5469"></polygon>
                    <polygon id="Fill-742" fill="#F79E3C" points="264.1563 67.2738 259.4533 68.0298 262.9133 71.3038 262.1773 76.0098 266.3603 73.7308 266.2003 62.9748"></polygon>
                    <polygon id="Fill-744" fill="#F79E3C" points="269.7333 71.2023 273.0933 67.8273 268.3703 67.2113 266.2003 62.9743 266.3603 73.7303 270.6073 75.8843"></polygon>
                    <polygon id="Fill-746" fill="#F79E3C" points="273.0933 67.8269 268.3703 67.2109 266.2003 62.9749 266.2193 64.3069 267.7113 67.2209 272.4343 67.8369 269.0733 71.2119 269.8783 75.5129 270.6073 75.8849 269.7333 71.2019"></polygon>
                    <polygon id="Fill-748" fill="#F79E3C" points="383.4086 58.7014 378.7056 59.4574 382.1656 62.7314 381.4296 67.4374 385.6126 65.1584 385.4526 54.4024"></polygon>
                    <polygon id="Fill-750" fill="#F79E3C" points="388.9857 62.6298 392.3457 59.2548 387.6227 58.6388 385.4527 54.4018 385.6127 65.1578 389.8597 67.3118"></polygon>
                    <polygon id="Fill-752" fill="#F79E3C" points="392.3456 59.2544 387.6226 58.6384 385.4526 54.4024 385.4716 55.7344 386.9636 58.6484 391.6866 59.2644 388.3256 62.6394 389.1306 66.9404 389.8596 67.3124 388.9856 62.6294"></polygon>
                    <polygon id="Fill-754" fill="#146875" points="8.0449 65.4553 7.4589 65.4643 6.5769 6.2133 7.1629 6.2053"></polygon>
                    <polygon id="Fill-756" fill="#F79E3C" points="5.6704 67.1299 0.9674 67.8849 4.4274 71.1569 3.6914 75.8629 7.8734 73.5839 7.7134 62.8279"></polygon>
                    <polygon id="Fill-758" fill="#F79E3C" points="11.2472 71.0552 14.6082 67.6822 9.8842 67.0672 7.7132 62.8282 7.8732 73.5842 12.1202 75.7372"></polygon>
                    <polygon id="Fill-760" fill="#F79E3C" points="14.6086 67.6818 9.8846 67.0668 7.7136 62.8278 7.7336 64.1628 9.2246 67.0768 13.9496 67.6918 10.5886 71.0648 11.3906 75.3688 12.1206 75.7378 11.2476 71.0548"></polygon>
                    <polygon id="Fill-762" fill="#146875" points="184.4622 64.2366 183.8772 64.2456 182.9732 3.5866 183.5592 3.5776"></polygon>
                    <path d="M161.4963,57.9496 C161.4343,58.9996 161.5073,60.0286 161.6903,61.0276 C161.7853,61.5256 161.9063,62.0196 162.0513,62.5056 C163.4503,67.1966 166.2413,71.4526 170.2183,74.0856 C170.6593,74.3786 171.1163,74.6516 171.5863,74.9036 C175.7833,78.2886 181.4093,79.5036 186.6843,78.7876 C187.2703,78.7076 187.8533,78.6026 188.4343,78.4806 C191.7443,78.1276 194.8133,76.9276 197.3503,74.9916 C197.7723,74.6696 198.1813,74.3276 198.5723,73.9626 C199.9863,72.7726 201.2243,71.4496 202.2623,70.0166 C202.6073,69.5376 202.9323,69.0466 203.2343,68.5456 C204.1763,66.8916 204.8593,65.1416 205.3063,63.3436 C205.4563,62.7426 205.5793,62.1406 205.6773,61.5306 C206.0603,59.8046 206.2553,58.0496 206.2423,56.3126 C206.2373,55.7336 206.2093,55.1576 206.1533,54.5816 C206.1383,53.9786 206.0873,53.3826 206.0003,52.7956 C205.9153,52.2086 205.7973,51.6306 205.6473,51.0636 C204.0923,45.3576 200.3053,40.3536 195.0583,37.7676 C194.6563,37.5546 194.2443,37.3596 193.8273,37.1756 C191.3243,36.0826 188.5493,35.5296 185.7493,35.4856 C185.2583,35.4446 184.7653,35.4216 184.2753,35.4106 C183.7833,35.4016 183.2923,35.4066 182.8013,35.4276 C182.2113,35.4536 181.6243,35.5006 181.0403,35.5686 C178.6033,35.8126 176.2003,36.4856 174.0143,37.5496 C173.4693,37.8136 172.9373,38.1036 172.4123,38.4176 C168.0203,40.6336 164.6043,44.5676 163.3353,49.3366 C163.1763,49.9326 163.0523,50.5416 162.9533,51.1676 C162.7103,52.8876 162.3983,54.5796 161.7753,56.3196 C161.6543,56.8626 161.5603,57.4096 161.4963,57.9496" id="Fill-764" fill="#F6E08A"></path>
                    <path d="M206.1531,54.5815 C206.1381,53.9795 206.0871,53.3825 206.0011,52.7965 C205.9161,52.2085 205.7971,51.6305 205.6471,51.0635 C204.0921,45.3575 200.3051,40.3545 195.0581,37.7675 C194.6561,37.5555 194.2441,37.3595 193.8271,37.1755 C191.3241,36.0835 188.5491,35.5305 185.7491,35.4855 C185.2581,35.4455 184.7661,35.4215 184.2761,35.4115 C183.7831,35.4015 183.2931,35.4065 182.8011,35.4275 C182.2121,35.4535 181.6241,35.5005 181.0401,35.5685 C178.6031,35.8135 176.2001,36.4865 174.0141,37.5495 C173.4691,37.8135 172.9371,38.1045 172.4121,38.4175 C170.4931,39.3865 168.7751,40.7005 167.3251,42.2535 C168.5991,41.0505 170.0491,40.0215 171.6321,39.2225 C172.1531,38.9085 172.6891,38.6185 173.2341,38.3545 C175.4201,37.2905 177.8181,36.6205 180.2561,36.3765 C180.8401,36.3055 181.4281,36.2605 182.0171,36.2345 C182.5091,36.2135 183.0031,36.2075 183.4921,36.2175 C183.9851,36.2285 184.4761,36.2505 184.9661,36.2895 C187.7671,36.3345 190.5431,36.8885 193.0461,37.9835 C193.4631,38.1645 193.8721,38.3625 194.2751,38.5725 C199.5251,41.1585 203.3081,46.1615 204.8641,51.8675 C205.0131,52.4355 205.1321,53.0135 205.2191,53.6005 C205.3031,54.1875 205.3561,54.7845 205.3721,55.3895 C205.4271,55.9645 205.4551,56.5405 205.4601,57.1195 C205.4741,58.8535 205.2761,60.6085 204.8961,62.3365 C204.7971,62.9455 204.6751,63.5495 204.5251,64.1505 C204.0781,65.9485 203.3951,67.6985 202.4511,69.3505 C202.1521,69.8535 201.8261,70.3455 201.4791,70.8215 C201.0031,71.4825 200.4751,72.1185 199.9151,72.7255 C200.7781,71.8745 201.5701,70.9725 202.2621,70.0165 C202.6081,69.5375 202.9321,69.0465 203.2341,68.5455 C204.1761,66.8915 204.8591,65.1415 205.3061,63.3435 C205.4561,62.7425 205.5791,62.1405 205.6771,61.5315 C206.0601,59.8045 206.2551,58.0495 206.2421,56.3125 C206.2371,55.7335 206.2091,55.1575 206.1531,54.5815" id="Fill-766" fill="#FFF7D7"></path>
                    <path d="M170.2914,55.4781 C170.7304,57.1991 171.4314,59.0441 172.8164,60.2511 C173.1214,60.5331 173.4584,60.7821 173.8234,61.0021 C175.2674,61.7541 176.8344,62.2461 178.4194,62.3741 C178.9464,62.4151 179.4734,62.4171 180.0034,62.3781 C181.4864,62.1961 182.9984,61.6711 184.3084,60.8711 C184.7454,60.6051 185.1594,60.3071 185.5444,59.9781 C187.4054,58.2961 188.7374,55.8901 188.3254,53.4891 C188.2414,53.0071 188.0894,52.5251 187.8584,52.0491 C186.3394,49.1241 183.5264,46.0841 180.1454,46.2041 C179.6644,46.2181 179.1674,46.2991 178.6494,46.4471 C174.9714,47.5231 170.4454,49.4441 170.0844,53.9141 C170.1004,54.4191 170.1664,54.9401 170.2914,55.4781" id="Fill-768" fill="#FFF0A3"></path>
                    <path d="M172.5063,42.0184 C172.6653,42.6424 172.9203,43.3094 173.4203,43.7444 C173.5293,43.8454 173.6523,43.9384 173.7863,44.0154 C174.3073,44.2884 174.8733,44.4654 175.4463,44.5134 C175.6373,44.5274 175.8303,44.5274 176.0183,44.5144 C176.5573,44.4484 177.1033,44.2584 177.5783,43.9684 C177.7333,43.8734 177.8853,43.7654 178.0223,43.6464 C178.6973,43.0364 179.1773,42.1674 179.0283,41.2994 C179.0003,41.1254 178.9443,40.9524 178.8583,40.7784 C178.3103,39.7204 177.2933,38.6224 176.0703,38.6644 C175.8973,38.6714 175.7183,38.6994 175.5303,38.7544 C174.1993,39.1434 172.5653,39.8374 172.4343,41.4534 C172.4393,41.6364 172.4613,41.8224 172.5063,42.0184" id="Fill-770" fill="#C9B866"></path>
                    <path d="M168.1275,45.174 C168.2155,45.523 168.3585,45.901 168.6405,46.147 C168.7045,46.205 168.7705,46.254 168.8475,46.299 C169.1415,46.452 169.4615,46.552 169.7825,46.578 C169.8915,46.588 169.9985,46.588 170.1055,46.58 C170.4085,46.543 170.7165,46.436 170.9835,46.274 C171.0715,46.218 171.1575,46.158 171.2345,46.09 C171.6155,45.748 171.8875,45.258 171.8015,44.767 C171.7845,44.67 171.7565,44.573 171.7075,44.473 C171.3975,43.877 170.8255,43.259 170.1365,43.284 C170.0365,43.287 169.9355,43.302 169.8315,43.332 C169.0805,43.552 168.1565,43.943 168.0855,44.854 C168.0875,44.957 168.1015,45.065 168.1275,45.174" id="Fill-772" fill="#C9B866"></path>
                    <path d="M189.7745,50.8425 C189.9645,51.5895 190.2685,52.3865 190.8675,52.9075 C190.9985,53.0325 191.1465,53.1395 191.3035,53.2325 C191.9305,53.5605 192.6085,53.7715 193.2955,53.8285 C193.5235,53.8465 193.7535,53.8485 193.9805,53.8295 C194.6235,53.7515 195.2775,53.5245 195.8445,53.1785 C196.0355,53.0635 196.2125,52.9345 196.3805,52.7925 C197.1865,52.0635 197.7635,51.0215 197.5845,49.9815 C197.5475,49.7715 197.4845,49.5635 197.3805,49.3565 C196.7235,48.0915 195.5065,46.7745 194.0435,46.8255 C193.8325,46.8325 193.6195,46.8685 193.3945,46.9315 C191.8005,47.3965 189.8425,48.2305 189.6855,50.1635 C189.6925,50.3845 189.7205,50.6085 189.7745,50.8425" id="Fill-774" fill="#E3D17D"></path>
                    <path d="M191.1752,52.8367 C191.4052,52.8547 191.6342,52.8567 191.8612,52.8377 C192.5042,52.7597 193.1612,52.5327 193.7282,52.1857 C193.9142,52.0717 194.0952,51.9427 194.2622,51.8007 C195.0672,51.0717 195.6442,50.0297 195.4652,48.9897 C195.4312,48.7787 195.3652,48.5727 195.2642,48.3647 C194.9812,47.8257 194.5992,47.2757 194.1382,46.8277 C195.5582,46.8367 196.7382,48.1187 197.3812,49.3567 C197.4842,49.5637 197.5472,49.7707 197.5852,49.9817 C197.7632,51.0217 197.1862,52.0627 196.3802,52.7927 C196.2132,52.9347 196.0352,53.0627 195.8442,53.1777 C195.2782,53.5237 194.6232,53.7517 193.9812,53.8297 C193.7542,53.8477 193.5232,53.8467 193.2942,53.8287 C192.6082,53.7717 191.9302,53.5607 191.3032,53.2327 C191.1462,53.1397 190.9982,53.0317 190.8672,52.9077 C190.8222,52.8677 190.7792,52.8227 190.7342,52.7767 C190.8802,52.8037 191.0282,52.8247 191.1752,52.8367" id="Fill-776" fill="#FFF0A3"></path>
                    <path d="M192.7864,53.7099 C193.0164,53.7289 193.2444,53.7289 193.4744,53.7119 C194.1154,53.6319 194.7704,53.4059 195.3384,53.0589 C195.5274,52.9439 195.7064,52.8169 195.8744,52.6739 C196.6784,51.9409 197.2554,50.9029 197.0764,49.8629 C197.0404,49.6529 196.9764,49.4449 196.8764,49.2379 C196.3554,48.2389 195.4884,47.2119 194.4254,46.8489 C195.7174,47.0109 196.7824,48.2019 197.3814,49.3569 C197.4844,49.5639 197.5474,49.7709 197.5844,49.9809 C197.7634,51.0219 197.1864,52.0629 196.3804,52.7919 C196.2134,52.9349 196.0354,53.0629 195.8444,53.1779 C195.2774,53.5239 194.6234,53.7519 193.9804,53.8299 C193.7534,53.8479 193.5234,53.8469 193.2944,53.8289 C192.9724,53.8019 192.6514,53.7409 192.3354,53.6479 C192.4854,53.6759 192.6354,53.6959 192.7864,53.7099" id="Fill-778" fill="#B29E47"></path>
                    <path d="M193.3944,46.9318 C193.4374,46.9188 193.4804,46.9088 193.5204,46.8978 C192.0114,47.3858 190.3314,48.2338 190.1894,50.0148 C190.1964,50.2368 190.2234,50.4598 190.2774,50.6938 C190.4694,51.4408 190.7724,52.2378 191.3714,52.7608 C191.5034,52.8838 191.6494,52.9918 191.8084,53.0848 C192.4324,53.4118 193.1114,53.6248 193.7964,53.6798 C194.0274,53.6998 194.2554,53.7008 194.4824,53.6828 C194.6424,53.6628 194.8014,53.6328 194.9604,53.5948 C194.6404,53.7118 194.3104,53.7898 193.9804,53.8298 C193.7534,53.8478 193.5234,53.8468 193.2944,53.8288 C192.6084,53.7718 191.9304,53.5608 191.3034,53.2328 C191.1464,53.1398 190.9984,53.0318 190.8674,52.9078 C190.2684,52.3858 189.9644,51.5888 189.7744,50.8428 C189.7204,50.6078 189.6924,50.3848 189.6854,50.1638 C189.8434,48.2308 191.8004,47.3968 193.3944,46.9318" id="Fill-780" fill="#FFF0A3"></path>
                    <path d="M189.9886,68.3556 C190.0766,68.7076 190.2206,69.0836 190.5036,69.3306 C190.5646,69.3866 190.6326,69.4376 190.7076,69.4836 C191.0026,69.6366 191.3236,69.7366 191.6466,69.7636 C191.7536,69.7716 191.8606,69.7716 191.9696,69.7646 C192.2696,69.7266 192.5786,69.6206 192.8466,69.4586 C192.9366,69.4016 193.0186,69.3406 193.0986,69.2756 C193.4776,68.9306 193.7486,68.4416 193.6656,67.9526 C193.6486,67.8536 193.6176,67.7546 193.5686,67.6586 C193.2586,67.0626 192.6856,66.4406 191.9976,66.4646 C191.9006,66.4686 191.7966,66.4856 191.6936,66.5166 C190.9416,66.7356 190.0196,67.1276 189.9456,68.0386 C189.9496,68.1406 189.9636,68.2466 189.9886,68.3556" id="Fill-782" fill="#E3D17D"></path>
                    <path d="M190.6473,69.2959 C190.7573,69.3039 190.8643,69.3049 190.9703,69.2969 C191.2733,69.2589 191.5823,69.1539 191.8473,68.9899 C191.9393,68.9339 192.0233,68.8759 192.1003,68.8079 C192.4803,68.4639 192.7523,67.9759 192.6663,67.4839 C192.6503,67.3869 192.6203,67.2889 192.5723,67.1909 C192.4413,66.9369 192.2593,66.6789 192.0423,66.4659 C192.7113,66.4709 193.2663,67.0749 193.5693,67.6579 C193.6173,67.7549 193.6493,67.8539 193.6663,67.9519 C193.7483,68.4419 193.4773,68.9309 193.0993,69.2759 C193.0183,69.3409 192.9363,69.4009 192.8463,69.4589 C192.5783,69.6209 192.2693,69.7269 191.9693,69.7649 C191.8613,69.7719 191.7533,69.7719 191.6463,69.7629 C191.3233,69.7369 191.0023,69.6369 190.7073,69.4839 C190.6333,69.4379 190.5653,69.3859 190.5033,69.3309 C190.4823,69.3099 190.4613,69.2889 190.4413,69.2679 C190.5093,69.2799 190.5793,69.2899 190.6473,69.2959" id="Fill-784" fill="#C9B866"></path>
                    <path d="M191.4061,69.7057 C191.5141,69.7157 191.6231,69.7157 191.7301,69.7067 C192.0321,69.6697 192.3411,69.5637 192.6071,69.4007 C192.6961,69.3457 192.7821,69.2857 192.8591,69.2177 C193.2391,68.8757 193.5111,68.3857 193.4251,67.8947 C193.4091,67.7977 193.3791,67.7007 193.3321,67.6007 C193.0891,67.1317 192.6771,66.6477 192.1801,66.4757 C192.7881,66.5557 193.2861,67.1147 193.5691,67.6577 C193.6171,67.7547 193.6491,67.8537 193.6661,67.9517 C193.7481,68.4417 193.4771,68.9307 193.0991,69.2757 C193.0181,69.3407 192.9361,69.4017 192.8461,69.4587 C192.5791,69.6207 192.2691,69.7267 191.9691,69.7647 C191.8611,69.7717 191.7531,69.7717 191.6471,69.7627 C191.4951,69.7507 191.3441,69.7207 191.1961,69.6777 C191.2641,69.6897 191.3371,69.7007 191.4061,69.7057" id="Fill-786" fill="#B29E47"></path>
                    <path d="M191.6934,66.5169 C191.7134,66.5109 191.7324,66.5059 191.7514,66.5009 C191.0424,66.7309 190.2524,67.1289 190.1844,67.9679 C190.1874,68.0699 190.1994,68.1789 190.2244,68.2879 C190.3154,68.6379 190.4594,69.0149 190.7404,69.2599 C190.8024,69.3189 190.8714,69.3669 190.9444,69.4119 C191.2384,69.5669 191.5584,69.6659 191.8824,69.6929 C191.9884,69.7009 192.0974,69.7019 192.2054,69.6939 C192.2794,69.6849 192.3564,69.6699 192.4294,69.6529 C192.2774,69.7069 192.1214,69.7439 191.9694,69.7649 C191.8604,69.7719 191.7534,69.7719 191.6464,69.7629 C191.3234,69.7369 191.0024,69.6369 190.7074,69.4839 C190.6334,69.4379 190.5654,69.3859 190.5034,69.3309 C190.2204,69.0839 190.0764,68.7079 189.9884,68.3559 C189.9634,68.2469 189.9494,68.1409 189.9464,68.0389 C190.0194,67.1269 190.9424,66.7359 191.6934,66.5169" id="Fill-788" fill="#FFF0A3"></path>
                    <path d="M199.172,68.0514 C199.247,68.3514 199.37,68.6714 199.612,68.8844 C199.664,68.9334 199.724,68.9754 199.79,69.0144 C200.041,69.1464 200.314,69.2304 200.59,69.2544 C200.685,69.2614 200.776,69.2614 200.867,69.2544 C201.126,69.2224 201.392,69.1324 201.62,68.9924 C201.696,68.9444 201.768,68.8944 201.838,68.8364 C202.16,68.5424 202.395,68.1224 202.321,67.7034 C202.307,67.6174 202.28,67.5344 202.241,67.4494 C201.974,66.9394 201.484,66.4094 200.894,66.4304 C200.808,66.4324 200.722,66.4454 200.632,66.4714 C199.988,66.6584 199.2,66.9954 199.135,67.7784 C199.138,67.8644 199.15,67.9544 199.172,68.0514" id="Fill-790" fill="#E3D17D"></path>
                    <path d="M199.7363,68.8536 C199.8283,68.8616 199.9223,68.8626 200.0123,68.8546 C200.2713,68.8226 200.5363,68.7316 200.7653,68.5916 C200.8413,68.5456 200.9143,68.4926 200.9833,68.4366 C201.3063,68.1426 201.5403,67.7226 201.4673,67.3026 C201.4533,67.2176 201.4243,67.1336 201.3843,67.0496 C201.2723,66.8326 201.1173,66.6106 200.9323,66.4306 C201.5053,66.4326 201.9803,66.9506 202.2413,67.4486 C202.2803,67.5346 202.3073,67.6176 202.3213,67.7026 C202.3953,68.1226 202.1603,68.5416 201.8373,68.8356 C201.7683,68.8946 201.6963,68.9446 201.6203,68.9926 C201.3923,69.1316 201.1253,69.2216 200.8663,69.2536 C200.7753,69.2616 200.6843,69.2616 200.5903,69.2546 C200.3133,69.2306 200.0413,69.1456 199.7893,69.0136 C199.7243,68.9756 199.6643,68.9336 199.6123,68.8836 C199.5933,68.8676 199.5753,68.8476 199.5573,68.8306 C199.6183,68.8416 199.6763,68.8496 199.7363,68.8536" id="Fill-792" fill="#C9B866"></path>
                    <path d="M200.3873,69.2072 C200.4793,69.2142 200.5693,69.2142 200.6643,69.2082 C200.9223,69.1762 201.1863,69.0822 201.4153,68.9432 C201.4923,68.8982 201.5653,68.8462 201.6323,68.7872 C201.9583,68.4932 202.1893,68.0722 202.1183,67.6532 C202.1043,67.5702 202.0773,67.4852 202.0353,67.4022 C201.8283,66.9992 201.4763,66.5832 201.0483,66.4372 C201.5683,66.5042 201.9973,66.9852 202.2413,67.4492 C202.2803,67.5342 202.3073,67.6172 202.3213,67.7032 C202.3953,68.1222 202.1603,68.5422 201.8373,68.8362 C201.7683,68.8942 201.6963,68.9442 201.6203,68.9932 C201.3923,69.1322 201.1263,69.2222 200.8663,69.2542 C200.7753,69.2612 200.6843,69.2612 200.5903,69.2542 C200.4603,69.2432 200.3313,69.2182 200.2053,69.1832 C200.2643,69.1942 200.3253,69.2022 200.3873,69.2072" id="Fill-794" fill="#B29E47"></path>
                    <path d="M200.6321,66.4712 C200.6501,66.4652 200.6651,66.4612 200.6811,66.4572 C200.0741,66.6542 199.3951,66.9962 199.3391,67.7172 C199.3411,67.8042 199.3511,67.8972 199.3731,67.9892 C199.4511,68.2902 199.5731,68.6132 199.8161,68.8232 C199.8671,68.8742 199.9271,68.9172 199.9901,68.9542 C200.2431,69.0862 200.5181,69.1732 200.7951,69.1962 C200.8861,69.2032 200.9801,69.2032 201.0711,69.1962 C201.1341,69.1882 201.1991,69.1762 201.2651,69.1622 C201.1331,69.2062 201.0001,69.2382 200.8661,69.2542 C200.7751,69.2612 200.6841,69.2612 200.5901,69.2542 C200.3131,69.2302 200.0411,69.1462 199.7901,69.0142 C199.7241,68.9752 199.6641,68.9332 199.6121,68.8842 C199.3691,68.6722 199.2461,68.3512 199.1721,68.0512 C199.1491,67.9552 199.1381,67.8652 199.1351,67.7782 C199.2001,66.9952 199.9881,66.6582 200.6321,66.4712" id="Fill-796" fill="#FFF0A3"></path>
                    <path d="M171.8279,68.8298 C172.1099,69.5758 172.5649,70.3708 173.4659,70.8908 C173.6639,71.0118 173.8859,71.1178 174.1229,71.2108 C175.0689,71.5308 176.0949,71.7408 177.1309,71.7908 C177.4759,71.8068 177.8239,71.8058 178.1669,71.7868 C179.1409,71.7048 180.1349,71.4698 180.9949,71.1198 C181.2819,71.0028 181.5539,70.8728 181.8059,70.7308 C183.0319,69.9938 183.9139,68.9488 183.6489,67.9088 C183.5989,67.7028 183.4989,67.4928 183.3489,67.2868 C182.3629,66.0258 180.5309,64.7178 178.3169,64.7808 C177.9999,64.7898 177.6739,64.8258 177.3349,64.8938 C174.9209,65.3698 171.9479,66.2178 171.6959,68.1548 C171.7039,68.3728 171.7459,68.5988 171.8279,68.8298" id="Fill-798" fill="#E3D17D"></path>
                    <path d="M173.9312,70.8143 C174.2772,70.8313 174.6262,70.8303 174.9702,70.8103 C175.9432,70.7283 176.9372,70.4943 177.7982,70.1443 C178.0842,70.0283 178.3572,69.8983 178.6092,69.7543 C179.8352,69.0193 180.7152,67.9733 180.4522,66.9343 C180.3992,66.7263 180.3012,66.5173 180.1512,66.3123 C179.7302,65.7723 179.1552,65.2273 178.4632,64.7823 C180.6102,64.7803 182.3862,66.0523 183.3482,67.2863 C183.4992,67.4933 183.5992,67.7023 183.6492,67.9083 C183.9142,68.9483 183.0322,69.9943 181.8062,70.7303 C181.5542,70.8733 181.2812,71.0033 180.9952,71.1193 C180.1342,71.4693 179.1412,71.7043 178.1672,71.7863 C177.8242,71.8053 177.4752,71.8063 177.1312,71.7903 C176.0942,71.7413 175.0692,71.5313 174.1222,71.2103 C173.8852,71.1173 173.6642,71.0113 173.4662,70.8903 C173.3942,70.8483 173.3302,70.8023 173.2642,70.7593 C173.4842,70.7843 173.7092,70.8033 173.9312,70.8143" id="Fill-800" fill="#C9B866"></path>
                    <path d="M176.3652,71.6747 C176.7082,71.6927 177.0572,71.6907 177.4032,71.6727 C178.3742,71.5867 179.3672,71.3557 180.2282,71.0037 C180.5152,70.8877 180.7872,70.7587 181.0402,70.6167 C182.2652,69.8797 183.1482,68.8337 182.8852,67.7937 C182.8322,67.5857 182.7332,67.3787 182.5842,67.1717 C181.8062,66.1757 180.5012,65.1557 178.8972,64.8007 C180.8472,64.9557 182.4492,66.1367 183.3482,67.2867 C183.4992,67.4927 183.5992,67.7027 183.6492,67.9087 C183.9142,68.9487 183.0322,69.9937 181.8062,70.7307 C181.5542,70.8737 181.2812,71.0027 180.9952,71.1197 C180.1342,71.4697 179.1412,71.7047 178.1672,71.7867 C177.8232,71.8057 177.4752,71.8067 177.1312,71.7907 C176.6432,71.7657 176.1572,71.7077 175.6812,71.6197 C175.9082,71.6427 176.1352,71.6637 176.3652,71.6747" id="Fill-802" fill="#B29E47"></path>
                    <path d="M177.335,64.8933 C177.4,64.8813 177.461,64.8703 177.525,64.8593 C175.238,65.3583 172.69,66.2173 172.458,68.0023 C172.467,68.2213 172.509,68.4463 172.587,68.6793 C172.87,69.4233 173.324,70.2193 174.227,70.7383 C174.426,70.8583 174.645,70.9653 174.887,71.0583 C175.828,71.3803 176.854,71.5893 177.891,71.6373 C178.238,71.6553 178.586,71.6543 178.93,71.6343 C179.172,71.6143 179.415,71.5833 179.655,71.5463 C179.169,71.6623 178.666,71.7433 178.167,71.7863 C177.824,71.8053 177.476,71.8063 177.131,71.7903 C176.095,71.7413 175.069,71.5313 174.123,71.2103 C173.886,71.1173 173.664,71.0113 173.466,70.8903 C172.565,70.3703 172.11,69.5763 171.828,68.8293 C171.746,68.5993 171.704,68.3733 171.696,68.1553 C171.948,66.2183 174.921,65.3703 177.335,64.8933" id="Fill-804" fill="#FFF0A3"></path>
                    <path d="M164.0356,56.371 C163.6746,56.694 163.3236,57.123 163.2256,57.748 C163.2026,57.886 163.1896,58.034 163.1886,58.19 C163.2126,58.796 163.3176,59.422 163.5156,60.017 C163.5786,60.217 163.6566,60.415 163.7416,60.604 C164.0006,61.138 164.3486,61.649 164.7366,62.06 C164.8646,62.198 164.9966,62.322 165.1336,62.438 C165.8146,62.969 166.6016,63.241 167.1306,62.865 C167.2366,62.79 167.3356,62.691 167.4166,62.56 C167.9186,61.727 168.2566,60.404 167.7426,59.165 C167.6656,58.986 167.5766,58.809 167.4636,58.634 C166.6696,57.369 165.5396,55.873 164.3886,56.152 C164.2676,56.204 164.1496,56.275 164.0356,56.371" id="Fill-806" fill="#E3D17D"></path>
                    <path d="M163.3706,57.9955 C163.4366,58.1965 163.5136,58.3915 163.5986,58.5825 C163.8566,59.1165 164.2056,59.6275 164.5896,60.0365 C164.7196,60.1755 164.8536,60.3005 164.9906,60.4155 C165.6726,60.9475 166.4576,61.2175 166.9876,60.8415 C167.0926,60.7675 167.1916,60.6675 167.2746,60.5365 C167.4866,60.1815 167.6696,59.7365 167.7706,59.2455 C168.2396,60.4635 167.9076,61.7455 167.4166,62.5605 C167.3356,62.6915 167.2366,62.7905 167.1306,62.8655 C166.6016,63.2415 165.8146,62.9695 165.1336,62.4375 C164.9966,62.3225 164.8646,62.1975 164.7366,62.0605 C164.3486,61.6495 164.0006,61.1385 163.7416,60.6045 C163.6566,60.4155 163.5786,60.2175 163.5156,60.0175 C163.3176,59.4225 163.2126,58.7955 163.1886,58.1895 C163.1896,58.0345 163.2026,57.8865 163.2256,57.7485 C163.2326,57.6975 163.2446,57.6535 163.2546,57.6065 C163.2906,57.7365 163.3286,57.8675 163.3706,57.9955" id="Fill-808" fill="#C9B866"></path>
                    <path d="M163.4109,59.5605 C163.4789,59.7585 163.5529,59.9565 163.6409,60.1475 C163.8989,60.6795 164.2479,61.1905 164.6319,61.6005 C164.7609,61.7395 164.8939,61.8665 165.0319,61.9785 C165.7159,62.5095 166.4999,62.7815 167.0309,62.4085 C167.1349,62.3315 167.2309,62.2315 167.3179,62.1005 C167.7099,61.4435 168.0039,60.4815 167.8559,59.4985 C168.1949,60.6365 167.8739,61.8005 167.4169,62.5605 C167.3349,62.6915 167.2369,62.7905 167.1299,62.8655 C166.6009,63.2415 165.8149,62.9695 165.1339,62.4375 C164.9969,62.3225 164.8649,62.1975 164.7359,62.0605 C164.3489,61.6495 164.0009,61.1385 163.7419,60.6045 C163.6569,60.4155 163.5789,60.2175 163.5149,60.0175 C163.4209,59.7375 163.3499,59.4485 163.2959,59.1605 C163.3319,59.2935 163.3709,59.4275 163.4109,59.5605" id="Fill-810" fill="#B29E47"></path>
                    <path d="M167.4632,58.6341 C167.4842,58.6651 167.5042,58.7001 167.5242,58.7331 C166.7432,57.5461 165.7032,56.2921 164.6442,56.5491 C164.5192,56.6021 164.4002,56.6741 164.2872,56.7711 C163.9282,57.0911 163.5752,57.5241 163.4792,58.1461 C163.4532,58.2841 163.4402,58.4321 163.4392,58.5881 C163.4632,59.1931 163.5672,59.8201 163.7662,60.4171 C163.8332,60.6161 163.9072,60.8131 163.9942,61.0051 C164.0572,61.1371 164.1292,61.2671 164.2022,61.3951 C164.0302,61.1461 163.8732,60.8761 163.7422,60.6041 C163.6572,60.4151 163.5792,60.2171 163.5152,60.0171 C163.3172,59.4221 163.2132,58.7961 163.1882,58.1901 C163.1892,58.0341 163.2022,57.8861 163.2262,57.7481 C163.3232,57.1231 163.6742,56.6941 164.0352,56.3711 C164.1502,56.2751 164.2672,56.2041 164.3882,56.1521 C165.5402,55.8731 166.6692,57.3691 167.4632,58.6341" id="Fill-812" fill="#FFF0A3"></path>
                    <path d="M185.6506,66.5536 C185.6556,66.8786 185.9246,67.1376 186.2476,67.1336 C186.5736,67.1286 186.8316,66.8606 186.8276,66.5356 C186.8226,66.2116 186.5556,65.9516 186.2306,65.9566 C185.9076,65.9616 185.6456,66.2286 185.6506,66.5536" id="Fill-814" fill="#B29E47"></path>
                    <path d="M184.7476,65.9236 C184.7496,66.0676 184.8686,66.1836 185.0136,66.1816 C185.1576,66.1796 185.2726,66.0606 185.2706,65.9156 C185.2686,65.7706 185.1496,65.6556 185.0066,65.6576 C184.8606,65.6596 184.7456,65.7786 184.7476,65.9236" id="Fill-816" fill="#B29E47"></path>
                    <path d="M188.0491,65.9294 C188.0511,66.0724 188.1701,66.1904 188.3141,66.1884 C188.4591,66.1864 188.5741,66.0654 188.5721,65.9214 C188.5701,65.7764 188.4511,65.6614 188.3061,65.6634 C188.1621,65.6654 188.0471,65.7834 188.0491,65.9294" id="Fill-818" fill="#B29E47"></path>
                    <path d="M184.671,67.0009 C184.674,67.1719 184.813,67.3069 184.983,67.3039 C185.153,67.3019 185.289,67.1629 185.287,66.9919 C185.284,66.8229 185.144,66.6869 184.974,66.6899 C184.804,66.6919 184.668,66.8319 184.671,67.0009" id="Fill-820" fill="#B29E47"></path>
                    <path d="M189.254,39.8444 C189.007,40.3924 189.249,41.0364 189.797,41.2824 C190.345,41.5324 190.989,41.2884 191.238,40.7414 C191.485,40.1954 191.239,39.5494 190.692,39.3014 C190.146,39.0554 189.5,39.2974 189.254,39.8444" id="Fill-822" fill="#B29E47"></path>
                    <path d="M188.2374,38.0774 C188.1264,38.3214 188.2354,38.6094 188.4784,38.7184 C188.7214,38.8284 189.0084,38.7204 189.1204,38.4784 C189.2284,38.2324 189.1214,37.9464 188.8774,37.8364 C188.6334,37.7274 188.3474,37.8344 188.2374,38.0774" id="Fill-824" fill="#B29E47"></path>
                    <path d="M193.754,40.6855 C193.645,40.9285 193.752,41.2145 193.997,41.3265 C194.241,41.4355 194.527,41.3285 194.637,41.0835 C194.748,40.8405 194.639,40.5545 194.396,40.4445 C194.152,40.3325 193.865,40.4425 193.754,40.6855" id="Fill-826" fill="#B29E47"></path>
                    <path d="M187.263,39.826 C187.134,40.112 187.26,40.446 187.547,40.576 C187.832,40.706 188.168,40.579 188.3,40.292 C188.428,40.006 188.302,39.672 188.016,39.539 C187.728,39.411 187.393,39.54 187.263,39.826" id="Fill-828" fill="#B29E47"></path>
                    <path d="M204.5377,55.3259 C204.0647,55.0779 203.4817,54.8799 202.7997,55.0189 C202.6447,55.0469 202.4867,55.0899 202.3247,55.1509 C201.7057,55.4069 201.0977,55.7589 200.5537,56.1949 C200.3717,56.3389 200.1987,56.4939 200.0337,56.6579 C199.5817,57.1329 199.1857,57.6889 198.9077,58.2489 C198.8147,58.4349 198.7357,58.6199 198.6707,58.8049 C198.3817,59.7199 198.4027,60.6379 198.9967,61.0439 C199.1177,61.1259 199.2577,61.1859 199.4257,61.2199 C200.4817,61.4199 201.9857,61.2619 203.0707,60.2469 C203.2257,60.1019 203.3737,59.9399 203.5147,59.7549 C204.5177,58.4429 205.6357,56.6959 204.9017,55.6089 C204.8017,55.5039 204.6817,55.4089 204.5377,55.3259" id="Fill-830" fill="#E3D17D"></path>
                    <path d="M202.5961,55.2644 C202.4131,55.4084 202.2421,55.5634 202.0761,55.7274 C201.6241,56.2024 201.2261,56.7594 200.9481,57.3184 C200.8561,57.5054 200.7791,57.6924 200.7131,57.8754 C200.4241,58.7894 200.4451,59.7074 201.0391,60.1144 C201.1591,60.1934 201.3001,60.2564 201.4671,60.2924 C201.9181,60.3764 202.4501,60.3954 202.9981,60.3104 C201.9161,61.2664 200.4581,61.4144 199.4251,61.2204 C199.2581,61.1854 199.1181,61.1254 198.9971,61.0434 C198.4031,60.6374 198.3821,59.7194 198.6711,58.8054 C198.7361,58.6194 198.8141,58.4344 198.9081,58.2484 C199.1851,57.6894 199.5821,57.1324 200.0341,56.6574 C200.1991,56.4944 200.3721,56.3394 200.5531,56.1944 C201.0971,55.7594 201.7061,55.4074 202.3251,55.1504 C202.4861,55.0904 202.6451,55.0474 202.7991,55.0194 C202.8501,55.0084 202.9041,55.0034 202.9561,54.9954 C202.8331,55.0804 202.7121,55.1714 202.5961,55.2644" id="Fill-832" fill="#C9B866"></path>
                    <path d="M200.9902,55.9127 C200.8082,56.0567 200.6342,56.2117 200.4712,56.3747 C200.0182,56.8477 199.6222,57.4077 199.3452,57.9667 C199.2512,58.1527 199.1722,58.3377 199.1082,58.5227 C198.8182,59.4377 198.8402,60.3537 199.4342,60.7617 C199.5522,60.8417 199.6962,60.9037 199.8612,60.9387 C200.6962,61.0947 201.8062,61.0287 202.7702,60.4947 C201.7202,61.2847 200.3882,61.4017 199.4252,61.2207 C199.2582,61.1857 199.1182,61.1257 198.9972,61.0437 C198.4032,60.6377 198.3822,59.7197 198.6712,58.8057 C198.7362,58.6197 198.8142,58.4347 198.9082,58.2487 C199.1852,57.6897 199.5822,57.1327 200.0342,56.6577 C200.1992,56.4947 200.3712,56.3387 200.5532,56.1947 C200.8092,55.9887 201.0812,55.8037 201.3592,55.6387 C201.2322,55.7257 201.1102,55.8147 200.9902,55.9127" id="Fill-834" fill="#B29E47"></path>
                    <path d="M203.5151,59.7544 C203.4871,59.7904 203.4631,59.8244 203.4351,59.8554 C204.3641,58.5894 205.2641,57.0274 204.5871,56.0264 C204.4841,55.9174 204.3651,55.8224 204.2211,55.7424 C203.7471,55.4924 203.1651,55.2944 202.4831,55.4344 C202.3281,55.4624 202.1691,55.5044 202.0081,55.5644 C201.3891,55.8214 200.7831,56.1734 200.2381,56.6084 C200.0561,56.7544 199.8831,56.9094 199.7181,57.0734 C199.6061,57.1884 199.4961,57.3124 199.3921,57.4384 C199.5861,57.1634 199.8011,56.8994 200.0341,56.6574 C200.1991,56.4944 200.3721,56.3394 200.5531,56.1944 C201.0971,55.7594 201.7061,55.4074 202.3251,55.1504 C202.4861,55.0904 202.6451,55.0474 202.7991,55.0194 C203.4821,54.8794 204.0651,55.0774 204.5381,55.3254 C204.6821,55.4084 204.8011,55.5034 204.9021,55.6094 C205.6351,56.6954 204.5181,58.4424 203.5151,59.7544" id="Fill-836" fill="#FFF0A3"></path>
                    <path d="M203.359,57.2011 C203.213,57.0391 202.963,57.0271 202.802,57.1751 C202.64,57.3211 202.628,57.5701 202.774,57.7321 C202.922,57.8931 203.17,57.9051 203.332,57.7581 C203.494,57.6121 203.506,57.3631 203.359,57.2011" id="Fill-838" fill="#B29E47"></path>
                    <path d="M204.0951,57.1149 C204.0281,57.0449 203.9171,57.0389 203.8461,57.1039 C203.7731,57.1699 203.7681,57.2799 203.8351,57.3539 C203.8991,57.4239 204.0121,57.4279 204.0831,57.3619 C204.1531,57.2989 204.1591,57.1879 204.0951,57.1149" id="Fill-840" fill="#B29E47"></path>
                    <path d="M202.4285,58.5787 C202.3645,58.5077 202.2545,58.5027 202.1815,58.5667 C202.1105,58.6337 202.1055,58.7447 202.1695,58.8157 C202.2355,58.8877 202.3465,58.8917 202.4185,58.8277 C202.4905,58.7617 202.4955,58.6517 202.4285,58.5787" id="Fill-842" fill="#B29E47"></path>
                    <path d="M203.6537,56.5391 C203.5757,56.4541 203.4447,56.4481 203.3617,56.5251 C203.2757,56.6021 203.2697,56.7331 203.3467,56.8161 C203.4257,56.9021 203.5547,56.9071 203.6387,56.8301 C203.7237,56.7541 203.7287,56.6251 203.6537,56.5391" id="Fill-844" fill="#B29E47"></path>
                    <path d="M194.7834,45.3323 C194.8724,45.6853 195.0154,46.0593 195.2964,46.3053 C195.3594,46.3633 195.4264,46.4153 195.5034,46.4573 C195.7974,46.6123 196.1174,46.7113 196.4384,46.7383 C196.5474,46.7473 196.6544,46.7473 196.7614,46.7393 C197.0644,46.7013 197.3724,46.5943 197.6394,46.4313 C197.7304,46.3793 197.8134,46.3173 197.8904,46.2493 C198.2724,45.9073 198.5434,45.4153 198.4574,44.9263 C198.4404,44.8293 198.4114,44.7313 198.3634,44.6323 C198.0534,44.0373 197.4814,43.4183 196.7924,43.4423 C196.6924,43.4463 196.5914,43.4623 196.4874,43.4903 C195.7374,43.7093 194.8134,44.1013 194.7414,45.0133 C194.7434,45.1163 194.7574,45.2223 194.7834,45.3323" id="Fill-846" fill="#E3D17D"></path>
                    <path d="M195.4417,46.2715 C195.5487,46.2795 195.6587,46.2795 195.7657,46.2705 C196.0677,46.2365 196.3767,46.1275 196.6427,45.9645 C196.7307,45.9115 196.8177,45.8495 196.8937,45.7845 C197.2727,45.4405 197.5467,44.9485 197.4607,44.4605 C197.4437,44.3615 197.4147,44.2635 197.3677,44.1665 C197.2357,43.9125 197.0547,43.6535 196.8367,43.4435 C197.5067,43.4475 198.0607,44.0495 198.3627,44.6325 C198.4117,44.7305 198.4407,44.8285 198.4577,44.9255 C198.5437,45.4155 198.2717,45.9075 197.8907,46.2495 C197.8137,46.3165 197.7307,46.3795 197.6397,46.4315 C197.3727,46.5945 197.0637,46.7015 196.7617,46.7385 C196.6547,46.7475 196.5477,46.7475 196.4387,46.7375 C196.1167,46.7105 195.7977,46.6125 195.5027,46.4575 C195.4267,46.4155 195.3597,46.3635 195.2957,46.3055 C195.2727,46.2855 195.2537,46.2655 195.2357,46.2445 C195.3027,46.2565 195.3737,46.2665 195.4417,46.2715" id="Fill-848" fill="#C9B866"></path>
                    <path d="M196.2009,46.6837 C196.3069,46.6917 196.4159,46.6917 196.5239,46.6847 C196.8269,46.6467 197.1359,46.5377 197.4019,46.3777 C197.4909,46.3217 197.5739,46.2597 197.6529,46.1947 C198.0319,45.8507 198.3049,45.3587 198.2199,44.8717 C198.2029,44.7727 198.1709,44.6737 198.1249,44.5777 C197.8799,44.1077 197.4719,43.6227 196.9709,43.4537 C197.5799,43.5287 198.0819,44.0907 198.3629,44.6317 C198.4119,44.7307 198.4409,44.8287 198.4579,44.9257 C198.5439,45.4157 198.2719,45.9077 197.8909,46.2487 C197.8139,46.3167 197.7299,46.3797 197.6399,46.4307 C197.3729,46.5947 197.0639,46.7017 196.7609,46.7387 C196.6549,46.7477 196.5479,46.7467 196.4389,46.7377 C196.2889,46.7247 196.1359,46.6977 195.9899,46.6547 C196.0589,46.6677 196.1289,46.6767 196.2009,46.6837" id="Fill-850" fill="#B29E47"></path>
                    <path d="M196.4877,43.4899 C196.5077,43.4859 196.5267,43.4819 196.5447,43.4779 C195.8347,43.7039 195.0457,44.1029 194.9767,44.9449 C194.9787,45.0479 194.9927,45.1519 195.0187,45.2619 C195.1087,45.6139 195.2507,45.9889 195.5327,46.2359 C195.5957,46.2919 195.6657,46.3449 195.7387,46.3889 C196.0327,46.5429 196.3537,46.6429 196.6767,46.6699 C196.7827,46.6789 196.8907,46.6789 196.9977,46.6699 C197.0737,46.6609 197.1507,46.6469 197.2247,46.6289 C197.0727,46.6829 196.9167,46.7199 196.7617,46.7389 C196.6547,46.7469 196.5477,46.7469 196.4387,46.7379 C196.1167,46.7109 195.7977,46.6129 195.5027,46.4569 C195.4267,46.4149 195.3597,46.3639 195.2957,46.3049 C195.0157,46.0589 194.8717,45.6849 194.7837,45.3319 C194.7577,45.2229 194.7437,45.1169 194.7417,45.0129 C194.8137,44.1009 195.7377,43.7099 196.4877,43.4899" id="Fill-852" fill="#FFF0A3"></path>
                    <path d="M164.5516,51.5726 C164.6556,51.9836 164.8236,52.4236 165.1556,52.7116 C165.2266,52.7806 165.3086,52.8406 165.3946,52.8916 C165.7406,53.0716 166.1136,53.1886 166.4936,53.2196 C166.6186,53.2306 166.7456,53.2316 166.8696,53.2216 C167.2256,53.1776 167.5856,53.0516 167.8996,52.8616 C168.0016,52.7986 168.1026,52.7276 168.1946,52.6486 C168.6386,52.2446 168.9566,51.6716 168.8566,51.0976 C168.8376,50.9836 168.8016,50.8686 168.7466,50.7526 C168.3816,50.0556 167.7116,49.3296 166.9036,49.3576 C166.7886,49.3616 166.6716,49.3806 166.5476,49.4166 C165.6686,49.6736 164.5876,50.1316 164.5006,51.2006 C164.5056,51.3206 164.5206,51.4446 164.5516,51.5726" id="Fill-854" fill="#E3D17D"></path>
                    <path d="M165.3249,52.6746 C165.4509,52.6846 165.5769,52.6846 165.7029,52.6746 C166.0579,52.6316 166.4169,52.5066 166.7309,52.3146 C166.8329,52.2496 166.9329,52.1796 167.0259,52.1006 C167.4709,51.6996 167.7879,51.1246 167.6889,50.5516 C167.6689,50.4366 167.6329,50.3226 167.5779,50.2066 C167.4239,49.9086 167.2099,49.6066 166.9579,49.3586 C167.7419,49.3636 168.3899,50.0716 168.7469,50.7526 C168.8019,50.8686 168.8369,50.9836 168.8569,51.0976 C168.9569,51.6716 168.6389,52.2446 168.1939,52.6486 C168.1019,52.7276 168.0019,52.7986 167.8989,52.8616 C167.5859,53.0516 167.2259,53.1776 166.8699,53.2216 C166.7459,53.2316 166.6189,53.2306 166.4939,53.2196 C166.1139,53.1886 165.7409,53.0716 165.3949,52.8916 C165.3089,52.8406 165.2259,52.7806 165.1559,52.7116 C165.1279,52.6906 165.1039,52.6656 165.0799,52.6406 C165.1619,52.6546 165.2409,52.6676 165.3249,52.6746" id="Fill-856" fill="#C9B866"></path>
                    <path d="M166.2127,53.153 C166.3387,53.164 166.4667,53.165 166.5907,53.156 C166.9447,53.11 167.3067,52.985 167.6197,52.797 C167.7227,52.732 167.8207,52.66 167.9147,52.582 C168.3597,52.18 168.6757,51.607 168.5787,51.034 C168.5577,50.917 168.5207,50.802 168.4677,50.689 C168.1817,50.138 167.7017,49.572 167.1167,49.37 C167.8277,49.459 168.4147,50.119 168.7467,50.753 C168.8017,50.869 168.8377,50.983 168.8567,51.098 C168.9567,51.672 168.6387,52.245 168.1947,52.649 C168.1027,52.727 168.0017,52.798 167.8997,52.861 C167.5857,53.052 167.2257,53.177 166.8697,53.221 C166.7457,53.232 166.6187,53.231 166.4937,53.22 C166.3147,53.206 166.1367,53.171 165.9627,53.12 C166.0477,53.134 166.1287,53.146 166.2127,53.153" id="Fill-858" fill="#B29E47"></path>
                    <path d="M166.5481,49.4171 C166.5721,49.4101 166.5951,49.4051 166.6151,49.3991 C165.7831,49.6671 164.8591,50.1341 164.7781,51.1171 C164.7821,51.2401 164.7981,51.3631 164.8291,51.4921 C164.9331,51.9021 165.1011,52.3431 165.4311,52.6321 C165.5021,52.6971 165.5851,52.7591 165.6721,52.8111 C166.0171,52.9891 166.3901,53.1091 166.7701,53.1371 C166.8961,53.1481 167.0211,53.1491 167.1471,53.1391 C167.2361,53.1281 167.3241,53.1101 167.4111,53.0931 C167.2351,53.1541 167.0521,53.1991 166.8701,53.2211 C166.7451,53.2321 166.6191,53.2311 166.4931,53.2191 C166.1131,53.1891 165.7401,53.0721 165.3941,52.8911 C165.3081,52.8411 165.2261,52.7801 165.1551,52.7121 C164.8241,52.4241 164.6551,51.9831 164.5521,51.5731 C164.5211,51.4441 164.5051,51.3201 164.5011,51.2001 C164.5871,50.1321 165.6691,49.6731 166.5481,49.4171" id="Fill-860" fill="#FFF0A3"></path>
                    <polygon id="Fill-862" fill="#146875" points="297.7106 33.914 297.1246 33.923 296.6486 1.894 297.2336 1.885"></polygon>
                    <polygon id="Fill-864" fill="#146875" points="355.798 33.0489 355.212 33.0579 354.735 1.0289 355.321 1.0199"></polygon>
                    <g id="Group-868" transform="translate(385.000000, 0.000000)">
                        <mask id="mask-7" fill="white">
                            <use xlink:href="#path-6"></use>
                        </mask>
                        <g id="Clip-867"></g>
                        <polygon id="Fill-866" fill="#146875" mask="url(#mask-7)" points="1.5184 61.2274 0.9334 61.2364 0.0294 0.5774 0.6154 0.5684"></polygon>
                    </g>
                    <polygon id="Fill-869" fill="#F79E3C" points="294.3567 34.8104 287.4987 35.9104 292.5437 40.6844 291.4717 47.5464 297.5707 44.2224 297.3367 28.5374"></polygon>
                    <polygon id="Fill-871" fill="#F79E3C" points="302.4911 40.5367 307.3921 35.6147 300.5041 34.7187 297.3371 28.5367 297.5711 44.2227 303.7671 47.3637"></polygon>
                    <polygon id="Fill-873" fill="#F79E3C" points="307.3923 35.6145 300.5043 34.7185 297.3373 28.5375 297.3663 30.4825 299.5453 34.7335 306.4293 35.6285 301.5313 40.5505 302.7023 46.8245 303.7673 47.3635 302.4913 40.5365"></polygon>
                </g>
                <g id="Group-878" transform="translate(321.000000, 58.000000)">
                    <mask id="mask-9" fill="white">
                        <use xlink:href="#path-8"></use>
                    </mask>
                    <g id="Clip-877"></g>
                    <polygon id="Fill-876" mask="url(#mask-9)" points="2.941 2.752 0.052 3.214 2.176 5.225 1.726 8.116 4.294 6.719 4.195 0.11"></polygon>
                </g>
                <g id="Group-881" transform="translate(325.000000, 58.000000)">
                    <mask id="mask-11" fill="white">
                        <use xlink:href="#path-10"></use>
                    </mask>
                    <g id="Clip-880"></g>
                    <polygon id="Fill-879" fill="url(#linearGradient-12)" mask="url(#mask-11)" points="0.294 6.719 2.903 8.039 2.368 5.163 4.43 3.09 1.529 2.714 0.195 0.11"></polygon>
                </g>
                <g id="Group-994" transform="translate(46.000000, 23.000000)">
                    <polygon id="Fill-882" fill="#FFDC42" points="283.4301 38.0895 280.5291 37.7135 279.1951 35.1095 279.2081 35.9275 280.1251 37.7195 283.0261 38.0955 280.9601 40.1695 281.4541 42.8115 281.9021 43.0395 281.3681 40.1635"></polygon>
                    <polygon id="Fill-884" fill="#F79E3C" points="307.3162 4.4733 302.6122 5.2293 306.0732 8.5023 305.3362 13.2083 309.5182 10.9293 309.3582 0.1723"></polygon>
                    <polygon id="Fill-886" fill="#F79E3C" points="312.8929 8.4003 316.2549 5.0263 311.5319 4.4103 309.3579 0.1723 309.5179 10.9293 313.7659 13.0823"></polygon>
                    <polygon id="Fill-888" fill="#F79E3C" points="316.2552 5.0264 311.5312 4.4104 309.3582 0.1724 309.3782 1.5084 310.8702 4.4204 315.5942 5.0364 312.2342 8.4104 313.0372 12.7114 313.7662 13.0824 312.8932 8.4004"></polygon>
                    <path d="M256.2781,56.3714 C256.2101,57.4604 256.2891,58.5454 256.4781,59.5794 C256.5791,60.1124 256.7061,60.6264 256.8561,61.1284 C258.3151,66.0314 261.2341,70.4834 265.3921,73.2354 C265.8511,73.5304 266.3311,73.8234 266.8221,74.0954 C271.2101,77.6314 277.0851,78.9004 282.6021,78.1554 C283.2151,78.0714 283.8201,77.9554 284.4281,77.8254 C287.8871,77.4474 291.0981,76.1994 293.7461,74.1824 C294.1901,73.8354 294.6211,73.4844 295.0241,73.0964 C296.4991,71.8594 297.7941,70.4764 298.8781,68.9764 C299.2401,68.4834 299.5781,67.9744 299.8931,67.4384 C300.8851,65.7184 301.5941,63.8814 302.0631,62.0084 C302.2201,61.3844 302.3461,60.7544 302.4501,60.1204 C302.8481,58.3044 303.0541,56.4794 303.0391,54.6544 C303.0341,54.0534 303.0051,53.4534 302.9471,52.8524 C302.9301,52.2244 302.8751,51.5974 302.7911,50.9724 C302.6981,50.3644 302.5721,49.7614 302.4151,49.1724 C300.7931,43.2004 296.8371,37.9804 291.3511,35.2814 C290.9281,35.0564 290.5041,34.8454 290.0681,34.6634 C287.4511,33.5134 284.5461,32.9344 281.6211,32.8844 C281.1101,32.8444 280.5941,32.8184 280.0841,32.8094 C279.5671,32.8004 279.0581,32.8034 278.5411,32.8234 C277.9271,32.8524 277.3091,32.9004 276.7011,32.9764 C274.1521,33.2354 271.6431,33.9374 269.3601,35.0424 C268.7861,35.3224 268.2311,35.6334 267.6871,35.9514 C263.0951,38.2704 259.5221,42.3774 258.1981,47.3594 C258.0321,47.9974 257.9041,48.6334 257.7981,49.2884 C257.5461,51.0754 257.2201,52.8544 256.5701,54.6604 C256.4401,55.2254 256.3391,55.8104 256.2781,56.3714" id="Fill-890" fill="#F79E3C"></path>
                    <path d="M295.402,37.9588 C294.508,37.1958 293.55,36.5108 292.532,35.9188 C279.233,55.2308 256.478,59.5788 256.478,59.5788 C256.579,60.1118 256.707,60.6258 256.856,61.1288 C256.983,61.5548 257.127,61.9948 257.281,62.4118 C280.019,56.9348 291.559,43.3998 295.402,37.9588" id="Fill-892" fill="#FFAB00"></path>
                    <path d="M290.4525,34.8389 C290.3225,34.7769 290.1965,34.7229 290.0685,34.6639 C289.0805,34.2219 288.0515,33.8819 286.9985,33.6019 C277.2925,46.2079 263.6495,51.7989 256.8105,53.9349 C256.7345,54.1809 256.6575,54.4269 256.5705,54.6609 C256.4405,55.2249 256.3395,55.8109 256.2785,56.3719 C256.2625,56.6229 256.2545,56.8899 256.256198,57.1559 C275.4045,51.7509 286.0035,40.6459 290.4525,34.8389" id="Fill-894" fill="#FFAB00"></path>
                    <path d="M299.1367,52.0038 C299.0437,45.7558 296.5437,40.1028 292.5357,35.9188 C297.4027,38.7588 300.9077,43.6518 302.4147,49.1728 C302.5717,49.7608 302.6977,50.3638 302.7907,50.9718 C302.8747,51.5968 302.9297,52.2238 302.9467,52.8528 C303.0047,53.4528 303.0337,54.0528 303.0387,54.6538 C303.0547,56.4788 302.8477,58.3048 302.4497,60.1198 C302.3467,60.7538 302.2197,61.3838 302.0627,62.0088 C301.5937,63.8818 300.8847,65.7188 299.8927,67.4378 C299.5787,67.9748 299.2407,68.4828 298.8787,68.9758 C297.7937,70.4768 296.4987,71.8588 295.0237,73.0958 C294.6207,73.4848 294.1897,73.8348 293.7467,74.1818 C291.0987,76.1998 287.8867,77.4478 284.4277,77.8258 C283.8197,77.9548 283.2147,78.0708 282.6017,78.1548 C277.5847,78.8318 272.2627,77.8308 268.0387,74.9818 C270.4577,75.7658 273.0347,76.1848 275.7117,76.1448 C288.8467,75.9488 299.3327,65.1438 299.1367,52.0038" id="Fill-896" fill="#DB7700"></path>
                    <path d="M279.8695,35.4644 C279.7235,36.1174 279.6455,36.8604 279.9035,37.5024 C279.9605,37.6534 280.0325,37.7824 280.1185,37.9194 C280.4755,38.4334 280.9175,38.8624 281.4305,39.1634 C281.6045,39.2714 281.7785,39.3644 281.9675,39.4414 C282.4955,39.6404 283.0935,39.7244 283.6745,39.6754 C283.8645,39.6614 284.0585,39.6314 284.2435,39.5854 C285.1615,39.3294 286.0175,38.7504 286.2885,37.8654 C286.3415,37.6844 286.3735,37.5084 286.3765,37.3054 C286.3655,36.0644 285.9345,34.5554 284.7795,34.0224 C284.6095,33.9414 284.4265,33.8854 284.2295,33.8444 C282.8065,33.5734 280.9515,33.4494 280.0685,34.8914 C279.9865,35.0634 279.9175,35.2544 279.8695,35.4644" id="Fill-898" fill="#FFF0A3"></path>
                    <path d="M274.2939,36.3366 C274.2109,36.6976 274.1719,37.1156 274.3139,37.4806 C274.3459,37.5676 274.3849,37.6486 274.4349,37.7276 C274.6359,37.9976 274.8899,38.2466 275.1779,38.4306 C275.2699,38.4896 275.3709,38.5246 275.4779,38.5696 C275.7749,38.6796 276.1139,38.7286 276.4389,38.7016 C276.5499,38.6926 276.6539,38.6776 276.7579,38.6496 C277.2759,38.5036 277.7619,38.1846 277.9129,37.6976 C277.9449,37.5936 277.9629,37.4826 277.9639,37.3676 C277.9579,36.6656 277.7169,35.8126 277.0599,35.5216 C276.9709,35.4796 276.8669,35.4456 276.7519,35.4236 C275.9489,35.2676 274.9039,35.1966 274.4059,36.0136 C274.3589,36.1116 274.3229,36.2176 274.2939,36.3366" id="Fill-900" fill="#FFF0A3"></path>
                    <path d="M268.4678,67.7958 C268.4728,68.1438 268.7508,68.4208 269.0888,68.4158 C269.4298,68.4108 269.7008,68.1258 269.6958,67.7778 C269.6908,67.4478 269.4118,67.1678 269.0708,67.1728 C268.7318,67.1778 268.4628,67.4658 268.4678,67.7958" id="Fill-902" fill="#DB7700"></path>
                    <path d="M267.524,67.1361 C267.526,67.2921 267.645,67.4151 267.8,67.4131 C267.948,67.4111 268.072,67.2841 268.07,67.1281 C268.068,66.9941 267.94,66.8691 267.792,66.8711 C267.637,66.8731 267.522,67.0021 267.524,67.1361" id="Fill-904" fill="#DB7700"></path>
                    <path d="M270.9739,67.1447 C270.9759,67.3007 271.0979,67.4237 271.2499,67.4207 C271.3999,67.4187 271.5209,67.2927 271.5189,67.1367 C271.5169,66.9977 271.3919,66.8767 271.2419,66.8787 C271.0899,66.8807 270.9719,67.0057 270.9739,67.1447" id="Fill-906" fill="#DB7700"></path>
                    <path d="M267.4432,68.2758 C267.4462,68.4588 267.5892,68.5848 267.7692,68.5828 C267.9442,68.5798 268.0892,68.4488 268.0872,68.2658 C268.0842,68.0848 267.9342,67.9378 267.7602,67.9408 C267.5792,67.9428 267.4402,68.0938 267.4432,68.2758" id="Fill-908" fill="#DB7700"></path>
                    <path d="M292.7297,64.2942 C292.7347,64.6212 293.0187,64.8992 293.3577,64.8942 C293.6967,64.8892 293.9677,64.6032 293.9637,64.2762 C293.9577,63.9242 293.6777,63.6652 293.3397,63.6702 C292.9997,63.6752 292.7247,63.9422 292.7297,64.2942" id="Fill-910" fill="#DB7700"></path>
                    <path d="M291.7861,63.6319 C291.7881,63.7879 291.9151,63.8949 292.0641,63.8919 C292.2151,63.8899 292.3381,63.7799 292.3361,63.6239 C292.3341,63.4679 292.2071,63.3469 292.0561,63.3489 C291.9071,63.3519 291.7841,63.4759 291.7861,63.6319" id="Fill-912" fill="#DB7700"></path>
                    <path d="M295.236,63.6423 C295.238,63.7973 295.364,63.9003 295.514,63.8983 C295.664,63.8963 295.787,63.7893 295.784,63.6343 C295.782,63.4783 295.656,63.3533 295.506,63.3553 C295.356,63.3573 295.234,63.4863 295.236,63.6423" id="Fill-914" fill="#DB7700"></path>
                    <path d="M291.7057,64.7531 C291.7087,64.9361 291.8567,65.0811 292.0317,65.0791 C292.2117,65.0761 292.3557,64.9271 292.3527,64.7431 C292.3497,64.5621 292.2017,64.4361 292.0217,64.4391 C291.8477,64.4411 291.7027,64.5711 291.7057,64.7531" id="Fill-916" fill="#DB7700"></path>
                    <path d="M291.2786,43.4206 C291.0166,43.9886 291.2756,44.6636 291.8466,44.9286 C292.4166,45.1916 293.0916,44.9316 293.3496,44.3646 C293.6076,43.7976 293.3556,43.1246 292.7816,42.8576 C292.2096,42.5916 291.5356,42.8526 291.2786,43.4206" id="Fill-918" fill="#DB7700"></path>
                    <path d="M290.2116,41.5829 C290.0996,41.8369 290.2116,42.1319 290.4686,42.2509 C290.7196,42.3669 291.0206,42.2509 291.1366,41.9919 C291.2536,41.7479 291.1386,41.4419 290.8846,41.3239 C290.6296,41.2049 290.3276,41.3189 290.2116,41.5829" id="Fill-920" fill="#DB7700"></path>
                    <path d="M295.9806,44.3065 C295.8686,44.5655 295.9796,44.8565 296.2346,44.9735 C296.4886,45.0925 296.7866,44.9755 296.9026,44.7145 C297.0236,44.4735 296.9076,44.1645 296.6486,44.0465 C296.3956,43.9275 296.0966,44.0445 295.9806,44.3065" id="Fill-922" fill="#DB7700"></path>
                    <path d="M289.1998,43.3977 C289.0628,43.7077 289.1978,44.0477 289.4948,44.1857 C289.7908,44.3277 290.1448,44.1897 290.2778,43.9017 C290.4148,43.5927 290.2808,43.2507 289.9798,43.1147 C289.6818,42.9737 289.3318,43.1097 289.1998,43.3977" id="Fill-924" fill="#DB7700"></path>
                    <path d="M262.0819,47.6341 C261.8239,48.2031 262.0759,48.8751 262.6479,49.1411 C263.2229,49.3891 263.8959,49.1451 264.1539,48.5791 C264.4109,47.9931 264.1559,47.3191 263.5869,47.0721 C263.0139,46.8051 262.3399,47.0651 262.0819,47.6341" id="Fill-926" fill="#DB7700"></path>
                    <path d="M261.0192,45.7955 C260.9032,46.0395 261.0162,46.3465 261.2702,46.4635 C261.5292,46.5635 261.8262,46.4675 261.9382,46.2055 C262.0552,45.9435 261.9422,45.6565 261.6892,45.5365 C261.4352,45.4205 261.1312,45.5335 261.0192,45.7955" id="Fill-928" fill="#DB7700"></path>
                    <path d="M260.0013,47.6131 C259.8633,47.9201 259.9993,48.2601 260.2953,48.4001 C260.5953,48.5411 260.9463,48.4031 261.0833,48.0981 C261.2163,47.8071 261.0863,47.4471 260.7893,47.3081 C260.4843,47.1891 260.1353,47.3051 260.0013,47.6131" id="Fill-930" fill="#DB7700"></path>
                    <path d="M321.7704,31.0925 C321.7694,31.0435 321.7664,30.9885 321.7624,30.9365 C321.7604,30.8915 321.7554,30.8545 321.7494,30.8105 C321.7424,30.7625 321.7364,30.7125 321.7274,30.6655 C321.7194,30.6215 321.7134,30.5775 321.7044,30.5415 C321.6954,30.5015 321.6824,30.4525 321.6694,30.4085 C321.6564,30.3675 321.6434,30.3255 321.6314,30.2865 C321.6134,30.2435 321.5964,30.2005 321.5784,30.1655 C321.5634,30.1295 321.5464,30.0935 321.5294,30.0565 C321.5094,30.0165 321.4874,29.9755 321.4614,29.9335 C321.4434,29.9005 321.4244,29.8675 321.4024,29.8385 C321.3764,29.8035 321.3494,29.7685 321.3204,29.7325 C321.2994,29.7005 321.2804,29.6695 321.2554,29.6415 C321.2244,29.6015 321.1894,29.5685 321.1554,29.5355 C321.1304,29.5055 321.1054,29.4785 321.0764,29.4615 C321.0394,29.4295 321.0004,29.3965 320.9654,29.3655 C320.9364,29.3425 320.9064,29.3165 320.8744,29.2965 C320.8304,29.2635 320.7844,29.2335 320.7364,29.2015 C320.7074,29.1845 320.6774,29.1625 320.6444,29.1445 C320.5904,29.1225 320.5354,29.0945 320.4774,29.0655 C320.4474,29.0515 320.4214,29.0365 320.3904,29.0205 C320.3014,28.9845 320.2124,28.9455 320.1124,28.9075 C314.8254,27.1125 301.0394,35.5465 296.2064,38.6745 C296.6184,39.0615 297.0164,39.4845 297.4004,39.9055 C300.9754,38.1815 308.6264,35.0155 307.0704,40.1345 C307.0044,40.3215 306.9394,40.5325 306.8694,40.7425 C306.8454,40.8105 306.8194,40.8785 306.7974,40.9265 C306.7464,41.0695 306.6944,41.2135 306.6404,41.3555 C306.6114,41.4375 306.5784,41.5185 306.5464,41.5915 C306.4954,41.7115 306.4434,41.8465 306.3884,41.9785 C306.3524,42.0625 306.3164,42.1455 306.2824,42.2285 C306.2264,42.3465 306.1634,42.4805 306.1004,42.6165 C306.0634,42.6965 306.0274,42.7735 305.9904,42.8545 C305.9044,43.0225 305.8204,43.1965 305.7264,43.3785 C305.6854,43.4595 305.6434,43.5395 305.6014,43.6205 C305.5224,43.7615 305.4374,43.9165 305.3514,44.0735 C305.3014,44.1655 305.2434,44.2625 305.1894,44.3545 C305.1264,44.4575 305.0554,44.5715 304.9864,44.6925 C304.9244,44.7955 304.8654,44.9025 304.8004,45.0055 C304.7354,45.1165 304.6654,45.2065 304.5944,45.3175 C304.5274,45.4255 304.4614,45.5325 304.3904,45.6435 C304.3224,45.7505 304.2524,45.8535 304.1814,45.9385 C304.1094,46.0525 304.0304,46.1675 303.9524,46.2835 C303.8904,46.3715 303.8264,46.4605 303.7684,46.5505 C303.5914,46.7805 303.4144,47.0285 303.2264,47.2795 C303.1694,47.3355 303.1134,47.4085 303.0614,47.4845 C302.9574,47.6185 302.8504,47.7575 302.7464,47.8945 C302.6814,47.9735 302.6184,48.0545 302.5544,48.1135 C302.4414,48.2555 302.3324,48.3955 302.2184,48.5335 C302.1574,48.6095 302.0924,48.6875 302.0334,48.7615 C301.9084,48.8885 301.7864,49.0355 301.6634,49.1825 C301.6114,49.2425 301.5584,49.2995 301.5074,49.3575 C301.0154,49.9075 300.5014,50.4625 299.9524,51.0195 L299.9484,51.0225 C299.7744,51.2025 299.5954,51.3835 299.4214,51.5655 C299.3774,51.6085 299.3374,51.6445 299.2974,51.6735 C299.1244,51.8475 298.9454,52.0255 298.7644,52.2005 C298.7234,52.2425 298.6794,52.2845 298.6374,52.3265 C298.4504,52.4925 298.2574,52.6785 298.0644,52.8635 C298.0464,52.8765 298.0334,52.8925 298.0174,52.9085 C297.1484,53.7175 296.2094,54.5355 295.2114,55.3585 C295.1924,55.3745 295.1734,55.3905 295.1524,55.4075 C294.9154,55.6105 294.6684,55.8195 294.4184,56.0055 C294.3954,56.0255 294.3754,56.0465 294.3564,56.0655 C293.0434,57.1335 291.6304,58.2055 290.1134,59.3275 C288.0864,60.8025 285.8824,62.3215 283.4604,63.8975 C269.2084,73.1605 256.0104,77.9305 254.9014,74.2295 C254.0224,71.2795 257.3974,67.3725 258.8324,65.8825 C258.5534,65.3715 258.2864,64.8525 258.0454,64.3175 C254.3834,66.9145 240.3114,77.3565 240.7314,83.5975 C241.3044,92.2825 264.8104,80.3595 285.5804,66.2005 C287.6784,64.7715 289.6854,63.3655 291.6124,61.9815 C291.6354,61.9605 291.6624,61.9425 291.6884,61.9205 C292.0284,61.6885 292.3624,61.4385 292.6954,61.1895 C292.7494,61.1515 292.8044,61.1105 292.8574,61.0715 C293.1774,60.8515 293.4934,60.6155 293.8064,60.3755 C293.8704,60.3295 293.9354,60.2805 293.9994,60.2485 C294.3034,60.0205 294.6044,59.7905 294.9034,59.5605 C294.9754,59.5265 295.0464,59.4745 295.1194,59.4195 C295.4144,59.1905 295.7054,58.9655 295.9984,58.7585 C296.0674,58.7065 296.1334,58.6515 296.2004,58.6015 C296.4974,58.3755 296.7844,58.1505 297.0694,57.9445 C297.1384,57.8915 297.2054,57.8405 297.2694,57.7905 C297.5534,57.5645 297.8434,57.3525 298.1224,57.1325 C298.1844,57.0845 298.2434,57.0355 298.3034,56.9865 C298.5924,56.7605 298.8734,56.5585 299.1504,56.3315 C299.2094,56.2875 299.2664,56.2405 299.3274,56.1945 C299.6084,55.9685 299.8894,55.7595 300.1664,55.5325 C300.2084,55.4995 300.2484,55.4645 300.2944,55.4295 C300.5834,55.1995 300.8734,54.9735 301.1574,54.7375 C301.1744,54.7255 301.1914,54.7105 301.2064,54.6975 C303.4234,52.9305 305.4674,51.2055 307.3354,49.5525 C307.3434,49.5435 307.3504,49.5375 307.3604,49.5295 C307.5994,49.3305 307.8344,49.1125 308.0714,48.8975 C308.1044,48.8645 308.1374,48.8335 308.1714,48.8035 C308.3954,48.6195 308.6094,48.4185 308.8234,48.2185 C308.8694,48.1745 308.9194,48.1275 308.9654,48.0845 C309.1724,47.9145 309.3684,47.7255 309.5654,47.5375 C309.6224,47.4825 309.6824,47.4325 309.7374,47.3775 C309.9254,47.2155 310.1144,47.0385 310.2974,46.8585 C310.3604,46.7985 310.4254,46.7385 310.4874,46.6795 C310.6644,46.5165 310.8444,46.3505 311.0174,46.1815 C311.0814,46.1175 311.1444,46.0565 311.2074,45.9955 C311.3764,45.8265 311.5494,45.6765 311.7144,45.5075 C311.7794,45.4465 311.8394,45.3855 311.9044,45.3235 C312.0674,45.1555 312.2324,45.0085 312.3944,44.8435 C312.4534,44.7845 312.5124,44.7255 312.5704,44.6655 C312.7304,44.5005 312.8934,44.3405 313.0494,44.1895 C313.1064,44.1305 313.1594,44.0755 313.2154,44.0195 C313.3764,43.8525 313.5304,43.6915 313.6844,43.5465 C313.7334,43.4945 313.7794,43.4425 313.8304,43.3905 C313.9884,43.2235 314.1414,43.0585 314.2964,42.8975 C314.3384,42.8695 314.3754,42.8265 314.4104,42.7835 C314.5714,42.6115 314.7334,42.4395 314.8834,42.2705 C314.9074,42.2435 314.9284,42.2195 314.9514,42.1975 C315.8294,41.2605 316.6224,40.3505 317.3344,39.4815 C317.3664,39.4405 317.4014,39.3975 317.4344,39.3555 C317.5474,39.2415 317.6474,39.1065 317.7504,38.9705 C317.7954,38.9145 317.8444,38.8595 317.8834,38.8025 C317.9774,38.6795 318.0714,38.5735 318.1654,38.4545 C318.2154,38.3885 318.2654,38.3235 318.3094,38.2575 C318.3974,38.1435 318.4804,38.0325 318.5634,37.9185 C318.6114,37.8655 318.6634,37.7965 318.7124,37.7285 C318.7934,37.6205 318.8704,37.5125 318.9464,37.4075 C318.9904,37.3355 319.0414,37.2645 319.0914,37.1955 C319.1624,37.1115 319.2314,37.0075 319.2984,36.9085 C319.3464,36.8345 319.3964,36.7605 319.4434,36.6905 C319.5094,36.5925 319.5754,36.4945 319.6394,36.4145 C319.6824,36.3455 319.7254,36.2725 319.7724,36.2035 C319.8324,36.1055 319.8914,36.0125 319.9504,35.9185 C319.9894,35.8485 320.0324,35.7765 320.0744,35.7075 C320.1304,35.6355 320.1854,35.5465 320.2364,35.4585 C320.2794,35.3875 320.3194,35.3145 320.3564,35.2465 C320.4024,35.1605 320.4514,35.0745 320.4994,34.9995 C320.5374,34.9355 320.5734,34.8675 320.6114,34.7995 C320.6524,34.7165 320.6944,34.6335 320.7364,34.5535 C320.7714,34.4835 320.8044,34.4195 320.8394,34.3505 C320.8794,34.2745 320.9184,34.2065 320.9564,34.1295 C320.9884,34.0625 321.0164,33.9975 321.0464,33.9305 C321.0784,33.8555 321.1114,33.7785 321.1444,33.7095 C321.1724,33.6405 321.1974,33.5775 321.2264,33.5235 C321.2534,33.4535 321.2864,33.3835 321.3114,33.3145 C321.3394,33.2455 321.3554,33.1795 321.3804,33.1145 C321.4194,33.0065 321.4564,32.8985 321.4884,32.8085 C321.5134,32.7255 321.5404,32.6445 321.5634,32.5665 C321.5804,32.5085 321.5914,32.4545 321.6074,32.3995 C321.6234,32.3315 321.6414,32.2655 321.6574,32.2015 C321.6684,32.1475 321.6764,32.1075 321.6894,32.0505 C321.7004,31.9895 321.7144,31.9315 321.7244,31.8685 C321.7294,31.8145 321.7354,31.7645 321.7404,31.7115 C321.7474,31.6525 321.7544,31.5955 321.7594,31.5395 C321.7644,31.4865 321.7654,31.4365 321.7674,31.4025 C321.7714,31.3455 321.7734,31.2905 321.7744,31.2385 C321.7744,31.1895 321.7734,31.1405 321.7704,31.0925" id="Fill-932" fill="#FFC969"></path>
                    <path d="M251.088,73.7523 C251.433,74.9253 252.958,75.2463 255.319,74.8843 C255.127,74.7023 254.98,74.4793 254.901,74.2303 C254.022,71.2793 257.398,67.3723 258.832,65.8833 C258.553,65.3713 258.286,64.8523 258.045,64.3183 C256.932,65.0933 254.85,66.6143 252.513,68.5333 C251.43,70.1703 250.595,72.1223 251.088,73.7523" id="Fill-934" fill="#F4AE3D"></path>
                    <path d="M297.4009,39.9052 C298.9519,39.1582 301.2679,38.1372 303.2729,37.6422 C302.5929,36.4162 300.1659,36.8522 297.7239,37.7032 C297.1539,38.0682 296.6409,38.3852 296.2059,38.6742 C296.6189,39.0612 297.0169,39.4842 297.4009,39.9052" id="Fill-936" fill="#F4AE3D"></path>
                    <path d="M321.7704,31.0925 C321.7694,31.0435 321.7664,30.9885 321.7624,30.9365 C321.7604,30.8915 321.7554,30.8545 321.7494,30.8105 C321.7424,30.7625 321.7364,30.7125 321.7274,30.6655 C321.7194,30.6215 321.7134,30.5775 321.7044,30.5415 C321.6954,30.5015 321.6824,30.4525 321.6694,30.4085 C321.6564,30.3675 321.6434,30.3255 321.6314,30.2865 C321.6134,30.2435 321.5964,30.2005 321.5784,30.1655 C321.5634,30.1295 321.5464,30.0935 321.5294,30.0565 C321.5094,30.0165 321.4874,29.9755 321.4614,29.9335 C321.4434,29.9005 321.4244,29.8675 321.4024,29.8385 C321.3764,29.8035 321.3494,29.7685 321.3204,29.7325 C321.2994,29.7005 321.2804,29.6695 321.2554,29.6415 C321.2244,29.6015 321.1894,29.5685 321.1554,29.5355 C321.1304,29.5055 321.1054,29.4785 321.0764,29.4615 C321.0394,29.4295 321.0004,29.3965 320.9654,29.3655 C320.9364,29.3425 320.9064,29.3165 320.8744,29.2965 C320.8304,29.2635 320.7844,29.2335 320.7364,29.2015 C320.7074,29.1845 320.6774,29.1625 320.6444,29.1445 C320.5904,29.1225 320.5354,29.0945 320.4774,29.0655 C320.4474,29.0515 320.4214,29.0365 320.3904,29.0205 C320.3014,28.9845 320.2124,28.9455 320.1124,28.9075 C319.2604,28.6235 318.1894,28.6005 316.9754,28.7795 C317.0034,28.7985 317.0304,28.8145 317.0584,28.8275 C317.0904,28.8505 317.1184,28.8755 317.1474,28.8985 C317.1854,28.9325 317.2274,28.9615 317.2644,28.9965 C317.2904,29.0235 317.3184,29.0525 317.3444,29.0785 C317.3784,29.1115 317.4134,29.1485 317.4394,29.1795 C317.4614,29.2025 317.4854,29.2335 317.5084,29.2635 C317.5374,29.3015 317.5644,29.3395 317.5904,29.3785 C317.6104,29.4135 317.6304,29.4465 317.6504,29.4805 C317.6754,29.5155 317.6974,29.5495 317.7174,29.5925 C317.7344,29.6265 317.7474,29.6625 317.7614,29.7015 C317.7794,29.7435 317.7974,29.7865 317.8124,29.8335 C317.8274,29.8725 317.8394,29.9015 317.8524,29.9385 C317.8654,29.9855 317.8774,30.0325 317.8874,30.0815 C317.8984,30.1205 317.9064,30.1625 317.9134,30.2065 C317.9244,30.2445 317.9304,30.2935 317.9344,30.3475 C317.9414,30.3905 317.9484,30.4345 317.9514,30.4815 C317.9544,30.5315 317.9594,30.5855 317.9594,30.6295 C317.9604,30.6755 317.9624,30.7215 317.9634,30.7705 C317.9624,30.8255 317.9574,30.8825 317.9564,30.9345 C317.9544,30.9795 317.9504,31.0285 317.9454,31.0785 C317.9424,31.1345 317.9324,31.1925 317.9264,31.2565 C317.9204,31.3045 317.9144,31.3575 317.9054,31.4115 C317.8974,31.4675 317.8834,31.5175 317.8724,31.5825 C317.8604,31.6355 317.8514,31.6865 317.8414,31.7425 C317.8244,31.8085 317.8064,31.8755 317.7904,31.9415 C317.7754,31.9975 317.7684,32.0505 317.7524,32.1045 C317.7294,32.1865 317.7004,32.2545 317.6764,32.3325 C317.6404,32.4385 317.6054,32.5465 317.5664,32.6565 C317.5424,32.7235 317.5204,32.7855 317.4964,32.8535 C317.4744,32.9095 317.4414,32.9795 317.4134,33.0535 C317.3854,33.1135 317.3604,33.1795 317.3324,33.2475 C317.2994,33.3205 317.2654,33.3975 317.2314,33.4715 C317.2004,33.5395 317.1694,33.6025 317.1394,33.6565 C317.1034,33.7345 317.0654,33.8125 317.0274,33.8935 C316.9924,33.9595 316.9604,34.0255 316.9254,34.0945 C316.8834,34.1755 316.8384,34.2595 316.7974,34.3335 C316.7624,34.3975 316.7264,34.4635 316.6864,34.5325 C316.6384,34.6145 316.5904,34.7035 316.5424,34.7935 C316.5024,34.8605 316.4624,34.9295 316.4194,34.9965 C316.3724,35.0705 316.3164,35.1605 316.2614,35.2505 C316.2214,35.3245 316.1764,35.3915 316.1334,35.4625 C316.0804,35.5555 316.0194,35.6515 315.9604,35.7445 C315.9124,35.7965 315.8654,35.8665 315.8214,35.9425 C315.7584,36.0375 315.6974,36.1335 315.6314,36.2315 C315.5834,36.3045 315.5354,36.3755 315.4864,36.4485 C315.4174,36.5315 315.3494,36.6345 315.2784,36.7375 C315.2294,36.8085 315.1784,36.8785 315.1284,36.9495 C315.0514,37.0555 314.9804,37.1635 314.9004,37.2525 C314.8514,37.3215 314.7984,37.3895 314.7474,37.4605 C314.6684,37.5745 314.5854,37.6885 314.4984,37.8025 C314.4484,37.8685 314.3994,37.9295 314.3464,37.9795 C314.2594,38.0995 314.1654,38.2215 314.0694,38.3465 C314.0294,38.4005 313.9854,38.4585 313.9384,38.5155 C313.8334,38.6405 313.7274,38.7655 313.6194,38.9005 C313.5904,38.9405 313.5554,38.9825 313.5224,39.0255 C312.8094,39.8925 312.0164,40.8035 311.1404,41.7375 C311.1164,41.7615 311.0954,41.7865 311.0714,41.8155 C310.9154,41.9845 310.7594,42.1555 310.5994,42.3075 C310.5584,42.3485 310.5234,42.3935 310.4864,42.4365 C310.3304,42.6005 310.1724,42.7665 310.0174,42.9345 C309.9674,42.9655 309.9184,43.0195 309.8684,43.0695 C309.7174,43.2335 309.5584,43.3965 309.4024,43.5625 C309.3484,43.6185 309.2944,43.6765 309.2374,43.7125 C309.0824,43.8775 308.9184,44.0445 308.7554,44.2095 C308.7004,44.2675 308.6414,44.3265 308.5824,44.3865 C308.4194,44.5325 308.2564,44.6975 308.0884,44.8665 C308.0244,44.9275 307.9644,44.9885 307.9024,45.0515 C307.7344,45.1995 307.5644,45.3685 307.3904,45.5385 C307.3264,45.5995 307.2694,45.6635 307.2044,45.7245 C307.0294,45.8735 306.8524,46.0485 306.6704,46.2245 C306.6094,46.2815 306.5494,46.3415 306.4854,46.4015 C306.3044,46.5775 306.1144,46.7395 305.9214,46.9205 C305.8674,46.9755 305.8094,47.0275 305.7544,47.0805 C305.5574,47.2705 305.3554,47.4385 305.1534,47.6285 C305.1064,47.6725 305.0574,47.7165 305.0104,47.7615 C304.7964,47.9605 304.5794,48.1435 304.3614,48.3455 C304.3254,48.3785 304.2904,48.4075 304.2564,48.4395 C304.0224,48.6545 303.7884,48.8535 303.5414,49.0745 C303.5354,49.0795 303.5264,49.0895 303.5194,49.0955 C301.6524,50.7485 299.6074,52.4535 297.3954,54.2415 C297.3784,54.2535 297.3614,54.2685 297.3464,54.2805 C297.0614,54.5165 296.7704,54.7335 296.4794,54.9735 C296.4374,55.0075 296.3954,55.0425 296.3514,55.0775 C296.0764,55.2835 295.7924,55.5105 295.5074,55.7365 C295.4504,55.7845 295.3934,55.8305 295.3394,55.8755 C295.0614,56.0815 294.7734,56.3055 294.4904,56.5305 C294.4294,56.5795 294.3734,56.6255 294.3114,56.6765 C294.0264,56.8795 293.7414,57.1065 293.4544,57.3325 C293.3874,57.3835 293.3184,57.4255 293.2564,57.4685 C292.9714,57.6925 292.6784,57.9185 292.3884,58.1435 C292.3184,58.1755 292.2554,58.2295 292.1844,58.2835 C291.8894,58.5095 291.5984,58.7355 291.3004,58.9435 C291.2304,58.9965 291.1624,59.0485 291.0914,59.1045 C290.7934,59.3345 290.4864,59.5645 290.1824,59.7755 C290.1234,59.8215 290.0594,59.8715 289.9954,59.9185 C289.6824,60.1575 289.3634,60.3755 289.0444,60.6165 C288.9924,60.6545 288.9384,60.6935 288.8844,60.7345 C288.5514,60.9815 288.2134,61.2145 287.8774,61.4635 C287.8484,61.4845 287.8224,61.5035 287.7964,61.5235 C285.8744,62.9085 283.8604,64.3155 281.7604,65.7435 C266.7314,75.9885 250.2714,85.0635 242.1034,85.9875 C247.4754,89.0825 267.5544,78.4775 285.5804,66.2005 C287.6784,64.7715 289.6854,63.3655 291.6124,61.9815 C291.6354,61.9605 291.6624,61.9425 291.6884,61.9205 C292.0284,61.6885 292.3624,61.4385 292.6954,61.1895 C292.7494,61.1515 292.8044,61.1105 292.8574,61.0715 C293.1774,60.8515 293.4934,60.6155 293.8064,60.3755 C293.8704,60.3295 293.9354,60.2805 293.9994,60.2485 C294.3034,60.0205 294.6044,59.7905 294.9034,59.5605 C294.9754,59.5265 295.0464,59.4745 295.1194,59.4195 C295.4144,59.1905 295.7054,58.9655 295.9984,58.7585 C296.0674,58.7065 296.1334,58.6515 296.2004,58.6015 C296.4974,58.3755 296.7844,58.1505 297.0694,57.9445 C297.1384,57.8915 297.2054,57.8405 297.2694,57.7905 C297.5534,57.5645 297.8434,57.3525 298.1224,57.1325 C298.1844,57.0845 298.2434,57.0355 298.3034,56.9865 C298.5924,56.7605 298.8734,56.5585 299.1504,56.3315 C299.2094,56.2875 299.2664,56.2405 299.3274,56.1945 C299.6084,55.9685 299.8894,55.7595 300.1664,55.5325 C300.2084,55.4995 300.2484,55.4645 300.2944,55.4295 C300.5834,55.1995 300.8734,54.9735 301.1574,54.7375 C301.1744,54.7255 301.1914,54.7105 301.2064,54.6975 C303.4234,52.9305 305.4674,51.2055 307.3354,49.5525 C307.3434,49.5435 307.3504,49.5375 307.3604,49.5295 C307.5994,49.3305 307.8344,49.1125 308.0714,48.8975 C308.1044,48.8645 308.1374,48.8335 308.1714,48.8035 C308.3954,48.6195 308.6094,48.4185 308.8234,48.2185 C308.8694,48.1745 308.9194,48.1275 308.9654,48.0845 C309.1724,47.9145 309.3684,47.7255 309.5654,47.5375 C309.6224,47.4825 309.6824,47.4325 309.7374,47.3775 C309.9254,47.2155 310.1144,47.0385 310.2974,46.8585 C310.3604,46.7985 310.4254,46.7385 310.4874,46.6795 C310.6644,46.5165 310.8444,46.3505 311.0174,46.1815 C311.0814,46.1175 311.1444,46.0565 311.2074,45.9955 C311.3764,45.8265 311.5494,45.6765 311.7144,45.5075 C311.7794,45.4465 311.8394,45.3855 311.9044,45.3235 C312.0674,45.1555 312.2324,45.0085 312.3944,44.8435 C312.4534,44.7845 312.5124,44.7255 312.5704,44.6655 C312.7304,44.5005 312.8934,44.3405 313.0494,44.1895 C313.1064,44.1305 313.1594,44.0755 313.2154,44.0195 C313.3764,43.8525 313.5304,43.6915 313.6844,43.5465 C313.7334,43.4945 313.7794,43.4425 313.8304,43.3905 C313.9884,43.2235 314.1414,43.0585 314.2964,42.8975 C314.3384,42.8695 314.3754,42.8265 314.4104,42.7835 C314.5714,42.6115 314.7334,42.4395 314.8834,42.2705 C314.9074,42.2435 314.9284,42.2195 314.9514,42.1975 C315.8294,41.2605 316.6224,40.3505 317.3344,39.4815 C317.3664,39.4405 317.4014,39.3975 317.4344,39.3555 C317.5474,39.2415 317.6474,39.1065 317.7504,38.9705 C317.7954,38.9145 317.8444,38.8595 317.8834,38.8025 C317.9774,38.6795 318.0714,38.5735 318.1654,38.4545 C318.2154,38.3885 318.2654,38.3235 318.3094,38.2575 C318.3974,38.1435 318.4804,38.0325 318.5634,37.9185 C318.6114,37.8655 318.6634,37.7965 318.7124,37.7285 C318.7934,37.6205 318.8704,37.5125 318.9464,37.4075 C318.9904,37.3355 319.0414,37.2645 319.0914,37.1955 C319.1624,37.1115 319.2314,37.0075 319.2984,36.9085 C319.3464,36.8345 319.3964,36.7605 319.4434,36.6905 C319.5094,36.5925 319.5754,36.4945 319.6394,36.4145 C319.6824,36.3455 319.7254,36.2725 319.7724,36.2035 C319.8324,36.1055 319.8914,36.0125 319.9504,35.9185 C319.9894,35.8485 320.0324,35.7765 320.0744,35.7075 C320.1304,35.6355 320.1854,35.5465 320.2364,35.4585 C320.2794,35.3875 320.3194,35.3145 320.3564,35.2465 C320.4024,35.1605 320.4514,35.0745 320.4994,34.9995 C320.5374,34.9355 320.5734,34.8675 320.6114,34.7995 C320.6524,34.7165 320.6944,34.6335 320.7364,34.5535 C320.7714,34.4835 320.8044,34.4195 320.8394,34.3505 C320.8794,34.2745 320.9184,34.2065 320.9564,34.1295 C320.9884,34.0625 321.0164,33.9975 321.0464,33.9305 C321.0784,33.8555 321.1114,33.7785 321.1444,33.7095 C321.1724,33.6405 321.1974,33.5775 321.2264,33.5235 C321.2534,33.4535 321.2864,33.3835 321.3114,33.3145 C321.3394,33.2455 321.3554,33.1795 321.3804,33.1145 C321.4194,33.0065 321.4564,32.8985 321.4884,32.8085 C321.5134,32.7255 321.5404,32.6445 321.5634,32.5665 C321.5804,32.5085 321.5914,32.4545 321.6074,32.3995 C321.6234,32.3315 321.6414,32.2655 321.6574,32.2015 C321.6684,32.1475 321.6764,32.1075 321.6894,32.0505 C321.7004,31.9895 321.7144,31.9315 321.7244,31.8685 C321.7294,31.8145 321.7354,31.7645 321.7404,31.7115 C321.7474,31.6525 321.7544,31.5955 321.7594,31.5395 C321.7644,31.4865 321.7654,31.4365 321.7674,31.4025 C321.7714,31.3455 321.7734,31.2905 321.7744,31.2385 C321.7744,31.1895 321.7734,31.1405 321.7704,31.0925" id="Fill-938" fill="#F4AE3D"></path>
                    <path d="M0.4177,147.0081 C0.3577,148.0801 0.4267,149.1331 0.6197,150.1521 C0.7107,150.6631 0.8367,151.1671 0.9857,151.6641 C2.4137,156.4581 5.2687,160.8021 9.3307,163.4931 C9.7827,163.7981 10.2467,164.0751 10.7297,164.3331 C15.0197,167.7911 20.7647,169.0331 26.1567,168.3001 C26.7567,168.2151 27.3477,168.1151 27.9437,167.9851 C31.3247,167.6221 34.4627,166.4011 37.0537,164.4201 C37.4857,164.0901 37.9057,163.7441 38.3037,163.3701 C39.7477,162.1541 41.0117,160.8011 42.0737,159.3381 C42.4267,158.8501 42.7577,158.3521 43.0667,157.8391 C44.0297,156.1461 44.7257,154.3551 45.1867,152.5171 C45.3377,151.9091 45.4657,151.2891 45.5617,150.6651 C45.9547,148.9031 46.1557,147.1121 46.1417,145.3321 C46.1357,144.7431 46.1077,144.1591 46.0507,143.5691 C46.0357,142.9491 45.9797,142.3421 45.8917,141.7431 C45.8077,141.1401 45.6827,140.5491 45.5327,139.9691 C43.9417,134.1391 40.0757,129.0301 34.7117,126.3861 C34.2997,126.1721 33.8837,125.9711 33.4547,125.7801 C30.8997,124.6681 28.0607,124.1011 25.1997,124.0521 C24.6987,124.0131 24.1987,123.9901 23.6967,123.9801 C23.1947,123.9711 22.6877,123.9771 22.1867,123.9991 C21.5877,124.0241 20.9847,124.0691 20.3897,124.1381 C17.8957,124.3861 15.4447,125.0771 13.2117,126.1611 C12.6517,126.4321 12.1077,126.7311 11.5717,127.0521 C7.0837,129.3161 3.5957,133.3391 2.2987,138.2061 C2.1337,138.8151 2.0097,139.4411 1.9057,140.0751 C1.6587,141.8381 1.3427,143.5641 0.7057,145.3421 C0.5837,145.9011 0.4847,146.4561 0.4177,147.0081" id="Fill-940" fill="#E23365"></path>
                    <path d="M38.6743,129.0074 C37.7993,128.2634 36.8613,127.5894 35.8663,127.0134 C22.8633,145.8914 0.6203,150.1524 0.6203,150.1524 C0.7113,150.6634 0.8363,151.1664 0.9853,151.6644 C1.1113,152.0834 1.2543,152.5074 1.4023,152.9174 C23.6313,147.5694 34.9153,134.3314 38.6743,129.0074" id="Fill-942" fill="#F4716E"></path>
                    <path d="M33.8324,125.9654 C33.7044,125.9054 33.5844,125.8374 33.4544,125.7794 C32.4924,125.3614 31.4884,125.0164 30.4564,124.7524 C20.9714,137.0694 7.6264,142.5424 0.9424,144.6304 C0.8714,144.8704 0.7914,145.1074 0.7054,145.3424 C0.5834,145.9004 0.4844,146.4564 0.4174,147.0084 C0.4024,147.2654 0.3964,147.5214 0.397293575,147.7734 C19.1194,142.4884 29.4844,131.6424 33.8324,125.9654" id="Fill-944" fill="#F4716E"></path>
                    <path d="M42.3234,142.7377 C42.2324,136.6257 39.7884,131.1017 35.8674,127.0127 C40.6274,129.7847 44.0604,134.5707 45.5324,139.9687 C45.6834,140.5487 45.8074,141.1397 45.8914,141.7427 C45.9794,142.3417 46.0364,142.9487 46.0504,143.5687 C46.1084,144.1587 46.1364,144.7437 46.1414,145.3327 C46.1554,147.1117 45.9544,148.9027 45.5614,150.6647 C45.4654,151.2887 45.3374,151.9087 45.1864,152.5167 C44.7254,154.3547 44.0294,156.1457 43.0664,157.8397 C42.7574,158.3517 42.4264,158.8507 42.0734,159.3387 C41.0124,160.8017 39.7484,162.1547 38.3034,163.3697 C37.9054,163.7447 37.4854,164.0897 37.0544,164.4207 C34.4624,166.4007 31.3254,167.6227 27.9444,167.9847 C27.3474,168.1147 26.7564,168.2157 26.1564,168.2997 C21.2484,168.9657 16.0514,167.9967 11.9214,165.2157 C14.2814,165.9777 16.8044,166.3737 19.4214,166.3347 C32.2614,166.1437 42.5144,155.5797 42.3234,142.7377" id="Fill-946" fill="#DB2823"></path>
                    <path d="M12.3367,158.1877 C12.3417,158.5227 12.6157,158.7897 12.9487,158.7847 C13.2817,158.7797 13.5467,158.5047 13.5417,158.1697 C13.5367,157.8377 13.2637,157.5717 12.9307,157.5767 C12.5977,157.5807 12.3317,157.8557 12.3367,158.1877" id="Fill-948" fill="#DB2823"></path>
                    <path d="M11.4152,157.5404 C11.4172,157.6924 11.5382,157.8064 11.6872,157.8034 C11.8322,157.8014 11.9542,157.6844 11.9512,157.5324 C11.9492,157.3864 11.8242,157.2664 11.6792,157.2684 C11.5302,157.2704 11.4132,157.3944 11.4152,157.5404" id="Fill-950" fill="#DB2823"></path>
                    <path d="M14.7871,157.5486 C14.7891,157.7006 14.9141,157.8136 15.0601,157.8106 C15.2051,157.8086 15.3261,157.6926 15.3231,157.5406 C15.3211,157.3946 15.1971,157.2746 15.0521,157.2766 C14.9061,157.2786 14.7851,157.4026 14.7871,157.5486" id="Fill-952" fill="#DB2823"></path>
                    <path d="M11.337,158.6433 C11.34,158.8213 11.483,158.9583 11.655,158.9563 C11.828,158.9533 11.971,158.8123 11.968,158.6343 C11.965,158.4623 11.819,158.3233 11.645,158.3263 C11.473,158.3293 11.334,158.4723 11.337,158.6433" id="Fill-954" fill="#DB2823"></path>
                    <path d="M36.0613,154.7501 C36.0663,155.0831 36.3403,155.3471 36.6723,155.3421 C37.0043,155.3371 37.2693,155.0651 37.2643,154.7321 C37.2593,154.4051 36.9863,154.1391 36.6553,154.1441 C36.3223,154.1491 36.0563,154.4221 36.0613,154.7501" id="Fill-956" fill="#DB2823"></path>
                    <path d="M35.1348,154.1078 C35.1368,154.2528 35.2628,154.3718 35.4068,154.3698 C35.5558,154.3678 35.6738,154.2448 35.6718,154.0998 C35.6698,153.9488 35.5478,153.8338 35.3988,153.8358 C35.2548,153.8378 35.1328,153.9568 35.1348,154.1078" id="Fill-958" fill="#DB2823"></path>
                    <path d="M38.514,154.1163 C38.516,154.2603 38.634,154.3803 38.784,154.3783 C38.931,154.3763 39.05,154.2523 39.048,154.1083 C39.046,153.9553 38.923,153.8413 38.776,153.8443 C38.626,153.8463 38.512,153.9633 38.514,154.1163" id="Fill-960" fill="#DB2823"></path>
                    <path d="M35.062,155.2112 C35.065,155.3832 35.206,155.5262 35.382,155.5232 C35.554,155.5212 35.691,155.3732 35.688,155.2022 C35.686,155.0232 35.545,154.8902 35.373,154.8922 C35.196,154.8952 35.059,155.0332 35.062,155.2112" id="Fill-962" fill="#DB2823"></path>
                    <path d="M34.6403,134.3525 C34.3873,134.9125 34.6343,135.5735 35.1953,135.8265 C35.7553,136.0795 36.4143,135.8255 36.6683,135.2725 C36.9203,134.7105 36.6733,134.0505 36.1133,133.7965 C35.5533,133.5455 34.8933,133.7925 34.6403,134.3525" id="Fill-964" fill="#DB2823"></path>
                    <path d="M33.6016,132.5493 C33.4856,132.7963 33.5986,133.0903 33.8466,133.1993 C34.0966,133.3153 34.3886,133.2033 34.5036,132.9533 C34.6136,132.7053 34.5056,132.4123 34.2566,132.3013 C34.0036,132.1873 33.7156,132.2993 33.6016,132.5493" id="Fill-966" fill="#DB2823"></path>
                    <path d="M39.2397,135.2171 C39.1237,135.4621 39.2367,135.7571 39.4877,135.8651 C39.7357,135.9821 40.0287,135.8681 40.1427,135.6191 C40.2537,135.3711 40.1457,135.0791 39.8937,134.9671 C39.6427,134.8531 39.3537,134.9661 39.2397,135.2171" id="Fill-968" fill="#DB2823"></path>
                    <path d="M32.6057,134.3296 C32.4717,134.6236 32.6017,134.9696 32.8957,135.0996 C33.1887,135.2336 33.5287,135.1016 33.6637,134.8076 C33.7947,134.5226 33.6667,134.1756 33.3737,134.0416 C33.0817,133.9106 32.7367,134.0386 32.6057,134.3296" id="Fill-970" fill="#DB2823"></path>
                    <path d="M6.0978,138.4662 C5.8448,139.0272 6.0918,139.6862 6.6518,139.9412 C7.2088,140.1912 7.8678,139.9452 8.1208,139.3862 C8.3728,138.8242 8.1258,138.1642 7.5658,137.9102 C7.0068,137.6582 6.3498,137.9062 6.0978,138.4662" id="Fill-972" fill="#DB2823"></path>
                    <path d="M5.0543,136.663 C4.9433,136.911 5.0513,137.203 5.3013,137.32 C5.5543,137.429 5.8443,137.322 5.9573,137.071 C6.0713,136.82 5.9603,136.532 5.7093,136.416 C5.4613,136.301 5.1673,136.413 5.0543,136.663" id="Fill-974" fill="#DB2823"></path>
                    <path d="M4.0594,138.445 C3.9284,138.738 4.0584,139.083 4.3504,139.22 C4.6444,139.347 4.9864,139.22 5.1174,138.928 C5.2524,138.636 5.1204,138.289 4.8274,138.159 C4.5344,138.024 4.1934,138.157 4.0594,138.445" id="Fill-976" fill="#DB2823"></path>
                    <path d="M170.5134,109.8732 C170.5134,109.8732 159.6864,105.4882 149.7314,121.0072 L162.9074,124.5202 L170.5134,109.8732 Z" id="Fill-978" fill="#595BD9"></path>
                    <path d="M174.6192,136.5255 L177.8402,147.3595 C177.8402,147.3595 189.2362,137.8275 188.2232,128.6855 L174.6192,136.5255 Z" id="Fill-980" fill="#595BD9"></path>
                    <path d="M159.6826,131.95 C156.2596,133.29 153.3356,135.773 151.2416,138.794 C149.1476,141.815 147.8616,145.356 147.2696,148.983 C147.1056,149.985 147.0346,151.135 147.7136,151.89 C148.1436,152.369 148.8086,152.586 149.4516,152.602 C150.0956,152.617 150.7296,152.454 151.3486,152.278 C156.1836,150.898 160.7866,148.607 164.6256,145.36 C165.7226,144.431 166.7646,143.417 167.5596,142.22 C168.3556,141.023 168.8976,139.628 168.9206,138.191" id="Fill-982" fill="#F79E3C"></path>
                    <path d="M154.1188,146.9726 C157.0478,146.9756 159.3548,146.1446 161.7408,144.4316 C164.1008,142.7386 166.8998,140.8616 168.3628,138.2926 C170.6768,134.2276 166.1148,129.9976 162.1418,132.0716 C159.7948,133.2966 157.8298,135.6916 155.9468,137.5296 C153.9548,139.4756 152.7148,141.3566 151.8358,143.9766 C151.3408,145.4516 152.6508,146.9716 154.1188,146.9726" id="Fill-984" fill="#FFCC5E"></path>
                    <path d="M156.4805,127.2882 L172.9465,141.2452 C172.9465,141.2452 190.7585,128.8692 201.8445,114.4402 C210.7015,102.9112 213.7465,88.7232 211.1365,88.3992 C184.8225,85.1382 156.4805,127.2882 156.4805,127.2882" id="Fill-986" fill="#53ACD3"></path>
                    <path d="M199.5092,106.5741 C199.5092,110.2601 196.5202,113.2491 192.8342,113.2491 C189.1482,113.2491 186.1592,110.2601 186.1592,106.5741 C186.1592,102.8881 189.1482,99.8991 192.8342,99.8991 C196.5202,99.8991 199.5092,102.8881 199.5092,106.5741" id="Fill-988" fill="#24EBF6"></path>
                    <path d="M198.6091,106.5741 C198.2111,113.9671 187.0591,114.0351 187.0591,106.5741 C187.0591,99.1121 198.2111,99.1751 198.6091,106.5741 C198.6711,107.7261 200.4711,107.7331 200.4091,106.5741 C200.1881,102.4641 197.1231,98.9991 192.8341,98.9991 C188.7281,98.9991 185.2411,102.4551 185.2591,106.5741 C185.2771,110.5621 188.4801,113.9421 192.4701,114.1291 C196.9001,114.3381 200.1801,110.8321 200.4091,106.5741 C200.4711,105.4161 198.6711,105.4201 198.6091,106.5741" id="Fill-990" fill="#D8D8D8"></path>
                    <polygon id="Fill-992" fill="#FF9400" points="158.1286 128.6851 155.8176 131.4491 170.5136 141.2451 171.6406 140.1381"></polygon>
                </g>
                <g id="Group-1001" transform="translate(202.000000, 111.000000)">
                    <g id="Group-997">
                        <mask id="mask-14" fill="white">
                            <use xlink:href="#path-13"></use>
                        </mask>
                        <g id="Clip-996"></g>
                        <path d="M39.1154,0.8279 C39.1154,0.8279 44.6164,17.1959 56.6524,17.1959 L60.7824,-0.6651 C60.7824,-0.6651 49.2694,-7.9271 39.1154,0.8279" id="Fill-995" fill="#595BD9" mask="url(#mask-14)"></path>
                    </g>
                    <g id="Group-1000">
                        <mask id="mask-16" fill="white">
                            <use xlink:href="#path-15"></use>
                        </mask>
                        <g id="Clip-999"></g>
                        <path d="M16.16,10.0705 C17.017,24.8815 28.338,37.9005 43.42,39.6535 C44.822,39.8155 45.052,37.5915 43.747,37.2365 C29.983,33.4825 20.366,24.1875 17.61,9.8745 C17.454,9.0605 16.112,9.2405 16.16,10.0705" id="Fill-998" fill="#595BD9" mask="url(#mask-16)"></path>
                    </g>
                </g>
                <polygon id="Fill-1002" fill="#03D695" points="117.3057 67.8583 111.8057 60.6303 113.0567 59.6783 118.5567 66.9073"></polygon>
                <polygon id="Fill-1004" fill="#03D695" points="127.1987 67.0726 132.6987 59.8446 131.4477 58.8926 125.9477 66.1216"></polygon>
                <path d="M108.0616,92.2886 C108.0026,90.5826 108.3646,86.7816 111.8196,81.8166 L110.5296,80.9186 C106.7126,86.4056 106.3816,90.6156 106.4926,92.5336 C106.1846,92.9076 105.9886,93.4686 105.9886,94.0956 C105.9886,95.2236 106.6216,96.1386 107.4026,96.1386 C108.1836,96.1386 108.8176,95.2236 108.8176,94.0956 C108.8176,93.3106 108.5106,92.6306 108.0616,92.2886" id="Fill-1006" fill="#03D695"></path>
                <path d="M138.483,92.5331 C138.594,90.6161 138.264,86.4061 134.447,80.9191 L133.157,81.8161 C136.611,86.7821 136.973,90.5831 136.914,92.2881 C136.465,92.6311 136.159,93.3111 136.159,94.0951 C136.159,95.2241 136.792,96.1381 137.573,96.1381 C138.354,96.1381 138.987,95.2241 138.987,94.0951 C138.987,93.4681 138.791,92.9081 138.483,92.5331" id="Fill-1008" fill="#03D695"></path>
                <path d="M119.6154,90.9537 L119.2964,90.2357 L118.9864,89.5137 C118.7514,89.6147 113.4464,92.0457 113.3154,105.0997 C112.9014,104.9417 112.4224,104.8497 111.9104,104.8497 C110.3484,104.8497 109.0824,105.6937 109.0824,106.7347 L113.3244,106.7347 C113.3254,106.7407 113.3254,106.7467 113.3254,106.7527 L114.1104,106.7347 L114.7394,106.7347 C114.7394,106.7307 114.7384,106.7257 114.7384,106.7207 L114.8964,106.7177 C114.6004,93.4257 119.5654,90.9767 119.6154,90.9537" id="Fill-1010" fill="#03D695"></path>
                <path d="M125.7334,90.9537 L126.0524,90.2357 L126.3624,89.5137 C126.5974,89.6147 131.9024,92.0457 132.0334,105.0997 C132.4474,104.9417 132.9264,104.8497 133.4384,104.8497 C135.0004,104.8497 136.2664,105.6937 136.2664,106.7347 L132.0244,106.7347 C132.0234,106.7407 132.0234,106.7467 132.0234,106.7527 L131.2384,106.7347 L130.6094,106.7347 C130.6094,106.7307 130.6104,106.7257 130.6104,106.7207 L130.4524,106.7177 C130.7484,93.4257 125.7834,90.9767 125.7334,90.9537" id="Fill-1012" fill="#03D695"></path>
                <path d="M114.9454,58.5831 C114.9454,60.7531 113.1864,62.5111 111.0174,62.5111 C108.8474,62.5111 107.0884,60.7531 107.0884,58.5831 C107.0884,56.4131 108.8474,54.6551 111.0174,54.6551 C113.1864,54.6551 114.9454,56.4131 114.9454,58.5831" id="Fill-1014" fill="#FFFFFF"></path>
                <path d="M111.017,55.1261 C109.111,55.1261 107.56,56.6771 107.56,58.5831 C107.56,60.4891 109.111,62.0401 111.017,62.0401 C112.923,62.0401 114.474,60.4891 114.474,58.5831 C114.474,56.6771 112.923,55.1261 111.017,55.1261 M111.017,62.9831 C108.591,62.9831 106.617,61.0091 106.617,58.5831 C106.617,56.1571 108.591,54.1831 111.017,54.1831 C113.443,54.1831 115.417,56.1571 115.417,58.5831 C115.417,61.0091 113.443,62.9831 111.017,62.9831" id="Fill-1016" fill="#03D695"></path>
                <path d="M137.1014,57.7974 C137.1014,59.9674 135.3424,61.7254 133.1734,61.7254 C131.0034,61.7254 129.2444,59.9674 129.2444,57.7974 C129.2444,55.6274 131.0034,53.8694 133.1734,53.8694 C135.3424,53.8694 137.1014,55.6274 137.1014,57.7974" id="Fill-1018" fill="#FFFFFF"></path>
                <path d="M133.173,54.419 C131.31,54.419 129.795,55.935 129.795,57.797 C129.795,59.66 131.31,61.176 133.173,61.176 C135.036,61.176 136.551,59.66 136.551,57.797 C136.551,55.935 135.036,54.419 133.173,54.419 M133.173,62.276 C130.704,62.276 128.695,60.267 128.695,57.797 C128.695,55.328 130.704,53.319 133.173,53.319 C135.642,53.319 137.651,55.328 137.651,57.797 C137.651,60.267 135.642,62.276 133.173,62.276" id="Fill-1020" fill="#03D695"></path>
                <path d="M136.7871,74.3751 C136.7871,82.1421 130.4901,99.9091 122.7241,99.9091 C114.9561,99.9091 108.6601,82.1421 108.6601,74.3751 C108.6601,66.6081 114.9561,60.3111 122.7241,60.3111 C130.4901,60.3111 136.7871,66.6081 136.7871,74.3751" id="Fill-1022" fill="#00EBAA"></path>
                <path d="M122.7236,93.8409 C117.2926,93.8409 112.4346,86.9299 109.1916,79.1159 C110.8636,87.7159 116.2886,99.9099 122.7236,99.9099 C129.1576,99.9099 134.5826,87.7159 136.2556,79.1159 C133.0126,86.9299 128.1546,93.8409 122.7236,93.8409" id="Fill-1024" fill="#03D695"></path>
                <path d="M111.4884,58.3474 C111.4884,58.6514 111.2424,58.8974 110.9384,58.8974 C110.6344,58.8974 110.3884,58.6514 110.3884,58.3474 C110.3884,58.0434 110.6344,57.7974 110.9384,57.7974 C111.2424,57.7974 111.4884,58.0434 111.4884,58.3474" id="Fill-1026" fill="#212121"></path>
                <path d="M133.8015,57.876 C133.8015,58.18 133.5555,58.426 133.2515,58.426 C132.9475,58.426 132.7015,58.18 132.7015,57.876 C132.7015,57.572 132.9475,57.326 133.2515,57.326 C133.5555,57.326 133.8015,57.572 133.8015,57.876" id="Fill-1028" fill="#212121"></path>
                <path d="M122.8022,78.8535 C127.3152,78.8535 130.9732,75.1955 130.9732,70.6825 L114.6312,70.6825 C114.6312,75.1955 118.2892,78.8535 122.8022,78.8535" id="Fill-1030" fill="#212121"></path>
                <path d="M127.8478,77.1068 C126.6318,75.3498 124.8228,74.2348 122.8018,74.2348 C120.7808,74.2348 118.9728,75.3498 117.7568,77.1068 C119.1458,78.1998 120.8968,78.8538 122.8018,78.8538 C124.7068,78.8538 126.4578,78.1998 127.8478,77.1068" id="Fill-1032" fill="#E23365"></path>
            </g>
        </g>
    </g>
</svg>