<?xml version="1.0" encoding="UTF-8"?>
<svg width="109px" height="137px" viewBox="0 0 109 137" version="1.1" xmlns="http://www.w3.org/2000/svg" xmlns:xlink="http://www.w3.org/1999/xlink">
    <!-- Generator: Sketch 53.1 (72631) - https://sketchapp.com -->
    <title>Group 55Sculpture</title>
    <desc>Created with Sketch.</desc>
    <defs>
        <path d="M11.637,13.87 C10.487,14.099 9.338,14.385 8.189,14.614 C5.381,13.185 0.812,8.428 0.812,8.428 C0.29,6.163 -0.088,2.913 0.484,0.555" id="path-1"></path>
        <linearGradient x1="0.00272266216%" y1="49.9980689%" x2="100.00216%" y2="49.9980689%" id="linearGradient-3">
            <stop stop-color="#FFF6CC" offset="0%"></stop>
            <stop stop-color="#FFF6CC" offset="100%"></stop>
        </linearGradient>
        <path d="M34.309,0.343 C33.58,7.237 31.924,13.356 28.778,18.23 C18.65,21.153 9.504,22.21 0.083,19.791 L0.083,5.875" id="path-4"></path>
        <linearGradient x1="-0.000690410799%" y1="50.0000426%" x2="100.001232%" y2="50.0000426%" id="linearGradient-6">
            <stop stop-color="#FFF6CC" offset="0%"></stop>
            <stop stop-color="#FFF6CC" offset="100%"></stop>
        </linearGradient>
        <path d="M0.936,0.624 C2.424,5.266 2.5,10.381 1.124,15.098 L1.124,15.098 C1.466,15.111 1.808,15.12 2.151,15.124 L2.151,15.124 C3.591,10.441 3.667,5.339 2.351,0.583 L2.351,0.583 C1.878,0.605 1.407,0.616 0.936,0.624" id="path-7"></path>
        <path d="M7.655,1.853 L7.655,3.42 L6.224,2.458 C4.217,3.392 2.4,4.686 0.8,6.095 L0.8,6.095 C0.381,6.451 1.576,10.763 2.088,10.701 L2.088,10.701 L4.555,10.493 C4.835,13.336 5.72,16.559 6.853,19.94 L6.853,19.94 C9.725,20.49 12.901,20.607 16.277,20.441 L16.277,20.441 C17.881,18.685 18.424,11.015 17.226,6.439 L17.226,6.439 C16.234,3.967 15.192,2.898 13.32,0.77 L13.32,0.77 C11.601,0.803 9.678,1.268 7.655,1.853" id="path-9"></path>
        <path d="M43.762,22.575 C29.469,25.074 14.826,24.5 0.504,22.179 C0.499,19.449 0.495,16.702 0.979,14.016 C1.464,11.329 2.469,8.679 4.267,6.625 C5.981,4.668 8.335,3.348 10.808,2.545 C13.282,1.741 15.887,1.425 18.48,1.228 C23.021,0.883 27.589,0.89 32.129,1.251 C35.33,1.505 38.7,2.009 41.197,4.029 C43.765,6.106 44.975,9.501 45.133,12.799" id="path-11"></path>
        <linearGradient x1="-0.000195350057%" y1="49.9998921%" x2="100.000553%" y2="49.9998921%" id="linearGradient-13">
            <stop stop-color="#FFF6CC" offset="0%"></stop>
            <stop stop-color="#FFF6CC" offset="100%"></stop>
        </linearGradient>
        <path d="M3.384,24.391 C3.467,21.218 3.555,17.946 3.764,14.836 L3.77,14.744 L3.757,14.653 C3.348,11.861 2.493,7.83 1.828,4.99 C1.298,2.719 0.919,1.256 0.627,0.3 C1.188,1.014 1.766,1.723 2.348,2.44 C2.471,2.59 2.593,2.742 2.715,2.894 C2.771,2.971 2.846,3.073 2.947,3.21 C3.314,3.767 3.683,4.31 4.01,4.892 C4.658,6.049 5.527,7.935 5.757,8.518 C7.901,13.944 9,19.593 9.679,24.922" id="path-14"></path>
        <linearGradient x1="33.0088233%" y1="7.8782873%" x2="59.4816552%" y2="96.2780712%" id="linearGradient-16">
            <stop stop-color="#FFF6CC" offset="0%"></stop>
            <stop stop-color="#FFF6CC" offset="100%"></stop>
        </linearGradient>
        <path d="M1.231,1.727 C4.296,3.426 6.107,5.87 7.472,9.098 L7.472,9.098 C8.23,9.233 8.966,9.548 9.724,9.684 L9.724,9.684 C8.494,5.35 5.392,2.105 1.098,0.743 L1.098,0.743 C0.752,1.067 0.846,1.59 1.231,1.727" id="path-17"></path>
        <path d="M0.321,8.008 C0.754,8.093 1.164,8.213 1.598,8.297 L1.598,8.297 C2.794,5.216 5.039,2.769 7.993,0.834 L7.993,0.834 C11.316,2.231 13.864,4.872 15.078,7.901 L15.078,7.901 C15.512,7.725 15.816,7.627 16.251,7.45 L16.251,7.45 C14.41,4.207 11.482,1.612 7.99,0.302 L7.99,0.302 C4.697,1.961 1.963,4.707 0.321,8.008" id="path-19"></path>
        <path d="M4.699,0.644 C0.687,1.762 -1.021,6.757 2.183,9.412 L2.183,9.412 C3.499,10.503 5.587,10.835 7.16,10.067 L7.16,10.067 C8.285,9.517 9.057,8.484 9.401,7.375 L9.401,7.375 C9.743,6.266 9.693,5.083 9.467,3.95 L9.467,3.95 C9.24,2.812 8.772,1.619 7.71,0.968 L7.71,0.968 C7.17,0.637 6.519,0.485 5.863,0.485 L5.863,0.485 C5.469,0.485 5.074,0.54 4.699,0.644" id="path-21"></path>
        <path d="M2.492,0.999 C0.436,1.572 -0.44,4.134 1.202,5.494 L1.202,5.494 C1.877,6.054 2.948,6.225 3.755,5.831 L3.755,5.831 C4.332,5.549 4.728,5.02 4.903,4.45 L4.903,4.45 C5.079,3.881 5.053,3.275 4.937,2.694 L4.937,2.694 C4.82,2.11 4.581,1.498 4.036,1.165 L4.036,1.165 C3.759,0.995 3.425,0.917 3.089,0.917 L3.089,0.917 C2.887,0.917 2.684,0.945 2.492,0.999 M2.245,4.081 C1.755,3.675 2.016,2.912 2.629,2.741 L2.629,2.741 C2.782,2.699 2.957,2.709 3.09,2.79 L3.09,2.79 C3.252,2.89 3.324,3.072 3.358,3.246 L3.358,3.246 C3.393,3.42 3.4,3.6 3.348,3.771 L3.348,3.771 C3.296,3.94 3.178,4.097 3.006,4.182 L3.006,4.182 C2.917,4.225 2.817,4.245 2.716,4.245 L2.716,4.245 C2.545,4.245 2.371,4.186 2.245,4.081" id="path-23"></path>
        <path d="M10.683,0.573 C9.745,0.707 8.806,0.82 7.872,0.97 L7.872,0.97 L6.473,1.229 C6.008,1.312 5.542,1.401 5.081,1.517 L5.081,1.517 L3.696,1.846 C3.234,1.957 2.781,2.109 2.324,2.24 L2.324,2.24 C1.728,2.4 1.143,2.615 0.561,2.837 L0.561,2.837 C0.594,3.183 0.626,3.528 0.661,3.874 L0.661,3.874 C4.043,3.237 7.453,2.838 10.883,2.536 L10.883,2.536 C14.57,2.207 18.278,2.013 21.991,1.995 L21.991,1.995 C23.848,1.98 25.705,1.993 27.561,2.054 L27.561,2.054 C28.491,2.063 29.419,2.114 30.347,2.156 L30.347,2.156 L31.739,2.22 L33.13,2.314 C34.057,2.374 34.986,2.426 35.911,2.52 L35.911,2.52 C36.835,2.617 37.768,2.655 38.691,2.772 L38.691,2.772 C39.614,2.878 40.542,2.967 41.464,3.087 L41.464,3.087 C42.309,3.211 43.157,3.315 44.005,3.426 L44.005,3.426 C44.014,3.125 44.024,2.824 44.036,2.524 L44.036,2.524 C43.239,2.345 42.444,2.162 41.644,1.996 L41.644,1.996 C40.721,1.81 39.793,1.657 38.867,1.485 L38.867,1.485 C37.011,1.166 35.146,0.899 33.273,0.7 L33.273,0.7 C29.528,0.285 25.761,0.069 21.989,0.034 L21.989,0.034 C21.78,0.033 21.57,0.032 21.361,0.032 L21.361,0.032 C17.799,0.032 14.233,0.166 10.683,0.573" id="path-25"></path>
        <path d="M8.059,7.172 C8.051,8.168 7.997,9.163 8.002,10.16 C8.012,12.003 8.253,13.715 8.708,15.396 C5.323,13.74 2.51,10.867 0.893,7.356 C1.125,7.231 1.359,7.104 1.594,6.977 C2.069,6.719 2.544,6.462 2.994,6.215 L3.541,5.915 L3.429,5.302 C3.375,5.005 3.329,4.755 3.328,4.53 C3.318,3.212 3.366,1.983 3.465,0.828 C4.464,3.029 6.044,4.955 8.05,6.188" id="path-27"></path>
        <linearGradient x1="33.9281381%" y1="15.6762054%" x2="86.8750206%" y2="113.632816%" id="linearGradient-29">
            <stop stop-color="#FFF6CC" offset="0%"></stop>
            <stop stop-color="#FFF6CC" offset="100%"></stop>
        </linearGradient>
        <path d="M0.747,0.93 C2.197,1.741 3.686,2.475 5.168,3.235 C5.561,3.437 5.952,3.678 6.35,3.89 C5.138,5.085 4.13,6.522 3.243,8.078 C2.937,7.642 2.415,6.904 2.533,7.11 C2.369,6.847 2.207,6.582 2.035,6.326 C1.958,6.211 1.898,6.125 1.846,6.052 C1.838,6.019 1.826,5.979 1.81,5.929 C1.792,5.874 1.694,5.53 1.622,5.3 C1.622,5.005 1.554,4.17 1.554,4.148 C1.555,4.03 1.544,3.914 1.538,3.797 C1.537,3.773 1.536,3.748 1.535,3.723 C1.526,3.574 1.511,3.427 1.49,3.28 C1.485,3.235 1.477,3.192 1.47,3.148 C1.451,3.029 1.433,2.909 1.407,2.791" id="path-30"></path>
        <linearGradient x1="-45.3251573%" y1="7.57165501%" x2="286.916282%" y2="187.616827%" id="linearGradient-32">
            <stop stop-color="#FFF6CC" offset="0%"></stop>
            <stop stop-color="#FFF6CC" offset="100%"></stop>
        </linearGradient>
        <path d="M0.063,11.526 C0.079,11.411 0.097,11.298 0.117,11.187 C0.728,7.757 2.731,4.628 5.495,2.526 C8.628,0.143 12.618,-0.319 16.353,0.938 C17.688,1.388 19.084,2.225 19.385,3.601 C19.65,4.813 18.944,6.061 17.984,6.848 C16.355,8.183 14.161,8.697 12.414,9.902 C10.625,11.135 9.038,12.639 7.545,14.211 C6.341,15.479 4.952,16.903 3.204,16.854" id="path-33"></path>
        <linearGradient x1="22.0688908%" y1="20.5663292%" x2="67.2955629%" y2="70.5686704%" id="linearGradient-35">
            <stop stop-color="#FFF6CC" offset="0%"></stop>
            <stop stop-color="#FFF6CC" offset="100%"></stop>
        </linearGradient>
        <path d="M0.084,3.734 C3.461,6.215 6.696,9.111 9.818,12.334 L9.818,12.334 C11.483,11.262 12.774,10.174 13.803,9.073 L13.803,9.073 C10.899,5.633 7.565,2.695 3.769,0.292 L3.769,0.292 C2.435,1.137 1.224,2.335 0.084,3.734" id="path-36"></path>
        <path d="M4.868,1.221 C3.383,1.585 1.938,2.13 0.598,2.871 L0.598,2.871 C0.967,3.081 1.336,3.277 1.708,3.452 L1.708,3.452 C1.549,3.545 1.392,3.642 1.236,3.742 L1.236,3.742 C3.934,2.426 7.009,1.915 9.985,2.12 L9.985,2.12 C11.6,2.232 13.194,2.561 14.689,3.12 L14.689,3.12 C16.115,3.654 17.446,4.406 18.578,5.37 L18.578,5.37 C18.74,4.735 18.88,4.079 19.002,3.408 L19.002,3.408 C17.832,2.611 16.553,2.004 15.235,1.569 L15.235,1.569 C13.552,1.015 11.801,0.732 10.055,0.679 L10.055,0.679 C9.864,0.673 9.672,0.671 9.48,0.671 L9.48,0.671 C7.925,0.671 6.374,0.853 4.868,1.221" id="path-38"></path>
        <path d="M0.006,6.182 C0.365,7.544 1.126,8.967 2.289,10.371 L2.289,10.371 C3.357,9.727 4.433,9.224 5.517,8.877 L5.517,8.877 C4.63,9.681 3.833,10.512 3.183,11.392 L3.183,11.392 C4.847,13.872 6.779,15.798 9.424,18.214 L9.424,18.214 C12.601,16.545 15.603,14.479 18.466,12.097 L18.466,12.097 C17.818,5.805 11.811,0.418 6.107,0.418 L6.107,0.418 C3.92,1.94 1.889,3.87 0.006,6.182" id="path-40"></path>
    </defs>
    <g id="Page-1" stroke="none" stroke-width="1" fill="none" fill-rule="evenodd">
        <g id="Desktop-HD" transform="translate(-816.000000, -2719.000000)">
            <g id="Group-55" transform="translate(816.000000, 2719.000000)">
                <g id="Group-19">
                    <g id="Group-3" transform="translate(82.000000, 62.000000)">
                        <mask id="mask-2" fill="white">
                            <use xlink:href="#path-1"></use>
                        </mask>
                        <g id="Clip-2"></g>
                        <path d="M11.637,13.87 C6.822,10.623 2.78,5.889 0.484,0.555 C-0.088,2.913 0.29,6.163 0.812,8.428 C0.812,8.428 5.381,13.185 8.189,14.614 C9.338,14.385 10.487,14.099 11.637,13.87" id="Fill-1" fill="url(#linearGradient-3)" mask="url(#mask-2)"></path>
                    </g>
                    <path d="M37.8536,5.2897 C45.9846,4.5287 54.2556,5.2847 62.1136,7.5067 C59.2386,16.5217 57.4456,26.5017 57.1446,35.9597 C51.4716,36.0157 45.8316,37.0437 40.4626,38.8777 C37.1926,27.8657 36.4446,16.6897 37.8536,5.2897" id="Fill-4" fill="#00B8C4"></path>
                    <path d="M49.9602,24.5179 C51.3382,19.6259 53.2062,14.8389 55.5072,10.3069 C56.0582,9.2209 56.6282,8.1189 57.2342,7.0339 C52.8952,6.1459 48.4672,5.6939 44.0162,5.6939 C42.1702,5.6939 40.3082,5.7729 38.4732,5.9289 C37.1732,17.0099 37.9972,27.7909 40.9242,37.9939 C43.1272,37.2719 45.3462,36.7009 47.5702,36.2639 C47.9932,32.3069 48.8782,28.3579 49.9602,24.5179" id="Fill-6" fill="#00B8C4"></path>
                    <path d="M9.7119,42.532 C21.3449,35.12 35.5959,30.017 49.3869,29.735 C47.2719,20.201 46.6059,10.094 47.6629,1.204 C31.6909,-1.492 14.7299,2.204 1.3279,11.3 C3.7719,21.104 7.2679,32.728 9.7119,42.532" id="Fill-8" fill="#00B8C4"></path>
                    <path d="M49.3867,29.7352 L40.4627,38.8772 C39.6887,36.2592 39.0377,33.6022 38.5357,30.8992 C42.2687,30.2022 45.8937,29.7942 49.3867,29.7352" id="Fill-10" fill="#1D4A6B"></path>
                    <path d="M2.4871,10.944 L29.7851,130.452 L28.4381,130.452 L0.2811,11.458 C0.9061,10.859 1.6651,10.777 2.4871,10.944" id="Fill-12" fill="#FFF6DB"></path>
                    <path d="M40.5032,21.093 C40.5032,21.093 40.3342,21.149 40.0122,21.255 C39.6912,21.367 39.2122,21.51 38.5902,21.684 C37.3472,22.026 35.5112,22.431 33.1952,22.636 C30.8842,22.826 28.0852,22.8 25.0392,22.243 C23.5182,21.965 21.9392,21.558 20.3502,20.996 C18.7612,20.431 17.1622,19.715 15.5982,18.847 C14.0342,17.978 12.5892,16.985 11.2742,15.931 C10.6152,15.406 9.9972,14.854 9.4042,14.302 C9.1582,14.064 8.9132,13.827 8.6702,13.592 L8.2982,13.23 L8.1142,13.051 L8.0222,12.962 C8.0382,12.94 8.0942,12.922 8.1292,12.902 C8.4412,12.745 8.7522,12.59 9.0612,12.436 L9.5172,12.208 L9.6302,12.151 L9.6862,12.123 L9.7222,12.108 L9.8562,12.05 C12.7192,10.781 15.5352,10.331 17.8642,10.299 C20.2032,10.276 22.0662,10.626 23.3122,10.964 C23.6222,11.055 23.8982,11.135 24.1372,11.205 C24.3742,11.277 24.5702,11.354 24.7312,11.409 C25.0502,11.522 25.2182,11.582 25.2182,11.582 C25.2182,11.582 25.0442,11.541 24.7152,11.463 C24.5502,11.426 24.3482,11.369 24.1062,11.321 C23.8632,11.276 23.5842,11.223 23.2692,11.164 C22.0092,10.948 20.1552,10.769 17.8962,10.952 C15.6452,11.143 12.9812,11.74 10.3262,13.049 L10.2002,13.109 L10.1702,13.123 L10.1632,13.127 L10.1492,13.136 L10.0932,13.171 L9.9932,13.234 C9.9902,13.237 9.9832,13.239 9.9832,13.242 L9.9972,13.254 L10.0252,13.277 L10.0792,13.322 L10.2072,13.428 C10.7952,13.941 11.4032,14.456 12.0482,14.948 C13.3352,15.933 14.7322,16.87 16.2352,17.705 C17.7382,18.538 19.2642,19.243 20.7802,19.82 C22.2972,20.394 23.8022,20.834 25.2592,21.161 C28.1752,21.818 30.8882,22.008 33.1632,21.983 C35.4402,21.944 37.2842,21.706 38.5462,21.485 C39.1772,21.371 39.6682,21.278 39.9982,21.201 C40.3292,21.13 40.5032,21.093 40.5032,21.093 L40.5032,21.093 Z M15.4402,20.281 C15.4412,20.275 15.4422,20.269 15.4432,20.262 C15.4402,20.266 15.4372,20.27 15.4342,20.273 C15.4562,20.08 15.4882,19.885 15.5272,19.69 C15.5562,19.537 15.5912,19.384 15.6292,19.233 C15.7942,19.323 15.9622,19.41 16.1292,19.497 C15.8932,19.753 15.6622,20.013 15.4402,20.281 C15.6032,20.072 15.7722,19.867 15.9452,19.665 C15.7672,19.867 15.5992,20.066 15.4442,20.261 C15.4432,20.268 15.4412,20.274 15.4402,20.281 L15.4402,20.281 Z M20.3152,22.13 C19.5452,22.586 18.7522,23.001 17.9482,23.392 C17.9232,23.404 17.8932,23.393 17.8812,23.368 C17.8722,23.351 17.8752,23.33 17.8862,23.316 C18.4322,22.607 18.9992,21.915 19.6012,21.252 C19.5412,21.168 19.4842,21.082 19.4262,20.995 C19.6972,21.1 19.9682,21.207 20.2412,21.304 C21.0852,21.603 21.9502,21.862 22.8272,22.087 C22.6422,22.187 22.4582,22.287 22.2772,22.394 L22.2772,22.395 C22.2572,22.406 22.2322,22.402 22.2172,22.387 L22.0452,22.215 C21.7152,22.406 21.3872,22.6 21.0732,22.814 C21.0532,22.827 21.0282,22.825 21.0112,22.811 C20.7672,22.597 20.5362,22.368 20.3152,22.13 L20.3152,22.13 Z M27.3072,22.895 C27.3992,22.955 27.4672,23.049 27.4962,23.154 C27.5102,23.21 27.5132,23.268 27.5062,23.325 C27.4982,23.382 27.4762,23.438 27.4542,23.482 C27.3692,23.673 27.2562,23.848 27.1282,24.01 C27.0022,24.173 26.8612,24.324 26.7102,24.463 C26.5602,24.604 26.3992,24.733 26.2352,24.854 C25.9032,25.096 25.5522,25.308 25.1872,25.491 C24.8212,25.674 24.4442,25.833 24.0592,25.969 C23.6722,26.102 23.2762,26.206 22.8762,26.286 C22.0762,26.445 21.2552,26.507 20.4452,26.425 C20.5922,26.436 20.7402,26.44 20.8882,26.442 C20.7432,26.438 20.6002,26.431 20.4582,26.419 C20.4542,26.421 20.4502,26.424 20.4452,26.425 C20.4492,26.424 20.4532,26.421 20.4572,26.419 C20.4512,26.418 20.4452,26.418 20.4392,26.417 C20.6212,26.325 20.8092,26.224 21.0012,26.117 C21.4012,25.886 21.7942,25.642 22.1842,25.393 L23.0332,24.842 C23.3112,24.659 23.5902,24.478 23.8742,24.304 C23.9812,24.09 24.0842,23.874 24.1702,23.652 C24.2562,23.426 24.3272,23.193 24.3522,22.956 C24.3702,22.777 24.3602,22.594 24.3042,22.427 C24.5292,22.473 24.7542,22.523 24.9812,22.565 C25.2962,22.622 25.6122,22.674 25.9302,22.722 C25.9702,22.846 26.0312,22.963 26.1162,23.062 C26.2942,22.988 26.4752,22.921 26.6642,22.874 C26.7152,22.861 26.7662,22.85 26.8182,22.841 C26.9812,22.861 27.1442,22.878 27.3072,22.895 L27.3072,22.895 Z M22.4242,15.453 C21.9892,15.612 21.5432,15.752 21.0862,15.798 C20.8562,15.82 20.6222,15.816 20.4032,15.756 C20.1962,15.699 20.0122,15.577 19.8822,15.408 C19.9912,15.249 20.0932,15.085 20.1782,14.91 C20.2222,14.816 20.2622,14.719 20.2912,14.618 C20.3232,14.522 20.3382,14.393 20.2942,14.288 C20.2562,14.18 20.1732,14.089 20.0712,14.038 C20.0202,14.013 19.9632,13.998 19.9062,13.993 C19.8492,13.99 19.7892,14 19.7412,14.013 C19.5382,14.057 19.3432,14.132 19.1582,14.225 C18.9732,14.316 18.7972,14.423 18.6302,14.544 C18.4622,14.662 18.3032,14.792 18.1512,14.929 C17.8482,15.205 17.5692,15.506 17.3152,15.827 C17.0622,16.147 16.8292,16.485 16.6192,16.835 C16.5142,17.013 16.4162,17.194 16.3242,17.378 C16.3472,17.391 16.3702,17.406 16.3942,17.419 C16.7762,17.631 17.1622,17.834 17.5512,18.032 C17.7732,17.808 17.9962,17.583 18.2122,17.353 C18.4402,17.292 18.6702,17.235 18.9012,17.196 C19.1372,17.157 19.3762,17.135 19.6102,17.155 C19.8432,17.177 20.0762,17.244 20.2532,17.393 C20.4312,17.536 20.5492,17.743 20.6212,17.964 L20.6212,17.967 C20.6222,17.973 20.6232,17.975 20.6242,17.978 L20.6282,17.994 L20.6362,18.019 L20.6552,18.066 C20.6642,18.087 20.6732,18.108 20.6842,18.129 C20.4302,18.466 20.1652,18.795 19.8862,19.109 C20.2222,19.249 20.5582,19.386 20.8962,19.515 C22.3252,20.055 23.8182,20.502 25.3312,20.842 C25.6542,20.915 25.9802,20.983 26.3072,21.046 C26.4052,20.865 26.5092,20.687 26.6192,20.513 L27.7702,19.911 C27.7712,19.91 27.7732,19.911 27.7742,19.91 L27.8292,19.88 L27.8312,19.879 C28.8602,19.309 29.8552,18.69 30.7922,17.981 C31.7272,17.273 32.6042,16.479 33.3532,15.571 C34.1012,14.666 34.7172,13.64 35.0952,12.522 C35.4632,11.402 35.5862,10.211 35.4862,9.044 C35.4952,9.198 35.4992,9.351 35.5002,9.505 C35.4972,9.352 35.4902,9.198 35.4802,9.043 L35.4862,9.044 L35.4802,9.043 C35.4792,9.041 35.4792,9.038 35.4792,9.036 C35.2782,8.98 35.0772,8.931 34.8772,8.889 L34.7822,8.865 L34.5432,8.823 C34.3842,8.796 34.2252,8.764 34.0652,8.742 L33.5822,8.696 C33.4212,8.675 33.2592,8.679 33.0972,8.675 L32.8542,8.671 C32.8132,8.671 32.7722,8.669 32.7322,8.67 L32.6112,8.678 L32.1252,8.709 C31.9642,8.725 31.8042,8.756 31.6432,8.779 L31.4032,8.818 L31.1662,8.874 C31.0092,8.913 30.8492,8.945 30.6942,8.99 C30.3852,9.089 30.0722,9.178 29.7742,9.306 L29.5472,9.395 L29.4342,9.44 L29.3242,9.492 L28.8852,9.699 C28.7382,9.767 28.5992,9.853 28.4562,9.928 C28.3152,10.008 28.1702,10.08 28.0352,10.17 C26.9282,10.845 25.9162,11.665 24.9892,12.567 C24.0652,13.466 23.2192,14.44 22.4242,15.453 L22.4242,15.453 Z" id="Fill-14" fill="#FFF6DB"></path>
                    <g id="Group-18" transform="translate(19.000000, 56.000000)">
                        <mask id="mask-5" fill="white">
                            <use xlink:href="#path-4"></use>
                        </mask>
                        <g id="Clip-17"></g>
                        <path d="M34.309,0.343 C22.374,5.653 10.896,7.95 0.083,5.875 L0.083,19.791 C9.504,22.21 18.65,21.153 28.778,18.23 C31.924,13.356 33.58,7.237 34.309,0.343" id="Fill-16" fill="url(#linearGradient-6)" mask="url(#mask-5)"></path>
                    </g>
                </g>
                <g id="Group-22" transform="translate(27.000000, 62.000000)">
                    <mask id="mask-8" fill="white">
                        <use xlink:href="#path-7"></use>
                    </mask>
                    <g id="Clip-21"></g>
                    <path d="M0.936,0.624 C2.424,5.266 2.5,10.381 1.124,15.098 L1.124,15.098 C1.466,15.111 1.808,15.12 2.151,15.124 L2.151,15.124 C3.591,10.441 3.667,5.339 2.351,0.583 L2.351,0.583 C1.878,0.605 1.407,0.616 0.936,0.624" id="Fill-20" mask="url(#mask-8)"></path>
                </g>
                <g id="Group-25" transform="translate(5.000000, 56.000000)">
                    <mask id="mask-10" fill="white">
                        <use xlink:href="#path-9"></use>
                    </mask>
                    <g id="Clip-24"></g>
                    <path d="M7.655,1.853 L7.655,3.42 L6.224,2.458 C4.217,3.392 2.4,4.686 0.8,6.095 L0.8,6.095 C0.381,6.451 1.576,10.763 2.088,10.701 L2.088,10.701 L4.555,10.493 C4.835,13.336 5.72,16.559 6.853,19.94 L6.853,19.94 C9.725,20.49 12.901,20.607 16.277,20.441 L16.277,20.441 C17.881,18.685 18.424,11.015 17.226,6.439 L17.226,6.439 C16.234,3.967 15.192,2.898 13.32,0.77 L13.32,0.77 C11.601,0.803 9.678,1.268 7.655,1.853" id="Fill-23" mask="url(#mask-10)"></path>
                </g>
                <g id="Group-48" transform="translate(6.000000, 41.000000)">
                    <path d="M6.0598,34.6606 C7.8748,33.8716 9.5818,33.2246 11.0518,32.8886 C11.8558,28.7056 11.6228,25.1396 9.9708,22.5606 C7.8448,23.3256 5.7848,24.2626 3.8018,25.4016 C4.1978,28.4776 4.9888,31.5646 6.0598,34.6606 M0.1138,21.3146 C1.7308,19.8846 3.3938,18.8256 5.1058,18.1606 C5.7438,19.4586 5.9518,20.6366 6.0598,22.4526 C4.2678,23.2996 2.6088,24.2226 1.1328,25.2466 C0.7658,25.4886 -0.1782,21.5636 0.1138,21.3146" id="Fill-26" fill="#FFF7CC"></path>
                    <path d="M6.9459,17.0716 C6.9069,18.8566 7.0319,20.5566 7.3209,22.1716 L9.9999,21.3066 C9.8239,19.7156 9.7509,18.2296 9.8849,16.9566 L12.1599,16.0636 C10.3689,16.2296 8.6259,16.5496 6.9459,17.0716" id="Fill-28" fill="#FFF7CC"></path>
                    <path d="M9.6522,35.4164 L9.3442,34.1114 L11.0702,33.7884 L11.4632,35.5104 C10.9522,35.5404 10.3262,35.4944 9.6522,35.4164" id="Fill-30" fill="#FFF6DB"></path>
                    <path d="M87.4512,22.1152 C86.9122,27.7552 85.8762,33.5732 84.8312,39.1412 C84.3972,41.4522 83.9112,43.7842 82.8782,45.8962 C81.8452,48.0082 80.1972,49.9082 78.0162,50.7862 C77.3212,43.0532 77.7532,35.4402 79.8722,27.9702 C80.3692,26.2162 80.9822,24.4152 82.2602,23.1132 C83.5382,21.8112 85.8792,21.1892 87.4512,22.1152" id="Fill-32" fill="#D15F5E"></path>
                    <path d="M75.9857,1.9932 C80.3847,2.9232 84.0867,6.1782 86.1017,10.1972 C88.1167,14.2162 88.3897,19.0132 87.1427,23.3322 C85.3207,23.5372 83.5747,23.9262 81.7587,23.6752 C79.9427,23.4242 78.1287,22.6652 76.9667,21.2472 C75.7737,19.7902 75.4037,17.8392 75.1917,15.9682 C74.6747,11.4122 75.1237,6.4962 75.9857,1.9932" id="Fill-34" fill="#D15F5E"></path>
                    <g id="Group-38" transform="translate(39.000000, 0.000000)">
                        <mask id="mask-12" fill="white">
                            <use xlink:href="#path-11"></use>
                        </mask>
                        <g id="Clip-37"></g>
                        <path d="M43.762,22.575 C44.524,19.362 45.292,16.098 45.133,12.799 C44.975,9.501 43.765,6.106 41.197,4.029 C38.7,2.009 35.33,1.505 32.129,1.251 C27.589,0.89 23.021,0.883 18.48,1.228 C15.887,1.425 13.282,1.741 10.808,2.545 C8.335,3.348 5.981,4.668 4.267,6.625 C2.469,8.679 1.464,11.329 0.979,14.016 C0.495,16.702 0.499,19.449 0.504,22.179 C14.826,24.5 29.469,25.074 43.762,22.575" id="Fill-36" fill="url(#linearGradient-13)" mask="url(#mask-12)"></path>
                    </g>
                    <path d="M77.1041,13.216 C77.1761,12.946 77.2981,12.596 77.3631,12.325 C77.6211,11.257 77.7481,10.157 77.7481,9.058 C77.7481,6.834 77.1841,4.611 76.1841,2.637 C76.0661,2.405 75.9391,2.176 75.8081,1.948 C74.2881,1.559 72.6891,1.374 71.1281,1.251 C66.5891,0.89 62.0211,0.883 57.4801,1.228 C55.8631,1.351 54.2411,1.52 52.6481,1.825 C49.4431,5.77 48.7761,11.198 48.8121,16.135 C48.8141,16.446 48.8711,16.75 48.9271,17.056 C48.0291,17.549 47.0321,18.082 46.1351,18.574 C46.8551,20.353 47.8691,22.001 49.1091,23.449 C55.7611,24.129 62.4481,24.381 69.1071,24.065 C71.4651,22.866 73.7361,21.495 75.8901,19.949 C76.8941,19.228 77.8791,18.471 78.9731,17.897 C80.0671,17.324 81.2931,16.937 82.5251,17.023 C82.7061,16.771 82.7661,16.642 82.8251,16.344 C81.1541,14.963 79.2391,13.595 77.1041,13.216" id="Fill-39" fill="#D15F5E"></path>
                    <path d="M83.5436,19.2529 C83.0836,16.8219 80.2696,14.7899 78.1336,13.9679 C75.6736,13.0209 72.6366,12.9799 70.0026,12.8759 C59.0336,12.4459 45.9536,14.3279 37.9266,19.3919 C35.3946,40.0309 38.1646,61.2679 46.0496,80.5089 C46.2006,80.8749 46.1486,81.3409 46.2316,81.7269 C43.3826,83.6779 41.2356,86.6809 40.2626,89.9939 C47.0986,90.5769 54.6066,90.4959 62.5396,89.9939 C62.5746,86.1429 62.0246,82.1269 60.7836,78.4819 C60.3246,78.1119 59.8256,77.7229 59.3666,77.3539 C58.3356,71.7289 58.0676,66.0679 58.5856,60.3729 C60.3856,61.2869 62.0366,62.6399 63.2666,64.2399 C63.7376,64.3749 66.1696,74.7839 66.9016,79.7779 C66.6746,83.1579 66.5876,86.7599 66.4996,90.1289 C72.4296,91.0969 78.5616,91.0309 84.4716,89.9439 C84.4496,85.6109 83.8586,81.4149 82.6706,77.2489 L82.4586,75.8789 C82.2526,72.5349 82.0316,69.1919 81.8036,65.8489 C81.4796,61.1099 80.8936,56.3289 80.9086,51.5909 C80.9236,46.6299 81.1386,41.6699 81.5506,36.7259 C81.9646,31.7549 82.7126,26.8509 83.4416,21.9149 C83.5576,21.1239 83.6746,20.3219 83.5846,19.5279 C83.5746,19.4349 83.5606,19.3439 83.5436,19.2529" id="Fill-41" fill="#FFF6DB"></path>
                    <path d="M41.4349,89.2192 C42.5449,89.3012 43.6989,89.3632 44.8739,89.4132 C46.1449,86.8202 48.0339,85.0352 50.1569,82.9522 C50.3389,82.7772 50.5099,82.5942 50.6809,82.4102 C50.6879,82.3972 50.6939,82.3872 50.6999,82.3742 C50.7239,82.2912 50.7399,82.2432 50.7489,82.2292 C50.9079,80.5502 50.8239,78.8022 50.7739,77.1362 C50.5199,68.5972 49.0759,60.2352 50.1449,51.6902 C51.1479,43.6772 52.3669,36.0582 56.9579,29.1892 C61.0719,23.0342 66.3959,17.8992 72.5619,13.8522 C71.8899,13.8132 71.2239,13.7872 70.5809,13.7632 L69.9689,13.7402 C68.9759,13.7012 67.9589,13.6812 66.9469,13.6812 C55.6639,13.6812 45.1639,16.0032 38.7349,19.9082 C36.2899,40.4212 39.0939,61.2532 46.8509,80.1812 C46.9939,80.5292 47.0179,80.8872 47.0379,81.1752 C47.0479,81.3172 47.0569,81.4512 47.0779,81.5462 L47.1989,82.1132 L46.7199,82.4412 C44.3559,84.0592 42.4699,86.4902 41.4349,89.2192" id="Fill-43" fill="#EFE8D8"></path>
                    <g id="Group-47" transform="translate(64.000000, 65.000000)">
                        <mask id="mask-15" fill="white">
                            <use xlink:href="#path-14"></use>
                        </mask>
                        <g id="Clip-46"></g>
                        <path d="M3.384,24.391 C5.457,24.698 7.566,24.87 9.679,24.922 C9,19.593 7.901,13.944 5.757,8.518 C5.527,7.935 4.658,6.049 4.01,4.892 C3.683,4.31 3.314,3.767 2.947,3.21 C2.846,3.073 2.771,2.971 2.715,2.894 C2.593,2.742 2.471,2.59 2.348,2.44 C1.766,1.723 1.188,1.014 0.627,0.3 C0.919,1.256 1.298,2.719 1.828,4.99 C2.493,7.83 3.348,11.861 3.757,14.653 L3.77,14.744 L3.764,14.836 C3.555,17.946 3.467,21.218 3.384,24.391" id="Fill-45" fill="url(#linearGradient-16)" mask="url(#mask-15)"></path>
                    </g>
                </g>
                <g id="Group-51" transform="translate(51.000000, 121.000000)">
                    <mask id="mask-18" fill="white">
                        <use xlink:href="#path-17"></use>
                    </mask>
                    <g id="Clip-50"></g>
                    <path d="M1.231,1.727 C4.296,3.426 6.107,5.87 7.472,9.098 L7.472,9.098 C8.23,9.233 8.966,9.548 9.724,9.684 L9.724,9.684 C8.494,5.35 5.392,2.105 1.098,0.743 L1.098,0.743 C0.752,1.067 0.846,1.59 1.231,1.727" id="Fill-49" mask="url(#mask-18)"></path>
                </g>
                <g id="Group-54" transform="translate(74.000000, 122.000000)">
                    <mask id="mask-20" fill="white">
                        <use xlink:href="#path-19"></use>
                    </mask>
                    <g id="Clip-53"></g>
                    <path d="M0.321,8.008 C0.754,8.093 1.164,8.213 1.598,8.297 L1.598,8.297 C2.794,5.216 5.039,2.769 7.993,0.834 L7.993,0.834 C11.316,2.231 13.864,4.872 15.078,7.901 L15.078,7.901 C15.512,7.725 15.816,7.627 16.251,7.45 L16.251,7.45 C14.41,4.207 11.482,1.612 7.99,0.302 L7.99,0.302 C4.697,1.961 1.963,4.707 0.321,8.008" id="Fill-52" mask="url(#mask-20)"></path>
                </g>
                <g id="Group-67" transform="translate(46.000000, 56.000000)">
                    <path d="M23.6734,22.4839 L23.1324,22.4789 C23.1524,20.4259 23.4464,18.2809 24.0834,15.5239 L24.1014,15.4429 L24.1614,15.3869 C25.4634,14.1389 27.0854,13.1079 28.7454,12.4709 C29.2174,8.1329 31.0354,3.9559 33.8774,0.6919 L34.2824,1.0579 C31.4774,4.2799 29.6964,8.4139 29.2654,12.6979 L29.2484,12.8699 L29.0884,12.9289 C27.4664,13.5259 25.8714,14.5199 24.5904,15.7319 C23.9754,18.4079 23.6924,20.4939 23.6734,22.4839" id="Fill-55" fill="#22567D"></path>
                    <path d="M23.1342,22.3673 C23.1672,20.3713 23.4602,18.2743 24.0782,15.5973 L24.0872,15.5603 L24.1142,15.5343 C25.3982,14.3043 27.0082,13.2793 28.6482,12.6503 L28.7342,12.6173 L28.7442,12.5253 C29.2072,8.2713 30.9792,4.1663 33.7392,0.9463 L33.9192,1.1093 C31.1492,4.3383 29.3912,8.4553 28.9632,12.7213 L28.9552,12.7993 L28.8842,12.8253 C27.2462,13.4283 25.6302,14.4353 24.3352,15.6603 L24.3012,15.6913 L24.2912,15.7363 C23.6882,18.3563 23.4042,20.4103 23.3722,22.3693 L23.1342,22.3673 Z" id="Fill-57" fill="#FFF7CC"></path>
                    <path d="M21.8748,23.996 C21.8698,23.284 22.4048,22.602 23.0988,22.439 C23.4028,22.367 23.7278,22.388 24.0188,22.502 C25.2158,22.976 25.1808,24.492 24.2288,25.171 C23.2958,25.837 21.8838,25.206 21.8748,23.996" id="Fill-59" fill="#22567D"></path>
                    <path d="M22.1451,23.6495 C22.1431,23.2835 22.4171,22.9345 22.7741,22.8495 C22.9291,22.8135 23.0971,22.8235 23.2461,22.8825 C23.8611,23.1255 23.8431,23.9045 23.3541,24.2535 C22.8751,24.5955 22.1491,24.2715 22.1451,23.6495" id="Fill-61" fill="#FFF7CC"></path>
                    <path d="M0.6662,12.1412 L0.7032,12.4092 L0.9712,12.3722 C2.0362,12.2232 2.8992,12.1632 3.8452,12.3202 C4.5902,14.1782 4.9882,16.2622 4.9672,18.2082 L5.5072,18.2142 C5.5302,16.1492 5.0972,13.9342 4.2902,11.9782 L4.2342,11.8422 L4.0892,11.8152 C3.0972,11.6282 2.2182,11.6662 1.1662,11.8002 C0.7752,8.6652 1.0492,5.4212 1.9662,2.4002 L1.8032,2.3502 C1.6562,2.4152 1.5102,2.4812 1.3662,2.5472 C0.4742,5.6422 0.2282,8.9512 0.6662,12.1412" id="Fill-63" fill="#22567D"></path>
                    <path d="M4.9673,18.0972 C4.9663,16.1792 4.5663,14.1292 3.8343,12.3032 L3.8023,12.2242 L3.7183,12.2102 C3.3353,12.1462 2.9513,12.1152 2.5463,12.1152 C2.0533,12.1152 1.5303,12.1592 0.7983,12.2602 L0.6803,12.2772 L0.6643,12.1592 C0.2343,9.0282 0.4673,5.7572 1.3403,2.6942 C1.4323,2.6532 1.5243,2.6112 1.6163,2.5702 C0.7373,5.5562 0.4773,8.7632 0.8643,11.8572 L0.8833,12.0082 L1.0343,11.9892 C1.6393,11.9112 2.1073,11.8772 2.5483,11.8772 C3.0163,11.8772 3.4613,11.9182 3.9093,12.0022 L3.9733,12.0142 L3.9983,12.0742 C4.7783,13.9642 5.2053,16.0982 5.2053,18.0992 L4.9673,18.0972 Z" id="Fill-65" fill="#FFF7CC"></path>
                </g>
                <g id="Group-70" transform="translate(48.000000, 71.000000)">
                    <mask id="mask-22" fill="white">
                        <use xlink:href="#path-21"></use>
                    </mask>
                    <g id="Clip-69"></g>
                    <path d="M4.699,0.644 C0.687,1.762 -1.021,6.757 2.183,9.412 L2.183,9.412 C3.499,10.503 5.587,10.835 7.16,10.067 L7.16,10.067 C8.285,9.517 9.057,8.484 9.401,7.375 L9.401,7.375 C9.743,6.266 9.693,5.083 9.467,3.95 L9.467,3.95 C9.24,2.812 8.772,1.619 7.71,0.968 L7.71,0.968 C7.17,0.637 6.519,0.485 5.863,0.485 L5.863,0.485 C5.469,0.485 5.074,0.54 4.699,0.644" id="Fill-68" mask="url(#mask-22)"></path>
                </g>
                <g id="Group-73" transform="translate(49.000000, 73.000000)">
                    <mask id="mask-24" fill="white">
                        <use xlink:href="#path-23"></use>
                    </mask>
                    <g id="Clip-72"></g>
                    <path d="M2.492,0.999 C0.436,1.572 -0.44,4.134 1.202,5.494 L1.202,5.494 C1.877,6.054 2.948,6.225 3.755,5.831 L3.755,5.831 C4.332,5.549 4.728,5.02 4.903,4.45 L4.903,4.45 C5.079,3.881 5.053,3.275 4.937,2.694 L4.937,2.694 C4.82,2.11 4.581,1.498 4.036,1.165 L4.036,1.165 C3.759,0.995 3.425,0.917 3.089,0.917 L3.089,0.917 C2.887,0.917 2.684,0.945 2.492,0.999 M2.245,4.081 C1.755,3.675 2.016,2.912 2.629,2.741 L2.629,2.741 C2.782,2.699 2.957,2.709 3.09,2.79 L3.09,2.79 C3.252,2.89 3.324,3.072 3.358,3.246 L3.358,3.246 C3.393,3.42 3.4,3.6 3.348,3.771 L3.348,3.771 C3.296,3.94 3.178,4.097 3.006,4.182 L3.006,4.182 C2.917,4.225 2.817,4.245 2.716,4.245 L2.716,4.245 C2.545,4.245 2.371,4.186 2.245,4.081" id="Fill-71" mask="url(#mask-24)"></path>
                </g>
                <g id="Group-82" transform="translate(50.000000, 71.000000)">
                    <path d="M1.0592,4.8467 C1.1962,4.6997 1.3712,4.5887 1.5712,4.5327 C1.6482,4.5107 1.7272,4.5007 1.8072,4.5007 C1.8422,4.5007 1.8752,4.5087 1.9092,4.5127 C1.9272,4.3937 1.9412,4.2747 1.9612,4.1557 C2.0182,3.8127 2.0252,3.4757 2.0342,3.1367 C1.8712,3.1417 1.7092,3.1627 1.5502,3.2067 C1.0292,3.3517 0.5732,3.6497 0.2272,4.0367 C0.4882,4.2697 0.7642,4.6287 1.0592,4.8467" id="Fill-74" fill="#FFF7CC"></path>
                    <path d="M2.5346,6.1265 C2.5006,6.1035 2.4716,6.0755 2.4466,6.0465 C2.3606,6.1855 2.2456,6.3045 2.0996,6.3755 C1.9856,6.4325 1.8526,6.4615 1.7166,6.4615 C1.4926,6.4615 1.2706,6.3835 1.1066,6.2475 C1.0836,6.2285 1.0676,6.2055 1.0476,6.1845 C0.9956,6.6525 0.8746,7.1095 0.6636,7.5325 C0.6616,7.5365 0.6576,7.5385 0.6566,7.5425 C0.9906,7.7265 1.3846,7.8285 1.7826,7.8285 C2.0996,7.8285 2.4026,7.7615 2.6596,7.6365 C3.0576,7.4415 3.3756,7.0975 3.5746,6.6765 C3.2206,6.5065 2.8596,6.3525 2.5346,6.1265" id="Fill-76" fill="#B86053"></path>
                    <path d="M6.6744,2.6283 C5.9874,1.4113 4.2684,0.1513 3.0684,0.8683 C2.4314,1.2493 1.9394,1.9263 1.5924,2.5813 C2.5934,2.4703 3.6394,2.9513 4.2064,3.7843 C4.9684,3.4723 5.9124,2.9403 6.6744,2.6283" id="Fill-78" fill="#FFF7CC"></path>
                    <path d="M7.126,7.1903 C6.626,8.8423 5.093,9.9903 3.376,10.1583 C2.952,9.5313 2.559,8.8253 2.135,8.1983 C2.687,8.1453 3.218,7.8983 3.614,7.5113 C4.011,7.1233 4.269,6.5973 4.335,6.0473 C5.259,6.3663 6.202,6.8723 7.126,7.1903" id="Fill-80" fill="#004D5C"></path>
                </g>
                <g id="Group-85" transform="translate(43.000000, 84.000000)">
                    <mask id="mask-26" fill="white">
                        <use xlink:href="#path-25"></use>
                    </mask>
                    <g id="Clip-84"></g>
                    <path d="M10.683,0.573 C9.745,0.707 8.806,0.82 7.872,0.97 L7.872,0.97 L6.473,1.229 C6.008,1.312 5.542,1.401 5.081,1.517 L5.081,1.517 L3.696,1.846 C3.234,1.957 2.781,2.109 2.324,2.24 L2.324,2.24 C1.728,2.4 1.143,2.615 0.561,2.837 L0.561,2.837 C0.594,3.183 0.626,3.528 0.661,3.874 L0.661,3.874 C4.043,3.237 7.453,2.838 10.883,2.536 L10.883,2.536 C14.57,2.207 18.278,2.013 21.991,1.995 L21.991,1.995 C23.848,1.98 25.705,1.993 27.561,2.054 L27.561,2.054 C28.491,2.063 29.419,2.114 30.347,2.156 L30.347,2.156 L31.739,2.22 L33.13,2.314 C34.057,2.374 34.986,2.426 35.911,2.52 L35.911,2.52 C36.835,2.617 37.768,2.655 38.691,2.772 L38.691,2.772 C39.614,2.878 40.542,2.967 41.464,3.087 L41.464,3.087 C42.309,3.211 43.157,3.315 44.005,3.426 L44.005,3.426 C44.014,3.125 44.024,2.824 44.036,2.524 L44.036,2.524 C43.239,2.345 42.444,2.162 41.644,1.996 L41.644,1.996 C40.721,1.81 39.793,1.657 38.867,1.485 L38.867,1.485 C37.011,1.166 35.146,0.899 33.273,0.7 L33.273,0.7 C29.528,0.285 25.761,0.069 21.989,0.034 L21.989,0.034 C21.78,0.033 21.57,0.032 21.361,0.032 L21.361,0.032 C17.799,0.032 14.233,0.166 10.683,0.573" id="Fill-83" mask="url(#mask-26)"></path>
                </g>
                <g id="Group-129" transform="translate(42.000000, 34.000000)">
                    <path d="M5.1917,57.0413 C5.4267,57.1563 5.6617,57.2713 5.8967,57.3873 C6.3457,59.8703 6.5137,62.4863 6.6477,65.0073 C5.5687,65.3303 4.5947,65.6043 3.5157,65.9273 C3.2897,65.8303 3.0017,65.7023 2.7757,65.6063 C3.5557,62.8293 4.4107,59.8183 5.1917,57.0413" id="Fill-86" fill="#C97D7C"></path>
                    <path d="M6.0755,64.6712 L2.7995,65.6362 C1.6065,63.2882 0.8465,60.7222 0.5685,58.1032 C1.7785,56.9032 3.6265,56.5662 5.2525,57.0732 C5.5085,59.4532 5.8195,62.2912 6.0755,64.6712" id="Fill-88" fill="#FFF6DB"></path>
                    <path d="M31.4938,63.7407 L30.5718,63.5987 L30.8548,55.5627 L32.3068,55.2397 C32.2128,58.1737 31.9528,61.0137 31.4938,63.7407" id="Fill-90" fill="#C97D7C"></path>
                    <path d="M36.1514,63.8792 C34.5614,63.9482 33.0664,63.9842 31.4934,63.7412 C31.8564,60.9582 32.1244,58.0922 32.3064,55.2392 C34.2024,54.8862 36.1834,54.9252 37.9944,55.5862 C37.7944,58.5522 37.1314,61.2332 36.1514,63.8792" id="Fill-92" fill="#FFF6DB"></path>
                    <path d="M16.4178,76.17 C13.0878,75.067 9.1508,74.378 5.6308,74.688 C6.6278,78.216 7.7888,81.699 9.1068,85.124 C11.6448,85.561 14.2608,85.381 16.7348,84.618 C17.2388,81.845 17.0598,78.914 16.4178,76.17" id="Fill-94" fill="#B86053"></path>
                    <path d="M15.4445,75.6022 C16.0865,78.3462 16.2665,81.2772 15.7625,84.0502 C12.8135,84.9602 9.6605,85.0532 6.6825,84.2442 C4.9055,81.3792 4.0185,77.5202 4.2545,74.1572 C7.8745,73.7552 11.9875,74.4572 15.4445,75.6022" id="Fill-96" fill="#0E4361"></path>
                    <path d="M45.1658,83.4139 C41.2158,84.6789 36.9198,84.8479 32.8528,84.0549 C32.2168,81.4879 31.9418,78.8289 32.0378,76.1829 C33.9918,75.0559 36.1528,74.3149 38.3988,74.3029 C40.6448,74.2919 42.8908,74.8749 44.8558,75.9809 C45.3698,78.3949 45.4388,80.9599 45.1658,83.4139" id="Fill-98" fill="#0E4361"></path>
                    <path d="M43.4762,20.7452 C43.4172,21.0422 43.3582,21.1712 43.1772,21.4232 C41.9442,21.3382 40.7182,21.7242 39.6242,22.2982 C38.5302,22.8722 37.5452,23.6282 36.5412,24.3492 C30.8112,28.4622 24.2602,31.3342 17.4122,33.0262 C12.6062,31.4492 8.6852,27.6622 6.7862,22.9752 C7.6842,22.4822 8.6812,21.9492 9.5782,21.4572 C9.5232,21.1512 9.4652,20.8472 9.4632,20.5362 C9.4272,15.5972 10.0942,10.1692 13.3012,6.2242 C16.1122,2.7662 20.3902,0.6012 24.7952,0.3162 C27.3152,0.1522 29.9012,0.6612 32.1232,1.8952 C34.1752,3.0352 35.7732,4.9432 36.8352,7.0382 C37.8362,9.0122 38.3992,11.2342 38.3992,13.4582 C38.4002,14.5572 38.2722,15.6572 38.0152,16.7252 C37.9492,16.9972 37.8282,17.3462 37.7552,17.6162 C39.8902,17.9952 41.8052,19.3632 43.4762,20.7452" id="Fill-100" fill="#FFF6DB"></path>
                    <g id="Group-104" transform="translate(7.000000, 16.000000)">
                        <mask id="mask-28" fill="white">
                            <use xlink:href="#path-27"></use>
                        </mask>
                        <g id="Clip-103"></g>
                        <path d="M8.059,7.172 C8.061,6.844 8.057,6.516 8.05,6.188 C6.044,4.955 4.464,3.029 3.465,0.828 C3.366,1.983 3.318,3.212 3.328,4.53 C3.329,4.755 3.375,5.005 3.429,5.302 L3.541,5.915 L2.994,6.215 C2.544,6.462 2.069,6.719 1.594,6.977 C1.359,7.104 1.125,7.231 0.893,7.356 C2.51,10.867 5.323,13.74 8.708,15.396 C8.253,13.715 8.012,12.003 8.002,10.16 C7.997,9.163 8.051,8.168 8.059,7.172" id="Fill-102" fill="url(#linearGradient-29)" mask="url(#mask-28)"></path>
                    </g>
                    <g id="Group-107" transform="translate(22.000000, 5.000000)">
                        <mask id="mask-31" fill="white">
                            <use xlink:href="#path-30"></use>
                        </mask>
                        <g id="Clip-106"></g>
                        <path d="M0.747,0.93 C1.043,1.584 1.27,2.159 1.407,2.791 C1.433,2.909 1.451,3.029 1.47,3.148 C1.477,3.192 1.485,3.235 1.49,3.28 C1.511,3.427 1.526,3.574 1.535,3.723 C1.536,3.748 1.537,3.773 1.538,3.797 C1.544,3.914 1.555,4.03 1.554,4.148 C1.554,4.17 1.622,5.005 1.622,5.3 C1.694,5.53 1.792,5.874 1.81,5.929 C1.826,5.979 1.838,6.019 1.846,6.052 C1.898,6.125 1.958,6.211 2.035,6.326 C2.207,6.582 2.369,6.847 2.533,7.11 C2.415,6.904 2.937,7.642 3.243,8.078 C4.13,6.522 5.138,5.085 6.35,3.89 C5.952,3.678 5.561,3.437 5.168,3.235 C3.686,2.475 2.197,1.741 0.747,0.93" id="Fill-105" fill="url(#linearGradient-32)" mask="url(#mask-31)"></path>
                    </g>
                    <path d="M10.7954,22.4743 C11.2244,23.1763 11.6954,23.8453 12.2144,24.4713 C12.7344,25.0973 13.3094,25.6723 13.9094,26.2113 C14.5144,26.7463 15.1604,27.2303 15.8334,27.6663 C16.5084,28.1023 17.2204,28.4733 17.9504,28.7963 L17.7094,28.7733 C19.4844,28.3243 21.2314,27.7743 22.9384,27.1173 C24.6474,26.4673 26.3124,25.7033 27.9374,24.8593 C29.5594,24.0093 31.1364,23.0713 32.6664,22.0523 C33.4274,21.5373 34.1804,21.0093 34.9284,20.4693 L36.0314,19.6333 C36.3884,19.3413 36.7574,19.0623 37.1214,18.7753 C36.7954,19.1033 36.4754,19.4393 36.1424,19.7613 L35.1204,20.7053 L34.0694,21.6193 L32.9774,22.4863 C31.5024,23.6193 29.9424,24.6473 28.3134,25.5553 C26.6874,26.4693 24.9874,27.2533 23.2444,27.9193 C21.4984,28.5803 19.7044,29.1153 17.8794,29.5043 L17.7494,29.5313 L17.6384,29.4793 C16.8754,29.1223 16.1554,28.6833 15.4734,28.1963 C14.7904,27.7113 14.1564,27.1603 13.5724,26.5653 C12.9854,25.9733 12.4644,25.3193 11.9974,24.6353 C11.5284,23.9523 11.1214,23.2303 10.7954,22.4743" id="Fill-108" fill="#C97D7C"></path>
                    <path d="M19.6837,1.8864 C14.3987,3.9804 11.2507,8.6294 11.4387,13.9484 C11.5237,16.3534 12.6297,18.8124 14.7437,20.1854 C17.2577,21.8184 20.6387,21.6484 23.6047,20.9394 C26.5667,20.2314 29.4527,19.0184 31.6587,17.0384 C33.8637,15.0574 35.3207,12.2414 35.1257,9.3884 C34.9087,6.2224 32.6157,3.3254 29.5587,1.9474 C26.5027,0.5704 22.8077,0.6484 19.6837,1.8864" id="Fill-110" fill="#00B8C4"></path>
                    <g id="Group-114" transform="translate(12.000000, 1.000000)">
                        <mask id="mask-34" fill="white">
                            <use xlink:href="#path-33"></use>
                        </mask>
                        <g id="Clip-113"></g>
                        <path d="M0.063,11.526 C-0.236,13.717 0.476,16.776 3.204,16.854 C4.952,16.903 6.341,15.479 7.545,14.211 C9.038,12.639 10.625,11.135 12.414,9.902 C14.161,8.697 16.355,8.183 17.984,6.848 C18.944,6.061 19.65,4.813 19.385,3.601 C19.084,2.225 17.688,1.388 16.353,0.938 C12.618,-0.319 8.628,0.143 5.495,2.526 C2.731,4.628 0.728,7.757 0.117,11.187 C0.097,11.298 0.079,11.411 0.063,11.526" id="Fill-112" fill="url(#linearGradient-35)" mask="url(#mask-34)"></path>
                    </g>
                    <path d="M17.2773,24.9492 C17.2323,24.5762 17.3623,24.1852 17.6223,23.9132 C17.8363,23.6882 18.1373,23.5452 18.4473,23.5342 C18.9263,23.5172 19.3953,23.8342 19.5713,24.2802 C19.7493,24.7252 19.6313,25.2682 19.2983,25.6122 C18.5613,26.3732 17.4043,26.0062 17.2773,24.9492" id="Fill-115" fill="#D15F5E"></path>
                    <path d="M26.5392,96.994 C26.5472,96.132 26.5212,95.26 26.4692,94.387 C19.2802,95.852 11.9082,96.407 4.5812,96.043 C4.4662,96.357 4.3572,96.674 4.2632,96.994 C11.0992,97.577 18.6062,97.496 26.5392,96.994" id="Fill-117" fill="#146B87"></path>
                    <path d="M48.4294,95.1916 C42.6544,97.0316 36.2814,96.9516 30.5574,94.9526 C30.5374,95.6846 30.5184,96.4136 30.4994,97.1286 C36.4294,98.0966 42.5624,98.0306 48.4714,96.9436 C48.4684,96.3566 48.4534,95.7736 48.4294,95.1916" id="Fill-119" fill="#146B87"></path>
                    <path d="M5.0265,74.9145 C4.9075,78.0015 5.6795,81.1185 7.2255,83.7935 C7.0515,83.1515 6.8975,82.5235 6.9255,81.8385 C9.5525,81.4465 12.1585,81.3185 14.7815,81.7265 C12.1435,81.0565 9.2825,80.8365 6.5665,81.0045 C6.3245,80.2795 6.1895,79.5635 6.2855,78.7765 C8.9415,78.3175 11.6405,78.2885 14.2725,78.8645 C11.6665,78.3085 9.0515,78.0015 6.3855,77.9925 C6.3195,77.2715 6.3125,76.4985 6.4745,75.7785 C9.2465,75.6935 11.9745,76.0065 14.6745,76.6405 C11.6385,75.5575 8.2475,75.0495 5.0265,74.9145" id="Fill-121" fill="#00B8C4"></path>
                    <path d="M33.4328,81.3016 C33.4268,80.7126 33.4218,80.1246 33.4168,79.5346 C37.1148,78.7366 40.9838,78.4836 44.7418,78.8986 C41.0228,78.0986 37.1448,78.0666 33.4108,78.7886 C33.4018,78.2796 33.3868,77.7756 33.3608,77.2806 C36.8688,76.0896 40.8208,75.7366 44.4348,76.5486 C42.5668,75.7806 40.6018,75.1946 38.5848,75.0916 C36.5678,74.9896 34.5128,75.5886 32.8148,76.6816 C32.5918,78.9296 32.8218,81.2226 33.4878,83.3816 C33.4618,82.9076 33.4488,82.4246 33.4398,81.9366 C37.0748,82.5486 40.9598,82.3636 44.4358,81.1506 C40.7878,81.5936 37.0918,81.6426 33.4328,81.3016" id="Fill-123" fill="#00B8C4"></path>
                    <path d="M36.5417,24.3491 C35.1467,25.4251 33.6847,26.4201 32.1647,27.3181 C30.6477,28.2231 29.0827,29.0481 27.4707,29.7751 C25.8617,30.5031 24.2247,31.1801 22.5467,31.7351 C20.8717,32.2971 19.1727,32.7911 17.4537,33.1971 L17.4027,33.2101 L17.3567,33.1931 C16.1087,32.7621 14.9167,32.1791 13.8097,31.4701 C12.7097,30.7501 11.6897,29.9121 10.7937,28.9591 C12.7207,30.7201 14.9967,32.0911 17.4667,32.8591 L17.3697,32.8561 C19.0697,32.4171 20.7547,31.9191 22.4117,31.3391 C24.0647,30.7521 25.7087,30.1371 27.3117,29.4201 C28.9127,28.7021 30.4917,27.9311 32.0317,27.0871 C33.5677,26.2351 35.0757,25.3271 36.5417,24.3491" id="Fill-125" fill="#C97D7C"></path>
                    <path d="M43.1764,21.4544 C53.3844,25.4504 60.9534,32.5124 66.3404,42.1074 C65.5144,49.7624 62.3014,55.1874 57.4664,59.0974 L45.1064,47.4174 C46.2234,46.2034 47.4224,45.2094 48.7074,44.4514 C45.4754,42.9304 42.3434,40.0024 39.4944,36.6844 C37.9874,31.1084 38.7354,25.9904 43.1764,21.4544" id="Fill-127" fill="#FFF6DB"></path>
                </g>
                <g id="Group-132" transform="translate(89.000000, 59.000000)">
                    <mask id="mask-37" fill="white">
                        <use xlink:href="#path-36"></use>
                    </mask>
                    <g id="Clip-131"></g>
                    <path d="M0.084,3.734 C3.461,6.215 6.696,9.111 9.818,12.334 L9.818,12.334 C11.483,11.262 12.774,10.174 13.803,9.073 L13.803,9.073 C10.899,5.633 7.565,2.695 3.769,0.292 L3.769,0.292 C2.435,1.137 1.224,2.335 0.084,3.734" id="Fill-130" mask="url(#mask-37)"></path>
                </g>
                <g id="Group-135" transform="translate(89.000000, 75.000000)">
                    <mask id="mask-39" fill="white">
                        <use xlink:href="#path-38"></use>
                    </mask>
                    <g id="Clip-134"></g>
                    <path d="M4.868,1.221 C3.383,1.585 1.938,2.13 0.598,2.871 L0.598,2.871 C0.967,3.081 1.336,3.277 1.708,3.452 L1.708,3.452 C1.549,3.545 1.392,3.642 1.236,3.742 L1.236,3.742 C3.934,2.426 7.009,1.915 9.985,2.12 L9.985,2.12 C11.6,2.232 13.194,2.561 14.689,3.12 L14.689,3.12 C16.115,3.654 17.446,4.406 18.578,5.37 L18.578,5.37 C18.74,4.735 18.88,4.079 19.002,3.408 L19.002,3.408 C17.832,2.611 16.553,2.004 15.235,1.569 L15.235,1.569 C13.552,1.015 11.801,0.732 10.055,0.679 L10.055,0.679 C9.864,0.673 9.672,0.671 9.48,0.671 L9.48,0.671 C7.925,0.671 6.374,0.853 4.868,1.221" id="Fill-133" mask="url(#mask-39)"></path>
                </g>
                <g id="Group-138" transform="translate(81.000000, 81.000000)">
                    <mask id="mask-41" fill="white">
                        <use xlink:href="#path-40"></use>
                    </mask>
                    <g id="Clip-137"></g>
                    <path d="M0.006,6.182 C0.365,7.544 1.126,8.967 2.289,10.371 L2.289,10.371 C3.357,9.727 4.433,9.224 5.517,8.877 L5.517,8.877 C4.63,9.681 3.833,10.512 3.183,11.392 L3.183,11.392 C4.847,13.872 6.779,15.798 9.424,18.214 L9.424,18.214 C12.601,16.545 15.603,14.479 18.466,12.097 L18.466,12.097 C17.818,5.805 11.811,0.418 6.107,0.418 L6.107,0.418 C3.92,1.94 1.889,3.87 0.006,6.182" id="Fill-136" mask="url(#mask-41)"></path>
                </g>
                <path d="M88.4447,87.5793 C86.6407,88.2563 84.9087,89.2903 83.4297,90.5253 C82.5757,89.5533 81.9107,88.4173 81.4797,87.1973 C82.9767,85.6003 84.6757,84.1403 86.5517,83.0133 C87.7457,84.1963 88.3577,85.9003 88.4447,87.5793" id="Fill-139" fill="#FFF7CC"></path>
                <path d="M93.7077,94.3805 C91.8397,92.7275 89.9877,90.8265 88.5367,88.7975 C87.2337,89.9185 86.0167,91.1975 85.0567,92.6225 C86.4237,94.6365 88.0567,96.4695 89.8977,98.0615 C91.4697,97.3495 92.7167,95.7925 93.7077,94.3805" id="Fill-141" fill="#FFF7CC"></path>
                <polygon id="Fill-143" fill="#00B8C4" points="105.3945 136.1603 18.8325 136.1603 24.7365 127.4593 99.4895 127.4593"></polygon>
            </g>
        </g>
    </g>
</svg>