<?xml version="1.0" encoding="UTF-8"?>
<svg width="140px" height="213px" viewBox="0 0 140 213" version="1.1" xmlns="http://www.w3.org/2000/svg" xmlns:xlink="http://www.w3.org/1999/xlink">
    <!-- Generator: Sketch 53.1 (72631) - https://sketchapp.com -->
    <title>Group 14MusicPlayer</title>
    <desc>Created with Sketch.</desc>
    <defs>
        <path d="M0.406,4.137 C21.23,0.04 41.065,-0.19 59.734,4.137 C70.272,23.896 78.258,45.898 85.219,68.801 C64.51,71.962 42.612,72.752 19.822,71.768" id="path-1"></path>
        <polygon id="path-3" points="0.06 0.984 30.037 4.422 41.723 43.952 59.84 43.952 70.456 5.59 78.712 1.621 78.44 6.432 71.072 7.073 61.139 48.267 39.435 48.267 29.138 6.579 0.02 4.758"></polygon>
        <path d="M29.122,17.383 C29.122,26.433 22.675,33.77 14.722,33.77 C6.769,33.77 0.322,26.433 0.322,17.383 C0.322,8.333 6.769,0.996 14.722,0.996" id="path-5"></path>
        <linearGradient x1="49.9999476%" y1="99.9999664%" x2="49.9999476%" y2="0.00149661317%" id="linearGradient-7">
            <stop stop-color="#000000" offset="0%"></stop>
            <stop stop-color="#E6FFFF" offset="100%"></stop>
        </linearGradient>
        <path d="M0.761,15.383 C0.761,23.723 6.702,30.484 14.03,30.484 L14.03,30.484 C21.359,30.484 27.3,23.723 27.3,15.383 L27.3,15.383 C27.3,7.043 21.359,0.282 14.03,0.282 L14.03,0.282 C6.702,0.282 0.761,7.043 0.761,15.383" id="path-8"></path>
        <linearGradient x1="49.9996062%" y1="99.9994229%" x2="49.9996062%" y2="0.0021395934%" id="linearGradient-10">
            <stop stop-color="#2B2B6E" offset="0%"></stop>
            <stop stop-color="#00041C" offset="100%"></stop>
        </linearGradient>
        <path d="M13.031,25.915 C18.627,25.915 23.164,20.752 23.164,14.383 C23.164,8.014 18.627,2.852 13.031,2.852 C7.434,2.852 2.897,8.014 2.897,14.383 M13.031,0.57 C19.734,0.57 25.169,6.754 25.169,14.383 C25.169,22.012 19.734,28.196 13.031,28.196 C6.327,28.196 0.892,22.012 0.892,14.383" id="path-11"></path>
        <linearGradient x1="0.00137578778%" y1="50.0008677%" x2="99.9987614%" y2="50.0008677%" id="linearGradient-13">
            <stop stop-color="#956B9C" offset="0%"></stop>
            <stop stop-color="#674662" offset="100%"></stop>
        </linearGradient>
        <path d="M21.151,12.028 C21.151,18.658 16.429,24.032 10.603,24.032 C4.778,24.032 0.055,18.658 0.055,12.028 C0.055,5.399 4.778,0.025 10.603,0.025" id="path-14"></path>
        <linearGradient x1="50.001287%" y1="99.9990369%" x2="50.001287%" y2="-0.0019640105%" id="linearGradient-16">
            <stop stop-color="#000000" offset="0%"></stop>
            <stop stop-color="#E6FFFF" offset="100%"></stop>
        </linearGradient>
        <path d="M0.377,12.028 C0.377,18.137 4.728,23.09 10.097,23.09 L10.097,23.09 C15.465,23.09 19.817,18.137 19.817,12.028 L19.817,12.028 C19.817,5.919 15.465,0.967 10.097,0.967 L10.097,0.967 C4.728,0.967 0.377,5.919 0.377,12.028" id="path-17"></path>
        <linearGradient x1="49.9989805%" y1="99.9980523%" x2="49.9989805%" y2="-0.00128870406%" id="linearGradient-19">
            <stop stop-color="#2B2B6E" offset="0%"></stop>
            <stop stop-color="#00041C" offset="100%"></stop>
        </linearGradient>
        <path d="M9.097,19.475 C13.196,19.475 16.52,15.694 16.52,11.028 C16.52,6.363 13.196,2.581 9.097,2.581 C4.997,2.581 1.674,6.363 1.674,11.028 M9.097,0.91 C14.007,0.91 17.988,5.44 17.988,11.028 C17.988,16.616 14.007,21.147 9.097,21.147 C4.186,21.147 0.205,16.616 0.205,11.028" id="path-20"></path>
        <linearGradient x1="0.00249845358%" y1="49.9986599%" x2="100.001882%" y2="49.9986599%" id="linearGradient-22">
            <stop stop-color="#956B9C" offset="0%"></stop>
            <stop stop-color="#674662" offset="100%"></stop>
        </linearGradient>
    </defs>
    <g id="Page-1" stroke="none" stroke-width="1" fill="none" fill-rule="evenodd">
        <g id="Desktop-HD" transform="translate(-1233.000000, -716.000000)">
            <g id="Group-14" transform="translate(1233.145439, 716.000600)">
                <path d="M101.331761,83.2851 C94.1777609,60.2401 85.5977609,38.4671 74.7237609,18.7441 C54.6227609,14.3201 34.5907609,14.2891 14.6277609,18.7441 C12.1257609,22.9391 10.0257609,27.3651 8.26376092,31.9211 C11.0577609,55.5041 14.9597609,65.3441 20.5417609,88.4261 C22.2507609,123.5151 22.2687609,175.6891 19.7837609,212.9431 L92.3427609,212.9431 C99.6077609,170.5571 102.444761,127.3061 101.331761,83.2851" id="Fill-12" fill="#D8D8D8"></path>
                <g id="Group-16" transform="translate(14.854561, 15.412400)">
                    <mask id="mask-2" fill="white">
                        <use xlink:href="#path-1"></use>
                    </mask>
                    <g id="Clip-15"></g>
                    <path d="M0.406,4.137 C3.757,24.637 10.877,47.604 19.822,71.768 C42.612,72.752 64.51,71.962 85.219,68.801 C78.258,45.898 70.272,23.896 59.734,4.137 C41.065,-0.19 21.23,0.04 0.406,4.137" id="Fill-14" mask="url(#mask-2)"></path>
                </g>
                <path d="M20.5421609,88.4261 C14.9601609,65.3441 11.0581609,55.5041 8.26416092,31.9211 C6.97116092,35.2631 5.83916092,38.6681 4.96916092,42.1441 C-2.63783908,100.2121 -1.18283908,156.5711 7.09516092,212.9431 L19.7841609,212.9431 C22.2681609,175.6891 22.2501609,123.5151 20.5421609,88.4261" id="Fill-17" fill="#BD5174"></path>
                <path d="M60.1317609,79.2002 C59.4577609,76.7372 58.7977609,74.2852 58.1237609,71.8222 C51.3057609,71.3762 44.1037609,71.3662 37.1517609,70.8022 C38.3047609,74.2062 39.7937609,77.5672 41.5907609,80.8212 C47.7907609,81.5342 54.3607609,80.3002 60.1317609,79.2002" id="Fill-19" fill="#BD5174"></path>
                <path d="M92.3101609,77.3009 C91.8361609,74.7169 91.3111609,72.1609 90.3901609,69.7009 C89.6201609,69.5179 88.9731609,69.5659 88.2381609,69.8579 C89.2761609,72.2849 90.0091609,74.8419 90.4161609,77.4499 C90.9871609,77.4049 91.7381609,77.3459 92.3101609,77.3009 M88.0201609,77.6149 C87.5461609,75.0299 87.0221609,72.4749 86.1001609,70.0149 C85.3301609,69.8319 84.6841609,69.8799 83.9481609,70.1719 C84.9861609,72.5989 85.7201609,75.1559 86.1261609,77.7639 C86.6981609,77.7189 87.4491609,77.6599 88.0201609,77.6149 M83.7311609,77.9279 C83.2561609,75.3439 82.7321609,72.7889 81.8101609,70.3279 C81.0401609,70.1459 80.3941609,70.1929 79.6591609,70.4859 C80.6971609,72.9129 81.4301609,75.4699 81.8361609,78.0779 C82.4081609,78.0319 83.1591609,77.9739 83.7311609,77.9279 M77.5471609,78.3909 C77.1401609,75.7829 76.4071609,73.2259 75.3691609,70.7989 C76.1041609,70.5069 76.7511609,70.4599 77.5211609,70.6419 C78.4421609,73.1029 78.9671609,75.6579 79.4411609,78.2419 C78.8691609,78.2879 78.1181609,78.3459 77.5471609,78.3909" id="Fill-21" fill="#BD5174"></path>
                <g id="Group-25" transform="translate(21.854561, 137.412400)">
                    <mask id="mask-4" fill="white">
                        <use xlink:href="#path-3"></use>
                    </mask>
                    <g id="Clip-24"></g>
                    <polygon id="Fill-23" mask="url(#mask-4)" points="0.06 0.984 30.037 4.422 41.723 43.952 59.84 43.952 70.456 5.59 78.712 1.621 78.44 6.432 71.072 7.073 61.139 48.267 39.435 48.267 29.138 6.579 0.02 4.758"></polygon>
                </g>
                <polygon id="Fill-26" fill="#BD5174" points="21.9146609 135.2722 52.7836609 139.0472 63.5776609 178.2402 81.6946609 178.2402 91.0836609 140.6652 100.664661 137.2432 100.408661 141.9232 92.3096609 143.0032 82.9936609 182.5552 61.2896609 182.5552 51.5316609 142.1042 21.8746609 139.0462"></polygon>
                <path d="M41.5912609,80.8215 C47.0212609,81.4465 52.7352609,80.5765 57.9472609,79.6125 C57.4042609,77.6165 56.8652609,75.6255 56.3182609,73.6275 C50.3192609,73.2345 44.0302609,73.1595 37.8682609,72.7685 C38.9022609,75.4995 40.1412609,78.1955 41.5912609,80.8215" id="Fill-28" fill="#00EBAA"></path>
                <path d="M27.1535609,212.9429 C33.8605609,171.8639 34.4445609,130.2389 32.9495609,87.7099 C24.7935609,65.5699 18.5225609,42.7399 14.1725609,19.5499 C11.8755609,23.5069 9.91456092,27.6529 8.26356092,31.9209 C11.0585609,55.5039 14.9595609,65.3439 20.5425609,88.4259 C22.2505609,123.5149 22.2685609,175.6889 19.7845609,212.9429 L27.1535609,212.9429 Z" id="Fill-30" fill="#BD5174"></path>
                <path d="M89.4741609,65.8263 C71.8391609,67.8273 53.7401609,67.0883 36.1761609,64.5413 C28.2511609,51.8543 22.9011609,37.5673 20.5421609,22.7963 C38.3301609,19.2453 55.1991609,18.7523 72.9531609,22.4703 C79.8551609,36.8293 86.4851609,52.5293 89.4741609,65.8263" id="Fill-32" fill="#BD5174"></path>
                <path d="M21.3704609,27.2575 C24.0304609,40.4365 29.0524609,53.1375 36.1764609,64.5415 C51.9934609,66.8355 68.2414609,67.6425 84.1964609,66.3225 C80.8424609,54.1485 74.9794609,40.4585 68.8964609,27.8055 C52.7774609,24.4295 37.3804609,24.5535 21.3704609,27.2575" id="Fill-34" fill="#53ACD3"></path>
                <g id="Group-38" transform="translate(55.854561, 93.412400)">
                    <mask id="mask-6" fill="white">
                        <use xlink:href="#path-5"></use>
                    </mask>
                    <g id="Clip-37"></g>
                    <path d="M29.122,17.383 C29.122,26.433 22.675,33.77 14.722,33.77 C6.769,33.77 0.322,26.433 0.322,17.383 C0.322,8.333 6.769,0.996 14.722,0.996 C22.675,0.996 29.122,8.333 29.122,17.383" id="Fill-36" fill="url(#linearGradient-7)" mask="url(#mask-6)"></path>
                </g>
                <g id="Group-42" transform="translate(55.854561, 95.412400)">
                    <mask id="mask-9" fill="white">
                        <use xlink:href="#path-8"></use>
                    </mask>
                    <g id="Clip-41"></g>
                    <path d="M0.761,15.383 C0.761,23.723 6.702,30.484 14.03,30.484 L14.03,30.484 C21.359,30.484 27.3,23.723 27.3,15.383 L27.3,15.383 C27.3,7.043 21.359,0.282 14.03,0.282 L14.03,0.282 C6.702,0.282 0.761,7.043 0.761,15.383" id="Fill-40" fill="url(#linearGradient-10)" mask="url(#mask-9)"></path>
                </g>
                <g id="Group-57" transform="translate(56.854561, 96.412400)">
                    <g id="Group-45">
                        <mask id="mask-12" fill="white">
                            <use xlink:href="#path-11"></use>
                        </mask>
                        <g id="Clip-44"></g>
                        <path d="M13.031,25.915 C7.434,25.915 2.897,20.752 2.897,14.383 C2.897,8.014 7.434,2.852 13.031,2.852 C18.627,2.852 23.164,8.014 23.164,14.383 C23.164,20.752 18.627,25.915 13.031,25.915 M13.031,0.57 C6.327,0.57 0.892,6.754 0.892,14.383 C0.892,22.012 6.327,28.196 13.031,28.196 C19.734,28.196 25.169,22.012 25.169,14.383 C25.169,6.754 19.734,0.57 13.031,0.57" id="Fill-43" fill="url(#linearGradient-13)" mask="url(#mask-12)"></path>
                    </g>
                    <path d="M15.7265,14.3832 C15.7265,15.6432 14.8295,16.6642 13.7215,16.6642 C12.6145,16.6642 11.7175,15.6432 11.7175,14.3832 C11.7175,13.1232 12.6145,12.1022 13.7215,12.1022 C14.8295,12.1022 15.7265,13.1232 15.7265,14.3832" id="Fill-46" fill="#FFFFFF"></path>
                    <path d="M16.608,15.2521 C16.608,16.5121 15.71,17.5331 14.603,17.5331 C13.496,17.5331 12.599,16.5121 12.599,15.2521 C12.599,13.9921 13.496,12.9711 14.603,12.9711 C15.71,12.9711 16.608,13.9921 16.608,15.2521" id="Fill-48" fill="#090327"></path>
                    <path d="M1.9745,10.2837 L11.2565,12.1017 L10.8905,13.8607 L1.1465,13.8607 C1.1465,13.8607 1.0435,11.2147 1.9745,10.2837" id="Fill-50" fill="#FFFFFF"></path>
                    <polygon id="Fill-52" fill="#FFFFFF" points="1.6789 15.7525 10.8909 15.2525 11.7169 16.6645 3.0979 19.9025"></polygon>
                    <g id="Group-56" transform="translate(4.000000, 39.000000)">
                        <mask id="mask-15" fill="white">
                            <use xlink:href="#path-14"></use>
                        </mask>
                        <g id="Clip-55"></g>
                        <path d="M21.151,12.028 C21.151,18.658 16.429,24.032 10.603,24.032 C4.778,24.032 0.055,18.658 0.055,12.028 C0.055,5.399 4.778,0.025 10.603,0.025 C16.429,0.025 21.151,5.399 21.151,12.028" id="Fill-54" fill="url(#linearGradient-16)" mask="url(#mask-15)"></path>
                    </g>
                </g>
                <g id="Group-60" transform="translate(60.854561, 135.412400)">
                    <mask id="mask-18" fill="white">
                        <use xlink:href="#path-17"></use>
                    </mask>
                    <g id="Clip-59"></g>
                    <path d="M0.377,12.028 C0.377,18.137 4.728,23.09 10.097,23.09 L10.097,23.09 C15.465,23.09 19.817,18.137 19.817,12.028 L19.817,12.028 C19.817,5.919 15.465,0.967 10.097,0.967 L10.097,0.967 C4.728,0.967 0.377,5.919 0.377,12.028" id="Fill-58" fill="url(#linearGradient-19)" mask="url(#mask-18)"></path>
                </g>
                <g id="Group-63" transform="translate(61.854561, 136.412400)">
                    <mask id="mask-21" fill="white">
                        <use xlink:href="#path-20"></use>
                    </mask>
                    <g id="Clip-62"></g>
                    <path d="M9.097,19.475 C4.997,19.475 1.674,15.694 1.674,11.028 C1.674,6.363 4.997,2.581 9.097,2.581 C13.196,2.581 16.52,6.363 16.52,11.028 C16.52,15.694 13.196,19.475 9.097,19.475 M9.097,0.91 C4.186,0.91 0.205,5.44 0.205,11.028 C0.205,16.616 4.186,21.147 9.097,21.147 C14.007,21.147 17.988,16.616 17.988,11.028 C17.988,5.44 14.007,0.91 9.097,0.91" id="Fill-61" fill="url(#linearGradient-22)" mask="url(#mask-21)"></path>
                </g>
                <path d="M72.9263609,147.4406 C72.9263609,148.3636 72.2693609,149.1116 71.4583609,149.1116 C70.6463609,149.1116 69.9893609,148.3636 69.9893609,147.4406 C69.9893609,146.5176 70.6463609,145.7696 71.4583609,145.7696 C72.2693609,145.7696 72.9263609,146.5176 72.9263609,147.4406" id="Fill-64" fill="#FFFFFF"></path>
                <path d="M73.5718609,148.077 C73.5718609,149 72.9148609,149.748 72.1038609,149.748 C71.2928609,149.748 70.6348609,149 70.6348609,148.077 C70.6348609,147.154 71.2928609,146.406 72.1038609,146.406 C72.9148609,146.406 73.5718609,147.154 73.5718609,148.077" id="Fill-66" fill="#090327"></path>
                <path d="M62.8526609,144.4377 L69.6516609,145.7697 L69.3836609,147.0577 L62.2466609,147.0577 C62.2466609,147.0577 62.1706609,145.1197 62.8526609,144.4377" id="Fill-68" fill="#FFFFFF"></path>
                <polygon id="Fill-70" fill="#FFFFFF" points="62.6360609 148.4436 69.3840609 148.0766 69.9890609 149.1116 63.6760609 151.4836"></polygon>
                <path d="M66.7633609,54.5614 C66.5073609,47.9874 66.1663609,41.4804 65.1813609,35.1654 C64.0013609,34.6134 62.9733609,34.6564 61.7573609,35.3064 C62.9333609,41.5504 63.6023609,48.0864 63.7473609,54.7124 C64.6573609,54.6654 65.8533609,54.6074 66.7633609,54.5614 M59.9373609,54.8424 C59.6813609,48.2684 59.3413609,41.7604 58.3563609,35.4464 C57.1763609,34.8944 56.1473609,34.9364 54.9323609,35.5864 C56.1073609,41.8314 56.7773609,48.3664 56.9213609,54.9934 C57.8313609,54.9464 59.0273609,54.8884 59.9373609,54.8424 M53.1123609,55.1224 C52.8553609,48.5484 52.5153609,42.0414 51.5303609,35.7264 C50.3503609,35.1744 49.3213609,35.2164 48.1063609,35.8674 C49.2813609,42.1114 49.9513609,48.6474 50.0953609,55.2734 C51.0063609,55.2264 52.2013609,55.1684 53.1123609,55.1224 M43.2693609,55.5534 C43.1253609,48.9274 42.4553609,42.3914 41.2803609,36.1474 C42.4963609,35.4974 43.5243609,35.4544 44.7043609,36.0064 C45.6903609,42.3214 46.0303609,48.8284 46.2863609,55.4024 C45.3763609,55.4494 44.1803609,55.5074 43.2693609,55.5534" id="Fill-72" fill="#00EBAA"></path>
                <path d="M84.1799609,1.3382 C83.9939609,1.4692 87.3229609,4.2902 87.6369609,4.4932 C89.4569609,5.6732 91.5069609,6.4472 93.5949609,7.0022 C97.6729609,8.0872 101.940961,8.3972 106.141961,8.5632 C110.643961,8.7412 115.145961,8.5762 119.646961,8.6892 C123.041961,8.8012 126.516961,9.9792 129.147961,12.1542 C135.437961,17.3552 134.116961,26.1652 129.070961,31.6362 C123.280961,37.9152 114.171961,40.8532 105.785961,39.8442 C101.759961,39.3592 97.8529609,38.0492 94.2589609,36.1892 C93.5919609,35.8442 85.6059609,30.9622 86.2729609,30.2362 C86.4389609,30.0552 89.4549609,32.2142 89.7579609,32.4032 C91.4669609,33.4732 93.2299609,34.4592 95.0569609,35.3152 C98.9519609,37.1422 103.132961,38.4062 107.440961,38.6902 C115.829961,39.2162 125.547961,35.6022 130.216961,28.2762 C132.477961,24.7282 133.220961,20.1422 131.222961,16.2962 C129.450961,12.8842 126.212961,10.9612 122.610961,9.9782 C119.311961,9.0772 115.633961,9.4812 112.259961,9.4182 C107.834961,9.3362 103.387961,9.1722 99.0029609,8.5412 C96.1089609,8.1252 93.1919609,7.5122 90.4999609,6.3442 C89.1469609,5.7562 87.8479609,5.0292 86.6949609,4.1042 C86.4569609,3.9132 83.9589609,1.4932 84.1799609,1.3382" id="Fill-74" fill="#BCEDED"></path>
                <path d="M116.081561,12.4513 C116.073561,12.2163 119.748561,12.5463 120.107561,12.6013 C121.966561,12.8853 123.783561,13.4253 125.502561,14.1883 C129.035561,15.7553 132.278561,18.2823 134.269561,21.6343 C136.352561,25.1403 136.636561,29.3723 134.610561,32.9713 C132.607561,36.5533 129.016561,38.9843 125.416561,40.7573 C119.399561,43.7213 112.318561,45.5183 105.591561,44.7793 C101.850561,44.3683 98.2495609,43.2663 94.9825609,41.3853 C93.4115609,40.4803 91.9285609,39.3933 90.6075609,38.1503 C90.3825609,37.9383 87.4885609,35.0163 87.9755609,34.6753 C88.1795609,34.5313 90.5425609,36.8663 90.7805609,37.0623 C92.1185609,38.1703 93.5435609,39.1763 95.0535609,40.0363 C98.3695609,41.9263 102.012561,43.0843 105.803561,43.4973 C112.370561,44.2133 119.253561,42.5013 125.153561,39.6583 C128.582561,38.0053 132.013561,35.7223 133.913561,32.3223 C135.865561,28.8133 135.402561,24.7493 133.304561,21.4183 C131.412561,18.4153 128.497561,16.1133 125.316561,14.5963 C123.763561,13.8553 122.123561,13.2993 120.439561,12.9443 C120.064561,12.8653 116.078561,12.3673 116.081561,12.4513" id="Fill-76" fill="#BCEDED"></path>
                <path d="M120.512361,18.4658 C120.736361,17.8578 127.008361,21.8588 127.370361,22.1708 C129.706361,24.1838 131.664361,26.9608 132.166361,30.0668 C133.235361,36.6758 129.966361,42.9398 124.502361,46.6228 C118.642361,50.5718 110.884361,50.5948 104.232361,48.9608 C101.112361,48.1938 98.1093609,46.9468 95.4173609,45.1878 C94.7603609,44.7588 88.4873609,39.6448 89.4603609,38.9978 C89.6303609,38.8778 94.4753609,43.1318 95.0393609,43.5068 C97.9573609,45.4498 101.208361,46.8768 104.611361,47.7188 C111.576361,49.4438 119.096361,49.2108 125.076361,44.9298 C130.450361,41.3478 133.153361,33.7018 130.783361,27.6728 C129.759361,25.4678 128.522361,23.8108 126.732361,22.1698 C126.367361,21.8528 120.611361,18.1958 120.512361,18.4658" id="Fill-78" fill="#BCEDED"></path>
                <path d="M121.313361,30.8796 C121.491361,31.3156 114.364361,33.3826 113.783361,33.5146 C110.283361,34.3136 106.651361,34.5906 103.074361,34.2616 C99.8893609,33.9686 96.7553609,33.2276 93.7933609,32.0146 C92.4183609,31.4506 91.0763609,30.7756 89.8343609,29.9576 C89.0783609,29.4586 87.8743609,28.7546 87.5183609,27.8876 C87.2673609,27.2776 89.4773609,28.4736 89.7013609,28.5936 C90.9413609,29.2536 92.1933609,29.8886 93.4763609,30.4596 C96.4373609,31.7766 99.5713609,32.6766 102.783361,33.1086 C106.241361,33.5746 109.760361,33.4936 113.202361,32.9296 C113.816361,32.8286 121.347361,30.9636 121.313361,30.8796" id="Fill-80" fill="#BCEDED"></path>
                <path d="M87.8532609,8.6694 C87.8632609,8.6614 90.3792609,11.1934 90.5732609,11.3704 C91.9622609,12.5764 93.4382609,13.6614 95.0482609,14.5544 C97.9132609,16.1454 101.098261,17.2594 104.332261,17.7984 C110.769261,18.8704 119.178261,17.6064 123.385261,23.9234 C123.468261,24.0484 124.130261,24.9994 123.815261,25.1754 C123.550261,25.3234 122.388261,24.0774 122.210261,23.9274 C120.843261,22.7364 119.230261,21.6784 117.529261,21.0344 C114.009261,19.6494 110.472261,19.7864 106.793261,19.2894 C102.674261,18.7324 98.6442609,17.4794 95.0572609,15.3574 C93.4492609,14.4054 91.9212609,13.2714 90.5932609,11.9554 C90.4012609,11.7654 87.6382609,8.8334 87.8532609,8.6694" id="Fill-82" fill="#BCEDED"></path>
                <path d="M113.393361,54.5375 C113.449361,54.9885 108.322361,54.8665 107.870361,54.8185 C105.331361,54.5535 102.846361,53.8345 100.535361,52.7545 C98.3403609,51.7285 96.2823609,50.4125 94.4193609,48.8655 C93.3233609,47.9545 91.0673609,46.2495 90.8463609,44.6785 C90.7413609,43.9405 91.9793609,45.0045 92.0773609,45.0865 C92.7873609,45.6785 93.4663609,46.3095 94.1603609,46.9195 C95.9553609,48.4995 97.8353609,49.9655 99.9083609,51.1675 C102.271361,52.5385 104.832361,53.5595 107.518361,54.0855 C107.990361,54.1785 113.404361,54.6285 113.393361,54.5375" id="Fill-84" fill="#BCEDED"></path>
                <path d="M119.966161,64.579 C118.253161,64.579 117.057161,63.724 117.057161,62.501 C117.057161,61.04 118.760161,59.564 120.933161,59.14 C121.310161,59.067 121.683161,59.03 122.042161,59.03 C122.594161,59.03 123.095161,59.115 123.524161,59.28 L123.524161,45.348 L124.952161,45.348 L124.952161,61.108 C124.952161,62.568 123.249161,64.045 121.076161,64.468 C120.699161,64.542 120.325161,64.579 119.966161,64.579 Z" id="Fill-86" fill="#00EBAA"></path>
                <path d="M134.956161,43.6383 C133.556161,43.6383 132.578161,42.9303 132.578161,41.9173 C132.578161,40.7263 133.952161,39.5253 135.706161,39.1833 C136.009161,39.1243 136.309161,39.0943 136.598161,39.0943 C136.998161,39.0943 137.367161,39.1503 137.691161,39.2593 L137.691161,28.2783 L138.976161,28.2783 L138.976161,40.8153 C138.976161,42.0063 137.602161,43.2073 135.849161,43.5493 C135.545161,43.6083 135.245161,43.6383 134.956161,43.6383 Z" id="Fill-88" fill="#00EBAA"></path>
                <path d="M116.881261,46.8559 L116.881261,32.1729 C116.481261,32.2719 116.043261,32.3229 115.577261,32.3229 C115.161261,32.3229 114.728261,32.2809 114.292261,32.1999 C111.736261,31.7209 109.733261,30.0009 109.733261,28.2849 C109.733261,26.7789 111.193261,25.7279 113.282261,25.7279 C113.699261,25.7279 114.131261,25.7689 114.568261,25.8509 C117.124261,26.3299 119.127261,28.0489 119.127261,29.7649 L119.127261,46.8559 L116.881261,46.8559 Z" id="Fill-90" fill="#00EBAA"></path>
                <path d="M133.585561,9.5773 C133.272561,9.5773 132.950561,9.7373 132.765561,9.9843 C132.133561,10.8213 132.173561,12.3603 132.216561,13.6203 C133.019561,12.8913 133.900561,11.8463 134.154561,10.6163 C134.296561,9.9293 134.156561,9.7333 133.868561,9.6263 C133.780561,9.5933 133.685561,9.5773 133.585561,9.5773 L133.585561,9.5773 Z M132.267561,17.2623 C132.295561,19.2253 132.330561,21.9693 132.264561,23.9583 C132.372561,23.9013 132.477561,23.8393 132.579561,23.7723 C134.024561,22.8283 135.026561,20.3583 134.601561,18.7863 C134.345561,17.8343 133.640561,17.3223 132.506561,17.2633 C132.459561,17.2613 132.413561,17.2603 132.367561,17.2603 C132.334561,17.2603 132.301561,17.2603 132.267561,17.2623 L132.267561,17.2623 Z M129.692561,17.2163 C128.389561,18.2023 127.242561,19.3713 126.998561,20.9793 C126.846561,21.9193 127.045561,22.7423 127.573561,23.3633 C128.169561,24.0633 129.137561,24.4643 130.228561,24.4643 C130.486561,24.4643 130.744561,24.4413 130.999561,24.3953 C131.020561,22.6193 130.927561,19.9923 130.853561,17.8623 L130.848561,17.7193 C130.309561,18.0823 129.923561,18.6363 129.762561,19.2893 C129.637561,19.7953 129.635561,20.3023 129.757561,20.7533 C129.836561,21.0463 129.953561,21.2733 130.078561,21.3763 C130.142561,21.4293 130.227561,21.4613 130.335561,21.4953 C130.384561,21.5103 130.397561,21.5103 130.403561,21.5103 C130.423561,21.5103 130.442561,21.5073 130.467561,21.5043 L130.782561,21.4713 L130.819561,21.7533 C130.826561,21.8013 130.828561,21.8463 130.826561,21.8893 L130.818561,22.1093 L130.604561,22.1623 C130.480561,22.1933 130.375561,22.2073 130.275561,22.2073 C130.239561,22.2073 130.204561,22.2053 130.169561,22.2013 C129.384561,22.1193 128.871561,21.5113 128.727561,20.4913 C128.552561,19.2363 128.914561,18.0553 129.692561,17.2163 L129.692561,17.2163 Z M128.554561,29.1933 C128.090561,29.1933 127.704561,29.1163 127.373561,28.9573 C127.048561,28.8013 126.767561,28.5543 126.603561,28.2793 C126.405561,27.9493 126.329561,27.6813 126.276561,27.3813 C126.254561,27.2593 126.249561,27.0883 126.350561,26.9683 C126.412561,26.8953 126.501561,26.8523 126.596561,26.8523 C126.665561,26.8523 126.731561,26.8743 126.793561,26.9153 C126.924561,27.0033 126.962561,27.1483 126.987561,27.2443 C126.990561,27.2573 126.993561,27.2693 126.996561,27.2783 C127.033561,27.3783 127.067561,27.4573 127.101561,27.5263 C127.402561,28.1193 128.094561,28.2073 128.480561,28.2073 C128.718561,28.2073 128.970561,28.1753 129.209561,28.1143 C129.984561,27.9353 130.568561,27.2993 130.825561,26.3803 C130.622561,26.4023 130.419561,26.4143 130.218561,26.4143 C129.391561,26.4143 128.592561,26.2293 127.844561,25.8663 C126.323561,25.0943 125.431561,23.8903 125.260561,22.3833 C125.039561,20.4393 126.067561,18.2073 127.877561,16.6963 C128.498561,16.2043 129.164561,15.7773 129.808561,15.3643 C130.121561,15.1633 130.444561,14.9553 130.757561,14.7433 C130.755561,14.6913 130.752561,14.6363 130.749561,14.5783 C130.689561,13.3433 130.577561,11.0443 131.144561,9.4753 C131.641561,8.1023 132.790561,7.6133 133.700561,7.6133 C133.901561,7.6133 134.101561,7.6363 134.294561,7.6813 C135.013561,7.8483 135.477561,8.2833 135.636561,8.9393 C136.056561,10.6773 134.237561,13.6373 132.242561,15.3753 C132.244561,15.5643 132.247561,15.7713 132.250561,15.9923 C132.331561,15.9863 132.413561,15.9843 132.495561,15.9843 C133.606561,15.9843 134.651561,16.5203 135.363561,17.4553 C136.259561,18.6333 136.509561,20.2623 136.049561,21.9253 C135.517561,23.8493 134.013561,25.4313 132.101561,26.0923 C132.095561,26.1253 132.089561,26.1573 132.083561,26.1863 C131.742561,27.8873 130.569561,29.0303 129.020561,29.1703 C128.851561,29.1853 128.699561,29.1933 128.554561,29.1933 Z" id="Fill-92" fill="#00EBAA"></path>
                <path d="M100.014461,16.155 C98.7644609,16.155 97.8924609,15.526 97.8924609,14.625 C97.8924609,13.561 99.1234609,12.488 100.694461,12.181 C100.966461,12.129 101.235461,12.102 101.494461,12.102 C101.865461,12.102 102.205461,12.155 102.502461,12.259 L102.502461,2.272 L111.345461,-2.84217094e-14 L111.345461,12.004 C111.345461,13.068 110.114461,14.141 108.543461,14.447 C108.271461,14.501 108.002461,14.527 107.743461,14.527 C106.493461,14.527 105.621461,13.898 105.621461,12.997 C105.621461,11.933 106.851461,10.86 108.423461,10.554 C108.694461,10.501 108.963461,10.474 109.222461,10.474 C109.593461,10.474 109.934461,10.528 110.231461,10.631 L110.231461,2.534 L103.617461,4.233 L103.617461,13.632 C103.617461,14.696 102.386461,15.769 100.815461,16.075 C100.543461,16.128 100.273461,16.155 100.014461,16.155" id="Fill-94" fill="#00EBAA"></path>
            </g>
        </g>
    </g>
</svg>