<?xml version="1.0" encoding="UTF-8"?>
<svg width="107px" height="107px" viewBox="0 0 107 107" version="1.1" xmlns="http://www.w3.org/2000/svg" xmlns:xlink="http://www.w3.org/1999/xlink">
    <!-- Generator: Sketch 53.1 (72631) - https://sketchapp.com -->
    <title>Group 72beach_invite_button</title>
    <desc>Created with Sketch.</desc>
    <g id="Page-1" stroke="none" stroke-width="1" fill="none" fill-rule="evenodd">
        <g id="Group-72" transform="translate(1.000000, 1.000000)">
            <path d="M104.335,52.6606 C104.335,81.2366 81.17,104.4016 52.594,104.4016 C24.018,104.4016 0.853,81.2366 0.853,52.6606 C0.853,24.0846 24.018,0.9196 52.594,0.9196 C81.17,0.9196 104.335,24.0846 104.335,52.6606" id="Fill-38" fill="#4C2030"></path>
            <path d="M104.335,52.6606 C104.335,81.2366 81.17,104.4016 52.594,104.4016 C24.018,104.4016 0.853,81.2366 0.853,52.6606 C0.853,24.0846 24.018,0.9196 52.594,0.9196 C81.17,0.9196 104.335,24.0846 104.335,52.6606 Z" id="Stroke-40" stroke="#FFFFFF" stroke-width="3"></path>
            <path d="M81.4854,44.6118 C78.0994,43.5298 73.8724,44.8888 70.4874,46.7858 C69.1934,47.5108 68.2964,48.7818 68.0304,50.2418 L67.7064,52.0208 C67.5454,52.9118 67.6254,53.8308 67.9464,54.6778 C69.8584,59.7238 73.8364,60.9028 76.6964,61.1588 C77.4564,65.2448 80.1964,66.5018 82.5814,66.7768 C84.6004,71.9168 88.3174,74.6538 89.7244,71.7488 C94.3024,62.3008 86.3204,46.1568 81.4854,44.6118" id="Fill-42" fill="#F5EEF3"></path>
            <path d="M83.7236,64.0518 C81.3386,63.7768 78.5976,62.5198 77.8376,58.4348 C74.9776,58.1778 70.9996,56.9998 69.0876,51.9528 C68.7666,51.1068 68.6866,50.1868 68.8486,49.2968 L69.0926,47.9548 C68.5556,48.6068 68.1846,49.3918 68.0306,50.2418 L67.7056,52.0208 C67.5446,52.9118 67.6246,53.8308 67.9466,54.6778 C69.8586,59.7238 73.8356,60.9028 76.6966,61.1588 C77.4556,65.2448 80.1966,66.5018 82.5806,66.7768 C84.6006,71.9168 88.3166,74.6538 89.7246,71.7488 C90.0636,71.0488 90.3316,70.3118 90.5396,69.5468 C88.9506,71.5348 85.6026,68.8358 83.7236,64.0518" id="Fill-44" fill="#BED0E9"></path>
            <path d="M15.626,38.7588 C14.409,41.7488 18.931,42.6788 24.102,40.7398 C25.901,42.3278 28.669,43.5238 32.214,41.3548 C34.318,43.3088 37.855,45.4758 42.886,43.5198 C43.73,43.1918 44.467,42.6368 45.021,41.9208 L46.126,40.4888 C47.032,39.3148 47.377,37.7978 47.05,36.3508 C46.194,32.5658 44.376,28.5148 41.307,26.7228 C36.924,24.1638 19.584,29.0348 15.626,38.7588" id="Fill-46" fill="#F5EEF3"></path>
            <path d="M45.5498,41.0806 C40.5198,43.0366 36.9828,40.8686 34.8778,38.9156 C31.3338,41.0836 28.5668,39.8886 26.7658,38.2996 C21.5948,40.2396 17.0728,39.3096 18.2908,36.3196 C18.8928,34.8406 19.8058,33.4736 20.9348,32.2286 C18.5728,34.0506 16.6518,36.2416 15.6258,38.7586 C14.4088,41.7486 18.9308,42.6796 24.1018,40.7396 C25.9018,42.3276 28.6688,43.5236 32.2138,41.3546 C34.3188,43.3086 37.8558,45.4756 42.8858,43.5196 C43.7298,43.1916 44.4668,42.6366 45.0208,41.9206 L45.7278,41.0046 C45.6688,41.0296 45.6108,41.0576 45.5498,41.0806" id="Fill-48" fill="#BED0E9"></path>
            <path d="M40.6172,37.3818 C36.0432,43.4058 33.0492,50.1328 31.6322,57.5638 C31.4462,58.5358 31.8882,59.5228 32.7362,60.0318 C42.1072,65.6558 52.0162,70.0678 62.4672,73.2688 C63.4132,73.5578 64.4412,73.2258 65.0402,72.4378 C69.6142,66.4138 72.6092,59.6868 74.0252,52.2568 C74.2112,51.2838 73.7692,50.2978 72.9212,49.7878 C63.5502,44.1638 53.6402,39.7518 43.1902,36.5508 C42.2442,36.2618 41.2162,36.5938 40.6172,37.3818" id="Fill-50" fill="#C90E32"></path>
            <path d="M72.9209,49.7881 C67.9389,46.7981 62.8029,44.1541 57.5159,41.8491 C61.6769,43.7451 65.7229,45.9031 69.6469,48.3301 C70.4059,48.8001 70.7739,49.7541 70.5669,50.7171 C68.9939,58.0771 65.9989,64.8041 61.5829,70.8981 C61.0049,71.6961 60.0489,72.0611 59.1919,71.8111 C54.7629,70.5181 50.4519,68.9561 46.2589,67.1321 C51.5099,69.5191 56.9099,71.5671 62.4669,73.2681 C63.4129,73.5591 64.4419,73.2261 65.0399,72.4381 C69.6129,66.4141 72.6089,59.6861 74.0249,52.2571 C74.2109,51.2841 73.7699,50.2971 72.9209,49.7881" id="Fill-52" fill="#930A2B"></path>
            <path d="M73.8398,53.1782 C73.7438,53.0892 73.6408,53.0052 73.5278,52.9312 C64.3988,46.9252 54.6798,42.1062 44.3718,38.4762 C43.9468,38.3262 43.5008,38.3062 43.0818,38.3982 L52.2138,55.3142 C52.8298,56.4552 54.0978,57.0842 55.3788,56.8832 L73.6538,54.0242 C73.7188,53.7432 73.7798,53.4612 73.8398,53.1782" id="Fill-54" fill="#930A2B"></path>
            <path d="M54.9502,54.4878 L73.8032,50.7328 C73.6062,50.3498 73.3052,50.0198 72.9212,49.7878 C63.5502,44.1638 53.6402,39.7528 43.1902,36.5508 C42.7612,36.4198 42.3132,36.4178 41.8982,36.5278 L51.7222,53.0508 C52.3862,54.1648 53.6792,54.7408 54.9502,54.4878" id="Fill-56" fill="#C90E32"></path>
            <path d="M64.2881,73.082 L60.9601,65.8 C60.6981,65.227 60.0201,64.974 59.4471,65.236 C58.8731,65.498 58.6211,66.176 58.8831,66.749 L61.7611,73.047 C61.9961,73.12 62.2301,73.196 62.4671,73.269 C63.0871,73.458 63.7411,73.38 64.2881,73.082" id="Fill-58" fill="#930A2B"></path>
            <path d="M62.7393,73.3325 C62.7933,73.3425 62.8473,73.3505 62.9013,73.3565 C62.9213,73.3585 62.9393,73.3605 62.9593,73.3625 C63.1063,73.3745 63.2533,73.3735 63.3983,73.3585 C63.4053,73.3575 63.4123,73.3565 63.4203,73.3555 C63.4873,73.3485 63.5553,73.3375 63.6233,73.3235 C63.6303,73.3225 63.6373,73.3215 63.6443,73.3195 C63.8693,73.2715 64.0863,73.1915 64.2883,73.0825 L62.6143,69.4185 C62.2783,69.9155 61.9363,70.4095 61.5833,70.8975 C61.4253,71.1165 61.2363,71.3015 61.0323,71.4515 L61.7603,73.0465 C61.9963,73.1195 62.2303,73.1965 62.4673,73.2685 C62.5373,73.2905 62.6073,73.3075 62.6783,73.3225 C62.6993,73.3265 62.7183,73.3295 62.7393,73.3325" id="Fill-60" fill="#930A2B"></path>
            <path d="M40.7266,56.9014 C40.5376,56.2994 39.8966,55.9644 39.2946,56.1534 L31.6566,58.5534 C31.8006,59.1584 32.1796,59.6984 32.7366,60.0314 C32.9486,60.1584 33.1616,60.2814 33.3726,60.4074 L39.9786,58.3334 C40.5806,58.1434 40.9146,57.5034 40.7266,56.9014" id="Fill-62" fill="#930A2B"></path>
            <path d="M60.5156,50.2729 C59.0146,49.0689 56.6246,48.9649 55.0986,50.1469 C54.9996,50.2239 54.8586,50.1609 54.8486,50.0359 C54.7056,48.1109 53.0306,46.4039 51.1306,46.0939 C47.8626,45.5619 45.3196,48.8109 45.4796,51.8479 C45.6546,55.1649 48.9886,60.6019 49.6436,61.6409 C49.7106,61.7479 49.8336,61.8019 49.9576,61.7809 C51.1676,61.5729 57.4396,60.4119 60.0226,58.3229 C62.3856,56.4099 63.0986,52.3469 60.5156,50.2729" id="Fill-64" fill="#F6A821"></path>
            <path d="M27.249,52.5801 L22.102,52.5801 C21.471,52.5801 20.959,52.0691 20.959,51.4381 C20.959,50.8081 21.471,50.2961 22.102,50.2961 L27.249,50.2961 C27.879,50.2961 28.391,50.8081 28.391,51.4381 C28.391,52.0691 27.879,52.5801 27.249,52.5801" id="Fill-66" fill="#BED0E9"></path>
            <path d="M27.249,60.8232 L19.267,60.8232 C18.636,60.8232 18.125,60.3122 18.125,59.6812 C18.125,59.0512 18.636,58.5402 19.267,58.5402 L27.249,58.5402 C27.879,58.5402 28.391,59.0512 28.391,59.6812 C28.391,60.3122 27.879,60.8232 27.249,60.8232" id="Fill-68" fill="#BED0E9"></path>
            <path d="M27.249,69.0669 L16.862,69.0669 C16.231,69.0669 15.721,68.5559 15.721,67.9249 C15.721,67.2949 16.231,66.7829 16.862,66.7829 L27.249,66.7829 C27.879,66.7829 28.391,67.2949 28.391,67.9249 C28.391,68.5559 27.879,69.0669 27.249,69.0669" id="Fill-70" fill="#BED0E9"></path>
        </g>
    </g>
</svg>