<?xml version="1.0" encoding="UTF-8"?>
<svg width="106px" height="153px" viewBox="0 0 106 153" version="1.1" xmlns="http://www.w3.org/2000/svg" xmlns:xlink="http://www.w3.org/1999/xlink">
    <!-- Generator: Sketch 53.1 (72631) - https://sketchapp.com -->
    <title>Group 23Character_2</title>
    <desc>Created with Sketch.</desc>
    <g id="Page-1" stroke="none" stroke-width="1" fill="none" fill-rule="evenodd">
        <g id="Desktop-HD" transform="translate(-1052.000000, -1189.000000)">
            <g id="Group-23" transform="translate(1052.965645, 1189.175600)">
                <path d="M42.039855,130.9245 L49.869855,130.9245 L49.869855,146.6155 L49.869855,149.0135 L49.869855,152.3455 L30.581855,152.3455 C30.581855,152.3455 38.042855,146.2485 42.039855,143.9005 L42.039855,130.9245 Z" id="Fill-57" fill="#DB7C27"></path>
                <polygon id="Fill-59" fill="#BA6128" points="46.287555 130.9245 49.869555 130.9245 49.869555 146.6155 49.869555 149.0135 49.869555 152.3455 46.287555 152.3455"></polygon>
                <path d="M62.744355,130.9245 L54.916355,130.9245 L54.916355,146.6155 L54.916355,149.0135 L54.916355,152.3455 L74.204355,152.3455 C74.204355,152.3455 66.742355,146.2485 62.744355,143.9005 L62.744355,130.9245 Z" id="Fill-61" fill="#BA6128"></path>
                <polygon id="Fill-63" fill="#DB7C27" points="58.497355 130.9245 54.916355 130.9245 54.916355 146.6155 54.916355 149.0135 54.916355 152.3455 58.497355 152.3455"></polygon>
                <polygon id="Fill-65" fill="#F3EED5" points="30.064855 32.015 38.225855 26.602 9.343855 6.39488462e-14 19.420855 38.561"></polygon>
                <path d="M30.064855,32.015 L38.225855,26.602 L29.048855,18.156 C25.950855,20.238 23.084855,22.82 20.569855,25.885 C19.354855,27.367 18.270855,28.917 17.321855,30.499 L19.420855,38.561 L30.064855,32.015 Z" id="Fill-67" fill="#EED8A2"></path>
                <path d="M13.757255,4.0642 L12.558255,2.9652 L10.493255,4.3972 L10.925255,6.0302 L13.757255,4.0642 Z M16.489255,6.5792 L15.306255,5.4972 L11.659255,8.8452 L12.108255,10.5932 L16.489255,6.5792 Z M20.603255,10.3772 L19.404255,9.2612 L12.825255,13.3092 L13.241255,14.9082 L20.603255,10.3772 Z M24.234255,13.7092 L23.036255,12.6092 L14.224255,18.6892 L14.657255,20.3212 L24.234255,13.7092 Z M27.832255,17.0242 L26.333255,15.6412 L15.856255,24.9032 L16.422255,27.1012 L27.832255,17.0242 Z" id="Fill-69" fill="#EED8A2"></path>
                <polygon id="Fill-71" fill="#F3EED5" points="74.720055 32.015 66.559055 26.602 95.442055 6.39488462e-14 85.364055 38.561"></polygon>
                <path d="M74.720055,32.015 L66.559055,26.602 L75.737055,18.156 C78.835055,20.238 81.700055,22.82 84.214055,25.885 C85.431055,27.367 86.514055,28.917 87.480055,30.499 L85.364055,38.561 L74.720055,32.015 Z" id="Fill-73" fill="#EED8A2"></path>
                <path d="M91.026955,4.0642 L92.227955,2.9652 L94.292955,4.3972 L93.875955,6.0302 L91.026955,4.0642 Z M88.311955,6.5792 L89.477955,5.4972 L93.126955,8.8452 L92.676955,10.5932 L88.311955,6.5792 Z M84.181955,10.3772 L85.397955,9.2612 L91.959955,13.3092 L91.542955,14.9082 L84.181955,10.3772 Z M80.567955,13.7092 L81.749955,12.6092 L90.560955,18.6892 L90.127955,20.3212 L80.567955,13.7092 Z M76.968955,17.0242 L78.451955,15.6412 L88.928955,24.9032 L88.361955,27.1012 L76.968955,17.0242 Z" id="Fill-75" fill="#EED8A2"></path>
                <path d="M0.931655001,79.4209 C-12.143345,153.4449 116.944655,153.4449 103.853655,79.4209 C88.595655,-6.8791 16.188655,-6.8791 0.931655001,79.4209" id="Fill-77" fill="#ED4491"></path>
                <path d="M0.931655001,79.4209 C-1.349345,92.3629 0.715655001,103.0409 5.613655,111.4529 C15.106655,119.6309 27.115655,124.5109 40.174655,124.5109 C70.939655,124.5109 95.873655,97.4269 95.873655,64.0469 C95.873655,57.8499 95.025655,51.8869 93.442655,46.2729 C68.040655,-4.8971 13.891655,6.1459 0.931655001,79.4209" id="Fill-79" fill="#F06D9B"></path>
                <path d="M74.487555,47.9723 C74.587555,48.6553 74.636555,49.3543 74.636555,50.0713 C74.636555,60.1493 64.676555,68.3273 52.400555,68.3273 C40.108555,68.3273 30.146555,60.1493 30.146555,50.0713 C30.146555,49.3543 30.197555,48.6553 30.298555,47.9723 L74.487555,47.9723 Z" id="Fill-81" fill="#E34576"></path>
                <path d="M73.488555,48.9047 C73.571555,49.5217 73.621555,50.1547 73.621555,50.7877 C73.621555,59.8157 64.127555,67.1447 52.400555,67.1447 C40.674555,67.1447 31.163555,59.8157 31.163555,50.7877 C31.163555,50.1547 31.213555,49.5217 31.297555,48.9047 L73.488555,48.9047 Z" id="Fill-83" fill="#FFFFFF"></path>
                <path d="M68.491655,48.9047 C68.557655,49.3717 68.607655,49.8547 68.607655,50.3377 C68.607655,57.2337 61.345655,62.8297 52.400655,62.8297 C43.439655,62.8297 36.193655,57.2337 36.193655,50.3377 C36.193655,49.8547 36.226655,49.3717 36.293655,48.9047 L68.491655,48.9047 Z" id="Fill-85" fill="#432918"></path>
                <path d="M63.994055,48.9047 C64.043055,49.2377 64.077055,49.5887 64.077055,49.9377 C64.077055,54.9187 58.846055,58.9327 52.401055,58.9327 C45.938055,58.9327 40.708055,54.9187 40.708055,49.9377 C40.708055,49.5887 40.741055,49.2377 40.791055,48.9047 L63.994055,48.9047 Z" id="Fill-87" fill="#432918"></path>
                <path d="M48.270455,48.9047 C49.969455,48.9047 51.335455,50.2707 51.335455,51.9697 C51.335455,53.6697 49.969455,55.0517 48.270455,55.0517 C46.570455,55.0517 45.204455,53.6697 45.204455,51.9697 C45.204455,50.2707 46.570455,48.9047 48.270455,48.9047" id="Fill-89" fill="#FFFFFF"></path>
                <path d="M52.400755,73.4077 C74.154755,73.4077 91.792755,73.7577 91.792755,74.2077 C91.792755,74.6407 74.154755,74.9897 52.400755,74.9897 C30.631755,74.9897 12.991755,74.6407 12.991755,74.2077 C12.991755,73.7577 30.631755,73.4077 52.400755,73.4077" id="Fill-91" fill="#E34576"></path>
                <polygon id="Fill-93" fill="#E34576" points="16.638555 74.1572 21.619555 90.2822 25.683555 78.6542 33.429555 97.1602 43.122555 79.1872 48.953555 90.1152 54.066555 79.1872 61.278555 91.5302 68.691555 78.4712 74.687555 94.3452 82.799555 77.0722 88.429555 83.0692 91.044555 74.3572"></polygon>
                <polygon id="Fill-95" fill="#FFFFFF" points="16.139355 73.9905 21.119355 90.1145 25.183355 78.4885 32.928355 96.9935 42.623355 79.0215 48.453355 89.9485 53.567355 79.0215 60.779355 91.3635 68.190355 78.3045 74.188355 94.1795 82.299355 76.9055 87.929355 82.9025 90.545355 74.1905"></polygon>
                <polygon id="Fill-97" fill="#676767" points="15.523555 106.089 15.322555 128.276 8.993555 131.84 10.176555 141.935 11.559555 133.473 13.841555 143.368 15.423555 133.473 17.005555 139.42 18.604555 132.673 17.605555 128.226 19.087555 106.239"></polygon>
                <polygon id="Fill-99" fill="#292A2C" points="16.188655 136.3383 17.005655 139.4203 18.603655 132.6733 17.605655 128.2263 19.087655 106.2383 17.055655 106.1553 16.305655 128.5593 17.021655 134.3893"></polygon>
                <path d="M22.719255,104.2902 L22.719255,104.3232 C22.719255,105.6232 20.387255,106.6722 17.521255,106.6722 C14.657255,106.6722 12.325255,105.6232 12.325255,104.3232 C12.325255,104.2232 12.341255,104.1232 12.358255,104.0402 C13.891255,104.5562 15.839255,104.8732 17.971255,104.8732 C19.720255,104.8732 21.353255,104.6572 22.719255,104.2902" id="Fill-101" fill="#ED4491"></path>
                <polygon id="Fill-103" fill="#292A2C" points="89.278755 106.089 89.461755 128.276 95.807755 131.84 94.625755 141.935 93.225755 133.473 90.960755 143.368 89.378755 133.473 87.778755 139.42 86.197755 132.673 87.196755 128.226 85.713755 106.239"></polygon>
                <polygon id="Fill-105" fill="#676767" points="88.612155 136.3383 87.779155 139.4203 86.197155 132.6733 87.196155 128.2263 85.713155 106.2383 87.746155 106.1553 88.480155 128.5593 87.779155 134.3893"></polygon>
                <path d="M82.083155,104.2902 L82.083155,104.3232 C82.083155,105.6232 84.398155,106.6722 87.280155,106.6722 C90.145155,106.6722 92.476155,105.6232 92.476155,104.3232 C92.476155,104.2232 92.460155,104.1232 92.443155,104.0402 C90.911155,104.5562 88.962155,104.8732 86.830155,104.8732 C85.082155,104.8732 83.449155,104.6572 82.083155,104.2902" id="Fill-107" fill="#F06D9B"></path>
                <path d="M13.941355,95.2619 C13.290355,93.2129 11.092355,92.0639 9.043355,92.7129 C6.977355,93.3799 5.846355,95.5609 6.495355,97.6269 C7.144355,99.6929 9.343355,100.8249 11.392355,100.1759 C13.457355,99.5259 14.590355,97.3269 13.941355,95.2619" id="Fill-109" fill="#E34576"></path>
                <path d="M20.537055,96.6779 C20.153055,95.4279 18.837055,94.7449 17.588055,95.1449 C16.356055,95.5279 15.673055,96.8449 16.073055,98.0769 C16.456055,99.3259 17.772055,100.0089 19.005055,99.6089 C20.236055,99.2259 20.935055,97.9099 20.537055,96.6779" id="Fill-111" fill="#E34576"></path>
                <path d="M14.190555,88.932 C13.923555,88.065 12.991555,87.583 12.108555,87.849 C11.242555,88.133 10.759555,89.065 11.025555,89.931 C11.308555,90.815 12.240555,91.297 13.108555,91.014 C13.990555,90.748 14.474555,89.814 14.190555,88.932" id="Fill-113" fill="#E34576"></path>
                <path d="M60.245555,107.638 C58.164555,108.254 56.998555,110.436 57.615555,112.501 C58.229555,114.567 60.412555,115.75 62.478555,115.117 C64.560555,114.501 65.726555,112.319 65.110555,110.253 C64.493555,108.188 62.311555,107.005 60.245555,107.638" id="Fill-115" fill="#E34576"></path>
                <path d="M61.745255,101.0582 C60.495255,101.4242 59.796255,102.7402 60.163255,103.9732 C60.529255,105.2222 61.845255,105.9222 63.077255,105.5562 C64.327255,105.1892 65.026255,103.8732 64.660255,102.6412 C64.293255,101.3912 62.978255,100.6922 61.745255,101.0582" id="Fill-117" fill="#E34576"></path>
                <path d="M53.916355,107.2884 C53.034355,107.5544 52.533355,108.4704 52.800355,109.3534 C53.050355,110.2364 53.983355,110.7364 54.865355,110.4694 C55.748355,110.2034 56.249355,109.2704 55.982355,108.4044 C55.716355,107.5214 54.783355,107.0214 53.916355,107.2884" id="Fill-119" fill="#E34576"></path>
                <path d="M21.186155,60.9149 C21.502155,58.7829 20.037155,56.8009 17.887155,56.4669 C15.756155,56.1509 13.774155,57.6169 13.441155,59.7659 C13.125155,61.8979 14.590155,63.8799 16.739155,64.2129 C18.871155,64.5299 20.853155,63.0639 21.186155,60.9149" id="Fill-121" fill="#E34576"></path>
                <path d="M26.482855,65.0793 C26.682855,63.7973 25.799855,62.5973 24.516855,62.4143 C23.234855,62.2143 22.035855,63.0963 21.852855,64.3793 C21.652855,65.6623 22.535855,66.8613 23.817855,67.0443 C25.100855,67.2443 26.299855,66.3613 26.482855,65.0793" id="Fill-123" fill="#E34576"></path>
                <path d="M24.184855,55.3349 C24.333855,54.4349 23.701855,53.5859 22.801855,53.4529 C21.884855,53.3189 21.036855,53.9359 20.902855,54.8519 C20.769855,55.7509 21.385855,56.6009 22.302855,56.7339 C23.201855,56.8839 24.051855,56.2509 24.184855,55.3349" id="Fill-125" fill="#E34576"></path>
                <path d="M83.981955,55.5178 C82.881955,53.6528 83.514955,51.2538 85.379955,50.1708 C87.245955,49.0888 89.644955,49.7208 90.727955,51.5868 C91.826955,53.4528 91.193955,55.8508 89.328955,56.9338 C87.462955,58.0168 85.063955,57.3838 83.981955,55.5178" id="Fill-127" fill="#E34576"></path>
                <path d="M80.584255,61.3482 C79.934255,60.2322 80.301255,58.7832 81.433255,58.1332 C82.549255,57.4842 83.982255,57.8672 84.632255,58.9822 C85.281255,60.0992 84.915255,61.5482 83.783255,62.1972 C82.665255,62.8472 81.233255,62.4642 80.584255,61.3482" id="Fill-129" fill="#E34576"></path>
                <path d="M79.117755,51.4538 C78.651755,50.6538 78.917755,49.6378 79.716755,49.1718 C80.518755,48.7218 81.532755,48.9888 81.982755,49.7718 C82.449755,50.5708 82.182755,51.5868 81.383755,52.0528 C80.599755,52.5198 79.584755,52.2358 79.117755,51.4538" id="Fill-131" fill="#E34576"></path>
            </g>
        </g>
    </g>
</svg>