<?xml version="1.0" encoding="UTF-8"?>
<svg width="131px" height="154px" viewBox="0 0 131 154" version="1.1" xmlns="http://www.w3.org/2000/svg" xmlns:xlink="http://www.w3.org/1999/xlink">
    <!-- Generator: Sketch 53.1 (72631) - https://sketchapp.com -->
    <title>Group 28character_6</title>
    <desc>Created with Sketch.</desc>
    <g id="Page-1" stroke="none" stroke-width="1" fill="none" fill-rule="evenodd">
        <g id="Desktop-HD" transform="translate(-111.000000, -1191.000000)">
            <g id="Group-28" transform="translate(111.000230, 1191.502100)">
                <path d="M82.5678704,108.9183 C84.7668704,109.2453 86.6098704,110.0073 87.9348704,111.0613 C89.1038704,111.9913 89.8708704,113.1463 90.1328704,114.4343 C90.3928704,115.7103 90.1518704,117.1003 89.3088704,118.5083 C88.2818704,120.2233 86.3458704,121.9743 83.3078704,123.5753 L82.2298704,122.0323 C84.9128704,120.6193 86.5948704,119.1193 87.4558704,117.6813 C88.0768704,116.6433 88.2588704,115.6443 88.0758704,114.7463 C87.8958704,113.8593 87.3538704,113.0533 86.5228704,112.3923 C85.4888704,111.5693 84.0118704,110.9683 82.2168704,110.7013 L82.5678704,108.9183 Z" id="Fill-133" fill="#3E3A39"></path>
                <path d="M47.6183704,108.9183 C45.4193704,109.2453 43.5763704,110.0073 42.2513704,111.0613 C41.0823704,111.9913 40.3153704,113.1463 40.0533704,114.4343 C39.7933704,115.7103 40.0343704,117.1003 40.8773704,118.5083 C41.9043704,120.2233 43.8403704,121.9743 46.8783704,123.5753 L47.9563704,122.0323 C45.2733704,120.6193 43.5913704,119.1193 42.7303704,117.6813 C42.1093704,116.6433 41.9273704,115.6443 42.1103704,114.7463 C42.2903704,113.8593 42.8323704,113.0533 43.6633704,112.3923 C44.6973704,111.5693 46.1743704,110.9683 47.9693704,110.7013 L47.6183704,108.9183 Z" id="Fill-135" fill="#3E3A39"></path>
                <path d="M78.3906704,90.6456 L51.9406704,90.6456 C48.5046704,90.6456 45.6926704,93.0836 45.6926704,96.0636 L45.6926704,125.5396 C45.6926704,128.5196 48.5046704,130.9576 51.9406704,130.9576 L78.3906704,130.9576 C81.8266704,130.9576 84.6386704,128.5196 84.6386704,125.5396 L84.6386704,96.0636 C84.6386704,93.0836 81.8266704,90.6456 78.3906704,90.6456" id="Fill-137" fill="#C8C9CA"></path>
                <polygon id="Fill-139" fill="#FFFFFF" points="51.2545704 119.4258 51.3265704 147.7578 46.4625704 150.4988 57.4465704 153.0098 63.2625704 127.5648"></polygon>
                <polygon id="Fill-141" fill="#FFFFFF" points="80.4653704 121.6503 74.0813704 149.2543 78.2123704 153.0093 66.9453704 153.0093 66.9453704 126.9083"></polygon>
                <path d="M73.3543704,96.9274 L72.7193704,109.2884 C83.0713704,109.4204 85.7003704,121.6504 85.7003704,121.6504 L90.7933704,121.6504 C90.7933704,100.4594 73.3543704,96.9274 73.3543704,96.9274" id="Fill-143" fill="#EEEEEF"></path>
                <path d="M73.2825704,96.9274 L65.8035704,93.8264 L58.3255704,96.9274 C58.3255704,96.9274 48.2935704,107.6894 51.9415704,125.3824 C55.4065704,135.2324 65.8035704,132.6784 65.8035704,133.5904 C65.8035704,132.6784 76.2005704,135.2324 79.6665704,125.3824 C83.3145704,107.6894 73.2825704,96.9274 73.2825704,96.9274" id="Fill-145" fill="#FECEB7"></path>
                <path d="M44.8824704,104.1748 L50.2944704,114.1568 L55.7074704,111.3448 L78.2714704,111.0638 L81.0834704,113.7088 L85.5824704,103.5418 C85.5824704,103.5418 81.5254704,99.8988 76.8404704,98.1358 C74.0544704,97.4268 60.5574704,91.2408 44.8824704,104.1748" id="Fill-147" fill="#EEEEEF"></path>
                <path d="M51.2466704,115.0263 L47.0966704,144.5413 L60.4066704,147.4543 L62.6986704,134.2763 L66.0156704,134.5053 L65.8036704,147.4543 L79.2506704,147.4543 C79.2506704,147.4543 81.3526704,126.0533 80.4656704,115.5983 C79.2466704,101.2363 77.4986704,98.1353 77.4986704,98.1353 L74.4756704,97.2333 L74.9596704,109.2893 L57.1976704,109.2893 L56.7916704,97.3683 L53.2406704,98.4183 C53.2406704,98.4183 52.4336704,104.8273 51.2466704,115.0263" id="Fill-149" fill="#EEEEEF"></path>
                <path d="M51.3260704,147.4542 L58.2590704,149.4542 L57.4460704,153.0092 L46.0520704,150.3842 C46.0520704,150.3842 46.7960704,146.3462 51.3260704,147.4542" id="Fill-151" fill="#FFFFFF"></path>
                <path d="M66.9452704,149.6751 L74.0812704,149.2541 C74.0812704,149.2541 78.2122704,148.3401 78.2122704,153.0091 L66.9452704,153.0091 L66.9452704,149.6751 Z" id="Fill-153" fill="#FFFFFF"></path>
                <polygon id="Fill-155" fill="#E05532" points="80.6839704 124.5032 49.9139704 124.5032 50.0089704 123.8302 80.6839704 123.8302"></polygon>
                <polygon id="Fill-157" fill="#EB5D3C" points="60.8230704 145.0157 47.3830704 142.3747 47.5120704 141.7137 60.9530704 144.3547"></polygon>
                <polygon id="Fill-159" fill="#EB5D3C" points="65.8513704 145.2568 65.8393704 144.5838 79.5313704 144.3478 79.4723704 145.0228"></polygon>
                <path d="M86.2318704,120.8574 C86.2318704,120.8574 83.5808704,122.6894 83.0788704,125.3384 C82.5768704,127.9884 84.6968704,127.1274 85.6048704,124.0104 C85.3218704,129.2974 86.6428704,130.1774 87.1828704,129.6944 C87.9668704,128.9924 87.8578704,126.1234 87.8578704,126.1234 C87.8578704,126.1234 87.9588704,129.0774 89.1308704,129.5874 C90.3038704,130.0984 89.9248704,125.9494 89.9248704,125.9494 C89.9248704,125.9494 90.4298704,128.6044 91.3358704,128.7274 C92.2418704,128.8504 91.4588704,124.8334 91.4588704,124.8334 C91.4588704,124.8334 91.9568704,126.3914 92.8548704,126.1314 C93.7528704,125.8714 92.6078704,120.9284 89.7448704,119.4254" id="Fill-161" fill="#EB5D3C"></path>
                <polygon id="Fill-163" fill="#FFFFFF" points="51.3260704 147.4542 51.3240704 146.5422 58.4970704 148.4122 58.2590704 149.4542"></polygon>
                <polygon id="Fill-165" fill="#FFFFFF" points="66.9452704 149.6751 66.9452704 148.7471 74.2662704 148.4521 74.0812704 149.2541"></polygon>
                <path d="M115.64707,45.8107 C116.14807,45.6297 118.63107,44.3087 122.87907,45.4907 C127.12607,46.6707 129.15307,51.0187 129.97807,53.9247 C130.80407,56.8297 130.79407,72.1757 128.22407,74.8217 C125.65407,77.4677 116.75007,78.6207 116.43807,76.5977 C116.12607,74.5737 115.64707,45.8107 115.64707,45.8107" id="Fill-167" fill="#888888"></path>
                <path d="M14.8178704,45.8107 C14.3168704,45.6297 11.8328704,44.3087 7.58587043,45.4907 C3.33887043,46.6707 1.31187043,51.0187 0.48587043,53.9247 C-0.33912957,56.8297 -0.32912957,72.1757 2.24087043,74.8217 C4.80987043,77.4677 13.7148704,78.6207 14.0268704,76.5977 C14.3388704,74.5737 14.8178704,45.8107 14.8178704,45.8107" id="Fill-169" fill="#888888"></path>
                <path d="M65.0930704,2.9964 C33.7640704,2.9964 8.36707043,28.3934 8.36707043,59.7224 C8.36707043,91.0514 33.7640704,102.5314 65.0930704,102.5314 C96.4220704,102.5314 121.81907,91.0514 121.81907,59.7224 C121.81907,28.3934 96.4220704,2.9964 65.0930704,2.9964" id="Fill-171" fill="#EEEEEF"></path>
                <path d="M76.6325704,8.52651283e-14 L53.5535704,8.52651283e-14 C51.6635704,8.52651283e-14 50.1185704,1.546 50.1185704,3.435 L50.1185704,5.99 C50.1185704,7.88 51.6635704,9.425 53.5535704,9.425 L76.6325704,9.425 C78.5215704,9.425 80.0675704,7.88 80.0675704,5.99 L80.0675704,3.435 C80.0675704,1.546 78.5215704,8.52651283e-14 76.6325704,8.52651283e-14" id="Fill-173" fill="#9E9E9F"></path>
                <path d="M75.5061704,2.5545 L54.6801704,2.5545 C53.5761704,2.5545 52.6731704,3.4575 52.6731704,4.5615 L52.6731704,4.8635 C52.6731704,5.9675 53.5761704,6.8705 54.6801704,6.8705 L75.5061704,6.8705 C76.6101704,6.8705 77.5131704,5.9675 77.5131704,4.8635 L77.5131704,4.5615 C77.5131704,3.4575 76.6101704,2.5545 75.5061704,2.5545" id="Fill-175" fill="#EEEEEF"></path>
                <path d="M125.76197,58.0478 C127.02297,58.0478 128.05197,57.0188 128.05197,55.7578 C128.05197,54.4968 127.02297,53.4678 125.76197,53.4678 C124.50097,53.4678 123.47197,54.4968 123.47197,55.7578 C123.47197,57.0188 124.50097,58.0478 125.76197,58.0478" id="Fill-177" fill="#C8C9CA"></path>
                <path d="M125.71757,65.3588 C126.97857,65.3588 128.00757,64.3298 128.00757,63.0688 C128.00757,61.8068 126.97857,60.7788 125.71757,60.7788 C124.45657,60.7788 123.42757,61.8068 123.42757,63.0688 C123.42757,64.3298 124.45657,65.3588 125.71757,65.3588" id="Fill-179" fill="#C8C9CA"></path>
                <path d="M124.68287,73.4628 C126.34487,73.4628 127.69987,72.1078 127.69987,70.4458 C127.69987,68.7848 126.34487,67.4288 124.68287,67.4288 C123.02087,67.4288 121.66587,68.7848 121.66587,70.4458 C121.66587,72.1078 123.02087,73.4628 124.68287,73.4628" id="Fill-181" fill="#C8C9CA"></path>
                <path d="M3.98567043,57.1671 C5.24667043,57.1671 6.27567043,56.1381 6.27567043,54.8771 C6.27567043,53.6151 5.24667043,52.5861 3.98567043,52.5861 C2.72467043,52.5861 1.69567043,53.6151 1.69567043,54.8771 C1.69567043,56.1381 2.72467043,57.1671 3.98567043,57.1671" id="Fill-183" fill="#C8C9CA"></path>
                <path d="M4.02977043,64.4781 C5.29077043,64.4781 6.31977043,63.4491 6.31977043,62.1881 C6.31977043,60.9261 5.29077043,59.8981 4.02977043,59.8981 C2.76877043,59.8981 1.73977043,60.9261 1.73977043,62.1881 C1.73977043,63.4491 2.76877043,64.4781 4.02977043,64.4781" id="Fill-185" fill="#C8C9CA"></path>
                <path d="M5.06467043,72.5822 C6.72667043,72.5822 8.08167043,71.2272 8.08167043,69.5652 C8.08167043,67.9042 6.72667043,66.5482 5.06467043,66.5482 C3.40267043,66.5482 2.04767043,67.9042 2.04767043,69.5652 C2.04767043,71.2272 3.40267043,72.5822 5.06467043,72.5822" id="Fill-187" fill="#C8C9CA"></path>
                <path d="M114.67297,55.237 C114.67297,66.005 111.67297,74.428 106.46197,80.846 C101.62397,86.807 94.8799704,91.037 86.8639704,93.811 L103.72397,93.811 C107.72797,91.393 111.19397,88.426 113.98997,84.854 C115.70497,82.663 117.16897,80.243 118.34997,77.583 C120.59397,72.528 121.81897,66.604 121.81897,59.723 C121.81897,54.635 121.14997,49.703 119.89297,45.011 C115.77297,29.626 105.34697,16.82 91.5539704,9.533 C105.57597,19.861 114.67297,36.487 114.67297,55.237" id="Fill-189" fill="#DCDCDF"></path>
                <path d="M66.0945704,6.8893 C66.0945704,6.8893 33.8885704,4.3223 20.3785704,35.3953 C6.86857043,66.4673 27.8255704,81.2853 41.3945704,84.1443 C54.9635704,87.0023 99.8135704,86.8673 110.55657,73.3573 C121.29857,59.8483 118.18957,6.2133 66.0945704,6.8893" id="Fill-191" fill="#C1401E"></path>
                <path d="M21.6329704,57.1534 C21.6329704,79.9184 41.5389704,98.3734 66.0949704,98.3734 C90.6499704,98.3734 110.55597,79.9184 110.55597,57.1534 C110.55597,34.3884 90.6499704,15.9334 66.0949704,15.9334 C41.5389704,15.9334 21.6329704,34.3884 21.6329704,57.1534" id="Fill-193" fill="#FECEB7"></path>
                <path d="M35.5344704,61.0957 C35.5344704,66.3047 39.7574704,70.5277 44.9664704,70.5277 C50.1754704,70.5277 54.3984704,66.3047 54.3984704,61.0957 C54.3984704,55.8867 50.1754704,51.6637 44.9664704,51.6637 C39.7574704,51.6637 35.5344704,55.8867 35.5344704,61.0957" id="Fill-195" fill="#FFFFFF"></path>
                <path d="M37.4994704,61.0957 C37.4994704,65.2197 40.8424704,68.5627 44.9664704,68.5627 C49.0904704,68.5627 52.4334704,65.2197 52.4334704,61.0957 C52.4334704,56.9717 49.0904704,53.6287 44.9664704,53.6287 C40.8424704,53.6287 37.4994704,56.9717 37.4994704,61.0957" id="Fill-197" fill="#432918"></path>
                <path d="M77.6491704,61.0957 C77.6491704,66.3047 81.8721704,70.5277 87.0811704,70.5277 C92.2901704,70.5277 96.5131704,66.3047 96.5131704,61.0957 C96.5131704,55.8867 92.2901704,51.6637 87.0811704,51.6637 C81.8721704,51.6637 77.6491704,55.8867 77.6491704,61.0957" id="Fill-199" fill="#FFFFFF"></path>
                <path d="M79.6140704,61.0957 C79.6140704,65.2197 82.9570704,68.5627 87.0810704,68.5627 C91.2050704,68.5627 94.5480704,65.2197 94.5480704,61.0957 C94.5480704,56.9717 91.2050704,53.6287 87.0810704,53.6287 C82.9570704,53.6287 79.6140704,56.9717 79.6140704,61.0957" id="Fill-201" fill="#432918"></path>
                <path d="M41.5743704,14.3206 C41.5743704,14.3206 57.2543704,54.9866 112.91137,58.7096 C115.42037,17.4906 88.1943704,2.3856 41.5743704,14.3206" id="Fill-203" fill="#C1401E"></path>
                <path d="M24.1182704,58.9392 C24.1182704,58.9392 18.2462704,55.5462 16.1582704,61.1572 C14.0702704,66.7692 19.4372704,73.2392 27.1192704,72.8082 L24.1182704,58.9392 Z" id="Fill-205" fill="#FECEB7"></path>
                <path d="M108.78467,58.9392 C108.78467,58.9392 114.65667,55.5462 116.74467,61.1572 C118.83267,66.7692 113.46467,73.2392 105.78367,72.8082 L108.78467,58.9392 Z" id="Fill-207" fill="#FECEB7"></path>
                <path d="M39.4810704,71.6178 C39.6800704,70.1468 37.8390704,68.4658 35.3690704,67.8638 C32.9000704,67.2618 30.7360704,67.9668 30.5380704,69.4378 C30.3390704,70.9088 32.1800704,72.5888 34.6500704,73.1908 C37.1190704,73.7928 39.2820704,73.0888 39.4810704,71.6178" id="Fill-209" fill="#FEAD8C"></path>
                <path d="M92.5662704,71.6178 C92.3672704,70.1468 94.2082704,68.4658 96.6782704,67.8638 C99.1472704,67.2618 101.31127,67.9668 101.50927,69.4378 C101.70827,70.9088 99.8672704,72.5888 97.3972704,73.1908 C94.9282704,73.7928 92.7652704,73.0888 92.5662704,71.6178" id="Fill-211" fill="#FEAD8C"></path>
                <path d="M36.9515704,45.0536 C36.9515704,45.0536 41.7885704,36.5946 52.9815704,40.8886 C47.7755704,33.8616 37.5805704,37.3756 36.9515704,45.0536" id="Fill-213" fill="#B2351D"></path>
                <path d="M95.0957704,45.0536 C95.0957704,45.0536 90.2587704,36.5946 79.0657704,40.8886 C84.2717704,33.8616 94.4667704,37.3756 95.0957704,45.0536" id="Fill-215" fill="#B2351D"></path>
                <path d="M70.5937704,72.4146 C70.0777704,74.0466 68.4377704,78.1316 64.9897704,77.8436 C61.6757704,77.5676 60.7407704,74.1086 60.4857704,72.5316 C58.6557704,72.7916 56.0527704,74.4956 59.2297704,77.6636 C59.2687704,77.7026 59.3087704,77.7416 59.3477704,77.7796 C62.3097704,80.6386 67.1697704,80.7146 70.6767704,78.2166 C72.0517704,77.2376 73.4237704,75.9556 73.4427704,74.7296 C73.4767704,72.4686 72.1067704,72.0486 70.5937704,72.4146" id="Fill-217" fill="#E84E1B"></path>
                <path d="M64.9893704,77.8439 C69.0543704,78.1999 70.0773704,74.0469 70.5933704,72.4149 C69.5933704,72.6569 68.5313704,73.2379 67.7673704,73.8709 C65.8503704,75.4589 62.9103704,73.1579 61.5963704,72.5999 C61.3373704,72.4899 60.9343704,72.4679 60.4853704,72.5319 C60.7413704,74.1079 61.6773704,77.5539 64.9893704,77.8439" id="Fill-219" fill="#FFFFFF"></path>
                <path d="M21.8416704,64.9472 C22.0436704,64.3732 22.4176704,64.2782 22.7846704,64.3592 C22.5476704,63.0062 22.4616704,62.1612 22.4616704,62.1612 C22.4426704,62.1422 22.4246704,62.1242 22.4056704,62.1062 C20.5606704,60.3332 17.5326704,62.3122 18.3246704,64.7452 C18.9366704,66.6282 20.9296704,67.8312 23.6926704,68.4692 C23.5006704,67.7522 23.3366704,67.0702 23.1966704,66.4342 C22.4406704,66.2122 21.5516704,65.7702 21.8416704,64.9472" id="Fill-221" fill="#FEAD8C"></path>
                <path d="M110.38167,64.9472 C110.17967,64.3732 109.80567,64.2782 109.43867,64.3592 C109.67567,63.0062 109.76167,62.1612 109.76167,62.1612 C109.77967,62.1422 109.79867,62.1242 109.81767,62.1062 C111.66267,60.3332 114.69067,62.3122 113.89867,64.7452 C113.28667,66.6282 111.29367,67.8312 108.53067,68.4692 C108.72267,67.7522 108.88667,67.0702 109.02667,66.4342 C109.78267,66.2122 110.67167,65.7702 110.38167,64.9472" id="Fill-223" fill="#FEAD8C"></path>
                <path d="M110.18727,30.9105 C109.74727,31.0645 109.29227,31.2195 108.81527,31.3785 C98.2872704,34.8755 78.4872704,39.5065 60.2312704,38.6435 C67.3522704,44.7145 76.9042704,50.5725 89.3632704,54.4335 C96.4842704,54.2745 104.50327,53.7405 113.08427,52.6195 C113.90327,52.5125 114.72427,52.4025 115.55227,52.2855 C115.29827,45.3655 113.66527,37.8265 110.18727,30.9105" id="Fill-225" fill="#F07353"></path>
                <path d="M28.2990704,35.4358 L21.6330704,32.7098 C21.6330704,32.7098 19.5740704,36.7088 18.5150704,40.2018 C20.9000704,41.7838 24.1160704,43.5428 24.1160704,43.5428 C24.1160704,43.5428 25.7770704,39.0078 28.2990704,35.4358" id="Fill-227" fill="#F07353"></path>
                <path d="M37.5204704,57.1534 C37.5204704,55.2224 39.0854704,53.6574 41.0164704,53.6574 C42.9474704,53.6574 44.5134704,55.2224 44.5134704,57.1534 C44.5134704,59.0844 42.9474704,60.6494 41.0164704,60.6494 C39.0854704,60.6494 37.5204704,59.0844 37.5204704,57.1534" id="Fill-229" fill="#FFFFFF"></path>
                <path d="M79.7887704,57.1534 C79.7887704,55.2224 81.3537704,53.6574 83.2847704,53.6574 C85.2157704,53.6574 86.7817704,55.2224 86.7817704,57.1534 C86.7817704,59.0844 85.2157704,60.6494 83.2847704,60.6494 C81.3537704,60.6494 79.7887704,59.0844 79.7887704,57.1534" id="Fill-231" fill="#FFFFFF"></path>
                <path d="M52.8933704,114.0883 C52.8933704,114.0883 35.4423704,117.5643 27.2603704,98.0163 C27.1093704,98.0793 31.9593704,96.0493 31.9593704,96.0493 C31.9593704,96.0493 39.1063704,106.3163 48.7063704,102.4403 L52.8933704,114.0883 Z" id="Fill-233" fill="#EEEEEF"></path>
                <path d="M31.9496704,96.913 C31.9496704,96.913 33.6876704,94.2 33.1276704,91.562 C32.5676704,88.923 30.9446704,90.536 31.3106704,93.762 C29.5306704,88.776 27.9716704,88.474 27.6596704,89.129 C27.2086704,90.079 28.4166704,92.683 28.4166704,92.683 C28.4166704,92.683 27.1826704,89.997 25.9036704,89.979 C24.6256704,89.961 26.5766704,93.642 26.5766704,93.642 C26.5766704,93.642 25.0856704,91.387 24.2026704,91.624 C23.3196704,91.86 25.5926704,95.263 25.5926704,95.263 C25.5926704,95.263 24.5316704,94.019 23.8036704,94.606 C23.0756704,95.192 26.0416704,99.31 29.2616704,99.59" id="Fill-235" fill="#EB5D3C"></path>
                <path d="M77.5187704,123.5207 L53.0797704,123.5207 C52.7277704,123.5207 52.4397704,123.7707 52.4397704,124.0757 L52.4397704,124.5517 C52.4397704,124.8567 52.7277704,125.1067 53.0797704,125.1067 L77.5187704,125.1067 C77.8707704,125.1067 78.1587704,124.8567 78.1587704,124.5517 L78.1587704,124.0757 C78.1587704,123.7707 77.8707704,123.5207 77.5187704,123.5207" id="Fill-237" fill="#EB5D3C"></path>
                <path d="M77.5185704,123.5207 L65.2275704,123.5207 L64.5085704,125.1067 L77.5185704,125.1067 C77.8705704,125.1067 78.1585704,124.8567 78.1585704,124.5517 L78.1585704,124.0757 C78.1585704,123.7707 77.8705704,123.5207 77.5185704,123.5207" id="Fill-239" fill="#E05532"></path>
                <polygon id="Fill-241" fill="#C8C9CA" points="54.2601704 103.2058 60.5951704 110.3548 61.9051704 107.4178 57.6141704 103.2058"></polygon>
                <polygon id="Fill-243" fill="#C8C9CA" points="75.2979704 103.4255 68.9629704 110.5745 67.6529704 107.6375 71.9439704 103.4255"></polygon>
                <polygon id="Fill-245" fill="#B4B5B5" points="52.1377704 123.3639 78.4607704 123.3639 78.4607704 120.8839 52.1377704 120.8839"></polygon>
                <path d="M78.5849704,112.393 L52.0129704,112.393 C51.8259704,112.393 51.6739704,112.525 51.6739704,112.687 L51.6739704,115.409 C51.6739704,115.571 51.8259704,115.703 52.0129704,115.703 L78.5849704,115.703 C78.7719704,115.703 78.9249704,115.571 78.9249704,115.409 L78.9249704,112.687 C78.9249704,112.525 78.7719704,112.393 78.5849704,112.393" id="Fill-247" fill="#C8C9CA"></path>
                <path d="M68.8656704,105.811 L60.7866704,105.811 C59.5856704,105.811 58.6036704,106.662 58.6036704,107.703 L58.6036704,117.083 C58.6036704,118.123 59.5856704,118.975 60.7866704,118.975 L68.8656704,118.975 C70.0656704,118.975 71.0476704,118.123 71.0476704,117.083 L71.0476704,107.703 C71.0476704,106.662 70.0656704,105.811 68.8656704,105.811" id="Fill-248" fill="#DBDCDC"></path>
                <path d="M67.6746704,110.3303 C68.7056704,110.3303 69.5476704,109.6013 69.5476704,108.7063 C69.5476704,107.8123 68.7056704,107.0833 67.6746704,107.0833 C66.6436704,107.0833 65.8026704,107.8123 65.8026704,108.7063 C65.8026704,109.6013 66.6436704,110.3303 67.6746704,110.3303" id="Fill-249" fill="#595857"></path>
                <path d="M68.5310704,111.5706 L61.0400704,111.5706 C60.6470704,111.5706 60.3250704,111.8496 60.3250704,112.1906 L60.3250704,116.8416 C60.3250704,117.1826 60.6470704,117.4616 61.0400704,117.4616 L68.5310704,117.4616 C68.9240704,117.4616 69.2460704,117.1826 69.2460704,116.8416 L69.2460704,112.1906 C69.2460704,111.8496 68.9240704,111.5706 68.5310704,111.5706" id="Fill-250" fill="#9E9E9F"></path>
                <path d="M64.4662704,107.0829 L64.3902704,107.0829 C64.0902704,107.0829 63.8452704,107.2959 63.8452704,107.5559 L63.8452704,109.8569 C63.8452704,110.1179 64.0902704,110.3299 64.3902704,110.3299 L64.4662704,110.3299 C64.7662704,110.3299 65.0122704,110.1179 65.0122704,109.8569 L65.0122704,107.5559 C65.0122704,107.2959 64.7662704,107.0829 64.4662704,107.0829" id="Fill-251" fill="#9E9E9F"></path>
                <path d="M62.8101704,107.0829 L62.7341704,107.0829 C62.4341704,107.0829 62.1891704,107.2959 62.1891704,107.5559 L62.1891704,109.8569 C62.1891704,110.1179 62.4341704,110.3299 62.7341704,110.3299 L62.8101704,110.3299 C63.1101704,110.3299 63.3561704,110.1179 63.3561704,109.8569 L63.3561704,107.5559 C63.3561704,107.2959 63.1101704,107.0829 62.8101704,107.0829" id="Fill-252" fill="#9E9E9F"></path>
                <path d="M61.1540704,107.0829 L61.0780704,107.0829 C60.7780704,107.0829 60.5330704,107.2959 60.5330704,107.5559 L60.5330704,109.8569 C60.5330704,110.1179 60.7780704,110.3299 61.0780704,110.3299 L61.1540704,110.3299 C61.4540704,110.3299 61.6990704,110.1179 61.6990704,109.8569 L61.6990704,107.5559 C61.6990704,107.2959 61.4540704,107.0829 61.1540704,107.0829" id="Fill-253" fill="#9E9E9F"></path>
                <path d="M67.1574704,116.9558 C67.8264704,116.9558 68.3714704,116.4828 68.3714704,115.9028 C68.3714704,115.3238 67.8264704,114.8508 67.1574704,114.8508 C66.4884704,114.8508 65.9434704,115.3238 65.9434704,115.9028 C65.9434704,116.4828 66.4884704,116.9558 67.1574704,116.9558" id="Fill-254" fill="#B4B5B5"></path>
                <path d="M62.0669704,113.3571 C62.3989704,113.3571 62.6689704,113.1221 62.6689704,112.8351 C62.6689704,112.5471 62.3989704,112.3131 62.0669704,112.3131 C61.7349704,112.3131 61.4649704,112.5471 61.4649704,112.8351 C61.4649704,113.1221 61.7349704,113.3571 62.0669704,113.3571" id="Fill-255" fill="#B4B5B5"></path>
                <path d="M72.6010704,119.6275 L68.9880704,119.6275 C68.6560704,119.6275 68.3850704,119.8625 68.3850704,120.1495 L68.3850704,123.9355 C68.3850704,124.2225 68.6560704,124.4575 68.9880704,124.4575 L72.6010704,124.4575 C72.9320704,124.4575 73.2030704,124.2225 73.2030704,123.9355 L73.2030704,120.1495 C73.2030704,119.8625 72.9320704,119.6275 72.6010704,119.6275" id="Fill-256" fill="#C8C9CA"></path>
                <path d="M73.2703704,119.5949 L68.3183704,119.5949 L68.3183704,121.2239 C68.8583704,121.6989 69.7663704,122.0099 70.7943704,122.0099 C71.8233704,122.0099 72.7303704,121.6989 73.2703704,121.2239 L73.2703704,119.5949 Z" id="Fill-257" fill="#DBDCDC"></path>
                <path d="M70.7944704,121.757 C70.9374704,121.757 71.0534704,121.656 71.0534704,121.533 C71.0534704,121.409 70.9374704,121.308 70.7944704,121.308 C70.6514704,121.308 70.5354704,121.409 70.5354704,121.533 C70.5354704,121.656 70.6514704,121.757 70.7944704,121.757" id="Fill-258" fill="#888888"></path>
                <path d="M67.1057704,119.6928 L63.4927704,119.6928 C63.1607704,119.6928 62.8897704,119.9278 62.8897704,120.2148 L62.8897704,124.0008 C62.8897704,124.2878 63.1607704,124.5228 63.4927704,124.5228 L67.1057704,124.5228 C67.4367704,124.5228 67.7077704,124.2878 67.7077704,124.0008 L67.7077704,120.2148 C67.7077704,119.9278 67.4367704,119.6928 67.1057704,119.6928" id="Fill-259" fill="#C8C9CA"></path>
                <path d="M67.7749704,119.6602 L62.8229704,119.6602 L62.8229704,121.2892 C63.3629704,121.7642 64.2709704,122.0752 65.2989704,122.0752 C66.3279704,122.0752 67.2349704,121.7642 67.7749704,121.2892 L67.7749704,119.6602 Z" id="Fill-260" fill="#DBDCDC"></path>
                <path d="M65.2990704,121.8223 C65.4420704,121.8223 65.5580704,121.7213 65.5580704,121.5983 C65.5580704,121.4743 65.4420704,121.3733 65.2990704,121.3733 C65.1560704,121.3733 65.0400704,121.4743 65.0400704,121.5983 C65.0400704,121.7213 65.1560704,121.8223 65.2990704,121.8223" id="Fill-261" fill="#888888"></path>
                <path d="M61.6103704,119.7582 L57.9973704,119.7582 C57.6653704,119.7582 57.3943704,119.9932 57.3943704,120.2802 L57.3943704,124.0662 C57.3943704,124.3532 57.6653704,124.5882 57.9973704,124.5882 L61.6103704,124.5882 C61.9413704,124.5882 62.2123704,124.3532 62.2123704,124.0662 L62.2123704,120.2802 C62.2123704,119.9932 61.9413704,119.7582 61.6103704,119.7582" id="Fill-262" fill="#C8C9CA"></path>
                <path d="M62.2795704,119.7254 L57.3275704,119.7254 L57.3275704,121.3544 C57.8675704,121.8294 58.7755704,122.1404 59.8035704,122.1404 C60.8325704,122.1404 61.7395704,121.8294 62.2795704,121.3544 L62.2795704,119.7254 Z" id="Fill-263" fill="#DBDCDC"></path>
                <path d="M59.8038704,121.8876 C59.9468704,121.8876 60.0628704,121.7866 60.0628704,121.6636 C60.0628704,121.5396 59.9468704,121.4386 59.8038704,121.4386 C59.6608704,121.4386 59.5448704,121.5396 59.5448704,121.6636 C59.5448704,121.7866 59.6608704,121.8876 59.8038704,121.8876" id="Fill-264" fill="#888888"></path>
                <path d="M73.2033704,121.2805 L73.2033704,123.3645 L77.0873704,123.3645 L78.1673704,123.3645 L78.4603704,123.3645 L78.4603704,121.4665 L78.4603704,120.8835 L78.3023704,120.8835 L77.9313704,120.8835 L74.8423704,120.8835 L73.2703704,120.8835 L73.2703704,121.2245 C73.2483704,121.2435 73.2263704,121.2615 73.2033704,121.2805" id="Fill-265" fill="#C1C0C0"></path>
                <path d="M73.2033704,123.3642 L73.2033704,121.2802 C72.6573704,121.7232 71.7813704,122.0102 70.7943704,122.0102 C70.0603704,122.0102 69.3873704,121.8512 68.8663704,121.5872 C68.7043704,121.7022 68.5443704,121.8122 68.3853704,121.9152 L68.3853704,123.3642 L68.3853704,123.5202 L68.3853704,123.7862 L68.3853704,123.9352 C68.3853704,124.2232 68.6563704,124.4582 68.9873704,124.4582 L72.6013704,124.4582 C72.9323704,124.4582 73.2033704,124.2232 73.2033704,123.9352 L73.2033704,123.7862 L73.2033704,123.5202 L73.2033704,123.3642 Z" id="Fill-266" fill="#AAABAA"></path>
                <path d="M67.7079704,123.7863 L67.7079704,123.5203 L67.7079704,123.3643 L67.7079704,122.3303 C66.7879704,123.1933 66.0379704,123.7863 64.7739704,124.5233 L67.1059704,124.5233 C67.4369704,124.5233 67.7079704,124.2883 67.7079704,124.0013 L67.7079704,123.7863 Z" id="Fill-267" fill="#AAABAA"></path>
                <path d="M70.7944704,121.3084 C70.9374704,121.3084 71.0534704,121.4084 71.0534704,121.5324 C71.0534704,121.6564 70.9374704,121.7574 70.7944704,121.7574 C70.6514704,121.7574 70.5354704,121.6564 70.5354704,121.5324 C70.5354704,121.4084 70.6514704,121.3084 70.7944704,121.3084 M68.8664704,121.5874 C69.3874704,121.8514 70.0604704,122.0104 70.7944704,122.0104 C71.7814704,122.0104 72.6574704,121.7234 73.2034704,121.2804 C73.2264704,121.2624 73.2484704,121.2434 73.2704704,121.2244 L73.2704704,120.8834 L73.2704704,120.2634 L73.2704704,119.5954 L71.0734704,119.5954 C71.0644704,119.6054 71.0554704,119.6164 71.0454704,119.6274 C71.0284704,119.6474 71.0114704,119.6664 70.9944704,119.6864 C70.6054704,120.1274 70.1914704,120.5264 69.7714704,120.8834 C69.4704704,121.1394 69.1664704,121.3734 68.8664704,121.5874" id="Fill-268" fill="#BDB9BA"></path>
                <path d="M72.8990704,115.7033 L80.0290704,115.7033 L80.0390704,115.7033 C80.2730704,115.7033 80.4650704,115.5713 80.4650704,115.4093 L80.4650704,114.2113 L80.4650704,112.6873 C80.4650704,112.6293 80.4410704,112.5753 80.3990704,112.5293 C80.3290704,112.4543 80.2100704,112.4023 80.0740704,112.3943 C80.0630704,112.3933 80.0510704,112.3933 80.0390704,112.3933 L79.7830704,112.3933 L78.9440704,112.3933 L73.6240704,112.3933 C73.5080704,113.4963 73.2600704,114.6363 72.8990704,115.7033" id="Fill-269" fill="#C1C0C0"></path>
                <path d="M72.4560704,106.6324 L74.7600704,104.0324 L71.3250704,104.0324 L71.0690704,104.2844 C71.2930704,104.6204 71.7410704,105.3304 72.4560704,106.6324" id="Fill-270" fill="#C1C0C0"></path>
                <path d="M79.4569704,99.5988 L53.0409704,99.5988 C52.3179704,99.5988 51.7269704,100.1118 51.7269704,100.7388 L51.7269704,101.7158 C51.7269704,102.3428 52.3179704,102.8558 53.0409704,102.8558 L79.4569704,102.8558 C80.1799704,102.8558 80.7709704,102.3428 80.7709704,101.7158 L80.7709704,100.7388 C80.7709704,100.1118 80.1799704,99.5988 79.4569704,99.5988" id="Fill-271" fill="#EB5D3C"></path>
                <path d="M80.8203704,102.2765 L51.6783704,102.2765 C51.3833704,102.2765 51.1423704,102.4855 51.1423704,102.7405 L51.1423704,103.1385 C51.1423704,103.3945 51.3833704,103.6035 51.6783704,103.6035 L80.8203704,103.6035 C81.1153704,103.6035 81.3553704,103.3945 81.3553704,103.1385 L81.3553704,102.7405 C81.3553704,102.4855 81.1153704,102.2765 80.8203704,102.2765" id="Fill-272" fill="#C1401E"></path>
                <path d="M28.2931704,79.0744 C26.2421704,78.6584 10.3081704,77.0254 6.77717043,77.3844 C8.15917043,75.2674 8.83017043,74.4664 10.6441704,72.3864 C9.60317043,70.5514 8.30417043,68.1494 7.33617043,66.0524 C15.2441704,65.8254 20.8481704,66.7024 30.1961704,67.6494 C27.7501704,69.9434 27.1601704,76.4124 28.2931704,79.0744" id="Fill-273" fill="#FFFFFF"></path>
                <path d="M21.5888704,74.1086 C20.7528704,74.1356 19.8298704,74.1156 18.8628704,74.0416 C17.8958704,73.9676 16.9818704,73.8476 16.1648704,73.6936 C16.7448704,74.4156 17.6748704,74.9176 18.7648704,75.0006 C19.8548704,75.0846 20.8718704,74.7316 21.5888704,74.1086" id="Fill-274" fill="#888888"></path>
                <path d="M22.6008704,71.5823 C22.5908704,71.5093 22.5788704,71.4373 22.5628704,71.3663 C22.2758704,70.0453 21.0078704,68.9973 19.3878704,68.8733 C17.7688704,68.7493 16.3078704,69.5893 15.7588704,70.8453 C15.7298704,70.9133 15.7028704,70.9823 15.6788704,71.0523 C15.6108704,71.2493 15.5648704,71.4543 15.5428704,71.6673 C15.5058704,72.0373 15.5448704,72.3983 15.6508704,72.7383 C16.5668704,72.9383 17.7058704,73.1023 18.9488704,73.1973 C20.1908704,73.2923 21.3458704,73.3033 22.2878704,73.2463 C22.4598704,72.9273 22.5728704,72.5783 22.6098704,72.2073 C22.6318704,71.9953 22.6278704,71.7863 22.6008704,71.5823" id="Fill-275" fill="#888888"></path>
                <path d="M15.6509704,72.7383 C14.2879704,72.4413 13.4229704,72.0643 13.4579704,71.7163 C13.4919704,71.3813 14.3579704,71.1463 15.6789704,71.0523 C15.7029704,70.9823 15.7299704,70.9133 15.7589704,70.8453 C13.8309704,70.9773 12.5099704,71.3833 12.4519704,71.9573 C12.3869704,72.5983 13.9139704,73.2713 16.1649704,73.6933 C16.9819704,73.8473 17.8959704,73.9673 18.8629704,74.0413 C19.8299704,74.1153 20.7529704,74.1353 21.5889704,74.1083 C23.8909704,74.0343 25.5299704,73.6033 25.5949704,72.9623 C25.6539704,72.3883 24.4349704,71.7883 22.5629704,71.3663 C22.5789704,71.4373 22.5909704,71.5093 22.6009704,71.5823 C23.8819704,71.8743 24.6869704,72.2373 24.6529704,72.5723 C24.6179704,72.9203 23.6889704,73.1603 22.2879704,73.2463 C21.3459704,73.3033 20.1909704,73.2923 18.9489704,73.1973 C17.7059704,73.1023 16.5659704,72.9383 15.6509704,72.7383" id="Fill-276" fill="#595857"></path>
                <polygon id="Fill-277" fill="#3E3A39" points="29.6441704 66.3286 25.8051704 100.4346 26.8341704 100.6326 30.6891704 66.6486"></polygon>
                <path d="M29.2782704,67.431 C29.5882704,67.352 30.5962704,67.201 30.8102704,67.638 C31.0232704,68.075 31.1402704,68.641 30.3382704,68.692 C29.5362704,68.742 29.0452704,68.541 28.9482704,68.288 C28.8512704,68.036 29.2782704,67.431 29.2782704,67.431" id="Fill-278" fill="#FFFFFF"></path>
                <path d="M30.3962704,67.7219 C30.6232704,67.5359 32.2382704,67.3469 32.2382704,67.3469 C32.2382704,67.3469 31.9702704,67.9109 31.3642704,68.0119 C30.7592704,68.1119 30.3962704,67.7219 30.3962704,67.7219" id="Fill-279" fill="#FFFFFF"></path>
                <path d="M30.4929704,68.0201 C30.6109704,68.0261 30.8739704,68.0011 31.3279704,68.4041 C31.7809704,68.8081 32.1349704,69.2731 32.0359704,69.2081 C31.9379704,69.1441 31.0719704,69.2011 30.7299704,68.8981 C30.3879704,68.5941 30.4929704,68.0201 30.4929704,68.0201" id="Fill-280" fill="#FFFFFF"></path>
                <path d="M28.1446704,78.3654 C28.3886704,78.3104 29.1826704,78.2034 29.3496704,78.5114 C29.5176704,78.8184 29.6096704,79.2164 28.9786704,79.2524 C28.3476704,79.2874 27.9616704,79.1464 27.8856704,78.9684 C27.8086704,78.7914 28.1446704,78.3654 28.1446704,78.3654" id="Fill-281" fill="#FFFFFF"></path>
                <path d="M28.8136704,78.596 C29.0936704,78.391 31.0866704,78.182 31.0866704,78.182 C31.0866704,78.182 30.7566704,78.805 30.0086704,78.915 C29.2606704,79.026 28.8136704,78.596 28.8136704,78.596" id="Fill-282" fill="#FFFFFF"></path>
                <path d="M28.9330704,78.9249 C29.0780704,78.9309 29.4030704,78.9039 29.9630704,79.3489 C30.5220704,79.7939 30.9600704,80.3069 30.8380704,80.2359 C30.7160704,80.1649 29.6480704,80.2279 29.2260704,79.8929 C28.8030704,79.5579 28.9330704,78.9249 28.9330704,78.9249" id="Fill-283" fill="#FFFFFF"></path>
            </g>
        </g>
    </g>
</svg>