<?xml version="1.0" encoding="UTF-8"?>
<svg width="155px" height="131px" viewBox="0 0 155 131" version="1.1" xmlns="http://www.w3.org/2000/svg" xmlns:xlink="http://www.w3.org/1999/xlink">
    <!-- Generator: Sketch 53.1 (72631) - https://sketchapp.com -->
    <title>Group 27</title>
    <desc>Created with Sketch.</desc>
    <g id="Page-1" stroke="none" stroke-width="1" fill="none" fill-rule="evenodd">
        <g id="Group-27" transform="translate(0.000100, 0.122700)">
            <polygon id="Fill-518" fill="#BD6539" points="104.8819 130.5513 108.2989 130.5513 108.2989 48.4633 104.8819 48.4633"></polygon>
            <path d="M106.5896,48.4635 C106.5896,48.4635 77.5156,51.0885 79.9806,80.9295 C79.9806,80.9295 82.9576,77.8815 83.8176,75.2625 C83.8176,75.2625 84.7396,76.6815 84.3966,78.3135 C84.3966,78.3135 86.7976,75.3655 87.1666,72.3685 C87.1666,72.3685 87.7816,73.4005 87.4856,75.0275 C87.4856,75.0275 90.0456,72.3755 90.6116,70.4265 C90.6116,70.4265 91.1726,71.2065 90.6666,72.4485 C90.6666,72.4485 93.0766,69.7975 93.3586,66.3975 C93.3586,66.3975 94.2666,67.0615 94.2626,68.8305 C94.2626,68.8305 97.0266,64.6445 97.1036,62.4205 C97.1036,62.4205 98.2536,62.7495 97.8196,64.4715 C97.8196,64.4715 105.0066,57.7075 106.5896,48.4635" id="Fill-519" fill="#036633"></path>
            <path d="M106.5896,48.4635 C106.5896,48.4635 106.0516,17.9755 76.8486,18.4125 C76.8486,18.4125 79.6096,21.7295 82.0996,22.8155 C82.0996,22.8155 80.6526,23.6715 79.0856,23.1965 C79.0856,23.1965 81.7916,25.9135 84.6856,26.5105 C84.6856,26.5105 83.6376,27.0805 82.0706,26.6555 C82.0706,26.6555 84.4756,29.5095 86.3316,30.2405 C86.3316,30.2405 85.5346,30.7625 84.3636,30.1505 C84.3636,30.1505 86.7726,32.8525 90.0646,33.3915 C90.0646,33.3915 89.3556,34.2905 87.6326,34.1555 C87.6326,34.1555 91.5096,37.3385 93.6726,37.5785 C93.6726,37.5785 93.2726,38.7545 91.6246,38.1785 C91.6246,38.1785 97.7086,46.1485 106.5896,48.4635" id="Fill-520" fill="#2C7201"></path>
            <path d="M106.5896,48.4635 C106.5896,48.4635 82.0086,26.4735 59.0416,51.7185 C59.0416,51.7185 63.8746,51.8065 66.7196,50.4795 C66.7196,50.4795 66.2446,52.3475 64.6206,53.3345 C64.6206,53.3345 68.9306,53.0245 71.7176,50.9975 C71.7176,50.9975 71.3326,52.3065 69.7416,53.3345 C69.7416,53.3345 73.9256,53.3825 75.9836,52.3335 C75.9836,52.3335 75.7626,53.4015 74.3406,53.9475 C74.3406,53.9475 78.4056,53.8835 81.4566,51.4715 C81.4566,51.4715 81.6056,52.7365 80.1246,54.1095 C80.1246,54.1095 85.7396,53.1425 87.6566,51.4755 C87.6566,51.4755 88.2666,52.6795 86.4956,53.6625 C86.4956,53.6625 97.6666,54.3385 106.5896,48.4635" id="Fill-521" fill="#036633"></path>
            <path d="M115.3621,64.4714 C114.9261,62.7494 116.0741,62.4204 116.0741,62.4204 C116.1531,64.6444 118.9201,68.8304 118.9201,68.8304 C118.9121,67.0614 119.8211,66.3974 119.8211,66.3974 C120.1021,69.7984 122.5161,72.4494 122.5161,72.4494 C122.0121,71.2064 122.5701,70.4264 122.5701,70.4264 C123.1321,72.3754 125.6961,75.0284 125.6961,75.0284 C125.3971,73.4014 126.0131,72.3684 126.0131,72.3684 C126.3831,75.3654 128.7871,78.3134 128.7871,78.3134 C128.4421,76.6814 129.3621,75.2634 129.3621,75.2634 C130.2241,77.8824 133.1991,80.9294 133.1991,80.9294 C135.6651,51.0894 106.5901,48.4634 106.5901,48.4634 C108.1751,57.7074 115.3621,64.4714 115.3621,64.4714" id="Fill-522" fill="#036633"></path>
            <path d="M121.5564,38.1784 C119.9104,38.7544 119.5064,37.5784 119.5064,37.5784 C121.6704,37.3384 125.5494,34.1564 125.5494,34.1564 C123.8274,34.2904 123.1164,33.3914 123.1164,33.3914 C126.4074,32.8524 128.8144,30.1504 128.8144,30.1504 C127.6444,30.7624 126.8474,30.2404 126.8474,30.2404 C128.7024,29.5094 131.1094,26.6564 131.1094,26.6564 C129.5414,27.0804 128.4944,26.5114 128.4944,26.5114 C131.3884,25.9134 134.0934,23.1964 134.0934,23.1964 C132.5264,23.6714 131.0834,22.8154 131.0834,22.8154 C133.5754,21.7294 136.3334,18.4124 136.3334,18.4124 C107.1284,17.9754 106.5894,48.4634 106.5894,48.4634 C115.4754,46.1484 121.5564,38.1784 121.5564,38.1784" id="Fill-523" fill="#2C7201"></path>
            <path d="M126.6834,53.6628 C124.9134,52.6798 125.5224,51.4748 125.5224,51.4748 C127.4394,53.1418 133.0554,54.1098 133.0554,54.1098 C131.5774,52.7368 131.7254,51.4718 131.7254,51.4718 C134.7774,53.8838 138.8374,53.9478 138.8374,53.9478 C137.4164,53.4018 137.1964,52.3328 137.1964,52.3328 C139.2534,53.3828 143.4374,53.3348 143.4374,53.3348 C141.8504,52.3068 141.4654,50.9968 141.4654,50.9968 C144.2514,53.0238 148.5584,53.3348 148.5584,53.3348 C146.9374,52.3478 146.4554,50.4798 146.4554,50.4798 C149.3054,51.8068 154.1394,51.7188 154.1394,51.7188 C131.1704,26.4738 106.5894,48.4638 106.5894,48.4638 C115.5134,54.3388 126.6834,53.6628 126.6834,53.6628" id="Fill-526" fill="#036633"></path>
            <path d="M49.156,49.1681 C49.156,49.1681 27.422,75.2371 53.966,97.7421 C53.966,97.7421 53.905,92.7881 52.461,89.9301 C52.461,89.9301 54.383,90.3371 55.443,91.9621 C55.443,91.9621 54.994,87.5611 52.841,84.7981 C52.841,84.7981 54.193,85.1381 55.283,86.7181 C55.283,86.7181 55.213,82.4361 54.075,80.3721 C54.075,80.3721 55.177,80.5531 55.781,81.9881 C55.781,81.9881 55.588,77.8271 53.022,74.7981 C53.022,74.7981 54.312,74.5961 55.764,76.0571 C55.764,76.0571 54.597,70.3401 52.832,68.4451 C52.832,68.4451 54.046,67.7721 55.107,69.5461 C55.107,69.5461 55.453,58.0731 49.156,49.1681" id="Fill-527" fill="#2C7201"></path>
            <path d="M49.156,49.1681 C49.156,49.1681 23.656,24.5401 -2.48689958e-14,48.9131 C-2.48689958e-14,48.9131 4.998,49.3741 7.938,48.2171 C7.938,48.2171 7.453,50.1111 5.774,51.0081 C5.774,51.0081 10.232,51.0171 13.103,49.1311 C13.103,49.1311 12.71,50.4601 11.075,51.3991 C11.075,51.3991 15.4,51.7681 17.526,50.8381 C17.526,50.8381 17.301,51.9271 15.832,52.3861 C15.832,52.3861 20.036,52.6271 23.182,50.3671 C23.182,50.3671 23.34,51.6861 21.815,52.9951 C21.815,52.9951 27.618,52.4211 29.595,50.8381 C29.595,50.8381 30.232,52.1351 28.404,53.0161 C28.404,53.0161 39.951,54.5691 49.156,49.1681" id="Fill-528" fill="#2C7201"></path>
            <path d="M49.156,49.1681 C49.156,49.1681 10.873,51.2981 12.746,90.9441 C12.746,90.9441 16.793,87.0421 18.043,83.6121 C18.043,83.6121 19.188,85.5381 18.662,87.6871 C18.662,87.6871 21.948,83.8881 22.575,79.9311 C22.575,79.9311 23.336,81.3231 22.873,83.4751 C22.873,83.4751 26.353,80.0761 27.184,77.5201 C27.184,77.5201 27.88,78.5811 27.16,80.1971 C27.16,80.1971 30.45,76.8011 30.973,72.3081 C30.973,72.3081 32.136,73.2291 32.049,75.5741 C32.049,75.5741 35.864,70.1611 36.069,67.2151 C36.069,67.2151 37.558,67.7051 36.912,69.9681 C36.912,69.9681 46.651,61.3381 49.156,49.1681" id="Fill-529" fill="#036633"></path>
            <path d="M69.533,55.1222 C67.757,54.0622 68.431,52.8462 68.431,52.8462 C70.325,54.6132 76.044,55.7762 76.044,55.7762 C74.582,54.3282 74.781,53.0362 74.781,53.0362 C77.812,55.6002 81.972,55.7952 81.972,55.7952 C80.539,55.1922 80.357,54.0902 80.357,54.0902 C82.418,55.2282 86.703,55.2982 86.703,55.2982 C85.122,54.2072 84.784,52.8532 84.784,52.8532 C87.547,55.0102 91.947,55.4572 91.947,55.4572 C90.322,54.3982 89.913,52.4742 89.913,52.4742 C92.77,53.9202 97.727,53.9822 97.727,53.9822 C75.222,27.4202 49.156,49.1682 49.156,49.1682 C58.059,55.4652 69.533,55.1222 69.533,55.1222" id="Fill-530" fill="#2C7201"></path>
            <path d="M49.156,49.1681 C49.156,49.1681 27.422,75.2371 53.966,97.7421 C53.966,97.7421 53.905,92.7881 52.461,89.9301 C52.461,89.9301 54.383,90.3371 55.443,91.9621 C55.443,91.9621 54.994,87.5611 52.841,84.7981 C52.841,84.7981 54.193,85.1381 55.283,86.7181 C55.283,86.7181 55.213,82.4361 54.075,80.3721 C54.075,80.3721 55.177,80.5531 55.781,81.9881 C55.781,81.9881 55.588,77.8271 53.022,74.7981 C53.022,74.7981 54.312,74.5961 55.764,76.0571 C55.764,76.0571 54.597,70.3401 52.832,68.4451 C52.832,68.4451 54.046,67.7721 55.107,69.5461 C55.107,69.5461 55.453,58.0731 49.156,49.1681" id="Fill-531" fill="#AEBC4A"></path>
            <path d="M69.533,55.1222 C67.757,54.0622 68.431,52.8462 68.431,52.8462 C70.325,54.6132 76.044,55.7762 76.044,55.7762 C74.582,54.3282 74.781,53.0362 74.781,53.0362 C77.812,55.6002 81.972,55.7952 81.972,55.7952 C80.539,55.1922 80.357,54.0902 80.357,54.0902 C82.418,55.2282 86.703,55.2982 86.703,55.2982 C85.122,54.2072 84.784,52.8532 84.784,52.8532 C87.547,55.0102 91.947,55.4572 91.947,55.4572 C90.322,54.3982 89.913,52.4742 89.913,52.4742 C92.77,53.9202 97.727,53.9822 97.727,53.9822 C75.222,27.4202 49.156,49.1682 49.156,49.1682 C58.059,55.4652 69.533,55.1222 69.533,55.1222" id="Fill-532" fill="#AEBC4A"></path>
            <path d="M53.0017,28.404 C52.1227,30.231 50.8257,29.593 50.8257,29.593 C52.4077,27.618 52.9787,21.814 52.9787,21.814 C51.6737,23.342 50.3507,23.183 50.3507,23.183 C52.6127,20.036 52.3727,15.834 52.3727,15.834 C51.9147,17.301 50.8247,17.527 50.8247,17.527 C51.7547,15.402 51.3857,11.075 51.3857,11.075 C50.4427,12.711 49.1157,13.105 49.1157,13.105 C51.0047,10.234 50.9947,5.775 50.9947,5.775 C50.0977,7.455 48.2057,7.938 48.2057,7.938 C49.3597,4.995 48.8997,6.39488462e-14 48.8997,6.39488462e-14 C24.5397,23.656 49.1557,49.168 49.1557,49.168 C54.5557,39.961 53.0017,28.404 53.0017,28.404" id="Fill-533" fill="#2C7201"></path>
            <path d="M69.9519,36.9211 C67.6879,37.5671 67.1999,36.0771 67.1999,36.0771 C70.1469,35.8731 75.5559,32.0501 75.5559,32.0501 C73.2169,32.1371 72.2959,30.9741 72.2959,30.9741 C76.7889,30.4471 80.1839,27.1621 80.1839,27.1621 C78.5659,27.8791 77.5059,27.1831 77.5059,27.1831 C80.0589,26.3541 83.4579,22.8741 83.4579,22.8741 C81.3089,23.3351 79.9169,22.5761 79.9169,22.5761 C83.8739,21.9511 87.6719,18.6621 87.6719,18.6621 C85.5239,19.1861 83.5949,18.0421 83.5949,18.0421 C87.0279,16.7921 90.9309,12.7471 90.9309,12.7471 C51.2859,10.8731 49.1559,49.1681 49.1559,49.1681 C61.3249,46.6631 69.9519,36.9211 69.9519,36.9211" id="Fill-536" fill="#036633"></path>
            <path d="M49.4119,49.1579 L49.3409,49.4479 C50.4029,50.9939 51.2779,52.6109 51.9859,54.2279 C90.3929,82.6259 103.6949,130.0219 103.8459,130.5519 L107.2719,130.4779 C107.1149,129.9199 91.8879,77.7409 49.4119,49.1579" id="Fill-537" fill="#BD6539"></path>
        </g>
    </g>
</svg>