<?xml version="1.0" encoding="UTF-8"?>
<svg width="78px" height="71px" viewBox="0 0 78 71" version="1.1" xmlns="http://www.w3.org/2000/svg" xmlns:xlink="http://www.w3.org/1999/xlink">
    <!-- Generator: Sketch 53.1 (72631) - https://sketchapp.com -->
    <title>Group 22</title>
    <desc>Created with Sketch.</desc>
    <g id="Page-1" stroke="none" stroke-width="1" fill="none" fill-rule="evenodd">
        <g id="Group-22" transform="translate(0.427300, 0.135700)">
            <path d="M0.0002,35.137 C0.0002,54.543 17.2222,70.275 38.4632,70.275 C59.7072,70.275 76.9272,54.543 76.9272,35.137 C76.9272,15.733 59.7072,4.26325641e-14 38.4632,4.26325641e-14 C17.2222,4.26325641e-14 0.0002,15.733 0.0002,35.137" id="Fill-1" fill="#C90E32"></path>
            <path d="M38.4631,0.0003 C30.4741,0.0003 23.0561,2.2263 16.9071,6.0343 C12.5341,22.4373 21.1291,27.4153 21.1291,27.4153 C31.2761,11.7993 40.8461,4.4833 48.4061,1.1933 C45.2341,0.4193 41.9021,0.0003 38.4631,0.0003" id="Fill-3" fill="#F6A821"></path>
            <path d="M21.1252,26.2767 C24.4912,49.9297 40.7492,61.5587 54.1902,67.1997 C67.5902,61.7077 76.9272,49.4227 76.9272,35.1367 C76.9272,33.4047 76.7832,31.7047 76.5182,30.0397 C54.5892,20.1707 21.1252,26.2767 21.1252,26.2767" id="Fill-5" fill="#F6A821"></path>
            <path d="M2.923,21.6917 C1.042,25.8357 0,30.3737 0,35.1367 C0,43.6697 3.332,51.4917 8.868,57.5787 C7.885,35.7247 21.125,26.2417 21.125,26.2417 C14.611,22.6437 8.467,21.4627 2.923,21.6917" id="Fill-7" fill="#F6A821"></path>
            <path d="M61.8225,7.2298 C62.1015,8.9358 62.2485,10.6798 62.2485,12.4548 C62.2485,31.8598 45.0295,47.5908 23.7855,47.5908 C14.9975,47.5908 6.9015,44.8928 0.4265,40.3628 C3.1885,57.2888 19.1665,70.2748 38.4635,70.2748 C59.7075,70.2748 76.9265,54.5428 76.9265,35.1368 C76.9265,23.7598 71.0035,13.6518 61.8225,7.2298" id="Fill-9" fill="#990729"></path>
            <path d="M17.2619,24.7498 C15.7249,28.7308 16.2059,32.6278 18.3419,33.4538 C20.4759,34.2768 23.4509,31.7158 24.9899,27.7328 C26.5279,23.7498 26.0459,19.8538 23.9109,19.0288 C21.7769,18.2058 18.8019,20.7668 17.2619,24.7498" id="Fill-11" fill="#C90E32"></path>
            <path d="M18.6643,25.2898 C17.6843,27.8288 17.9903,30.3128 19.3513,30.8378 C20.7103,31.3628 22.6073,29.7308 23.5893,27.1928 C24.5693,24.6518 24.2623,22.1708 22.9013,21.6448 C21.5413,21.1188 19.6443,22.7528 18.6643,25.2898" id="Fill-13" fill="#F6A821"></path>
            <path d="M76.7756,32.177 C76.7156,31.545 76.6436,30.917 76.5486,30.297 C76.5356,30.208 76.5196,30.121 76.5056,30.034 C71.2966,27.691 65.4376,26.258 59.5326,25.42 C54.4966,37 42.9216,45.548 28.9646,47.266 C35.7606,57.447 45.5496,63.572 54.1906,67.199 C57.5396,65.825 60.6346,64.031 63.3936,61.884 C63.3946,61.882 63.3986,61.881 63.3996,61.88 C64.7706,60.812 66.0566,59.659 67.2516,58.428 C67.2706,58.408 67.2916,58.388 67.3116,58.367 C67.8796,57.779 68.4226,57.176 68.9476,56.554 C68.9746,56.522 69.0006,56.491 69.0286,56.46 C69.5596,55.825 70.0676,55.174 70.5506,54.507 C70.5846,54.461 70.6166,54.414 70.6476,54.37 C71.0866,53.76 71.5006,53.136 71.8966,52.5 C71.9536,52.412 72.0096,52.324 72.0646,52.235 C72.4766,51.559 72.8706,50.87 73.2356,50.167 C73.2706,50.098 73.3016,50.027 73.3376,49.96 C73.6586,49.332 73.9566,48.692 74.2366,48.044 C74.2966,47.905 74.3586,47.763 74.4186,47.623 C74.7156,46.912 74.9916,46.189 75.2376,45.454 C75.2636,45.379 75.2846,45.301 75.3086,45.225 C75.5266,44.567 75.7166,43.899 75.8916,43.226 C75.9356,43.049 75.9826,42.869 76.0256,42.69 C76.2046,41.945 76.3666,41.19 76.4916,40.427 C76.5026,40.368 76.5056,40.307 76.5166,40.247 C76.6296,39.539 76.7136,38.823 76.7806,38.103 C76.7986,37.902 76.8156,37.703 76.8306,37.502 C76.8876,36.719 76.9266,35.933 76.9266,35.137 C76.9266,34.322 76.8886,33.516 76.8276,32.715 C76.8146,32.533 76.7916,32.356 76.7756,32.177" id="Fill-15" fill="#D38A20"></path>
            <path d="M9.9289,45.2068 C6.5039,43.9948 3.3019,42.3728 0.4319,40.3648 C0.4469,40.4568 0.4629,40.5498 0.4799,40.6418 C0.5449,41.0218 0.6159,41.3998 0.6939,41.7748 C0.7249,41.9238 0.7579,42.0688 0.7909,42.2148 C0.8729,42.5798 0.9589,42.9438 1.0529,43.3038 C1.0929,43.4578 1.1339,43.6118 1.1779,43.7648 C1.2749,44.1138 1.3749,44.4608 1.4829,44.8058 C1.5329,44.9658 1.5849,45.1238 1.6389,45.2818 C1.7469,45.6168 1.8639,45.9498 1.9839,46.2808 C2.0429,46.4448 2.1059,46.6088 2.1689,46.7708 C2.2909,47.0908 2.4179,47.4088 2.5509,47.7228 C2.6219,47.8918 2.6949,48.0618 2.7689,48.2298 C2.9019,48.5318 3.0389,48.8338 3.1819,49.1318 C3.2659,49.3078 3.3499,49.4828 3.4379,49.6588 C3.5789,49.9438 3.7269,50.2268 3.8759,50.5078 C3.9729,50.6888 4.0709,50.8688 4.1689,51.0478 C4.3209,51.3178 4.4759,51.5868 4.6349,51.8548 C4.7429,52.0378 4.8519,52.2188 4.9629,52.3988 C5.1219,52.6558 5.2869,52.9108 5.4539,53.1638 C5.5739,53.3488 5.6939,53.5318 5.8189,53.7118 C5.9849,53.9578 6.1569,54.1978 6.3289,54.4378 C6.4639,54.6228 6.5949,54.8068 6.7319,54.9878 C6.9049,55.2198 7.0819,55.4458 7.2609,55.6718 C7.4079,55.8578 7.5529,56.0418 7.7029,56.2258 C7.8829,56.4428 8.0669,56.6558 8.2499,56.8698 C8.4079,57.0518 8.5649,57.2368 8.7259,57.4148 C8.7719,57.4668 8.8219,57.5168 8.8679,57.5668 C8.6589,52.8878 9.1049,48.7798 9.9289,45.2068" id="Fill-17" fill="#D38A20"></path>
            <path d="M54.84,3.3421 C49.869,1.2021 44.32,0.0001 38.463,0.0001 C22.585,0.0001 8.958,8.7911 3.085,21.3351 C10.231,14.0731 25.417,3.9391 54.84,3.3421" id="Fill-19" fill="#990729"></path>
            <path d="M42.8752,4.1726 C44.8122,2.9356 46.6642,1.9506 48.4062,1.1936 C45.2342,0.4196 41.9022,0.0006 38.4632,0.0006 C30.4742,0.0006 23.0562,2.2266 16.9072,6.0346 C16.3132,8.2686 15.9632,10.2846 15.7932,12.1096 C22.4322,8.6406 31.2522,5.5966 42.8752,4.1726" id="Fill-21" fill="#D38A20"></path>
        </g>
    </g>
</svg>