<?xml version="1.0" encoding="UTF-8"?>
<svg width="92px" height="97px" viewBox="0 0 92 97" version="1.1" xmlns="http://www.w3.org/2000/svg" xmlns:xlink="http://www.w3.org/1999/xlink">
    <!-- Generator: Sketch 53.1 (72631) - https://sketchapp.com -->
    <title>Group 49</title>
    <desc>Created with Sketch.</desc>
    <g id="Page-1" stroke="none" stroke-width="1" fill="none" fill-rule="evenodd">
        <g id="Group-49" transform="translate(0.170622, -0.048800)">
            <path d="M62.1152784,15.2683 L66.4992784,39.8863 C66.4992784,39.8863 73.4122784,42.0783 79.1452784,39.8863 L81.3372784,15.2683 L62.1152784,15.2683 Z" id="Fill-175" fill="#CCCCCC"></path>
            <path d="M81.3369784,15.2683 C81.3369784,16.1063 77.0339784,16.7863 71.7259784,16.7863 C66.4179784,16.7863 62.1149784,16.1063 62.1149784,15.2683 C62.1149784,14.4303 66.4179784,13.7503 71.7259784,13.7503 C77.0339784,13.7503 81.3369784,14.4303 81.3369784,15.2683" id="Fill-177" fill="#808080"></path>
            <path d="M73.1093784,30.9494 L65.7013784,7.1694 L56.1413784,2.2704 L56.1413784,0.0004 L67.1343784,5.9744 L74.4233784,28.9044 C74.4233784,28.9044 74.3043784,29.1574 73.1093784,30.9494" id="Fill-179" fill="#73D8CB"></path>
            <path d="M56.7382784,1.135 C56.7382784,1.762 56.4702784,2.27 56.1412784,2.27 C55.8112784,2.27 55.5442784,1.762 55.5442784,1.135 C55.5442784,0.508 55.8112784,-1.42108547e-14 56.1412784,-1.42108547e-14 C56.4702784,-1.42108547e-14 56.7382784,0.508 56.7382784,1.135" id="Fill-181" fill="#229182"></path>
            <path d="M68.0166784,38.5368 L64.1386784,19.2308 L79.1456784,19.2308 L77.4586784,38.5368 C77.4586784,38.5368 72.5696784,41.5718 68.0166784,38.5368" id="Fill-183" fill="#F6A821"></path>
            <path d="M79.1455784,19.2307 C79.1455784,19.6497 75.7865784,19.9897 71.6415784,19.9897 C67.4985784,19.9897 64.1385784,19.6497 64.1385784,19.2307 C64.1385784,18.8117 67.4985784,18.4717 71.6415784,18.4717 C75.7865784,18.4717 79.1455784,18.8117 79.1455784,19.2307" id="Fill-185" fill="#D6C500"></path>
            <path d="M65.6230784,21.1633 C65.6230784,21.1633 67.3540784,21.6693 68.4080784,21.1633 L69.2960784,37.7723 L68.5770784,37.7723 L65.6230784,21.1633 Z" id="Fill-187" fill="#F8EB00"></path>
            <path d="M8.53327838,74.9807 C8.30027838,74.9807 8.07227838,74.8587 7.94827838,74.6417 C7.76227838,74.3187 7.87427838,73.9067 8.19627838,73.7217 L15.6822784,69.4177 C16.0072784,69.2327 16.4182784,69.3427 16.6032784,69.6667 C16.7892784,69.9897 16.6782784,70.4017 16.3552784,70.5867 L8.86927838,74.8907 C8.76227838,74.9517 8.64727838,74.9807 8.53327838,74.9807" id="Fill-189" fill="#FF5C58"></path>
            <path d="M31.5498784,57.5432 C31.5498784,57.5432 17.0268784,64.1842 13.4158784,67.3662 C13.4158784,67.3662 10.9948784,68.4432 13.4528784,69.9752 C13.4528784,69.9752 12.1668784,70.6892 12.3918784,71.5562 C12.3918784,71.5562 47.6578784,89.6832 49.9238784,90.0002 C49.9238784,90.0002 58.1418784,92.8432 61.5798784,89.8372 L74.1588784,80.9622 C74.1588784,80.9622 75.3578784,79.5532 78.1388784,79.3402 C80.9198784,79.1282 84.8718784,75.5932 86.3998784,72.7882 C87.9258784,69.9822 91.8888784,67.1432 91.8118784,61.5762 C91.7338784,56.0092 89.7858784,53.6002 83.1628784,52.8222 C76.5398784,52.0442 55.9318784,46.5892 49.5988784,41.6312 C43.2658784,36.6732 36.4898784,37.4642 34.0808784,39.4122 C31.6728784,41.3592 25.6498784,46.1412 27.6738784,54.1172 C27.6738784,54.1172 27.5148784,55.1632 31.5498784,57.5432" id="Fill-191" fill="#FFD7B5"></path>
            <path d="M90.4775784,60.5764 C89.5715784,60.4964 88.6465784,60.6734 87.8235784,61.0614 C86.9975784,59.1544 85.4085784,57.5864 83.4285784,56.8684 L83.5215784,56.7734 C83.7815784,56.5074 83.7745784,56.0794 83.5075784,55.8204 C83.2405784,55.5604 82.8135784,55.5664 82.5535784,55.8344 L81.8845784,56.5214 C80.7885784,56.4354 79.7955784,56.7104 79.0995784,57.3294 C78.8275784,57.5724 78.6225784,57.8424 78.4235784,58.1024 C78.3095784,58.2534 78.1955784,58.4054 78.0675784,58.5434 C77.5455784,59.1094 76.7715784,59.4734 75.9515784,59.8604 C75.4565784,60.0924 74.9575784,60.3304 74.4995784,60.6184 C73.9295784,60.2254 73.4705784,59.6584 73.2305784,59.0134 C73.1005784,58.6634 72.7115784,58.4864 72.3635784,58.6164 C72.0135784,58.7454 71.8355784,59.1344 71.9655784,59.4834 C72.2635784,60.2834 72.7825784,60.9844 73.4415784,61.5144 C73.2155784,61.7864 73.0265784,62.0964 72.8895784,62.4614 C72.5685784,63.3234 72.6735784,64.2214 72.7675784,65.0134 C72.7895784,65.2024 72.8115784,65.3914 72.8285784,65.5774 C72.8675784,66.0274 72.8895784,67.1174 72.2675784,67.5204 C72.2055784,67.5614 72.1375784,67.5964 72.0715784,67.6304 C71.8765784,67.7324 71.6355784,67.8604 71.4315784,68.0864 C71.2945784,68.2384 71.1975784,68.4214 71.1265784,68.6224 C70.6985784,68.8344 70.2075784,68.9234 69.7325784,68.8674 C69.3525784,68.8114 69.0255784,69.0844 68.9815784,69.4534 C68.9355784,69.8234 69.1985784,70.1594 69.5685784,70.2054 C69.7195784,70.2244 69.8735784,70.2334 70.0275784,70.2334 C70.3975784,70.2334 70.7655784,70.1734 71.1215784,70.0684 C71.3325784,70.8664 71.8485784,71.5834 72.5545784,72.0854 C72.4455784,72.1684 72.3525784,72.2764 72.3095784,72.4184 C72.0135784,73.4004 72.1245784,74.4804 72.6155784,75.3814 C72.7375784,75.6064 72.9685784,75.7334 73.2075784,75.7334 C73.3165784,75.7334 73.4275784,75.7064 73.5305784,75.6514 C73.8575784,75.4734 73.9785784,75.0634 73.7995784,74.7364 C73.4855784,74.1584 73.4115784,73.4374 73.6005784,72.8084 C73.6205784,72.7454 73.6185784,72.6824 73.6185784,72.6194 C74.7925784,73.0014 76.1775784,72.8604 77.4295784,72.2284 C77.5185784,72.1834 77.6075784,72.1364 77.6955784,72.0894 C77.7005784,72.0874 77.7055784,72.0854 77.7095784,72.0824 C77.7815784,72.3114 77.9085784,72.5244 78.0975784,72.6954 C78.3545784,72.9264 78.6725784,73.0504 78.9965784,73.0504 C79.0605784,73.0504 79.1245784,73.0454 79.1905784,73.0354 C79.5585784,72.9764 79.8135784,72.6194 79.7555784,72.2514 C79.7255784,72.0604 79.6155784,71.9024 79.4675784,71.7984 C79.5075784,71.7994 79.5475784,71.8034 79.5865784,71.8044 C81.2055784,71.7924 82.7035784,70.5954 83.0715784,69.0194 C83.2235784,68.3684 83.1855784,67.7324 83.1495784,67.1174 C83.1125784,66.4944 83.0775784,65.9074 83.2545784,65.4084 C83.3855784,65.0384 83.6435784,64.6924 83.9155784,64.3254 C84.0695784,64.1194 84.2215784,63.9134 84.3595784,63.6994 C84.9905784,62.7164 85.1035784,61.7104 84.6715784,60.9404 C84.2155784,60.1264 83.1615784,59.7044 82.1035784,59.9094 C81.2595784,60.0764 80.5805784,60.5554 79.9795784,60.9784 L79.1605784,61.5554 C78.8545784,61.7694 78.7815784,62.1904 78.9965784,62.4944 C79.2095784,62.7994 79.6305784,62.8734 79.9355784,62.6584 L80.7555784,62.0804 C81.2695784,61.7194 81.8015784,61.3444 82.3645784,61.2344 C82.7675784,61.1534 83.3025784,61.2564 83.4955784,61.6004 C83.7045784,61.9724 83.4925784,62.5524 83.2235784,62.9714 C83.1025784,63.1594 82.9675784,63.3404 82.8335784,63.5214 C82.5135784,63.9514 82.1835784,64.3964 81.9845784,64.9544 C81.7145784,65.7124 81.7595784,66.4674 81.8015784,67.1964 C81.8335784,67.7404 81.8655784,68.2534 81.7575784,68.7124 C81.5315784,69.6824 80.5745784,70.4474 79.5775784,70.4544 C79.4525784,70.4554 79.3035784,70.4454 79.1655784,70.4354 C78.8625784,70.4134 78.5185784,70.3904 78.1605784,70.4584 C77.7355784,70.5394 77.3765784,70.7304 77.0595784,70.8994 L76.8235784,71.0244 C75.8735784,71.5024 74.8445784,71.6134 73.9995784,71.3284 C73.1085784,71.0264 72.4365784,70.2374 72.3665784,69.4094 C72.3465784,69.1764 72.3905784,69.0374 72.4335784,68.9904 C72.4765784,68.9424 72.5905784,68.8824 72.7005784,68.8234 C72.8025784,68.7694 72.9055784,68.7144 73.0005784,68.6534 C73.8845784,68.0804 74.2995784,66.9474 74.1715784,65.4614 C74.1545784,65.2614 74.1305784,65.0594 74.1075784,64.8574 C74.0245784,64.1534 73.9465784,63.4894 74.1535784,62.9334 C74.2615784,62.6424 74.4405784,62.4024 74.6635784,62.1884 C74.6855784,62.1904 74.7065784,62.2024 74.7285784,62.2024 C74.9865784,62.2024 75.2315784,62.0544 75.3435784,61.8054 C75.3655784,61.7584 75.3675784,61.7094 75.3765784,61.6614 C75.7225784,61.4594 76.1135784,61.2744 76.5265784,61.0804 C77.4275784,60.6564 78.3595784,60.2174 79.0595784,59.4574 C79.2165784,59.2874 79.3575784,59.1034 79.4985784,58.9194 C79.6645784,58.7004 79.8215784,58.4934 79.9975784,58.3374 C80.8845784,57.5464 82.3305784,57.9214 82.7505784,58.0554 C85.2685784,58.8544 87.1365784,61.4484 87.0975784,64.0894 C87.0915784,64.4864 87.0415784,64.7494 86.9375784,64.9424 C86.9145784,64.9604 86.8895784,64.9754 86.8685784,64.9964 C86.5905784,65.0544 86.3745784,65.2764 86.3405784,65.5694 L86.2555784,65.6424 C84.8455784,66.8664 83.8835784,68.3174 83.4735784,69.8374 C83.3965784,70.1274 83.3275784,70.4354 83.2585784,70.7484 C82.9455784,72.1654 82.6805784,73.1104 81.8975784,73.3244 C81.7375784,73.3684 81.5365784,73.3784 81.3245784,73.3894 C80.9725784,73.4084 80.5745784,73.4294 80.1765784,73.6054 C79.5965784,73.8624 79.2545784,74.3374 78.9535784,74.7564 C78.7675784,75.0154 78.5915784,75.2594 78.3915784,75.4054 C78.1085784,75.6124 77.6905784,75.6834 77.2475784,75.7584 C76.9945784,75.8014 76.7405784,75.8454 76.4975784,75.9104 C75.4985784,76.1764 74.6395784,76.7774 73.8085784,77.3584 C72.7035784,78.1324 71.7475784,78.8014 70.7295784,78.5344 C70.3695784,78.4394 70.0005784,78.6544 69.9065784,79.0144 C69.8115784,79.3744 70.0275784,79.7434 70.3875784,79.8384 C70.6625784,79.9104 70.9295784,79.9424 71.1905784,79.9424 C72.4665784,79.9424 73.5805784,79.1644 74.5815784,78.4644 C75.3165784,77.9494 76.0765784,77.4184 76.8445784,77.2134 C77.0485784,77.1594 77.2605784,77.1244 77.4725784,77.0884 C78.0225784,76.9944 78.6475784,76.8894 79.1865784,76.4944 C79.5605784,76.2224 79.8205784,75.8614 80.0485784,75.5434 C80.2785784,75.2234 80.4775784,74.9474 80.7235784,74.8384 C80.8935784,74.7634 81.1255784,74.7504 81.3935784,74.7364 C81.6565784,74.7234 81.9525784,74.7074 82.2535784,74.6254 C82.3385784,74.6024 82.4065784,74.5614 82.4845784,74.5324 C82.5815784,74.6234 82.6975784,74.6954 82.8385784,74.7164 L84.0555784,74.8954 C84.0885784,74.9004 84.1225784,74.9024 84.1555784,74.9024 C84.4845784,74.9024 84.7725784,74.6624 84.8215784,74.3264 C84.8755784,73.9584 84.6215784,73.6164 84.2525784,73.5614 L83.7315784,73.4844 C84.1845784,72.7634 84.3965784,71.8474 84.5765784,71.0394 C84.6405784,70.7474 84.7035784,70.4594 84.7765784,70.1884 C85.0815784,69.0594 85.7195784,68.1294 86.3655784,67.4214 C86.4025784,67.7514 86.4515784,68.0804 86.5255784,68.4064 C86.5965784,68.7204 86.8735784,68.9314 87.1825784,68.9314 C87.2325784,68.9314 87.2825784,68.9274 87.3315784,68.9154 C87.6955784,68.8334 87.9235784,68.4724 87.8405784,68.1094 C87.7055784,67.5074 87.6415784,66.8934 87.6515784,66.2784 L88.7005784,66.6214 C88.7695784,66.6434 88.8405784,66.6544 88.9095784,66.6544 C89.1935784,66.6544 89.4575784,66.4734 89.5505784,66.1894 C89.6655784,65.8354 89.4725784,65.4544 89.1195784,65.3384 L88.3195784,65.0774 C88.4145784,64.7324 88.4425784,64.3924 88.4465784,64.1094 C88.4555784,63.5114 88.3865784,62.9194 88.2515784,62.3454 C88.8915784,62.0074 89.6305784,61.8524 90.3515784,61.9204 C90.7175784,61.9514 91.0515784,61.6814 91.0855784,61.3104 C91.1215784,60.9404 90.8475784,60.6114 90.4775784,60.5764" id="Fill-193" fill="#E7BD99"></path>
            <path d="M29.4736784,55.8752 C29.1916784,55.6262 28.9106784,55.3662 28.7226784,55.0402 C28.4996784,54.6512 28.4256784,54.1972 28.3726784,53.7512 C27.9566784,50.2302 28.6286784,46.5892 30.2746784,43.4492 C32.2456784,39.6862 36.0856784,37.4352 40.3816784,37.7142 C44.3866784,37.9742 47.5636784,40.2462 50.7736784,42.4532 L50.1356784,42.6262 C47.5846784,42.6402 45.2206784,44.0672 43.4316784,45.8872 C39.3146784,50.0762 37.7726784,56.6132 39.5846784,62.2002 C39.5846784,62.2002 32.5716784,58.6132 29.4736784,55.8752" id="Fill-195" fill="#FF5C58"></path>
            <path d="M13.4824784,69.4948 C13.6704784,70.1868 17.6504784,70.4518 18.2704784,70.8218 C19.4334784,71.5158 20.8104784,72.1638 22.1384784,72.4628 C25.0814784,73.1258 25.8934784,72.7668 28.3024784,71.2358 C31.8934784,68.9558 35.3654784,66.4898 38.6994784,63.8488 C39.0074784,63.6048 39.3274784,63.3428 39.4704784,62.9778 C39.8354784,62.0518 38.9204784,61.1508 38.0934784,60.5958 C35.8774784,59.1078 33.5264784,57.8188 31.0804784,56.7488 C27.4454784,59.9678 23.1254784,62.4098 18.4934784,63.8648 C16.9374784,64.3538 15.2984784,64.7568 14.0214784,65.7708 C12.7444784,66.7848 13.4824784,69.4948 13.4824784,69.4948" id="Fill-197" fill="#FF5C58"></path>
            <path d="M73.5488784,50.9631 C71.7258784,50.3611 69.6668784,49.5961 67.1608784,49.0651 C66.3418784,48.8911 65.4928784,48.5721 64.6898784,48.3341 C62.4098784,47.6591 60.0048784,48.9591 58.2498784,50.5621 C53.3648784,55.0231 51.2898784,62.3271 53.0978784,68.6911 L48.8498784,72.1821 C44.6088784,74.0861 40.1578784,76.1631 37.4058784,80.1761 C36.9878784,80.7861 36.6018784,81.4861 36.6238784,82.2491 C36.6658784,83.7141 38.0948784,84.5881 39.3278784,85.1641 C41.3648784,86.1161 43.8428784,88.3361 46.2628784,87.6881 C48.1498784,87.1821 49.3228784,84.9691 50.6948784,83.7181 C52.7748784,81.8221 54.8338784,79.9051 56.9298784,78.0271 C57.9418784,77.1201 58.9428784,76.1761 60.0058784,75.3291 C60.7738784,74.7181 61.8658784,74.2021 62.2998784,73.2761 C63.9848784,69.6821 64.0178784,65.5661 64.8558784,61.6871 C65.6948784,57.8071 67.8088784,53.7061 71.6198784,52.5981 C72.3508784,52.3851 74.5008784,51.2781 73.5488784,50.9631" id="Fill-199" fill="#FF5C58"></path>
            <path d="M11.1865784,77.9236 C10.9415784,77.9236 10.7055784,77.7896 10.5855784,77.5566 C10.4155784,77.2246 10.5465784,76.8186 10.8785784,76.6486 C13.6245784,75.2426 16.2145784,73.5266 18.5805784,71.5486 C18.8675784,71.3076 19.2915784,71.3476 19.5295784,71.6326 C19.7685784,71.9186 19.7315784,72.3436 19.4455784,72.5826 C17.0035784,74.6256 14.3285784,76.3976 11.4945784,77.8486 C11.3955784,77.8996 11.2905784,77.9236 11.1865784,77.9236" id="Fill-201" fill="#FF5C58"></path>
            <path d="M13.6347784,81.2976 C13.3997784,81.2976 13.1717784,81.1746 13.0477784,80.9556 C12.8637784,80.6306 12.9777784,80.2196 13.3017784,80.0366 C16.5707784,78.1866 19.6177784,75.9476 22.3637784,73.3816 C22.6347784,73.1276 23.0617784,73.1416 23.3167784,73.4146 C23.5717784,73.6866 23.5567784,74.1126 23.2837784,74.3676 C20.4617784,77.0056 17.3257784,79.3076 13.9667784,81.2096 C13.8617784,81.2696 13.7477784,81.2976 13.6347784,81.2976" id="Fill-203" fill="#FF5C58"></path>
            <path d="M18.5410784,83.5857 C18.4020784,83.5857 18.2610784,83.5427 18.1410784,83.4537 C17.8410784,83.2317 17.7780784,82.8097 17.9990784,82.5097 C19.5500784,80.4137 23.3720784,76.8527 25.5720784,75.4537 C25.8860784,75.2547 26.3030784,75.3477 26.5030784,75.6617 C26.7030784,75.9757 26.6100784,76.3927 26.2950784,76.5917 C24.2400784,77.8987 20.5320784,81.3537 19.0840784,83.3127 C18.9510784,83.4907 18.7480784,83.5857 18.5410784,83.5857" id="Fill-205" fill="#FF5C58"></path>
            <path d="M37.9140784,94.467 C37.8000784,94.467 37.6850784,94.438 37.5800784,94.378 C37.2560784,94.193 37.1440784,93.78 37.3300784,93.457 C38.8030784,90.889 42.4380784,86.523 44.5340784,84.806 C44.8210784,84.569 45.2470784,84.613 45.4830784,84.9 C45.7200784,85.188 45.6770784,85.613 45.3890784,85.849 C43.4270784,87.458 39.8850784,91.713 38.5000784,94.128 C38.3750784,94.345 38.1480784,94.467 37.9140784,94.467" id="Fill-207" fill="#FF5C58"></path>
            <path d="M22.4287784,86.2683 C22.2937784,86.2683 22.1577784,86.2283 22.0397784,86.1433 C21.7357784,85.9283 21.6637784,85.5073 21.8797784,85.2043 C23.9937784,82.2203 26.3757784,79.3943 28.9597784,76.8033 C29.2227784,76.5393 29.6497784,76.5393 29.9137784,76.8013 C30.1777784,77.0643 30.1777784,77.4923 29.9147784,77.7553 C27.3847784,80.2933 25.0507784,83.0623 22.9797784,85.9833 C22.8487784,86.1693 22.6407784,86.2683 22.4287784,86.2683" id="Fill-209" fill="#FF5C58"></path>
            <path d="M26.3847784,88.9284 C26.2087784,88.9284 26.0337784,88.8604 25.9027784,88.7254 C25.6417784,88.4594 25.6467784,88.0324 25.9127784,87.7714 C28.6257784,85.1214 31.0087784,82.1074 32.9937784,78.8114 C33.1857784,78.4924 33.6017784,78.3884 33.9197784,78.5814 C34.2387784,78.7744 34.3417784,79.1884 34.1497784,79.5074 C32.1047784,82.9014 29.6507784,86.0074 26.8567784,88.7374 C26.7247784,88.8644 26.5547784,88.9284 26.3847784,88.9284" id="Fill-211" fill="#FF5C58"></path>
            <path d="M31.5849784,89.9563 C31.4359784,89.9563 31.2859784,89.9073 31.1619784,89.8063 C30.8719784,89.5723 30.8259784,89.1473 31.0609784,88.8583 L37.3899784,81.0223 C37.6239784,80.7313 38.0489784,80.6873 38.3379784,80.9203 C38.6279784,81.1553 38.6739784,81.5803 38.4389784,81.8703 L32.1099784,89.7053 C31.9769784,89.8703 31.7809784,89.9563 31.5849784,89.9563" id="Fill-213" fill="#FF5C58"></path>
            <path d="M41.6318784,95.5149 C41.4838784,95.5149 41.3338784,95.4659 41.2088784,95.3659 C40.9198784,95.1309 40.8738784,94.7059 41.1088784,94.4169 L47.4378784,86.5809 C47.6718784,86.2909 48.0968784,86.2449 48.3858784,86.4799 C48.6758784,86.7139 48.7208784,87.1389 48.4868784,87.4289 L42.1578784,95.2639 C42.0248784,95.4299 41.8288784,95.5149 41.6318784,95.5149" id="Fill-215" fill="#FF5C58"></path>
            <path d="M46.0351784,96.782 C45.8871784,96.782 45.7371784,96.734 45.6121784,96.633 C45.3221784,96.398 45.2771784,95.973 45.5111784,95.684 L51.8411784,87.848 C52.0751784,87.557 52.5001784,87.512 52.7891784,87.746 C53.0791784,87.981 53.1241784,88.405 52.8901784,88.695 L46.5601784,96.532 C46.4271784,96.697 46.2321784,96.782 46.0351784,96.782" id="Fill-217" fill="#FF5C58"></path>
            <path d="M33.9609784,92.2087 C33.7439784,92.2087 33.5309784,92.1037 33.3999784,91.9107 C33.1929784,91.6017 33.2739784,91.1827 33.5839784,90.9747 C36.5069784,89.0077 38.8489784,86.2857 40.3569784,83.1047 C40.5169784,82.7687 40.9179784,82.6247 41.2559784,82.7837 C41.5919784,82.9437 41.7349784,83.3457 41.5749784,83.6827 C39.9639784,87.0837 37.4609784,89.9917 34.3369784,92.0937 C34.2209784,92.1717 34.0909784,92.2087 33.9609784,92.2087" id="Fill-219" fill="#FF5C58"></path>
            <path d="M40.2724784,62.4148 C40.0354784,62.2828 39.7984784,62.1498 39.5614784,62.0178 C37.9834784,61.1328 36.4294784,60.2408 34.9304784,59.2338 C34.5354784,58.9688 30.3244784,56.7778 30.3204784,56.7458 C30.7664784,61.3068 37.9144784,63.8098 41.2824784,65.7898 C47.6614784,69.5418 54.2754784,72.8718 60.8824784,76.1968 C63.8274784,77.6788 66.8264784,79.1788 70.0764784,79.7288 C70.1964784,79.7488 70.2724784,79.7228 70.2664784,79.5948 C68.8474784,76.8108 64.6504784,75.5888 62.1014784,74.1028 C58.1904784,71.8238 54.2184784,69.6468 50.1674784,67.6278 C46.8304784,65.9658 43.5314784,64.2268 40.2724784,62.4148" id="Fill-221" fill="#E9BB94"></path>
            <path d="M56.6474784,90.6182 C54.8774784,90.6182 53.1514784,89.9062 51.4664784,89.2112 C49.8154784,88.5312 48.0724784,87.8292 46.4394784,87.8522 L46.4284784,87.8522 C46.0604784,87.8522 45.7604784,87.5572 45.7544784,87.1882 C45.7494784,86.8152 46.0464784,86.5092 46.4194784,86.5032 C46.4564784,86.5022 46.4934784,86.5022 46.5304784,86.5022 C48.4344784,86.5022 50.2364784,87.2462 51.9804784,87.9652 C54.1334784,88.8532 56.1674784,89.6912 58.1324784,89.0332 C58.2264784,89.0012 58.2904784,88.9732 58.3324784,88.9502 C58.2444784,88.8772 58.0754784,88.7752 57.8364784,88.6962 C56.0034784,88.0962 54.1144784,87.5292 52.2864784,86.9802 C46.7804784,85.3292 41.0864784,83.6202 35.9954784,80.7152 C34.7494784,80.0042 33.5304784,79.2172 32.3514784,78.4552 C30.4904784,77.2512 28.5654784,76.0062 26.5404784,75.0782 C24.7344784,74.2502 18.4464784,71.4842 13.3424784,70.6412 C12.9744784,70.5802 12.7264784,70.2332 12.7874784,69.8652 C12.8474784,69.4992 13.1894784,69.2422 13.5624784,69.3102 C18.8324784,70.1812 25.2584784,73.0062 27.1024784,73.8522 C29.2154784,74.8202 31.1824784,76.0922 33.0844784,77.3222 C34.2484784,78.0742 35.4504784,78.8522 36.6634784,79.5442 C41.6214784,82.3732 47.2404784,84.0582 52.6744784,85.6882 C54.5094784,86.2392 56.4074784,86.8092 58.2564784,87.4152 C59.3544784,87.7742 59.9154784,88.5172 59.6864784,89.3082 C59.5534784,89.7692 59.1744784,90.1072 58.5604784,90.3122 C57.9184784,90.5272 57.2794784,90.6182 56.6474784,90.6182 L56.6474784,90.6182 Z" id="Fill-223" fill="#E9BB94"></path>
            <path d="M11.7246784,52.8791 L5.56267838,53.1391 C3.27367838,53.2351 1.32167838,51.4411 1.22467838,49.1511 L0.00367838424,20.1831 C-0.0923216158,17.8941 1.70267838,15.9411 3.99167838,15.8451 L10.1536784,15.5851 C12.4436784,15.4891 14.3956784,17.2831 14.4926784,19.5731 L15.7116784,48.5411 C15.8086784,50.8311 14.0146784,52.7831 11.7246784,52.8791" id="Fill-225" fill="#F97000"></path>
            <path d="M8.47857838,49.0808 L8.47857838,49.0808 C6.65757838,49.1578 5.10457838,47.7308 5.02857838,45.9098 L4.06657838,23.0938 C3.99057838,21.2718 5.41657838,19.7198 7.23857838,19.6438 C9.05957838,19.5668 10.6115784,20.9948 10.6885784,22.8148 L11.6495784,45.6308 C11.7265784,47.4518 10.2985784,49.0038 8.47857838,49.0808" id="Fill-227" fill="#FFFFFF"></path>
            <path d="M7.75587838,31.9255 L7.75587838,31.9255 C6.60687838,31.9735 5.62687838,31.0735 5.57887838,29.9255 L5.27687838,22.7645 C5.22887838,21.6155 6.12887838,20.6365 7.27787838,20.5885 C8.42687838,20.5395 9.40587838,21.4405 9.45487838,22.5895 L9.75587838,29.7485 C9.80487838,30.8975 8.90387838,31.8775 7.75587838,31.9255" id="Fill-229" fill="#DAAC00"></path>
            <path d="M2.94537838,15.4953 L2.75337838,10.9203 L11.1963784,10.5643 L11.3893784,15.1393 C11.3893784,15.1393 7.51637838,16.7343 2.94537838,15.4953" id="Fill-231" fill="#73D8CB"></path>
            <path d="M11.1962784,10.5647 C11.2032784,10.7297 9.31927838,10.9427 6.98727838,11.0407 C4.65527838,11.1387 2.75927838,11.0857 2.75327838,10.9207 C2.74627838,10.7557 4.63127838,10.5427 6.96227838,10.4437 C9.29427838,10.3457 11.1892784,10.3997 11.1962784,10.5647" id="Fill-233" fill="#48B795"></path>
            <path d="M3.83697838,11.0129 L3.93997838,15.7239" id="Stroke-235" stroke="#48B795"></path>
            <path d="M9.15627838,10.7912 L9.29327838,15.7112" id="Stroke-237" stroke="#48B795"></path>
            <path d="M5.54197838,11.0827 L5.63397838,15.9367" id="Stroke-239" stroke="#48B795"></path>
            <path d="M7.51667838,10.9074 L7.72667838,15.9374" id="Stroke-241" stroke="#48B795"></path>
            <path d="M10.5390784,10.697 L10.7410784,15.397" id="Stroke-243" stroke="#48B795"></path>
        </g>
    </g>
</svg>