<?xml version="1.0" encoding="UTF-8"?>
<svg width="71px" height="98px" viewBox="0 0 71 98" version="1.1" xmlns="http://www.w3.org/2000/svg" xmlns:xlink="http://www.w3.org/1999/xlink">
    <!-- Generator: Sketch 53.1 (72631) - https://sketchapp.com -->
    <title>Group 23</title>
    <desc>Created with Sketch.</desc>
    <defs>
        <polygon id="path-1" points="0.7969 0.0052 68.3679 0.0052 68.3679 16 0.7969 16"></polygon>
    </defs>
    <g id="Page-1" stroke="none" stroke-width="1" fill="none" fill-rule="evenodd">
        <g id="Group-23" transform="translate(0.000000, 0.571700)">
            <g id="Group-25" opacity="0.145647321" transform="translate(0.000000, 81.428300)">
                <mask id="mask-2" fill="white">
                    <use xlink:href="#path-1"></use>
                </mask>
                <g id="Clip-24"></g>
                <path d="M68.3679,8.0032 C68.3679,12.4192 53.2419,16.0002 34.5829,16.0002 C15.9239,16.0002 0.7969,12.4192 0.7969,8.0032 C0.7969,3.5862 15.9239,0.0052 34.5829,0.0052 C53.2419,0.0052 68.3679,3.5862 68.3679,8.0032" id="Fill-23" fill="#7A3389" mask="url(#mask-2)"></path>
            </g>
            <path d="M40.8025,42.2059 C27.0805,42.2059 15.7835,40.2379 14.1495,37.6999 L20.6095,85.8309 C20.6095,90.9139 61.0455,90.9139 61.0455,85.8309 L67.5155,37.6249 C66.0605,40.1999 54.6595,42.2059 40.8025,42.2059" id="Fill-26" fill="#C90E32"></path>
            <path d="M67.6199,36.8416 L67.5159,37.6246 C67.6189,37.4416 67.6799,37.2556 67.6799,37.0676 C67.6799,36.9906 67.6379,36.9166 67.6199,36.8416" id="Fill-28" fill="#C90E32"></path>
            <path d="M13.9246,37.0672 C13.9246,37.2822 14.0156,37.4922 14.1496,37.7002 L14.0176,36.7162 C13.9766,36.8322 13.9246,36.9492 13.9246,37.0672" id="Fill-30" fill="#C90E32"></path>
            <path d="M15.1121,45.9412 C15.1121,45.9412 1.9331,3.8612 39.9691,3.0722 C83.2771,2.1732 65.7921,45.9412 65.7921,45.9412" id="Stroke-32" stroke="#3F7629" stroke-width="2" stroke-linecap="round" stroke-linejoin="round"></path>
            <path d="M50.24,9.119 L33.003,9.119 C31.081,9.119 29.522,7.56 29.522,5.638 L29.522,3.48 C29.522,1.558 31.081,7.10542736e-14 33.003,7.10542736e-14 L50.24,7.10542736e-14 C52.163,7.10542736e-14 53.721,1.558 53.721,3.48 L53.721,5.638 C53.721,7.56 52.163,9.119 50.24,9.119" id="Fill-34" fill="#564938"></path>
            <path d="M40.8025,31.9281 C26.5765,31.9281 14.9635,34.0431 14.0175,36.7171 L14.1495,37.7001 C15.7835,40.2381 27.0805,42.2061 40.8025,42.2061 C54.6595,42.2061 66.0605,40.2001 67.5155,37.6251 L67.6195,36.8421 C66.9985,34.1091 55.2485,31.9281 40.8025,31.9281" id="Fill-36" fill="#931B27"></path>
            <path d="M40.8025,31.9281 C26.5765,31.9281 14.9635,34.0431 14.0175,36.7171 L14.1495,37.7001 C15.7835,40.2381 27.0805,42.2061 40.8025,42.2061 C54.6595,42.2061 66.0605,40.2001 67.5155,37.6251 L67.6195,36.8421 C66.9985,34.1091 55.2485,31.9281 40.8025,31.9281 Z" id="Stroke-38" stroke="#CB3F4C" stroke-width="2"></path>
        </g>
    </g>
</svg>