<?xml version="1.0" encoding="UTF-8"?>
<svg width="33px" height="58px" viewBox="0 0 33 58" version="1.1" xmlns="http://www.w3.org/2000/svg" xmlns:xlink="http://www.w3.org/1999/xlink">
    <!-- Generator: Sketch 53.1 (72631) - https://sketchapp.com -->
    <title>Group 24</title>
    <desc>Created with Sketch.</desc>
    <g id="Page-1" stroke="none" stroke-width="1" fill="none" fill-rule="evenodd">
        <g id="Group-24" transform="translate(0.588000, 0.465700)">
            <path d="M32.233,53.8812 C32.233,55.5462 25.017,56.8952 16.116,56.8952 C7.215,56.8952 -2.84217094e-14,55.5462 -2.84217094e-14,53.8812 C-2.84217094e-14,52.2162 7.215,50.8662 16.116,50.8662 C25.017,50.8662 32.233,52.2162 32.233,53.8812" id="Fill-56" fill="#000000" opacity="0.157993862"></path>
            <path d="M28.6979,4.0087 L17.2729,2.5617 C17.2679,2.4417 17.2659,2.3217 17.2609,2.2007 L15.8439,2.3807 L14.4269,2.2007 C14.4219,2.3217 14.4199,2.4417 14.4149,2.5617 L2.9899,4.0087 C2.9899,4.0087 1.2459,22.6787 12.5749,26.9267 L14.6909,26.9267 L16.9959,26.9267 L19.1129,26.9267 C30.4409,22.6787 28.6979,4.0087 28.6979,4.0087" id="Fill-58" fill="#A76A39"></path>
            <path d="M29.3688,4.4017 C29.3688,5.6167 23.3108,6.6027 15.8398,6.6027 C8.3668,6.6027 2.3098,5.6167 2.3098,4.4017 C2.3098,3.8457 1.5418,1.6387 3.6308,1.2517 C6.1098,0.7927 11.7838,2.2007 15.8398,2.2007 C19.9438,2.2007 25.6328,0.8057 28.1138,1.2757 C30.1488,1.6607 29.3688,3.8537 29.3688,4.4017" id="Fill-60" fill="#D3BA43"></path>
            <path d="M29.3727,2.201 C29.3727,3.416 23.3157,4.402 15.8437,4.402 C8.3717,4.402 2.3137,3.416 2.3137,2.201 C2.3137,0.986 8.3717,2.84217094e-14 15.8437,2.84217094e-14 C23.3157,2.84217094e-14 29.3727,0.986 29.3727,2.201" id="Fill-62" fill="#ECE3A5"></path>
            <path d="M2.6491,4.0624 C2.6491,4.4174 2.9371,4.7054 3.2921,4.7054 C3.6471,4.7054 3.9351,4.4174 3.9351,4.0624 C3.9351,3.7074 3.6471,3.4194 3.2921,3.4194 C2.9371,3.4194 2.6491,3.7074 2.6491,4.0624" id="Fill-64" fill="#542704"></path>
            <path d="M5.6207,4.705 C5.6207,5.06 5.9087,5.348 6.2647,5.348 C6.6187,5.348 6.9067,5.06 6.9067,4.705 C6.9067,4.35 6.6187,4.062 6.2647,4.062 C5.9087,4.062 5.6207,4.35 5.6207,4.705" id="Fill-66" fill="#542704"></path>
            <path d="M9.1657,5.08 C9.1657,5.435 9.4537,5.723 9.8097,5.723 C10.1637,5.723 10.4517,5.435 10.4517,5.08 C10.4517,4.725 10.1637,4.437 9.8097,4.437 C9.4537,4.437 9.1657,4.725 9.1657,5.08" id="Fill-68" fill="#542704"></path>
            <path d="M12.6989,5.3475 C12.6989,5.7025 12.9869,5.9905 13.3419,5.9905 C13.6969,5.9905 13.9839,5.7025 13.9839,5.3475 C13.9839,4.9935 13.6969,4.7045 13.3419,4.7045 C12.9869,4.7045 12.6989,4.9935 12.6989,5.3475" id="Fill-70" fill="#542704"></path>
            <path d="M16.5963,5.3475 C16.5963,5.7025 16.8843,5.9905 17.2403,5.9905 C17.5943,5.9905 17.8823,5.7025 17.8823,5.3475 C17.8823,4.9935 17.5943,4.7045 17.2403,4.7045 C16.8843,4.7045 16.5963,4.9935 16.5963,5.3475" id="Fill-72" fill="#542704"></path>
            <path d="M19.6032,5.3475 C19.6032,5.7025 19.8902,5.9905 20.2462,5.9905 C20.6012,5.9905 20.8882,5.7025 20.8882,5.3475 C20.8882,4.9935 20.6012,4.7045 20.2462,4.7045 C19.8902,4.7045 19.6032,4.9935 19.6032,5.3475" id="Fill-74" fill="#542704"></path>
            <path d="M22.9772,5.08 C22.9772,5.435 23.2642,5.723 23.6202,5.723 C23.9742,5.723 24.2622,5.435 24.2622,5.08 C24.2622,4.725 23.9742,4.437 23.6202,4.437 C23.2642,4.437 22.9772,4.725 22.9772,5.08" id="Fill-76" fill="#542704"></path>
            <path d="M25.5436,4.705 C25.5436,5.06 25.8316,5.348 26.1866,5.348 C26.5416,5.348 26.8286,5.06 26.8286,4.705 C26.8286,4.35 26.5416,4.062 26.1866,4.062 C25.8316,4.062 25.5436,4.35 25.5436,4.705" id="Fill-78" fill="#542704"></path>
            <path d="M27.8317,4.1224 C27.8317,4.4774 28.1197,4.7654 28.4747,4.7654 C28.8297,4.7654 29.1167,4.4774 29.1167,4.1224 C29.1167,3.7674 28.8297,3.4794 28.4747,3.4794 C28.1197,3.4794 27.8317,3.7674 27.8317,4.1224" id="Fill-80" fill="#542704"></path>
            <path d="M13.0016,27.3309 C3.5186,22.4719 3.2916,4.4019 3.2916,4.4019" id="Stroke-82" stroke="#542704" stroke-width="0.5" stroke-linecap="round" stroke-linejoin="round"></path>
            <path d="M6.2643,4.705 C6.2643,4.705 5.9663,22.775 13.3413,26.927" id="Stroke-84" stroke="#542704" stroke-width="0.5" stroke-linecap="round" stroke-linejoin="round"></path>
            <path d="M9.8092,5.08 C9.8092,5.08 7.7882,15.961 14.5772,27.331 C14.5772,27.331 12.7042,23.953 13.3412,5.348" id="Stroke-86" stroke="#542704" stroke-width="0.5" stroke-linecap="round" stroke-linejoin="round"></path>
            <path d="M17.2399,5.7225 C17.2399,5.7225 16.5959,22.8215 14.7949,27.8205 C14.7949,27.8205 20.8879,23.2015 20.2459,5.3475" id="Stroke-88" stroke="#542704" stroke-width="0.5" stroke-linecap="round" stroke-linejoin="round"></path>
            <path d="M16.1159,26.9271 C16.1159,26.9271 24.2949,21.1891 23.6199,5.0801" id="Stroke-90" stroke="#542704" stroke-width="0.5" stroke-linecap="round" stroke-linejoin="round"></path>
            <path d="M26.1862,5.08 C26.3962,10.101 25.3592,20.692 17.3652,27.331 C17.3652,27.331 27.1262,24.995 28.4742,4.402" id="Stroke-92" stroke="#542704" stroke-width="0.5" stroke-linecap="round" stroke-linejoin="round"></path>
            <path d="M20.0182,26.5389 C19.7252,26.6779 19.4262,26.8099 19.1132,26.9269 L16.9962,26.9269 L14.6912,26.9269 L12.5752,26.9269 C12.2612,26.8099 11.9622,26.6779 11.6692,26.5389 L11.6622,26.5389 L6.0462,52.9769 C6.0462,53.5769 11.1392,54.7159 17.4202,54.7159 C23.7022,54.7159 26.1862,53.5769 26.1862,52.9769 L20.0272,26.5389 L20.0182,26.5389 Z" id="Fill-94" fill="#BD6539"></path>
            <path d="M29.3707,2.2089 C29.3707,2.2069 29.3737,2.2039 29.3737,2.2009 C29.3737,2.0389 29.2577,1.8799 29.0517,1.7279 C28.8387,1.5199 28.5417,1.3559 28.1137,1.2749 C28.1097,1.2749 28.1037,1.2739 28.0997,1.2729 C25.9827,0.5349 21.4317,0.0199 16.1167,0.0019 L16.1167,54.6979 C16.5447,54.7089 16.9787,54.7159 17.4207,54.7159 C23.7027,54.7159 26.1857,53.5769 26.1857,52.9769 L20.0267,26.5389 L20.0177,26.5389 C28.8337,22.3719 28.9237,8.9089 28.7617,5.0559 C29.1557,4.8489 29.3687,4.6289 29.3687,4.4019 C29.3687,4.0469 29.6907,3.0059 29.3707,2.2089" id="Fill-96" fill="#000000" opacity="0.157993862"></path>
        </g>
    </g>
</svg>