<?xml version="1.0" encoding="UTF-8"?>
<svg width="163px" height="67px" viewBox="0 0 163 67" version="1.1" xmlns="http://www.w3.org/2000/svg" xmlns:xlink="http://www.w3.org/1999/xlink">
    <!-- Generator: Sketch 53.1 (72631) - https://sketchapp.com -->
    <title>Group 18</title>
    <desc>Created with Sketch.</desc>
    <g id="Page-1" stroke="none" stroke-width="1" fill="none" fill-rule="evenodd">
        <g id="Group-18">
            <path d="M162.557737,43.2272409 C162.557737,43.2272409 142.219737,36.8592409 121.588737,42.0702409 C121.588737,42.0702409 122.410737,48.8732409 119.603737,56.2822409 L119.931737,57.8242409 C119.931737,57.8242409 157.145737,55.0132409 162.557737,43.2272409" id="Fill-245" fill="#D67D37"></path>
            <path d="M161.528437,42.3996409 C161.528437,42.3996409 146.358437,39.6726409 75.653437,52.3556409 L87.095437,40.4896409 C87.095437,40.4896409 149.866437,32.0476409 161.528437,42.3996409" id="Fill-247" fill="#D67D37"></path>
            <path d="M46.996237,34.3791409 C46.995237,34.3591409 45.441237,3.64314086 76.836237,0.381140864 C108.240237,-2.88185914 112.154237,15.4821409 112.606237,29.6531409 C119.027237,30.4841409 125.409237,31.5191409 131.740237,32.6731409 C136.982237,33.6301409 142.203237,34.6831409 147.328237,35.9851409 C152.341237,37.2581409 158.204237,38.5761409 162.037237,41.7681409 C163.954237,43.3651409 161.800237,43.7211409 160.276237,43.3531409 C153.680237,41.7611409 147.449237,40.3391409 140.433237,40.4351409 C120.965237,40.7001409 101.816237,45.8431409 82.969237,51.0881409 C68.479237,55.1191409 54.725237,61.4801409 40.119237,65.1321409 C30.866237,67.4471409 21.005237,66.8191409 12.690237,63.3701409 C7.84223702,61.3581409 -6.09376298,53.4501409 3.02823702,47.7441409 C7.68623702,44.8301409 12.644237,43.3611409 17.737237,41.4151409 C20.060237,40.5261409 46.895237,32.3851409 46.996237,34.3791409" id="Fill-249" fill="#E87F52"></path>
            <path d="M13.349737,60.9972409 C9.96273702,59.5902409 7.03373702,57.6552409 4.74073702,55.2542409 C3.56973702,54.0312409 1.38973702,49.5122409 2.39573702,47.7552409 L3.14473702,48.0662409 C2.39373702,49.3772409 4.23973702,53.5112409 5.40173702,54.7262409 C10.528737,60.0922409 18.958737,63.0692409 28.532737,62.8932409 C36.156737,62.7532409 44.365737,60.7842409 54.366737,56.6942409 C58.492737,55.0072409 62.607737,53.1012409 66.586737,51.2582409 C70.619737,49.3902409 74.789737,47.4582409 78.984737,45.7482409 C106.795737,34.4092409 136.407737,32.8382409 160.228737,41.4382409 L159.862737,42.1562409 C136.247737,33.6312409 106.878737,35.1942409 79.283737,46.4462409 C75.109737,48.1472409 70.949737,50.0742409 66.925737,51.9372409 C62.937737,53.7852409 58.812737,55.6952409 54.665737,57.3912409 C44.549737,61.5282409 36.229737,63.5202409 28.483737,63.6632409 C22.935737,63.7652409 17.755737,62.8292409 13.349737,60.9972409" id="Fill-251" fill="#D67D37"></path>
            <path d="M15.760837,55.6393409 C15.451837,55.5113409 15.146837,55.3793409 14.841837,55.2433409 C11.649837,53.8103409 6.90883702,49.9253409 6.36683702,45.7713409 L7.21083702,45.6233409 C7.71383702,49.4723409 12.314837,53.2243409 15.265837,54.5473409 C18.907837,56.1813409 22.841837,57.2013409 26.969837,57.5833409 C38.889837,58.6863409 51.185837,54.1253409 59.397837,50.5983409 C69.503837,46.2583409 79.738837,42.0143409 90.684837,37.6263409 C110.616837,29.6343409 138.789837,34.6823409 150.820837,36.8383409 L151.623837,36.9823409 L151.398837,37.7373409 L150.594837,37.5933409 C139.670837,35.6363409 110.654837,30.4363409 90.977837,38.3253409 C80.037837,42.7113409 69.811837,46.9513409 59.711837,51.2883409 C51.403837,54.8573409 38.953837,59.4713409 26.819837,58.3483409 C22.939837,57.9893409 19.224837,57.0783409 15.760837,55.6393409" id="Fill-253" fill="#D67D37"></path>
            <path d="M23.071437,51.7428409 C19.001437,50.0518409 15.071437,46.7458409 13.353437,43.2898409 L14.133437,42.9308409 C16.290437,47.2678409 22.072437,51.3578409 27.024437,52.0458409 C32.330437,52.7838409 38.010437,51.8568409 42.918437,50.9308409 C49.654437,49.6598409 58.454437,47.7528409 66.777437,44.2568409 C68.175437,43.6688409 69.585437,43.0268409 70.947437,42.4068409 C73.784437,41.1138409 76.717437,39.7758409 79.762437,38.8358409 C84.307437,37.4318409 89.158437,36.9098409 93.787437,37.3268409 L93.639437,38.0928409 C89.130437,37.6868409 84.407437,38.1958409 79.980437,39.5618409 C76.996437,40.4838409 74.091437,41.8078409 71.281437,43.0878409 C69.913437,43.7118409 68.497437,44.3578409 67.085437,44.9508409 C58.677437,48.4818409 49.812437,50.4038409 43.029437,51.6838409 C38.048437,52.6238409 32.277437,53.5628409 26.832437,52.8058409 C25.606437,52.6358409 24.331437,52.2668409 23.071437,51.7428409" id="Fill-255" fill="#D67D37"></path>
            <path d="M28.093837,46.4880409 C25.418837,45.3760409 22.684837,43.5710409 19.913837,41.0820409 L20.535837,40.5150409 C25.292837,44.7880409 29.899837,46.9850409 34.229837,47.0460409 C38.837837,47.1100409 43.579837,46.2780409 47.662837,45.4930409 C52.896837,44.4880409 57.998837,43.4570409 62.897837,41.9160409 C64.266837,41.4860409 65.651837,41.0050409 66.989837,40.5400409 C69.947837,39.5130409 73.004837,38.4510409 76.132837,37.8420409 C78.861837,37.3110409 89.852837,35.4510409 93.776837,36.0540409 L93.572837,36.8130409 C90.155837,36.2880409 80.244837,37.8160409 76.248837,38.5940409 C73.189837,39.1900409 70.164837,40.2400409 67.239837,41.2560409 C65.894837,41.7230409 64.502837,42.2060409 63.119837,42.6410409 C58.171837,44.1970409 53.039837,45.2340409 47.778837,46.2450409 C43.648837,47.0390409 38.848837,47.8810409 34.150837,47.8150409 C32.174837,47.7870409 30.151837,47.3430409 28.093837,46.4880409" id="Fill-257" fill="#D67D37"></path>
            <path d="M35.210037,41.7140409 C32.890037,40.7500409 30.837037,39.5070409 29.578037,38.1740409 L30.242037,37.6490409 C33.100037,40.6740409 40.234037,43.2090409 44.924037,42.8630409 C50.059037,42.4850409 55.186037,41.0410409 60.144037,39.6460409 C61.941037,39.1390409 63.800037,38.6150409 65.636037,38.1500409 C66.491037,37.9320409 67.475037,37.6710409 68.554037,37.3840409 C76.110037,35.3790409 88.758037,32.0210409 94.474037,34.0560409 L94.110037,34.7760409 C88.655037,32.8330409 76.185037,36.1430409 68.734037,38.1210409 C67.651037,38.4090409 66.664037,38.6710409 65.807037,38.8890409 C63.982037,39.3520409 62.130037,39.8740409 60.338037,40.3790409 C55.334037,41.7870409 50.159037,43.2450409 44.928037,43.6300409 C42.092037,43.8390409 38.398037,43.0390409 35.210037,41.7140409" id="Fill-259" fill="#D67D37"></path>
            <path d="M47.459137,33.3278409 C47.751137,33.5498409 48.154137,33.6598409 48.537137,33.7528409 C68.521137,38.6208409 90.581137,35.8678409 111.116137,29.8428409 C111.805137,29.6408409 112.575137,29.3698409 112.884137,28.7718409 C113.064137,28.4198409 113.012137,28.0298409 113.015137,27.6528409 C113.025137,26.2658409 112.234137,24.8348409 112.131137,23.4008409 C111.594137,23.5258409 90.230137,27.1328409 88.091137,27.4068409 C79.641137,28.4928409 71.225137,29.1668409 62.771137,29.3488409 C61.492137,29.3768409 47.236137,28.8178409 47.620137,27.6188409 C47.170137,29.0288409 47.097137,30.4788409 47.018137,31.9198409 C46.994137,32.3358409 46.995137,32.7788409 47.243137,33.1118409 C47.305137,33.1938409 47.378137,33.2658409 47.459137,33.3278409" id="Fill-261" fill="#B8F0DE"></path>
            <path d="M46.931737,32.4557409 C46.931737,32.4557409 80.814737,39.9257409 112.922737,27.6167409 L113.181737,29.1907409 C113.181737,29.1907409 83.593737,43.1687409 46.984737,33.8477409 L46.931737,32.4557409 Z" id="Fill-263" fill="#FF5C58"></path>
            <path d="M47.193437,31.2814409 C47.035437,31.2164409 46.943437,31.0614409 46.976437,30.8914409 C47.017437,30.6794409 47.238437,30.5264409 47.469437,30.5474409 C47.472437,30.5474409 48.215437,30.6154409 49.555437,30.7134409 C49.789437,30.7314409 49.946437,30.9164409 49.909437,31.1274409 C49.872437,31.3394409 49.654437,31.4974409 49.422437,31.4804409 C48.069437,31.3814409 47.319437,31.3124409 47.319437,31.3124409 C47.274437,31.3084409 47.231437,31.2974409 47.193437,31.2814409" id="Fill-265" fill="#48B795"></path>
            <path d="M102.226637,29.0085409 C102.115637,28.9625409 102.032637,28.8705409 102.008637,28.7515409 C101.968637,28.5455409 102.124637,28.3355409 102.355637,28.2835409 C103.738637,27.9725409 105.078637,27.6345409 106.337637,27.2795409 C106.566637,27.2155409 106.793637,27.3265409 106.848637,27.5295409 C106.902637,27.7315409 106.760637,27.9475409 106.532637,28.0125409 C105.256637,28.3725409 103.899637,28.7145409 102.499637,29.0295409 C102.402637,29.0515409 102.307637,29.0425409 102.226637,29.0085409 M94.113637,30.4775409 C93.990637,30.4265409 93.902637,30.3195409 93.890637,30.1855409 C93.871637,29.9765409 94.045637,29.7795409 94.280637,29.7455409 C95.665637,29.5475409 97.029637,29.3285409 98.330637,29.0945409 C98.565637,29.0525409 98.776637,29.1885409 98.804637,29.3955409 C98.832637,29.6045409 98.666637,29.8065409 98.433637,29.8485409 C97.121637,30.0845409 95.746637,30.3055409 94.348637,30.5055409 C94.263637,30.5175409 94.182637,30.5065409 94.113637,30.4775409 M85.944637,31.3975409 C85.812637,31.3425409 85.722637,31.2255409 85.719637,31.0815409 C85.715637,30.8695409 85.903637,30.6815409 86.137637,30.6625409 C87.531637,30.5435409 88.902637,30.4075409 90.212637,30.2605409 C90.448637,30.2345409 90.647637,30.3845409 90.658637,30.5945409 C90.668637,30.8055409 90.487637,30.9985409 90.252637,31.0245409 C88.933637,31.1725409 87.553637,31.3075409 86.152637,31.4275409 C86.077637,31.4345409 86.005637,31.4225409 85.944637,31.3975409 M77.767637,31.9115409 C77.629637,31.8535409 77.539637,31.7275409 77.543637,31.5765409 C77.550637,31.3645409 77.747637,31.1845409 77.981637,31.1755409 C79.329637,31.1185409 80.690637,31.0495409 82.059637,30.9635409 C82.294637,30.9485409 82.483637,31.1085409 82.481637,31.3205409 C82.479637,31.5325409 82.288637,31.7165409 82.052637,31.7305409 C80.676637,31.8165409 79.308637,31.8865409 77.955637,31.9435409 C77.886637,31.9465409 77.823637,31.9345409 77.767637,31.9115409 M69.598637,32.1035409 C69.455637,32.0445409 69.363637,31.9105409 69.375637,31.7545409 C69.392637,31.5415409 69.595637,31.3685409 69.830637,31.3665409 C71.159637,31.3585409 72.519637,31.3395409 73.904637,31.3075409 C74.139637,31.3015409 74.318637,31.4695409 74.306637,31.6815409 C74.294637,31.8945409 74.094637,32.0715409 73.860637,32.0765409 C72.470637,32.1085409 71.104637,32.1275409 69.770637,32.1365409 C69.707637,32.1365409 69.650637,32.1245409 69.598637,32.1035409 M61.451637,32.0265409 C61.303637,31.9655409 61.210637,31.8245409 61.229637,31.6645409 C61.253637,31.4515409 61.462637,31.2845409 61.696637,31.2905409 C62.992637,31.3215409 64.350637,31.3465409 65.760637,31.3595409 C65.995637,31.3615409 66.167637,31.5365409 66.147637,31.7485409 C66.125637,31.9605409 65.919637,32.1315409 65.686637,32.1295409 C64.271637,32.1155409 62.909637,32.0915409 61.608637,32.0585409 C61.550637,32.0575409 61.497637,32.0465409 61.451637,32.0265409 M53.328637,31.7045409 C53.176637,31.6415409 53.083637,31.4945409 53.108637,31.3295409 C53.141637,31.1175409 53.355637,30.9565409 53.588637,30.9685409 C54.795637,31.0345409 56.154637,31.1005409 57.638637,31.1595409 C57.871637,31.1675409 58.037637,31.3485409 58.009637,31.5605409 C57.981637,31.7725409 57.769637,31.9375409 57.536637,31.9285409 C56.046637,31.8695409 54.683637,31.8035409 53.471637,31.7375409 C53.420637,31.7345409 53.372637,31.7225409 53.328637,31.7045409" id="Fill-267" fill="#48B795"></path>
            <path d="M110.152437,26.7507409 C110.058437,26.7117409 109.983437,26.6397409 109.949437,26.5437409 C109.878437,26.3467409 110.001437,26.1227409 110.224437,26.0427409 C110.902437,25.8007409 111.563437,25.5477409 112.210437,25.2837409 C112.429437,25.1937409 112.674437,25.2777409 112.756437,25.4707409 C112.840437,25.6637409 112.727437,25.8927409 112.507437,25.9817409 C111.849437,26.2507409 111.173437,26.5077409 110.483437,26.7547409 C110.368437,26.7957409 110.250437,26.7917409 110.152437,26.7507409" id="Fill-269" fill="#48B795"></path>
            <path d="M47.376137,28.1144409 C47.376137,28.1144409 63.401137,34.6934409 112.131137,23.4004409 L111.851137,21.5364409 C111.851137,21.5364409 83.640137,31.0514409 47.813137,25.9954409 L47.376137,28.1144409 Z" id="Fill-271" fill="#FF5C58"></path>
            <path d="M50.595837,31.1740409 C50.595837,31.1740409 44.489837,38.8060409 41.059837,39.9240409 L42.630837,41.1320409 L43.928837,41.1150409 L43.875837,41.6500409 L45.399837,42.6800409 L46.181837,42.0520409 L46.491837,43.1340409 L48.514837,43.5250409 L49.784837,42.9530409 L50.951837,43.3190409 L51.623837,42.8830409 L52.369837,43.3520409 C52.369837,43.3520409 54.111837,37.9590409 50.595837,31.1740409" id="Fill-273" fill="#FF8181"></path>
            <path d="M43.928837,41.1154409 C43.928837,41.1154409 48.905837,37.3224409 50.260837,32.8624409 C50.260837,32.8624409 49.468837,37.6404409 43.928837,41.1154409" id="Fill-275" fill="#FF8181"></path>
            <path d="M46.412237,42.1476409 C46.412237,42.1476409 50.354237,37.6896409 50.261237,32.8626409 C50.261237,32.8626409 50.734237,38.0826409 46.412237,42.1476409" id="Fill-277" fill="#FF8181"></path>
            <path d="M49.698337,43.1061409 C49.698337,43.1061409 51.562337,35.9021409 50.260337,32.8621409 C50.260337,32.8621409 52.078337,36.5191409 49.698337,43.1061409" id="Fill-279" fill="#FF8181"></path>
            <path d="M51.660237,42.8215409 C51.660237,42.8215409 52.837237,35.3005409 50.261237,32.8625409 C50.261237,32.8625409 53.464237,34.9465409 51.660237,42.8215409" id="Fill-281" fill="#FF8181"></path>
            <path d="M51.753037,31.8849409 C51.400037,32.5009409 50.582037,32.7799409 49.926037,32.5079409 C49.271037,32.2349409 49.024037,31.5139409 49.378037,30.8979409 C49.731037,30.2809409 50.549037,30.0029409 51.204037,30.2749409 C51.860037,30.5479409 52.107037,31.2679409 51.753037,31.8849409" id="Fill-283" fill="#FF8181"></path>
            <path d="M73.874137,32.9992409 C73.874137,32.9992409 75.978137,41.7212409 78.662137,43.6502409 L76.616137,44.3792409 L75.408137,44.0292409 L75.204137,44.5432409 L73.288137,45.1172409 L72.853137,44.3272409 L72.049137,45.2622409 L69.969137,45.1082409 L69.049137,44.2452409 L67.782137,44.2882409 L67.359137,43.7072409 L66.437137,43.9542409 C66.437137,43.9542409 67.363137,38.4522409 73.874137,32.9992409" id="Fill-285" fill="#FF8181"></path>
            <path d="M75.408337,44.0295409 C75.408337,44.0295409 72.543337,39.1955409 73.387337,34.6675409 C73.387337,34.6675409 71.864337,39.3485409 75.408337,44.0295409" id="Fill-287" fill="#FF8181"></path>
            <path d="M72.591937,44.3581409 C72.591937,44.3581409 71.010937,39.1661409 73.387937,34.6671409 C73.387937,34.6671409 70.468937,39.4371409 72.591937,44.3581409" id="Fill-289" fill="#FF8181"></path>
            <path d="M69.058737,44.4108409 C69.058737,44.4108409 70.726737,37.1808409 73.387737,34.6668409 C73.387737,34.6668409 69.950737,37.6258409 69.058737,44.4108409" id="Fill-291" fill="#FF8181"></path>
            <path d="M67.355637,43.6393409 C67.355637,43.6393409 69.817637,36.2893409 73.387637,34.6673409 C73.387637,34.6673409 69.398637,35.7963409 67.355637,43.6393409" id="Fill-293" fill="#FF8181"></path>
            <path d="M72.452237,33.3674409 C72.491237,34.0354409 73.125237,34.5074409 73.869237,34.4214409 C74.613237,34.3344409 75.184237,33.7214409 75.146237,33.0534409 C75.107237,32.3854409 74.473237,31.9134409 73.729237,32.0004409 C72.985237,32.0874409 72.414237,32.6994409 72.452237,33.3674409" id="Fill-295" fill="#FF8181"></path>
            <path d="M97.005937,29.5129409 C97.005937,29.5129409 90.899937,37.1449409 87.469937,38.2619409 L89.040937,39.4709409 L90.338937,39.4539409 L90.285937,39.9889409 L91.809937,41.0189409 L92.592937,40.3909409 L92.901937,41.4729409 L94.924937,41.8639409 L96.194937,41.2919409 L97.361937,41.6579409 L98.033937,41.2219409 L98.779937,41.6909409 C98.779937,41.6909409 100.522937,36.2969409 97.005937,29.5129409" id="Fill-297" fill="#FF8181"></path>
            <path d="M90.339037,39.4543409 C90.339037,39.4543409 95.316037,35.6613409 96.671037,31.2013409 C96.671037,31.2013409 95.879037,35.9793409 90.339037,39.4543409" id="Fill-299" fill="#FF8181"></path>
            <path d="M92.823337,40.4865409 C92.823337,40.4865409 96.764337,36.0285409 96.671337,31.2005409 C96.671337,31.2005409 97.144337,36.4215409 92.823337,40.4865409" id="Fill-301" fill="#FF8181"></path>
            <path d="M96.108537,41.4445409 C96.108537,41.4445409 97.972537,34.2405409 96.670537,31.2005409 C96.670537,31.2005409 98.489537,34.8585409 96.108537,41.4445409" id="Fill-303" fill="#FF8181"></path>
            <path d="M98.070437,41.1598409 C98.070437,41.1598409 99.247437,33.6388409 96.671437,31.2008409 C96.671437,31.2008409 99.874437,33.2848409 98.070437,41.1598409" id="Fill-305" fill="#FF8181"></path>
            <path d="M98.163237,30.2238409 C97.810237,30.8398409 96.992237,31.1188409 96.337237,30.8468409 C95.681237,30.5738409 95.434237,29.8528409 95.788237,29.2368409 C96.141237,28.6198409 96.959237,28.3408409 97.615237,28.6138409 C98.270237,28.8868409 98.517237,29.6068409 98.163237,30.2238409" id="Fill-307" fill="#FF8181"></path>
            <path d="M112.408337,25.7199409 C112.408337,25.7199409 121.543337,28.8699409 125.029337,27.9529409 L124.325337,29.8309409 L123.217337,30.5219409 L123.538337,30.9469409 L122.782337,32.6469409 L121.793337,32.5399409 L122.092337,33.6259409 L120.581337,35.0549409 L119.208337,35.2619409 L118.408337,36.2049409 L117.613337,36.2009409 L117.223337,37.0039409 C117.223337,37.0039409 112.949337,33.3789409 112.408337,25.7199409" id="Fill-309" fill="#FF8181"></path>
            <path d="M123.216937,30.5217409 C123.216937,30.5217409 117.030937,30.0117409 113.568937,26.9687409 C113.568937,26.9687409 116.718937,30.5877409 123.216937,30.5217409" id="Fill-311" fill="#FF8181"></path>
            <path d="M121.647537,32.7463409 C121.647537,32.7463409 115.993537,31.1093409 113.568537,26.9683409 C113.568537,26.9683409 115.876537,31.6493409 121.647537,32.7463409" id="Fill-313" fill="#FF8181"></path>
            <path d="M119.360437,35.3429409 C119.360437,35.3429409 114.042437,30.2509409 113.568437,26.9679409 C113.568437,26.9679409 113.924437,31.0549409 119.360437,35.3429409" id="Fill-315" fill="#FF8181"></path>
            <path d="M117.550937,36.1677409 C117.550937,36.1677409 112.650937,30.4337409 113.568937,26.9687409 C113.568937,26.9687409 111.935937,30.4747409 117.550937,36.1677409" id="Fill-317" fill="#FF8181"></path>
            <path d="M111.796037,26.9509409 C112.415037,27.2819409 113.253037,27.0739409 113.667037,26.4859409 C114.082037,25.8989409 113.916037,25.1549409 113.297037,24.8239409 C112.678037,24.4929409 111.840037,24.7009409 111.426037,25.2889409 C111.011037,25.8759409 111.177037,26.6199409 111.796037,26.9509409" id="Fill-319" fill="#FF8181"></path>
            <path d="M61.957137,6.17844086 C61.565137,6.01544086 61.194137,5.84744086 60.842137,5.67444086 L61.293137,4.99144086 C65.277137,6.95544086 71.931137,8.19944086 79.105137,8.32144086 C88.741137,8.48444086 97.432137,6.65444086 100.732137,3.76644086 L101.299137,4.29944086 C97.832137,7.33244086 88.881137,9.25744086 79.024137,9.09044086 C72.353137,8.97744086 66.102137,7.90144086 61.957137,6.17844086" id="Fill-321" fill="#D67D37"></path>
            <path d="M68.368237,2.31764086 L68.627237,1.56764086 C72.034237,2.31364086 75.997237,2.74364086 80.088237,2.81264086 C85.676237,2.90764086 91.094237,2.32464086 95.343237,1.17264086 L95.528237,1.90764086 C91.193237,3.08364086 85.681237,3.67864086 80.006237,3.58264086 C75.856237,3.51264086 71.832237,3.07464086 68.368237,2.31764086" id="Fill-323" fill="#D67D37"></path>
            <path d="M58.860437,10.0529409 C58.091437,9.73394086 57.388437,9.39594086 56.755437,9.03994086 L57.242437,8.37694086 C61.773437,10.9199409 70.460437,12.5989409 79.913437,12.7589409 C91.334437,12.9529409 101.456437,10.2869409 105.552437,7.55294086 L106.021437,8.15994086 C101.930437,10.8899409 91.990437,13.7339409 79.832437,13.5279409 C71.405437,13.3849409 63.808437,12.1089409 58.860437,10.0529409" id="Fill-325" fill="#D67D37"></path>
            <path d="M52.298937,14.5866409 L52.631937,13.8576409 C60.656937,16.3816409 69.269937,17.6406409 79.735937,17.8186409 C92.674937,18.0376409 104.539937,15.8046409 108.590937,12.3876409 L109.143937,12.9316409 C104.864937,16.5416409 93.013937,18.8146409 79.653937,18.5876409 C69.098937,18.4086409 60.406937,17.1366409 52.298937,14.5866409" id="Fill-327" fill="#D67D37"></path>
            <path d="M49.064537,21.2287409 L49.422537,20.5087409 C55.771537,22.7347409 72.954537,23.3207409 77.249537,23.2887409 C81.325537,23.2577409 85.458537,23.1227409 89.533537,22.8867409 C93.907537,22.6327409 97.314537,22.1577409 100.578537,21.3467409 C104.234537,20.4377409 107.610537,19.1357409 110.616537,17.4777409 L111.016537,18.1267409 C107.937537,19.8257409 104.481537,21.1577409 100.744537,22.0867409 C97.418537,22.9137409 93.958537,23.3967409 89.521537,23.6547409 C85.431537,23.8917409 81.282537,24.0267409 77.191537,24.0587409 C74.139537,24.0817409 55.988537,23.6567409 49.064537,21.2287409" id="Fill-329" fill="#D67D37"></path>
        </g>
    </g>
</svg>