<?xml version="1.0" encoding="UTF-8"?>
<svg width="135px" height="97px" viewBox="0 0 135 97" version="1.1" xmlns="http://www.w3.org/2000/svg" xmlns:xlink="http://www.w3.org/1999/xlink">
    <!-- Generator: Sketch 53.1 (72631) - https://sketchapp.com -->
    <title>Group 21</title>
    <desc>Created with Sketch.</desc>
    <defs>
        <path d="M1.962,22.882 C-0.827,32.589 0.157,52.542 19.175,54.999 L19.175,54.999 C39.649,57.646 44.634,38.444 44.441,28.339 L44.441,28.339 C44.219,16.645 35.082,1.449 26.274,0.318 L26.274,0.318 C25.919,0.273 25.559,0.25 25.193,0.251 L25.193,0.251 C16.475,0.252 4.831,12.89 1.962,22.882" id="path-1"></path>
        <path d="M1.962,22.882 C-0.827,32.589 0.157,52.542 19.175,54.999 L19.175,54.999 C39.649,57.646 44.634,38.444 44.441,28.339 L44.441,28.339 C44.219,16.645 35.082,1.449 26.274,0.318 L26.274,0.318 C25.919,0.273 25.559,0.25 25.193,0.251 L25.193,0.251 C16.475,0.252 4.831,12.89 1.962,22.882" id="path-3"></path>
        <path d="M1.962,22.882 C-0.827,32.589 0.157,52.542 19.175,54.999 L19.175,54.999 C39.649,57.646 44.634,38.444 44.441,28.339 L44.441,28.339 C44.219,16.645 35.082,1.449 26.274,0.318 L26.274,0.318 C25.919,0.273 25.559,0.25 25.193,0.251 L25.193,0.251 C16.475,0.252 4.831,12.89 1.962,22.882" id="path-5"></path>
        <path d="M1.962,22.882 C-0.827,32.589 0.157,52.542 19.175,54.999 L19.175,54.999 C39.649,57.646 44.634,38.444 44.441,28.339 L44.441,28.339 C44.219,16.645 35.082,1.449 26.274,0.318 L26.274,0.318 C25.919,0.273 25.559,0.25 25.193,0.251 L25.193,0.251 C16.475,0.252 4.831,12.89 1.962,22.882" id="path-7"></path>
        <path d="M1.962,22.882 C-0.827,32.589 0.157,52.542 19.175,54.999 L19.175,54.999 C39.649,57.646 44.634,38.444 44.441,28.339 L44.441,28.339 C44.219,16.645 35.082,1.449 26.274,0.318 L26.274,0.318 C25.919,0.273 25.559,0.25 25.193,0.251 L25.193,0.251 C16.475,0.252 4.831,12.89 1.962,22.882" id="path-9"></path>
        <path d="M1.962,22.882 C-0.827,32.589 0.157,52.542 19.175,54.999 L19.175,54.999 C39.649,57.646 44.634,38.444 44.441,28.339 L44.441,28.339 C44.219,16.645 35.082,1.449 26.274,0.318 L26.274,0.318 C25.919,0.273 25.559,0.25 25.193,0.251 L25.193,0.251 C16.475,0.252 4.831,12.89 1.962,22.882" id="path-11"></path>
        <path d="M1.962,22.882 C-0.827,32.589 0.157,52.542 19.175,54.999 L19.175,54.999 C39.649,57.646 44.634,38.444 44.441,28.339 L44.441,28.339 C44.219,16.645 35.082,1.449 26.274,0.318 L26.274,0.318 C25.919,0.273 25.559,0.25 25.193,0.251 L25.193,0.251 C16.475,0.252 4.831,12.89 1.962,22.882" id="path-13"></path>
        <path d="M1.962,22.882 C-0.827,32.589 0.157,52.542 19.175,54.999 L19.175,54.999 C39.649,57.646 44.634,38.444 44.441,28.339 L44.441,28.339 C44.219,16.645 35.082,1.449 26.274,0.318 L26.274,0.318 C25.919,0.273 25.559,0.25 25.193,0.251 L25.193,0.251 C16.475,0.252 4.831,12.89 1.962,22.882" id="path-15"></path>
        <path d="M1.962,22.882 C-0.827,32.589 0.157,52.542 19.175,54.999 L19.175,54.999 C39.649,57.646 44.634,38.444 44.441,28.339 L44.441,28.339 C44.219,16.645 35.082,1.449 26.274,0.318 L26.274,0.318 C25.919,0.273 25.559,0.25 25.193,0.251 L25.193,0.251 C16.475,0.252 4.831,12.89 1.962,22.882" id="path-17"></path>
        <path d="M1.962,22.882 C-0.827,32.589 0.157,52.542 19.175,54.999 L19.175,54.999 C39.649,57.646 44.634,38.444 44.441,28.339 L44.441,28.339 C44.219,16.645 35.082,1.449 26.274,0.318 L26.274,0.318 C25.919,0.273 25.559,0.25 25.193,0.251 L25.193,0.251 C16.475,0.252 4.831,12.89 1.962,22.882" id="path-19"></path>
        <path d="M1.962,22.882 C-0.827,32.589 0.157,52.542 19.175,54.999 L19.175,54.999 C39.649,57.646 44.634,38.444 44.441,28.339 L44.441,28.339 C44.219,16.645 35.082,1.449 26.274,0.318 L26.274,0.318 C25.919,0.273 25.559,0.25 25.193,0.251 L25.193,0.251 C16.475,0.252 4.831,12.89 1.962,22.882" id="path-21"></path>
        <path d="M1.962,22.882 C-0.827,32.589 0.157,52.542 19.175,54.999 L19.175,54.999 C39.649,57.646 44.634,38.444 44.441,28.339 L44.441,28.339 C44.219,16.645 35.082,1.449 26.274,0.318 L26.274,0.318 C25.919,0.273 25.559,0.25 25.193,0.251 L25.193,0.251 C16.475,0.252 4.831,12.89 1.962,22.882" id="path-23"></path>
        <path d="M1.962,22.882 C-0.827,32.589 0.157,52.542 19.175,54.999 L19.175,54.999 C39.649,57.646 44.634,38.444 44.441,28.339 L44.441,28.339 C44.219,16.645 35.082,1.449 26.274,0.318 L26.274,0.318 C25.919,0.273 25.559,0.25 25.193,0.251 L25.193,0.251 C16.475,0.252 4.831,12.89 1.962,22.882" id="path-25"></path>
        <path d="M1.962,22.882 C-0.827,32.589 0.157,52.542 19.175,54.999 L19.175,54.999 C39.649,57.646 44.634,38.444 44.441,28.339 L44.441,28.339 C44.219,16.645 35.082,1.449 26.274,0.318 L26.274,0.318 C25.919,0.273 25.559,0.25 25.193,0.251 L25.193,0.251 C16.475,0.252 4.831,12.89 1.962,22.882" id="path-27"></path>
        <path d="M1.962,22.882 C-0.827,32.589 0.157,52.542 19.175,54.999 L19.175,54.999 C39.649,57.646 44.634,38.444 44.441,28.339 L44.441,28.339 C44.219,16.645 35.082,1.449 26.274,0.318 L26.274,0.318 C25.919,0.273 25.559,0.25 25.193,0.251 L25.193,0.251 C16.475,0.252 4.831,12.89 1.962,22.882" id="path-29"></path>
        <path d="M1.962,22.882 C-0.827,32.589 0.157,52.542 19.175,54.999 L19.175,54.999 C39.649,57.646 44.634,38.444 44.441,28.339 L44.441,28.339 C44.219,16.645 35.082,1.449 26.274,0.318 L26.274,0.318 C25.919,0.273 25.559,0.25 25.193,0.251 L25.193,0.251 C16.475,0.252 4.831,12.89 1.962,22.882" id="path-31"></path>
        <path d="M1.962,22.882 C-0.827,32.589 0.157,52.542 19.175,54.999 L19.175,54.999 C39.649,57.646 44.634,38.444 44.441,28.339 L44.441,28.339 C44.219,16.645 35.082,1.449 26.274,0.318 L26.274,0.318 C25.919,0.273 25.559,0.25 25.193,0.251 L25.193,0.251 C16.475,0.252 4.831,12.89 1.962,22.882" id="path-33"></path>
        <path d="M1.962,22.882 C-0.827,32.589 0.157,52.542 19.175,54.999 L19.175,54.999 C39.649,57.646 44.634,38.444 44.441,28.339 L44.441,28.339 C44.219,16.645 35.082,1.449 26.274,0.318 L26.274,0.318 C25.919,0.273 25.559,0.25 25.193,0.251 L25.193,0.251 C16.475,0.252 4.831,12.89 1.962,22.882" id="path-35"></path>
        <polygon id="path-37" points="0.0695 0.668312049 20.066 0.668312049 20.066 42.5828 0.0695 42.5828"></polygon>
        <path d="M6.431,1.385 C4.544,2.492 4.476,4.376 4.477,4.38 L4.477,4.38 L0.069,42.346 L2.113,42.583 L6.527,4.546 C6.529,4.511 6.601,3.671 7.473,3.16 L7.473,3.16 C7.92,2.898 8.554,2.749 9.303,2.731 L9.303,2.731 C10.849,2.695 13.754,3.195 18.823,5.788 L18.823,5.788 L19.128,5.943 L20.066,4.111 L19.76,3.955 C15.48,1.766 12.03,0.668 9.456,0.668 L9.456,0.668 C8.256,0.668 7.247,0.907 6.431,1.385" id="path-39"></path>
        <path d="M6.431,1.385 C4.544,2.492 4.476,4.376 4.477,4.38 L4.477,4.38 L0.069,42.346 L2.113,42.583 L6.527,4.546 C6.529,4.511 6.601,3.671 7.473,3.16 L7.473,3.16 C7.92,2.898 8.554,2.749 9.303,2.731 L9.303,2.731 C10.849,2.695 13.754,3.195 18.823,5.788 L18.823,5.788 L19.128,5.943 L20.066,4.111 L19.76,3.955 C15.48,1.766 12.03,0.668 9.456,0.668 L9.456,0.668 C8.256,0.668 7.247,0.907 6.431,1.385" id="path-41"></path>
        <path d="M6.431,1.385 C4.544,2.492 4.476,4.376 4.477,4.38 L4.477,4.38 L0.069,42.346 L2.113,42.583 L6.527,4.546 C6.529,4.511 6.601,3.671 7.473,3.16 L7.473,3.16 C7.92,2.898 8.554,2.749 9.303,2.731 L9.303,2.731 C10.849,2.695 13.754,3.195 18.823,5.788 L18.823,5.788 L19.128,5.943 L20.066,4.111 L19.76,3.955 C15.48,1.766 12.03,0.668 9.456,0.668 L9.456,0.668 C8.256,0.668 7.247,0.907 6.431,1.385" id="path-43"></path>
        <path d="M6.431,1.385 C4.544,2.492 4.476,4.376 4.477,4.38 L4.477,4.38 L0.069,42.346 L2.113,42.583 L6.527,4.546 C6.529,4.511 6.601,3.671 7.473,3.16 L7.473,3.16 C7.92,2.898 8.554,2.749 9.303,2.731 L9.303,2.731 C10.849,2.695 13.754,3.195 18.823,5.788 L18.823,5.788 L19.128,5.943 L20.066,4.111 L19.76,3.955 C15.48,1.766 12.03,0.668 9.456,0.668 L9.456,0.668 C8.256,0.668 7.247,0.907 6.431,1.385" id="path-45"></path>
        <path d="M6.431,1.385 C4.544,2.492 4.476,4.376 4.477,4.38 L4.477,4.38 L0.069,42.346 L2.113,42.583 L6.527,4.546 C6.529,4.511 6.601,3.671 7.473,3.16 L7.473,3.16 C7.92,2.898 8.554,2.749 9.303,2.731 L9.303,2.731 C10.849,2.695 13.754,3.195 18.823,5.788 L18.823,5.788 L19.128,5.943 L20.066,4.111 L19.76,3.955 C15.48,1.766 12.03,0.668 9.456,0.668 L9.456,0.668 C8.256,0.668 7.247,0.907 6.431,1.385" id="path-47"></path>
        <path d="M6.431,1.385 C4.544,2.492 4.476,4.376 4.477,4.38 L4.477,4.38 L0.069,42.346 L2.113,42.583 L6.527,4.546 C6.529,4.511 6.601,3.671 7.473,3.16 L7.473,3.16 C7.92,2.898 8.554,2.749 9.303,2.731 L9.303,2.731 C10.849,2.695 13.754,3.195 18.823,5.788 L18.823,5.788 L19.128,5.943 L20.066,4.111 L19.76,3.955 C15.48,1.766 12.03,0.668 9.456,0.668 L9.456,0.668 C8.256,0.668 7.247,0.907 6.431,1.385" id="path-49"></path>
        <path d="M6.431,1.385 C4.544,2.492 4.476,4.376 4.477,4.38 L4.477,4.38 L0.069,42.346 L2.113,42.583 L6.527,4.546 C6.529,4.511 6.601,3.671 7.473,3.16 L7.473,3.16 C7.92,2.898 8.554,2.749 9.303,2.731 L9.303,2.731 C10.849,2.695 13.754,3.195 18.823,5.788 L18.823,5.788 L19.128,5.943 L20.066,4.111 L19.76,3.955 C15.48,1.766 12.03,0.668 9.456,0.668 L9.456,0.668 C8.256,0.668 7.247,0.907 6.431,1.385" id="path-51"></path>
        <path d="M6.431,1.385 C4.544,2.492 4.476,4.376 4.477,4.38 L4.477,4.38 L0.069,42.346 L2.113,42.583 L6.527,4.546 C6.529,4.511 6.601,3.671 7.473,3.16 L7.473,3.16 C7.92,2.898 8.554,2.749 9.303,2.731 L9.303,2.731 C10.849,2.695 13.754,3.195 18.823,5.788 L18.823,5.788 L19.128,5.943 L20.066,4.111 L19.76,3.955 C15.48,1.766 12.03,0.668 9.456,0.668 L9.456,0.668 C8.256,0.668 7.247,0.907 6.431,1.385" id="path-53"></path>
        <path d="M6.431,1.385 C4.544,2.492 4.476,4.376 4.477,4.38 L4.477,4.38 L0.069,42.346 L2.113,42.583 L6.527,4.546 C6.529,4.511 6.601,3.671 7.473,3.16 L7.473,3.16 C7.92,2.898 8.554,2.749 9.303,2.731 L9.303,2.731 C10.849,2.695 13.754,3.195 18.823,5.788 L18.823,5.788 L19.128,5.943 L20.066,4.111 L19.76,3.955 C15.48,1.766 12.03,0.668 9.456,0.668 L9.456,0.668 C8.256,0.668 7.247,0.907 6.431,1.385" id="path-55"></path>
        <path d="M6.431,1.385 C4.544,2.492 4.476,4.376 4.477,4.38 L4.477,4.38 L0.069,42.346 L2.113,42.583 L6.527,4.546 C6.529,4.511 6.601,3.671 7.473,3.16 L7.473,3.16 C7.92,2.898 8.554,2.749 9.303,2.731 L9.303,2.731 C10.849,2.695 13.754,3.195 18.823,5.788 L18.823,5.788 L19.128,5.943 L20.066,4.111 L19.76,3.955 C15.48,1.766 12.03,0.668 9.456,0.668 L9.456,0.668 C8.256,0.668 7.247,0.907 6.431,1.385" id="path-57"></path>
        <path d="M6.431,1.385 C4.544,2.492 4.476,4.376 4.477,4.38 L4.477,4.38 L0.069,42.346 L2.113,42.583 L6.527,4.546 C6.529,4.511 6.601,3.671 7.473,3.16 L7.473,3.16 C7.92,2.898 8.554,2.749 9.303,2.731 L9.303,2.731 C10.849,2.695 13.754,3.195 18.823,5.788 L18.823,5.788 L19.128,5.943 L20.066,4.111 L19.76,3.955 C15.48,1.766 12.03,0.668 9.456,0.668 L9.456,0.668 C8.256,0.668 7.247,0.907 6.431,1.385" id="path-59"></path>
        <path d="M6.431,1.385 C4.544,2.492 4.476,4.376 4.477,4.38 L4.477,4.38 L0.069,42.346 L2.113,42.583 L6.527,4.546 C6.529,4.511 6.601,3.671 7.473,3.16 L7.473,3.16 C7.92,2.898 8.554,2.749 9.303,2.731 L9.303,2.731 C10.849,2.695 13.754,3.195 18.823,5.788 L18.823,5.788 L19.128,5.943 L20.066,4.111 L19.76,3.955 C15.48,1.766 12.03,0.668 9.456,0.668 L9.456,0.668 C8.256,0.668 7.247,0.907 6.431,1.385" id="path-61"></path>
    </defs>
    <g id="Page-1" stroke="none" stroke-width="1" fill="none" fill-rule="evenodd">
        <g id="Group-21" transform="translate(0.910822, 1.000000)">
            <path d="M112.530378,66.3391 C112.722378,76.4441 107.737378,95.6471 87.2643775,92.9991 C68.2463775,90.5411 67.2613775,70.5891 70.0513775,60.8821 C73.0413775,50.4701 85.5553775,37.1861 94.3633775,38.3181 C103.171378,39.4491 112.307378,54.6451 112.530378,66.3391" id="Fill-387" fill="#F9C34B"></path>
            <g id="Group-392" transform="translate(68.089178, 38.000000)">
                <mask id="mask-2" fill="white">
                    <use xlink:href="#path-1"></use>
                </mask>
                <g id="Clip-391"></g>
                <path d="M-2.887,36.1086 L21.841,58.2776" id="Stroke-390" stroke="#F4B147" mask="url(#mask-2)"></path>
            </g>
            <g id="Group-395" transform="translate(68.089178, 38.000000)">
                <mask id="mask-4" fill="white">
                    <use xlink:href="#path-3"></use>
                </mask>
                <g id="Clip-394"></g>
                <path d="M-3.4973,28.845 L28.6777,57.69" id="Stroke-393" stroke="#F4B147" mask="url(#mask-4)"></path>
            </g>
            <g id="Group-398" transform="translate(68.089178, 38.000000)">
                <mask id="mask-6" fill="white">
                    <use xlink:href="#path-5"></use>
                </mask>
                <g id="Clip-397"></g>
                <path d="M-2.1028,15.2712 L37.9602,51.1862" id="Stroke-396" stroke="#F4B147" mask="url(#mask-6)"></path>
            </g>
            <g id="Group-401" transform="translate(68.089178, 38.000000)">
                <mask id="mask-8" fill="white">
                    <use xlink:href="#path-7"></use>
                </mask>
                <g id="Clip-400"></g>
                <path d="M2.2996,11.199 L42.3626,47.114" id="Stroke-399" stroke="#F4B147" mask="url(#mask-8)"></path>
            </g>
            <g id="Group-404" transform="translate(68.089178, 38.000000)">
                <mask id="mask-10" fill="white">
                    <use xlink:href="#path-9"></use>
                </mask>
                <g id="Clip-403"></g>
                <path d="M6.2888,6.9417 L46.3518,42.8567" id="Stroke-402" stroke="#F4B147" mask="url(#mask-10)"></path>
            </g>
            <g id="Group-407" transform="translate(68.089178, 38.000000)">
                <mask id="mask-12" fill="white">
                    <use xlink:href="#path-11"></use>
                </mask>
                <g id="Clip-406"></g>
                <path d="M9.2253,0.8875 L49.2893,36.8035" id="Stroke-405" stroke="#F4B147" mask="url(#mask-12)"></path>
            </g>
            <g id="Group-410" transform="translate(68.089178, 38.000000)">
                <mask id="mask-14" fill="white">
                    <use xlink:href="#path-13"></use>
                </mask>
                <g id="Clip-409"></g>
                <path d="M11.7195,-3.7615 L51.7825,32.1555" id="Stroke-408" stroke="#F4B147" mask="url(#mask-14)"></path>
            </g>
            <g id="Group-413" transform="translate(68.089178, 38.000000)">
                <mask id="mask-16" fill="white">
                    <use xlink:href="#path-15"></use>
                </mask>
                <g id="Clip-412"></g>
                <path d="M14.5183,-8.2712 L54.5823,27.6448" id="Stroke-411" stroke="#F4B147" mask="url(#mask-16)"></path>
            </g>
            <g id="Group-416" transform="translate(68.089178, 38.000000)">
                <mask id="mask-18" fill="white">
                    <use xlink:href="#path-17"></use>
                </mask>
                <g id="Clip-415"></g>
                <path d="M-1.6614,23.0525 L34.6776,55.6285" id="Stroke-414" stroke="#F4B147" mask="url(#mask-18)"></path>
            </g>
            <g id="Group-419" transform="translate(68.089178, 38.000000)">
                <mask id="mask-20" fill="white">
                    <use xlink:href="#path-19"></use>
                </mask>
                <g id="Clip-418"></g>
                <path d="M28.3699,2.0623 L-2.1031,15.2713" id="Stroke-417" stroke="#F4B147" mask="url(#mask-20)"></path>
            </g>
            <g id="Group-422" transform="translate(68.089178, 38.000000)">
                <mask id="mask-22" fill="white">
                    <use xlink:href="#path-21"></use>
                </mask>
                <g id="Clip-421"></g>
                <path d="M49.9089,41.7908 L10.2619,58.9748" id="Stroke-420" stroke="#F4B147" mask="url(#mask-22)"></path>
            </g>
            <g id="Group-425" transform="translate(68.089178, 38.000000)">
                <mask id="mask-24" fill="white">
                    <use xlink:href="#path-23"></use>
                </mask>
                <g id="Clip-424"></g>
                <path d="M52.8796,28.4719 L3.5116,49.8689" id="Stroke-423" stroke="#F4B147" mask="url(#mask-24)"></path>
            </g>
            <g id="Group-428" transform="translate(68.089178, 38.000000)">
                <mask id="mask-26" fill="white">
                    <use xlink:href="#path-25"></use>
                </mask>
                <g id="Clip-427"></g>
                <path d="M49.9929,23.2156 L0.6249,44.6116" id="Stroke-426" stroke="#F4B147" mask="url(#mask-26)"></path>
            </g>
            <g id="Group-431" transform="translate(68.089178, 38.000000)">
                <mask id="mask-28" fill="white">
                    <use xlink:href="#path-27"></use>
                </mask>
                <g id="Clip-430"></g>
                <path d="M49.5691,17.9421 L0.2001,39.3391" id="Stroke-429" stroke="#F4B147" mask="url(#mask-28)"></path>
            </g>
            <g id="Group-434" transform="translate(68.089178, 38.000000)">
                <mask id="mask-30" fill="white">
                    <use xlink:href="#path-29"></use>
                </mask>
                <g id="Clip-433"></g>
                <path d="M47.8757,12.2468 L-1.4913,33.6428" id="Stroke-432" stroke="#F4B147" mask="url(#mask-30)"></path>
            </g>
            <g id="Group-437" transform="translate(68.089178, 38.000000)">
                <mask id="mask-32" fill="white">
                    <use xlink:href="#path-31"></use>
                </mask>
                <g id="Clip-436"></g>
                <path d="M45.7898,6.0452 L-3.5792,27.4412" id="Stroke-435" stroke="#F4B147" mask="url(#mask-32)"></path>
            </g>
            <g id="Group-440" transform="translate(68.089178, 38.000000)">
                <mask id="mask-34" fill="white">
                    <use xlink:href="#path-33"></use>
                </mask>
                <g id="Clip-439"></g>
                <path d="M44.5593,0.8811 L-4.8087,22.2771" id="Stroke-438" stroke="#F4B147" mask="url(#mask-34)"></path>
            </g>
            <g id="Group-443" transform="translate(68.089178, 38.000000)">
                <mask id="mask-36" fill="white">
                    <use xlink:href="#path-35"></use>
                </mask>
                <g id="Clip-442"></g>
                <path d="M49.9988,35.7141 L5.2228,55.1221" id="Stroke-441" stroke="#F4B147" mask="url(#mask-36)"></path>
            </g>
            <path d="M101.702178,8.8826 C101.702178,8.8826 93.8081775,39.0816 95.6421775,41.5166 C97.4771775,43.9526 103.507178,15.5016 101.702178,8.8826" id="Fill-445" fill="#8AB539"></path>
            <path d="M91.6982775,38.4587 C91.6982775,38.4587 84.3672775,31.0317 89.7012775,17.4467 C91.4362775,22.4217 97.1672775,37.1337 91.6982775,38.4587" id="Fill-447" fill="#59871E"></path>
            <path d="M93.4795775,42.2419 C93.4795775,42.2419 83.8945775,37.1649 84.3305775,22.8709 C87.7075775,27.1239 98.2655775,39.5289 93.4795775,42.2419" id="Fill-449" fill="#679926"></path>
            <path d="M93.8789775,38.3757 C93.8789775,38.3757 86.8719775,29.7087 93.9289775,13.1707 C95.2569775,19.0927 99.8149775,36.5837 93.8789775,38.3757" id="Fill-451" fill="#679926"></path>
            <path d="M81.0732775,25.1501 C81.0732775,25.1501 83.6182775,45.5391 97.4922775,43.8411 C109.507278,41.4991 90.7742775,44.6821 81.0732775,25.1501" id="Fill-453" fill="#7BAA30"></path>
            <path d="M100.088978,40.6018 C100.088978,40.6018 110.049978,35.7768 110.703978,21.4858 C107.004978,25.6458 95.5139775,37.7668 100.088978,40.6018" id="Fill-455" fill="#59871E"></path>
            <path d="M96.8447775,43.6296 C96.8447775,43.6296 107.941778,41.6626 113.480778,28.1376 C108.545778,31.1376 92.3447775,39.1326 96.8447775,43.6296" id="Fill-457" fill="#679926"></path>
            <path d="M97.8828775,39.6443 C97.8828775,39.6443 108.056878,33.5603 108.322878,16.0003 C104.614878,21.1653 93.0648775,36.2333 97.8828775,39.6443" id="Fill-459" fill="#679926"></path>
            <path d="M115.586978,31.2209 C115.586978,31.2209 104.353978,49.0519 92.0539775,43.4169 C81.7669775,37.7209 98.3639775,46.7049 115.586978,31.2209" id="Fill-461" fill="#7BAA30"></path>
            <path d="M92.0781775,39.0217 C92.0781775,39.0217 93.4861775,19.0517 100.218178,11.3567 C98.0681775,19.4997 96.5801775,35.9047 96.8061775,39.6267 C97.3021775,47.8047 92.0781775,39.0217 92.0781775,39.0217" id="Fill-463" fill="#7BAA30"></path>
            <path d="M99.3437775,40.2942 C99.3437775,40.2942 106.631778,23.1062 103.243778,15.2372 C102.142778,22.2272 96.4667775,35.9942 94.8247775,38.8652 C91.2187775,45.1712 99.3437775,40.2942 99.3437775,40.2942" id="Fill-465" fill="#7BAA30"></path>
            <path d="M94.4687775,44.2327 C94.4687775,44.2327 85.7667775,38.4907 88.9837775,24.4527 C91.4597775,29.2217 99.6867775,42.3637 94.4687775,44.2327" id="Fill-467" fill="#8AB539"></path>
            <path d="M94.4687775,44.2327 C94.4687775,44.2327 103.895778,42.3387 107.529778,28.3737 C103.008778,31.9517 90.5457775,40.8077 94.4687775,44.2327" id="Fill-469" fill="#8AB539"></path>
            <path d="M22.8994775,71.0911 C10.3214775,65.7631 2.34247751,57.0961 0.432477511,46.6861 C-1.19952249,37.7891 1.86947751,28.5161 8.25147751,23.0621 C11.4324775,20.3421 14.7674775,19.8541 18.2954775,19.8061 C28.7554775,19.6651 33.1034775,25.0281 33.3064775,25.4071 L31.0064775,28.3711 C27.7114775,25.4201 19.8294775,20.8151 11.0934775,25.6611 C4.92247751,29.0851 3.06747751,38.4631 4.46947751,46.1071 C6.15947751,55.3141 13.3324775,63.0291 24.6664775,67.8301 L22.8994775,71.0911 Z" id="Fill-471" fill="#FFFFFF"></path>
            <path d="M15.1601775,64.5432 C15.1601775,64.5432 9.84317751,70.4062 14.5461775,72.3272 C19.0521775,74.1692 20.3701775,71.2112 19.7441775,69.6362 C19.1191775,68.0602 17.8091775,63.9422 15.1601775,64.5432" id="Fill-473" fill="#C2F4FF"></path>
            <g id="Group-479" transform="translate(16.089178, 0.000000)">
                <path d="M64.9519,43.446 C55.7489,23.919 48.6559,10.426 57.5899,6.821 C63.8319,4.302 66.8439,4.027 64.6789,3.093 C58.9859,0.634 35.1459,-0.058 33.6649,0.09 C31.6199,-0.114 1.5579,1.733 9.7379,6.821 C17.9179,11.91 11.5789,23.919 2.3769,43.446 C-6.8261,62.973 15.2599,89.255 16.6909,90.102 C18.1229,90.949 49.2059,90.949 50.6379,90.102 C52.0679,89.255 74.1539,62.973 64.9519,43.446" id="Fill-475" fill="#C2F4FF"></path>
                <path d="M64.9519,43.446 C55.7489,23.919 48.6559,10.426 57.5899,6.821 C63.8319,4.302 66.8439,4.027 64.6789,3.093 C58.9859,0.634 35.1459,-0.058 33.6649,0.09 C31.6199,-0.114 1.5579,1.733 9.7379,6.821 C17.9179,11.91 11.5789,23.919 2.3769,43.446 C-6.8261,62.973 15.2599,89.255 16.6909,90.102 C18.1229,90.949 49.2059,90.949 50.6379,90.102 C52.0679,89.255 74.1539,62.973 64.9519,43.446 Z" id="Stroke-477" stroke="#FFFFFF" stroke-width="2" stroke-linejoin="round"></path>
            </g>
            <path d="M79.3232775,44.0647 C76.1312775,37.3677 73.1902775,31.0407 71.1842775,26.2317 C69.8782775,23.0977 29.6282775,23.0977 28.3222775,26.2317 C26.3312775,31.0067 23.4172775,37.2797 20.2512775,43.9227 C20.2282775,43.9707 20.2062775,44.0157 20.1822775,44.0647 C14.7482775,55.4667 20.8632775,69.3347 26.5442775,78.3247 C29.9522775,83.7187 33.2052775,87.3577 33.7132775,87.6547 C35.0652775,88.4467 64.4412775,88.4467 65.7942775,87.6547 C67.1472775,86.8627 88.0192775,62.3087 79.3232775,44.0647" id="Fill-480" fill="#E7F982"></path>
            <path d="M71.0586775,26.0476 C71.0586775,26.6676 61.8536775,26.9316 50.0416775,26.9316 C38.2296775,26.9316 28.4096775,26.7936 28.4096775,26.1736 C28.4096775,25.4036 34.2876775,23.8816 50.0416775,23.8816 C64.6426775,23.8816 71.0586775,25.3046 71.0586775,26.0476" id="Fill-482" fill="#F8FFB8"></path>
            <path d="M79.9668775,3.6384 C79.9668775,4.4854 62.3628775,5.9724 49.8758775,6.2234 C37.5178775,6.4714 27.4948775,4.8214 27.4948775,3.9734 C27.4948775,3.1264 37.5158775,0.8384 49.8758775,0.8384 C62.2368775,0.8384 79.9668775,2.7914 79.9668775,3.6384" id="Fill-484" fill="#B0F4FF"></path>
            <path d="M80.2910775,3.5823 C80.1310775,3.8123 79.8040775,3.8363 79.5520775,3.9233 C79.2810775,3.9923 79.0080775,4.0493 78.7340775,4.1033 C78.1870775,4.2083 77.6360775,4.2963 77.0850775,4.3783 C75.9810775,4.5403 74.8750775,4.6783 73.7680775,4.8053 C71.5520775,5.0573 69.3320775,5.2673 67.1100775,5.4553 C62.6670775,5.8263 58.2150775,6.1103 53.7540775,6.2833 C49.2920775,6.4583 44.8130775,6.4783 40.3400775,6.2913 C38.1030775,6.1983 35.8660775,6.0573 33.6270775,5.8403 C32.5080775,5.7293 31.3880775,5.6013 30.2620775,5.4303 C29.6970775,5.3433 29.1340775,5.2463 28.5570775,5.1203 C28.2670775,5.0553 27.9770775,4.9853 27.6650775,4.8863 C27.5090775,4.8373 27.3480775,4.7803 27.1570775,4.6923 C27.0630775,4.6493 26.9510775,4.5903 26.8190775,4.4983 C26.7380775,4.4343 26.6670775,4.3833 26.5570775,4.2503 C26.4640775,4.1393 26.2990775,3.8943 26.2930775,3.5313 L28.2930775,3.5313 C28.2940775,3.2383 28.1580775,3.0593 28.1110775,2.9993 C28.0440775,2.9223 28.0280775,2.9133 28.0010775,2.8943 C27.9830775,2.8813 27.9910775,2.8923 28.0240775,2.9083 C28.0850775,2.9403 28.1850775,2.9833 28.2920775,3.0213 C28.5090775,3.0993 28.7580775,3.1713 29.0100775,3.2373 C29.5160775,3.3693 30.0460775,3.4823 30.5790775,3.5843 C31.6480775,3.7903 32.7370775,3.9573 33.8300775,4.1073 C36.0170775,4.4043 38.2210775,4.6273 40.4310775,4.8043 C44.8510775,5.1573 49.2880775,5.3123 53.7340775,5.2993 C58.1810775,5.2903 62.6320775,5.1703 67.0780775,4.9633 C69.3020775,4.8583 71.5240775,4.7303 73.7440775,4.5603 C74.8540775,4.4743 75.9630775,4.3783 77.0680775,4.2563 C77.6220775,4.1943 78.1740775,4.1273 78.7240775,4.0423 C78.9980775,3.9993 79.2720775,3.9523 79.5440775,3.8933 C79.7990775,3.8163 80.1250775,3.8043 80.2910775,3.5823" id="Fill-486" fill="#FFFFFF"></path>
            <path d="M21.9560775,48.427 C21.4860775,45.815 23.5600775,40.706 26.8370775,32.802 C29.0590775,27.447 31.3550775,21.907 31.9880775,18.363 C33.1150775,12.042 31.5950775,10.286 30.9470775,8.132 C30.5990775,6.973 31.8940775,7.77 32.6150775,7.791 C33.3900775,7.813 36.7870775,10.093 35.2090775,18.938 C34.5130775,22.832 32.1470775,28.538 29.8580775,34.056 C27.5480775,39.63 25.8270775,46.372 25.3160775,48.758 C25.1400775,49.584 22.1050775,49.257 21.9560775,48.427" id="Fill-488" fill="#FFFFFF"></path>
            <path d="M26.2539775,72.6497 C20.1969775,67.6047 21.2369775,51.8197 21.5569775,51.4737 C22.1269775,50.8537 24.3999775,51.5847 24.4739775,52.4177 C24.4829775,52.5207 24.1519775,63.6397 28.2949775,71.4077 C28.5669775,71.9187 26.7109775,73.0307 26.2539775,72.6497" id="Fill-490" fill="#FFFFFF"></path>
            <polygon id="Fill-492" fill="#FFFFFF" points="43.2480775 33.5559 51.2970775 35.9859 54.0700775 27.5699 45.8070775 25.0769"></polygon>
            <polygon id="Fill-494" fill="#FFFFFF" points="43.2480775 33.5559 40.9280775 28.4909 43.1690775 21.3399 45.8070775 25.0769"></polygon>
            <polygon id="Fill-496" fill="#FFFFFF" points="54.0703775 27.5701 50.0813775 23.4761 43.1693775 21.3401 45.8063775 25.0761"></polygon>
            <polygon id="Stroke-498" stroke="#FFFFFF" stroke-width="0.25" stroke-linejoin="round" points="43.2480775 33.5559 51.2970775 35.9859 54.0700775 27.5699 45.8070775 25.0769"></polygon>
            <polygon id="Stroke-500" stroke="#FFFFFF" stroke-width="0.25" stroke-linejoin="round" points="54.0703775 27.5701 50.0813775 23.4761 43.1693775 21.3401 45.8063775 25.0761"></polygon>
            <polygon id="Stroke-502" stroke="#FFFFFF" stroke-width="0.25" stroke-linejoin="round" points="43.2480775 33.5559 40.9280775 28.4909 43.1690775 21.3399 45.8070775 25.0769"></polygon>
            <polygon id="Fill-504" fill="#FFFFFF" points="44.1279775 81.8611 51.4619775 77.7471 47.3219775 69.9121 39.7949775 74.1351"></polygon>
            <polygon id="Fill-506" fill="#FFFFFF" points="44.1279775 81.8611 38.8699775 80.0191 35.2739775 73.4441 39.7949775 74.1351"></polygon>
            <polygon id="Fill-508" fill="#FFFFFF" points="47.3223775 69.9124 41.6063775 69.9474 35.2733775 73.4444 39.7953775 74.1354"></polygon>
            <polygon id="Stroke-510" stroke="#FFFFFF" stroke-width="0.25" stroke-linejoin="round" points="44.1279775 81.8611 51.4619775 77.7471 47.3219775 69.9121 39.7949775 74.1351"></polygon>
            <polygon id="Stroke-512" stroke="#FFFFFF" stroke-width="0.25" stroke-linejoin="round" points="47.3223775 69.9124 41.6063775 69.9474 35.2733775 73.4444 39.7953775 74.1354"></polygon>
            <polygon id="Stroke-514" stroke="#FFFFFF" stroke-width="0.25" stroke-linejoin="round" points="44.1279775 81.8611 38.8699775 80.0191 35.2739775 73.4441 39.7949775 74.1351"></polygon>
            <polygon id="Fill-516" fill="#FFFFFF" points="71.0351775 59.7 77.2601775 54.046 71.4691775 47.34 65.0801775 53.143"></polygon>
            <polygon id="Fill-518" fill="#FFFFFF" points="71.0351775 59.7 65.4981775 59.084 60.5181775 53.484 65.0801775 53.143"></polygon>
            <polygon id="Fill-520" fill="#FFFFFF" points="71.4687775 47.3396 65.9067775 48.6556 60.5187775 53.4846 65.0797775 53.1426"></polygon>
            <polygon id="Stroke-522" stroke="#FFFFFF" stroke-width="0.25" stroke-linejoin="round" points="71.0351775 59.7 77.2601775 54.046 71.4691775 47.34 65.0801775 53.143"></polygon>
            <polygon id="Stroke-524" stroke="#FFFFFF" stroke-width="0.25" stroke-linejoin="round" points="71.4687775 47.3396 65.9067775 48.6556 60.5187775 53.4846 65.0797775 53.1426"></polygon>
            <polygon id="Stroke-526" stroke="#FFFFFF" stroke-width="0.25" stroke-linejoin="round" points="71.0351775 59.7 65.4981775 59.084 60.5181775 53.484 65.0801775 53.143"></polygon>
            <polygon id="Fill-528" fill="#FFFFFF" points="32.2031775 53.3118 39.5891775 49.2918 35.5491775 41.4048 27.9691775 45.5318"></polygon>
            <polygon id="Fill-530" fill="#FFFFFF" points="32.2031775 53.3118 26.9701775 51.4038 23.4561775 44.7838 27.9691775 45.5318"></polygon>
            <polygon id="Fill-532" fill="#FFFFFF" points="35.5488775 41.405 29.8328775 41.367 23.4558775 44.783 27.9688775 45.532"></polygon>
            <polygon id="Stroke-534" stroke="#FFFFFF" stroke-width="0.25" stroke-linejoin="round" points="32.2031775 53.3118 39.5891775 49.2918 35.5491775 41.4048 27.9691775 45.5318"></polygon>
            <polygon id="Stroke-536" stroke="#FFFFFF" stroke-width="0.25" stroke-linejoin="round" points="35.5488775 41.405 29.8328775 41.367 23.4558775 44.783 27.9688775 45.532"></polygon>
            <polygon id="Stroke-538" stroke="#FFFFFF" stroke-width="0.25" stroke-linejoin="round" points="32.2031775 53.3118 26.9701775 51.4038 23.4561775 44.7838 27.9691775 45.5318"></polygon>
            <path d="M13.1826775,65.8601 C13.1826775,65.8601 9.94567751,70.7391 14.5456775,72.3271 C19.1466775,73.9161 20.3696775,71.2121 19.7446775,69.6361" id="Fill-540" fill="#FFFFFF"></path>
            <path d="M35.5498775,57.1213 C36.0108775,57.3773 36.0468775,57.6563 35.8418775,58.5973 C35.6368775,59.5383 35.1638775,59.6903 34.8898775,59.6303 C34.6148775,59.5713 34.3178775,59.2483 34.5228775,58.3073 C34.7288775,57.3663 35.3058775,56.9833 35.5498775,57.1213" id="Fill-542" fill="#E2C533"></path>
            <path d="M56.0547775,57.031 C55.5977775,57.294 55.3407775,57.183 54.6367775,56.525 C53.9337775,55.865 54.0457775,55.383 54.2387775,55.178 C54.4297775,54.973 54.8587775,54.882 55.5617775,55.541 C56.2657775,56.199 56.2977775,56.891 56.0547775,57.031" id="Fill-544" fill="#FFFA99"></path>
            <path d="M51.7012775,51.0525 C51.6002775,51.4775 51.8912775,51.4735 52.2992775,51.5695 C52.7062775,51.6645 53.3532775,51.3795 53.5672775,51.0185 C53.7902775,50.6425 52.9942775,50.2555 52.5772775,50.2215 C51.9072775,50.1675 51.8012775,50.6255 51.7012775,51.0525" id="Fill-546" fill="#CEED5D"></path>
            <path d="M54.1992775,65.3191 C54.0992775,65.7451 54.3902775,65.7401 54.7972775,65.8361 C55.2052775,65.9311 55.8512775,65.6461 56.0652775,65.2861 C56.2882775,64.9091 55.4932775,64.5221 55.0762775,64.4881 C54.4062775,64.4341 54.3002775,64.8921 54.1992775,65.3191" id="Fill-548" fill="#CEED5D"></path>
            <path d="M59.9707775,77.8445 C59.8697775,78.2695 60.1607775,78.2655 60.5687775,78.3615 C60.9757775,78.4565 61.6227775,78.1715 61.8367775,77.8105 C62.0587775,77.4345 61.2637775,77.0475 60.8467775,77.0135 C60.1767775,76.9595 60.0707775,77.4175 59.9707775,77.8445" id="Fill-550" fill="#CEED5D"></path>
            <path d="M35.5683775,36.1365 C35.4683775,36.5615 35.7593775,36.5565 36.1663775,36.6535 C36.5733775,36.7475 37.2203775,36.4635 37.4343775,36.1025 C37.6573775,35.7265 36.8623775,35.3395 36.4453775,35.3055 C35.7753775,35.2515 35.6683775,35.7095 35.5683775,36.1365" id="Fill-552" fill="#CEED5D"></path>
            <path d="M39.0566775,39.8518 C39.1986775,40.2658 39.4426775,40.1068 39.8376775,39.9718 C40.2336775,39.8358 40.6296775,39.2508 40.6196775,38.8318 C40.6086775,38.3938 39.7296775,38.4898 39.3586775,38.6818 C38.7616775,38.9918 38.9136775,39.4368 39.0566775,39.8518" id="Fill-554" fill="#CEED5D"></path>
            <path d="M60.8135775,35.47 C60.3955775,35.79 60.1255775,35.714 59.3425775,35.152 C58.5605775,34.59 58.6085775,34.096 58.7725775,33.868 C58.9355775,33.639 59.3495775,33.493 60.1325775,34.056 C60.9155775,34.618 61.0375775,35.3 60.8135775,35.47" id="Fill-556" fill="#FFFA99"></path>
            <path d="M65.4668775,40.4827 C64.9838775,40.2727 64.9188775,39.9997 65.0288775,39.0427 C65.1378775,38.0847 65.5928775,37.8867 65.8708775,37.9187 C66.1498775,37.9497 66.4788775,38.2407 66.3698775,39.1977 C66.2608775,40.1557 65.7248775,40.5937 65.4668775,40.4827" id="Fill-558" fill="#FFFA99"></path>
            <path d="M67.6699775,33.4216 C67.2689775,33.5956 67.4459775,33.8256 67.6119775,34.2096 C67.7789775,34.5936 68.3939775,34.9436 68.8109775,34.9006 C69.2449775,34.8536 69.0809775,33.9846 68.8589775,33.6296 C68.5039775,33.0596 68.0719775,33.2476 67.6699775,33.4216" id="Fill-560" fill="#CEED5D"></path>
            <path d="M30.2432775,76.2502 C29.8242775,76.5702 29.5542775,76.4932 28.7712775,75.9322 C27.9902775,75.3702 28.0382775,74.8752 28.2022775,74.6482 C28.3652775,74.4192 28.7792775,74.2732 29.5612775,74.8362 C30.3442775,75.3982 30.4672775,76.0802 30.2432775,76.2502" id="Fill-562" fill="#FFFA99"></path>
            <path d="M48.7051775,81.3015 C48.2811775,81.6145 48.0131775,81.5335 47.2391775,80.9615 C46.4641775,80.3865 46.5201775,79.8945 46.6871775,79.6695 C46.8531775,79.4435 47.2691775,79.3035 48.0441775,79.8765 C48.8181775,80.4505 48.9311775,81.1335 48.7051775,81.3015" id="Fill-564" fill="#E2C533"></path>
            <path d="M37.0996775,74.2019 C36.6986775,74.3749 36.8756775,74.6059 37.0406775,74.9899 C37.2076775,75.3739 37.8226775,75.7229 38.2396775,75.6799 C38.6746775,75.6339 38.5096775,74.7649 38.2886775,74.4099 C37.9336775,73.8399 37.5016775,74.0279 37.0996775,74.2019" id="Fill-566" fill="#ABBC46"></path>
            <path d="M73.6826775,70.2747 C73.6826775,70.2747 73.3906775,67.0617 75.3646775,66.3997 C77.3376775,65.7387 76.3896775,66.9707 76.3896775,66.9707 C76.3896775,66.9707 74.5226775,66.5957 74.1076775,70.3877 C74.0076775,71.2987 73.6846775,70.3727 73.6846775,70.3727" id="Fill-568" fill="#544223"></path>
            <path d="M80.8076775,80.2922 C77.7136775,75.8452 79.1446775,75.6722 77.7806775,72.5552 C76.4146775,69.4382 73.8456775,70.3012 73.8456775,70.3012 C73.8456775,70.3012 71.2906775,69.3742 69.8696775,72.4652 C68.4476775,75.5552 69.8746775,75.7552 66.6996775,80.1442 C63.5226775,84.5332 63.1116775,95.0042 73.5696775,95.0912 C84.0266775,95.1962 83.9026775,84.7392 80.8076775,80.2922" id="Fill-570" fill="#CEED5D"></path>
            <path d="M72.1982775,91.8313 C72.3022775,91.8323 72.3852775,91.9183 72.3832775,92.0233 C72.3812775,92.1273 72.2952775,92.2103 72.1902775,92.2073 C72.0872775,92.2063 72.0042775,92.1203 72.0062775,92.0153 C72.0082775,91.9113 72.0942775,91.8293 72.1982775,91.8313" id="Fill-572" fill="#E2C533"></path>
            <path d="M73.0996775,91.8748 C73.1966775,91.8758 73.2736775,91.9568 73.2726775,92.0528 C73.2706775,92.1488 73.1896775,92.2268 73.0926775,92.2248 C72.9956775,92.2238 72.9186775,92.1438 72.9206775,92.0468 C72.9226775,91.9498 73.0026775,91.8728 73.0996775,91.8748" id="Fill-574" fill="#ECFF9C"></path>
            <path d="M71.9756775,71.2312 C72.0306775,71.2322 72.0726775,71.2772 72.0716775,71.3302 C72.0706775,71.3842 72.0256775,71.4272 71.9726775,71.4252 C71.9186775,71.4252 71.8756775,71.3802 71.8766775,71.3272 C71.8776775,71.2732 71.9216775,71.2312 71.9756775,71.2312" id="Fill-576" fill="#ECFF9C"></path>
            <path d="M79.2070775,81.8206 C79.2960775,81.8216 79.3660775,81.8956 79.3640775,81.9836 C79.3620775,82.0706 79.2900775,82.1426 79.2010775,82.1406 C79.1130775,82.1386 79.0430775,82.0656 79.0450775,81.9776 C79.0470775,81.8886 79.1190775,81.8196 79.2070775,81.8206" id="Fill-578" fill="#ECFF9C"></path>
            <path d="M66.9238775,82.4622 C67.0248775,82.4642 67.1058775,82.5472 67.1038775,82.6492 C67.1028775,82.7502 67.0178775,82.8302 66.9158775,82.8292 C66.8158775,82.8272 66.7348775,82.7442 66.7368775,82.6412 C66.7388775,82.5412 66.8218775,82.4602 66.9238775,82.4622" id="Fill-580" fill="#ECFF9C"></path>
            <path d="M67.6250775,81.8298 C67.6840775,81.9248 67.6550775,82.0488 67.5610775,82.1068 C67.4660775,82.1658 67.3420775,82.1368 67.2830775,82.0428 C67.2250775,81.9468 67.2540775,81.8238 67.3490775,81.7648 C67.4430775,81.7068 67.5670775,81.7358 67.6250775,81.8298" id="Fill-582" fill="#E2C533"></path>
            <path d="M68.0654775,82.5403 C68.1234775,82.6343 68.0944775,82.7583 67.9994775,82.8163 C67.9054775,82.8763 67.7814775,82.8463 67.7224775,82.7523 C67.6634775,82.6563 67.6924775,82.5323 67.7884775,82.4743 C67.8824775,82.4153 68.0064775,82.4433 68.0654775,82.5403" id="Fill-584" fill="#E2C533"></path>
            <path d="M76.0557775,85.7361 C76.1037775,85.8531 76.0487775,85.9861 75.9317775,86.0351 C75.8157775,86.0821 75.6817775,86.0271 75.6337775,85.9101 C75.5847775,85.7931 75.6407775,85.6591 75.7577775,85.6121 C75.8737775,85.5641 76.0077775,85.6191 76.0557775,85.7361" id="Fill-586" fill="#ECFF9C"></path>
            <path d="M77.1260775,86.2253 C77.0480775,86.3393 76.8910775,86.3673 76.7760775,86.2883 C76.6630775,86.2093 76.6360775,86.0523 76.7150775,85.9383 C76.7940775,85.8263 76.9500775,85.7973 77.0640775,85.8763 C77.1780775,85.9553 77.2060775,86.1123 77.1260775,86.2253" id="Fill-588" fill="#E2C533"></path>
            <path d="M76.5332775,87.0784 C76.4542775,87.1924 76.2982775,87.2214 76.1832775,87.1414 C76.0702775,87.0614 76.0422775,86.9054 76.1212775,86.7924 C76.2002775,86.6784 76.3562775,86.6504 76.4712775,86.7294 C76.5842775,86.8084 76.6132775,86.9654 76.5332775,87.0784" id="Fill-590" fill="#E2C533"></path>
            <path d="M81.1543775,86.9084 C81.2373775,86.9114 81.3043775,86.9714 81.3023775,87.0454 C81.3013775,87.1184 81.2323775,87.1784 81.1503775,87.1764 C81.0663775,87.1754 81.0003775,87.1134 81.0023775,87.0394 C81.0043775,86.9654 81.0723775,86.9074 81.1543775,86.9084" id="Fill-592" fill="#ECFF9C"></path>
            <path d="M78.9814775,81.3 C79.0534775,81.26 79.1424775,81.28 79.1774775,81.345 C79.2124775,81.41 79.1814775,81.495 79.1084775,81.534 C79.0354775,81.575 78.9484775,81.553 78.9124775,81.489 C78.8774775,81.424 78.9084775,81.34 78.9814775,81.3" id="Fill-594" fill="#B9D63C"></path>
            <path d="M79.7832775,81.5481 C79.8852775,81.4931 80.0172775,81.5391 80.0792775,81.6521 C80.1392775,81.7661 80.1062775,81.9021 80.0042775,81.9571 C79.9012775,82.0121 79.7692775,81.9651 79.7082775,81.8531 C79.6472775,81.7391 79.6792775,81.6031 79.7832775,81.5481" id="Fill-596" fill="#B9D63C"></path>
            <path d="M66.3740775,87.8054 C66.3770775,87.8934 66.3080775,87.9674 66.2210775,87.9704 C66.1320775,87.9734 66.0580775,87.9044 66.0550775,87.8164 C66.0520775,87.7284 66.1200775,87.6544 66.2090775,87.6514 C66.2970775,87.6484 66.3710775,87.7164 66.3740775,87.8054" id="Fill-598" fill="#ECFF9C"></path>
            <path d="M66.6777775,88.3655 C66.7387775,88.4645 66.6987775,88.5985 66.5897775,88.6665 C66.4787775,88.7335 66.3417775,88.7075 66.2807775,88.6085 C66.2197775,88.5085 66.2597775,88.3745 66.3687775,88.3075 C66.4787775,88.2405 66.6157775,88.2655 66.6777775,88.3655" id="Fill-600" fill="#B9D63C"></path>
            <path d="M74.5879775,77.6614 C74.4249775,77.5804 74.3569775,77.3834 74.4369775,77.2204 C74.5159775,77.0564 74.7139775,76.9884 74.8769775,77.0674 C75.0419775,77.1464 75.1089775,77.3454 75.0289775,77.5084 C74.9489775,77.6724 74.7529775,77.7404 74.5879775,77.6614" id="Fill-602" fill="#ECFF9C"></path>
            <path d="M74.5605775,78.8333 C74.3895775,78.8433 74.2425775,78.7303 74.2315775,78.5773 C74.2225775,78.4253 74.3555775,78.2923 74.5255775,78.2833 C74.6975775,78.2713 74.8425775,78.3873 74.8525775,78.5383 C74.8625775,78.6903 74.7315775,78.8223 74.5605775,78.8333" id="Fill-604" fill="#B9D63C"></path>
            <path d="M73.2754775,77.6726 C73.0344775,77.6886 72.8264775,77.4856 72.8094775,77.2216 C72.7954775,76.9536 72.9744775,76.7296 73.2134775,76.7146 C73.4554775,76.6986 73.6614775,76.9016 73.6784775,77.1656 C73.6944775,77.4306 73.5154775,77.6576 73.2754775,77.6726" id="Fill-606" fill="#B9D63C"></path>
            <path d="M70.7812775,93.0544 C70.8842775,92.9984 71.0152775,93.0454 71.0782775,93.1584 C71.1372775,93.2714 71.1042775,93.4084 71.0032775,93.4644 C70.8992775,93.5184 70.7682775,93.4714 70.7062775,93.3594 C70.6452775,93.2464 70.6782775,93.1104 70.7812775,93.0544" id="Fill-608" fill="#B9D63C"></path>
            <path d="M80.7715775,87.3562 C80.8685775,87.3582 80.9455775,87.4382 80.9435775,87.5342 C80.9405775,87.6312 80.8615775,87.7092 80.7645775,87.7072 C80.6675775,87.7052 80.5905775,87.6252 80.5915775,87.5282 C80.5945775,87.4322 80.6745775,87.3552 80.7715775,87.3562" id="Fill-610" fill="#E2C533"></path>
            <path d="M72.3594775,71.9055 C72.3334775,71.8345 72.3764775,71.7515 72.4554775,71.7215 C72.5364775,71.6935 72.6224775,71.7285 72.6474775,71.8015 C72.6734775,71.8735 72.6304775,71.9545 72.5504775,71.9835 C72.4704775,72.0125 72.3854775,71.9785 72.3594775,71.9055" id="Fill-612" fill="#B9D63C"></path>
            <path d="M71.4726775,72.0862 C71.4896775,71.9902 71.5796775,71.9262 71.6756775,71.9422 C71.7706775,71.9582 71.8356775,72.0482 71.8196775,72.1442 C71.8036775,72.2402 71.7126775,72.3042 71.6176775,72.2872 C71.5226775,72.2722 71.4566775,72.1812 71.4726775,72.0862" id="Fill-614" fill="#ECFF9C"></path>
            <path d="M72.5576775,92.7571 C72.6616775,92.7581 72.7446775,92.8451 72.7436775,92.9491 C72.7416775,93.0521 72.6546775,93.1351 72.5506775,93.1331 C72.4466775,93.1321 72.3636775,93.0461 72.3656775,92.9421 C72.3676775,92.8381 72.4536775,92.7551 72.5576775,92.7571" id="Fill-616" fill="#E2C533"></path>
            <path d="M77.6816775,91.781 C77.6136775,91.711 77.6156775,91.6 77.6836775,91.532 C77.7516775,91.464 77.8636775,91.465 77.9316775,91.534 C77.9996775,91.603 77.9986775,91.714 77.9296775,91.781 C77.8616775,91.85 77.7496775,91.849 77.6816775,91.781" id="Fill-618" fill="#ECFF9C"></path>
            <path d="M78.6865775,91.5266 C78.6135775,91.4536 78.6135775,91.3336 78.6875775,91.2606 C78.7625775,91.1876 78.8815775,91.1876 78.9555775,91.2616 C79.0285775,91.3366 79.0275775,91.4556 78.9535775,91.5286 C78.8785775,91.6026 78.7585775,91.6016 78.6865775,91.5266" id="Fill-620" fill="#E2C533"></path>
            <g id="Group-626" transform="translate(93.089178, 55.000000)">
                <path d="M33.198,1.7004 C33.198,1.0924 23.26,0.5984 16.502,0.5984 C9.743,0.5984 0.605,1.0924 0.605,1.7004 C0.605,1.7974 0.605,1.7004 0.605,1.7004 L6.638,38.4544 L26.194,38.4544 L33.198,1.7004 C33.198,1.7004 33.198,1.7974 33.198,1.7004" id="Fill-622" fill="#C2F4FF"></path>
                <path d="M33.198,1.7004 C33.198,1.0924 23.26,0.5984 16.502,0.5984 C9.743,0.5984 0.605,1.0924 0.605,1.7004 C0.605,1.7974 0.605,1.7004 0.605,1.7004 L6.638,38.4544 L26.194,38.4544 L33.198,1.7004 C33.198,1.7004 33.198,1.7974 33.198,1.7004 Z" id="Stroke-624" stroke="#FFFFFF" stroke-linejoin="round"></path>
            </g>
            <polygon id="Fill-627" fill="#E7F982" points="118.369178 92.7322 100.613178 92.7322 96.5671775 67.4622 123.157178 67.7452"></polygon>
            <path d="M123.157278,67.7449 C123.157278,68.3779 116.782278,68.6089 109.591278,68.6089 C102.399278,68.6089 96.5672775,68.0959 96.5672775,67.4619 C96.5672775,66.8289 102.399278,66.3159 109.591278,66.3159 C116.782278,66.3159 123.157278,67.1129 123.157278,67.7449" id="Fill-629" fill="#F8FFB8"></path>
            <path d="M93.6943775,56.7004 C93.6943775,56.0924 102.832378,55.5984 109.590378,55.5984 C116.348378,55.5984 126.287378,56.0924 126.287378,56.7004" id="Stroke-631" stroke="#FFFFFF" stroke-linejoin="round"></path>
            <g id="Group-635" transform="translate(113.089178, 48.000000)">
                <mask id="mask-38" fill="white">
                    <use xlink:href="#path-37"></use>
                </mask>
                <g id="Clip-634"></g>
                <path d="M19.7605,3.9548 C13.4845,0.7458 8.9955,-0.1182 6.4315,1.3848 C4.5435,2.4918 4.4755,4.3758 4.4775,4.3798 L0.0695,42.3458 L2.1135,42.5828 L6.5275,4.5458 C6.5295,4.5108 6.6015,3.6708 7.4725,3.1608 C7.9195,2.8978 8.5535,2.7488 9.3035,2.7308 C10.8485,2.6948 13.7535,3.1948 18.8235,5.7878 L19.1275,5.9438 L20.0665,4.1108 L19.7605,3.9548 Z" id="Fill-633" fill="#FFFFFF" mask="url(#mask-38)"></path>
            </g>
            <g id="Group-639" transform="translate(113.089178, 48.000000)">
                <mask id="mask-40" fill="white">
                    <use xlink:href="#path-39"></use>
                </mask>
                <g id="Clip-638"></g>
                <path d="M16.6267,6.0188 C16.4347,6.0228 16.2377,5.9868 16.0497,5.9058 C15.3547,5.6038 15.0347,4.7958 15.3367,4.1008 L16.0927,2.3558 C16.3947,1.6598 17.2027,1.3428 17.8977,1.6418 C18.5937,1.9438 18.9117,2.7518 18.6097,3.4468 L17.8557,5.1918 C17.6347,5.6988 17.1467,6.0058 16.6267,6.0188" id="Fill-637" fill="#9314ED" mask="url(#mask-40)"></path>
            </g>
            <g id="Group-642" transform="translate(113.089178, 48.000000)">
                <mask id="mask-42" fill="white">
                    <use xlink:href="#path-41"></use>
                </mask>
                <g id="Clip-641"></g>
                <path d="M12.6111,4.2566 C12.4181,4.2616 12.2201,4.2256 12.0331,4.1436 C11.3381,3.8426 11.0171,3.0346 11.3191,2.3386 L12.0761,0.5936 C12.3781,-0.1014 13.1851,-0.4194 13.8801,-0.1194 C14.5751,0.1816 14.8951,0.9896 14.5941,1.6846 L13.8371,3.4306 C13.6171,3.9376 13.1301,4.2446 12.6111,4.2566" id="Fill-640" fill="#9314ED" mask="url(#mask-42)"></path>
            </g>
            <g id="Group-645" transform="translate(113.089178, 48.000000)">
                <mask id="mask-44" fill="white">
                    <use xlink:href="#path-43"></use>
                </mask>
                <g id="Clip-644"></g>
                <path d="M8.4519,3.8972 C7.7999,3.9122 7.2099,3.4582 7.0759,2.7952 L6.7009,0.9312 C6.5509,0.1882 7.0329,-0.5358 7.7749,-0.6848 C8.5229,-0.8378 9.2409,-0.3538 9.3909,0.3892 L9.7659,2.2532 C9.9169,2.9972 9.4349,3.7202 8.6929,3.8702 C8.6119,3.8862 8.5309,3.8952 8.4519,3.8972" id="Fill-643" fill="#9314ED" mask="url(#mask-44)"></path>
            </g>
            <g id="Group-648" transform="translate(113.089178, 48.000000)">
                <mask id="mask-46" fill="white">
                    <use xlink:href="#path-45"></use>
                </mask>
                <g id="Clip-647"></g>
                <path d="M3.5466,5.1243 C2.9946,4.6043 2.9686,3.7363 3.4876,3.1843 C4.0066,2.6323 4.8766,2.6063 5.4286,3.1253 L6.8136,4.4293 C7.3646,4.9493 7.3906,5.8173 6.8706,6.3703 C6.6096,6.6473 3.5466,5.1243 3.5466,5.1243" id="Fill-646" fill="#9314ED" mask="url(#mask-46)"></path>
            </g>
            <g id="Group-651" transform="translate(113.089178, 48.000000)">
                <mask id="mask-48" fill="white">
                    <use xlink:href="#path-47"></use>
                </mask>
                <g id="Clip-650"></g>
                <path d="M5.9343,10.5671 C5.8413,10.5691 5.7483,10.5621 5.6553,10.5451 L3.7843,10.2071 C3.0383,10.0711 2.5433,9.3581 2.6773,8.6121 C2.8123,7.8651 3.5273,7.3711 4.2723,7.5051 L6.1433,7.8441 C6.8893,7.9801 7.3853,8.6931 7.2493,9.4391 C7.1313,10.0911 6.5723,10.5521 5.9343,10.5671" id="Fill-649" fill="#9314ED" mask="url(#mask-48)"></path>
            </g>
            <g id="Group-654" transform="translate(113.089178, 48.000000)">
                <mask id="mask-50" fill="white">
                    <use xlink:href="#path-49"></use>
                </mask>
                <g id="Clip-653"></g>
                <path d="M5.4939,14.6829 C5.4029,14.6839 5.3089,14.6779 5.2169,14.6609 L3.3449,14.3229 C2.5989,14.1869 2.1029,13.4729 2.2389,12.7279 C2.3729,11.9809 3.0879,11.4869 3.8329,11.6209 L5.7049,11.9599 C6.4499,12.0949 6.9459,12.8089 6.8099,13.5549 C6.6919,14.2069 6.1329,14.6669 5.4939,14.6829" id="Fill-652" fill="#9314ED" mask="url(#mask-50)"></path>
            </g>
            <g id="Group-657" transform="translate(113.089178, 48.000000)">
                <mask id="mask-52" fill="white">
                    <use xlink:href="#path-51"></use>
                </mask>
                <g id="Clip-656"></g>
                <path d="M4.8748,18.9329 C4.7828,18.9349 4.6898,18.9279 4.5968,18.9119 L2.7258,18.5719 C1.9788,18.4379 1.4838,17.7239 1.6188,16.9769 C1.7538,16.2319 2.4698,15.7379 3.2138,15.8719 L5.0858,16.2109 C5.8308,16.3449 6.3268,17.0589 6.1908,17.8059 C6.0728,18.4569 5.5138,18.9179 4.8748,18.9329" id="Fill-655" fill="#9314ED" mask="url(#mask-52)"></path>
            </g>
            <g id="Group-660" transform="translate(113.089178, 48.000000)">
                <mask id="mask-54" fill="white">
                    <use xlink:href="#path-53"></use>
                </mask>
                <g id="Clip-659"></g>
                <path d="M4.3054,23.3899 C4.2144,23.3929 4.1214,23.3849 4.0284,23.3689 L2.1564,23.0299 C1.4104,22.8949 0.9144,22.1819 1.0504,21.4349 C1.1854,20.6889 1.8974,20.1949 2.6454,20.3289 L4.5164,20.6679 C5.2614,20.8029 5.7564,21.5159 5.6214,22.2629 C5.5034,22.9139 4.9434,23.3749 4.3054,23.3899" id="Fill-658" fill="#9314ED" mask="url(#mask-54)"></path>
            </g>
            <g id="Group-663" transform="translate(113.089178, 48.000000)">
                <mask id="mask-56" fill="white">
                    <use xlink:href="#path-55"></use>
                </mask>
                <g id="Clip-662"></g>
                <path d="M3.9275,28.1047 C3.8345,28.1077 3.7425,28.0997 3.6495,28.0837 L1.7785,27.7447 C1.0315,27.6097 0.5365,26.8957 0.6705,26.1497 C0.8065,25.4037 1.5195,24.9087 2.2655,25.0437 L4.1365,25.3817 C4.8835,25.5167 5.3785,26.2307 5.2435,26.9777 C5.1255,27.6287 4.5655,28.0897 3.9275,28.1047" id="Fill-661" fill="#9314ED" mask="url(#mask-56)"></path>
            </g>
            <g id="Group-666" transform="translate(113.089178, 48.000000)">
                <mask id="mask-58" fill="white">
                    <use xlink:href="#path-57"></use>
                </mask>
                <g id="Clip-665"></g>
                <path d="M3.3074,32.3557 C3.2154,32.3567 3.1234,32.3507 3.0304,32.3337 L1.1594,31.9957 C0.4124,31.8597 -0.0836,31.1457 0.0514,30.4007 C0.1864,29.6537 0.9014,29.1587 1.6464,29.2937 L3.5174,29.6327 C4.2644,29.7677 4.7584,30.4817 4.6244,31.2277 C4.5064,31.8797 3.9454,32.3397 3.3074,32.3557" id="Fill-664" fill="#9314ED" mask="url(#mask-58)"></path>
            </g>
            <g id="Group-669" transform="translate(113.089178, 48.000000)">
                <mask id="mask-60" fill="white">
                    <use xlink:href="#path-59"></use>
                </mask>
                <g id="Clip-668"></g>
                <path d="M2.739,36.8127 C2.646,36.8147 2.554,36.8077 2.46,36.7907 L0.59,36.4517 C-0.157,36.3177 -0.652,35.6037 -0.518,34.8567 C-0.382,34.1117 0.332,33.6157 1.077,33.7507 L2.949,34.0897 C3.694,34.2247 4.19,34.9377 4.055,35.6847 C3.937,36.3357 3.377,36.7967 2.739,36.8127" id="Fill-667" fill="#9314ED" mask="url(#mask-60)"></path>
            </g>
            <g id="Group-672" transform="translate(113.089178, 48.000000)">
                <mask id="mask-62" fill="white">
                    <use xlink:href="#path-61"></use>
                </mask>
                <g id="Clip-671"></g>
                <path d="M2.2976,41.3538 C2.2056,41.3558 2.1126,41.3488 2.0196,41.3328 L0.1486,40.9938 C-0.5984,40.8588 -1.0934,40.1448 -0.9584,39.3978 C-0.8234,38.6538 -0.1084,38.1578 0.6366,38.2928 L2.5076,38.6318 C3.2536,38.7658 3.7496,39.4798 3.6136,40.2268 C3.4956,40.8778 2.9366,41.3388 2.2976,41.3538" id="Fill-670" fill="#9314ED" mask="url(#mask-62)"></path>
            </g>
            <path d="M109.713978,68.5452 C103.817978,68.5452 96.5679775,67.4622 96.5679775,67.4622 L100.612978,92.7322 L118.368978,92.7322 L123.156978,67.7452 C123.157978,67.7382 115.087978,68.5452 109.713978,68.5452" id="Fill-674" fill="#E7F982"></path>
            <path d="M126.287178,56.7004 C126.287178,57.3094 116.349178,57.8034 109.591178,57.8034 C102.832178,57.8034 93.6941775,57.3094 93.6941775,56.7004" id="Stroke-676" stroke="#FFFFFF" stroke-linejoin="round"></path>
            <path d="M96.8535775,59.4885 C96.8205775,59.0205 98.9715775,59.4375 99.0615775,59.8995 C100.117578,65.3135 101.836578,78.2535 102.623578,83.0405 C102.700578,83.5155 100.407578,83.4685 100.349578,82.9915 C99.7205775,77.8095 97.2385775,64.9555 96.8535775,59.4885" id="Fill-678" fill="#FFFFFF"></path>
            <path d="M111.547878,78.5022 C111.547878,78.7022 111.355878,78.8642 111.118878,78.8642 C110.881878,78.8642 110.689878,78.7022 110.689878,78.5022 C110.689878,78.3032 110.881878,78.1402 111.118878,78.1402 C111.355878,78.1402 111.547878,78.3032 111.547878,78.5022" id="Fill-680" fill="#CEED5D"></path>
            <path d="M106.246178,71.4827 C106.246178,71.6817 106.054178,71.8437 105.817178,71.8437 C105.581178,71.8437 105.389178,71.6817 105.389178,71.4827 C105.389178,71.2827 105.581178,71.1207 105.817178,71.1207 C106.054178,71.1207 106.246178,71.2827 106.246178,71.4827" id="Fill-682" fill="#CEED5D"></path>
            <path d="M110.019578,83.8577 C110.019578,84.0567 109.827578,84.2187 109.590578,84.2187 C109.354578,84.2187 109.162578,84.0567 109.162578,83.8577 C109.162578,83.6577 109.354578,83.4957 109.590578,83.4957 C109.827578,83.4957 110.019578,83.6577 110.019578,83.8577" id="Fill-684" fill="#CEED5D"></path>
            <path d="M116.196378,90.3225 C116.196378,90.5225 116.004378,90.6845 115.766378,90.6845 C115.530378,90.6845 115.338378,90.5225 115.338378,90.3225 C115.338378,90.1225 115.530378,89.9615 115.766378,89.9615 C116.004378,89.9615 116.196378,90.1225 116.196378,90.3225" id="Fill-686" fill="#CEED5D"></path>
            <path d="M104.358478,90.3225 C104.358478,90.5225 104.167478,90.6845 103.929478,90.6845 C103.693478,90.6845 103.501478,90.5225 103.501478,90.3225 C103.501478,90.1225 103.693478,89.9615 103.929478,89.9615 C104.167478,89.9615 104.358478,90.1225 104.358478,90.3225" id="Fill-688" fill="#CEED5D"></path>
            <path d="M108.673878,75.6023 C108.673878,75.8023 108.481878,75.9643 108.244878,75.9643 C108.008878,75.9643 107.816878,75.8023 107.816878,75.6023 C107.816878,75.4023 108.008878,75.2403 108.244878,75.2403 C108.481878,75.2403 108.673878,75.4023 108.673878,75.6023" id="Fill-690" fill="#CEED5D"></path>
            <path d="M119.283278,71.4827 C119.283278,71.6817 119.091278,71.8437 118.854278,71.8437 C118.617278,71.8437 118.425278,71.6817 118.425278,71.4827 C118.425278,71.2827 118.617278,71.1207 118.854278,71.1207 C119.091278,71.1207 119.283278,71.2827 119.283278,71.4827" id="Fill-692" fill="#CEED5D"></path>
            <path d="M115.337978,74.1658 C115.337978,74.3648 115.145978,74.5268 114.908978,74.5268 C114.672978,74.5268 114.480978,74.3648 114.480978,74.1658 C114.480978,73.9658 114.672978,73.8038 114.908978,73.8038 C115.145978,73.8038 115.337978,73.9658 115.337978,74.1658" id="Fill-694" fill="#CEED5D"></path>
            <path d="M106.562578,79.7629 C106.562578,79.9099 106.421578,80.0299 106.246578,80.0299 C106.071578,80.0299 105.930578,79.9099 105.930578,79.7629 C105.930578,79.6159 106.071578,79.4949 106.246578,79.4949 C106.421578,79.4949 106.562578,79.6159 106.562578,79.7629" id="Fill-696" fill="#CEED5D"></path>
            <path d="M111.119178,88.323 C111.119178,88.47 110.977178,88.59 110.803178,88.59 C110.628178,88.59 110.486178,88.47 110.486178,88.323 C110.486178,88.176 110.628178,88.056 110.803178,88.056 C110.977178,88.056 111.119178,88.176 111.119178,88.323" id="Fill-698" fill="#CEED5D"></path>
            <path d="M116.511778,84.5798 C116.511778,84.7268 116.370778,84.8468 116.196778,84.8468 C116.021778,84.8468 115.879778,84.7268 115.879778,84.5798 C115.879778,84.4328 116.021778,84.3128 116.196778,84.3128 C116.370778,84.3128 116.511778,84.4328 116.511778,84.5798" id="Fill-700" fill="#CEED5D"></path>
            <path d="M104.246178,85.5769 C104.246178,85.7239 104.104178,85.8439 103.930178,85.8439 C103.755178,85.8439 103.613178,85.7239 103.613178,85.5769 C103.613178,85.4299 103.755178,85.3099 103.930178,85.3099 C104.104178,85.3099 104.246178,85.4299 104.246178,85.5769" id="Fill-702" fill="#CEED5D"></path>
            <path d="M112.067478,69.8918 C112.067478,70.0388 111.925478,70.1588 111.751478,70.1588 C111.576478,70.1588 111.434478,70.0388 111.434478,69.8918 C111.434478,69.7448 111.576478,69.6248 111.751478,69.6248 C111.925478,69.6248 112.067478,69.7448 112.067478,69.8918" id="Fill-704" fill="#CEED5D"></path>
            <path d="M108.331078,90.9016 C108.331078,91.0206 108.216078,91.1176 108.074078,91.1176 C107.932078,91.1176 107.816078,91.0206 107.816078,90.9016 C107.816078,90.7816 107.932078,90.6846 108.074078,90.6846 C108.216078,90.6846 108.331078,90.7816 108.331078,90.9016" id="Fill-706" fill="#CEED5D"></path>
            <path d="M119.111378,77.4368 C119.111378,77.5568 118.996378,77.6538 118.854378,77.6538 C118.712378,77.6538 118.596378,77.5568 118.596378,77.4368 C118.596378,77.3178 118.712378,77.2208 118.854378,77.2208 C118.996378,77.2208 119.111378,77.3178 119.111378,77.4368" id="Fill-708" fill="#CEED5D"></path>
            <path d="M115.595778,79.762 C115.595778,79.882 115.480778,79.979 115.337778,79.979 C115.196778,79.979 115.080778,79.882 115.080778,79.762 C115.080778,79.643 115.196778,79.546 115.337778,79.546 C115.480778,79.546 115.595778,79.643 115.595778,79.762" id="Fill-710" fill="#CEED5D"></path>
            <path d="M103.501078,74.5266 C103.501078,74.6466 103.386078,74.7436 103.244078,74.7436 C103.102078,74.7436 102.986078,74.6466 102.986078,74.5266 C102.986078,74.4066 103.102078,74.3106 103.244078,74.3106 C103.386078,74.3106 103.501078,74.4066 103.501078,74.5266" id="Fill-712" fill="#CEED5D"></path>
        </g>
    </g>
</svg>