<?xml version="1.0" encoding="UTF-8"?>
<svg width="97px" height="97px" viewBox="0 0 97 97" version="1.1" xmlns="http://www.w3.org/2000/svg" xmlns:xlink="http://www.w3.org/1999/xlink">
    <!-- Generator: Sketch 53.1 (72631) - https://sketchapp.com -->
    <title>Group 17</title>
    <desc>Created with Sketch.</desc>
    <g id="Page-1" stroke="none" stroke-width="1" fill="none" fill-rule="evenodd">
        <g id="Group-17">
            <path d="M64.4149552,32.3839328 C64.8619552,32.8309328 65.2809552,33.2959328 65.6829552,33.7699328 L85.2559552,17.0209328 C84.4239552,16.0459328 83.5479552,15.0949328 82.6259552,14.1739328 C76.2939552,7.84093277 68.6439552,3.63393277 60.5579552,1.54393277 L53.6929552,26.3769328 C57.6229552,27.3169328 61.3499552,29.3179328 64.4149552,32.3839328" id="Fill-40" fill="#C90E32"></path>
            <path d="M53.6932552,26.3766328 L60.5572552,1.54363277 C45.1762552,-2.43136723 28.2232552,1.27063277 15.7732552,12.6496328 L32.5372552,32.2406328 C38.3052552,26.5756328 46.3522552,24.6196328 53.6932552,26.3766328" id="Fill-42" fill="#FFFFFF"></path>
            <path d="M32.3866552,32.3839328 C32.4356552,32.3349328 32.4876552,32.2899328 32.5366552,32.2409328 L15.7736552,12.6499328 C15.2336552,13.1439328 14.6996552,13.6499328 14.1756552,14.1739328 C7.69565517,20.6539328 3.43865517,28.5139328 1.40165517,36.8079328 L26.2536552,43.6779328 C27.1316552,39.5399328 29.1716552,35.5979328 32.3866552,32.3839328" id="Fill-44" fill="#C90E32"></path>
            <path d="M69.8328552,55.7242328 L94.6808552,62.5932328 C99.3908552,47.1912328 96.2498552,29.9062328 85.2558552,17.0212328 L65.6828552,33.7692328 C70.9558552,39.9852328 72.3408552,48.3692328 69.8328552,55.7242328" id="Fill-46" fill="#FFFFFF"></path>
            <path d="M41.6327552,70.0099328 L34.7667552,94.8479328 C49.5907552,99.1849328 66.0777552,96.2889328 78.6777552,86.1629328 L61.9137552,66.5719328 C55.9957552,70.9839328 48.4157552,72.1289328 41.6327552,70.0099328" id="Fill-48" fill="#FFFFFF"></path>
            <path d="M94.6805552,62.5929328 L69.8325552,55.7239328 C68.7505552,58.8989328 66.9475552,61.8819328 64.4145552,64.4129328 C63.6235552,65.2049328 62.7855552,65.9229328 61.9135552,66.5719328 L78.6775552,86.1629328 C80.0405552,85.0669328 81.3605552,83.8889328 82.6255552,82.6239328 C88.4235552,76.8259328 92.4405552,69.9229328 94.6805552,62.5929328" id="Fill-50" fill="#C90E32"></path>
            <path d="M26.2537552,43.6783328 L1.40075517,36.8083328 C-2.23224483,51.6013328 1.20175517,67.7743328 11.7017552,79.9593328 L31.2757552,63.2103328 C26.4967552,57.6953328 24.8217552,50.4263328 26.2537552,43.6783328" id="Fill-52" fill="#FFFFFF"></path>
            <path d="M32.3866552,64.4127328 C31.9966552,64.0237328 31.6306552,63.6207328 31.2766552,63.2097328 L11.7016552,79.9587328 C12.4876552,80.8707328 13.3116552,81.7597328 14.1756552,82.6237328 C20.1206552,88.5687328 27.2286552,92.6427328 34.7666552,94.8487328 L41.6326552,70.0097328 C38.2496552,68.9547328 35.0656552,67.0917328 32.3866552,64.4127328" id="Fill-54" fill="#C90E32"></path>
        </g>
    </g>
</svg>