<?xml version="1.0" encoding="UTF-8"?>
<svg width="53px" height="35px" viewBox="0 0 53 35" version="1.1" xmlns="http://www.w3.org/2000/svg" xmlns:xlink="http://www.w3.org/1999/xlink">
    <!-- Generator: Sketch 53.1 (72631) - https://sketchapp.com -->
    <title>Group 19</title>
    <desc>Created with Sketch.</desc>
    <defs>
        <path d="M2.335,1.959 C0.896,3.463 0.236,5.629 0.369,7.693 L0.369,7.693 C0.479,9.408 1.091,11.034 1.694,12.632 L1.694,12.632 C2.515,14.801 2.922,16.943 3.265,19.106 L3.265,19.106 C3.572,21.047 3.826,23.005 4.277,25.012 L4.277,25.012 C4.985,28.161 6.654,32.218 10.615,30.788 L10.615,30.788 C12.169,30.227 13.365,28.805 13.793,27.201 L13.793,27.201 C14.599,24.187 12.891,21.184 12.38,18.13 L12.38,18.13 C11.837,14.877 12.673,11.53 12.605,8.223 L12.605,8.223 C12.538,4.915 11.117,1.203 7.983,0.285 L7.983,0.285 C7.534,0.154 7.07,0.092 6.604,0.092 L6.604,0.092 C5.035,0.092 3.446,0.8 2.335,1.959 L2.335,1.959 Z" id="path-1"></path>
        <path d="M2.335,1.959 C0.896,3.463 0.236,5.629 0.369,7.693 L0.369,7.693 C0.479,9.408 1.091,11.034 1.694,12.632 L1.694,12.632 C2.515,14.801 2.922,16.943 3.265,19.106 L3.265,19.106 C3.572,21.047 3.826,23.005 4.277,25.012 L4.277,25.012 C4.985,28.161 6.654,32.218 10.615,30.788 L10.615,30.788 C12.169,30.227 13.365,28.805 13.793,27.201 L13.793,27.201 C14.599,24.187 12.891,21.184 12.38,18.13 L12.38,18.13 C11.837,14.877 12.673,11.53 12.605,8.223 L12.605,8.223 C12.538,4.915 11.117,1.203 7.983,0.285 L7.983,0.285 C7.534,0.154 7.07,0.092 6.604,0.092 L6.604,0.092 C5.035,0.092 3.446,0.8 2.335,1.959 L2.335,1.959 Z" id="path-3"></path>
        <path d="M2.335,1.959 C0.896,3.463 0.236,5.629 0.369,7.693 L0.369,7.693 C0.479,9.408 1.091,11.034 1.694,12.632 L1.694,12.632 C2.515,14.801 2.922,16.943 3.265,19.106 L3.265,19.106 C3.572,21.047 3.826,23.005 4.277,25.012 L4.277,25.012 C4.985,28.161 6.654,32.218 10.615,30.788 L10.615,30.788 C12.169,30.227 13.365,28.805 13.793,27.201 L13.793,27.201 C14.599,24.187 12.891,21.184 12.38,18.13 L12.38,18.13 C11.837,14.877 12.673,11.53 12.605,8.223 L12.605,8.223 C12.538,4.915 11.117,1.203 7.983,0.285 L7.983,0.285 C7.534,0.154 7.07,0.092 6.604,0.092 L6.604,0.092 C5.035,0.092 3.446,0.8 2.335,1.959 L2.335,1.959 Z" id="path-5"></path>
        <path d="M2.335,1.959 C0.896,3.463 0.236,5.629 0.369,7.693 L0.369,7.693 C0.479,9.408 1.091,11.034 1.694,12.632 L1.694,12.632 C2.515,14.801 2.922,16.943 3.265,19.106 L3.265,19.106 C3.572,21.047 3.826,23.005 4.277,25.012 L4.277,25.012 C4.985,28.161 6.654,32.218 10.615,30.788 L10.615,30.788 C12.169,30.227 13.365,28.805 13.793,27.201 L13.793,27.201 C14.599,24.187 12.891,21.184 12.38,18.13 L12.38,18.13 C11.837,14.877 12.673,11.53 12.605,8.223 L12.605,8.223 C12.538,4.915 11.117,1.203 7.983,0.285 L7.983,0.285 C7.534,0.154 7.07,0.092 6.604,0.092 L6.604,0.092 C5.035,0.092 3.446,0.8 2.335,1.959 L2.335,1.959 Z" id="path-7"></path>
        <path d="M2.335,1.959 C0.896,3.463 0.236,5.629 0.369,7.693 L0.369,7.693 C0.479,9.408 1.091,11.034 1.694,12.632 L1.694,12.632 C2.515,14.801 2.922,16.943 3.265,19.106 L3.265,19.106 C3.572,21.047 3.826,23.005 4.277,25.012 L4.277,25.012 C4.985,28.161 6.654,32.218 10.615,30.788 L10.615,30.788 C12.169,30.227 13.365,28.805 13.793,27.201 L13.793,27.201 C14.599,24.187 12.891,21.184 12.38,18.13 L12.38,18.13 C11.837,14.877 12.673,11.53 12.605,8.223 L12.605,8.223 C12.538,4.915 11.117,1.203 7.983,0.285 L7.983,0.285 C7.534,0.154 7.07,0.092 6.604,0.092 L6.604,0.092 C5.035,0.092 3.446,0.8 2.335,1.959 L2.335,1.959 Z" id="path-9"></path>
        <path d="M6.074,0.694 C2.939,1.611 1.519,5.323 1.452,8.631 L1.452,8.631 C1.383,11.938 2.219,15.285 1.677,18.538 L1.677,18.538 C1.166,21.592 -0.544,24.595 0.263,27.608 L0.263,27.608 C0.691,29.214 1.887,30.636 3.441,31.197 L3.441,31.197 C7.402,32.626 9.072,28.57 9.779,25.419 L9.779,25.419 C10.23,23.413 10.484,21.456 10.792,19.515 L10.792,19.515 C11.134,17.352 11.542,15.209 12.362,13.04 L12.362,13.04 C12.966,11.443 13.576,9.815 13.687,8.101 L13.687,8.101 C13.82,6.037 13.162,3.872 11.722,2.368 L11.722,2.368 C10.611,1.208 9.022,0.5 7.453,0.5 L7.453,0.5 C6.987,0.5 6.523,0.562 6.074,0.694 L6.074,0.694 Z" id="path-11"></path>
        <path d="M6.074,0.694 C2.939,1.611 1.519,5.323 1.452,8.631 L1.452,8.631 C1.383,11.938 2.219,15.285 1.677,18.538 L1.677,18.538 C1.166,21.592 -0.544,24.595 0.263,27.608 L0.263,27.608 C0.691,29.214 1.887,30.636 3.441,31.197 L3.441,31.197 C7.402,32.626 9.072,28.57 9.779,25.419 L9.779,25.419 C10.23,23.413 10.484,21.456 10.792,19.515 L10.792,19.515 C11.134,17.352 11.542,15.209 12.362,13.04 L12.362,13.04 C12.966,11.443 13.576,9.815 13.687,8.101 L13.687,8.101 C13.82,6.037 13.162,3.872 11.722,2.368 L11.722,2.368 C10.611,1.208 9.022,0.5 7.453,0.5 L7.453,0.5 C6.987,0.5 6.523,0.562 6.074,0.694 L6.074,0.694 Z" id="path-13"></path>
        <path d="M6.074,0.694 C2.939,1.611 1.519,5.323 1.452,8.631 L1.452,8.631 C1.383,11.938 2.219,15.285 1.677,18.538 L1.677,18.538 C1.166,21.592 -0.544,24.595 0.263,27.608 L0.263,27.608 C0.691,29.214 1.887,30.636 3.441,31.197 L3.441,31.197 C7.402,32.626 9.072,28.57 9.779,25.419 L9.779,25.419 C10.23,23.413 10.484,21.456 10.792,19.515 L10.792,19.515 C11.134,17.352 11.542,15.209 12.362,13.04 L12.362,13.04 C12.966,11.443 13.576,9.815 13.687,8.101 L13.687,8.101 C13.82,6.037 13.162,3.872 11.722,2.368 L11.722,2.368 C10.611,1.208 9.022,0.5 7.453,0.5 L7.453,0.5 C6.987,0.5 6.523,0.562 6.074,0.694 L6.074,0.694 Z" id="path-15"></path>
        <path d="M6.074,0.694 C2.939,1.611 1.519,5.323 1.452,8.631 L1.452,8.631 C1.383,11.938 2.219,15.285 1.677,18.538 L1.677,18.538 C1.166,21.592 -0.544,24.595 0.263,27.608 L0.263,27.608 C0.691,29.214 1.887,30.636 3.441,31.197 L3.441,31.197 C7.402,32.626 9.072,28.57 9.779,25.419 L9.779,25.419 C10.23,23.413 10.484,21.456 10.792,19.515 L10.792,19.515 C11.134,17.352 11.542,15.209 12.362,13.04 L12.362,13.04 C12.966,11.443 13.576,9.815 13.687,8.101 L13.687,8.101 C13.82,6.037 13.162,3.872 11.722,2.368 L11.722,2.368 C10.611,1.208 9.022,0.5 7.453,0.5 L7.453,0.5 C6.987,0.5 6.523,0.562 6.074,0.694 L6.074,0.694 Z" id="path-17"></path>
        <path d="M6.074,0.694 C2.939,1.611 1.519,5.323 1.452,8.631 L1.452,8.631 C1.383,11.938 2.219,15.285 1.677,18.538 L1.677,18.538 C1.166,21.592 -0.544,24.595 0.263,27.608 L0.263,27.608 C0.691,29.214 1.887,30.636 3.441,31.197 L3.441,31.197 C7.402,32.626 9.072,28.57 9.779,25.419 L9.779,25.419 C10.23,23.413 10.484,21.456 10.792,19.515 L10.792,19.515 C11.134,17.352 11.542,15.209 12.362,13.04 L12.362,13.04 C12.966,11.443 13.576,9.815 13.687,8.101 L13.687,8.101 C13.82,6.037 13.162,3.872 11.722,2.368 L11.722,2.368 C10.611,1.208 9.022,0.5 7.453,0.5 L7.453,0.5 C6.987,0.5 6.523,0.562 6.074,0.694 L6.074,0.694 Z" id="path-19"></path>
    </defs>
    <g id="Page-1" stroke="none" stroke-width="1" fill="none" fill-rule="evenodd">
        <g id="Group-19" transform="translate(0.097200, 0.000000)">
            <path d="M52.342,33.7429 C52.342,34.4329 40.624,34.9929 26.171,34.9929 C11.717,34.9929 0,34.4329 0,33.7429 C0,33.0519 11.717,32.4919 26.171,32.4919 C40.624,32.4919 52.342,33.0519 52.342,33.7429" id="Fill-331" fill="#DDA645"></path>
            <path d="M14.1682,19.1062 C13.8252,16.9432 13.4172,14.8012 12.5972,12.6322 C11.9932,11.0342 11.3822,9.4072 11.2722,7.6932 C11.1392,5.6282 11.7982,3.4632 13.2372,1.9602 C14.6782,0.4552 16.9242,-0.2888 18.8862,0.2852 C22.0202,1.2032 23.4402,4.9152 23.5082,8.2232 C23.5752,11.5302 22.7392,14.8772 23.2832,18.1302 C23.7932,21.1842 25.5022,24.1872 24.6962,27.2002 C24.2682,28.8052 23.0712,30.2282 21.5182,30.7882 C17.5572,32.2182 15.8882,28.1612 15.1802,25.0112 C14.7292,23.0052 14.4752,21.0472 14.1682,19.1062" id="Fill-333" fill="#08AAEB"></path>
            <g id="Group-338" transform="translate(10.902800, 0.000000)">
                <mask id="mask-2" fill="white">
                    <use xlink:href="#path-1"></use>
                </mask>
                <g id="Clip-337"></g>
                <polygon id="Fill-336" fill="#F8EB00" mask="url(#mask-2)" points="16.7244 3.6326 -3.3916 7.0346 -3.9736 3.5906 16.1424 0.1886"></polygon>
            </g>
            <g id="Group-341" transform="translate(10.902800, 0.000000)">
                <mask id="mask-4" fill="white">
                    <use xlink:href="#path-3"></use>
                </mask>
                <g id="Clip-340"></g>
                <polygon id="Fill-339" fill="#F8EB00" mask="url(#mask-4)" points="17.946 9.3372 -2.17 12.7392 -2.753 9.2952 17.363 5.8932"></polygon>
            </g>
            <g id="Group-344" transform="translate(10.902800, 0.000000)">
                <mask id="mask-6" fill="white">
                    <use xlink:href="#path-5"></use>
                </mask>
                <g id="Clip-343"></g>
                <polygon id="Fill-342" fill="#F8EB00" mask="url(#mask-6)" points="18.7312 15.4949 -1.3848 18.8969 -1.9678 15.4529 18.1482 12.0509"></polygon>
            </g>
            <g id="Group-347" transform="translate(10.902800, 0.000000)">
                <mask id="mask-8" fill="white">
                    <use xlink:href="#path-7"></use>
                </mask>
                <g id="Clip-346"></g>
                <polygon id="Fill-345" fill="#F8EB00" mask="url(#mask-8)" points="19.363 21.1619 -0.753 24.5639 -1.335 21.1199 18.781 17.7179"></polygon>
            </g>
            <g id="Group-350" transform="translate(10.902800, 0.000000)">
                <mask id="mask-10" fill="white">
                    <use xlink:href="#path-9"></use>
                </mask>
                <g id="Clip-349"></g>
                <polygon id="Fill-348" fill="#F8EB00" mask="url(#mask-10)" points="20.2312 27.0901 0.1152 30.4921 -0.4668 27.0481 19.6492 23.6451"></polygon>
            </g>
            <path d="M18.9445,5.5974 C18.4365,5.0544 17.5605,5.1874 17.2585,5.8544 C16.9505,6.5344 16.6345,7.2114 16.3115,7.8844 C15.4695,9.6424 14.0275,11.2434 13.6025,13.1944 C13.2115,14.9894 14.4485,16.5454 15.2795,18.0354 C15.6185,18.6424 15.2385,19.4634 14.4865,19.1834 C13.3455,18.7604 12.4245,17.0374 12.0215,15.9824 C10.9215,13.1004 13.0795,10.3314 14.3275,7.9384 C15.1815,6.3004 15.9855,4.6184 16.8565,2.9844 C17.2015,2.3384 18.0835,2.2584 18.5605,2.8304 L20.2625,4.8694 C22.0965,7.0654 24.1045,9.1164 24.6515,12.0344 C25.1095,14.4744 24.3315,16.7844 22.5805,18.4524 C22.5805,18.4524 21.3995,19.4624 21.0265,17.8424 C20.9985,17.7174 21.6055,17.0484 21.6785,16.9364 C22.1405,16.2334 22.5455,15.4864 22.8435,14.6934 C24.0755,11.4294 21.2745,8.0934 18.9445,5.5974" id="Fill-352" fill="#F97000"></path>
            <path d="M39.6945,20.5144 C40.0365,18.3514 40.4445,16.2094 41.2645,14.0404 C41.8695,12.4424 42.4795,10.8154 42.5905,9.1004 C42.7225,7.0364 42.0645,4.8714 40.6245,3.3674 C39.1845,1.8634 36.9385,1.1194 34.9765,1.6934 C31.8415,2.6114 30.4225,6.3234 30.3545,9.6304 C30.2865,12.9384 31.1225,16.2854 30.5795,19.5374 C30.0685,22.5914 28.3595,25.5954 29.1655,28.6084 C29.5935,30.2134 30.7905,31.6364 32.3435,32.1964 C36.3045,33.6264 37.9745,29.5694 38.6815,26.4194 C39.1325,24.4134 39.3865,22.4554 39.6945,20.5144" id="Fill-354" fill="#08AAEB"></path>
            <g id="Group-359" transform="translate(28.902800, 1.000000)">
                <mask id="mask-12" fill="white">
                    <use xlink:href="#path-11"></use>
                </mask>
                <g id="Clip-358"></g>
                <polygon id="Fill-357" fill="#F8EB00" mask="url(#mask-12)" points="-2.6682 4.0408 17.4478 7.4428 18.0308 3.9988 -2.0862 0.5958"></polygon>
            </g>
            <g id="Group-362" transform="translate(28.902800, 1.000000)">
                <mask id="mask-14" fill="white">
                    <use xlink:href="#path-13"></use>
                </mask>
                <g id="Clip-361"></g>
                <polygon id="Fill-360" fill="#F8EB00" mask="url(#mask-14)" points="-3.8899 9.7454 16.2261 13.1474 16.8091 9.7034 -3.3069 6.3004"></polygon>
            </g>
            <g id="Group-365" transform="translate(28.902800, 1.000000)">
                <mask id="mask-16" fill="white">
                    <use xlink:href="#path-15"></use>
                </mask>
                <g id="Clip-364"></g>
                <polygon id="Fill-363" fill="#F8EB00" mask="url(#mask-16)" points="-4.675 15.9031 15.441 19.3051 16.024 15.8611 -4.092 12.4581"></polygon>
            </g>
            <g id="Group-368" transform="translate(28.902800, 1.000000)">
                <mask id="mask-18" fill="white">
                    <use xlink:href="#path-17"></use>
                </mask>
                <g id="Clip-367"></g>
                <polygon id="Fill-366" fill="#F8EB00" mask="url(#mask-18)" points="-5.3069 21.5701 14.8091 24.9721 15.3921 21.5281 -4.7239 18.1251"></polygon>
            </g>
            <g id="Group-371" transform="translate(28.902800, 1.000000)">
                <mask id="mask-20" fill="white">
                    <use xlink:href="#path-19"></use>
                </mask>
                <g id="Clip-370"></g>
                <polygon id="Fill-369" fill="#F8EB00" mask="url(#mask-20)" points="-6.175 27.4978 13.941 30.8998 14.524 27.4558 -5.592 24.0538"></polygon>
            </g>
            <path d="M34.9182,7.0056 C35.4262,6.4626 36.3012,6.5956 36.6042,7.2626 C36.9112,7.9426 37.2282,8.6196 37.5502,9.2926 C38.3922,11.0506 39.8342,12.6516 40.2602,14.6026 C40.6512,16.3976 39.4132,17.9536 38.5822,19.4436 C38.2432,20.0506 38.6232,20.8716 39.3752,20.5916 C40.5172,20.1686 41.4372,18.4446 41.8402,17.3906 C42.9402,14.5076 40.7822,11.7396 39.5342,9.3466 C38.6802,7.7086 37.8762,6.0266 37.0052,4.3916 C36.6612,3.7466 35.7782,3.6666 35.3012,4.2386 L33.5992,6.2776 C31.7662,8.4736 29.7582,10.5246 29.2102,13.4426 C28.7532,15.8826 29.5302,18.1926 31.2812,19.8606 C31.2812,19.8606 32.4622,20.8706 32.8352,19.2496 C32.8642,19.1256 32.2562,18.4566 32.1832,18.3446 C31.7212,17.6416 31.3162,16.8946 31.0182,16.1016 C29.7862,12.8376 32.5872,9.5016 34.9182,7.0056" id="Fill-373" fill="#F97000"></path>
            <path d="M7.4904,33.7551 C7.4904,33.7551 10.3634,8.0871 41.2054,29.6651 C41.2054,29.6651 50.9294,31.0841 52.3424,33.7431 L7.4904,33.7551 Z" id="Fill-375" fill="#E2B86F"></path>
        </g>
    </g>
</svg>