<?xml version="1.0" encoding="UTF-8"?>
<svg width="66px" height="27px" viewBox="0 0 66 27" version="1.1" xmlns="http://www.w3.org/2000/svg" xmlns:xlink="http://www.w3.org/1999/xlink">
    <!-- Generator: Sketch 53.1 (72631) - https://sketchapp.com -->
    <title>Group 20</title>
    <desc>Created with Sketch.</desc>
    <g id="Page-1" stroke="none" stroke-width="1" fill="none" fill-rule="evenodd">
        <g id="Group-20" transform="translate(0.678443, 0.125500)">
            <path d="M29.3945572,4.968 C28.8255572,4.185 28.0895572,3.42 27.2125572,2.735 L38.1345572,2.735 C37.2785572,3.42 36.5605572,4.153 35.9975572,4.913 C35.2005572,4.264 34.1475572,3.813 32.7845572,3.813 C31.3515572,3.813 30.2405572,4.292 29.3945572,4.968 M63.9625572,5.806 C62.5035572,2.969 60.0005572,1.166 56.7235572,0.589 C54.4955572,0.197 52.2695572,0 50.1065572,0 C45.9755572,0 42.4175572,0.682 39.7495572,2.051 L25.5975572,2.051 C22.9305572,0.682 19.3725572,0 15.2415572,0 C13.0785572,0 10.8525572,0.198 8.62355716,0.59 C5.34655716,1.167 2.84355716,2.97 1.38455716,5.806 C-0.669442839,9.801 -0.421442839,15.675 2.01755716,20.771 C3.90255716,24.707 7.30255716,26.875 11.5925572,26.875 C14.4985572,26.875 17.5585572,25.86 19.9875572,24.09 C24.2675572,20.97 31.7215572,11.627 30.0095572,6.333 C30.6455572,5.75 31.5385572,5.299 32.7845572,5.299 C33.9395572,5.299 34.7675572,5.721 35.3555572,6.277 C33.5735572,11.561 41.0665572,20.96 45.3605572,24.09 C47.7905572,25.86 50.8495572,26.875 53.7555572,26.875 C58.0455572,26.875 61.4455572,24.707 63.3305572,20.77 C65.7695572,15.675 66.0185572,9.801 63.9625572,5.806" id="Fill-377" fill="#08AAEB"></path>
            <path d="M37.0410572,5.904 C34.2300572,9.779 41.6760572,19.731 46.1570572,22.997 C50.6410572,26.263 58.6920572,27.327 62.1100572,20.186 C65.5290572,13.045 64.6930572,3.364 56.4890572,1.921 C48.2840572,0.477 40.0460572,1.763 37.0410572,5.904" id="Fill-379" fill="#002230"></path>
            <path d="M60.1806572,3.4158 C59.4076572,7.3568 57.3676572,11.0408 54.0236572,13.8058 C50.9956572,16.3098 46.9346572,18.7708 42.7446572,19.8238 C43.9326572,21.1318 45.1226572,22.2438 46.1576572,22.9978 C50.6406572,26.2638 58.6926572,27.3278 62.1106572,20.1868 C64.9216572,14.3148 64.8526572,6.7318 60.1806572,3.4158" id="Fill-381" fill="#001A2A"></path>
            <path d="M28.3066572,5.904 C31.1176572,9.779 23.6726572,19.731 19.1906572,22.997 C14.7076572,26.263 6.65665716,27.327 3.23765716,20.186 C-0.181342839,13.045 0.654657161,3.364 8.85865716,1.921 C17.0636572,0.477 25.3016572,1.763 28.3066572,5.904" id="Fill-383" fill="#002230"></path>
            <path d="M28.3066572,5.904 C27.4406572,4.71 26.1366572,3.755 24.5276572,3.033 C24.4486572,3.788 24.3236572,4.538 24.1496572,5.271 C23.1986572,9.282 20.6816572,12.547 17.1756572,14.687 C14.0006572,16.625 10.3016572,17.995 6.61665716,18.528 C5.30065716,18.717 3.95965716,18.834 2.63965716,18.801 C2.82165716,19.271 3.02065716,19.734 3.23765716,20.186 C6.65665716,27.327 14.7076572,26.263 19.1906572,22.997 C23.6726572,19.731 31.1176572,9.779 28.3066572,5.904" id="Fill-385" fill="#001A2A"></path>
        </g>
    </g>
</svg>