<?xml version="1.0" encoding="UTF-8"?>
<svg width="68px" height="115px" viewBox="0 0 68 115" version="1.1" xmlns="http://www.w3.org/2000/svg" xmlns:xlink="http://www.w3.org/1999/xlink">
    <!-- Generator: Sketch 53.1 (72631) - https://sketchapp.com -->
    <title>Group 26</title>
    <desc>Created with Sketch.</desc>
    <defs>
        <polygon id="path-1" points="0 0.8031 39.5816 0.8031 39.5816 69.6751 0 69.6751"></polygon>
    </defs>
    <g id="Page-1" stroke="none" stroke-width="1" fill="none" fill-rule="evenodd">
        <g id="Group-26">
            <path d="M65.4685,111.553 C65.4685,113.448 56.3715,114.985 45.1515,114.985 C33.9305,114.985 24.8335,113.448 24.8335,111.553 C24.8335,109.657 33.9305,108.121 45.1515,108.121 C56.3715,108.121 65.4685,109.657 65.4685,111.553" id="Fill-98" fill="#000000" opacity="0.157993862"></path>
            <polygon id="Fill-100" fill="#B4845C" points="3.7205 13.4011 1.7935 14.3231 1.4515 13.6101 3.3785 12.6881"></polygon>
            <polygon id="Fill-102" fill="#B4845C" points="16.4001 7.3289 14.4731 8.2509 14.1321 7.5379 16.0581 6.6159"></polygon>
            <polygon id="Fill-104" fill="#B4845C" points="19.2585 14.7708 17.3315 15.6928 16.9895 14.9798 18.9165 14.0578"></polygon>
            <polygon id="Fill-106" fill="#B4845C" points="7.6404 20.2297 5.7134 21.1517 5.3714 20.4387 7.2984 19.5157"></polygon>
            <path d="M65.281,86.4958 C60.636,79.3808 55.102,78.7648 52.576,76.5768 C49.945,74.2958 49.829,68.3558 49.824,67.9468 L49.824,67.9228 C49.787,66.5478 49.477,65.1928 48.866,63.9168 C46.069,58.0758 38.022,56.1088 30.894,59.5218 C23.766,62.9358 20.255,70.4378 23.052,76.2788 C23.663,77.5548 24.524,78.6458 25.572,79.5368 L25.573,79.5368 C25.579,79.5418 25.585,79.5468 25.591,79.5518 C25.907,79.8118 30.462,83.6258 30.589,87.1058 C30.711,90.4458 27.721,95.1428 30.352,103.2238 C30.536,103.8988 30.776,104.5618 31.085,105.2068 C34.653,112.6578 45.444,114.9148 55.187,110.2488 C64.93,105.5838 69.936,95.7608 66.368,88.3098 C66.059,87.6648 65.693,87.0618 65.281,86.4958" id="Fill-108" fill="#BD6539"></path>
            <path d="M33.4275,79.1306 C34.9035,82.2116 38.5955,83.5126 41.6765,82.0376 C44.7575,80.5616 46.0585,76.8686 44.5825,73.7876 C43.1085,70.7076 39.4145,69.4056 36.3335,70.8816 C33.2535,72.3566 31.9515,76.0496 33.4275,79.1306" id="Fill-110" fill="#300E00"></path>
            <path d="M33.4275,79.1306 C34.9035,82.2116 38.5955,83.5126 41.6765,82.0376 C44.7575,80.5616 46.0585,76.8686 44.5825,73.7876 C43.1085,70.7076 39.4145,69.4056 36.3335,70.8816 C33.2535,72.3566 31.9515,76.0496 33.4275,79.1306 Z" id="Stroke-112" stroke="#822E00" stroke-width="4"></path>
            <polygon id="Fill-114" fill="#592301" points="56.6384 96.7971 43.7964 102.9471 41.9944 99.1851 54.8364 93.0351"></polygon>
            <polygon id="Fill-116" fill="#2D0C00" points="56.8875 97.3162 44.0445 103.4662 43.3455 102.0062 56.1885 95.8572"></polygon>
            <polygon id="Fill-118" fill="#FFFDCA" points="54.9265 95.3044 43.7055 100.6784 43.3025 99.8344 54.5235 94.4614"></polygon>
            <g id="Group-122">
                <mask id="mask-2" fill="white">
                    <use xlink:href="#path-1"></use>
                </mask>
                <g id="Clip-121"></g>
                <path d="M18.8386,22.0281 C18.8386,22.0281 17.9966,18.6041 18.5946,17.5211 L11.5446,0.8031 C11.5446,0.8031 10.2466,2.6431 6.3436,3.5711 L6.2266,3.3501 C6.0916,3.4691 5.9606,3.5741 5.8276,3.6841 C5.6596,3.7181 5.4956,3.7541 5.3176,3.7851 L5.4176,4.0151 C2.2466,6.4741 -0.0004,6.3321 -0.0004,6.3321 L8.6056,22.3041 C9.8236,22.5181 11.5746,25.5071 11.5746,25.5071 L29.5366,69.6751 L39.5816,65.3431 L18.8386,22.0281 Z" id="Fill-120" fill="#592301" mask="url(#mask-2)"></path>
            </g>
            <path d="M0.6238,14.4602 C0.9608,15.1652 1.6848,15.5212 2.2398,15.2552 C2.7958,14.9892 2.9718,14.2022 2.6338,13.4972 C2.2968,12.7922 1.5718,12.4362 1.0178,12.7022 C0.4618,12.9682 0.2858,13.7552 0.6238,14.4602" id="Fill-123" fill="#DAAB7A"></path>
            <path d="M4.4958,21.2971 C4.8328,22.0021 5.5578,22.3581 6.1118,22.0921 C6.6678,21.8261 6.8438,21.0391 6.5058,20.3341 C6.1688,19.6291 5.4448,19.2731 4.8898,19.5391 C4.3338,19.8051 4.1578,20.5921 4.4958,21.2971" id="Fill-125" fill="#DAAB7A"></path>
            <path d="M15.5867,7.2947 C15.9247,7.9997 16.6487,8.3557 17.2027,8.0897 C17.7587,7.8237 17.9347,7.0367 17.5977,6.3317 C17.2597,5.6267 16.5357,5.2707 15.9807,5.5367 C15.4257,5.8027 15.2487,6.5897 15.5867,7.2947" id="Fill-127" fill="#DAAB7A"></path>
            <path d="M18.6882,14.6047 C19.0262,15.3097 19.7502,15.6667 20.3052,15.3997 C20.8612,15.1337 21.0372,14.3467 20.6992,13.6417 C20.3622,12.9367 19.6372,12.5807 19.0832,12.8467 C18.5272,13.1127 18.3512,13.8997 18.6882,14.6047" id="Fill-129" fill="#DAAB7A"></path>
            <polygon id="Fill-131" fill="#FFFDCA" points="19.2498 22.8865 11.9858 26.3655 11.5748 25.5065 18.8388 22.0285"></polygon>
            <polygon id="Fill-133" fill="#FFFDCA" points="29.1824 68.6726 29.2714 68.8896 39.0404 64.2116 38.9394 64.0006"></polygon>
            <polygon id="Fill-135" fill="#FFFDCA" points="28.2966 66.509 28.3856 66.726 38.0316 62.107 37.9316 61.895"></polygon>
            <polygon id="Fill-137" fill="#FFFDCA" points="27.5007 64.5642 27.5897 64.7812 37.1257 60.2142 37.0247 60.0032"></polygon>
            <polygon id="Fill-139" fill="#FFFDCA" points="26.5261 62.1853 26.6161 62.4023 36.0171 57.9003 35.9171 57.6883"></polygon>
            <polygon id="Fill-141" fill="#FFFDCA" points="25.4607 59.5818 25.5497 59.7988 34.8047 55.3668 34.7027 55.1558"></polygon>
            <polygon id="Fill-143" fill="#FFFDCA" points="24.5134 57.2683 24.6024 57.4853 33.7264 53.1163 33.6254 52.9043"></polygon>
            <polygon id="Fill-145" fill="#FFFDCA" points="23.155 53.9509 23.244 54.1679 32.181 49.8889 32.08 49.6779"></polygon>
            <polygon id="Fill-147" fill="#FFFDCA" points="21.4695 49.8337 21.5585 50.0507 30.2625 45.8827 30.1615 45.6717"></polygon>
            <polygon id="Fill-149" fill="#FFFDCA" points="19.7839 45.7166 19.8729 45.9336 28.3449 41.8776 28.2429 41.6656"></polygon>
            <polygon id="Fill-151" fill="#FFFDCA" points="18.0984 41.5999 18.1874 41.8169 26.4264 37.8709 26.3254 37.6609"></polygon>
            <polygon id="Fill-153" fill="#FFFDCA" points="16.4128 37.4827 16.5018 37.6997 24.5078 33.8657 24.4068 33.6547"></polygon>
            <polygon id="Fill-155" fill="#FFFDCA" points="14.7273 33.3655 14.8163 33.5825 22.5893 29.8605 22.4883 29.6485"></polygon>
            <polygon id="Fill-157" fill="#FFFDCA" points="13.1599 29.5359 13.2489 29.7529 20.8059 26.1349 20.7039 25.9229"></polygon>
            <polyline id="Stroke-159" stroke="#FFFFFF" stroke-width="0.75" points="10.0808 17.3718 12.5788 25.8228 45.4748 100.9878"></polyline>
            <polyline id="Stroke-161" stroke="#FFFFFF" stroke-width="0.75" points="5.4568 9.4685 11.4218 18.4185 48.5738 99.5035"></polyline>
            <polyline id="Stroke-163" stroke="#FFFFFF" stroke-width="0.75" points="10.6199 6.9963 12.9809 17.6713 51.9409 97.8903"></polyline>
            <polyline id="Stroke-165" stroke="#FFFFFF" stroke-width="0.75" points="13.3591 15.5881 17.6201 22.6121 54.1901 96.8131"></polyline>
            <path d="M4.2634,10.0403 C4.5574,10.6533 5.3284,10.8943 5.9884,10.5783 C6.6474,10.2623 6.9444,9.5103 6.6504,8.8973 C6.3574,8.2843 5.5844,8.0433 4.9254,8.3583 C4.2664,8.6743 3.9694,9.4273 4.2634,10.0403" id="Fill-167" fill="#CE7737"></path>
            <path d="M9.8416,7.3689 C10.1346,7.9819 10.9066,8.2229 11.5666,7.9069 C12.2256,7.5919 12.5216,6.8389 12.2286,6.2259 C11.9346,5.6129 11.1626,5.3719 10.5036,5.6879 C9.8446,6.0029 9.5476,6.7559 9.8416,7.3689" id="Fill-169" fill="#CE7737"></path>
            <path d="M8.0662,17.9817 C8.3602,18.5947 9.1322,18.8357 9.7912,18.5197 C10.4502,18.2037 10.7472,17.4517 10.4532,16.8377 C10.1602,16.2257 9.3872,15.9847 8.7282,16.2997 C8.0692,16.6157 7.7732,17.3687 8.0662,17.9817" id="Fill-171" fill="#CE7737"></path>
            <path d="M12.8406,15.6956 C13.1336,16.3086 13.9056,16.5496 14.5656,16.2336 C15.2246,15.9176 15.5206,15.1656 15.2276,14.5526 C14.9336,13.9396 14.1606,13.6986 13.5016,14.0136 C12.8426,14.3296 12.5466,15.0826 12.8406,15.6956" id="Fill-173" fill="#CE7737"></path>
        </g>
    </g>
</svg>