<?xml version="1.0" encoding="UTF-8"?>
<svg width="29px" height="37px" viewBox="0 0 29 37" version="1.1" xmlns="http://www.w3.org/2000/svg" xmlns:xlink="http://www.w3.org/1999/xlink">
    <!-- Generator: Sketch 53.1 (72631) - https://sketchapp.com -->
    <title>Group 50</title>
    <desc>Created with Sketch.</desc>
    <g id="Page-1" stroke="none" stroke-width="1" fill="none" fill-rule="evenodd">
        <g id="Group-50" transform="translate(0.338901, 0.356138)">
            <path d="M0.250998929,17.9659616 C-0.374001071,21.9889616 0.139998929,26.3439616 2.11099893,29.9449616 C4.78099893,34.8179616 10.3669989,36.7689616 15.6819989,36.2619616 C18.1299989,36.0279616 21.3159989,35.3559616 23.3049989,33.7999616 C25.4179989,32.1469616 27.1159989,29.1949616 27.9299989,26.6649616 C29.5019989,21.7699616 28.7529989,16.0389616 25.7079989,11.8559616" id="Fill-794" fill="#AEBC4A"></path>
            <polygon id="Fill-796" fill="#F8ECDC" points="0.250998929 17.9659616 5.95999893 12.8399616 17.1499989 10.5149616 25.7079989 11.8559616 19.3619989 15.4369616 7.82299893 18.1399616"></polygon>
            <path d="M11.3945989,13.8468616 C11.4395989,14.1178616 12.0665989,14.2478616 12.8815989,14.1848616 L12.9305989,12.9898616 C12.0135989,13.1858616 11.3455989,13.5498616 11.3945989,13.8468616" id="Fill-798" fill="#B7A28A"></path>
            <path d="M15.2324989,13.2091616 C15.1894989,12.9501616 14.6174989,12.8201616 13.8564989,12.8631616 L13.8074989,14.0421616 C14.6674989,13.8411616 15.2804989,13.4941616 15.2324989,13.2091616" id="Fill-800" fill="#B7A28A"></path>
            <path d="M19.8046989,0.00216156612 L13.8546989,0.465161566 C13.6226989,0.482161566 13.4406989,0.671161566 13.4306989,0.904161566 L12.9306989,12.9901616 L12.8816989,14.1851616 C13.0516989,14.1721616 13.2296989,14.1511616 13.4116989,14.1211616 C13.5486989,14.0981616 13.6806989,14.0711616 13.8076989,14.0421616 L13.8566989,12.8631616 L14.3326989,1.35016157 L19.8756989,0.919161566 C20.1286989,0.899161566 20.3186989,0.678161566 20.2986989,0.424161566 C20.2796989,0.172161566 20.0606989,-0.0228384339 19.8046989,0.00216156612" id="Fill-802" fill="#E55783"></path>
            <path d="M9.70709893,30.7272616 C6.50709893,29.2972616 2.90809893,26.8462616 1.76009893,23.4692616 C1.93509893,26.3602616 3.26609893,29.1852616 5.38609893,31.1772616 C8.05109893,33.6832616 11.8530989,34.8672616 15.4940989,34.5122616 C16.2450989,34.4382616 17.0140989,34.2952616 17.6430989,33.8772616 C18.0230989,33.6232616 18.3390989,33.2482616 18.5040989,32.8262616 C15.5310989,32.6712616 12.5850989,32.0122616 9.70709893,30.7272616" id="Fill-804" fill="#FFFFFF"></path>
        </g>
    </g>
</svg>