<?xml version="1.0" encoding="UTF-8"?>
<svg width="34px" height="47px" viewBox="0 0 34 47" version="1.1" xmlns="http://www.w3.org/2000/svg" xmlns:xlink="http://www.w3.org/1999/xlink">
    <!-- Generator: Sketch 53.1 (72631) - https://sketchapp.com -->
    <title>Group 51</title>
    <desc>Created with Sketch.</desc>
    <g id="Page-1" stroke="none" stroke-width="1" fill="none" fill-rule="evenodd">
        <g id="Group-51" transform="translate(0.015500, 0.614769)">
            <g id="Group-46">
                <path d="M30.385,43.7332312 C30.385,45.1502312 23.583,46.2992312 15.193,46.2992312 C6.802,46.2992312 0,45.1502312 0,43.7332312 C0,42.3162312 6.802,41.1672312 15.193,41.1672312 C23.583,41.1672312 30.385,42.3162312 30.385,43.7332312" id="Fill-806" fill="#000000" opacity="0.161272321"></path>
                <path d="M15.1926,23.6268312 C10.5986,23.6268312 6.5186,22.2338312 3.9446,20.0788312 C2.1546,23.1528312 1.0906,26.6998312 1.0906,29.8938312 C1.0906,37.6818312 7.4046,43.9958312 15.1926,43.9958312 C22.9806,43.9958312 29.2946,37.6818312 29.2946,29.8938312 C29.2946,26.6998312 28.2306,23.1528312 26.4406,20.0788312 C23.8666,22.2338312 19.7876,23.6268312 15.1926,23.6268312" id="Fill-808" fill="#BD6539"></path>
                <path d="M26.4406,20.0784312 C25.8936,20.5364312 25.2746,20.9574312 24.6006,21.3404312 C24.6126,21.4964312 24.6276,21.6514312 24.6336,21.8094312 C25.0016,30.0234312 18.2526,38.1044312 9.7356,38.1044312 C7.2946,38.1044312 4.9456,37.5994312 2.8266,36.6734312 C5.2236,41.0364312 9.8626,43.9954312 15.1926,43.9954312 C22.9806,43.9954312 29.2946,37.6824312 29.2946,29.8934312 C29.2946,26.7004312 28.2306,23.1534312 26.4406,20.0784312" id="Fill-810" fill="#804024"></path>
                <path d="M15.1926,21.5438312 C10.7566,21.5438312 7.7136,20.7358312 6.4376,20.0908312 C7.7136,19.4458312 10.7566,18.6378312 15.1926,18.6378312 C19.6286,18.6378312 22.6716,19.4458312 23.9476,20.0908312 C22.6716,20.7358312 19.6286,21.5438312 15.1926,21.5438312" id="Fill-812" fill="#DEB473"></path>
                <path d="M15.1926,16.6375312 C8.9806,16.6375312 3.9446,18.1835312 3.9446,20.0905312 C3.9446,21.9975312 8.9806,23.5435312 15.1926,23.5435312 C21.4046,23.5435312 26.4416,21.9975312 26.4416,20.0905312 C26.4416,18.1835312 21.4046,16.6375312 15.1926,16.6375312" id="Fill-814" fill="#FFFDCA"></path>
                <path d="M15.1926,22.8724312 C8.7366,22.8724312 4.6166,21.2254312 4.6166,20.0904312 C4.6166,18.9564312 8.7366,17.3094312 15.1926,17.3094312 C21.6496,17.3094312 25.7696,18.9564312 25.7696,20.0904312 C25.7696,21.2254312 21.6496,22.8724312 15.1926,22.8724312" id="Fill-816" fill="#DEB473"></path>
                <path d="M15.1926,16.6375312 C8.9806,16.6375312 3.9446,18.1835312 3.9446,20.0905312 C3.9446,21.9975312 8.9806,23.5435312 15.1926,23.5435312 C21.4046,23.5435312 26.4406,21.9975312 26.4406,20.0905312 C26.4406,18.1835312 21.4046,16.6375312 15.1926,16.6375312 M15.1926,17.9805312 C21.2496,17.9805312 24.5806,19.4275312 25.0656,20.0905312 C24.5806,20.7535312 21.2496,22.2005312 15.1926,22.2005312 C9.1356,22.2005312 5.8046,20.7535312 5.3196,20.0905312 C5.8046,19.4275312 9.1356,17.9805312 15.1926,17.9805312" id="Fill-818" fill="#FFFDCA"></path>
                <path d="M10.8469,22.6898312 C11.2269,22.6168312 11.6179,22.5778312 12.0189,22.5778312 C12.1479,22.5778312 12.2709,22.5838312 12.3909,22.5948312 L9.0979,0.529831159 C9.0119,-0.0421688406 8.6399,0.0318311594 8.2229,0.121831159 C7.8059,0.210831159 7.5019,0.281831159 7.5879,0.853831159 L10.8469,22.6898312 Z" id="Fill-820" fill="#A8CA24"></path>
                <path d="M9.09,0.386531159 C9.118,0.629531159 8.8,0.877531159 8.379,0.940531159 C7.958,1.00353116 7.594,0.856531159 7.567,0.613531159 C7.538,0.369531159 7.858,0.121531159 8.278,0.0595311594 C8.698,-0.00346884063 9.063,0.142531159 9.09,0.386531159" id="Fill-822" fill="#95AB11"></path>
                <path d="M15.5695,16.6404312 C15.0195,17.1754312 14.4195,17.6424312 13.7725,18.0114312 C14.2295,17.9934312 14.6985,17.9804312 15.1925,17.9804312 C21.2495,17.9804312 24.5805,19.4274312 25.0655,20.0904312 C24.5805,20.7534312 21.2495,22.2004312 15.1925,22.2004312 C9.1355,22.2004312 5.8045,20.7534312 5.3195,20.0904312 C5.5985,19.7084312 6.8285,19.0684312 8.9715,18.5924312 C8.4485,18.3484312 8.0325,17.9754312 7.7075,17.5144312 C5.3985,18.1464312 3.9445,19.0664312 3.9445,20.0904312 C3.9445,21.9974312 8.9805,23.5434312 15.1925,23.5434312 C21.4045,23.5434312 26.4405,21.9974312 26.4405,20.0904312 C26.4405,18.2224312 21.6065,16.7024312 15.5695,16.6404312" id="Fill-824" fill="#FFFDCA"></path>
                <path d="M24.0275,22.7342312 C27.9195,24.8382312 31.8905,25.0342312 32.8965,23.1722312 C33.9035,21.3112312 29.9645,15.7422312 27.6155,14.7852312 C25.6165,13.9722312 19.8075,13.6922312 18.8015,15.5532312 C17.7955,17.4152312 20.1345,20.6302312 24.0275,22.7342312" id="Fill-826" fill="#00D1AE"></path>
                <path d="M30.1242,16.8255312 C28.5852,19.4365312 24.2572,20.1825312 21.6182,20.1825312 C21.2662,20.1825312 20.8832,20.1595312 20.4832,20.1155312 C21.4022,21.0565312 22.6112,21.9695312 24.0272,22.7345312 C27.9192,24.8385312 31.8912,25.0345312 32.8962,23.1725312 C33.5842,21.9025312 31.9672,18.9045312 30.1242,16.8255312" id="Fill-828" fill="#00A688"></path>
                <path d="M29.1467,16.1365312 C29.4447,15.6665312 29.7437,15.1965312 30.0417,14.7255312 C30.8197,13.4995312 28.8737,12.3695312 28.0987,13.5905312 C27.7997,14.0605312 27.5017,14.5305312 27.2037,15.0015312 C26.4247,16.2275312 28.3717,17.3575312 29.1467,16.1365312" id="Fill-830" fill="#DBDBDB"></path>
            </g>
        </g>
    </g>
</svg>