<?xml version="1.0" encoding="UTF-8"?>
<svg width="68px" height="56px" viewBox="0 0 68 56" version="1.1" xmlns="http://www.w3.org/2000/svg" xmlns:xlink="http://www.w3.org/1999/xlink">
    <!-- Generator: Sketch 53.1 (72631) - https://sketchapp.com -->
    <title>Group 40</title>
    <desc>Created with Sketch.</desc>
    <g id="Page-1" stroke="none" stroke-width="1" fill="none" fill-rule="evenodd">
        <g id="Group-40" transform="translate(0.239416, 0.013000)">
            <path d="M51.7195837,45.982 C38.9355837,56.028 20.3655837,54.917 8.88458366,42.927 C-2.59641634,30.938 -2.90241634,12.336 7.68858366,1.42108547e-14 L51.7195837,45.982 Z" id="Fill-149" fill="#036633"></path>
            <path d="M48.4002837,42.5157 C37.5382837,50.7497 21.9902837,49.7117 12.3322837,39.6257 C2.67328366,29.5397 2.31028366,13.9617 11.0072837,3.4667 L48.4002837,42.5157 Z" id="Fill-151" fill="#E6EF85"></path>
            <path d="M46.9217837,40.9717 C36.9177837,48.3997 22.7077837,47.3937 13.8637837,38.1587 C5.02078366,28.9227 4.63178366,14.6827 12.4857837,5.0107 L46.9217837,40.9717 Z" id="Fill-153" fill="#C90E32"></path>
            <path d="M15.5760837,12.3433 C15.3300837,12.5783 14.9400837,12.5703 14.7060837,12.3243 C14.4710837,12.0793 14.4790837,11.6893 14.7240837,11.4543 C14.9700837,11.2193 15.9120837,11.1703 15.9120837,11.1703 C15.9120837,11.1703 15.8210837,12.1083 15.5760837,12.3433" id="Fill-155" fill="#17163F"></path>
            <path d="M19.1473837,16.0738 C18.9023837,16.3088 18.5123837,16.3008 18.2783837,16.0548 C18.0433837,15.8098 18.0503837,15.4198 18.2963837,15.1848 C18.5423837,14.9498 19.4843837,14.8998 19.4843837,14.8998 C19.4843837,14.8998 19.3933837,15.8388 19.1473837,16.0738" id="Fill-157" fill="#17163F"></path>
            <path d="M22.7195837,19.8042 C22.4745837,20.0392 22.0845837,20.0312 21.8495837,19.7852 C21.6155837,19.5402 21.6225837,19.1502 21.8685837,18.9152 C22.1145837,18.6802 23.0555837,18.6302 23.0555837,18.6302 C23.0555837,18.6302 22.9655837,19.5692 22.7195837,19.8042" id="Fill-159" fill="#17163F"></path>
            <path d="M26.2918837,23.5347 C26.0468837,23.7697 25.6568837,23.7617 25.4218837,23.5157 C25.1868837,23.2697 25.1948837,22.8807 25.4398837,22.6457 C25.6868837,22.4107 26.6278837,22.3607 26.6278837,22.3607 C26.6278837,22.3607 26.5368837,23.2997 26.2918837,23.5347" id="Fill-161" fill="#17163F"></path>
            <path d="M29.8641837,27.2652 C29.6191837,27.5002 29.2291837,27.4922 28.9941837,27.2462 C28.7591837,27.0002 28.7671837,26.6112 29.0121837,26.3762 C29.2591837,26.1412 30.2001837,26.0912 30.2001837,26.0912 C30.2001837,26.0912 30.1091837,27.0302 29.8641837,27.2652" id="Fill-163" fill="#17163F"></path>
            <path d="M33.4363837,30.9952 C33.1903837,31.2302 32.8013837,31.2222 32.5663837,30.9762 C32.3313837,30.7312 32.3393837,30.3412 32.5843837,30.1062 C32.8303837,29.8712 33.7723837,29.8212 33.7723837,29.8212 C33.7723837,29.8212 33.6813837,30.7602 33.4363837,30.9952" id="Fill-165" fill="#17163F"></path>
            <path d="M37.0086837,34.7256 C36.7626837,34.9606 36.3726837,34.9526 36.1386837,34.7066 C35.9036837,34.4616 35.9116837,34.0716 36.1566837,33.8366 C36.4026837,33.6016 37.3446837,33.5516 37.3446837,33.5516 C37.3446837,33.5516 37.2536837,34.4906 37.0086837,34.7256" id="Fill-167" fill="#17163F"></path>
            <path d="M40.5799837,38.4561 C40.3349837,38.6911 39.9449837,38.6831 39.7109837,38.4371 C39.4759837,38.1921 39.4829837,37.8021 39.7289837,37.5671 C39.9749837,37.3321 40.9169837,37.2821 40.9169837,37.2821 C40.9169837,37.2821 40.8259837,38.2211 40.5799837,38.4561" id="Fill-169" fill="#17163F"></path>
            <path d="M13.9705837,17.4561 C13.7245837,17.6911 13.3355837,17.6831 13.1005837,17.4371 C12.8655837,17.1921 12.8735837,16.8021 13.1185837,16.5671 C13.3655837,16.3321 14.3065837,16.2821 14.3065837,16.2821 C14.3065837,16.2821 14.2155837,17.2211 13.9705837,17.4561" id="Fill-171" fill="#17163F"></path>
            <path d="M17.5428837,21.1866 C17.2968837,21.4216 16.9068837,21.4136 16.6728837,21.1676 C16.4378837,20.9226 16.4458837,20.5326 16.6908837,20.2976 C16.9368837,20.0626 17.8788837,20.0126 17.8788837,20.0126 C17.8788837,20.0126 17.7878837,20.9516 17.5428837,21.1866" id="Fill-173" fill="#17163F"></path>
            <path d="M21.1141837,24.917 C20.8691837,25.152 20.4791837,25.144 20.2451837,24.898 C20.0101837,24.652 20.0181837,24.263 20.2631837,24.028 C20.5091837,23.793 21.4511837,23.743 21.4511837,23.743 C21.4511837,23.743 21.3601837,24.682 21.1141837,24.917" id="Fill-175" fill="#17163F"></path>
            <path d="M24.6863837,28.647 C24.4413837,28.882 24.0513837,28.874 23.8163837,28.628 C23.5823837,28.383 23.5893837,27.993 23.8353837,27.758 C24.0813837,27.523 25.0223837,27.474 25.0223837,27.474 C25.0223837,27.474 24.9323837,28.412 24.6863837,28.647" id="Fill-177" fill="#17163F"></path>
            <path d="M28.2586837,32.3775 C28.0136837,32.6125 27.6236837,32.6045 27.3886837,32.3585 C27.1546837,32.1135 27.1616837,31.7235 27.4076837,31.4885 C27.6536837,31.2535 28.5946837,31.2035 28.5946837,31.2035 C28.5946837,31.2035 28.5036837,32.1425 28.2586837,32.3775" id="Fill-179" fill="#17163F"></path>
            <path d="M31.8309837,36.108 C31.5859837,36.343 31.1959837,36.335 30.9609837,36.089 C30.7259837,35.844 30.7339837,35.454 30.9789837,35.219 C31.2259837,34.984 32.1669837,34.934 32.1669837,34.934 C32.1669837,34.934 32.0759837,35.873 31.8309837,36.108" id="Fill-181" fill="#17163F"></path>
            <path d="M35.4031837,39.8384 C35.1571837,40.0734 34.7681837,40.0654 34.5331837,39.8194 C34.2981837,39.5734 34.3061837,39.1844 34.5511837,38.9494 C34.7981837,38.7144 35.7391837,38.6644 35.7391837,38.6644 C35.7391837,38.6644 35.6481837,39.6034 35.4031837,39.8384" id="Fill-183" fill="#17163F"></path>
            <path d="M12.3006837,22.6304 C12.0556837,22.8654 11.6656837,22.8574 11.4306837,22.6114 C11.1956837,22.3664 11.2036837,21.9764 11.4486837,21.7414 C11.6956837,21.5064 12.6366837,21.4564 12.6366837,21.4564 C12.6366837,21.4564 12.5456837,22.3954 12.3006837,22.6304" id="Fill-185" fill="#17163F"></path>
            <path d="M15.8729837,26.3609 C15.6269837,26.5959 15.2379837,26.5879 15.0029837,26.3419 C14.7679837,26.0969 14.7759837,25.7069 15.0209837,25.4719 C15.2679837,25.2369 16.2089837,25.1869 16.2089837,25.1869 C16.2089837,25.1869 16.1179837,26.1259 15.8729837,26.3609" id="Fill-187" fill="#17163F"></path>
            <path d="M19.4451837,30.0914 C19.1991837,30.3264 18.8091837,30.3184 18.5751837,30.0724 C18.3401837,29.8274 18.3481837,29.4374 18.5931837,29.2024 C18.8391837,28.9674 19.7811837,28.9174 19.7811837,28.9174 C19.7811837,28.9174 19.6901837,29.8564 19.4451837,30.0914" id="Fill-189" fill="#17163F"></path>
            <path d="M23.0164837,33.8218 C22.7714837,34.0568 22.3814837,34.0488 22.1474837,33.8028 C21.9124837,33.5568 21.9194837,33.1678 22.1654837,32.9328 C22.4114837,32.6978 23.3534837,32.6478 23.3534837,32.6478 C23.3534837,32.6478 23.2624837,33.5868 23.0164837,33.8218" id="Fill-191" fill="#17163F"></path>
            <path d="M26.5887837,37.5518 C26.3437837,37.7868 25.9537837,37.7788 25.7187837,37.5328 C25.4847837,37.2878 25.4917837,36.8978 25.7377837,36.6628 C25.9837837,36.4278 26.9247837,36.3788 26.9247837,36.3788 C26.9247837,36.3788 26.8347837,37.3168 26.5887837,37.5518" id="Fill-193" fill="#17163F"></path>
            <path d="M30.1610837,41.2823 C29.9160837,41.5173 29.5260837,41.5093 29.2910837,41.2633 C29.0560837,41.0183 29.0640837,40.6283 29.3090837,40.3933 C29.5560837,40.1583 30.4970837,40.1083 30.4970837,40.1083 C30.4970837,40.1083 30.4060837,41.0473 30.1610837,41.2823" id="Fill-195" fill="#17163F"></path>
            <path d="M14.2674837,31.4737 C14.0224837,31.7087 13.6324837,31.7007 13.3974837,31.4547 C13.1624837,31.2087 13.1704837,30.8197 13.4154837,30.5847 C13.6624837,30.3497 14.6034837,30.2997 14.6034837,30.2997 C14.6034837,30.2997 14.5124837,31.2387 14.2674837,31.4737" id="Fill-197" fill="#17163F"></path>
            <path d="M17.8397837,35.2037 C17.5937837,35.4387 17.2047837,35.4307 16.9697837,35.1847 C16.7347837,34.9397 16.7427837,34.5497 16.9877837,34.3147 C17.2347837,34.0797 18.1757837,34.0307 18.1757837,34.0307 C18.1757837,34.0307 18.0847837,34.9687 17.8397837,35.2037" id="Fill-199" fill="#17163F"></path>
            <path d="M21.4119837,38.9341 C21.1659837,39.1691 20.7759837,39.1611 20.5419837,38.9151 C20.3069837,38.6701 20.3149837,38.2801 20.5599837,38.0451 C20.8059837,37.8101 21.7479837,37.7601 21.7479837,37.7601 C21.7479837,37.7601 21.6569837,38.6991 21.4119837,38.9341" id="Fill-201" fill="#17163F"></path>
            <path d="M67.7176837,43.335 C67.7176837,49.385 62.5466837,54.29 56.1676837,54.29 C49.7886837,54.29 44.6176837,49.385 44.6176837,43.335 C44.6176837,37.285 49.7886837,32.381 56.1676837,32.381 C62.5466837,32.381 67.7176837,37.285 67.7176837,43.335" id="Fill-680" fill="#F99430"></path>
            <path d="M50.2479837,27.9634 C50.5029837,29.9514 53.7689837,32.5464 56.0189837,30.7294 C56.7679837,30.1244 54.1979837,26.4544 50.2479837,27.9634" id="Fill-682" fill="#7EB247"></path>
            <path d="M51.4119837,28.4874 C52.3569837,28.7844 53.2949837,29.1124 54.2229837,29.4824 C54.6869837,29.6654 55.1469837,29.8644 55.6039837,30.0854 C56.0619837,30.3094 56.5159837,30.5394 56.9649837,30.8844 L56.2889837,31.6224 C56.0019837,31.3074 55.6129837,31.0084 55.2239837,30.7304 C54.8299837,30.4514 54.4189837,30.1834 53.9989837,29.9294 C53.1599837,29.4174 52.2929837,28.9384 51.4119837,28.4874" id="Fill-684" fill="#78A00B"></path>
            <path d="M53.1844837,49.3365 C53.3414837,49.3395 53.4664837,49.4695 53.4634837,49.6275 C53.4604837,49.7845 53.3304837,49.9095 53.1734837,49.9065 C53.0164837,49.9035 52.8914837,49.7735 52.8944837,49.6155 C52.8974837,49.4585 53.0274837,49.3335 53.1844837,49.3365" id="Fill-686" fill="#E2C533"></path>
            <path d="M54.5467837,49.4019 C54.6927837,49.4049 54.8097837,49.5269 54.8077837,49.6729 C54.8047837,49.8189 54.6827837,49.9349 54.5367837,49.9309 C54.3907837,49.9299 54.2747837,49.8079 54.2767837,49.6619 C54.2797837,49.5159 54.4007837,49.3989 54.5467837,49.4019" id="Fill-688" fill="#F4A045"></path>
            <path d="M56.1707837,36.2139 C56.2517837,36.2159 56.3167837,36.2829 56.3147837,36.3639 C56.3137837,36.4459 56.2457837,36.5099 56.1647837,36.5079 C56.0837837,36.5069 56.0197837,36.4399 56.0217837,36.3599 C56.0227837,36.2779 56.0897837,36.2129 56.1707837,36.2139" id="Fill-690" fill="#F4A045"></path>
            <path d="M62.9979837,36.8086 C63.1319837,36.8106 63.2369837,36.9216 63.2349837,37.0546 C63.2329837,37.1876 63.1219837,37.2946 62.9889837,37.2916 C62.8549837,37.2896 62.7499837,37.1796 62.7529837,37.0456 C62.7549837,36.9126 62.8649837,36.8066 62.9979837,36.8086" id="Fill-692" fill="#F4A045"></path>
            <path d="M47.4930837,37.2364 C47.6270837,37.2384 47.7320837,37.3494 47.7300837,37.4824 C47.7280837,37.6154 47.6170837,37.7214 47.4840837,37.7184 C47.3500837,37.7164 47.2450837,37.6074 47.2480837,37.4724 C47.2500837,37.3404 47.3600837,37.2344 47.4930837,37.2364" id="Fill-694" fill="#F4A045"></path>
            <path d="M48.4168837,36.4043 C48.4938837,36.5293 48.4558837,36.6923 48.3308837,36.7693 C48.2068837,36.8453 48.0428837,36.8073 47.9668837,36.6833 C47.8898837,36.5583 47.9278837,36.3953 48.0528837,36.3193 C48.1768837,36.2423 48.3408837,36.2793 48.4168837,36.4043" id="Fill-696" fill="#E2C533"></path>
            <path d="M48.9949837,37.3384 C49.0719837,37.4634 49.0329837,37.6264 48.9089837,37.7024 C48.7839837,37.7794 48.6209837,37.7414 48.5439837,37.6174 C48.4669837,37.4924 48.5059837,37.3294 48.6299837,37.2524 C48.7549837,37.1754 48.9179837,37.2134 48.9949837,37.3384" id="Fill-698" fill="#E2C533"></path>
            <path d="M53.0203837,42.8682 C53.0823837,43.0222 53.0093837,43.1972 52.8563837,43.2622 C52.7033837,43.3252 52.5263837,43.2502 52.4633837,43.0972 C52.4003837,42.9432 52.4733837,42.7672 52.6263837,42.7052 C52.7813837,42.6412 52.9573837,42.7142 53.0203837,42.8682" id="Fill-700" fill="#F4A045"></path>
            <path d="M54.4276837,43.5118 C54.3236837,43.6618 54.1186837,43.6988 53.9686837,43.5948 C53.8206837,43.4908 53.7816837,43.2838 53.8856837,43.1358 C53.9906837,42.9858 54.1966837,42.9488 54.3456837,43.0538 C54.4946837,43.1568 54.5316837,43.3628 54.4276837,43.5118" id="Fill-702" fill="#E2C533"></path>
            <path d="M53.6473837,44.6348 C53.5433837,44.7848 53.3373837,44.8218 53.1873837,44.7178 C53.0383837,44.6128 53.0013837,44.4068 53.1053837,44.2578 C53.2093837,44.1088 53.4153837,44.0708 53.5653837,44.1758 C53.7143837,44.2798 53.7513837,44.4858 53.6473837,44.6348" id="Fill-704" fill="#E2C533"></path>
            <path d="M66.3709837,43.4527 C66.4959837,43.4557 66.5979837,43.5477 66.5959837,43.6597 C66.5939837,43.7707 66.4889837,43.8597 66.3639837,43.8567 C66.2379837,43.8547 66.1379837,43.7617 66.1399837,43.6507 C66.1419837,43.5387 66.2459837,43.4507 66.3709837,43.4527" id="Fill-706" fill="#E2C533"></path>
            <path d="M62.6561837,36.022 C62.7661837,35.962 62.8991837,35.992 62.9531837,36.091 C63.0061837,36.189 62.9591837,36.317 62.8481837,36.376 C62.7381837,36.437 62.6051837,36.405 62.5521837,36.308 C62.5001837,36.209 62.5461837,36.082 62.6561837,36.022" id="Fill-708" fill="#DD7E17"></path>
            <path d="M63.8670837,36.397 C64.0210837,36.313 64.2220837,36.383 64.3140837,36.554 C64.4070837,36.726 64.3570837,36.931 64.2020837,37.015 C64.0480837,37.099 63.8470837,37.028 63.7550837,36.858 C63.6630837,36.687 63.7120837,36.481 63.8670837,36.397" id="Fill-710" fill="#DD7E17"></path>
            <path d="M47.7879837,44.3453 C47.6999837,44.4453 47.5469837,44.4553 47.4469837,44.3673 C47.3469837,44.2793 47.3379837,44.1263 47.4259837,44.0263 C47.5139837,43.9253 47.6659837,43.9163 47.7659837,44.0053 C47.8659837,44.0933 47.8759837,44.2443 47.7879837,44.3453" id="Fill-712" fill="#F4A045"></path>
            <path d="M48.6092837,44.5933 C48.5842837,44.7163 48.4742837,44.7983 48.3652837,44.7753 C48.2552837,44.7523 48.1882837,44.6333 48.2132837,44.5113 C48.2392837,44.3863 48.3492837,44.3063 48.4582837,44.3293 C48.5672837,44.3523 48.6352837,44.4703 48.6092837,44.5933" id="Fill-714" fill="#DD7E17"></path>
            <path d="M47.5399837,45.2754 C47.5049837,45.4474 47.3209837,45.5534 47.1319837,45.5154 C46.9399837,45.4734 46.8159837,45.3024 46.8519837,45.1304 C46.8889837,44.9584 47.0719837,44.8524 47.2619837,44.8914 C47.4509837,44.9314 47.5769837,45.1014 47.5399837,45.2754" id="Fill-716" fill="#DD7E17"></path>
            <path d="M60.5516837,42.5499 C60.3366837,42.4449 60.2466837,42.1849 60.3516837,41.9689 C60.4556837,41.7539 60.7166837,41.6649 60.9316837,41.7689 C61.1486837,41.8729 61.2376837,42.1329 61.1316837,42.3489 C61.0276837,42.5649 60.7686837,42.6539 60.5516837,42.5499" id="Fill-718" fill="#F4A045"></path>
            <path d="M60.5154837,44.0918 C60.2904837,44.1048 60.0964837,43.9558 60.0834837,43.7558 C60.0714837,43.5548 60.2444837,43.3808 60.4684837,43.3678 C60.6964837,43.3528 60.8874837,43.5048 60.9004837,43.7038 C60.9124837,43.9038 60.7414837,44.0778 60.5154837,44.0918" id="Fill-720" fill="#DD7E17"></path>
            <path d="M58.8231837,42.565 C58.5091837,42.586 58.2351837,42.319 58.2121837,41.972 C58.1911837,41.62 58.4281837,41.324 58.7441837,41.304 C59.0601837,41.284 59.3321837,41.551 59.3541837,41.898 C59.3761837,42.248 59.1401837,42.544 58.8231837,42.565" id="Fill-722" fill="#DD7E17"></path>
            <path d="M51.0428837,51.1851 C51.1968837,51.1021 51.3968837,51.1711 51.4908837,51.3421 C51.5828837,51.5141 51.5318837,51.7201 51.3778837,51.8041 C51.2238837,51.8871 51.0228837,51.8161 50.9308837,51.6461 C50.8388837,51.4751 50.8878837,51.2691 51.0428837,51.1851" id="Fill-724" fill="#DD7E17"></path>
            <path d="M65.7908837,44.1285 C65.9368837,44.1315 66.0538837,44.2525 66.0518837,44.3985 C66.0478837,44.5455 65.9268837,44.6625 65.7808837,44.6595 C65.6348837,44.6555 65.5188837,44.5355 65.5208837,44.3885 C65.5238837,44.2425 65.6448837,44.1265 65.7908837,44.1285" id="Fill-726" fill="#E2C533"></path>
            <path d="M56.7488837,37.2334 C56.7098837,37.1254 56.7748837,37.0004 56.8948837,36.9564 C57.0168837,36.9124 57.1458837,36.9654 57.1858837,37.0754 C57.2258837,37.1844 57.1588837,37.3074 57.0388837,37.3504 C56.9188837,37.3944 56.7898837,37.3434 56.7488837,37.2334" id="Fill-728" fill="#DD7E17"></path>
            <path d="M55.4110837,37.5059 C55.4350837,37.3609 55.5720837,37.2639 55.7160837,37.2879 C55.8610837,37.3129 55.9580837,37.4489 55.9340837,37.5929 C55.9100837,37.7389 55.7730837,37.8349 55.6290837,37.8099 C55.4840837,37.7869 55.3870837,37.6499 55.4110837,37.5059" id="Fill-730" fill="#F4A045"></path>
            <path d="M53.7283837,50.7359 C53.8843837,50.7379 54.0103837,50.8679 54.0063837,51.0259 C54.0043837,51.1819 53.8743837,51.3079 53.7163837,51.3049 C53.5593837,51.3019 53.4343837,51.1729 53.4373837,51.0159 C53.4403837,50.8569 53.5703837,50.7329 53.7283837,50.7359" id="Fill-732" fill="#E2C533"></path>
            <path d="M61.1873837,50.9224 C61.1543837,50.7684 61.2533837,50.6174 61.4083837,50.5864 C61.5613837,50.5534 61.7123837,50.6524 61.7453837,50.8064 C61.7763837,50.9604 61.6773837,51.1114 61.5233837,51.1434 C61.3693837,51.1754 61.2183837,51.0764 61.1873837,50.9224" id="Fill-734" fill="#E2C533"></path>
            <path d="M60.9471837,49.5796 C60.9181837,49.4356 61.0101837,49.2956 61.1531837,49.2666 C61.2971837,49.2356 61.4361837,49.3286 61.4671837,49.4716 C61.4971837,49.6156 61.4051837,49.7556 61.2611837,49.7846 C61.1181837,49.8146 60.9771837,49.7236 60.9471837,49.5796" id="Fill-736" fill="#F4A045"></path>
            <path d="M62.4305837,50.0816 C62.3985837,49.9286 62.4955837,49.7766 62.6505837,49.7456 C62.8045837,49.7126 62.9555837,49.8116 62.9875837,49.9656 C63.0205837,50.1206 62.9215837,50.2706 62.7675837,50.3026 C62.6135837,50.3346 62.4615837,50.2356 62.4305837,50.0816" id="Fill-738" fill="#E2C533"></path>
            <path d="M57.2889837,33.3428 C57.2949837,33.7828 57.1079837,33.9258 56.3429837,34.1708 C55.5759837,34.4148 55.2689837,34.1368 55.1979837,33.9138 C55.1269837,33.6908 55.2349837,33.3398 56.0019837,33.0958 C56.7679837,32.8508 57.2849837,33.1088 57.2889837,33.3428" id="Fill-740" fill="#DD7E17"></path>
            <path d="M56.6912837,33.6905 C56.5312837,33.8065 55.7302837,34.1635 55.9322837,33.4765 C56.2032837,32.5565 55.0462837,27.8285 55.0462837,27.8285 C55.0462837,27.8285 55.0412837,26.1155 56.5852837,27.0065 C58.1282837,27.8985 56.7322837,31.9235 56.7322837,33.5495 C56.7322837,33.5495 56.7732837,33.6315 56.6912837,33.6905" id="Fill-742" fill="#78A00B"></path>
            <path d="M55.2147837,27.5606 C55.1307837,27.9156 55.3737837,27.9126 55.7137837,27.9926 C56.0537837,28.0716 56.5947837,27.8336 56.7727837,27.5326 C56.9587837,27.2186 56.2937837,26.8956 55.9457837,26.8666 C55.3867837,26.8216 55.2977837,27.2046 55.2147837,27.5606" id="Fill-744" fill="#ABBC46"></path>
            <path d="M30.9334837,45.2486 C31.0164837,50.9486 35.9034837,55.5046 41.8464837,55.4176 C47.7904837,55.3306 52.5444837,50.6346 52.4574837,44.9326 C52.3734837,39.2266 47.4894837,34.6716 41.5444837,34.7576 C35.6014837,34.8446 30.8504837,39.5426 30.9334837,45.2486" id="Fill-746" fill="#F98C28"></path>
            <path d="M34.4285837,45.3863 C34.5055837,50.1183 38.4735837,53.9053 43.2865837,53.8453 C48.1035837,53.7833 51.9445837,49.8943 51.8655837,45.1653 C51.7865837,40.4333 47.8205837,36.6453 43.0045837,36.7083 C38.1905837,36.7683 34.3495837,40.6543 34.4285837,45.3863" id="Fill-748" fill="#FFB95C"></path>
            <path d="M43.8807837,44.9576 C46.3267837,42.1766 50.8617837,42.1276 47.9897837,39.7136 C45.0867837,37.2666 45.8637837,41.8266 43.6357837,44.8786 C43.4547837,41.1046 46.6097837,37.7456 42.9437837,38.1316 C39.2767837,38.5126 42.8077837,41.1296 43.3897837,44.8646 C40.6517837,42.3216 40.3997837,37.7646 38.0777837,40.7286 C35.7697837,43.6906 40.2167837,42.7886 43.1867837,45.0126 C39.6037837,45.1006 36.4327837,42.2076 36.8187837,45.9546 C37.2187837,49.7566 39.7267837,45.8556 43.3307837,45.2636 C40.8967837,48.1036 36.4737837,48.3276 39.3577837,50.7596 C42.2327837,53.1706 41.3317837,48.5606 43.4577837,45.4976 C43.6887837,49.3006 40.7347837,52.7016 44.4187837,52.3206 C48.1277837,51.9246 44.2147837,49.2446 43.6887837,45.4346 C46.4077837,47.9836 46.4827837,52.7146 48.7977837,49.7476 C51.1397837,46.7586 46.7557837,47.5276 43.7947837,45.2086 C47.5167837,44.9096 50.9097837,48.3926 50.5047837,44.5206 C50.1087837,40.6786 47.5497837,44.4446 43.8807837,44.9576" id="Fill-750" fill="#FCDBA2"></path>
            <path d="M35.3807837,37.9644 C35.3807837,38.0474 35.3137837,38.1154 35.2307837,38.1154 C35.1467837,38.1154 35.0787837,38.0474 35.0787837,37.9644 C35.0787837,37.8814 35.1467837,37.8144 35.2307837,37.8144 C35.3137837,37.8144 35.3807837,37.8814 35.3807837,37.9644" id="Fill-752" fill="#DD7E17"></path>
            <path d="M36.3768837,37.7427 C36.3768837,37.8777 36.2678837,37.9887 36.1318837,37.9887 C35.9968837,37.9887 35.8868837,37.8777 35.8868837,37.7427 C35.8868837,37.6067 35.9968837,37.4977 36.1318837,37.4977 C36.2678837,37.4977 36.3768837,37.6067 36.3768837,37.7427" id="Fill-754" fill="#E2C533"></path>
            <path d="M35.8699837,38.9068 C35.8699837,39.0418 35.7609837,39.1528 35.6259837,39.1528 C35.4899837,39.1528 35.3809837,39.0418 35.3809837,38.9068 C35.3809837,38.7708 35.4899837,38.6618 35.6259837,38.6618 C35.7609837,38.6618 35.8699837,38.7708 35.8699837,38.9068" id="Fill-756" fill="#F4A045"></path>
            <path d="M33.8045837,50.438 C33.9215837,50.482 33.9825837,50.613 33.9385837,50.73 C33.8955837,50.847 33.7645837,50.907 33.6475837,50.863 C33.5295837,50.82 33.4695837,50.69 33.5135837,50.572 C33.5565837,50.455 33.6865837,50.395 33.8045837,50.438" id="Fill-758" fill="#DD7E17"></path>
            <path d="M33.9149837,49.4981 C34.0419837,49.5451 34.1069837,49.6861 34.0609837,49.8131 C34.0139837,49.9401 33.8719837,50.0041 33.7449837,49.9581 C33.6179837,49.9111 33.5539837,49.7701 33.6009837,49.6431 C33.6469837,49.5161 33.7879837,49.4511 33.9149837,49.4981" id="Fill-760" fill="#E2C533"></path>
            <path d="M34.7928837,50.483 C34.8608837,50.508 34.8968837,50.584 34.8708837,50.653 C34.8458837,50.722 34.7698837,50.756 34.7008837,50.732 C34.6318837,50.706 34.5968837,50.629 34.6218837,50.561 C34.6468837,50.492 34.7238837,50.457 34.7928837,50.483" id="Fill-762" fill="#F4A045"></path>
            <path d="M40.5281837,54.2652 C40.6381837,54.3242 40.6801837,54.4622 40.6221837,54.5722 C40.5621837,54.6822 40.4241837,54.7232 40.3141837,54.6642 C40.2031837,54.6052 40.1621837,54.4682 40.2211837,54.3572 C40.2801837,54.2472 40.4181837,54.2052 40.5281837,54.2652" id="Fill-764" fill="#DD7E17"></path>
            <path d="M41.5008837,54.4444 C41.5648837,54.4794 41.5898837,54.5594 41.5558837,54.6244 C41.5218837,54.6884 41.4398837,54.7124 41.3758837,54.6774 C41.3118837,54.6434 41.2868837,54.5634 41.3208837,54.4984 C41.3558837,54.4344 41.4368837,54.4094 41.5008837,54.4444" id="Fill-766" fill="#F4A045"></path>
            <path d="M44.2410837,35.8892 C44.1150837,35.8862 44.0150837,35.7822 44.0180837,35.6572 C44.0200837,35.5322 44.1250837,35.4332 44.2510837,35.4362 C44.3770837,35.4382 44.4740837,35.5422 44.4720837,35.6682 C44.4700837,35.7922 44.3660837,35.8912 44.2410837,35.8892" id="Fill-768" fill="#DD7E17"></path>
            <path d="M43.2918837,36.17 C43.2188837,36.168 43.1608837,36.108 43.1618837,36.034 C43.1638837,35.961 43.2248837,35.903 43.2978837,35.905 C43.3708837,35.906 43.4288837,35.967 43.4278837,36.04 C43.4258837,36.113 43.3648837,36.171 43.2918837,36.17" id="Fill-770" fill="#F4A045"></path>
        </g>
    </g>
</svg>