<?xml version="1.0" encoding="UTF-8"?>
<svg width="27px" height="49px" viewBox="0 0 27 49" version="1.1" xmlns="http://www.w3.org/2000/svg" xmlns:xlink="http://www.w3.org/1999/xlink">
    <!-- Generator: Sketch 53.1 (72631) - https://sketchapp.com -->
    <title>Group 43</title>
    <desc>Created with Sketch.</desc>
    <g id="Page-1" stroke="none" stroke-width="1" fill="none" fill-rule="evenodd">
        <g id="Group-43" transform="translate(0.594800, 0.604007)">
            <path d="M25.2988,8.59949279 C23.3538,4.93149279 18.7858,3.53149279 15.1198,5.47349279 C14.5268,5.78849279 13.9938,6.17349279 13.5228,6.61049279 L13.8588,6.97249279 C14.2978,6.56449279 14.7958,6.20449279 15.3518,5.91049279 C18.7778,4.09349279 23.0438,5.40349279 24.8628,8.82949279 C26.3858,11.7034928 25.7128,15.1684928 23.4348,17.2834928 L23.7698,17.6454928 C26.2068,15.3794928 26.9308,11.6754928 25.2988,8.59949279" id="Fill-8" fill="#FFCE36"></path>
            <path d="M15.3691,6.47889279 C14.9411,6.72789279 14.5501,7.01489279 14.2011,7.33989279 L17.7131,11.1218928 L17.8321,11.1218928 L15.3691,6.47889279 Z" id="Fill-10" fill="#FFCE36"></path>
            <path d="M24.0361,15.8250928 L19.5141,12.9690928 C19.4981,12.9820928 19.4841,12.9980928 19.4711,13.0140928 L23.0921,16.9140928 C23.4491,16.5820928 23.7641,16.2190928 24.0361,15.8250928" id="Fill-12" fill="#FFCE36"></path>
            <path d="M19.8379,11.9285928 L25.1839,12.1495928 C25.1879,11.1855928 24.9729,10.2075928 24.5289,9.29159279 L19.8169,11.7875928 C19.8169,11.7915928 19.8149,11.7945928 19.8129,11.7975928 C19.8239,11.8415928 19.8309,11.8845928 19.8379,11.9285928" id="Fill-14" fill="#FFCE36"></path>
            <path d="M18.4473,10.9373928 L18.6653,5.5903789 C17.7033,5.58839279 16.7283,5.80239279 15.8083,6.24539279 L18.0703,10.5123928 C18.3203,9.74939279 18.5153,9.29139279 18.5153,9.29139279 C18.5153,9.29139279 18.3203,9.74939279 18.0703,10.5123928 L18.3093,10.9643928 C18.3553,10.9493928 18.4023,10.9433928 18.4473,10.9373928" id="Fill-16" fill="#FFCE36"></path>
            <path d="M25.1563,12.6448928 L19.8173,12.4238928 C19.8073,12.4678928 19.7933,12.5068928 19.7773,12.5488928 L24.2963,15.4018928 C24.7843,14.5588928 25.0793,13.6158928 25.1563,12.6448928" id="Fill-18" fill="#FFCE36"></path>
            <path d="M18.9434,10.9558928 C18.9864,10.9668928 19.0254,10.9818928 19.0694,10.9938928 L21.9214,6.47889279 C21.0764,5.99189279 20.1354,5.69589279 19.1644,5.61689279 L18.9434,10.9558928 Z" id="Fill-20" fill="#FFCE36"></path>
            <path d="M24.2949,8.84949279 C23.7929,7.98449279 23.1239,7.27249279 22.3419,6.73949279 L19.5729,11.1214928 L20.0129,11.1214928 L24.2949,8.84949279 Z" id="Fill-22" fill="#FFCE36"></path>
            <path d="M19.7773,12.5491928 C19.7933,12.5071928 19.8073,12.4671928 19.8173,12.4241928 L25.1563,12.6451928 C25.0793,13.6161928 24.7843,14.5581928 24.2963,15.4021928 L19.7773,12.5491928 Z M19.0693,10.9941928 C19.0253,10.9821928 18.9863,10.9661928 18.9433,10.9561928 L19.1643,5.61619279 C20.1353,5.69619279 21.0763,5.99219279 21.9213,6.47919279 L19.0693,10.9941928 Z M24.8633,8.83019279 C23.0443,5.40319279 18.7783,4.09319279 15.3513,5.91019279 C14.7963,6.20419279 14.2983,6.56519279 13.8583,6.97219279 L14.2013,7.34019279 C14.5493,7.01519279 14.9413,6.72719279 15.3693,6.47919279 L17.8323,11.1221928 L17.8813,11.1221928 C17.9443,10.9001928 18.0093,10.6961928 18.0703,10.5121928 L15.8083,6.24519279 C16.7283,5.80219279 17.7033,5.58819279 18.6653,5.59119279 L18.4473,10.9371928 C18.4023,10.9431928 18.3553,10.9491928 18.3093,10.9651928 L18.0703,10.5121928 C18.0093,10.6961928 17.9443,10.9001928 17.8813,11.1221928 L19.5733,11.1221928 L22.3413,6.73919279 C23.1243,7.27219279 23.7933,7.98519279 24.2953,8.84919279 L20.0123,11.1221928 L20.1933,11.1221928 C20.1933,11.1221928 20.0303,11.3481928 19.8173,11.7871928 L24.5293,9.29119279 C24.9723,10.2081928 25.1873,11.1861928 25.1833,12.1491928 L19.8383,11.9281928 C19.8313,11.8841928 19.8243,11.8411928 19.8123,11.7981928 C19.6763,12.0841928 19.5213,12.4561928 19.3763,12.9151928 L19.4703,13.0141928 C19.4843,12.9981928 19.4983,12.9821928 19.5133,12.9681928 L24.0363,15.8251928 C23.7633,16.2181928 23.4493,16.5821928 23.0913,16.9141928 L23.4343,17.2831928 C25.7133,15.1681928 26.3853,11.7031928 24.8633,8.83019279 L24.8633,8.83019279 Z" id="Fill-24" fill="#FFFFFF"></path>
            <path d="M9.293,3.44369279 C9.254,3.23769279 8.896,1.45769279 7.596,0.54169279 C6.916,0.06169279 6.118,-0.09930721 5.219,0.05869279 L5.182,0.06569279 L5.144,0.07769279 L0,1.73669279 L0.355,2.84169279 L5.46,1.19569279 C6.031,1.10369279 6.511,1.19769279 6.921,1.48769279 C7.88,2.15769279 8.148,3.64269279 8.151,3.65669279 L8.156,3.68469279 L9.813,11.1216928 L11.002,11.1216928 L9.293,3.44369279 Z" id="Fill-26" fill="#85E7FF"></path>
            <path d="M17.8721,11.1970928 L17.8641,11.1810928 C17.8611,11.1910928 17.8571,11.2010928 17.8541,11.2130928 C17.8611,11.2070928 17.8651,11.2010928 17.8721,11.1970928" id="Fill-28" fill="#E0EFEA"></path>
            <path d="M17.8545,11.2131928 C17.8575,11.2011928 17.8615,11.1911928 17.8645,11.1811928 L17.8325,11.1221928 L17.7125,11.1221928 L17.8225,11.2411928 C17.8325,11.2311928 17.8435,11.2201928 17.8545,11.2131928" id="Fill-30" fill="#E0EFEA"></path>
            <path d="M19.8125,11.7976928 C19.8145,11.7946928 19.8175,11.7916928 19.8175,11.7876928 L19.8125,11.7916928 L19.8125,11.7976928 Z" id="Fill-32" fill="#E0EFEA"></path>
            <path d="M19.5801,11.3508928 L20.0131,11.1218928 L19.5731,11.1218928 L19.4881,11.2598928 C19.5191,11.2898928 19.5501,11.3188928 19.5801,11.3508928" id="Fill-34" fill="#E0EFEA"></path>
            <path d="M17.8398,11.2595928 C17.8458,11.2425928 17.8498,11.2275928 17.8548,11.2135928 C17.8438,11.2195928 17.8318,11.2315928 17.8218,11.2405928 L17.8398,11.2595928 Z" id="Fill-36" fill="#E0EFEA"></path>
            <path d="M19.8125,11.7913928 L19.8175,11.7873928 C20.0305,11.3483928 20.1935,11.1223928 20.1935,11.1223928 L20.0125,11.1223928 L19.5805,11.3513928 C19.5495,11.3183928 19.5195,11.2903928 19.4885,11.2593928 L19.5735,11.1223928 L17.8805,11.1223928 C17.8745,11.1413928 17.8695,11.1613928 17.8645,11.1813928 L17.8725,11.1973928 C17.8655,11.2013928 17.8615,11.2073928 17.8545,11.2133928 C17.8495,11.2273928 17.8455,11.2423928 17.8395,11.2593928 L19.3755,12.9153928 C19.5215,12.4563928 19.6765,12.0833928 19.8125,11.7973928 L19.8125,11.7913928 Z" id="Fill-38" fill="#E0EFEA"></path>
            <path d="M17.8809,11.1218928 L17.8319,11.1218928 L17.8639,11.1808928 C17.8689,11.1608928 17.8739,11.1418928 17.8809,11.1218928" id="Fill-40" fill="#E0EFEA"></path>
            <polygon id="Fill-42" fill="#E0EFEA" points="11.1865 11.9534928 11.0015 11.1214928 9.8125 11.1214928 10.0515 12.2074928"></polygon>
            <path d="M12.2988,13.8357928 L6.2668,13.8357928 C6.2668,13.8357928 7.0878,17.2077928 5.8968,20.7457928 C5.8968,20.7457928 0.7308,30.9687928 12.2988,33.5997928 C13.1288,33.4107928 13.8718,33.1807928 14.5388,32.9197928 C20.5468,25.8617928 17.2378,18.7547928 17.2378,18.7547928 C16.9188,17.0917928 17.0148,15.3577928 17.2608,13.8357928 L12.2988,13.8357928 Z" id="Fill-44" fill="#FF7045"></path>
            <path d="M17.2383,18.7551928 C17.2383,18.7551928 20.5473,25.8611928 14.5393,32.9201928 C23.1473,29.5491928 18.6973,20.7461928 18.6973,20.7461928 C17.5073,17.2071928 18.3283,13.8361928 18.3283,13.8361928 L17.2603,13.8361928 C17.0143,15.3581928 16.9193,17.0921928 17.2383,18.7551928" id="Fill-46" fill="#E6643D"></path>
            <path d="M7.0078,32.6668928 C7.0078,32.6668928 10.3798,34.8888928 10.6248,37.6008928 L10.6248,41.8788928 C10.6248,41.8788928 9.8858,44.8398928 6.7618,45.8258928 L5.1978,46.4008928 L5.1978,47.7178928 L12.2988,47.7178928 L16.7798,47.7178928 L16.7268,46.4878928 L15.7048,45.9418928 C13.3158,44.7558928 12.8948,42.1078928 12.8948,42.1078928 L12.8948,34.6278928 C13.5078,34.0628928 14.0548,33.4908928 14.5388,32.9198928 C13.8718,33.1808928 13.1288,33.4108928 12.2988,33.5998928 C0.7308,30.9688928 5.8968,20.7458928 5.8968,20.7458928 C7.0878,17.2078928 6.2668,13.8358928 6.2668,13.8358928 L12.2988,13.8358928 L17.2608,13.8358928 C17.4138,12.8658928 17.6308,11.9848928 17.8398,11.2598928 L17.8218,11.2408928 L17.7128,11.1218928 L12.2988,11.1218928 L11.0018,11.1218928 L11.1868,11.9538928 L10.0518,12.2078928 L9.8128,11.1218928 L4.4038,11.1218928 C4.4038,11.1218928 6.8428,14.4938928 5.0338,20.4168928 C5.0338,20.4168928 1.0048,27.8988928 7.0078,32.6668928" id="Fill-48" fill="#E0EFEA"></path>
            <path d="M15.7051,45.9417928 L16.7261,46.4877928 L16.7801,47.7177928 L19.3981,47.7177928 L19.3981,46.4007928 L17.8351,45.8257928 C14.7101,44.8397928 13.9721,41.8787928 13.9721,41.8787928 L13.9721,37.6007928 C14.2181,34.8887928 17.5891,32.6667928 17.5891,32.6667928 C23.5931,27.8987928 19.5621,20.4167928 19.5621,20.4167928 C18.5291,17.0297928 18.8831,14.4797928 19.3761,12.9147928 L17.8401,11.2597928 C17.6311,11.9847928 17.4141,12.8657928 17.2611,13.8357928 L18.3281,13.8357928 C18.3281,13.8357928 17.5071,17.2077928 18.6971,20.7457928 C18.6971,20.7457928 23.1471,29.5487928 14.5391,32.9197928 C14.0551,33.4907928 13.5081,34.0627928 12.8941,34.6287928 L12.8941,42.1077928 C12.8941,42.1077928 13.3151,44.7557928 15.7051,45.9417928" id="Fill-50" fill="#CBD9D6"></path>
        </g>
    </g>
</svg>