<?xml version="1.0" encoding="UTF-8"?>
<svg width="21px" height="49px" viewBox="0 0 21 49" version="1.1" xmlns="http://www.w3.org/2000/svg" xmlns:xlink="http://www.w3.org/1999/xlink">
    <!-- Generator: Sketch 53.1 (72631) - https://sketchapp.com -->
    <title>Group 45</title>
    <desc>Created with Sketch.</desc>
    <defs>
        <polygon id="path-1" points="0 0.2447 20.0366 0.2447 20.0366 34.8227 0 34.8227"></polygon>
    </defs>
    <g id="Page-1" stroke="none" stroke-width="1" fill="none" fill-rule="evenodd">
        <g id="Group-45" transform="translate(0.000000, 0.226000)">
            <g id="Group-3">
                <mask id="mask-2" fill="white">
                    <use xlink:href="#path-1"></use>
                </mask>
                <g id="Clip-2"></g>
                <path d="M17.1036,3.1777 C15.2876,1.3657 12.7836,0.2447 10.0186,0.2447 C4.4876,0.2447 -0.0004,4.7277 -0.0004,10.2587 L-0.0004,34.8227 L20.0366,34.8227 L20.0366,10.2587 C20.0366,7.4927 18.9156,4.9897 17.1036,3.1777" id="Fill-1" fill="#C90E32" mask="url(#mask-2)"></path>
            </g>
            <path d="M7.5802,34.8232 L7.5802,46.0282 C7.5802,47.3752 8.6722,48.4662 10.0182,48.4662 C11.3642,48.4662 12.4562,47.3752 12.4562,46.0282 L12.4562,34.8232 L7.5802,34.8232 Z" id="Fill-4" fill="#EB9702"></path>
            <path d="M20.0362,10.2587 L20.0362,18.0557 C20.0362,18.7627 19.4632,19.3367 18.7552,19.3367 C18.0482,19.3367 17.4742,19.9107 17.4742,20.6177 L17.4742,25.6117 C17.4742,26.1387 17.0462,26.5667 16.5182,26.5667 C15.9902,26.5667 15.5622,26.1387 15.5622,25.6117 L15.5622,20.3767 C15.5622,19.8017 15.0982,19.3367 14.5232,19.3367 C13.9492,19.3367 13.4842,19.8017 13.4842,20.3767 L13.4842,22.4237 C13.4842,23.3817 12.7082,24.1567 11.7512,24.1567 C10.7942,24.1567 10.0182,23.3817 10.0182,22.4237 L10.0182,19.1157 C10.0182,18.2417 9.3092,17.5337 8.4362,17.5337 C7.5632,17.5337 6.8552,18.2417 6.8552,19.1157 L6.8552,26.9807 C6.8552,27.8747 6.1302,28.6007 5.2352,28.6007 C4.3402,28.6007 3.6152,27.8747 3.6152,26.9807 L3.6152,21.1237 C3.6152,20.5837 3.1772,20.1457 2.6372,20.1457 C2.0972,20.1457 1.6582,20.5837 1.6582,21.1237 L1.6582,22.8777 C1.6582,23.3357 1.2872,23.7067 0.8292,23.7067 C0.3712,23.7067 0.0002,23.3357 0.0002,22.8777 L0.0002,10.4767 C0.0002,5.1697 4.0422,0.6177 9.3372,0.2677 C12.3712,0.0667 15.1392,1.2177 17.1032,3.1777 C18.9162,4.9897 20.0362,7.4927 20.0362,10.2587" id="Fill-6" fill="#4C2030"></path>
        </g>
    </g>
</svg>