<?xml version="1.0" encoding="UTF-8"?>
<svg width="28px" height="62px" viewBox="0 0 28 62" version="1.1" xmlns="http://www.w3.org/2000/svg" xmlns:xlink="http://www.w3.org/1999/xlink">
    <!-- Generator: Sketch 53.1 (72631) - https://sketchapp.com -->
    <title>Group 42</title>
    <desc>Created with Sketch.</desc>
    <defs>
        <polygon id="path-1" points="0.569078451 0.201147605 3.9864 0.201147605 3.9864 61 0.569078451 61"></polygon>
    </defs>
    <g id="Page-1" stroke="none" stroke-width="1" fill="none" fill-rule="evenodd">
        <g id="Group-42" transform="translate(0.149389, 0.226000)">
            <g id="Group-54" transform="translate(8.850611, 0.000000)">
                <mask id="mask-2" fill="white">
                    <use xlink:href="#path-1"></use>
                </mask>
                <g id="Clip-53"></g>
                <path d="M3.9864,60.8593 L3.9144,61.0003 L2.5434,60.2913 C2.5304,58.1063 2.2464,55.9083 2.0954,53.7303 C2.0204,52.6333 1.9464,51.5373 1.8694,50.4393 C1.8244,49.7683 1.7784,49.0963 1.7344,48.4233 C1.6984,47.9063 1.6664,47.3883 1.6354,46.8723 C1.6234,46.6843 1.6094,46.4993 1.5994,46.3123 C1.5994,46.2993 1.5984,46.2903 1.5954,46.2763 C1.5934,46.1963 1.5874,46.1183 1.5844,46.0383 C1.5224,45.0863 1.4674,44.1343 1.4184,43.1823 C1.3414,41.8283 1.2744,40.4753 1.2144,39.1233 C1.1634,38.0173 1.1174,36.9133 1.0764,35.8063 C1.0694,35.7093 1.0664,35.6133 1.0654,35.5183 C1.0594,35.4503 1.0584,35.3803 1.0564,35.3113 C1.0004,33.7913 0.9504,32.2723 0.9104,30.7523 C0.8934,30.1363 0.8744,29.5193 0.8574,28.9033 C0.8364,28.1533 0.8114,27.4023 0.7904,26.6503 C0.7734,26.0963 0.7564,25.5423 0.7384,24.9883 C0.7294,24.6303 0.7174,24.2713 0.7094,23.9133 C0.6964,23.5023 0.6844,23.0953 0.6774,22.6853 C0.6204,20.5453 0.5784,18.4043 0.5714,16.2633 C0.5574,13.4983 0.6054,10.7373 0.7514,7.9863 C0.8864,5.4053 1.1134,2.8373 1.4624,0.2873 C1.4784,0.1583 1.6754,0.1823 1.6834,0.3053 C1.8294,2.8213 1.8954,5.3383 1.9174,7.8563 C1.9214,8.0843 1.9234,8.3103 1.9234,8.5393 C1.9274,8.9613 1.9294,9.3813 1.9284,9.8003 C1.9304,11.6733 1.9154,13.5433 1.8924,15.4153 C1.8594,18.0933 1.8164,20.7733 1.8034,23.4553 C1.7994,24.5513 1.7984,25.6503 1.8064,26.7493 C1.8094,27.4023 1.8154,28.0563 1.8304,28.7123 C1.8394,29.4953 1.8564,30.2773 1.8794,31.0633 C1.9224,32.4753 1.9714,33.8873 2.0294,35.3003 C2.0294,35.3723 2.0324,35.4453 2.0354,35.5193 C2.0394,35.6093 2.0424,35.6983 2.0464,35.7883 C2.0864,36.7823 2.1304,37.7753 2.1764,38.7673 C2.2494,40.3033 2.3294,41.8383 2.4184,43.3733 C2.4724,44.3033 2.5264,45.2333 2.5884,46.1623 C2.5904,46.1893 2.5904,46.2173 2.5924,46.2433 C2.5924,46.2503 2.5934,46.2593 2.5934,46.2663 C2.6014,46.3833 2.6094,46.5023 2.6174,46.6193 C2.6514,47.1533 2.6864,47.6853 2.7224,48.2203 C2.7934,49.2523 2.8704,50.2843 2.9524,51.3163 C3.0224,52.2223 3.1004,53.1303 3.1824,54.0363 C3.3904,56.3163 3.5044,58.6213 3.9864,60.8593" id="Fill-52" fill="#802C32" mask="url(#mask-2)"></path>
            </g>
            <path d="M27.1964112,9.6401 C27.2984112,8.2741 25.6984112,7.7921 24.6604112,7.6001 C22.2034112,7.1451 19.7244112,6.8921 17.2984112,6.2671 C15.8894112,5.9041 14.4964112,5.4531 13.1754112,4.8411 C12.4264112,4.5151 11.5374112,4.0801 11.5084112,3.1361 C11.4604112,1.5681 13.6004112,1.9761 14.5574112,2.0171 C14.7554112,2.0261 14.7474112,1.7461 14.5834112,1.6951 C13.3464112,1.3081 11.4614112,1.1931 10.8964112,2.7011 C10.2904112,4.3211 12.2744112,5.1131 13.4184112,5.5801 C15.6754112,6.5041 18.0654112,7.0721 20.4704112,7.4431 C21.5934112,7.6161 22.7244112,7.7601 23.8554112,7.8631 C24.9564112,7.9641 27.4424112,8.0061 26.6914112,10.0151 C26.3354112,10.9701 25.0684112,11.4891 24.2024112,11.7971 C24.0604112,11.8471 24.0894112,12.0971 24.2524112,12.0691 C25.4094112,11.8681 27.0944112,10.9981 27.1964112,9.6401" id="Fill-55" fill="#E38922"></path>
            <path d="M24.6261112,11.7817 C23.3061112,14.3347 20.5551112,14.4537 18.8071112,14.6307 C17.0601112,14.8067 15.2921112,14.5937 13.5411112,14.7357 C11.7911112,14.8787 9.95511119,15.4547 8.87811119,16.8427 C7.93711119,18.0557 7.74011119,19.8037 8.39011119,21.1957 C9.02211119,22.5527 10.3581112,23.4877 11.7911112,23.9197 C13.2251112,24.3517 14.7541112,24.3347 16.2441112,24.1937 C16.8081112,24.1397 16.8291112,24.7997 16.5721112,25.3027 C16.3141112,25.8057 15.7381112,26.0487 15.1981112,26.2157 C11.4441112,27.3757 7.16911119,26.7037 3.95111119,24.4477 C1.70511119,22.8717 -0.0848888123,20.3517 0.00311118769,17.6097 C0.0441111877,16.3427 0.479111188,15.1137 1.08911119,14.0027 C2.86411119,10.7677 6.21911119,8.4477 9.87411119,7.9457 C11.8491112,7.6747 13.8621112,7.9077 15.8091112,8.3377 C18.6041112,8.9547 22.1221112,10.3967 24.6261112,11.7817" id="Fill-57" fill="#FDA43D"></path>
            <path d="M14.6017112,8.685 C13.8147112,8.444 12.9247112,8.485 12.1097112,8.503 C11.3467112,8.52 10.4657112,8.451 9.78271119,8.82 C9.37371119,9.04 9.56271119,9.612 9.94471119,9.721 C10.6647112,9.926 11.5617112,9.683 12.3087112,9.646 C13.0857112,9.608 13.8777112,9.646 14.6417112,9.484 C15.0847112,9.389 14.9547112,8.792 14.6017112,8.685" id="Fill-59" fill="#FFFFFF"></path>
            <path d="M6.71491119,24.0165 C4.34191119,22.6465 2.34891119,20.1205 2.62391119,17.3395 C2.92891119,14.2595 5.34591119,11.5705 8.11091119,10.3755 C8.50891119,10.2035 8.47391119,9.4575 7.94391119,9.5445 C4.51791119,10.1065 1.77691119,13.8975 1.43591119,17.1565 C1.09191119,20.4385 3.37591119,23.4225 6.18391119,25.0435 C6.85291119,25.4305 7.38291119,24.4025 6.71491119,24.0165" id="Fill-61" fill="#FFFFFF"></path>
            <path d="M15.5138112,24.5102 C15.7228112,23.9442 16.2398112,23.4282 16.6548112,23.0622 C18.2968112,21.6162 20.2918112,20.5732 22.4178112,20.0512 C22.5878112,20.7112 22.1558112,21.3652 21.7158112,21.8862 C21.0848112,22.6342 20.3898112,23.3262 19.6398112,23.9542 C21.3988112,23.9452 23.1818112,24.0842 24.9098112,24.4062 C24.6768112,24.9212 24.2458112,25.3782 23.7548112,25.6592 C22.4868112,26.3872 21.0828112,26.9322 19.6218112,27.0102 C18.4428112,27.0732 16.3368112,26.7852 15.6218112,25.6692 C15.3728112,25.2802 15.3758112,24.8842 15.5138112,24.5102" id="Fill-63" fill="#E38922"></path>
            <path d="M13.2628112,14.9286 C13.0448112,13.7336 13.1328112,12.5286 13.5468112,11.3826 C13.9818112,10.1806 14.7308112,9.3706 15.5698112,8.4476 C15.7008112,8.3036 15.5178112,8.0826 15.3518112,8.1856 C13.2158112,9.5106 12.3838112,12.6136 12.7838112,14.9536 C12.8348112,15.2556 13.3178112,15.2316 13.2628112,14.9286" id="Fill-65" fill="#E38922"></path>
            <path d="M9.14071119,16.6567 C8.66571119,16.3097 8.06371119,16.1837 7.55671119,15.8707 C6.91571119,15.4737 6.33971119,14.9617 5.88271119,14.3617 C4.94571119,13.1327 4.51571119,11.7397 4.88871119,10.2277 C4.92171119,10.0957 4.74371119,10.0067 4.65471119,10.1067 C3.63171119,11.2567 4.48071119,13.2937 5.21271119,14.3787 C5.67671119,15.0677 6.26571119,15.6647 6.94571119,16.1427 C7.50771119,16.5387 8.29671119,17.0577 9.01071119,17.0147 C9.17271119,17.0057 9.29071119,16.7667 9.14071119,16.6567" id="Fill-67" fill="#E38922"></path>
            <path d="M7.96401119,19.975 C6.90501119,20.724 5.67601119,21.15 4.37401119,21.154 C2.86501119,21.158 1.62901119,20.526 0.387011188,19.738 C0.207011188,19.624 0.0560111877,19.89 0.184011188,20.028 C2.25101119,22.256 5.92501119,22.104 8.26401119,20.448 C8.55701119,20.24 8.25801119,19.767 7.96401119,19.975" id="Fill-69" fill="#E38922"></path>
            <path d="M10.5177112,23.2172 C10.6237112,22.9382 10.2637112,22.7432 10.1017112,23.0022 C9.33771119,24.2242 8.79871119,25.5082 7.48871119,26.2442 C7.26571119,26.3692 7.43671119,26.7192 7.67371119,26.6432 C9.00571119,26.2182 10.0487112,24.4392 10.5177112,23.2172" id="Fill-71" fill="#E38922"></path>
            <path d="M17.6407112,9.6733 C17.3827112,9.5403 17.0187112,9.6393 16.8927112,9.9113 C16.7667112,10.1843 16.8547112,10.5153 17.1307112,10.6583 C17.3887112,10.7923 17.7527112,10.6933 17.8777112,10.4213 C18.0037112,10.1473 17.9157112,9.8163 17.6407112,9.6733" id="Fill-73" fill="#802C32"></path>
            <path d="M21.4200112,25.5527 C20.8420112,25.5057 20.2710112,25.8147 19.6910112,25.8917 C18.9410112,25.9917 18.1810112,25.9837 17.4780112,25.6797 C17.2440112,25.5797 17.0700112,25.8487 17.2310112,26.0327 C17.7380112,26.6177 18.6640112,26.6107 19.3810112,26.5737 C20.0500112,26.5377 21.0740112,26.4577 21.5390112,25.9287 C21.6420112,25.8127 21.6030112,25.5677 21.4200112,25.5527" id="Fill-75" fill="#FF9A26"></path>
            <path d="M23.2589112,25.2084 C23.1299112,25.1624 23.0249112,25.2244 22.8999112,25.2414 C22.7919112,25.2554 22.6769112,25.2504 22.5689112,25.2464 C22.4159112,25.2394 22.2849112,25.3914 22.2769112,25.5334 C22.2659112,25.7014 22.3689112,25.8094 22.5209112,25.8624 C22.8179112,25.9684 23.2949112,25.9484 23.4699112,25.6534 C23.5849112,25.4614 23.4349112,25.2704 23.2589112,25.2084" id="Fill-77" fill="#FF9A26"></path>
            <path d="M10.6817112,45.767 C8.84571119,47.682 7.92971119,50.443 8.25571119,53.076 C8.95871119,52.818 9.71371119,52.373 10.1077112,51.736 C10.5007112,51.099 10.7477112,50.384 10.9917112,49.675 C11.5117112,51.244 12.6467112,52.616 14.0817112,53.435 C14.5037112,52.004 14.5207112,50.377 13.9747112,48.99 C13.4287112,47.602 11.9657112,46.526 10.6817112,45.767" id="Fill-79" fill="#FFD59B"></path>
            <path d="M10.9933112,48.6689 C7.47931119,46.6779 5.12531119,42.7869 4.99531119,38.7519 C4.94731119,37.3109 5.18331119,35.8659 5.66431119,34.5069 C6.52431119,32.0609 8.16431119,29.8839 10.3333112,28.4619 C12.0883112,29.6789 13.7273112,31.3619 14.8733112,33.2759 L14.8723112,33.2779 C15.8553112,34.9069 16.4713112,36.7069 16.4993112,38.5299 C16.5533112,42.4879 14.1843112,46.3239 10.9933112,48.6689" id="Fill-81" fill="#B85F3E"></path>
            <path d="M14.8731112,33.2758 L14.8721112,33.2778 C13.9661112,34.3188 12.5011112,35.4408 10.7821112,35.5298 C8.99411119,35.6228 6.80211119,34.9288 5.66411119,34.5068 C6.52411119,32.0608 8.16411119,29.8838 10.3331112,28.4618 C12.0881112,29.6788 13.7271112,31.3618 14.8731112,33.2758" id="Fill-83" fill="#ED9E6D"></path>
            <path d="M14.6583112,33.0009 C13.8813112,34.4309 12.3433112,35.2049 10.7523112,35.3139 C9.03531119,35.4309 7.55431119,34.7819 5.94731119,34.3219 C5.73331119,34.2609 5.63331119,34.5819 5.81931119,34.6819 C8.68331119,36.2259 13.3503112,36.5789 15.0963112,33.2279 C15.2443112,32.9459 14.8093112,32.7219 14.6583112,33.0009" id="Fill-85" fill="#6F301F"></path>
            <path d="M12.4737112,31.9291 C11.9067112,31.6361 11.4507112,32.5171 12.0187112,32.8111 C12.5847112,33.1041 13.0417112,32.2231 12.4737112,31.9291" id="Fill-87" fill="#802C32"></path>
            <path d="M9.16711119,40.6918 C8.89111119,41.1658 8.60511119,41.7218 8.79611119,42.2358 C8.97611119,42.7168 9.50411119,42.9618 9.99611119,43.1088 C10.4631112,43.2478 10.9431112,43.3428 11.4281112,43.3938 C11.5631112,43.4078 11.7041112,43.4178 11.8281112,43.3618 C12.1031112,43.2398 12.1551112,42.8798 12.1621112,42.5778 C12.1841112,41.6218 12.2811112,39.7858 11.5031112,39.0708 C10.2541112,37.9238 9.64611119,39.8688 9.16711119,40.6918" id="Fill-89" fill="#6F301F"></path>
            <path d="M8.56751119,38.1508 C8.38051119,37.8838 8.17851119,38.1768 8.00951119,38.2878 C7.71351119,38.4818 7.39951119,38.3218 7.20051119,38.0758 C7.06851119,37.9138 6.79451119,38.0148 6.85551119,38.2368 C7.07151119,39.0108 8.21751119,39.0718 8.57751119,38.3848 C8.61451119,38.3148 8.61451119,38.2178 8.56751119,38.1508" id="Fill-91" fill="#944434"></path>
            <path d="M14.4044112,38.3134 C14.3654112,38.2804 14.3054112,38.2584 14.2554112,38.2804 C13.9914112,38.3924 13.9764112,38.7474 13.6884112,38.8534 C13.5464112,38.9064 13.3904112,38.8834 13.2534112,38.8264 C13.1184112,38.7714 13.0284112,38.6584 12.8854112,38.6224 C12.7674112,38.5924 12.6764112,38.6954 12.6744112,38.8044 C12.6664112,39.0264 12.8984112,39.2084 13.0824112,39.2984 C13.3064112,39.4084 13.5754112,39.4254 13.8134112,39.3544 C14.0444112,39.2854 14.2434112,39.1294 14.3784112,38.9324 C14.4944112,38.7614 14.5964112,38.4704 14.4044112,38.3134" id="Fill-93" fill="#944434"></path>
            <path d="M10.2091112,44.5156 C10.2341112,44.4336 10.1921112,44.3456 10.1371112,44.2876 C9.88011119,44.0226 9.67311119,44.5436 9.50211119,44.6556 C9.13111119,44.8986 8.76211119,44.6496 8.56511119,44.3186 C8.43811119,44.1046 8.16011119,44.2776 8.20011119,44.4886 C8.39611119,45.5246 9.92711119,45.4526 10.2091112,44.5156" id="Fill-95" fill="#944434"></path>
            <path d="M13.1505112,44.4677 C13.1235112,44.4167 13.0475112,44.3747 12.9895112,44.3847 C12.7445112,44.4247 12.6415112,44.7007 12.3945112,44.7787 C12.1295112,44.8627 11.9085112,44.7797 11.6785112,44.6487 C11.5075112,44.5497 11.3205112,44.7677 11.4225112,44.9277 C11.6465112,45.2737 12.1115112,45.3447 12.4845112,45.2507 C12.7845112,45.1757 13.3515112,44.8447 13.1505112,44.4677" id="Fill-97" fill="#944434"></path>
            <path d="M11.5304112,46.3959 C11.5424112,46.2999 11.5094112,46.1909 11.4134112,46.1479 C11.1534112,46.0289 11.1104112,46.3609 10.9064112,46.4309 C10.5914112,46.5369 10.3554112,46.1289 10.1064112,46.0109 C10.0144112,45.9679 9.92641119,46.0339 9.92241119,46.1299 C9.88941119,46.9749 11.4224112,47.3219 11.5304112,46.3959" id="Fill-99" fill="#944434"></path>
        </g>
    </g>
</svg>