<?xml version="1.0" encoding="UTF-8"?>
<svg width="38px" height="95px" viewBox="0 0 38 95" version="1.1" xmlns="http://www.w3.org/2000/svg" xmlns:xlink="http://www.w3.org/1999/xlink">
    <!-- Generator: Sketch 53.1 (72631) - https://sketchapp.com -->
    <title>Group 38</title>
    <desc>Created with Sketch.</desc>
    <g id="Page-1" stroke="none" stroke-width="1" fill="none" fill-rule="evenodd">
        <g id="Group-38" transform="translate(0.386595, 0.000175)">
            <path d="M11.3342049,92.3556251 C8.67320493,92.8976251 4.74920493,92.8606251 3.81720493,89.6536251 C3.35220493,88.0526251 4.23720493,85.6406251 6.01120493,84.5776251 C8.17720493,83.2766251 10.7382049,84.1516251 10.6482049,77.5546251 C10.6112049,74.8196251 10.5992049,72.0856251 10.5892049,69.3506251 C10.5712049,64.2716251 10.5542049,59.1916251 10.5352049,54.1136251 C10.5182049,49.0346251 10.4932049,43.9556251 10.4612049,38.8766251 C10.4442049,36.1426251 10.4472049,33.4056251 10.4002049,30.6716251 C10.3582049,28.2186251 10.4742049,2.94262505 9.77220493,0.647625054 C9.51020493,-0.215374946 8.75420493,-0.216374946 8.49120493,0.647625054 C7.79220493,2.93862505 7.90520493,28.2236251 7.86320493,30.6716251 C7.81620493,33.4056251 7.81920493,36.1426251 7.80320493,38.8766251 C7.77120493,43.9556251 7.74620493,49.0346251 7.72920493,54.1136251 C7.71020493,59.1916251 7.69220493,64.2716251 7.67420493,69.3506251 C7.66420493,72.0856251 8.09220493,80.9196251 6.72020493,81.7416251 C5.63520493,82.3906251 3.88420493,83.9916251 3.31220493,84.6706251 C2.20720493,85.9836251 1.45420493,87.8216251 1.72420493,89.5566251 C2.48920493,94.4686251 7.86520493,95.3116251 11.9312049,94.5226251 C13.3462049,94.2476251 12.7502049,92.0676251 11.3342049,92.3556251" id="Fill-101" fill="#802C32"></path>
            <path d="M29.6789049,92.3556251 C27.0179049,92.8976251 23.0949049,92.8606251 22.1619049,89.6536251 C21.6969049,88.0526251 22.5829049,85.6406251 24.3559049,84.5776251 C26.5229049,83.2766251 29.0829049,84.1516251 28.9929049,77.5546251 C28.9559049,74.8196251 28.9449049,72.0856251 28.9349049,69.3506251 C28.9159049,64.2716251 28.8989049,59.1916251 28.8799049,54.1136251 C28.8629049,49.0346251 28.8379049,43.9556251 28.8069049,38.8766251 C28.7889049,36.1426251 28.7919049,33.4056251 28.7449049,30.6716251 C28.7029049,28.2186251 28.8189049,25.6926251 28.1179049,23.3966251 C27.8549049,22.5336251 27.0999049,22.5326251 26.8359049,23.3966251 C26.1369049,25.6876251 26.2499049,28.2236251 26.2079049,30.6716251 C26.1619049,33.4056251 26.1639049,36.1426251 26.1479049,38.8766251 C26.1159049,43.9556251 26.0909049,49.0346251 26.0739049,54.1136251 C26.0549049,59.1916251 26.0369049,64.2716251 26.0199049,69.3506251 C26.0099049,72.0856251 26.4369049,80.9196251 25.0649049,81.7416251 C23.9799049,82.3906251 22.2289049,83.9916251 21.6569049,84.6706251 C20.5519049,85.9836251 19.7989049,87.8216251 20.0699049,89.5566251 C20.8349049,94.4686251 26.2099049,95.3116251 30.2769049,94.5226251 C31.6909049,94.2476251 31.0959049,92.0676251 29.6789049,92.3556251" id="Fill-103" fill="#802C32"></path>
            <path d="M9.14080493,65.8336251 C9.09980493,64.9046251 8.74480493,64.0606251 8.26380493,63.2756251 C8.01180493,62.8646251 7.66580493,62.5136251 7.41580493,62.1056251 C6.39280493,60.4376251 6.65580493,59.7546251 7.36280493,58.1626251 C7.62180493,57.5776251 6.85080493,57.0946251 6.49080493,57.6526251 C5.87880493,58.5986251 5.20980493,59.8896251 5.43980493,61.0676251 C5.74980493,62.6526251 7.41880493,63.5936251 7.81380493,65.1966251 C8.36980493,67.4586251 6.35380493,67.7186251 5.58280493,69.2756251 C5.09380493,70.2656251 5.15780493,71.1516251 5.84480493,71.9556251 C6.10680493,72.2606251 6.60880493,72.0046251 6.61080493,71.6386251 C6.62080493,70.3146251 6.75780493,69.8786251 7.69680493,68.9166251 C7.98580493,68.6206251 8.30780493,68.4156251 8.54980493,68.0696251 C9.01080493,67.4126251 9.17480493,66.6296251 9.14080493,65.8336251" id="Fill-105" fill="#BD6539"></path>
            <path d="M13.8752049,64.1164251 C13.5442049,61.5294251 11.7162049,59.7294251 12.0122049,56.9544251 C12.0552049,56.5484251 11.4882049,56.4754251 11.3002049,56.7614251 C9.44920493,59.5624251 12.8012049,62.5214251 12.3982049,65.4264251 C12.1072049,67.5234251 9.95120493,70.7734251 12.4552049,72.3464251 C12.8342049,72.5834251 13.3402049,72.1894251 13.2122049,71.7644251 C12.7322049,70.1724251 12.7742049,69.1064251 13.3132049,67.5084251 C13.6942049,66.3774251 14.0292049,65.3214251 13.8752049,64.1164251" id="Fill-107" fill="#BD6539"></path>
            <path d="M0.0676049345,47.1066251 C-0.106395066,48.3146251 -0.0393950655,49.7456251 1.43660493,50.3736251 C2.05860493,50.6376251 2.82960493,50.7026251 3.57760493,50.7416251 C6.98960493,50.9166251 10.4856049,50.6506251 13.8256049,49.9646251 C14.5916049,49.8066251 15.3806049,49.6146251 15.9576049,49.2286251 C16.8276049,48.6466251 17.0156049,47.7586251 16.9766049,46.9566251 C16.9096049,45.5966251 16.3386049,44.2916251 15.7556049,43.0076251 C14.5466049,40.3456251 14.0106049,37.5476251 12.2866049,35.0046251 C11.7216049,34.1726251 10.6546049,32.4326251 8.97560493,32.3856251 C6.28160493,32.3116251 4.31560493,35.7166251 3.56160493,37.0626251 C1.74060493,40.3086251 0.556604934,43.6976251 0.0676049345,47.1066251" id="Fill-109" fill="#B85F3E"></path>
            <path d="M3.12030493,54.7599251 C3.13730493,56.0209251 3.19330493,57.3369251 3.71130493,58.4339251 C4.59130493,60.3019251 6.78830493,60.8479251 8.68530493,60.8169251 C10.2983049,60.7909251 13.2903049,60.4269251 13.8533049,58.6889251 C14.7713049,55.8569251 14.3473049,52.6849251 13.9093049,49.6919251 C13.2583049,45.2399251 12.6073049,40.7879251 11.9563049,36.3359251 C11.7703049,35.0679251 11.5783049,33.7739251 11.0693049,32.6399251 C8.49630493,26.9039251 5.63630493,33.0729251 4.88030493,36.6809251 C3.64330493,42.5829251 3.04430493,48.6729251 3.12030493,54.7599251" id="Fill-111" fill="#ED9E6D"></path>
            <path d="M12.7629049,50.4792251 C12.5569049,48.5002251 12.5729049,46.3082251 11.9109049,44.4262251 C11.7729049,44.0322251 11.2709049,44.1332251 11.2189049,44.5202251 C10.9469049,46.5682251 11.4319049,48.8232251 11.6379049,50.8762251 C11.8229049,52.7152251 11.7339049,54.8162251 12.4369049,56.5352251 C12.5579049,56.8292251 13.0679049,56.9322251 13.1419049,56.5352251 C13.5059049,54.6032251 12.9649049,52.4242251 12.7629049,50.4792251" id="Fill-113" fill="#FFFFFF"></path>
            <path d="M11.4348049,39.8683251 C11.3618049,39.4453251 11.3088049,39.0393251 11.0708049,38.6703251 C10.7818049,38.2203251 10.0658049,38.2813251 9.91580493,38.8213251 C9.79680493,39.2513251 9.86180493,39.6403251 9.91880493,40.0733251 C9.97780493,40.5203251 10.0188049,40.9153251 10.2568049,41.3113251 C10.5418049,41.7853251 11.3288049,41.7173251 11.4658049,41.1533251 C11.5778049,40.6973251 11.5128049,40.3203251 11.4348049,39.8683251" id="Fill-115" fill="#FFFFFF"></path>
            <path d="M6.50700493,56.8068251 C5.62600493,56.8068251 5.62400493,58.1768251 6.50700493,58.1768251 C7.38800493,58.1768251 7.39000493,56.8068251 6.50700493,56.8068251" id="Fill-117" fill="#802C32"></path>
            <path d="M10.5480049,57.0060251 C9.65100493,57.0060251 9.64900493,58.4020251 10.5480049,58.4020251 C11.4460049,58.4020251 11.4480049,57.0060251 10.5480049,57.0060251" id="Fill-119" fill="#802C32"></path>
            <path d="M36.6877049,56.2897251 C36.3467049,59.3687251 35.3287049,62.4397251 33.2887049,64.8907251 C31.2487049,67.3357251 28.1047049,69.0937251 24.7257049,69.1677251 C21.3517049,69.2427251 17.8637049,67.4297251 16.5927049,64.5387251 C15.3177049,61.6507251 16.9967049,58.0827251 20.1137049,56.9207251 C18.6007049,59.2387251 17.7657049,62.1497251 20.3337049,62.8507251 C23.0687049,63.5947251 26.9127049,61.4197251 28.2427049,59.4117251 C30.3717049,56.1837251 29.1667049,51.1757251 27.3617049,47.8737251 C25.2967049,44.0987251 22.2317049,39.9727251 20.8347049,35.9527251 C21.9067049,35.5877251 23.1517049,35.1947251 24.4517049,34.8017251 C26.8067049,34.0807251 29.3337049,33.3517251 31.2937049,32.7567251 C34.7227049,38.9507251 37.1447049,52.1607251 36.6877049,56.2897251" id="Fill-121" fill="#ED9E6D"></path>
            <path d="M31.2140049,61.6476251 C29.1210049,64.9466251 24.8150049,66.6696251 21.0250049,65.7246251 C20.1160049,65.5006251 19.2090049,65.1106251 18.6020049,64.4036251 C18.0910049,63.8116251 17.8250049,63.0386251 17.7350049,62.2626251 C17.4980049,60.1986251 18.3680049,58.0586251 20.1130049,56.9206251 C18.6010049,59.2386251 17.7660049,62.1496251 20.3330049,62.8506251 C23.0680049,63.5946251 26.9120049,61.4196251 28.2420049,59.4116251 C30.3710049,56.1836251 29.1660049,51.1756251 27.3610049,47.8746251 C25.2970049,44.0986251 22.2320049,39.9726251 20.8350049,35.9526251 C21.9060049,35.5876251 23.1510049,35.1946251 24.4510049,34.8016251 C25.3390049,37.5666251 26.7770049,40.1386251 28.2080049,42.6806251 C29.8630049,45.6156251 31.5360049,48.5996251 32.3490049,51.8756251 C33.1610049,55.1476251 33.0210049,58.8026251 31.2140049,61.6476251" id="Fill-123" fill="#BD6539"></path>
            <path d="M18.8176049,62.2316251 C18.0756049,62.1706251 17.9796049,63.3236251 18.7226049,63.3846251 C19.4646049,63.4446251 19.5606049,62.2926251 18.8176049,62.2316251" id="Fill-125" fill="#802C32"></path>
            <path d="M18.3254049,59.1100251 C17.6004049,59.0510251 17.5074049,60.1770251 18.2334049,60.2360251 C18.9584049,60.2960251 19.0514049,59.1700251 18.3254049,59.1100251" id="Fill-127" fill="#802C32"></path>
            <path d="M22.1437049,63.3170251 C21.0777049,63.2300251 20.9407049,64.8860251 22.0077049,64.9730251 C23.0737049,65.0600251 23.2107049,63.4040251 22.1437049,63.3170251" id="Fill-129" fill="#802C32"></path>
            <path d="M26.4123049,62.0050251 C25.4063049,61.9230251 25.2763049,63.4860251 26.2843049,63.5680251 C27.2913049,63.6510251 27.4203049,62.0870251 26.4123049,62.0050251" id="Fill-131" fill="#802C32"></path>
            <path d="M30.4494049,59.4894251 C30.4414049,59.4764251 30.4324049,59.4634251 30.4254049,59.4504251 C30.0744049,58.8994251 29.4504049,58.8484251 29.0154049,59.3354251 C29.0064049,59.3464251 28.9954049,59.3584251 28.9854049,59.3694251 C28.7894049,59.5894251 28.7954049,59.9764251 28.9154049,60.2254251 C29.0454049,60.4964251 29.3144049,60.6814251 29.6134049,60.7054251 C29.9124049,60.7304251 30.2074049,60.5914251 30.3804049,60.3454251 C30.5384049,60.1184251 30.6074049,59.7384251 30.4494049,59.4894251" id="Fill-133" fill="#802C32"></path>
            <path d="M31.2609049,53.5905251 C30.1789049,53.5025251 30.0389049,55.1845251 31.1239049,55.2735251 C32.2069049,55.3615251 32.3459049,53.6795251 31.2609049,53.5905251" id="Fill-135" fill="#802C32"></path>
            <path d="M29.9738049,48.4499251 C29.5238049,48.4129251 29.0598049,48.7739251 29.0418049,49.2409251 C29.0248049,49.7089251 29.3508049,50.1329251 29.8328049,50.1729251 C30.2838049,50.2089251 30.7468049,49.8479251 30.7648049,49.3819251 C30.7828049,48.9129251 30.4558049,48.4899251 29.9738049,48.4499251" id="Fill-137" fill="#802C32"></path>
            <path d="M28.1437049,44.3927251 C28.1347049,44.3837251 28.1267049,44.3737251 28.1187049,44.3647251 C27.8077049,44.0267251 27.3187049,43.9857251 26.9557049,44.2697251 C26.9457049,44.2777251 26.9357049,44.2857251 26.9257049,44.2927251 C26.3447049,44.7477251 26.6737049,45.7857251 27.4147049,45.8127251 C27.7157049,45.8247251 28.0167049,45.6997251 28.1937049,45.4477251 C28.4057049,45.1437251 28.4017049,44.6727251 28.1437049,44.3927251" id="Fill-139" fill="#802C32"></path>
            <path d="M25.2775049,39.5827251 L25.2565049,39.5417251 C25.0075049,39.0427251 24.3155049,38.9857251 23.9885049,39.4377251 C23.9795049,39.4507251 23.9705049,39.4627251 23.9625049,39.4757251 C23.6205049,39.9477251 23.9555049,40.6287251 24.5265049,40.6757251 C25.0965049,40.7217251 25.5385049,40.1037251 25.2775049,39.5827251" id="Fill-141" fill="#802C32"></path>
            <path d="M23.2707049,36.4445251 C22.3837049,36.3715251 22.2707049,37.7495251 23.1587049,37.8225251 C24.0447049,37.8945251 24.1597049,36.5165251 23.2707049,36.4445251" id="Fill-143" fill="#802C32"></path>
            <path d="M35.7140049,54.1647251 C35.6210049,53.6817251 34.9820049,53.7697251 34.8990049,54.2077251 C34.5060049,56.2897251 34.4580049,58.3257251 33.7310049,60.3557251 C33.0620049,62.2257251 32.1330049,63.8777251 30.8960049,65.4197251 C30.7800049,65.5637251 30.9640049,65.7117251 31.1040049,65.6647251 C32.9800049,65.0277251 33.9650049,62.8257251 34.6630049,61.0997251 C35.5030049,59.0227251 36.1470049,56.3917251 35.7140049,54.1647251" id="Fill-145" fill="#FFFFFF"></path>
            <path d="M35.7375049,51.7589251 C35.5455049,50.6109251 35.4485049,49.3689251 35.0585049,48.2689251 C34.8705049,47.7359251 33.9275049,47.9039251 33.9485049,48.4749251 C33.9915049,49.6429251 34.3575049,50.8339251 34.6005049,51.9739251 C34.7565049,52.7009251 35.8615049,52.4949251 35.7375049,51.7589251" id="Fill-147" fill="#FFFFFF"></path>
        </g>
    </g>
</svg>