<?xml version="1.0" encoding="UTF-8"?>
<svg width="56px" height="86px" viewBox="0 0 56 86" version="1.1" xmlns="http://www.w3.org/2000/svg" xmlns:xlink="http://www.w3.org/1999/xlink">
    <!-- Generator: Sketch 53.1 (72631) - https://sketchapp.com -->
    <title>Group 49c4</title>
    <desc>Created with Sketch.</desc>
    <g id="Page-1" stroke="none" stroke-width="1" fill="none" fill-rule="evenodd">
        <g id="Artboard" transform="translate(-2038.000000, -590.000000)">
            <g id="Group-49" transform="translate(2038.055705, 590.802900)">
                <g id="Group-48" transform="translate(0.215095, 0.000000)">
                    <path d="M6.23,43.8330998 C6.23,43.8330998 1.42108547e-13,43.3690998 1.42108547e-13,34.2610998 C1.42108547e-13,25.1540998 4.206,5.59009976 27.258,5.59009976 C27.258,5.59009976 54.883,3.47709976 54.883,34.2610998 C54.883,40.9070998 48.912,44.4650998 48.912,44.4650998 L6.23,43.8330998 Z" id="Fill-84" fill="#C89D67"></path>
                    <polygon id="Fill-85" fill="#FED1A1" points="34.4864 63.9415998 42.3344 65.2305998 43.4414 62.8745998 30.5844 57.4745998"></polygon>
                    <polygon id="Fill-86" fill="#FED1A1" points="20.8859 65.9241998 13.8739 71.0391998 12.3329 68.9321998 21.4559 58.3931998"></polygon>
                    <polygon id="Fill-87" fill="#FED1A1" points="20.1982 68.9326998 22.9552 82.9076998 20.8332 84.8366998 26.6202 84.8366998 26.6202 71.4306998"></polygon>
                    <polygon id="Fill-88" fill="#FED1A1" points="34.8616 67.4647998 35.4986 82.0027998 38.0596 83.2927998 32.4536 84.7357998 28.8946 71.9257998"></polygon>
                    <polygon id="Fill-89" fill="#1F70B7" points="20.4025 67.8918998 34.7365 67.2078998 36.1785 79.7828998 30.2775 80.7488998 28.8945 74.8628998 27.2065 74.8628998 27.2065 80.7808998 20.9685 80.4618998"></polygon>
                    <polygon id="Fill-90" fill="#3CA936" points="22.4638 57.2238998 16.8568 62.5368998 19.0928 67.4648998 20.0588 66.9298998 19.7288 74.0698998 36.1488 73.2348998 34.9408 64.4138998 35.6198 64.4538998 36.8208 59.5928998 32.3028 57.7538998"></polygon>
                    <path d="M51.7757,36.1640998 C51.7757,48.7180998 40.7987,58.8940998 27.2577,58.8940998 C13.7167,58.8940998 2.7397,48.7180998 2.7397,36.1640998 C2.7397,23.6100998 13.7167,13.4340998 27.2577,13.4340998 C40.7987,13.4340998 51.7757,23.6100998 51.7757,36.1640998" id="Fill-91" fill="#FED1A1"></path>
                    <path d="M11.584,41.7751998 C11.584,44.4511998 13.753,46.6191998 16.428,46.6191998 C19.104,46.6191998 21.273,44.4511998 21.273,41.7751998 C21.273,39.1001998 19.104,36.9311998 16.428,36.9311998 C13.753,36.9311998 11.584,39.1001998 11.584,41.7751998" id="Fill-92" fill="#FFFFFF"></path>
                    <path d="M13.0985,41.2699998 C13.0985,43.3879998 14.8155,45.1049998 16.9335,45.1049998 C19.0515,45.1049998 20.7685,43.3879998 20.7685,41.2699998 C20.7685,39.1519998 19.0515,37.4349998 16.9335,37.4349998 C14.8155,37.4349998 13.0985,39.1519998 13.0985,41.2699998" id="Fill-93" fill="#432918"></path>
                    <path d="M33.2149,41.7751998 C33.2149,44.4511998 35.3839,46.6191998 38.0589,46.6191998 C40.7349,46.6191998 42.9039,44.4511998 42.9039,41.7751998 C42.9039,39.1001998 40.7349,36.9311998 38.0589,36.9311998 C35.3839,36.9311998 33.2149,39.1001998 33.2149,41.7751998" id="Fill-94" fill="#FFFFFF"></path>
                    <path d="M34.7293,41.2699998 C34.7293,43.3879998 36.4463,45.1049998 38.5643,45.1049998 C40.6823,45.1049998 42.3993,43.3879998 42.3993,41.2699998 C42.3993,39.1519998 40.6823,37.4349998 38.5643,37.4349998 C36.4463,37.4349998 34.7293,39.1519998 34.7293,41.2699998" id="Fill-95" fill="#432918"></path>
                    <path d="M13.6111,47.1795998 C13.7131,46.4235998 12.7681,45.5605998 11.4991,45.2515998 C10.2311,44.9425998 9.1201,45.3045998 9.0181,46.0595998 C8.9151,46.8155998 9.8611,47.6785998 11.1291,47.9875998 C12.3981,48.2965998 13.5091,47.9355998 13.6111,47.1795998" id="Fill-96" fill="#FDB97E"></path>
                    <path d="M7.7498,18.1332998 C7.7498,18.1332998 13.4458,35.0632998 28.1298,31.1252998 C41.2888,27.6952998 34.4288,19.3102998 34.4288,19.3102998 C34.4288,19.3102998 39.5348,30.9982998 50.6598,23.5022998 C41.7048,10.5932998 24.1378,6.15729976 7.7498,18.1332998" id="Fill-97" fill="#C89D67"></path>
                    <path d="M40.8766,47.1795998 C40.7746,46.4235998 41.7196,45.5605998 42.9886,45.2515998 C44.2566,44.9425998 45.3676,45.3045998 45.4696,46.0595998 C45.5716,46.8155998 44.6266,47.6785998 43.3586,47.9875998 C42.0896,48.2965998 40.9786,47.9355998 40.8766,47.1795998" id="Fill-98" fill="#FDB97E"></path>
                    <path d="M13.3594,32.2642998 C13.3594,32.2642998 15.6724,28.2202998 21.0224,30.2732998 C18.5334,26.9142998 13.6604,28.5932998 13.3594,32.2642998" id="Fill-99" fill="#AF7F4A"></path>
                    <path d="M41.1556,32.2642998 C41.1556,32.2642998 38.8426,28.2202998 33.4926,30.2732998 C35.9816,26.9142998 40.8546,28.5932998 41.1556,32.2642998" id="Fill-100" fill="#AF7F4A"></path>
                    <path d="M22.9054,9.01979976 C22.9054,9.01979976 16.1204,5.20879976 20.6914,1.26979976 C25.2624,-2.66820024 27.7004,3.81079976 27.7004,3.81079976 C27.7004,3.81079976 28.9794,-0.635200238 33.5364,2.28679976 C38.0944,5.20879976 32.8854,9.01979976 32.8854,9.01979976 L22.9054,9.01979976 Z" id="Fill-103" fill="#C89D67"></path>
                    <path d="M22.4387,81.7767998 L22.6077,82.6217998 C20.0727,82.6217998 20.6137,84.8367998 20.6137,84.8367998 L26.8387,84.8367998 L26.8387,81.9457998 L22.4387,81.7767998 Z" id="Fill-106" fill="#1F70B7"></path>
                    <path d="M35.8746,80.9040998 L35.8926,81.7660998 C38.3676,81.2170998 38.3186,83.4970998 38.3186,83.4970998 L32.2396,84.8430998 L31.6146,82.0200998 L35.8746,80.9040998 Z" id="Fill-107" fill="#1F70B7"></path>
                    <path d="M49.9804,43.5634998 C49.9804,46.8934998 47.2714,49.6024998 43.9414,49.6024998 L35.1964,49.6024998 C31.8664,49.6024998 29.1574,46.8934998 29.1574,43.5634998 L29.1574,40.2814998 C29.1574,36.9514998 31.8664,34.2424998 35.1964,34.2424998 L43.9414,34.2424998 C47.2714,34.2424998 49.9804,36.9514998 49.9804,40.2814998 L49.9804,43.5634998 Z M25.3304,43.5634998 C25.3304,46.8934998 22.6214,49.6024998 19.2914,49.6024998 L10.5454,49.6024998 C7.2154,49.6024998 4.5074,46.8934998 4.5074,43.5634998 L4.5074,40.2814998 C4.5074,36.9514998 7.2154,34.2424998 10.5454,34.2424998 L19.2914,34.2424998 C22.6214,34.2424998 25.3304,36.9514998 25.3304,40.2814998 L25.3304,43.5634998 Z M43.9414,33.3204998 L35.1964,33.3204998 C31.3584,33.3204998 28.2354,36.4434998 28.2354,40.2814998 L28.2354,41.4614998 L26.2524,41.4614998 L26.2524,40.2814998 C26.2524,36.4434998 23.1294,33.3204998 19.2914,33.3204998 L10.5454,33.3204998 C6.7074,33.3204998 3.5844,36.4434998 3.5844,40.2814998 L3.5844,43.5634998 C3.5844,47.4014998 6.7074,50.5244998 10.5454,50.5244998 L19.2914,50.5244998 C23.1294,50.5244998 26.2524,47.4014998 26.2524,43.5634998 L26.2524,42.3834998 L28.2354,42.3834998 L28.2354,43.5634998 C28.2354,47.4014998 31.3584,50.5244998 35.1964,50.5244998 L43.9414,50.5244998 C47.7804,50.5244998 50.9024,47.4014998 50.9024,43.5634998 L50.9024,40.2814998 C50.9024,36.4434998 47.7804,33.3204998 43.9414,33.3204998 L43.9414,33.3204998 Z" id="Fill-108" fill="#E84E1B"></path>
                    <path d="M27.2958,48.9659998 C26.3608,48.9659998 25.6888,48.0369998 25.6608,47.9979998 C25.5868,47.8939998 25.6118,47.7509998 25.7148,47.6769998 C25.8178,47.6029998 25.9628,47.6259998 26.0368,47.7299998 C26.0418,47.7379998 26.6008,48.5049998 27.2958,48.5049998 L27.2968,48.5049998 C27.6978,48.5039998 28.0858,48.2429998 28.4508,47.7299998 C28.5248,47.6269998 28.6698,47.6029998 28.7728,47.6759998 C28.8758,47.7499998 28.9008,47.8939998 28.8268,47.9979998 C28.3698,48.6399998 27.8548,48.9659998 27.2958,48.9659998" id="Fill-109" fill="#E09B60"></path>
                    <polygon id="Fill-110" fill="#039EE2" points="20.7169 79.1690998 27.4129 79.4830998 27.4129 80.9040998 20.7169 80.7810998"></polygon>
                    <polygon id="Fill-111" fill="#039EE2" points="29.7144 79.4131998 36.4594 78.2271998 36.4594 79.9011998 30.0284 80.9041998"></polygon>
                    <polygon id="Fill-112" fill="#FEEF6A" points="16.8569 62.5371998 17.6299 61.8041998 20.0589 66.9301998 19.0929 67.4651998"></polygon>
                    <polygon id="Fill-113" fill="#FEEF6A" points="35.7942 59.1749998 36.8212 59.5929998 35.6202 64.4529998 34.9412 64.4139998"></polygon>
                    <polygon id="Fill-114" fill="#FEEF6A" points="19.7773 73.0243998 36.0073 72.1943998 36.1493 73.2343998 19.7293 74.0703998"></polygon>
                    <path d="M24.2497,61.9609998 C23.9597,62.2549998 23.3997,63.0559998 23.3267,64.9009998 C23.0557,67.4339998 24.9577,68.4769998 26.6017,68.9089998 C27.6617,69.1869998 28.6977,69.1559998 29.5957,68.8189998 C30.9957,68.2939998 31.7387,67.2709998 31.8037,65.7789998 C31.9197,63.1669998 31.0767,62.1759998 30.6867,61.8589998 L30.0657,63.2649998 L25.0317,63.3429998 L24.2497,61.9609998 Z M28.0097,69.5579998 C27.5137,69.5579998 27.0007,69.4909998 26.4847,69.3549998 C24.9957,68.9629998 22.5457,67.8599998 22.8677,64.8669998 C22.9757,62.0839998 24.1587,61.4329998 24.2097,61.4069998 L24.4077,61.3029998 L25.2987,62.8779998 L29.7627,62.8079998 L30.4647,61.2199998 L30.6727,61.3059998 C30.7447,61.3349998 32.4287,62.0729998 32.2647,65.7989998 C32.1717,67.9099998 30.8507,68.8409998 29.7577,69.2509998 C29.2117,69.4549998 28.6227,69.5579998 28.0097,69.5579998 L28.0097,69.5579998 Z" id="Fill-115" fill="#FEEF6A"></path>
                    <path d="M29.6739,66.2184998 C30.4159,66.2184998 30.4169,65.0654998 29.6739,65.0654998 C28.9319,65.0654998 28.9309,66.2184998 29.6739,66.2184998" id="Fill-116" fill="#FEEF6A"></path>
                    <path d="M25.6692,66.5632998 C26.4112,66.5632998 26.4122,65.4102998 25.6692,65.4102998 C24.9272,65.4102998 24.9262,66.5632998 25.6692,66.5632998" id="Fill-117" fill="#FEEF6A"></path>
                    <path d="M26.4212,67.7642998 C26.6982,67.9622998 27.3172,68.0702998 27.6012,67.8312998 C27.9522,67.5352998 27.9002,66.9282998 27.8712,66.5232998 C27.8552,66.3032998 27.5092,66.3012998 27.5252,66.5232998 C27.5462,66.8172998 27.6012,67.2072998 27.4452,67.4752998 C27.3032,67.7202998 26.7812,67.5982998 26.5962,67.4652998 C26.4142,67.3362998 26.2412,67.6352998 26.4212,67.7642998" id="Fill-118" fill="#FEEF6A"></path>
                    <path d="M27.5952,67.4427998 C27.8162,67.6797998 28.0812,67.9107998 28.4242,67.9137998 C28.7862,67.9167998 28.9322,67.6637998 29.1722,67.4437998 C29.3372,67.2937998 29.0922,67.0497998 28.9282,67.1997998 C28.7642,67.3487998 28.6592,67.5757998 28.4072,67.5647998 C28.1692,67.5547998 27.9912,67.3607998 27.8402,67.1977998 C27.6882,67.0347998 27.4432,67.2797998 27.5952,67.4427998" id="Fill-119" fill="#FEEF6A"></path>
                    <polygon id="Fill-120" fill="#2D2E83" points="20.5649 84.5369998 26.8389 84.5369998 26.8389 84.8359998 20.6129 84.8359998"></polygon>
                    <polygon id="Fill-121" fill="#2D2E83" points="32.1821 84.5813998 38.2931 83.2323998 38.3181 83.4963998 32.2401 84.8423998"></polygon>
                    <polygon id="Fill-122" fill="#2D2E83" points="22.6082 82.7373998 26.8392 82.7373998 26.8392 82.5063998 22.6082 82.5063998"></polygon>
                    <polygon id="Fill-123" fill="#2D2E83" points="31.7739 82.7341998 31.7229 82.5091998 35.8649 81.5681998 35.9159 81.7931998"></polygon>
                    <path d="M14.4093,69.7883998 C14.4093,69.7883998 15.1983,71.2433998 14.8123,72.5733998 C14.4263,73.9043998 13.6553,73.0173998 13.9643,71.3783998 C12.8653,73.8653998 12.0553,73.9623998 11.9203,73.6153998 C11.7243,73.1113998 12.4413,71.8223998 12.4413,71.8223998 C12.4413,71.8223998 11.7083,73.1523998 11.0523,73.1133998 C10.3973,73.0753998 11.5343,71.2623998 11.5343,71.2623998 C11.5343,71.2623998 10.6863,72.3613998 10.2433,72.2073998 C9.7993,72.0533998 11.0913,70.3953998 11.0913,70.3953998 C11.0913,70.3953998 10.5013,70.9923998 10.1503,70.6653998 C9.7993,70.3373998 11.4723,68.3393998 13.1333,68.3163998" id="Fill-124" fill="#FED1A1"></path>
                    <path d="M41.6425,64.5931998 C41.6425,64.5931998 41.4865,66.2411998 42.3625,67.3141998 C43.2375,68.3871998 43.6005,67.2691998 42.6745,65.8821998 C44.6595,67.7401998 45.4425,67.5121998 45.4315,67.1401998 C45.4145,66.6001998 44.2505,65.6941998 44.2505,65.6941998 C44.2505,65.6941998 45.4445,66.6311998 46.0335,66.3391998 C46.6215,66.0471998 44.8645,64.8241998 44.8645,64.8241998 C44.8645,64.8241998 46.0755,65.5031998 46.4235,65.1881998 C46.7715,64.8721998 44.9335,63.8521998 44.9335,63.8521998 C44.9335,63.8521998 45.7105,64.1711998 45.9045,63.7321998 C46.0995,63.2931998 43.7775,62.1101998 42.2405,62.7391998" id="Fill-125" fill="#FED1A1"></path>
                    <path d="M36.0327,81.6072998 C36.3137,81.6752998 36.5557,81.6552998 36.7547,81.5472998 C36.9437,81.4462998 36.9087,81.2592998 36.8577,81.1652998 C36.8097,81.0722998 36.6757,80.9402998 36.4907,81.0382998 C36.2917,81.1422998 36.1377,81.3332998 36.0327,81.6072998 M36.3407,81.8772998 C36.1867,81.8772998 36.0237,81.8502998 35.8487,81.7952998 L35.7387,81.7612998 L35.7737,81.6512998 C35.8967,81.2562998 36.1027,80.9812998 36.3837,80.8342998 C36.6737,80.6832998 36.9437,80.8322998 37.0617,81.0562998 C37.1827,81.2842998 37.1527,81.5952998 36.8637,81.7502998 C36.7077,81.8352998 36.5317,81.8772998 36.3407,81.8772998" id="Fill-126" fill="#2D2E83"></path>
                    <path d="M35.4216,81.7143998 C35.2676,81.7143998 35.1296,81.7473998 35.0076,81.8133998 C34.8186,81.9143998 34.8536,82.1013998 34.9036,82.1963998 C34.9526,82.2883998 35.0846,82.4203998 35.2716,82.3223998 C35.4706,82.2183998 35.6236,82.0273998 35.7296,81.7533998 C35.6216,81.7273998 35.5186,81.7143998 35.4216,81.7143998 M35.1426,82.5873998 C34.9496,82.5873998 34.7856,82.4653998 34.6996,82.3033998 C34.5796,82.0763998 34.6096,81.7653998 34.8986,81.6103998 C35.1806,81.4573998 35.5216,81.4433998 35.9126,81.5653998 L36.0226,81.6003998 L35.9886,81.7103998 C35.8646,82.1043998 35.6596,82.3793998 35.3786,82.5273998 L35.3776,82.5273998 C35.2976,82.5693998 35.2176,82.5873998 35.1426,82.5873998" id="Fill-127" fill="#2D2E83"></path>
                    <path d="M22.7607,82.6925998 C22.8867,82.9515998 23.0567,83.1265998 23.2657,83.2115998 C23.4637,83.2925998 23.5857,83.1475998 23.6267,83.0485998 C23.6677,82.9515998 23.6837,82.7655998 23.4907,82.6845998 L23.4907,82.6845998 C23.2847,82.5975998 23.0397,82.5995998 22.7607,82.6925998 M23.3777,83.4665998 C23.3147,83.4665998 23.2477,83.4535998 23.1787,83.4255998 C22.8807,83.3035998 22.6527,83.0495998 22.4987,82.6705998 L22.4557,82.5635998 L22.5627,82.5195998 C22.9467,82.3645998 23.2897,82.3485998 23.5807,82.4725998 C23.8797,82.5985998 23.9377,82.9025998 23.8397,83.1365998 C23.7637,83.3205998 23.5927,83.4665998 23.3777,83.4665998" id="Fill-128" fill="#2D2E83"></path>
                    <path d="M21.7243,82.5594998 C21.9303,82.6474998 22.1753,82.6444998 22.4543,82.5514998 C22.3283,82.2924998 22.1593,82.1174998 21.9493,82.0314998 C21.7523,81.9514998 21.6293,82.0964998 21.5883,82.1954998 C21.5483,82.2924998 21.5313,82.4774998 21.7243,82.5594998 M22.0503,82.8534998 C21.9023,82.8534998 21.7633,82.8264998 21.6343,82.7724998 L21.6343,82.7714998 C21.3353,82.6454998 21.2773,82.3414998 21.3753,82.1064998 C21.4743,81.8694998 21.7333,81.6934998 22.0373,81.8184998 C22.3343,81.9404998 22.5633,82.1944998 22.7163,82.5734998 L22.7603,82.6804998 L22.6533,82.7234998 C22.4393,82.8104998 22.2373,82.8534998 22.0503,82.8534998" id="Fill-129" fill="#2D2E83"></path>
                    <path d="M44.2398,10.2080998 C43.4008,11.9420998 41.5348,14.1090998 37.6488,12.5290998 C31.6438,10.0880998 25.5738,10.2200998 18.7108,15.4980998 C13.8718,19.2210998 9.1318,16.2180998 6.7548,14.1230998 C6.0428,14.9710998 5.4018,15.8560998 4.8248,16.7650998 C6.3738,19.0820998 9.6428,22.0770998 16.0288,21.4140998 C26.1908,20.3580998 26.4978,14.4430998 38.1768,19.5890998 C44.6058,22.4220998 49.3278,21.4910998 52.2988,20.1050998 C50.3178,15.4960998 47.4038,12.3720998 44.2398,10.2080998" id="Fill-130" fill="#D8AA71"></path>
                    <path d="M12.9677,39.3879998 C12.9677,38.3959998 13.7717,37.5919998 14.7637,37.5919998 C15.7557,37.5919998 16.5597,38.3959998 16.5597,39.3879998 C16.5597,40.3799998 15.7557,41.1839998 14.7637,41.1839998 C13.7717,41.1839998 12.9677,40.3799998 12.9677,39.3879998" id="Fill-131" fill="#FFFFFF"></path>
                    <path d="M34.6774,39.3879998 C34.6774,38.3959998 35.4814,37.5919998 36.4734,37.5919998 C37.4654,37.5919998 38.2694,38.3959998 38.2694,39.3879998 C38.2694,40.3799998 37.4654,41.1839998 36.4734,41.1839998 C35.4814,41.1839998 34.6774,40.3799998 34.6774,39.3879998" id="Fill-132" fill="#FFFFFF"></path>
                </g>
                <path d="M4.64009532,39.7544998 C4.64009532,39.7544998 1.40209532,37.8834998 0.250095318,40.9774998 C-0.900904682,44.0724998 2.05909532,47.6404998 6.29509532,47.4024998 L4.64009532,39.7544998 Z" id="Fill-101" fill="#FED1A1"></path>
                <path d="M50.3049953,39.7544998 C50.3049953,39.7544998 53.5429953,37.8834998 54.6949953,40.9774998 C55.8459953,44.0724998 52.8859953,47.6404998 48.6499953,47.4024998 L50.3049953,39.7544998 Z" id="Fill-102" fill="#FED1A1"></path>
                <path d="M3.40469532,43.3038998 C3.50869532,43.0088998 3.70069532,42.9608998 3.88869532,43.0018998 C3.76769532,42.3068998 3.72369532,41.8728998 3.72369532,41.8728998 C3.71369532,41.8628998 3.70369532,41.8538998 3.69369532,41.8448998 C2.74669532,40.9338998 1.19169532,41.9508998 1.59769532,43.1998998 C1.91269532,44.1668998 2.93569532,44.7848998 4.35569532,45.1128998 C4.25669532,44.7448998 4.17269532,44.3948998 4.10069532,44.0678998 C3.71269532,43.9538998 3.25569532,43.7268998 3.40469532,43.3038998" id="Fill-104" fill="#FDB97E"></path>
                <path d="M51.5404953,43.3038998 C51.4364953,43.0088998 51.2444953,42.9608998 51.0564953,43.0018998 C51.1774953,42.3068998 51.2214953,41.8728998 51.2214953,41.8728998 C51.2314953,41.8628998 51.2414953,41.8538998 51.2504953,41.8448998 C52.1984953,40.9338998 53.7534953,41.9508998 53.3474953,43.1998998 C53.0324953,44.1668998 52.0094953,44.7848998 50.5894953,45.1128998 C50.6884953,44.7448998 50.7724953,44.3948998 50.8444953,44.0678998 C51.2324953,43.9538998 51.6894953,43.7268998 51.5404953,43.3038998" id="Fill-105" fill="#FDB97E"></path>
            </g>
        </g>
    </g>
</svg>