<?xml version="1.0" encoding="UTF-8"?>
<svg width="59px" height="84px" viewBox="0 0 59 84" version="1.1" xmlns="http://www.w3.org/2000/svg" xmlns:xlink="http://www.w3.org/1999/xlink">
    <!-- Generator: Sketch 53.1 (72631) - https://sketchapp.com -->
    <title>Group 50c5</title>
    <desc>Created with Sketch.</desc>
    <g id="Page-1" stroke="none" stroke-width="1" fill="none" fill-rule="evenodd">
        <g id="Artboard" transform="translate(-2111.000000, -593.000000)">
            <g id="Group-50" transform="translate(2111.829142, 593.476466)">
                <path d="M10.765758,17.7505342 C10.765758,17.7505342 4.86175798,22.7035342 1.27875798,16.7165342 C-2.28524202,10.8345342 2.73175798,10.2925342 2.73175798,10.2925342 C2.73175798,10.2925342 -1.78724202,5.85053415 3.11075798,2.34853415 C8.00775798,-1.15346585 10.472758,2.04353415 10.472758,2.04353415 C10.472758,2.04353415 13.453758,-2.30046585 18.181758,1.67853415 C22.910758,5.65853415 19.244758,10.9715342 19.244758,10.9715342 L10.765758,17.7505342 Z" id="Fill-133" fill="#432918"></path>
                <path d="M48.317358,18.1578342 L38.462358,10.1828342 C38.462358,10.1828342 35.410358,2.83783415 40.342358,0.948834151 C45.274358,-0.940165849 46.638358,2.73283415 46.638358,2.73283415 C46.638358,2.73283415 48.614358,-1.04516585 52.873358,2.10283415 C57.132358,5.25083415 54.928358,9.97283415 54.928358,9.97283415 C54.928358,9.97283415 58.286358,11.4328342 56.922358,15.6348342 C55.558358,19.8368342 50.560358,19.9728342 48.317358,18.1578342" id="Fill-134" fill="#432918"></path>
                <path d="M5.89125798,20.3882342 L4.87725798,19.5692342 C4.87725798,19.5692342 5.89125798,7.50723415 20.474258,5.33423415 C20.464258,5.28323415 21.930258,7.13523415 21.930258,7.13523415 L5.89125798,20.3882342 Z" id="Fill-135" fill="#E5007E"></path>
                <path d="M50.754058,20.8140342 L52.842058,19.1710342 C52.842058,19.1710342 51.660058,11.4990342 37.500058,6.02603415 C37.510058,5.97503415 36.044058,7.82703415 36.044058,7.82703415 L50.754058,20.8140342 Z" id="Fill-136" fill="#E5007E"></path>
                <path d="M51.003158,19.2694342 C57.328158,29.4864342 57.787158,39.6094342 48.939158,44.9514342 C40.091158,50.2944342 15.267158,49.9394342 6.89915798,43.9064342 C-1.46984202,37.8744342 1.96215798,25.1054342 9.64915798,13.7214342 C17.336158,2.33643415 28.766158,6.32643415 28.766158,6.32643415 C36.303158,4.47743415 44.678158,9.05243415 51.003158,19.2694342" id="Fill-137" fill="#432918"></path>
                <path d="M32.465258,53.9509342 L28.624258,52.3579342 L24.783258,53.9509342 C24.783258,53.9509342 19.630258,59.4789342 21.504258,68.5659342 C23.284258,73.6249342 28.624258,72.3129342 28.624258,72.7819342 C28.624258,72.3129342 33.964258,73.6249342 35.744258,68.5659342 C37.618258,59.4789342 32.465258,53.9509342 32.465258,53.9509342" id="Fill-138" fill="#926037"></path>
                <polygon id="Fill-139" fill="#926037" points="21.366258 67.8276342 24.373258 80.8266342 22.251258 82.7556342 28.038258 82.7556342 28.038258 69.3496342"></polygon>
                <polygon id="Fill-140" fill="#926037" points="36.116458 63.4760342 36.915458 79.9220342 39.476458 81.2120342 33.901458 82.7620342 30.311458 69.8450342"></polygon>
                <polyline id="Fill-141" fill="#38A8E0" points="21.653458 71.1646342 22.348458 75.1226342 28.624458 75.2916342 28.624458 73.1186342 30.750458 72.7816342 31.353458 74.9216342 37.383458 73.6756342 37.383458 70.0976342"></polyline>
                <polygon id="Fill-142" fill="#926037" points="22.902258 63.2048342 16.544258 66.8918342 14.706258 64.1938342 24.606258 54.2258342"></polygon>
                <polygon id="Fill-143" fill="#926037" points="35.391358 59.4736342 44.145358 58.4636342 44.429358 55.0696342 31.931358 54.0856342"></polygon>
                <path d="M20.277458,68.0388342 L19.656458,70.7118342 C29.763458,73.3438342 38.631458,70.3548342 38.631458,70.3548342 L37.857458,67.7578342 C35.555458,68.3858342 28.371458,69.9748342 20.277458,68.0388342" id="Fill-144" fill="#F29101"></path>
                <path d="M20.975758,65.0319342 L20.277758,68.0389342 C28.370758,69.9749342 35.555758,68.3859342 37.857758,67.7579342 L36.981758,64.8149342 C34.138758,65.4919342 27.941758,66.5359342 20.975758,65.0319342" id="Fill-145" fill="#F8B033"></path>
                <path d="M21.772158,62.0287342 L21.094158,64.5237342 L20.976158,65.0317342 C27.941158,66.5357342 34.139158,65.4917342 36.982158,64.8157342 L36.098158,61.8467342 C33.104158,62.4717342 27.766158,63.1687342 21.772158,62.0287342" id="Fill-146" fill="#F29101"></path>
                <path d="M28.724258,59.4703342 C28.679258,59.4703342 28.635258,59.4723342 28.590258,59.4723342 C28.602258,59.4723342 28.612258,59.4733342 28.624258,59.4733342 C28.658258,59.4733342 28.690258,59.4703342 28.724258,59.4703342" id="Fill-147" fill="#F8B033"></path>
                <path d="M35.219958,58.8526342 C33.525958,59.1616342 31.291958,59.4456342 28.723958,59.4706342 C28.689958,59.4706342 28.658958,59.4736342 28.623958,59.4736342 C28.612958,59.4736342 28.601958,59.4726342 28.590958,59.4726342 C26.735958,59.4836342 24.710958,59.3576342 22.592958,59.0096342 L21.771958,62.0286342 C27.765958,63.1686342 33.103958,62.4716342 36.097958,61.8466342 L35.390958,59.4736342 L35.219958,58.8526342 Z" id="Fill-148" fill="#F8B033"></path>
                <path d="M33.948458,54.2447342 L32.822458,54.1557342 C32.822458,54.1557342 33.753458,59.3997342 28.724458,59.4707342 C31.291458,59.4457342 33.526458,59.1617342 35.220458,58.8527342 L33.948458,54.2447342 Z" id="Fill-149" fill="#F29101"></path>
                <path d="M28.590658,59.4723342 C24.320658,59.4453342 24.446658,54.3553342 24.446658,54.3553342 L23.624658,55.2143342 L22.592658,59.0093342 C24.710658,59.3573342 26.735658,59.4833342 28.590658,59.4723342" id="Fill-150" fill="#F29101"></path>
                <path d="M29.143758,59.6814342 C27.624758,59.6814342 26.435758,59.2194342 25.611758,58.3084342 C24.140758,56.6844342 24.366758,54.2364342 24.376758,54.1334342 L24.835758,54.1784342 C24.833758,54.2024342 24.621758,56.5304342 25.955758,58.0014342 C26.688758,58.8104342 27.761758,59.2204342 29.143758,59.2204342 C30.499758,59.2204342 31.478758,58.8314342 32.055758,58.0654342 C33.135758,56.6284342 32.483758,54.3134342 32.476758,54.2894342 L32.919758,54.1614342 C32.949758,54.2654342 33.640758,56.7234342 32.423758,58.3424342 C31.755758,59.2304342 30.652758,59.6814342 29.143758,59.6814342" id="Fill-151" fill="#FFFFFF"></path>
                <path d="M6.39185798,33.9267342 C6.39185798,45.3527342 16.382858,54.6157342 28.707858,54.6157342 C41.032858,54.6157342 51.023858,45.3527342 51.023858,33.9267342 C51.023858,22.5007342 41.032858,13.2377342 28.707858,13.2377342 C16.382858,13.2377342 6.39185798,22.5007342 6.39185798,33.9267342" id="Fill-152" fill="#926037"></path>
                <path d="M17.178858,14.0740342 C23.183858,11.6330342 29.253858,11.7650342 36.115858,17.0430342 C41.460858,21.1550342 46.688858,17.0610342 48.739858,15.0490342 C45.209858,10.7630342 39.103858,7.53203415 28.707858,7.53203415 C20.333858,7.53203415 14.745858,9.57603415 11.041858,12.5520342 C12.039858,14.0530342 13.886858,15.4120342 17.178858,14.0740342" id="Fill-153" fill="#432918"></path>
                <path d="M19.826358,19.9805342 C24.955358,28.2645342 33.067358,28.1515342 36.519358,24.6825342 C29.787358,22.8345342 27.584358,17.8285342 19.826358,19.9805342" id="Fill-154" fill="#432918"></path>
                <path d="M4.85915798,22.5186342 C3.21315798,29.1086342 4.79015798,35.3796342 4.79015798,35.3796342 C4.79015798,35.3796342 12.067158,34.6446342 18.810158,20.2916342 C18.132158,20.5206342 17.416158,20.7976342 16.651158,21.1346342 C11.713158,23.3106342 7.77015798,23.2776342 4.85915798,22.5186342" id="Fill-155" fill="#432918"></path>
                <path d="M51.545958,19.7735342 C50.757958,21.0635342 49.320958,22.8495342 46.940958,24.0425342 C49.689958,33.4315342 52.624958,36.1065342 52.624958,36.1065342 C52.624958,36.1065342 54.729958,27.5295342 51.545958,19.7735342" id="Fill-156" fill="#432918"></path>
                <path d="M52.348258,18.1650342 L49.649258,14.0740342 C49.649258,14.0740342 49.322258,14.4780342 48.739258,15.0490342 C49.958258,16.5280342 50.872258,18.1320342 51.546258,19.7740342 C52.116258,18.8400342 52.348258,18.1650342 52.348258,18.1650342" id="Fill-157" fill="#FFFFFF"></path>
                <path d="M51.545958,19.7735342 C50.871958,18.1315342 49.957958,16.5285342 48.739958,15.0495342 C46.688958,17.0615342 41.460958,21.1545342 36.115958,17.0435342 C29.253958,11.7645342 23.182958,11.6325342 17.178958,14.0735342 C13.886958,15.4125342 12.039958,14.0535342 11.041958,12.5525342 C7.55695798,15.3535342 5.74295798,18.9805342 4.85895798,22.5185342 C7.77095798,23.2775342 11.712958,23.3105342 16.650958,21.1345342 C17.415958,20.7975342 18.131958,20.5205342 18.809958,20.2915342 C18.984958,19.9195342 19.159958,19.5445342 19.333958,19.1545342 C19.493958,19.4405342 19.659958,19.7115342 19.825958,19.9805342 C27.584958,17.8285342 29.787958,22.8345342 36.518958,24.6825342 C37.541958,23.6545342 38.157958,22.3345342 38.161958,20.8495342 C42.130958,26.0415342 46.193958,23.7845342 46.193958,21.3015342 C46.439958,22.2755342 46.689958,23.1845342 46.940958,24.0425342 C49.320958,22.8495342 50.757958,21.0635342 51.545958,19.7735342" id="Fill-158" fill="#432918"></path>
                <path d="M51.545958,19.7735342 C50.871958,18.1315342 49.957958,16.5285342 48.739958,15.0495342 C46.688958,17.0615342 41.460958,21.1545342 36.115958,17.0435342 C29.253958,11.7645342 23.182958,11.6325342 17.178958,14.0735342 C13.886958,15.4125342 12.039958,14.0535342 11.041958,12.5525342 C7.55695798,15.3535342 5.74295798,18.9805342 4.85895798,22.5185342 C7.77095798,23.2775342 11.712958,23.3105342 16.650958,21.1345342 C17.415958,20.7975342 18.131958,20.5205342 18.809958,20.2915342 C18.984958,19.9195342 19.159958,19.5445342 19.333958,19.1545342 C19.493958,19.4405342 19.659958,19.7115342 19.825958,19.9805342 C27.584958,17.8285342 29.787958,22.8345342 36.518958,24.6825342 C37.541958,23.6545342 38.157958,22.3345342 38.161958,20.8495342 C42.130958,26.0415342 46.193958,23.7845342 46.193958,21.3015342 C46.439958,22.2755342 46.689958,23.1845342 46.940958,24.0425342 C49.320958,22.8495342 50.757958,21.0635342 51.545958,19.7735342" id="Fill-159" fill="#5B3720"></path>
                <path d="M49.915658,35.0431342 C49.915658,35.0431342 53.394658,33.0331342 54.631658,36.3571342 C55.868658,39.6821342 52.688658,43.5151342 48.137658,43.2601342 L49.915658,35.0431342 Z" id="Fill-160" fill="#926037"></path>
                <path d="M7.05215798,35.0431342 C7.05215798,35.0431342 3.57315798,33.0331342 2.33615798,36.3571342 C1.09915798,39.6821342 4.27915798,43.5151342 8.83015798,43.2601342 L7.05215798,35.0431342 Z" id="Fill-161" fill="#926037"></path>
                <path d="M13.250858,35.5472342 C13.250858,38.2222342 15.419858,40.3912342 18.094858,40.3912342 C20.770858,40.3912342 22.939858,38.2222342 22.939858,35.5472342 C22.939858,32.8722342 20.770858,30.7032342 18.094858,30.7032342 C15.419858,30.7032342 13.250858,32.8722342 13.250858,35.5472342" id="Fill-162" fill="#FFFFFF"></path>
                <path d="M14.260058,35.0215342 C14.260058,37.1395342 15.977058,38.8565342 18.095058,38.8565342 C20.213058,38.8565342 21.930058,37.1395342 21.930058,35.0215342 C21.930058,32.9035342 20.213058,31.1865342 18.095058,31.1865342 C15.977058,31.1865342 14.260058,32.9035342 14.260058,35.0215342" id="Fill-163" fill="#432918"></path>
                <path d="M34.881658,35.5472342 C34.881658,38.2222342 37.050658,40.3912342 39.725658,40.3912342 C42.401658,40.3912342 44.570658,38.2222342 44.570658,35.5472342 C44.570658,32.8722342 42.401658,30.7032342 39.725658,30.7032342 C37.050658,30.7032342 34.881658,32.8722342 34.881658,35.5472342" id="Fill-164" fill="#FFFFFF"></path>
                <path d="M35.890858,35.0215342 C35.890858,37.1395342 37.607858,38.8565342 39.725858,38.8565342 C41.843858,38.8565342 43.560858,37.1395342 43.560858,35.0215342 C43.560858,32.9035342 41.843858,31.1865342 39.725858,31.1865342 C37.607858,31.1865342 35.890858,32.9035342 35.890858,35.0215342" id="Fill-165" fill="#432918"></path>
                <path d="M15.277858,40.9515342 C15.379858,40.1955342 14.434858,39.3325342 13.165858,39.0235342 C11.897858,38.7145342 10.786858,39.0765342 10.684858,39.8315342 C10.582858,40.5875342 11.527858,41.4505342 12.795858,41.7595342 C14.064858,42.0685342 15.175858,41.7075342 15.277858,40.9515342" id="Fill-166" fill="#BC1523"></path>
                <path d="M42.543358,40.9515342 C42.441358,40.1955342 43.386358,39.3325342 44.655358,39.0235342 C45.923358,38.7145342 47.034358,39.0765342 47.136358,39.8315342 C47.238358,40.5875342 46.293358,41.4505342 45.025358,41.7595342 C43.756358,42.0685342 42.645358,41.7075342 42.543358,40.9515342" id="Fill-167" fill="#BC1523"></path>
                <path d="M13.978658,28.6694342 C13.978658,28.6694342 16.463658,24.3244342 22.211658,26.5304342 C19.537658,22.9214342 14.301658,24.7254342 13.978658,28.6694342" id="Fill-168" fill="#432918"></path>
                <path d="M43.842558,28.6694342 C43.842558,28.6694342 41.357558,24.3244342 35.609558,26.5304342 C38.283558,22.9214342 43.519558,24.7254342 43.842558,28.6694342" id="Fill-169" fill="#432918"></path>
                <path d="M6.11245798,38.9130342 C6.21645798,38.6180342 6.40845798,38.5700342 6.59645798,38.6110342 C6.47545798,37.9160342 6.43145798,37.4820342 6.43145798,37.4820342 C6.42145798,37.4720342 6.41145798,37.4630342 6.40145798,37.4540342 C5.45445798,36.5430342 3.89945798,37.5600342 4.30545798,38.8090342 C4.62045798,39.7760342 5.64345798,40.3940342 7.06345798,40.7220342 C6.96445798,40.3540342 6.88045798,40.0040342 6.80845798,39.6770342 C6.42045798,39.5630342 5.96345798,39.3360342 6.11245798,38.9130342" id="Fill-170" fill="#7A4927"></path>
                <path d="M51.126958,38.9130342 C51.022958,38.6180342 50.830958,38.5700342 50.642958,38.6110342 C50.763958,37.9160342 50.807958,37.4820342 50.807958,37.4820342 C50.817958,37.4720342 50.827958,37.4630342 50.836958,37.4540342 C51.784958,36.5430342 53.339958,37.5600342 52.933958,38.8090342 C52.618958,39.7760342 51.595958,40.3940342 50.175958,40.7220342 C50.274958,40.3540342 50.358958,40.0040342 50.430958,39.6770342 C50.818958,39.5630342 51.275958,39.3360342 51.126958,38.9130342" id="Fill-171" fill="#7A4927"></path>
                <path d="M24.077358,80.5897342 L23.514358,78.5797342 L28.217358,78.5797342 L28.038358,82.7557342 L22.251358,82.7557342 C22.251358,82.7557342 22.389358,80.5897342 24.077358,80.5897342" id="Fill-172" fill="#E61E73"></path>
                <path d="M37.125758,79.5915342 L37.114758,77.5045342 L32.592758,78.7965342 L33.912758,82.7615342 L39.476758,81.2125342 C39.476758,81.2125342 38.748758,79.1275342 37.125758,79.5915342" id="Fill-173" fill="#E61E73"></path>
                <path d="M16.544558,24.3870342 C10.680558,24.3870342 5.90955798,29.1580342 5.90955798,35.0220342 C5.90955798,40.8850342 10.680558,45.6560342 16.544558,45.6560342 C22.408558,45.6560342 27.179558,40.8850342 27.179558,35.0220342 C27.179558,29.1580342 22.408558,24.3870342 16.544558,24.3870342 M16.544558,46.5780342 C10.172558,46.5780342 4.98755798,41.3940342 4.98755798,35.0220342 C4.98755798,28.6490342 10.172558,23.4650342 16.544558,23.4650342 C22.917558,23.4650342 28.101558,28.6490342 28.101558,35.0220342 C28.101558,41.3940342 22.917558,46.5780342 16.544558,46.5780342" id="Fill-174" fill="#F8B033"></path>
                <path d="M41.276558,24.3870342 C35.412558,24.3870342 30.641558,29.1580342 30.641558,35.0220342 C30.641558,40.8850342 35.412558,45.6560342 41.276558,45.6560342 C47.140558,45.6560342 51.911558,40.8850342 51.911558,35.0220342 C51.911558,29.1580342 47.140558,24.3870342 41.276558,24.3870342 M41.276558,46.5780342 C34.903558,46.5780342 29.719558,41.3940342 29.719558,35.0220342 C29.719558,28.6490342 34.903558,23.4650342 41.276558,23.4650342 C47.649558,23.4650342 52.833558,28.6490342 52.833558,35.0220342 C52.833558,41.3940342 47.649558,46.5780342 41.276558,46.5780342" id="Fill-175" fill="#F8B033"></path>
                <polygon id="Fill-176" fill="#F8B033" points="27.640858 36.0088342 30.180858 36.0088342 30.180858 35.0868342 27.640858 35.0868342"></polygon>
                <path d="M28.916358,43.7148342 C27.583358,43.7148342 26.454358,42.9968342 26.437358,42.9858342 C26.330358,42.9168342 26.300358,42.7738342 26.369358,42.6678342 C26.438358,42.5608342 26.581358,42.5308342 26.688358,42.5988342 C26.711358,42.6138342 28.986358,44.0548342 30.694358,42.6158342 C30.792358,42.5338342 30.937358,42.5468342 31.019358,42.6438342 C31.101358,42.7418342 31.089358,42.8868342 30.992358,42.9688342 C30.326358,43.5288342 29.595358,43.7148342 28.916358,43.7148342" id="Fill-177" fill="#6B3A1F"></path>
                <path d="M36.875358,79.6059342 C36.875358,79.6059342 36.396358,79.7619342 36.377358,79.3809342 C36.357358,78.9999342 36.797358,79.1079342 36.797358,79.1079342 C36.797358,79.1079342 36.719358,78.5799342 37.012358,78.5799342 C37.305358,78.5799342 37.325358,79.0199342 37.325358,79.0199342 C37.325358,79.0199342 37.598358,78.7259342 37.774358,79.0489342 C37.950358,79.3709342 37.559358,79.4589342 37.559358,79.4589342 C37.559358,79.4589342 37.982358,79.6349342 37.820358,79.8989342 C37.657358,80.1629342 37.266358,79.7719342 37.266358,79.7719342 C37.266358,79.7719342 37.266358,80.1629342 37.070358,80.1629342 C36.875358,80.1629342 36.601358,80.0259342 36.875358,79.6059342" id="Fill-178" fill="#A1195B"></path>
                <path d="M24.490458,80.6333342 C24.490458,80.6333342 24.969458,80.7893342 24.988458,80.4083342 C25.008458,80.0273342 24.568458,80.1353342 24.568458,80.1353342 C24.568458,80.1353342 24.646458,79.6073342 24.353458,79.6073342 C24.060458,79.6073342 24.040458,80.0473342 24.040458,80.0473342 C24.040458,80.0473342 23.767458,79.7533342 23.591458,80.0763342 C23.415458,80.3983342 23.806458,80.4863342 23.806458,80.4863342 C23.806458,80.4863342 23.383458,80.6623342 23.545458,80.9263342 C23.708458,81.1903342 24.099458,80.7993342 24.099458,80.7993342 C24.099458,80.7993342 24.099458,81.1903342 24.295458,81.1903342 C24.490458,81.1903342 24.764458,81.0533342 24.490458,80.6333342" id="Fill-179" fill="#A1195B"></path>
                <path d="M16.378458,65.6412342 C16.378458,65.6412342 17.167458,67.0962342 16.781458,68.4262342 C16.395458,69.7572342 15.624458,68.8702342 15.933458,67.2312342 C14.834458,69.7182342 14.024458,69.8152342 13.889458,69.4682342 C13.693458,68.9642342 14.409458,67.6752342 14.409458,67.6752342 C14.409458,67.6752342 13.677458,69.0052342 13.021458,68.9662342 C12.366458,68.9282342 13.503458,67.1152342 13.503458,67.1152342 C13.503458,67.1152342 12.655458,68.2142342 12.211458,68.0602342 C11.768458,67.9062342 13.060458,66.2482342 13.060458,66.2482342 C13.060458,66.2482342 12.470458,66.8452342 12.119458,66.5182342 C11.768458,66.1902342 13.441458,64.1922342 15.102458,64.1692342" id="Fill-180" fill="#926037"></path>
                <path d="M43.318958,56.4815342 C43.318958,56.4815342 43.239958,54.8285342 44.163958,53.7965342 C45.088958,52.7655342 45.398958,53.8995342 44.409958,55.2415342 C46.478958,53.4775342 47.250958,53.7425342 47.221958,54.1135342 C47.179958,54.6515342 45.974958,55.5025342 45.974958,55.5025342 C45.974958,55.5025342 47.211958,54.6225342 47.785958,54.9415342 C48.359958,55.2605342 46.548958,56.3995342 46.548958,56.3995342 C46.548958,56.3995342 47.789958,55.7775342 48.121958,56.1095342 C48.454958,56.4405342 46.571958,57.3745342 46.571958,57.3745342 C46.571958,57.3745342 47.362958,57.0915342 47.536958,57.5395342 C47.710958,57.9865342 45.336958,59.0615342 43.830958,58.3615342" id="Fill-181" fill="#926037"></path>
                <path d="M43.759258,56.2644342 C43.759258,55.9694342 43.520258,55.7304342 43.225258,55.7304342 C42.930258,55.7304342 42.691258,55.9694342 42.691258,56.2644342 C42.691258,56.5594342 42.930258,56.7984342 43.225258,56.7984342 C43.520258,56.7984342 43.759258,56.5594342 43.759258,56.2644342" id="Fill-182" fill="#E61E73"></path>
                <path d="M43.946158,57.1986342 C43.946158,56.9036342 43.707158,56.6646342 43.412158,56.6646342 C43.117158,56.6646342 42.878158,56.9036342 42.878158,57.1986342 C42.878158,57.4936342 43.117158,57.7326342 43.412158,57.7326342 C43.707158,57.7326342 43.946158,57.4936342 43.946158,57.1986342" id="Fill-183" fill="#E61E73"></path>
                <path d="M44.134158,58.1452342 C44.134158,57.8502342 43.895158,57.6112342 43.600158,57.6112342 C43.305158,57.6112342 43.066158,57.8502342 43.066158,58.1452342 C43.066158,58.4402342 43.305158,58.6792342 43.600158,58.6792342 C43.895158,58.6792342 44.134158,58.4402342 44.134158,58.1452342" id="Fill-184" fill="#E61E73"></path>
                <path d="M43.600058,55.3181342 C43.600058,55.0231342 43.361058,54.7841342 43.066058,54.7841342 C42.771058,54.7841342 42.532058,55.0231342 42.532058,55.3181342 C42.532058,55.6131342 42.771058,55.8521342 43.066058,55.8521342 C43.361058,55.8521342 43.600058,55.6131342 43.600058,55.3181342" id="Fill-185" fill="#E61E73"></path>
                <path d="M14.758958,33.1103342 C14.758958,32.1183342 15.562958,31.3143342 16.554958,31.3143342 C17.546958,31.3143342 18.350958,32.1183342 18.350958,33.1103342 C18.350958,34.1023342 17.546958,34.9063342 16.554958,34.9063342 C15.562958,34.9063342 14.758958,34.1023342 14.758958,33.1103342" id="Fill-186" fill="#FFFFFF"></path>
                <path d="M36.468758,33.1103342 C36.468758,32.1183342 37.272758,31.3143342 38.264758,31.3143342 C39.256758,31.3143342 40.060758,32.1183342 40.060758,33.1103342 C40.060758,34.1023342 39.256758,34.9063342 38.264758,34.9063342 C37.272758,34.9063342 36.468758,34.1023342 36.468758,33.1103342" id="Fill-187" fill="#FFFFFF"></path>
            </g>
        </g>
    </g>
</svg>