<?xml version="1.0" encoding="UTF-8"?>
<svg width="54px" height="83px" viewBox="0 0 54 83" version="1.1" xmlns="http://www.w3.org/2000/svg" xmlns:xlink="http://www.w3.org/1999/xlink">
    <!-- Generator: Sketch 53.1 (72631) - https://sketchapp.com -->
    <title>Group 47c3</title>
    <desc>Created with Sketch.</desc>
    <g id="Page-1" stroke="none" stroke-width="1" fill="none" fill-rule="evenodd">
        <g id="Artboard" transform="translate(-1960.000000, -591.000000)">
            <g id="Group-47" transform="translate(1960.295643, 591.905380)">
                <polygon id="Fill-244" fill="#C89D67" points="19.3656573 65.98622 22.0336573 77.52122 26.3096573 77.52122 26.3096573 68.68722"></polygon>
                <polygon id="Fill-245" fill="#C89D67" points="34.1179573 65.98622 27.1739573 68.68722 27.1739573 77.52122 31.4499573 77.52122"></polygon>
                <polygon id="Fill-246" fill="#FFFFFF" points="22.6448573 80.16382 20.5228573 82.09282 26.3098573 82.09282 26.3098573 77.52082 22.0338573 77.52082"></polygon>
                <polygon id="Fill-247" fill="#FFFFFF" points="31.4500573 77.52102 27.1740573 77.52102 27.1740573 82.09302 32.9610573 82.09302 30.8390573 80.16402"></polygon>
                <path d="M30.5829573,53.28812 L26.7419573,51.69512 L22.9009573,53.28812 C22.9009573,53.28812 17.7479573,58.81612 19.6219573,67.90312 C21.4019573,72.96212 26.7419573,71.65012 26.7419573,72.11912 C26.7419573,71.65012 32.0819573,72.96212 33.8619573,67.90312 C35.7359573,58.81612 30.5829573,53.28812 30.5829573,53.28812" id="Fill-248" fill="#53CAFE"></path>
                <polygon id="Fill-249" fill="#53CAFE" points="21.0199573 62.54192 14.5559573 66.50892 13.0709573 64.20792 22.4729573 53.81192"></polygon>
                <path d="M30.9123573,53.61052 C30.9123573,53.61052 33.5623573,58.84052 39.7273573,54.38452 L41.1553573,56.01352 C41.1553573,56.01352 38.3803573,63.58852 31.8963573,60.22452" id="Fill-250" fill="#53CAFE"></path>
                <path d="M3.18005732,40.45102 C3.18005732,40.45102 -3.04494268,30.17602 3.18005732,16.71902 C9.40505732,3.26201997 32.7490573,-1.68198003 46.3900573,13.24002 C60.0300573,28.16202 48.5610573,41.00002 48.5610573,41.00002" id="Fill-251" fill="#683C11"></path>
                <path d="M26.4243573,56.28232 C25.6363573,57.07032 24.2523573,56.96232 23.3323573,56.04232 C22.4123573,55.12232 22.3053573,53.73832 23.0923573,52.95032 C23.8803573,52.16332 25.2643573,52.27032 26.1843573,53.19032 C27.1043573,54.11032 27.2123573,55.49432 26.4243573,56.28232" id="Fill-252" fill="#38A8E0"></path>
                <path d="M27.0601573,56.28232 C27.8481573,57.07032 29.2321573,56.96232 30.1521573,56.04232 C31.0721573,55.12232 31.1791573,53.73832 30.3921573,52.95032 C29.6041573,52.16332 28.2201573,52.27032 27.3001573,53.19032 C26.3801573,54.11032 26.2721573,55.49432 27.0601573,56.28232" id="Fill-253" fill="#38A8E0"></path>
                <path d="M3.68055732,34.30022 C3.68055732,45.79022 13.7275573,55.10422 26.1205573,55.10422 C38.5145573,55.10422 48.5615573,45.79022 48.5615573,34.30022 C48.5615573,22.81022 38.5145573,13.49622 26.1205573,13.49622 C13.7275573,13.49622 3.68055732,22.81022 3.68055732,34.30022" id="Fill-254" fill="#C89D67"></path>
                <path d="M10.3915573,35.26932 C10.3915573,37.94532 12.5605573,40.11332 15.2355573,40.11332 C17.9115573,40.11332 20.0805573,37.94532 20.0805573,35.26932 C20.0805573,32.59432 17.9115573,30.42532 15.2355573,30.42532 C12.5605573,30.42532 10.3915573,32.59432 10.3915573,35.26932" id="Fill-255" fill="#FFFFFF"></path>
                <path d="M10.7746573,35.26932 C10.7746573,37.38732 12.4916573,39.10432 14.6096573,39.10432 C16.7276573,39.10432 18.4446573,37.38732 18.4446573,35.26932 C18.4446573,33.15132 16.7276573,31.43432 14.6096573,31.43432 C12.4916573,31.43432 10.7746573,33.15132 10.7746573,35.26932" id="Fill-256" fill="#432918"></path>
                <path d="M32.0223573,35.26932 C32.0223573,37.94532 34.1913573,40.11332 36.8663573,40.11332 C39.5423573,40.11332 41.7113573,37.94532 41.7113573,35.26932 C41.7113573,32.59432 39.5423573,30.42532 36.8663573,30.42532 C34.1913573,30.42532 32.0223573,32.59432 32.0223573,35.26932" id="Fill-257" fill="#FFFFFF"></path>
                <path d="M32.4054573,35.26932 C32.4054573,37.38732 34.1224573,39.10432 36.2404573,39.10432 C38.3584573,39.10432 40.0754573,37.38732 40.0754573,35.26932 C40.0754573,33.15132 38.3584573,31.43432 36.2404573,31.43432 C34.1224573,31.43432 32.4054573,33.15132 32.4054573,35.26932" id="Fill-258" fill="#432918"></path>
                <path d="M12.4185573,40.67372 C12.5205573,39.91772 11.5755573,39.05472 10.3065573,38.74572 C9.03855732,38.43672 7.92755732,38.79872 7.82555732,39.55372 C7.72355732,40.30972 8.66855732,41.17272 9.93655732,41.48172 C11.2055573,41.79072 12.3165573,41.42972 12.4185573,40.67372" id="Fill-259" fill="#FE7B5C"></path>
                <path d="M39.6840573,40.67372 C39.5820573,39.91772 40.5270573,39.05472 41.7960573,38.74572 C43.0640573,38.43672 44.1750573,38.79872 44.2770573,39.55372 C44.3790573,40.30972 43.4340573,41.17272 42.1660573,41.48172 C40.8970573,41.79072 39.7860573,41.42972 39.6840573,40.67372" id="Fill-260" fill="#FE7B5C"></path>
                <path d="M11.2815573,27.32822 C11.2815573,27.32822 13.4385573,22.81222 19.3345573,24.58722 C16.4015573,21.18522 11.3125573,23.37122 11.2815573,27.32822" id="Fill-261" fill="#432918"></path>
                <path d="M40.9832573,27.02982 C40.9832573,27.02982 38.4982573,22.68482 32.7502573,24.89082 C35.4242573,21.28082 40.6602573,23.08582 40.9832573,27.02982" id="Fill-262" fill="#432918"></path>
                <path d="M4.24705732,34.70692 C4.24705732,34.70692 1.28305732,32.99492 0.229057323,35.82692 C-0.824942677,38.65892 1.88505732,41.92392 5.76205732,41.70692 L4.24705732,34.70692 Z" id="Fill-263" fill="#C89D67"></path>
                <path d="M47.5784573,34.70692 C47.5784573,34.70692 50.5424573,32.99492 51.5964573,35.82692 C52.6504573,38.65892 49.9404573,41.92392 46.0634573,41.70692 L47.5784573,34.70692 Z" id="Fill-264" fill="#C89D67"></path>
                <path d="M11.8960573,15.23552 C11.8960573,15.23552 11.6260573,25.60552 20.4780573,23.95852 C28.5060573,22.40152 25.9940573,16.33752 25.9940573,16.33752 C25.9940573,16.33752 33.4500573,22.95152 40.2240573,16.54252 C46.9980573,10.13452 27.1440573,2.94251997 11.8960573,15.23552" id="Fill-265" fill="#683C11"></path>
                <polygon id="Fill-266" fill="#058C36" points="19.3849573 66.50912 34.0999573 66.50912 33.7909573 74.03912 27.1739573 74.03912 27.1739573 72.71612 26.3099573 72.71612 26.3099573 74.03912 19.8059573 74.03912"></polygon>
                <path d="M22.5623573,79.80692 C22.5623573,79.80692 19.8583573,79.74792 19.8583573,82.09292 L26.3103573,82.09292 L26.3103573,79.80692 L22.5623573,79.80692 Z" id="Fill-267" fill="#E4332A"></path>
                <path d="M30.9213573,79.80692 C30.9213573,79.80692 33.6253573,79.74792 33.6253573,82.09292 L27.1733573,82.09292 L27.1733573,79.80692 L30.9213573,79.80692 Z" id="Fill-268" fill="#E4332A"></path>
                <path d="M25.8050573,43.31592 C25.6610573,43.31592 25.5170573,43.30792 25.3740573,43.29292 C22.9570573,43.04392 21.5640573,40.78992 21.5060573,40.69392 C21.4400573,40.58592 21.4750573,40.44392 21.5840573,40.37792 C21.6930573,40.31092 21.8350573,40.34692 21.9010573,40.45492 C21.9140573,40.47692 23.2370573,42.61092 25.4240573,42.83592 C26.9680573,42.98992 28.5850573,42.17992 30.2300573,40.41792 C30.3180573,40.32492 30.4630573,40.31892 30.5560573,40.40592 C30.6490573,40.49292 30.6540573,40.63892 30.5670573,40.73192 C28.9660573,42.44892 27.3660573,43.31592 25.8050573,43.31592" id="Fill-269" fill="#966635"></path>
                <polygon id="Fill-270" fill="#634E42" points="19.3849573 66.50912 34.0999573 66.50912 34.0529573 67.65412 19.4489573 67.65412"></polygon>
                <polygon id="Fill-271" fill="#38A8E0" points="26.5133573 66.50892 26.9693573 66.50892 26.9693573 55.09592 26.5133573 55.09592"></polygon>
                <polygon id="Fill-272" fill="#38A8E0" points="15.3136573 66.05412 13.6306573 63.52512 14.0146573 63.26912 15.6976573 65.79812"></polygon>
                <polygon id="Fill-273" fill="#38A8E0" points="40.6044573 57.17272 38.6924573 55.06372 39.0914573 54.81772 40.8324573 56.73772"></polygon>
                <path d="M28.1428573,58.79592 C28.1428573,58.60392 27.9868573,58.44792 27.7948573,58.44792 C27.6028573,58.44792 27.4468573,58.60392 27.4468573,58.79592 C27.4468573,58.98792 27.6028573,59.14392 27.7948573,59.14392 C27.9868573,59.14392 28.1428573,58.98792 28.1428573,58.79592" id="Fill-274" fill="#38A8E0"></path>
                <path d="M28.1428573,65.00372 C28.1428573,64.81172 27.9868573,64.65572 27.7948573,64.65572 C27.6028573,64.65572 27.4468573,64.81172 27.4468573,65.00372 C27.4468573,65.19572 27.6028573,65.35172 27.7948573,65.35172 C27.9868573,65.35172 28.1428573,65.19572 28.1428573,65.00372" id="Fill-275" fill="#38A8E0"></path>
                <path d="M28.1428573,61.89982 C28.1428573,61.70782 27.9868573,61.55182 27.7948573,61.55182 C27.6028573,61.55182 27.4468573,61.70782 27.4468573,61.89982 C27.4468573,62.09182 27.6028573,62.24782 27.7948573,62.24782 C27.9868573,62.24782 28.1428573,62.09182 28.1428573,61.89982" id="Fill-276" fill="#38A8E0"></path>
                <path d="M39.7272573,54.38452 C39.7272573,54.38452 38.9382573,52.92952 39.3242573,51.59952 C39.7102573,50.26852 40.4812573,51.15552 40.1722573,52.79452 C41.2712573,50.30752 42.0812573,50.21052 42.2162573,50.55752 C42.4122573,51.06152 41.6952573,52.35052 41.6952573,52.35052 C41.6952573,52.35052 42.4282573,51.02052 43.0842573,51.05952 C43.7392573,51.09752 42.6022573,52.91052 42.6022573,52.91052 C42.6022573,52.91052 43.4502573,51.81152 43.8932573,51.96552 C44.3372573,52.11952 43.0452573,53.77752 43.0452573,53.77752 C43.0452573,53.77752 43.6352573,53.18052 43.9862573,53.50752 C44.3372573,53.83552 42.6642573,55.83352 41.0042573,55.85652" id="Fill-277" fill="#C89D67"></path>
                <path d="M14.5559573,66.50912 L13.0939573,64.21012 C11.4409573,64.05312 9.56095732,65.85812 9.87395732,66.22212 C10.1869573,66.58612 10.8389573,66.05612 10.8389573,66.05612 C10.8389573,66.05612 9.37495732,67.56412 9.79895732,67.76512 C10.2229573,67.96712 11.1859573,66.96612 11.1859573,66.96612 C11.1859573,66.96612 9.85895732,68.64512 10.5059573,68.75412 C11.1539573,68.86312 12.0259573,67.62112 12.0259573,67.62112 C12.0259573,67.62112 11.1739573,68.82512 11.3139573,69.34612 C11.4109573,69.70612 12.2259573,69.69812 13.5879573,67.34412 C13.1039573,68.94012 13.7749573,69.90512 14.3019573,68.62512 C14.8299573,67.34412 14.5559573,66.50912 14.5559573,66.50912" id="Fill-278" fill="#C89D67"></path>
                <path d="M23.1011573,5.27671997 C23.1011573,5.27671997 18.3951573,3.91871997 20.7651573,1.07171997 C23.1351573,-1.77428003 24.8481573,2.62471997 24.8481573,2.62471997 C24.8481573,2.62471997 25.5751573,-1.45028003 28.9481573,0.554719967 C32.3201573,2.55971997 27.1041573,5.27671997 27.1041573,5.27671997" id="Fill-279" fill="#683C11"></path>
                <path d="M3.27505732,37.64642 C3.37905732,37.35142 3.57105732,37.30342 3.75905732,37.34442 C3.63805732,36.64942 3.59405732,36.21542 3.59405732,36.21542 C3.58405732,36.20542 3.57405732,36.19642 3.56405732,36.18742 C2.61705732,35.27642 1.06205732,36.29342 1.46805732,37.54242 C1.78305732,38.50942 2.80605732,39.12742 4.22605732,39.45542 C4.12705732,39.08742 4.04305732,38.73742 3.97105732,38.41042 C3.58305732,38.29642 3.12605732,38.06942 3.27505732,37.64642" id="Fill-280" fill="#B18352"></path>
                <path d="M48.7506573,37.64642 C48.6466573,37.35142 48.4546573,37.30342 48.2666573,37.34442 C48.3876573,36.64942 48.4316573,36.21542 48.4316573,36.21542 C48.4416573,36.20542 48.4516573,36.19642 48.4606573,36.18742 C49.4086573,35.27642 50.9636573,36.29342 50.5576573,37.54242 C50.2426573,38.50942 49.2196573,39.12742 47.7996573,39.45542 C47.8986573,39.08742 47.9826573,38.73742 48.0546573,38.41042 C48.4426573,38.29642 48.8996573,38.06942 48.7506573,37.64642" id="Fill-281" fill="#B18352"></path>
                <polygon id="Fill-282" fill="#036633" points="19.6143573 74.83292 26.5143573 74.83292 26.5143573 73.24092 19.6143573 73.24092"></polygon>
                <polygon id="Fill-283" fill="#036633" points="26.9503573 74.83292 33.9643573 74.83292 33.9643573 73.24092 26.9503573 73.24092"></polygon>
                <path d="M27.2573573,56.29422 L27.2853573,56.28122 L27.2293573,56.28122 L23.0853573,54.29722 C22.6093573,54.06922 22.0573573,54.41722 22.0573573,54.94522 L22.0573573,56.28122 L22.0573573,56.30822 L22.0573573,57.64322 C22.0573573,58.17122 22.6093573,58.51922 23.0853573,58.29122 L27.2293573,56.30822 L27.2853573,56.30822 L27.2573573,56.29422 Z" id="Fill-284" fill="#E4332A"></path>
                <path d="M26.2262573,56.29422 L26.1982573,56.30822 L26.2542573,56.30822 L30.3982573,58.29122 C30.8742573,58.51922 31.4262573,58.17122 31.4262573,57.64322 L31.4262573,56.30822 L31.4262573,56.28122 L31.4262573,54.94522 C31.4262573,54.41722 30.8742573,54.06922 30.3982573,54.29722 L26.2542573,56.28122 L26.1982573,56.28122 L26.2262573,56.29422 Z" id="Fill-285" fill="#E4332A"></path>
                <path d="M25.9992573,56.29422 C25.9992573,56.70422 26.3322573,57.03722 26.7422573,57.03722 C27.1522573,57.03722 27.4852573,56.70422 27.4852573,56.29422 C27.4852573,55.88422 27.1522573,55.55122 26.7422573,55.55122 C26.3322573,55.55122 25.9992573,55.88422 25.9992573,56.29422" id="Fill-286" fill="#BC1523"></path>
                <path d="M31.3496573,79.73382 C31.6306573,79.80182 31.8726573,79.78182 32.0716573,79.67382 C32.2606573,79.57282 32.2256573,79.38582 32.1746573,79.29182 C32.1266573,79.19882 31.9926573,79.06682 31.8076573,79.16482 C31.6086573,79.26882 31.4546573,79.45982 31.3496573,79.73382 M31.6586573,80.00382 C31.5036573,80.00382 31.3406573,79.97682 31.1656573,79.92182 L31.0556573,79.88782 L31.0906573,79.77782 C31.2136573,79.38282 31.4196573,79.10782 31.7006573,78.96082 C31.9906573,78.80982 32.2606573,78.95882 32.3786573,79.18282 C32.4996573,79.41082 32.4696573,79.72182 32.1806573,79.87682 C32.0246573,79.96182 31.8486573,80.00382 31.6586573,80.00382" id="Fill-287" fill="#BC1523"></path>
                <path d="M30.7385573,79.84102 C30.5845573,79.84102 30.4465573,79.87402 30.3245573,79.94002 C30.1355573,80.04102 30.1705573,80.22802 30.2205573,80.32302 C30.2695573,80.41502 30.4015573,80.54702 30.5885573,80.44902 C30.7875573,80.34502 30.9405573,80.15402 31.0465573,79.88002 C30.9385573,79.85402 30.8355573,79.84102 30.7385573,79.84102 M30.4595573,80.71402 C30.2665573,80.71402 30.1025573,80.59202 30.0165573,80.43002 C29.8965573,80.20302 29.9265573,79.89202 30.2155573,79.73702 C30.4975573,79.58402 30.8385573,79.57002 31.2295573,79.69202 L31.3395573,79.72702 L31.3055573,79.83602 C31.1815573,80.23102 30.9765573,80.50602 30.6955573,80.65402 L30.6945573,80.65402 C30.6145573,80.69602 30.5345573,80.71402 30.4595573,80.71402" id="Fill-288" fill="#BC1523"></path>
                <path d="M21.8628573,79.16492 C21.6778573,79.06692 21.5448573,79.19892 21.4958573,79.29192 C21.4458573,79.38592 21.4108573,79.57292 21.5988573,79.67392 C21.7978573,79.78092 22.0398573,79.80192 22.3208573,79.73392 C22.2158573,79.45992 22.0618573,79.26892 21.8628573,79.16492 M21.4898573,79.87692 C21.2008573,79.72192 21.1718573,79.41092 21.2918573,79.18292 C21.4108573,78.95892 21.6798573,78.80992 21.9698573,78.96092 C22.2508573,79.10792 22.4568573,79.38192 22.5798573,79.77792 L22.6148573,79.88792 L22.5048573,79.92192 C22.3308573,79.97692 22.1668573,80.00392 22.0128573,80.00392 C21.8218573,80.00392 21.6468573,79.96192 21.4898573,79.87692" id="Fill-289" fill="#BC1523"></path>
                <path d="M22.6248573,79.88022 C22.7298573,80.15422 22.8838573,80.34522 23.0828573,80.44922 C23.2688573,80.54722 23.4008573,80.41522 23.4498573,80.32222 C23.4998573,80.22822 23.5348573,80.04122 23.3468573,79.94022 C23.2238573,79.87422 23.0858573,79.84122 22.9328573,79.84122 C22.8358573,79.84122 22.7328573,79.85422 22.6248573,79.88022 M22.9758573,80.65322 L22.9758573,80.65322 C22.6948573,80.50622 22.4888573,80.23122 22.3658573,79.83622 L22.3308573,79.72622 L22.4408573,79.69222 C22.8328573,79.57022 23.1728573,79.58422 23.4558573,79.73722 C23.7448573,79.89222 23.7748573,80.20322 23.6538573,80.43022 C23.5688573,80.59222 23.4038573,80.71422 23.2118573,80.71422 C23.1368573,80.71422 23.0568573,80.69622 22.9758573,80.65322" id="Fill-290" fill="#BC1523"></path>
                <path d="M19.5957573,70.27432 C19.5957573,70.27432 22.4727573,70.52032 22.4727573,67.65332 L19.4487573,67.65332 L19.5957573,70.27432 Z" id="Fill-291" fill="#0EB046"></path>
                <path d="M33.9332573,70.27432 C33.9332573,70.27432 31.0562573,70.52032 31.0562573,67.65332 L34.0522573,67.65332 L33.9332573,70.27432 Z" id="Fill-292" fill="#0EB046"></path>
                <polygon id="Fill-293" fill="#0EB046" points="25.9413573 72.71592 27.5433573 72.71592 27.5433573 67.65392 25.9413573 67.65392"></polygon>
                <polygon id="Fill-294" fill="#0EB046" points="22.4723573 67.65392 22.8373573 67.65392 22.8373573 66.50892 22.4723573 66.50892"></polygon>
                <polygon id="Fill-295" fill="#0EB046" points="30.7293573 67.65392 31.0943573 67.65392 31.0943573 66.50892 30.7293573 66.50892"></polygon>
                <path d="M45.0047573,11.81382 C41.9197573,13.39482 38.7837573,13.29182 35.9957573,11.14782 C29.4807573,6.13581997 23.4217573,5.59081997 17.0587573,8.17781997 C14.5747573,9.18781997 12.9137573,8.66081997 11.8187573,7.69781997 C8.16875732,9.77781997 5.23275732,12.67582 3.45475732,16.19982 C6.23975732,17.22982 9.14775732,17.29182 11.9907573,16.70882 C16.6347573,15.75482 19.4567573,13.22082 24.0637573,13.58882 C28.6817573,13.95682 31.1797573,17.42082 36.5837573,18.83882 C37.4537573,18.53282 38.3357573,18.06582 39.2137573,17.40282 C40.1257573,18.01082 40.9867573,18.67882 41.7887573,19.40382 C44.4477573,19.26782 47.0147573,18.42482 49.1087573,16.62682 C47.9147573,14.89282 46.4407573,13.18382 45.0047573,11.81382" id="Fill-296" fill="#764515"></path>
                <path d="M11.8951573,32.85952 C11.8951573,31.86752 12.6991573,31.06352 13.6911573,31.06352 C14.6831573,31.06352 15.4871573,31.86752 15.4871573,32.85952 C15.4871573,33.85152 14.6831573,34.65552 13.6911573,34.65552 C12.6991573,34.65552 11.8951573,33.85152 11.8951573,32.85952" id="Fill-297" fill="#FFFFFF"></path>
                <path d="M33.6048573,32.85952 C33.6048573,31.86752 34.4088573,31.06352 35.4008573,31.06352 C36.3928573,31.06352 37.1968573,31.86752 37.1968573,32.85952 C37.1968573,33.85152 36.3928573,34.65552 35.4008573,34.65552 C34.4088573,34.65552 33.6048573,33.85152 33.6048573,32.85952" id="Fill-298" fill="#FFFFFF"></path>
                <path d="M29.7702573,59.89792 C29.7932573,60.31492 29.8992573,61.20892 30.3712573,61.68992 C30.5802573,61.90392 30.8342573,62.00692 31.1472573,62.00692 C31.4582573,62.00692 31.7052573,61.90492 31.9022573,61.69492 C32.3552573,61.21292 32.4202573,60.31092 32.4252573,59.89792 L29.7702573,59.89792 Z M31.1472573,62.46792 C30.7092573,62.46792 30.3372573,62.31492 30.0412573,62.01192 C29.2792573,61.23392 29.3012573,59.72592 29.3032573,59.66192 L29.3072573,59.43692 L32.8682573,59.43692 L32.8822573,59.65292 C32.8862573,59.71692 32.9732573,61.22792 32.2392573,62.00992 C31.9542573,62.31392 31.5862573,62.46792 31.1472573,62.46792 L31.1472573,62.46792 Z" id="Fill-299" fill="#38A8E0"></path>
            </g>
        </g>
    </g>
</svg>