<?xml version="1.0" encoding="UTF-8"?>
<svg width="53px" height="80px" viewBox="0 0 53 80" version="1.1" xmlns="http://www.w3.org/2000/svg" xmlns:xlink="http://www.w3.org/1999/xlink">
    <!-- Generator: Sketch 53.1 (72631) - https://sketchapp.com -->
    <title>Group 45c1</title>
    <desc>Created with Sketch.</desc>
    <g id="Page-1" stroke="none" stroke-width="1" fill="none" fill-rule="evenodd">
        <g id="Artboard" transform="translate(-1824.000000, -597.000000)">
            <g id="Group-45" transform="translate(1823.999782, 597.140505)">
                <polygon id="Fill-300" fill="#FECEB7" points="18.2596178 62.4046949 18.2966178 76.9566949 15.7986178 78.3646949 21.4396178 79.6536949 24.4276178 66.5846949"></polygon>
                <polygon id="Fill-301" fill="#FECEB7" points="33.2627178 63.5471949 29.9837178 77.7251949 32.1057178 79.6541949 26.3187178 79.6541949 26.3187178 66.2481949"></polygon>
                <path d="M21.8912178,50.8490949 C21.8912178,50.8490949 12.9342178,52.6630949 12.9342178,63.5470949 L15.5502178,63.5470949 C15.5502178,63.5470949 16.9002178,57.2660949 22.2172178,57.1980949 L21.8912178,50.8490949 Z" id="Fill-302" fill="#FECEB7"></path>
                <path d="M29.6104178,50.8490949 L29.2844178,57.1980949 C34.6014178,57.2660949 35.9514178,63.5470949 35.9514178,63.5470949 L38.5674178,63.5470949 C38.5674178,52.6630949 29.6104178,50.8490949 29.6104178,50.8490949" id="Fill-303" fill="#FECEB7"></path>
                <path d="M29.5735178,50.8490949 L25.7325178,49.2560949 L21.8915178,50.8490949 C21.8915178,50.8490949 16.7385178,56.3760949 18.6125178,65.4640949 C20.3925178,70.5230949 25.7325178,69.2110949 25.7325178,69.6800949 C25.7325178,69.2110949 31.0725178,70.5230949 32.8525178,65.4640949 C34.7265178,56.3760949 29.5735178,50.8490949 29.5735178,50.8490949" id="Fill-304" fill="#FECEB7"></path>
                <path d="M31.1664178,7.4201949 C31.1664178,7.4201949 47.4244178,2.7871949 49.2204178,8.3421949 C51.0154178,13.8981949 36.3304178,14.4981949 36.3304178,14.4981949" id="Fill-305" fill="#1F70B7"></path>
                <path d="M14.9867178,54.5714949 L17.7667178,59.6984949 L20.5467178,58.2544949 L32.1357178,58.1094949 L33.5797178,59.4684949 L35.8907178,54.2464949 C35.8907178,54.2464949 33.8077178,52.3754949 31.4007178,51.4694949 C29.9697178,51.1054949 23.0377178,47.9284949 14.9867178,54.5714949" id="Fill-306" fill="#33AB67"></path>
                <path d="M24.1599178,56.5208949 C24.1599178,56.5208949 22.1319178,55.7048949 22.8069178,55.0458949 C23.4819178,54.3868949 24.8649178,54.8458949 24.8649178,54.8458949 C24.8649178,54.8458949 25.1779178,53.2748949 25.8999178,53.3248949 C26.6209178,53.3748949 26.9379178,55.0108949 26.9379178,55.0108949 C26.9379178,55.0108949 28.6439178,54.4818949 28.6089178,55.5228949 C28.5749178,56.5628949 27.4229178,56.6628949 27.4229178,56.6628949 C27.4229178,56.6628949 28.2189178,58.1288949 27.5519178,58.4728949 C26.8859178,58.8168949 25.7379178,57.5088949 25.7379178,57.5088949 C25.7379178,57.5088949 25.2939178,58.6778949 24.4759178,58.6168949 C23.6589178,58.5568949 24.1599178,56.5208949 24.1599178,56.5208949" id="Fill-307" fill="#058C36"></path>
                <path d="M18.2555178,60.1449949 L16.1235178,75.3049949 L22.9605178,76.8009949 L24.1375178,70.0319949 L25.8415178,70.1499949 L25.7325178,76.8009949 L32.6385178,76.8009949 C32.6385178,76.8009949 33.7185178,65.8079949 33.2625178,60.4389949 C32.6365178,53.0619949 31.7385178,51.4699949 31.7385178,51.4699949 L30.1865178,51.0059949 L30.4345178,57.1979949 L21.3125178,57.1979949 L21.1035178,51.0749949 L19.2795178,51.6149949 C19.2795178,51.6149949 18.8645178,54.9069949 18.2555178,60.1449949" id="Fill-308" fill="#38A8E0"></path>
                <path d="M25.8816178,4.6039949 C25.8816178,4.6039949 9.33961784,3.2859949 2.40061784,19.2449949 C-4.53838216,35.2039949 6.22561784,42.8149949 13.1956178,44.2829949 C20.1646178,45.7519949 43.2006178,45.6819949 48.7176178,38.7429949 C54.2356178,31.8039949 52.6386178,4.2569949 25.8816178,4.6039949" id="Fill-309" fill="#F8B033"></path>
                <path d="M3.04541784,30.4204949 C3.04541784,42.1134949 13.2694178,51.5914949 25.8814178,51.5914949 C38.4934178,51.5914949 48.7184178,42.1134949 48.7184178,30.4204949 C48.7184178,18.7284949 38.4934178,9.2494949 25.8814178,9.2494949 C13.2694178,9.2494949 3.04541784,18.7284949 3.04541784,30.4204949" id="Fill-310" fill="#FECEB7"></path>
                <path d="M10.1854178,32.4452949 C10.1854178,35.1202949 12.3544178,37.2892949 15.0294178,37.2892949 C17.7054178,37.2892949 19.8744178,35.1202949 19.8744178,32.4452949 C19.8744178,29.7702949 17.7054178,27.6012949 15.0294178,27.6012949 C12.3544178,27.6012949 10.1854178,29.7702949 10.1854178,32.4452949" id="Fill-311" fill="#FFFFFF"></path>
                <path d="M11.1947178,32.4452949 C11.1947178,34.5632949 12.9117178,36.2802949 15.0297178,36.2802949 C17.1477178,36.2802949 18.8647178,34.5632949 18.8647178,32.4452949 C18.8647178,30.3272949 17.1477178,28.6102949 15.0297178,28.6102949 C12.9117178,28.6102949 11.1947178,30.3272949 11.1947178,32.4452949" id="Fill-312" fill="#432918"></path>
                <path d="M31.8163178,32.4452949 C31.8163178,35.1202949 33.9853178,37.2892949 36.6603178,37.2892949 C39.3363178,37.2892949 41.5053178,35.1202949 41.5053178,32.4452949 C41.5053178,29.7702949 39.3363178,27.6012949 36.6603178,27.6012949 C33.9853178,27.6012949 31.8163178,29.7702949 31.8163178,32.4452949" id="Fill-313" fill="#FFFFFF"></path>
                <path d="M32.8255178,32.4452949 C32.8255178,34.5632949 34.5425178,36.2802949 36.6605178,36.2802949 C38.7785178,36.2802949 40.4955178,34.5632949 40.4955178,32.4452949 C40.4955178,30.3272949 38.7785178,28.6102949 36.6605178,28.6102949 C34.5425178,28.6102949 32.8255178,30.3272949 32.8255178,32.4452949" id="Fill-314" fill="#432918"></path>
                <path d="M13.2876178,8.4207949 C13.2876178,8.4207949 21.3406178,29.3077949 49.9276178,31.2197949 C51.2166178,10.0487949 37.2326178,2.2907949 13.2876178,8.4207949" id="Fill-315" fill="#F8B033"></path>
                <path d="M4.32191784,31.3376949 C4.32191784,31.3376949 1.30591784,29.5946949 0.232917843,32.4766949 C-0.839082157,35.3586949 1.91791784,38.6826949 5.86391784,38.4616949 L4.32191784,31.3376949 Z" id="Fill-316" fill="#FECEB7"></path>
                <path d="M47.8080178,31.3376949 C47.8080178,31.3376949 50.8240178,29.5946949 51.8970178,32.4766949 C52.9690178,35.3586949 50.2120178,38.6826949 46.2660178,38.4616949 L47.8080178,31.3376949 Z" id="Fill-317" fill="#FECEB7"></path>
                <path d="M12.2125178,37.8496949 C12.3145178,37.0936949 11.3695178,36.2306949 10.1005178,35.9216949 C8.83251784,35.6126949 7.72151784,35.9746949 7.61951784,36.7296949 C7.51651784,37.4856949 8.46251784,38.3486949 9.73051784,38.6576949 C10.9995178,38.9666949 12.1105178,38.6056949 12.2125178,37.8496949" id="Fill-318" fill="#FEAD8C"></path>
                <path d="M39.4780178,37.8496949 C39.3760178,37.0936949 40.3210178,36.2306949 41.5900178,35.9216949 C42.8580178,35.6126949 43.9690178,35.9746949 44.0710178,36.7296949 C44.1730178,37.4856949 43.2280178,38.3486949 41.9600178,38.6576949 C40.6910178,38.9666949 39.5800178,38.6056949 39.4780178,37.8496949" id="Fill-319" fill="#FEAD8C"></path>
                <path d="M10.9133178,24.2057949 C10.9133178,24.2057949 13.3983178,19.8607949 19.1463178,22.0667949 C16.4723178,18.4577949 11.2363178,20.2617949 10.9133178,24.2057949" id="Fill-320" fill="#F29101"></path>
                <path d="M40.7772178,24.2057949 C40.7772178,24.2057949 38.2922178,19.8607949 32.5442178,22.0667949 C35.2182178,18.4577949 40.4542178,20.2617949 40.7772178,24.2057949" id="Fill-321" fill="#F29101"></path>
                <path d="M18.2963178,76.8004949 L21.8573178,77.8274949 L21.4393178,79.6534949 L15.5873178,78.3054949 C15.5873178,78.3054949 15.9693178,76.2314949 18.2963178,76.8004949" id="Fill-322" fill="#1F70B7"></path>
                <path d="M26.3186178,77.9411949 L29.9836178,77.7251949 C29.9836178,77.7251949 32.1056178,77.2551949 32.1056178,79.6541949 L26.3186178,79.6541949 L26.3186178,77.9411949 Z" id="Fill-323" fill="#1F70B7"></path>
                <path d="M28.1925178,38.2588949 C27.9275178,39.0968949 27.0845178,41.1948949 25.3145178,41.0478949 C23.6125178,40.9058949 23.1315178,39.1288949 23.0005178,38.3188949 C22.0605178,38.4528949 20.7245178,39.3278949 22.3555178,40.9548949 C22.3755178,40.9748949 22.3965178,40.9948949 22.4165178,41.0148949 C23.9375178,42.4828949 26.4335178,42.5218949 28.2355178,41.2388949 C28.9415178,40.7358949 29.6465178,40.0778949 29.6555178,39.4478949 C29.6735178,38.2868949 28.9695178,38.0708949 28.1925178,38.2588949" id="Fill-324" fill="#E84E1B"></path>
                <path d="M25.3140178,41.0474949 C27.4020178,41.2304949 27.9280178,39.0974949 28.1920178,38.2584949 C27.6790178,38.3834949 27.1330178,38.6824949 26.7410178,39.0064949 C25.7560178,39.8224949 24.2460178,38.6404949 23.5710178,38.3544949 C23.4380178,38.2974949 23.2310178,38.2864949 23.0010178,38.3194949 C23.1320178,39.1284949 23.6130178,40.8984949 25.3140178,41.0474949" id="Fill-325" fill="#FFFFFF"></path>
                <polygon id="Fill-326" fill="#FFFFFF" points="33.3750178 65.0124949 17.5710178 65.0124949 17.6200178 64.6664949 33.3750178 64.6664949"></polygon>
                <path d="M18.0682178,69.0956949 C17.4692178,69.0956949 17.0412178,69.0166949 17.0002178,69.0086949 L17.0652178,68.6686949 C17.0892178,68.6726949 19.3952178,69.0966949 20.8472178,67.8966949 C21.6422178,67.2406949 22.0442178,66.2116949 22.0442178,64.8396949 L22.3902178,64.8396949 C22.3902178,66.3206949 21.9452178,67.4396949 21.0662178,68.1646949 C20.1362178,68.9326949 18.9262178,69.0956949 18.0682178,69.0956949" id="Fill-327" fill="#FFFFFF"></path>
                <path d="M32.5342178,69.1361949 C31.7612178,69.1361949 30.5102178,68.9891949 29.5512178,68.1671949 C28.6912178,67.4311949 28.2552178,66.3111949 28.2552178,64.8391949 L28.6012178,64.8391949 C28.6012178,66.2061949 28.9972178,67.2371949 29.7762178,67.9051949 C31.1192178,69.0551949 33.2992178,68.7101949 33.2462178,68.7301949 L33.2152178,69.0951949 C33.1842178,69.1001949 32.9402178,69.1361949 32.5342178,69.1361949" id="Fill-328" fill="#FFFFFF"></path>
                <polygon id="Fill-329" fill="#FFFFFF" points="23.1741178 75.5479949 16.2711178 74.1919949 16.3371178 73.8519949 23.2411178 75.2079949"></polygon>
                <polygon id="Fill-330" fill="#FFFFFF" points="25.7567178 75.6718949 25.7507178 75.3258949 32.7827178 75.2048949 32.7527178 75.5518949"></polygon>
                <polygon id="Fill-331" fill="#FFFFFF" points="18.6298178 57.2028949 18.6138178 56.8568949 21.2938178 56.7318949 21.3098178 57.0778949"></polygon>
                <polygon id="Fill-332" fill="#FFFFFF" points="32.9008178 57.2028949 30.4148178 57.0778949 30.4318178 56.7318949 32.9178178 56.8568949"></polygon>
                <path d="M22.3977178,58.9820949 C22.4197178,59.3110949 22.5047178,60.0600949 22.8397178,60.7990949 C23.4237178,62.0860949 24.4607178,62.7380949 25.9217178,62.7380949 C26.9037178,62.7380949 27.6977178,62.4380949 28.2807178,61.8460949 C29.2067178,60.9040949 29.3607178,59.4710949 29.3857178,58.9820949 L22.3977178,58.9820949 Z M25.9217178,63.0840949 C24.8437178,63.0840949 23.9617178,62.7490949 23.3017178,62.0880949 C22.0557178,60.8400949 22.0447178,58.8910949 22.0447178,58.8090949 L22.0447178,58.6360949 L29.7327178,58.6360949 L29.7367178,58.8060949 C29.7377178,58.8880949 29.7567178,60.8380949 28.5287178,62.0870949 C27.8787178,62.7490949 27.0017178,63.0840949 25.9217178,63.0840949 L25.9217178,63.0840949 Z" id="Fill-333" fill="#FFFFFF"></path>
                <polygon id="Fill-334" fill="#FFFFFF" points="19.7892178 58.1747949 20.1352178 58.1747949 20.1352178 56.9677949 19.7892178 56.9677949"></polygon>
                <polygon id="Fill-335" fill="#FFFFFF" points="31.4932178 57.9167949 31.8392178 57.9167949 31.8392178 56.9677949 31.4932178 56.9677949"></polygon>
                <path d="M19.4622178,58.1748949 C19.4622178,58.4508949 19.6862178,58.6748949 19.9622178,58.6748949 C20.2382178,58.6748949 20.4622178,58.4508949 20.4622178,58.1748949 C20.4622178,57.8988949 20.2382178,57.6748949 19.9622178,57.6748949 C19.6862178,57.6748949 19.4622178,57.8988949 19.4622178,58.1748949" id="Fill-336" fill="#FFFFFF"></path>
                <path d="M31.1664178,58.1748949 C31.1664178,58.4508949 31.3904178,58.6748949 31.6664178,58.6748949 C31.9424178,58.6748949 32.1664178,58.4508949 32.1664178,58.1748949 C32.1664178,57.8988949 31.9424178,57.6748949 31.6664178,57.6748949 C31.3904178,57.6748949 31.1664178,57.8988949 31.1664178,58.1748949" id="Fill-337" fill="#FFFFFF"></path>
                <path d="M14.3332178,11.1211949 C21.1452178,4.4911949 23.4722178,12.3791949 23.4722178,12.3791949 C18.0042178,12.8141949 14.3332178,11.1211949 14.3332178,11.1211949 M26.2532178,0.00419490024 C11.4512178,0.2761949 7.28221784,11.9121949 7.28221784,11.9121949 C7.28221784,11.9121949 14.3672178,16.7661949 33.6822178,14.7021949 C44.5972178,13.5361949 45.8112178,12.7781949 45.8112178,12.7781949 C45.8112178,12.7781949 41.0562178,-0.2678051 26.2532178,0.00419490024" id="Fill-338" fill="#672483"></path>
                <polygon id="Fill-339" fill="#1F70B7" points="21.2302178 12.2983949 21.2302178 15.3523949 23.8562178 15.3523949 23.4722178 12.2983949"></polygon>
                <path d="M15.3745178,63.1399949 C15.3745178,63.1399949 16.7365178,64.0809949 16.9945178,65.4419949 C17.2515178,66.8029949 16.1625178,66.3609949 15.6965178,64.7599949 C15.8415178,67.4749949 15.1635178,67.9269949 14.8855178,67.6789949 C14.4835178,67.3179949 14.5395178,65.8449949 14.5395178,65.8449949 C14.5395178,65.8449949 14.4875178,67.3619949 13.8855178,67.6239949 C13.2835178,67.8859949 13.4775178,65.7549949 13.4775178,65.7549949 C13.4775178,65.7549949 13.2185178,67.1189949 12.7535178,67.1819949 C12.2875178,67.2449949 12.6895178,65.1819949 12.6895178,65.1819949 C12.6895178,65.1819949 12.4335178,65.9819949 11.9725178,65.8489949 C11.5115178,65.7149949 12.0995178,63.1759949 13.5705178,62.4049949" id="Fill-340" fill="#FECEB7"></path>
                <path d="M36.2245178,63.1399949 C36.2245178,63.1399949 34.8625178,64.0809949 34.6045178,65.4419949 C34.3465178,66.8029949 35.4365178,66.3609949 35.9025178,64.7599949 C35.7575178,67.4749949 36.4355178,67.9269949 36.7135178,67.6789949 C37.1155178,67.3179949 37.0595178,65.8449949 37.0595178,65.8449949 C37.0595178,65.8449949 37.1115178,67.3619949 37.7135178,67.6239949 C38.3155178,67.8859949 38.1215178,65.7549949 38.1215178,65.7549949 C38.1215178,65.7549949 38.3805178,67.1189949 38.8455178,67.1819949 C39.3115178,67.2449949 38.9095178,65.1819949 38.9095178,65.1819949 C38.9095178,65.1819949 39.1655178,65.9819949 39.6265178,65.8489949 C40.0875178,65.7149949 39.4995178,63.1759949 38.0285178,62.4049949" id="Fill-341" fill="#FECEB7"></path>
                <path d="M3.15261784,34.4234949 C3.25661784,34.1284949 3.44861784,34.0804949 3.63661784,34.1214949 C3.51561784,33.4264949 3.47161784,32.9924949 3.47161784,32.9924949 C3.46161784,32.9824949 3.45161784,32.9734949 3.44161784,32.9644949 C2.49461784,32.0534949 0.939617843,33.0704949 1.34561784,34.3194949 C1.66061784,35.2864949 2.68361784,35.9044949 4.10361784,36.2324949 C4.00461784,35.8644949 3.92061784,35.5144949 3.84861784,35.1874949 C3.46061784,35.0734949 3.00361784,34.8464949 3.15261784,34.4234949" id="Fill-342" fill="#FEAD8C"></path>
                <path d="M48.6282178,34.4234949 C48.5242178,34.1284949 48.3322178,34.0804949 48.1442178,34.1214949 C48.2652178,33.4264949 48.3092178,32.9924949 48.3092178,32.9924949 C48.3192178,32.9824949 48.3292178,32.9734949 48.3382178,32.9644949 C49.2862178,32.0534949 50.8412178,33.0704949 50.4352178,34.3194949 C50.1202178,35.2864949 49.0972178,35.9044949 47.6772178,36.2324949 C47.7762178,35.8644949 47.8602178,35.5144949 47.9322178,35.1874949 C48.3202178,35.0734949 48.7772178,34.8464949 48.6282178,34.4234949" id="Fill-343" fill="#FEAD8C"></path>
                <path d="M48.5284178,16.9416949 C48.3024178,17.0206949 48.0684178,17.1006949 47.8234178,17.1816949 C42.4164178,18.9786949 32.2464178,21.3566949 22.8704178,20.9136949 C26.5274178,24.0316949 31.4334178,27.0406949 37.8334178,29.0236949 C41.4904178,28.9416949 45.6084178,28.6676949 50.0164178,28.0916949 C50.4364178,28.0366949 50.8594178,27.9806949 51.2844178,27.9206949 C51.1534178,24.3666949 50.3144178,20.4936949 48.5284178,16.9416949" id="Fill-344" fill="#FFC258"></path>
                <path d="M6.46921784,19.2659949 L3.04521784,17.8659949 C3.04521784,17.8659949 1.98821784,19.9199949 1.44421784,21.7139949 C2.66921784,22.5259949 4.32121784,23.4299949 4.32121784,23.4299949 C4.32121784,23.4299949 5.17321784,21.0999949 6.46921784,19.2659949" id="Fill-345" fill="#FFC258"></path>
                <path d="M11.2055178,30.4204949 C11.2055178,29.4284949 12.0095178,28.6244949 13.0015178,28.6244949 C13.9935178,28.6244949 14.7975178,29.4284949 14.7975178,30.4204949 C14.7975178,31.4124949 13.9935178,32.2164949 13.0015178,32.2164949 C12.0095178,32.2164949 11.2055178,31.4124949 11.2055178,30.4204949" id="Fill-346" fill="#FFFFFF"></path>
                <path d="M32.9152178,30.4204949 C32.9152178,29.4284949 33.7192178,28.6244949 34.7112178,28.6244949 C35.7032178,28.6244949 36.5072178,29.4284949 36.5072178,30.4204949 C36.5072178,31.4124949 35.7032178,32.2164949 34.7112178,32.2164949 C33.7192178,32.2164949 32.9152178,31.4124949 32.9152178,30.4204949" id="Fill-347" fill="#FFFFFF"></path>
                <polygon id="Fill-348" fill="#058C36" points="14.9867178 54.5714949 15.5027178 54.1574949 18.3427178 59.3994949 17.7667178 59.6984949"></polygon>
                <polygon id="Fill-349" fill="#058C36" points="33.5801178 59.4681949 33.1351178 59.0491949 35.3801178 53.8211949 35.8911178 54.2461949"></polygon>
                <polygon id="Fill-350" fill="#FFFFFF" points="18.2963178 76.8004949 18.2953178 76.3324949 21.9793178 77.2924949 21.8573178 77.8274949"></polygon>
                <polygon id="Fill-351" fill="#FFFFFF" points="26.3186178 77.9411949 26.3186178 77.4641949 30.0786178 77.3131949 29.9836178 77.7251949"></polygon>
            </g>
        </g>
    </g>
</svg>