<?xml version="1.0" encoding="UTF-8"?>
<svg width="134px" height="117px" viewBox="0 0 134 117" version="1.1" xmlns="http://www.w3.org/2000/svg" xmlns:xlink="http://www.w3.org/1999/xlink">
    <!-- Generator: Sketch 53.1 (72631) - https://sketchapp.com -->
    <title>Group 10013</title>
    <desc>Created with Sketch.</desc>
    <defs>
        <polygon id="path-1" points="0.9404319 0.42 133.754815 0.42 133.754815 116.560365 0.9404319 116.560365"></polygon>
    </defs>
    <g id="Page-1" stroke="none" stroke-width="1" fill="none" fill-rule="evenodd">
        <g id="Group-100">
            <g id="Group-41">
                <mask id="mask-2" fill="white">
                    <use xlink:href="#path-1"></use>
                </mask>
                <g id="Clip-40"></g>
                <path d="M121.3196,60.4352 C132.0556,53.8782 137.3466,38.8372 131.0496,27.3752 C124.2486,14.9932 106.7686,11.7662 95.3656,19.2572 C89.8846,7.0412 76.4996,-1.1318 62.9786,0.6682 C49.7786,2.4252 39.2006,13.3152 36.7506,26.1322 C28.7806,21.2272 17.3896,24.0232 11.6906,31.4862 C4.4546,40.9612 8.0326,54.3872 15.7626,62.4792 C10.0996,64.9582 6.1826,71.1262 7.7336,77.5272 C8.9826,82.6852 13.5926,86.2792 18.6356,87.1182 C14.9476,91.1592 11.4386,94.9042 6.6046,97.9042 C3.2326,99.9972 -1.2484,103.1072 2.1556,107.1872 C2.7376,107.8852 3.7286,107.9122 4.5266,107.5932 C11.1626,107.3542 17.5696,105.6442 23.3366,102.6452 C26.6386,101.3932 29.8356,99.9452 32.7976,98.4962 C36.3336,103.5992 41.6816,107.1732 47.9306,108.0702 C52.4246,108.7142 59.3176,107.9042 62.9876,104.4652 C65.0486,113.3492 74.0536,116.9252 82.7516,116.5312 C85.1536,116.4222 87.5766,116.0392 89.8546,115.2722 C93.0476,114.7492 96.0786,113.5172 98.2866,111.1132 C100.3286,108.8902 101.4336,105.8632 101.2036,102.9442 C112.0276,105.5362 123.2576,96.7102 127.9596,87.1872 C130.8536,81.3232 132.0026,74.2722 129.0486,68.1942 C127.3956,64.7932 124.6456,61.9982 121.3196,60.4352" id="Fill-39" fill="#FFFDFE" mask="url(#mask-2)"></path>
            </g>
            <path d="M117.469,60.2599 C127.432,54.1759 132.341,40.2189 126.498,29.5839 C120.187,18.0939 103.968,15.0999 93.387,22.0519 C88.301,10.7159 75.881,3.1319 63.334,4.8019 C51.086,6.4329 41.271,16.5369 38.997,28.4309 C31.603,23.8789 21.033,26.4729 15.744,33.3979 C9.031,42.1909 12.35,54.6479 19.523,62.1559 C14.269,64.4569 10.634,70.1809 12.073,76.1199 C13.361,81.4359 18.494,84.9719 23.755,85.1909 C19.263,91.1469 13.867,96.3209 7.692,100.5609 C6.247,101.5529 6.666,104.0889 8.634,104.0399 C18.495,103.7949 27.844,100.0549 35.103,93.4839 C39.913,104.5659 54.382,108.0129 63.571,100.1569 C66.302,107.1289 74.38,110.6329 81.719,111.3089 C86.668,111.7659 92.535,111.1609 96.097,107.2839 C97.992,105.2209 99.018,102.4129 98.803,99.7039 C108.848,102.1089 119.268,93.9199 123.63,85.0829 C126.317,79.6419 127.382,73.0999 124.641,67.4599 C123.108,64.3039 120.556,61.7109 117.469,60.2599" id="Fill-42" fill="#7DA81E"></path>
            <path d="M63.7796,99.32 L64.0366,99.974 C66.7946,107.013 75.0026,110.188 81.7646,110.811 C86.1416,111.214 92.1206,110.873 95.7286,106.946 C97.5436,104.972 98.5066,102.279 98.3046,99.744 L98.2506,99.058 L98.9196,99.218 C108.5276,101.521 118.8056,93.727 123.1816,84.862 C126.1796,78.79 126.5476,72.527 124.1916,67.679 C122.6856,64.581 120.2226,62.107 117.2566,60.713 L116.4156,60.318 L117.2086,59.833 C127.4926,53.553 131.5466,39.811 126.0596,29.824 C123.2646,24.736 118.3566,21.096 112.2396,19.576 C105.8006,17.975 98.8566,19.057 93.6616,22.469 L93.1716,22.792 L92.9306,22.256 C87.8066,10.834 75.3976,3.704 63.4006,5.298 C51.6356,6.864 41.8026,16.415 39.4886,28.525 L39.3526,29.237 L38.7356,28.857 C31.7666,24.567 21.4216,26.787 16.1416,33.702 C9.4736,42.434 13.0926,54.702 19.8846,61.811 L20.3786,62.328 L19.7226,62.614 C15.0476,64.662 11.0856,69.918 12.5586,76.002 C13.7246,80.816 18.4426,84.47 23.7756,84.691 L24.7286,84.731 L24.1546,85.492 C19.6156,91.51 14.1716,96.719 7.9746,100.973 C7.3676,101.39 7.2286,102.162 7.4066,102.709 C7.4896,102.966 7.8056,103.563 8.6216,103.54 C18.3216,103.299 27.6066,99.595 34.7666,93.113 L35.2836,92.645 L35.5616,93.284 C37.8066,98.457 42.3006,102.163 47.8896,103.454 C53.4266,104.732 59.0196,103.391 63.2456,99.777 L63.7796,99.32 Z M84.5016,111.941 C83.5146,111.941 82.5626,111.889 81.6736,111.807 C74.8156,111.175 66.5186,107.991 63.3696,100.97 C58.9666,104.465 53.2846,105.725 47.6656,104.429 C41.9906,103.118 37.3836,99.447 34.9286,94.308 C27.6636,100.67 18.3566,104.298 8.6466,104.54 C7.6346,104.565 6.7676,103.983 6.4556,103.017 C6.1096,101.951 6.5016,100.772 7.4086,100.149 C13.2646,96.128 18.4386,91.243 22.7996,85.618 C17.4206,85.014 12.7866,81.19 11.5866,76.237 C10.2226,70.608 13.1946,64.725 18.6886,61.994 C11.9216,54.518 8.4996,42.063 15.3466,33.095 C20.7726,25.99 31.2796,23.591 38.6466,27.648 C41.2766,15.45 51.3076,5.899 63.2676,4.306 C75.5006,2.68 88.1596,9.813 93.6016,21.322 C98.9656,18.006 105.9756,16.989 112.4806,18.605 C118.8716,20.194 124.0056,24.007 126.9366,29.343 C132.5376,39.537 128.6486,53.463 118.4766,60.211 C121.2936,61.751 123.6226,64.219 125.0916,67.242 C127.5836,72.37 127.2146,78.953 124.0786,85.304 C119.6256,94.325 109.2396,102.265 99.3306,100.33 C99.3516,102.936 98.3066,105.619 96.4656,107.623 C93.3316,111.034 88.6216,111.941 84.5016,111.941 L84.5016,111.941 Z" id="Fill-44" fill="#000000"></path>
            <path d="M40.4085,55.6027 C43.2145,52.9777 44.6165,49.8567 44.6165,46.2427 L44.6165,46.2157 C44.6165,44.1477 44.3645,42.7007 43.8615,41.8737 C43.6095,41.4777 43.4065,41.1677 43.2545,40.9427 C43.1015,40.7177 42.7915,40.4167 42.3235,40.0387 C41.7655,39.5897 40.9125,38.9517 39.7615,38.1237 C39.7615,40.0657 39.8695,42.9787 40.0855,46.8637 C40.3015,50.7477 40.4085,53.6607 40.4085,55.6027 M37.8195,75.9137 L38.0895,56.1957 C38.0895,47.5287 37.6125,40.9567 36.6595,36.4777 C37.2345,35.6517 37.9445,35.2377 38.7905,35.2377 C40.1565,35.2377 41.4015,35.5437 42.5255,36.1547 C43.6495,36.7667 44.5625,37.5757 45.2635,38.5817 C46.7205,40.6857 47.4485,43.0867 47.4485,45.7847 C47.4485,48.4817 46.8645,50.9317 45.6955,53.1347 C44.5265,55.3377 42.8095,57.0507 40.5435,58.2727 L40.9745,75.4817 C40.9745,77.0107 40.3635,77.7747 39.1405,77.7747 C38.6915,77.7747 38.3585,77.5817 38.1425,77.1947 C37.9275,76.8087 37.8195,76.3817 37.8195,75.9137" id="Fill-46" fill="#000000"></path>
            <path d="M57.6448,67.363 C57.5368,66.823 57.4828,65.884 57.4828,64.545 C57.4828,63.205 57.4068,61.542 57.2528,59.554 C57.1008,57.568 56.8798,55.257 56.5928,52.622 C56.3048,49.988 56.1078,48.077 55.9988,46.89 C54.3278,56.152 53.2488,62.679 52.7628,66.473 C53.3918,66.887 55.0188,67.184 57.6448,67.363 M60.5308,66.257 L61.1238,69.656 C61.1238,70.106 61.2998,71.203 61.6508,72.946 C62.0008,74.691 62.1758,75.833 62.1758,76.372 L62.1758,76.426 C62.1758,77.236 61.8708,77.757 61.2588,77.991 C60.4858,77.991 59.8828,77.865 59.4528,77.613 C59.0208,77.362 58.8048,76.876 58.8048,76.156 C58.8048,74.592 58.5348,72.318 57.9958,69.332 L52.5468,68.523 C52.2058,69.746 51.9438,71.086 51.7648,72.542 C51.5838,73.999 51.4148,75.06 51.2518,75.725 C50.9278,77.092 50.3258,77.775 49.4448,77.775 C49.0128,77.775 48.6128,77.635 48.2448,77.357 C47.8748,77.078 47.6918,76.723 47.6918,76.291 L47.8268,75.806 C50.3078,66.221 52.1508,56.888 53.3558,47.807 C53.3918,47.556 53.4458,46.819 53.5178,45.595 C53.6978,42.898 54.0398,41.181 54.5428,40.444 L56.4038,40.444 C56.9078,40.444 57.3478,40.561 57.7258,40.794 C58.1038,41.028 58.2918,41.379 58.2918,41.846 C58.2918,44.652 58.6658,48.815 59.4118,54.335 C60.1578,59.856 60.5308,63.83 60.5308,66.257" id="Fill-48" fill="#000000"></path>
            <path d="M68.0022,42.7092 L67.8142,43.4912 C67.8142,45.0022 67.8502,47.1832 67.9212,50.0322 C67.9932,52.8832 68.0292,54.9552 68.0292,56.2502 C68.8932,55.8012 69.5892,54.6272 70.1202,52.7302 C70.6492,50.8332 70.9152,49.3812 70.9152,48.3742 C70.9152,47.3672 70.8892,46.6252 70.8342,46.1482 C70.7802,45.6722 70.6632,45.1462 70.4832,44.5702 C70.1242,43.3832 69.2972,42.7632 68.0022,42.7092 L68.0022,42.7092 Z M67.7862,58.9742 L67.7322,64.9622 C67.7322,69.8352 68.0832,73.6752 68.7842,76.4802 L68.1642,77.9632 L66.6272,77.9632 L65.8982,77.1542 C65.9352,75.5002 65.9522,73.6442 65.9522,71.5842 C65.9522,69.5252 65.7952,65.1242 65.4812,58.3812 C65.1652,51.6372 65.0082,46.6032 65.0082,43.2752 C65.0082,41.5322 65.6192,40.6592 66.8432,40.6592 C68.7672,40.6592 70.3852,41.1632 71.6972,42.1692 C73.0102,43.1772 73.6672,44.6152 73.6672,46.4852 L73.6672,50.3702 C73.6672,51.4312 73.4692,52.3972 73.0732,53.2692 C72.6782,54.1422 72.2192,55.0592 71.6972,56.0212 C71.1762,56.9832 70.8892,57.5182 70.8342,57.6262 C71.0322,58.5252 71.3832,60.2872 71.8872,62.9122 C72.9662,68.6492 74.1612,72.7762 75.4742,75.2932 C75.8522,76.0132 76.0402,76.5742 76.0402,76.9792 C76.0402,77.3842 75.9282,77.7252 75.7032,78.0042 C75.4792,78.2832 75.1772,78.4222 74.8002,78.4222 C74.0262,78.4222 73.2842,77.5362 72.5742,75.7652 C71.8632,73.9942 71.2932,72.0292 70.8612,69.8722 C69.5492,63.2722 68.7482,59.6402 68.4612,58.9742 L67.7862,58.9742 Z" id="Fill-50" fill="#000000"></path>
            <path d="M81.759,76.5881 L81.652,72.3531 C81.652,72.3361 81.678,71.7061 81.733,70.4651 C81.588,69.9981 81.296,65.8441 80.856,58.0031 C80.415,50.1631 80.177,45.3711 80.141,43.6261 L79.925,43.6261 C76.94,43.5721 75.447,43.0241 75.447,41.9811 C75.447,41.6401 75.645,41.3571 76.041,41.1311 C76.437,40.9071 76.823,40.7941 77.2,40.7941 L84.699,41.3071 L85.589,41.2791 C86.74,41.2791 87.316,41.7201 87.316,42.6011 C87.316,43.0511 87.127,43.4151 86.749,43.6941 C86.372,43.9731 85.949,44.1121 85.482,44.1121 L82.946,43.7341 L82.838,44.3011 C82.838,47.7901 83.144,53.0131 83.755,59.9721 C84.366,66.9311 84.672,72.1641 84.672,75.6711 C84.672,76.1031 84.475,76.4851 84.079,76.8171 C83.683,77.1501 83.252,77.3171 82.784,77.3171 L81.759,76.5881 Z" id="Fill-52" fill="#000000"></path>
            <path d="M97.7005,74.5383 C97.7005,77.0023 97.0975,78.2333 95.8935,78.2333 C95.2275,78.2333 94.7155,77.8293 94.3555,77.0193 C94.7695,76.2103 94.9755,73.0913 94.9755,67.6603 C94.9755,66.6713 94.8775,65.2683 94.6795,63.4523 C94.4815,61.6363 94.3645,60.3413 94.3295,59.5673 L94.3295,58.1383 C94.2575,57.9763 93.6815,56.5193 92.6025,53.7683 C90.1565,47.6013 88.9335,43.9233 88.9335,42.7363 L88.9335,42.4393 L90.1755,41.5223 C91.3075,41.5403 92.6565,44.3913 94.2215,50.0733 C94.9045,52.5553 95.2465,53.8053 95.2465,53.8223 C95.3895,53.4093 95.6785,52.0333 96.1095,49.6953 C97.2065,43.7253 98.3565,40.7403 99.5615,40.7403 C99.9035,40.7403 100.2135,40.8483 100.4925,41.0643 C100.7705,41.2793 100.9105,41.5593 100.9105,41.9003 C100.9105,43.7343 100.3845,46.4003 99.3325,49.8973 C98.2805,53.3953 97.7365,56.0613 97.7005,57.8953 L97.7005,74.5383 Z" id="Fill-54" fill="#000000"></path>
            <path d="M106.8714,62.8317 L106.9254,65.4477 C106.9254,67.9657 106.5834,69.2247 105.9004,69.2247 C105.5224,69.2247 105.1764,68.7747 104.8614,67.8757 C104.5474,66.9767 104.3904,65.8437 104.3904,64.4767 L104.6054,55.3327 L104.3364,37.2067 C104.3364,36.6317 104.5784,36.1327 105.0644,35.7097 C105.5504,35.2877 106.0354,35.0757 106.5204,35.0757 C107.0064,35.0757 107.3794,35.2067 107.6404,35.4667 C107.9004,35.7277 108.0314,36.0467 108.0314,36.4247 C108.0314,39.3737 107.8384,43.7797 107.4514,49.6417 C107.0644,55.5037 106.8714,59.9007 106.8714,62.8317 M107.6274,76.7767 C107.6274,78.0717 106.7194,78.7187 104.9024,78.7187 C104.4884,78.7187 104.0794,78.5257 103.6754,78.1387 C103.2704,77.7517 103.0684,77.2397 103.0684,76.6017 C103.0684,75.9637 103.2934,75.3877 103.7424,74.8747 C104.1914,74.3627 104.7494,74.1067 105.4154,74.1067 C106.0804,74.1067 106.6154,74.3677 107.0194,74.8887 C107.4244,75.4107 107.6274,76.0397 107.6274,76.7767" id="Fill-56" fill="#000000"></path>
        </g>
    </g>
</svg>