<?xml version="1.0" encoding="UTF-8"?>
<svg width="138px" height="166px" viewBox="0 0 138 166" version="1.1" xmlns="http://www.w3.org/2000/svg" xmlns:xlink="http://www.w3.org/1999/xlink">
    <!-- Generator: Sketch 53.1 (72631) - https://sketchapp.com -->
    <title>Group 414sticker1</title>
    <desc>Created with Sketch.</desc>
    <defs>
        <polygon id="path-1" points="0.668082702 0.4717 137.9774 0.4717 137.9774 166 0.668082702 166"></polygon>
    </defs>
    <g id="Page-1" stroke="none" stroke-width="1" fill="none" fill-rule="evenodd">
        <g id="Group-414">
            <g id="Group-296">
                <mask id="mask-2" fill="white">
                    <use xlink:href="#path-1"></use>
                </mask>
                <g id="Clip-295"></g>
                <path d="M29.0064,24.6697 C28.9584,26.3647 25.3034,27.3027 26.4924,33.8577 C27.6834,40.4137 30.7454,65.1457 30.6664,66.6287 C30.5874,68.1137 24.5124,69.0257 23.4544,71.8027 C22.3964,74.5807 26.6234,100.8897 26.4904,101.6617 C26.3594,102.4337 1.3504,104.1887 0.6894,108.0057 C0.0274,111.8227 14.9884,161.6797 17.1044,164.4567 C19.2204,167.2337 123.2894,165.6477 124.6164,164.4567 C125.9434,163.2667 137.9774,130.7577 137.9774,106.7257 C137.9774,104.6817 108.3544,102.7417 108.3544,101.6617 C108.3544,100.5817 114.3054,70.9197 113.5114,68.5597 C112.7184,66.1977 100.4404,64.3507 100.0324,64.0187 C99.6254,63.6857 105.5764,29.7327 105.1804,26.6077 C104.7834,23.4827 102.0164,24.9667 101.8134,23.7617 C101.6104,22.5567 102.2714,9.2877 97.7744,7.1277 C93.2774,4.9677 87.2784,12.5097 86.0464,12.2427 C84.8144,11.9777 80.3564,0.4717 75.4444,0.4717 C70.5314,0.4717 65.5814,11.4557 64.5524,11.3857 C63.5234,11.3157 58.7364,1.5297 54.3854,1.3977 C50.0334,1.2647 46.8514,15.1357 45.2694,15.6067 C43.6864,16.0767 38.7894,5.4417 33.8314,6.5937 C28.8744,7.7457 29.1384,20.0377 29.0064,24.6697" id="Fill-294" fill="#F8FFFF" mask="url(#mask-2)"></path>
            </g>
            <path d="M38.2427,40.2493 C37.2927,38.9883 34.4687,27.1833 34.5767,25.8083 C34.6847,24.4333 39.8987,23.2383 40.6597,23.9993 C41.4197,24.7593 44.0087,38.9883 44.0087,38.9883 L38.2427,40.2493 Z" id="Fill-297" fill="#62408A"></path>
            <path d="M38.2427,40.2493 C37.2927,38.9883 34.4687,27.1833 34.5767,25.8083 C34.6847,24.4333 39.8987,23.2383 40.6597,23.9993 C41.4197,24.7593 44.0087,38.9883 44.0087,38.9883 L38.2427,40.2493 Z" id="Stroke-299" stroke="#000000"></path>
            <path d="M36.4566,21.9651 C41.6726,20.4651 35.8386,12.0251 34.5736,12.2471 C32.8996,12.5421 30.7436,23.6081 36.4566,21.9651" id="Fill-301" fill="#FFDD00"></path>
            <path d="M36.4566,21.9651 C41.6726,20.4651 35.8386,12.0251 34.5736,12.2471 C32.8996,12.5421 30.7436,23.6081 36.4566,21.9651 Z" id="Stroke-303" stroke="#000000"></path>
            <path d="M54.5445,38.1155 C53.6825,36.6135 52.2225,23.3745 52.5285,21.8915 C52.8355,20.4095 58.6755,19.8225 59.3985,20.7535 C60.1225,21.6855 60.9945,37.5315 60.9945,37.5315 L54.5445,38.1155 Z" id="Fill-305" fill="#DF51CD"></path>
            <path d="M54.5445,38.1155 C53.6825,36.6135 52.2225,23.3745 52.5285,21.8915 C52.8355,20.4095 58.6755,19.8225 59.3985,20.7535 C60.1225,21.6855 60.9945,37.5315 60.9945,37.5315 L54.5445,38.1155 Z" id="Stroke-307" stroke="#000000"></path>
            <path d="M55.6617,17.9651 C61.5447,17.0461 56.3477,7.0581 54.9397,7.1281 C53.0767,7.2201 49.2167,18.9721 55.6617,17.9651" id="Fill-309" fill="#FFDD00"></path>
            <path d="M55.6617,17.9651 C61.5447,17.0461 56.3477,7.0581 54.9397,7.1281 C53.0767,7.2201 49.2167,18.9721 55.6617,17.9651 Z" id="Stroke-311" stroke="#000000"></path>
            <path d="M91.813,40.2493 C92.763,38.9883 95.587,27.1833 95.479,25.8083 C95.37,24.4333 90.156,23.2383 89.396,23.9993 C88.635,24.7593 86.046,38.9883 86.046,38.9883 L91.813,40.2493 Z" id="Fill-313" fill="#DF51CD"></path>
            <path d="M91.813,40.2493 C92.763,38.9883 95.587,27.1833 95.479,25.8083 C95.37,24.4333 90.156,23.2383 89.396,23.9993 C88.635,24.7593 86.046,38.9883 86.046,38.9883 L91.813,40.2493 Z" id="Stroke-315" stroke="#000000"></path>
            <path d="M93.5982,21.9651 C88.3822,20.4651 94.2162,12.0251 95.4822,12.2471 C97.1562,12.5421 99.3112,23.6081 93.5982,21.9651" id="Fill-317" fill="#FFDD00"></path>
            <path d="M93.5982,21.9651 C88.3822,20.4651 94.2162,12.0251 95.4822,12.2471 C97.1562,12.5421 99.3112,23.6081 93.5982,21.9651 Z" id="Stroke-319" stroke="#000000"></path>
            <path d="M76.0904,37.466 C76.8944,35.932 77.8484,22.647 77.4864,21.177 C77.1224,19.708 71.2654,19.343 70.5774,20.302 C69.8894,21.261 69.6224,37.129 69.6224,37.129 L76.0904,37.466 Z" id="Fill-321" fill="#62408A"></path>
            <path d="M76.0904,37.466 C76.8944,35.932 77.8484,22.647 77.4864,21.177 C77.1224,19.708 71.2654,19.343 70.5774,20.302 C69.8894,21.261 69.6224,37.129 69.6224,37.129 L76.0904,37.466 Z" id="Stroke-323" stroke="#000000"></path>
            <path d="M74.2056,17.3518 C68.2906,16.6578 73.1026,6.4788 74.5126,6.4948 C76.3776,6.5158 80.6836,18.1118 74.2056,17.3518" id="Fill-325" fill="#FFDD00"></path>
            <path d="M74.2056,17.3518 C68.2906,16.6578 73.1026,6.4788 74.5126,6.4948 C76.3776,6.5158 80.6836,18.1118 74.2056,17.3518 Z" id="Stroke-327" stroke="#000000"></path>
            <path d="M36.1568,21.633 C39.3898,20.703 35.7728,15.47 34.9888,15.609 C33.9518,15.792 32.6148,22.652 36.1568,21.633" id="Fill-329" fill="#FF5622"></path>
            <path d="M55.5552,17.3493 C59.2022,16.7793 55.9812,10.5883 55.1082,10.6313 C53.9532,10.6883 51.5602,17.9743 55.5552,17.3493" id="Fill-331" fill="#FF5622"></path>
            <path d="M93.6617,21.321 C90.4287,20.391 94.0447,15.158 94.8287,15.297 C95.8667,15.48 97.2027,22.34 93.6617,21.321" id="Fill-333" fill="#FF5622"></path>
            <path d="M74.313,17.1653 C70.647,16.7343 73.629,10.4243 74.503,10.4343 C75.66,10.4473 78.329,17.6363 74.313,17.1653" id="Fill-335" fill="#FF5622"></path>
            <path d="M34.2056,39.573 C32.5816,40.222 36.3386,65.764 43.8396,73.776 C51.3416,81.786 86.0466,77.368 90.7646,72.223 C94.6086,68.03 98.0486,47.309 96.1916,36.627 C96.0226,35.656 62.6676,28.195 34.2056,39.573" id="Fill-337" fill="#FFF8DC"></path>
            <path d="M34.2056,39.573 C32.5816,40.222 36.3386,65.764 43.8396,73.776 C51.3416,81.786 86.0466,77.368 90.7646,72.223 C94.6086,68.03 98.0486,47.309 96.1916,36.627 C96.0226,35.656 62.6676,28.195 34.2056,39.573 Z" id="Stroke-339" stroke="#000000"></path>
            <path d="M59.9078,60.9783 C49.8858,57.1353 42.6788,47.6413 41.1128,37.1913 C38.7918,37.8743 36.4828,38.6623 34.2058,39.5733 C32.5828,40.2213 36.3388,65.7643 43.8398,73.7753 C51.3418,81.7863 86.0468,77.3683 90.7638,72.2233 C92.5008,70.3303 94.1508,65.0653 95.2718,58.8803 C83.8318,63.1023 71.4308,65.3963 59.9078,60.9783" id="Fill-341" fill="#FFE473"></path>
            <g id="Group-391" transform="translate(37.000000, 38.000000)" fill="#FFE473">
                <path d="M22.3658,19.0637 C22.3658,19.6127 21.9208,20.0577 21.3718,20.0577 C20.8228,20.0577 20.3788,19.6127 20.3788,19.0637 C20.3788,18.5147 20.8228,18.0697 21.3718,18.0697 C21.9208,18.0697 22.3658,18.5147 22.3658,19.0637" id="Fill-343"></path>
                <path d="M35.7672,7.6311 C35.7672,8.1801 35.3222,8.6251 34.7732,8.6251 C34.2242,8.6251 33.7802,8.1801 33.7802,7.6311 C33.7802,7.0821 34.2242,6.6371 34.7732,6.6371 C35.3222,6.6371 35.7672,7.0821 35.7672,7.6311" id="Fill-345"></path>
                <path d="M42.6177,1.5022 C42.6177,2.0512 42.1727,2.4962 41.6237,2.4962 C41.0747,2.4962 40.6297,2.0512 40.6297,1.5022 C40.6297,0.9532 41.0747,0.5082 41.6237,0.5082 C42.1727,0.5082 42.6177,0.9532 42.6177,1.5022" id="Fill-347"></path>
                <path d="M56.0152,1.6897 C56.0152,2.2387 55.5702,2.6837 55.0212,2.6837 C54.4722,2.6837 54.0272,2.2387 54.0272,1.6897 C54.0272,1.1407 54.4722,0.6957 55.0212,0.6957 C55.5702,0.6957 56.0152,1.1407 56.0152,1.6897" id="Fill-349"></path>
                <path d="M10.981,29.5071 C10.981,30.0561 10.536,30.5011 9.987,30.5011 C9.438,30.5011 8.994,30.0561 8.994,29.5071 C8.994,28.9581 9.438,28.5131 9.987,28.5131 C10.536,28.5131 10.981,28.9581 10.981,29.5071" id="Fill-351"></path>
                <path d="M29.2652,12.8562 C29.2652,13.4052 28.8202,13.8502 28.2712,13.8502 C27.7222,13.8502 27.2772,13.4052 27.2772,12.8562 C27.2772,12.3072 27.7222,11.8622 28.2712,11.8622 C28.8202,11.8622 29.2652,12.3072 29.2652,12.8562" id="Fill-353"></path>
                <path d="M42.1548,13.5305 C42.1548,14.0795 41.7098,14.5245 41.1608,14.5245 C40.6118,14.5245 40.1668,14.0795 40.1668,13.5305 C40.1668,12.9815 40.6118,12.5365 41.1608,12.5365 C41.7098,12.5365 42.1548,12.9815 42.1548,13.5305" id="Fill-355"></path>
                <path d="M53.8287,14.0906 C53.8287,14.6396 53.3847,15.0846 52.8357,15.0846 C52.2867,15.0846 51.8417,14.6396 51.8417,14.0906 C51.8417,13.5416 52.2867,13.0966 52.8357,13.0966 C53.3847,13.0966 53.8287,13.5416 53.8287,14.0906" id="Fill-357"></path>
                <path d="M48.6334,8.1985 C48.6334,8.7475 48.1894,9.1925 47.6404,9.1925 C47.0914,9.1925 46.6464,8.7475 46.6464,8.1985 C46.6464,7.6495 47.0914,7.2045 47.6404,7.2045 C48.1894,7.2045 48.6334,7.6495 48.6334,8.1985" id="Fill-359"></path>
                <path d="M27.1627,25.0242 C27.1627,25.5732 26.7177,26.0182 26.1687,26.0182 C25.6197,26.0182 25.1747,25.5732 25.1747,25.0242 C25.1747,24.4752 25.6197,24.0302 26.1687,24.0302 C26.7177,24.0302 27.1627,24.4752 27.1627,25.0242" id="Fill-361"></path>
                <path d="M34.9439,20.2551 C34.9439,20.8041 34.4989,21.2491 33.9499,21.2491 C33.4009,21.2491 32.9559,20.8041 32.9559,20.2551 C32.9559,19.7061 33.4009,19.2611 33.9499,19.2611 C34.4989,19.2611 34.9439,19.7061 34.9439,20.2551" id="Fill-363"></path>
                <path d="M48.0367,21.7771 C48.0367,22.3261 47.5917,22.7711 47.0427,22.7711 C46.4937,22.7711 46.0497,22.3261 46.0497,21.7771 C46.0497,21.2281 46.4937,20.7831 47.0427,20.7831 C47.5917,20.7831 48.0367,21.2281 48.0367,21.7771" id="Fill-365"></path>
                <path d="M51.1002,28.6291 C51.1002,29.1781 50.6552,29.6231 50.1062,29.6231 C49.5572,29.6231 49.1132,29.1781 49.1132,28.6291 C49.1132,28.0801 49.5572,27.6351 50.1062,27.6351 C50.6552,27.6351 51.1002,28.0801 51.1002,28.6291" id="Fill-367"></path>
                <path d="M41.4976,25.0242 C41.4976,25.5732 41.0536,26.0182 40.5046,26.0182 C39.9556,26.0182 39.5106,25.5732 39.5106,25.0242 C39.5106,24.4752 39.9556,24.0302 40.5046,24.0302 C41.0536,24.0302 41.4976,24.4752 41.4976,25.0242" id="Fill-369"></path>
                <path d="M34.9439,28.3542 C34.9439,28.9032 34.4989,29.3482 33.9499,29.3482 C33.4009,29.3482 32.9559,28.9032 32.9559,28.3542 C32.9559,27.8052 33.4009,27.3602 33.9499,27.3602 C34.4989,27.3602 34.9439,27.8052 34.9439,28.3542" id="Fill-371"></path>
                <path d="M15.0826,3.4895 C15.0826,4.0385 14.6386,4.4835 14.0896,4.4835 C13.5406,4.4835 13.0956,4.0385 13.0956,3.4895 C13.0956,2.9405 13.5406,2.4955 14.0896,2.4955 C14.6386,2.4955 15.0826,2.9405 15.0826,3.4895" id="Fill-373"></path>
                <path d="M16.0767,14.0906 C16.0767,14.6396 15.6317,15.0846 15.0827,15.0846 C14.5337,15.0846 14.0897,14.6396 14.0897,14.0906 C14.0897,13.5416 14.5337,13.0966 15.0827,13.0966 C15.6317,13.0966 16.0767,13.5416 16.0767,14.0906" id="Fill-375"></path>
                <path d="M6.5425,20.2551 C6.5425,20.8041 6.0975,21.2491 5.5485,21.2491 C4.9995,21.2491 4.5555,20.8041 4.5555,20.2551 C4.5555,19.7061 4.9995,19.2611 5.5485,19.2611 C6.0975,19.2611 6.5425,19.7061 6.5425,20.2551" id="Fill-377"></path>
                <path d="M2.9009,4.4836 C2.9009,5.0326 2.4559,5.4776 1.9069,5.4776 C1.3579,5.4776 0.9129,5.0326 0.9129,4.4836 C0.9129,3.9346 1.3579,3.4896 1.9069,3.4896 C2.4559,3.4896 2.9009,3.9346 2.9009,4.4836" id="Fill-379"></path>
                <path d="M19.4429,29.5071 C19.4429,30.0561 18.9979,30.5011 18.4489,30.5011 C17.8999,30.5011 17.4559,30.0561 17.4559,29.5071 C17.4559,28.9581 17.8999,28.5131 18.4489,28.5131 C18.9979,28.5131 19.4429,28.9581 19.4429,29.5071" id="Fill-381"></path>
                <path d="M12.7232,23.0368 C12.7232,23.5858 12.2792,24.0308 11.7302,24.0308 C11.1812,24.0308 10.7362,23.5858 10.7362,23.0368 C10.7362,22.4878 11.1812,22.0428 11.7302,22.0428 C12.2792,22.0428 12.7232,22.4878 12.7232,23.0368" id="Fill-383"></path>
                <path d="M22.3658,8.6252 C22.3658,9.1742 21.9208,9.6192 21.3718,9.6192 C20.8228,9.6192 20.3788,9.1742 20.3788,8.6252 C20.3788,8.0762 20.8228,7.6312 21.3718,7.6312 C21.9208,7.6312 22.3658,8.0762 22.3658,8.6252" id="Fill-385"></path>
                <path d="M28.9332,2.4958 C28.9332,3.0448 28.4882,3.4898 27.9392,3.4898 C27.3902,3.4898 26.9462,3.0448 26.9462,2.4958 C26.9462,1.9468 27.3902,1.5018 27.9392,1.5018 C28.4882,1.5018 28.9332,1.9468 28.9332,2.4958" id="Fill-387"></path>
                <path d="M8.2691,11.3904 C8.2691,11.9394 7.8241,12.3844 7.2751,12.3844 C6.7261,12.3844 6.2811,11.9394 6.2811,11.3904 C6.2811,10.8414 6.7261,10.3964 7.2751,10.3964 C7.8241,10.3964 8.2691,10.8414 8.2691,11.3904" id="Fill-389"></path>
            </g>
            <path d="M30.0494,76.0134 C28.2494,76.6554 37.4244,109.8784 37.7844,110.5134 C38.1454,111.1484 98.8904,109.8754 99.7974,109.5764 C100.7054,109.2764 106.3224,73.5574 105.6624,72.5274 C105.0014,71.4974 57.5294,66.2104 30.0494,76.0134" id="Fill-392" fill="#FF5622"></path>
            <path d="M30.0494,76.0134 C28.2494,76.6554 37.4244,109.8784 37.7844,110.5134 C38.1454,111.1484 98.8904,109.8754 99.7974,109.5764 C100.7054,109.2764 106.3224,73.5574 105.6624,72.5274 C105.0014,71.4974 57.5294,66.2104 30.0494,76.0134 Z" id="Stroke-394" stroke="#000000"></path>
            <polygon id="Fill-396" fill="#ED1C24" points="32.8824 92.363 32.3914 90.435 39.6874 78.004 50.9944 86.205 60.0274 76.347 70.9144 85.353 80.8354 75.829 89.8984 85.894 99.6124 77.58 104.4264 84.004 104.1414 85.955 99.3884 79.614 89.7714 87.844 80.7624 77.838 70.9844 87.225 60.1594 78.273 51.1834 88.07 40.1134 80.041"></polygon>
            <polygon id="Fill-398" fill="#ED1C24" points="35.1207 101.0613 34.3167 98.0083 41.3947 85.9473 52.0657 93.6873 60.5457 84.4323 70.7667 92.8863 80.1057 83.9183 88.6137 93.3683 97.7457 85.5523 103.0997 92.6973 102.6007 95.7633 97.3877 88.8053 88.4107 96.4883 79.9887 87.1343 70.8777 95.8823 60.7587 87.5133 52.3677 96.6703 42.0767 89.2073"></polygon>
            <polygon id="Fill-400" fill="#ED1C24" points="36.6656 109.7327 35.7006 109.1667 43.7406 95.4667 53.4776 102.5297 61.2606 94.0357 70.6426 101.7947 79.1866 93.5907 86.9966 102.2647 95.3646 95.1017 101.3296 103.0607 101.0476 104.5507 95.1856 96.7287 86.8946 103.8237 79.1286 95.1987 70.6976 103.2927 61.3666 95.5757 53.6296 104.0217 44.0816 97.0967"></polygon>
            <path d="M10.6714,112.4709 C8.3144,113.2169 20.2744,157.1709 21.4164,158.3249 C22.5594,159.4799 119.0674,158.8039 120.8534,157.2169 C123.2644,155.0729 130.6584,112.2299 129.9984,110.8029 C129.3384,109.3759 52.0824,99.3789 10.6714,112.4709" id="Fill-402" fill="#41387A"></path>
            <path d="M10.6714,112.4709 C8.3144,113.2169 20.2744,157.1709 21.4164,158.3249 C22.5594,159.4799 119.0674,158.8039 120.8534,157.2169 C123.2644,155.0729 130.6584,112.2299 129.9984,110.8029 C129.3384,109.3759 52.0824,99.3789 10.6714,112.4709 Z" id="Stroke-404" stroke="#000000"></path>
            <path d="M73.3843,145.0832 C64.0743,142.0922 55.1323,137.5232 47.8373,130.9442 C40.8193,124.6152 35.8563,116.3532 31.5553,108.0052 C24.0333,109.0392 16.9403,110.4892 10.6713,112.4712 C8.3143,113.2162 20.2743,157.1702 21.4163,158.3252 C22.5593,159.4792 119.0673,158.8042 120.8533,157.2172 C121.5203,156.6242 122.5693,152.9122 123.7223,147.8272 C107.0773,151.2192 89.5833,150.2872 73.3843,145.0832" id="Fill-406" fill="#62408A"></path>
            <path d="M92.5142,42.5867 C92.3712,44.4327 92.3112,46.2787 92.3302,48.1287 C92.3422,49.2087 94.0212,49.2117 94.0092,48.1287 C93.9902,46.2787 94.0502,44.4327 94.1932,42.5867 C94.2752,41.5097 92.5962,41.5147 92.5142,42.5867" id="Fill-408" fill="#FFF1B6"></path>
            <path d="M92.0845,51.5657 C92.0165,52.6817 91.9475,53.7987 91.8795,54.9147 C91.8135,55.9937 93.4925,55.9897 93.5585,54.9147 C93.6265,53.7987 93.6945,52.6817 93.7635,51.5657 C93.8295,50.4867 92.1505,50.4907 92.0845,51.5657" id="Fill-410" fill="#FFF1B6"></path>
            <path d="M92.6929,57.0823 C94.6239,57.0823 94.6269,54.0823 92.6929,54.0823 C90.7629,54.0823 90.7589,57.0823 92.6929,57.0823" id="Fill-412" fill="#FFF1B6"></path>
        </g>
    </g>
</svg>