<?xml version="1.0" encoding="UTF-8"?>
<svg width="90px" height="100px" viewBox="0 0 90 100" version="1.1" xmlns="http://www.w3.org/2000/svg" xmlns:xlink="http://www.w3.org/1999/xlink">
    <!-- Generator: Sketch 53.1 (72631) - https://sketchapp.com -->
    <title>Group 10217</title>
    <desc>Created with Sketch.</desc>
    <g id="Page-1" stroke="none" stroke-width="1" fill="none" fill-rule="evenodd">
        <g id="Group-102">
            <path d="M65.0579328,76.0207023 C64.8979328,75.8587023 64.7169328,75.7227023 64.5239328,75.6067023 C64.8419328,75.4487023 65.1529328,75.2757023 65.4639328,75.1047023 C65.3239328,75.4077023 65.1929328,75.7147023 65.0579328,76.0207023 M84.1479328,12.9397023 C79.1309328,6.34170226 71.3159328,2.56670226 63.3099328,1.01270226 C45.5399328,-2.43729774 24.9819328,2.97470226 12.5879328,16.5277023 C8.1369328,21.3947023 4.7919328,27.1877023 2.8409328,33.3437023 C-2.1960672,43.9567023 0.0259328025,58.3857023 5.1289328,68.4407023 C8.8889328,75.8477023 14.2379328,82.9167023 22.8549328,84.5177023 C27.4459328,85.3697023 32.1069328,84.8467023 36.6839328,84.1627023 C38.3889328,83.9087023 40.1279328,83.6917023 41.7989328,83.3347023 C43.1129328,83.2927023 44.4199328,83.3547023 45.7199328,83.6207023 C51.0489328,84.7077023 55.0689328,89.4587023 55.9719328,94.5857023 C57.7499328,104.681702 64.5339328,96.5357023 64.9349328,95.8447023 C69.5859328,87.8487023 72.7449328,79.2237023 74.2859328,70.0997023 C74.4149328,69.3327023 87.2209328,47.9337023 89.0599328,38.0807023 C90.6689328,29.4577023 89.5699328,20.0727023 84.1479328,12.9397023" id="Fill-1" fill="#FFFDFE"></path>
            <path d="M80.5052328,16.2790023 C75.9592328,10.3000023 68.8772328,6.87900226 61.6212328,5.47000226 C45.5192328,2.34400226 26.8882328,7.24800226 15.6572328,19.5300023 C4.8462328,31.3530023 1.2232328,49.1960023 9.8762328,63.2780023 C14.1902328,70.2970023 21.0792328,75.6840023 29.1952328,77.4480023 C35.7682328,78.8770023 49.4632328,76.7300023 49.8562328,76.7520023 C56.8112328,77.1320023 58.0062328,85.4490023 58.7732328,90.8430023 C59.0702328,92.9420023 62.1582328,93.0170023 63.0942328,91.4080023 C67.3092328,84.1610023 70.1712328,76.3460023 71.5682328,68.0770023 C71.6862328,67.3820023 83.2902328,47.9910023 84.9562328,39.0620023 C86.4142328,31.2480023 85.4182328,22.7430023 80.5052328,16.2790023" id="Fill-3" fill="#DF51CD"></path>
            <path d="M49.8499328,76.2517023 C49.8619328,76.2517023 49.8719328,76.2517023 49.8829328,76.2527023 C57.2609328,76.6557023 58.5169328,85.4927023 59.2679328,90.7727023 C59.3959328,91.6737023 60.1759328,91.9207023 60.5059328,91.9857023 C61.3579328,92.1527023 62.2889328,91.7957023 62.6619328,91.1567023 C66.8709328,83.9207023 69.7009328,76.1277023 71.0759328,67.9937023 C71.1129328,67.7737023 71.3519328,67.3277023 72.6769328,64.9207023 C75.8209328,59.2097023 83.1839328,45.8347023 84.4649328,38.9697023 C86.0739328,30.3467023 84.5269328,22.3957023 80.1069328,16.5817023 C76.0739328,11.2757023 69.4739328,7.50370226 61.5259328,5.96070226 C44.8759328,2.72870226 26.5879328,8.31670226 16.0269328,19.8677023 C4.6729328,32.2827023 2.3199328,50.0257023 10.3019328,63.0157023 C14.7259328,70.2147023 21.6519328,75.2967023 29.3019328,76.9597023 C34.7989328,78.1557023 45.3189328,76.8137023 48.7769328,76.3747023 C49.5589328,76.2747023 49.7479328,76.2517023 49.8499328,76.2517023 M60.9349328,93.0267023 C60.7279328,93.0267023 60.5199328,93.0067023 60.3139328,92.9667023 C59.1909328,92.7477023 58.4289328,91.9797023 58.2779328,90.9137023 C57.5249328,85.6157023 56.3869328,77.6087023 49.8289328,77.2507023 C49.7619328,77.2557023 49.4269328,77.2997023 48.9039328,77.3667023 C45.4039328,77.8127023 34.7569328,79.1677023 29.0889328,77.9377023 C21.1739328,76.2167023 14.0159328,70.9687023 9.4509328,63.5397023 C1.2349328,50.1707023 3.6359328,31.9357023 15.2879328,19.1927023 C26.0769328,7.39570226 44.7309328,1.68270226 61.7169328,4.97970226 C69.9069328,6.56870226 76.7199328,10.4747023 80.9039328,15.9767023 C85.4959328,22.0177023 87.1099328,30.2497023 85.4479328,39.1537023 C84.1379328,46.1767023 76.7199328,59.6497023 73.5529328,65.4027023 C72.7859328,66.7977023 72.1219328,68.0017023 72.0509328,68.2067023 C70.6669328,76.4137023 67.7949328,84.3197023 63.5269328,91.6597023 C63.0359328,92.5037023 62.0059328,93.0267023 60.9349328,93.0267023" id="Fill-5" fill="#020202"></path>
            <path d="M31.0628328,36.8010023 L30.8168328,41.4390023 C30.8168328,46.2970023 31.2088328,50.5340023 31.9958328,54.1490023 C32.8298328,56.2590023 33.6228328,57.5030023 34.3758328,57.8790023 C34.9798328,57.8790023 35.5288328,57.6340023 36.0188328,57.1430023 C36.5098328,56.6520023 36.8978328,55.9930023 37.1848328,55.1670023 C37.4708328,54.3420023 37.7118328,53.4700023 37.9088328,52.5540023 C38.0878328,51.6550023 38.2278328,50.6890023 38.3258328,49.6590023 C38.4888328,47.8760023 38.5708328,46.3550023 38.5708328,45.0950023 C38.5708328,43.8350023 38.4598328,41.9050023 38.2398328,39.3040023 C38.0188328,36.7030023 37.9088328,34.7640023 37.9088328,33.4880023 L37.9088328,32.6050023 C37.8748328,31.3780023 37.4748328,30.2860023 36.7068328,29.3290023 C35.9368328,28.3720023 34.9558328,27.8940023 33.7618328,27.8940023 C32.6168328,27.8940023 31.8558328,28.5400023 31.4798328,29.8320023 C31.1678328,30.9120023 31.0128328,32.2450023 31.0128328,33.8320023 L31.0628328,36.8010023 Z M28.0928328,43.6720023 L28.1428328,41.7580023 C28.1428328,41.5940023 28.1188328,41.5120023 28.0688328,41.5120023 L28.0688328,40.6040023 C28.0688328,35.3370023 28.3718328,31.5910023 28.9768328,29.3660023 C29.4838328,27.4850023 29.9748328,26.3230023 30.4498328,25.8820023 C30.9228328,25.4400023 31.3898328,25.2190023 31.8478328,25.2190023 C35.7408328,25.2190023 38.4238328,27.1820023 39.8958328,31.1090023 C40.7468328,33.3660023 41.1718328,36.1470023 41.1718328,39.4510023 L41.1718328,39.8190023 L41.2698328,45.5120023 C41.2698328,55.1470023 39.0378328,59.9650023 34.5718328,59.9650023 C32.7228328,59.9650023 31.3078328,58.9420023 30.3268328,56.8970023 C29.3938328,54.9340023 28.8218328,53.0040023 28.6088328,51.1060023 C28.2648328,48.2440023 28.0928328,45.7660023 28.0928328,43.6720023 L28.0928328,43.6720023 Z" id="Fill-7" fill="#020202"></path>
            <path d="M51.4524328,36.4822023 L51.3544328,39.4762023 C51.3544328,40.9152023 51.9314328,43.6062023 53.0844328,47.5482023 C54.2374328,51.4912023 55.1984328,54.1002023 55.9684328,55.3762023 C56.0654328,55.5232023 56.2824328,55.8262023 56.6184328,56.2842023 C56.9534328,56.7422023 57.1984328,57.1432023 57.3534328,57.4862023 C57.5094328,57.8302023 57.5874328,58.1902023 57.5874328,58.5652023 C57.5874328,58.9422023 57.4434328,59.2562023 57.1574328,59.5102023 C56.8714328,59.7642023 56.5404328,59.8912023 56.1644328,59.8912023 C55.3794328,59.8912023 54.5604328,59.0602023 53.7104328,57.4002023 C52.8594328,55.7402023 52.1064328,53.7072023 51.4524328,51.3022023 C50.3244328,47.1972023 49.4894328,43.6222023 48.9504328,40.5802023 C47.7394328,42.9842023 47.1344328,45.8962023 47.1344328,49.3152023 L47.1344328,58.6152023 C47.1344328,59.4002023 46.7904328,59.7932023 46.1034328,59.7932023 C45.5974328,59.7932023 45.1914328,59.6492023 44.8894328,59.3632023 C44.5864328,59.0772023 44.4344328,58.6882023 44.4344328,58.1972023 L44.4344328,42.9352023 C44.4344328,41.1202023 44.5954328,38.4082023 44.9134328,34.8012023 C45.2324328,31.1942023 45.3914328,28.4912023 45.3914328,26.6912023 C45.6864328,26.0542023 46.1154328,25.7342023 46.6804328,25.7342023 C47.2444328,25.7342023 47.6784328,25.8862023 47.9804328,26.1892023 C48.2834328,26.4912023 48.4344328,26.8552023 48.4344328,27.2802023 L48.4344328,27.4282023 C47.9934328,28.1972023 47.7724328,31.2482023 47.7724328,36.5802023 L47.7724328,38.3712023 C47.8214328,38.2902023 48.4344328,37.0632023 49.6124328,34.6902023 C52.4744328,28.9332023 54.2414328,26.0542023 54.9124328,26.0542023 C55.4034328,26.0542023 55.8484328,26.1682023 56.2504328,26.3972023 C56.6504328,26.6272023 56.8504328,26.9612023 56.8504328,27.4032023 C56.8504328,27.4362023 56.4504328,28.1072023 55.6484328,29.4152023 C53.1794328,33.4562023 51.7794328,35.8122023 51.4524328,36.4822023" id="Fill-9" fill="#020202"></path>
            <path d="M62.9124328,45.7082023 L62.9614328,48.0882023 C62.9614328,50.3782023 62.6504328,51.5232023 62.0284328,51.5232023 C61.6854328,51.5232023 61.3704328,51.1152023 61.0844328,50.2962023 C60.7984328,49.4792023 60.6544328,48.4482023 60.6544328,47.2052023 L60.8504328,38.8872023 L60.6054328,22.3972023 C60.6054328,21.8742023 60.8264328,21.4202023 61.2684328,21.0362023 C61.7104328,20.6512023 62.1514328,20.4592023 62.5934328,20.4592023 C63.0354328,20.4592023 63.3744328,20.5782023 63.6114328,20.8152023 C63.8494328,21.0522023 63.9674328,21.3422023 63.9674328,21.6862023 C63.9674328,24.3692023 63.7914328,28.3762023 63.4394328,33.7092023 C63.0884328,39.0422023 62.9124328,43.0422023 62.9124328,45.7082023 M63.5994328,58.3942023 C63.5994328,59.5722023 62.7724328,60.1612023 61.1214328,60.1612023 C60.7444328,60.1612023 60.3724328,59.9842023 60.0054328,59.6332023 C59.6374328,59.2812023 59.4524328,58.8152023 59.4524328,58.2342023 C59.4524328,57.6542023 59.6564328,57.1302023 60.0654328,56.6642023 C60.4744328,56.1982023 60.9814328,55.9642023 61.5874328,55.9642023 C62.1924328,55.9642023 62.6794328,56.2022023 63.0474328,56.6762023 C63.4154328,57.1512023 63.5994328,57.7232023 63.5994328,58.3942023" id="Fill-11" fill="#020202"></path>
        </g>
    </g>
</svg>