<?xml version="1.0" encoding="UTF-8"?>
<svg width="118px" height="111px" viewBox="0 0 118 111" version="1.1" xmlns="http://www.w3.org/2000/svg" xmlns:xlink="http://www.w3.org/1999/xlink">
    <!-- Generator: Sketch 53.1 (72631) - https://sketchapp.com -->
    <title>Group 12table</title>
    <desc>Created with Sketch.</desc>
    <g id="Page-1" stroke="none" stroke-width="1" fill="none" fill-rule="evenodd">
        <g id="Desktop-HD" transform="translate(-1008.000000, -340.000000)">
            <g id="Group-12" transform="translate(1008.000000, 340.000000)">
                <path d="M80.3478,110.7915 L38.5498,110.7915 L51.0248,104.7125 C53.7098,95.7735 55.6488,86.7715 54.8488,77.6855 L47.5588,59.8355 L71.3388,59.8355 L64.0488,77.6855 C63.3768,86.2195 65.4468,95.2765 67.8728,104.7125 L80.3478,110.7915 Z" id="Fill-255" fill="#0E4361"></path>
                <polygon id="Fill-257" fill="#0E4361" points="61.0311 8.1979 54.7111 8.1979 59.6771 17.1489"></polygon>
                <path d="M32.7282,60.8477 C50.8022,61.6077 68.2452,61.6557 84.9892,60.9157 C93.5552,60.5377 101.8042,57.2327 108.0512,51.3597 C112.7922,46.9037 116.1092,41.8627 118.0032,36.2347 L0.0002,36.2347 C1.3012,40.4237 3.2842,44.1797 5.9152,47.5277 C12.3572,55.7267 22.3102,60.4097 32.7282,60.8477" id="Fill-259" fill="#EE7D61"></path>
                <path d="M115.432,42.0161 L103.387,42.0161 C101.857,44.6251 99.594,47.0921 96.846,49.4661 C87.312,50.3011 77.274,50.2191 66.869,49.4661 C64.425,47.4991 62.719,44.5221 61.803,42.0161 L2.375,42.0161 C1.428,40.1871 0.63,38.2641 -5.68434189e-14,36.2351 L118.003,36.2351 C117.329,38.2371 116.466,40.1621 115.432,42.0161" id="Fill-261" fill="#330A32"></path>
                <polygon id="Fill-263" fill="#00EBAA" points="70.8266 46.0092 95.3316 46.0092 96.3096 42.9102 69.8486 42.9102"></polygon>
                <polygon id="Fill-265" fill="#E23365" points="58.1151 27.4743 61.5051 5.0653 84.9861 5.0653 86.2881 13.6713 81.4101 27.4743"></polygon>
                <polygon id="Fill-267" fill="#0E4361" points="81.4105 27.4743 86.2885 13.6713 89.7015 36.2353 56.7895 36.2353 58.1155 27.4743"></polygon>
                <path d="M86.2882,13.6716 L99.1112,13.6716 C100.3302,17.2866 100.6182,21.0636 100.2432,24.9536 C99.7362,26.9916 98.5352,28.5576 97.0842,29.9176 L95.3832,28.7666 C96.4442,27.0916 96.9412,25.7446 97.2032,23.7796 C97.2342,21.7836 96.8852,19.8516 96.0712,17.9986 L86.9882,17.9986 L86.2882,13.6716 Z" id="Fill-269" fill="#0E4361"></path>
                <polygon id="Fill-271" fill="#0E4361" points="66.4313 1.42108547e-14 80.0603 1.42108547e-14 79.0563 5.066 67.4353 5.066"></polygon>
            </g>
        </g>
    </g>
</svg>