<?xml version="1.0" encoding="UTF-8"?>
<svg width="61px" height="48px" viewBox="0 0 61 48" version="1.1" xmlns="http://www.w3.org/2000/svg" xmlns:xlink="http://www.w3.org/1999/xlink">
    <!-- Generator: Sketch 53.1 (72631) - https://sketchapp.com -->
    <title>Group 31SingleBurger</title>
    <desc>Created with Sketch.</desc>
    <g id="Page-1" stroke="none" stroke-width="1" fill="none" fill-rule="evenodd">
        <g id="Desktop-HD" transform="translate(-467.000000, -1626.000000)">
            <g id="Group-31" transform="translate(467.334700, 1626.000000)">
                <path d="M58.7213,20.67 C58.7733,20.198 58.8083,19.726 58.8083,19.246 C58.8083,8.616 45.9313,-8.52651283e-14 30.0473,-8.52651283e-14 C14.1623,-8.52651283e-14 1.2853,8.616 1.2853,19.246 C1.2853,19.726 1.3203,20.198 1.3723,20.671 L58.7213,20.67 Z" id="Fill-242" fill="#F79E3C"></path>
                <path d="M1.3671,38.445 C1.3181,38.817 1.2851,39.195 1.2851,39.581 C1.2851,43.873 4.3351,47.348 8.0961,47.348 L51.9981,47.348 C55.7601,47.348 58.8081,43.873 58.8081,39.581 C58.8081,39.195 58.7761,38.817 58.7281,38.445 L1.3671,38.445 Z" id="Fill-243" fill="#F79E3C"></path>
                <path d="M60.417,31.1384 C60.417,34.1484 58.169,36.5914 55.396,36.5914 L5.021,36.5914 C2.248,36.5914 -2.84217094e-14,34.1484 -2.84217094e-14,31.1384 C-2.84217094e-14,28.1264 2.248,25.6864 5.021,25.6864 L55.396,25.6864 C58.169,25.6864 60.417,28.1264 60.417,31.1384" id="Fill-244" fill="#330A32"></path>
                <polygon id="Fill-245" fill="#E20030" points="2.6761 24.2911 57.3091 24.2911 57.3091 20.6701 2.6761 20.6701"></polygon>
                <polygon id="Fill-246" fill="#F1BB00" points="58.762 36.7403 1.337 36.7403 1.337 38.6603 10.626 38.6603 17.891 42.8713 22.784 38.6603 58.762 38.6603"></polygon>
                <path d="M57.3228,24.0023 L2.0188,24.0023 L2.0188,25.9203 L28.2608,25.9203 C28.1778,26.2143 28.1288,26.5153 28.1288,26.8303 C28.1288,29.0043 30.2328,30.7663 32.8278,30.7663 C34.1018,30.7663 35.2548,30.3403 36.1008,29.6543 C37.3838,31.6983 39.7698,33.0753 42.5078,33.0753 C46.6008,33.0753 49.9188,30.0043 49.9188,26.2143 C49.9188,26.1153 49.9078,26.0173 49.9028,25.9203 L57.3228,25.9203 L57.3228,24.0023 Z" id="Fill-247" fill="#00EBAA"></path>
                <path d="M17.8086,11.7361 C17.8086,12.5091 16.4116,13.1401 14.6856,13.1401 C12.9596,13.1401 11.5616,12.5091 11.5616,11.7361 C11.5616,10.9611 12.9596,10.3361 14.6856,10.3361 C16.4116,10.3361 17.8086,10.9611 17.8086,11.7361" id="Fill-248" fill="#D8822E"></path>
                <path d="M26.1026,7.4918 C26.1026,8.2648 24.7046,8.8938 22.9776,8.8938 C21.2526,8.8938 19.8546,8.2648 19.8546,7.4918 C19.8546,6.7168 21.2526,6.0918 22.9776,6.0918 C24.7046,6.0918 26.1026,6.7168 26.1026,7.4918" id="Fill-249" fill="#D8822E"></path>
                <path d="M33.5424,11.3821 C33.5424,12.1551 32.1444,12.7841 30.4184,12.7841 C28.6924,12.7841 27.2944,12.1551 27.2944,11.3821 C27.2944,10.6071 28.6924,9.9821 30.4184,9.9821 C32.1444,9.9821 33.5424,10.6071 33.5424,11.3821" id="Fill-250" fill="#D8822E"></path>
                <path d="M41.455,7.9762 C41.455,8.7492 40.057,9.3782 38.331,9.3782 C36.606,9.3782 35.207,8.7492 35.207,7.9762 C35.207,7.2032 36.606,6.5742 38.331,6.5742 C40.057,6.5742 41.455,7.2032 41.455,7.9762" id="Fill-251" fill="#D8822E"></path>
                <path d="M47.4804,12.784 C47.4804,13.557 46.0814,14.184 44.3564,14.184 C42.6294,14.184 41.2314,13.557 41.2314,12.784 C41.2324,12.009 42.6294,11.382 44.3564,11.382 C46.0814,11.382 47.4804,12.009 47.4804,12.784" id="Fill-252" fill="#D8822E"></path>
                <path d="M5.4578,27.2329 L9.0048,27.2329 C9.8608,27.2329 10.5608,27.9329 10.5608,28.7889 L10.5608,28.7889 C10.5608,29.6449 9.8608,30.3449 9.0048,30.3449 L5.4578,30.3449 C4.6018,30.3449 3.9018,29.6449 3.9018,28.7889 L3.9018,28.7889 C3.9018,27.9329 4.6018,27.2329 5.4578,27.2329" id="Fill-253" fill="#DBDCDC"></path>
                <path d="M13.2033,27.2329 L22.0063,27.2329 C22.8623,27.2329 23.5623,27.9329 23.5623,28.7889 L23.5623,28.7889 C23.5623,29.6449 22.8623,30.3449 22.0063,30.3449 L13.2033,30.3449 C12.3473,30.3449 11.6473,29.6449 11.6473,28.7889 L11.6473,28.7889 C11.6473,27.9329 12.3473,27.2329 13.2033,27.2329" id="Fill-254" fill="#DBDCDC"></path>
                <path d="M56.3902,27.2329 L56.6072,27.2329 C57.4632,27.2329 58.1642,27.9329 58.1642,28.7889 L58.1642,28.7889 C58.1642,29.6449 57.4632,30.3449 56.6072,30.3449 L56.3902,30.3449 C55.5342,30.3449 54.8342,29.6449 54.8342,28.7889 L54.8342,28.7889 C54.8342,27.9329 55.5342,27.2329 56.3902,27.2329" id="Fill-255" fill="#DBDCDC"></path>
            </g>
        </g>
    </g>
</svg>