<?xml version="1.0" encoding="UTF-8"?>
<svg width="144px" height="92px" viewBox="0 0 144 92" version="1.1" xmlns="http://www.w3.org/2000/svg" xmlns:xlink="http://www.w3.org/1999/xlink">
    <!-- Generator: Sketch 53.1 (72631) - https://sketchapp.com -->
    <title>Group 39chips</title>
    <desc>Created with Sketch.</desc>
    <g id="Page-1" stroke="none" stroke-width="1" fill="none" fill-rule="evenodd">
        <g id="Desktop-HD" transform="translate(-985.000000, -1551.000000)">
            <g id="Group-39" transform="translate(985.340300, 1551.874164)">
                <g id="Group-34">
                    <path d="M142.807,31.1155365 C142.807,24.0165365 110.927,18.2615365 71.6,18.2615365 C32.274,18.2615365 0.394,24.0165365 0.394,31.1155365 C0.394,38.2145365 32.274,43.9695365 71.6,43.9695365 C110.927,43.9695365 142.807,38.2145365 142.807,31.1155365" id="Fill-49" fill="#517D78"></path>
                    <path d="M98.0959,21.9016365 C98.0959,21.9016365 88.1829,8.82563649 101.6089,6.46963649 C115.0339,4.11363649 117.4139,9.56563649 117.4139,9.56563649 C117.4139,9.56563649 124.8479,3.68663649 136.8639,14.4936365 C148.8799,25.3016365 131.2669,31.6036365 131.2669,31.6036365 C131.2669,31.6036365 135.5489,51.0206365 124.8339,51.3576365 C114.1189,51.6946365 79.4199,45.5816365 98.3079,22.7136365" id="Fill-51" fill="#FFDA96"></path>
                    <path d="M137.9627,15.5882365 C137.9757,30.9942365 106.2287,23.9982365 100.7937,20.5032365 C100.7937,20.5032365 102.5597,25.9862365 115.4137,30.7502365 C115.4297,31.8522365 115.3437,32.9782365 115.1337,34.1202365 C114.0257,40.1292365 109.5117,45.2582365 103.8897,47.3992365 C111.1967,50.4542365 120.2287,51.5022365 124.8337,51.3582365 C135.5487,51.0202365 131.2667,31.6042365 131.2667,31.6042365 C131.2667,31.6042365 147.6487,25.7222365 137.9627,15.5882365" id="Fill-53" fill="#F9B35A"></path>
                    <path d="M70.0684,32.4347365 C70.0684,32.4347365 56.5414,25.2417365 66.9934,17.9807365 C77.4464,10.7207365 81.5994,14.4077365 81.5994,14.4077365 C81.5994,14.4077365 85.5944,6.51073649 100.0134,10.9567365 C114.4324,15.4027365 101.9794,27.6487365 101.9794,27.6487365 C101.9794,27.6487365 113.2214,42.4227365 104.2744,46.9097365 C95.3274,51.3967365 63.5284,59.8227365 70.5664,33.0397365" id="Fill-55" fill="#E9B879"></path>
                    <path d="M101.3734,11.4528365 C107.4254,24.5018365 77.7824,31.0218365 71.8064,30.1918365 C71.8064,30.1918365 75.4524,34.1448365 88.2114,33.1418365 C88.6574,34.0698365 89.0264,35.0568365 89.2954,36.1078365 C90.7134,41.6328365 88.8994,47.7498365 84.9754,51.7678365 C92.3654,51.4918365 100.4294,48.8378365 104.2744,46.9098365 C113.2214,42.4228365 101.9794,27.6488365 101.9794,27.6488365 C101.9794,27.6488365 113.5544,16.2408365 101.3734,11.4528365" id="Fill-57" fill="#E3A153"></path>
                    <path d="M41.7567,15.2223365 C41.7567,15.2223365 32.1557,3.28333649 44.6227,0.725336492 C57.0897,-1.83166351 59.4557,3.19333649 59.4557,3.19333649 C59.4557,3.19333649 66.2377,-2.49166351 77.7407,7.27333649 C89.2437,17.0383365 72.9737,23.3913365 72.9737,23.3913365 C72.9737,23.3913365 77.4887,41.3983365 67.4977,41.9993365 C57.5067,42.6003365 24.9597,37.8213365 41.9757,15.9743365" id="Fill-59" fill="#FFDA96"></path>
                    <path d="M78.7951,8.26503649 C79.2191,22.6430365 49.4031,16.9620365 44.2371,13.8450365 C44.2371,13.8450365 46.0321,18.9150365 58.1551,23.0180365 C58.1991,24.0460365 58.1501,25.0990365 57.9841,26.1710365 C57.1111,31.8080365 53.0341,36.7150365 47.8451,38.8640365 C54.7461,41.5200365 63.2041,42.2570365 67.4971,41.9990365 C77.4881,41.3980365 72.9741,23.3910365 72.9741,23.3910365 C72.9741,23.3910365 88.1061,17.4640365 78.7951,8.26503649" id="Fill-61" fill="#F9B35A"></path>
                    <path d="M9.4061,34.0767365 C9.4061,34.0767365 -2.7329,24.7297365 8.7831,19.3127365 C20.3001,13.8957365 23.7811,18.2237365 23.7811,18.2237365 C23.7811,18.2237365 29.0361,11.1027365 42.5121,17.8907365 C55.9891,24.6777365 41.6691,34.6767365 41.6691,34.6767365 C41.6691,34.6767365 50.2901,51.1177365 40.7211,54.0507365 C31.1511,56.9837365 -1.6069,59.9917365 9.7961,34.7567365" id="Fill-63" fill="#E9B879"></path>
                    <path d="M43.7705,18.6063365 C47.5625,32.4813365 17.2475,33.9693365 11.4935,32.1553365 C11.4935,32.1553365 14.4295,36.6603365 27.1775,37.7983365 C27.4625,38.7873365 27.6615,39.8223365 27.7525,40.9033365 C28.2295,46.5873365 25.4215,52.3163365 20.8825,55.6243365 C28.2145,56.5833365 36.6085,55.3113365 40.7205,54.0503365 C50.2905,51.1173365 41.6685,34.6773365 41.6685,34.6773365 C41.6685,34.6773365 54.9835,25.3583365 43.7705,18.6063365" id="Fill-65" fill="#E3A153"></path>
                    <path d="M40.3429,50.0569365 C40.3429,50.0569365 28.2039,40.7099365 39.7199,35.2929365 C51.2369,29.8759365 54.7179,34.2039365 54.7179,34.2039365 C54.7179,34.2039365 59.9729,27.0829365 73.4489,33.8709365 C86.9259,40.6579365 72.6059,50.6569365 72.6059,50.6569365 C72.6059,50.6569365 81.2269,67.0979365 71.6579,70.0309365 C62.0879,72.9639365 29.3299,75.9719365 40.7329,50.7369365" id="Fill-67" fill="#E9B879"></path>
                    <path d="M74.7073,34.5865365 C78.4993,48.4615365 48.1843,49.9495365 42.4303,48.1355365 C42.4303,48.1355365 45.3663,52.6405365 58.1143,53.7785365 C58.3993,54.7675365 58.5983,55.8025365 58.6893,56.8835365 C59.1663,62.5675365 56.3583,68.2965365 51.8193,71.6045365 C59.1513,72.5635365 67.5453,71.2915365 71.6573,70.0305365 C81.2273,67.0975365 72.6053,50.6575365 72.6053,50.6575365 C72.6053,50.6575365 85.9203,41.3385365 74.7073,34.5865365" id="Fill-69" fill="#E3A153"></path>
                    <path d="M71.207,43.9694365 C31.881,43.9694365 1.13686838e-13,38.2144365 1.13686838e-13,31.1154365 C2.924,64.5504365 33.675,90.8594365 71.207,90.8594365 C108.738,90.8594365 139.49,64.5504365 142.414,31.1154365 C142.414,38.2144365 110.533,43.9694365 71.207,43.9694365" id="Fill-71" fill="#0E4361"></path>
                    <path d="M71.6004,58.3491365 C43.4414,58.3491365 18.8974,55.5651365 5.9174,51.4401365 C6.3194,52.2931365 6.7374,53.1381365 7.1784,53.9721365 C18.5724,58.3311365 43.1304,61.3481365 71.6004,61.3481365 C100.0704,61.3481365 124.6284,58.3311365 136.0224,53.9721365 C136.4634,53.1381365 136.8814,52.2931365 137.2834,51.4401365 C124.3034,55.5651365 99.7594,58.3491365 71.6004,58.3491365" id="Fill-73" fill="#FFFFFF"></path>
                    <path d="M71.6004,52.3415365 C42.2574,52.3415365 16.6814,49.4405365 3.1554,45.1425365 C3.5744,46.0315365 4.0104,46.9115365 4.4694,47.7805365 C16.3424,52.3225365 41.9324,55.4675365 71.6004,55.4675365 C101.2684,55.4675365 126.8584,52.3225365 138.7314,47.7805365 C139.1904,46.9115365 139.6264,46.0315365 140.0454,45.1425365 C126.5194,49.4405365 100.9434,52.3415365 71.6004,52.3415365" id="Fill-75" fill="#FFFFFF"></path>
                    <path d="M112.8594,41.5883365 C111.6404,48.5983365 109.7354,55.4543365 106.6084,62.1863365 C100.1004,76.1943365 86.3834,87.4323365 71.2074,90.8503365 C71.3384,90.8513365 71.4684,90.8593365 71.6004,90.8593365 C109.1314,90.8593365 139.8834,64.5503365 142.8074,31.1153365 C142.8074,35.4373365 130.9784,39.2583365 112.8594,41.5883365" id="Fill-77" fill="#092636"></path>
                </g>
            </g>
        </g>
    </g>
</svg>