<?xml version="1.0" encoding="UTF-8"?>
<svg width="86px" height="157px" viewBox="0 0 86 157" version="1.1" xmlns="http://www.w3.org/2000/svg" xmlns:xlink="http://www.w3.org/1999/xlink">
    <!-- Generator: Sketch 53.1 (72631) - https://sketchapp.com -->
    <title>Group 36SpaceWater</title>
    <desc>Created with Sketch.</desc>
    <defs>
        <path d="M0.251,0.648 C3.795,5.497 6.279,13.252 6.279,24.199 L3.718,112.914 L2.651,112.914 C2.63,93.988 2.506,75.056 2.122,56.137 C1.915,45.928 2.073,35.723 1.933,25.515" id="path-1"></path>
        <path d="M0.295,0.701 C3.839,5.549 6.323,13.305 6.323,24.251 L3.762,112.967 L2.695,112.967 C2.674,94.041 2.55,75.108 2.166,56.19 C1.959,45.98 2.117,35.776 1.977,25.568" id="path-3"></path>
    </defs>
    <g id="Page-1" stroke="none" stroke-width="1" fill="none" fill-rule="evenodd">
        <g id="Desktop-HD" transform="translate(-402.000000, -1734.000000)">
            <g id="Group-36" transform="translate(402.770700, 1734.478800)">
                <path d="M81.866,153.6088 L44.146,153.6088 L40.956,63.3458 C40.956,21.5668 85.056,21.5668 85.056,63.3458 L81.866,153.6088 Z" id="Fill-79" fill="#0E4361"></path>
                <g id="Group-83" transform="translate(77.229300, 39.147200)">
                    <mask id="mask-2" fill="white">
                        <use xlink:href="#path-1"></use>
                    </mask>
                    <g id="Clip-82"></g>
                    <path d="M0.251,0.648 C2.116,8.464 1.823,17.562 1.933,25.515 C2.073,35.723 1.915,45.928 2.122,56.137 C2.506,75.056 2.63,93.988 2.651,112.914 L3.718,112.914 L6.279,24.199 C6.279,13.252 3.795,5.497 0.251,0.648" id="Fill-81" mask="url(#mask-2)"></path>
                </g>
                <polygon id="Fill-84" fill="#D2005E" points="84.0892 155.2206 41.9232 155.2206 42.8092 143.6796 83.2042 143.6796"></polygon>
                <path d="M75.7034,144.8401 L69.3574,144.8401 C69.3594,147.9171 69.1864,150.9901 68.9594,154.0601 L76.4704,154.0601 C76.0914,150.9931 75.7894,147.9131 75.7034,144.8401" id="Fill-86" fill="#29929E"></path>
                <path d="M51.246,144.8401 L43.883,144.8401 L43.176,154.0601 L50.904,154.0601 C51.016,150.9871 51.131,147.9131 51.246,144.8401 M78.582,144.8401 L82.129,144.8401 L82.836,154.0601 L79.252,154.0601 C79.093,150.9811 78.911,147.9031 78.582,144.8401" id="Fill-88" fill="#FFF6D6"></path>
                <polygon id="Fill-90" fill="#AFAFAF" points="72.3077 34.637 53.7867 34.637 52.8877 25.435 73.2057 25.435"></polygon>
                <polygon id="Fill-92" fill="#AFAFAF" points="68.1332 25.435 57.5732 25.435 57.0262 9.139 68.6802 9.139"></polygon>
                <polygon id="Fill-94" fill="#1C4C61" points="66.0748 9.1393 60.5008 9.1393 60.1698 6.5123 66.4068 6.5123"></polygon>
                <polygon id="Fill-96" fill="#D2005E" points="72.9643 6.5121 53.5663 6.5121 52.9163 2.2241 73.6143 2.2241"></polygon>
                <path d="M61.3621,7.189 L65.4711,7.189 L66.4061,-7.10542736e-14 L60.2981,-7.10542736e-14 L61.3621,7.189 Z M69.8501,7.189 L74.4271,7.189 L75.3621,-7.10542736e-14 L69.8501,-7.10542736e-14 L69.8501,7.189 Z M56.3971,7.189 L51.8201,7.189 L50.8851,-7.10542736e-14 L56.3971,-7.10542736e-14 L56.3971,7.189 Z" id="Fill-98" fill="#D2005E"></path>
                <polygon id="Fill-100" fill="#FFF6D6" points="57.8805 9.8968 58.5255 24.5328 62.2645 24.5328 62.2645 10.9288 67.2935 9.8968"></polygon>
                <polygon id="Fill-102" fill="#FFF6D6" points="54.2055 26.5956 54.8455 34.0026 57.8805 34.0026 57.8805 27.8206 71.9355 26.5956"></polygon>
                <polygon id="Fill-104" fill="#29929E" points="64.7793 11.4442 65.1663 24.5322 67.2933 24.5322 67.8743 10.8642"></polygon>
                <path d="M73.8056,21.2766 L67.6166,21.2766 C66.0826,17.8556 65.9256,14.7266 67.6166,11.9926 L74.5306,11.9926 C76.5136,14.4586 75.5806,18.8586 73.8056,21.2766" id="Fill-106" fill="#AFAFAF"></path>
                <path d="M74.1368,12.7661 C75.4538,14.7931 74.8528,18.2851 73.4008,20.5031 C71.9278,17.7161 71.8948,15.1031 74.1368,12.7661" id="Fill-108" fill="#1C4C61"></path>
                <polygon id="Fill-110" fill="#29929E" points="71.3556 27.6918 71.0246 33.7408 65.8106 33.8168 65.8106 27.8848"></polygon>
                <path d="M67.7773,12.4758 C67.3643,13.2488 67.0933,14.1348 66.9073,15.0868 L71.9353,15.0868 L73.8053,12.4758 L67.7773,12.4758 Z" id="Fill-112" fill="#FFF6D6"></path>
                <path d="M67.0386,17.869 C67.0756,18.826 67.3086,19.762 67.8736,20.664 L72.8706,20.664 C72.2976,19.668 71.8586,18.679 71.6136,17.698 L67.0386,17.869 Z" id="Fill-114" fill="#29929E"></path>
                <polygon id="Fill-116" fill="#D2005E" points="51.4171 0.4839 52.2871 6.5119 52.9161 6.5119 52.9161 1.4029 56.0111 0.4839"></polygon>
                <polygon id="Fill-118" fill="#D2005E" points="60.8948 0.4839 61.6928 6.8909 62.2488 6.8909 62.4178 1.0879 65.7788 0.4839"></polygon>
                <polygon id="Fill-120" fill="#D2005E" points="71.025 0.4839 74.866 0.4839 73.999 6.7219 73.467 6.7219 73.614 0.9919"></polygon>
                <path d="M40.91,154.6613 L3.191,154.6613 L1.42108547e-14,64.3983 C1.42108547e-14,22.6193 44.1,22.6193 44.1,64.3983 L40.91,154.6613 Z" id="Fill-122" fill="#0E4361"></path>
                <path d="M36.8456,153.1142 C36.7986,134.6882 36.6176,116.2702 36.1176,97.8492 C35.8396,87.6252 35.9496,77.4092 35.8216,67.1842 C35.7086,58.1422 36.1216,47.6732 33.1656,39.0462 C33.1436,38.9822 33.1466,38.9272 33.1426,38.8702 C31.6666,37.6152 29.8746,36.3652 28.0116,35.7632 C27.1736,35.4912 26.3136,35.1672 25.4456,34.9782 C25.2066,34.9262 22.4836,34.7072 22.5126,34.8302 C24.2756,42.4502 26.2016,49.9822 27.3626,57.7292 C27.4856,58.5482 27.5736,59.3672 27.6766,60.1862 C28.2106,64.6172 28.5836,69.0672 28.8826,73.5202 C29.2166,78.4982 29.4516,83.4822 29.6306,88.4682 C29.8176,93.6612 29.9426,98.8552 30.0276,104.0512 C30.1116,109.1292 30.1576,114.2082 30.1796,119.2872 C30.1996,123.9242 30.1986,128.5612 30.1906,133.1972 C30.1846,137.0652 30.1706,140.9322 30.1696,144.8002 C30.1696,147.5712 30.1676,150.3432 30.2216,153.1142 L36.8456,153.1142 Z" id="Fill-124" fill="#249C97"></path>
                <g id="Group-128" transform="translate(36.229300, 40.147200)">
                    <mask id="mask-4" fill="white">
                        <use xlink:href="#path-3"></use>
                    </mask>
                    <g id="Clip-127"></g>
                    <path d="M0.295,0.701 C2.16,8.516 1.867,17.615 1.977,25.568 C2.117,35.776 1.959,45.98 2.166,56.19 C2.55,75.108 2.674,94.041 2.695,112.967 L3.762,112.967 L6.323,24.251 C6.323,13.305 3.839,5.549 0.295,0.701" id="Fill-126" mask="url(#mask-4)"></path>
                </g>
                <polygon id="Fill-129" fill="#D2005E" points="43.1331 156.2732 0.9671 156.2732 1.8531 144.7322 42.2481 144.7322"></polygon>
                <path d="M34.7474,145.8926 L28.4014,145.8926 C28.4034,148.9696 28.2304,152.0426 28.0034,155.1126 L35.5144,155.1126 C35.1354,152.0456 34.8334,148.9656 34.7474,145.8926" id="Fill-131" fill="#29929E"></path>
                <path d="M10.29,145.8926 L2.927,145.8926 L2.22,155.1126 L9.948,155.1126 C10.06,152.0396 10.175,148.9656 10.29,145.8926 M37.626,145.8926 L41.173,145.8926 L41.88,155.1126 L38.296,155.1126 C38.137,152.0336 37.955,148.9556 37.626,145.8926" id="Fill-133" fill="#FFF6D6"></path>
                <polygon id="Fill-135" fill="#AFAFAF" points="31.3516 35.6896 12.8306 35.6896 11.9316 26.4876 32.2496 26.4876"></polygon>
                <polygon id="Fill-137" fill="#AFAFAF" points="27.1771 26.4875 16.6171 26.4875 16.0701 10.1915 27.7241 10.1915"></polygon>
                <polygon id="Fill-139" fill="#1C4C61" points="25.1188 10.1918 19.5448 10.1918 19.2138 7.5648 25.4508 7.5648"></polygon>
                <polygon id="Fill-141" fill="#E23365" points="32.0082 7.5646 12.6102 7.5646 11.9602 3.2766 32.6582 3.2766"></polygon>
                <path d="M20.4061,8.2416 L24.5151,8.2416 L25.4501,1.0526 L19.3421,1.0526 L20.4061,8.2416 Z M28.8941,8.2416 L33.4711,8.2416 L34.4061,1.0526 L28.8941,1.0526 L28.8941,8.2416 Z M15.4411,8.2416 L10.8641,8.2416 L9.9291,1.0526 L15.4411,1.0526 L15.4411,8.2416 Z" id="Fill-143" fill="#E23365"></path>
                <polygon id="Fill-145" fill="#FFF6D6" points="16.9244 10.9494 17.5694 25.5854 21.3084 25.5854 21.3084 11.9814 26.3374 10.9494"></polygon>
                <polygon id="Fill-147" fill="#FFF6D6" points="13.2495 27.6482 13.8895 35.0552 16.9245 35.0552 16.9245 28.8732 30.9795 27.6482"></polygon>
                <polygon id="Fill-149" fill="#29929E" points="23.8233 12.4967 24.2103 25.5847 26.3373 25.5847 26.9183 11.9167"></polygon>
                <path d="M32.8495,22.3291 L26.6605,22.3291 C25.1265,18.9081 24.9695,15.7791 26.6605,13.0451 L33.5745,13.0451 C35.5575,15.5111 34.6245,19.9111 32.8495,22.3291" id="Fill-151" fill="#AFAFAF"></path>
                <path d="M33.1807,13.8186 C34.4977,15.8456 33.8967,19.3376 32.4447,21.5556 C30.9717,18.7686 30.9387,16.1556 33.1807,13.8186" id="Fill-153" fill="#1C4C61"></path>
                <polygon id="Fill-155" fill="#29929E" points="30.3995 28.7443 30.0685 34.7933 24.8545 34.8693 24.8545 28.9373"></polygon>
                <path d="M26.8213,13.5284 C26.4083,14.3014 26.1373,15.1874 25.9513,16.1394 L30.9793,16.1394 L32.8493,13.5284 L26.8213,13.5284 Z" id="Fill-157" fill="#FFF6D6"></path>
                <path d="M26.0825,18.9216 C26.1195,19.8786 26.3525,20.8146 26.9175,21.7166 L31.9145,21.7166 C31.3415,20.7206 30.9025,19.7316 30.6575,18.7506 L26.0825,18.9216 Z" id="Fill-159" fill="#29929E"></path>
                <polygon id="Fill-161" fill="#E23365" points="10.4611 1.5364 11.3311 7.5644 11.9601 7.5644 11.9601 2.4554 15.0551 1.5364"></polygon>
                <polygon id="Fill-163" fill="#E23365" points="19.9388 1.5364 20.7368 7.9434 21.2928 7.9434 21.4618 2.1404 24.8228 1.5364"></polygon>
                <polygon id="Fill-165" fill="#E23365" points="30.069 1.5364 33.91 1.5364 33.043 7.7744 32.511 7.7744 32.658 2.0444"></polygon>
            </g>
        </g>
    </g>
</svg>