<?xml version="1.0" encoding="UTF-8"?>
<svg width="103px" height="118px" viewBox="0 0 103 118" version="1.1" xmlns="http://www.w3.org/2000/svg" xmlns:xlink="http://www.w3.org/1999/xlink">
    <!-- Generator: Sketch 53.1 (72631) - https://sketchapp.com -->
    <title>Group 56Sticker3</title>
    <desc>Created with Sketch.</desc>
    <g id="Page-1" stroke="none" stroke-width="1" fill="none" fill-rule="evenodd">
        <g id="Group-56" transform="translate(0.883500, 0.165500)">
            <path d="M96.828,52.334 C96.813,52.605 96.793,52.875 96.774,53.146 C96.728,53.801 96.673,54.456 96.604,55.108 C96.574,55.386 96.547,55.663 96.514,55.938 C96.417,56.731 96.306,57.521 96.177,58.31 C96.16,58.412 96.146,58.515 96.129,58.617 C95.978,59.505 95.803,60.389 95.612,61.27 C95.557,61.524 95.494,61.777 95.436,62.031 C95.287,62.676 95.13,63.318 94.96,63.959 C94.885,64.24 94.811,64.52 94.733,64.799 C94.537,65.503 94.328,66.204 94.106,66.901 C94.055,67.072 94.005,67.244 93.949,67.414 C93.674,68.265 93.379,69.111 93.069,69.952 C92.979,70.198 92.882,70.441 92.789,70.686 C92.557,71.294 92.319,71.901 92.07,72.503 C91.95,72.797 91.828,73.088 91.705,73.379 C91.447,73.979 91.183,74.575 90.912,75.167 C90.804,75.405 90.698,75.645 90.588,75.881 C90.219,76.667 89.837,77.445 89.442,78.215 C89.305,78.484 89.161,78.748 89.021,79.014 C88.745,79.54 88.464,80.063 88.178,80.582 C87.998,80.904 87.818,81.225 87.636,81.545 C87.367,82.017 87.091,82.484 86.813,82.949 C86.628,83.258 86.447,83.568 86.26,83.874 C85.835,84.564 85.401,85.248 84.961,85.922 C84.75,86.246 84.53,86.562 84.314,86.882 C84.049,87.277 83.782,87.671 83.511,88.059 C83.256,88.424 82.999,88.784 82.74,89.142 C82.503,89.472 82.263,89.797 82.022,90.122 C81.747,90.493 81.471,90.864 81.191,91.228 C80.98,91.502 80.766,91.77 80.553,92.04 C79.984,92.764 79.407,93.473 78.823,94.169 C78.644,94.381 78.467,94.596 78.287,94.806 C77.942,95.208 77.595,95.602 77.246,95.994 C77.074,96.187 76.902,96.377 76.731,96.566 C76.361,96.974 75.992,97.377 75.62,97.772 C75.551,97.845 75.481,97.915 75.414,97.986 C74.525,98.921 73.629,99.819 72.727,100.679 C72.722,100.686 72.715,100.692 72.709,100.697 C72.277,101.108 71.845,101.507 71.411,101.9 C71.315,101.987 71.221,102.074 71.126,102.159 C69.258,103.836 67.384,105.341 65.53,106.655 C65.484,106.688 65.437,106.722 65.39,106.755 C64.618,107.299 63.849,107.815 63.09,108.291 L63.088,108.292 C62.606,108.592 62.129,108.872 61.653,109.144 C61.549,109.205 61.442,109.269 61.338,109.327 C60.913,109.564 60.493,109.786 60.075,109.999 C59.918,110.081 59.76,110.162 59.602,110.24 C59.223,110.426 58.849,110.601 58.475,110.767 C58.278,110.855 58.083,110.939 57.888,111.022 C57.551,111.163 57.217,111.297 56.886,111.421 C56.655,111.508 56.429,111.586 56.2,111.664 C55.906,111.764 55.611,111.863 55.322,111.95 C55.058,112.027 54.802,112.091 54.544,112.157 C54.293,112.22 54.042,112.289 53.797,112.34 C53.486,112.404 53.186,112.449 52.885,112.494 C52.697,112.522 52.506,112.561 52.323,112.582 C51.84,112.636 51.367,112.667 50.908,112.667 C34.191,112.667 4.909,81.575 4.909,49.631 C4.909,48.671 4.937,47.736 4.979,46.813 C4.991,46.541 5.009,46.273 5.025,46.004 C5.064,45.328 5.116,44.662 5.178,44.006 C5.201,43.747 5.224,43.485 5.252,43.229 C5.347,42.357 5.454,41.498 5.587,40.662 C5.59,40.644 5.594,40.625 5.598,40.605 C5.727,39.787 5.882,38.989 6.048,38.204 C6.099,37.963 6.153,37.728 6.208,37.491 C6.341,36.903 6.483,36.326 6.636,35.757 C6.696,35.532 6.754,35.306 6.817,35.084 C7.032,34.33 7.26,33.587 7.506,32.866 C7.519,32.828 7.535,32.792 7.548,32.753 C7.785,32.068 8.041,31.4 8.307,30.745 C8.391,30.536 8.48,30.33 8.568,30.124 C8.781,29.623 9.003,29.128 9.232,28.644 C9.323,28.451 9.413,28.255 9.508,28.065 C9.826,27.421 10.153,26.789 10.498,26.177 C10.525,26.128 10.555,26.083 10.583,26.034 C10.905,25.469 11.239,24.918 11.585,24.379 C11.701,24.195 11.821,24.016 11.941,23.836 C12.219,23.418 12.502,23.008 12.793,22.605 C12.913,22.438 13.031,22.27 13.154,22.105 C13.555,21.569 13.965,21.043 14.387,20.535 C14.439,20.473 14.495,20.414 14.548,20.352 C14.926,19.902 15.314,19.465 15.709,19.04 C15.856,18.88 16.006,18.725 16.156,18.569 C16.48,18.23 16.809,17.9 17.143,17.577 C17.292,17.433 17.438,17.287 17.588,17.147 C18.054,16.71 18.524,16.284 19.007,15.873 C19.089,15.803 19.174,15.738 19.256,15.669 C19.669,15.324 20.086,14.988 20.51,14.662 C20.686,14.525 20.866,14.393 21.045,14.259 C21.397,13.996 21.754,13.74 22.112,13.491 C22.288,13.368 22.464,13.244 22.64,13.124 C23.149,12.782 23.662,12.449 24.182,12.13 C24.303,12.056 24.426,11.988 24.547,11.915 C24.967,11.664 25.39,11.419 25.814,11.183 C25.99,11.086 26.166,10.99 26.342,10.896 C26.384,10.873 26.427,10.852 26.468,10.83 C26.821,10.641 27.178,10.458 27.535,10.28 C27.735,10.179 27.934,10.077 28.136,9.981 C28.672,9.723 29.209,9.474 29.751,9.238 C29.903,9.171 30.057,9.111 30.21,9.046 C30.229,9.038 30.251,9.028 30.272,9.02 C30.373,8.978 30.474,8.936 30.575,8.894 C30.871,8.772 31.166,8.649 31.464,8.534 C31.691,8.445 31.92,8.359 32.147,8.274 C32.244,8.238 32.339,8.2 32.435,8.165 C32.452,8.159 32.468,8.152 32.484,8.146 C32.736,8.053 32.99,7.967 33.242,7.879 C33.464,7.803 33.683,7.724 33.904,7.651 C34.075,7.594 34.246,7.54 34.417,7.485 C34.54,7.446 34.663,7.409 34.785,7.37 C35.033,7.293 35.282,7.211 35.531,7.138 L35.53,7.138 C35.784,7.063 36.039,6.997 36.293,6.926 C36.525,6.861 36.756,6.797 36.988,6.736 C37.432,6.618 37.877,6.507 38.321,6.401 C38.563,6.343 38.807,6.286 39.049,6.232 C39.48,6.136 39.912,6.046 40.342,5.961 C40.594,5.912 40.846,5.861 41.097,5.815 C41.52,5.738 41.941,5.668 42.362,5.602 C42.616,5.561 42.869,5.518 43.121,5.481 C43.541,5.42 43.957,5.369 44.374,5.318 C44.623,5.288 44.874,5.254 45.122,5.227 C45.545,5.182 45.963,5.146 46.381,5.11 C46.618,5.09 46.856,5.066 47.092,5.049 C47.536,5.018 47.975,4.996 48.416,4.976 C48.618,4.966 48.822,4.951 49.023,4.944 C49.659,4.921 50.287,4.909 50.908,4.909 C70.075,4.909 96.907,15.557 96.907,49.631 C96.907,50.533 96.876,51.434 96.828,52.334 M84.066,10.584 C75.219,3.857 63.133,1.42108547e-14 50.908,1.42108547e-14 C50.26,1.42108547e-14 49.567,0.013 48.85,0.038 C48.685,0.044 48.523,0.053 48.36,0.063 L48.17,0.073 C47.709,0.094 47.229,0.118 46.744,0.152 C46.559,0.166 46.381,0.182 46.201,0.198 L45.969,0.219 C45.512,0.257 45.056,0.297 44.596,0.347 C44.383,0.369 44.167,0.397 43.952,0.424 L43.767,0.447 C43.327,0.5 42.873,0.557 42.414,0.624 C42.201,0.654 41.981,0.69 41.762,0.726 L41.583,0.754 C41.134,0.826 40.677,0.901 40.217,0.985 C39.999,1.025 39.784,1.067 39.57,1.11 L39.395,1.145 C38.923,1.238 38.453,1.335 37.982,1.44 C37.712,1.501 37.446,1.563 37.182,1.626 C36.7,1.741 36.215,1.862 35.73,1.991 C35.482,2.056 35.226,2.126 34.969,2.198 L34.75,2.258 C34.557,2.311 34.365,2.364 34.174,2.42 C34.161,2.423 34.148,2.427 34.137,2.431 C33.947,2.487 33.758,2.546 33.569,2.606 L33.33,2.682 L33.161,2.734 L32.928,2.807 L32.843,2.835 C32.682,2.886 32.519,2.939 32.357,2.992 C32.178,3.051 31.994,3.115 31.81,3.179 L31.636,3.24 L31.412,3.318 C31.205,3.39 30.999,3.461 30.794,3.537 C30.767,3.546 30.741,3.556 30.716,3.566 C30.71,3.568 30.702,3.571 30.694,3.574 L30.511,3.645 L30.427,3.677 C30.181,3.768 29.928,3.863 29.677,3.962 C29.372,4.08 29.063,4.207 28.755,4.335 L28.704,4.355 L28.542,4.423 L28.378,4.491 C28.351,4.502 28.314,4.517 28.288,4.528 L28.143,4.588 C28.026,4.637 27.909,4.685 27.792,4.736 C27.231,4.98 26.646,5.249 26.004,5.559 C25.84,5.637 25.656,5.729 25.473,5.822 L25.337,5.89 C24.947,6.084 24.551,6.288 24.156,6.499 L24.024,6.568 C23.829,6.672 23.635,6.779 23.441,6.886 C22.961,7.153 22.494,7.423 22.03,7.7 L21.928,7.76 C21.818,7.823 21.708,7.888 21.599,7.955 C21.081,8.272 20.519,8.634 19.901,9.051 C19.737,9.162 19.585,9.268 19.433,9.374 L19.304,9.464 C18.905,9.743 18.504,10.03 18.108,10.325 L18.035,10.379 C17.858,10.511 17.682,10.642 17.508,10.777 C17.044,11.135 16.568,11.517 16.102,11.907 L16.07,11.933 C15.987,12 15.904,12.067 15.822,12.137 C15.306,12.577 14.783,13.046 14.226,13.569 C14.107,13.68 13.981,13.803 13.855,13.926 L13.73,14.048 C13.349,14.417 12.98,14.789 12.615,15.169 C12.447,15.343 12.277,15.521 12.109,15.702 C11.659,16.187 11.225,16.677 10.819,17.158 C10.75,17.236 10.692,17.301 10.637,17.368 C10.166,17.933 9.711,18.513 9.221,19.168 C9.126,19.294 9.025,19.434 8.926,19.574 L8.82,19.72 C8.481,20.191 8.162,20.653 7.849,21.125 L7.804,21.192 C7.682,21.376 7.559,21.56 7.44,21.748 C7.063,22.336 6.689,22.953 6.34,23.564 C6.294,23.64 6.253,23.71 6.214,23.78 C5.866,24.397 5.502,25.09 5.107,25.888 C5.029,26.047 4.952,26.209 4.876,26.371 L4.798,26.538 C4.537,27.089 4.286,27.648 4.05,28.206 L4.018,28.277 C3.93,28.485 3.841,28.695 3.755,28.907 C3.444,29.672 3.174,30.388 2.931,31.085 C2.913,31.131 2.896,31.175 2.881,31.22 C2.874,31.24 2.867,31.259 2.86,31.278 C2.604,32.029 2.354,32.834 2.096,33.739 C2.046,33.917 1.998,34.095 1.951,34.273 L1.896,34.478 C1.726,35.109 1.567,35.754 1.42,36.403 L1.401,36.484 C1.348,36.721 1.294,36.957 1.243,37.196 C1.048,38.12 0.89,38.963 0.761,39.765 L0.759,39.774 C0.752,39.811 0.744,39.855 0.738,39.891 C0.606,40.719 0.49,41.61 0.372,42.695 C0.348,42.915 0.327,43.14 0.307,43.364 L0.289,43.55 C0.223,44.263 0.167,44.993 0.124,45.716 L0.118,45.82 C0.101,46.08 0.086,46.34 0.074,46.604 C0.024,47.699 -1.13686838e-13,48.694 -1.13686838e-13,49.631 C-1.13686838e-13,65.073 6.49,82.045 17.806,96.194 C28.354,109.383 41.038,117.576 50.908,117.576 C51.531,117.576 52.171,117.539 52.866,117.461 C53.088,117.435 53.289,117.403 53.491,117.369 L53.613,117.349 L53.671,117.34 C54.043,117.284 54.414,117.226 54.797,117.146 C55.062,117.09 55.324,117.025 55.586,116.958 L55.743,116.918 L55.893,116.879 C56.163,116.81 56.432,116.74 56.707,116.66 C57.076,116.549 57.432,116.431 57.786,116.31 C58.096,116.204 58.36,116.112 58.629,116.01 C58.991,115.876 59.387,115.716 59.786,115.549 C60.027,115.447 60.255,115.349 60.484,115.246 C60.897,115.062 61.327,114.862 61.762,114.649 C61.964,114.549 62.147,114.454 62.331,114.359 C62.776,114.132 63.252,113.881 63.733,113.611 C63.821,113.563 63.921,113.505 64.019,113.447 L64.104,113.398 C64.705,113.054 65.187,112.768 65.651,112.479 C65.664,112.47 65.678,112.462 65.69,112.454 C66.484,111.958 67.31,111.407 68.217,110.769 L68.331,110.688 C70.376,109.237 72.406,107.606 74.405,105.813 L74.607,105.629 L74.703,105.542 C75.172,105.118 75.633,104.691 76.095,104.251 C76.101,104.245 76.109,104.238 76.116,104.232 C77.064,103.327 78.025,102.364 78.971,101.37 L79.042,101.295 L79.184,101.147 C79.583,100.726 79.974,100.298 80.365,99.867 C80.552,99.662 80.732,99.46 80.914,99.257 C81.283,98.842 81.651,98.424 82.015,97.999 C82.143,97.85 82.274,97.694 82.405,97.538 L82.578,97.331 C83.212,96.576 83.828,95.818 84.413,95.072 L84.563,94.883 C84.735,94.666 84.907,94.449 85.078,94.228 C85.371,93.846 85.651,93.469 85.932,93.092 L85.962,93.051 C86.219,92.704 86.472,92.362 86.722,92.015 C86.994,91.637 87.264,91.258 87.532,90.876 C87.823,90.458 88.104,90.042 88.386,89.626 L88.592,89.321 C88.754,89.084 88.914,88.846 89.072,88.605 C89.523,87.914 89.984,87.187 90.44,86.447 C90.578,86.223 90.713,85.997 90.847,85.771 L91.023,85.474 C91.323,84.973 91.615,84.477 91.9,83.976 C92.092,83.641 92.28,83.306 92.468,82.969 C92.778,82.407 93.074,81.854 93.366,81.298 L93.51,81.028 C93.611,80.838 93.712,80.647 93.81,80.455 C94.236,79.623 94.646,78.788 95.031,77.969 C95.113,77.792 95.191,77.621 95.267,77.449 L95.379,77.204 C95.663,76.585 95.943,75.952 96.216,75.315 C96.355,74.986 96.484,74.678 96.612,74.369 C96.876,73.729 97.132,73.079 97.379,72.426 L97.468,72.195 C97.539,72.012 97.609,71.83 97.677,71.646 C98.018,70.717 98.337,69.801 98.62,68.925 C98.666,68.785 98.711,68.638 98.755,68.49 L98.799,68.344 C99.02,67.646 99.248,66.884 99.461,66.122 C99.532,65.867 99.599,65.619 99.664,65.37 L99.703,65.224 C99.876,64.571 100.044,63.892 100.219,63.141 L100.278,62.883 C100.323,62.692 100.368,62.501 100.409,62.31 C100.634,61.277 100.817,60.336 100.97,59.437 C100.983,59.353 100.998,59.257 101.013,59.162 L101.023,59.091 C101.158,58.266 101.281,57.4 101.387,56.53 C101.414,56.301 101.437,56.08 101.462,55.859 L101.485,55.638 C101.56,54.918 101.622,54.202 101.672,53.486 L101.686,53.277 C101.702,53.051 101.718,52.825 101.73,52.598 C101.788,51.516 101.816,50.545 101.816,49.631 C101.816,28.511 92.164,16.74 84.066,10.584" id="Fill-252" fill="#FFFFFF"></path>
            <path d="M50.9081,4.9092 C31.7421,4.9092 4.9091,15.5562 4.9091,49.6312 C4.9091,81.5752 34.1911,112.6672 50.9081,112.6672 C66.3481,112.6672 96.9071,81.5752 96.9071,49.6312 C96.9071,15.5562 70.0751,4.9092 50.9081,4.9092" id="Fill-254" fill="#16C4B3"></path>
            <path d="M50.9081,4.9092 C31.7421,4.9092 4.9091,15.5562 4.9091,49.6312 C4.9091,81.5752 34.1911,112.6672 50.9081,112.6672 C66.3481,112.6672 96.9071,81.5752 96.9071,49.6312 C96.9071,15.5562 70.0751,4.9092 50.9081,4.9092 Z" id="Stroke-256" stroke="#000000" stroke-width="2"></path>
            <path d="M44.2215,72.5362 C44.8635,72.3352 45.5035,72.1512 46.1455,71.9852 C46.1105,71.3232 46.0935,70.6572 46.0935,69.9862 C45.2005,61.5772 41.5055,54.1862 35.0325,49.4322 C28.0285,44.2932 19.0545,43.1822 10.0755,45.5102 C10.5455,54.7722 14.2945,63.0022 21.2985,68.1422 C27.7735,72.8942 35.9325,74.2032 44.2215,72.5362" id="Fill-258" fill="#26141A"></path>
            <path d="M44.2215,72.5362 C44.8635,72.3352 45.5035,72.1512 46.1455,71.9852 C46.1105,71.3232 46.0935,70.6572 46.0935,69.9862 C45.2005,61.5772 41.5055,54.1862 35.0325,49.4322 C28.0285,44.2932 19.0545,43.1822 10.0755,45.5102 C10.5455,54.7722 14.2945,63.0022 21.2985,68.1422 C27.7735,72.8942 35.9325,74.2032 44.2215,72.5362 Z" id="Stroke-260" stroke="#000000"></path>
            <path d="M58.4364,72.5362 C57.7944,72.3352 57.1544,72.1512 56.5134,71.9852 C56.5474,71.3232 56.5644,70.6572 56.5644,69.9862 C57.4574,61.5772 61.1524,54.1862 67.6264,49.4322 C74.6294,44.2932 83.6044,43.1822 92.5824,45.5102 C92.1134,54.7722 88.3634,63.0022 81.3584,68.1422 C74.8844,72.8942 66.7254,74.2032 58.4364,72.5362" id="Fill-262" fill="#26141A"></path>
            <path d="M58.4364,72.5362 C57.7944,72.3352 57.1544,72.1512 56.5134,71.9852 C56.5474,71.3232 56.5644,70.6572 56.5644,69.9862 C57.4574,61.5772 61.1524,54.1862 67.6264,49.4322 C74.6294,44.2932 83.6044,43.1822 92.5824,45.5102 C92.1134,54.7722 88.3634,63.0022 81.3584,68.1422 C74.8844,72.8942 66.7254,74.2032 58.4364,72.5362 Z" id="Stroke-264" stroke="#000000"></path>
            <path d="M50.5643,80.0572 C50.5643,81.2792 49.5763,82.2682 48.3553,82.2682 C47.1343,82.2682 46.1453,81.2792 46.1453,80.0572 C46.1453,78.8372 47.1343,77.8482 48.3553,77.8482 C49.5763,77.8482 50.5643,78.8372 50.5643,80.0572" id="Fill-266" fill="#3A1B24"></path>
            <path d="M50.5643,80.0572 C50.5643,81.2792 49.5763,82.2682 48.3553,82.2682 C47.1343,82.2682 46.1453,81.2792 46.1453,80.0572 C46.1453,78.8372 47.1343,77.8482 48.3553,77.8482 C49.5763,77.8482 50.5643,78.8372 50.5643,80.0572 Z" id="Stroke-268" stroke="#000000"></path>
            <path d="M56.9393,80.0572 C56.9393,81.2792 55.9503,82.2682 54.7293,82.2682 C53.5083,82.2682 52.5193,81.2792 52.5193,80.0572 C52.5193,78.8372 53.5083,77.8482 54.7293,77.8482 C55.9503,77.8482 56.9393,78.8372 56.9393,80.0572" id="Fill-270" fill="#3A1B24"></path>
            <path d="M56.9393,80.0572 C56.9393,81.2792 55.9503,82.2682 54.7293,82.2682 C53.5083,82.2682 52.5193,81.2792 52.5193,80.0572 C52.5193,78.8372 53.5083,77.8482 54.7293,77.8482 C55.9503,77.8482 56.9393,78.8372 56.9393,80.0572 Z" id="Stroke-272" stroke="#000000"></path>
        </g>
    </g>
</svg>