<?xml version="1.0" encoding="UTF-8"?>
<svg width="118px" height="181px" viewBox="0 0 118 181" version="1.1" xmlns="http://www.w3.org/2000/svg" xmlns:xlink="http://www.w3.org/1999/xlink">
    <!-- Generator: Sketch 53.1 (72631) - https://sketchapp.com -->
    <title>Group 58Sticker5</title>
    <desc>Created with Sketch.</desc>
    <g id="Page-1" stroke="none" stroke-width="1" fill="none" fill-rule="evenodd">
        <g id="Group-58" transform="translate(0.833696, 0.734572)">
            <path d="M33.6043041,43.8216281 C33.7763041,44.0366281 33.9433041,44.2556281 34.1133041,44.4716281 C33.8523041,44.3526281 33.5973041,44.2246281 33.3423041,44.0946281 C33.4353041,44.0096281 33.5213041,43.9166281 33.6043041,43.8216281 M44.3873041,31.9656281 C44.1533041,32.1086281 43.9523041,32.2906281 43.7883041,32.5076281 C43.6463041,32.4266281 43.5003041,32.3576281 43.3493041,32.2956281 C43.7603041,32.0936281 44.1643041,31.8816281 44.5623041,31.6616281 C44.5033041,31.7626281 44.4453041,31.8636281 44.3873041,31.9656281 M67.7643041,18.5446281 C65.1663041,10.0986281 59.1333041,2.6096281 50.4103041,0.0956280962 C48.4733041,-0.462371904 45.8143041,1.5126281 47.1123041,3.6536281 C49.7333041,7.9746281 49.9833041,12.4176281 49.0833041,17.3066281 C48.6663041,19.5716281 48.2343041,22.0916281 46.6233041,23.8456281 C45.1133041,25.4896281 42.9743041,26.6646281 40.9893041,27.6276281 C37.2163041,29.4576281 32.7733041,30.3986281 28.7093041,28.9616281 C26.8483041,28.3026281 25.1443041,27.2716281 23.8973041,25.7156281 C22.6003041,24.0976281 21.9773041,22.1706281 19.6053041,21.9956281 C18.9443041,21.9466281 18.4183041,22.1386281 18.0353041,22.4646281 C17.1173041,22.7626281 16.3803041,23.5026281 16.3853041,24.6336281 C16.4173041,31.9786281 19.3113041,39.1006281 24.6353041,44.2196281 C30.3133041,49.6776281 37.9683041,52.2126281 45.7873041,51.7216281 C53.3853041,51.2436281 60.7913041,47.4876281 65.3283041,41.3136281 C70.2403041,34.6296281 70.1233041,26.2056281 67.7643041,18.5446281" id="Fill-46" fill="#FFFFFF"></path>
            <path d="M66.0760041,20.6946281 C69.3330041,33.9486281 59.4320041,47.0836281 46.1570041,48.9856281 C39.6280041,49.9206281 32.9580041,47.7746281 27.8640041,43.6576281 C25.2820041,41.5746281 23.1010041,39.0116281 21.4940041,36.1046281 C19.9150041,33.2356281 18.3650041,29.4976281 19.3070041,26.2136281 C19.4130041,25.8386281 19.9130041,26.0266281 19.9190041,26.3526281 C19.9180041,26.3606281 19.9170041,26.3716281 19.9200041,26.3796281 C20.0350041,33.8426281 25.1800041,40.8196281 31.3820041,44.5796281 C42.2330041,51.1536281 56.4470041,47.1966281 62.7090041,36.2096281 C68.5760041,25.9166281 64.0590041,12.1846281 53.8300041,6.6996281 C57.2820041,14.7026281 55.3520041,25.3116281 47.4860041,30.0086281 C43.1540041,32.5986281 37.2230041,33.2046281 32.2780041,32.7406281 C27.8660041,32.3286281 22.3700041,30.6596281 20.0060041,26.5606281 C19.9720041,26.4986281 19.9580041,26.4386281 19.9630041,26.3806281 C19.9860041,26.1346281 20.3170041,25.9416281 20.5410041,26.1156281 C22.2990041,27.4826281 23.8530041,28.8776281 25.9280041,29.7876281 C27.9830041,30.6836281 30.1770041,31.1926281 32.4020041,31.4026281 C36.7320041,31.8056281 41.8120041,31.3136281 45.7650041,29.3906281 C54.5980041,25.1006281 56.3710041,12.7156281 51.3900041,4.9446281 C50.9210041,4.2106281 51.9680041,3.3256281 52.4440041,4.0686281 C52.5680041,4.2596281 52.6820041,4.4596281 52.7990041,4.6546281 C59.5050041,7.5456281 64.3420041,13.6396281 66.0760041,20.6946281" id="Fill-48" fill="#1C1C1B"></path>
            <path d="M47.0350041,39.2244281 C47.2220041,38.7314281 46.5940041,38.4814281 46.2800041,38.8214281 C46.0140041,39.1104281 45.8340041,39.4394281 45.5350041,39.7094281 C45.5080041,39.6204281 45.4480041,39.5404281 45.3370041,39.5114281 C42.8760041,38.8444281 41.1920041,37.4754281 39.9160041,35.2784281 C39.8480041,35.1664281 39.6330041,35.2044281 39.6780041,35.3544281 C40.3710041,37.7064281 42.5370041,39.5784281 44.9110041,40.1304281 C44.7180041,40.2264281 44.5140041,40.3024281 44.3060041,40.3574281 C43.8990041,40.4654281 43.9940041,41.0944281 44.4260041,41.0124281 C44.9610041,40.9124281 45.4620041,40.7154281 45.9170041,40.4114281 C46.3390041,40.1334281 46.8530041,39.7054281 47.0350041,39.2244281 M57.0610041,34.1734281 C57.4280041,33.4304281 56.2310041,32.9984281 55.8630041,33.7214281 C55.0780041,35.2544281 53.3830041,36.3614281 51.6630041,35.5984281 C49.6580041,34.7064281 49.9270041,32.2274281 51.7580041,31.3844281 C52.1140041,31.2214281 51.9260041,30.7134281 51.5570041,30.7494281 C48.8310041,31.0394281 48.4750041,34.6794281 50.3320041,36.2084281 C52.7200041,38.1834281 55.8360041,36.6504281 57.0610041,34.1734281 M53.8300041,6.7004281 C64.0590041,12.1844281 68.5760041,25.9164281 62.7090041,36.2094281 C56.4470041,47.1964281 42.2330041,51.1544281 31.3820041,44.5794281 C25.1800041,40.8204281 20.0350041,33.8424281 19.9200041,26.3794281 L19.9630041,26.3804281 C19.9580041,26.4384281 19.9720041,26.4984281 20.0060041,26.5604281 C22.3700041,30.6604281 27.8660041,32.3284281 32.2780041,32.7404281 C37.2230041,33.2044281 43.1540041,32.5994281 47.4860041,30.0084281 C55.3520041,25.3114281 57.2820041,14.7024281 53.8300041,6.7004281" id="Fill-50" fill="#DDEEF0"></path>
            <path d="M55.8631041,33.7215281 C56.2311041,32.9985281 57.4271041,33.4305281 57.0611041,34.1735281 C55.8361041,36.6505281 52.7191041,38.1835281 50.3321041,36.2085281 C48.4751041,34.6795281 48.8311041,31.0395281 51.5571041,30.7495281 C51.9251041,30.7135281 52.1141041,31.2215281 51.7581041,31.3845281 C49.9261041,32.2275281 49.6581041,34.7065281 51.6631041,35.5975281 C53.3831041,36.3615281 55.0781041,35.2545281 55.8631041,33.7215281" id="Fill-52" fill="#1C1C1B"></path>
            <path d="M46.2801041,38.8211281 C46.5931041,38.4811281 47.2221041,38.7311281 47.0351041,39.2241281 C46.8531041,39.7061281 46.3391041,40.1331281 45.9171041,40.4121281 C45.4621041,40.7151281 44.9611041,40.9121281 44.4261041,41.0121281 C43.9941041,41.0941281 43.8991041,40.4651281 44.3051041,40.3571281 C44.5141041,40.3021281 44.7181041,40.2271281 44.9111041,40.1311281 C42.5371041,39.5781281 40.3711041,37.7061281 39.6771041,35.3541281 C39.6331041,35.2051281 39.8481041,35.1661281 39.9161041,35.2791281 C41.1921041,37.4761281 42.8761041,38.8441281 45.3371041,39.5111281 C45.4481041,39.5411281 45.5081041,39.6211281 45.5351041,39.7101281 C45.8341041,39.4391281 46.0131041,39.1101281 46.2801041,38.8211281" id="Fill-54" fill="#1C1C1B"></path>
            <path d="M108.287004,46.8714281 C104.395004,47.2904281 100.430004,50.8724281 97.2770041,52.9334281 C93.0970041,55.6664281 88.9670041,58.4804281 84.8820041,61.3544281 C75.9810041,67.6154281 67.3330041,74.2334281 58.9620041,81.1854281 C50.3680041,88.3214281 42.4900041,96.8704281 33.1570041,103.034428 C32.3850041,103.544428 31.8280041,104.160428 31.4520041,104.821428 C19.5160041,106.696428 10.2410041,118.845428 1.37800409,126.483428 C-0.546995908,128.141428 -0.277995908,130.814428 1.09700409,132.675428 C3.98600409,136.582428 7.40100409,139.980428 11.2850041,142.904428 C13.1360041,144.296428 15.0910041,145.547428 17.1350041,146.634428 C17.1870041,146.662428 17.2490041,146.691428 17.3080041,146.720428 C16.7330041,149.808428 17.9970041,152.964428 22.2420041,155.872428 C25.2370041,157.924428 28.6680041,159.478428 31.9520041,161.001428 C34.6780041,162.265428 38.1280041,164.342428 41.2950041,164.229428 C44.3810041,167.460428 47.6210041,170.520428 51.0420041,173.399428 C53.9720041,175.865428 57.7680041,180.073428 61.8390041,180.258428 C65.6390041,180.433428 68.6330041,177.137428 70.8530041,174.487428 C73.4060041,171.442428 75.2870041,167.956428 76.6640041,164.234428 C77.9510041,160.754428 78.7150041,157.075428 79.2250041,153.405428 C79.7750041,149.447428 79.1410041,144.880428 80.3330041,141.079428 C81.5300041,137.257428 84.7900041,133.688428 86.7660041,130.202428 C89.0670041,126.141428 91.1370041,121.956428 93.0940041,117.720428 C100.963004,100.680428 106.831004,82.6724281 113.289004,65.0674281 C114.612004,61.4594281 116.920004,57.2134281 116.209004,53.2354281 C115.532004,49.4434281 112.236004,46.4464281 108.287004,46.8714281" id="Fill-56" fill="#FFFFFF"></path>
            <path d="M104.018404,53.7688281 C107.509404,52.5248281 111.340404,52.3208281 112.605404,56.5698281 C113.382404,59.1878281 111.707404,62.4908281 110.933404,64.9188281 C109.850404,68.3078281 108.706404,71.6768281 107.498404,75.0198281 C99.1364041,98.2218281 87.7794041,120.279828 73.8434041,140.607828 C74.1444041,140.754828 74.3914041,141.038828 74.4174041,141.449828 C74.4374041,141.760828 74.4554041,142.066828 74.4654041,142.375828 L72.5424041,142.476828 C69.5664041,146.743828 66.4934041,150.934828 63.2934041,155.035828 C63.0454041,155.351828 62.7144041,155.476828 62.3944041,155.464828 C62.2574041,155.526828 62.0974041,155.542828 61.9244041,155.462828 C61.3454041,155.186828 60.8964041,154.706828 60.3544041,154.360828 C60.3454041,154.357828 60.3334041,154.349828 60.3254041,154.346828 C60.0754041,154.458828 59.7694041,154.475828 59.4504041,154.323828 C58.1984041,153.717828 56.9394041,153.013828 55.6984041,152.241828 C54.6184041,154.385828 53.4554041,156.483828 52.2804041,158.567828 C51.7994041,159.419828 50.9994041,160.434828 50.4354041,161.437828 L48.8864041,160.537828 C50.6744041,157.469828 52.4914041,154.415828 54.4684041,151.463828 C51.7354041,149.644828 49.1224041,147.486828 46.9194041,145.200828 L47.8594041,143.843828 C52.0864041,146.744828 56.3154041,149.762828 60.4534041,152.759828 C60.5554041,152.831828 60.6254041,152.913828 60.6884041,152.991828 C60.7814041,153.016828 60.8724041,153.036828 60.9654041,153.076828 C61.2254041,153.170828 61.5124041,153.302828 61.7814041,153.457828 C71.1014041,141.470828 79.5004041,128.796828 86.8364041,115.500828 C93.5754041,103.284828 99.4154041,90.5828281 104.305404,77.5238281 C104.522404,76.9308281 104.737404,76.3318281 104.954404,75.7388281 C98.5864041,77.0648281 88.6784041,73.0208281 87.7084041,66.1198281 L89.2564041,65.6828281 C91.0714041,71.8308281 99.6284041,75.3788281 105.489404,73.6008281 C105.576404,73.5708281 105.666404,73.5618281 105.745404,73.5588281 C106.470404,71.5358281 107.178404,69.5078281 107.856404,67.4658281 C108.643404,65.1048281 111.833404,58.6018281 110.073404,56.2948281 C108.789404,54.6228281 106.745404,54.7868281 104.673404,55.6008281 L104.018404,53.7688281 Z" id="Fill-58" fill="#1C1C1B"></path>
            <path d="M110.073004,56.2947281 C111.834004,58.6017281 108.643004,65.1047281 107.856004,67.4657281 C107.179004,69.5077281 106.471004,71.5357281 105.745004,73.5587281 C105.667004,73.5617281 105.576004,73.5707281 105.489004,73.6007281 C99.6290041,75.3787281 91.0710041,71.8307281 89.2570041,65.6827281 C89.2060041,65.5117281 89.1580041,65.3307281 89.1190041,65.1537281 C89.3130041,65.0177281 89.5070041,64.8827281 89.7040041,64.7527281 C92.6660041,62.7697281 95.6680041,60.8527281 98.7090041,58.9967281 C100.072004,58.1697281 102.387004,56.4947281 104.674004,55.6007281 C106.745004,54.7867281 108.790004,54.6227281 110.073004,56.2947281" id="Fill-60" fill="#C1401E"></path>
            <path d="M104.018404,53.7688281 L104.673404,55.6008281 C102.386404,56.4948281 100.072404,58.1698281 98.7084041,58.9968281 C95.6674041,60.8518281 92.6654041,62.7688281 89.7044041,64.7528281 C89.5064041,64.8828281 89.3134041,65.0178281 89.1194041,65.1538281 C89.1584041,65.3308281 89.2054041,65.5118281 89.2564041,65.6828281 L87.7084041,66.1198281 C63.9474041,82.3918281 44.0354041,102.617828 26.2054041,125.164828 L25.0564041,126.012828 C24.9804041,125.919828 24.9184041,125.826828 24.8474041,125.730828 C24.4944041,125.538828 24.2844041,125.111828 24.5834041,124.665828 C27.8324041,119.888828 31.3224041,115.265828 35.0024041,110.802828 C34.7144041,110.853828 34.4294041,110.911828 34.1494041,110.965828 L33.7914041,109.129828 C34.6744041,109.038828 35.5694041,109.014828 36.4734041,109.051828 C43.9304041,100.213828 52.1474041,91.9928281 60.7474041,84.3358281 C72.6474041,73.7398281 85.5414041,64.2618281 99.2204041,56.0958281 C100.448404,55.3608281 102.187404,54.4238281 104.018404,53.7688281" id="Fill-62" fill="#1C1C1B"></path>
            <path d="M88.1717041,105.225928 C92.9777041,98.9089281 92.6927041,88.8579281 85.7327041,84.1239281 C82.1967041,81.7199281 77.8757041,81.8649281 73.9807041,83.2349281 C70.9847041,84.2919281 67.0197041,85.9539281 66.2957041,89.3569281 C62.0557041,94.1719281 62.7977041,103.111928 66.4447041,107.945928 C71.7617041,114.994928 83.6717041,111.137928 88.1717041,105.225928 M104.953704,75.7389281 C104.736704,76.3319281 104.522704,76.9309281 104.305704,77.5239281 C99.4157041,90.5829281 93.5747041,103.284928 86.8367041,115.500928 C79.5007041,128.796928 71.1017041,141.470928 61.7807041,153.457928 C61.5127041,153.302928 61.2257041,153.170928 60.9657041,153.076928 C60.8717041,153.036928 60.7807041,153.016928 60.6887041,152.991928 C60.6257041,152.913928 60.5557041,152.831928 60.4527041,152.759928 C56.3157041,149.762928 52.0867041,146.744928 47.8587041,143.843928 C47.6687041,143.714928 47.4837041,143.581928 47.2967041,143.457928 C48.1507041,139.189928 48.5557041,134.770928 49.1377041,130.685928 C49.2657041,129.816928 48.2857041,129.430928 47.6147041,129.691928 C44.1447041,131.035928 40.7057041,132.727928 37.4687041,134.757928 C37.4307041,134.710928 37.3897041,134.673928 37.3387041,134.632928 C33.4947041,131.565928 29.8197041,128.500928 26.2047041,125.163928 C44.0347041,102.617928 63.9467041,82.3919281 87.7087041,66.1199281 C88.6787041,73.0209281 98.5867041,77.0649281 104.953704,75.7389281" id="Fill-64" fill="#595BD9"></path>
            <path d="M85.9022041,105.825528 C90.7072041,100.811528 91.7332041,92.2875281 86.7742041,86.9725281 C84.1122041,84.1155281 80.5492041,83.2535281 76.7662041,84.0245281 C74.5462041,84.4755281 70.7082041,85.7135281 68.8352041,87.8375281 C68.8492041,87.9095281 68.8362041,87.9835281 68.7872041,88.0445281 C68.5552041,88.3235281 68.3362041,88.6105281 68.1232041,88.8945281 C67.9732041,89.2045281 67.8532041,89.5295281 67.7952041,89.8735281 C67.7412041,90.1715281 67.5712041,90.3675281 67.3502041,90.4805281 C67.2462041,90.5335281 67.1322041,90.5695281 67.0182041,90.5755281 C64.4172041,95.0025281 63.9412041,100.042528 66.2632041,105.076528 C69.4602041,112.027528 78.5872041,111.365528 84.1042041,107.377528 C84.7622041,106.903528 85.3672041,106.383528 85.9022041,105.825528 M85.7322041,84.1235281 C92.6932041,88.8585281 92.9772041,98.9085281 88.1722041,105.225528 C83.6722041,111.137528 71.7612041,114.994528 66.4452041,107.946528 C62.7982041,103.111528 62.0552041,94.1715281 66.2962041,89.3575281 C67.0192041,85.9535281 70.9852041,84.2915281 73.9802041,83.2345281 C77.8762041,81.8655281 82.1972041,81.7195281 85.7322041,84.1235281" id="Fill-66" fill="#1C1C1B"></path>
            <path d="M86.7743041,86.9724281 C91.7333041,92.2874281 90.7073041,100.811428 85.9023041,105.825428 C85.3673041,106.383428 84.7623041,106.903428 84.1043041,107.377428 L83.2883041,106.221428 C88.9103041,102.180428 88.7133041,95.0754281 85.6123041,89.4884281 C82.5953041,84.0684281 74.5583041,86.2234281 70.5013041,89.2264281 C70.3243041,89.3534281 70.2403041,89.5354281 70.2243041,89.7184281 C69.7523041,90.0834281 69.3213041,90.4864281 68.9303041,90.9264281 L67.3503041,90.4804281 C67.5713041,90.3684281 67.7413041,90.1714281 67.7953041,89.8734281 C67.8533041,89.5294281 67.9733041,89.2044281 68.1233041,88.8944281 C68.3363041,88.6104281 68.5553041,88.3234281 68.7873041,88.0444281 C68.8363041,87.9834281 68.8493041,87.9094281 68.8353041,87.8374281 C70.7083041,85.7134281 74.5453041,84.4754281 76.7663041,84.0244281 C80.5493041,83.2534281 84.1123041,84.1154281 86.7743041,86.9724281" id="Fill-68" fill="#D9EDF6"></path>
            <path d="M82.8163041,104.347428 C86.6893041,101.036428 86.9193041,95.4994281 84.5003041,91.2094281 C81.6593041,86.1774281 75.4463041,87.9364281 71.4663041,90.6214281 C71.2543041,90.7664281 71.0313041,90.7704281 70.8373041,90.6934281 C68.0783041,94.2934281 67.0103041,99.3054281 70.1603041,103.076428 C73.2983041,106.840428 79.0403041,107.572428 82.8163041,104.347428 M85.6123041,89.4884281 C88.7133041,95.0754281 88.9103041,102.180428 83.2883041,106.221428 C78.4813041,109.678428 71.6893041,108.361428 68.2813041,103.566428 C65.5423041,99.7104281 65.9133041,94.3354281 68.9303041,90.9264281 C69.3213041,90.4864281 69.7523041,90.0834281 70.2243041,89.7184281 C70.2403041,89.5344281 70.3243041,89.3534281 70.5013041,89.2264281 C74.5583041,86.2234281 82.5953041,84.0684281 85.6123041,89.4884281" id="Fill-70" fill="#1C1C1B"></path>
            <path d="M84.4999041,91.2098281 C86.9189041,95.4998281 86.6889041,101.036828 82.8159041,104.347828 C79.0399041,107.572828 73.2989041,106.839828 70.1599041,103.076828 C67.0109041,99.3058281 68.0779041,94.2928281 70.8379041,90.6938281 C71.0309041,90.7708281 71.2549041,90.7668281 71.4669041,90.6218281 C75.4459041,87.9368281 81.6589041,86.1768281 84.4999041,91.2098281" id="Fill-72" fill="#53ACD3"></path>
            <path d="M83.2879041,106.221028 L84.1039041,107.378028 C78.5869041,111.365028 69.4599041,112.028028 66.2639041,105.076028 C63.9409041,100.043028 64.4169041,95.0020281 67.0179041,90.5760281 C67.1329041,90.5700281 67.2459041,90.5330281 67.3499041,90.4800281 L68.9309041,90.9260281 C65.9129041,94.3360281 65.5419041,99.7100281 68.2809041,103.566028 C71.6889041,108.362028 78.4809041,109.679028 83.2879041,106.221028" id="Fill-74" fill="#D9EDF6"></path>
            <path d="M72.5428041,142.477328 L74.4658041,142.375328 C74.7368041,148.710328 73.5958041,155.084328 71.2698041,160.986328 C70.1558041,163.813328 68.7738041,166.542328 67.1388041,169.102328 C65.8938041,171.053328 64.1278041,174.307328 62.0358041,175.512328 C59.7668041,176.829328 57.2128041,174.428328 55.4458041,173.200328 C52.9808041,171.478328 49.9498041,169.402328 48.2458041,166.876328 C46.7108041,164.593328 47.5458041,162.844328 48.8178041,160.660328 C48.8408041,160.619328 48.8638041,160.579328 48.8868041,160.538328 L50.4358041,161.438328 C50.1828041,161.889328 49.9738041,162.339328 49.8618041,162.769328 C49.1538041,165.543328 50.2978041,166.380328 51.8118041,167.773328 C53.8188041,169.632328 56.3488041,171.942328 58.9078041,173.089328 C61.1418041,174.102328 61.8218041,173.039328 63.1988041,171.248328 C63.8028041,170.465328 64.3768041,169.668328 64.9238041,168.848328 C70.1798041,160.985328 72.5858041,151.853328 72.5428041,142.477328" id="Fill-76" fill="#1C1C1B"></path>
            <path d="M72.5428041,142.477328 C72.5858041,151.853328 70.1798041,160.985328 64.9238041,168.848328 C64.3768041,169.668328 63.8028041,170.465328 63.1988041,171.248328 C61.8218041,173.039328 61.1418041,174.102328 58.9078041,173.089328 C56.3488041,171.942328 53.8188041,169.632328 51.8118041,167.773328 C50.2978041,166.380328 49.1538041,165.543328 49.8618041,162.769328 C49.9738041,162.339328 50.1828041,161.889328 50.4358041,161.438328 C50.9998041,160.434328 51.7998041,159.420328 52.2798041,158.568328 C53.4558041,156.484328 54.6178041,154.386328 55.6978041,152.241328 C56.9388041,153.013328 58.1978041,153.718328 59.4498041,154.324328 C59.7698041,154.476328 60.0748041,154.459328 60.3248041,154.346328 C60.3338041,154.349328 60.3458041,154.358328 60.3548041,154.360328 C60.8968041,154.706328 61.3458041,155.187328 61.9248041,155.462328 C62.0978041,155.542328 62.2578041,155.527328 62.3948041,155.465328 C62.7148041,155.477328 63.0458041,155.352328 63.2938041,155.035328 C66.4928041,150.934328 69.5658041,146.743328 72.5428041,142.477328" id="Fill-78" fill="#C1401E"></path>
            <path d="M46.8036041,132.278128 C38.3866041,135.884128 31.7326041,141.416128 25.2816041,147.949128 C25.2176041,148.011128 25.1506041,148.052128 25.0836041,148.079128 C27.5826041,153.330128 32.0816041,157.080128 37.9006041,157.591128 C37.9636041,157.471128 38.0466041,157.348128 38.1686041,157.242128 C44.9196041,151.112128 45.6576041,140.943128 46.8036041,132.278128 M47.6156041,129.692128 C48.2856041,129.431128 49.2656041,129.817128 49.1376041,130.686128 C48.5556041,134.771128 48.1516041,139.190128 47.2966041,143.458128 C47.4846041,143.582128 47.6686041,143.715128 47.8596041,143.844128 L46.9196041,145.200128 C45.7246041,150.307128 43.7346041,155.102128 39.8156041,158.736128 C39.7506041,159.186128 39.4156041,159.605128 38.8326041,159.595128 C32.0056041,159.430128 25.4916041,155.083128 23.6896041,148.328128 C23.5756041,147.918128 23.8706041,147.622128 24.2166041,147.541128 C24.1926041,147.406128 24.2146041,147.264128 24.3076041,147.129128 C27.2966041,142.674128 31.2996041,138.916128 35.7976041,135.857128 C33.7476041,134.633128 31.7726041,133.124128 29.9476041,131.450128 C27.6326041,134.589128 25.3966041,138.039128 22.7396041,140.862128 C21.5906041,142.083128 20.3216041,142.650128 18.7366041,141.906128 C16.0666041,140.655128 13.4196041,138.332128 11.0036041,136.403128 L12.2526041,135.093128 C13.7446041,136.213128 15.6826041,137.245128 16.8246041,138.096128 C18.2386041,139.147128 18.6656041,139.916128 20.4296041,139.545128 C22.1206041,139.188128 22.6446041,137.934128 23.6406041,136.629128 C25.2886041,134.466128 26.9376041,132.303128 28.6026041,130.145128 C27.3076041,128.838128 26.1086041,127.445128 25.0566041,126.012128 L26.2046041,125.164128 C29.8206041,128.501128 33.4946041,131.566128 37.3386041,134.633128 C37.3896041,134.674128 37.4306041,134.711128 37.4686041,134.757128 C40.7056041,132.728128 44.1446041,131.035128 47.6156041,129.692128" id="Fill-80" fill="#1C1C1B"></path>
            <path d="M34.1493041,110.966128 C34.4293041,110.912128 34.7143041,110.854128 35.0033041,110.802128 C31.3223041,115.266128 27.8333041,119.888128 24.5843041,124.666128 C24.2843041,125.112128 24.4943041,125.538128 24.8473041,125.731128 C24.9193041,125.827128 24.9803041,125.920128 25.0563041,126.012128 C26.1083041,127.445128 27.3073041,128.838128 28.6023041,130.145128 C26.9373041,132.303128 25.2893041,134.466128 23.6403041,136.629128 C22.6443041,137.934128 22.1213041,139.188128 20.4293041,139.545128 C18.6663041,139.916128 18.2383041,139.147128 16.8253041,138.096128 C15.6823041,137.245128 13.7453041,136.213128 12.2533041,135.093128 C11.5763041,134.582128 10.9983041,134.050128 10.6213041,133.511128 C8.88530409,131.008128 11.8043041,128.454128 13.2363041,126.540128 C18.7533041,119.180128 25.2103041,112.886128 34.1493041,110.966128" id="Fill-82" fill="#C1401E"></path>
            <path d="M33.7918041,109.129728 L34.1488041,110.965728 C25.2098041,112.886728 18.7538041,119.180728 13.2358041,126.540728 C11.8048041,128.454728 8.88580409,131.008728 10.6208041,133.510728 C10.9978041,134.050728 11.5758041,134.582728 12.2528041,135.093728 L11.0038041,136.402728 C10.6578041,136.125728 10.3168041,135.859728 9.98280409,135.605728 C8.31280409,134.335728 6.93080409,133.057728 7.68680409,130.822728 C8.68180409,127.879728 11.6528041,124.910728 13.5758041,122.512728 C15.7358041,119.817728 18.0628041,117.250728 20.7408041,115.067728 C24.4978041,112.005728 28.9808041,109.634728 33.7918041,109.129728" id="Fill-84" fill="#1C1C1B"></path>
            <path d="M25.2811041,147.949528 C31.7321041,141.416528 38.3861041,135.884528 46.8031041,132.278528 C45.6581041,140.943528 44.9201041,151.112528 38.1691041,157.241528 C38.0471041,157.347528 37.9641041,157.470528 37.9001041,157.591528 C32.0821041,157.080528 27.5831041,153.330528 25.0841041,148.079528 C25.1501041,148.052528 25.2181041,148.011528 25.2811041,147.949528" id="Fill-86" fill="#C1401E"></path>
        </g>
    </g>
</svg>