<?xml version="1.0" encoding="UTF-8"?>
<svg width="141px" height="111px" viewBox="0 0 141 111" version="1.1" xmlns="http://www.w3.org/2000/svg" xmlns:xlink="http://www.w3.org/1999/xlink">
    <!-- Generator: Sketch 53.1 (72631) - https://sketchapp.com -->
    <title>Group 64Sticker13</title>
    <desc>Created with Sketch.</desc>
    <g id="Page-1" stroke="none" stroke-width="1" fill="none" fill-rule="evenodd">
        <g id="Group-64">
            <g id="Group-366">
                <path d="M137.3882,22.959 C129.4832,7.826 111.6072,2.599 95.8102,1.001 C77.2002,-0.881 58.0302,2.191 40.1512,7.345 C26.2012,11.366 10.9332,18.331 4.7612,32.434 C3.8262,34.568 0.3262,40.861 0.1942,49.987 C-0.0288,65.406 13.2032,73.435 26.4012,76.979 C36.1312,79.592 57.4312,82.986 57.7432,83.169 C62.9822,86.231 66.8652,89.679 67.8092,95.99 C68.4442,100.237 67.7572,105.375 70.4632,109.001 C71.1422,109.911 72.0832,110.455 73.1742,110.405 C74.3852,111.229 76.3892,110.966 77.3492,109.633 C83.6432,100.896 88.2072,91.193 90.9872,80.792 C103.6432,78.143 115.5452,72.9 125.5942,64.078 C137.3332,53.772 145.2402,37.989 137.3882,22.959" id="Fill-360" fill="#FFFDFE"></path>
                <path d="M131.0152,26.0684 C123.8612,12.3744 107.6852,7.6434 93.3902,6.1984 C76.5492,4.4954 59.2022,7.2754 43.0242,11.9394 C30.4012,15.5784 16.5832,21.8804 10.9982,34.6424 C10.1542,36.5744 7.2392,42.1244 6.8652,50.5264 C6.2452,64.4674 18.6382,71.7454 30.5812,74.9524 C39.9602,77.4714 61.2412,80.8494 62.0642,80.8244 C71.2792,80.5464 72.3982,96.9824 72.0142,103.2364 C71.8482,105.9444 75.3642,106.3354 76.6852,104.5014 C82.3802,96.5944 86.5102,87.8144 89.0262,78.4024 C100.4792,76.0054 111.2482,71.2614 120.3432,63.2774 C130.9662,53.9524 138.1192,39.6694 131.0152,26.0684" id="Fill-362" fill="#E23365"></path>
                <path d="M131.0152,26.0684 C123.8612,12.3744 107.6852,7.6434 93.3902,6.1984 C76.5492,4.4954 59.2022,7.2754 43.0242,11.9394 C30.4012,15.5784 16.5832,21.8804 10.9982,34.6424 C10.1542,36.5744 7.2392,42.1244 6.8652,50.5264 C6.2452,64.4674 18.6382,71.7454 30.5812,74.9524 C39.9602,77.4714 61.2412,80.8494 62.0642,80.8244 C71.2792,80.5464 72.3982,96.9824 72.0142,103.2364 C71.8482,105.9444 75.3642,106.3354 76.6852,104.5014 C82.3802,96.5944 86.5102,87.8144 89.0262,78.4024 C100.4792,76.0054 111.2482,71.2614 120.3432,63.2774 C130.9662,53.9524 138.1192,39.6694 131.0152,26.0684 Z" id="Stroke-364" stroke="#050505" stroke-width="2"></path>
            </g>
            <text id="SPACE!" font-family="Amatic-Bold, Amatic" font-size="44.8104" font-style="condensed" font-weight="bold" fill="#020202">
                <tspan x="37.1064" y="57.1150875">S</tspan>
                <tspan x="48.5496809" y="57.1150875" letter-spacing="-2.31221664">P</tspan>
                <tspan x="54.7706947" y="57.1150875">ACE!</tspan>
            </text>
        </g>
    </g>
</svg>