<?xml version="1.0" encoding="UTF-8"?>
<svg width="179px" height="194px" viewBox="0 0 179 194" version="1.1" xmlns="http://www.w3.org/2000/svg" xmlns:xlink="http://www.w3.org/1999/xlink">
    <!-- Generator: Sketch 53.1 (72631) - https://sketchapp.com -->
    <title>Group 155statllite</title>
    <desc>Created with Sketch.</desc>
    <g id="Page-1" stroke="none" stroke-width="1" fill="none" fill-rule="evenodd">
        <g id="Group-155">
            <path d="M92.4259,136.4902 L92.4259,136.4902 L92.1839,136.3472 L90.7759,138.3312 L79.6339,130.4222 C78.6149,130.9272 77.5139,131.2682 76.3719,131.4252 C76.3049,133.0702 75.7669,134.6842 74.7839,136.0682 C74.6309,136.2842 74.4679,136.4922 74.2969,136.6922 C74.8019,142.5442 73.2369,148.3252 69.7989,153.1672 C65.9579,158.5792 60.2389,162.1712 53.6969,163.2822 L48.7669,164.1182 L47.6639,157.6262 L35.4399,148.9492 C35.0269,149.0162 34.6109,149.0502 34.1979,149.0502 C30.4519,149.0502 27.2779,146.3682 26.6499,142.6722 C26.3069,140.6552 26.7709,138.6252 27.9549,136.9562 C29.1389,135.2882 30.9019,134.1812 32.9179,133.8382 C33.1069,133.8062 33.2959,133.7822 33.4859,133.7632 L41.6589,122.2482 L40.4509,115.1292 L45.3799,114.2922 C46.7609,114.0572 48.1659,113.9392 49.5569,113.9392 C52.8849,113.9392 56.1159,114.6022 59.0929,115.8432 L53.2009,111.6622 L54.5879,109.7092 L54.3969,109.4972 L8.8599,77.1772 L49.1829,20.3662 L94.7179,52.6852 L91.8939,56.6642 L92.6579,57.2062 C96.8049,53.6152 102.1619,51.5702 107.7629,51.5702 C108.6499,51.5702 109.5329,51.6212 110.4099,51.7232 L118.2089,40.7342 L136.3669,53.6242 L128.5369,64.6582 C131.2859,70.4012 131.5589,77.1122 129.1659,83.1182 L129.9259,83.6572 L132.7489,79.6792 L178.2829,111.9972 L137.9609,168.8082 L92.4259,136.4902 Z" id="Fill-1" fill="#FFFDFE"></path>
            <polygon id="Fill-3" fill="#FFFFFF" points="116.8361 110.5239 133.6891 86.7809 171.0671 113.3109 154.2161 137.0549"></polygon>
            <polygon id="Stroke-5" stroke="#020202" points="116.8361 110.5239 133.6891 86.7809 171.0671 113.3109 154.2161 137.0549"></polygon>
            <polygon id="Fill-7" fill="#53A2D3" points="136.1916 120.9575 120.1556 109.5755 133.8886 90.2275 149.9236 101.6085"></polygon>
            <polygon id="Stroke-9" stroke="#020202" points="136.1916 120.9575 120.1556 109.5755 133.8886 90.2275 149.9236 101.6085"></polygon>
            <polygon id="Fill-11" fill="#53A2D3" points="154.0158 133.6079 137.9808 122.2269 151.7128 102.8789 167.7478 114.2589"></polygon>
            <polygon id="Stroke-13" stroke="#020202" points="154.0158 133.6079 137.9808 122.2269 151.7128 102.8789 167.7478 114.2589"></polygon>
            <polygon id="Fill-15" fill="#FFFFFF" points="33.2697 51.2114 50.1227 27.4684 87.5017 53.9984 70.6497 77.7414"></polygon>
            <polygon id="Stroke-17" stroke="#020202" points="33.2697 51.2114 50.1227 27.4684 87.5017 53.9984 70.6497 77.7414"></polygon>
            <polygon id="Fill-19" fill="#53A2D3" points="52.6252 61.645 36.5902 50.263 50.3222 30.915 66.3572 42.296"></polygon>
            <polygon id="Stroke-21" stroke="#020202" points="52.6252 61.645 36.5902 50.263 50.3222 30.915 66.3572 42.296"></polygon>
            <polygon id="Fill-23" fill="#53A2D3" points="70.4494 74.2963 54.4144 62.9143 68.1464 43.5663 84.1814 54.9463"></polygon>
            <polygon id="Stroke-25" stroke="#020202" points="70.4494 74.2963 54.4144 62.9143 68.1464 43.5663 84.1814 54.9463"></polygon>
            <polygon id="Fill-27" fill="#FFFFFF" points="15.5871 76.1245 32.4401 52.3815 69.8191 78.9115 52.9671 102.6555"></polygon>
            <polygon id="Stroke-29" stroke="#020202" points="15.5871 76.1245 32.4401 52.3815 69.8191 78.9115 52.9671 102.6555"></polygon>
            <polygon id="Fill-31" fill="#53A2D3" points="34.9426 86.5571 18.9076 75.1761 32.6396 55.8281 48.6756 67.2091"></polygon>
            <polygon id="Stroke-33" stroke="#020202" points="34.9426 86.5571 18.9076 75.1761 32.6396 55.8281 48.6756 67.2091"></polygon>
            <polygon id="Fill-35" fill="#53A2D3" points="52.7668 99.2084 36.7318 87.8274 50.4638 68.4794 66.4998 79.8604"></polygon>
            <polygon id="Stroke-37" stroke="#020202" points="52.7668 99.2084 36.7318 87.8274 50.4638 68.4794 66.4998 79.8604"></polygon>
            <polygon id="Fill-39" fill="#FFFFFF" points="99.1535 135.437 116.0065 111.694 153.3845 138.224 136.5335 161.967"></polygon>
            <polygon id="Stroke-41" stroke="#020202" points="99.1535 135.437 116.0065 111.694 153.3845 138.224 136.5335 161.967"></polygon>
            <polygon id="Fill-43" fill="#53A2D3" points="118.509 145.8696 102.474 134.4886 116.206 115.1406 132.241 126.5216"></polygon>
            <polygon id="Stroke-45" stroke="#020202" points="118.509 145.8696 102.474 134.4886 116.206 115.1406 132.241 126.5216"></polygon>
            <polygon id="Fill-47" fill="#53A2D3" points="136.3332 158.5209 120.2982 147.1399 134.0302 127.7919 150.0662 139.1719"></polygon>
            <polygon id="Stroke-49" stroke="#020202" points="136.3332 158.5209 120.2982 147.1399 134.0302 127.7919 150.0662 139.1719"></polygon>
            <path d="M64.5392,129.0981 C65.7002,127.4611 67.9692,127.0771 69.6042,128.2381 C71.2402,129.3991 71.6252,131.6661 70.4642,133.3031 C69.3032,134.9391 67.0352,135.3241 65.3992,134.1621 C63.7632,133.0011 63.3782,130.7341 64.5392,129.0981" id="Fill-51" fill="#BCBEC0"></path>
            <path d="M64.5392,129.0981 C65.7002,127.4611 67.9692,127.0771 69.6042,128.2381 C71.2402,129.3991 71.6252,131.6661 70.4642,133.3031 C69.3032,134.9391 67.0352,135.3241 65.3992,134.1621 C63.7632,133.0011 63.3782,130.7341 64.5392,129.0981 Z" id="Stroke-53" stroke="#020202"></path>
            <path d="M70.131,117.85 C71.916,115.335 75.401,114.745 77.915,116.529 C80.429,118.313 81.021,121.798 79.236,124.313 C77.452,126.828 73.967,127.418 71.452,125.634 C68.938,123.85 68.346,120.365 70.131,117.85" id="Fill-55" fill="#BCBEC0"></path>
            <path d="M70.131,117.85 C71.916,115.335 75.401,114.745 77.915,116.529 C80.429,118.313 81.021,121.798 79.236,124.313 C77.452,126.828 73.967,127.418 71.452,125.634 C68.938,123.85 68.346,120.365 70.131,117.85 Z" id="Stroke-57" stroke="#020202"></path>
            <polygon id="Fill-59" fill="#BCBEC0" points="75.6047 116.2739 78.9177 118.6259 69.8637 131.3819 66.5507 129.0309"></polygon>
            <polygon id="Stroke-61" stroke="#020202" points="75.6047 116.2739 78.9177 118.6259 69.8637 131.3819 66.5507 129.0309"></polygon>
            <polygon id="Fill-63" fill="#BCBEC0" points="121.3185 51.8676 124.6315 54.2196 115.5775 66.9756 112.2635 64.6246"></polygon>
            <polygon id="Stroke-65" stroke="#020202" points="121.3185 51.8676 124.6315 54.2196 115.5775 66.9756 112.2635 64.6246"></polygon>
            <polygon id="Fill-67" fill="#BCBEC0" points="129.1525 54.9379 126.8005 58.2509 116.7975 51.1499 119.1485 47.8359"></polygon>
            <polygon id="Stroke-69" stroke="#020202" points="129.1525 54.9379 126.8005 58.2509 116.7975 51.1499 119.1485 47.8359"></polygon>
            <polygon id="Fill-71" fill="#FFFFFF" points="89.3478 131.4897 59.9288 110.6087 92.8018 64.2947 122.2208 85.1757"></polygon>
            <polygon id="Stroke-73" stroke="#020202" points="89.3478 131.4897 59.9288 110.6087 92.8018 64.2947 122.2208 85.1757"></polygon>
            <polygon id="Fill-75" fill="#BCBEC0" points="111.8185 117.5932 103.4345 111.6432 104.7765 109.5932 113.1605 115.5442"></polygon>
            <polygon id="Stroke-77" stroke="#020202" points="111.8185 117.5932 103.4345 111.6432 104.7765 109.5932 113.1605 115.5442"></polygon>
            <polygon id="Fill-79" fill="#BCBEC0" points="101.9552 131.3315 93.5712 125.3815 94.9352 123.4595 103.3192 129.4095"></polygon>
            <polygon id="Stroke-81" stroke="#020202" points="101.9552 131.3315 93.5712 125.3815 94.9352 123.4595 103.3192 129.4095"></polygon>
            <polygon id="Fill-83" fill="#BCBEC0" points="57.1545 96.7553 65.5385 102.7063 64.1535 104.5003 55.7685 98.5503"></polygon>
            <polygon id="Stroke-85" stroke="#020202" points="57.1545 96.7553 65.5385 102.7063 64.1535 104.5003 55.7685 98.5503"></polygon>
            <polygon id="Fill-87" fill="#BCBEC0" points="66.9738 82.7631 75.3588 88.7131 74.0158 90.7621 65.6318 84.8121"></polygon>
            <polygon id="Stroke-89" stroke="#020202" points="66.9738 82.7631 75.3588 88.7131 74.0158 90.7621 65.6318 84.8121"></polygon>
            <polygon id="Fill-91" fill="#BCBEC0" points="129.5011 92.6801 121.1171 86.7301 122.4801 84.8081 130.8641 90.7591"></polygon>
            <polygon id="Stroke-93" stroke="#020202" points="129.5011 92.6801 121.1171 86.7301 122.4801 84.8081 130.8641 90.7591"></polygon>
            <polygon id="Fill-95" fill="#BCBEC0" points="119.6593 106.5454 111.2753 100.5954 112.6393 98.6734 121.0233 104.6244"></polygon>
            <polygon id="Stroke-97" stroke="#020202" points="119.6593 106.5454 111.2753 100.5954 112.6393 98.6734 121.0233 104.6244"></polygon>
            <polygon id="Fill-99" fill="#BCBEC0" points="74.8371 71.8422 83.2211 77.7932 81.8351 79.5872 73.4511 73.6362"></polygon>
            <polygon id="Stroke-101" stroke="#020202" points="74.8371 71.8422 83.2211 77.7932 81.8351 79.5872 73.4511 73.6362"></polygon>
            <polygon id="Fill-103" fill="#BCBEC0" points="84.6779 57.977 93.0619 63.927 91.6769 65.722 83.2919 59.771"></polygon>
            <polygon id="Stroke-105" stroke="#020202" points="84.6779 57.977 93.0619 63.927 91.6769 65.722 83.2919 59.771"></polygon>
            <path d="M122.2209,85.1752 C116.4539,93.2992 105.1949,95.2102 97.0709,89.4442 C88.9469,83.6782 87.0349,72.4182 92.8019,64.2942 C98.5679,56.1712 109.8269,54.2592 117.9509,60.0262 C126.0749,65.7912 127.9869,77.0512 122.2209,85.1752" id="Fill-107" fill="#FFFFFF"></path>
            <path d="M122.2209,85.1752 C116.4539,93.2992 105.1949,95.2102 97.0709,89.4442 C88.9469,83.6782 87.0349,72.4182 92.8019,64.2942 C98.5679,56.1712 109.8269,54.2592 117.9509,60.0262 C126.0749,65.7912 127.9869,77.0512 122.2209,85.1752 Z" id="Stroke-109" stroke="#020202"></path>
            <polygon id="Fill-111" fill="#BCBEC0" points="54.214 155.35 53.696 156.079 33.698 141.885 34.215 141.157"></polygon>
            <polygon id="Stroke-113" stroke="#020202" points="54.214 155.35 53.696 156.079 33.698 141.885 34.215 141.157"></polygon>
            <polygon id="Fill-115" fill="#BCBEC0" points="34.4279 142.4067 33.6989 141.8887 47.8939 121.8897 48.6219 122.4077"></polygon>
            <polygon id="Stroke-117" stroke="#020202" points="34.4279 142.4067 33.6989 141.8887 47.8939 121.8897 48.6219 122.4077"></polygon>
            <polygon id="Fill-119" fill="#BCBEC0" points="34.0314 141.9614 33.8824 141.0794 58.0594 136.9754 58.2094 137.8574"></polygon>
            <polygon id="Stroke-121" stroke="#020202" points="34.0314 141.9614 33.8824 141.0794 58.0594 136.9754 58.2094 137.8574"></polygon>
            <path d="M68.8595,135.5961 C67.0255,124.7891 56.7775,117.5171 45.9725,119.3521 L52.6155,158.4831 C63.4215,156.6491 70.6935,146.4021 68.8595,135.5961" id="Fill-123" fill="#FFFFFF"></path>
            <path d="M68.8595,135.5961 C67.0255,124.7891 56.7775,117.5171 45.9725,119.3521 L52.6155,158.4831 C63.4215,156.6491 70.6935,146.4021 68.8595,135.5961 Z" id="Stroke-125" stroke="#020202"></path>
            <path d="M33.5119,138.8979 C34.9599,138.6529 36.3329,139.6269 36.5789,141.0759 C36.8249,142.5239 35.8499,143.8969 34.4029,144.1429 C32.9529,144.3879 31.5799,143.4149 31.3339,141.9649 C31.0889,140.5169 32.0639,139.1439 33.5119,138.8979" id="Fill-127" fill="#FFFFFF"></path>
            <path d="M33.5119,138.8979 C34.9599,138.6529 36.3329,139.6269 36.5789,141.0759 C36.8249,142.5239 35.8499,143.8969 34.4029,144.1429 C32.9529,144.3879 31.5799,143.4149 31.3339,141.9649 C31.0889,140.5169 32.0639,139.1439 33.5119,138.8979 Z" id="Stroke-129" stroke="#020202"></path>
            <path d="M96.6955,80.3266 C97.9895,78.5046 100.5385,78.0716 102.3605,79.3656 L104.8395,81.1246 C106.6625,82.4186 107.0945,84.9676 105.8005,86.7896 L85.2965,115.6796 C84.0035,117.5026 81.4545,117.9336 79.6315,116.6406 L77.1525,114.8816 C75.3305,113.5886 74.8975,111.0396 76.1905,109.2176 L96.6955,80.3266 Z" id="Fill-131" fill="#E6E7E8"></path>
            <path d="M96.6955,80.3266 C97.9895,78.5046 100.5385,78.0716 102.3605,79.3656 L104.8395,81.1246 C106.6625,82.4186 107.0945,84.9676 105.8005,86.7896 L85.2965,115.6796 C84.0035,117.5026 81.4545,117.9336 79.6315,116.6406 L77.1525,114.8816 C75.3305,113.5886 74.8975,111.0396 76.1905,109.2176 L96.6955,80.3266 Z" id="Stroke-133" stroke="#020202"></path>
            <path d="M59.0412,1.729 C56.9102,3.049 54.1132,2.393 52.7932,0.263 C54.1132,2.393 53.4582,5.19 51.3282,6.51 C53.4582,5.19 56.2552,5.846 57.5752,7.976 C56.2552,5.846 56.9102,3.049 59.0412,1.729" id="Fill-135" fill="#FFFFFF"></path>
            <path d="M59.0412,1.729 C56.9102,3.049 54.1132,2.393 52.7932,0.263 C54.1132,2.393 53.4582,5.19 51.3282,6.51 C53.4582,5.19 56.2552,5.846 57.5752,7.976 C56.2552,5.846 56.9102,3.049 59.0412,1.729 Z" id="Stroke-137" stroke="#020202"></path>
            <path d="M72.1506,188.5561 C70.5756,189.5331 68.5056,189.0481 67.5296,187.4731 C68.5056,189.0481 68.0216,191.1161 66.4466,192.0931 C68.0216,191.1161 70.0896,191.6021 71.0666,193.1761 C70.0896,191.6021 70.5756,189.5331 72.1506,188.5561" id="Fill-139" fill="#FFFFFF"></path>
            <path d="M72.1506,188.5561 C70.5756,189.5331 68.5056,189.0481 67.5296,187.4731 C68.5056,189.0481 68.0216,191.1161 66.4466,192.0931 C68.0216,191.1161 70.0896,191.6021 71.0666,193.1761 C70.0896,191.6021 70.5756,189.5331 72.1506,188.5561 Z" id="Stroke-141" stroke="#020202"></path>
            <path d="M157.5724,87.1059 C155.9974,88.0829 153.9284,87.5979 152.9524,86.0229 C153.9284,87.5979 153.4434,89.6669 151.8694,90.6429 C153.4434,89.6669 155.5114,90.1519 156.4884,91.7269 C155.5114,90.1519 155.9974,88.0829 157.5724,87.1059" id="Fill-143" fill="#FFFFFF"></path>
            <path d="M157.5724,87.1059 C155.9974,88.0829 153.9284,87.5979 152.9524,86.0229 C153.9284,87.5979 153.4434,89.6669 151.8694,90.6429 C153.4434,89.6669 155.5114,90.1519 156.4884,91.7269 C155.5114,90.1519 155.9974,88.0829 157.5724,87.1059 Z" id="Stroke-145" stroke="#020202"></path>
            <path d="M7.9767,90.3393 C5.8457,91.6603 3.0487,91.0043 1.7287,88.8743 C3.0487,91.0043 2.3937,93.8013 0.2637,95.1223 C2.3937,93.8013 5.1907,94.4573 6.5107,96.5873 C5.1907,94.4573 5.8457,91.6603 7.9767,90.3393" id="Fill-147" fill="#FFFFFF"></path>
            <path d="M7.9767,90.3393 C5.8457,91.6603 3.0487,91.0043 1.7287,88.8743 C3.0487,91.0043 2.3937,93.8013 0.2637,95.1223 C2.3937,93.8013 5.1907,94.4573 6.5107,96.5873 C5.1907,94.4573 5.8457,91.6603 7.9767,90.3393 Z" id="Stroke-149" stroke="#020202"></path>
            <path d="M88.8801,147.3344 C86.7511,148.6554 83.9531,147.9994 82.6331,145.8694 C83.9531,147.9994 83.2981,150.7964 81.1671,152.1164 C83.2981,150.7964 86.0951,151.4524 87.4151,153.5824 C86.0951,151.4524 86.7511,148.6554 88.8801,147.3344" id="Fill-151" fill="#FFFFFF"></path>
            <path d="M88.8801,147.3344 C86.7511,148.6554 83.9531,147.9994 82.6331,145.8694 C83.9531,147.9994 83.2981,150.7964 81.1671,152.1164 C83.2981,150.7964 86.0951,151.4524 87.4151,153.5824 C86.0951,151.4524 86.7511,148.6554 88.8801,147.3344 Z" id="Stroke-153" stroke="#020202"></path>
        </g>
    </g>
</svg>