<?xml version="1.0" encoding="UTF-8"?>
<svg width="87px" height="89px" viewBox="0 0 87 89" version="1.1" xmlns="http://www.w3.org/2000/svg" xmlns:xlink="http://www.w3.org/1999/xlink">
    <!-- Generator: Sketch 53.1 (72631) - https://sketchapp.com -->
    <title>Group 55Sticker1</title>
    <desc>Created with Sketch.</desc>
    <g id="Page-1" stroke="none" stroke-width="1" fill="none" fill-rule="evenodd">
        <g id="Group-55" transform="translate(0.241446, 0.455721)">
            <path d="M51.6116538,20.3738792 C51.6276538,21.4038792 51.5906538,22.4228792 51.5086538,23.4328792 C51.2996538,22.7868792 51.1326538,22.1158792 51.0156538,21.4188792 C50.7846538,20.0468792 50.7186538,17.7068792 51.1926538,15.6698792 C51.4576538,17.2238792 51.5886538,18.7938792 51.6116538,20.3738792 M72.6446538,3.46187921 C66.3886538,0.0408792099 58.9586538,-0.50812079 52.0056538,0.37187921 C38.0506538,2.13887921 23.9126538,8.45487921 13.7356538,18.2388792 C4.38965381,27.2228792 -3.28434619,41.9568792 1.43065381,55.0748792 C4.34265381,63.1748792 11.3096538,68.7688792 18.2866538,73.3458792 C24.5796538,77.4768792 31.6216538,80.5618792 39.0186538,82.0188792 C39.3196538,84.3598792 40.5746538,86.3278792 43.3036538,87.2678792 C48.0426538,88.8978792 50.9206538,85.7818792 52.5546538,81.6328792 C54.1536538,82.3738792 55.9776538,82.3998792 57.9916538,81.2038792 C59.1586538,80.5098792 60.0056538,79.5768792 60.6066538,78.5018792 C63.4796538,80.3028792 66.6476538,80.8528792 69.5236538,78.2698792 C71.4006538,76.5818792 72.2516538,74.5198792 72.4636538,72.3228792 C74.4216538,72.4668792 76.4176538,71.8528792 78.3076538,70.0728792 C82.9476538,65.7008792 81.5326538,60.1648792 78.1166538,56.0368792 C81.5706538,52.1948792 83.3306538,46.9438792 84.5206538,41.8768792 C86.1716538,34.8588792 86.8886538,27.4538792 85.1216538,20.3818792 C83.3716538,13.3828792 79.0466538,6.96287921 72.6446538,3.46187921" id="Fill-88" fill="#F4F4F4"></path>
            <path d="M74.7620538,18.2410792 C83.0910538,29.8360792 81.2240538,43.1780792 74.8630538,55.1580792 C74.7020538,55.4640792 74.4750538,55.6290792 74.2230538,55.7020792 C75.2700538,58.0740792 77.4120538,60.1080792 77.6140538,62.7910792 C77.7520538,64.6250792 76.9390538,66.4240792 75.5130538,67.5850792 C73.8190538,68.9580792 71.4530538,69.0170792 69.6710538,68.0650792 C69.7800538,70.8330792 68.7700538,73.6190792 65.7010538,74.2450792 C64.0550538,74.5840792 62.5330538,73.9840792 61.3280538,72.9330792 L62.4300538,71.4790792 C63.1200538,72.0320792 63.9170538,72.3930792 64.8030538,72.3540792 C68.4570538,72.1830792 67.7730538,67.5830792 67.0700538,65.2810792 C66.9550538,64.9090792 67.0360538,64.6110792 67.2240538,64.4020792 C67.2890538,64.0530792 67.7050538,63.9360792 68.0150538,64.0630792 C68.4180538,64.0660792 68.8360538,64.2730792 69.0130538,64.7520792 C69.1030538,64.9940792 69.1860538,65.2480792 69.2560538,65.5090792 C70.0400538,66.3090792 70.9960538,66.8500792 72.2480538,66.7900792 C73.8590538,66.7090792 75.2050538,65.4650792 75.5060538,63.8870792 C76.0420538,61.0550792 72.9240538,58.5760792 72.1870538,55.9600792 C72.0240538,55.3900792 72.3120538,54.9930792 72.7180538,54.8360792 C72.6490538,54.5900792 72.6660538,54.3140792 72.8190538,54.0190792 C76.0970538,47.8620792 78.7000538,41.1130792 78.2030538,34.0150792 C77.7260538,27.1420792 74.4500538,20.6060792 69.6140538,15.7590792 C61.4530538,7.58507921 49.1670538,4.99407921 38.0840538,7.47007921 C25.6790538,10.2430792 15.1590538,19.2000792 9.05105381,30.1740792 C2.59905381,41.7690792 5.54405381,54.1330792 14.2310538,63.6700792 C21.3040538,71.4410792 32.3740538,77.1220792 42.9400538,73.6580792 C43.1370538,73.5940792 43.3130538,73.5960792 43.4670538,73.6400792 C43.8790538,73.5940792 44.3800538,73.9030792 44.4260538,74.3910792 C44.4430538,74.5330792 44.4580538,74.6750792 44.4800538,74.8140792 L42.8470538,75.6130792 C30.0130538,80.2220792 16.5280538,71.4430792 9.24105381,61.1770792 C5.67305381,56.1550792 3.16905381,50.1700792 2.95105381,43.9530792 C2.72605381,37.3770792 5.40405381,31.1890792 8.98205381,25.8080792 C16.4960538,14.5100792 28.3690538,5.93307921 42.0650538,4.45607921 C54.5890538,3.11207921 67.3080538,7.86907921 74.7620538,18.2410792" id="Fill-90" fill="#1C1C1B"></path>
            <path d="M14.8674538,50.9495792 C15.1474538,50.4885792 14.5414538,49.8475792 14.0834538,50.1865792 C12.2444538,51.5325792 11.6404538,54.4035792 11.9004538,56.5445792 C11.9684538,57.1325792 12.8704538,57.1595792 12.8444538,56.5385792 C12.7934538,55.4935792 12.9444538,54.4575792 13.3194538,53.4785792 C13.6894538,52.5165792 14.3464538,51.8105792 14.8674538,50.9495792 M17.5104538,52.5365792 C17.6364538,52.1215792 17.0984538,51.6745792 16.7294538,51.9455792 C14.4704538,53.6305792 14.5964538,57.8115792 15.7774538,60.0515792 C16.0384538,60.5555792 16.8894538,60.2035792 16.7054538,59.6615792 C16.2844538,58.4255792 16.0694538,57.2045792 16.2524538,55.9005792 C16.4294538,54.6375792 17.1394538,53.7015792 17.5104538,52.5365792 M42.3634538,58.1945792 C41.4064538,55.6945792 39.4484538,53.9455792 37.1024538,52.8865792 C31.9174538,49.4195792 23.5504538,48.7815792 20.1794538,54.7965792 C16.3474538,61.6295792 24.5164538,67.9885792 30.5954538,68.8295792 C36.9894538,69.7185792 45.2424538,65.7225792 42.3634538,58.1945792 M61.3734538,60.8745792 C61.2824538,59.2625792 59.6374538,58.2205792 58.3574538,57.5315792 C57.1514538,56.8745792 55.4484538,56.0565792 54.0434538,56.4335792 C53.1634538,56.6745792 52.6634538,57.3255792 52.6254538,58.1065792 C51.7914538,60.0375792 50.9154538,62.7295792 51.7714538,64.6385792 C52.6254538,66.5415792 54.8094538,66.3175792 55.5144538,64.4375792 C55.6624538,64.0325792 55.7544538,63.5995792 55.8134538,63.1635792 C56.9764538,63.9905792 58.3304538,64.3325792 59.8114538,63.4705792 C60.7234538,62.9395792 61.4304538,61.9685792 61.3734538,60.8745792 M71.6114538,42.5335792 C72.3394538,38.1965792 68.0084538,34.7535792 64.3144538,37.2265792 C64.0134538,36.9885792 63.5694538,36.9405792 63.1864538,37.3035792 C60.4204538,39.9625792 58.5314538,46.5095792 62.7884538,48.8295792 C66.7664538,50.9965792 71.0184538,46.0885792 71.6114538,42.5335792 M72.3494538,34.1695792 C71.3084538,32.3465792 68.2184538,31.9715792 66.5204538,32.9305792 C66.0764538,33.1785792 66.3784538,33.8925792 66.8624538,33.7505792 C67.7464538,33.4925792 68.5614538,33.3735792 69.4724538,33.6075792 C70.3564538,33.8335792 70.9194538,34.3875792 71.6524538,34.8845792 C72.0944538,35.1835792 72.5864538,34.5815792 72.3494538,34.1695792 M73.1304538,32.6855792 C73.6094538,33.4315792 74.8114538,32.7125792 74.3134538,31.9855792 C73.0664538,30.1715792 70.5134538,29.2205792 68.4124538,29.9715792 C67.8884538,30.1605792 68.0934538,30.9175792 68.6434538,30.8115792 C70.4694538,30.4655792 72.1204538,31.1325792 73.1304538,32.6855792 M69.6134538,15.7595792 C74.4504538,20.6065792 77.7254538,27.1415792 78.2034538,34.0155792 C78.6994538,41.1125792 76.0964538,47.8625792 72.8184538,54.0195792 C72.6664538,54.3135792 72.6484538,54.5895792 72.7184538,54.8355792 C72.3114538,54.9935792 72.0234538,55.3905792 72.1864538,55.9605792 C72.9244538,58.5755792 76.0424538,61.0555792 75.5064538,63.8865792 C75.2054538,65.4655792 73.8584538,66.7085792 72.2484538,66.7905792 C70.9964538,66.8495792 70.0404538,66.3095792 69.2564538,65.5095792 C69.1854538,65.2475792 69.1024538,64.9935792 69.0134538,64.7515792 C68.8364538,64.2735792 68.4184538,64.0665792 68.0144538,64.0625792 C67.7054538,63.9355792 67.2894538,64.0525792 67.2234538,64.4025792 C67.0364538,64.6115792 66.9554538,64.9085792 67.0694538,65.2805792 C67.7724538,67.5835792 68.4574538,72.1835792 64.8034538,72.3545792 C63.9174538,72.3935792 63.1204538,72.0325792 62.4304538,71.4785792 C61.8964538,71.0525792 61.4284538,70.5035792 61.0284538,69.9295792 C60.9384538,69.4835792 60.8314538,69.0465792 60.7264538,68.6395792 C60.3884538,67.3635792 58.4134538,67.9035792 58.7574538,69.1765792 C59.3264538,71.3155792 60.1854538,74.6995792 57.7334538,76.0215792 C56.0844538,76.9065792 54.5144538,76.2375792 53.2864538,75.1085792 C52.9994538,74.4305792 52.5494538,73.8485792 51.9224538,73.4925792 C51.8434538,73.3725792 51.7674538,73.2585792 51.7014538,73.1465792 C51.3184538,72.5245792 50.4524538,72.9155792 50.5194538,73.5805792 C50.3374538,73.8995792 50.3444538,74.3585792 50.5914538,74.6735792 C51.2264538,75.4795792 51.8014538,76.0785792 51.6844538,77.2145792 C51.5494538,78.5975792 50.4424538,79.4795792 49.1024538,79.6205792 C46.1594538,79.9305792 44.8414538,77.2805792 44.4794538,74.8135792 C44.4584538,74.6755792 44.4424538,74.5325792 44.4264538,74.3905792 C44.3804538,73.9035792 43.8794538,73.5945792 43.4674538,73.6405792 C43.3124538,73.5955792 43.1374538,73.5945792 42.9394538,73.6575792 C32.3744538,77.1215792 21.3044538,71.4415792 14.2304538,63.6695792 C5.54445381,54.1335792 2.59845381,41.7685792 9.05145381,30.1745792 C15.1594538,19.2005792 25.6794538,10.2425792 38.0844538,7.46957921 C49.1674538,4.99457921 61.4534538,7.58557921 69.6134538,15.7595792" id="Fill-92" fill="#F4F4F4"></path>
            <path d="M74.3137538,31.9851792 C74.8117538,32.7121792 73.6097538,33.4311792 73.1297538,32.6851792 C72.1207538,31.1321792 70.4687538,30.4651792 68.6437538,30.8111792 C68.0927538,30.9171792 67.8877538,30.1601792 68.4127538,29.9711792 C70.5127538,29.2211792 73.0667538,30.1711792 74.3137538,31.9851792" id="Fill-94" fill="#1C1C1B"></path>
            <path d="M66.5208538,32.9304792 C68.2178538,31.9724792 71.3088538,32.3464792 72.3498538,34.1694792 C72.5858538,34.5814792 72.0938538,35.1834792 71.6528538,34.8844792 C70.9188538,34.3874792 70.3568538,33.8334792 69.4728538,33.6074792 C68.5618538,33.3734792 67.7468538,33.4924792 66.8628538,33.7504792 C66.3778538,33.8924792 66.0768538,33.1784792 66.5208538,32.9304792" id="Fill-96" fill="#1C1C1B"></path>
            <path d="M64.3147538,37.2268792 C68.0077538,34.7538792 72.3387538,38.1958792 71.6117538,42.5338792 C71.0187538,46.0878792 66.7667538,50.9968792 62.7887538,48.8298792 C58.5317538,46.5098792 60.4197538,39.9618792 63.1867538,37.3038792 C63.5697538,36.9408792 64.0137538,36.9878792 64.3147538,37.2268792" id="Fill-98" fill="#1C1C1B"></path>
            <path d="M58.5042538,61.6702792 C58.5192538,61.6692792 58.5262538,61.6572792 58.5412538,61.6562792 C58.4962538,61.6442792 58.4552538,61.6382792 58.4162538,61.6242792 C57.9732538,61.4622792 57.5252538,61.4232792 57.0942538,61.4752792 C57.5282538,61.7482792 58.0012538,61.8692792 58.5042538,61.6702792 M58.3582538,57.5312792 C59.6372538,58.2212792 61.2822538,59.2622792 61.3732538,60.8742792 C61.4302538,61.9682792 60.7242538,62.9392792 59.8122538,63.4712792 C58.3302538,64.3322792 56.9772538,63.9902792 55.8142538,63.1632792 C55.7542538,63.6002792 55.6622538,64.0332792 55.5152538,64.4382792 C54.8102538,66.3172792 52.6252538,66.5422792 51.7722538,64.6382792 C50.9152538,62.7302792 51.7912538,60.0382792 52.6252538,58.1062792 C52.6632538,57.3262792 53.1632538,56.6742792 54.0432538,56.4342792 C55.4482538,56.0572792 57.1512538,56.8742792 58.3582538,57.5312792" id="Fill-100" fill="#1C1C1B"></path>
            <path d="M58.7571538,69.1761792 C58.4131538,67.9031792 60.3881538,67.3631792 60.7271538,68.6391792 C60.8311538,69.0471792 60.9391538,69.4831792 61.0281538,69.9301792 C61.4281538,70.5041792 61.8971538,71.0521792 62.4301538,71.4791792 L61.3281538,72.9331792 C61.2901538,75.0831792 60.5801538,77.1091792 58.3301538,78.0151792 C56.7971538,78.6351792 55.0731538,78.3981792 53.6251538,77.6271792 C53.3931538,79.4231792 52.1641538,80.8531792 50.4261538,81.3971792 C46.4771538,82.6431792 43.0681538,79.3521792 42.8471538,75.6131792 L44.4801538,74.8141792 C44.8411538,77.2801792 46.1591538,79.9311792 49.1031538,79.6201792 C50.4431538,79.4791792 51.5491538,78.5971792 51.6851538,77.2151792 C51.8011538,76.0781792 51.2271538,75.4791792 50.5911538,74.6741792 C50.3441538,74.3581792 50.3371538,73.9001792 50.5201538,73.5801792 C50.4521538,72.9161792 51.3191538,72.5251792 51.7011538,73.1461792 C51.7681538,73.2581792 51.8431538,73.3731792 51.9221538,73.4931792 C52.5491538,73.8491792 52.9991538,74.4301792 53.2861538,75.1091792 C54.5151538,76.2371792 56.0841538,76.9061792 57.7341538,76.0211792 C60.1861538,74.6991792 59.3261538,71.3161792 58.7571538,69.1761792" id="Fill-102" fill="#1C1C1B"></path>
            <path d="M28.5130538,64.5037792 C28.3380538,64.4247792 28.1650538,64.3377792 27.9870538,64.2537792 C27.5150538,64.1097792 27.0530538,63.9437792 26.6040538,63.7477792 C26.6170538,63.7697792 26.6310538,63.7927792 26.6440538,63.8147792 C27.2480538,64.0937792 27.8740538,64.3207792 28.5130538,64.5037792 M37.1030538,52.8867792 C39.4490538,53.9447792 41.4070538,55.6937792 42.3640538,58.1947792 C45.2420538,65.7227792 36.9900538,69.7187792 30.5950538,68.8297792 C24.5170538,67.9887792 16.3480538,61.6297792 20.1800538,54.7957792 C23.5500538,48.7807792 31.9170538,49.4197792 37.1030538,52.8867792" id="Fill-104" fill="#1C1C1B"></path>
            <path d="M16.7298538,51.9456792 C17.0988538,51.6746792 17.6358538,52.1216792 17.5098538,52.5366792 C17.1398538,53.7016792 16.4288538,54.6376792 16.2518538,55.9006792 C16.0698538,57.2046792 16.2848538,58.4256792 16.7058538,59.6616792 C16.8898538,60.2036792 16.0388538,60.5556792 15.7778538,60.0506792 C14.5958538,57.8116792 14.4698538,53.6306792 16.7298538,51.9456792" id="Fill-106" fill="#1C1C1B"></path>
            <path d="M14.0833538,50.1868792 C14.5413538,49.8478792 15.1473538,50.4888792 14.8673538,50.9498792 C14.3473538,51.8108792 13.6893538,52.5168792 13.3193538,53.4788792 C12.9443538,54.4578792 12.7933538,55.4938792 12.8443538,56.5388792 C12.8703538,57.1598792 11.9683538,57.1328792 11.9003538,56.5438792 C11.6413538,54.4038792 12.2443538,51.5328792 14.0833538,50.1868792" id="Fill-108" fill="#1C1C1B"></path>
        </g>
    </g>
</svg>