<?xml version="1.0" encoding="UTF-8"?>
<svg width="112px" height="111px" viewBox="0 0 112 111" version="1.1" xmlns="http://www.w3.org/2000/svg" xmlns:xlink="http://www.w3.org/1999/xlink">
    <!-- Generator: Sketch 53.1 (72631) - https://sketchapp.com -->
    <title>Group 62Sticker10</title>
    <desc>Created with Sketch.</desc>
    <g id="Page-1" stroke="none" stroke-width="1" fill="none" fill-rule="evenodd">
        <g id="Group-62" transform="translate(0.880046, 0.097900)">
            <path d="M107.486754,3.178 C105.378754,1.069 102.477754,-2.84217094e-14 98.8657537,-2.84217094e-14 C91.4537537,-2.84217094e-14 81.9987537,4.681 74.7267537,9.099 C68.1737537,5.933 60.9237537,4.268 53.6067537,4.268 C52.8247537,4.268 52.0157537,4.289 51.2047537,4.329 C51.0077537,4.338 50.8077537,4.353 50.6077537,4.369 L50.3727537,4.386 L50.3037537,4.391 C49.8137537,4.423 49.3237537,4.456 48.8377537,4.504 C48.5877537,4.528 48.3367537,4.559 48.0857537,4.59 L47.8357537,4.621 L47.7127537,4.636 C47.3097537,4.683 46.9067537,4.731 46.5077537,4.79 C46.2147537,4.833 45.9207537,4.883 45.6267537,4.933 L45.4277537,4.967 C45.0077537,5.039 44.6117537,5.106 44.2177537,5.183 C43.8407537,5.258 43.4657537,5.341 43.0887537,5.424 C42.7147537,5.507 42.3457537,5.59 41.9817537,5.679 C41.5777537,5.779 41.1827537,5.883 40.7917537,5.991 C40.4567537,6.082 40.1207537,6.177 39.7877537,6.276 C39.3797537,6.396 38.9677537,6.525 38.5587537,6.657 C38.2567537,6.757 37.9577537,6.858 37.6597537,6.962 C37.2307537,7.111 36.8027537,7.264 36.3797537,7.425 C36.1417537,7.516 35.9237537,7.603 35.7067537,7.69 L35.6047537,7.73 C35.1487537,7.912 34.6977537,8.097 34.2517537,8.291 C34.0837537,8.364 33.9287537,8.434 33.7747537,8.505 L33.6267537,8.573 C33.1447537,8.79 32.6557537,9.016 32.1727537,9.254 C32.0857537,9.297 31.9927537,9.345 31.8997537,9.392 L31.8087537,9.439 C29.8557537,10.422 27.9637537,11.538 26.1897537,12.754 C26.1797537,12.761 26.1707537,12.767 26.1617537,12.774 C25.4507537,13.262 24.7327537,13.786 23.9667537,14.378 L23.6737537,14.608 L23.6277537,14.644 C22.9977537,15.14 22.3767537,15.654 21.7907537,16.163 L21.6957537,16.245 L21.4927537,16.421 C19.4087537,18.262 17.4827537,20.28 15.7557537,22.43 C15.6837537,22.519 15.6117537,22.611 15.5407537,22.703 L15.4397537,22.831 C14.9667537,23.433 14.5187537,24.032 14.0957537,24.623 L14.0457537,24.694 C13.9447537,24.834 13.8447537,24.973 13.7467537,25.115 C13.2967537,25.761 12.8537537,26.431 12.4337537,27.101 L12.3977537,27.157 C12.3517537,27.228 12.3047537,27.3 12.2597537,27.373 C11.7457537,28.208 11.2717537,29.029 10.8437537,29.824 C10.8297537,29.851 10.8027537,29.901 10.7847537,29.938 C10.3927537,30.671 10.0207537,31.415 9.64275368,32.221 C9.56975368,32.376 9.49875368,32.536 9.42675368,32.696 L9.34875368,32.869 C9.06575368,33.498 8.79875368,34.124 8.55375368,34.732 C8.44275368,35.011 8.34575368,35.252 8.25475368,35.494 C8.01575368,36.116 7.78875368,36.756 7.55675368,37.45 L7.48975368,37.647 C7.43875368,37.794 7.38875368,37.94 7.34075368,38.089 C7.04475368,39.022 6.79375368,39.892 6.57375368,40.751 C6.55375368,40.828 6.53675368,40.904 6.51975368,40.978 C6.32075368,41.777 6.13875368,42.595 5.97575368,43.428 C5.93375368,43.643 5.89575368,43.862 5.85775368,44.079 L5.82275368,44.283 C5.71075368,44.913 5.60875368,45.556 5.52175368,46.184 C5.47775368,46.508 5.43675368,46.826 5.39975368,47.146 C5.32875368,47.765 5.26775368,48.402 5.21575368,49.102 L5.19575368,49.339 C5.17775368,49.551 5.16175368,49.763 5.14875368,49.976 C5.08975368,51.006 5.06075368,51.933 5.06075368,52.813 C5.06075368,60.029 6.67675368,67.182 9.75375368,73.657 C2.39475368,85.482 -4.09424632,100.203 3.18375368,107.482 C3.46075368,107.758 3.75375368,108.016 4.08175368,108.272 C4.16775368,108.341 4.27975368,108.422 4.39375368,108.501 C4.59975368,108.651 4.81775368,108.8 5.04475368,108.939 C5.15675368,109.008 5.27275368,109.073 5.38975368,109.137 C5.63275368,109.273 5.85975368,109.39 6.09275368,109.499 C6.23575368,109.565 6.36675368,109.622 6.49775368,109.677 C6.71675368,109.769 6.95575368,109.859 7.19775368,109.942 C7.34375368,109.992 7.46675368,110.034 7.59275368,110.072 C7.83075368,110.144 8.09175368,110.213 8.35975368,110.277 C8.48975368,110.308 8.57275368,110.328 8.65675368,110.346 C9.00375368,110.419 9.34175368,110.476 9.68375368,110.522 L9.73775368,110.53 C9.75675368,110.532 9.77575368,110.535 9.79575368,110.537 C10.4297537,110.617 11.1037537,110.657 11.7987537,110.657 C11.9277537,110.657 12.0597537,110.656 12.1917537,110.653 C12.2307537,110.653 12.2857537,110.651 12.3407537,110.648 C12.6787537,110.638 13.0257537,110.619 13.3797537,110.591 C13.4347537,110.587 13.4917537,110.582 13.5477537,110.576 C13.9227537,110.543 14.2737537,110.504 14.6327537,110.455 L14.8407537,110.425 C15.1677537,110.379 15.5437537,110.318 15.9257537,110.246 C15.9427537,110.243 16.0167537,110.23 16.0337537,110.226 C18.0817537,109.836 20.3397537,109.169 22.7447537,108.245 C22.7537537,108.242 22.7607537,108.239 22.7697537,108.236 C27.7707537,106.312 33.4097537,103.303 39.5567537,99.283 C44.1107537,100.661 48.8277537,101.358 53.6067537,101.358 C54.4527537,101.358 55.3097537,101.335 56.2277537,101.286 C56.4267537,101.275 56.6227537,101.26 56.8177537,101.243 L57.0607537,101.223 C57.6497537,101.182 58.2397537,101.138 58.8247537,101.075 C59.0597537,101.05 59.2977537,101.019 59.5337537,100.987 L59.7787537,100.955 C60.3147537,100.887 60.8557537,100.815 61.3917537,100.728 C61.6417537,100.688 61.8957537,100.642 62.1507537,100.595 L62.3517537,100.558 C62.8817537,100.461 63.4047537,100.361 63.9247537,100.248 C64.2117537,100.186 64.4997537,100.118 64.7867537,100.05 L64.8487537,100.035 C65.3827537,99.909 65.9087537,99.776 66.4317537,99.633 C66.7217537,99.553 67.0077537,99.472 67.2917537,99.389 C67.8357537,99.229 68.3787537,99.059 68.9177537,98.88 L69.0177537,98.846 C69.2397537,98.772 69.4597537,98.699 69.6787537,98.621 C70.2217537,98.431 70.7857537,98.22 71.3937537,97.98 L71.5507537,97.919 C71.7007537,97.861 71.8497537,97.803 71.9987537,97.741 C72.6207537,97.487 73.2667537,97.204 73.9157537,96.904 L73.9967537,96.867 C74.0837537,96.829 74.1697537,96.791 74.2547537,96.75 C78.1017537,94.939 81.7067537,92.62 84.9657537,89.858 C84.9897537,89.837 85.0137537,89.816 85.0387537,89.795 C85.7247537,89.21 86.3987537,88.602 87.0637537,87.97 L87.1557537,87.882 L87.2757537,87.767 C87.7337537,87.326 88.2027537,86.856 88.6617537,86.377 C88.6827537,86.354 88.7037537,86.332 88.7247537,86.31 C90.2227537,84.739 91.6227537,83.063 92.8847537,81.327 L93.0387537,81.112 L93.1167537,81.001 C93.5807537,80.352 94.0327537,79.685 94.4667537,79.01 L94.5577537,78.868 C94.6257537,78.764 94.6917537,78.661 94.7567537,78.557 C95.2437537,77.78 95.6807537,77.041 96.0847537,76.313 L96.1507537,76.198 C96.6207537,75.344 97.0617537,74.482 97.4717537,73.618 C97.5087537,73.539 97.5457537,73.46 97.5807537,73.381 C97.5847537,73.371 97.6017537,73.332 97.6067537,73.323 C97.9417537,72.603 98.2667537,71.857 98.5737537,71.105 C98.6667537,70.878 98.7577537,70.645 98.8477537,70.41 C99.0897537,69.791 99.3307537,69.128 99.5637537,68.444 L99.6287537,68.255 C99.6887537,68.08 99.7497537,67.905 99.8057537,67.728 C100.071754,66.905 100.309754,66.094 100.517754,65.312 C100.546754,65.219 100.568754,65.14 100.589754,65.062 C100.820754,64.169 101.029754,63.245 101.216754,62.295 C101.249754,62.137 101.280754,61.959 101.310754,61.781 L101.347754,61.573 C101.476754,60.867 101.588754,60.175 101.679754,59.512 C101.723754,59.192 101.762754,58.882 101.799754,58.572 C101.874754,57.942 101.937754,57.287 101.993754,56.567 L102.010754,56.34 C102.029754,56.123 102.046754,55.906 102.058754,55.687 C102.120754,54.647 102.150754,53.705 102.150754,52.813 C102.150754,47.922 101.424754,43.107 99.9887537,38.468 C113.775754,16.985 111.731754,7.422 107.486754,3.178" id="Fill-154" fill="#FFFFFF"></path>
            <path d="M97.8783537,52.8128 C97.8783537,77.2648 78.0563537,97.0858 53.6073537,97.0858 C29.1543537,97.0858 9.33335368,77.2648 9.33335368,52.8128 C9.33335368,28.3628 29.1543537,8.5418 53.6073537,8.5418 C78.0563537,8.5418 97.8783537,28.3628 97.8783537,52.8128" id="Fill-156" fill="#4CEEF3"></path>
            <path d="M97.8783537,52.8128 C97.8783537,77.2648 78.0563537,97.0858 53.6073537,97.0858 C29.1543537,97.0858 9.33335368,77.2648 9.33335368,52.8128 C9.33335368,28.3628 29.1543537,8.5418 53.6073537,8.5418 C78.0563537,8.5418 97.8783537,28.3628 97.8783537,52.8128 Z" id="Stroke-158" stroke="#020202"></path>
            <path d="M104.465254,6.1995 C100.060254,1.7925 88.8312537,5.1745 74.9222537,14.0075 C76.3532537,14.7945 77.7302537,15.6645 79.0582537,16.5995 C84.4322537,14.4955 88.5552537,14.2615 90.6442537,16.3515 C92.7532537,18.4605 92.4962537,22.6415 90.3352537,28.0905 C86.5702537,37.5835 77.0072537,50.9355 63.9752537,63.9685 C51.4902537,76.4525 38.7162537,85.7515 29.3182537,89.8225 C23.2732537,92.4415 18.6212537,92.9035 16.3572537,90.6385 C14.1132537,88.3965 14.5452537,83.8125 17.0982537,77.8515 C16.2222537,76.5775 15.4062537,75.2595 14.6652537,73.8935 C5.34325368,88.2755 1.69025368,99.9455 6.20525368,104.4605 C10.9422537,109.1975 23.5572537,104.9415 38.9152537,94.5795 C48.3662537,88.2035 58.8552537,79.5205 69.1902537,69.1835 C79.9102537,58.4635 88.8502537,47.5825 95.2832537,37.8625 C105.133254,22.9805 109.095254,10.8275 104.465254,6.1995" id="Fill-160" fill="#DB79CF"></path>
            <path d="M104.465254,6.1995 C100.060254,1.7925 88.8312537,5.1745 74.9222537,14.0075 C76.3532537,14.7945 77.7302537,15.6645 79.0582537,16.5995 C84.4322537,14.4955 88.5552537,14.2615 90.6442537,16.3515 C92.7532537,18.4605 92.4962537,22.6415 90.3352537,28.0905 C86.5702537,37.5835 77.0072537,50.9355 63.9752537,63.9685 C51.4902537,76.4525 38.7162537,85.7515 29.3182537,89.8225 C23.2732537,92.4415 18.6212537,92.9035 16.3572537,90.6385 C14.1132537,88.3965 14.5452537,83.8125 17.0982537,77.8515 C16.2222537,76.5775 15.4062537,75.2595 14.6652537,73.8935 C5.34325368,88.2755 1.69025368,99.9455 6.20525368,104.4605 C10.9422537,109.1975 23.5572537,104.9415 38.9152537,94.5795 C48.3662537,88.2035 58.8552537,79.5205 69.1902537,69.1835 C79.9102537,58.4635 88.8502537,47.5825 95.2832537,37.8625 C105.133254,22.9805 109.095254,10.8275 104.465254,6.1995 Z" id="Stroke-162" stroke="#020202"></path>
            <path d="M16.3568537,90.6389 C14.1138537,88.3959 14.5448537,83.8119 17.0978537,77.8519 C16.2218537,76.5779 15.4068537,75.2599 14.6658537,73.8939 C5.34285368,88.2759 1.68985368,99.9459 6.20585368,104.4599 C8.92785368,107.1829 14.2588537,106.9289 21.2148537,104.2559 L29.3178537,89.8229 C23.2728537,92.4419 18.6218537,92.9039 16.3568537,90.6389" id="Fill-164" fill="#000000"></path>
            <path d="M68.7835537,22.2254 C65.5445537,22.2254 62.9185537,24.8514 62.9185537,28.0904 C62.9185537,28.5444 62.9735537,28.9864 63.0725537,29.4104 C61.5825537,29.6484 60.4405537,30.9304 60.4405537,32.4874 C60.4405537,34.2134 61.8415537,35.6134 63.5665537,35.6134 C64.9365537,35.6134 66.0885537,34.7254 66.5115537,33.4994 C67.2095537,33.7934 67.9765537,33.9564 68.7835537,33.9564 C72.0225537,33.9564 74.6475537,31.3294 74.6475537,28.0904 C74.6475537,24.8514 72.0225537,22.2254 68.7835537,22.2254" id="Fill-166" fill="#16C4B3"></path>
            <path d="M29.6458537,37.0823 C29.6458537,38.8093 28.2458537,40.2083 26.5198537,40.2083 C24.7928537,40.2083 23.3938537,38.8093 23.3938537,37.0823 C23.3938537,35.3553 24.7928537,33.9563 26.5198537,33.9563 C28.2458537,33.9563 29.6458537,35.3553 29.6458537,37.0823" id="Fill-168" fill="#16C4B3"></path>
            <path d="M79.0579537,77.8518 C79.0579537,79.5788 77.6589537,80.9778 75.9319537,80.9778 C74.2049537,80.9778 72.8059537,79.5788 72.8059537,77.8518 C72.8059537,76.1248 74.2049537,74.7258 75.9319537,74.7258 C77.6589537,74.7258 79.0579537,76.1248 79.0579537,77.8518" id="Fill-170" fill="#16C4B3"></path>
            <path d="M90.5755537,53.3806 C91.2275537,54.6906 90.9605537,56.2876 89.8065537,57.2126 C88.6465537,58.1316 86.8935537,58.2356 85.6415537,57.4346 C84.6125537,56.7766 84.1235537,55.4076 84.3515537,54.2276 C84.5345537,53.2826 85.3755537,52.1296 86.4435537,52.3836 C86.6265537,52.2336 86.8155537,52.1036 87.0305537,52.0116 C88.3985537,51.3806 89.9305537,52.0576 90.5755537,53.3806" id="Fill-172" fill="#1C1C1B"></path>
            <path d="M63.9007537,51.2039 C64.0707537,50.0899 65.9267537,50.3699 65.8557537,51.4709 C65.5947537,55.1929 65.4317537,59.5719 62.6297537,62.3879 C60.2637537,64.7669 56.6727537,65.4119 53.4407537,65.1969 C46.5057537,64.7469 39.3247537,59.6309 42.5627537,51.9409 C42.9217537,51.0929 44.2387537,51.3799 43.9907537,52.3309 C42.0877537,59.5399 48.5727537,63.2089 54.8417537,63.0589 C58.2827537,62.9809 61.4437537,61.6509 62.6887537,58.1909 C63.4767537,55.9809 63.5487537,53.5109 63.9007537,51.2039" id="Fill-174" fill="#1C1C1B"></path>
            <path d="M26.5638537,55.6355 C26.6228537,58.4965 22.8688537,60.0995 20.7558537,58.2425 C18.7758537,56.5025 19.8898537,52.8335 22.5158537,52.5525 C22.5748537,52.5465 22.6268537,52.5595 22.6788537,52.5725 C23.0638537,52.4615 23.4678537,52.4225 23.8658537,52.4685 C25.4288537,52.6575 26.5248537,54.0975 26.5638537,55.6355" id="Fill-176" fill="#1C1C1B"></path>
        </g>
    </g>
</svg>