<?xml version="1.0" encoding="UTF-8"?>
<svg width="148px" height="142px" viewBox="0 0 148 142" version="1.1" xmlns="http://www.w3.org/2000/svg" xmlns:xlink="http://www.w3.org/1999/xlink">
    <!-- Generator: Sketch 53.1 (72631) - https://sketchapp.com -->
    <title>Group 57Sticker4</title>
    <desc>Created with Sketch.</desc>
    <defs>
        <polygon id="path-1" points="0.868392216 0.48 70.8624006 0.48 70.8624006 64.5762367 0.868392216 64.5762367"></polygon>
    </defs>
    <g id="Page-1" stroke="none" stroke-width="1" fill="none" fill-rule="evenodd">
        <g id="Group-57">
            <path d="M58.8543866,94.084 C55.1053866,89.717 51.0833866,85.555 47.2083866,81.301 C46.1753866,80.168 44.3923866,79.764 42.9463866,80.174 C32.0553866,83.261 20.9043866,85.899 10.1653866,89.475 C5.16338664,91.141 4.15938664,94.831 3.03538664,99.554 C2.40138664,102.221 1.75238664,104.884 1.13938664,107.556 C0.851386641,108.815 0.533386641,110.002 0.470386641,111.169 C-0.276613359,112.767 -0.194613359,114.811 1.15738664,116.248 C6.10938664,121.513 12.7143866,124.933 18.8303866,128.642 L39.3703866,141.097 C41.3573866,142.302 44.2293866,141.575 45.3613866,139.526 C50.7483866,129.779 55.2553866,119.537 58.7263866,108.952 C60.4203866,103.783 62.8393866,98.727 58.8543866,94.084" id="Fill-1" fill="#F4F4F4"></path>
            <path d="M21.9061866,106.7993 C18.3541866,103.6123 14.9321866,100.2753 11.4591866,97.0043 C10.4091866,101.3243 9.33418664,105.6523 8.10218664,109.9273 C12.6511866,108.7023 17.2721866,107.7243 21.9061866,106.7993 L21.9061866,106.7993 Z M23.2351866,105.6583 C23.3201866,101.0383 24.1741866,96.3713 25.2621866,91.8813 C20.7981866,92.9953 16.2101866,94.2603 11.6351866,94.6833 C15.4801866,98.3533 19.4621866,101.9113 23.2351866,105.6583 L23.2351866,105.6583 Z M34.9271866,130.8023 C30.9581866,123.6133 26.9181866,116.4193 23.4641866,108.9823 C18.8361866,109.9923 14.1961866,110.9573 9.53618664,111.6873 C18.2501866,117.6963 26.5791866,124.2913 34.9271866,130.8023 L34.9271866,130.8023 Z M38.0881866,105.8613 C36.3421866,106.2263 34.5941866,106.5973 32.8481866,106.9623 C30.1181866,107.5293 27.3861866,108.1293 24.6491866,108.7283 C29.5701866,116.6793 33.8191866,125.0873 38.2381866,133.3243 C37.7621866,129.1473 38.0681866,124.7603 38.0551866,120.5963 C38.0491866,115.6823 38.0751866,110.7753 38.0881866,105.8613 L38.0881866,105.8613 Z M31.5971866,104.8503 C33.8451866,104.3813 36.0941866,103.9183 38.3431866,103.4563 C38.3091866,103.4433 38.2841866,103.4363 38.2581866,103.4173 C34.1521866,100.3603 30.5991866,96.3263 26.7811866,92.8263 C25.7451866,97.2843 25.1251866,101.7613 24.4151866,106.2973 C26.8201866,105.8213 29.2181866,105.3523 31.5971866,104.8503 L31.5971866,104.8503 Z M39.2221866,102.5633 C40.2981866,97.5253 41.5291866,92.5853 42.2261866,87.4823 C37.4751866,89.0403 32.5221866,90.1413 27.6541866,91.3013 C31.6301866,94.7163 36.1521866,98.2753 39.1831866,102.4983 C39.2031866,102.5243 39.2091866,102.5563 39.2221866,102.5893 L39.2221866,102.5633 Z M45.1271866,117.9833 C47.9421866,113.1343 51.1751866,108.5653 52.5691866,103.0913 C50.0141866,103.7363 47.1011866,103.9703 44.7681866,104.4593 C43.0991866,104.8113 41.4381866,105.1573 39.7691866,105.5083 C39.7501866,110.5403 39.7501866,115.5653 39.7041866,120.5963 C39.6851866,123.5743 39.8221866,126.6643 39.7181866,129.7143 C41.2561866,125.6863 42.9571866,121.7303 45.1271866,117.9833 L45.1271866,117.9833 Z M53.7431866,100.0733 C53.7491866,100.0603 53.7621866,100.0543 53.7681866,100.0413 C50.9531866,95.6353 47.7531866,91.6923 43.9401866,88.1733 C43.2571866,93.1723 42.2531866,98.2033 40.3171866,102.8623 C40.2841866,102.9473 40.2391866,103.0193 40.1861866,103.0713 C41.3021866,102.8433 42.4161866,102.6093 43.5371866,102.3813 C45.6291866,101.9503 47.7201866,101.5133 49.8121866,101.0833 C50.7451866,100.8883 52.0481866,100.3083 52.9541866,100.4383 C53.1691866,100.3803 53.3781866,100.3473 53.5931866,100.3143 C53.6321866,100.2303 53.6771866,100.1523 53.7431866,100.0733 L53.7431866,100.0733 Z M55.9711866,101.1163 C56.0101866,101.4743 55.7371866,101.9043 55.4301866,102.0683 C55.1631866,102.2043 54.8831866,102.3153 54.5961866,102.4323 C54.5961866,102.4713 54.5961866,102.5113 54.5831866,102.5503 C53.5081866,107.9203 50.6731866,112.4823 47.8901866,117.1223 C44.4361866,122.8833 41.9921866,128.9773 39.7301866,135.2933 C39.5421866,135.8143 38.8381866,136.2903 38.2971866,135.8793 C38.2641866,135.8533 38.2311866,135.8273 38.1991866,135.8013 C37.9121866,135.8333 37.6121866,135.7293 37.4361866,135.3903 C37.3781866,135.2863 37.3191866,135.1883 37.2671866,135.0843 C27.4061866,127.5043 17.3371866,120.1013 7.95918664,111.9353 C7.86118664,111.9473 7.77018664,111.9613 7.67318664,111.9743 C6.81218664,112.0973 6.29718664,111.2183 6.58418664,110.6313 C6.47318664,110.4683 6.42118664,110.2593 6.47318664,110.0123 C7.52218664,104.9943 8.80018664,100.0083 10.0771866,95.0423 C10.1351866,94.8143 10.2661866,94.6513 10.4351866,94.5403 C10.3571866,94.3323 10.4481866,94.0323 10.6961866,93.9343 C15.7081866,91.9663 21.2481866,91.0343 26.4681866,89.7373 C31.7341866,88.4273 36.9871866,86.8173 42.3041866,85.7483 C42.4411866,85.7223 42.5591866,85.7293 42.6701866,85.7483 C42.9821866,85.4353 43.4841866,85.3643 43.9081866,85.7293 C48.4371866,89.6263 52.3811866,94.1823 55.4111866,99.3433 C55.5541866,99.5783 55.5671866,99.8133 55.5091866,100.0083 C55.8221866,100.2883 55.9131866,100.6083 55.9711866,101.1163 L55.9711866,101.1163 Z" id="Fill-3" fill="#1C1C1B"></path>
            <path d="M53.7684866,100.041 C53.7624866,100.054 53.7484866,100.061 53.7434866,100.074 C53.6774866,100.152 53.6314866,100.23 53.5924866,100.314 C53.3774866,100.347 53.1684866,100.38 52.9544866,100.438 C52.0474866,100.308 50.7454866,100.888 49.8124866,101.083 C47.7204866,101.514 45.6284866,101.951 43.5374866,102.381 C42.4154866,102.609 41.3014866,102.843 40.1864866,103.071 C40.2394866,103.02 40.2844866,102.948 40.3174866,102.863 C42.2524866,98.203 43.2564866,93.172 43.9404866,88.173 C47.7524866,91.692 50.9534866,95.635 53.7684866,100.041" id="Fill-5" fill="#A5D6DB"></path>
            <path d="M52.5691866,103.0913 C51.1741866,108.5653 47.9421866,113.1343 45.1271866,117.9833 C42.9571866,121.7303 41.2561866,125.6863 39.7171866,129.7143 C39.8221866,126.6643 39.6851866,123.5743 39.7041866,120.5963 C39.7501866,115.5653 39.7501866,110.5403 39.7691866,105.5083 C41.4381866,105.1573 43.0991866,104.8113 44.7681866,104.4593 C47.1011866,103.9703 50.0141866,103.7363 52.5691866,103.0913" id="Fill-7" fill="#A5D6DB"></path>
            <path d="M42.2264866,87.4825 C41.5294866,92.5855 40.2974866,97.5255 39.2224866,102.5635 L39.2224866,102.5895 C39.2084866,102.5565 39.2034866,102.5245 39.1834866,102.4985 C36.1524866,98.2745 31.6294866,94.7165 27.6544866,91.3015 C32.5224866,90.1415 37.4754866,89.0405 42.2264866,87.4825" id="Fill-9" fill="#A5D6DB"></path>
            <path d="M38.3426866,103.4561 C36.0936866,103.9181 33.8456866,104.3811 31.5976866,104.8511 C29.2186866,105.3521 26.8206866,105.8221 24.4146866,106.2971 C25.1246866,101.7621 25.7446866,97.2841 26.7806866,92.8261 C30.5996866,96.3261 34.1526866,100.3601 38.2576866,103.4171 C38.2836866,103.4361 38.3096866,103.4431 38.3426866,103.4561" id="Fill-11" fill="#A5D6DB"></path>
            <path d="M32.8484866,106.9624 C34.5944866,106.5974 36.3414866,106.2264 38.0874866,105.8604 C38.0754866,110.7754 38.0484866,115.6824 38.0554866,120.5964 C38.0684866,124.7604 37.7624866,129.1474 38.2384866,133.3244 C33.8194866,125.0874 29.5704866,116.6794 24.6494866,108.7284 C27.3864866,108.1294 30.1184866,107.5294 32.8484866,106.9624" id="Fill-13" fill="#A5D6DB"></path>
            <path d="M23.4637866,108.9825 C26.9177866,116.4195 30.9577866,123.6135 34.9277866,130.8025 C26.5787866,124.2915 18.2497866,117.6965 9.53578664,111.6875 C14.1957866,110.9575 18.8357866,109.9925 23.4637866,108.9825" id="Fill-15" fill="#A5D6DB"></path>
            <path d="M25.2625866,91.8814 C24.1735866,96.3714 23.3205866,101.0384 23.2355866,105.6584 C19.4615866,101.9114 15.4805866,98.3534 11.6345866,94.6834 C16.2095866,94.2604 20.7975866,92.9954 25.2625866,91.8814" id="Fill-17" fill="#A5D6DB"></path>
            <path d="M11.4588866,97.0039 C14.9328866,100.2749 18.3548866,103.6119 21.9058866,106.7989 C17.2718866,107.7249 12.6508866,108.7019 8.10288664,109.9279 C9.33388664,105.6519 10.4088866,101.3249 11.4588866,97.0039" id="Fill-19" fill="#A5D6DB"></path>
            <g id="Group-23" transform="translate(1.118487, 0.000000)">
                <mask id="mask-2" fill="white">
                    <use xlink:href="#path-1"></use>
                </mask>
                <g id="Clip-22"></g>
                <path d="M28.1207,49.8575 C28.1917,49.3765 28.2637,48.8945 28.3337,48.4125 C28.6867,48.6505 29.0367,48.8915 29.3917,49.1275 C28.9687,49.3715 28.5487,49.6205 28.1207,49.8575 M34.0997,11.0415 C34.1837,11.1685 34.2657,11.3005 34.3457,11.4315 C34.1957,11.5475 34.0497,11.6645 33.9227,11.7955 C33.8017,11.7725 33.6797,11.7625 33.5577,11.7495 C33.7357,11.5115 33.9167,11.2755 34.0997,11.0415 M67.6997,19.1175 C60.5937,17.8605 53.4487,17.0675 46.2967,16.7165 C45.4947,15.0015 44.6857,13.2875 43.8687,11.5785 C41.9487,7.5595 40.1837,3.0685 35.9117,1.0245 C34.1947,0.2035 32.0137,0.2185 30.6227,1.7075 C26.1667,6.4755 22.7537,11.7925 20.1027,17.4595 C14.7267,18.0335 9.3657,18.8645 4.0337,19.9585 C0.8027,20.6215 -0.1603,25.0805 2.1077,27.2535 C5.8407,30.8305 9.7107,34.2555 13.7037,37.5255 C12.1457,45.1285 11.2817,52.9325 10.6207,60.5835 C10.3787,63.3915 13.2807,64.8855 15.6657,64.5225 C16.0717,64.5205 16.4907,64.4585 16.9197,64.3095 C24.2157,61.7815 31.1367,58.4495 37.5797,54.2875 C42.9107,57.4675 48.3927,60.4035 54.0167,63.0635 C57.6547,64.7835 61.0257,61.9705 60.4297,58.1345 C59.4417,51.7955 57.8047,45.6345 55.7597,39.5985 C60.4367,35.2475 64.9937,30.7515 69.6257,26.4125 C71.8777,24.3025 70.9477,19.6915 67.6997,19.1175" id="Fill-21" fill="#FFFFFF" mask="url(#mask-2)"></path>
            </g>
            <path d="M63.4305866,22.354 C64.3425866,22.438 65.0915866,23.625 64.2575866,24.342 C59.5915866,28.363 55.2835866,32.69 51.1385866,37.239 C51.0535866,37.331 50.9625866,37.396 50.8705866,37.454 C51.5425866,40.641 52.2135866,43.828 52.8715866,47.015 C53.4455866,49.798 54.3385866,52.679 54.2075866,55.54 C54.1685866,56.439 53.3225866,56.824 52.5525866,56.491 C47.0975866,54.138 41.4995866,51.968 36.2135866,49.218 L36.7295866,47.693 C41.9035866,49.433 46.9285866,51.714 51.9525866,53.865 C51.7255866,51.355 50.9235866,48.807 50.4025866,46.376 C49.7895866,43.476 49.1835866,40.569 48.5715866,37.669 C48.4405866,37.05 48.7725866,36.587 49.2155866,36.373 C49.2155866,36.112 49.2935866,35.845 49.5095866,35.604 C52.9635866,31.628 56.7105866,27.926 60.6405866,24.426 C58.1125866,24.192 55.5825866,23.957 53.0545866,23.716 C50.6105866,23.481 47.2415866,23.67 45.1365866,22.23 C44.7515866,22.36 44.2885866,22.269 43.9695866,21.826 L45.8075866,21.239 C48.0495866,20.555 50.7735866,21.227 53.0545866,21.422 C56.5155866,21.728 59.9755866,22.041 63.4305866,22.354" id="Fill-24" fill="#1C1C1B"></path>
            <path d="M53.0545866,23.7159 C55.5825866,23.9569 58.1125866,24.1919 60.6405866,24.4259 C56.7105866,27.9259 52.9635866,31.6279 49.5095866,35.6039 C49.2935866,35.8449 49.2155866,36.1119 49.2155866,36.3729 C48.7725866,36.5879 48.4405866,37.0499 48.5715866,37.6699 C49.1835866,40.5699 49.7895866,43.4759 50.4025866,46.3769 C50.9235866,48.8069 51.7255866,51.3559 51.9525866,53.8649 C46.9285866,51.7139 41.9035866,49.4329 36.7295866,47.6929 C36.5205866,47.6149 36.3055866,47.5489 36.0895866,47.4779 C35.7775866,47.2499 35.3535866,47.1649 34.9105866,47.3929 C29.9905866,49.9479 25.0695866,52.5089 20.1425866,55.0639 C21.0345866,49.5369 22.1235866,43.9259 22.2345866,38.3669 C22.8535866,38.6019 23.3685866,37.8649 22.9255866,37.3369 C19.4065866,33.2049 15.0005866,29.7449 11.1035866,25.9059 C16.4735866,24.9999 21.8565866,24.4789 27.2985866,24.0349 C28.1915866,23.9639 28.5425866,23.0909 28.3225866,22.4519 C30.0685866,20.5229 30.9415866,17.7009 32.1345866,15.4199 C33.3335866,13.1389 34.6305866,10.9159 35.9985866,8.7389 C38.5465866,13.1389 40.9715866,17.7659 43.9695866,21.8259 C44.2885866,22.2689 44.7515866,22.3609 45.1365866,22.2299 C47.2415866,23.6709 50.6105866,23.4819 53.0545866,23.7159" id="Fill-26" fill="#F79E3C"></path>
            <path d="M45.8074866,21.2393 L43.9694866,21.8263 C40.9714866,17.7653 38.5464866,13.1383 35.9984866,8.7393 C34.6304866,10.9163 33.3334866,13.1383 32.1344866,15.4193 C30.9414866,17.7003 30.0684866,20.5223 28.3224866,22.4513 L27.2064866,21.7873 C27.4354866,19.3753 28.8954866,16.9443 29.9634866,14.8393 C31.5014866,11.8023 33.2154866,8.8763 35.0734866,6.0153 C35.5234866,5.3183 36.5664866,5.2723 37.0094866,6.0153 C39.9034866,10.8773 43.2794866,15.6993 45.6904866,20.8163 C45.7614866,20.9663 45.7944866,21.1023 45.8074866,21.2393" id="Fill-28" fill="#1C1C1B"></path>
            <path d="M36.7293866,47.6929 L36.2133866,49.2179 C36.1623866,49.2569 36.1103866,49.2959 36.0443866,49.3359 L19.2693866,58.0549 C18.3313866,58.5379 17.4703866,57.7429 17.6143866,56.7849 C18.5263866,50.5739 19.0283866,44.0439 20.7353866,38.0019 L22.2343866,38.3669 C22.1243866,43.9259 21.0353866,49.5369 20.1423866,55.0639 C25.0693866,52.5089 29.9903866,49.9479 34.9113866,47.3929 C35.3533866,47.1649 35.7773866,47.2499 36.0893866,47.4779 C36.3053866,47.5489 36.5203866,47.6149 36.7293866,47.6929" id="Fill-30" fill="#1C1C1B"></path>
            <path d="M28.3221866,22.4517 C28.5431866,23.0907 28.1911866,23.9637 27.2991866,24.0347 C21.8561866,24.4787 16.4731866,24.9997 11.1031866,25.9057 C15.0011866,29.7447 19.4061866,33.2047 22.9261866,37.3367 C23.3691866,37.8647 22.8531866,38.6017 22.2341866,38.3667 L20.7351866,38.0017 C20.7741866,37.8517 20.8591866,37.7477 20.9511866,37.6627 C16.0231866,34.7237 11.8011866,30.0567 7.92918664,25.9707 C7.37518664,25.3847 7.54518664,24.2117 8.43718664,24.0417 C14.6161866,22.8687 20.9121866,21.9697 27.2071866,21.7867 L28.3221866,22.4517 Z" id="Fill-32" fill="#1C1C1B"></path>
            <path d="M144.269387,76.3487 C139.848387,74.6937 135.425387,73.0397 131.004387,71.3847 L132.512387,62.5067 C133.245387,58.1907 128.628387,55.2447 125.188387,58.2437 C122.266387,60.7887 119.367387,63.3587 116.486387,65.9497 C111.018387,63.9037 105.551387,61.8517 100.081387,59.8097 C96.1503866,58.3427 93.6723866,63.1417 95.1343866,66.2457 C97.2513866,70.7417 99.3933866,75.2507 101.590387,79.7397 C98.3333866,82.8357 95.0953866,85.9527 91.8943866,89.1077 C88.7033866,92.2547 91.9853866,97.4407 96.1583866,96.4317 C100.304387,95.4297 104.451387,94.4267 108.597387,93.4247 C111.014387,97.8997 113.544387,102.3047 116.233387,106.5997 C116.201387,111.3637 123.999387,112.6527 124.838387,107.7077 L128.062387,88.7177 L144.269387,84.7997 C148.792387,83.7057 148.051387,77.7647 144.269387,76.3487" id="Fill-34" fill="#F4F4F4"></path>
            <path d="M140.125887,79.7403 C140.803887,80.1053 140.913887,81.3503 140.125887,81.6823 C135.804887,83.5073 131.470887,85.4163 127.058887,87.0333 L126.445887,85.3323 C129.873887,83.6503 133.398887,82.1383 136.912887,80.6333 C133.379887,78.9063 129.763887,77.4333 126.158887,75.8303 C126.151887,75.8233 126.146887,75.8173 126.132887,75.8103 C125.591887,75.8303 125.044887,75.4913 125.063887,74.7873 C125.161887,70.8243 125.115887,66.8683 124.966887,62.9063 C121.668887,65.0963 118.604887,67.5403 115.489887,69.9843 L114.043887,69.1763 C117.334887,65.6113 121.349887,62.6713 125.422887,60.0913 C126.139887,59.6343 126.979887,60.2403 127.019887,61.0033 C127.247887,65.3043 127.299887,69.6063 127.201887,73.9133 C131.672887,75.3283 136.013887,77.5173 140.125887,79.7403" id="Fill-36" fill="#1C1C1B"></path>
            <path d="M136.912987,80.6333 C133.398987,82.1383 129.873987,83.6503 126.445987,85.3323 C125.949987,85.5733 125.468987,85.8143 124.978987,86.0623 C124.835987,86.1333 124.730987,86.2443 124.672987,86.3623 C124.190987,86.2703 123.688987,86.4723 123.577987,87.1043 C122.808987,91.5493 121.759987,95.8963 120.351987,100.1653 C118.109987,97.3693 116.128987,94.4043 114.173987,91.3933 C113.892987,90.9493 113.606987,90.5073 113.319987,90.0633 C113.241987,89.9523 113.156987,89.8743 113.065987,89.8163 C112.902987,89.5883 112.635987,89.4383 112.257987,89.4703 C108.347987,89.7503 104.442987,90.0243 100.539987,90.3113 C103.303987,87.3003 106.280987,83.4943 106.619987,79.7343 C106.626987,79.6883 106.626987,79.6353 106.633987,79.5903 C106.639987,79.5123 106.619987,79.4463 106.587987,79.3883 C106.613987,79.3033 106.626987,79.2053 106.613987,79.0953 C106.170987,75.1393 104.788987,71.3783 103.022987,67.8203 C106.333987,69.1113 109.741987,70.2833 113.195987,70.9743 C113.410987,71.2163 113.802987,71.3073 114.153987,71.0333 C114.603987,70.6813 115.046987,70.3363 115.489987,69.9843 C118.604987,67.5403 121.668987,65.0963 124.966987,62.9063 C125.115987,66.8683 125.161987,70.8243 125.063987,74.7873 C125.044987,75.4913 125.591987,75.8303 126.132987,75.8103 C126.145987,75.8173 126.151987,75.8233 126.158987,75.8303 C129.763987,77.4333 133.379987,78.9053 136.912987,80.6333" id="Fill-38" fill="#F79E3C"></path>
            <path d="M126.446187,85.3321 L127.058187,87.0331 C126.583187,87.2151 126.100187,87.3851 125.625187,87.5541 C125.625187,87.5931 125.625187,87.6261 125.618187,87.6651 C124.842187,92.7621 123.507187,97.7021 121.740187,102.5441 C121.499187,103.2151 120.541187,103.6591 119.994187,103.0001 C117.204187,99.6891 114.682187,96.1891 112.779187,92.3051 L114.174187,91.3931 C116.129187,94.4041 118.110187,97.3691 120.352187,100.1651 C121.759187,95.8961 122.809187,91.5491 123.578187,87.1041 C123.689187,86.4731 124.191187,86.2701 124.673187,86.3621 C124.731187,86.2451 124.836187,86.1341 124.979187,86.0621 C125.468187,85.8141 125.950187,85.5731 126.446187,85.3321" id="Fill-40" fill="#1C1C1B"></path>
            <path d="M115.490087,69.9839 C115.047087,70.3359 114.604087,70.6809 114.154087,71.0329 C113.803087,71.3069 113.411087,71.2159 113.196087,70.9749 C109.742087,70.2839 106.334087,69.1109 103.023087,67.8199 C104.789087,71.3789 106.171087,75.1389 106.614087,79.0949 C106.627087,79.2059 106.614087,79.3039 106.588087,79.3879 C106.620087,79.4469 106.639087,79.5119 106.634087,79.5899 C106.627087,79.6359 106.627087,79.6879 106.620087,79.7339 L105.500087,79.6299 C105.376087,79.5449 105.264087,79.4339 105.213087,79.2839 C103.524087,74.8329 102.032087,70.4139 99.6920866,66.2359 C99.2560866,65.4669 99.9990866,64.2229 100.944087,64.6079 C105.174087,66.3279 109.508087,67.5789 113.815087,69.0709 C113.900087,69.0979 113.978087,69.1369 114.044087,69.1759 L115.490087,69.9839 Z" id="Fill-42" fill="#1C1C1B"></path>
            <path d="M114.173687,91.3931 L112.778687,92.3051 C112.649687,92.0451 112.525687,91.7841 112.407687,91.5231 C112.355687,91.5301 112.309687,91.5431 112.257687,91.5491 C107.480687,91.8951 102.709687,92.2531 97.9326866,92.5921 C96.9936866,92.6571 96.5966866,91.4191 97.1906866,90.8071 C99.0606866,88.8841 100.747687,86.8371 102.234687,84.6021 C103.322687,82.9661 104.162687,81.0761 105.499687,79.6291 L106.619687,79.7341 C106.280687,83.4941 103.303687,87.3001 100.539687,90.3111 C104.443687,90.0241 108.347687,89.7501 112.257687,89.4701 C112.635687,89.4381 112.902687,89.5881 113.066687,89.8161 C113.156687,89.8741 113.241687,89.9531 113.319687,90.0631 C113.607687,90.5071 113.893687,90.9501 114.173687,91.3931" id="Fill-44" fill="#1C1C1B"></path>
        </g>
    </g>
</svg>