<?xml version="1.0" encoding="UTF-8"?>
<svg width="102px" height="102px" viewBox="0 0 102 102" version="1.1" xmlns="http://www.w3.org/2000/svg" xmlns:xlink="http://www.w3.org/1999/xlink">
    <!-- Generator: Sketch 53.1 (72631) - https://sketchapp.com -->
    <title>Group 61Sticker9</title>
    <desc>Created with Sketch.</desc>
    <g id="Page-1" stroke="none" stroke-width="1" fill="none" fill-rule="evenodd">
        <g id="Group-61" transform="translate(0.412524, 0.113800)">
            <path d="M96.3067758,28.624 C90.4157758,16.44 80.1337758,7.279 67.3537758,2.828 C66.6777758,2.593 65.9667758,2.365 65.1187758,2.111 C64.9167758,2.052 64.7377758,2.001 64.5577758,1.951 L64.4507758,1.921 C63.9047758,1.766 63.3477758,1.619 62.7927758,1.48 L62.6607758,1.448 C62.4817758,1.403 62.3027758,1.359 62.1227758,1.317 C61.3657758,1.142 60.6697758,0.994 59.9897758,0.865 L59.8567758,0.839 C59.1537758,0.709 58.4137758,0.591 57.6007758,0.479 C57.4457758,0.457 57.2777758,0.436 57.1097758,0.416 L56.9517758,0.395 C56.3927758,0.326 55.8397758,0.266 55.2877758,0.215 L55.1527758,0.203 C54.9637758,0.186 54.7767758,0.168 54.5897758,0.154 C53.9377758,0.103 53.2817758,0.064 52.6397758,0.04 L52.5707758,0.036 C52.4877758,0.031 52.4037758,0.027 52.3217758,0.024 C51.8137758,0.008 51.2997758,-2.84217094e-14 50.7857758,-2.84217094e-14 C50.5637758,-2.84217094e-14 50.3417758,0.002 50.1187758,0.004 C49.9337758,0.007 49.7567758,0.012 49.5787758,0.017 L49.4077758,0.022 C48.8987758,0.035 48.3777758,0.055 47.8587758,0.085 C47.6027758,0.099 47.3487758,0.114 47.0937758,0.132 C46.5217758,0.173 45.9627758,0.224 45.4057758,0.283 L45.2557758,0.298 C45.1247758,0.31 44.9937758,0.322 44.8647758,0.337 C44.2097758,0.413 43.5277758,0.507 42.7777758,0.627 C42.5857758,0.657 42.3897758,0.692 42.1927758,0.727 L41.9777758,0.766 C41.5237758,0.845 41.0727758,0.93 40.6237758,1.021 C40.3177758,1.084 40.0247758,1.145 39.7317758,1.209 C39.2777758,1.311 38.8297758,1.42 38.3837758,1.532 L38.1427758,1.591 C37.9597758,1.636 37.7767758,1.681 37.5937758,1.73 C36.9777758,1.896 36.3527758,2.078 35.6817758,2.286 C35.4297758,2.365 35.1787758,2.448 34.9277758,2.532 L34.7437758,2.594 C34.3827758,2.713 34.0137758,2.839 33.6437758,2.972 C33.3107758,3.091 32.9757758,3.214 32.6417758,3.342 C32.2957758,3.474 31.9527758,3.612 31.6117758,3.752 L31.4957758,3.798 C31.1977758,3.919 30.8987758,4.04 30.6027758,4.167 C30.0417758,4.41 29.4817758,4.665 28.9277758,4.928 C28.6697758,5.05 28.4167758,5.178 28.1627758,5.306 L27.9277758,5.424 L27.9167758,5.43 C27.8907758,5.443 27.8637758,5.457 27.8347758,5.472 C27.5667758,5.607 27.2947758,5.745 27.0277758,5.886 C26.6757758,6.072 26.3157758,6.268 25.9557758,6.469 C25.7007758,6.613 25.4537758,6.755 25.2097758,6.897 C24.7397758,7.17 24.2727758,7.45 23.8127758,7.739 C23.7897758,7.752 23.7687758,7.766 23.7457758,7.779 C23.0647758,8.208 22.4037758,8.645 21.7817758,9.076 C21.7657758,9.086 21.7487758,9.099 21.7317758,9.111 C21.6727758,9.152 21.6147758,9.194 21.5557758,9.236 L21.4917758,9.283 L21.3907758,9.353 C21.2147758,9.477 21.0377758,9.601 20.8647758,9.728 C20.5347758,9.968 20.1957758,10.22 19.8607758,10.477 C19.8327758,10.497 19.7887758,10.531 19.7417758,10.57 C19.5997758,10.679 19.4577758,10.79 19.3177758,10.901 L19.2387758,10.964 C18.8277758,11.288 18.4187758,11.618 18.0167758,11.957 C17.9687758,11.996 17.9217758,12.037 17.8757758,12.078 C17.2947758,12.569 16.7357758,13.064 16.2137758,13.55 C16.1827758,13.578 16.1317758,13.626 16.0817758,13.674 C15.9797758,13.771 15.8897758,13.857 15.8007758,13.942 L15.7207758,14.02 C15.5997758,14.133 15.4457758,14.28 15.2917758,14.429 C15.0167758,14.697 14.7587758,14.951 14.5027758,15.21 L14.3347758,15.387 L14.3057758,15.418 C14.2937758,15.43 14.2837758,15.442 14.2717758,15.454 C14.1187758,15.612 13.9677758,15.772 13.8177758,15.932 L13.7867758,15.964 C13.4727758,16.297 13.1587758,16.63 12.8537758,16.973 C12.7917758,17.042 12.7257758,17.12 12.6597758,17.198 L12.6067758,17.26 C12.0847758,17.854 11.6707758,18.343 11.2937758,18.808 C11.2107758,18.911 11.1287758,19.017 11.0477758,19.124 L10.9687758,19.227 C10.6277758,19.656 10.2137758,20.184 9.80877583,20.737 C9.71577583,20.864 9.61977583,21.001 9.52677583,21.138 L9.42377583,21.284 C9.08977583,21.752 8.74377583,22.24 8.41277583,22.742 C8.30777583,22.903 8.22177583,23.041 8.13677583,23.179 C8.08877583,23.256 8.04077583,23.334 7.99177583,23.411 C7.98877583,23.416 7.96377583,23.453 7.96077583,23.458 C7.67177583,23.912 7.38277583,24.365 7.10677583,24.831 C6.98177583,25.042 6.86577583,25.251 6.74977583,25.46 L6.61477583,25.706 L6.45477583,25.985 C6.26077583,26.328 6.06677583,26.67 5.88277583,27.021 C5.75577583,27.263 5.63277583,27.514 5.50977583,27.765 L5.35277583,28.083 L5.18077583,28.426 C5.03977583,28.707 4.89977583,28.988 4.76677583,29.275 C4.59377583,29.645 4.42777583,30.033 4.26277583,30.421 L4.15677583,30.669 L4.03077583,30.957 C3.93777583,31.166 3.84577583,31.375 3.75877583,31.588 C3.42077583,32.424 3.11677583,33.233 2.84477583,34.011 C-1.60622417,46.791 -0.813224171,60.54 5.07677583,72.725 C10.9667758,84.909 21.2487758,94.07 34.0297758,98.52 C34.7127758,98.758 35.4467758,98.993 36.2727758,99.239 C36.4737758,99.299 36.6697758,99.353 36.8657758,99.408 L36.9627758,99.436 C37.4877758,99.584 38.0297758,99.728 38.5707758,99.862 C38.8197758,99.924 39.0657758,99.985 39.3117758,100.041 C39.8977758,100.178 40.5247758,100.311 41.1647758,100.435 L41.2857758,100.459 C41.3777758,100.478 41.4697758,100.498 41.5617758,100.515 C42.2667758,100.645 42.9947758,100.761 43.7997758,100.872 C43.9717758,100.896 44.1497758,100.917 44.3257758,100.938 L44.5097758,100.96 C45.0327758,101.025 45.5567758,101.083 46.0777758,101.131 C46.3427758,101.155 46.6177758,101.179 46.8887758,101.2 C47.4227758,101.24 47.9457758,101.27 48.4657758,101.293 L48.7147758,101.305 C48.8647758,101.312 49.0137758,101.32 49.1627758,101.325 C49.6707758,101.34 50.1667758,101.348 50.6607758,101.348 C50.8767758,101.348 51.0917758,101.346 51.3077758,101.343 C51.4917758,101.341 51.6837758,101.335 51.8747758,101.328 L52.1097758,101.321 C52.5817758,101.307 53.0427758,101.29 53.5037758,101.264 C53.8317758,101.246 54.1577758,101.224 54.4807758,101.2 C54.8987758,101.168 55.3137758,101.129 55.7267758,101.088 L55.9527758,101.065 C56.2047758,101.041 56.4577758,101.015 56.7087758,100.985 C57.2527758,100.919 57.7927758,100.842 58.3297758,100.759 C58.7927758,100.688 59.2507758,100.608 59.7107758,100.524 L59.7627758,100.515 C60.0987758,100.454 60.4367758,100.392 60.7727758,100.324 C61.1697758,100.242 61.5527758,100.157 61.9347758,100.07 C62.2467758,99.999 62.5507758,99.925 62.8577758,99.849 C63.2487758,99.752 63.6477758,99.651 64.0467758,99.543 C64.2357758,99.491 64.4067758,99.44 64.5777758,99.39 L64.7797758,99.33 C65.6317758,99.082 66.4827758,98.812 67.2977758,98.527 L67.4367758,98.48 C67.5537758,98.44 67.6717758,98.4 67.7887758,98.357 C68.2417758,98.196 68.6897758,98.023 69.1397758,97.848 C69.3387758,97.769 69.5267758,97.695 69.7107758,97.62 C70.1737758,97.433 70.6297758,97.241 71.0837758,97.042 L71.2917758,96.948 L71.3837758,96.906 C72.9577758,96.2 74.4947758,95.415 75.9777758,94.562 L76.0397758,94.526 L76.2497758,94.405 C76.7177758,94.132 77.2067758,93.837 77.6897758,93.533 C77.7337758,93.505 77.7797758,93.476 77.8257758,93.446 C79.8727758,92.149 81.8457758,90.691 83.6897758,89.11 C83.7117758,89.091 83.7347758,89.072 83.7557758,89.053 C84.3927758,88.505 85.0157758,87.942 85.6077758,87.38 C85.6097758,87.378 85.6127758,87.376 85.6147758,87.374 L85.6257758,87.362 C85.6427758,87.347 85.6587758,87.332 85.6737758,87.315 C86.3647758,86.658 87.0337758,85.984 87.6617758,85.313 C87.6807758,85.293 87.6997758,85.273 87.7177758,85.253 C89.7157758,83.117 91.5287758,80.808 93.1057758,78.388 C93.1587758,78.309 93.2247758,78.203 93.2887758,78.098 L93.3457758,78.007 C93.7637758,77.357 94.1727758,76.686 94.5547758,76.02 C94.6497758,75.856 94.7447758,75.688 94.8377758,75.52 L94.9527758,75.315 C95.2917758,74.701 95.6017758,74.114 95.8937758,73.536 C96.0347758,73.261 96.1797758,72.969 96.3217758,72.675 C96.5997758,72.097 96.8687758,71.502 97.1507758,70.85 L97.2437758,70.638 C97.3367758,70.431 97.4277758,70.224 97.5147758,70.012 C97.9007758,69.074 98.2367758,68.196 98.5357758,67.342 C102.989776,54.556 102.196776,40.808 96.3067758,28.624" id="Fill-274" fill="#FFFFFF"></path>
            <path d="M94.5030758,65.9312 C86.0760758,90.1282 59.6290758,102.9112 35.4350758,94.4862 C11.2370758,86.0592 -1.54792417,59.6132 6.88007583,35.4152 C15.3080758,11.2182 41.7550758,-1.5638 65.9480758,6.8622 C90.1460758,15.2892 102.931076,41.7352 94.5030758,65.9312" id="Fill-276" fill="#C1401E"></path>
            <path d="M94.5030758,65.9312 C86.0760758,90.1282 59.6290758,102.9112 35.4350758,94.4862 C11.2370758,86.0592 -1.54792417,59.6132 6.88007583,35.4152 C15.3080758,11.2182 41.7550758,-1.5638 65.9480758,6.8622 C90.1460758,15.2892 102.931076,41.7352 94.5030758,65.9312 Z" id="Stroke-278" stroke="#020202" stroke-width="2"></path>
            <path d="M85.9317758,47.1626 C86.5837758,48.4726 86.3167758,50.0696 85.1627758,50.9946 C84.0027758,51.9136 82.2497758,52.0176 80.9987758,51.2166 C79.9687758,50.5586 79.4807758,49.1896 79.7077758,48.0096 C79.8907758,47.0646 80.7317758,45.9116 81.7997758,46.1656 C81.9827758,46.0156 82.1717758,45.8856 82.3867758,45.7936 C83.7557758,45.1616 85.2867758,45.8396 85.9317758,47.1626" id="Fill-280" fill="#1C1C1B"></path>
            <path d="M59.2569758,44.9858 C59.4269758,43.8718 61.2839758,44.1518 61.2119758,45.2528 C60.9509758,48.9748 60.7889758,53.3538 57.9859758,56.1698 C55.6199758,58.5488 52.0289758,59.1938 48.7969758,58.9788 C41.8619758,58.5288 34.6809758,53.4128 37.9199758,45.7218 C38.2779758,44.8748 39.5949758,45.1618 39.3469758,46.1128 C37.4439758,53.3208 43.9289758,56.9908 50.1979758,56.8408 C53.6399758,56.7628 56.7999758,55.4328 58.0449758,51.9718 C58.8329758,49.7628 58.9049758,47.2928 59.2569758,44.9858" id="Fill-282" fill="#1C1C1B"></path>
            <path d="M21.9200758,49.4175 C21.9790758,52.2785 18.2250758,53.8815 16.1130758,52.0245 C14.1320758,50.2845 15.2460758,46.6155 17.8720758,46.3345 C17.9320758,46.3285 17.9830758,46.3415 18.0350758,46.3545 C18.4200758,46.2435 18.8240758,46.2045 19.2220758,46.2505 C20.7860758,46.4395 21.8810758,47.8795 21.9200758,49.4175" id="Fill-284" fill="#1C1C1B"></path>
            <path d="M74.3145758,90.5903 C58.5115758,96.3843 37.9855758,95.5683 23.7575758,79.9913 C8.45757583,63.2373 7.72957583,42.6013 9.12757583,30.0863 C8.28357583,31.7963 7.52357583,33.5683 6.87957583,35.4153 C-1.54742417,59.6133 11.2375758,86.0593 35.4345758,94.4863 C48.8565758,99.1603 62.9665758,97.2983 74.3145758,90.5903" id="Fill-286" fill="#000000"></path>
        </g>
    </g>
</svg>