<?xml version="1.0" encoding="UTF-8"?>
<svg width="145px" height="80px" viewBox="0 0 145 80" version="1.1" xmlns="http://www.w3.org/2000/svg" xmlns:xlink="http://www.w3.org/1999/xlink">
    <!-- Generator: Sketch 53.1 (72631) - https://sketchapp.com -->
    <title>Group 65Sticker15</title>
    <desc>Created with Sketch.</desc>
    <defs>
        <polygon id="path-1" points="0 0.0269242572 144.624968 0.0269242572 144.624968 79.0421885 0 79.0421885"></polygon>
    </defs>
    <g id="Page-1" stroke="none" stroke-width="1" fill="none" fill-rule="evenodd">
        <g id="Group-65">
            <g id="Group-344">
                <mask id="mask-2" fill="white">
                    <use xlink:href="#path-1"></use>
                </mask>
                <g id="Clip-343"></g>
                <path d="M141.9058,22.603 C137.5658,24.265 134.0828,27.304 129.5248,28.666 C126.3228,29.623 122.9138,30.04 119.5708,29.784 C105.6008,16.52 86.4968,9.97 68.0808,5.126 C47.6808,-0.239 18.4718,-6.262 4.5808,15.027 C-6.7122,32.335 4.5608,54.878 20.0908,65.032 C29.7248,71.332 41.0728,74.463 52.3138,76.376 C64.1188,78.385 76.4568,79.908 88.4088,78.486 C99.7838,77.133 110.6598,72.669 117.7858,63.4 C120.2488,60.197 122.5758,50.636 123.7248,46.87 C134.6528,42.338 141.5108,31.429 143.4098,26.951 C143.7518,26.523 144.0748,26.086 144.3558,25.629 C145.2858,24.122 143.6438,21.937 141.9058,22.603" id="Fill-342" fill="#FFFDFE" mask="url(#mask-2)"></path>
            </g>
            <text id="HI!" font-family="Amatic-Bold, Amatic" font-size="51.1995" font-style="condensed" font-weight="bold" fill="#FFFDFE">
                <tspan x="44.1465" y="55.5647391">HI!</tspan>
            </text>
            <g id="Group-352" transform="translate(7.000000, 3.000000)">
                <path d="M129.7164,23.4419 C120.8204,29.1149 120.2084,29.3439 109.3224,29.0649 C96.6124,16.1799 78.6944,10.0119 61.4594,5.4789 C43.0484,0.6359 16.6864,-4.8001 4.1484,14.4159 C-6.0446,30.0369 4.1304,50.3829 18.1474,59.5479 C26.8424,65.2339 37.0844,68.0589 47.2304,69.7859 C57.8844,71.5989 69.0204,72.9739 79.8074,71.6909 C90.0734,70.4689 99.8904,66.4409 106.3214,58.0749 C108.5444,55.1829 110.6454,46.5539 111.6824,43.1549 C124.6454,37.7799 131.2724,22.4499 129.7164,23.4419" id="Fill-346" fill="#00EBAA"></path>
                <path d="M129.7164,23.4419 C120.8204,29.1149 120.2084,29.3439 109.3224,29.0649 C96.6124,16.1799 78.6944,10.0119 61.4594,5.4789 C43.0484,0.6359 16.6864,-4.8001 4.1484,14.4159 C-6.0446,30.0369 4.1304,50.3829 18.1474,59.5479 C26.8424,65.2339 37.0844,68.0589 47.2304,69.7859 C57.8844,71.5989 69.0204,72.9739 79.8074,71.6909 C90.0734,70.4689 99.8904,66.4409 106.3214,58.0749 C108.5444,55.1829 110.6454,46.5539 111.6824,43.1549 C124.6454,37.7799 131.2724,22.4499 129.7164,23.4419" id="Fill-348" fill="#00EBAA"></path>
                <path d="M129.7164,23.4419 C120.8204,29.1149 120.2084,29.3439 109.3224,29.0649 C96.6124,16.1799 78.6944,10.0119 61.4594,5.4789 C43.0484,0.6359 16.6864,-4.8001 4.1484,14.4159 C-6.0446,30.0369 4.1304,50.3829 18.1474,59.5479 C26.8424,65.2339 37.0844,68.0589 47.2304,69.7859 C57.8844,71.5989 69.0204,72.9739 79.8074,71.6909 C90.0734,70.4689 99.8904,66.4409 106.3214,58.0749 C108.5444,55.1829 110.6454,46.5539 111.6824,43.1549 C124.6454,37.7799 131.2724,22.4499 129.7164,23.4419 Z" id="Stroke-350" stroke="#000000" stroke-width="2"></path>
            </g>
            <text id="HI!" font-family="Amatic-Bold, Amatic" font-size="40.5381" font-style="condensed" font-weight="bold" fill="#020202">
                <tspan x="47.543" y="53.5741609">HI!</tspan>
            </text>
        </g>
    </g>
</svg>