<?xml version="1.0" encoding="UTF-8"?>
<svg width="155px" height="131px" viewBox="0 0 155 131" version="1.1" xmlns="http://www.w3.org/2000/svg" xmlns:xlink="http://www.w3.org/1999/xlink">
    <!-- Generator: Sketch 53.1 (72631) - https://sketchapp.com -->
    <title>Group 52Sticker12</title>
    <desc>Created with Sketch.</desc>
    <g id="Page-1" stroke="none" stroke-width="1" fill="none" fill-rule="evenodd">
        <g id="Group-52">
            <g id="Group-359">
                <path d="M154.2291,65.8565 C153.3681,54.2305 145.1191,43.9985 133.6331,42.4235 C138.8641,32.5715 139.1301,19.0365 130.4241,11.1055 C123.2721,4.5895 111.1711,3.5275 103.7551,9.8515 C100.4611,4.8545 92.7711,4.0815 87.1931,5.4815 C81.2971,6.9615 76.3111,10.6135 72.9511,15.4945 C71.0681,12.6595 68.8061,10.1175 66.2791,7.7935 C64.7501,6.3855 62.6691,4.1335 60.4591,2.7305 C59.8761,2.2155 59.2861,1.7075 58.6791,1.2155 C57.7851,0.4905 56.7311,0.6105 55.9641,1.1155 C55.7161,1.2235 55.4961,1.3655 55.3011,1.5395 C54.7141,1.7975 54.2981,2.3335 54.3191,3.1485 C54.0711,3.8805 53.9361,4.7255 53.8551,5.5845 C53.2901,11.5945 53.1591,17.7315 53.0421,23.7855 C41.1901,18.1995 24.2671,18.4225 14.1791,26.9215 C9.4201,30.9295 6.7251,36.6295 6.2631,42.8005 C6.2211,43.3545 6.2031,43.9345 6.2001,44.5245 C5.7641,48.8675 6.7151,53.2705 9.3951,56.9235 C2.3811,60.4855 -1.2329,69.0855 0.4021,76.8545 C2.2271,85.5245 9.7991,91.1505 17.9491,93.4765 C13.5861,98.5565 12.5961,105.9885 15.1801,112.3655 C18.7591,121.1945 27.6841,126.9515 36.6291,129.2395 C50.6101,132.8145 64.7361,128.2405 74.1941,118.5255 C76.1901,116.8385 78.0571,114.9545 79.4871,112.9525 C81.8221,116.8045 86.3091,120.3315 89.0381,121.9425 C92.5001,123.9865 96.3191,125.1685 100.2111,125.5095 C103.8121,126.3015 107.5671,126.4205 111.2181,125.7265 C124.0181,123.2945 132.6791,112.1045 135.8431,99.8835 C136.9031,96.9705 137.5471,93.9065 137.2781,91.1465 C149.0451,90.8265 154.9921,76.1445 154.2291,65.8565" id="Fill-353" fill="#FFFDFE"></path>
                <path d="M149.149,65.8384 C148.345,54.9784 140.639,45.4204 129.912,43.9494 C134.796,34.7464 135.046,22.1034 126.914,14.6944 C120.233,8.6094 108.93,7.6164 102.003,13.5244 C98.925,8.8564 91.742,8.1334 86.531,9.4424 C80.467,10.9644 75.427,14.9414 72.318,20.2064 C69.145,14.5534 64.969,9.5704 59.897,5.4574 C58.899,4.6484 57.683,4.9584 56.974,5.6724 C56.253,5.8844 55.71,6.4834 55.835,7.4854 C56.647,13.9874 56.238,20.4004 54.596,26.7044 C42.143,24.8404 28.265,23.6254 18.008,32.3264 C10.779,38.4574 8.194,49.7684 13.861,57.4944 C7.309,60.8214 3.933,68.8534 5.461,76.1104 C7.165,84.2104 14.239,89.4644 21.851,91.6384 C17.776,96.3824 16.85,103.3254 19.264,109.2814 C22.608,117.5294 30.945,122.9064 39.3,125.0434 C55.823,129.2694 72.571,121.3154 80.419,106.8564 C84.736,117.5924 97.427,123.9564 108.974,121.7624 C123.753,118.9534 132.63,103.6444 133.196,89.4674 C144.268,89.2664 149.864,75.4824 149.149,65.8384" id="Fill-355" fill="#0E4361"></path>
                <path d="M149.149,65.8384 C148.345,54.9784 140.639,45.4204 129.912,43.9494 C134.796,34.7464 135.046,22.1034 126.914,14.6944 C120.233,8.6094 108.93,7.6164 102.003,13.5244 C98.925,8.8564 91.742,8.1334 86.531,9.4424 C80.467,10.9644 75.427,14.9414 72.318,20.2064 C69.145,14.5534 64.969,9.5704 59.897,5.4574 C58.899,4.6484 57.683,4.9584 56.974,5.6724 C56.253,5.8844 55.71,6.4834 55.835,7.4854 C56.647,13.9874 56.238,20.4004 54.596,26.7044 C42.143,24.8404 28.265,23.6254 18.008,32.3264 C10.779,38.4574 8.194,49.7684 13.861,57.4944 C7.309,60.8214 3.933,68.8534 5.461,76.1104 C7.165,84.2104 14.239,89.4644 21.851,91.6384 C17.776,96.3824 16.85,103.3254 19.264,109.2814 C22.608,117.5294 30.945,122.9064 39.3,125.0434 C55.823,129.2694 72.571,121.3154 80.419,106.8564 C84.736,117.5924 97.427,123.9564 108.974,121.7624 C123.753,118.9534 132.63,103.6444 133.196,89.4674 C144.268,89.2664 149.864,75.4824 149.149,65.8384 Z" id="Stroke-357" stroke="#020202" stroke-width="2"></path>
            </g>
            <text id="See" font-family="Amatic-Bold, Amatic" font-size="40.5381" font-style="condensed" font-weight="bold" fill="#FFFFFF">
                <tspan x="62.9717" y="62.8710609">See</tspan>
            </text>
            <text id="you!" font-family="Amatic-Bold, Amatic" font-size="40.5381" font-style="condensed" font-weight="bold" fill="#FFFFFF">
                <tspan x="56.4450659" y="96.6392982">you!</tspan>
            </text>
        </g>
    </g>
</svg>