<?xml version="1.0" encoding="UTF-8"?>
<svg width="124px" height="138px" viewBox="0 0 124 138" version="1.1" xmlns="http://www.w3.org/2000/svg" xmlns:xlink="http://www.w3.org/1999/xlink">
    <!-- Generator: Sketch 53.1 (72631) - https://sketchapp.com -->
    <title>Group 24Character_3</title>
    <desc>Created with Sketch.</desc>
    <g id="Page-1" stroke="none" stroke-width="1" fill="none" fill-rule="evenodd">
        <g id="Desktop-HD" transform="translate(-842.000000, -1240.000000)">
            <g id="Group-24" transform="translate(842.383800, 1240.035200)">
                <path d="M41.4777,125.364 L45.8257,125.364 L45.8257,134.06 L45.8257,135.391 L45.8257,137.245 L35.1237,137.245 C35.1237,137.245 39.2687,133.857 41.4777,132.56 L41.4777,125.364 Z" id="Fill-705" fill="#DB7C27"></path>
                <polygon id="Fill-707" fill="#BA6128" points="43.8366 125.364 45.8256 125.364 45.8256 134.06 45.8256 135.391 45.8256 137.245 43.8366 137.245"></polygon>
                <path d="M78.454,125.364 L74.106,125.364 L74.106,134.06 L74.106,135.391 L74.106,137.245 L84.807,137.245 C84.807,137.245 80.662,133.857 78.454,132.56 L78.454,125.364 Z" id="Fill-709" fill="#BA6128"></path>
                <polygon id="Fill-711" fill="#DB7C27" points="76.0935 125.364 74.1055 125.364 74.1055 134.06 74.1055 135.391 74.1055 137.245 76.0935 137.245"></polygon>
                <path d="M11.68,27.039 C0.423,42.223 0,60.258 0,60.258 C3.068,57.881 6.118,55.521 9.169,53.145 C5.934,64.875 2.9,86.33 12.928,94.908 C13.753,89.836 14.597,84.78 15.422,79.724 C14.091,103.605 40.988,141.509 52.938,123.863 C57.016,117.83 59.796,110.531 61.685,102.425 C63.589,110.531 66.369,117.83 70.432,123.863 C82.38,141.509 109.278,103.605 107.946,79.724 C108.773,84.78 109.615,89.836 110.441,94.908 C120.485,86.33 117.436,64.875 114.199,53.145 C117.25,55.521 120.317,57.881 123.367,60.258 C123.367,60.258 122.946,42.223 111.705,27.039 C84.992,-9.013 38.376,-9.013 11.68,27.039" id="Fill-713" fill="#688F3D"></path>
                <path d="M11.68,27.039 C0.423,42.223 0,60.258 0,60.258 C3.068,57.881 6.118,55.521 9.169,53.145 C5.934,64.875 2.9,86.33 12.928,94.908 C13.753,89.836 14.597,84.78 15.422,79.724 C14.833,90.357 19.837,103.773 26.63,113.818 C28.618,113.987 30.64,114.087 32.68,114.087 C42.336,114.087 51.555,112.15 60,108.661 C60.622,106.639 61.179,104.566 61.685,102.425 C62.073,104.093 62.51,105.745 62.982,107.346 C87.84,95.701 105.099,70.166 105.099,40.539 C105.099,31.572 103.515,22.977 100.615,15.039 C73.448,-8.422 34.989,-4.429 11.68,27.039" id="Fill-715" fill="#7AC043"></path>
                <path d="M82.9702,29.499 C87.1502,29.499 90.5372,32.887 90.5372,37.05 C90.5372,41.229 87.1502,44.617 82.9702,44.617 C78.7902,44.617 75.4032,41.229 75.4032,37.05 C75.4032,32.887 78.7902,29.499 82.9702,29.499" id="Fill-717" fill="#532912"></path>
                <path d="M90.4531,38.1952 C90.5201,38.5492 90.5371,38.9362 90.5371,39.3252 C90.5371,43.5042 87.1501,46.8912 82.9701,46.8912 C78.7901,46.8912 75.4031,43.5042 75.4031,39.3252 C75.4031,38.9362 75.4371,38.5492 75.4871,38.1952 C76.0431,41.8362 79.1781,44.6172 82.9701,44.6172 C86.7611,44.6172 89.9141,41.8362 90.4531,38.1952" id="Fill-719" fill="#688F3D"></path>
                <path d="M81.1677,32.55 C82.8847,32.55 84.2847,33.948 84.2847,35.685 C84.2847,37.403 82.8847,38.802 81.1677,38.802 C79.4307,38.802 78.0327,37.403 78.0327,35.685 C78.0327,33.948 79.4307,32.55 81.1677,32.55" id="Fill-721" fill="#FFFFFF"></path>
                <path d="M41.5106,29.499 C45.6916,29.499 49.0776,32.887 49.0776,37.05 C49.0776,41.229 45.6916,44.617 41.5106,44.617 C37.3316,44.617 33.9436,41.229 33.9436,37.05 C33.9436,32.887 37.3316,29.499 41.5106,29.499" id="Fill-723" fill="#532912"></path>
                <path d="M48.9928,38.1952 C49.0448,38.5492 49.0778,38.9362 49.0778,39.3252 C49.0778,43.5042 45.6908,46.8912 41.5108,46.8912 C37.3318,46.8912 33.9438,43.5042 33.9438,39.3252 C33.9438,38.9362 33.9768,38.5492 34.0288,38.1952 C34.5848,41.8362 37.7198,44.6172 41.5108,44.6172 C45.3038,44.6172 48.4538,41.8362 48.9928,38.1952" id="Fill-725" fill="#688F3D"></path>
                <path d="M39.6905,32.55 C41.4265,32.55 42.8255,33.948 42.8255,35.685 C42.8255,37.403 41.4265,38.802 39.6905,38.802 C37.9715,38.802 36.5735,37.403 36.5735,35.685 C36.5735,33.948 37.9715,32.55 39.6905,32.55" id="Fill-727" fill="#FFFFFF"></path>
                <path d="M62.5945,60.037 C77.4595,60.037 89.5255,60.376 89.5255,60.797 C89.5255,61.218 77.4595,61.554 62.5945,61.554 C47.7295,61.554 35.6795,61.218 35.6795,60.797 C35.6795,60.376 47.7295,60.037 62.5945,60.037" id="Fill-729" fill="#688F3D"></path>
                <path d="M46.5495,60.7965 C46.5495,59.9025 42.8085,50.1455 42.8085,50.1455 L38.9995,60.7965 L46.5495,60.7965 Z" id="Fill-731" fill="#FFFFFF"></path>
                <path d="M46.5495,60.7965 C46.5495,59.9025 42.8085,50.1455 42.8085,50.1455 L42.5895,60.7965 L46.5495,60.7965 Z" id="Fill-733" fill="#E5E5E5"></path>
                <path d="M86.9814,60.7965 C86.9814,59.9025 83.2234,50.1455 83.2234,50.1455 L79.4314,60.7965 L86.9814,60.7965 Z" id="Fill-735" fill="#FFFFFF"></path>
                <path d="M86.9814,60.7965 C86.9814,59.9025 83.2234,50.1455 83.2234,50.1455 L83.0044,60.7965 L86.9814,60.7965 Z" id="Fill-737" fill="#E5E5E5"></path>
                <path d="M29.5925,36.9198 C29.5925,42.2798 33.9385,46.6258 39.2985,46.6258 C44.6585,46.6258 49.0045,42.2798 49.0045,36.9198 C49.0045,31.5598 44.6585,27.2138 39.2985,27.2138 C33.9385,27.2138 29.5925,31.5598 29.5925,36.9198" id="Fill-739" fill="#FFFFFF"></path>
                <path d="M32.6269,35.9076 C32.6269,40.1516 36.0669,43.5916 40.3109,43.5916 C44.5549,43.5916 47.9949,40.1516 47.9949,35.9076 C47.9949,31.6636 44.5549,28.2236 40.3109,28.2236 C36.0669,28.2236 32.6269,31.6636 32.6269,35.9076" id="Fill-741" fill="#432918"></path>
                <path d="M72.9311,36.9198 C72.9311,42.2798 77.2771,46.6258 82.6371,46.6258 C87.9971,46.6258 92.3431,42.2798 92.3431,36.9198 C92.3431,31.5598 87.9971,27.2138 82.6371,27.2138 C77.2771,27.2138 72.9311,31.5598 72.9311,36.9198" id="Fill-743" fill="#FFFFFF"></path>
                <path d="M75.9654,35.9076 C75.9654,40.1516 79.4054,43.5916 83.6494,43.5916 C87.8924,43.5916 91.3334,40.1516 91.3334,35.9076 C91.3334,31.6636 87.8924,28.2236 83.6494,28.2236 C79.4054,28.2236 75.9654,31.6636 75.9654,35.9076" id="Fill-745" fill="#432918"></path>
                <path d="M32.9805,52.0762 C33.1855,50.5622 31.2905,48.8332 28.7495,48.2132 C26.2075,47.5942 23.9815,48.3182 23.7775,49.8322 C23.5725,51.3462 25.4675,53.0752 28.0085,53.6952 C30.5495,54.3152 32.7755,53.5902 32.9805,52.0762" id="Fill-747" fill="#FDB97E"></path>
                <path d="M87.6083,52.0762 C87.4033,50.5622 89.2983,48.8332 91.8393,48.2132 C94.3813,47.5942 96.6073,48.3182 96.8113,49.8322 C97.0163,51.3462 95.1213,53.0752 92.5803,53.6952 C90.0393,54.3152 87.8133,53.5902 87.6083,52.0762" id="Fill-749" fill="#FDB97E"></path>
                <path d="M34.3326,33.5035 C34.3326,31.5165 35.9436,29.9055 37.9306,29.9055 C39.9176,29.9055 41.5286,31.5165 41.5286,33.5035 C41.5286,35.4905 39.9176,37.1015 37.9306,37.1015 C35.9436,37.1015 34.3326,35.4905 34.3326,33.5035" id="Fill-751" fill="#FFFFFF"></path>
                <path d="M77.8292,33.5035 C77.8292,31.5165 79.4402,29.9055 81.4272,29.9055 C83.4142,29.9055 85.0252,31.5165 85.0252,33.5035 C85.0252,35.4905 83.4142,37.1015 81.4272,37.1015 C79.4402,37.1015 77.8292,35.4905 77.8292,33.5035" id="Fill-753" fill="#FFFFFF"></path>
            </g>
        </g>
    </g>
</svg>