<?xml version="1.0" encoding="UTF-8"?>
<svg width="166px" height="280px" viewBox="0 0 166 280" version="1.1" xmlns="http://www.w3.org/2000/svg" xmlns:xlink="http://www.w3.org/1999/xlink">
    <!-- Generator: Sketch 53.1 (72631) - https://sketchapp.com -->
    <title>Group 7Balloon Kart</title>
    <desc>Created with Sketch.</desc>
    <g id="Page-1" stroke="none" stroke-width="1" fill="none" fill-rule="evenodd">
        <g id="Artboard" transform="translate(-392.000000, -158.000000)">
            <g id="Group-7" transform="translate(392.470500, 157.999900)">
                <path d="M89.2352,59.5544 C89.7232,69.2214 86.6112,77.6164 82.8602,83.3694 C85.2042,98.3444 96.7172,107.6794 101.8132,108.2784 L101.8132,62.2664 L102.3132,62.2664 C100.0352,62.2664 96.3002,60.4114 92.5012,56.9854 C91.3342,57.7064 90.2432,58.5664 89.2352,59.5544" id="Fill-57" fill="#4ABFEA"></path>
                <path d="M89.2352,59.5544 C89.7232,69.2214 86.6112,77.6164 82.8602,83.3694 C85.2042,98.3444 96.7172,107.6794 101.8132,108.2784 L101.8132,62.2664 L102.3132,62.2664 C100.0352,62.2664 96.3002,60.4114 92.5012,56.9854 C91.3342,57.7064 90.2432,58.5664 89.2352,59.5544" id="Fill-58" fill="#B1F0F2"></path>
                <path d="M121.8269,83.0179 C118.2149,77.3339 115.2649,69.1889 115.6699,59.8349 C114.5869,58.7289 113.4019,57.7729 112.1259,56.9859 C108.3279,60.4119 104.5919,62.2669 102.3139,62.2669 L102.8139,62.2669 L102.8139,108.2789 C107.9509,107.6739 119.6109,98.1999 121.8269,83.0179" id="Fill-59" fill="#4ABFEA"></path>
                <path d="M121.8269,83.0179 C118.2149,77.3339 115.2649,69.1889 115.6699,59.8349 C114.5869,58.7289 113.4019,57.7729 112.1259,56.9859 C108.3279,60.4119 104.5919,62.2669 102.3139,62.2669 L102.8139,62.2669 L102.8139,108.2789 C107.9509,107.6739 119.6109,98.1999 121.8269,83.0179" id="Fill-60" fill="#B1F0F2"></path>
                <path d="M78.7642,88.4293 C77.1942,89.9453 75.6972,90.9303 74.4682,91.2983 L78.3942,103.7263 C79.5532,99.1853 79.8982,93.9813 78.7642,88.4293" id="Fill-61" fill="#CC4AC2"></path>
                <path d="M78.7642,88.4293 C77.1942,89.9453 75.6972,90.9303 74.4682,91.2983 L78.3942,103.7263 C79.5532,99.1853 79.8982,93.9813 78.7642,88.4293" id="Fill-62" fill="#CC4AC2"></path>
                <path d="M66.9092,120.5686 C70.0792,119.5646 75.3012,113.8056 77.8972,105.4726 L73.4892,91.5176 L73.6202,91.4756 C68.1542,92.0986 54.6142,85.9246 47.2932,72.3096 C41.1162,76.9506 37.9502,85.5856 40.6102,96.3836 C44.8822,113.7276 60.7492,121.5006 66.2512,120.7206 L66.8042,120.3916 L66.9092,120.5686 Z" id="Fill-63" fill="#CC4AC2"></path>
                <path d="M66.9092,120.5686 C70.0792,119.5646 75.3012,113.8056 77.8972,105.4726 L73.4892,91.5176 L73.6202,91.4756 C68.1542,92.0986 54.6142,85.9246 47.2932,72.3096 C41.1162,76.9506 37.9502,85.5856 40.6102,96.3836 C44.8822,113.7276 60.7492,121.5006 66.2512,120.7206 L66.8042,120.3916 L66.9092,120.5686 Z" id="Fill-64" fill="#DF51CD"></path>
                <path d="M157.6198,72.3096 C149.9998,86.4816 135.6378,92.5916 130.6618,91.3666 L131.1388,91.5176 L126.8748,105.0146 C129.3558,113.3806 134.5148,119.2576 137.7638,120.4926 L137.8238,120.3916 L138.2528,120.6476 C143.3348,121.8986 159.9218,114.1736 164.3038,96.3836 C166.9628,85.5856 163.7968,76.9506 157.6198,72.3096" id="Fill-65" fill="#37B34A"></path>
                <path d="M157.6198,72.3096 C149.9998,86.4816 135.6378,92.5916 130.6618,91.3666 L131.1388,91.5176 L126.8748,105.0146 C129.3558,113.3806 134.5148,119.2576 137.7638,120.4926 L137.8238,120.3916 L138.2528,120.6476 C143.3348,121.8986 159.9218,114.1736 164.3038,96.3836 C166.9628,85.5856 163.7968,76.9506 157.6198,72.3096" id="Fill-66" fill="#41387A"></path>
                <path d="M126.3964,103.2095 L130.1854,91.2165 L130.5874,91.3435 C129.3334,91.0115 127.7794,90.0035 126.1494,88.4295 C125.0584,93.7735 125.3404,98.7915 126.3964,103.2095" id="Fill-67" fill="#37B34A"></path>
                <path d="M126.3964,103.2095 L130.1854,91.2165 L130.5874,91.3435 C129.3334,91.0115 127.7794,90.0035 126.1494,88.4295 C125.0584,93.7735 125.3404,98.7915 126.3964,103.2095" id="Fill-68" fill="#37B34A"></path>
                <path d="M88.2123,52.396 C89.6003,54.143 91.0543,55.68 92.5013,56.986 C96.3003,60.412 100.0353,62.266 102.3133,62.266 C104.5923,62.266 108.3273,60.412 112.1253,56.986 C113.7123,55.555 115.3083,53.848 116.8153,51.888 C118.2403,46.125 120.6753,41.485 123.7493,38.002 C124.6603,34.706 125.2013,31.128 125.2013,27.288 C125.2013,10.093 114.7413,0 102.3133,0 C89.8863,0 79.4263,10.093 79.4263,27.288 C79.4263,30.959 79.9223,34.389 80.7623,37.565 C84.0313,41.102 86.6243,45.899 88.1093,51.929 C88.1483,52.086 88.1763,52.24 88.2123,52.396" id="Fill-69" fill="#37B34A"></path>
                <path d="M88.2123,52.396 C89.6003,54.143 91.0543,55.68 92.5013,56.986 C96.3003,60.412 100.0353,62.266 102.3133,62.266 C104.5923,62.266 108.3273,60.412 112.1253,56.986 C113.7123,55.555 115.3083,53.848 116.8153,51.888 C118.2403,46.125 120.6753,41.485 123.7493,38.002 C124.6603,34.706 125.2013,31.128 125.2013,27.288 C125.2013,10.093 114.7413,0 102.3133,0 C89.8863,0 79.4263,10.093 79.4263,27.288 C79.4263,30.959 79.9223,34.389 80.7623,37.565 C84.0313,41.102 86.6243,45.899 88.1093,51.929 C88.1483,52.086 88.1763,52.24 88.2123,52.396" id="Fill-70" fill="#41387A"></path>
                <path d="M73.6202,91.4757 L74.4422,91.2157 L74.4682,91.2977 C75.6972,90.9307 77.1942,89.9457 78.7642,88.4297 C80.1232,87.1167 81.5302,85.4097 82.8602,83.3697 C86.6112,77.6167 89.7232,69.2217 89.2352,59.5547 C89.1182,57.2357 88.7842,54.8417 88.2122,52.3957 C88.1762,52.2397 88.1482,52.0857 88.1092,51.9297 C86.6242,45.8987 84.0312,41.1017 80.7622,37.5647 C74.9792,31.3077 67.0692,29.0087 59.3602,30.9067 C47.2932,33.8797 39.5512,46.1807 43.6632,62.8767 C44.5182,66.3477 45.7752,69.4857 47.2932,72.3097 C54.6142,85.9247 68.1552,92.0977 73.6202,91.4757" id="Fill-71" fill="#D71D5E"></path>
                <path d="M73.6202,91.4757 L74.4422,91.2157 L74.4682,91.2977 C75.6972,90.9307 77.1942,89.9457 78.7642,88.4297 C80.1232,87.1167 81.5302,85.4097 82.8602,83.3697 C86.6112,77.6167 89.7232,69.2217 89.2352,59.5547 C89.1182,57.2357 88.7842,54.8417 88.2122,52.3957 C88.1762,52.2397 88.1482,52.0857 88.1092,51.9297 C86.6242,45.8987 84.0312,41.1017 80.7622,37.5647 C74.9792,31.3077 67.0692,29.0087 59.3602,30.9067 C47.2932,33.8797 39.5512,46.1807 43.6632,62.8767 C44.5182,66.3477 45.7752,69.4857 47.2932,72.3097 C54.6142,85.9247 68.1552,92.0977 73.6202,91.4757" id="Fill-72" fill="#ED1C24"></path>
                <path d="M116.8041,51.9293 C116.1371,54.6383 115.7811,57.2803 115.6701,59.8353 C115.2641,69.1893 118.2151,77.3333 121.8271,83.0183 C123.2221,85.2133 124.7131,87.0423 126.1491,88.4293 C127.7791,90.0033 129.3341,91.0113 130.5871,91.3433 L130.6621,91.3663 C135.6371,92.5923 149.9991,86.4813 157.6201,72.3093 C159.1381,69.4853 160.3951,66.3473 161.2501,62.8763 C165.3621,46.1813 157.6201,33.8793 145.5531,30.9073 C137.6651,28.9643 129.5641,31.4123 123.7491,38.0023 C120.6751,41.4853 118.2411,46.1253 116.8151,51.8883 C116.8111,51.9023 116.8071,51.9153 116.8041,51.9293" id="Fill-73" fill="#FAB052"></path>
                <path d="M116.8041,51.9293 C116.1371,54.6383 115.7811,57.2803 115.6701,59.8353 C115.2641,69.1893 118.2151,77.3333 121.8271,83.0183 C123.2221,85.2133 124.7131,87.0423 126.1491,88.4293 C127.7791,90.0033 129.3341,91.0113 130.5871,91.3433 L130.6621,91.3663 C135.6371,92.5923 149.9991,86.4813 157.6201,72.3093 C159.1381,69.4853 160.3951,66.3473 161.2501,62.8763 C165.3621,46.1813 157.6201,33.8793 145.5531,30.9073 C137.6651,28.9643 129.5641,31.4123 123.7491,38.0023 C120.6751,41.4853 118.2411,46.1253 116.8151,51.8883 C116.8111,51.9023 116.8071,51.9153 116.8041,51.9293" id="Fill-74" fill="#F8B033"></path>
                <polygon id="Fill-75" fill="#929292" points="137.7634 120.4924 104.0924 177.1354 126.8744 105.0144 131.1384 91.5174 130.6624 91.3664 130.5874 91.3434 130.1854 91.2164 126.3964 103.2094 102.8134 177.8634 102.8134 108.2784 102.8134 62.2664 102.3134 62.2664 101.8134 62.2664 101.8134 108.2784 101.8134 177.8634 78.3944 103.7264 74.4684 91.2984 74.4424 91.2164 73.6204 91.4754 73.4884 91.5174 77.8974 105.4724 100.5354 177.1354 66.9094 120.5684 66.8044 120.3914 66.2514 120.7204 65.9444 120.9024 101.8134 181.2434 101.8134 199.8134 102.8134 199.8134 102.8134 181.2434 138.6824 120.9024 138.2534 120.6474 137.8234 120.3914"></polygon>
                <polygon id="Fill-76" fill="#929292" points="137.7634 120.4924 104.0924 177.1354 126.8744 105.0144 131.1384 91.5174 130.6624 91.3664 130.5874 91.3434 130.1854 91.2164 126.3964 103.2094 102.8134 177.8634 102.8134 108.2784 102.8134 62.2664 102.3134 62.2664 101.8134 62.2664 101.8134 108.2784 101.8134 177.8634 78.3944 103.7264 74.4684 91.2984 74.4424 91.2164 73.6204 91.4754 73.4884 91.5174 77.8974 105.4724 100.5354 177.1354 66.9094 120.5684 66.8044 120.3914 66.2514 120.7204 65.9444 120.9024 101.8134 181.2434 101.8134 199.8134 102.8134 199.8134 102.8134 181.2434 138.6824 120.9024 138.2534 120.6474 137.8234 120.3914"></polygon>
                <path d="M14.8245,267.665 C14.6945,266.311 13.3485,265.386 12.0205,265.817 L9.2945,266.703 C10.1185,267.302 11.1235,267.665 12.2205,267.665 L14.8245,267.665 Z" id="Fill-77" fill="#CC4AC2"></path>
                <path d="M14.8245,267.665 C14.6945,266.311 13.3485,265.386 12.0205,265.817 L9.2945,266.703 C10.1185,267.302 11.1235,267.665 12.2205,267.665 L14.8245,267.665 Z" id="Fill-78" fill="#CC4AC2"></path>
                <path d="M7.5029,264.255 L11.1299,263.076 C12.5269,262.623 13.0739,260.939 12.2109,259.751 L9.8549,256.508 C8.2919,258.078 7.3069,260.216 7.2209,262.58 L7.2209,262.665 C7.2209,263.224 7.3339,263.753 7.5029,264.255" id="Fill-79" fill="#CC4AC2"></path>
                <path d="M7.5029,264.255 L11.1299,263.076 C12.5269,262.623 13.0739,260.939 12.2109,259.751 L9.8549,256.508 C8.2919,258.078 7.3069,260.216 7.2209,262.58 L7.2209,262.665 C7.2209,263.224 7.3339,263.753 7.5029,264.255" id="Fill-80" fill="#CC4AC2"></path>
                <path d="M18.0389,258.0568 L20.3929,254.8168 C19.1589,254.1898 17.7669,253.8278 16.2909,253.8278 C14.8139,253.8278 13.4229,254.1898 12.1889,254.8168 L14.5419,258.0568 C15.4049,259.2448 17.1759,259.2448 18.0389,258.0568" id="Fill-81" fill="#CC4AC2"></path>
                <path d="M18.0389,258.0568 L20.3929,254.8168 C19.1589,254.1898 17.7669,253.8278 16.2909,253.8278 C14.8139,253.8278 13.4229,254.1898 12.1889,254.8168 L14.5419,258.0568 C15.4049,259.2448 17.1759,259.2448 18.0389,258.0568" id="Fill-82" fill="#CC4AC2"></path>
                <path d="M100.1115,237.754 L92.8065,247.809 C91.3675,249.788 92.2795,252.595 94.6065,253.351 L106.4315,257.194 C106.7945,255.712 106.9915,254.165 106.9915,252.573 L106.9915,252.569 C106.9915,246.637 104.3155,241.321 100.1115,237.754" id="Fill-83" fill="#CC4AC2"></path>
                <path d="M100.1115,237.754 L92.8065,247.809 C91.3675,249.788 92.2795,252.595 94.6065,253.351 L106.4315,257.194 C106.7945,255.712 106.9915,254.165 106.9915,252.573 L106.9915,252.569 C106.9915,246.637 104.3155,241.321 100.1115,237.754" id="Fill-84" fill="#CC4AC2"></path>
                <path d="M80.5143,253.3515 C82.8413,252.5955 83.7533,249.7885 82.3153,247.8085 L75.0093,237.7545 C70.8053,241.3215 68.1293,246.6385 68.1293,252.5705 C68.1293,254.1635 68.3263,255.7115 68.6893,257.1935 L80.5143,253.3515 Z" id="Fill-85" fill="#CC4AC2"></path>
                <path d="M81.254,253.5276 C83.72,252.7266 84.687,249.7516 83.162,247.6536 L75.421,236.9986 C70.965,240.7786 68.129,246.4136 68.129,252.7006 C68.129,254.3886 68.338,256.0276 68.723,257.5996 L81.254,253.5276 Z" id="Fill-86" fill="#CC4AC2"></path>
                <path d="M21.4508,263.0764 L25.2588,264.3134 C25.3298,263.8564 25.3778,263.3914 25.3778,262.9144 C25.3778,260.4174 24.3638,258.1514 22.7268,256.5074 L20.3708,259.7504 C19.5078,260.9384 20.0548,262.6224 21.4508,263.0764" id="Fill-87" fill="#CC4AC2"></path>
                <path d="M21.4508,263.0764 L25.2588,264.3134 C25.3298,263.8564 25.3778,263.3914 25.3778,262.9144 C25.3778,260.4174 24.3638,258.1514 22.7268,256.5074 L20.3708,259.7504 C19.5078,260.9384 20.0548,262.6224 21.4508,263.0764" id="Fill-88" fill="#CC4AC2"></path>
                <path d="M7.2206,249.3834 C9.8136,247.6424 12.9326,246.6244 16.2906,246.6244 C25.2876,246.6244 32.5816,253.9184 32.5816,262.9154 C32.5816,264.5684 32.3306,266.1614 31.8736,267.6654 L65.6186,267.6654 C62.6616,263.3744 60.9256,258.1764 60.9256,252.5714 C60.9256,237.8614 72.8506,225.9364 87.5606,225.9364 C95.2266,225.9364 102.1326,229.1794 106.9916,234.3634 L106.9916,208.3544 L7.2206,208.3544 L7.2206,249.3834 Z" id="Fill-89" fill="#CC4AC2"></path>
                <path d="M7.2206,249.3834 C9.8136,247.6424 12.9326,246.6244 16.2906,246.6244 C25.2876,246.6244 32.5816,253.9184 32.5816,262.9154 C32.5816,264.5684 32.3306,266.1614 31.8736,267.6654 L65.6186,267.6654 C62.6616,263.3744 60.9256,258.1764 60.9256,252.5714 C60.9256,237.8614 72.8506,225.9364 87.5606,225.9364 C95.2266,225.9364 102.1326,229.1794 106.9916,234.3634 L106.9916,208.3544 L7.2206,208.3544 L7.2206,249.3834 Z" id="Fill-90" fill="#DF51CD"></path>
                <path d="M86.12,259.5178 C86.12,257.0708 83.732,255.3358 81.405,256.0918 L69.582,259.9338 C70.833,262.9758 72.84,265.6248 75.36,267.6648 L86.12,267.6648 L86.12,259.5178 Z" id="Fill-91" fill="#CC4AC2"></path>
                <path d="M87.1945,260.0622 C87.1945,257.4692 84.6645,255.6312 82.1985,256.4322 L69.6695,260.5032 C70.9945,263.7272 73.1215,266.5342 75.7925,268.6962 L87.1945,268.6962 L87.1945,260.0622 Z" id="Fill-92" fill="#CC4AC2"></path>
                <path d="M24.3696,267.0549 L20.5606,265.8169 C19.2326,265.3859 17.8866,266.3109 17.7566,267.6649 L24.0096,267.6649 C24.1336,267.4639 24.2616,267.2659 24.3696,267.0549" id="Fill-93" fill="#CC4AC2"></path>
                <path d="M24.3696,267.0549 L20.5606,265.8169 C19.2326,265.3859 17.8866,266.3109 17.7566,267.6649 L24.0096,267.6649 C24.1336,267.4639 24.2616,267.2659 24.3696,267.0549" id="Fill-94" fill="#CC4AC2"></path>
                <path d="M90.4746,246.1151 L97.7836,236.0561 C94.8116,234.2101 91.3096,233.1401 87.5606,233.1401 C83.8126,233.1401 80.3096,234.2101 77.3376,236.0561 L84.6466,246.1151 C86.0856,248.0951 89.0366,248.0951 90.4746,246.1151" id="Fill-95" fill="#CC4AC2"></path>
                <path d="M91.8091,245.859 L99.5541,235.199 C96.4051,233.243 92.6941,232.109 88.7211,232.109 C84.7491,232.109 81.0371,233.243 77.8881,235.199 L85.6331,245.859 C87.1571,247.957 90.2851,247.957 91.8091,245.859" id="Fill-96" fill="#CC4AC2"></path>
                <path d="M105.5386,259.9337 L93.7166,256.0927 C91.3896,255.3357 89.0016,257.0707 89.0016,259.5177 L89.0016,267.6647 L99.7616,267.6647 C102.2806,265.6247 104.2876,262.9757 105.5386,259.9337" id="Fill-97" fill="#CC4AC2"></path>
                <path d="M105.5386,259.9337 L93.7166,256.0927 C91.3896,255.3357 89.0016,257.0707 89.0016,259.5177 L89.0016,267.6647 L99.7616,267.6647 C102.2806,265.6247 104.2876,262.9757 105.5386,259.9337" id="Fill-98" fill="#CC4AC2"></path>
                <path d="M17.7313,271.8762 L17.7313,267.8722 C17.7313,267.8002 17.7503,267.7352 17.7563,267.6652 C17.8873,266.3112 19.2323,265.3862 20.5603,265.8172 L24.3693,267.0552 C24.2613,267.2662 24.1333,267.4642 24.0093,267.6652 C22.6483,269.8672 20.3873,271.4502 17.7313,271.8762 L17.7313,271.8762 Z M14.8493,271.8762 C11.9513,271.4112 9.5103,269.5782 8.2113,267.0552 L9.2943,266.7032 L12.0213,265.8172 C13.3483,265.3862 14.6943,266.3112 14.8243,267.6652 C14.8313,267.7352 14.8493,267.8002 14.8493,267.8722 L14.8493,271.8762 Z M7.2033,262.9152 C7.2033,262.8022 7.2163,262.6922 7.2203,262.5802 C7.3073,260.2162 8.2913,258.0772 9.8543,256.5072 L12.2113,259.7512 C13.0733,260.9382 12.5263,262.6222 11.1303,263.0762 L7.5033,264.2552 L7.3223,264.3132 C7.2513,263.8562 7.2033,263.3912 7.2033,262.9152 L7.2033,262.9152 Z M16.2903,253.8282 C17.7673,253.8282 19.1583,254.1892 20.3923,254.8172 L18.0393,258.0572 C17.1763,259.2442 15.4053,259.2442 14.5423,258.0572 L12.1883,254.8172 C13.4223,254.1892 14.8133,253.8282 16.2903,253.8282 L16.2903,253.8282 Z M25.3773,262.9152 C25.3773,263.3912 25.3293,263.8562 25.2583,264.3132 L21.4503,263.0762 C20.0543,262.6222 19.5073,260.9382 20.3703,259.7512 L22.7263,256.5072 C24.3633,258.1522 25.3773,260.4172 25.3773,262.9152 L25.3773,262.9152 Z M16.2903,246.6242 C12.9323,246.6242 9.8133,247.6422 7.2203,249.3832 C2.8663,252.3072 0.0003,257.2762 0.0003,262.9152 C0.0003,271.9122 7.2933,279.2052 16.2903,279.2052 C23.6343,279.2052 29.8393,274.3442 31.8733,267.6652 C32.3313,266.1612 32.5813,264.5682 32.5813,262.9152 C32.5813,253.9182 25.2873,246.6242 16.2903,246.6242 L16.2903,246.6242 Z" id="Fill-99" fill="#222222"></path>
                <path d="M17.7313,271.8762 L17.7313,267.8722 C17.7313,267.8002 17.7503,267.7352 17.7563,267.6652 C17.8873,266.3112 19.2323,265.3862 20.5603,265.8172 L24.3693,267.0552 C24.2613,267.2662 24.1333,267.4642 24.0093,267.6652 C22.6483,269.8672 20.3873,271.4502 17.7313,271.8762 L17.7313,271.8762 Z M14.8493,271.8762 C11.9513,271.4112 9.5103,269.5782 8.2113,267.0552 L9.2943,266.7032 L12.0213,265.8172 C13.3483,265.3862 14.6943,266.3112 14.8243,267.6652 C14.8313,267.7352 14.8493,267.8002 14.8493,267.8722 L14.8493,271.8762 Z M7.2033,262.9152 C7.2033,262.8022 7.2163,262.6922 7.2203,262.5802 C7.3073,260.2162 8.2913,258.0772 9.8543,256.5072 L12.2113,259.7512 C13.0733,260.9382 12.5263,262.6222 11.1303,263.0762 L7.5033,264.2552 L7.3223,264.3132 C7.2513,263.8562 7.2033,263.3912 7.2033,262.9152 L7.2033,262.9152 Z M16.2903,253.8282 C17.7673,253.8282 19.1583,254.1892 20.3923,254.8172 L18.0393,258.0572 C17.1763,259.2442 15.4053,259.2442 14.5423,258.0572 L12.1883,254.8172 C13.4223,254.1892 14.8133,253.8282 16.2903,253.8282 L16.2903,253.8282 Z M25.3773,262.9152 C25.3773,263.3912 25.3293,263.8562 25.2583,264.3132 L21.4503,263.0762 C20.0543,262.6222 19.5073,260.9382 20.3703,259.7512 L22.7263,256.5072 C24.3633,258.1522 25.3773,260.4172 25.3773,262.9152 L25.3773,262.9152 Z M16.2903,246.6242 C12.9323,246.6242 9.8133,247.6422 7.2203,249.3832 C2.8663,252.3072 0.0003,257.2762 0.0003,262.9152 C0.0003,271.9122 7.2933,279.2052 16.2903,279.2052 C23.6343,279.2052 29.8393,274.3442 31.8733,267.6652 C32.3313,266.1612 32.5813,264.5682 32.5813,262.9152 C32.5813,253.9182 25.2873,246.6242 16.2903,246.6242 L16.2903,246.6242 Z" id="Fill-100" fill="#41387A"></path>
                <path d="M106.9917,252.5708 L106.9917,252.5718 C106.9917,254.1648 106.7947,255.7118 106.4317,257.1938 L94.6067,253.3518 C92.2797,252.5948 91.3677,249.7888 92.8057,247.8088 L100.1117,237.7538 C104.3157,241.3208 106.9907,246.6368 106.9917,252.5688 L106.9917,252.5708 Z M89.0017,267.6648 L89.0017,259.5178 C89.0017,257.0708 91.3887,255.3358 93.7167,256.0918 L105.5387,259.9338 C104.2877,262.9758 102.2807,265.6248 99.7617,267.6648 C96.7737,270.0838 93.0627,271.6428 89.0017,271.9428 L89.0017,267.6648 Z M75.3597,267.6648 C72.8407,265.6248 70.8327,262.9758 69.5827,259.9338 L81.4047,256.0918 C83.7327,255.3358 86.1197,257.0708 86.1197,259.5178 L86.1197,267.6648 L86.1197,271.9428 C82.0587,271.6428 78.3477,270.0838 75.3597,267.6648 L75.3597,267.6648 Z M75.0097,237.7538 L82.3157,247.8088 C83.7537,249.7888 82.8417,252.5948 80.5147,253.3518 L68.6897,257.1938 C68.3267,255.7108 68.1297,254.1638 68.1297,252.5708 C68.1297,246.6378 70.8047,241.3208 75.0097,237.7538 L75.0097,237.7538 Z M87.5607,233.1398 C91.3097,233.1398 94.8117,234.2098 97.7827,236.0558 L90.4747,246.1148 C89.0367,248.0948 86.0847,248.0948 84.6467,246.1148 L77.3377,236.0558 C80.3097,234.2098 83.8117,233.1398 87.5607,233.1398 L87.5607,233.1398 Z M87.5607,225.9358 C72.8507,225.9358 60.9257,237.8608 60.9257,252.5708 C60.9257,258.1758 62.6607,263.3738 65.6187,267.6648 C70.4217,274.6348 78.4557,279.2058 87.5607,279.2058 C102.2707,279.2058 114.1957,267.2808 114.1957,252.5708 C114.1957,245.5268 111.4567,239.1268 106.9917,234.3638 C102.1317,229.1798 95.2267,225.9358 87.5607,225.9358 L87.5607,225.9358 Z" id="Fill-101" fill="#222222"></path>
                <path d="M106.9917,252.5708 L106.9917,252.5718 C106.9917,254.1648 106.7947,255.7118 106.4317,257.1938 L94.6067,253.3518 C92.2797,252.5948 91.3677,249.7888 92.8057,247.8088 L100.1117,237.7538 C104.3157,241.3208 106.9907,246.6368 106.9917,252.5688 L106.9917,252.5708 Z M89.0017,267.6648 L89.0017,259.5178 C89.0017,257.0708 91.3887,255.3358 93.7167,256.0918 L105.5387,259.9338 C104.2877,262.9758 102.2807,265.6248 99.7617,267.6648 C96.7737,270.0838 93.0627,271.6428 89.0017,271.9428 L89.0017,267.6648 Z M75.3597,267.6648 C72.8407,265.6248 70.8327,262.9758 69.5827,259.9338 L81.4047,256.0918 C83.7327,255.3358 86.1197,257.0708 86.1197,259.5178 L86.1197,267.6648 L86.1197,271.9428 C82.0587,271.6428 78.3477,270.0838 75.3597,267.6648 L75.3597,267.6648 Z M75.0097,237.7538 L82.3157,247.8088 C83.7537,249.7888 82.8417,252.5948 80.5147,253.3518 L68.6897,257.1938 C68.3267,255.7108 68.1297,254.1638 68.1297,252.5708 C68.1297,246.6378 70.8047,241.3208 75.0097,237.7538 L75.0097,237.7538 Z M87.5607,233.1398 C91.3097,233.1398 94.8117,234.2098 97.7827,236.0558 L90.4747,246.1148 C89.0367,248.0948 86.0847,248.0948 84.6467,246.1148 L77.3377,236.0558 C80.3097,234.2098 83.8117,233.1398 87.5607,233.1398 L87.5607,233.1398 Z M87.5607,225.9358 C72.8507,225.9358 60.9257,237.8608 60.9257,252.5708 C60.9257,258.1758 62.6607,263.3738 65.6187,267.6648 C70.4217,274.6348 78.4557,279.2058 87.5607,279.2058 C102.2707,279.2058 114.1957,267.2808 114.1957,252.5708 C114.1957,245.5268 111.4567,239.1268 106.9917,234.3638 C102.1317,229.1798 95.2267,225.9358 87.5607,225.9358 L87.5607,225.9358 Z" id="Fill-102" fill="#41387A"></path>
                <polygon id="Fill-103" fill="#D71D5E" points="-7.10542736e-15 208.3546 7.221 208.3546 106.992 208.3546 114.212 208.3546 114.212 199.8136 -7.10542736e-15 199.8136"></polygon>
                <polygon id="Fill-104" fill="#B1F0F2" points="-7.10542736e-15 208.3546 7.221 208.3546 106.992 208.3546 114.212 208.3546 114.212 199.8136 -7.10542736e-15 199.8136"></polygon>
            </g>
        </g>
    </g>
</svg>