<?xml version="1.0" encoding="UTF-8"?>
<svg width="45px" height="42px" viewBox="0 0 45 42" version="1.1" xmlns="http://www.w3.org/2000/svg" xmlns:xlink="http://www.w3.org/1999/xlink">
    <!-- Generator: Sketch 53.1 (72631) - https://sketchapp.com -->
    <title>Group 6Butterfly</title>
    <desc>Created with Sketch.</desc>
    <g id="Page-1" stroke="none" stroke-width="1" fill="none" fill-rule="evenodd">
        <g id="Artboard" transform="translate(-605.000000, -374.000000)">
            <g id="Group-6" transform="translate(604.993634, 374.284685)">
                <path d="M44.281066,14.9090145 C44.496066,14.1060145 44.650066,13.3020145 44.758066,12.5000145 C44.846066,11.8410145 44.480066,11.2080145 43.865066,10.9540145 C43.116066,10.6450145 42.344066,10.3780145 41.541066,10.1630145 C33.283066,7.95001454 24.862066,11.2590145 20.145066,17.8080145 C19.336066,9.77801454 13.698066,2.70201454 5.43906603,0.489014544 C4.63606603,0.274014544 3.83406603,0.120014544 3.03106603,0.0130145436 C2.37206603,-0.0749854564 1.73806603,0.290014544 1.48506603,0.904014544 C1.17706603,1.65301454 0.909066034,2.42701454 0.694066034,3.22901454 C-1.63693397,11.9270145 2.14106603,20.8180145 9.39706603,25.3580145 C6.29906603,26.7130145 3.81806603,29.4060145 2.87506603,32.9280145 C2.74106603,33.4260145 2.64906603,33.9250145 2.58506603,34.4240145 C2.54706603,34.7340145 2.72206603,35.0410145 3.01106603,35.1630145 C3.47406603,35.3580145 3.95306603,35.5280145 4.45106603,35.6620145 C8.87006603,36.8450145 13.367066,35.2820145 16.162066,32.0350145 C16.959066,36.2450145 20.072066,39.8480145 24.490066,41.0310145 C24.988066,41.1650145 25.488066,41.2570145 25.986066,41.3190145 C26.297066,41.3570145 26.603066,41.1810145 26.725066,40.8920145 C26.920066,40.4280145 27.089066,39.9500145 27.222066,39.4510145 C28.156066,35.9670145 27.384066,32.4300145 25.425066,29.7180145 C34.078066,29.5210145 41.927066,23.6920145 44.281066,14.9090145" id="Fill-27" fill="#DF51CD"></path>
                <path d="M4.64406603,35.7088145 C3.32206603,35.3118145 2.57206603,33.9188145 2.96806603,32.5958145 C3.94006603,29.3578145 6.28306603,26.7198145 9.39706603,25.3578145 C1.90206603,20.6678145 -1.59593397,11.7748145 0.694066034,3.22881454 C0.824066034,2.74381454 0.974066034,2.26081454 1.15106603,1.77081454 C1.61806603,0.469814544 3.05206603,-0.203185456 4.34906603,0.263814544 C5.64806603,0.729814544 6.32306603,2.16281454 5.85606603,3.46181454 C5.72806603,3.81881454 5.61906603,4.16981454 5.52406603,4.52281454 C3.80606603,10.9328145 6.42806603,17.6028145 12.050066,21.1198145 L16.065066,23.6328145 C16.851066,24.1248145 17.300066,25.0108145 17.232066,25.9358145 C17.164066,26.8598145 16.590066,27.6708145 15.740066,28.0428145 L11.399066,29.9398145 C9.63406603,30.7118145 8.30606603,32.2038145 7.75806603,34.0328145 C7.43206603,35.1158145 6.43906603,35.8148145 5.36406603,35.8148145 C5.12606603,35.8148145 4.88406603,35.7808145 4.64406603,35.7088145 Z" id="Fill-29" fill="#F2A7E8"></path>
            </g>
        </g>
    </g>
</svg>