<?xml version="1.0" encoding="UTF-8"?>
<svg width="30px" height="37px" viewBox="0 0 30 37" version="1.1" xmlns="http://www.w3.org/2000/svg" xmlns:xlink="http://www.w3.org/1999/xlink">
    <!-- Generator: Sketch 53.1 (72631) - https://sketchapp.com -->
    <title>Group 28cupcake</title>
    <desc>Created with Sketch.</desc>
    <g id="Page-1" stroke="none" stroke-width="1" fill="none" fill-rule="evenodd">
        <g id="Artboard" transform="translate(-1222.000000, -1248.000000)">
            <g id="Group-28" transform="translate(1222.738341, 1248.633000)">
                <path d="M22.3589585,5.67430016 C21.2099585,2.11930016 16.3539585,2.63630016 13.4849585,2.26830016 C12.2269585,2.10730016 10.9369585,1.85030016 9.78195854,1.30630016 C9.62595854,1.23330016 8.55295854,0.610300163 8.05695854,0.115300163 C7.88095854,-0.0596998369 7.59395854,-0.0326998369 7.46195854,0.177300163 C6.57995854,1.58130016 4.64995854,5.28430016 7.51295854,7.04930016 C9.85095854,8.49030016 12.9619585,8.71330016 15.6379585,8.61030016 C17.2059585,8.55030016 23.2259585,8.35730016 22.3589585,5.67430016" id="Fill-159" fill="#FFF8DC"></path>
                <path d="M22.4327585,6.22430016 C22.4347585,6.16730016 22.4307585,6.10830016 22.4257585,6.04930016 C22.4177585,5.92930016 22.4017585,5.80730016 22.3587585,5.67430016 C22.2767585,5.41930016 22.1687585,5.19330016 22.0487585,4.97930016 C22.0077585,4.90430016 21.9627585,4.83330016 21.9167585,4.76230016 C21.8327585,4.63330016 21.7407585,4.51230016 21.6437585,4.39730016 C21.5557585,4.29230016 21.4637585,4.19230016 21.3657585,4.09930016 C21.2627585,4.00230016 21.1597585,3.90530016 21.0427585,3.82030016 C19.9557585,2.99130016 18.4407585,2.68630016 16.9237585,2.53830016 C17.4667585,2.62230016 19.6227585,3.26430016 18.6617585,4.09230016 C18.3627585,4.35030016 17.9277585,4.38930016 17.5667585,4.51530016 C17.1247585,4.66930016 16.6837585,4.82730016 16.2397585,4.97430016 C13.8807585,5.75930016 11.4787585,6.15930016 9.05875854,5.91430016 C8.40575854,5.84830016 7.30475854,5.64130016 6.29075854,5.69930016 C6.52275854,6.20830016 6.90475854,6.67430016 7.51275854,7.04930016 C9.85075854,8.49030016 12.9627585,8.71330016 15.6377585,8.61030016 C17.0897585,8.55430016 22.3517585,8.38130016 22.4327585,6.22430016" id="Fill-161" fill="#FFF5D1"></path>
                <path d="M22.1148585,4.51770016 C22.3918585,4.55070016 22.6718585,4.60670016 22.9538585,4.69170016 C25.0198585,5.31070016 25.9968585,7.44370016 25.5808585,9.94970016 C25.0338585,12.8327002 19.7368585,13.3047002 15.1608585,12.8677002 C10.5858585,12.4307002 4.59885854,10.6647002 4.62285854,8.49370016 C4.65485854,5.59670016 8.29185854,6.44470016 9.73585854,6.59070016 C12.1558585,6.83570016 14.5578585,6.43670016 16.9168585,5.65170016 C18.6208585,5.08470016 20.3358585,4.30670016 22.1148585,4.51770016" id="Fill-163" fill="#A87838"></path>
                <path d="M25.2527585,10.7634002 C25.4057585,10.5154002 25.5237585,10.2484002 25.5807585,9.95040016 C25.9967585,7.44340016 25.0197585,5.31040016 22.9537585,4.69140016 C22.7667585,4.63540016 22.5827585,4.60940016 22.3977585,4.57640016 C23.9227585,4.84640016 25.0157585,8.31740016 24.0087585,9.36640016 C23.4357585,9.96240016 22.9067585,10.3564002 22.0857585,10.3484002 C21.1757585,10.3394002 20.2687585,10.3664002 19.3587585,10.3294002 C17.5937585,10.2594002 15.8357585,10.0604002 14.1027585,9.71640016 C11.5927585,9.21740016 9.38975854,7.50640016 6.73175854,7.56840016 C6.37975854,7.57640016 6.02375854,7.61340016 5.66075854,7.68540016 C5.30775854,7.75540016 4.97775854,7.86340016 4.66875854,8.00140016 C4.64075854,8.15240016 4.62475854,8.31540016 4.62275854,8.49340016 C4.60275854,10.2514002 8.52475854,11.7434002 12.4677585,12.4844002 C12.7477585,12.5364002 13.0277585,12.5844002 13.3067585,12.6284002 C13.3317585,12.6324002 13.3567585,12.6374002 13.3817585,12.6414002 C13.6427585,12.6824002 13.9017585,12.7184002 14.1587585,12.7524002 C14.2007585,12.7574002 14.2427585,12.7644002 14.2837585,12.7694002 C14.5807585,12.8074002 14.8737585,12.8404002 15.1607585,12.8674002 C15.4397585,12.8944002 15.7207585,12.9174002 16.0037585,12.9364002 C16.1217585,12.9454002 16.2407585,12.9504002 16.3597585,12.9564002 C16.5237585,12.9664002 16.6877585,12.9764002 16.8527585,12.9834002 C17.0057585,12.9894002 17.1577585,12.9924002 17.3097585,12.9964002 C17.4387585,12.9994002 17.5677585,13.0044002 17.6967585,13.0064002 C17.8757585,13.0084002 18.0527585,13.0064002 18.2307585,13.0044002 C18.3307585,13.0034002 18.4307585,13.0044002 18.5307585,13.0024002 C18.7257585,12.9984002 18.9177585,12.9904002 19.1107585,12.9814002 C19.1907585,12.9784002 19.2707585,12.9754002 19.3497585,12.9714002 C19.5547585,12.9604002 19.7557585,12.9444002 19.9557585,12.9274002 C20.0197585,12.9214002 20.0837585,12.9174002 20.1467585,12.9114002 C20.3577585,12.8914002 20.5637585,12.8664002 20.7687585,12.8394002 C20.8167585,12.8324002 20.8657585,12.8274002 20.9137585,12.8204002 C21.1267585,12.7904002 21.3347585,12.7554002 21.5387585,12.7164002 C21.5747585,12.7104002 21.6107585,12.7044002 21.6457585,12.6974002 C21.8567585,12.6554002 22.0597585,12.6094002 22.2587585,12.5584002 C22.2847585,12.5524002 22.3117585,12.5464002 22.3377585,12.5394002 C22.5407585,12.4854002 22.7367585,12.4274002 22.9257585,12.3634002 C22.9447585,12.3574002 22.9637585,12.3514002 22.9817585,12.3444002 C23.1737585,12.2784002 23.3577585,12.2064002 23.5337585,12.1294002 C23.5457585,12.1234002 23.5587585,12.1184002 23.5717585,12.1124002 C23.7497585,12.0324002 23.9177585,11.9464002 24.0757585,11.8544002 C24.0837585,11.8494002 24.0917585,11.8444002 24.0997585,11.8404002 C24.2607585,11.7454002 24.4097585,11.6444002 24.5607585,11.5254002 C24.6997585,11.4164002 24.8267585,11.2994002 24.9477585,11.1674002 C25.0627585,11.0414002 25.1637585,10.9084002 25.2527585,10.7634002" id="Fill-165" fill="#7B4001"></path>
                <path d="M6.73145854,8.63380016 C6.38045854,8.64180016 6.02345854,8.67980016 5.66045854,8.75180016 C2.99845854,9.28080016 1.52045854,11.8378002 1.74145854,15.0288002 C2.08145854,18.7078002 8.65845854,19.9338002 14.4424585,19.9338002 C18.0104585,19.9338002 21.8504585,19.5688002 25.1994585,18.2628002 C26.2414585,17.8568002 27.5594585,17.2808002 28.0434585,16.1878002 C28.6864585,14.7378002 27.7484585,12.4548002 26.4074585,11.6968002 C25.7884585,11.3458002 25.0454585,11.2818002 24.3344585,11.3228002 C20.7994585,11.5288002 17.6044585,11.4778002 14.1024585,10.7818002 C11.5924585,10.2828002 9.38945854,8.57280016 6.73145854,8.63380016" id="Fill-167" fill="#FFF8DC"></path>
                <path d="M28.0437585,16.1877002 C28.6857585,14.7377002 27.7487585,12.4547002 26.4077585,11.6967002 C26.0217585,11.4777002 25.5857585,11.3787002 25.1417585,11.3387002 C26.8287585,12.7297002 26.4817585,14.2697002 25.6747585,14.2837002 C24.8157585,14.2977002 22.9497585,12.8677002 15.1607585,12.8677002 C6.83675854,12.8677002 3.26575854,14.4607002 1.83275854,15.4777002 C2.65275854,18.8037002 8.90375854,19.9337002 14.4427585,19.9337002 C18.0097585,19.9337002 21.8507585,19.5687002 25.1997585,18.2627002 C26.2407585,17.8567002 27.5597585,17.2807002 28.0437585,16.1877002" id="Fill-169" fill="#FFF5D1"></path>
                <path d="M27.5993585,17.0280002 C24.8873585,13.9280002 18.2023585,13.7340002 14.5213585,13.7340002 C10.8403585,13.7340002 4.15635854,13.9280002 1.44335854,17.0280002 C-1.26864146,20.1280002 0.673358542,24.1710002 0.673358542,24.1710002 C0.673358542,24.1710002 6.86835854,27.4920002 7.26035854,27.6860002 C7.65235854,27.8800002 21.3903585,27.8800002 21.7823585,27.6860002 C22.1743585,27.4920002 28.3703585,24.1710002 28.3703585,24.1710002 C28.3703585,24.1710002 30.3113585,20.1280002 27.5993585,17.0280002" id="Fill-171" fill="#A87838"></path>
                <path d="M29.0308585,20.6046002 L29.0308585,20.6036002 L29.0308585,20.6036002 C28.9678585,19.4506002 28.6028585,18.1746002 27.5988585,17.0276002 C26.8958585,16.2246002 25.9228585,15.6186002 24.8068585,15.1586002 C24.8978585,15.2486002 24.9968585,15.3336002 25.0808585,15.4296002 C26.3168585,16.8416002 26.5838585,18.4466002 26.5108585,19.7786002 C26.4888585,20.1696002 26.2608585,20.5146002 25.9268585,20.7176002 C25.8828585,20.7446002 25.8398585,20.7716002 25.7988585,20.7996002 C25.2198585,21.1896002 24.4628585,21.0286002 24.0948585,20.4366002 C23.6798585,19.7676002 22.9838585,19.1596002 21.8288585,19.1596002 C20.6778585,19.1596002 19.8638585,19.6266002 19.3168585,20.1416002 C18.8378585,20.5926002 18.0988585,20.5946002 17.6458585,20.1176002 C17.5128585,19.9786002 17.3688585,19.8496002 17.2168585,19.7296002 C15.6488585,18.4946002 13.3938585,18.4946002 11.8258585,19.7296002 C11.6738585,19.8496002 11.5298585,19.9786002 11.3968585,20.1176002 C10.9438585,20.5946002 10.2048585,20.5926002 9.72585854,20.1416002 C9.17885854,19.6266002 8.36485854,19.1596002 7.21385854,19.1596002 C6.05885854,19.1596002 5.36285854,19.7676002 4.94785854,20.4366002 C4.58385854,21.0206002 3.83285854,21.1956002 3.26485854,20.8066002 C2.66285854,20.3946002 1.75485854,20.0786002 0.404858542,20.1986002 C0.234858542,20.2766002 0.107858542,20.4176002 0.0118585425,20.6036002 C-0.0671414575,22.0466002 0.325858542,23.2896002 0.540858542,23.8506002 L0.539858542,23.8496002 C0.541858542,23.8556002 0.543858542,23.8606002 0.545858542,23.8656002 C0.558858542,23.8996002 0.567858542,23.9206002 0.578858542,23.9486002 C0.594858542,23.9876002 0.608858542,24.0216002 0.620858542,24.0516002 C0.641858542,24.1006002 0.653858542,24.1286002 0.660858542,24.1446002 C0.668858542,24.1606002 0.672858542,24.1706002 0.672858542,24.1706002 C0.672858542,24.1706002 6.86885854,27.4916002 7.26085854,27.6856002 C7.65285854,27.8796002 21.3898585,27.8796002 21.7818585,27.6856002 C22.1748585,27.4916002 28.3698585,24.1706002 28.3698585,24.1706002 C28.3698585,24.1706002 28.3808585,24.1476002 28.3968585,24.1116002 C28.4018585,24.1006002 28.4048585,24.0926002 28.4108585,24.0776002 C28.4278585,24.0386002 28.4488585,23.9886002 28.4738585,23.9236002 C28.4818585,23.9036002 28.4888585,23.8866002 28.4978585,23.8636002 C28.5278585,23.7856002 28.5598585,23.6966002 28.5948585,23.5926002 C28.6008585,23.5776002 28.6048585,23.5656002 28.6108585,23.5486002 C28.6938585,23.3006002 28.7838585,22.9876002 28.8618585,22.6246002 C28.8678585,22.5976002 28.8718585,22.5706002 28.8778585,22.5426002 C28.9098585,22.3886002 28.9368585,22.2266002 28.9618585,22.0566002 C28.9668585,22.0166002 28.9728585,21.9786002 28.9778585,21.9386002 C29.0008585,21.7566002 29.0178585,21.5686002 29.0288585,21.3726002 C29.0298585,21.3496002 29.0328585,21.3276002 29.0338585,21.3046002 C29.0438585,21.0776002 29.0438585,20.8446002 29.0308585,20.6046002" id="Fill-173" fill="#7B4001"></path>
                <path d="M28.3698585,21.8458002 C25.1728585,21.5548002 24.4998585,23.8088002 24.4998585,23.8088002 C24.4998585,23.8088002 24.2088585,20.8058002 21.6898585,20.8058002 C19.1718585,20.8058002 18.2998585,23.1308002 18.2998585,23.1308002 C18.1718585,22.3958002 17.7178585,21.8198002 17.1658585,21.3768002 C15.6408585,20.1518002 13.4018585,20.1518002 11.8768585,21.3768002 C11.3258585,21.8198002 10.8708585,22.3958002 10.7438585,23.1308002 C10.7438585,23.1308002 9.87185854,20.8058002 7.35285854,20.8058002 C4.83385854,20.8058002 4.54385854,23.8088002 4.54385854,23.8088002 C4.54385854,23.8088002 3.86985854,21.5548002 0.672858542,21.8458002 C-1.26914146,22.7578002 2.04085854,31.6418002 3.35985854,34.9638002 C3.65885854,35.7178002 4.38685854,36.2088002 5.19785854,36.2088002 L6.86885854,36.2088002 L11.5178585,36.2088002 L14.5218585,36.2088002 L17.5248585,36.2088002 L22.1748585,36.2088002 L23.8448585,36.2088002 C24.6568585,36.2088002 25.3838585,35.7178002 25.6838585,34.9638002 C27.0018585,31.6418002 30.3118585,22.7578002 28.3698585,21.8458002" id="Fill-175" fill="#8AE2E2"></path>
                <path d="M24.3671585,24.6509002 C24.3261585,26.5299002 24.0571585,28.3419002 23.7391585,30.1139002 C23.4041585,31.8519002 23.0201585,33.5529002 22.4201585,35.1929002 C22.4421585,33.4679002 22.6901585,31.7469002 22.9981585,30.0029002 C23.3341585,28.2329002 23.7311585,26.4399002 24.3671585,24.6509002" id="Fill-177" fill="#58A8A6"></path>
                <path d="M18.2994585,24.3919002 C18.4874585,26.2869002 18.4394585,28.1379002 18.3384585,29.9529002 C18.2164585,31.7359002 18.0404585,33.4849002 17.6424585,35.1939002 C17.4534585,33.4579002 17.4914585,31.7019002 17.5854585,29.9179002 C17.7054585,28.1039002 17.8824585,26.2589002 18.2994585,24.3919002" id="Fill-179" fill="#58A8A6"></path>
                <path d="M4.58095854,24.6509002 C5.21695854,26.4399002 5.61395854,28.2329002 5.94995854,30.0029002 C6.25795854,31.7469002 6.50595854,33.4679002 6.52795854,35.1929002 C5.92795854,33.5529002 5.54495854,31.8519002 5.20895854,30.1139002 C4.89195854,28.3419002 4.62195854,26.5299002 4.58095854,24.6509002" id="Fill-181" fill="#58A8A6"></path>
                <path d="M10.6485585,24.3919002 C11.0655585,26.2589002 11.2425585,28.1039002 11.3625585,29.9179002 C11.4565585,31.7019002 11.4945585,33.4579002 11.3055585,35.1939002 C10.9075585,33.4849002 10.7315585,31.7359002 10.6095585,29.9529002 C10.5085585,28.1379002 10.4605585,26.2869002 10.6485585,24.3919002" id="Fill-183" fill="#58A8A6"></path>
                <path d="M28.9426585,22.9868002 C28.9396585,22.9588002 28.9366585,22.9308002 28.9336585,22.9028002 C28.9136585,22.7458002 28.8846585,22.6028002 28.8446585,22.4758002 C28.8386585,22.4548002 28.8306585,22.4348002 28.8236585,22.4148002 C28.7796585,22.2898002 28.7256585,22.1788002 28.6576585,22.0888002 C28.6496585,22.0778002 28.6396585,22.0698002 28.6316585,22.0598002 C28.5576585,21.9688002 28.4726585,21.8938002 28.3696585,21.8458002 C28.1256585,21.8238002 27.9006585,21.8208002 27.6846585,21.8258002 C27.6556585,21.8268002 27.6286585,21.8288002 27.5996585,21.8298002 C25.0676585,21.9348002 24.4996585,23.8088002 24.4996585,23.8088002 C24.4996585,23.8088002 24.6386585,28.7898002 23.4616585,31.9248002 C22.9596585,33.2598002 21.6626585,34.1258002 20.2366585,34.1258002 L15.5866585,34.1258002 L12.5836585,34.1258002 L9.58065854,34.1258002 L4.93065854,34.1258002 L3.26065854,34.1258002 C3.18065854,34.1258002 3.10265854,34.1178002 3.02465854,34.1088002 C3.14565854,34.4208002 3.25865854,34.7108002 3.35965854,34.9638002 C3.65865854,35.7178002 4.38665854,36.2088002 5.19765854,36.2088002 L6.86865854,36.2088002 L11.5186585,36.2088002 L14.5216585,36.2088002 L17.5246585,36.2088002 L22.1746585,36.2088002 L23.8446585,36.2088002 C24.6566585,36.2088002 25.3836585,35.7178002 25.6836585,34.9638002 C25.8746585,34.4828002 26.1076585,33.8818002 26.3606585,33.2088002 C26.3716585,33.1788002 26.3826585,33.1508002 26.3936585,33.1218002 C26.4806585,32.8888002 26.5696585,32.6458002 26.6606585,32.3968002 C26.6766585,32.3538002 26.6916585,32.3108002 26.7076585,32.2668002 C26.7976585,32.0188002 26.8886585,31.7648002 26.9806585,31.5048002 C26.9966585,31.4598002 27.0116585,31.4148002 27.0286585,31.3688002 C27.1206585,31.1028002 27.2136585,30.8338002 27.3056585,30.5608002 C27.3186585,30.5248002 27.3306585,30.4878002 27.3426585,30.4508002 C27.4396585,30.1638002 27.5346585,29.8748002 27.6286585,29.5828002 C27.6316585,29.5738002 27.6346585,29.5648002 27.6366585,29.5558002 C27.7286585,29.2678002 27.8186585,28.9788002 27.9066585,28.6908002 C27.9156585,28.6588002 27.9256585,28.6268002 27.9356585,28.5948002 C28.0186585,28.3158002 28.0986585,28.0388002 28.1766585,27.7628002 C28.1896585,27.7148002 28.2026585,27.6668002 28.2156585,27.6198002 C28.2906585,27.3498002 28.3606585,27.0838002 28.4266585,26.8218002 C28.4386585,26.7738002 28.4506585,26.7268002 28.4616585,26.6798002 C28.5266585,26.4158002 28.5866585,26.1568002 28.6416585,25.9038002 C28.6496585,25.8648002 28.6576585,25.8268002 28.6656585,25.7888002 C28.7196585,25.5288002 28.7686585,25.2758002 28.8096585,25.0318002 C28.8126585,25.0118002 28.8156585,24.9928002 28.8186585,24.9728002 C28.8586585,24.7288002 28.8916585,24.4948002 28.9156585,24.2708002 C28.9166585,24.2558002 28.9196585,24.2408002 28.9206585,24.2258002 C28.9436585,24.0038002 28.9566585,23.7958002 28.9616585,23.5968002 C28.9626585,23.5688002 28.9636585,23.5398002 28.9636585,23.5128002 C28.9666585,23.3238002 28.9586585,23.1498002 28.9426585,22.9868002" id="Fill-185" fill="#8AE2E2"></path>
            </g>
        </g>
    </g>
</svg>