<?xml version="1.0" encoding="UTF-8"?>
<svg width="87px" height="44px" viewBox="0 0 87 44" version="1.1" xmlns="http://www.w3.org/2000/svg" xmlns:xlink="http://www.w3.org/1999/xlink">
    <!-- Generator: Sketch 53.1 (72631) - https://sketchapp.com -->
    <title>Group 26helicopter</title>
    <desc>Created with Sketch.</desc>
    <g id="Page-1" stroke="none" stroke-width="1" fill="none" fill-rule="evenodd">
        <g id="Artboard" transform="translate(-952.000000, -1238.000000)">
            <g id="Group-26" transform="translate(952.513179, 1238.118400)">
                <path d="M50.4532214,34.8762 L50.4532214,40.8762" id="Stroke-1" stroke="#224578" stroke-width="4"></path>
                <path d="M37.4532214,34.8762 L37.4532214,40.8762" id="Stroke-2" stroke="#224578" stroke-width="4"></path>
                <path d="M65.4532214,41.6972 C65.4532214,40.6912 64.6382214,39.8762 63.6322214,39.8762 L25.2742214,39.8762 C24.2682214,39.8762 23.4532214,40.6912 23.4532214,41.6972 L23.4532214,42.0552 C23.4532214,43.0612 24.2682214,43.8762 25.2742214,43.8762 L63.6322214,43.8762 C64.6382214,43.8762 65.4532214,43.0612 65.4532214,42.0552 L65.4532214,41.6972 Z" id="Fill-3" fill="#41387A"></path>
                <path d="M44.2714214,2.4444 C44.2714214,2.4444 86.4264214,-2.6396 86.4264214,1.8584 C86.4264214,6.3554 44.2714214,2.4444 44.2714214,2.4444" id="Fill-5" fill="#FFF8DC"></path>
                <path d="M47.8606214,2.4444 C47.8606214,2.4444 5.70562137,-2.6396 5.70562137,1.8584 C5.70562137,6.3554 47.8606214,2.4444 47.8606214,2.4444" id="Fill-7" fill="#FFF8DC"></path>
                <path d="M45.0044214,6.405 C46.0104214,6.405 49.4654214,9.9475983e-14 45.3374214,9.9475983e-14 C41.2104214,9.9475983e-14 45.0044214,6.405 45.0044214,6.405" id="Fill-9" fill="#41387A"></path>
                <path d="M11.1535214,21.1112 C21.8665214,18.9662 32.6705214,3.6782 47.0035214,6.0082 C55.6975214,7.4212 60.0915214,11.5042 61.7995214,17.6542 C63.4185214,23.4862 61.2165214,30.0282 55.8875214,33.4472 C44.1085214,41.0062 35.8695214,35.7232 25.7935214,29.7722 C20.3375214,26.5492 14.6355214,25.3662 11.1545214,26.0632 C11.1545214,26.0632 4.63252137,31.8262 0.917521371,28.1132 C-2.79647863,24.4002 5.96452137,22.3982 5.96452137,22.3982 C5.96452137,22.3982 2.05752137,11.5432 6.67552137,9.8752 C11.2935214,8.2072 11.1535214,21.1112 11.1535214,21.1112" id="Fill-11" fill="#41387A"></path>
                <path d="M5.96432137,22.3982 C5.96432137,22.3982 2.05732137,11.5422 6.67532137,9.8752 C11.2933214,8.2072 11.1533214,21.1112 11.1533214,21.1112 C12.9973214,20.7422 14.8433214,19.9832 16.7103214,18.9932 C18.3073214,21.8502 19.8583214,24.7362 21.4073214,27.6242 C17.4443214,26.0552 13.7033214,25.5532 11.1553214,26.0632 C11.1553214,26.0632 4.63332137,31.8262 0.918321371,28.1132 C-2.79667863,24.4002 5.96432137,22.3982 5.96432137,22.3982" id="Fill-13" fill="#41387A"></path>
                <path d="M43.2052214,23.3432 C42.8022214,20.9822 42.5522214,18.6092 42.6852214,16.2122 C42.8992214,12.3732 44.6482214,8.8652 46.4892214,5.5252 C46.7812214,5.5582 47.0732214,5.5962 47.3682214,5.6442 C56.0622214,7.0572 60.4562214,11.1402 62.1642214,17.2902 C62.8612214,19.8032 62.8482214,22.4472 62.1822214,24.9172 C60.8502214,25.0122 59.5092214,24.8972 58.1492214,24.7802 C55.9652214,24.5922 53.7962214,24.5712 51.6062214,24.4902 C48.7652214,24.3842 45.9122214,24.1422 43.2052214,23.3432" id="Fill-15" fill="#FFF8DC"></path>
                <path d="M61.9145214,18.8257 C60.4565214,11.5477 53.1665214,6.6897 45.8885214,8.1477 C45.5895214,8.2077 45.2955214,8.2817 45.0045214,8.3607 C45.4725214,7.3997 45.9765214,6.4557 46.4895214,5.5247 C46.7805214,5.5587 47.0735214,5.5957 47.3685214,5.6437 C56.0615214,7.0577 60.4555214,11.1397 62.1645214,17.2897 C62.8615214,19.8027 62.8485214,22.4477 62.1825214,24.9177 C62.0235214,24.9287 61.8635214,24.9287 61.7055214,24.9337 C62.2295214,22.9877 62.3305214,20.9067 61.9145214,18.8257" id="Fill-17" fill="#FFF8DC"></path>
                <path d="M42.6849214,16.212 C42.8809214,12.709 44.3549214,9.481 46.0109214,6.405 C46.3819214,12.964 49.5729214,17.96 54.4809214,22.185 C55.5349214,23.093 56.6679214,23.956 57.8559214,24.76 C55.7709214,24.594 53.6979214,24.567 51.6069214,24.49 C48.7659214,24.384 45.9129214,24.143 43.2049214,23.343 C42.8019214,20.982 42.5519214,18.609 42.6849214,16.212" id="Fill-19" fill="#FFF8DC"></path>
                <path d="M43.9975214,15.728 C44.7295214,19.383 46.9145214,22.432 49.8295214,24.399 C47.5815214,24.257 45.3475214,23.976 43.2055214,23.343 C42.8015214,20.982 42.5515214,18.609 42.6845214,16.212 C42.7895214,14.335 43.2635214,12.537 43.9345214,10.799 C43.6595214,12.397 43.6635214,14.063 43.9975214,15.728" id="Fill-21" fill="#FFF8DC"></path>
            </g>
        </g>
    </g>
</svg>