<?xml version="1.0" encoding="UTF-8"?>
<svg width="21px" height="39px" viewBox="0 0 21 39" version="1.1" xmlns="http://www.w3.org/2000/svg" xmlns:xlink="http://www.w3.org/1999/xlink">
    <!-- Generator: Sketch 53.1 (72631) - https://sketchapp.com -->
    <title>Group 22ice cream</title>
    <desc>Created with Sketch.</desc>
    <g id="Page-1" stroke="none" stroke-width="1" fill="none" fill-rule="evenodd">
        <g id="Artboard" transform="translate(-521.000000, -1245.000000)">
            <g id="Group-22" transform="translate(521.155883, 1245.619741)">
                <path d="M15.8953167,17.2659591 C16.5643167,17.0329591 16.8453167,20.1569591 18.1683167,19.3579591 C18.1683167,19.3579591 15.0993167,37.8909591 14.4593167,38.3749591 C13.8203167,38.8599591 5.1453167,22.8439591 5.1453167,22.8439591 L5.1413167,22.8339591 C6.0613167,22.5069591 6.3473167,20.2539591 7.2743167,20.2139591 C8.2883167,20.1729591 8.0213167,22.3179591 9.7313167,21.8919591 C11.4433167,21.4659591 10.4113167,19.4589591 11.2143167,19.2209591 C12.0183167,18.9839591 12.7983167,19.8329591 14.1023167,19.3729591 C15.3223167,18.9409591 15.2283167,17.4969591 15.8953167,17.2659591" id="Fill-92" fill="#EABB53"></path>
                <path d="M5.1418167,22.8342591 C5.0538167,22.8682591 4.9588167,22.8812591 4.8578167,22.8732591 C3.7028167,22.7862591 4.2108167,20.3232591 3.8368167,19.4592591 C3.4608167,18.5922591 0.636816696,17.4892591 0.0678166957,11.9552591 C-0.627183304,5.16025914 4.1238167,0.977259143 9.5428167,0.107259143 C14.6598167,-0.714740857 19.8418167,3.27525914 20.4198167,9.07925914 C20.9998167,14.8852591 18.4928167,16.1412591 18.4928167,16.1412591 C17.9818167,16.9072591 19.4898167,18.5562591 18.1688167,19.3582591 C16.8458167,20.1572591 16.5648167,17.0332591 15.8958167,17.2662591 C15.2278167,17.4962591 15.3218167,18.9402591 14.1018167,19.3732591 C12.7978167,19.8322591 12.0188167,18.9832591 11.2148167,19.2212591 C10.4108167,19.4582591 11.4438167,21.4652591 9.7318167,21.8912591 C8.0218167,22.3172591 8.2888167,20.1732591 7.2738167,20.2142591 C6.3478167,20.2532591 6.0608167,22.5062591 5.1418167,22.8342591" id="Fill-98" fill="#97F2CD"></path>
                <path d="M4.5919167,21.2483591 C5.0709167,20.1653591 5.9029167,18.6283591 5.0219167,18.1233591 C0.742916696,15.2473591 -0.0400833043,9.66635914 1.4909167,5.18835914 C0.366916696,7.01135914 -0.206083304,9.27935914 0.0679166957,11.9553591 C0.636916696,17.4883591 3.4599167,18.5923591 3.8369167,19.4583591 C4.2109167,20.3233591 3.7029167,22.7863591 4.8579167,22.8733591 C4.9589167,22.8813591 5.0539167,22.8673591 5.1419167,22.8343591 C5.2419167,22.7983591 5.3339167,22.7393591 5.4199167,22.6633591 C4.8809167,22.4163591 4.4439167,21.8113591 4.5919167,21.2483591" id="Fill-100" fill="#6EBB9C"></path>
                <g id="Group-116" transform="translate(1.844117, 2.764259)" fill="#650E81">
                    <path d="M3.0623,4.169 C3.0733,4.152 3.0843,4.135 3.0963,4.116 C3.1053,4.101 3.1133,4.084 3.1223,4.069 C3.1333,4.05 3.1433,4.032 3.1533,4.013 C3.1623,3.995 3.1723,3.975 3.1813,3.956 C3.1903,3.937 3.1993,3.919 3.2083,3.9 C3.2183,3.878 3.2273,3.856 3.2363,3.834 C3.2443,3.816 3.2513,3.798 3.2593,3.78 C3.2683,3.756 3.2773,3.731 3.2873,3.706 C3.2933,3.689 3.2993,3.672 3.3043,3.655 C3.3133,3.629 3.3213,3.602 3.3303,3.575 C3.3343,3.56 3.3393,3.544 3.3433,3.529 C3.3513,3.5 3.3583,3.473 3.3643,3.445 C3.3673,3.43 3.3703,3.416 3.3733,3.402 C3.3793,3.373 3.3843,3.345 3.3883,3.316 C3.3903,3.304 3.3913,3.291 3.3933,3.279 C3.3963,3.25 3.3993,3.222 3.4003,3.194 C3.4013,3.183 3.4013,3.172 3.4013,3.161 C3.4013,3.133 3.4013,3.106 3.3993,3.079 C3.3983,3.07 3.3973,3.061 3.3953,3.052 C3.3923,3.025 3.3883,3 3.3823,2.975 C3.3803,2.968 3.3773,2.961 3.3753,2.954 C3.3683,2.93 3.3603,2.906 3.3493,2.885 C3.3463,2.879 3.3423,2.875 3.3393,2.869 C3.3263,2.848 3.3133,2.828 3.2973,2.81 C3.2943,2.807 3.2903,2.805 3.2873,2.802 C3.2483,2.765 3.2003,2.735 3.1383,2.721 C2.5583,2.589 1.7773,2.891 1.7013,3.514 C1.6963,3.558 1.6983,3.602 1.7043,3.644 C1.7063,3.657 1.7093,3.669 1.7123,3.682 C1.7193,3.713 1.7283,3.742 1.7403,3.772 C1.7453,3.784 1.7493,3.796 1.7553,3.808 C1.7723,3.845 1.7933,3.881 1.8183,3.916 C1.8193,3.918 1.8203,3.92 1.8213,3.922 C1.8493,3.96 1.8813,3.996 1.9153,4.03 C1.9223,4.037 1.9283,4.043 1.9353,4.049 C1.9653,4.078 1.9973,4.106 2.0313,4.132 C2.0373,4.136 2.0433,4.141 2.0493,4.146 C2.2633,4.304 2.5293,4.401 2.7263,4.396 C2.7313,4.396 2.7363,4.396 2.7413,4.395 C2.7723,4.394 2.8013,4.389 2.8283,4.382 C2.8363,4.38 2.8433,4.378 2.8513,4.376 C2.8803,4.365 2.9083,4.352 2.9293,4.334 C2.9463,4.319 2.9643,4.301 2.9823,4.279 C2.9883,4.272 2.9943,4.263 3.0013,4.255 C3.0133,4.239 3.0253,4.224 3.0383,4.206 C3.0463,4.194 3.0543,4.181 3.0623,4.169" id="Fill-102"></path>
                    <path d="M3.7574,15.0697 C3.7584,15.0617 3.7594,15.0537 3.7604,15.0457 C3.7664,15.0037 3.7704,14.9597 3.7724,14.9127 C3.7734,14.8897 3.7734,14.8647 3.7734,14.8397 C3.7734,14.8027 3.7744,14.7667 3.7724,14.7257 C3.7694,14.6567 3.7634,14.5827 3.7534,14.5027 C3.7484,14.4627 3.7364,14.4267 3.7224,14.3927 C3.7184,14.3817 3.7124,14.3727 3.7064,14.3627 C3.6944,14.3407 3.6814,14.3197 3.6654,14.2997 C3.6574,14.2907 3.6494,14.2817 3.6404,14.2727 C3.6224,14.2547 3.6024,14.2387 3.5814,14.2227 C3.5724,14.2167 3.5644,14.2097 3.5554,14.2047 C3.4914,14.1657 3.4164,14.1367 3.3324,14.1187 C3.3194,14.1157 3.3064,14.1137 3.2924,14.1107 C3.2634,14.1057 3.2334,14.1007 3.2034,14.0977 C3.1864,14.0957 3.1694,14.0937 3.1524,14.0927 C3.1234,14.0907 3.0944,14.0897 3.0654,14.0897 C3.0474,14.0887 3.0294,14.0887 3.0114,14.0887 C2.9794,14.0897 2.9464,14.0917 2.9144,14.0937 C2.8814,14.0957 2.8494,14.0987 2.8174,14.1027 C2.7934,14.1057 2.7684,14.1087 2.7444,14.1117 C2.7174,14.1167 2.6924,14.1217 2.6654,14.1267 C2.6484,14.1297 2.6314,14.1327 2.6144,14.1367 C2.5864,14.1427 2.5594,14.1497 2.5334,14.1567 C2.5204,14.1597 2.5084,14.1637 2.4964,14.1667 C2.4674,14.1757 2.4394,14.1837 2.4124,14.1937 C2.4104,14.1937 2.4094,14.1947 2.4074,14.1947 C2.3144,14.2277 2.2354,14.2657 2.1754,14.3067 C2.1674,14.3117 2.1584,14.3177 2.1514,14.3237 C2.1384,14.3337 2.1274,14.3427 2.1174,14.3527 C2.1074,14.3627 2.0994,14.3717 2.0914,14.3817 C2.0864,14.3897 2.0794,14.3967 2.0754,14.4037 C2.0654,14.4217 2.0584,14.4397 2.0584,14.4587 C2.0524,14.8177 2.8834,15.7377 3.2804,15.6367 C3.3354,15.6227 3.3844,15.6037 3.4304,15.5807 C3.4394,15.5757 3.4464,15.5697 3.4554,15.5657 C3.4924,15.5437 3.5264,15.5197 3.5574,15.4917 C3.5634,15.4867 3.5674,15.4817 3.5734,15.4757 C3.6054,15.4437 3.6334,15.4077 3.6584,15.3667 C3.6604,15.3637 3.6624,15.3597 3.6634,15.3567 C3.7084,15.2787 3.7404,15.1837 3.7574,15.0697" id="Fill-104"></path>
                    <path d="M11.3313,1.1933 C11.3283,1.1773 11.3263,1.1613 11.3223,1.1463 C11.3193,1.1353 11.3153,1.1243 11.3113,1.1133 C11.3063,1.0973 11.3023,1.0823 11.2953,1.0673 C11.2913,1.0563 11.2853,1.0463 11.2803,1.0363 C11.2733,1.0213 11.2653,1.0073 11.2563,0.9933 C11.2503,0.9833 11.2433,0.9743 11.2363,0.9643 C11.2263,0.9513 11.2153,0.9383 11.2043,0.9253 C11.1953,0.9163 11.1873,0.9073 11.1783,0.8993 C11.1653,0.8873 11.1513,0.8753 11.1363,0.8643 C11.1263,0.8563 11.1153,0.8493 11.1043,0.8413 C11.0883,0.8313 11.0703,0.8213 11.0523,0.8113 C11.0393,0.8053 11.0273,0.7983 11.0143,0.7933 C10.9943,0.7843 10.9713,0.7763 10.9493,0.7683 C10.9353,0.7633 10.9213,0.7583 10.9073,0.7543 C10.8803,0.7463 10.8513,0.7413 10.8223,0.7353 C10.8083,0.7323 10.7953,0.7293 10.7803,0.7273 C10.7353,0.7193 10.6863,0.7143 10.6343,0.7123 C10.6153,0.7113 10.5943,0.7123 10.5733,0.7143 C10.5663,0.7153 10.5583,0.7173 10.5513,0.7183 C10.5363,0.7203 10.5203,0.7233 10.5053,0.7273 C10.4953,0.7293 10.4863,0.7323 10.4763,0.7353 C10.4613,0.7393 10.4463,0.7443 10.4313,0.7493 C10.4203,0.7523 10.4103,0.7563 10.3993,0.7613 C10.3843,0.7663 10.3693,0.7723 10.3533,0.7793 C10.3423,0.7843 10.3303,0.7893 10.3193,0.7943 C10.3043,0.8013 10.2893,0.8093 10.2733,0.8163 C10.2613,0.8223 10.2493,0.8283 10.2373,0.8353 C10.2223,0.8433 10.2073,0.8523 10.1923,0.8603 C10.1803,0.8683 10.1673,0.8743 10.1553,0.8823 C10.1393,0.8923 10.1233,0.9033 10.1063,0.9143 C10.0823,0.9303 10.0583,0.9463 10.0353,0.9643 C10.0243,0.9713 10.0143,0.9783 10.0043,0.9863 C9.9893,0.9983 9.9753,1.0103 9.9603,1.0223 C9.9513,1.0303 9.9413,1.0373 9.9323,1.0453 C9.9183,1.0583 9.9043,1.0703 9.8903,1.0833 C9.8823,1.0913 9.8743,1.0993 9.8663,1.1073 C9.8523,1.1203 9.8393,1.1343 9.8273,1.1473 C9.8203,1.1553 9.8133,1.1633 9.8063,1.1703 C9.7943,1.1853 9.7823,1.1993 9.7713,1.2133 C9.7663,1.2203 9.7613,1.2273 9.7563,1.2343 C9.7453,1.2493 9.7343,1.2643 9.7243,1.2803 C9.7223,1.2843 9.7203,1.2893 9.7173,1.2933 C9.6963,1.3283 9.6803,1.3633 9.6703,1.3983 C9.6693,1.4003 9.6683,1.4033 9.6673,1.4053 L9.6673,1.4063 C9.6613,1.4303 9.6573,1.4533 9.6563,1.4773 C9.6563,1.4773 9.6553,1.4783 9.6553,1.4793 C9.6553,1.5033 9.6573,1.5263 9.6633,1.5493 C9.7573,1.8963 11.0743,2.1923 11.2323,1.8143 C11.2553,1.7593 11.2773,1.6963 11.2953,1.6303 C11.2963,1.6283 11.2973,1.6263 11.2973,1.6233 C11.3043,1.6013 11.3093,1.5773 11.3153,1.5543 C11.3163,1.5493 11.3163,1.5463 11.3173,1.5423 C11.3223,1.5193 11.3263,1.4963 11.3303,1.4733 C11.3313,1.4683 11.3313,1.4633 11.3323,1.4583 C11.3353,1.4353 11.3383,1.4133 11.3403,1.3913 C11.3403,1.3863 11.3403,1.3813 11.3403,1.3763 C11.3423,1.3393 11.3423,1.3033 11.3403,1.2663 C11.3393,1.2543 11.3393,1.2413 11.3373,1.2283 C11.3363,1.2163 11.3333,1.2053 11.3313,1.1933" id="Fill-106"></path>
                    <path d="M16.5301,6.2908 C16.5501,6.2518 16.5681,6.2108 16.5861,6.1688 C16.5901,6.1568 16.5951,6.1448 16.5991,6.1328 C16.6161,6.0908 16.6311,6.0478 16.6441,6.0038 C16.6471,5.9928 16.6501,5.9808 16.6531,5.9698 C16.6641,5.9308 16.6741,5.8908 16.6831,5.8498 C16.6861,5.8338 16.6891,5.8178 16.6931,5.8008 C16.7011,5.7578 16.7081,5.7138 16.7121,5.6708 C16.7151,5.6478 16.7151,5.6258 16.7171,5.6038 C16.7191,5.5738 16.7211,5.5448 16.7221,5.5158 C16.7221,5.4928 16.7211,5.4718 16.7201,5.4488 C16.7191,5.4208 16.7181,5.3938 16.7161,5.3668 C16.7131,5.3448 16.7101,5.3248 16.7071,5.3048 C16.7031,5.2778 16.6981,5.2518 16.6921,5.2268 C16.6881,5.2078 16.6831,5.1898 16.6771,5.1718 C16.6691,5.1468 16.6601,5.1228 16.6501,5.0998 C16.6431,5.0838 16.6371,5.0688 16.6291,5.0538 C16.6161,5.0298 16.6011,5.0078 16.5861,4.9868 C16.5781,4.9768 16.5711,4.9648 16.5621,4.9548 C16.5361,4.9258 16.5081,4.8998 16.4751,4.8788 C15.8701,4.4908 14.9941,6.0448 14.9941,6.0448 C14.9941,6.0448 14.9951,6.0478 14.9971,6.0528 L14.9971,6.0528 L14.9971,6.0528 C15.0011,6.0608 15.0081,6.0748 15.0181,6.0928 C15.0191,6.0948 15.0191,6.0948 15.0201,6.0968 C15.0301,6.1148 15.0441,6.1378 15.0611,6.1628 C15.0631,6.1668 15.0651,6.1688 15.0671,6.1728 C15.0841,6.1978 15.1051,6.2268 15.1281,6.2568 C15.1321,6.2608 15.1351,6.2658 15.1391,6.2708 C15.1641,6.3008 15.1911,6.3318 15.2221,6.3638 C15.2271,6.3698 15.2331,6.3748 15.2391,6.3808 C15.2701,6.4128 15.3061,6.4448 15.3451,6.4768 C15.3511,6.4818 15.3581,6.4868 15.3651,6.4918 C15.4061,6.5238 15.4501,6.5548 15.4981,6.5828 C15.5051,6.5868 15.5121,6.5908 15.5191,6.5948 C15.5701,6.6238 15.6251,6.6508 15.6841,6.6748 C15.6901,6.6768 15.6951,6.6778 15.7001,6.6798 C15.7641,6.7038 15.8311,6.7248 15.9051,6.7398 C15.9431,6.7478 15.9811,6.7488 16.0171,6.7448 C16.0221,6.7448 16.0271,6.7448 16.0321,6.7438 C16.0671,6.7398 16.1011,6.7298 16.1341,6.7158 C16.1401,6.7138 16.1461,6.7108 16.1511,6.7088 C16.1841,6.6938 16.2151,6.6748 16.2461,6.6528 C16.2511,6.6488 16.2561,6.6448 16.2611,6.6408 C16.2921,6.6158 16.3221,6.5888 16.3501,6.5578 C16.3531,6.5558 16.3551,6.5528 16.3581,6.5498 C16.3851,6.5188 16.4111,6.4858 16.4351,6.4508 C16.4391,6.4448 16.4431,6.4398 16.4471,6.4348 C16.4711,6.3988 16.4931,6.3598 16.5151,6.3198 C16.5201,6.3098 16.5251,6.3008 16.5301,6.2908" id="Fill-108"></path>
                    <path d="M14.9002,11.2642 C14.9002,11.2492 14.9002,11.2342 14.8992,11.2182 C14.8992,11.2062 14.8982,11.1942 14.8972,11.1822 C14.8962,11.1682 14.8942,11.1552 14.8932,11.1412 C14.8902,11.1252 14.8872,11.1102 14.8832,11.0952 C14.8812,11.0832 14.8782,11.0712 14.8752,11.0602 C14.8692,11.0382 14.8612,11.0162 14.8522,10.9952 C14.8492,10.9862 14.8442,10.9782 14.8402,10.9692 C14.8322,10.9542 14.8242,10.9392 14.8152,10.9242 C14.8092,10.9162 14.8032,10.9072 14.7982,10.8992 C14.7872,10.8842 14.7752,10.8702 14.7632,10.8562 C14.7562,10.8492 14.7502,10.8422 14.7432,10.8362 C14.7252,10.8172 14.7042,10.8002 14.6812,10.7842 C14.6792,10.7822 14.6782,10.7812 14.6762,10.7802 C14.6512,10.7632 14.6232,10.7472 14.5932,10.7322 C14.5842,10.7282 14.5742,10.7242 14.5652,10.7202 C14.5422,10.7112 14.5182,10.7022 14.4932,10.6932 C14.4812,10.6892 14.4682,10.6862 14.4552,10.6822 C14.4282,10.6752 14.4002,10.6692 14.3712,10.6642 C14.3582,10.6612 14.3452,10.6582 14.3322,10.6572 C14.2882,10.6502 14.2422,10.6452 14.1922,10.6422 C13.8712,10.6262 13.1272,11.1332 13.2212,11.4802 C13.2632,11.6342 13.5482,11.7782 13.8642,11.8572 C13.8672,11.8582 13.8712,11.8592 13.8742,11.8602 C13.9142,11.8702 13.9542,11.8792 13.9952,11.8862 C14.0052,11.8882 14.0142,11.8892 14.0242,11.8912 C14.0582,11.8972 14.0922,11.9032 14.1262,11.9072 C14.1422,11.9092 14.1582,11.9102 14.1742,11.9112 C14.2012,11.9142 14.2292,11.9172 14.2562,11.9192 C14.2762,11.9202 14.2952,11.9192 14.3152,11.9202 C14.3372,11.9202 14.3592,11.9212 14.3792,11.9212 C14.4022,11.9202 14.4242,11.9172 14.4452,11.9152 C14.4622,11.9142 14.4792,11.9132 14.4942,11.9112 C14.5172,11.9082 14.5382,11.9032 14.5592,11.8982 C14.5712,11.8952 14.5852,11.8932 14.5962,11.8902 C14.6172,11.8842 14.6352,11.8752 14.6542,11.8672 C14.6632,11.8632 14.6732,11.8602 14.6822,11.8562 C14.7002,11.8462 14.7142,11.8342 14.7292,11.8222 C14.7352,11.8172 14.7422,11.8132 14.7482,11.8082 C14.7662,11.7892 14.7802,11.7682 14.7902,11.7452 C14.8052,11.7092 14.8192,11.6692 14.8332,11.6282 C14.8342,11.6252 14.8352,11.6212 14.8372,11.6172 C14.8502,11.5752 14.8622,11.5312 14.8732,11.4852 L14.8732,11.4852 C14.8732,11.4842 14.8732,11.4832 14.8732,11.4832 C14.8872,11.4202 14.8962,11.3572 14.8992,11.2942 C14.8992,11.2842 14.9002,11.2742 14.9002,11.2642" id="Fill-110"></path>
                    <path d="M2.0505,10.5776 C2.0665,10.5566 2.0775,10.5286 2.0845,10.4976 C2.0855,10.4936 2.0865,10.4906 2.0865,10.4866 C2.1185,10.3436 2.0705,10.1176 1.9785,9.8916 L1.9775,9.8896 C1.9655,9.8586 1.9515,9.8286 1.9375,9.7976 C1.9335,9.7896 1.9305,9.7806 1.9255,9.7726 C1.9135,9.7456 1.9005,9.7196 1.8865,9.6936 C1.8805,9.6806 1.8735,9.6686 1.8665,9.6566 C1.8535,9.6336 1.8415,9.6106 1.8285,9.5896 C1.8185,9.5726 1.8085,9.5576 1.7985,9.5416 C1.7865,9.5236 1.7755,9.5056 1.7645,9.4886 C1.7425,9.4576 1.7205,9.4276 1.6975,9.3996 C1.6905,9.3906 1.6835,9.3826 1.6755,9.3746 C1.6585,9.3546 1.6415,9.3346 1.6245,9.3176 C1.6155,9.3086 1.6065,9.3006 1.5975,9.2926 C1.5815,9.2776 1.5655,9.2636 1.5495,9.2506 C1.5405,9.2436 1.5305,9.2376 1.5215,9.2306 C1.5055,9.2196 1.4895,9.2106 1.4735,9.2016 C1.4645,9.1976 1.4555,9.1926 1.4465,9.1886 C1.4295,9.1816 1.4125,9.1776 1.3955,9.1746 C1.3885,9.1726 1.3805,9.1696 1.3725,9.1696 C1.3485,9.1666 1.3245,9.1676 1.3015,9.1736 C1.2715,9.1816 1.2405,9.1916 1.2085,9.2026 C1.1995,9.2056 1.1905,9.2086 1.1815,9.2116 C1.1555,9.2206 1.1305,9.2306 1.1035,9.2416 C1.0955,9.2446 1.0885,9.2476 1.0805,9.2516 C1.0465,9.2656 1.0125,9.2816 0.9795,9.2996 C0.9785,9.3006 0.9765,9.3016 0.9755,9.3026 C0.9445,9.3196 0.9135,9.3386 0.8845,9.3586 C0.8785,9.3626 0.8725,9.3676 0.8665,9.3716 C0.8385,9.3916 0.8125,9.4126 0.7875,9.4366 C0.7855,9.4386 0.7825,9.4406 0.7805,9.4426 C0.7525,9.4686 0.7275,9.4976 0.7055,9.5286 C0.7035,9.5306 0.7025,9.5326 0.7005,9.5346 C0.6815,9.5626 0.6655,9.5916 0.6515,9.6226 C0.6485,9.6286 0.6455,9.6346 0.6435,9.6406 C0.6295,9.6746 0.6185,9.7106 0.6125,9.7486 L0.6125,9.7486 L0.6125,9.7486 C0.6075,9.7856 0.6055,9.8256 0.6085,9.8666 C0.6095,9.8726 0.6105,9.8786 0.6115,9.8846 C0.6145,9.9186 0.6215,9.9536 0.6315,9.9896 C0.6355,10.0026 0.6395,10.0146 0.6435,10.0276 C0.6545,10.0606 0.6675,10.0946 0.6845,10.1286 C0.6905,10.1426 0.6965,10.1566 0.7035,10.1706 C0.7285,10.2186 0.7575,10.2686 0.7945,10.3216 C0.9775,10.5856 1.8335,10.8636 2.0505,10.5776" id="Fill-112"></path>
                    <path d="M9.6458,10.5888 C9.6438,10.5718 9.6418,10.5558 9.6388,10.5398 C9.6348,10.5158 9.6288,10.4918 9.6228,10.4668 C9.6198,10.4538 9.6178,10.4418 9.6148,10.4288 C9.6048,10.3908 9.5928,10.3518 9.5778,10.3128 C9.3458,9.6768 7.7058,10.1438 7.6948,10.8038 C7.6938,10.8068 7.6958,10.8098 7.6958,10.8128 C7.6958,10.8128 7.6958,10.8138 7.6958,10.8138 C7.7008,11.5208 9.4648,11.4538 9.4648,11.4538 C9.4648,11.4538 9.5588,11.3148 9.6168,11.0908 L9.6168,11.0908 L9.6168,11.0898 C9.6228,11.0658 9.6288,11.0408 9.6338,11.0148 C9.6338,11.0118 9.6348,11.0078 9.6358,11.0048 C9.6398,10.9808 9.6438,10.9568 9.6468,10.9318 C9.6478,10.9248 9.6488,10.9178 9.6498,10.9108 C9.6518,10.8888 9.6538,10.8658 9.6558,10.8428 C9.6568,10.8318 9.6568,10.8208 9.6568,10.8098 C9.6578,10.7888 9.6588,10.7688 9.6578,10.7468 C9.6578,10.7328 9.6568,10.7178 9.6558,10.7018 C9.6558,10.6838 9.6548,10.6648 9.6528,10.6458 C9.6518,10.6268 9.6488,10.6078 9.6458,10.5888" id="Fill-114"></path>
                </g>
                <path d="M3.5201167,6.07685914 C3.4481167,6.66685914 4.4711167,7.13585914 4.7481167,6.89685914 C5.0261167,6.65685914 5.5361167,5.41585914 4.9571167,5.28385914 C4.3771167,5.15085914 3.5961167,5.45285914 3.5201167,6.07685914" id="Fill-117" fill="#684237"></path>
                <path d="M3.8774167,17.0206591 C3.8834167,16.6996591 5.4844167,16.3596591 5.5724167,17.0656591 C5.6604167,17.7706591 5.4964167,18.0986591 5.0994167,18.1996591 C4.7024167,18.2996591 3.8714167,17.3796591 3.8774167,17.0206591" id="Fill-119" fill="#684237"></path>
                <path d="M16.0109167,13.2048591 C15.6899167,13.1888591 14.9459167,13.6958591 15.0399167,14.0428591 C15.1349167,14.3888591 16.4509167,14.6858591 16.6089167,14.3078591 C16.7669167,13.9298591 16.8869167,13.2488591 16.0109167,13.2048591" id="Fill-121" fill="#684237"></path>
                <path d="M2.6132167,12.8836591 C2.7962167,13.1476591 3.6532167,13.4266591 3.8692167,13.1396591 C4.0862167,12.8536591 3.5162167,11.6296591 3.1202167,11.7366591 C2.7252167,11.8426591 2.1132167,12.1636591 2.6132167,12.8836591" id="Fill-123" fill="#684237"></path>
                <path d="M12.4529167,3.27445914 C12.1319167,3.25845914 11.3879167,3.76545914 11.4819167,4.11245914 C11.5769167,4.45845914 12.8929167,4.75545914 13.0509167,4.37745914 C13.2089167,3.99945914 13.3289167,3.31845914 12.4529167,3.27445914" id="Fill-125" fill="#684237"></path>
                <path d="M9.5133167,13.3664591 C9.5253167,12.7064591 11.1643167,12.2394591 11.3973167,12.8754591 C11.6303167,13.5124591 11.2833167,14.0164591 11.2833167,14.0164591 C11.2833167,14.0164591 9.5003167,14.0844591 9.5133167,13.3664591" id="Fill-127" fill="#684237"></path>
                <path d="M18.2941167,7.44105914 C18.8501167,7.79705914 18.3881167,9.43805914 17.7241167,9.30205914 C17.0601167,9.16705914 16.8131167,8.60805914 16.8131167,8.60805914 C16.8131167,8.60805914 17.6891167,7.05305914 18.2941167,7.44105914" id="Fill-129" fill="#684237"></path>
                <path d="M5.0434167,5.31715914 C5.0444167,5.96615914 4.7744167,6.54115914 4.2784167,6.91615914 C4.4724167,6.97615914 4.6544167,6.97815914 4.7484167,6.89615914 C5.0104167,6.67015914 5.4784167,5.55315914 5.0434167,5.31715914" id="Fill-131" fill="#4D2E23"></path>
                <path d="M5.0434167,5.31715914 C5.0174167,5.30315914 4.9894167,5.29115914 4.9564167,5.28315914 C4.3774167,5.15115914 3.5964167,5.45315914 3.5204167,6.07715914 C3.4724167,6.46615914 3.9014167,6.80115914 4.2784167,6.91615914 C4.7744167,6.54115914 5.0444167,5.96615914 5.0434167,5.31715914" id="Fill-133" fill="#684237"></path>
                <path d="M4.0485167,16.8350591 C4.2635167,17.4410591 4.9205167,17.8300591 5.5475167,17.7640591 C5.5985167,17.5890591 5.6095167,17.3630591 5.5725167,17.0650591 C5.5015167,16.5000591 4.4635167,16.6060591 4.0485167,16.8350591" id="Fill-135" fill="#684237"></path>
                <path d="M4.0485167,16.8350591 C3.9445167,16.8920591 3.8785167,16.9570591 3.8775167,17.0210591 C3.8705167,17.3800591 4.7025167,18.3000591 5.0995167,18.1990591 C5.3295167,18.1410591 5.4775167,18.0030591 5.5475167,17.7640591 C4.9205167,17.8300591 4.2635167,17.4410591 4.0485167,16.8350591" id="Fill-137" fill="#4D2E23"></path>
                <path d="M16.6919167,14.0475591 C16.7739167,13.6795591 16.7089167,13.2405591 16.0109167,13.2045591 C15.6899167,13.1885591 14.9459167,13.6955591 15.0399167,14.0425591 C15.0419167,14.0475591 15.0449167,14.0515591 15.0469167,14.0565591 C15.6239167,14.2815591 16.1659167,14.2285591 16.6919167,14.0475591" id="Fill-139" fill="#684237"></path>
                <path d="M15.0472167,14.0562591 C15.1722167,14.3972591 16.4532167,14.6802591 16.6092167,14.3072591 C16.6412167,14.2312591 16.6712167,14.1412591 16.6922167,14.0472591 C16.1662167,14.2292591 15.6242167,14.2812591 15.0472167,14.0562591" id="Fill-141" fill="#4D2E23"></path>
                <path d="M2.4316167,12.3110591 C2.4086167,12.4650591 2.4536167,12.6540591 2.6136167,12.8840591 C2.7966167,13.1480591 3.6526167,13.4260591 3.8696167,13.1400591 C3.9026167,13.0960591 3.9156167,13.0270591 3.9156167,12.9470591 C3.3886167,13.0970591 2.7826167,12.7490591 2.4316167,12.3110591" id="Fill-143" fill="#4D2E23"></path>
                <path d="M3.1205167,11.7363591 C2.8505167,11.8083591 2.4815167,11.9813591 2.4315167,12.3113591 C2.7825167,12.7493591 3.3885167,13.0963591 3.9155167,12.9473591 C3.9125167,12.5063591 3.4545167,11.6463591 3.1205167,11.7363591" id="Fill-145" fill="#684237"></path>
                <path d="M12.4529167,3.27445914 C12.1739167,3.26045914 11.5779167,3.64045914 11.4869167,3.96845914 C11.9659167,4.18645914 12.5519167,4.31845914 13.0929167,4.26445914 C13.2219167,3.87845914 13.2479167,3.31445914 12.4529167,3.27445914" id="Fill-147" fill="#684237"></path>
                <path d="M11.4824167,4.11195914 C11.5764167,4.45895914 12.8934167,4.75495914 13.0514167,4.37695914 C13.0654167,4.34195914 13.0794167,4.30395914 13.0924167,4.26495914 C12.5524167,4.31795914 11.9654167,4.18595914 11.4864167,3.96795914 C11.4724167,4.01795914 11.4704167,4.06595914 11.4824167,4.11195914" id="Fill-149" fill="#4D2E23"></path>
                <path d="M11.3972167,12.8756591 C11.1642167,12.2396591 9.5252167,12.7056591 9.5132167,13.3666591 C9.5132167,13.3696591 9.5142167,13.3716591 9.5142167,13.3746591 C10.1422167,13.7076591 10.7832167,13.7216591 11.4352167,13.6526591 C11.4872167,13.4506591 11.5082167,13.1786591 11.3972167,12.8756591" id="Fill-151" fill="#684237"></path>
                <path d="M11.2834167,14.0160591 C11.2834167,14.0160591 11.3784167,13.8770591 11.4354167,13.6530591 C10.7834167,13.7220591 10.1414167,13.7080591 9.5144167,13.3750591 C9.5164167,14.0830591 11.2834167,14.0160591 11.2834167,14.0160591" id="Fill-153" fill="#4D2E23"></path>
                <path d="M16.8162167,8.61525914 C16.8482167,8.68125914 17.1042167,9.17625914 17.7242167,9.30225914 C18.0992167,9.37925914 18.4102167,8.88825914 18.5082167,8.38225914 C18.0222167,8.61425914 17.3882167,8.67725914 16.8162167,8.61525914" id="Fill-155" fill="#4D2E23"></path>
                <path d="M18.2941167,7.44105914 C17.6891167,7.05305914 16.8131167,8.60805914 16.8131167,8.60805914 C16.8131167,8.60805914 16.8141167,8.61005914 16.8161167,8.61505914 C17.3881167,8.67705914 18.0221167,8.61405914 18.5091167,8.38205914 C18.5851167,7.99305914 18.5361167,7.59605914 18.2941167,7.44105914" id="Fill-157" fill="#684237"></path>
            </g>
        </g>
    </g>
</svg>