<?xml version="1.0" encoding="UTF-8"?>
<svg width="76px" height="13px" viewBox="0 0 76 13" version="1.1" xmlns="http://www.w3.org/2000/svg" xmlns:xlink="http://www.w3.org/1999/xlink">
    <!-- Generator: Sketch 53.1 (72631) - https://sketchapp.com -->
    <title>Group 25skateboard</title>
    <desc>Created with Sketch.</desc>
    <g id="Page-1" stroke="none" stroke-width="1" fill="none" fill-rule="evenodd">
        <g id="Artboard" transform="translate(-808.000000, -1258.000000)">
            <g id="Group-25" transform="translate(808.784900, 1258.473700)">
                <path d="M72.6,3.365 L1.683,3.365 C0.757,3.365 -5.68434189e-14,2.608 -5.68434189e-14,1.682 L-5.68434189e-14,1.682 C-5.68434189e-14,0.757 0.757,-1.10134124e-13 1.683,-1.10134124e-13 L72.6,-1.10134124e-13 C73.525,-1.10134124e-13 74.283,0.757 74.283,1.682 L74.283,1.682 C74.283,2.608 73.525,3.365 72.6,3.365" id="Fill-187" fill="#F9A91C"></path>
                <path d="M8.6326,6.449 C8.6326,3.172 11.2896,0.515 14.5666,0.515 C17.8436,0.515 20.5006,3.172 20.5006,6.449 C20.5006,9.726 17.8436,12.383 14.5666,12.383 C11.2896,12.383 8.6326,9.726 8.6326,6.449" id="Fill-189" fill="#515A60"></path>
                <path d="M9.8,6.449 C9.8,3.816 11.934,1.682 14.567,1.682 C17.199,1.682 19.333,3.816 19.333,6.449 C19.333,9.082 17.199,11.216 14.567,11.216 C11.934,11.216 9.8,9.082 9.8,6.449" id="Fill-191" fill="#FFFFFF"></path>
                <path d="M10.9674,6.449 C10.9674,4.461 12.5794,2.85 14.5664,2.85 C16.5544,2.85 18.1664,4.461 18.1664,6.449 C18.1664,8.437 16.5544,10.048 14.5664,10.048 C12.5794,10.048 10.9674,8.437 10.9674,6.449" id="Fill-193" fill="#875555"></path>
                <path d="M53.4145,6.449 C53.4145,3.172 56.0715,0.515 59.3485,0.515 C62.6255,0.515 65.2825,3.172 65.2825,6.449 C65.2825,9.726 62.6255,12.383 59.3485,12.383 C56.0715,12.383 53.4145,9.726 53.4145,6.449" id="Fill-195" fill="#515A60"></path>
                <path d="M54.5819,6.449 C54.5819,3.816 56.7159,1.682 59.3489,1.682 C61.9809,1.682 64.1149,3.816 64.1149,6.449 C64.1149,9.082 61.9809,11.216 59.3489,11.216 C56.7159,11.216 54.5819,9.082 54.5819,6.449" id="Fill-197" fill="#FFFFFF"></path>
                <path d="M55.7492,6.449 C55.7492,4.461 57.3602,2.85 59.3482,2.85 C61.3362,2.85 62.9482,4.461 62.9482,6.449 C62.9482,8.437 61.3362,10.048 59.3482,10.048 C57.3602,10.048 55.7492,8.437 55.7492,6.449" id="Fill-199" fill="#875555"></path>
            </g>
        </g>
    </g>
</svg>