<?xml version="1.0" encoding="UTF-8"?>
<svg width="153px" height="124px" viewBox="0 0 153 124" version="1.1" xmlns="http://www.w3.org/2000/svg" xmlns:xlink="http://www.w3.org/1999/xlink">
    <!-- Generator: Sketch 53.1 (72631) - https://sketchapp.com -->
    <title>Group 80sticker17</title>
    <desc>Created with Sketch.</desc>
    <g id="Page-1" stroke="none" stroke-width="1" fill="none" fill-rule="evenodd">
        <g id="Group-80" transform="translate(0.547868, 0.866242)">
            <path d="M23.7128324,94.5939584 C24.0188324,95.1909584 24.3358324,95.8069584 24.6298324,96.4389584 C25.0868324,97.4279584 25.5638324,98.4429584 26.0868324,99.4909584 C26.1138324,99.5449584 26.1628324,99.6439584 26.1918324,99.6969584 C26.3378324,99.9919584 26.4958324,100.309958 26.8618324,100.899958 C27.0248324,101.155958 27.3188324,101.602958 27.6628324,102.015958 L27.7198324,102.086958 C28.0398324,102.482958 28.4088324,102.834958 28.8178324,103.137958 C29.1268324,103.364958 29.6688324,103.765958 30.4188324,104.080958 C31.5808324,104.574958 32.8898324,104.762958 34.1168324,104.612958 C34.3128324,104.587958 34.5118324,104.555958 34.7088324,104.516958 C35.3068324,104.395958 35.8858324,104.201958 36.4328324,103.943958 C36.4818324,103.919958 36.5278324,103.895958 36.5768324,103.871958 C37.0038324,103.654958 37.3028324,103.453958 37.5468324,103.281958 C37.5908324,103.250958 37.6348324,103.219958 37.6768324,103.188958 C38.1788324,102.813958 38.4968324,102.489958 38.7218324,102.242958 C38.8408324,102.115958 38.9538324,101.985958 39.0608324,101.847958 C39.7428324,100.978958 40.0908324,100.269958 40.3438324,99.6869584 C40.3768324,99.6169584 40.4078324,99.5469584 40.4388324,99.4769584 C40.6758324,98.9209584 40.8388324,98.4239584 40.9358324,98.1129584 C41.3798324,96.7249584 41.6518324,95.4109584 41.9028324,94.1279584 L42.2208324,92.4479584 C42.2208324,92.4479584 42.3108324,91.9129584 42.3208324,91.8469584 C42.3628324,91.5449584 42.3898324,91.1809584 42.4088324,90.8099584 C42.4128324,90.7489584 42.4148324,90.6889584 42.4158324,90.6289584 C42.4288324,90.0419584 42.3838324,89.5819584 42.3498324,89.2499584 C42.3428324,89.1339584 42.3318324,89.0189584 42.3188324,88.9039584 L41.9598324,85.9009584 C41.8198324,84.6769584 41.5768324,83.4639584 41.2448324,82.3159584 C41.0618324,81.6709584 40.8698324,81.0659584 40.6768324,80.5049584 C43.7078324,77.5909584 46.6568324,74.6279584 49.4588324,71.6789584 C51.2228324,69.8639584 52.8998324,68.0479584 54.4548324,66.3409584 C54.4918324,66.4499584 54.5278324,66.5599584 54.5638324,66.6689584 C55.2058324,68.6269584 55.9708324,70.7179584 56.8188324,72.8359584 C57.0448324,73.4129584 57.2778324,73.9979584 57.5138324,74.5919584 C58.1038324,76.0749584 58.7138324,77.6089584 59.2638324,79.1559584 L60.2828324,82.0139584 L59.4528324,81.9419584 C59.2248324,81.9209584 58.9948324,81.9149584 58.7668324,81.9209584 L58.1548324,81.9379584 C58.0938324,81.9389584 57.3498324,81.9799584 57.3498324,81.9799584 C56.9898324,81.9979584 56.6288324,82.0439584 56.2748324,82.1159584 C53.7048324,82.6369584 51.6978324,84.4019584 50.7978324,86.6979584 C48.3428324,87.8849584 46.6698324,90.3179584 46.5688324,93.1439584 L46.5468324,93.7899584 C46.5388324,93.9819584 46.5388324,94.1749584 46.5488324,94.3649584 L46.5788324,94.9229584 C46.5998324,95.2419584 46.6248324,95.5769584 46.6648324,95.8879584 C46.6758324,95.9719584 46.7298324,96.2879584 46.7298324,96.2879584 C46.8138324,96.7819584 46.9168324,97.3879584 47.1108324,98.0269584 L47.2398324,98.4809584 C47.5408324,99.5399584 48.0678324,100.482958 48.7468324,101.278958 C48.2448324,101.467958 47.7628324,101.707958 47.3108324,102.005958 L44.8018324,103.656958 C44.1418324,104.090958 43.5758324,104.616958 43.1058324,105.203958 C42.7628324,105.224958 42.4198324,105.262958 42.0748324,105.332958 C41.6808324,105.411958 41.2888324,105.524958 40.9118324,105.669958 L38.1038324,106.739958 C37.4258324,106.996958 36.8088324,107.351958 36.2588324,107.776958 C35.6058324,107.653958 34.9328324,107.610958 34.2518324,107.669958 L31.2578324,107.927958 C30.9808324,107.950958 30.7098324,107.990958 30.4428324,108.043958 C30.0868324,108.115958 29.7418324,108.221958 29.4078324,108.342958 C28.8378324,108.028958 28.2208324,107.778958 27.5558324,107.623958 L24.6288324,106.941958 C24.0028324,106.795958 23.3708324,106.744958 22.7378324,106.769958 C22.3718324,106.379958 21.9648324,106.027958 21.5148324,105.729958 L20.5378324,105.082958 C20.4798324,105.030958 19.7188324,104.383958 19.7188324,104.383958 C19.6028324,104.285958 19.4788324,104.200958 19.3598324,104.112958 C19.3548324,104.040958 19.3538324,103.971958 19.3468324,103.899958 L19.2348324,102.863958 L19.2708324,101.780958 C19.2838324,101.322958 19.2538324,100.875958 19.1848324,100.441958 C19.5358324,100.043958 19.8448324,99.6109584 20.0988324,99.1339584 C20.1048324,99.1229584 20.9528324,97.5169584 21.0058324,97.4209584 C21.0258324,97.3909584 21.3298324,96.9149584 21.3298324,96.9149584 C21.6768324,96.3709584 21.9328324,95.7969584 22.1088324,95.2099584 C22.2088324,95.1709584 22.3078324,95.1399584 22.4078324,95.0969584 C22.8768324,94.9029584 23.2838324,94.6999584 23.6618324,94.4969584 C23.6798324,94.5299584 23.6958324,94.5619584 23.7128324,94.5939584 M71.8468324,90.3879584 C71.9988324,90.3159584 72.1498324,90.2379584 72.2948324,90.1539584 C72.7788324,89.8749584 73.4548324,89.4219584 74.0598324,88.7859584 C74.0648324,88.7809584 74.0668324,88.7779584 74.0708324,88.7729584 C73.8508324,89.3189584 73.6648324,89.7779584 73.6588324,89.7919584 C73.5128324,90.1709584 73.4088324,90.5539584 73.3278324,90.9389584 C72.9358324,91.1769584 72.5538324,91.4379584 72.2058324,91.7489584 L71.3448324,92.5149584 C71.3448324,92.5149584 70.3098324,93.2819584 70.2848324,93.3019584 C70.2598324,93.3209584 70.2378324,93.3419584 70.2138324,93.3629584 C70.0758324,92.5459584 69.7998324,91.7639584 69.4108324,91.0409584 C69.6618324,91.0189584 69.9128324,90.9969584 70.1618324,90.9469584 C70.7328324,90.8299584 71.2988324,90.6419584 71.8468324,90.3879584 M135.971832,42.0339584 L135.553832,43.4969584 C135.316832,44.3409584 135.240832,45.1909584 135.303832,46.0179584 C135.299832,46.0229584 135.293832,46.0259584 135.289832,46.0309584 C135.231832,45.7629584 135.176832,45.5009584 135.115832,45.2299584 C134.703832,43.3739584 134.260832,41.3909584 133.734832,39.3409584 C133.524832,38.5109584 133.176832,37.7459584 132.729832,37.0639584 C133.404832,36.4019584 134.168832,35.5319584 134.803832,34.3219584 C134.941832,34.0679584 135.049832,33.7899584 135.166832,33.5189584 C135.231832,33.5929584 135.299832,33.6689584 135.352832,33.7269584 C135.568832,33.9559584 135.799832,34.1669584 136.037832,34.3629584 C136.070832,34.7749584 136.127832,35.1899584 136.231832,35.6029584 C136.231832,35.6029584 136.477832,36.5889584 136.504832,36.7039584 L136.666832,37.8409584 C136.733832,38.3019584 136.844832,38.7429584 136.986832,39.1699584 C136.758832,39.5989584 136.557832,40.0449584 136.416832,40.5219584 C136.408832,40.5499584 135.971832,42.0339584 135.971832,42.0339584 M150.910832,32.5189584 C150.889832,32.4229584 150.840832,32.2379584 150.840832,32.2379584 C150.820832,32.1339584 150.795832,32.0249584 150.768832,31.9189584 C150.342832,30.2539584 149.389832,28.8609584 148.131832,27.8739584 C147.975832,26.2899584 147.318832,24.7399584 146.141832,23.4979584 L144.984832,22.2799584 C144.877832,22.1649584 144.768832,22.0579584 144.650832,21.9519584 C144.018832,21.3809584 143.373832,20.8369584 143.373832,20.8369584 C143.350832,20.8169584 143.316832,20.7899584 143.287832,20.7669584 C142.150832,19.8289584 140.791832,19.2779584 139.369832,19.1319584 C138.518832,17.9369584 137.320832,17.0369584 135.906832,16.5599584 L134.459832,16.0709584 C133.795832,15.8379584 133.215832,15.6729584 132.690832,15.5669584 L132.313832,15.4819584 C132.211832,15.4589584 132.109832,15.4479584 132.008832,15.4289584 C132.268832,12.8309584 131.084832,10.1959584 128.766832,8.72495839 C128.588832,8.60495839 128.389832,8.48195839 128.162832,8.34495839 C127.537832,7.97595839 126.899832,7.65895839 126.215832,7.38195839 C126.004832,7.29795839 125.795832,7.22795839 125.586832,7.15395839 C125.543832,6.87195839 125.490832,6.59295839 125.424832,6.31595839 C125.236832,5.47595839 124.945832,4.67695839 124.555832,3.93495839 C124.277832,3.40095839 124.086832,3.12095839 124.080832,3.11095839 C123.289832,1.89595839 122.156832,0.978958388 120.783832,0.448958388 C119.570832,-0.012041612 118.258832,-0.121041612 116.988832,0.135958388 C115.498832,0.437958388 114.191832,1.21195839 113.223832,2.30795839 C113.121832,2.31695839 113.004832,2.32795839 112.867832,2.33295839 C112.816832,2.33495839 112.588832,2.34695839 112.588832,2.34695839 C112.285832,2.36395839 111.967832,2.38495839 111.643832,2.42295839 L110.834832,2.50295839 C110.129832,2.57295839 109.395832,2.67295839 108.606832,2.78995839 C108.065832,2.87395839 107.524832,2.97195839 107.002832,3.07695839 C106.010832,3.27795839 105.049832,3.51595839 104.250832,3.75895839 C102.934832,4.14995839 102.014832,4.57195839 101.727832,4.70795839 C100.274832,5.41795839 99.1418324,6.60895839 98.4888324,8.05795839 C98.3638324,8.07695839 98.2368324,8.08795839 98.1118324,8.11295839 C97.4268324,8.25295839 96.7428324,8.46395839 96.0808324,8.74395839 C96.0808324,8.74395839 95.9618324,8.79195839 95.9538324,8.79495839 C95.7408324,8.87995839 95.5328324,8.97795839 95.3328324,9.08795839 L95.1708324,9.17495839 C95.0238324,9.25595839 94.8818324,9.34095839 94.7428324,9.43095839 L94.6288324,9.50595839 C94.3848324,9.66295839 94.0468324,9.89195839 93.6208324,10.2649584 C93.1408324,10.6839584 92.7518324,11.0779584 92.4398324,11.4719584 C92.3978324,11.5229584 92.0558324,11.9799584 92.0558324,11.9799584 C91.9898324,12.0679584 91.9278324,12.1559584 91.8668324,12.2469584 C91.5328324,12.7469584 91.2628324,13.2389584 91.0318324,13.7099584 C91.0648324,12.8879584 91.1088324,11.7749584 91.1088324,11.7749584 L91.1608324,10.1439584 C91.2678324,6.78095839 88.9678324,3.78095839 85.6848324,3.00895839 C84.6848324,2.77595839 83.6678324,2.76095839 82.6618324,2.96395839 C79.9518324,3.51295839 77.7908324,5.60795839 77.1578324,8.31195839 C77.1578324,8.31195839 76.9858324,9.03295839 76.7838324,10.1909584 C76.7148324,10.5479584 76.6488324,10.9629584 76.5798324,11.4059584 C74.8588324,10.4739584 72.8958324,10.2219584 70.7328324,10.6589584 C70.7328324,10.6589584 70.4248324,10.7269584 70.3858324,10.7359584 C68.2468324,11.2529584 66.0208324,12.3609584 62.9608324,14.4299584 C60.6508324,15.9759584 58.0628324,17.9989584 55.0418324,20.6179584 C54.0938324,21.4389584 53.1258324,22.3199584 52.1468324,23.2489584 C50.0458324,23.0229584 46.6748324,22.7319584 42.4238324,22.6199584 C38.1628324,22.5069584 33.3038324,22.7719584 28.6108324,23.0559584 L26.7668324,23.1929584 C26.6958324,23.1979584 26.6238324,23.2049584 26.5518324,23.2119584 L24.6568324,23.4229584 C24.5768324,23.4329584 24.4958324,23.4429584 24.4138324,23.4549584 C23.8788324,23.5379584 23.3518324,23.6219584 22.7978324,23.7339584 C22.5018324,23.7939584 22.1978324,23.8619584 21.8838324,23.9399584 C21.7328324,23.9779584 21.5078324,24.0449584 21.3588324,24.0949584 C20.8568324,24.2609584 20.3418324,24.4389584 19.8648324,24.6399584 C19.6808324,24.7179584 19.5008324,24.8039584 19.3258324,24.8999584 C19.3258324,24.8999584 18.4028324,25.4019584 18.3678324,25.4209584 C15.8218324,26.8719584 13.5228324,28.3219584 11.3008324,29.8799584 C10.1878324,30.6729584 9.00083239,31.5309584 7.78483239,32.5499584 C7.16483239,33.0739584 6.49483239,33.6629584 5.79883239,34.4049584 C5.73583239,34.4709584 5.63083239,34.5889584 5.56983239,34.6569584 C5.25383239,35.0089584 4.59683239,35.7409584 4.01183239,36.9649584 C3.91383239,37.1669584 3.82783239,37.3759584 3.75483239,37.5899584 C3.53383239,38.1889584 3.25783239,39.1199584 3.30383239,40.4139584 C3.33583239,41.6379584 3.70683239,42.8509584 4.38683239,43.9409584 C4.52283239,44.1589584 4.66583239,44.3639584 4.81683239,44.5599584 L4.82583239,44.5519584 C5.34483239,45.2199584 5.99983239,45.8079584 6.75083239,46.2509584 L6.74683239,46.2569584 C7.81783239,46.9069584 9.13483239,47.1969584 9.38883239,47.2479584 C9.46683239,47.2629584 9.54383239,47.2789584 9.62283239,47.2899584 C10.8638324,47.4909584 11.9278324,47.5619584 12.8648324,47.6239584 C13.2138324,47.6459584 13.5608324,47.6699584 13.9118324,47.6989584 C13.9648324,47.7049584 17.7348324,47.9409584 17.7348324,47.9409584 C19.3868324,48.0419584 21.0408324,48.2059584 22.6438324,48.3659584 L24.4138324,48.5379584 C26.7268324,48.7729584 28.9418324,48.9289584 30.9868324,49.0049584 C31.2448324,49.0139584 31.5008324,49.0229584 31.7538324,49.0319584 C30.4438324,51.0729584 29.1968324,53.0529584 28.0498324,54.8879584 C25.7698324,58.5159584 23.6888324,61.9309584 21.7468324,65.2349584 C21.0758324,65.1659584 20.3338324,65.1119584 19.5268324,65.0869584 C18.3758324,65.0579584 17.1918324,65.1129584 15.9838324,65.2509584 L15.4958324,65.3079584 C14.6408324,65.4069584 13.6698324,65.5199584 12.5648324,65.7159584 C12.5208324,65.7249584 12.1558324,65.7979584 12.1508324,65.7979584 C11.8018324,65.8689584 11.3718324,65.9659584 10.8368324,66.1389584 C10.7678324,66.1609584 10.6978324,66.1849584 10.6298324,66.2089584 C10.2598324,66.3439584 9.86183239,66.4939584 9.43083239,66.7109584 C9.35883239,66.7469584 8.79283239,67.0599584 8.79283239,67.0599584 C8.22783239,67.3799584 7.68383239,67.7119584 7.12983239,68.0619584 C6.22483239,68.6359584 5.02783239,69.4249584 3.75783239,70.4679584 C3.45083239,70.7249584 3.14583239,70.9889584 2.83283239,71.2829584 C2.77483239,71.3399584 2.69083239,71.4189584 2.63383239,71.4789584 C2.17883239,71.9169584 1.68183239,72.4449584 1.13283239,73.3139584 C1.05383239,73.4389584 0.979832389,73.5679584 0.908832389,73.6979584 C0.766832389,73.9559584 0.584832389,74.3179584 0.401832389,74.8449584 C0.390832389,74.8779584 0.377832389,74.9189584 0.366832389,74.9519584 C0.282832389,75.2059584 0.178832389,75.5559584 0.0978323889,76.0309584 C0.0858323889,76.0949584 0.0768323889,76.1599584 0.0668323889,76.2239584 C-0.0381676111,77.0039584 -0.0181676111,77.7899584 0.117832389,78.5249584 C0.333832389,79.7099584 0.886832389,80.8779584 1.67483239,81.8119584 C1.87783239,82.0539584 2.10283239,82.2809584 2.34183239,82.4879584 C2.52383239,82.6529584 2.71983239,82.8159584 2.93183239,82.9759584 C3.48483239,83.3939584 4.10883239,83.7099584 4.77083239,83.9169584 C4.78983239,83.9219584 4.96683239,83.9759584 4.96683239,83.9759584 C5.21983239,84.0489584 5.65383239,84.1689584 5.94283239,84.2299584 C6.64183239,84.3829584 7.13383239,84.4269584 7.38583239,84.4479584 C7.47983239,84.4619584 7.57183239,84.4719584 7.66783239,84.4819584 C8.70583239,84.5729584 9.63483239,84.6599584 10.5618324,84.7959584 C10.9028324,84.8409584 11.2958324,84.9279584 11.7168324,85.0289584 C11.6038324,85.4269584 11.4818324,85.9199584 11.3828324,86.4779584 C11.2908324,87.0069584 11.2588324,87.5299584 11.2528324,88.0559584 C10.7918324,88.4419584 10.3778324,88.8859584 10.0278324,89.3889584 L9.80783239,89.7079584 C9.47883239,90.1569584 9.20383239,90.6239584 8.93883239,91.0839584 L8.14583239,92.4469584 C8.14583239,92.4469584 8.05883239,92.5989584 8.01783239,92.6759584 C7.33483239,93.9599584 7.08983239,95.3919584 7.28283239,96.8049584 C6.19683239,97.9579584 5.49283239,99.4659584 5.38983239,101.125958 L5.29583239,102.625958 C5.27883239,102.891958 5.27983239,103.156958 5.29883239,103.422958 L5.41783239,105.111958 C5.42183239,105.160958 5.43783239,105.340958 5.44083239,105.370958 C5.63983239,107.228958 6.54983239,108.896958 8.00483239,110.068958 C8.02283239,110.082958 8.04083239,110.093958 8.05783239,110.108958 C8.05983239,110.115958 8.05783239,110.124958 8.05883239,110.133958 C8.15283239,112.022958 8.98083239,113.760958 10.3798324,115.024958 C10.3798324,115.024958 11.1568324,115.727958 11.1788324,115.744958 C11.3858324,115.938958 11.6048324,116.128958 11.8568324,116.324958 C11.9138324,116.369958 11.9738324,116.412958 12.0328324,116.455958 L13.4018324,117.436958 C13.4018324,117.436958 13.5408324,117.533958 13.6108324,117.579958 C14.8328324,118.391958 16.2428324,118.792958 17.6788324,118.762958 C18.5988324,119.780958 19.8168324,120.546958 21.2428324,120.905958 L24.1518324,121.637958 C24.1578324,121.639958 24.2438324,121.660958 24.2818324,121.669958 C25.2968324,121.905958 26.3278324,121.920958 27.3488324,121.714958 C27.6598324,121.651958 27.9618324,121.562958 28.2568324,121.459958 C29.4968324,122.177958 30.9198324,122.511958 32.3788324,122.411958 C32.3788324,122.411958 35.4638324,122.199958 35.5048324,122.197958 C35.7828324,122.172958 36.0588324,122.133958 36.3258324,122.078958 C37.4118324,121.860958 38.3948324,121.403958 39.2318324,120.777958 C40.1828324,120.980958 41.1808324,121.000958 42.1768324,120.799958 C42.5278324,120.727958 42.8768324,120.630958 43.2148324,120.508958 C43.2148324,120.508958 46.1178324,119.460958 46.1568324,119.445958 C47.3778324,118.981958 48.4248324,118.215958 49.2308324,117.229958 C49.5988324,117.209958 49.9678324,117.166958 50.3388324,117.090958 C51.2538324,116.905958 52.1148324,116.553958 52.9008324,116.043958 C52.9008324,116.043958 55.4778324,114.369958 55.5098324,114.348958 C56.5758324,113.633958 57.4148324,112.672958 57.9828324,111.554958 C59.1008324,111.250958 60.1318324,110.705958 60.9888324,109.932958 C61.3898324,109.917958 61.7868324,109.869958 62.1818324,109.789958 L62.1828324,109.789958 C62.5728324,109.711958 62.9488324,109.590958 63.3158324,109.452958 C64.7298324,110.133958 66.3668324,110.376958 68.0328324,110.039958 L68.0338324,110.039958 C68.0858324,110.029958 68.9818324,109.822958 68.9818324,109.822958 C69.2438324,109.762958 69.5378324,109.696958 69.8408324,109.617958 C69.9538324,109.588958 70.0668324,109.556958 70.1778324,109.520958 L71.7688324,109.010958 C73.1988324,108.553958 74.3938324,107.696958 75.2738324,106.605958 C75.5978324,106.584958 75.9208324,106.547958 76.2428324,106.481958 C77.3148324,106.265958 78.3438324,105.802958 79.2138324,105.151958 L80.4188324,104.250958 C80.5568324,104.147958 80.6908324,104.036958 80.8198324,103.921958 L82.0808324,102.798958 C83.3118324,101.697958 84.0818324,100.276958 84.3908324,98.7719584 C85.7548324,97.9459584 86.8358324,96.6969584 87.4378324,95.1629584 L88.5398324,92.3599584 C89.1028324,90.9269584 89.1788324,89.4169584 88.8528324,88.0129584 C89.6128324,86.9359584 90.1068324,85.6609584 90.1968324,84.2799584 L90.3928324,81.2879584 C90.4768324,79.9999584 90.2088324,78.7649584 89.6798324,77.6699584 C90.1218324,76.6409584 90.3308324,75.4979584 90.2488324,74.3159584 C90.3648324,74.6679584 90.4798324,75.0079584 90.5898324,75.3139584 C90.9848324,76.4799584 91.2428324,77.1369584 91.2498324,77.1559584 C92.4258324,80.1489584 95.4678324,81.9189584 98.6498324,81.4599584 C98.7628324,81.4449584 98.9248324,81.4169584 99.0338324,81.3959584 C101.459832,80.9049584 103.338832,79.1809584 104.137832,76.9969584 C104.270832,77.0849584 104.393832,77.1839584 104.529832,77.2609584 L104.801832,77.4319584 C105.131832,77.6439584 105.600832,77.9219584 106.283832,78.1769584 C106.861832,78.3999584 107.733832,78.7359584 108.791832,78.8659584 C108.846832,78.8719584 109.108832,78.8989584 109.108832,78.8989584 C109.473832,78.9369584 110.024832,78.9929584 110.654832,78.9749584 C111.309832,78.9559584 111.963832,78.8819584 112.604832,78.7509584 C114.283832,78.4109584 115.559832,77.7569584 116.244832,77.4049584 C116.330832,77.3609584 116.412832,77.3159584 116.496832,77.2679584 C116.729832,77.1339584 116.945832,76.9969584 117.162832,76.8629584 C117.160832,77.2409584 117.164832,77.6329584 117.174832,78.0499584 C117.234832,80.3329584 117.451832,82.6219584 117.824832,84.8809584 C118.068832,86.3119584 118.318832,87.4369584 118.633832,88.5309584 C118.647832,88.5749584 118.707832,88.7679584 118.707832,88.7679584 C119.070832,89.9229584 119.566832,91.5049584 120.717832,93.2439584 C121.203832,93.9859584 121.783832,94.6589584 122.440832,95.2479584 C122.475832,95.2789584 122.510832,95.3099584 122.543832,95.3389584 C123.000832,95.7289584 124.361832,96.8939584 126.527832,97.3309584 C127.424832,97.5309584 128.359832,97.5639584 129.381832,97.4369584 C129.592832,97.4109584 129.795832,97.3779584 129.988832,97.3389584 C130.733832,97.1889584 131.295832,96.9559584 131.588832,96.8329584 C131.787832,96.7569584 131.984832,96.6689584 132.172832,96.5709584 C133.121832,96.0789584 133.965832,95.4559584 134.686832,94.7119584 C135.613832,93.7769584 136.199832,92.8539584 136.695832,91.9929584 C136.742832,91.9129584 136.787832,91.8319584 136.830832,91.7499584 L137.188832,91.0559584 C137.262832,90.9129584 137.330832,90.7689584 137.391832,90.6199584 C137.391832,90.6199584 137.748832,89.7639584 137.768832,89.7179584 C138.889832,86.8449584 139.215832,84.1529584 139.389832,81.8549584 C139.559832,79.3859584 139.518832,77.0519584 139.461832,75.2939584 C139.402832,73.4069584 139.246832,71.5889584 139.096832,69.8319584 L139.027832,69.0619584 C138.834832,66.9139584 138.561832,64.7809584 138.311832,62.9389584 C138.242832,62.4579584 138.172832,61.9789584 138.100832,61.4989584 C139.045832,60.6819584 140.137832,59.9539584 141.149832,59.3109584 C142.047832,58.7359584 142.762832,57.9809584 143.287832,57.1219584 C144.197832,56.5899584 144.986832,55.8549584 145.565832,54.9619584 L145.797832,54.6069584 C146.018832,54.2629584 146.207832,53.9039584 146.342832,53.5769584 C146.666832,52.8099584 146.838832,52.0089584 146.873832,51.1999584 C147.904832,50.4179584 148.727832,49.3679584 149.223832,48.1179584 C149.233832,48.0949584 149.813832,46.5889584 149.813832,46.5889584 L150.369832,45.1029584 C150.408832,44.9969584 150.473832,44.7979584 150.506832,44.6909584 C150.918832,43.2929584 150.887832,41.8719584 150.508832,40.5699584 C151.326832,39.1729584 151.703832,37.5089584 151.477832,35.7979584 L151.246832,34.0979584 C151.223832,33.9249584 151.193832,33.7549584 151.156832,33.5859584 C151.068832,33.1949584 150.979832,32.8079584 150.910832,32.5189584" id="Fill-245" fill="#FFFFFF"></path>
            <path d="M24.8222324,72.6759584 L25.7382324,72.7669584 C24.3712324,75.1339584 23.1312324,77.3739584 22.0772324,79.3839584 C19.9352324,79.1339584 7.44523239,77.7139584 7.04723239,77.3049584 C6.61223239,76.8709584 11.0222324,74.0619584 12.7532324,73.1809584 C14.4712324,72.3019584 24.8222324,72.6759584 24.8222324,72.6759584" id="Fill-247" fill="#A9A9A7"></path>
            <path d="M32.7587324,79.0793584 C32.7587324,79.0793584 35.9847324,88.9133584 35.6137324,90.8153584 C35.2447324,92.7163584 33.7617324,97.7413584 33.2227324,97.4423584 C32.7167324,97.1673584 27.6887324,85.0223584 27.0307324,83.4403584 C28.6947324,82.0853584 30.5377324,80.5073584 32.4807324,78.7573584 L32.7587324,79.0793584 Z" id="Fill-249" fill="#A9A9A7"></path>
            <path d="M68.0175324,37.6300584 C68.0175324,37.6300584 74.6845324,65.4300584 73.8755324,69.6030584 C73.0695324,73.7760584 69.8105324,84.8010584 68.6265324,84.1440584 C67.4445324,83.4940584 57.3825324,52.2300584 57.3825324,52.2300584 L57.2745324,52.1500584 C60.9675324,47.2610584 64.6075324,42.1550584 67.5845324,37.3600584 L68.0175324,37.6300584 Z" id="Fill-251" fill="#BCBCBC"></path>
            <path d="M55.0517324,30.4298584 L55.2537324,30.6228584 C51.5917324,34.4548584 47.9477324,38.7338584 44.8847324,42.9038584 L44.0567324,42.2958584 C44.0567324,42.2958584 11.2417324,41.2768584 10.2827324,40.3158584 C9.32273239,39.3588584 19.0217324,33.1818584 22.8037324,31.2528584 C26.5967324,29.3218584 55.0517324,30.4298584 55.0517324,30.4298584" id="Fill-253" fill="#BCBCBC"></path>
            <path d="M27.0312324,83.4406584 C22.3032324,87.3066584 18.9492324,89.3816584 18.4562324,88.5536584 C18.0052324,87.7886584 19.4882324,84.2846584 22.0772324,79.3836584 C23.1312324,77.3746584 24.3712324,75.1336584 25.7382324,72.7666584 C31.1782324,63.3086584 38.5942324,51.6556584 44.3252324,43.6706584 C44.5082324,43.4186584 44.6902324,43.1586584 44.8852324,42.9036584 C47.9472324,38.7336584 51.5922324,34.4556584 55.2542324,30.6236584 C63.7482324,21.7296584 72.3332324,15.1986584 73.8632324,17.7656584 C76.0262324,21.3976584 72.8322324,28.9016584 67.5852324,37.3606584 C64.6072324,42.1556584 60.9682324,47.2606584 57.2742324,52.1496584 C57.1212324,52.3536584 56.9672324,52.5476584 56.8142324,52.7536584 C49.7972324,61.9876584 40.2832324,71.7396584 32.4802324,78.7566584 C30.5382324,80.5066584 28.6942324,82.0856584 27.0312324,83.4406584" id="Fill-255" fill="#E3E3E3"></path>
            <path d="M85.1640324,9.95625839 C85.0930324,13.1152584 84.8900324,16.2892584 84.7940324,19.4382584 C84.7010324,22.5862584 84.4830324,25.7412584 84.7510324,28.8342584 C84.8620324,30.3722584 85.1140324,31.9132584 85.6340324,33.2712584 C85.8630324,33.9622584 86.1860324,34.5702584 86.4900324,35.1112584 C86.8210324,35.6222584 87.1540324,35.9722584 87.4680324,36.1272584 C87.7810324,36.2942584 88.3160324,36.3262584 88.9310324,36.1962584 C89.5420324,36.0702584 90.2100324,35.8032584 90.8700324,35.5012584 C92.1830324,34.8772584 93.5040324,34.0072584 94.7240324,33.1252584 L94.7670324,33.0952584 C95.1630324,32.8082584 95.7190324,32.8972584 96.0060324,33.2942584 C96.2550324,33.6402584 96.2200324,34.1042584 95.9460324,34.4082584 C94.8060324,35.6772584 93.5730324,36.7712584 92.0910324,37.7042584 C91.3520324,38.1692584 90.5650324,38.6012584 89.6200324,38.8622584 C88.7000324,39.1232584 87.5580324,39.2782584 86.3800324,38.8422584 C85.1980324,38.4012584 84.4070324,37.4982584 83.9090324,36.6562584 C83.4330324,35.8012584 83.1420324,34.9242584 82.9310324,34.0782584 C82.5300324,32.3692584 82.3410324,30.7252584 82.1360324,29.0852584 C81.8100324,25.8072584 81.6300324,22.5502584 81.8020324,19.3102584 C81.9870324,16.0712584 82.3020324,12.8652584 83.0010324,9.67525839 C83.1300324,9.08425839 83.7140324,8.71025839 84.3040324,8.84025839 C84.8240324,8.95425839 85.1770324,9.42025839 85.1650324,9.93325839 L85.1640324,9.95625839 Z" id="Fill-257" fill="#000000"></path>
            <path d="M94.2373324,26.1198584 C95.0573324,26.2468584 96.1103324,26.2298584 96.9523324,25.9798584 C97.8293324,25.7658584 98.5913324,25.3228584 99.2073324,24.7048584 C99.8343324,24.0968584 100.330332,23.3308584 100.704332,22.4288584 C101.090332,21.5458584 101.313332,20.6208584 101.385332,19.7358584 C101.455332,18.8538584 101.287332,17.9938584 100.952332,17.4238584 C100.772332,17.1638584 100.591332,16.9798584 100.408332,16.8748584 C100.221332,16.7948584 100.008332,16.7798584 99.7213324,16.8208584 C99.3073324,16.9818584 99.4033324,16.8668584 99.1433324,17.1708584 C98.9363324,17.4428584 98.7273324,17.8548584 98.5553324,18.2958584 C98.2103324,19.1938584 98.0053324,20.2198584 97.8603324,21.2468584 C97.5713324,23.3088584 97.6143324,25.4758584 98.0423324,27.4828584 C98.2433324,28.4858584 98.5553324,29.4468584 98.9343324,30.2828584 C99.3133324,31.1218584 99.8173324,31.7848584 100.323332,32.0488584 C100.592332,32.1988584 100.815332,32.2568584 101.238332,32.2358584 L101.887332,32.1998584 L102.504332,32.0528584 C103.303332,31.8038584 104.045332,31.3408584 104.693332,30.6768584 C105.977332,29.3418584 106.832332,27.2978584 107.311332,25.3428584 L107.331332,25.2598584 C107.447332,24.7858584 107.925332,24.4948584 108.400332,24.6108584 C108.831332,24.7168584 109.110332,25.1218584 109.070332,25.5508584 C108.850332,27.9458584 108.207332,30.2718584 106.594332,32.3278584 C105.796332,33.3398584 104.676332,34.2098584 103.372332,34.6658584 C103.045332,34.7658584 102.714332,34.8688584 102.383332,34.9528584 L101.376332,35.0718584 C100.700332,35.1518584 99.7803324,35.0478584 99.0603324,34.6868584 C97.5463324,33.9798584 96.7043324,32.6828584 96.1943324,31.5238584 C95.6693324,30.3318584 95.4273324,29.1258584 95.2603324,27.9438584 C94.9773324,25.5708584 95.0033324,23.2538584 95.2533324,20.9168584 C95.3943324,19.7468584 95.6163324,18.5828584 96.0003324,17.3848584 C96.2083324,16.7848584 96.4543324,16.1748584 96.8853324,15.5388584 C97.1103324,15.2238584 97.3793324,14.8898584 97.8153324,14.5918584 C97.9263324,14.5178584 98.0413324,14.4478584 98.1573324,14.3828584 C98.2603324,14.3308584 98.3423324,14.3048584 98.4363324,14.2658584 L98.9913324,14.0618584 C99.7833324,13.8568584 100.716332,13.8468584 101.566332,14.1958584 C102.398332,14.5618584 103.028332,15.1748584 103.468332,15.8338584 C104.276332,17.1808584 104.452332,18.6128584 104.375332,19.9318584 C104.299332,21.2628584 103.885332,22.4978584 103.361332,23.6328584 C102.843332,24.7538584 102.112332,25.8978584 101.082332,26.7728584 C100.064332,27.6578584 98.7833324,28.2638584 97.4813324,28.4808584 C96.8313324,28.6078584 96.1773324,28.6088584 95.5383324,28.5758584 C94.8823324,28.5318584 94.3073324,28.4358584 93.6033324,28.2068584 C93.0323324,28.0208584 92.7213324,27.4078584 92.9073324,26.8368584 C93.0753324,26.3228584 93.5893324,26.0188584 94.1063324,26.0988584 L94.2373324,26.1198584 Z" id="Fill-259" fill="#000000"></path>
            <path d="M104.359332,10.1017584 C105.204332,9.71475839 106.069332,9.45475839 106.930332,9.24175839 C107.794332,9.02975839 108.657332,8.84975839 109.524332,8.72375839 C111.251332,8.46275839 112.997332,8.30675839 114.683332,8.25475839 L114.756332,8.25275839 C115.208332,8.23975839 115.586332,8.59475839 115.599332,9.04575839 C115.608332,9.31775839 115.479332,9.56475839 115.280332,9.71975839 C114.454332,10.3537584 113.567332,10.7197584 112.682332,11.0197584 C111.796332,11.3187584 110.897332,11.5357584 109.997332,11.6827584 C109.095332,11.8367584 108.186332,11.9117584 107.274332,11.9247584 C106.360332,11.9367584 105.446332,11.8857584 104.510332,11.6757584 C104.061332,11.5757584 103.780332,11.1307584 103.880332,10.6827584 C103.939332,10.4197584 104.116332,10.2147584 104.340332,10.1097584 L104.359332,10.1017584 Z" id="Fill-261" fill="#000000"></path>
            <path d="M111.343732,10.2506584 C111.645732,12.2356584 111.794732,14.2446584 111.922732,16.2366584 C112.056732,18.2306584 112.021732,20.2366584 112.211732,22.2186584 C112.321732,24.2156584 113.080732,26.0996584 113.362732,27.9946584 C113.551732,28.9346584 113.759732,29.8646584 114.035732,30.7256584 C114.309732,31.5856584 114.670732,32.3656584 115.113732,32.8306584 L115.266732,32.9916584 C115.599732,33.3416584 115.585732,33.8946584 115.236732,34.2276584 C114.969732,34.4806584 114.582732,34.5316584 114.268732,34.3876584 C112.959732,33.7836584 112.256732,32.7116584 111.716732,31.7446584 C111.178732,30.7496584 110.813732,29.7296584 110.511732,28.7076584 C109.818732,26.6706584 109.977732,24.5416584 109.617732,22.5176584 C109.344732,20.4776584 109.002732,18.4436584 108.922732,16.3946584 C108.842732,14.3436584 108.865732,12.3036584 109.162732,10.2396584 C109.248732,9.63765839 109.807732,9.22065839 110.408732,9.30665839 C110.900732,9.37765839 111.269732,9.76265839 111.340732,10.2296584 L111.343732,10.2506584 Z" id="Fill-263" fill="#000000"></path>
            <path d="M124.411132,15.6496584 C123.298132,15.2056584 121.849132,14.9316584 121.163132,15.2726584 C120.825132,15.4236584 120.607132,15.6296584 120.407132,16.0496584 C120.378132,16.1266584 120.263132,16.3246584 120.317132,16.2646584 C120.312132,16.2386584 120.337132,16.2606584 120.328132,16.2746584 C120.364132,16.3526584 120.394132,16.5206584 120.526132,16.7516584 C120.762132,17.1996584 121.176132,17.7276584 121.622132,18.2316584 C122.060132,18.7486584 122.549132,19.2726584 123.048132,19.7936584 L126.140132,23.0006584 C127.158132,24.1396584 128.224132,25.2576584 129.140132,26.7386584 C129.565132,27.4876584 129.981132,28.3886584 129.995132,29.4876584 C130.032132,30.5876584 129.528132,31.7196584 128.857132,32.4546584 C128.517132,32.8056584 128.167132,33.1436584 127.806132,33.3846584 C127.466132,33.6636584 127.059132,33.8936584 126.640132,34.1046584 C125.792132,34.5146584 124.770132,34.7406584 123.778132,34.6016584 C122.789132,34.4716584 121.914132,34.0496584 121.220132,33.5156584 C120.524132,32.9536584 119.979132,32.3726584 119.506132,31.5956584 C119.251132,31.1786584 119.384132,30.6336584 119.800132,30.3796584 C120.153132,30.1636584 120.598132,30.2256584 120.882132,30.5036584 L120.954132,30.5746584 C121.821132,31.4276584 123.028132,32.1356584 123.985132,32.0916584 C124.470132,32.0746584 124.918132,31.9066584 125.378132,31.6566584 C125.604132,31.5136584 125.832132,31.3706584 126.046132,31.1576584 C126.288132,30.9716584 126.441132,30.7706584 126.606132,30.5866584 C126.876132,30.1896584 126.969132,29.8816584 126.987132,29.5006584 C126.998132,29.1166584 126.893132,28.5886584 126.639132,28.0416584 C126.163132,26.9186584 125.247132,25.8126584 124.245132,24.8206584 C123.250132,23.7966584 122.143132,22.8476584 121.044132,21.8276584 C119.946132,20.7846584 118.821132,19.7996584 117.878132,18.1516584 C117.643132,17.7426584 117.436132,17.2026584 117.368132,16.5536584 C117.357132,16.1986584 117.357132,15.8496584 117.481132,15.4716584 C117.534132,15.2756584 117.597132,15.1046584 117.653132,15.0166584 L117.831132,14.6796584 C118.290132,13.7926584 119.214132,12.9076584 120.292132,12.6206584 C121.357132,12.3206584 122.341132,12.4496584 123.187132,12.6726584 C124.048132,12.9326584 124.761132,13.2646584 125.513132,13.7666584 C126.013132,14.1016584 126.147132,14.7786584 125.813132,15.2786584 C125.522132,15.7146584 124.972132,15.8736584 124.503132,15.6866584 L124.411132,15.6496584 Z" id="Fill-265" fill="#000000"></path>
            <path d="M115.504832,12.7809584 C115.620832,12.2099584 115.829832,11.6529584 116.012832,11.1519584 L116.549832,9.68095839 C116.732832,9.20695839 116.877832,8.74095839 117.033832,8.25895839 C117.201832,7.77195839 117.295832,7.27995839 117.500832,6.69195839 L117.549832,6.55195839 C117.701832,6.11395839 118.180832,5.88395839 118.615832,6.03595839 C118.804832,6.10195839 118.953832,6.22795839 119.051832,6.38495839 C119.442832,7.01295839 119.674832,7.75895839 119.691832,8.50095839 C119.727832,9.24395839 119.621832,9.99695839 119.374832,10.6799584 C119.141832,11.3699584 118.776832,11.9999584 118.328832,12.5469584 C117.871832,13.0989584 117.358832,13.5499584 116.637832,13.8849584 C116.219832,14.0799584 115.724832,13.8999584 115.529832,13.4819584 C115.451832,13.3139584 115.434832,13.1339584 115.467832,12.9649584 L115.504832,12.7809584 Z" id="Fill-267" fill="#000000"></path>
            <path d="M100.305632,40.3590584 C98.9716324,41.2190584 97.5956324,42.1220584 96.3606324,43.0870584 C95.7356324,43.5670584 95.1376324,44.0570584 94.6156324,44.5750584 C94.0856324,45.0770584 93.6516324,45.6600584 93.4486324,46.0860584 C93.4486324,46.0860584 93.3856324,46.3290584 93.3936324,46.7040584 C93.3896324,47.0430584 93.4056324,47.4260584 93.4406324,47.8140584 C93.4856324,48.5870584 93.5716324,49.3950584 93.6666324,50.1980584 C93.8686324,51.8120584 94.1066324,53.4430584 94.4206324,55.0620584 C94.9296324,58.3290584 96.1416324,61.4530584 96.7076324,64.7200584 C97.3716324,67.9670584 98.0416324,71.2220584 98.5496324,74.5120584 C98.6266324,74.9980584 98.2956324,75.4540584 97.8116324,75.5320584 C97.3856324,75.6000584 96.9816324,75.3500584 96.8356324,74.9630584 C95.6686324,71.8180584 94.7376324,68.6180584 93.8626324,65.3950584 C92.8976324,62.1920584 92.6396324,58.8290584 91.8446324,55.5750584 C91.5106324,53.9330584 91.1406324,52.2950584 90.8446324,50.6200584 C90.7026324,49.7780584 90.5576324,48.9390584 90.4736324,48.0540584 C90.4326324,47.6140584 90.4066324,47.1660584 90.4096324,46.6740584 C90.4146324,46.2240584 90.4026324,45.6140584 90.7206324,44.8470584 C91.2236324,43.7570584 91.9346324,43.0870584 92.6106324,42.4550584 C93.3016324,41.8390584 94.0046324,41.2860584 94.7416324,40.8120584 C96.2206324,39.8570584 97.7136324,39.0610584 99.3366324,38.4050584 C99.8976324,38.1790584 100.534632,38.4490584 100.760632,39.0090584 C100.959632,39.5040584 100.772632,40.0590584 100.339632,40.3380584 L100.305632,40.3590584 Z" id="Fill-269" fill="#000000"></path>
            <path d="M99.4970324,51.0856584 C98.9110324,51.8066584 98.2160324,52.3276584 97.4780324,52.7926584 C96.7440324,53.2606584 95.8970324,53.5336584 95.1200324,53.9256584 C94.3020324,54.2416584 93.7570324,55.0726584 92.8880324,55.3146584 C92.0610324,55.6306584 91.1950324,55.8836584 90.2510324,55.9386584 C89.7290324,55.9676584 89.2840324,55.5696584 89.2540324,55.0476584 C89.2380324,54.7736584 89.3410324,54.5206584 89.5170324,54.3376584 L89.5380324,54.3156584 C90.1630324,53.6726584 90.8400324,53.1696584 91.5420324,52.7036584 C92.1980324,52.1566584 93.1630324,52.1676584 93.8450324,51.6476584 C94.5650324,51.2006584 95.2060324,50.6146584 95.9480324,50.2086584 C96.6890324,49.7986584 97.4640324,49.4316584 98.3330324,49.2406584 L98.3580324,49.2356584 C98.9790324,49.0996584 99.5930324,49.4916584 99.7290324,50.1126584 C99.8070324,50.4666584 99.7080324,50.8236584 99.4970324,51.0856584" id="Fill-271" fill="#000000"></path>
            <path d="M105.915032,47.5211584 C106.409032,50.2841584 106.737032,53.0681584 107.038032,55.8441584 C107.351032,58.6181584 107.466032,61.4161584 107.868032,64.1571584 C108.042032,65.5261584 108.311032,66.8931584 108.737032,68.1421584 C108.921032,68.7381584 109.206032,69.4201584 109.362032,69.6671584 L109.382032,69.7031584 C109.376032,69.6841584 109.365032,69.6671584 109.352032,69.6521584 C109.338032,69.6371584 109.319032,69.6261584 109.301032,69.6201584 L109.354032,69.6511584 C109.438032,69.7001584 109.518032,69.7531584 109.595032,69.8131584 C109.667032,69.8911584 109.767032,69.8841584 109.849032,69.9321584 C109.935032,69.9651584 110.013032,70.0271584 110.120032,70.0241584 C110.489032,70.1441584 110.999032,70.0551584 111.524032,69.9541584 C112.056032,69.7981584 112.621032,69.5811584 113.183032,69.2891584 C114.292032,68.7061584 115.410032,67.8961584 116.423032,67.0811584 L116.472032,67.0411584 C116.853032,66.7331584 117.413032,66.7931584 117.721032,67.1751584 C117.981032,67.4991584 117.978032,67.9521584 117.736032,68.2691584 C116.813032,69.4861584 115.782032,70.5241584 114.509032,71.4301584 C113.880032,71.8861584 113.174032,72.2851584 112.378032,72.5881584 C111.563032,72.8551584 110.654032,73.0961584 109.631032,72.9211584 C109.381032,72.9121584 109.136032,72.8221584 108.890032,72.7461584 C108.649032,72.6551584 108.381032,72.6081584 108.176032,72.4591584 C107.958032,72.3291584 107.742032,72.1931584 107.530032,72.0521584 C107.384032,72.0071584 106.877032,71.4411584 106.817032,71.2711584 L106.614032,70.9021584 L106.482032,70.5861584 C106.392032,70.3661584 106.341032,70.1761584 106.282032,69.9791584 C106.166032,69.5861584 106.081032,69.2181584 106.007032,68.8481584 L105.271032,64.5611584 C104.817032,61.7481584 104.302032,58.9591584 104.050032,56.1431584 C103.796032,53.3271584 103.644032,50.5121584 103.739032,47.6681584 C103.760032,47.0631584 104.267032,46.5891584 104.872032,46.6101584 C105.398032,46.6281584 105.825032,47.0141584 105.914032,47.5121584 L105.915032,47.5211584 Z" id="Fill-273" fill="#000000"></path>
            <path d="M116.086932,46.4049584 C116.834932,49.7499584 117.791932,53.1109584 118.958932,56.2909584 C119.554932,57.8629584 120.235932,59.4449584 121.106932,60.6649584 C121.320932,60.9699584 121.549932,61.2179584 121.766932,61.4259584 C121.977932,61.5969584 122.176932,61.6989584 122.238932,61.7079584 C122.287932,61.7039584 122.316932,61.6939584 122.418932,61.6469584 C122.525932,61.5459584 122.710932,61.3909584 122.869932,61.1019584 C123.201932,60.5659584 123.473932,59.8169584 123.687932,59.0529584 C123.905932,58.2849584 124.072932,57.4709584 124.208932,56.6449584 C124.487932,54.9939584 124.647932,53.2889584 124.766932,51.5799584 C125.010932,48.1639584 125.074932,44.6759584 124.995932,41.2529584 L124.994932,41.2169584 C124.976932,40.3959584 125.625932,39.7159584 126.445932,39.6969584 C127.154932,39.6809584 127.758932,40.1639584 127.922932,40.8249584 C129.803932,48.4169584 131.281932,56.0409584 132.369932,63.7779584 C132.902932,67.6459584 133.296932,71.5389584 133.465932,75.4789584 C133.526932,77.4509584 133.541932,79.4349584 133.402932,81.4429584 C133.250932,83.4479584 132.978932,85.4879584 132.178932,87.5359584 C131.976932,88.0529584 131.749932,88.5549584 131.480932,89.0299584 C131.196932,89.5159584 130.901932,90.0089584 130.399932,90.5129584 C130.165932,90.7599584 129.838932,91.0229584 129.423932,91.2379584 C129.172932,91.3349584 128.964932,91.4469584 128.661932,91.4799584 C128.364932,91.5179584 128.067932,91.5359584 127.778932,91.4629584 C127.175932,91.3559584 126.758932,91.0469584 126.444932,90.7799584 C126.134932,90.5019584 125.907932,90.2169584 125.731932,89.9499584 C125.015932,88.8649584 124.715932,87.8719584 124.399932,86.8649584 C124.109932,85.8629584 123.909932,84.8669584 123.740932,83.8739584 C123.411932,81.8849584 123.225932,79.9019584 123.172932,77.8929584 C123.111932,75.8709584 123.285932,73.8359584 123.598932,71.8559584 C124.232932,67.8789584 125.671932,63.9739584 127.968932,60.6109584 C129.125932,58.9359584 130.510932,57.4319584 132.027932,56.1009584 C133.551932,54.7659584 135.261932,53.6909584 137.014932,52.7349584 C137.442932,52.5009584 137.981932,52.6589584 138.215932,53.0879584 C138.439932,53.4989584 138.303932,54.0089584 137.914932,54.2579584 L137.874932,54.2829584 C136.293932,55.2879584 134.759932,56.3579584 133.424932,57.6459584 C132.854765,58.1968492 132.53993,58.4520219 132.027932,59.0529584 C131.344723,59.8548486 130.4877,61.021085 129.914932,61.9019584 C127.936932,65.0119584 126.789932,68.5929584 126.278932,72.2599584 C126.027932,74.1089584 125.906932,75.9489584 126.000932,77.7979584 C126.087932,79.6559584 126.301932,81.5329584 126.643932,83.3569584 C126.813932,84.2679584 127.024932,85.1669584 127.277932,86.0229584 C127.525932,86.8589584 127.840932,87.7329584 128.205932,88.2619584 C128.367932,88.5429584 128.585932,88.6109584 128.354932,88.5249584 C128.242932,88.5149584 128.114932,88.5269584 128.113932,88.5469584 C128.121932,88.5319584 128.189932,88.5049584 128.285932,88.3959584 C128.666932,88.0259584 129.182932,87.1589584 129.468932,86.4229584 C130.127932,84.8759584 130.453932,83.0399584 130.644932,81.2009584 C130.832932,79.3509584 130.873932,77.4579584 130.826932,75.5609584 C130.742932,71.7609584 130.460932,66.4329584 129.914932,62.6369584 C128.788932,55.0479584 129.468932,60.2572935 127.778932,52.5744284 L127.778932,52.0665398 C127.778932,52.0665398 127.778932,52.0665398 127.778932,52.5744284 C127.631932,54.3514284 127.421932,55.3559584 127.094932,57.1499584 C126.934932,58.0469584 126.740932,58.9469584 126.469932,59.8579584 C126.191932,60.7679584 125.879932,61.6879584 125.284932,62.6369584 C125.001932,63.1039584 124.580932,63.6019584 123.986932,64.0199584 C123.346932,64.4319584 122.484932,64.6489584 121.665932,64.4769584 C120.861932,64.2959584 120.329932,63.8779584 119.877932,63.4879584 C119.468932,63.0849584 119.125932,62.6679584 118.846932,62.2509584 C117.737932,60.5769584 117.102932,58.8809584 116.498932,57.1759584 C115.331932,53.7609584 114.583932,50.3189584 113.942932,46.8129584 C113.834932,46.2199584 114.227932,45.6519584 114.819932,45.5439584 C115.397932,45.4379584 115.951932,45.8079584 116.079932,46.3759584 L116.086932,46.4049584 Z" id="Fill-275" fill="#000000"></path>
            <path d="M16.2470324,93.7267584 C15.9990324,94.0917584 15.7410324,94.5207584 15.5110324,94.9347584 C15.2770324,95.3557584 15.0580324,95.7837584 14.8520324,96.2187584 C14.6530324,96.6437584 14.1470324,96.8257584 13.7240324,96.6257584 C13.2990324,96.4267584 13.1160324,95.9207584 13.3150324,95.4957584 C13.3200324,95.4867584 13.3270324,95.4747584 13.3310324,95.4657584 C13.5700324,95.0047584 13.8250324,94.5527584 14.0940324,94.1087584 C14.3680324,93.6617584 14.6400324,93.2417584 14.9710324,92.7917584 C15.2290324,92.4397584 15.7260324,92.3657584 16.0770324,92.6247584 C16.4190324,92.8767584 16.4990324,93.3537584 16.2630324,93.7037584 L16.2470324,93.7267584 Z" id="Fill-277" fill="#000000"></path>
            <path d="M13.2705324,101.648658 C13.1825324,102.570658 13.2065324,103.491658 13.3645324,104.376658 C13.4595324,104.916658 13.1005324,105.432658 12.5615324,105.528658 C12.0215324,105.625658 11.5045324,105.265658 11.4095324,104.725658 C11.4075324,104.717658 11.4055324,104.701658 11.4035324,104.693658 C11.2425324,103.603658 11.2505324,102.505658 11.3825324,101.441658 C11.4475324,100.920658 11.9205324,100.551658 12.4415324,100.615658 C12.9525324,100.678658 13.3175324,101.139658 13.2705324,101.648658" id="Fill-279" fill="#000000"></path>
            <path d="M15.8798324,108.998258 C16.5308324,109.624258 17.2758324,110.169258 18.0728324,110.645258 C18.6068324,110.962258 18.7798324,111.652258 18.4628324,112.185258 C18.1458324,112.718258 17.4558324,112.893258 16.9228324,112.575258 C16.9148324,112.570258 16.9008324,112.562258 16.8938324,112.557258 C15.9898324,111.982258 15.1278324,111.314258 14.3588324,110.531258 C13.9408324,110.106258 13.9458324,109.422258 14.3718324,109.004258 C14.7888324,108.594258 15.4598324,108.596258 15.8798324,108.998258" id="Fill-281" fill="#000000"></path>
            <path d="M23.3193324,112.797558 L26.1453324,113.455558 L26.2373324,113.476558 C26.8873324,113.628558 27.2943324,114.279558 27.1413324,114.930558 C26.9903324,115.582558 26.3393324,115.987558 25.6873324,115.835558 C25.6823324,115.834558 25.6713324,115.832558 25.6673324,115.830558 L22.6613324,115.074558 C22.0283324,114.915558 21.6433324,114.272558 21.8023324,113.638558 C21.9603324,113.011558 22.5903324,112.628558 23.2173324,112.774558 L23.3193324,112.797558 Z" id="Fill-283" fill="#000000"></path>
            <path d="M31.8427324,113.901058 L34.7017324,113.654058 L34.8327324,113.643058 C35.5427324,113.581058 36.1677324,114.107058 36.2297324,114.817058 C36.2907324,115.526058 35.7647324,116.151058 35.0557324,116.213058 L35.0317324,116.215058 L31.9047324,116.430058 C31.2077324,116.478058 30.6067324,115.952058 30.5587324,115.257058 C30.5107324,114.569058 31.0247324,113.972058 31.7077324,113.913058 L31.8427324,113.901058 Z" id="Fill-285" fill="#000000"></path>
            <path d="M40.2959324,112.326358 L42.9959324,111.297358 L43.0989324,111.258358 C43.8059324,110.988358 44.5979324,111.343358 44.8669324,112.050358 C45.1369324,112.757358 44.7819324,113.549358 44.0749324,113.818358 C44.0689324,113.820358 44.0579324,113.825358 44.0519324,113.826358 L41.1259324,114.884358 C40.4289324,115.135358 39.6589324,114.774358 39.4069324,114.076358 C39.1579324,113.387358 39.5089324,112.627358 40.1909324,112.367358 L40.2959324,112.326358 Z" id="Fill-287" fill="#000000"></path>
            <path d="M48.1425324,108.641858 L50.5675324,107.046858 L50.6495324,106.992858 C51.2985324,106.564858 52.1725324,106.745858 52.6005324,107.394858 C53.0285324,108.044858 52.8475324,108.918858 52.1985324,109.346858 L52.1905324,109.350858 L49.5925324,111.038858 C48.9445324,111.459858 48.0775324,111.275858 47.6565324,110.627858 C47.2375324,109.981858 47.4175324,109.118858 48.0595324,108.695858 L48.1425324,108.641858 Z" id="Fill-289" fill="#000000"></path>
            <path d="M55.0468324,103.371358 L57.0608324,101.303358 L57.1438324,101.218358 C57.6958324,100.651358 58.6048324,100.639358 59.1718324,101.191358 C59.7388324,101.744358 59.7508324,102.653358 59.1978324,103.220358 L59.1928324,103.226358 L57.0048324,105.447358 C56.4518324,106.008358 55.5498324,106.015358 54.9888324,105.462358 C54.4308324,104.912358 54.4208324,104.013358 54.9678324,103.452358 L55.0468324,103.371358 Z" id="Fill-291" fill="#000000"></path>
            <path d="M60.3896324,96.7238584 C60.8286324,95.9168584 61.1986324,95.0848584 61.4216324,94.2738584 L61.4226324,94.2678584 C61.6376324,93.4898584 62.4436324,93.0328584 63.2216324,93.2478584 C64.0006324,93.4628584 64.4566324,94.2678584 64.2426324,95.0468584 L64.2396324,95.0568584 C63.9206324,96.1748584 63.4566324,97.1778584 62.9366324,98.1248584 C62.5486324,98.8278584 61.6646324,99.0848584 60.9616324,98.6978584 C60.2586324,98.3108584 60.0026324,97.4268584 60.3896324,96.7238584" id="Fill-293" fill="#000000"></path>
            <path d="M60.3642324,91.1178584 L59.8212324,91.0008584 C59.6552324,90.9498584 59.4332324,90.9248584 59.2292324,90.9078584 C58.8192324,90.8718584 58.4212324,90.8748584 58.0512324,90.9228584 C57.2372324,91.0288584 56.4902324,90.4528584 56.3852324,89.6378584 C56.2782324,88.8228584 56.8542324,88.0758584 57.6692324,87.9708584 L57.6792324,87.9698584 C58.3022324,87.8928584 58.9102324,87.8978584 59.4952324,87.9508584 C60.0572324,87.9858584 60.6942324,88.1648584 61.3002324,88.3098584 C62.0912324,88.4988584 62.5772324,89.2928584 62.3892324,90.0828584 C62.2022324,90.8618584 61.4282324,91.3468584 60.6492324,91.1798584 L60.3642324,91.1178584 Z" id="Fill-295" fill="#000000"></path>
            <path d="M55.5478324,93.5715584 C55.4718324,94.3165584 55.5828324,95.1355584 55.8368324,95.9205584 C56.0928324,96.6995584 55.6688324,97.5395584 54.8888324,97.7955584 C54.1088324,98.0505584 53.2698324,97.6265584 53.0138324,96.8465584 C52.6488324,95.7335584 52.4578324,94.5315584 52.5728324,93.2815584 C52.6488324,92.4595584 53.3758324,91.8555584 54.1978324,91.9305584 C55.0198324,92.0065584 55.6238324,92.7345584 55.5488324,93.5555584 L55.5478324,93.5715584 Z" id="Fill-297" fill="#000000"></path>
            <path d="M58.8056324,99.9167584 C59.4966324,100.409758 60.2646324,100.793758 61.0786324,101.060758 C61.8456324,101.311758 62.2646324,102.135758 62.0146324,102.902758 C61.7646324,103.666758 60.9446324,104.084758 60.1796324,103.840758 C59.0916324,103.492758 58.0476324,102.978758 57.1066324,102.313758 C56.4436324,101.847758 56.2846324,100.930758 56.7506324,100.267758 C57.2176324,99.6037584 58.1346324,99.4437584 58.7976324,99.9117584 L58.8056324,99.9167584 Z" id="Fill-299" fill="#000000"></path>
            <path d="M66.3046324,101.321558 C67.1966324,101.161558 68.0836324,100.913558 68.9566324,100.597558 C69.7016324,100.327558 70.5266324,100.713558 70.7956324,101.458558 C71.0656324,102.201558 70.6826324,103.022558 69.9416324,103.295558 C68.9386324,103.664558 67.8976324,103.964558 66.8236324,104.163558 C66.0376324,104.308558 65.2846324,103.790558 65.1396324,103.006558 C64.9936324,102.222558 65.5126324,101.468558 66.2956324,101.322558 L66.3046324,101.321558 Z" id="Fill-301" fill="#000000"></path>
            <path d="M73.9794324,98.0319584 C74.7424324,97.5189584 75.4564324,96.9419584 76.1124324,96.3039584 C76.6704324,95.7609584 77.5634324,95.7729584 78.1074324,96.3309584 C78.6494324,96.8869584 78.6374324,97.7769584 78.0854324,98.3209584 C77.3114324,99.0829584 76.4654324,99.7729584 75.5714324,100.382958 C74.9224324,100.823958 74.0404324,100.656958 73.5984324,100.008958 C73.1574324,99.3609584 73.3254324,98.4779584 73.9714324,98.0369584 L73.9794324,98.0319584 Z" id="Fill-303" fill="#000000"></path>
            <path d="M79.3056324,91.8395584 L80.3606324,89.2345584 L80.4306324,89.0615584 C80.7156324,88.3575584 81.5186324,88.0175584 82.2216324,88.3025584 C82.9226324,88.5865584 83.2616324,89.3805584 82.9866324,90.0815584 L81.8156324,93.0555584 C81.5346324,93.7705584 80.7266324,94.1225584 80.0116324,93.8405584 C79.2956324,93.5595584 78.9456324,92.7515584 79.2266324,92.0365584 L79.2316324,92.0245584 L79.3056324,91.8395584 Z" id="Fill-305" fill="#000000"></path>
            <path d="M81.5634324,83.6422584 L81.8024324,80.7492584 L81.8094324,80.6612584 C81.8694324,79.9432584 82.4984324,79.4102584 83.2154324,79.4692584 C83.9244324,79.5282584 84.4544324,80.1452584 84.4084324,80.8532584 L84.2064324,83.9342584 C84.1574324,84.6672584 83.5254324,85.2212584 82.7934324,85.1732584 C82.0614324,85.1252584 81.5064324,84.4932584 81.5544324,83.7612584 C81.5544324,83.7562584 81.5554324,83.7502584 81.5554324,83.7462584 L81.5634324,83.6422584 Z" id="Fill-307" fill="#000000"></path>
            <path d="M81.7666324,74.8766584 L81.5556324,71.9306584 L81.5536324,71.8896584 C81.5046324,71.2126584 82.0146324,70.6256584 82.6906324,70.5776584 C83.3606324,70.5296584 83.9426324,71.0286584 84.0006324,71.6936584 L84.2686324,74.7236584 C84.3296324,75.4126584 83.8196324,76.0216584 83.1296324,76.0826584 C82.4406324,76.1426584 81.8316324,75.6326584 81.7706324,74.9436584 L81.7706324,74.9286584 L81.7666324,74.8766584 Z" id="Fill-309" fill="#000000"></path>
            <path d="M80.8769324,66.0280584 L80.4479324,63.0760584 L80.4459324,63.0610584 C80.3549324,62.4300584 80.7899324,61.8450584 81.4209324,61.7540584 C82.0439324,61.6630584 82.6229324,62.0900584 82.7239324,62.7100584 L83.2079324,65.6880584 C83.3129324,66.3300584 82.8759324,66.9350584 82.2339324,67.0400584 C81.5929324,67.1440584 80.9869324,66.7080584 80.8829324,66.0660584 C80.8819324,66.0610584 80.8819324,66.0570584 80.8799324,66.0520584 L80.8769324,66.0280584 Z" id="Fill-311" fill="#000000"></path>
            <path d="M79.5292324,57.1564584 L79.0692324,54.1844584 C78.9812324,53.6204584 79.3682324,53.0924584 79.9322324,53.0044584 C80.4872324,52.9194584 81.0072324,53.2904584 81.1062324,53.8384584 L81.1082324,53.8474584 L81.6482324,56.7934584 L81.6492324,56.7984584 C81.7562324,57.3824584 81.3692324,57.9424584 80.7852324,58.0494584 C80.2012324,58.1564584 79.6412324,57.7694584 79.5342324,57.1854584 C79.5322324,57.1774584 79.5302324,57.1644584 79.5292324,57.1564584" id="Fill-313" fill="#000000"></path>
            <path d="M78.2841324,48.1842584 L78.0671324,45.1302584 C78.0321324,44.6292584 78.4091324,44.1942584 78.9091324,44.1592584 C79.4011324,44.1242584 79.8301324,44.4872584 79.8791324,44.9752584 L79.8861324,45.0402584 L80.1751324,47.9702584 L80.1801324,48.0232584 C80.2311324,48.5462584 79.8501324,49.0122584 79.3271324,49.0632584 C78.8041324,49.1152584 78.3391324,48.7332584 78.2861324,48.2102584 C78.2861324,48.2032584 78.2851324,48.1912584 78.2841324,48.1842584" id="Fill-315" fill="#000000"></path>
            <path d="M78.8955324,38.8483584 L79.2335324,38.1993584 C79.4345324,37.8133584 79.9115324,37.6633584 80.2965324,37.8653584 C80.6725324,38.0613584 80.8255324,38.5193584 80.6455324,38.8993584 L80.5985324,38.9983584 L80.3705324,39.4793584 L80.3315324,39.5623584 C80.1415324,39.9623584 79.6635324,40.1333584 79.2625324,39.9443584 C78.8625324,39.7543584 78.6925324,39.2763584 78.8815324,38.8753584 C78.8855324,38.8673584 78.8915324,38.8563584 78.8955324,38.8483584" id="Fill-317" fill="#000000"></path>
            <path d="M130.967732,21.3273584 C131.517732,21.4433584 132.007732,21.5593584 132.510732,21.7233584 C133.006732,21.8813584 133.498732,22.0553584 133.985732,22.2443584 C134.520732,22.4493584 134.787732,23.0493584 134.582732,23.5843584 C134.377732,24.1193584 133.778732,24.3873584 133.242732,24.1823584 C133.197732,24.1653584 133.145732,24.1393584 133.104732,24.1173584 C132.686732,23.8803584 132.260732,23.6573584 131.828732,23.4473584 C131.401732,23.2453584 130.950732,23.0173584 130.542732,22.8503584 L130.504732,22.8353584 C130.100732,22.6703584 129.905732,22.2073584 130.071732,21.8033584 C130.217732,21.4433584 130.600732,21.2493584 130.967732,21.3273584" id="Fill-319" fill="#000000"></path>
            <path d="M139.459932,25.3830584 C140.299932,26.0480584 141.076932,26.8030584 141.787932,27.6270584 L141.791932,27.6310584 C142.309932,28.2300584 142.242932,29.1340584 141.643932,29.6520584 C141.045932,30.1690584 140.140932,30.1030584 139.622932,29.5040584 C139.609932,29.4880584 139.592932,29.4680584 139.580932,29.4520584 C139.016932,28.7350584 138.377932,28.0670584 137.701932,27.4280584 L137.694932,27.4220584 C137.152932,26.9100584 137.129932,26.0560584 137.641932,25.5140584 C138.124932,25.0030584 138.917932,24.9560584 139.459932,25.3830584" id="Fill-321" fill="#000000"></path>
            <path d="M144.944332,33.3620584 C145.249332,34.4220584 145.442332,35.5090584 145.530332,36.5970584 C145.595332,37.4100584 144.990332,38.1220584 144.176332,38.1880584 C143.372332,38.2530584 142.665332,37.6550584 142.589332,36.8540584 C142.503332,35.9530584 142.331332,35.0670584 142.071332,34.2110584 C141.830332,33.4200584 142.276332,32.5830584 143.068332,32.3420584 C143.860332,32.1010584 144.696332,32.5480584 144.936332,33.3400584 C144.938332,33.3440584 144.942332,33.3580584 144.944332,33.3620584" id="Fill-323" fill="#000000"></path>
            <path d="M144.739232,43.0246584 C144.376232,44.0016584 144.018232,44.9786584 143.635232,45.9416584 C143.386232,46.5676584 142.676232,46.8746584 142.050232,46.6266584 C141.466232,46.3946584 141.159232,45.7636584 141.321232,45.1706584 L141.348232,45.0686584 C141.601232,44.1356584 141.879232,43.2146584 142.150232,42.2956584 L142.186232,42.1736584 C142.397232,41.4616584 143.145232,41.0536584 143.858232,41.2646584 C144.571232,41.4756584 144.979232,42.2236584 144.768232,42.9366584 C144.760232,42.9656584 144.749232,42.9966584 144.739232,43.0246584" id="Fill-325" fill="#000000"></path>
            <path d="M140.751932,51.3571584 L140.528932,51.7031584 C140.291932,52.0711584 139.801932,52.1771584 139.432932,51.9401584 C139.104932,51.7281584 138.984932,51.3141584 139.131932,50.9661584 L139.141932,50.9441584 L139.289932,50.5911584 L139.291932,50.5861584 C139.469932,50.1651584 139.954932,49.9661584 140.376932,50.1441584 C140.798932,50.3211584 140.996932,50.8071584 140.818932,51.2291584 C140.801932,51.2731584 140.775932,51.3181584 140.751932,51.3571584" id="Fill-327" fill="#000000"></path>
            <path d="M74.4931324,17.3888584 C75.0751324,18.3848584 75.2651324,19.5028584 75.2771324,20.5488584 C75.2861324,21.6028584 75.1371324,22.6198584 74.9151324,23.6028584 C74.4671324,25.5728584 73.7721324,27.4328584 73.0051324,29.2498584 C71.4191324,32.8598584 69.5291324,36.2978584 67.4721324,39.6168584 C65.4031324,42.9288584 63.2001324,46.1468584 60.8561324,49.2528584 C58.5561324,52.3798584 56.1041324,55.4248584 53.5451324,58.3678584 C48.3861324,64.2088584 43.0441324,69.8528584 37.4621324,75.2678584 C34.6821324,77.9878584 31.8371324,80.6418584 28.8801324,83.1888584 C27.3981324,84.4598584 25.8911324,85.7048584 24.3171324,86.8918584 C23.5281324,87.4858584 22.7211324,88.0608584 21.8631324,88.6058584 C21.4321324,88.8768584 20.9881324,89.1388584 20.4931324,89.3808584 C20.2451324,89.5018584 19.9821324,89.6168584 19.6711324,89.7168584 C19.5141324,89.7658584 19.3371324,89.8118584 19.1241324,89.8408584 C19.0241324,89.8568584 18.8721324,89.8568584 18.7481324,89.8568584 C18.6001324,89.8478584 18.4131324,89.8178584 18.2261324,89.7498584 C18.0031324,89.6548584 17.7971324,89.5348584 17.6201324,89.3168584 C17.4251324,89.0908584 17.3891324,88.9408584 17.3131324,88.7408584 C17.2751324,88.5948584 17.2551324,88.4598584 17.2411324,88.3278584 L17.2371324,88.0138584 C17.2591324,87.6498584 17.3151324,87.3518584 17.3821324,87.0788584 C17.5141324,86.5288584 17.6771324,86.0408584 17.8571324,85.5618584 C18.2161324,84.6048584 18.6201324,83.7038584 19.0341324,82.8058584 C19.8681324,81.0198584 20.7631324,79.2838584 21.6801324,77.5618584 C23.5171324,74.1218584 25.4481324,70.7468584 27.4301324,67.4028584 C29.4131324,64.0598584 31.4441324,60.7488584 33.5181324,57.4638584 C35.5811324,54.1708584 37.6651324,50.8898584 39.8231324,47.6508584 C41.9701324,44.4198584 44.1991324,41.1808584 46.6531324,38.1078584 C49.1261324,35.0648584 51.7061324,32.1138584 54.4771324,29.3458584 C57.2451324,26.5748584 60.2051324,23.9958584 63.3071324,21.5828584 C64.8601324,20.3748584 66.4781324,19.2478584 68.1821324,18.2068584 C69.0441324,17.6958584 69.9271324,17.2148584 70.9121324,16.8328584 C71.4231324,16.6618584 71.9301324,16.4808584 72.5671324,16.4628584 C72.8661324,16.4328584 73.2371324,16.4928584 73.5871324,16.6148584 C73.7641324,16.7078584 73.9501324,16.8008584 74.1031324,16.9258584 C74.2431324,17.0708584 74.3751324,17.2278584 74.4931324,17.3888584 M73.2241324,18.1468584 C73.1581324,17.8728584 72.2761324,17.9248584 71.4721324,18.2758584 C70.6521324,18.6038584 69.8541324,19.1058584 69.0751324,19.6188584 C67.5131324,20.6598584 66.0591324,21.9078584 64.6381324,23.1798584 C61.7981324,25.7388584 59.1611324,28.5348584 56.5631324,31.3498584 C53.9731324,34.1728584 51.4111324,37.0258584 49.0331324,40.0218584 C46.6011324,42.9658584 44.3831324,46.0778584 42.1641324,49.2458584 C37.7391324,55.5628584 33.5651324,62.0748584 29.5891324,68.6918584 C27.6021324,72.0018584 25.6491324,75.3318584 23.8051324,78.7078584 C22.8861324,80.3958584 21.9891324,82.0968584 21.1691324,83.8118584 C20.7631324,84.6688584 20.3671324,85.5338584 20.0381324,86.3888584 C19.8771324,86.8138584 19.7191324,87.2418584 19.6161324,87.6318584 C19.5611324,87.8268584 19.5301324,88.0068584 19.5161324,88.1258584 C19.5181324,88.1418584 19.5171324,88.1588584 19.5141324,88.1748584 C19.5151324,88.1628584 19.5131324,88.1488584 19.5001324,88.1198584 C19.5041324,88.0168584 19.2621324,87.6958584 19.0431324,87.6388584 C18.9701324,87.6068584 18.9051324,87.6018584 18.8761324,87.6018584 C18.8721324,87.5948584 18.8431324,87.6058584 18.8621324,87.6028584 C18.8891324,87.5998584 18.9471324,87.5898584 19.0241324,87.5678584 C19.1741324,87.5248584 19.3581324,87.4538584 19.5481324,87.3678584 C19.9291324,87.1938584 20.3271324,86.9758584 20.7221324,86.7418584 C21.5131324,86.2688584 22.2991324,85.7408584 23.0731324,85.1898584 C24.6221324,84.0868584 26.1361324,82.9028584 27.6261324,81.6908584 C30.6061324,79.2598584 33.4971324,76.7018584 36.3251324,74.0768584 C41.9361324,68.7828584 47.3051324,63.1968584 52.0911324,57.1538584 C54.5171324,54.1658584 56.7261324,51.0178584 59.0071324,47.8988584 C61.2401324,44.7548584 63.4771324,41.6188584 65.5951324,38.4118584 C67.7081324,35.2078584 69.7781324,31.9638584 71.4421324,28.5358584 C72.2601324,26.8248584 73.0121324,25.0688584 73.4441324,23.2618584 C73.8991324,21.4888584 74.0181324,19.5428584 73.2241324,18.1468584" id="Fill-329" fill="#000000"></path>
            <path d="M55.0224324,31.1720584 C51.6054324,31.4650584 48.1934324,31.5690584 44.7884324,31.6240584 C41.3834324,31.7020584 37.9844324,31.6170584 34.5904324,31.5530584 C31.2244324,31.5220584 27.7434324,31.5520584 24.5984324,32.0590584 C24.4134324,32.0940584 24.1964324,32.1170584 24.0344324,32.1610584 C23.8894324,32.2120584 23.7474324,32.2580584 23.6004324,32.2990584 L23.3794324,32.3600584 L23.1084324,32.4960584 L22.5584324,32.7820584 C21.8254324,33.1720584 21.0924324,33.5860584 20.3644324,34.0090584 C18.9044324,34.8500584 17.4764324,35.7570584 16.0494324,36.6520584 C14.6364324,37.5560584 13.2174324,38.4960584 11.9654324,39.4990584 C11.6674324,39.7460584 11.3644324,40.0210584 11.1884324,40.2330584 C11.1474324,40.2780584 11.1224324,40.3280584 11.1244324,40.3090584 C11.1124324,40.3100584 11.2084324,40.1560584 11.0524324,39.8170584 C10.9204324,39.6400584 10.8974324,39.6290584 10.8524324,39.5870584 C10.8054324,39.5490584 10.7114324,39.5360584 10.7884324,39.5540584 L11.0064324,39.6190584 C11.7544324,39.7840584 12.6134324,39.8970584 13.4444324,40.0010584 C16.8104324,40.3580584 20.2234324,40.5740584 23.6374324,40.5340584 C30.4674324,40.4490584 37.2784324,40.8980584 44.0844324,41.5620584 C44.4914324,41.6010584 44.7904324,41.9640584 44.7504324,42.3700584 C44.7134324,42.7420584 44.4074324,43.0240584 44.0434324,43.0380584 L44.0384324,43.0380584 C40.6144324,43.1830584 37.1964324,43.1750584 33.7784324,43.0940584 C32.0704324,43.0400584 30.3624324,42.9890584 28.6554324,42.8780584 C26.9494324,42.7730584 25.2474324,42.5820584 23.5424324,42.4260584 C20.1354324,42.0310584 16.7274324,41.8960584 13.2904324,41.6390584 C12.4224324,41.5810584 11.5794324,41.5280584 10.6474324,41.3810584 L10.2464324,41.2900584 C10.2154324,41.2920584 10.0284324,41.2220584 9.88643239,41.1390584 C9.74543239,41.0490584 9.61443239,41.0030584 9.44843239,40.7140584 C9.29343239,40.4430584 9.29443239,40.2500584 9.30143239,40.0320584 C9.31843239,39.8020584 9.36043239,39.7560584 9.40343239,39.6120584 C9.48943239,39.3980584 9.57643239,39.2630584 9.66143239,39.1370584 C9.99643239,38.6650584 10.3214324,38.3520584 10.6534324,38.0260584 C11.9754324,36.7840584 13.3714324,35.7740584 14.7844324,34.7650584 C16.1944324,33.7590584 17.6554324,32.8420584 19.1274324,31.9340584 C19.8664324,31.4840584 20.6124324,31.0420584 21.3764324,30.6130584 L21.9564324,30.2950584 L22.2534324,30.1390584 L22.6404324,29.9980584 L23.4224324,29.7330584 C23.6704324,29.6640584 23.8814324,29.6410584 24.1134324,29.5930584 C25.9374324,29.2350584 27.6394324,29.1500584 29.3804324,29.0160584 C31.1064324,28.9070584 32.8274324,28.8240584 34.5444324,28.7420584 C37.9794324,28.5730584 41.4114324,28.5290584 44.8344324,28.7130584 C48.2584324,28.8770584 51.6724324,29.1510584 55.0814324,29.6950584 C55.4874324,29.7600584 55.7624324,30.1420584 55.6984324,30.5480584 C55.6434324,30.8920584 55.3554324,31.1440584 55.0224324,31.1720584" id="Fill-331" fill="#000000"></path>
            <path d="M24.7919324,73.4171584 C23.3429324,73.7951584 21.8989324,73.9481584 20.4659324,74.0551584 C19.0339324,74.1791584 17.6059324,74.1401584 16.1979324,74.0911584 C15.5029324,74.0801584 14.7879324,74.0911584 14.1509324,74.1631584 C13.9789324,74.1771584 13.8469324,74.2081584 13.7039324,74.2331584 L13.4949324,74.2711584 C13.4619324,74.2851584 13.4289324,74.2961584 13.3939324,74.3051584 C13.3549324,74.2911584 13.1519324,74.4061584 13.0169324,74.4731584 L12.5619324,74.7151584 C11.3429324,75.3901584 10.1159324,76.1461584 8.96593239,76.8931584 C8.68293239,77.0781584 8.39693239,77.2721584 8.17093239,77.4531584 C8.06693239,77.5301584 7.93993239,77.6561584 7.95693239,77.6111584 C7.96293239,77.5991584 7.96693239,77.5861584 7.96993239,77.5731584 C7.99093239,77.5271584 8.00993239,77.4731584 8.01693239,77.4201584 C8.03193239,77.3641584 8.05393239,77.1561584 8.00993239,77.0391584 C7.99293239,76.9601584 7.95393239,76.8461584 7.89693239,76.7601584 C7.85593239,76.6801584 7.72793239,76.5661584 7.75293239,76.5841584 C7.72393239,76.5021584 7.57693239,76.4401584 7.56493239,76.4561584 C8.13193239,76.6631584 8.89193239,76.8171584 9.57193239,76.9801584 C10.9809324,77.2681584 12.4179324,77.4591584 13.8769324,77.4421584 C14.6029324,77.4631584 15.3349324,77.4431584 16.0559324,77.5001584 C16.7779324,77.5521584 17.4929324,77.6591584 18.2099324,77.7581584 C19.6419324,77.9791584 21.0669324,78.2481584 22.4759324,78.6791584 C22.8719324,78.7991584 23.0969324,79.2191584 22.9759324,79.6161584 C22.8839324,79.9211584 22.6099324,80.1241584 22.3109324,80.1471584 C20.8369324,80.2531584 19.3839324,80.1871584 17.9369324,80.0651584 C17.2139324,79.9931584 16.4899324,79.9271584 15.7729324,79.8021584 C15.0559324,79.6841584 14.3489324,79.4821584 13.6379324,79.3211584 C12.2219324,78.9341584 10.7819324,78.7491584 9.32493239,78.6061584 C8.57693239,78.5371584 7.89593239,78.4981584 7.05393239,78.3601584 C6.86993239,78.3221584 6.55793239,78.1861584 6.35693239,78.0411584 C6.35693239,78.0561584 6.22593239,77.9141584 6.17093239,77.8161584 C6.10493239,77.7091584 6.04993239,77.5771584 6.02793239,77.4771584 C5.98793239,77.3151584 5.99893239,77.0601584 6.02793239,76.9611584 C6.05093239,76.8661584 6.08293239,76.7681584 6.12093239,76.6801584 L6.20193239,76.5251584 C6.41493239,76.1741584 6.55593239,76.0491584 6.71593239,75.8791584 C7.02093239,75.5681584 7.31193239,75.3191584 7.60793239,75.0701584 C8.79493239,74.1011584 10.0239324,73.3071584 11.3149324,72.5321584 L11.8099324,72.2461584 C11.9959324,72.1481584 12.1009324,72.0641584 12.4129324,71.9481584 L12.8219324,71.7991584 L13.1459324,71.7231584 C13.3579324,71.6751584 13.5789324,71.6231584 13.7669324,71.6011584 C14.5629324,71.4511584 15.2999324,71.3821584 16.0499324,71.2831584 C17.5359324,71.0831584 19.0089324,71.0141584 20.4759324,71.1441584 C21.9419324,71.2631584 23.3969324,71.4681584 24.8459324,71.9401584 C25.2489324,72.0721584 25.4699324,72.5061584 25.3369324,72.9101584 C25.2539324,73.1661584 25.0479324,73.3481584 24.8059324,73.4141584 L24.7919324,73.4171584 Z" id="Fill-333" fill="#000000"></path>
            <path d="M68.7373324,37.4626584 C69.9393324,40.7056584 70.8833324,44.0076584 71.7263324,47.3376584 C72.5893324,50.6636584 73.2333324,54.0406584 73.7703324,57.4426584 L74.5683324,62.5586584 C74.8123324,64.2826584 75.0773324,65.9746584 75.1613324,67.8016584 L75.1943324,68.4846584 C75.1923324,68.7306584 75.1653324,69.0096584 75.1473324,69.2696584 C75.1233324,69.8366584 75.0123324,70.2406584 74.9163324,70.6726584 C74.7173324,71.5306584 74.4993324,72.3706584 74.2703324,73.2086584 C73.8053324,74.8796584 73.3283324,76.5426584 72.7533324,78.1806584 C72.1733324,79.8216584 71.5913324,81.4476584 70.7683324,83.0656584 C70.5513324,83.4746584 70.3423324,83.8746584 70.0053324,84.3196584 C69.9263324,84.4256584 69.8183324,84.5506584 69.6833324,84.6776584 C69.6373324,84.7306584 69.5083324,84.8236584 69.4073324,84.8886584 C69.3373324,84.9486584 69.1103324,85.0466584 68.8993324,85.0776584 C68.7183324,85.1286584 68.3343324,85.0446584 68.1573324,84.9306584 C68.0283324,84.8356584 67.9023324,84.7166584 67.8003324,84.5886584 C67.6523324,84.3876584 67.6403324,84.3256584 67.5573324,84.1866584 C67.1223324,83.3026584 66.8593324,82.5226584 66.5543324,81.6966584 C65.3523324,78.4566584 64.2773324,75.2096584 62.9533324,72.0356584 C62.3313324,70.4366584 61.6753324,68.8486584 61.1003324,67.2336584 C60.5203324,65.6206584 59.9993324,63.9876584 59.4733324,62.3566584 C58.4483324,59.0866584 57.4933324,55.7946584 56.6823324,52.4536584 L56.6813324,52.4486584 C56.5853324,52.0516584 56.8293324,51.6506584 57.2263324,51.5546584 C57.5903324,51.4666584 57.9563324,51.6636584 58.0893324,52.0016584 C60.6143324,58.3776584 62.9323324,64.8156584 64.7453324,71.4216584 C65.6533324,74.7216584 66.8073324,77.9516584 68.0863324,81.0946584 C68.4173324,81.8576584 68.7663324,82.6816584 69.1303324,83.3126584 C69.1593324,83.3546584 69.2393324,83.4886584 69.2213324,83.4566584 C69.1903324,83.4086584 69.1373324,83.3686584 69.0793324,83.3526584 C68.9953324,83.2696584 68.7233324,83.2416584 68.6433324,83.2576584 C68.3723324,83.3146584 68.4073324,83.3546584 68.4003324,83.3346584 C68.4173324,83.3106584 68.4493324,83.2746584 68.4923324,83.2026584 C68.6553324,82.9526584 68.8313324,82.5826584 68.9853324,82.2216584 C69.6003324,80.7306584 70.1083324,79.1006584 70.5873324,77.4876584 C71.0533324,75.8646584 71.5303324,74.2366584 71.9343324,72.5966584 C72.1373324,71.7776584 72.3333324,70.9566584 72.5033324,70.1426584 C72.5873324,69.7386584 72.6823324,69.3076584 72.6673324,69.0136584 C72.6713324,68.8466584 72.6903324,68.6986584 72.6903324,68.5176584 L72.6493324,67.9186584 C72.4133324,64.6856584 71.7293324,61.2786584 71.0083324,57.9716584 C70.2513324,54.6496584 69.4853324,51.3246584 68.8833324,47.9616584 C68.2573324,44.6026584 67.6823324,41.2266584 67.3003324,37.8076584 C67.2533324,37.3996584 67.5463324,37.0296584 67.9543324,36.9826584 C68.3003324,36.9416584 68.6203324,37.1506584 68.7373324,37.4626584" id="Fill-335" fill="#000000"></path>
            <path d="M33.4648324,78.8483584 C34.1728324,80.1573584 34.6978324,81.5203584 35.1568324,82.9103584 C35.3728324,83.6093584 35.5918324,84.3093584 35.7478324,85.0283584 C35.9068324,85.7463584 35.9838324,86.4883584 36.0808324,87.2243584 C36.1628324,87.9703584 36.2438324,88.7023584 36.3428324,89.4703584 C36.3698324,89.6553584 36.3798324,89.8633584 36.3998324,90.0653584 L36.4228324,90.3723584 L36.4038324,90.7443584 C36.3658324,91.2323584 36.2798324,91.5263584 36.2138324,91.9143584 C35.9388324,93.3793584 35.6848324,94.8243584 35.2218324,96.2813584 C35.1078324,96.6523584 34.9798324,97.0133584 34.7908324,97.4133584 C34.6808324,97.6263584 34.6218324,97.8043584 34.3388324,98.1483584 L34.2048324,98.2873584 C34.1238324,98.3583584 34.0288324,98.4273584 33.9338324,98.4833584 C33.8388324,98.5483584 33.5578324,98.6493584 33.3628324,98.6593584 C33.2458324,98.6683584 33.0748324,98.6543584 32.9328324,98.6153584 C32.8038324,98.5873584 32.5938324,98.4823584 32.6118324,98.4813584 C32.3828324,98.3243584 32.1198324,98.0283584 32.0128324,97.8453584 C31.5648324,97.0843584 31.2898324,96.4703584 30.9538324,95.7903584 C30.3228324,94.4623584 29.7248324,93.1383584 29.0478324,91.8443584 C28.3598324,90.5563584 27.7418324,89.2383584 27.2948324,87.8493584 C26.8348324,86.4673584 26.4408324,85.0583584 26.2778324,83.5533584 C26.2328324,83.1313584 26.5378324,82.7513584 26.9598324,82.7053584 C27.2298324,82.6773584 27.4858324,82.7953584 27.6438324,82.9903584 C28.5898324,84.1633584 29.3138324,85.4313584 29.9788324,86.7203584 C30.6568324,88.0043584 31.1708324,89.3563584 31.6298324,90.7313584 C32.1048324,92.0983584 32.6608324,93.4323584 33.2368324,94.7413584 C33.5188324,95.3723584 33.8288324,96.0883584 34.1008324,96.5873584 C34.0928324,96.5553584 33.9468324,96.3983584 33.8248324,96.3863584 C33.8548324,96.4093584 33.6728324,96.2993584 33.5638324,96.2793584 C33.4438324,96.2443584 33.2948324,96.2393584 33.1988324,96.2473584 C33.0478324,96.2423584 32.8138324,96.3393584 32.7568324,96.3783584 C32.6968324,96.4093584 32.6398324,96.4523584 32.5958324,96.4953584 L32.5558324,96.5363584 C32.5108324,96.6063584 32.6198324,96.4583584 32.6748324,96.3493584 C32.8118324,96.1023584 32.9498324,95.7873584 33.0928324,95.4803584 C33.6328324,94.2173584 34.1908324,92.8733584 34.6158324,91.5253584 C34.7038324,91.2073584 34.8368324,90.8013584 34.8508324,90.5663584 L34.8658324,90.3953584 L34.8508324,90.1603584 C34.8428324,90.0013584 34.8348324,89.8473584 34.7978324,89.6743584 C34.7118324,89.0043584 34.4698324,88.3203584 34.2358324,87.6513584 C34.0068324,86.9753584 33.7218324,86.3123584 33.5088324,85.6303584 C33.2858324,84.9493584 33.1118324,84.2533584 32.9258324,83.5603584 C32.5708324,82.1673584 32.2448324,80.7583584 32.0618324,79.3083584 L32.0598324,79.3003584 C32.0068324,78.8893584 32.2978324,78.5133584 32.7098324,78.4603584 C33.0268324,78.4203584 33.3208324,78.5843584 33.4648324,78.8483584" id="Fill-337" fill="#000000"></path>
        </g>
    </g>
</svg>