<?xml version="1.0" encoding="UTF-8"?>
<svg width="152px" height="173px" viewBox="0 0 152 173" version="1.1" xmlns="http://www.w3.org/2000/svg" xmlns:xlink="http://www.w3.org/1999/xlink">
    <!-- Generator: Sketch 53.1 (72631) - https://sketchapp.com -->
    <title>Group 66sticker1</title>
    <desc>Created with Sketch.</desc>
    <g id="Page-1" stroke="none" stroke-width="1" fill="none" fill-rule="evenodd">
        <g id="Group-66" transform="translate(0.552088, 0.235290)">
            <path d="M147.861012,64.9769103 C150.456012,68.7519103 151.438012,73.3099103 150.632012,77.7979103 L150.620012,77.7979103 L137.366012,150.23691 C135.999012,157.73991 129.875012,163.26791 122.605012,164.15591 C120.794012,169.14691 117.498012,172.20891 113.793012,172.20891 C113.383012,172.20891 112.986012,172.17391 112.577012,172.10291 C108.545012,171.35491 106.114012,167.39391 105.962012,161.92391 L75.2360117,156.28991 C74.6630117,157.86891 73.9390117,159.30591 73.1090117,160.48591 C70.9700117,163.51391 68.0600117,164.95091 65.1380117,164.40191 C60.6620117,163.58291 58.1490117,158.74491 58.5930117,152.25791 C53.4630117,149.32491 50.1320117,143.81991 49.9330117,137.88291 C48.8690117,137.99991 47.7820117,137.73091 46.8710117,137.13491 C44.6620117,135.68591 42.0320117,134.09591 39.0510117,132.42491 C36.4110117,130.94091 33.4540117,129.37391 30.2740117,127.77291 C26.8030117,126.01991 23.0870117,124.23191 18.8800117,122.29191 C15.0220117,120.53891 12.4390117,119.41691 12.4160117,119.40491 C10.6860117,118.66891 9.56401167,116.95091 9.58801167,115.06891 L9.59901167,111.02491 C9.59901167,108.46591 11.6570117,106.38591 14.2160117,106.35091 C17.3830117,106.30391 20.5970117,106.11691 24.0570117,105.76591 C27.1770117,105.45091 30.2980117,104.99491 33.6050117,104.39791 C37.1120117,103.75591 40.7350117,102.93691 44.3580117,101.97891 C44.4510117,101.95591 44.5450117,101.93291 44.6500117,101.90891 C44.6970117,101.90891 45.3280117,101.78091 46.4150117,101.51191 C47.7240117,101.21991 49.3130117,100.79891 50.9840117,100.31991 C53.0420117,99.7239103 54.9120117,99.1389103 56.7350117,98.5079103 L60.6970117,76.8629103 C53.4980117,80.1939103 44.7670117,79.8779103 40.8750117,79.5159103 C37.4160117,81.8299103 29.1650117,86.6809103 20.7500117,86.6809103 C18.0730117,86.6809103 15.3730117,86.1889103 12.8130117,84.9619103 C8.79401167,83.0689103 5.68401167,79.6559103 3.59201167,74.8059103 C3.24201167,74.0229103 2.90301167,73.1229103 2.59901167,72.1529103 C0.998011673,67.3259103 0.121011673,62.3239103 0.0160116726,57.3449103 C-0.0659883274,54.2009103 0.168011673,50.9399103 0.694011673,47.6909103 C1.74601167,41.3919103 3.94301167,35.1739103 7.23901167,29.2259103 C9.79901167,24.6559103 12.2990117,21.5119103 13.5610117,20.0389103 C15.1630117,18.1689103 17.9560117,17.8649103 19.9200117,19.3609103 C20.1530117,19.5369103 20.4230117,19.7819103 20.6210117,20.0039103 C21.8130117,21.2779103 22.1990117,23.1009103 21.6140117,24.7609103 C21.0180117,26.4549103 20.5620117,28.8869103 20.2700117,31.9949103 C20.0830117,34.0989103 19.9660117,36.4719103 19.9310117,38.8209103 C19.8840117,41.9409103 19.9660117,44.8519103 20.0600117,46.9319103 C21.4390117,46.9549103 22.7830117,47.0599103 24.0680117,47.2699103 C27.6690117,47.8429103 30.9060117,49.1639103 33.7110117,51.1859103 C35.1950117,48.0889103 37.3920117,45.4009103 40.2440117,43.1679103 C41.2840117,42.3729103 42.4060117,41.6249103 43.6100117,40.9479103 C42.3360117,38.3759103 41.0620117,35.9689103 39.8110117,33.7599103 C38.5960117,31.6099103 37.3920117,29.6579103 36.2350117,27.9399103 C34.4820117,25.3569103 32.9160117,23.4289103 31.5720117,22.2249103 C30.3560117,21.1259103 29.8070117,19.4659103 30.1110117,17.8649103 C30.2050117,17.3629103 30.3560117,16.9179103 30.5790117,16.4859103 C31.6540117,14.3709103 34.1430117,13.4009103 36.3640117,14.2299103 C37.8130117,14.7679103 41.6810117,16.3339103 46.3330117,19.2449103 C52.0950117,22.8909103 57.0040117,27.2729103 60.9540117,32.2989103 C62.9760117,34.8709103 64.7530117,37.6169103 66.2020117,40.4569103 C67.9310117,43.8109103 69.2870117,47.3639103 70.2570117,51.0689103 C73.8570117,48.4509103 78.4500117,47.2359103 83.1480117,48.0189103 L88.5020117,18.7299103 C85.2050117,17.5259103 83.1480117,14.0899103 83.7790117,10.5489103 L84.6210117,6.00191026 C85.3690117,2.00491026 89.1910117,-0.61208974 93.1530117,0.12391026 L138.827012,8.47991026 C140.744012,8.81891026 142.426012,9.90591026 143.537012,11.5309103 C144.635012,13.1319103 145.056012,15.0719103 144.717012,16.9769103 L143.876012,21.5229103 C143.280012,24.8429103 140.499012,27.2379103 137.260012,27.5069103 L131.884012,56.9359103 L136.851012,57.8359103 C141.340012,58.6539103 145.244012,61.1899103 147.861012,64.9769103" id="Fill-548" fill="#F8F8E3"></path>
            <path d="M13.7038117,67.3841103 C20.1828117,65.7241103 17.5958117,55.6661103 11.1268117,57.3231103 C4.63681167,58.9851103 7.22481167,69.0441103 13.7038117,67.3841103 M31.2598117,77.2421103 C37.7388117,75.5831103 35.1518117,65.5241103 28.6828117,67.1811103 C22.1928117,68.8431103 24.7908117,78.9001103 31.2598117,77.2421103 M48.9978117,72.7411103 C55.4668117,71.0851103 52.8988117,61.0211103 46.4208117,62.6801103 C39.9408117,64.3411103 42.5088117,74.4041103 48.9978117,72.7411103 M59.6518117,55.6571103 C66.1218117,54.0001103 63.5548117,43.9361103 57.0748117,45.5961103 C50.6058117,47.2531103 53.1628117,57.3191103 59.6518117,55.6571103 M36.7258117,61.7121103 C36.6738117,61.2961103 36.2968117,57.8551103 38.0368117,53.8501103 C38.8258117,56.1351103 41.0098117,57.9241103 44.0378117,57.1481103 C49.7828117,55.6761103 48.4138117,47.5681103 43.4848117,46.9541103 C45.2458117,45.5811103 47.4528117,44.3191103 50.2178117,43.2681103 C50.2178117,43.2681103 49.7918117,42.3151103 49.0388117,40.7601103 C54.4298117,38.4901103 51.8118117,29.4041103 45.6248117,30.9891103 C45.1118117,31.1201103 44.6438117,31.3041103 44.2448117,31.5461103 C43.0748117,29.4871103 41.7958117,27.3821103 40.4788117,25.4241103 C40.7408117,25.4001103 40.9978117,25.3561103 41.2688117,25.2861103 C42.6378117,24.9361103 43.5998117,24.2171103 44.2028117,23.3021103 C48.4068117,25.9451103 53.3588117,29.8331103 57.6378117,35.2781103 C56.3838117,38.4181103 58.4568117,42.8291103 62.4058117,42.6761103 C64.3598117,46.4531103 65.9218117,50.7491103 66.8288117,55.6311103 C66.9838117,56.4481103 67.0898117,57.2361103 67.1538117,57.9911103 C66.4938117,57.8821103 65.7838117,57.9141103 65.0098117,58.1121103 C59.5568117,59.5091103 60.5078117,66.8661103 64.8278117,68.1611103 C58.1688117,77.4041103 40.0718117,74.7711103 40.0718117,74.7711103 L39.9888117,74.7811103 C38.8698117,75.6041103 25.0328117,85.5381103 15.1768117,80.8371103 C18.3428117,77.6241103 15.6398117,70.7151103 10.1858117,72.1121103 C9.41181167,72.3111103 8.77381167,72.6241103 8.24681167,73.0381103 C7.94081167,72.3441103 7.65481167,71.6031103 7.39781167,70.8111103 C5.84681167,66.0941103 5.15081167,61.5771103 5.04781167,57.3251103 C8.58481167,55.5621103 8.28181167,50.6971103 5.67281167,48.5461103 C6.80681167,41.7151103 9.27881167,35.9251103 11.6948117,31.5861103 C12.6628117,32.0991103 13.8528117,32.2661103 15.2218117,31.9151103 C15.4928117,31.8461103 15.7388117,31.7611103 15.9798117,31.6561103 C15.7668117,34.0061103 15.6578117,36.4671103 15.6218117,38.8351103 C15.1548117,38.8151103 14.6568117,38.8791103 14.1438117,39.0101103 C7.95681167,40.5951103 10.0298117,49.8201103 15.8478117,49.2201103 C15.9358117,50.9451103 16.0198117,51.9851103 16.0198117,51.9851103 C18.9498117,51.5771103 21.4918117,51.6231103 23.6948117,51.9811103 C19.6688117,54.8881103 22.3668117,62.6561103 28.1108117,61.1841103 C31.1398117,60.4091103 32.1948117,57.7901103 31.7888117,55.4071103 C35.4678117,58.2601103 36.7258117,61.7121103 36.7258117,61.7121103" id="Fill-550" fill="#F6A821"></path>
            <path d="M13.7038117,67.3841103 C20.1828117,65.7241103 17.5958117,55.6661103 11.1268117,57.3231103 C4.63681167,58.9851103 7.22481167,69.0441103 13.7038117,67.3841103 Z M31.2598117,77.2421103 C37.7388117,75.5831103 35.1518117,65.5241103 28.6828117,67.1811103 C22.1928117,68.8431103 24.7908117,78.9001103 31.2598117,77.2421103 Z M48.9978117,72.7411103 C55.4668117,71.0851103 52.8988117,61.0211103 46.4208117,62.6801103 C39.9408117,64.3411103 42.5088117,74.4041103 48.9978117,72.7411103 Z M59.6518117,55.6571103 C66.1218117,54.0001103 63.5548117,43.9361103 57.0748117,45.5961103 C50.6058117,47.2531103 53.1628117,57.3191103 59.6518117,55.6571103 Z M36.7258117,61.7121103 C36.6738117,61.2961103 36.2968117,57.8551103 38.0368117,53.8501103 C38.8258117,56.1351103 41.0098117,57.9241103 44.0378117,57.1481103 C49.7828117,55.6761103 48.4138117,47.5681103 43.4848117,46.9541103 C45.2458117,45.5811103 47.4528117,44.3191103 50.2178117,43.2681103 C50.2178117,43.2681103 49.7918117,42.3151103 49.0388117,40.7601103 C54.4298117,38.4901103 51.8118117,29.4041103 45.6248117,30.9891103 C45.1118117,31.1201103 44.6438117,31.3041103 44.2448117,31.5461103 C43.0748117,29.4871103 41.7958117,27.3821103 40.4788117,25.4241103 C40.7408117,25.4001103 40.9978117,25.3561103 41.2688117,25.2861103 C42.6378117,24.9361103 43.5998117,24.2171103 44.2028117,23.3021103 C48.4068117,25.9451103 53.3588117,29.8331103 57.6378117,35.2781103 C56.3838117,38.4181103 58.4568117,42.8291103 62.4058117,42.6761103 C64.3598117,46.4531103 65.9218117,50.7491103 66.8288117,55.6311103 C66.9838117,56.4481103 67.0898117,57.2361103 67.1538117,57.9911103 C66.4938117,57.8821103 65.7838117,57.9141103 65.0098117,58.1121103 C59.5568117,59.5091103 60.5078117,66.8661103 64.8278117,68.1611103 C58.1688117,77.4041103 40.0718117,74.7711103 40.0718117,74.7711103 L39.9888117,74.7811103 C38.8698117,75.6041103 25.0328117,85.5381103 15.1768117,80.8371103 C18.3428117,77.6241103 15.6398117,70.7151103 10.1858117,72.1121103 C9.41181167,72.3111103 8.77381167,72.6241103 8.24681167,73.0381103 C7.94081167,72.3441103 7.65481167,71.6031103 7.39781167,70.8111103 C5.84681167,66.0941103 5.15081167,61.5771103 5.04781167,57.3251103 C8.58481167,55.5621103 8.28181167,50.6971103 5.67281167,48.5461103 C6.80681167,41.7151103 9.27881167,35.9251103 11.6948117,31.5861103 C12.6628117,32.0991103 13.8528117,32.2661103 15.2218117,31.9151103 C15.4928117,31.8461103 15.7388117,31.7611103 15.9798117,31.6561103 C15.7668117,34.0061103 15.6578117,36.4671103 15.6218117,38.8351103 C15.1548117,38.8151103 14.6568117,38.8791103 14.1438117,39.0101103 C7.95681167,40.5951103 10.0298117,49.8201103 15.8478117,49.2201103 C15.9358117,50.9451103 16.0198117,51.9851103 16.0198117,51.9851103 C18.9498117,51.5771103 21.4918117,51.6231103 23.6948117,51.9811103 C19.6688117,54.8881103 22.3668117,62.6561103 28.1108117,61.1841103 C31.1398117,60.4091103 32.1948117,57.7901103 31.7888117,55.4071103 C35.4678117,58.2601103 36.7258117,61.7121103 36.7258117,61.7121103 Z" id="Stroke-552" stroke="#000000"></path>
            <path d="M51.7917117,121.65411 C58.2607117,119.99711 55.6937117,109.93311 49.2147117,111.59311 C42.7347117,113.25311 45.3027117,123.31611 51.7917117,121.65411 M70.9377117,98.0841103 C71.6187117,100.32211 73.6017117,102.16211 76.4177117,101.73011 C75.3337117,103.31611 73.9257117,105.39211 72.3317117,107.79411 C71.2737117,106.97111 69.8387117,106.59911 68.1387117,107.03511 C63.2587117,108.28511 63.5157117,114.30911 66.7227117,116.48911 C64.7257117,119.66011 62.7147117,122.98411 60.8657117,126.23411 C59.7657117,124.95011 58.0567117,124.22011 55.9127117,124.76911 C55.3097117,124.92411 54.7787117,125.15511 54.3277117,125.44311 C51.8727117,126.99411 51.6327117,130.23911 52.9447117,132.51911 L49.8067117,133.32311 C47.3277117,131.68511 44.5577117,130.03611 41.6917117,128.43311 C44.2847117,125.07811 41.6037117,118.75311 36.3607117,120.09611 C34.2487117,120.63711 33.1037117,122.06711 32.7367117,123.69411 C28.4497117,121.52211 24.3757117,119.59611 21.1927117,118.13811 C20.7917117,115.35711 18.4297117,112.83111 14.9287117,113.72811 C14.8277117,113.75411 14.7277117,113.78011 14.6317117,113.82611 L14.6337117,111.11311 C18.1167117,111.06811 21.5447117,110.84311 24.8877117,110.50211 C25.2087117,113.34611 27.5947117,116.00511 31.1767117,115.08811 C34.3057117,114.28611 35.3247117,111.52711 34.8047117,109.07711 C38.6967117,108.36911 42.4127117,107.51411 45.9057117,106.58711 C45.9057117,106.58711 46.6207117,106.44611 47.9027117,106.13911 C49.0587117,105.87611 50.6707117,105.47311 52.6447117,104.89311 C53.7407117,106.28411 55.5087117,107.11811 57.7527117,106.54311 C60.2677117,105.89911 61.4097117,103.99811 61.4997117,102.00311 C64.4177117,100.92311 67.6027117,99.6251103 70.9377117,98.0841103" id="Fill-554" fill="#F6A821"></path>
            <path d="M51.7917117,121.65411 C58.2607117,119.99711 55.6937117,109.93311 49.2147117,111.59311 C42.7347117,113.25311 45.3027117,123.31611 51.7917117,121.65411 Z M70.9377117,98.0841103 C71.6187117,100.32211 73.6017117,102.16211 76.4177117,101.73011 C75.3337117,103.31611 73.9257117,105.39211 72.3317117,107.79411 C71.2737117,106.97111 69.8387117,106.59911 68.1387117,107.03511 C63.2587117,108.28511 63.5157117,114.30911 66.7227117,116.48911 C64.7257117,119.66011 62.7147117,122.98411 60.8657117,126.23411 C59.7657117,124.95011 58.0567117,124.22011 55.9127117,124.76911 C55.3097117,124.92411 54.7787117,125.15511 54.3277117,125.44311 C51.8727117,126.99411 51.6327117,130.23911 52.9447117,132.51911 L49.8067117,133.32311 C47.3277117,131.68511 44.5577117,130.03611 41.6917117,128.43311 C44.2847117,125.07811 41.6037117,118.75311 36.3607117,120.09611 C34.2487117,120.63711 33.1037117,122.06711 32.7367117,123.69411 C28.4497117,121.52211 24.3757117,119.59611 21.1927117,118.13811 C20.7917117,115.35711 18.4297117,112.83111 14.9287117,113.72811 C14.8277117,113.75411 14.7277117,113.78011 14.6317117,113.82611 L14.6337117,111.11311 C18.1167117,111.06811 21.5447117,110.84311 24.8877117,110.50211 C25.2087117,113.34611 27.5947117,116.00511 31.1767117,115.08811 C34.3057117,114.28611 35.3247117,111.52711 34.8047117,109.07711 C38.6967117,108.36911 42.4127117,107.51411 45.9057117,106.58711 C45.9057117,106.58711 46.6207117,106.44611 47.9027117,106.13911 C49.0587117,105.87611 50.6707117,105.47311 52.6447117,104.89311 C53.7407117,106.28411 55.5087117,107.11811 57.7527117,106.54311 C60.2677117,105.89911 61.4097117,103.99811 61.4997117,102.00311 C64.4177117,100.92311 67.6027117,99.6251103 70.9377117,98.0841103 Z" id="Stroke-556" stroke="#000000"></path>
            <path d="M76.8004117,95.1888103 L78.6414117,98.5228103 C78.6414117,98.5228103 77.7994117,99.7148103 76.4274117,101.72781 L76.4174117,101.73081 C73.6014117,102.16181 71.6184117,100.32181 70.9384117,98.0848103 C72.8574117,97.2068103 74.8194117,96.2428103 76.8004117,95.1888103" id="Fill-558" fill="#C90E32"></path>
            <path d="M76.8004117,95.1888103 L78.6414117,98.5228103 C78.6414117,98.5228103 77.7994117,99.7148103 76.4274117,101.72781 L76.4174117,101.73081 C73.6014117,102.16181 71.6184117,100.32181 70.9384117,98.0848103 C72.8574117,97.2068103 74.8194117,96.2428103 76.8004117,95.1888103 Z" id="Stroke-560" stroke="#000000"></path>
            <path d="M67.1540117,57.9915103 C67.5680117,62.4095103 66.6120117,65.7105103 64.8280117,68.1615103 C60.5080117,66.8665103 59.5560117,59.5095103 65.0090117,58.1125103 C65.7840117,57.9135103 66.4940117,57.8815103 67.1540117,57.9915103" id="Fill-562" fill="#C90E32"></path>
            <path d="M67.1540117,57.9915103 C67.5680117,62.4095103 66.6120117,65.7105103 64.8280117,68.1615103 C60.5080117,66.8665103 59.5560117,59.5095103 65.0090117,58.1125103 C65.7840117,57.9135103 66.4940117,57.8815103 67.1540117,57.9915103 Z" id="Stroke-564" stroke="#000000"></path>
            <path d="M57.6374117,35.2776103 C59.3704117,37.4816103 60.9964117,39.9386103 62.4064117,42.6756103 C58.4564117,42.8296103 56.3834117,38.4186103 57.6374117,35.2776103" id="Fill-566" fill="#C90E32"></path>
            <path d="M57.6374117,35.2776103 C59.3704117,37.4816103 60.9964117,39.9386103 62.4064117,42.6756103 C58.4564117,42.8296103 56.3834117,38.4186103 57.6374117,35.2776103 Z" id="Stroke-568" stroke="#000000"></path>
            <path d="M57.0749117,45.5960103 C63.5539117,43.9360103 66.1219117,54.0000103 59.6519117,55.6570103 C53.1629117,57.3190103 50.6059117,47.2530103 57.0749117,45.5960103" id="Fill-570" fill="#C90E32"></path>
            <path d="M57.0749117,45.5960103 C63.5539117,43.9360103 66.1219117,54.0000103 59.6519117,55.6570103 C53.1629117,57.3190103 50.6059117,47.2530103 57.0749117,45.5960103 Z" id="Stroke-572" stroke="#000000"></path>
            <path d="M45.6247117,30.9890103 C51.8117117,29.4040103 54.4297117,38.4900103 49.0387117,40.7610103 C47.9807117,38.5550103 46.2787117,35.1320103 44.2447117,31.5460103 C44.6447117,31.3040103 45.1117117,31.1200103 45.6247117,30.9890103" id="Fill-574" fill="#C90E32"></path>
            <path d="M45.6247117,30.9890103 C51.8117117,29.4040103 54.4297117,38.4900103 49.0387117,40.7610103 C47.9807117,38.5550103 46.2787117,35.1320103 44.2447117,31.5460103 C44.6447117,31.3040103 45.1117117,31.1200103 45.6247117,30.9890103 Z" id="Stroke-576" stroke="#000000"></path>
            <path d="M44.2028117,23.3020103 C43.5998117,24.2170103 42.6378117,24.9360103 41.2688117,25.2860103 C40.9978117,25.3560103 40.7408117,25.4000103 40.4788117,25.4240103 C38.7028117,22.8020103 36.8578117,20.4550103 35.0628117,18.8460103 C35.0728117,18.8010103 35.0828117,18.7550103 35.1018117,18.7070103 C36.1448117,19.0940103 39.7558117,20.5060103 44.2028117,23.3020103" id="Fill-578" fill="#C90E32"></path>
            <path d="M44.2028117,23.3020103 C43.5998117,24.2170103 42.6378117,24.9360103 41.2688117,25.2860103 C40.9978117,25.3560103 40.7408117,25.4000103 40.4788117,25.4240103 C38.7028117,22.8020103 36.8578117,20.4550103 35.0628117,18.8460103 C35.0728117,18.8010103 35.0828117,18.7550103 35.1018117,18.7070103 C36.1448117,19.0940103 39.7558117,20.5060103 44.2028117,23.3020103 Z" id="Stroke-580" stroke="#000000"></path>
            <path d="M61.4997117,102.00271 C61.4097117,103.99871 60.2677117,105.89871 57.7527117,106.54371 C55.5087117,107.11771 53.7407117,106.28471 52.6447117,104.89271 C55.1017117,104.18871 58.1187117,103.24371 61.4997117,102.00271" id="Fill-582" fill="#C90E32"></path>
            <path d="M61.4997117,102.00271 C61.4097117,103.99871 60.2677117,105.89871 57.7527117,106.54371 C55.5087117,107.11771 53.7407117,106.28471 52.6447117,104.89271 C55.1017117,104.18871 58.1187117,103.24371 61.4997117,102.00271 Z" id="Stroke-584" stroke="#000000"></path>
            <path d="M43.4850117,46.9539103 C48.4140117,47.5679103 49.7830117,55.6759103 44.0380117,57.1479103 C41.0090117,57.9239103 38.8260117,56.1349103 38.0370117,53.8499103 L38.0340117,53.8399103 C39.0280117,51.5699103 40.6870117,49.1289103 43.4850117,46.9539103" id="Fill-586" fill="#C90E32"></path>
            <path d="M43.4850117,46.9539103 C48.4140117,47.5679103 49.7830117,55.6759103 44.0380117,57.1479103 C41.0090117,57.9239103 38.8260117,56.1349103 38.0370117,53.8499103 L38.0340117,53.8399103 C39.0280117,51.5699103 40.6870117,49.1289103 43.4850117,46.9539103 Z" id="Stroke-588" stroke="#000000"></path>
            <path d="M46.4206117,62.6805103 C52.8996117,61.0205103 55.4666117,71.0845103 48.9976117,72.7415103 C42.5086117,74.4045103 39.9416117,64.3405103 46.4206117,62.6805103" id="Fill-590" fill="#C90E32"></path>
            <path d="M46.4206117,62.6805103 C52.8996117,61.0205103 55.4666117,71.0845103 48.9976117,72.7415103 C42.5086117,74.4045103 39.9416117,64.3405103 46.4206117,62.6805103 Z" id="Stroke-592" stroke="#000000"></path>
            <path d="M55.9127117,124.76891 C58.0567117,124.21991 59.7657117,124.95091 60.8657117,126.23391 C59.8837117,127.92191 58.9687117,129.58191 58.1167117,131.19491 L52.9447117,132.51891 C51.6327117,130.23991 51.8727117,126.99391 54.3277117,125.44291 C54.7787117,125.15591 55.3087117,124.92391 55.9127117,124.76891" id="Fill-594" fill="#C90E32"></path>
            <path d="M55.9127117,124.76891 C58.0567117,124.21991 59.7657117,124.95091 60.8657117,126.23391 C59.8837117,127.92191 58.9687117,129.58191 58.1167117,131.19491 L52.9447117,132.51891 C51.6327117,130.23991 51.8727117,126.99391 54.3277117,125.44291 C54.7787117,125.15591 55.3087117,124.92391 55.9127117,124.76891 Z" id="Stroke-596" stroke="#000000"></path>
            <path d="M49.2145117,111.59311 C55.6935117,109.93311 58.2605117,119.99711 51.7915117,121.65411 C45.3025117,123.31611 42.7355117,113.25311 49.2145117,111.59311" id="Fill-598" fill="#C90E32"></path>
            <path d="M49.2145117,111.59311 C55.6935117,109.93311 58.2605117,119.99711 51.7915117,121.65411 C45.3025117,123.31611 42.7355117,113.25311 49.2145117,111.59311 Z" id="Stroke-600" stroke="#000000"></path>
            <path d="M31.7858117,55.3973103 L31.7888117,55.4073103 C32.1948117,57.7903103 31.1398117,60.4093103 28.1108117,61.1843103 C22.3668117,62.6563103 19.6688117,54.8883103 23.6948117,51.9803103 C27.1948117,52.5423103 29.8218117,53.8843103 31.7858117,55.3973103" id="Fill-602" fill="#C90E32"></path>
            <path d="M31.7858117,55.3973103 L31.7888117,55.4073103 C32.1948117,57.7903103 31.1398117,60.4093103 28.1108117,61.1843103 C22.3668117,62.6563103 19.6688117,54.8883103 23.6948117,51.9803103 C27.1948117,52.5423103 29.8218117,53.8843103 31.7858117,55.3973103 Z" id="Stroke-604" stroke="#000000"></path>
            <path d="M28.6823117,67.1815103 C35.1523117,65.5245103 37.7393117,75.5825103 31.2593117,77.2425103 C24.7903117,78.8995103 22.1933117,68.8435103 28.6823117,67.1815103" id="Fill-606" fill="#C90E32"></path>
            <path d="M28.6823117,67.1815103 C35.1523117,65.5245103 37.7393117,75.5825103 31.2593117,77.2425103 C24.7903117,78.8995103 22.1933117,68.8435103 28.6823117,67.1815103 Z" id="Stroke-608" stroke="#000000"></path>
            <path d="M17.4655117,23.1819103 C17.5055117,23.2149103 17.5365117,23.2489103 17.5675117,23.2849103 C16.7665117,25.5589103 16.2775117,28.5039103 15.9805117,31.6569103 C15.7385117,31.7619103 15.4925117,31.8459103 15.2215117,31.9149103 C13.8535117,32.2659103 12.6625117,32.0989103 11.6945117,31.5859103 C14.2505117,26.9959103 16.7365117,24.0219103 17.4655117,23.1819103" id="Fill-610" fill="#C90E32"></path>
            <path d="M17.4655117,23.1819103 C17.5055117,23.2149103 17.5365117,23.2489103 17.5675117,23.2849103 C16.7665117,25.5589103 16.2775117,28.5039103 15.9805117,31.6569103 C15.7385117,31.7619103 15.4925117,31.8459103 15.2215117,31.9149103 C13.8535117,32.2659103 12.6625117,32.0989103 11.6945117,31.5859103 C14.2505117,26.9959103 16.7365117,24.0219103 17.4655117,23.1819103 Z" id="Stroke-612" stroke="#000000"></path>
            <path d="M36.3610117,120.09601 C41.6030117,118.75301 44.2850117,125.07801 41.6920117,128.43301 C38.7380117,126.77801 35.6910117,125.17801 32.7370117,123.69401 C33.1030117,122.06701 34.2490117,120.63701 36.3610117,120.09601" id="Fill-614" fill="#C90E32"></path>
            <path d="M36.3610117,120.09601 C41.6030117,118.75301 44.2850117,125.07801 41.6920117,128.43301 C38.7380117,126.77801 35.6910117,125.17801 32.7370117,123.69401 C33.1030117,122.06701 34.2490117,120.63701 36.3610117,120.09601 Z" id="Stroke-616" stroke="#000000"></path>
            <path d="M34.8043117,109.07701 C35.3253117,111.52701 34.3053117,114.28601 31.1763117,115.08801 C27.5943117,116.00501 25.2083117,113.34701 24.8873117,110.50201 C28.2933117,110.15501 31.6113117,109.67001 34.8043117,109.07701" id="Fill-618" fill="#C90E32"></path>
            <path d="M34.8043117,109.07701 C35.3253117,111.52701 34.3053117,114.28601 31.1763117,115.08801 C27.5943117,116.00501 25.2083117,113.34701 24.8873117,110.50201 C28.2933117,110.15501 31.6113117,109.67001 34.8043117,109.07701 Z" id="Stroke-620" stroke="#000000"></path>
            <path d="M14.1442117,39.0101103 C14.6572117,38.8791103 15.1552117,38.8151103 15.6222117,38.8351103 C15.5622117,42.9571103 15.7152117,46.7771103 15.8472117,49.2201103 C10.0302117,49.8201103 7.95721167,40.5951103 14.1442117,39.0101103" id="Fill-622" fill="#C90E32"></path>
            <path d="M14.1442117,39.0101103 C14.6572117,38.8791103 15.1552117,38.8151103 15.6222117,38.8351103 C15.5622117,42.9571103 15.7152117,46.7771103 15.8472117,49.2201103 C10.0302117,49.8201103 7.95721167,40.5951103 14.1442117,39.0101103 Z" id="Stroke-624" stroke="#000000"></path>
            <path d="M11.1266117,57.3231103 C17.5956117,55.6661103 20.1826117,65.7241103 13.7036117,67.3841103 C7.22461167,69.0441103 4.63661167,58.9851103 11.1266117,57.3231103" id="Fill-626" fill="#C90E32"></path>
            <path d="M11.1266117,57.3231103 C17.5956117,55.6661103 20.1826117,65.7241103 13.7036117,67.3841103 C7.22461167,69.0441103 4.63661167,58.9851103 11.1266117,57.3231103 Z" id="Stroke-628" stroke="#000000"></path>
            <path d="M10.1862117,72.1121103 C15.6392117,70.7151103 18.3422117,77.6241103 15.1762117,80.8371103 C12.4332117,79.5451103 10.0082117,77.1111103 8.24721167,73.0381103 C8.77421167,72.6241103 9.41221167,72.3111103 10.1862117,72.1121103" id="Fill-630" fill="#C90E32"></path>
            <path d="M10.1862117,72.1121103 C15.6392117,70.7151103 18.3422117,77.6241103 15.1762117,80.8371103 C12.4332117,79.5451103 10.0082117,77.1111103 8.24721167,73.0381103 C8.77421167,72.6241103 9.41221167,72.3111103 10.1862117,72.1121103 Z" id="Stroke-632" stroke="#000000"></path>
            <path d="M5.67251167,48.5457103 C8.28151167,50.6967103 8.58451167,55.5617103 5.04751167,57.3257103 C4.96751167,54.2477103 5.21251167,51.3117103 5.67251167,48.5457103" id="Fill-634" fill="#C90E32"></path>
            <path d="M5.67251167,48.5457103 C8.28151167,50.6967103 8.58451167,55.5617103 5.04751167,57.3257103 C4.96751167,54.2477103 5.21251167,51.3117103 5.67251167,48.5457103 Z" id="Stroke-636" stroke="#000000"></path>
            <path d="M14.9284117,113.72831 C18.4294117,112.83131 20.7914117,115.35731 21.1934117,118.13831 C17.2334117,116.32231 14.6214117,115.21131 14.6214117,115.21131 L14.6314117,113.82631 C14.7274117,113.78031 14.8274117,113.75431 14.9284117,113.72831" id="Fill-638" fill="#C90E32"></path>
            <path d="M14.9284117,113.72831 C18.4294117,112.83131 20.7914117,115.35731 21.1934117,118.13831 C17.2334117,116.32231 14.6214117,115.21131 14.6214117,115.21131 L14.6314117,113.82631 C14.7274117,113.78031 14.8274117,113.75431 14.9284117,113.72831 Z" id="Stroke-640" stroke="#000000"></path>
            <polygon id="Fill-642" fill="#B2B2B2" points="98.3356117 15.9046103 91.3146117 54.2866103 87.2696117 53.5476103 94.2906117 15.1646103"></polygon>
            <polygon id="Stroke-644" stroke="#000000" points="98.3356117 15.9046103 91.3146117 54.2866103 87.2696117 53.5476103 94.2906117 15.1646103"></polygon>
            <polygon id="Fill-646" fill="#B2B2B2" points="133.826812 22.3968103 126.805812 60.7798103 122.760812 60.0398103 129.781812 21.6568103"></polygon>
            <polygon id="Stroke-648" stroke="#000000" points="133.826812 22.3968103 126.805812 60.7798103 122.760812 60.0398103 129.781812 21.6568103"></polygon>
            <path d="M130.877612,125.15801 L131.732612,120.47901 L132.439612,116.61701 C133.271612,112.07101 130.232612,107.67201 125.686612,106.84001 L75.6886117,97.6940103 C71.1416117,96.8630103 66.7426117,99.9010103 65.9106117,104.44801 L65.2046117,108.30901 L64.3486117,112.98801 L60.3156117,135.03501 C59.4836117,139.58101 62.5226117,143.98001 67.0686117,144.81201 L117.066612,153.95801 C121.613612,154.78901 126.012612,151.75101 126.844612,147.20501 L130.877612,125.15801 Z M146.383612,77.0410103 L133.131612,149.48501 C131.942612,155.98201 125.845612,160.39901 119.380612,159.60701 C119.131612,159.58301 118.874612,159.54601 118.629612,159.50201 L111.314612,158.16301 L72.0946117,150.98901 L65.1776117,149.72401 C64.8196117,149.65801 64.4666117,149.57301 64.1136117,149.47601 C57.9716117,147.79301 53.9826117,141.60501 55.1506117,135.22001 L68.4026117,62.7760103 C69.6366117,56.0330103 76.1746117,51.5170103 82.9166117,52.7510103 L87.2696117,53.5470103 L91.3146117,54.2870103 L122.760612,60.0390103 L126.806612,60.7800103 L136.368612,62.5290103 C143.110612,63.7620103 147.616612,70.2980103 146.383612,77.0410103 L146.383612,77.0410103 Z M138.971612,79.8130103 C138.808612,76.6050103 136.449612,73.7990103 133.160612,73.1970103 L80.6076117,63.5830103 C76.7666117,62.8810103 73.0466117,65.4420103 72.3416117,69.2930103 L69.6576117,83.9640103 C68.9556117,87.8050103 71.5256117,91.5270103 75.3676117,92.2300103 L127.920612,101.84301 C131.761612,102.54601 135.483612,99.9750103 136.186612,96.1340103 L138.869612,81.4630103 C138.973612,80.9010103 139.008612,80.3590103 138.971612,79.8130103 L138.971612,79.8130103 Z" id="Fill-650" fill="#08AAEB"></path>
            <path d="M130.877612,125.15801 L131.732612,120.47901 L132.439612,116.61701 C133.271612,112.07101 130.232612,107.67201 125.686612,106.84001 L75.6886117,97.6940103 C71.1416117,96.8630103 66.7426117,99.9010103 65.9106117,104.44801 L65.2046117,108.30901 L64.3486117,112.98801 L60.3156117,135.03501 C59.4836117,139.58101 62.5226117,143.98001 67.0686117,144.81201 L117.066612,153.95801 C121.613612,154.78901 126.012612,151.75101 126.844612,147.20501 L130.877612,125.15801 Z M146.383612,77.0410103 L133.131612,149.48501 C131.942612,155.98201 125.845612,160.39901 119.380612,159.60701 C119.131612,159.58301 118.874612,159.54601 118.629612,159.50201 L111.314612,158.16301 L72.0946117,150.98901 L65.1776117,149.72401 C64.8196117,149.65801 64.4666117,149.57301 64.1136117,149.47601 C57.9716117,147.79301 53.9826117,141.60501 55.1506117,135.22001 L68.4026117,62.7760103 C69.6366117,56.0330103 76.1746117,51.5170103 82.9166117,52.7510103 L87.2696117,53.5470103 L91.3146117,54.2870103 L122.760612,60.0390103 L126.806612,60.7800103 L136.368612,62.5290103 C143.110612,63.7620103 147.616612,70.2980103 146.383612,77.0410103 Z M138.971612,79.8130103 C138.808612,76.6050103 136.449612,73.7990103 133.160612,73.1970103 L80.6076117,63.5830103 C76.7666117,62.8810103 73.0466117,65.4420103 72.3416117,69.2930103 L69.6576117,83.9640103 C68.9556117,87.8050103 71.5256117,91.5270103 75.3676117,92.2300103 L127.920612,101.84301 C131.761612,102.54601 135.483612,99.9750103 136.186612,96.1340103 L138.869612,81.4630103 C138.973612,80.9010103 139.008612,80.3590103 138.971612,79.8130103 Z" id="Stroke-652" stroke="#000000"></path>
            <path d="M130.877612,125.15801 L126.844612,147.20501 C126.012612,151.75101 121.613612,154.78901 117.066612,153.95801 L67.0686117,144.81201 C62.5226117,143.98001 59.4836117,139.58101 60.3156117,135.03501 L64.3486117,112.98801 L69.9876117,114.02001 L74.8106117,114.90201 L91.6156117,117.97601 L97.6126117,119.07301 L113.519612,121.98301 L117.789612,122.76401 L130.877612,125.15801 Z" id="Fill-654" fill="#99D9D9"></path>
            <path d="M130.877612,125.15801 L126.844612,147.20501 C126.012612,151.75101 121.613612,154.78901 117.066612,153.95801 L67.0686117,144.81201 C62.5226117,143.98001 59.4836117,139.58101 60.3156117,135.03501 L64.3486117,112.98801 L69.9876117,114.02001 L74.8106117,114.90201 L91.6156117,117.97601 L97.6126117,119.07301 L113.519612,121.98301 L117.789612,122.76401 L130.877612,125.15801 Z" id="Stroke-656" stroke="#000000"></path>
            <path d="M132.439112,116.61701 L131.733112,120.47901 L127.595112,119.72201 L124.847112,119.22001 L109.972112,116.49801 L105.702112,115.71701 L88.3441117,112.54201 L83.2471117,111.61001 L65.2051117,108.30901 L65.9111117,104.44801 C66.7431117,99.9010103 71.1411117,96.8630103 75.6881117,97.6940103 L125.686112,106.84001 C130.233112,107.67201 133.271112,112.07101 132.439112,116.61701" id="Fill-658" fill="#99D9D9"></path>
            <path d="M132.439112,116.61701 L131.733112,120.47901 L127.595112,119.72201 L124.847112,119.22001 L109.972112,116.49801 L105.702112,115.71701 L88.3441117,112.54201 L83.2471117,111.61001 L65.2051117,108.30901 L65.9111117,104.44801 C66.7431117,99.9010103 71.1411117,96.8630103 75.6881117,97.6940103 L125.686112,106.84001 C130.233112,107.67201 133.271112,112.07101 132.439112,116.61701 Z" id="Stroke-660" stroke="#000000"></path>
            <path d="M138.869812,81.4632103 L136.185812,96.1332103 C135.483812,99.9752103 131.761812,102.54621 127.920812,101.84321 L75.3678117,92.2302103 C71.5258117,91.5272103 68.9558117,87.8052103 69.6578117,83.9632103 L72.3418117,69.2932103 C72.3418117,69.2932103 83.6738117,78.5142103 104.264812,82.7132103 C123.360812,86.5972103 137.091812,80.6832103 138.971812,79.8132103 C139.008812,80.3592103 138.973812,80.9012103 138.869812,81.4632103" id="Fill-662" fill="#99D9D9"></path>
            <path d="M138.869812,81.4632103 L136.185812,96.1332103 C135.483812,99.9752103 131.761812,102.54621 127.920812,101.84321 L75.3678117,92.2302103 C71.5258117,91.5272103 68.9558117,87.8052103 69.6578117,83.9632103 L72.3418117,69.2932103 C72.3418117,69.2932103 83.6738117,78.5142103 104.264812,82.7132103 C123.360812,86.5972103 137.091812,80.6832103 138.971812,79.8132103 C139.008812,80.3592103 138.973812,80.9012103 138.869812,81.4632103 Z" id="Stroke-664" stroke="#000000"></path>
            <path d="M110.655912,78.9944103 C110.775912,78.3404103 110.343912,77.7024103 109.689912,77.5824103 L98.4829117,75.5324103 C97.8289117,75.4124103 97.1879117,75.8544103 97.0689117,76.5084103 C96.9489117,77.1624103 97.3909117,77.8034103 98.0459117,77.9224103 L109.252912,79.9734103 C109.906912,80.0924103 110.536912,79.6484103 110.655912,78.9944103 L110.655912,78.9944103 Z M133.160912,73.1964103 C136.449912,73.7984103 138.807912,76.6054103 138.970912,79.8134103 C137.091912,80.6834103 123.360912,86.5974103 104.263912,82.7134103 C83.6739117,78.5144103 72.3419117,69.2934103 72.3419117,69.2934103 C73.0469117,65.4414103 76.7659117,62.8804103 80.6079117,63.5834103 L133.160912,73.1964103 Z" id="Fill-666" fill="#99D9D9"></path>
            <path d="M110.655912,78.9944103 C110.775912,78.3404103 110.343912,77.7024103 109.689912,77.5824103 L98.4829117,75.5324103 C97.8289117,75.4124103 97.1879117,75.8544103 97.0689117,76.5084103 C96.9489117,77.1624103 97.3909117,77.8034103 98.0459117,77.9224103 L109.252912,79.9734103 C109.906912,80.0924103 110.536912,79.6484103 110.655912,78.9944103 Z M133.160912,73.1964103 C136.449912,73.7984103 138.807912,76.6054103 138.970912,79.8134103 C137.091912,80.6834103 123.360912,86.5974103 104.263912,82.7134103 C83.6739117,78.5144103 72.3419117,69.2934103 72.3419117,69.2934103 C73.0469117,65.4414103 76.7659117,62.8804103 80.6079117,63.5834103 L133.160912,73.1964103 Z" id="Stroke-668" stroke="#000000"></path>
            <path d="M119.380512,159.60721 L119.375512,159.63821 C118.498512,164.42921 115.978512,167.99121 113.761512,167.58621 C111.533512,167.17821 110.438512,162.95521 111.314512,158.16321 L118.629512,159.50221 C118.874512,159.54621 119.131512,159.58321 119.380512,159.60721" id="Fill-670" fill="#272938"></path>
            <path d="M119.380512,159.60721 L119.375512,159.63821 C118.498512,164.42921 115.978512,167.99121 113.761512,167.58621 C111.533512,167.17821 110.438512,162.95521 111.314512,158.16321 L118.629512,159.50221 C118.874512,159.54621 119.131512,159.58321 119.380512,159.60721 Z" id="Stroke-672" stroke="#000000"></path>
            <path d="M140.475212,16.2430103 L139.647212,20.7690103 C139.385212,22.2000103 138.005212,23.1610103 136.565212,22.8980103 L133.827212,22.3970103 L129.782212,21.6570103 L98.3352117,15.9050103 L94.2902117,15.1640103 L90.8772117,14.5400103 C89.4482117,14.2790103 88.4882117,12.8890103 88.7492117,11.4580103 L89.5772117,6.93201026 C89.8382117,5.50201026 91.2292117,4.54201026 92.6592117,4.80401026 L138.346212,13.1610103 C139.787212,13.4250103 140.736212,14.8130103 140.475212,16.2430103" id="Fill-674" fill="#272938"></path>
            <path d="M140.475212,16.2430103 L139.647212,20.7690103 C139.385212,22.2000103 138.005212,23.1610103 136.565212,22.8980103 L133.827212,22.3970103 L129.782212,21.6570103 L98.3352117,15.9050103 L94.2902117,15.1640103 L90.8772117,14.5400103 C89.4482117,14.2790103 88.4882117,12.8890103 88.7492117,11.4580103 L89.5772117,6.93201026 C89.8382117,5.50201026 91.2292117,4.54201026 92.6592117,4.80401026 L138.346212,13.1610103 C139.787212,13.4250103 140.736212,14.8130103 140.475212,16.2430103 Z" id="Stroke-676" stroke="#000000"></path>
            <path d="M109.690112,77.5823103 C110.343112,77.7023103 110.776112,78.3403103 110.656112,78.9943103 C110.537112,79.6483103 109.907112,80.0923103 109.253112,79.9733103 L98.0451117,77.9223103 C97.3911117,77.8033103 96.9491117,77.1623103 97.0691117,76.5083103 C97.1881117,75.8543103 97.8291117,75.4123103 98.4831117,75.5323103 L109.690112,77.5823103 Z" id="Fill-678" fill="#272938"></path>
            <path d="M109.690112,77.5823103 C110.343112,77.7023103 110.776112,78.3403103 110.656112,78.9943103 C110.537112,79.6483103 109.907112,80.0923103 109.253112,79.9733103 L98.0451117,77.9223103 C97.3911117,77.8033103 96.9491117,77.1623103 97.0691117,76.5083103 C97.1881117,75.8543103 97.8291117,75.4123103 98.4831117,75.5323103 L109.690112,77.5823103 Z" id="Stroke-680" stroke="#000000"></path>
            <path d="M72.0944117,150.98911 C72.0564117,151.30911 72.0074117,151.63811 71.9474117,151.96511 C71.0714117,156.75711 68.5624117,160.31011 66.3354117,159.90311 C64.1084117,159.49511 63.0204117,155.28411 63.8974117,150.49211 C63.9604117,150.14511 64.0314117,149.81011 64.1144117,149.47611 C64.4664117,149.57211 64.8204117,149.65811 65.1774117,149.72411 L72.0944117,150.98911 Z" id="Fill-682" fill="#272938"></path>
            <path d="M72.0944117,150.98911 C72.0564117,151.30911 72.0074117,151.63811 71.9474117,151.96511 C71.0714117,156.75711 68.5624117,160.31011 66.3354117,159.90311 C64.1084117,159.49511 63.0204117,155.28411 63.8974117,150.49211 C63.9604117,150.14511 64.0314117,149.81011 64.1144117,149.47611 C64.4664117,149.57211 64.8204117,149.65811 65.1774117,149.72411 L72.0944117,150.98911 Z" id="Stroke-684" stroke="#000000"></path>
        </g>
    </g>
</svg>