<?xml version="1.0" encoding="UTF-8"?>
<svg width="120px" height="106px" viewBox="0 0 120 106" version="1.1" xmlns="http://www.w3.org/2000/svg" xmlns:xlink="http://www.w3.org/1999/xlink">
    <!-- Generator: Sketch 53.1 (72631) - https://sketchapp.com -->
    <title>Group 975</title>
    <desc>Created with Sketch.</desc>
    <g id="Page-1" stroke="none" stroke-width="1" fill="none" fill-rule="evenodd">
        <g id="Group-97">
            <path d="M110.058948,89.937748 C108.001948,88.763748 106.518948,87.074748 104.831948,85.502748 C108.552948,81.708748 111.316948,76.463748 113.354948,70.900748 C119.369948,59.415748 121.372948,45.898748 118.269948,32.685748 C117.833948,28.871748 116.931948,24.937748 114.943948,22.012748 C114.820948,21.832748 114.657948,21.734748 114.485948,21.692748 C110.873948,13.959748 105.324948,7.05674802 97.5619482,3.52874802 C86.4959482,-1.49925198 73.3619482,-0.319251984 61.7579482,1.94374802 C37.9119482,6.59374802 14.8659482,20.392748 4.97094823,43.397748 C0.420948228,53.976748 -1.29505177,65.830748 1.04194823,77.177748 C3.36494823,88.461748 9.92794823,99.924748 21.2879482,103.936748 C28.0939482,106.339748 35.5559482,105.904748 42.6419482,105.594748 C50.8939482,105.232748 59.1599482,104.797748 67.3219482,103.458748 C75.3219482,102.146748 83.2989482,99.788748 90.4339482,95.972748 C100.641948,101.779748 114.228948,100.620748 114.716948,100.328748 C115.334948,100.170748 115.725948,99.751748 115.907948,99.235748 C117.111948,97.587748 116.886948,95.281748 115.756948,93.630748 C114.397948,91.643748 112.041948,91.069748 110.058948,89.937748" id="Fill-117" fill="#FFFDFE"></path>
            <path d="M110.364648,93.059848 C108.723648,92.624848 107.105648,92.131848 105.508648,91.577848 C102.866648,89.768848 100.090648,87.715848 98.5686482,85.139848 C99.7036482,84.052848 119.717648,60.940848 113.693648,33.823848 C111.323648,23.151848 105.010648,12.018848 94.6686482,7.31884802 C84.4516482,2.67684802 72.3256482,3.76684802 61.6126482,5.85484802 C39.5956482,10.147848 18.3176482,22.888848 9.18264823,44.127848 C4.98164823,53.894848 3.39864823,64.839848 5.55464823,75.315848 C7.69964823,85.733848 13.7596482,96.317848 24.2486482,100.021848 C30.5326482,102.240848 37.4216482,101.838848 43.9636482,101.552848 C51.5826482,101.218848 59.2136482,100.816848 66.7496482,99.580848 C74.1356482,98.369848 81.5006482,96.191848 88.0886482,92.668848 C93.6256482,95.983848 99.9316482,97.486848 106.347648,97.163848 C106.730648,97.265848 110.044648,96.782848 110.364648,96.728848 C112.274648,96.405848 112.076648,93.513848 110.364648,93.059848" id="Fill-119" fill="#F7CE7A"></path>
            <path d="M77.7737482,5.07004802 C71.9417482,5.07004802 66.3297482,5.95404802 61.8037482,6.83704802 C37.5447482,11.567048 18.2157482,25.655048 10.1017482,44.523048 C5.73774823,54.670048 4.50374823,65.248048 6.53474823,75.114048 C8.97974823,86.993048 15.7257482,95.952048 24.5817482,99.079048 C30.4497482,101.151048 36.9267482,100.863048 43.1897482,100.586048 L43.9197482,100.553048 C51.6257482,100.216048 59.1567482,99.813048 66.5867482,98.594048 C74.5327482,97.291048 81.6077482,95.001048 87.6167482,91.787048 L88.1157482,91.520048 L88.6017482,91.811048 C93.8887482,94.976048 100.010748,96.478048 106.296748,96.165048 L106.454748,96.157048 L106.534748,96.178048 C107.089748,96.216048 109.629748,95.839048 110.199748,95.743048 C110.527748,95.687048 110.704748,95.459048 110.722748,95.065048 C110.741748,94.646048 110.533748,94.139048 110.108748,94.027048 C108.444748,93.586048 106.786748,93.080048 105.179748,92.523048 L104.942748,92.403048 C102.305748,90.597048 99.3537482,88.436048 97.7077482,85.648048 L97.3047482,84.965048 L97.8777482,84.417048 C98.0917482,84.212048 118.744748,61.173048 112.716748,34.040048 C110.022748,21.907048 103.120748,12.258048 94.2537482,8.22904802 C89.0607482,5.86904802 83.3187482,5.07004802 77.7737482,5.07004802 M36.6067482,102.780048 C32.3117482,102.780048 28.0177482,102.414048 23.9157482,100.965048 C14.3927482,97.603048 7.16374823,88.090048 4.57574823,75.518048 C2.46174823,65.248048 3.73774823,54.257048 8.26374823,43.733048 C16.6397482,24.257048 36.5117482,9.73104802 61.4207482,4.87404802 C70.5187482,3.10004802 83.9057482,1.33004802 95.0827482,6.40804802 C104.516748,10.696048 111.839748,20.864048 114.669748,33.607048 C120.348748,59.174048 103.162748,81.253048 99.8127482,85.227048 C101.295748,87.361048 103.735748,89.148048 105.961748,90.677048 C107.481748,91.200048 109.047748,91.676048 110.620748,92.093048 C111.902748,92.433048 112.786748,93.721048 112.720748,95.156048 C112.659748,96.496048 111.799748,97.501048 110.531748,97.715048 C110.496748,97.721048 107.445748,98.199048 106.367748,98.164048 C99.8737482,98.487048 93.5677482,96.982048 88.0627482,93.814048 C81.9687482,96.993048 74.8557482,99.264048 66.9117482,100.568048 C59.3727482,101.804048 51.7747482,102.212048 44.0067482,102.551048 L43.2787482,102.584048 C41.0717482,102.682048 38.8387482,102.780048 36.6067482,102.780048" id="Fill-121" fill="#020202"></path>
            <path d="M39.4163482,72.771248 C38.6433482,72.771248 38.2583482,72.265248 38.2583482,71.254248 C38.2583482,65.458248 38.1233482,60.091248 37.8553482,55.157248 C37.0373482,55.008248 36.2733482,54.933248 35.5593482,54.933248 C34.8463482,54.933248 34.2073482,55.052248 33.6433482,55.291248 C33.6433482,56.985248 33.7683482,59.549248 34.0213482,62.983248 C34.2733482,66.417248 34.4003482,69.010248 34.4003482,70.764248 C34.4003482,71.062248 34.3113482,71.336248 34.1333482,71.589248 C33.9533482,71.842248 33.7173482,71.968248 33.4183482,71.968248 C32.5863482,71.983248 31.9773482,69.375248 31.5903482,64.142248 C31.0703482,57.051248 30.8113482,48.475248 30.8113482,38.412248 C30.8113482,37.862248 31.0703482,37.586248 31.5903482,37.586248 C31.8733482,37.586248 32.1783482,37.665248 32.5043482,37.821248 C32.8323482,37.977248 33.0623482,38.144248 33.1953482,38.323248 C33.0923482,39.408248 33.0393482,40.552248 33.0393482,41.756248 L33.3523482,51.143248 L33.3073482,52.860248 C33.3073482,53.292248 33.3363482,53.685248 33.3963482,54.042248 L37.8343482,53.708248 L37.6543482,38.724248 L37.6543482,37.520248 C38.8143482,37.520248 39.5063482,38.041248 39.7283482,39.081248 C39.8323482,39.586248 39.8853482,40.872248 39.8853482,42.938248 C39.8853482,45.004248 40.0293482,49.385248 40.3203482,56.082248 C40.6093482,62.779248 40.7543482,67.792248 40.7543482,71.121248 C40.7543482,71.522248 40.6273482,71.898248 40.3753482,72.247248 C40.1233482,72.596248 39.8033482,72.771248 39.4163482,72.771248" id="Fill-123" fill="#020202"></path>
            <path d="M44.0101482,49.025148 L43.7641482,45.168148 C43.7641482,43.012148 44.4051482,41.935148 45.6821482,41.935148 C46.5001482,41.935148 47.6141482,42.125148 49.0281482,42.504148 C50.4401482,42.882148 51.1451482,43.370148 51.1451482,43.963148 C51.1451482,44.588148 50.6991482,45.064148 49.8071482,45.390148 C48.3951482,44.916148 47.2421482,44.626148 46.3521482,44.521148 C46.3971482,45.175148 46.4181482,45.830148 46.4181482,46.483148 L46.2171482,53.039148 C46.2171482,53.068148 46.2621482,53.306148 46.3521482,53.752148 L47.9791482,53.685148 C49.4491482,53.685148 50.1861482,54.101148 50.1861482,54.933148 C50.1861482,55.260148 50.0531482,55.546148 49.7851482,55.792148 C49.5181482,56.038148 49.1801482,56.160148 48.7701482,56.160148 C48.3621482,56.160148 47.9201482,56.130148 47.4441482,56.071148 L46.2831482,56.071148 C46.3731482,57.230148 46.4181482,58.382148 46.4181482,59.527148 L46.2171482,67.798148 C46.2171482,69.508148 46.2461482,70.363148 46.3071482,70.363148 L49.6741482,70.252148 C50.8321482,70.252148 51.4121482,70.623148 51.4121482,71.366148 C51.4121482,71.827148 51.2111482,72.161148 50.8111482,72.370148 C50.4081482,72.578148 49.9551482,72.681148 49.4491482,72.681148 L45.5941482,72.681148 C45.1921482,72.681148 44.8261482,72.545148 44.5001482,72.269148 C44.1741482,71.995148 44.0021482,71.664148 43.9891482,71.277148 L43.9891482,70.073148 L43.6981482,62.358148 L44.0101482,49.025148 Z" id="Fill-125" fill="#020202"></path>
            <path d="M56.4730482,46.483148 L56.6080482,57.453148 C56.4280482,57.870148 56.3400482,58.389148 56.3400482,59.014148 L56.3400482,59.928148 L56.1610482,67.197148 C56.1610482,69.293148 56.6740482,70.340148 57.7000482,70.340148 L59.5940482,70.274148 C61.2310482,70.274148 62.0470482,70.719148 62.0470482,71.612148 C62.0470482,71.939148 61.9070482,72.210148 61.6230482,72.425148 C61.3420482,72.640148 61.0220482,72.771148 60.6640482,72.815148 C59.5510482,72.459148 58.1900482,72.280148 56.5840482,72.280148 C56.0940482,72.562148 55.6210482,72.704148 55.1680482,72.704148 C54.7150482,72.704148 54.3640482,72.547148 54.1100482,72.236148 C53.8580482,71.923148 53.7310482,71.582148 53.7310482,71.211148 C53.7310482,68.951148 53.8280482,65.550148 54.0220482,61.009148 C54.2130482,56.468148 54.3110482,53.068148 54.3110482,50.809148 L54.3110482,50.474148 C54.1330482,48.572148 54.0430482,47.145148 54.0430482,46.193148 C54.0430482,43.310148 54.5710482,41.868148 55.6250482,41.868148 C55.9380482,41.868148 56.2090482,41.979148 56.4400482,42.203148 C56.6700482,42.425148 56.7850482,42.693148 56.7850482,43.004148 L56.4730482,46.483148 Z" id="Fill-127" fill="#020202"></path>
            <path d="M66.8870482,46.483148 L67.0200482,57.453148 C66.8420482,57.870148 66.7520482,58.389148 66.7520482,59.014148 L66.7520482,59.928148 L66.5750482,67.197148 C66.5750482,69.293148 67.0880482,70.340148 68.1140482,70.340148 L70.0080482,70.274148 C71.6430482,70.274148 72.4610482,70.719148 72.4610482,71.612148 C72.4610482,71.939148 72.3190482,72.210148 72.0370482,72.425148 C71.7540482,72.640148 71.4360482,72.771148 71.0780482,72.815148 C69.9630482,72.459148 68.6040482,72.280148 66.9980482,72.280148 C66.5080482,72.562148 66.0350482,72.704148 65.5820482,72.704148 C65.1290482,72.704148 64.7760482,72.547148 64.5240482,72.236148 C64.2700482,71.923148 64.1450482,71.582148 64.1450482,71.211148 C64.1450482,68.951148 64.2410482,65.550148 64.4340482,61.009148 C64.6270482,56.468148 64.7230482,53.068148 64.7230482,50.809148 L64.7230482,50.474148 C64.5450482,48.572148 64.4550482,47.145148 64.4550482,46.193148 C64.4550482,43.310148 64.9830482,41.868148 66.0390482,41.868148 C66.3520482,41.868148 66.6230482,41.979148 66.8540482,42.203148 C67.0840482,42.425148 67.1990482,42.693148 67.1990482,43.004148 L66.8870482,46.483148 Z" id="Fill-129" fill="#020202"></path>
            <path d="M76.8968482,51.878648 L76.6738482,56.093648 C76.6738482,60.507648 77.0318482,64.357648 77.7448482,67.642648 C78.5018482,69.560648 79.2228482,70.690648 79.9068482,71.031648 C80.4578482,71.031648 80.9558482,70.809648 81.4008482,70.362648 C81.8478482,69.916648 82.1998482,69.318648 82.4608482,68.567648 C82.7208482,67.817648 82.9398482,67.025648 83.1178482,66.192648 C83.2818482,65.376648 83.4088482,64.498648 83.4968482,63.562648 C83.6448482,61.941648 83.7208482,60.560648 83.7208482,59.415648 C83.7208482,58.271648 83.6198482,56.516648 83.4178482,54.152648 C83.2188482,51.789648 83.1178482,50.027648 83.1178482,48.868648 L83.1178482,48.065648 C83.0878482,46.951648 82.7248482,45.959648 82.0258482,45.089648 C81.3268482,44.220648 80.4338482,43.785648 79.3498482,43.785648 C78.3088482,43.785648 77.6178482,44.372648 77.2758482,45.546648 C76.9948482,46.527648 76.8518482,47.739648 76.8518482,49.181648 L76.8968482,51.878648 Z M74.1998482,58.121648 L74.2448482,56.382648 C74.2448482,56.234648 74.2208482,56.159648 74.1778482,56.159648 L74.1778482,55.334648 C74.1778482,50.548648 74.4518482,47.145648 75.0018482,45.122648 C75.4628482,43.413648 75.9088482,42.357648 76.3398482,41.956648 C76.7718482,41.555648 77.1938482,41.355648 77.6118482,41.355648 C81.1488482,41.355648 83.5858482,43.138648 84.9238482,46.706648 C85.6978482,48.757648 86.0848482,51.284648 86.0848482,54.286648 L86.0848482,54.621648 L86.1718482,59.794648 C86.1718482,68.549648 84.1428482,72.927648 80.0858482,72.927648 C78.4068482,72.927648 77.1198482,71.998648 76.2288482,70.140648 C75.3808482,68.356648 74.8618482,66.602648 74.6678482,64.877648 C74.3558482,62.276648 74.1998482,60.024648 74.1998482,58.121648 L74.1998482,58.121648 Z" id="Fill-131" fill="#020202"></path>
            <path d="M91.6351482,59.972448 L91.6801482,62.135448 C91.6801482,64.216448 91.3971482,65.257448 90.8321482,65.257448 C90.5201482,65.257448 90.2351482,64.885448 89.9731482,64.142448 C89.7131482,63.399448 89.5841482,62.462448 89.5841482,61.332448 L89.7621482,53.774448 L89.5391482,38.790448 C89.5391482,38.315448 89.7401482,37.903448 90.1411482,37.553448 C90.5431482,37.204448 90.9441482,37.030448 91.3461482,37.030448 C91.7461482,37.030448 92.0551482,37.137448 92.2701482,37.353448 C92.4871482,37.568448 92.5941482,37.832448 92.5941482,38.144448 C92.5941482,40.582448 92.4341482,44.224448 92.1141482,49.070448 C91.7951482,53.915448 91.6351482,57.550448 91.6351482,59.972448 M92.2601482,71.499448 C92.2601482,72.570448 91.5081482,73.105448 90.0081482,73.105448 C89.6641482,73.105448 89.3261482,72.946448 88.9921482,72.625448 C88.6581482,72.306448 88.4901482,71.882448 88.4901482,71.355448 C88.4901482,70.827448 88.6761482,70.352448 89.0491482,69.928448 C89.4201482,69.504448 89.8811482,69.292448 90.4301482,69.292448 C90.9811482,69.292448 91.4221482,69.508448 91.7581482,69.939448 C92.0921482,70.370448 92.2601482,70.890448 92.2601482,71.499448" id="Fill-133" fill="#020202"></path>
        </g>
    </g>
</svg>