<?xml version="1.0" encoding="UTF-8"?>
<svg width="122px" height="90px" viewBox="0 0 122 90" version="1.1" xmlns="http://www.w3.org/2000/svg" xmlns:xlink="http://www.w3.org/1999/xlink">
    <!-- Generator: Sketch 53.1 (72631) - https://sketchapp.com -->
    <title>Group 67sticker2</title>
    <desc>Created with Sketch.</desc>
    <g id="Page-1" stroke="none" stroke-width="1" fill="none" fill-rule="evenodd">
        <g id="Group-67" transform="translate(0.103087, 0.683705)">
            <path d="M64.4750129,46.3721953 C69.3540129,40.3881953 83.3780129,29.4101953 82.1900129,25.2431953 C80.9460129,20.8811953 60.3510129,23.2941953 52.7730129,24.4401953 L52.7590129,24.4401953 C51.8510129,24.5801953 51.2070129,24.6641953 50.9130129,24.6641953 C50.8280129,24.6641953 50.7400129,24.6331953 50.6480129,24.5761953 C50.6250129,24.5611953 50.6010129,24.5311953 50.5780129,24.5141953 C50.5070129,24.4591953 50.4380129,24.4031953 50.3660129,24.3191953 C50.3420129,24.2921953 50.3180129,24.2531953 50.2940129,24.2231953 C50.2190129,24.1271953 50.1430129,24.0261953 50.0660129,23.9011953 C50.0460129,23.8701953 50.0260129,23.8301953 50.0060129,23.7981953 C49.9210129,23.6551953 49.8350129,23.5031953 49.7470129,23.3281953 C49.7350129,23.3041953 49.7220129,23.2751953 49.7100129,23.2511953 C49.6120129,23.0531953 49.5120129,22.8411953 49.4110129,22.6061953 C49.4090129,22.6011953 49.4060129,22.5961953 49.4040129,22.5911953 C47.5130129,18.2401953 44.2760129,14.0821953 41.4920129,7.08619527 C41.4740129,7.04219527 41.4570129,6.99619527 41.4400129,6.95419527 C41.3390129,6.70219527 41.2380129,6.46119527 41.1360129,6.21819527 C41.0700129,6.06119527 41.0050129,5.90119527 40.9400129,5.74919527 C40.8590129,5.56319527 40.7790129,5.38719527 40.6980129,5.20719527 C40.6110129,5.01419527 40.5250129,4.81919527 40.4380129,4.63419527 C40.3680129,4.48519527 40.2970129,4.34619527 40.2280129,4.20319527 C40.1290129,4.00219527 40.0310129,3.80219527 39.9320129,3.61219527 C39.8690129,3.49019527 39.8040129,3.37619527 39.7400129,3.25919527 C39.6350129,3.06519527 39.5300129,2.87519527 39.4240129,2.69719527 C39.3640129,2.59519527 39.3030129,2.50019527 39.2430129,2.40319527 C39.1330129,2.22719527 39.0240129,2.05619527 38.9130129,1.89719527 C38.8550129,1.81219527 38.7970129,1.73519527 38.7390129,1.65519527 C38.6260129,1.50319527 38.5140129,1.35819527 38.4020129,1.22419527 C38.3440129,1.15719527 38.2870129,1.09419527 38.2300129,1.03119527 C38.1160129,0.907195266 38.0020129,0.792195266 37.8880129,0.689195266 C37.8310129,0.637195266 37.7740129,0.590195266 37.7170129,0.543195266 C37.6030129,0.451195266 37.4890129,0.371195266 37.3740129,0.302195266 C37.3170129,0.267195266 37.2590129,0.235195266 37.2020129,0.206195266 C37.1500129,0.180195266 37.0970129,0.140195266 37.0450129,0.119195266 C36.9810129,0.0951952663 36.9140129,0.0851952663 36.8490129,0.0691952663 C36.7990129,0.0551952663 36.7490129,0.0391952663 36.6990129,0.0301952663 C36.5420129,0.00319526627 36.3860129,-0.00880473373 36.2350129,0.00719526627 C35.6890129,0.0771952663 35.1710129,0.468195266 34.7100129,1.09719527 C34.0110129,2.06219527 33.4110129,3.62819527 32.8930129,5.55719527 C30.3340129,15.0921953 28.6080129,27.7811953 28.6080129,27.7811953 C28.5660129,28.2711953 28.3980129,28.7041953 28.1190129,29.0811953 C23.9940129,34.7301953 2.7860129,31.6661953 0.171012899,38.8671953 C-0.317987101,40.2231953 0.269012899,41.4671953 1.5830129,42.6001953 C7.4550129,47.6191953 19.6430129,51.5621953 23.0960129,52.8071953 C23.1100129,52.8071953 23.1240129,52.8071953 23.1520129,52.8211953 C23.2780129,52.8631953 23.3750129,52.9051953 23.4460129,52.9471953 C25.8920129,54.3451953 10.9960129,84.9981953 16.2390129,88.1441953 C17.4410129,88.8581953 19.5380129,87.8361953 22.1110129,85.8241953 C30.7790129,78.9871953 42.3510129,69.4681953 43.9730129,69.4681953 C45.5530129,69.4681953 59.1890129,76.8581953 68.5560129,81.7931953 C69.9820129,82.5481953 71.2690129,83.1221953 72.3170129,83.4441953 L72.3310129,83.4441953 C73.5760129,83.8341953 74.4980129,83.8631953 75.0150129,83.4441953 C75.1560129,83.3291953 75.2600129,83.1691953 75.3470129,82.9871953 C75.3740129,82.9301953 75.3930129,82.8631953 75.4140129,82.8001953 C75.4650129,82.6571953 75.5050129,82.4991953 75.5320129,82.3251953 C75.5430129,82.2431953 75.5550129,82.1591953 75.5620129,82.0701953 C75.5780129,81.8711953 75.5790129,81.6531953 75.5700129,81.4211953 C75.5660129,81.3421953 75.5690129,81.2701953 75.5630129,81.1871953 C75.5380129,80.8701953 75.4960129,80.5281953 75.4320129,80.1621953 C75.4140129,80.0591953 75.3870129,79.9451953 75.3670129,79.8381953 C75.3120129,79.5621953 75.2510129,79.2781953 75.1780129,78.9791953 C75.1380129,78.8121953 75.0920129,78.6391953 75.0460129,78.4661953 C74.9770129,78.2061953 74.9020129,77.9411953 74.8200129,77.6671953 C74.7610129,77.4701953 74.7040129,77.2751953 74.6390129,77.0701953 C74.5550129,76.8021953 74.4610129,76.5241953 74.3670129,76.2461953 C74.2040129,75.7621953 74.0270129,75.2631953 73.8370129,74.7491953 C73.7770129,74.5881953 73.7220129,74.4321953 73.6600129,74.2681953 C73.5210129,73.9001953 73.3720129,73.5221953 73.2220129,73.1421953 C73.1730129,73.0191953 73.1250129,72.8971953 73.0760129,72.7731953 C72.9030129,72.3421953 72.7250129,71.9071953 72.5400129,71.4631953 C72.5390129,71.4621953 72.5380129,71.4611953 72.5380129,71.4591953 C70.8000129,67.2961953 70.6590129,65.4481953 68.5890129,61.2931953 C66.1710129,56.4451953 64.6280129,51.5711953 63.7440129,49.6151953 C63.7160129,49.5561953 63.6900129,49.4971953 63.6650129,49.4421953 C63.5600129,49.2021953 63.4690129,48.9901953 63.4130129,48.8321953 C63.2030129,48.2731953 63.6080129,47.4341953 64.4600129,46.3861953 L64.4750129,46.3721953 Z" id="Fill-447" fill="#FEFDFE"></path>
            <path d="M57.1254129,45.6871953 C56.5144129,46.4381953 56.2244129,47.0391953 56.3744129,47.4391953 C56.7344129,48.4311953 58.5264129,51.8251953 60.5394129,55.8601953 C64.1144129,63.0401953 68.3994129,72.2821953 66.6384129,73.7241953 C66.2674129,74.0241953 65.6064129,74.0041953 64.7154129,73.7241953 L64.7054129,73.7241953 C63.9544129,73.4941953 63.0324129,73.0831953 62.0124129,72.5421953 C55.3034129,69.0071953 43.9874129,59.9561953 42.8554129,59.9561953 C41.6944129,59.9561953 31.7414129,72.9231953 25.5334129,77.8201953 C23.6904129,79.2611953 22.1884129,79.9931953 21.3274129,79.4821953 C17.5724129,77.2291953 31.8414129,49.6921953 30.0894129,48.6911953 C30.0394129,48.6611953 29.9694129,48.6311953 29.8794129,48.6011953 C29.8584129,48.5911953 29.8494129,48.5911953 29.8394129,48.5911953 C27.3654129,47.7001953 12.7764129,45.6971953 8.5704129,42.1021953 C7.6294129,41.2911953 7.2094129,40.4001953 7.5604129,39.4291953 C9.4324129,34.2711953 29.5384129,37.8961953 32.4924129,33.8511953 C32.6924129,33.5811953 32.8134129,33.2701953 32.8434129,32.9201953 C32.8434129,32.9201953 33.1234129,19.6921953 34.9564129,12.8631953 C35.3264129,11.4811953 35.7574129,10.3601953 36.2574129,9.66919527 C36.5884129,9.21819527 36.9584129,8.93819527 37.3494129,8.88819527 C37.5394129,8.86819527 37.7394129,8.89819527 37.9304129,8.96819527 C41.7344129,10.5101953 45.4494129,30.9171953 47.3624129,30.9171953 C47.5724129,30.9171953 48.0334129,30.8571953 48.6844129,30.7571953 L48.6934129,30.7571953 C54.1214129,29.9361953 72.7564129,26.2911953 73.6464129,29.4151953 C74.4984129,32.3991953 60.6304129,41.3911953 57.1354129,45.6771953 L57.1254129,45.6871953 Z" id="Fill-449" fill="#F6A821"></path>
            <path d="M57.1254129,45.6871953 C56.5144129,46.4381953 56.2244129,47.0391953 56.3744129,47.4391953 C56.7344129,48.4311953 58.5264129,51.8251953 60.5394129,55.8601953 C64.1144129,63.0401953 68.3994129,72.2821953 66.6384129,73.7241953 C66.2674129,74.0241953 65.6064129,74.0041953 64.7154129,73.7241953 L64.7054129,73.7241953 C63.9544129,73.4941953 63.0324129,73.0831953 62.0124129,72.5421953 C55.3034129,69.0071953 43.9874129,59.9561953 42.8554129,59.9561953 C41.6944129,59.9561953 31.7414129,72.9231953 25.5334129,77.8201953 C23.6904129,79.2611953 22.1884129,79.9931953 21.3274129,79.4821953 C17.5724129,77.2291953 31.8414129,49.6921953 30.0894129,48.6911953 C30.0394129,48.6611953 29.9694129,48.6311953 29.8794129,48.6011953 C29.8584129,48.5911953 29.8494129,48.5911953 29.8394129,48.5911953 C27.3654129,47.7001953 12.7764129,45.6971953 8.5704129,42.1021953 C7.6294129,41.2911953 7.2094129,40.4001953 7.5604129,39.4291953 C9.4324129,34.2711953 29.5384129,37.8961953 32.4924129,33.8511953 C32.6924129,33.5811953 32.8134129,33.2701953 32.8434129,32.9201953 C32.8434129,32.9201953 33.1234129,19.6921953 34.9564129,12.8631953 C35.3264129,11.4811953 35.7574129,10.3601953 36.2574129,9.66919527 C36.5884129,9.21819527 36.9584129,8.93819527 37.3494129,8.88819527 C37.5394129,8.86819527 37.7394129,8.89819527 37.9304129,8.96819527 C41.7344129,10.5101953 45.4494129,30.9171953 47.3624129,30.9171953 C47.5724129,30.9171953 48.0334129,30.8571953 48.6844129,30.7571953 L48.6934129,30.7571953 C54.1214129,29.9361953 72.7564129,26.2911953 73.6464129,29.4151953 C74.4984129,32.3991953 60.6304129,41.3911953 57.1354129,45.6771953 L57.1254129,45.6871953 Z" id="Stroke-451" stroke="#000000"></path>
            <path d="M35.6625129,56.1148953 C35.7565129,56.6598953 35.3905129,57.1768953 34.8455129,57.2708953 C34.3005129,57.3648953 33.7825129,56.9988953 33.6885129,56.4538953 C33.5955129,55.9088953 33.9605129,55.3908953 34.5055129,55.2978953 C35.0515129,55.2038953 35.5685129,55.5698953 35.6625129,56.1148953" id="Fill-453" fill="#EA7E07"></path>
            <path d="M35.6625129,56.1148953 C35.7565129,56.6598953 35.3905129,57.1768953 34.8455129,57.2708953 C34.3005129,57.3648953 33.7825129,56.9988953 33.6885129,56.4538953 C33.5955129,55.9088953 33.9605129,55.3908953 34.5055129,55.2978953 C35.0515129,55.2038953 35.5685129,55.5698953 35.6625129,56.1148953 Z" id="Stroke-455" stroke="#000000"></path>
            <path d="M33.1781129,62.0708953 C32.6561129,62.8108953 31.6321129,62.9868953 30.8921129,62.4648953 C30.1521129,61.9408953 29.9761129,60.9178953 30.4981129,60.1768953 C31.0211129,59.4368953 32.0451129,59.2608953 32.7851129,59.7838953 C33.5251129,60.3068953 33.7011129,61.3308953 33.1781129,62.0708953" id="Fill-457" fill="#EA7E07"></path>
            <path d="M33.1781129,62.0708953 C32.6561129,62.8108953 31.6321129,62.9868953 30.8921129,62.4648953 C30.1521129,61.9408953 29.9761129,60.9178953 30.4981129,60.1768953 C31.0211129,59.4368953 32.0451129,59.2608953 32.7851129,59.7838953 C33.5251129,60.3068953 33.7011129,61.3308953 33.1781129,62.0708953 Z" id="Stroke-459" stroke="#000000"></path>
            <path d="M30.1127129,68.4498953 C29.3317129,69.5548953 27.8517129,69.8538953 26.8077129,69.1158953 C25.7627129,68.3778953 25.5507129,66.8838953 26.3317129,65.7778953 C27.1127129,64.6718953 28.5917129,64.3738953 29.6367129,65.1108953 C30.6807129,65.8488953 30.8937129,67.3438953 30.1127129,68.4498953" id="Fill-461" fill="#EA7E07"></path>
            <path d="M30.1127129,68.4498953 C29.3317129,69.5548953 27.8517129,69.8538953 26.8077129,69.1158953 C25.7627129,68.3778953 25.5507129,66.8838953 26.3317129,65.7778953 C27.1127129,64.6718953 28.5917129,64.3738953 29.6367129,65.1108953 C30.6807129,65.8488953 30.8937129,67.3438953 30.1127129,68.4498953 Z" id="Stroke-463" stroke="#000000"></path>
            <path d="M31.6762129,42.8726953 C31.2262129,43.1936953 30.6012129,43.0876953 30.2802129,42.6376953 C29.9592129,42.1866953 30.0652129,41.5616953 30.5152129,41.2406953 C30.9662129,40.9206953 31.5912129,41.0256953 31.9112129,41.4766953 C32.2322129,41.9266953 32.1262129,42.5516953 31.6762129,42.8726953" id="Fill-465" fill="#EA7E07"></path>
            <path d="M31.6762129,42.8726953 C31.2262129,43.1936953 30.6012129,43.0876953 30.2802129,42.6376953 C29.9592129,42.1866953 30.0652129,41.5616953 30.5152129,41.2406953 C30.9662129,40.9206953 31.5912129,41.0256953 31.9112129,41.4766953 C32.2322129,41.9266953 32.1262129,42.5516953 31.6762129,42.8726953 Z" id="Stroke-467" stroke="#000000"></path>
            <path d="M25.2319129,43.2154953 C24.3379129,43.0654953 23.7359129,42.2184953 23.8859129,41.3244953 C24.0379129,40.4314953 24.8829129,39.8284953 25.7769129,39.9794953 C26.6699129,40.1304953 27.2729129,40.9764953 27.1229129,41.8694953 C26.9719129,42.7634953 26.1259129,43.3654953 25.2319129,43.2154953" id="Fill-469" fill="#EA7E07"></path>
            <path d="M25.2319129,43.2154953 C24.3379129,43.0654953 23.7359129,42.2184953 23.8859129,41.3244953 C24.0379129,40.4314953 24.8829129,39.8284953 25.7769129,39.9794953 C26.6699129,40.1304953 27.2729129,40.9764953 27.1229129,41.8694953 C26.9719129,42.7634953 26.1259129,43.3654953 25.2319129,43.2154953 Z" id="Stroke-471" stroke="#000000"></path>
            <path d="M18.1547129,43.2168953 C16.8197129,42.9918953 15.9097129,41.7878953 16.1227129,40.5268953 C16.3347129,39.2658953 17.5897129,38.4258953 18.9247129,38.6508953 C20.2587129,38.8758953 21.1697129,40.0798953 20.9577129,41.3408953 C20.7447129,42.6018953 19.4897129,43.4418953 18.1547129,43.2168953" id="Fill-473" fill="#EA7E07"></path>
            <path d="M18.1547129,43.2168953 C16.8197129,42.9918953 15.9097129,41.7878953 16.1227129,40.5268953 C16.3347129,39.2658953 17.5897129,38.4258953 18.9247129,38.6508953 C20.2587129,38.8758953 21.1697129,40.0798953 20.9577129,41.3408953 C20.7447129,42.6018953 19.4897129,43.4418953 18.1547129,43.2168953 Z" id="Stroke-475" stroke="#000000"></path>
            <path d="M38.9155129,34.5718953 C38.5025129,34.2038953 38.4655129,33.5718953 38.8335129,33.1578953 C39.2005129,32.7448953 39.8335129,32.7088953 40.2465129,33.0758953 C40.6595129,33.4438953 40.6965129,34.0768953 40.3295129,34.4898953 C39.9615129,34.9028953 39.3285129,34.9398953 38.9155129,34.5718953" id="Fill-477" fill="#EA7E07"></path>
            <path d="M38.9155129,34.5718953 C38.5025129,34.2038953 38.4655129,33.5718953 38.8335129,33.1578953 C39.2005129,32.7448953 39.8335129,32.7088953 40.2465129,33.0758953 C40.6595129,33.4438953 40.6965129,34.0768953 40.3295129,34.4898953 C39.9615129,34.9028953 39.3285129,34.9398953 38.9155129,34.5718953 Z" id="Stroke-479" stroke="#000000"></path>
            <path d="M37.1440129,28.3663953 C37.0910129,27.4613953 37.7820129,26.6853953 38.6870129,26.6333953 C39.5910129,26.5803953 40.3680129,27.2713953 40.4200129,28.1763953 C40.4720129,29.0803953 39.7820129,29.8563953 38.8770129,29.9093953 C37.9720129,29.9623953 37.1970129,29.2713953 37.1440129,28.3663953" id="Fill-481" fill="#EA7E07"></path>
            <path d="M37.1440129,28.3663953 C37.0910129,27.4613953 37.7820129,26.6853953 38.6870129,26.6333953 C39.5910129,26.5803953 40.3680129,27.2713953 40.4200129,28.1763953 C40.4720129,29.0803953 39.7820129,29.8563953 38.8770129,29.9093953 C37.9720129,29.9623953 37.1970129,29.2713953 37.1440129,28.3663953 Z" id="Stroke-483" stroke="#000000"></path>
            <path d="M35.5639129,21.4678953 C35.4849129,20.1158953 36.4569129,18.9608953 37.7329129,18.8858953 C39.0089129,18.8118953 40.1079129,19.8478953 40.1869129,21.1988953 C40.2649129,22.5508953 39.2939129,23.7068953 38.0169129,23.7808953 C36.7409129,23.8548953 35.6419129,22.8198953 35.5639129,21.4678953" id="Fill-485" fill="#EA7E07"></path>
            <path d="M35.5639129,21.4678953 C35.4849129,20.1158953 36.4569129,18.9608953 37.7329129,18.8858953 C39.0089129,18.8118953 40.1079129,19.8478953 40.1869129,21.1988953 C40.2649129,22.5508953 39.2939129,23.7068953 38.0169129,23.7808953 C36.7409129,23.8548953 35.6419129,22.8198953 35.5639129,21.4678953 Z" id="Stroke-487" stroke="#000000"></path>
            <path d="M48.8461129,39.2662953 C49.0741129,38.7622953 49.6671129,38.5382953 50.1711129,38.7662953 C50.6751129,38.9942953 50.8991129,39.5862953 50.6711129,40.0902953 C50.4441129,40.5952953 49.8501129,40.8182953 49.3461129,40.5912953 C48.8421129,40.3632953 48.6181129,39.7702953 48.8461129,39.2662953" id="Fill-489" fill="#EA7E07"></path>
            <path d="M48.8461129,39.2662953 C49.0741129,38.7622953 49.6671129,38.5382953 50.1711129,38.7662953 C50.6751129,38.9942953 50.8991129,39.5862953 50.6711129,40.0902953 C50.4441129,40.5952953 49.8501129,40.8182953 49.3461129,40.5912953 C48.8421129,40.3632953 48.6181129,39.7702953 48.8461129,39.2662953 Z" id="Stroke-491" stroke="#000000"></path>
            <path d="M54.2406129,35.7242953 C55.0886129,35.4042953 56.0356129,35.8322953 56.3556129,36.6802953 C56.6756129,37.5272953 56.2476129,38.4742953 55.3996129,38.7942953 C54.5526129,39.1142953 53.6056129,38.6862953 53.2856129,37.8392953 C52.9656129,36.9912953 53.3926129,36.0442953 54.2406129,35.7242953" id="Fill-493" fill="#EA7E07"></path>
            <path d="M54.2406129,35.7242953 C55.0886129,35.4042953 56.0356129,35.8322953 56.3556129,36.6802953 C56.6756129,37.5272953 56.2476129,38.4742953 55.3996129,38.7942953 C54.5526129,39.1142953 53.6056129,38.6862953 53.2856129,37.8392953 C52.9656129,36.9912953 53.3926129,36.0442953 54.2406129,35.7242953 Z" id="Stroke-495" stroke="#000000"></path>
            <path d="M60.3539129,32.1583953 C61.6209129,31.6803953 63.0139129,32.2623953 63.4649129,33.4583953 C63.9169129,34.6553953 63.2559129,36.0123953 61.9899129,36.4903953 C60.7229129,36.9693953 59.3299129,36.3873953 58.8779129,35.1903953 C58.4259129,33.9943953 59.0869129,32.6363953 60.3539129,32.1583953" id="Fill-497" fill="#EA7E07"></path>
            <path d="M60.3539129,32.1583953 C61.6209129,31.6803953 63.0139129,32.2623953 63.4649129,33.4583953 C63.9169129,34.6553953 63.2559129,36.0123953 61.9899129,36.4903953 C60.7229129,36.9693953 59.3299129,36.3873953 58.8779129,35.1903953 C58.4259129,33.9943953 59.0869129,32.6363953 60.3539129,32.1583953 Z" id="Stroke-499" stroke="#000000"></path>
            <path d="M47.6635129,52.3838953 C48.2155129,52.4178953 48.6355129,52.8918953 48.6015129,53.4438953 C48.5685129,53.9958953 48.0935129,54.4168953 47.5415129,54.3828953 C46.9895129,54.3488953 46.5695129,53.8748953 46.6025129,53.3228953 C46.6365129,52.7708953 47.1105129,52.3498953 47.6635129,52.3838953" id="Fill-501" fill="#EA7E07"></path>
            <path d="M47.6635129,52.3838953 C48.2155129,52.4178953 48.6355129,52.8918953 48.6015129,53.4438953 C48.5685129,53.9958953 48.0935129,54.4168953 47.5415129,54.3828953 C46.9895129,54.3488953 46.5695129,53.8748953 46.6025129,53.3228953 C46.6365129,52.7708953 47.1105129,52.3498953 47.6635129,52.3838953 Z" id="Stroke-503" stroke="#000000"></path>
            <path d="M52.8920129,56.1656953 C53.4930129,56.8446953 53.4300129,57.8816953 52.7510129,58.4816953 C52.0730129,59.0826953 51.0360129,59.0196953 50.4350129,58.3416953 C49.8340129,57.6626953 49.8980129,56.6256953 50.5760129,56.0246953 C51.2540129,55.4246953 52.2910129,55.4876953 52.8920129,56.1656953" id="Fill-505" fill="#EA7E07"></path>
            <path d="M52.8920129,56.1656953 C53.4930129,56.8446953 53.4300129,57.8816953 52.7510129,58.4816953 C52.0730129,59.0826953 51.0360129,59.0196953 50.4350129,58.3416953 C49.8340129,57.6626953 49.8980129,56.6256953 50.5760129,56.0246953 C51.2540129,55.4246953 52.2910129,55.4876953 52.8920129,56.1656953 Z" id="Stroke-507" stroke="#000000"></path>
            <path d="M58.3989129,60.6109953 C59.2959129,61.6249953 59.2479129,63.1329953 58.2909129,63.9809953 C57.3339129,64.8289953 55.8299129,64.6939953 54.9319129,63.6799953 C54.0349129,62.6669953 54.0839129,61.1579953 55.0409129,60.3099953 C55.9989129,59.4629953 57.5019129,59.5969953 58.3989129,60.6109953" id="Fill-509" fill="#EA7E07"></path>
            <path d="M58.3989129,60.6109953 C59.2959129,61.6249953 59.2479129,63.1329953 58.2909129,63.9809953 C57.3339129,64.8289953 55.8299129,64.6939953 54.9319129,63.6799953 C54.0349129,62.6669953 54.0839129,61.1579953 55.0409129,60.3099953 C55.9989129,59.4629953 57.5019129,59.5969953 58.3989129,60.6109953 Z" id="Stroke-511" stroke="#000000"></path>
            <path d="M121.297313,57.9576953 C121.347313,57.4786953 121.389313,57.0046953 121.416313,56.5326953 C121.430313,56.2896953 121.441313,56.0476953 121.448313,55.8056953 C121.464313,55.3336953 121.469313,54.8656953 121.463313,54.4006953 C121.460313,54.1886953 121.461313,53.9766953 121.454313,53.7656953 C121.435313,53.1946953 121.401313,52.6306953 121.353313,52.0726953 C121.344313,51.9786953 121.341313,51.8816953 121.331313,51.7876953 C121.269313,51.1266953 121.185313,50.4766953 121.082313,49.8336953 C121.057313,49.6686953 121.023313,49.5086953 120.995313,49.3456953 C120.915313,48.8866953 120.830313,48.4326953 120.734313,47.9836953 C120.679313,47.7306953 120.619313,47.4816953 120.560313,47.2326953 C120.517313,47.0536953 120.481313,46.8706953 120.435313,46.6936953 C120.388313,46.5066953 120.331313,46.3256953 120.281313,46.1406953 C120.223313,45.9246953 120.165313,45.7076953 120.103313,45.4946953 C119.938313,44.9336953 119.765313,44.3796953 119.583313,43.8426953 C117.248313,37.0316953 113.276313,31.7296953 110.799313,28.9046953 C110.438313,28.4926953 110.115313,28.1446953 109.831313,27.8346953 C109.669313,27.6626953 109.502313,27.5036953 109.331313,27.3586953 C109.223313,27.2666953 109.109313,27.1886953 108.997313,27.1066953 C108.932313,27.0596953 108.868313,27.0056953 108.803313,26.9626953 C108.694313,26.8916953 108.582313,26.8326953 108.471313,26.7706953 C108.395313,26.7286953 108.320313,26.6816953 108.243313,26.6436953 C108.138313,26.5916953 108.028313,26.5516953 107.920313,26.5076953 C107.833313,26.4726953 107.747313,26.4336953 107.658313,26.4036953 C107.554313,26.3676953 107.445313,26.3416953 107.338313,26.3126953 C107.241313,26.2876953 107.146313,26.2596953 107.046313,26.2386953 C106.941313,26.2176953 106.832313,26.2036953 106.725313,26.1886953 C106.620313,26.1736953 106.517313,26.1566953 106.411313,26.1476953 C106.302313,26.1386953 106.190313,26.1356953 106.078313,26.1326953 C105.970313,26.1286953 105.862313,26.1246953 105.752313,26.1266953 C105.638313,26.1286953 105.521313,26.1376953 105.403313,26.1456953 C105.293313,26.1526953 105.183313,26.1606953 105.069313,26.1726953 C105.026313,26.1776953 104.985313,26.1776953 104.943313,26.1836953 C104.897313,26.1886953 104.847313,26.2036953 104.801313,26.2106953 C104.509313,26.2526953 104.212313,26.3086953 103.906313,26.3826953 C103.847313,26.3966953 103.787313,26.4106953 103.728313,26.4256953 C103.416313,26.5066953 103.096313,26.6076953 102.771313,26.7196953 C102.669313,26.7546953 102.566313,26.7896953 102.462313,26.8276953 C102.120313,26.9536953 101.774313,27.0916953 101.418313,27.2476953 C101.343313,27.2806953 101.266313,27.3166953 101.190313,27.3516953 C100.833313,27.5116953 100.472313,27.6846953 100.102313,27.8726953 C100.067313,27.8906953 100.032313,27.9066953 99.9973129,27.9246953 C99.5643129,28.1466953 99.1203129,28.3876953 98.6693129,28.6426953 L98.6283129,28.6656953 C97.2423129,29.4526953 95.7723129,30.3846953 94.2163129,31.4216953 C94.1963129,31.4346953 94.1783129,31.4466953 94.1583129,31.4586953 C94.1313129,31.4776953 94.1013129,31.4986953 94.0733129,31.5176953 C92.3433129,32.6736953 90.5103129,33.9516953 88.5763129,35.2876953 C87.6093129,35.9566953 86.6143129,36.6406953 85.5973129,37.3306953 C85.5893129,37.3356953 85.5823129,37.3396953 85.5753129,37.3446953 C84.5483129,38.0406953 83.4963129,38.7436953 82.4203129,39.4436953 C76.7573129,43.1206953 74.0093129,46.5516953 72.7193129,49.2476953 C71.2753129,52.2666953 71.6363129,54.3556953 71.7523129,54.8206953 C71.7653129,54.8856953 71.7773129,54.9236953 71.7773129,54.9236953 C71.7773129,55.1376953 71.7943129,55.3536953 71.8263129,55.5686953 C71.8393129,55.6576953 71.8633129,55.7466953 71.8823129,55.8346953 C71.9073129,55.9646953 71.9323129,56.0956953 71.9693129,56.2266953 C71.9933129,56.3116953 72.0273129,56.3986953 72.0573129,56.4846953 C72.1053129,56.6266953 72.1523129,56.7696953 72.2123129,56.9116953 C72.2363129,56.9696953 72.2653129,57.0266953 72.2913129,57.0836953 C72.3763129,57.2736953 72.4713129,57.4646953 72.5763129,57.6566953 C72.5763129,57.6566953 72.5773129,57.6576953 72.5773129,57.6586953 L72.5793129,57.6606953 C72.7993129,58.0606953 73.0593129,58.4636953 73.3633129,58.8726953 C73.3783129,58.8926953 73.3943129,58.9106953 73.4073129,58.9296953 C73.7103129,59.3306953 74.0453129,59.7366953 74.4223129,60.1476953 C74.7323129,60.4886953 75.0743129,60.8356953 75.4333129,61.1846953 C75.5823129,61.3306953 75.7393129,61.4786953 75.8983129,61.6266953 C76.1383129,61.8506953 76.3883129,62.0756953 76.6453129,62.3036953 C76.8053129,62.4446953 76.9603129,62.5856953 77.1263129,62.7286953 C77.5263129,63.0696953 77.9453129,63.4166953 78.3813129,63.7666953 C78.5543129,63.9036953 78.7353129,64.0456953 78.9133129,64.1856953 C79.2213129,64.4266953 79.5333129,64.6696953 79.8563129,64.9146953 C79.9783129,65.0076953 80.0893129,65.0986953 80.2143129,65.1916953 C80.3183129,65.2696953 80.4313129,65.3506953 80.5363129,65.4296953 C80.8343129,65.6506953 81.1423129,65.8756953 81.4503129,66.1016953 C81.5833129,66.1986953 81.7133129,66.2946953 81.8483129,66.3926953 C82.3543129,66.7586953 82.8693129,67.1266953 83.4003129,67.5006953 C84.3273129,68.1536953 85.2883129,68.8196953 86.2763129,69.5006953 C86.4433129,69.6166953 86.6213129,69.7376953 86.7913129,69.8536953 C87.5953129,70.4076953 88.4063129,70.9646953 89.2433129,71.5386953 C89.7353129,71.8746953 90.2453129,72.2276953 90.7463129,72.5696953 C92.4533129,73.7426953 94.1943129,74.9456953 95.9643129,76.2076953 C97.3733129,77.2116953 98.5933129,78.0666953 99.6673129,78.8016953 C99.7873129,78.8846953 99.8913129,78.9516953 100.007313,79.0306953 C100.398313,79.2956953 100.781313,79.5556953 101.131313,79.7856953 C101.246313,79.8616953 101.350313,79.9266953 101.460313,79.9986953 C102.415313,80.6196953 103.219313,81.1086953 103.900313,81.4806953 C103.955313,81.5116953 104.014313,81.5446953 104.068313,81.5726953 C104.239313,81.6646953 104.404313,81.7486953 104.562313,81.8256953 C104.647313,81.8676953 104.729313,81.9046953 104.810313,81.9426953 C104.944313,82.0056953 105.083313,82.0696953 105.207313,82.1206953 C105.391313,82.1956953 105.564313,82.2596953 105.726313,82.3116953 C105.803313,82.3356953 105.872313,82.3506953 105.945313,82.3696953 C106.055313,82.3986953 106.163313,82.4246953 106.264313,82.4416953 C106.325313,82.4526953 106.387313,82.4626953 106.445313,82.4686953 C106.565313,82.4816953 106.678313,82.4866953 106.786313,82.4846953 C106.816313,82.4836953 106.848313,82.4866953 106.876313,82.4846953 C107.017313,82.4766953 107.149313,82.4526953 107.275313,82.4176953 C107.292313,82.4126953 107.309313,82.4046953 107.326313,82.3996953 C107.439313,82.3646953 107.547313,82.3196953 107.651313,82.2656953 C107.668313,82.2566953 107.686313,82.2486953 107.702313,82.2386953 C108.192313,81.9706953 108.622313,81.5066953 109.187313,80.9416953 C109.785313,80.3436953 110.351313,79.7456953 110.901313,79.1486953 C111.108313,78.9246953 111.308313,78.6996953 111.507313,78.4746953 C111.881313,78.0546953 112.242313,77.6356953 112.593313,77.2156953 C112.755313,77.0196953 112.922313,76.8246953 113.079313,76.6306953 C113.548313,76.0506953 114.000313,75.4716953 114.424313,74.8926953 C114.431313,74.8826953 114.437313,74.8716953 114.444313,74.8616953 C114.964313,74.1516953 115.453313,73.4436953 115.907313,72.7376953 C116.377313,72.0106953 116.800313,71.2876953 117.202313,70.5666953 C117.356313,70.2926953 117.516313,70.0196953 117.661313,69.7456953 C117.678313,69.7136953 117.692313,69.6836953 117.708313,69.6506953 C117.764313,69.5436953 117.812313,69.4366953 117.866313,69.3296953 C118.071313,68.9276953 118.275313,68.5246953 118.460313,68.1246953 C118.699313,67.6096953 118.923313,67.0966953 119.132313,66.5846953 C119.932313,64.6106953 120.512313,62.6636953 120.886313,60.7546953 C121.028313,60.0436953 121.136313,59.3406953 121.226313,58.6416953 C121.255313,58.4116953 121.274313,58.1856953 121.297313,57.9576953" id="Fill-513" fill="#FEFDFE"></path>
            <path d="M116.308013,58.6412953 C116.018013,60.1222953 115.568013,61.6352953 114.947013,63.1662953 C114.617013,63.9782953 114.236013,64.7992953 113.805013,65.6202953 C113.395013,66.3912953 112.944013,67.1622953 112.444013,67.9432953 C112.083013,68.4942953 111.703013,69.0542953 111.292013,69.6162953 C110.151013,71.1772953 108.798013,72.7402953 107.226013,74.3122953 C105.914013,75.6232953 105.544013,76.2642953 102.050013,74.1012953 C100.808013,73.3402953 99.1760129,72.2082953 96.9630129,70.6372953 C95.1910129,69.3652953 93.4280129,68.1632953 91.7460129,67.0122953 C90.1540129,65.9202953 88.6320129,64.8792953 87.2100129,63.8772953 C86.3390129,63.2672953 85.5180129,62.6662953 84.7370129,62.0852953 C82.9050129,60.7042953 81.3630129,59.4122953 80.2410129,58.1702953 C78.9390129,56.7482953 78.1880129,55.4072953 78.1880129,54.1152953 C78.1880129,54.1152953 78.1780129,54.0842953 78.1680129,54.0352953 C78.0780129,53.6742953 77.7970129,52.0522953 78.9190129,49.7092953 C79.9200129,47.6162953 82.0530129,44.9532953 86.4490129,42.0992953 C89.8030129,39.9162953 92.8470129,37.7132953 95.5610129,35.9012953 C98.8450129,33.7182953 101.639013,32.0962953 103.932013,31.8052953 C105.414013,31.6152953 106.686013,31.9752953 107.727013,33.0872953 C107.948013,33.3272953 108.198013,33.5982953 108.478013,33.9182953 C110.401013,36.1112953 113.485013,40.2262953 115.297013,45.5142953 C116.619013,49.3582953 117.270013,53.8342953 116.308013,58.6412953" id="Fill-515" fill="#FFE5D2"></path>
            <path d="M116.308013,58.6412953 C116.018013,60.1222953 115.568013,61.6352953 114.947013,63.1662953 C114.617013,63.9782953 114.236013,64.7992953 113.805013,65.6202953 C113.395013,66.3912953 112.944013,67.1622953 112.444013,67.9432953 C112.083013,68.4942953 111.703013,69.0542953 111.292013,69.6162953 C110.151013,71.1772953 108.798013,72.7402953 107.226013,74.3122953 C105.914013,75.6232953 105.544013,76.2642953 102.050013,74.1012953 C100.808013,73.3402953 99.1760129,72.2082953 96.9630129,70.6372953 C95.1910129,69.3652953 93.4280129,68.1632953 91.7460129,67.0122953 C90.1540129,65.9202953 88.6320129,64.8792953 87.2100129,63.8772953 C86.3390129,63.2672953 85.5180129,62.6662953 84.7370129,62.0852953 C82.9050129,60.7042953 81.3630129,59.4122953 80.2410129,58.1702953 C78.9390129,56.7482953 78.1880129,55.4072953 78.1880129,54.1152953 C78.1880129,54.1152953 78.1780129,54.0842953 78.1680129,54.0352953 C78.0780129,53.6742953 77.7970129,52.0522953 78.9190129,49.7092953 C79.9200129,47.6162953 82.0530129,44.9532953 86.4490129,42.0992953 C89.8030129,39.9162953 92.8470129,37.7132953 95.5610129,35.9012953 C98.8450129,33.7182953 101.639013,32.0962953 103.932013,31.8052953 C105.414013,31.6152953 106.686013,31.9752953 107.727013,33.0872953 C107.948013,33.3272953 108.198013,33.5982953 108.478013,33.9182953 C110.401013,36.1112953 113.485013,40.2262953 115.297013,45.5142953 C116.619013,49.3582953 117.270013,53.8342953 116.308013,58.6412953 Z" id="Stroke-517" stroke="#000000"></path>
            <path d="M108.478013,33.9180953 L108.468013,33.9280953 C102.581013,40.1060953 86.4890129,46.7750953 79.6500129,49.4290953 C79.3900129,49.5290953 79.1500129,49.6190953 78.9190129,49.7090953 C79.9200129,47.6160953 82.0530129,44.9530953 86.4490129,42.0990953 C96.4620129,35.5900953 103.722013,28.8320953 107.727013,33.0870953 C107.948013,33.3270953 108.198013,33.5980953 108.478013,33.9180953" id="Fill-519" fill="#BD6539"></path>
            <path d="M108.478013,33.9180953 L108.468013,33.9280953 C102.581013,40.1060953 86.4890129,46.7750953 79.6500129,49.4290953 C79.3900129,49.5290953 79.1500129,49.6190953 78.9190129,49.7090953 C79.9200129,47.6160953 82.0530129,44.9530953 86.4490129,42.0990953 C96.4620129,35.5900953 103.722013,28.8320953 107.727013,33.0870953 C107.948013,33.3270953 108.198013,33.5980953 108.478013,33.9180953 Z" id="Stroke-521" stroke="#000000"></path>
            <path d="M116.308013,58.6412953 C112.604013,57.4592953 102.790013,55.6772953 80.2410129,58.1702953 C79.6400129,57.5092953 79.1500129,56.8692953 78.8090129,56.2382953 C78.3980129,55.5062953 78.1880129,54.8062953 78.1880129,54.1152953 C78.1880129,54.1152953 78.1780129,54.0842953 78.1680129,54.0352953 C84.2360129,52.3922953 107.317013,46.2042953 115.297013,45.5142953 C115.537013,46.2242953 115.768013,46.9652953 115.958013,47.7262953 C116.809013,51.0402953 117.089013,54.7262953 116.308013,58.6412953" id="Fill-523" fill="#BD6539"></path>
            <path d="M116.308013,58.6412953 C112.604013,57.4592953 102.790013,55.6772953 80.2410129,58.1702953 C79.6400129,57.5092953 79.1500129,56.8692953 78.8090129,56.2382953 C78.3980129,55.5062953 78.1880129,54.8062953 78.1880129,54.1152953 C78.1880129,54.1152953 78.1780129,54.0842953 78.1680129,54.0352953 C84.2360129,52.3922953 107.317013,46.2042953 115.297013,45.5142953 C115.537013,46.2242953 115.768013,46.9652953 115.958013,47.7262953 C116.809013,51.0402953 117.089013,54.7262953 116.308013,58.6412953 Z" id="Stroke-525" stroke="#000000"></path>
            <path d="M112.443813,67.9429953 C112.083813,68.4939953 111.702813,69.0539953 111.292813,69.6159953 C110.150813,71.1769953 108.797813,72.7399953 107.225813,74.3119953 C105.444813,76.0839953 105.393813,76.6449953 96.9638129,70.6369953 C95.1908129,69.3649953 93.4278129,68.1639953 91.7458129,67.0119953 C90.1538129,65.9209953 88.6318129,64.8799953 87.2108129,63.8779953 C92.8868129,64.3989953 104.833813,65.7199953 112.443813,67.9429953" id="Fill-527" fill="#BD6539"></path>
            <path d="M112.443813,67.9429953 C112.083813,68.4939953 111.702813,69.0539953 111.292813,69.6159953 C110.150813,71.1769953 108.797813,72.7399953 107.225813,74.3119953 C105.444813,76.0839953 105.393813,76.6449953 96.9638129,70.6369953 C95.1908129,69.3649953 93.4278129,68.1639953 91.7458129,67.0119953 C90.1538129,65.9209953 88.6318129,64.8799953 87.2108129,63.8779953 C92.8868129,64.3989953 104.833813,65.7199953 112.443813,67.9429953 Z" id="Stroke-529" stroke="#000000"></path>
        </g>
    </g>
</svg>