<?xml version="1.0" encoding="UTF-8"?>
<svg width="161px" height="191px" viewBox="0 0 161 191" version="1.1" xmlns="http://www.w3.org/2000/svg" xmlns:xlink="http://www.w3.org/1999/xlink">
    <!-- Generator: Sketch 53.1 (72631) - https://sketchapp.com -->
    <title>Group 70sticker5</title>
    <desc>Created with Sketch.</desc>
    <g id="Page-1" stroke="none" stroke-width="1" fill="none" fill-rule="evenodd">
        <g id="Group-70" transform="translate(0.385170, 0.620381)">
            <path d="M87.7408299,118.006819 C88.2888299,115.483819 85.6048299,112.440819 82.9578299,113.055819 C69.4428299,116.195819 55.8338299,118.914819 42.1428299,121.170819 C35.5008299,122.265819 28.8398299,123.253819 22.1648299,124.134819 C16.0198299,124.946819 8.29482993,124.665819 2.92082993,128.048819 C1.83082993,128.735819 1.33982993,129.746819 1.28782993,130.796819 C0.555829933,131.838819 0.182829933,133.062819 0.0658299331,134.741819 C-0.137170067,137.653819 0.145829933,140.535819 0.687829933,143.395819 C1.81282993,149.330819 3.86582993,154.988819 6.76182993,160.284819 C9.36082993,165.036819 12.5918299,169.334819 16.2568299,173.282819 C21.2428299,179.487819 27.2958299,184.861819 33.8798299,189.326819 C34.1978299,189.542819 34.5208299,189.692819 34.8438299,189.784819 C36.4768299,190.634819 38.5598299,190.556819 40.0578299,188.706819 C49.5998299,176.921819 59.2348299,165.205819 68.6738299,153.337819 C77.1058299,142.733819 84.8248299,131.447819 87.7408299,118.006819" id="Fill-373" fill="#FFFFFF"></path>
            <path d="M36.2027299,179.973119 C36.9877299,179.074119 37.7677299,178.171119 38.5477299,177.259119 C30.3487299,173.007119 24.0907299,166.077119 20.0417299,157.792119 C17.9467299,153.515119 16.4627299,148.941119 15.4887299,144.283119 C14.7617299,140.788119 13.8237299,136.877119 16.0997299,133.790119 C16.1107299,133.766119 16.1377299,133.754119 16.1587299,133.738119 C14.0157299,133.986119 11.8717299,134.216119 9.73072993,134.390119 C9.29472993,143.995119 11.4277299,153.351119 16.4217299,161.632119 C21.2047299,169.552119 27.9077299,175.111119 35.8527299,179.627119 C36.0157299,179.716119 36.1277299,179.838119 36.2027299,179.973119 M39.6637299,175.956119 C40.3697299,175.136119 41.0617299,174.312119 41.7487299,173.484119 C34.1047299,169.268119 27.8377299,162.956119 23.6867299,155.267119 C20.5167299,149.411119 16.5587299,139.823119 20.0007299,133.254119 C18.9077299,133.399119 17.8197299,133.538119 16.7307299,133.669119 C16.9717299,133.786119 17.1357299,134.051119 16.9847299,134.323119 C14.8487299,138.122119 16.8777299,143.840119 17.9977299,147.731119 C18.9777299,151.160119 20.2517299,154.514119 21.8527299,157.697119 C25.7687299,165.491119 31.8527299,172.023119 39.6637299,175.956119 M42.7237299,172.328119 C55.8277299,156.571119 67.6947299,139.775119 78.0827299,122.105119 C67.0787299,124.639119 56.0327299,126.965119 44.9347299,129.032119 C37.0137299,130.509119 29.0517299,132.004119 21.0507299,133.109119 C18.0747299,140.234119 22.1047299,149.722119 25.7337299,155.901119 C29.7427299,162.744119 35.5827299,168.297119 42.4987299,172.149119 C42.5927299,172.199119 42.6597299,172.261119 42.7237299,172.328119 M80.8927299,121.073119 C68.2097299,142.982119 53.4927299,163.532119 36.7107299,182.490119 C36.1047299,183.174119 35.1607299,182.769119 34.9227299,182.128119 C32.9427299,181.514119 31.3067299,180.139119 30.1427299,178.441119 C15.9347299,169.495119 5.05672993,150.403119 8.72372993,134.010119 C8.75672993,133.844119 8.84672993,133.732119 8.95372993,133.660119 C9.02072993,133.555119 9.13172993,133.469119 9.29472993,133.432119 C21.0357299,131.019119 32.9377299,129.395119 44.7287299,127.181119 C56.5107299,124.969119 68.2377299,122.479119 79.9097299,119.744119 C80.5747299,119.592119 81.2347299,120.478119 80.8927299,121.073119" id="Fill-375" fill="#1C1C1B"></path>
            <path d="M39.3736299,136.750919 C39.6676299,136.477919 39.7216299,136.085919 39.6246299,135.758919 C40.1806299,135.626919 40.2376299,134.813919 39.5896299,134.653919 C37.3286299,134.089919 34.8336299,134.456919 32.7076299,135.351919 C32.1136299,135.603919 31.9496299,136.414919 32.4776299,136.828919 C34.4156299,138.360919 37.5056299,138.502919 39.3736299,136.750919 M44.8126299,154.140919 C46.6536299,153.559919 48.4286299,151.840919 48.5176299,149.809919 C48.5306299,149.552919 48.4166299,149.319919 48.2486299,149.143919 C48.3006299,149.109919 48.3526299,149.076919 48.3996299,149.047919 C48.8926299,148.765919 48.5466299,147.904919 48.0016299,148.011919 C45.5896299,148.503919 43.8526299,150.811919 43.6326299,153.196919 C43.5636299,153.875919 44.1736299,154.346919 44.8126299,154.140919 M66.5116299,131.736919 C66.8466299,131.420919 66.8946299,130.858919 66.6836299,130.497919 C66.6626299,130.272919 66.5186299,130.056919 66.2226299,129.978919 C63.6336299,129.302919 60.9016299,130.297919 59.1026299,132.213919 C58.6236299,132.731919 59.0646299,133.493919 59.6546299,133.622919 C62.1096299,134.141919 64.6866299,133.464919 66.5116299,131.736919 M78.0826299,122.104919 C67.6946299,139.774919 55.8276299,156.570919 42.7236299,172.327919 C42.6596299,172.260919 42.5926299,172.198919 42.4986299,172.148919 C35.5826299,168.296919 29.7426299,162.743919 25.7336299,155.900919 C22.1046299,149.721919 18.0746299,140.233919 21.0506299,133.108919 C29.0516299,132.003919 37.0136299,130.508919 44.9356299,129.031919 C56.0326299,126.964919 67.0786299,124.638919 78.0826299,122.104919" id="Fill-377" fill="#C90E32"></path>
            <path d="M41.7486299,173.484319 C41.0616299,174.312319 40.3696299,175.135319 39.6636299,175.956319 C31.8526299,172.023319 25.7696299,165.491319 21.8526299,157.697319 C20.2516299,154.514319 18.9776299,151.159319 17.9976299,147.731319 C16.8776299,143.840319 14.8486299,138.122319 16.9846299,134.322319 C17.1356299,134.050319 16.9716299,133.786319 16.7306299,133.669319 C17.8196299,133.538319 18.9076299,133.399319 20.0006299,133.254319 C16.5596299,139.823319 20.5176299,149.411319 23.6866299,155.267319 C27.8376299,162.956319 34.1046299,169.268319 41.7486299,173.484319" id="Fill-379" fill="#EBEBEB"></path>
            <path d="M38.5474299,177.258819 C37.7684299,178.170819 36.9874299,179.073819 36.2024299,179.972819 C36.1274299,179.837819 36.0164299,179.715819 35.8534299,179.627819 C27.9074299,175.110819 21.2044299,169.551819 16.4214299,161.632819 C11.4274299,153.350819 9.29442993,143.994819 9.73142993,134.389819 C11.8714299,134.215819 14.0164299,133.985819 16.1584299,133.737819 C16.1374299,133.753819 16.1104299,133.766819 16.1004299,133.790819 C13.8234299,136.877819 14.7614299,140.788819 15.4884299,144.282819 C16.4624299,148.940819 17.9464299,153.514819 20.0414299,157.792819 C24.0904299,166.076819 30.3484299,173.007819 38.5474299,177.258819" id="Fill-381" fill="#036633"></path>
            <path d="M66.6832299,130.498019 C66.8952299,130.859019 66.8462299,131.421019 66.5112299,131.737019 C64.6872299,133.465019 62.1102299,134.142019 59.6552299,133.623019 C59.0652299,133.494019 58.6232299,132.732019 59.1032299,132.214019 C60.9022299,130.298019 63.6332299,129.303019 66.2222299,129.979019 C66.5182299,130.057019 66.6622299,130.273019 66.6832299,130.498019" id="Fill-383" fill="#1C1C1B"></path>
            <path d="M48.5171299,149.809519 C48.4281299,151.841519 46.6541299,153.559519 44.8131299,154.140519 C44.1731299,154.346519 43.5641299,153.876519 43.6321299,153.196519 C43.8531299,150.811519 45.5891299,148.503519 48.0011299,148.012519 C48.5461299,147.905519 48.8921299,148.766519 48.4001299,149.048519 C48.3521299,149.076519 48.3001299,149.110519 48.2481299,149.143519 C48.4161299,149.319519 48.5311299,149.553519 48.5171299,149.809519" id="Fill-385" fill="#1C1C1B"></path>
            <path d="M36.3238299,136.057119 C36.4698299,135.999119 36.6178299,135.950119 36.7648299,135.901119 C36.2498299,135.973119 35.7378299,136.080119 35.2338299,136.220119 C35.4898299,136.266119 35.7508299,136.283119 36.0048299,136.269119 C36.0828299,136.182119 36.1808299,136.110119 36.3238299,136.057119 M39.6248299,135.759119 C39.7208299,136.086119 39.6678299,136.477119 39.3738299,136.751119 C37.5058299,138.503119 34.4158299,138.361119 32.4778299,136.829119 C31.9498299,136.415119 32.1138299,135.603119 32.7078299,135.352119 C34.8338299,134.456119 37.3288299,134.090119 39.5898299,134.654119 C40.2378299,134.814119 40.1798299,135.627119 39.6248299,135.759119" id="Fill-387" fill="#1C1C1B"></path>
            <path d="M151.29553,107.741219 C152.50053,106.898219 153.77353,106.147219 155.13653,105.471219 C158.59253,103.759219 157.53053,99.2912185 154.69753,97.8122185 C155.10853,97.4552185 155.51953,97.0972185 155.92453,96.7312185 C158.18553,94.6872185 157.24453,89.9222185 153.99653,89.4312185 C152.43353,89.1952185 150.88853,89.0642185 149.35853,89.0562185 L154.20953,80.5172185 C156.07853,77.2262185 152.98553,73.0722185 149.27553,74.1002185 C144.44153,75.4402185 140.27353,77.9522185 136.93953,81.3352185 C135.94853,79.3452185 134.65153,77.4902185 133.08653,75.8222185 C130.63553,73.2122185 126.91953,74.8642185 125.78353,77.7502185 C125.06153,79.5872185 124.63353,81.4482185 124.43553,83.3262185 C121.37153,82.4542185 118.24053,81.8882185 114.94953,81.6442185 C110.37653,81.3052185 109.35153,87.6052185 112.74453,89.7862185 C114.09353,90.6532185 115.42253,91.5452185 116.74153,92.4502185 C116.11753,92.6162185 115.49353,92.8032185 114.86953,93.0132185 C110.76053,94.3962185 110.68653,100.083219 114.86953,101.441219 C116.37453,101.929219 117.85453,102.463219 119.31553,103.033219 C113.42753,107.199219 109.55353,114.150219 107.24053,121.219219 C103.58153,132.407219 101.44053,148.648219 109.01653,158.759219 C115.80353,167.817219 129.04153,169.372219 139.23553,166.106219 C150.36853,162.540219 158.17353,153.767219 159.82753,142.148219 C161.53153,130.178219 160.01053,116.410219 151.29553,107.741219" id="Fill-389" fill="#FFFFFF"></path>
            <path d="M151.20663,136.930119 C151.48063,132.192119 151.51363,127.356119 150.62663,122.683119 C148.83463,113.207119 141.14363,104.005119 130.56063,106.469119 C130.46963,106.488119 130.39163,106.494119 130.31863,106.481119 C118.65963,108.476119 113.49863,120.422119 112.85963,131.162119 C112.27263,140.892119 113.13963,151.613119 122.26463,157.179119 C130.58663,162.256119 141.91363,159.734119 147.30363,151.541119 C150.13863,147.234119 150.91363,141.981119 151.20663,136.930119 M152.91463,123.993119 C154.40663,134.434119 154.17863,148.752119 145.73163,156.371119 C138.27663,163.090119 127.09363,163.612119 119.18763,157.394119 C110.03763,150.193119 109.76463,136.891119 111.46463,126.294119 C112.88563,117.456119 117.89163,108.795119 126.27163,105.673119 L127.63463,105.223119 C128.62463,104.937119 129.66063,104.722119 130.73563,104.598119 C131.08863,104.552119 131.33563,104.741119 131.48563,105.002119 C134.62763,104.063119 137.84063,104.454119 140.77263,105.739119 L141.83563,106.247119 C142.91063,106.807119 143.93963,107.492119 144.90463,108.274119 C149.70763,112.158119 152.06063,118.011119 152.91463,123.993119" id="Fill-391" fill="#1C1C1B"></path>
            <path d="M122.35503,142.815419 C123.18303,142.756419 123.55403,141.661419 122.79203,141.205419 C121.16303,140.247419 119.68303,138.852419 118.00803,138.024419 C117.22603,137.640419 116.61303,138.526419 117.11503,139.178419 C117.77303,140.019419 118.71103,140.729419 119.69603,141.361419 C118.37903,141.498419 117.06303,141.642419 115.75903,141.870419 C115.01003,142.000419 115.20603,143.173419 115.94203,143.173419 C118.07303,143.173419 120.22403,142.945419 122.35503,142.815419 M147.19903,144.118419 C147.86403,144.177419 147.98103,143.127419 147.35503,142.965419 C145.89503,142.586419 144.40303,142.358419 142.89703,142.235419 C143.91503,141.700419 144.90503,141.147419 145.83603,140.508419 C146.52103,140.039419 146.11103,138.702419 145.22403,139.061419 C143.09903,139.921419 141.09803,141.159419 139.08403,142.241419 C138.33503,142.645419 138.65503,143.923419 139.52803,143.871419 C142.10203,143.734419 144.63103,143.884419 147.19903,144.118419 M150.62603,122.683419 C151.51303,127.356419 151.48103,132.192419 151.20703,136.930419 C150.91403,141.981419 150.13803,147.233419 147.30303,151.541419 C141.91403,159.733419 130.58603,162.256419 122.26403,157.179419 C113.13903,151.613419 112.27303,140.892419 112.86003,131.162419 C113.49903,120.421419 118.66003,108.476419 130.31903,106.481419 C130.39103,106.494419 130.46903,106.488419 130.56003,106.468419 C141.14403,104.004419 148.83403,113.207419 150.62603,122.683419" id="Fill-393" fill="#F6A821"></path>
            <path d="M149.77303,92.3784185 C150.62103,92.4894185 150.90703,93.4344185 150.19703,93.9554185 C147.70103,95.8134185 145.30903,97.7874185 143.00803,99.8734185 C144.67003,99.8474185 146.33803,99.8144185 148.00103,99.7884185 C149.01003,99.7754185 149.06303,101.124419 148.22203,101.437419 C145.67303,102.401419 143.69903,103.946419 142.03703,106.077419 C141.97803,106.149419 141.90703,106.208419 141.83603,106.247419 L140.77303,105.738419 C140.70803,105.556419 140.71403,105.347419 140.85103,105.158419 C141.91403,103.666419 143.10603,102.486419 144.49403,101.535419 C143.26203,101.554419 142.03103,101.580419 140.79803,101.600419 C140.07603,101.613419 139.67103,100.661419 140.20603,100.159419 C142.51903,97.9704185 144.93103,95.9104185 147.43303,93.9554185 C145.18503,94.0274185 143.07403,94.6394185 140.93603,95.7084185 C140.27103,96.0414185 139.51503,95.4934185 139.68403,94.7444185 C140.77903,90.0844185 142.50603,85.7114185 144.85903,81.5924185 C141.10503,83.5734185 137.58503,86.1874185 137.15603,90.7684185 C137.07803,91.5964185 136.01503,91.9874185 135.54003,91.2114185 C133.72103,88.2134185 131.62303,85.4894185 129.23703,82.9864185 C130.01903,85.6714185 130.74303,88.3764185 131.39403,91.1074185 C131.56403,91.8244185 130.78203,92.5084185 130.11103,92.0914185 C127.18403,90.2664185 124.07603,88.9824185 120.77803,88.2394185 C124.34303,91.0944185 127.64703,94.2034185 129.85003,98.3094185 C130.29403,99.1364185 129.42603,99.8474185 128.65103,99.5084185 C126.23303,98.4714185 123.85403,98.1134185 121.39703,98.3874185 C124.07603,100.048419 126.16803,102.330419 127.63403,105.223419 L126.27203,105.673419 C124.37603,102.532419 121.71603,100.211419 118.30803,98.7524185 C117.57203,98.4394185 117.83803,97.2984185 118.51603,97.1164185 C121.45603,96.3404185 124.28403,96.3604185 127.08003,97.1294185 C124.46603,93.2904185 120.83603,90.4034185 117.12203,87.5754185 C116.53503,87.1254185 116.59403,85.8484185 117.55803,85.9594185 C121.72903,86.4284185 125.58203,87.6074185 129.21103,89.5634185 C128.42203,86.4214185 127.54303,83.3064185 126.56503,80.2104185 C126.29203,79.3374185 127.41303,78.8024185 128.02503,79.3634185 C131.03603,82.1074185 133.62903,85.1444185 135.87203,88.5064185 C137.38303,83.6124185 142.07703,80.9604185 146.69003,78.7834185 C147.40103,78.4444185 148.37203,79.1744185 147.86403,79.9564185 C145.10703,84.1664185 143.08603,88.6634185 141.77003,93.4864185 C144.32503,92.4624185 146.93103,92.0064185 149.77303,92.3784185" id="Fill-395" fill="#1C1C1B"></path>
            <path d="M147.35503,142.965319 C147.98103,143.128319 147.86403,144.177319 147.19903,144.118319 C144.63103,143.884319 142.10203,143.734319 139.52803,143.871319 C138.65503,143.923319 138.33503,142.645319 139.08403,142.241319 C141.09803,141.159319 143.09903,139.921319 145.22403,139.061319 C146.11103,138.702319 146.52103,140.039319 145.83603,140.508319 C144.90503,141.147319 143.91503,141.700319 142.89703,142.235319 C144.40303,142.359319 145.89503,142.587319 147.35503,142.965319" id="Fill-397" fill="#1C1C1B"></path>
            <path d="M140.79843,101.600119 C142.03043,101.580119 143.26243,101.555119 144.49343,101.535119 C143.10643,102.486119 141.91343,103.666119 140.85143,105.159119 C140.71443,105.348119 140.70743,105.556119 140.77343,105.739119 C137.84043,104.454119 134.62743,104.063119 131.48543,105.002119 C131.33543,104.741119 131.08843,104.552119 130.73543,104.598119 C129.66043,104.722119 128.62443,104.937119 127.63443,105.224119 C126.16743,102.330119 124.07543,100.049119 121.39743,98.3871185 C123.85443,98.1131185 126.23343,98.4721185 128.65143,99.5081185 C129.42643,99.8471185 130.29343,99.1371185 129.85043,98.3091185 C127.64743,94.2031185 124.34343,91.0941185 120.77743,88.2401185 C124.07543,88.9831185 127.18443,90.2671185 130.11043,92.0911185 C130.78143,92.5091185 131.56443,91.8241185 131.39443,91.1071185 C130.74243,88.3761185 130.01943,85.6721185 129.23643,82.9871185 C131.62243,85.4901185 133.72143,88.2141185 135.53943,91.2111185 C136.01543,91.9871185 137.07743,91.5961185 137.15543,90.7681185 C137.58543,86.1871185 141.10543,83.5731185 144.85943,81.5921185 C142.50643,85.7111185 140.77843,90.0841185 139.68443,94.7441185 C139.51543,95.4941185 140.27143,96.0411185 140.93643,95.7081185 C143.07343,94.6401185 145.18543,94.0271185 147.43343,93.9551185 C144.93143,95.9111185 142.51943,97.9701185 140.20543,100.160119 C139.67143,100.662119 140.07543,101.613119 140.79843,101.600119" id="Fill-399" fill="#3CA836"></path>
            <path d="M122.79163,141.205519 C123.55463,141.661519 123.18363,142.756519 122.35463,142.815519 C120.22463,142.945519 118.07263,143.173519 115.94163,143.173519 C115.20563,143.173519 115.01063,142.000519 115.75963,141.870519 C117.06263,141.642519 118.37963,141.498519 119.69563,141.361519 C118.71163,140.729519 117.77263,140.019519 117.11463,139.178519 C116.61263,138.526519 117.22663,137.640519 118.00863,138.024519 C119.68363,138.852519 121.16263,140.247519 122.79163,141.205519" id="Fill-401" fill="#1C1C1B"></path>
            <path d="M49.2330299,27.2153185 C49.0850299,24.6833185 49.3930299,22.2573185 50.2060299,20.0213185 C49.5600299,22.3283185 49.3330299,24.7883185 49.2330299,27.2153185 M85.4940299,12.8843185 C82.7740299,7.32531852 78.3750299,2.35131852 72.2210299,0.681318521 C65.9030299,-1.03268148 58.7370299,0.650318521 53.1920299,3.90831852 C47.7340299,7.11631852 43.2760299,12.1663185 41.4210299,18.2793185 C39.3390299,25.1363185 40.8420299,32.3853185 42.7320299,39.0973185 C45.1800299,47.7963185 47.7090299,56.4793185 50.2920299,65.1393185 C51.1010299,67.8513185 52.0480299,70.6733185 54.0410299,72.5663185 C52.7120299,78.1013185 52.9030299,84.7153185 59.7520299,84.8023185 C62.7020299,84.8403185 65.7870299,84.4733185 68.8720299,83.8703185 C69.1300299,87.8283185 70.0710299,92.0083185 71.3100299,95.3343185 C72.8380299,99.4363185 76.7010299,102.938319 81.3720299,101.941319 C92.2130299,99.6273185 89.1240299,86.4513185 86.2120299,78.6903185 C91.5300299,76.6533185 96.2960299,73.9043185 96.8160299,67.3903185 C97.4040299,60.0233185 94.3070299,51.6313185 91.6820299,44.8783185 C92.9770299,41.8353185 91.9820299,37.4613185 91.6090299,34.4343185 C90.6980299,27.0513185 88.7730299,19.5903185 85.4940299,12.8843185" id="Fill-403" fill="#FFFFFF"></path>
            <path d="M83.9644299,89.9350185 C83.6784299,88.3880185 83.2144299,86.8570185 82.8314299,85.3280185 C81.9774299,81.9400185 81.1104299,78.5570185 80.2754299,75.1640185 C77.5974299,75.9020185 74.9064299,76.6420185 72.2044299,77.3320185 C73.5024299,79.9160185 74.4674299,82.6170185 75.3354299,85.3900185 C76.2384299,88.2470185 76.5644299,92.8210185 78.7504299,95.0080185 C79.9374299,96.4990185 81.1054299,96.4960185 82.2664299,94.9890185 C83.5464299,94.7630185 84.1644299,94.1170185 84.1164299,93.0410185 C84.3854299,92.0460185 84.1464299,90.9310185 83.9644299,89.9350185 M87.5244299,41.9560185 C87.2504299,42.0450185 86.9604299,42.1240185 86.6514299,42.1750185 C84.9554299,42.4580185 83.9604299,41.6520185 82.3814299,41.5700185 C79.8434299,41.4390185 81.3674299,45.5190185 81.5454299,47.1140185 C81.7084299,48.5440185 81.7484299,49.9650185 81.4424299,51.3720185 C80.4594299,55.8510185 75.5294299,58.8370185 71.1804299,57.6420185 C70.9984299,57.8550185 70.7204299,57.9780185 70.3584299,57.8740185 C66.6934299,56.7890185 65.7494299,61.0700185 65.6064299,63.6120185 C65.5454299,64.6280185 65.5764299,65.6420185 65.3434299,66.6410185 C64.9234299,68.4250185 63.8654299,69.9460185 62.2764299,70.8940185 C60.6394299,71.8690185 58.9734299,72.0570185 57.5154299,71.6020185 C57.9544299,73.0110185 57.7844299,74.4240185 58.3034299,75.8520185 C59.6934299,79.6900185 66.5914299,76.7820185 69.0504299,76.1660185 C74.3074299,74.8370185 79.5914299,73.5890185 84.8354299,72.2090185 C87.9814299,71.3820185 91.2524299,70.2810185 91.3354299,66.3700185 C91.3804299,63.8390185 90.6444299,61.1890185 90.2424299,58.7030185 C89.3444299,53.1230185 88.4494299,47.5360185 87.5244299,41.9560185 M86.6494299,31.8830185 C86.0324299,29.5040185 85.3124299,27.1590185 84.3914299,24.8760185 C82.7434299,20.7880185 80.4914299,16.9170185 77.3074299,13.8310185 C70.4694299,7.20501852 60.2414299,5.42401852 52.6034299,11.9180185 C44.4444299,18.8640185 44.6474299,29.5220185 47.1104299,39.0160185 C49.6604299,48.8580185 52.9024299,58.6960185 54.7834299,68.6850185 C57.6954299,70.9260185 62.3414299,70.5620185 63.6124299,66.6230185 C64.3044299,64.4750185 63.6564299,62.0780185 64.3964299,59.9040185 C65.2704299,57.3540185 67.5344299,55.5840185 70.1564299,56.1040185 C70.3174299,55.9900185 70.5174299,55.9340185 70.7214299,55.9700185 C74.3714299,56.6750185 78.5454299,55.3690185 79.6964299,51.4330185 C80.6534299,48.1700185 78.7534299,45.0040185 79.2584299,41.8140185 C79.4554299,40.5360185 80.1284299,39.6010185 81.5134299,39.5770185 C82.2694299,39.5630185 82.9314299,40.0350185 83.6414299,40.2410185 C84.8344299,40.5800185 85.9684299,40.5720185 87.1104299,40.4400185 C87.2414299,39.9710185 87.6734299,39.6010185 88.2744299,39.8000185 C88.0014299,39.7070185 86.8464299,32.6730185 86.6494299,31.8830185 M87.8614299,28.5960185 C88.7624299,31.5490185 89.4594299,34.5790185 90.0054299,37.6200185 C90.2854299,39.1690185 90.4234299,40.4710185 89.1814299,41.6020185 C89.1344299,41.6540185 89.0704299,41.6970185 89.0064299,41.7330185 C90.2944299,49.3520185 92.0244299,57.0140185 92.8764299,64.6880185 C93.4684299,69.9810185 90.4504299,72.4160185 85.6564299,73.6900185 C84.3664299,74.0390185 83.0584299,74.3940185 81.7504299,74.7550185 C83.1554299,80.0190185 85.2904299,85.7600185 85.7404299,91.1560185 C85.9634299,93.8150185 85.0174299,97.0950185 82.0194299,97.7050185 C78.6234299,98.3930185 76.5454299,95.0830185 75.6634299,92.3620185 C74.0814299,87.4900185 72.6024299,82.5190185 71.1234299,77.6020185 C68.2264299,78.3210185 65.3234299,78.9660185 62.4434299,79.4520185 C60.6244299,79.7590185 58.6714299,79.7110185 57.4934299,78.0640185 C56.0594299,76.0650185 56.9464299,73.1960185 56.1834299,70.9750185 C55.6144299,70.6130185 55.1054299,70.1300185 54.6634299,69.5480185 C54.3344299,69.8990185 53.6624299,69.8730185 53.4524299,69.2730185 C51.1934299,62.7980185 49.7154299,55.9790185 47.9504299,49.3530185 C46.3564299,43.3570185 44.2124299,37.2360185 43.6654299,31.0240185 C42.8064299,21.2280185 47.4464299,10.9370185 56.9244299,7.12101852 C65.5924299,3.63501852 74.8894299,7.68401852 80.6584299,14.4700185 C84.1244299,18.5470185 86.3224299,23.5190185 87.8614299,28.5960185" id="Fill-405" fill="#1C1C1B"></path>
            <path d="M84.3912299,24.8764185 C85.3122299,27.1584185 86.0332299,29.5044185 86.6492299,31.8824185 C86.8462299,32.6734185 88.0012299,39.7074185 88.2742299,39.7994185 C87.6732299,39.6014185 87.2422299,39.9714185 87.1112299,40.4404185 C85.9682299,40.5714185 84.8342299,40.5804185 83.6412299,40.2404185 C82.9312299,40.0354185 82.2692299,39.5634185 81.5132299,39.5774185 C80.1282299,39.6014185 79.4552299,40.5354185 79.2582299,41.8144185 C78.7532299,45.0044185 80.6542299,48.1694185 79.6972299,51.4324185 C78.5452299,55.3684185 74.3712299,56.6754185 70.7212299,55.9694185 C70.5172299,55.9334185 70.3172299,55.9904185 70.1572299,56.1044185 C67.5352299,55.5844185 65.2702299,57.3544185 64.3962299,59.9034185 C63.6572299,62.0774185 64.3042299,64.4754185 63.6132299,66.6234185 C62.3412299,70.5624185 57.6962299,70.9254185 54.7842299,68.6854185 C52.9022299,58.6954185 49.6612299,48.8584185 47.1102299,39.0164185 C44.6472299,29.5224185 44.4452299,18.8634185 52.6032299,11.9174185 C60.2422299,5.42441852 70.4692299,7.20441852 77.3072299,13.8314185 C80.4922299,16.9174185 82.7442299,20.7874185 84.3912299,24.8764185" id="Fill-407" fill="#B7873E"></path>
            <path d="M66.2173299,73.5967185 C66.8873299,73.3477185 66.9183299,72.1587185 66.0593299,72.2117185 C64.4193299,72.3197185 62.8323299,72.1797185 61.1983299,72.1177185 C60.4653299,72.0867185 60.2663299,73.2247185 60.9943299,73.3987185 C61.7453299,73.5807185 62.5273299,73.6667185 63.3073299,73.7007185 C62.7033299,74.0257185 62.1063299,74.3497185 61.5133299,74.6937185 C60.9963299,74.9907185 61.4353299,75.7207185 61.9673299,75.4867185 C63.3783299,74.8717185 64.7663299,74.1347185 66.2173299,73.5967185 M87.3383299,68.0357185 C87.9423299,67.8447185 87.7223299,66.9927185 87.1013299,67.0877185 C86.3293299,67.1997185 85.5473299,67.3217185 84.7633299,67.4637185 C85.3023299,66.8517185 85.7753299,66.1897185 86.1443299,65.4657185 C86.5323299,64.7097185 85.5083299,64.1067185 85.0203299,64.7857185 C84.1403299,66.0207185 83.1993299,67.1497185 81.9783299,68.0667185 C81.3493299,68.5337185 81.6503299,69.6267185 82.5263299,69.4217185 C84.1343299,69.0587185 85.7663299,68.5437185 87.3383299,68.0357185 M86.6513299,42.1747185 C86.9603299,42.1237185 87.2503299,42.0447185 87.5243299,41.9557185 C88.4493299,47.5357185 89.3443299,53.1227185 90.2423299,58.7027185 C90.6443299,61.1887185 91.3803299,63.8397185 91.3353299,66.3697185 C91.2523299,70.2807185 87.9813299,71.3817185 84.8353299,72.2087185 C79.5913299,73.5887185 74.3073299,74.8377185 69.0503299,76.1657185 C66.5913299,76.7817185 59.6943299,79.6897185 58.3033299,75.8527185 C57.7843299,74.4237185 57.9543299,73.0107185 57.5153299,71.6027185 C58.9733299,72.0567185 60.6393299,71.8687185 62.2763299,70.8947185 C63.8653299,69.9457185 64.9233299,68.4257185 65.3433299,66.6407185 C65.5763299,65.6417185 65.5453299,64.6287185 65.6063299,63.6117185 C65.7493299,61.0707185 66.6943299,56.7897185 70.3583299,57.8747185 C70.7203299,57.9787185 70.9983299,57.8557185 71.1803299,57.6417185 C75.5303299,58.8377185 80.4593299,55.8507185 81.4423299,51.3717185 C81.7483299,49.9657185 81.7083299,48.5447185 81.5453299,47.1137185 C81.3673299,45.5187185 79.8433299,41.4397185 82.3813299,41.5707185 C83.9603299,41.6517185 84.9553299,42.4577185 86.6513299,42.1747185" id="Fill-409" fill="#FFEA97"></path>
            <path d="M87.1011299,67.0874185 C87.7221299,66.9924185 87.9421299,67.8444185 87.3381299,68.0354185 C85.7661299,68.5434185 84.1341299,69.0594185 82.5261299,69.4214185 C81.6501299,69.6274185 81.3491299,68.5334185 81.9781299,68.0664185 C83.2001299,67.1494185 84.1401299,66.0214185 85.0201299,64.7864185 C85.5081299,64.1064185 86.5331299,64.7104185 86.1441299,65.4654185 C85.7751299,66.1904185 85.3021299,66.8524185 84.7631299,67.4634185 C85.5471299,67.3214185 86.3301299,67.1994185 87.1011299,67.0874185" id="Fill-411" fill="#1C1C1B"></path>
            <path d="M82.8316299,85.3276185 C83.2146299,86.8576185 83.6786299,88.3876185 83.9646299,89.9346185 C84.1456299,90.9306185 84.3856299,92.0466185 84.1166299,93.0406185 C84.1646299,94.1176185 83.5466299,94.7626185 82.2666299,94.9886185 C81.1046299,96.4956185 79.9366299,96.4986185 78.7506299,95.0086185 C76.5636299,92.8216185 76.2386299,88.2466185 75.3356299,85.3896185 C74.4676299,82.6176185 73.5026299,79.9156185 72.2046299,77.3316185 C74.9066299,76.6416185 77.5976299,75.9016185 80.2746299,75.1646185 C81.1096299,78.5566185 81.9776299,81.9406185 82.8316299,85.3276185" id="Fill-413" fill="#F9DE96"></path>
            <path d="M66.0591299,72.2119185 C66.9181299,72.1579185 66.8871299,73.3479185 66.2171299,73.5969185 C64.7661299,74.1339185 63.3781299,74.8719185 61.9671299,75.4869185 C61.4351299,75.7209185 60.9971299,74.9899185 61.5131299,74.6929185 C62.1061299,74.3499185 62.7041299,74.0259185 63.3071299,73.6999185 C62.5271299,73.6669185 61.7461299,73.5809185 60.9951299,73.3989185 C60.2661299,73.2249185 60.4651299,72.0869185 61.1991299,72.1179185 C62.8321299,72.1799185 64.4191299,72.3199185 66.0591299,72.2119185" id="Fill-415" fill="#1C1C1B"></path>
        </g>
    </g>
</svg>