<?xml version="1.0" encoding="UTF-8"?>
<svg width="181px" height="77px" viewBox="0 0 181 77" version="1.1" xmlns="http://www.w3.org/2000/svg" xmlns:xlink="http://www.w3.org/1999/xlink">
    <!-- Generator: Sketch 53.1 (72631) - https://sketchapp.com -->
    <title>Group 986</title>
    <desc>Created with Sketch.</desc>
    <defs>
        <polygon id="path-1" points="0.683757075 0.984816095 180.941 0.984816095 180.941 77.709325 0.683757075 77.709325"></polygon>
    </defs>
    <g id="Page-1" stroke="none" stroke-width="1" fill="none" fill-rule="evenodd">
        <g id="Group-98" transform="translate(0.000000, -0.730000)">
            <g id="Group-3">
                <mask id="mask-2" fill="white">
                    <use xlink:href="#path-1"></use>
                </mask>
                <g id="Clip-2"></g>
                <path d="M174.1851,14.3776 C169.5651,9.6156 163.1281,6.9126 156.7491,5.3556 C147.5751,2.1826 96.0251,0.2916 79.9111,1.2226 C71.8711,1.6876 63.8301,2.1496 55.7891,2.6156 C47.9291,3.0716 39.7151,3.3566 32.1231,5.6116 C31.0811,5.9206 30.0511,6.2626 29.0371,6.6336 C29.0201,6.6366 29.0021,6.6396 28.9861,6.6426 C28.9341,6.6646 28.8831,6.6886 28.8311,6.7106 C26.2591,7.6626 23.7901,8.8206 21.4921,10.2376 C18.1031,12.0786 14.8921,14.1606 11.9841,16.5646 C2.4761,24.4226 -3.3409,38.6126 4.0001,49.8636 C6.0491,53.0046 8.5691,55.4116 11.4051,57.2626 C16.4531,61.5746 23.3041,64.3056 29.2041,65.7586 C40.3041,68.4946 52.1201,68.4326 63.4851,68.6366 C69.3731,68.7426 75.2641,68.7406 81.1531,68.6066 C84.1091,68.5396 87.2431,68.5896 90.3711,68.4986 C90.3741,70.2996 90.5591,72.1306 90.9731,74.0086 C91.6761,77.1946 95.9761,78.6846 98.6351,77.0226 C104.6701,73.2486 110.0301,69.5656 116.9871,67.7036 C123.3431,66.0006 129.8931,65.2886 136.4101,64.5026 C149.2011,62.9606 163.6801,61.5116 173.7841,52.5726 C179.3711,47.6296 180.3251,40.3756 180.8611,33.3006 C181.4021,26.1456 179.2211,19.5676 174.1851,14.3776" id="Fill-1" fill="#FFFDFE" mask="url(#mask-2)"></path>
            </g>
            <path d="M164.0132,14.1735 C143.2032,2.8845 46.6862,7.5425 46.2642,7.5895 C47.7942,7.6265 31.6652,7.5435 18.0452,18.2845 C9.1092,25.3335 3.9042,38.6315 10.6782,49.0135 C19.0592,61.8585 35.8852,61.5015 49.4302,61.3215 C65.7242,61.1045 82.0132,60.6335 98.2942,59.9435 C97.5592,62.5995 95.3522,69.9865 95.9102,70.8225 C96.7962,72.4975 99.7892,72.7775 100.4542,70.4305 C109.8822,61.3795 123.7522,60.5705 136.0772,58.9305 C148.0052,57.3425 160.7272,54.2705 168.4962,44.2715 C171.9382,39.8425 174.2502,33.9795 173.1472,28.3205 C172.1192,23.0495 168.5652,16.6425 164.0132,14.1735" id="Fill-4" fill="#4C2030"></path>
            <path d="M96.8209,70.4011 C97.1049,70.8821 97.7689,71.1981 98.3939,71.1261 C98.7819,71.0861 99.2869,70.8841 99.4929,70.1581 L99.5659,69.8971 L99.7619,69.7091 C108.4469,61.3711 120.4489,59.8781 132.0549,58.4341 C133.3649,58.2711 134.6639,58.1091 135.9459,57.9391 C147.3419,56.4221 160.0289,53.5401 167.7069,43.6581 C171.4719,38.8121 173.0969,33.2921 172.1659,28.5121 C171.2379,23.7531 167.8989,17.4191 163.5369,15.0521 C155.1909,10.5251 132.4619,7.9601 97.8049,7.6331 C71.7119,7.3911 48.4249,8.4821 46.4739,8.5791 C46.4019,8.5921 46.3249,8.6021 46.2399,8.6081 C42.5669,8.8581 29.7219,10.3501 18.6649,19.0701 C10.1199,25.8101 5.1099,38.6491 11.5159,48.4671 C19.5119,60.7221 35.8649,60.5031 49.0089,60.3271 L49.4169,60.3211 C65.2419,60.1101 81.6729,59.6471 98.2529,58.9441 L99.6249,58.8861 L98.9149,61.4331 C98.3039,63.5881 96.6999,69.2541 96.8209,70.4011 M98.2249,73.1351 C96.9119,73.1351 95.6449,72.4261 95.0449,71.3231 C94.5429,70.4831 94.7829,68.6931 96.9589,61.0001 C80.8279,61.6721 64.8489,62.1161 49.4439,62.3211 L49.0359,62.3271 C35.4089,62.5111 18.4379,62.7371 9.8409,49.5601 C2.8089,38.7831 8.1749,24.7961 17.4259,17.5001 C28.9339,8.4241 42.2869,6.8721 46.1039,6.6131 L46.1559,6.6091 L46.1549,6.5951 C46.2749,6.5821 70.3819,5.3901 97.5029,5.6301 C133.1689,5.9511 155.7069,8.5301 164.4899,13.2951 C169.4429,15.9821 173.0889,22.7911 174.1289,28.1291 C175.1719,33.4761 173.4059,39.5831 169.2869,44.8851 C161.1649,55.3371 148.0089,58.3511 136.2099,59.9221 C134.9219,60.0931 133.6169,60.2551 132.3019,60.4191 C121.1009,61.8121 109.5219,63.2531 101.3269,70.9811 C100.8829,72.1901 99.8839,72.9801 98.6049,73.1151 C98.4779,73.1291 98.3509,73.1351 98.2249,73.1351" id="Fill-6" fill="#020202"></path>
            <path d="M49.4088,46.1169 C49.4088,45.3309 49.7378,44.9369 50.3948,44.9369 C50.7238,44.9369 51.1568,45.0479 51.6938,45.2689 C52.2288,45.4909 52.6938,45.6019 53.0878,45.6019 C53.4808,45.6019 53.9058,45.3519 54.3638,44.8509 C54.8208,44.3509 55.1788,43.7289 55.4358,42.9849 C55.9658,41.4699 56.2298,40.0999 56.2298,38.8779 C56.2298,37.6549 56.0158,36.3439 55.5868,34.9409 C55.1568,33.5399 54.6358,32.2239 54.0198,30.9949 C53.4058,29.7649 52.7838,28.5349 52.1548,27.3049 C50.6668,24.3739 49.9298,21.6999 49.9458,19.2829 C49.9298,16.9949 50.6528,15.2009 52.1118,13.8989 C52.8838,13.2129 53.7918,12.8699 54.8358,12.8699 C55.3648,12.8699 55.8798,13.0159 56.3798,13.3089 C56.8808,13.6019 57.2308,13.9849 57.4308,14.4569 L56.6798,15.4009 C55.9518,15.4009 55.3798,15.2579 54.9648,14.9709 C54.4208,15.0289 53.9488,15.2859 53.5498,15.7439 C52.8188,16.5879 52.4548,17.6279 52.4548,18.8649 C52.4548,20.1019 52.6118,21.3059 52.9268,22.4789 C53.2408,23.6519 53.6348,24.7029 54.1058,25.6329 C54.5788,26.5619 55.0858,27.5699 55.6298,28.6569 C56.1868,29.7439 56.7018,30.7879 57.1748,31.7879 C58.2748,34.1049 58.8248,36.6069 58.8248,39.2959 C58.8398,41.1829 58.3598,42.9999 57.3878,44.7439 C56.9298,45.5739 56.3018,46.2569 55.5008,46.7929 C54.6998,47.3289 53.8058,47.5959 52.8188,47.5959 C51.7608,47.5959 50.9288,47.4389 50.3208,47.1249 C49.7128,46.8099 49.4088,46.4739 49.4088,46.1169" id="Fill-8" fill="#FFFFFF"></path>
            <path d="M61.6568,24.4528 L61.4208,20.7418 C61.4208,18.6688 62.0358,17.6318 63.2658,17.6318 C64.0518,17.6318 65.1238,17.8138 66.4828,18.1788 C67.8418,18.5428 68.5198,19.0118 68.5198,19.5838 C68.5198,20.1838 68.0928,20.6408 67.2338,20.9558 C65.8758,20.4988 64.7668,20.2198 63.9088,20.1198 C63.9518,20.7488 63.9728,21.3778 63.9728,22.0078 L63.7798,28.3128 C63.7798,28.3428 63.8228,28.5708 63.9088,28.9998 L65.4748,28.9348 C66.8908,28.9348 67.5978,29.3358 67.5978,30.1368 C67.5978,30.4508 67.4688,30.7258 67.2128,30.9628 C66.9548,31.1978 66.6298,31.3158 66.2368,31.3158 C65.8428,31.3158 65.4178,31.2878 64.9598,31.2298 L63.8448,31.2298 C63.9298,32.3468 63.9728,33.4548 63.9728,34.5558 L63.7798,42.5138 C63.7798,44.1578 63.8088,44.9798 63.8658,44.9798 L67.1048,44.8728 C68.2198,44.8728 68.7778,45.2298 68.7778,45.9448 C68.7778,46.3888 68.5848,46.7098 68.1988,46.9108 C67.8128,47.1098 67.3768,47.2108 66.8908,47.2108 L63.1798,47.2108 C62.7938,47.2108 62.4428,47.0778 62.1288,46.8138 C61.8138,46.5498 61.6488,46.2308 61.6358,45.8588 L61.6358,44.7008 L61.3558,37.2788 L61.6568,24.4528 Z" id="Fill-10" fill="#FFFFFF"></path>
            <path d="M71.4166,24.4528 L71.1806,20.7418 C71.1806,18.6688 71.7956,17.6318 73.0256,17.6318 C73.8116,17.6318 74.8836,17.8138 76.2426,18.1788 C77.6016,18.5428 78.2796,19.0118 78.2796,19.5838 C78.2796,20.1838 77.8526,20.6408 76.9936,20.9558 C75.6356,20.4988 74.5266,20.2198 73.6686,20.1198 C73.7116,20.7488 73.7326,21.3778 73.7326,22.0078 L73.5396,28.3128 C73.5396,28.3428 73.5826,28.5708 73.6686,28.9998 L75.2346,28.9348 C76.6506,28.9348 77.3576,29.3358 77.3576,30.1368 C77.3576,30.4508 77.2286,30.7258 76.9726,30.9628 C76.7146,31.1978 76.3896,31.3158 75.9966,31.3158 C75.6026,31.3158 75.1776,31.2878 74.7196,31.2298 L73.6046,31.2298 C73.6896,32.3468 73.7326,33.4548 73.7326,34.5558 L73.5396,42.5138 C73.5396,44.1578 73.5686,44.9798 73.6256,44.9798 L76.8646,44.8728 C77.9796,44.8728 78.5376,45.2298 78.5376,45.9448 C78.5376,46.3888 78.3446,46.7098 77.9586,46.9108 C77.5726,47.1098 77.1366,47.2108 76.6506,47.2108 L72.9396,47.2108 C72.5536,47.2108 72.2026,47.0778 71.8886,46.8138 C71.5736,46.5498 71.4086,46.2308 71.3956,45.8588 L71.3956,44.7008 L71.1156,37.2788 L71.4166,24.4528 Z" id="Fill-12" fill="#FFFFFF"></path>
            <path d="M88.8765,46.0954 L89.0905,37.6014 C89.0905,36.7424 88.9515,35.4744 88.6725,33.7934 C88.3945,32.1144 88.2545,30.7624 88.2545,29.7404 C88.2545,28.7174 88.0785,27.4734 87.7295,26.0074 C87.3785,24.5414 86.9885,23.2224 86.5605,22.0504 C85.4305,18.9754 84.8655,16.3524 84.8655,14.1784 C84.8655,13.9634 84.9905,13.7814 85.2405,13.6304 C85.4905,13.4814 85.7525,13.4064 86.0235,13.4064 C86.2955,13.4064 86.5845,13.7414 86.8935,14.4134 C87.1995,15.0864 87.4825,15.9444 87.7395,16.9884 C87.9965,18.0324 88.2365,19.0754 88.4575,20.1194 C88.6805,21.1634 88.8835,22.1754 89.0685,23.1554 C89.2555,24.1344 89.3915,24.7674 89.4775,25.0534 C89.5335,24.7954 89.6025,24.1844 89.6805,23.2194 C89.7595,22.2534 89.8485,21.2634 89.9485,20.2484 C90.0635,19.2184 90.2065,18.1894 90.3775,17.1594 C90.7645,14.7994 91.3465,13.6194 92.1255,13.6194 C92.9045,13.6194 93.2955,13.7784 93.2955,14.0924 C93.2955,15.7374 92.9435,18.1894 92.2445,21.4494 C91.5435,24.7094 91.1925,27.1844 91.1925,28.8704 L91.0645,30.3944 L91.0645,31.0594 L91.3005,42.7054 L91.4505,44.8944 L91.4505,45.8804 C91.4505,46.2674 91.3035,46.5774 91.0105,46.8144 C90.7175,47.0494 90.3985,47.1674 90.0565,47.1674 C89.7135,47.1674 89.4305,47.0644 89.2095,46.8574 C88.9865,46.6494 88.8765,46.3954 88.8765,46.0954" id="Fill-14" fill="#FFFFFF"></path>
            <path d="M97.7349,27.1979 L97.5209,31.2519 C97.5209,35.4989 97.8639,39.2029 98.5499,42.3629 C99.2799,44.2079 99.9729,45.2949 100.6309,45.6239 C101.1599,45.6239 101.6389,45.4089 102.0689,44.9799 C102.4969,44.5509 102.8369,43.9749 103.0869,43.2539 C103.3369,42.5309 103.5479,41.7699 103.7189,40.9689 C103.8779,40.1819 103.9989,39.3389 104.0849,38.4379 C104.2269,36.8799 104.2989,35.5499 104.2989,34.4479 C104.2989,33.3469 104.2019,31.6599 104.0089,29.3859 C103.8169,27.1119 103.7189,25.4179 103.7189,24.3019 L103.7189,23.5299 C103.6909,22.4579 103.3399,21.5029 102.6689,20.6669 C101.9969,19.8299 101.1379,19.4119 100.0939,19.4119 C99.0939,19.4119 98.4279,19.9769 98.0999,21.1059 C97.8289,22.0509 97.6919,23.2159 97.6919,24.6019 L97.7349,27.1979 Z M95.1389,33.2039 L95.1819,31.5309 C95.1819,31.3879 95.1609,31.3159 95.1179,31.3159 L95.1179,30.5229 C95.1179,25.9189 95.3829,22.6429 95.9129,20.6989 C96.3549,19.0539 96.7839,18.0389 97.1999,17.6529 C97.6139,17.2659 98.0209,17.0739 98.4219,17.0739 C101.8249,17.0739 104.1709,18.7899 105.4579,22.2209 C106.2009,24.1949 106.5729,26.6269 106.5729,29.5139 L106.5729,29.8369 L106.6589,34.8119 C106.6589,43.2349 104.7069,47.4469 100.8029,47.4469 C99.1859,47.4469 97.9499,46.5529 97.0919,44.7649 C96.2769,43.0499 95.7759,41.3619 95.5899,39.7029 C95.2899,37.2009 95.1389,35.0349 95.1389,33.2039 L95.1389,33.2039 Z" id="Fill-16" fill="#FFFFFF"></path>
            <path d="M120.022,27.0475 L120.065,27.7985 C120.065,40.7975 118.176,47.2965 114.402,47.2965 C112.944,47.3105 111.864,46.7175 111.163,45.5165 C110.434,44.2865 109.991,43.0645 109.833,41.8485 C109.59,39.9755 109.45,37.8265 109.415,35.4025 C109.379,32.9795 109.362,29.4795 109.362,24.9025 L109.168,18.6175 C109.44,18.0035 109.751,17.6955 110.101,17.6955 C110.452,17.6955 110.762,17.9635 111.034,18.4995 C111.305,19.0365 111.442,19.6055 111.442,20.2055 L111.442,32.1525 C111.442,33.1965 111.545,34.7485 111.752,36.8075 C111.959,38.8665 112.064,40.4185 112.064,41.4625 C112.064,43.6075 112.993,44.6795 114.852,44.6795 C116.94,44.6795 117.984,36.8075 117.984,21.0635 L117.984,18.5965 L117.962,17.8665 C117.962,17.5245 118.042,17.2665 118.198,17.0955 C118.356,16.9235 118.631,16.8375 119.024,16.8375 C119.418,16.8375 119.713,16.9015 119.915,17.0305 C120.1,17.1455 120.237,17.3175 120.322,17.5455 C120.436,17.9025 120.501,18.3745 120.515,18.9615 L120.215,23.3795 L120.022,27.0475 Z" id="Fill-18" fill="#FFFFFF"></path>
            <path d="M125.6627,34.9841 L125.7057,37.0651 C125.7057,39.0671 125.4337,40.0681 124.8917,40.0681 C124.5907,40.0681 124.3147,39.7111 124.0647,38.9961 C123.8147,38.2811 123.6897,37.3801 123.6897,36.2931 L123.8617,29.0211 L123.6467,14.6071 C123.6467,14.1491 123.8407,13.7531 124.2257,13.4171 C124.6117,13.0811 124.9987,12.9131 125.3847,12.9131 C125.7697,12.9131 126.0667,13.0161 126.2737,13.2231 C126.4807,13.4311 126.5857,13.6841 126.5857,13.9851 C126.5857,16.3311 126.4327,19.8341 126.1247,24.4961 C125.8167,29.1571 125.6627,32.6541 125.6627,34.9841 M126.2647,46.0741 C126.2647,47.1031 125.5417,47.6181 124.0977,47.6181 C123.7677,47.6181 123.4427,47.4641 123.1217,47.1571 C122.7997,46.8491 122.6397,46.4421 122.6397,45.9341 C122.6397,45.4271 122.8167,44.9691 123.1747,44.5611 C123.5317,44.1541 123.9757,43.9501 124.5047,43.9501 C125.0337,43.9501 125.4597,44.1581 125.7817,44.5721 C126.1027,44.9871 126.2647,45.4881 126.2647,46.0741" id="Fill-20" fill="#FFFFFF"></path>
            <path d="M100.73,60.132 C98.92,63.052 97.555,65.954 97.368,69.439 C97.351,69.756 97.86,69.794 97.947,69.51 C98.901,66.417 99.626,63.179 100.879,60.189 C100.914,60.106 100.772,60.064 100.73,60.132" id="Fill-22" fill="#824857"></path>
        </g>
    </g>
</svg>