<?xml version="1.0" encoding="UTF-8"?>
<svg width="94px" height="122px" viewBox="0 0 94 122" version="1.1" xmlns="http://www.w3.org/2000/svg" xmlns:xlink="http://www.w3.org/1999/xlink">
    <!-- Generator: Sketch 53.1 (72631) - https://sketchapp.com -->
    <title>Group 79sticker16</title>
    <desc>Created with Sketch.</desc>
    <g id="Page-1" stroke="none" stroke-width="1" fill="none" fill-rule="evenodd">
        <g id="Group-79" transform="translate(0.260020, 0.004805)">
            <path d="M92.0085803,6.63899478 C90.4865803,3.61599478 87.0135803,1.77499478 83.6645803,2.34999478 C83.1615803,2.43599478 82.6785803,2.58299478 82.2095803,2.77099478 C81.9425803,2.44399478 81.6615803,2.12299478 81.3535803,1.81699478 C78.5195803,-1.00100522 74.7795803,-0.368005224 72.3555803,2.52399478 C70.7565803,4.43199478 69.6545803,6.65799478 69.1015803,9.02699478 C66.7115803,10.0689948 64.5755803,11.6469948 62.8415803,13.5799948 C58.2575803,10.5859948 52.2315803,9.17399478 46.6895803,8.81899478 C38.0015803,8.26299478 28.8955803,10.0789948 21.7065803,14.9759948 C20.1255803,14.1099948 18.3495803,13.7019948 16.4045803,14.0009948 C13.1065803,14.5089948 10.9015803,16.6879948 9.58358027,19.5059948 C4.85158027,18.6389948 1.55358027,21.7159948 1.91358027,26.5129948 C1.99258027,27.5569948 2.17758027,28.5669948 2.44958027,29.5389948 C-0.878419727,31.6729948 -0.802419727,37.5419948 2.59858027,39.8179948 C3.63258027,40.5099948 4.69958027,41.1339948 5.78258027,41.7269948 C0.921580273,57.9579948 6.98858027,76.5999948 20.2405803,87.1269948 C18.7655803,96.7649948 23.2785803,107.109995 30.3565803,113.575995 C39.1545803,121.613995 51.3395803,123.681995 62.4025803,119.387995 C73.1925803,115.199995 79.8345803,105.283995 81.2465803,94.0129948 C81.9315803,88.5459948 81.3265803,82.7409948 79.7985803,77.4589948 C79.0245803,74.7819948 77.2205803,71.9649948 76.9295803,69.2279948 C76.9045803,68.9929948 76.8915803,68.7619948 76.8855803,68.5319948 C83.1545803,69.7609948 87.0965803,61.3919948 81.5225803,57.5129948 C81.1395803,57.2459948 80.7715803,56.9699948 80.3975803,56.6989948 C83.1375803,53.7299948 82.6715803,48.7869948 78.0785803,46.8859948 C77.9745803,46.8429948 77.7575803,46.3939948 77.5835803,45.9629948 C78.2225803,45.6829948 78.8615803,45.2549948 79.4455803,44.9159948 C82.6885803,43.0329948 85.7525803,40.8229948 88.2255803,37.9929948 C93.3985803,32.0719948 95.1155803,23.7009948 90.9565803,16.6959948 C92.7575803,13.3789948 93.6515803,9.90199478 92.0085803,6.63899478" id="Fill-417" fill="#FFFFFF"></path>
            <path d="M12.6247803,35.9436948 C12.9367803,35.3136948 13.2767803,34.6876948 13.6407803,34.0846948 C12.5797803,33.7886948 11.4967803,33.5626948 10.3917803,33.4516948 C9.56078027,33.3666948 8.02478027,33.0596948 7.28778027,33.6026948 C5.67878027,34.7906948 8.51378027,35.7876948 9.36678027,35.9786948 C10.4557803,36.2316948 11.5507803,36.1586948 12.6247803,35.9436948 M14.6117803,32.5856948 C15.1387803,31.8286948 15.7177803,31.1056948 16.3337803,30.3846948 C14.9987803,28.8706948 12.8087803,26.3606948 10.5687803,26.6636948 C8.34978027,26.9716948 10.1197803,29.0236948 10.9537803,29.9586948 C11.9947803,31.1276948 13.2217803,31.9066948 14.6117803,32.5856948 M19.7907803,26.9786948 C19.6937803,24.7516948 19.1527803,21.5076948 16.3477803,21.9756948 C13.6757803,22.4236948 15.7067803,26.5116948 16.7037803,28.3096948 C16.9657803,28.5876948 17.2167803,28.8586948 17.4587803,29.1316948 C18.1817803,28.3886948 18.9757803,27.6766948 19.7907803,26.9786948 M69.6587803,51.5236948 C70.3137803,43.9226948 69.2757803,36.4086948 64.5197803,29.9976948 C59.7957803,23.6536948 52.3987803,21.0146948 44.8567803,20.9486948 C44.9447803,21.5866948 45.0967803,22.2206948 45.2847803,22.8566948 C45.5087803,23.6146948 44.3067803,24.0146948 43.9837803,23.3146948 C43.6867803,22.6456948 43.4347803,21.8386948 43.2637803,20.9776948 C42.0517803,21.0186948 40.8357803,21.1346948 39.6327803,21.3036948 C39.7267803,22.0146948 39.7997803,22.7206948 39.8547803,23.3836948 C39.9337803,24.3296948 38.7197803,24.5836948 38.4117803,23.6866948 C38.1907803,23.0296948 37.9717803,22.3366948 37.7577803,21.6226948 C36.6897803,21.8276948 35.6327803,22.0766948 34.6037803,22.3756948 C22.3817803,25.9266948 11.1427803,36.3276948 13.4227803,49.9906948 C13.4327803,50.0346948 13.4407803,50.0796948 13.4507803,50.1236948 C14.3767803,50.0406948 15.3137803,49.9276948 16.2717803,49.7736948 C17.0607803,49.6536948 17.5807803,50.8586948 16.7677803,51.1676948 C15.8147803,51.5246948 14.8187803,51.7976948 13.8087803,52.0096948 C14.1117803,53.4996948 14.4947803,55.0196948 14.9437803,56.5436948 C16.0707803,56.0946948 17.2337803,55.8226948 18.2957803,55.7676948 C18.9627803,55.7296948 18.9507803,56.7306948 18.3737803,56.8886948 C17.3227803,57.1726948 16.3337803,57.5286948 15.4117803,58.0266948 C17.1967803,63.5446948 19.9117803,68.9956948 23.5197803,73.5026948 C23.7977803,73.2406948 24.0887803,72.9946948 24.3737803,72.7686948 C25.1367803,72.1736948 26.1137803,73.2176948 25.3877803,73.8966948 C25.1007803,74.1606948 24.8277803,74.4486948 24.5557803,74.7366948 C26.7777803,77.2676948 29.2957803,79.4406948 32.1337803,81.0656948 C32.2467803,81.1246948 32.3277803,81.2006948 32.4007803,81.2866948 C37.5107803,80.1146948 42.6617803,79.0996948 47.7567803,77.9026948 C53.8047803,76.4866948 59.8087803,74.5536948 65.8747803,73.1806948 C65.3547803,72.8646948 65.0197803,72.2776948 65.2337803,71.5396948 C66.5017803,67.3066948 67.8147803,62.7586948 68.7137803,58.1306948 C68.1367803,57.9376948 67.5477803,57.7746948 66.9437803,57.6326948 C66.2217803,57.4506948 66.4647803,56.2256948 67.2007803,56.3396948 C67.7737803,56.4316948 68.3737803,56.5556948 68.9777803,56.6976948 C69.1927803,55.4776948 69.3697803,54.2476948 69.5097803,53.0166948 C68.8177803,52.8466948 68.1337803,52.6296948 67.4787803,52.3226948 C66.7707803,51.9906948 67.0867803,50.9436948 67.8697803,51.1496948 C68.4777803,51.3086948 69.0647803,51.4256948 69.6587803,51.5236948 M78.7587803,8.88669478 C78.7327803,6.46969478 76.0767803,6.06469478 76.1697803,8.57869478 C76.2137803,9.76269478 76.7707803,10.7836948 76.6547803,12.0006948 C77.0967803,12.0746948 77.5227803,12.1706948 77.9537803,12.2836948 C77.8617803,12.1086948 77.8257803,11.8946948 77.9097803,11.7196948 C78.3137803,10.8666948 78.7667803,9.84769478 78.7587803,8.88669478 M85.2597803,27.0206948 C85.4027803,25.8066948 85.3557803,24.5686948 85.1137803,23.3696948 C84.5117803,23.4506948 83.9117803,23.5016948 83.3477803,23.5466948 C82.5627803,23.5996948 82.4767803,22.2576948 83.2437803,22.1716948 C83.7497803,22.1116948 84.2447803,22.0446948 84.7327803,21.9516948 C84.2567803,20.5166948 83.5187803,19.1536948 82.5207803,17.9666948 C75.8397803,10.0076948 64.1697803,15.0426948 63.3437803,24.6496948 C66.4947803,27.4196948 68.9777803,30.9686948 70.5287803,35.1936948 C70.7397803,35.7596948 70.9157803,36.3336948 71.0917803,36.9076948 C71.5367803,36.5646948 72.2227803,36.5686948 72.5357803,37.2246948 C74.3857803,41.0636948 82.9787803,32.7326948 83.9497803,31.0126948 C84.4307803,30.1726948 84.7787803,29.2766948 85.0057803,28.3686948 C84.1867803,28.0776948 83.3307803,27.9236948 82.4497803,27.9146948 C81.6987803,27.9046948 81.8167803,26.8356948 82.5187803,26.7806948 C83.3657803,26.7236948 84.3157803,26.8016948 85.2597803,27.0206948 M84.3767803,11.1596948 C84.1647803,8.73469478 82.4507803,10.0006948 81.6357803,10.8736948 C80.8357803,11.7356948 80.1597803,12.4406948 79.0737803,12.6406948 C80.1177803,13.0326948 81.1207803,13.5806948 82.0517803,14.2736948 C83.0427803,13.5286948 84.4817803,12.4976948 84.3767803,11.1596948 M90.2277803,20.1436948 C90.8917803,19.9586948 91.4027803,20.9426948 90.8457803,21.3736948 C89.9007803,22.1176948 88.7157803,22.5966948 87.4797803,22.9206948 C87.7767803,24.5596948 87.7447803,26.2136948 87.4387803,27.8026948 C88.6397803,28.4116948 89.6647803,29.2876948 90.2357803,30.4256948 C90.6727803,31.3146948 89.5097803,32.0766948 88.8397803,31.3936948 C88.1897803,30.7256948 87.6787803,30.0466948 87.0127803,29.4736948 C85.0777803,35.4646948 79.1997803,40.3406948 72.0387803,40.5466948 C72.0207803,40.5506948 72.0107803,40.5436948 71.9997803,40.5366948 C72.7137803,44.2526948 72.8067803,48.0066948 72.4997803,51.7516948 C74.1137803,51.7276948 75.7117803,51.4116948 77.3297803,50.7026948 C78.3617803,50.2456948 79.1577803,51.8366948 78.1247803,52.2466948 C76.3017803,52.9896948 74.3237803,53.3946948 72.3607803,53.3806948 C72.2007803,54.7826948 71.9957803,56.1856948 71.7527803,57.5866948 C72.9467803,58.0756948 74.0667803,58.7016948 74.9867803,59.5166948 C75.7587803,60.1966948 74.6837803,61.1986948 73.9037803,60.7886948 C73.0567803,60.3186948 72.2667803,59.7726948 71.4257803,59.2926948 C70.5387803,63.7506948 69.2807803,68.1666948 67.9887803,72.4606948 C67.9567803,72.5686948 67.9217803,72.6686948 67.8657803,72.7546948 C68.2907803,72.6656948 68.7077803,72.5786948 69.1257803,72.4996948 C69.9087803,72.3546948 70.5407803,72.8966948 70.7687803,73.5426948 L69.7047803,75.3106948 C63.1817803,77.8056948 56.0617803,79.2236948 49.2757803,80.8306948 C41.9537803,82.5586948 34.4987803,84.2786948 26.9997803,85.0356948 L25.2577803,85.1056948 C25.2337803,84.5556948 25.2127803,84.0506948 25.1767803,83.6146948 C25.1477803,83.2596948 25.4727803,83.0446948 25.8017803,83.0216948 C25.9297803,82.9296948 26.0797803,82.8516948 26.2647803,82.8046948 C27.3057803,82.5216948 28.3587803,82.2546948 29.4057803,81.9976948 C26.9567803,80.6796948 24.7987803,78.9866948 22.8897803,77.0276948 C22.2337803,78.1826948 21.9527803,79.3976948 21.5307803,80.6516948 C21.1957803,81.6556948 19.5277803,81.3766948 19.6777803,80.2816948 C19.8927803,78.6546948 20.6317803,77.0666948 21.6327803,75.6636948 C17.7557803,71.1956948 15.0007803,65.5946948 13.0237803,59.9146948 C12.3977803,60.6376948 11.8697803,61.4236948 11.2137803,62.1346948 C10.6107803,62.7876948 9.55878027,62.0006948 9.82078027,61.2236948 C10.2637803,59.9386948 11.2087803,58.8426948 12.3757803,57.9696948 C11.9167803,56.5306948 11.5067803,55.0996948 11.1387803,53.6976948 C11.0177803,53.2516948 10.9367803,52.8236948 10.8437803,52.3806948 C9.16178027,52.4746948 7.48478027,52.3726948 5.89378027,52.0586948 C5.00578027,51.8836948 5.11678027,50.6496948 5.75078027,50.2766948 C6.06978027,50.0796948 6.40178027,49.8996948 6.73578027,49.7276948 C7.27078027,49.4486948 7.76878027,49.7976948 7.90978027,50.2496948 C8.76978027,50.2906948 9.62078027,50.2976948 10.4677803,50.2766948 C9.82378027,45.6586948 10.3687803,41.2896948 12.0167803,37.3196948 C10.6417803,37.6446948 9.19578027,37.5866948 7.82478027,37.1336948 C6.45178027,36.6726948 4.50378027,35.6296948 4.85978027,33.8896948 C5.33278027,31.5526948 8.19678027,31.4516948 10.8407803,31.8876948 C10.1367803,31.3506948 9.50078027,30.7436948 8.96178027,30.0706948 C8.02778027,28.8796948 6.87078027,27.0686948 8.20078027,25.7356948 C9.49078027,24.4296948 11.8667803,24.9116948 13.3117803,25.6266948 C13.6027803,25.7776948 13.8807803,25.9606948 14.1567803,26.1336948 C13.1917803,23.7366948 13.0117803,21.0186948 15.8597803,20.4026948 C17.3377803,20.0846948 18.9847803,20.6636948 19.9567803,21.8106948 C20.8877803,22.9016948 21.2337803,24.2896948 21.3737803,25.7036948 C21.3827803,25.7016948 21.3897803,25.6906948 21.3977803,25.6886948 C25.9857803,22.2956948 31.3977803,19.8756948 37.0377803,18.7216948 C36.8477803,17.7256948 36.7237803,16.7346948 36.7037803,15.8036948 C36.6847803,15.0036948 37.9507803,14.7376948 38.2547803,15.4796948 C38.6227803,16.3546948 38.9037803,17.3406948 39.1347803,18.3556948 C40.4537803,18.1626948 41.7827803,18.0606948 43.1117803,18.0036948 C43.2347803,16.9146948 43.5767803,15.8996948 44.2297803,15.1326948 C44.6537803,14.6376948 45.7337803,14.7626948 45.6037803,15.5946948 C45.4807803,16.4246948 45.1877803,17.1896948 44.9837803,17.9806948 C46.3307803,18.0046948 47.6677803,18.0756948 48.9917803,18.2596948 C53.7767803,18.8946948 58.1337803,20.6636948 61.7627803,23.3716948 C61.8597803,15.8966948 68.8237803,11.3016948 75.5817803,11.8646948 C75.4567803,9.85669478 73.2527803,5.51869478 76.8097803,5.18969478 C78.1147803,5.06369478 79.3747803,6.00269478 79.8937803,7.15169478 C80.4007803,8.29369478 80.1967803,9.48269478 79.8457803,10.6296948 C80.6477803,9.91569478 81.2927803,8.75369478 82.1767803,8.33769478 C83.1367803,7.88669478 84.2007803,8.02469478 84.9797803,8.73969478 C87.3807803,10.9276948 85.1747803,13.7296948 83.2717803,15.2846948 C83.4897803,15.4886948 83.7037803,15.7126948 83.9167803,15.9356948 C85.4697803,17.6536948 86.4927803,19.4926948 87.0807803,21.3676948 C88.1487803,20.9956948 89.1457803,20.4536948 90.2277803,20.1436948" id="Fill-419" fill="#1C1C1B"></path>
            <path d="M81.6354803,10.8738948 C82.4504803,9.99989478 84.1644803,8.73489478 84.3764803,11.1598948 C84.4824803,12.4978948 83.0424803,13.5288948 82.0514803,14.2728948 C81.1204803,13.5808948 80.1174803,13.0328948 79.0734803,12.6408948 C80.1594803,12.4408948 80.8354803,11.7348948 81.6354803,10.8738948" id="Fill-421" fill="#F8C954"></path>
            <path d="M85.1139803,23.3699948 C85.3559803,24.5679948 85.4029803,25.8069948 85.2599803,27.0199948 C84.3159803,26.8019948 83.3659803,26.7239948 82.5179803,26.7809948 C81.8169803,26.8359948 81.6989803,27.9049948 82.4499803,27.9139948 C83.3309803,27.9239948 84.1859803,28.0779948 85.0059803,28.3689948 C84.7789803,29.2759948 84.4299803,30.1719948 83.9499803,31.0129948 C82.9789803,32.7329948 74.3849803,41.0629948 72.5359803,37.2239948 C72.2219803,36.5689948 71.5369803,36.5639948 71.0919803,36.9079948 C70.9159803,36.3339948 70.7399803,35.7599948 70.5289803,35.1939948 C68.9769803,30.9689948 66.4949803,27.4199948 63.3429803,24.6489948 C64.1699803,15.0429948 75.8399803,10.0079948 82.5199803,17.9669948 C83.5179803,19.1539948 84.2569803,20.5159948 84.7329803,21.9519948 C84.2449803,22.0449948 83.7499803,22.1119948 83.2439803,22.1709948 C82.4759803,22.2579948 82.5629803,23.5989948 83.3469803,23.5459948 C83.9119803,23.5019948 84.5109803,23.4509948 85.1139803,23.3699948" id="Fill-423" fill="#AEBC4A"></path>
            <path d="M76.1696803,8.57899478 C76.0766803,6.06399478 78.7326803,6.46999478 78.7586803,8.88699478 C78.7666803,9.84799478 78.3146803,10.8669948 77.9096803,11.7199948 C77.8256803,11.8939948 77.8616803,12.1089948 77.9536803,12.2839948 C77.5236803,12.1699948 77.0966803,12.0749948 76.6546803,12.0009948 C76.7706803,10.7839948 76.2136803,9.76299478 76.1696803,8.57899478" id="Fill-425" fill="#F8C954"></path>
            <path d="M30.6628803,66.3269948 C31.5498803,65.4839948 31.4648803,64.4569948 30.9278803,63.4409948 C30.0118803,61.7189948 28.1558803,60.8499948 26.2518803,61.0739948 C25.7898803,61.1239948 25.2498803,61.5889948 25.1518803,62.0529948 C25.0228803,62.6259948 24.9668803,63.2389948 25.0428803,63.8239948 C24.9758803,64.0319948 24.9258803,64.2369948 24.9058803,64.4529948 C24.7258803,66.4149948 26.5958803,67.6599948 28.4038803,67.4199948 C29.2298803,67.3019948 30.0548803,66.9079948 30.6628803,66.3269948 M47.3548803,68.7479948 C51.4898803,67.2989948 53.5488803,61.7159948 51.0098803,58.0769948 C50.1858803,56.8809948 48.6078803,58.2659948 49.0638803,59.4279948 C50.1018803,62.0869948 49.4268803,65.6129948 46.3098803,66.5439948 C43.1498803,67.4829948 40.2078803,64.5209948 39.8278803,61.6039948 C39.7248803,60.7559948 38.4418803,60.9049948 38.3718803,61.7149948 C37.9948803,66.3629948 42.8638803,70.3079948 47.3548803,68.7479948 M62.3618803,59.9519948 C63.5828803,58.8919948 63.7548803,56.9319948 62.9358803,55.5869948 C61.9528803,53.9799948 59.7468803,53.6939948 58.3918803,55.0409948 C57.6948803,55.7329948 57.2598803,56.7399948 57.2808803,57.7249948 C57.2958803,58.7659948 57.9468803,60.3319948 59.2138803,60.2419948 C59.2598803,60.2419948 59.3048803,60.2319948 59.3488803,60.2229948 C60.2368803,60.7579948 61.3448803,60.8309948 62.3618803,59.9519948 M64.5188803,29.9979948 C69.2758803,36.4089948 70.3138803,43.9229948 69.6588803,51.5239948 C69.0648803,51.4259948 68.4768803,51.3089948 67.8698803,51.1499948 C67.0868803,50.9439948 66.7698803,51.9909948 67.4778803,52.3229948 C68.1338803,52.6299948 68.8178803,52.8469948 69.5098803,53.0159948 C69.3698803,54.2479948 69.1928803,55.4779948 68.9768803,56.6979948 C68.3738803,56.5559948 67.7738803,56.4319948 67.2008803,56.3399948 C66.4648803,56.2249948 66.2218803,57.4509948 66.9438803,57.6329948 C67.5478803,57.7739948 68.1368803,57.9369948 68.7138803,58.1309948 C67.8148803,62.7589948 66.5018803,67.3059948 65.2338803,71.5389948 C65.0188803,72.2779948 65.3548803,72.8649948 65.8748803,73.1809948 C59.8088803,74.5539948 53.8048803,76.4869948 47.7568803,77.9029948 C42.6618803,79.0999948 37.5108803,80.1149948 32.4008803,81.2869948 C32.3278803,81.2009948 32.2468803,81.1249948 32.1338803,81.0659948 C29.2958803,79.4409948 26.7778803,77.2679948 24.5558803,74.7369948 C24.8278803,74.4489948 25.1008803,74.1599948 25.3878803,73.8969948 C26.1138803,73.2179948 25.1368803,72.1739948 24.3738803,72.7679948 C24.0888803,72.9939948 23.7978803,73.2409948 23.5188803,73.5019948 C19.9118803,68.9959948 17.1968803,63.5439948 15.4118803,58.0269948 C16.3338803,57.5289948 17.3228803,57.1729948 18.3738803,56.8889948 C18.9508803,56.7309948 18.9628803,55.7289948 18.2958803,55.7669948 C17.2338803,55.8229948 16.0708803,56.0949948 14.9438803,56.5439948 C14.4948803,55.0189948 14.1118803,53.4989948 13.8088803,52.0099948 C14.8188803,51.7979948 15.8148803,51.5239948 16.7668803,51.1669948 C17.5808803,50.8579948 17.0598803,49.6539948 16.2718803,49.7729948 C15.3138803,49.9279948 14.3768803,50.0409948 13.4508803,50.1239948 C13.4408803,50.0789948 13.4328803,50.0349948 13.4228803,49.9909948 C11.1418803,36.3279948 22.3818803,25.9269948 34.6038803,22.3759948 C35.6328803,22.0769948 36.6898803,21.8279948 37.7578803,21.6229948 C37.9718803,22.3359948 38.1908803,23.0299948 38.4118803,23.6869948 C38.7198803,24.5839948 39.9338803,24.3289948 39.8548803,23.3839948 C39.7998803,22.7209948 39.7258803,22.0149948 39.6328803,21.3039948 C40.8358803,21.1349948 42.0518803,21.0189948 43.2638803,20.9769948 C43.4338803,21.8389948 43.6868803,22.6459948 43.9838803,23.3139948 C44.3068803,24.0149948 45.5088803,23.6149948 45.2848803,22.8569948 C45.0968803,22.2209948 44.9448803,21.5869948 44.8568803,20.9489948 C52.3988803,21.0149948 59.7958803,23.6539948 64.5188803,29.9979948" id="Fill-427" fill="#AEBC4A"></path>
            <path d="M68.9186803,104.347995 C71.2806803,99.6449948 71.0826803,94.6829948 70.4266803,89.6509948 C67.5756803,90.8769948 64.0776803,91.3979948 61.1606803,92.1749948 C57.1996803,93.2179948 53.2106803,94.1749948 49.1936803,95.0439948 C44.9046803,95.9799948 40.5836803,96.8109948 36.2506803,97.5349948 C34.9986803,97.7409948 33.5046803,98.1559948 32.0566803,98.2649948 C34.9046803,107.887995 43.8426803,113.727995 54.0146803,112.705995 C59.7296803,112.127995 66.1956803,109.755995 68.9186803,104.347995 L68.9186803,104.347995 Z M70.7686803,73.5429948 C71.4366803,73.3749948 72.1886803,73.6519948 72.3276803,74.5389948 C72.8826803,77.9829948 74.2216803,82.2989948 73.9146803,85.7759948 C73.8156803,86.8499948 73.5106803,87.5529948 72.9546803,88.1219948 C74.9116803,94.0659948 74.1666803,101.805995 70.7846803,107.119995 C67.4036803,112.433995 60.4116803,114.944995 54.4076803,115.555995 C43.1416803,116.695995 31.3496803,109.852995 30.0136803,98.1389948 C29.6246803,98.0439948 29.2556803,97.9179948 28.9086803,97.7229948 C25.5886803,95.8199948 25.4206803,89.1499948 25.2576803,85.1049948 L26.9996803,85.0359948 C27.5646803,86.6749948 28.0686803,88.3269948 28.4886803,90.0229948 C28.6936803,90.8689948 28.7306803,92.6359948 29.2366803,93.3259948 C30.7016803,95.3769948 32.6706803,95.3709948 34.8176803,95.0229948 C39.7326803,94.2059948 44.6316803,93.2629948 49.4926803,92.1879948 C54.6466803,91.0529948 59.7686803,89.7669948 64.8416803,88.3339948 C66.6936803,87.8159948 68.1136803,87.4449948 69.6726803,86.2299948 C71.4926803,84.8129948 71.0496803,84.6379948 70.7536803,82.6089948 C70.3926803,80.1789948 70.0286803,77.7389948 69.7046803,75.3099948 L70.7686803,73.5429948 Z" id="Fill-429" fill="#1C1C1B"></path>
            <path d="M69.7047803,75.3103948 C70.0287803,77.7393948 70.3917803,80.1783948 70.7537803,82.6093948 C71.0497803,84.6373948 71.4927803,84.8123948 69.6727803,86.2293948 C68.1137803,87.4443948 66.6937803,87.8163948 64.8417803,88.3333948 C59.7677803,89.7673948 54.6457803,91.0523948 49.4927803,92.1883948 C44.6317803,93.2623948 39.7327803,94.2063948 34.8177803,95.0233948 C32.6707803,95.3713948 30.7017803,95.3763948 29.2367803,93.3253948 C28.7307803,92.6363948 28.6937803,90.8683948 28.4887803,90.0233948 C28.0687803,88.3263948 27.5647803,86.6743948 26.9997803,85.0363948 C34.4987803,84.2783948 41.9537803,82.5593948 49.2757803,80.8303948 C56.0607803,79.2233948 63.1817803,77.8053948 69.7047803,75.3103948" id="Fill-431" fill="#F7CE7A"></path>
            <path d="M62.9362803,55.5866948 C63.7542803,56.9316948 63.5822803,58.8916948 62.3622803,59.9516948 C61.3442803,60.8316948 60.2372803,60.7576948 59.3482803,60.2226948 C59.3042803,60.2326948 59.2592803,60.2416948 59.2132803,60.2416948 C57.9472803,60.3316948 57.2952803,58.7666948 57.2812803,57.7246948 C57.2592803,56.7396948 57.6952803,55.7326948 58.3922803,55.0406948 C59.7472803,53.6936948 61.9532803,53.9806948 62.9362803,55.5866948 M60.5902803,57.0126948 C60.6012803,57.0656948 60.5472803,56.9846948 60.5402803,56.9486948 C60.5402803,56.9486948 60.5482803,56.9466948 60.5592803,56.9546948 C60.5572803,56.9456948 60.5482803,56.9466948 60.5382803,56.9406948 C60.4812803,56.8876948 60.4572803,56.9106948 60.4262803,56.9356948 C60.1972803,57.1226948 60.0702803,57.3526948 60.0652803,57.6866948 C60.1412803,57.7816948 60.2322803,57.8646948 60.3272803,57.9186948 C60.4662803,58.0096948 60.4542803,57.9936948 60.5172803,57.9896948 C60.5352803,57.9856948 60.5412803,57.9756948 60.5512803,57.9736948 C60.5692803,57.9696948 60.5762803,57.9586948 60.5762803,57.9586948 C60.5982803,57.9356948 60.5932803,57.9556948 60.5952803,57.9636948 C60.5952803,57.9636948 60.6002803,57.9446948 60.6072803,57.9336948 C60.6282803,57.9016948 60.6352803,57.8906948 60.6352803,57.8906948 L60.6422803,57.8796948 C60.7062803,57.6536948 60.7082803,57.7546948 60.7132803,57.4676948 C60.7162803,57.4396948 60.7122803,57.4216948 60.7172803,57.4016948 C60.7102803,57.4126948 60.7072803,57.3946948 60.7032803,57.3316948 C60.6992803,57.3136948 60.6772803,57.2076948 60.6672803,57.1626948 C60.6482803,57.1116948 60.6102803,57.0636948 60.5902803,57.0126948" id="Fill-433" fill="#1C1C1B"></path>
            <path d="M70.4264803,89.6511948 C71.0824803,94.6831948 71.2804803,99.6451948 68.9184803,104.348195 C66.1964803,109.755195 59.7294803,112.128195 54.0144803,112.706195 C43.8424803,113.728195 34.9054803,107.887195 32.0564803,98.2651948 C33.5044803,98.1561948 34.9984803,97.7411948 36.2504803,97.5341948 C40.5834803,96.8111948 44.9054803,95.9801948 49.1944803,95.0441948 C53.2104803,94.1741948 57.1994803,93.2181948 61.1604803,92.1751948 C64.0774803,91.3981948 67.5754803,90.8771948 70.4264803,89.6511948" id="Fill-435" fill="#F7CE7A"></path>
            <path d="M51.0094803,58.0769948 C53.5484803,61.7159948 51.4894803,67.2989948 47.3554803,68.7479948 C42.8634803,70.3079948 37.9944803,66.3629948 38.3714803,61.7149948 C38.4424803,60.9049948 39.7244803,60.7559948 39.8274803,61.6039948 C40.2074803,64.5209948 43.1504803,67.4829948 46.3104803,66.5439948 C49.4264803,65.6129948 50.1024803,62.0869948 49.0644803,59.4279948 C48.6084803,58.2659948 50.1864803,56.8809948 51.0094803,58.0769948" id="Fill-437" fill="#1C1C1B"></path>
            <path d="M30.9274803,63.4411948 C31.4644803,64.4571948 31.5494803,65.4841948 30.6624803,66.3271948 C30.0544803,66.9071948 29.2304803,67.3021948 28.4044803,67.4201948 C26.5954803,67.6601948 24.7254803,66.4151948 24.9064803,64.4531948 C24.9254803,64.2361948 24.9754803,64.0321948 25.0424803,63.8231948 C24.9664803,63.2381948 25.0234803,62.6261948 25.1524803,62.0521948 C25.2494803,61.5881948 25.7894803,61.1241948 26.2514803,61.0731948 C28.1564803,60.8501948 30.0114803,61.7181948 30.9274803,63.4411948" id="Fill-439" fill="#1C1C1B"></path>
            <path d="M16.3473803,21.9753948 C19.1533803,21.5073948 19.6943803,24.7513948 19.7903803,26.9783948 C18.9753803,27.6763948 18.1813803,28.3883948 17.4583803,29.1313948 C17.2163803,28.8583948 16.9653803,28.5873948 16.7033803,28.3093948 C15.7063803,26.5113948 13.6753803,22.4243948 16.3473803,21.9753948" id="Fill-441" fill="#F8C954"></path>
            <path d="M16.3336803,30.3850948 C15.7176803,31.1060948 15.1386803,31.8280948 14.6116803,32.5860948 C13.2216803,31.9060948 11.9946803,31.1280948 10.9536803,29.9580948 C10.1196803,29.0230948 8.34968027,26.9710948 10.5686803,26.6630948 C12.8086803,26.3610948 14.9986803,28.8700948 16.3336803,30.3850948" id="Fill-443" fill="#F8C954"></path>
            <path d="M13.6403803,34.0842948 C13.2773803,34.6882948 12.9363803,35.3132948 12.6243803,35.9432948 C11.5503803,36.1592948 10.4553803,36.2312948 9.36738027,35.9792948 C8.51338027,35.7872948 5.67838027,34.7912948 7.28738027,33.6032948 C8.02538027,33.0602948 9.56038027,33.3672948 10.3913803,33.4522948 C11.4963803,33.5622948 12.5793803,33.7882948 13.6403803,34.0842948" id="Fill-445" fill="#F8C954"></path>
        </g>
    </g>
</svg>