<?xml version="1.0" encoding="UTF-8"?>
<svg width="193px" height="155px" viewBox="0 0 193 155" version="1.1" xmlns="http://www.w3.org/2000/svg" xmlns:xlink="http://www.w3.org/1999/xlink">
    <!-- Generator: Sketch 53.1 (72631) - https://sketchapp.com -->
    <title>Group 69sticker3</title>
    <desc>Created with Sketch.</desc>
    <g id="Page-1" stroke="none" stroke-width="1" fill="none" fill-rule="evenodd">
        <g id="Group-69" transform="translate(0.890017, 0.947293)">
            <path d="M81.4878828,153.156007 C80.6578828,153.391007 79.7988828,153.479007 78.9368828,153.400007 L61.3298828,151.758007 C58.4788828,151.479007 55.4488828,151.176007 52.4268828,150.826007 C48.9328828,150.429007 46.0858828,150.059007 43.4598828,149.659007 C42.0388828,149.449007 40.4798828,149.214007 38.8718828,148.911007 C38.0708828,148.762007 37.2688828,148.605007 36.4508828,148.422007 L35.8548828,148.281007 C35.7628828,148.259007 35.6738828,148.235007 35.5818828,148.210007 C35.5818828,148.210007 34.8018828,147.987007 34.7438828,147.970007 C34.5318828,147.902007 34.3588828,147.839007 34.1898828,147.769007 C34.1898828,147.769007 33.9178828,147.667007 33.8648828,147.644007 C32.8238828,147.210007 31.9218828,146.565007 31.1888828,145.725007 C31.1538828,145.686007 31.1198828,145.644007 31.0858828,145.604007 C30.4268828,144.808007 30.0848828,144.135007 29.8628828,143.639007 C29.7848828,143.489007 29.7418828,143.382007 29.6808828,143.226007 C29.0208828,141.538007 28.6698828,140.043007 28.3588828,138.726007 L28.2008828,138.059007 C27.8418828,136.532007 27.5018828,135.062007 27.1848828,133.583007 L25.3418828,124.952007 L23.7928828,117.495007 C23.5338828,117.396007 23.2598828,117.279007 22.9758828,117.143007 L22.9778828,117.138007 C22.4258828,116.872007 21.0948828,116.116007 20.1288828,114.747007 C19.9778828,114.550007 19.8338828,114.341007 19.6848828,114.104007 C19.3148828,113.537007 19.1008828,113.093007 18.9718828,112.823007 C18.9718828,112.823007 18.8448828,112.567007 18.8098828,112.486007 C18.1828828,111.098007 17.7728828,109.796007 17.4218828,108.596007 C17.2168828,107.862007 17.0178828,107.114007 16.8318828,106.344007 C15.5628828,106.127007 14.2888828,105.931007 13.0108828,105.743007 L11.9398828,105.584007 C10.8678828,105.431007 9.75588282,105.273007 8.58388282,105.046007 C7.69888282,104.873007 6.71788282,104.677007 5.56788282,104.288007 C5.46688282,104.252007 5.36688282,104.214007 5.26488282,104.174007 C4.94588282,104.049007 4.45888282,103.854007 3.85688282,103.504007 C2.62288282,102.804007 1.80588282,101.819007 1.48588282,101.387007 C1.34488282,101.201007 1.18488282,100.975007 1.02288282,100.697007 C0.714882819,100.184007 0.458882819,99.6010067 0.271882819,98.9490067 C0.180882819,98.6290067 0.116882819,98.3040067 0.0778828186,97.9790067 C-0.170117181,96.1840067 0.239882819,94.8820067 0.393882819,94.3850067 C0.419882819,94.3010067 0.469882819,94.1520067 0.497882819,94.0720067 C0.686882819,93.5470067 0.911882819,93.0590067 1.20288282,92.5380067 C1.95888282,91.2260067 2.73588282,90.3130067 3.25688282,89.7080067 C3.13288282,89.6010067 3.00588282,89.4980067 2.87788282,89.3920067 C-0.227117181,86.8330067 -0.671117181,82.2490067 1.87488282,79.1570067 C2.77888282,78.0580067 3.97788282,77.2550067 5.33988282,76.8340067 L6.73088282,76.4030067 C6.90588282,76.3430067 7.08388282,76.2910067 7.25888282,76.2400067 C7.65988282,76.1240067 8.06188282,76.0370067 8.46788282,75.9520067 L9.16488282,75.8000067 C9.64588282,75.6960067 10.2398828,75.5670067 10.9418828,75.4920067 L12.4178828,75.3120067 C12.5518828,75.2980067 12.6868828,75.2850067 12.8258828,75.2780067 L14.2818828,75.2020067 C14.7708828,75.1660067 15.2188828,75.1660067 15.5918828,75.1770067 L13.5998828,64.1790067 C12.6268828,58.6290067 11.5878828,53.0100067 10.5818828,47.5800067 C10.5818828,47.5800067 10.4488828,46.8640067 10.4468828,46.8500067 C9.98488282,44.3500067 10.8828828,41.7550067 12.7908828,40.0720067 C14.6288828,38.4620067 16.4328828,37.8450067 17.5088828,37.4770067 C17.5528828,37.4620067 18.0338828,37.3110067 18.2278828,37.2590067 C19.0878828,37.0100067 19.9718828,36.8140067 21.0178828,36.6320067 C22.7868828,36.3310067 24.6188828,36.1400067 26.8218828,36.0170067 C30.5348828,35.8080067 34.1168828,35.9220067 37.4648828,36.0580067 C37.5018828,36.0590067 37.5388828,36.0590067 37.5758828,36.0620067 C40.9648828,36.2600067 44.4108828,36.5430067 47.8198828,36.9010067 C50.3258828,37.1840067 52.8058828,37.4960067 55.2428828,37.8350067 L66.4078828,30.0620067 C68.8748828,28.3250067 71.1168828,26.7800067 73.2338828,25.3540067 L73.6378828,25.0860067 C75.8498828,23.6150067 78.1358828,22.0960067 80.6398828,20.6960067 C81.0738828,20.4610067 81.4538828,20.2610067 81.8748828,20.0560067 C82.1428828,19.9230067 82.3938828,19.8080067 82.6388828,19.7070067 C83.1248828,19.4950067 83.5748828,19.3550067 83.8198828,19.2850067 C83.9118828,19.2580067 84.0008828,19.2320067 84.0878828,19.2130067 C85.3868828,18.8740067 86.5128828,18.7810067 87.4448828,18.7340067 C89.1398828,18.6460067 90.7278828,18.6940067 92.1828828,18.7610067 C95.3058828,18.9140067 98.2658828,19.2070067 100.753883,19.4750067 C105.190883,19.9590067 109.718883,20.5460067 114.535883,21.2720067 C118.598883,18.4250067 122.595883,15.6640067 126.446883,13.0480067 C131.610883,9.60900672 136.248883,6.54900672 141.190883,3.59200672 C142.405883,2.88100672 143.862883,2.02500672 145.466883,1.24600672 C145.973883,1.00400672 146.497883,0.766006721 147.130883,0.542006721 C147.389883,0.453006721 147.573883,0.391006721 147.783883,0.330006721 C148.200883,0.212006721 148.620883,0.125006721 149.063883,0.0650067213 C149.209883,0.0450067213 149.354883,0.0290067213 149.499883,0.0210067213 L149.632883,0.0100067213 C149.753883,0.00600672128 149.889883,6.72127703e-06 150.013883,6.72127703e-06 C150.208883,6.72127703e-06 150.550883,-0.00199327872 150.988883,0.0630067213 C151.002883,0.0630067213 151.015883,0.0670067213 151.030883,0.0710067213 C151.389883,0.121006721 151.751883,0.201006721 152.106883,0.308006721 C152.196883,0.335006721 152.288883,0.364006721 152.375883,0.398006721 C152.815883,0.554006721 153.246883,0.756006721 153.652883,1.00000672 C153.737883,1.05100672 153.821883,1.10400672 153.903883,1.15600672 C154.690883,1.68100672 155.179883,2.20500672 155.479883,2.55600672 C155.610883,2.70500672 155.700883,2.81900672 155.819883,2.98000672 C156.655883,4.13100672 157.097883,5.13900672 157.389883,5.80600672 C157.389883,5.80600672 157.573883,6.22200672 157.596883,6.28100672 C158.773883,9.11800672 159.695883,11.9190067 160.587883,14.6270067 L160.651883,14.8300067 C162.301883,19.8700067 163.757883,24.9790067 165.165883,29.9180067 L165.327883,30.4810067 C165.516883,30.3900067 166.428883,29.9680067 166.428883,29.9680067 C166.532883,29.9180067 166.633883,29.8760067 166.737883,29.8330067 L167.198883,29.6470067 C168.044883,29.3000067 169.005883,28.9070067 170.087883,28.5860067 L170.319883,28.5050067 C170.600883,28.4160067 170.887883,28.3210067 171.175883,28.2420067 C171.425883,28.1700067 171.677883,28.1060067 171.930883,28.0510067 L173.350883,27.7090067 C173.483883,27.6760067 173.616883,27.6470067 173.753883,27.6300067 L175.216883,27.3820067 C175.911883,27.2550067 176.514883,27.2110067 177.008883,27.1750067 L177.710883,27.1240067 C178.170883,27.0860067 178.788883,27.0370067 179.516883,27.0620067 L180.971883,27.0840067 C184.977883,27.1340067 188.194883,30.4330067 188.145883,34.4340067 C188.126883,35.8600067 187.696883,37.2400067 186.893883,38.4200067 C186.880883,38.4360067 186.693883,38.7180067 186.614883,38.8400067 C187.358883,39.3260067 188.307883,39.9490067 189.325883,40.9200067 C189.791883,41.3730067 190.153883,41.7840067 190.483883,42.2330067 C190.546883,42.3170067 190.604883,42.4000067 190.659883,42.4830067 C190.966883,42.9460067 191.733883,44.0830067 191.999883,45.8840067 C192.156883,46.7570067 192.122883,47.6880067 191.903883,48.5780067 C191.911883,48.5210067 191.923883,48.4700067 191.934883,48.4200067 C191.921883,48.4870067 191.880883,48.6630067 191.879883,48.6830067 C191.879883,48.6830067 191.874883,48.7050067 191.872883,48.7160067 C191.844883,48.8210067 191.803883,48.9640067 191.777883,49.0540067 C191.803883,48.9620067 191.827883,48.8810067 191.844883,48.8150067 C191.772883,49.1050067 191.688883,49.3500067 191.608883,49.5580067 C191.417883,50.0830067 190.907883,51.2430067 189.932883,52.2480067 C189.464883,52.7480067 189.057883,53.0650067 188.833883,53.2390067 C188.745883,53.3060067 188.611883,53.4130067 188.522883,53.4760067 C187.532883,54.1790067 186.646883,54.6410067 185.932883,55.0120067 C185.921883,55.0180067 185.854883,55.0540067 185.844883,55.0580067 C184.782883,55.6090067 183.758883,56.0760067 182.772883,56.5290067 C182.772883,56.5290067 181.030883,57.3340067 180.644883,57.5160067 C180.790883,57.9890067 180.919883,58.4440067 181.040883,58.8930067 C181.377883,60.2410067 181.818883,61.9860067 181.688883,64.2490067 C181.682883,64.3630067 181.673883,64.4750067 181.661883,64.5910067 C181.628883,64.8740067 181.583883,65.1690067 181.530883,65.4550067 C181.516883,65.5350067 181.495883,65.6410067 181.479883,65.7210067 C181.353883,66.2940067 181.180883,66.7710067 181.071883,67.0540067 L181.065883,67.0500067 C180.866883,67.6220067 180.583883,68.1670067 180.233883,68.6600067 L180.233883,68.6620067 C180.233883,68.6660067 180.071883,68.8960067 180.071883,68.8960067 C179.763883,69.3460067 179.452883,69.6750067 179.258883,69.8860067 C179.204883,69.9460067 179.112883,70.0440067 179.055883,70.1020067 L178.661883,70.4950067 C178.539883,70.6220067 178.410883,70.7430067 178.275883,70.8550067 L177.826883,71.2360067 C177.571883,71.4520067 177.309883,71.6660067 177.053883,71.8610067 C176.919883,71.9650067 176.782883,72.0670067 176.649883,72.1710067 C178.393883,78.1680067 180.001883,83.8450067 181.542883,89.4260067 C182.024883,91.1960067 182.497883,92.9460067 182.937883,94.7250067 C182.937883,94.7250067 183.296883,96.2480067 183.305883,96.3080067 C183.390883,96.7250067 183.455883,97.0540067 183.510883,97.4960067 L183.507883,97.4910067 C183.548883,97.8170067 183.590883,98.3410067 183.555883,98.9240067 L183.557883,98.9240067 C183.548883,99.1050067 183.527883,99.3350067 183.499883,99.5190067 C183.468883,99.7250067 183.421883,100.061007 183.300883,100.476007 C183.292883,100.500007 183.223883,100.735007 183.223883,100.735007 C183.190883,100.843007 183.153883,100.951007 183.113883,101.059007 C182.912883,101.618007 182.667883,102.127007 182.363883,102.621007 C182.342883,102.652007 182.323883,102.684007 182.303883,102.718007 C181.443883,104.063007 180.565883,104.966007 179.928883,105.625007 C179.928883,105.625007 179.628883,105.931007 179.596883,105.968007 C176.915883,108.627007 174.167883,110.904007 171.112883,113.397007 C165.680883,117.792007 160.087883,122.084007 153.986883,126.528007 L153.385883,126.961007 C152.115883,127.878007 150.801883,128.829007 149.421883,129.751007 C148.664883,130.253007 147.837883,130.802007 146.927883,131.352007 C146.643883,131.521007 146.317883,131.715007 146.034883,131.865007 C145.592883,132.106007 145.107883,132.312007 144.760883,132.437007 C144.694883,132.460007 144.630883,132.486007 144.561883,132.507007 C144.426883,132.554007 144.288883,132.592007 144.153883,132.630007 C143.804883,132.729007 143.466883,132.805007 143.158883,132.852007 C142.016883,133.055007 141.042883,133.032007 140.171883,132.977007 C140.119883,132.975007 140.069883,132.970007 140.020883,132.965007 C137.565883,132.751007 135.534883,132.215007 133.499883,131.638007 C131.635883,131.100007 129.835883,130.526007 128.167883,129.979007 C126.925883,129.573007 125.688883,129.157007 124.456883,128.744007 C122.302883,128.019007 120.268883,127.338007 118.197883,126.693007 C116.374883,126.136007 114.864883,125.715007 113.489883,125.378007 C112.223883,125.073007 110.864883,124.765007 109.716883,124.679007 C109.614883,124.755007 109.496883,124.846007 109.356883,124.956007 C108.203883,125.888007 106.973883,127.045007 105.934883,128.045007 C103.398883,130.494007 100.897883,133.126007 98.7908828,135.371007 C93.5798828,140.947007 88.6328828,146.639007 84.9038828,150.972007 C84.0018828,152.018007 82.8208828,152.777007 81.4878828,153.156007" id="Fill-197" fill="#FFFFFF"></path>
            <path d="M30.3863828,85.3855067 C30.3863828,85.3855067 17.2183828,80.4585067 7.52538282,83.7815067 C7.52538282,83.7815067 12.7023828,88.1865067 13.2203828,89.9975067 C13.2203828,89.9975067 6.66938282,95.5065067 7.11538282,97.0615067 C7.55438282,98.6145067 21.4253828,99.1415067 30.1933828,103.364507 C30.1933828,103.364507 34.8203828,91.1185067 30.3863828,85.3855067" id="Fill-199" fill="#BD6539"></path>
            <path d="M30.9654828,84.9372067 C31.2184828,85.2782067 31.4804828,85.6172067 31.7254828,85.9722067 C31.9724828,86.3242067 32.1144828,86.7252067 32.3144828,87.1042067 C32.5224828,87.4832067 32.6304828,87.8852067 32.7624828,88.2862067 C32.8904828,88.6912067 33.0074828,89.0932067 33.0664828,89.5022067 C33.1314828,89.9112067 33.2324828,90.3202067 33.2664828,90.7292067 L33.3744828,91.9582067 C33.4004828,92.7712067 33.4094828,93.5932067 33.3414828,94.3962067 C33.3064828,95.2082067 33.1914828,96.0012067 33.0804828,96.7982067 C32.9464828,97.5872067 32.8164828,98.3762067 32.6284828,99.1562067 C32.4434828,99.9312067 32.2414828,100.703207 31.9974828,101.463207 C31.7574828,102.229207 31.4914828,102.959207 31.1714828,103.732207 L31.1424828,103.800207 C30.9294828,104.315207 30.3394828,104.558207 29.8254828,104.344207 L29.7394828,104.304207 C27.3644828,103.041207 24.7634828,102.050207 22.0794828,101.385207 C20.7344828,101.061207 19.3764828,100.775207 18.0114828,100.512207 C16.6424828,100.275207 15.2654828,100.061207 13.8824828,99.8582067 C12.4984828,99.6502067 11.1094828,99.4752067 9.69848282,99.2052067 C8.98748282,99.0652067 8.28648282,98.9292067 7.49748282,98.6592067 C7.28448282,98.5722067 7.08748282,98.5082067 6.82348282,98.3452067 C6.75548282,98.3242067 6.43748282,98.0872067 6.26148282,97.8382067 C6.20648282,97.7692067 6.17348282,97.7132067 6.17348282,97.7132067 L6.13948282,97.6572067 L6.10548282,97.6012067 C6.12448282,97.6502067 5.93248282,97.1662067 6.01048282,97.3602067 L6.00548282,97.3372067 L5.99548282,97.2902067 L5.97748282,97.1972067 C5.89448282,96.6592067 6.00948282,96.3642067 6.09148282,96.0952067 C6.18448282,95.8372067 6.28948282,95.6292067 6.39648282,95.4382067 C6.82848282,94.6862067 7.30248282,94.1252067 7.78448282,93.5592067 C8.27148282,93.0042067 8.76748282,92.4792067 9.27548282,91.9702067 C10.2924828,90.9492067 11.3244828,89.9922067 12.4194828,89.0462067 L12.0244828,90.3382067 C11.9684828,90.2652067 11.9954828,90.2372067 11.9064828,90.1082067 C11.8374828,89.9992067 11.7884828,89.8942067 11.6904828,89.7712067 C11.5264828,89.5322067 11.3194828,89.2802067 11.1134828,89.0342067 C10.6874828,88.5362067 10.2154828,88.0462067 9.73248282,87.5642067 C8.76548282,86.6002067 7.71048282,85.6672067 6.65948282,84.8012067 L6.64248282,84.7892067 C6.08248282,84.3272067 6.00248282,83.4982067 6.46448282,82.9372067 C6.63448282,82.7312067 6.85348282,82.5912067 7.09148282,82.5172067 L8.58148282,82.0582067 C9.07548282,81.8792067 9.58348282,81.7992067 10.0874828,81.6852067 C10.5924828,81.5812067 11.0974828,81.4522067 11.6054828,81.4012067 L13.1324828,81.2162067 L14.6584828,81.1382067 C15.1694828,81.0982067 15.6744828,81.1312067 16.1814828,81.1402067 C17.1954828,81.1442067 18.1954828,81.2652067 19.1974828,81.3632067 C20.1914828,81.5152067 21.1854828,81.6462067 22.1594828,81.8652067 C23.1384828,82.0642067 24.1074828,82.3012067 25.0624828,82.5832067 C26.0194828,82.8522067 26.9614828,83.1662067 27.8924828,83.5132067 C28.8194828,83.8772067 29.7374828,84.2352067 30.6374828,84.6972067 L30.7514828,84.7542067 C30.8374828,84.7982067 30.9104828,84.8632067 30.9654828,84.9372067 M29.9104828,86.0302067 C28.1264828,85.6332067 26.3104828,85.2982067 24.5164828,84.9962067 C23.5774828,84.8522067 22.6424828,84.6952067 21.7034828,84.5932067 C21.2344828,84.5482067 20.7694828,84.4622067 20.3004828,84.4302067 L18.8984828,84.3012067 L17.4984828,84.2182067 C17.0314828,84.1792067 16.5694828,84.1872067 16.1034828,84.1692067 C15.1724828,84.1252067 14.2554828,84.1692067 13.3294828,84.1732067 L11.9614828,84.2892067 C11.4984828,84.3052067 11.0554828,84.3942067 10.6054828,84.4582067 C10.1574828,84.5342067 9.69748282,84.5772067 9.26948282,84.7062067 L7.95848282,85.0462067 L8.39248282,82.7632067 C9.48148282,83.7422067 10.5084828,84.7292067 11.5414828,85.7692067 C12.0514828,86.2942067 12.5544828,86.8292067 13.0414828,87.4142067 C13.2824828,87.7142067 13.5254828,88.0102067 13.7574828,88.3582067 C13.8744828,88.5152067 13.9894828,88.7252067 14.1014828,88.9192067 C14.2124828,89.0872067 14.3234828,89.4112067 14.4154828,89.6572067 C14.5834828,90.1042067 14.4434828,90.5932067 14.0964828,90.8852067 L14.0204828,90.9512067 C12.9864828,91.8222067 11.9444828,92.7442067 10.9664828,93.6862067 C10.4774828,94.1572067 10.0014828,94.6392067 9.55648282,95.1292067 C9.11848282,95.6122067 8.68548282,96.1312067 8.41348282,96.5882067 C8.34648282,96.7012067 8.29548282,96.8042067 8.26648282,96.8762067 C8.23748282,96.9362067 8.25048282,96.9912067 8.23448282,96.8022067 L8.22548282,96.7732067 L8.12548282,96.5252067 L8.15548282,96.5842067 L8.18748282,96.6442067 C8.19148282,96.6502067 8.19948282,96.6692067 8.19848282,96.6652067 L8.18148282,96.6162067 C8.13748282,96.4812067 7.94148282,96.3752067 8.03148282,96.4332067 C8.06148282,96.4592067 8.19348282,96.5192067 8.30248282,96.5702067 C8.82548282,96.7822067 9.49548282,96.9582067 10.1484828,97.1162067 C11.4744828,97.4332067 12.8454828,97.7302067 14.2134828,98.0232067 L18.3324828,98.9252067 C19.7094828,99.2172067 21.0854828,99.5402067 22.4544828,99.8982067 C23.8264828,100.237207 25.1964828,100.604207 26.5694828,100.996207 C27.9414828,101.389207 29.3074828,101.850207 30.6464828,102.418207 L29.2144828,102.991207 C29.4294828,102.306207 29.6204828,101.554207 29.8164828,100.832207 C29.9984828,100.101207 30.1854828,99.3712067 30.3474828,98.6352067 C30.5094828,97.9002067 30.6604828,97.1652067 30.7914828,96.4252067 C30.8984828,95.6882067 31.0244828,94.9492067 31.0884828,94.2122067 C31.1274828,93.8412067 31.1714828,93.4722067 31.1774828,93.1062067 L31.2264828,92.0012067 L31.2094828,90.9052067 C31.2064828,90.5382067 31.1404828,90.1862067 31.1104828,89.8262067 C31.0874828,89.4622067 31.0094828,89.1172067 30.9264828,88.7712067 C30.8534828,88.4232067 30.8044828,88.0612067 30.6674828,87.7442067 C30.5404828,87.4212067 30.4644828,87.0612067 30.2954828,86.7602067 C30.1604828,86.5232067 30.0374828,86.2782067 29.9104828,86.0302067" id="Fill-201" fill="#000000"></path>
            <path d="M21.4878828,88.0613067 L24.5048828,85.3813067" id="Fill-203" fill="#E55D42"></path>
            <path d="M21.1411828,87.6697067 C21.1411828,87.6697067 21.2221828,87.3817067 21.4301828,87.0467067 C21.6321828,86.7057067 21.9601828,86.3147067 22.3381828,85.9817067 C22.7161828,85.6487067 23.1511828,85.3777067 23.5111828,85.2127067 C23.8671828,85.0427067 24.1571828,84.9897067 24.1571828,84.9897067 C24.4901828,84.9307067 24.8081828,85.1507067 24.8691828,85.4817067 C24.8861828,85.5807067 24.8781828,85.6827067 24.8511828,85.7717067 C24.8511828,85.7717067 24.7651828,86.0537067 24.5551828,86.3887067 C24.3491828,86.7277067 24.0291828,87.1247067 23.6541828,87.4617067 C23.2791828,87.7967067 22.8511828,88.0767067 22.4881828,88.2367067 C22.1301828,88.4047067 21.8351828,88.4517067 21.8351828,88.4517067 C21.4961828,88.5067067 21.1781828,88.2747067 21.1241828,87.9367067 C21.1111828,87.8457067 21.1181828,87.7527067 21.1411828,87.6697067" id="Fill-205" fill="#000000"></path>
            <path d="M159.369783,42.3708067 C159.369783,42.3708067 170.602783,33.9198067 180.841783,34.3648067 C180.841783,34.3648067 177.122783,40.0578067 177.138783,41.9378067 C177.138783,41.9378067 184.979783,45.3688067 184.991783,46.9848067 C185.011783,48.5998067 171.854783,53.0288067 164.643783,59.5598067 C164.643783,59.5598067 156.736783,49.1268067 159.369783,42.3708067" id="Fill-207" fill="#BD6539"></path>
            <path d="M160.009383,42.8562067 C159.956383,43.1272067 159.909383,43.4002067 159.846383,43.6652067 C159.769383,44.0022067 159.798383,44.3692067 159.767383,44.7132067 C159.726383,45.0592067 159.782383,45.4192067 159.810383,45.7732067 C159.827383,46.1272067 159.850383,46.4812067 159.932383,46.8372067 C160.005383,47.1932067 160.042383,47.5482067 160.142383,47.9002067 L160.436383,48.9552067 L160.796383,50.0002067 C160.905383,50.3512067 161.051383,50.6922067 161.194383,51.0362067 C161.464383,51.7262067 161.794383,52.4002067 162.107383,53.0762067 C162.441383,53.7502067 162.794383,54.4112067 163.158383,55.0692067 C163.521383,55.7302067 163.907383,56.3772067 164.290383,57.0292067 C164.681383,57.6652067 165.077383,58.3322067 165.479383,58.9272067 L163.943383,58.7852067 C165.066383,57.8552067 166.245383,57.0312067 167.449383,56.2642067 C168.655383,55.5022067 169.866383,54.7622067 171.085383,54.0462067 C172.295383,53.3152067 173.525383,52.6212067 174.762383,51.9512067 L178.456383,49.9172067 C179.686383,49.2482067 180.915383,48.5762067 182.099383,47.8982067 C182.680383,47.5612067 183.272383,47.2012067 183.714383,46.8502067 C183.804383,46.7712067 183.913383,46.6772067 183.933383,46.6392067 C184.005383,46.5612067 183.848383,46.7182067 183.842383,46.8602067 C183.831383,46.9832067 183.853383,46.8372067 183.857383,46.8242067 L183.870383,46.7602067 L183.845383,47.0212067 L183.845383,47.0522067 C183.881383,47.2392067 183.878383,47.1832067 183.835383,47.1352067 C183.787383,47.0762067 183.709383,46.9912067 183.613383,46.9022067 C183.222383,46.5402067 182.659383,46.1652067 182.103383,45.8242067 C181.538383,45.4812067 180.946383,45.1552067 180.341383,44.8382067 C179.138383,44.2122067 177.877383,43.6212067 176.639383,43.0812067 L176.550383,43.0412067 C176.112383,42.8502067 175.862383,42.4052067 175.894383,41.9542067 C175.913383,41.6912067 175.927383,41.3472067 175.988383,41.1572067 C176.040383,40.9382067 176.091383,40.7042067 176.158383,40.5212067 C176.282383,40.1212067 176.429383,39.7672067 176.577383,39.4112067 C176.878383,38.7122067 177.210383,38.0582067 177.550383,37.4092067 C178.247383,36.1212067 178.952383,34.8812067 179.722383,33.6332067 L180.781383,35.7022067 L179.431383,35.7462067 C178.980383,35.7422067 178.529383,35.8332067 178.078383,35.8882067 C177.628383,35.9522067 177.178383,35.9922067 176.730383,36.1082067 L175.384383,36.3852067 C174.496383,36.6442067 173.605383,36.8602067 172.724383,37.1662067 C172.283383,37.3142067 171.835383,37.4342067 171.400383,37.6062067 L170.081383,38.0832067 L168.773383,38.6042067 C168.333383,38.7672067 167.910383,38.9812067 167.473383,39.1572067 C166.602383,39.5212067 165.749383,39.9342067 164.890383,40.3392067 C163.253383,41.1352067 161.609383,41.9702067 160.009383,42.8562067 L160.009383,42.8562067 Z M158.935383,41.7822067 C159.667383,41.0852067 160.447383,40.4812067 161.232383,39.8712067 C162.027383,39.2752067 162.842383,38.7062067 163.683383,38.1792067 C164.520383,37.6382067 165.382383,37.1352067 166.264383,36.6672067 C167.136383,36.1832067 168.054383,35.7762067 168.962383,35.3502067 C169.896383,34.9702067 170.820383,34.5722067 171.792383,34.2822067 C172.277383,34.1312067 172.750383,33.9542067 173.251383,33.8502067 L174.738383,33.4942067 L176.254383,33.2382067 C176.756383,33.1422067 177.277383,33.1212067 177.790383,33.0792067 C178.307383,33.0462067 178.815383,32.9812067 179.339383,33.0112067 L180.900383,33.0302067 C181.624383,33.0392067 182.206383,33.6362067 182.196383,34.3632067 C182.195383,34.6292067 182.111383,34.8762067 181.971383,35.0832067 L181.960383,35.0972067 C181.196383,36.2272067 180.448383,37.4192067 179.793383,38.6192067 C179.468383,39.2182067 179.154383,39.8242067 178.884383,40.4192067 C178.759383,40.7142067 178.629383,41.0122067 178.540383,41.2882067 C178.481383,41.4382067 178.464383,41.5542067 178.429383,41.6752067 C178.378383,41.8242067 178.413383,41.8432067 178.382383,41.9302067 L177.635383,40.8042067 C178.952383,41.3962067 180.212383,42.0252067 181.478383,42.7132067 C182.108383,43.0592067 182.736383,43.4192067 183.357383,43.8182067 C183.982383,44.2222067 184.593383,44.6272067 185.220383,45.2252067 C185.378383,45.3772067 185.538383,45.5502067 185.700383,45.7692067 C185.855383,46.0022067 186.049383,46.2542067 186.121383,46.7942067 L186.130383,46.8892067 L186.134383,46.9362067 L186.135383,46.9602067 C186.156383,46.7562067 186.109383,47.2662067 186.113383,47.2152067 L186.096383,47.2792067 C186.073383,47.3502067 186.102383,47.2982067 186.032383,47.4912067 C185.932383,47.7792067 185.696383,48.0932067 185.636383,48.1332067 C185.427383,48.3642067 185.257383,48.4832067 185.078383,48.6272067 C184.397383,49.1102067 183.764383,49.4382067 183.120383,49.7732067 C181.845383,50.4292067 180.562383,50.9912067 179.294383,51.5822067 C178.027383,52.1712067 176.765383,52.7642067 175.520383,53.3802067 C174.286383,54.0182067 173.064383,54.6752067 171.866383,55.3662067 C169.480383,56.7642067 167.267383,58.4532067 165.347383,60.3352067 C164.949383,60.7232067 164.312383,60.7192067 163.921383,60.3212067 L163.859383,60.2522067 L163.811383,60.1922067 C163.284383,59.5432067 162.823383,58.9182067 162.377383,58.2502067 C161.926383,57.5922067 161.514383,56.9082067 161.118383,56.2132067 C160.717383,55.5232067 160.368383,54.8022067 160.015383,54.0822067 C159.685383,53.3502067 159.349383,52.6182067 159.086383,51.8512067 C158.792383,51.1012067 158.568383,50.3092067 158.363383,49.5232067 L158.118383,48.3132067 C158.036383,47.9132067 158.017383,47.4892067 157.965383,47.0802067 C157.905383,46.6712067 157.904383,46.2502067 157.911383,45.8262067 C157.925383,45.4072067 157.915383,44.9892067 158.007383,44.5652067 C158.091383,44.1462067 158.114383,43.7222067 158.251383,43.3132067 C158.386383,42.9022067 158.541383,42.5022067 158.687383,42.1042067 C158.722383,42.0152067 158.774383,41.9362067 158.841383,41.8712067 L158.935383,41.7822067 Z" id="Fill-209" fill="#000000"></path>
            <path d="M162.684183,44.5652067 L167.934183,46.2882067" id="Fill-211" fill="#E55D42"></path>
            <path d="M162.846283,44.0705067 C162.846283,44.0705067 163.226283,44.0255067 163.751283,44.0805067 C164.282283,44.1265067 164.960283,44.2695067 165.617283,44.4875067 C166.273283,44.7025067 166.902283,44.9995067 167.358283,45.2715067 C167.816283,45.5375067 168.097283,45.7895067 168.097283,45.7895067 C168.330283,46.0015067 168.349283,46.3635067 168.137283,46.5975067 C168.039283,46.7085067 167.907283,46.7715067 167.771283,46.7835067 C167.771283,46.7835067 167.395283,46.8215067 166.870283,46.7665067 C166.341283,46.7155067 165.658283,46.5805067 165.001283,46.3665067 C164.345283,46.1565067 163.710283,45.8685067 163.256283,45.5935067 C162.800283,45.3235067 162.521283,45.0615067 162.521283,45.0615067 C162.288283,44.8455067 162.277283,44.4815067 162.494283,44.2495067 C162.590283,44.1445067 162.717283,44.0875067 162.846283,44.0705067" id="Fill-213" fill="#000000"></path>
            <path d="M17.6382828,45.5447067 C17.6382828,45.5447067 33.7432828,139.902707 36.5002828,141.203707 C39.2552828,142.506707 79.5482828,146.361707 79.5482828,146.361707 C79.5482828,146.361707 101.793283,120.645707 107.191283,118.136707 C112.583283,115.632707 138.576283,127.479707 142.451283,125.515707 C146.325283,123.555707 175.937283,101.628707 176.551283,98.5507067 C177.163283,95.4707067 152.970283,6.87470672 150.070283,6.76870672 C147.169283,6.66470672 116.233283,28.4897067 116.233283,28.4897067 C116.233283,28.4897067 90.0682828,24.1407067 85.5062828,25.7797067 C80.9442828,27.4177067 56.9842828,45.1647067 56.9842828,45.1647067 C56.9842828,45.1647067 22.8132828,40.8257067 17.6382828,45.5447067" id="Fill-215" fill="#FFEE84"></path>
            <path d="M129.185183,81.3542067 C130.182183,79.2942067 117.681183,73.6342067 114.880183,74.1762067 C112.072183,74.7272067 99.7711828,85.9212067 97.5971828,85.8142067 C95.4251828,85.7202067 92.1931828,87.0512067 90.8271828,80.6832067 C89.4731828,74.3122067 94.8411828,75.0002067 95.6621828,68.7362067 C96.4721828,62.4622067 90.4841828,63.6922067 89.1591828,59.8762067 C87.8321828,56.0582067 95.8781828,45.9912067 100.806183,41.7162067 C105.734183,37.4342067 111.108183,38.1332067 114.289183,37.4562067 C117.480183,36.7732067 124.677183,40.2522067 126.827183,39.0772067 C128.992183,37.8982067 133.199183,27.8842067 135.062183,23.3882067 C136.829183,19.1052067 149.671183,19.8992067 150.885183,19.9802067 C157.271183,40.4162067 170.376183,94.8082067 169.899183,97.1102067 C169.316183,99.9362067 146.664183,118.192207 143.049183,120.009207 C141.509183,120.785207 135.350183,119.649207 128.382183,118.268207 C125.423183,114.435207 124.804183,106.208207 122.316183,105.275207 C116.414183,103.052207 112.845183,93.1612067 113.341183,89.0362067 C114.241183,81.5892067 128.191183,83.4122067 129.185183,81.3542067" id="Fill-217" fill="#AEBC4A"></path>
            <path d="M135.062083,23.3884067 C133.199083,27.8844067 128.992083,37.8984067 126.827083,39.0774067 C124.677083,40.2524067 117.480083,36.7734067 114.289083,37.4554067 C111.108083,38.1334067 105.734083,37.4344067 100.806083,41.7164067 C95.8780828,45.9914067 87.8330828,56.0584067 89.1590828,59.8764067 C90.4840828,63.6924067 96.4720828,62.4624067 95.6620828,68.7364067 C94.8410828,75.0004067 89.4730828,74.3124067 90.8270828,80.6824067 C92.1930828,87.0514067 95.4250828,85.7204067 97.5970828,85.8144067 C99.7710828,85.9214067 112.072083,74.7274067 114.880083,74.1764067 C117.681083,73.6344067 130.182083,79.2944067 129.185083,81.3544067 C128.191083,83.4124067 114.241083,81.5894067 113.341083,89.0354067 C112.845083,93.1604067 116.414083,103.052407 122.316083,105.275407 C124.804083,106.208407 125.423083,114.435407 128.382083,118.268407 C119.005083,116.404407 108.177083,114.098407 105.292083,115.435407 C102.593083,116.685407 95.3160828,124.127407 89.1670828,130.725407 L89.0740828,130.638407 C90.5700828,127.554407 91.2440828,122.448407 84.9580828,120.359407 C78.6720828,118.270407 75.8970828,121.371407 75.3330828,117.287407 C74.7700828,113.204407 79.0850828,110.853407 76.8600828,106.918407 C74.6420828,102.987407 74.3370828,109.508407 70.6400828,109.938407 C66.9410828,110.374407 64.5010828,109.509407 62.3160828,108.129407 C60.1230828,106.754407 59.9600828,93.9744067 65.1680828,91.7394067 C70.3790828,89.4994067 74.5600828,86.7674067 75.3860828,81.7764067 C76.2200828,76.7804067 70.1160828,78.9014067 67.1140828,73.9534067 C64.1050828,69.0154067 74.3260828,68.8864067 77.5970828,64.7544067 C80.8610828,60.6214067 80.7980828,55.5104067 73.1210828,54.3314067 C65.4370828,53.1584067 59.6240828,61.4514067 53.3650828,64.7664067 C47.1050828,68.0834067 48.5470828,60.7434067 40.3390828,58.4604067 C33.0310828,56.4384067 27.1320828,67.4904067 25.9210828,69.9334067 C23.8530828,58.0144067 22.4000828,49.3174067 22.4000828,49.3174067 C27.2300828,44.9594067 58.9860828,48.7604067 58.9860828,48.7604067 C58.9860828,48.7604067 81.3580828,32.3584067 85.6110828,30.8334067 C89.8690828,29.3074067 117.659083,31.2674067 117.659083,31.2674067 C117.659083,31.2674067 145.071083,12.2344067 147.769083,12.3124067 C148.279083,12.3294067 149.393083,15.2424067 150.885083,19.9804067 C149.671083,19.8994067 136.829083,19.1054067 135.062083,23.3884067" id="Fill-219" fill="#08AAEB"></path>
            <path d="M73.1206828,54.3318067 C80.7986828,55.5108067 80.8606828,60.6218067 77.5976828,64.7538067 C74.3256828,68.8868067 64.1046828,69.0158067 67.1136828,73.9538067 C70.1156828,78.9008067 76.2206828,76.7798067 75.3866828,81.7758067 C74.5596828,86.7678067 70.3796828,89.4998067 65.1686828,91.7388067 C59.9606828,93.9748067 60.1226828,106.753807 62.3156828,108.128807 C64.5016828,109.509807 66.9406828,110.374807 70.6406828,109.937807 C74.3376828,109.507807 74.6416828,102.986807 76.8596828,106.918807 C79.0856828,110.853807 74.7696828,113.204807 75.3336828,117.287807 C75.8966828,121.371807 78.6726828,118.270807 84.9586828,120.358807 C91.2436828,122.447807 90.5696828,127.553807 89.0736828,130.638807 L89.1676828,130.725807 C83.8846828,136.406807 79.4406828,141.468807 79.4406828,141.468807 C79.4406828,141.468807 41.9916828,138.137807 39.4326828,136.961807 C37.6926828,136.152807 30.3866828,95.5908067 25.9216828,69.9338067 C27.1326828,67.4898067 33.0306828,56.4378067 40.3396828,58.4608067 C48.5476828,60.7428067 47.1046828,68.0838067 53.3646828,64.7668067 C59.6246828,61.4508067 65.4366828,53.1578067 73.1206828,54.3318067" id="Fill-221" fill="#AEBC4A"></path>
            <path d="M47.1343828,69.5373067 C47.1343828,69.5373067 46.6193828,69.7683067 45.8163828,70.2123067" id="Stroke-223" stroke="#984133" stroke-linecap="round" stroke-linejoin="round"></path>
            <path d="M43.2925828,71.7654067 C39.4625828,74.3994067 34.4485828,79.2124067 36.7115828,85.3944067 C40.2125828,94.9594067 47.8435828,83.7654067 61.7655828,81.0834067 C75.6885828,78.3994067 89.5385828,86.3014067 80.5835828,95.5574067 C71.6275828,104.813407 58.9985828,106.612407 51.8475828,110.453407 C44.6965828,114.295407 42.3725828,138.669407 59.1205828,135.953407 C75.8705828,133.238407 88.6535828,109.558407 95.7635828,101.791407 C118.750583,76.6834067 155.063583,85.6514067 155.774583,98.0764067 C156.481583,110.498407 146.058583,104.969407 145.423583,102.745407 C143.410583,95.6884067 143.894583,95.8794067 155.917583,82.9164067 C167.938583,69.9524067 158.903583,51.2264067 152.030583,45.1974067 C145.156583,39.1714067 129.567583,37.5194067 118.845583,55.3494067 C113.830583,63.6964067 108.275583,70.6584067 102.901583,73.6154067" id="Stroke-225" stroke="#984133" stroke-linecap="round" stroke-linejoin="round" stroke-dasharray="2.992,2.992"></path>
            <path d="M101.560183,74.2673067 C101.093183,74.4683067 100.626183,74.6343067 100.162183,74.7673067" id="Stroke-227" stroke="#984133" stroke-linecap="round" stroke-linejoin="round"></path>
            <path d="M57.2398828,45.5193067 L78.7818828,146.070307 C78.7818828,146.070307 103.909883,117.339307 107.702883,116.397307 C110.448883,115.714307 141.154883,126.179307 141.154883,126.179307 L116.284883,28.6763067 C116.284883,28.6763067 89.3198828,25.4463067 86.1008828,25.9413067 C82.8828828,26.4413067 57.2398828,45.5193067 57.2398828,45.5193067" id="Fill-229" fill="#672381" opacity="0.0412248884"></path>
            <path d="M57.1402828,50.2966067 C57.4552828,57.4406067 59.3732828,64.6686067 60.6762828,71.6876067 C62.1182828,79.4066067 63.4512828,87.1446067 64.7922828,94.8816067 C67.3952828,109.866607 69.9152828,124.989607 73.8262828,139.698607 C74.1952828,141.091607 76.2492828,140.285607 75.9232828,138.925607 C72.2772828,123.746607 69.1092828,108.537607 66.3722828,93.1676067 C65.0912828,85.9556067 63.8732828,78.7336067 62.6202828,71.5156067 C61.3882828,64.4356067 60.4952828,56.8586067 57.8872828,50.1296067 C57.7292828,49.7156067 57.1202828,49.8666067 57.1402828,50.2966067" id="Fill-231" fill="#000000"></path>
            <path d="M118.687083,33.0388067 C118.509083,32.6008067 117.871083,32.8478067 117.995083,33.2968067 C121.878083,47.4148067 125.531083,61.4788067 128.576083,75.8088067 C131.537083,89.7548067 134.351083,103.738807 138.120083,117.496807 C138.443083,118.683807 140.265083,118.007807 139.930083,116.826807 C135.953083,102.742807 133.024083,88.4108067 129.926083,74.1148067 C126.938083,60.3168067 124.001083,46.1648067 118.687083,33.0388067" id="Fill-233" fill="#000000"></path>
            <path d="M158.827783,33.4416067 C157.140783,27.9896067 155.364783,22.5686067 153.565783,17.1666067 C152.645783,14.4806067 151.722783,11.7706067 150.620783,9.20260672 C150.349783,8.59260672 150.023783,7.88760672 149.731783,7.50760672 C149.712783,7.48060672 149.667783,7.45060672 149.741783,7.50460672 C149.775783,7.52660672 149.809783,7.54360672 149.860783,7.56160672 C149.900783,7.57360672 149.942783,7.58160672 149.984783,7.58860672 C150.036783,7.59060672 149.958783,7.59260672 150.115783,7.59060672 L150.100783,7.59060672 L149.966783,7.60360672 C149.972783,7.61760672 149.829783,7.64360672 149.683783,7.70060672 C149.401783,7.80660672 149.090783,7.95060672 148.786783,8.10160672 C147.558783,8.71260672 146.335783,9.44160672 145.126783,10.1706067 C140.294783,13.1396067 135.569783,16.3466067 130.863783,19.5586067 C126.138783,22.7466067 121.438783,25.9836067 116.770783,29.2526067 C116.563783,29.3996067 116.310783,29.4476067 116.079783,29.4096067 C110.718783,28.5156067 105.326783,27.6996067 99.9307828,27.0446067 C97.2307828,26.7276067 94.5267828,26.4426067 91.8307828,26.2846067 C90.4857828,26.2086067 89.1347828,26.1576067 87.8207828,26.2146067 C87.1687828,26.2356067 86.5087828,26.3016067 85.9667828,26.4396067 C85.8157828,26.4776067 85.7337828,26.5006067 85.5617828,26.5766067 C85.3977828,26.6406067 85.2457828,26.7036067 85.1157828,26.7746067 C84.8487828,26.8976067 84.5567828,27.0586067 84.2637828,27.2166067 C81.9347828,28.5226067 79.6677828,30.0496067 77.4117828,31.5576067 C75.1577828,33.0836067 72.9237828,34.6406067 70.6997828,36.2126067 C68.4797828,37.7946067 66.2967828,39.4236067 64.1047828,41.0466067 C61.9087828,42.6566067 59.7667828,44.3496067 57.6157828,46.0176067 C57.4057828,46.1796067 57.1517828,46.2456067 56.9077828,46.2226067 L56.8487828,46.2186067 C53.5737828,45.9036067 50.2687828,45.6626067 46.9737828,45.4656067 C43.6817828,45.2456067 40.3887828,45.0596067 37.0987828,44.9706067 C33.8157828,44.8256067 30.5297828,44.7966067 27.2857828,44.9006067 C25.6647828,44.9526067 24.0517828,45.0656067 22.4967828,45.2966067 C21.7217828,45.4126067 20.9607828,45.5596067 20.2547828,45.7646067 C19.5617828,45.9656067 18.8967828,46.2586067 18.5567828,46.5506067 L18.9817828,45.3156067 C19.8947828,51.1136067 20.8377828,56.9126067 21.8557828,62.6956067 L24.8847828,80.0536067 L27.9467828,97.4016067 C28.9547828,103.186607 29.9777828,108.969607 31.0487828,114.741607 C31.5757828,117.629607 32.1277828,120.513607 32.7227828,123.384607 C33.3177828,126.256607 33.8887828,129.134607 34.5917828,131.977607 C34.9377828,133.401607 35.2817828,134.821607 35.6747828,136.224607 C36.0797828,137.599607 36.4937828,139.071607 37.0277828,140.236607 C37.0797828,140.351607 37.1907828,140.506607 37.1397828,140.434607 C37.1397828,140.434607 37.0617828,140.328607 36.8687828,140.260607 L36.9997828,140.303607 C37.0837828,140.328607 37.1817828,140.364607 37.2557828,140.381607 L37.6627828,140.462607 L38.1817828,140.550607 C38.8767828,140.667607 39.5987828,140.762607 40.3167828,140.856607 L44.6657828,141.368607 C56.3097828,142.622607 67.9767828,144.065607 79.6547828,145.245607 L78.7017828,145.629607 C83.3867828,140.316607 88.1557828,135.104607 93.0167828,129.953607 C95.4557828,127.386607 97.9177828,124.839607 100.493783,122.379607 C101.784783,121.152607 103.095783,119.945607 104.518783,118.808607 C105.263783,118.248607 105.934783,117.687607 106.959783,117.228607 C108.049783,116.820607 109.029783,116.848607 109.968783,116.886607 C113.691783,117.157607 117.102783,118.147607 120.533783,119.087607 C123.956783,120.034607 127.342783,121.058607 130.722783,122.042607 C132.411783,122.534607 134.098783,123.011607 135.784783,123.435607 C137.458783,123.837607 139.175783,124.270607 140.725783,124.386607 C141.100783,124.412607 141.473783,124.404607 141.704783,124.359607 C141.765783,124.348607 141.794783,124.333607 141.827783,124.326607 C141.841783,124.314607 141.815783,124.339607 141.949783,124.263607 L142.452783,123.971607 C143.163783,123.529607 143.891783,123.042607 144.609783,122.553607 L148.929783,119.551607 C154.664783,115.480607 160.323783,111.268607 165.843783,106.914607 C168.581783,104.724607 171.345783,102.514607 173.852783,100.162607 C174.452783,99.5886067 175.101783,98.9296067 175.444783,98.4086067 C175.487783,98.3516067 175.501783,98.3046067 175.504783,98.3096067 L175.501783,98.3336067 C175.493783,98.3856067 175.518783,98.2266067 175.487783,98.4546067 L175.489783,98.4126067 C175.493783,98.3296067 175.475783,98.4836067 175.483783,98.4596067 C175.470783,98.3176067 175.430783,98.0976067 175.390783,97.9006067 L175.120783,96.6416067 C174.726783,94.9426067 174.292783,93.2336067 173.852783,91.5266067 L168.431783,71.0586067 L163.043783,50.5636067 C162.964783,50.2666067 163.143783,49.9626067 163.438783,49.8836067 C163.731783,49.8076067 164.030783,49.9786067 164.115783,50.2686067 L164.116783,50.2736067 L170.002783,70.6216067 C171.988783,77.4016067 173.927783,84.1896067 175.807783,91.0086067 C176.274783,92.7136067 176.738783,94.4216067 177.169783,96.1536067 L177.475783,97.4806067 C177.522783,97.7136067 177.569783,97.9276067 177.606783,98.2266067 C177.621783,98.3096067 177.623783,98.5756067 177.618783,98.6016067 L177.617783,98.6446067 C177.579783,98.8986067 177.593783,98.7646067 177.579783,98.8456067 L177.524783,99.0256067 C177.449783,99.2336067 177.365783,99.3896067 177.290783,99.5146067 C176.673783,100.478607 176.050783,101.071607 175.405783,101.741607 C172.831783,104.295607 170.100783,106.543607 167.349783,108.789607 C161.837783,113.254607 156.215783,117.545607 150.483783,121.721607 C149.046783,122.759607 147.614783,123.805607 146.128783,124.795607 C145.382783,125.292607 144.641783,125.784607 143.846783,126.267607 C143.658783,126.379607 143.411783,126.522607 143.202783,126.631607 C143.143783,126.669607 142.917783,126.779607 142.724783,126.848607 C142.548783,126.906607 142.364783,126.958607 142.208783,126.985607 C141.567783,127.096607 141.050783,127.074607 140.546783,127.042607 C138.575783,126.866607 136.852783,126.407607 135.115783,125.916607 C133.391783,125.420607 131.699783,124.877607 130.015783,124.326607 C126.648783,123.225607 123.318783,122.058607 119.966783,121.013607 C118.287783,120.507607 116.604783,120.022607 114.916783,119.605607 C113.232783,119.199607 111.524783,118.818607 109.870783,118.727607 C109.057783,118.685607 108.222783,118.723607 107.653783,118.951607 C107.063783,119.214607 106.335783,119.765607 105.682783,120.276607 C104.354783,121.350607 103.071783,122.547607 101.811783,123.757607 C99.2947828,126.191607 96.8607828,128.737607 94.4507828,131.303607 C89.6447828,136.448607 84.9867828,141.754607 80.3947828,147.093607 C80.1527828,147.376607 79.7987828,147.508607 79.4547828,147.478607 L79.4407828,147.474607 L61.8827828,145.838607 C58.9567828,145.552607 56.0307828,145.258607 53.1087828,144.921607 C50.1867828,144.587607 47.2657828,144.222607 44.3497828,143.779607 C42.8897828,143.565607 41.4317828,143.341607 39.9727828,143.065607 C39.2407828,142.930607 38.5127828,142.789607 37.7667828,142.620607 L37.2067828,142.488607 L36.5467828,142.302607 C36.4427828,142.269607 36.3687828,142.234607 36.2807828,142.202607 L36.1517828,142.154607 C35.8807828,142.041607 35.7257828,141.876607 35.6667828,141.809607 C35.3757828,141.459607 35.3277828,141.276607 35.2227828,141.063607 C34.6167828,139.515607 34.3347828,138.120607 33.9807828,136.660607 C33.6437828,135.218607 33.3097828,133.781607 33.0037828,132.341607 L31.1587828,123.706607 L29.3607828,115.070607 L25.8677828,97.7896067 C24.7057828,92.0266067 23.6617828,86.2436067 22.5937828,80.4646067 L19.4527828,63.1206067 C18.4387828,57.3296067 17.3667828,51.5546067 16.2967828,45.7736067 L16.2947828,45.7676067 C16.2077828,45.2946067 16.3867828,44.8346067 16.7207828,44.5376067 C17.6387828,43.7336067 18.5547828,43.4046067 19.4327828,43.1046067 C20.3147828,42.8256067 21.1817828,42.6396067 22.0427828,42.4886067 C23.7627828,42.1986067 25.4607828,42.0486067 27.1517828,41.9556067 C30.5337828,41.7676067 33.8867828,41.8666067 37.2267828,41.9996067 C40.5637828,42.1956067 43.8897828,42.4706067 47.2027828,42.8166067 C50.5167828,43.1926067 53.8097828,43.6186067 57.1167828,44.1116067 L56.3517828,44.3116067 L69.8057828,34.9456067 C72.0387828,33.3726067 74.2857828,31.8176067 76.5567828,30.2886067 C78.8397828,28.7726067 81.1007828,27.2506067 83.5377828,25.8926067 C83.8447828,25.7256067 84.1527828,25.5606067 84.5007828,25.3956067 C84.6757828,25.3056067 84.8357828,25.2336067 84.9907828,25.1726067 C85.1287828,25.1076067 85.3687828,25.0206067 85.5507828,24.9776067 C86.3287828,24.7706067 87.0367828,24.7106067 87.7437828,24.6746067 C89.1557828,24.6006067 90.5367828,24.6386067 91.9137828,24.7016067 C94.6677828,24.8376067 97.3957828,25.0936067 100.118783,25.3866067 C105.563783,25.9826067 110.975783,26.7186067 116.386783,27.5676067 L115.694783,27.7276067 C120.366783,24.4336067 125.059783,21.1786067 129.788783,17.9696067 C134.548783,14.7996067 139.311783,11.6476067 144.243783,8.69860672 C145.485783,7.96960672 146.723783,7.24760672 148.059783,6.60160672 C148.395783,6.43860672 148.736783,6.28260672 149.124783,6.14360672 C149.313783,6.07960672 149.514783,6.00560672 149.870783,5.95660672 L150.005783,5.94860672 L150.020783,5.94660672 C150.188783,5.94360672 150.122783,5.95060672 150.185783,5.95260672 C150.249783,5.96360672 150.313783,5.97660672 150.373783,5.99560672 C150.466783,6.02860672 150.539783,6.06560672 150.612783,6.10860672 C150.839783,6.25760672 150.911783,6.36660672 151.008783,6.47460672 C151.565783,7.24560672 151.792783,7.87460672 152.103783,8.56060672 C153.222783,11.2556067 154.108783,13.9676067 155.003783,16.6896067 C156.782783,22.1306067 158.327783,27.6316067 159.893783,33.1226067 C159.978783,33.4196067 159.806783,33.7276067 159.512783,33.8096067 C159.220783,33.8926067 158.917783,33.7276067 158.827783,33.4416067" id="Fill-235" fill="#000000"></path>
            <path d="M21.4878828,88.0613067 C21.4878828,88.0613067 45.7888828,93.7313067 97.5648828,76.4413067 C149.342883,59.1523067 167.933883,46.2883067 167.933883,46.2883067 C167.933883,46.2883067 175.973883,61.2153067 174.418883,64.6003067 C172.864883,67.9863067 131.403883,91.9943067 102.659883,100.195307 C73.9168828,108.395307 28.2258828,113.165307 25.8598828,110.758307 C23.4938828,108.353307 20.3778828,90.0583067 21.4878828,88.0613067" id="Fill-237" fill="#BD6539"></path>
            <path d="M22.0484828,88.8874067 C22.0484828,88.8944067 22.0444828,88.9004067 22.0444828,88.9074067 C22.0174828,89.1244067 22.0194828,89.3794067 22.0154828,89.6204067 C22.0154828,90.1164067 22.0424828,90.6244067 22.0794828,91.1334067 C22.1574828,92.1574067 22.2804828,93.1864067 22.4234828,94.2124067 C22.7134828,96.2664067 23.0824828,98.3174067 23.5134828,100.353407 C23.9504828,102.383407 24.4244828,104.408407 25.0194828,106.370407 C25.3194828,107.346407 25.6524828,108.319407 26.0574828,109.177407 C26.1524828,109.366407 26.2844828,109.630407 26.3554828,109.721407 C26.3844828,109.779407 26.4254828,109.853407 26.5284828,109.965407 C26.6804828,110.143407 26.5234828,109.958407 26.5324828,109.986407 C26.6694828,110.056407 27.2244828,110.172407 27.6804828,110.210407 C29.6394828,110.391407 31.7464828,110.315407 33.8114828,110.226407 C35.8874828,110.126407 37.9694828,109.992407 40.0504828,109.823407 C44.2144828,109.482407 48.3754828,109.031407 52.5284828,108.518407 C56.6834828,107.996407 60.8294828,107.420407 64.9734828,106.821407 C69.1164828,106.217407 73.2434828,105.518407 77.3714828,104.819407 C81.4974828,104.107407 85.6114828,103.331407 89.7054828,102.465407 C93.7984828,101.597407 97.8764828,100.662407 101.906483,99.5504067 C105.923483,98.4384067 109.892483,97.1184067 113.814483,95.6694067 C117.730483,94.2024067 121.593483,92.5914067 125.427483,90.9084067 C133.087483,87.5304067 140.617483,83.8474067 148.011483,79.9124067 C151.704483,77.9414067 155.364483,75.9034067 158.976483,73.7954067 C162.582483,71.6834067 166.165483,69.5094067 169.580483,67.1624067 C170.431483,66.5754067 171.272483,65.9714067 172.054483,65.3444067 C172.257483,65.1904067 172.433483,65.0314067 172.616483,64.8714067 L172.892483,64.6344067 C172.950483,64.5734067 172.997483,64.5244067 173.056483,64.4714067 C173.113483,64.4044067 173.163483,64.4144067 173.241483,64.2874067 L173.353483,64.1264067 L173.407483,64.0454067 L173.436483,64.0054067 C173.513483,63.8664067 173.360483,64.1474067 173.376483,64.1114067 C173.382483,64.0564067 173.405483,64.0244067 173.419483,63.9564067 L173.452483,63.7194067 C173.499483,62.9604067 173.306483,61.9564067 173.048483,61.0114067 C172.788483,60.0504067 172.461483,59.0834067 172.104483,58.1244067 C170.653483,54.2874067 168.815483,50.5104067 166.882483,46.8534067 L168.612483,47.2694067 C167.907483,47.7434067 167.208483,48.1714067 166.513483,48.5874067 C165.813483,48.9994067 165.124483,49.4474067 164.413483,49.8344067 L160.161483,52.1924067 C157.279483,53.6564067 154.417483,55.1644067 151.499483,56.5454067 L142.711483,60.6094067 L133.806483,64.3844067 C130.853483,65.6874067 127.819483,66.7874067 124.820483,67.9824067 L115.803483,71.5024067 L97.6074828,77.9684067 L88.3824828,80.9324067 C85.2744828,81.8124067 82.1714828,82.7144067 79.0484828,83.5464067 L74.3414828,84.7144067 C72.7764828,85.1154067 71.2044828,85.4934067 69.6154828,85.8014067 L64.8644828,86.7834067 C63.2804828,87.1104067 61.6784828,87.3494067 60.0854828,87.6354067 C56.9054828,88.2314067 53.6874828,88.6164067 50.4804828,89.0504067 L45.6424828,89.5174067 C44.0284828,89.6464067 42.4074828,89.7264067 40.7924828,89.8304067 C39.1734828,89.9174067 37.5484828,89.9294067 35.9294828,89.9814067 C34.3064828,89.9724067 32.6844828,89.9664067 31.0604828,89.8834067 C28.0464828,89.7524067 25.0584828,89.4764067 22.0484828,88.8874067 L22.0484828,88.8874067 Z M21.6424828,87.3454067 C24.7114828,87.8474067 27.9294828,87.9724067 31.1034828,87.9534067 C32.6924828,87.9644067 34.2854828,87.8704067 35.8744828,87.8414067 C37.4664828,87.7404067 39.0584828,87.6804067 40.6464828,87.5464067 C42.2344828,87.3904067 43.8224828,87.2634067 45.4064828,87.0844067 L50.1534828,86.4774067 C53.3084828,85.9914067 56.4694828,85.5574067 59.6014828,84.9174067 C61.1674828,84.6064067 62.7414828,84.3434067 64.3014828,83.9954067 L68.9764828,82.9434067 C72.0974828,82.2614067 75.1814828,81.4054067 78.2834828,80.6464067 C81.3724828,79.8184067 84.4354828,78.8974067 87.5174828,78.0414067 L96.6804828,75.1834067 L114.902483,68.9334067 L123.890483,65.5414067 C126.884483,64.4044067 129.894483,63.3104067 132.834483,62.0314067 L141.700483,58.3154067 L150.437483,54.3224067 C153.333483,52.9634067 156.167483,51.4854067 159.023483,50.0464067 L163.214483,47.7474067 C163.916483,47.3684067 164.581483,46.9434067 165.265483,46.5394067 C165.951483,46.1374067 166.624483,45.7264067 167.254483,45.3074067 L167.284483,45.2854067 C167.826483,44.9254067 168.558483,45.0704067 168.920483,45.6144067 C168.943483,45.6484067 168.966483,45.6864067 168.985483,45.7224067 C170.956483,49.4954067 172.786483,53.2894067 174.292483,57.3134067 C174.663483,58.3244067 175.007483,59.3464067 175.291483,60.4164067 C175.563483,61.4924067 175.826483,62.5734067 175.752483,63.9164067 C175.732483,64.0924067 175.698483,64.2794067 175.667483,64.4564067 C175.626483,64.6454067 175.544483,64.8554067 175.472483,65.0494067 C175.480483,65.0474067 175.309483,65.3594067 175.366483,65.2454067 L175.339483,65.2834067 L175.282483,65.3664067 L175.170483,65.5274067 C175.108483,65.6254067 174.940483,65.7954067 174.823483,65.9204067 L174.433483,66.3174067 L174.109483,66.5894067 C173.893483,66.7724067 173.677483,66.9624067 173.460483,67.1214067 C172.595483,67.7954067 171.718483,68.4044067 170.833483,68.9964067 C167.296483,71.3594067 163.661483,73.4904067 159.997483,75.5714067 C156.329483,77.6424067 152.622483,79.6404067 148.882483,81.5704067 C141.403483,85.4344067 133.816483,89.0844067 126.079483,92.4084067 C122.212483,94.0744067 118.300483,95.6424067 114.352483,97.1124067 C110.410483,98.6034067 106.417483,99.9724067 102.351483,101.137407 C94.2484828,103.476407 86.0264828,105.338407 77.7614828,106.946407 C73.6304828,107.759407 69.4754828,108.440407 65.3184828,109.096407 C61.1594828,109.755407 56.9874828,110.321407 52.8044828,110.806407 C48.6234828,111.295407 44.4334828,111.726407 40.2264828,112.045407 C38.1204828,112.200407 36.0134828,112.340407 33.8954828,112.406407 C31.7674828,112.454407 29.6654828,112.509407 27.4434828,112.270407 C26.8624828,112.181407 26.3534828,112.164407 25.5404828,111.779407 C25.3184828,111.681407 24.9704828,111.310407 24.9664828,111.277407 C24.8934828,111.196407 24.7884828,111.050407 24.6834828,110.880407 C24.4574828,110.539407 24.3714828,110.323407 24.2314828,110.043407 C23.7584828,108.992407 23.4334828,107.965407 23.1324828,106.931407 C22.5464828,104.864407 22.0854828,102.791407 21.7124828,100.704407 C21.3344828,98.6204067 21.0204828,96.5274067 20.7864828,94.4174067 C20.6714828,93.3604067 20.5744828,92.3004067 20.5254828,91.2294067 C20.5014828,90.6914067 20.4874828,90.1504067 20.5034828,89.5954067 C20.5174828,89.3114067 20.5234828,89.0414067 20.5664828,88.7374067 C20.6034828,88.4454067 20.6424828,88.1314067 20.8484828,87.7034067 C20.9804828,87.4304067 21.2764828,87.2854067 21.5624828,87.3334067 L21.6424828,87.3454067 Z" id="Fill-239" fill="#000000"></path>
            <path d="M86.5542828,32.2634067 C86.5352828,32.2054067 86.4332828,32.2124067 86.4432828,32.2824067 C87.1962828,39.2494067 88.9022828,45.9524067 90.6162828,52.7374067 C92.6402828,60.7614067 94.1422828,68.9204067 96.3472828,76.8904067 C96.4312828,77.2024067 96.9372828,77.1274067 96.9132828,76.8014067 C96.4412828,69.7364067 94.7292828,62.8644067 93.1432828,55.9784067 C91.2982828,47.9624067 89.3972828,39.9924067 86.5542828,32.2634067" id="Fill-241" fill="#000000"></path>
            <path d="M102.751583,103.664807 C102.746583,103.649807 102.724583,103.660807 102.729583,103.673807 C103.886583,107.896807 105.432583,112.007807 106.433583,116.280807 C106.622583,117.092807 107.966583,116.691807 107.681583,115.909807 C106.165583,111.768807 104.108583,107.867807 102.751583,103.664807" id="Fill-243" fill="#000000"></path>
        </g>
    </g>
</svg>