<?xml version="1.0" encoding="UTF-8"?>
<svg width="109px" height="159px" viewBox="0 0 109 159" version="1.1" xmlns="http://www.w3.org/2000/svg" xmlns:xlink="http://www.w3.org/1999/xlink">
    <!-- Generator: Sketch 53.1 (72631) - https://sketchapp.com -->
    <title>Group 43barbeque</title>
    <desc>Created with Sketch.</desc>
    <g id="Page-1" stroke="none" stroke-width="1" fill="none" fill-rule="evenodd">
        <g id="Artboard" transform="translate(-1801.000000, -1484.000000)">
            <g id="Group-43" transform="translate(1801.000000, 1485.000000)">
                <polygon id="Fill-316" fill="#A3B6B6" points="31 108 79 108 79 103 31 103"></polygon>
                <polygon id="Fill-317" fill="#C5D5D4" points="91.2599596 150 62 70.0773735 67.7410508 68 97 147.922626"></polygon>
                <path d="M103,149.5 C103,154.194076 99.1948718,158 94.4994872,158 C89.8051282,158 86,154.194076 86,149.5 C86,144.805924 89.8051282,141 94.4994872,141 C99.1948718,141 103,144.805924 103,149.5" id="Fill-318" fill="#3C3C3B"></path>
                <path d="M94.5,144 C97.5331497,144 100,146.467661 100,149.500522 C100,152.532339 97.5331497,155 94.5,155 C91.4668503,155 89,152.532339 89,149.500522 C89,146.467661 91.4668503,144 94.5,144" id="Fill-319" fill="#575756"></path>
                <polygon id="Fill-320" fill="#C5D5D4" points="17.7400404 150 12 147.922626 41.2599596 68 47 70.0773735"></polygon>
                <path d="M22.1427991,53 L2.85720088,53 C1.27934368,53 0,51.6567164 0,50 C0,48.3432836 1.27934368,47 2.85720088,47 L22.1427991,47 C23.7206563,47 25,48.3432836 25,50 C25,51.6567164 23.7206563,53 22.1427991,53" id="Fill-321" fill="#3C3C3B"></path>
                <path d="M106.142799,53 L86.8572009,53 C85.2793437,53 84,51.6567164 84,50 C84,48.3432836 85.2793437,47 86.8572009,47 L106.142799,47 C107.720656,47 109,48.3432836 109,50 C109,51.6567164 107.720656,53 106.142799,53" id="Fill-322" fill="#3C3C3B"></path>
                <path d="M92.4735679,38 L16.5274348,38 C14.5792239,38 13,39.5671642 13,41.4995025 C13,43.4328358 14.5792239,45 16.5274348,45 L92.4735679,45 C94.4217787,45 96,43.4328358 96,41.4995025 C96,39.5671642 94.4217787,38 92.4735679,38" id="Fill-323" fill="#C2292E"></path>
                <path d="M17,45 C17,65.9856886 34.0125292,83 55.0005017,83 C75.9864674,83 93,65.9856886 93,45 L17,45 Z" id="Fill-324" fill="#ED1C24"></path>
                <path d="M23,149.5 C23,154.194076 19.1946422,158 14.5,158 C9.80535779,158 6,154.194076 6,149.5 C6,144.805924 9.80535779,141 14.5,141 C19.1946422,141 23,144.805924 23,149.5" id="Fill-325" fill="#3C3C3B"></path>
                <path d="M17.0184979,48.8905639 C16.821505,46.951114 18.220354,45.2183514 20.1435228,45.0206941 C22.0686813,44.8099934 23.783913,46.2327249 23.9799111,48.1721748 C25.5847074,64.0038254 38.705633,75.941526 54.5008875,75.941526 C56.4340054,75.941526 58,77.5217814 58,79.4712647 C58,81.4197446 56.4340054,83 54.5008875,83 C35.1030495,83 18.9884276,68.3362334 17.0184979,48.8905639 Z" id="Fill-326" fill="#F1868A"></path>
                <path d="M14.5,144 C17.5331497,144 20,146.467661 20,149.500522 C20,152.532339 17.5331497,155 14.5,155 C11.4668503,155 9,152.532339 9,149.500522 C9,146.467661 11.4668503,144 14.5,144" id="Fill-327" fill="#575756"></path>
                <polygon id="Fill-328" fill="#3C3C3B" points="18 35 91 35 91 33 18 33"></polygon>
                <polygon id="Fill-329" fill="#3C3C3B" points="22 38 24 38 24 36 22 36"></polygon>
                <polygon id="Fill-330" fill="#3C3C3B" points="85 38 87 38 87 36 85 36"></polygon>
                <path d="M38.5000282,33 C34.3501439,33 30.3519132,32.1083183 26.6168164,30.3509164 C25.2067395,29.6868981 24.6041426,28.0113753 25.2730252,26.6084494 C25.9409035,25.2075205 27.625162,24.6074077 29.0362432,25.271426 C32.0090548,26.6713564 35.1927753,27.3803082 38.5000282,27.3803082 C41.8072812,27.3803082 44.9910017,26.6713564 47.9638133,25.271426 C49.3738902,24.6064092 51.059153,25.2055235 51.7280356,26.6084494 C52.3949096,28.0113753 51.793317,29.6868981 50.3832401,30.3509164 C46.6481433,32.1083183 42.6499126,33 38.5000282,33" id="Fill-331" fill="#A87838"></path>
                <path d="M70.5004187,33 C66.350531,33 62.3522971,32.1083183 58.6171974,30.3509164 C57.2071194,29.6868981 56.604522,28.0113753 57.2724008,26.6084494 C57.9402796,25.2075205 59.6255437,24.6074077 61.0366261,25.271426 C64.00944,26.6713564 67.1931631,27.3803082 70.5004187,27.3803082 C73.8076742,27.3803082 76.9913973,26.6713564 79.9642113,25.271426 C81.3742892,24.6064092 83.0595534,25.2055235 83.7274322,26.6084494 C84.395311,28.0113753 83.7937179,29.6868981 82.3826356,30.3509164 C78.6485402,32.1083183 74.6503063,33 70.5004187,33" id="Fill-332" fill="#A87838"></path>
                <path d="M39,0 C40.6558442,0 42,1.18352716 42,2.64250438 C42,3.58892252 41.433919,4.42334449 40.5813598,4.88646381 C39.6428571,5.40003186 39,6.2394987 39,7.21416813 C39,8.18883756 39.6428571,9.02931337 40.5813598,9.54187244 C41.433919,10.0070097 42,10.8394137 42,11.7848229 C42,12.7352769 41.433919,13.565663 40.5813598,14.0328182 C39.6428571,14.5453773 39,15.3838352 39,16.3585046 L39,19" id="Stroke-333" stroke="#FFEFE2"></path>
                <path d="M70,0 C71.6558442,0 73,1.18352716 73,2.64250438 C73,3.58892252 72.4327731,4.42334449 71.5802139,4.88646381 C70.6428571,5.40003186 70,6.2394987 70,7.21416813 C70,8.18883756 70.6428571,9.02931337 71.5802139,9.54187244 C72.4327731,10.0070097 73,10.8394137 73,11.7848229 C73,12.7352769 72.4327731,13.565663 71.5802139,14.0328182 C70.6428571,14.5453773 70,15.3838352 70,16.3585046 L70,19" id="Stroke-334" stroke="#FFEFE2"></path>
            </g>
        </g>
    </g>
</svg>