<?xml version="1.0" encoding="UTF-8"?>
<svg width="196px" height="116px" viewBox="0 0 196 116" version="1.1" xmlns="http://www.w3.org/2000/svg" xmlns:xlink="http://www.w3.org/1999/xlink">
    <!-- Generator: Sketch 53.1 (72631) - https://sketchapp.com -->
    <title>Group 41benchrest</title>
    <desc>Created with Sketch.</desc>
    <g id="Page-1" stroke="none" stroke-width="1" fill="none" fill-rule="evenodd">
        <g id="Artboard" transform="translate(-2556.000000, -1497.000000)">
            <g id="Group-41" transform="translate(2556.000000, 1497.000000)">
                <polygon id="Fill-213" fill="#A87838" points="8 9 187 9 187 0 8 0"></polygon>
                <polygon id="Fill-214" fill="#A87838" points="8 45 187 45 187 36 8 36"></polygon>
                <polygon id="Fill-215" fill="#A87838" points="8 27 187 27 187 18 8 18"></polygon>
                <polygon id="Fill-216" fill="#946930" points="8 15 187 15 187 9 8 9"></polygon>
                <polygon id="Fill-217" fill="#8A612D" points="8 18 187 18 187 15 8 15"></polygon>
                <polygon id="Fill-218" fill="#8A612D" points="8 36 187 36 187 33 8 33"></polygon>
                <polygon id="Fill-219" fill="#946930" points="8 33 187 33 187 27 8 27"></polygon>
                <polygon id="Fill-220" fill="#946930" points="193.075163 65 191.830935 73.5455288 0 73.5455288 0 77 196 77 196 65"></polygon>
                <polygon id="Fill-221" fill="#A87838" points="193 64 0 64 0 73 191.756255 73"></polygon>
                <polygon id="Fill-222" fill="#C5D5D4" points="165 45 165 65 172.254824 65 173 45"></polygon>
                <polygon id="Fill-223" fill="#A3B6B6" points="176 45 172.783875 45 172 65 176 65"></polygon>
                <polygon id="Fill-224" fill="#C5D5D4" points="19 45 19 65 26.238829 65 27 45"></polygon>
                <polygon id="Fill-225" fill="#A3B6B6" points="29 45 26.6662676 45 26 65 29 65"></polygon>
                <polygon id="Fill-226" fill="#A3B6B6" points="29 61 19 63.4001917 19 65 29 65"></polygon>
                <polygon id="Fill-227" fill="#A3B6B6" points="176 61 166 63.4001917 166 65 176 65"></polygon>
                <polygon id="Fill-228" fill="#C5D5D4" points="6 79 6 116 15 116 15 79.824163"></polygon>
                <polygon id="Fill-229" fill="#A3B6B6" points="19 77 6 77 6 79.4503916 15.2861432 80.2645443 15.2861432 116 19 116"></polygon>
                <polygon id="Fill-230" fill="#C5D5D4" points="165 79 165 116 174 116 174 79.824163"></polygon>
                <polygon id="Fill-231" fill="#A3B6B6" points="177 77 164 77 164 79.4503916 173.285857 80.2645443 173.285857 116 177 116"></polygon>
            </g>
        </g>
    </g>
</svg>