<?xml version="1.0" encoding="UTF-8"?>
<svg width="409px" height="91px" viewBox="0 0 409 91" version="1.1" xmlns="http://www.w3.org/2000/svg" xmlns:xlink="http://www.w3.org/1999/xlink">
    <!-- Generator: Sketch 53.1 (72631) - https://sketchapp.com -->
    <title>Group 35bench</title>
    <desc>Created with Sketch.</desc>
    <g id="Page-1" stroke="none" stroke-width="1" fill="none" fill-rule="evenodd">
        <g id="Artboard" transform="translate(-403.000000, -1637.000000)">
            <g id="Group-35" transform="translate(403.000000, 1637.000000)">
                <polygon id="Fill-353" fill="#A87838" points="368 91 383 91 383 13 368 13"></polygon>
                <polygon id="Fill-354" fill="#A87838" points="0 13 409 13 409 0 0 0"></polygon>
                <polygon id="Fill-355" fill="#A87838" points="28 91 43 91 43 13 28 13"></polygon>
                <polygon id="Fill-356" fill="#FFF8DC" points="18 0 72 54 126 0"></polygon>
                <polygon id="Fill-357" fill="#ED1C24" points="121 4 125 0 117 0"></polygon>
                <polygon id="Fill-358" fill="#ED1C24" points="101 0 113.749488 12 118 7.99935702 109.5 0"></polygon>
                <polygon id="Fill-359" fill="#ED1C24" points="84 0 104.833668 21 109 16.8012153 92.3326636 0"></polygon>
                <polygon id="Fill-360" fill="#ED1C24" points="68 0 96.8745027 29 101 24.8574283 76.2509946 0"></polygon>
                <polygon id="Fill-361" fill="#ED1C24" points="51 0 87.9002966 37 92 32.8892193 59.1994068 0"></polygon>
                <polygon id="Fill-362" fill="#ED1C24" points="34 0 79.8337519 46 84 41.8175402 42.3335008 0"></polygon>
                <polygon id="Fill-363" fill="#ED1C24" points="18 0 71.8574996 54 76 49.8474636 26.2859997 0"></polygon>
                <polygon id="Fill-364" fill="#ED1C24" points="68 49.8474636 72.1425004 54 126 0 117.714999 0"></polygon>
                <polygon id="Fill-365" fill="#ED1C24" points="100.666667 0 59 41.8175402 63.167169 46 109 0"></polygon>
                <polygon id="Fill-366" fill="#ED1C24" points="83.8005932 0 51 32.8892193 55.0997034 37 92 0"></polygon>
                <polygon id="Fill-367" fill="#ED1C24" points="67.7490054 0 43 24.8574283 47.1254973 29 76 0"></polygon>
                <polygon id="Fill-368" fill="#ED1C24" points="50.6673364 0 34 16.8012153 38.1663318 21 59 0"></polygon>
                <polygon id="Fill-369" fill="#ED1C24" points="34.5 0 26 7.99935702 30.2505124 12 43 0"></polygon>
                <polygon id="Fill-370" fill="#ED1C24" points="18 0 22.0004822 4 26 0"></polygon>
                <polygon id="Fill-371" fill="#A87838" points="102 44 146.687873 89 157 89 112.312127 44"></polygon>
                <polygon id="Fill-372" fill="#A87838" points="101 89 111.312127 89 156 44 145.687873 44"></polygon>
                <polygon id="Fill-373" fill="#A87838" points="262 44 306.687873 89 317 89 272.312127 44"></polygon>
                <polygon id="Fill-374" fill="#A87838" points="260 89 270.312127 89 315 44 304.687873 44"></polygon>
                <polygon id="Fill-375" fill="#A87838" points="100 47 319 47 319 40 100 40"></polygon>
            </g>
        </g>
    </g>
</svg>