<?xml version="1.0" encoding="UTF-8"?>
<svg width="445px" height="346px" viewBox="0 0 445 346" version="1.1" xmlns="http://www.w3.org/2000/svg" xmlns:xlink="http://www.w3.org/1999/xlink">
    <!-- Generator: Sketch 53.1 (72631) - https://sketchapp.com -->
    <title>Group 44gym</title>
    <desc>Created with Sketch.</desc>
    <g id="Page-1" stroke="none" stroke-width="1" fill="none" fill-rule="evenodd">
        <g id="Artboard" transform="translate(-873.000000, -1538.000000)">
            <g id="Group-44" transform="translate(873.000000, 1538.000000)">
                <g id="Group-36">
                    <path d="M445,340 L445,327.978496 C445,326.885453 444.103706,326 443.000497,326 C441.8953,326 441,326.885453 441,327.978496 L441,340 L445,340 Z" id="Fill-1" fill="#F8B033"></path>
                    <path d="M441,340 L441,320.251044 C441,318.456135 439.432947,317 437.501067,317 C435.567053,317 434,318.456135 434,320.251044 L434,340 L441,340 Z" id="Fill-3" fill="#F8B033"></path>
                    <path d="M436,339 L436,309.805828 C436,307.151274 433.76009,305 430.998459,305 C428.238883,305 426,307.151274 426,309.805828 L426,339 L436,339 Z" id="Fill-5" fill="#F8B033"></path>
                    <path d="M324,340 L324,327.978496 C324,326.885453 324.896294,326 325.999503,326 C327.1047,326 328,326.885453 328,327.978496 L328,340 L324,340 Z" id="Fill-7" fill="#F8B033"></path>
                    <path d="M327,340 L327,320.251044 C327,318.456135 328.567053,317 330.498933,317 C332.432947,317 334,318.456135 334,320.251044 L334,340 L327,340 Z" id="Fill-9" fill="#F8B033"></path>
                    <path d="M333,339 L333,309.805828 C333,307.151274 335.23991,305 338.001541,305 C340.762144,305 343,307.151274 343,309.805828 L343,339 L333,339 Z" id="Fill-11" fill="#F8B033"></path>
                    <polygon id="Fill-13" fill="#BF2412" points="334 183 433 183 433 171 334 171"></polygon>
                    <polygon id="Fill-15" fill="#FF5622" points="14 183 210 183 210 171 14 171"></polygon>
                    <polygon id="Fill-16" fill="#F75338" points="13 119 113 119 113 106 13 106"></polygon>
                    <polygon id="Fill-17" fill="#7DA81E" points="210 167 335 167 335 107 210 107"></polygon>
                    <path d="M419.660892,108 C415.657419,115.970754 401.265286,121.873719 384.121951,121.873719 C366.978616,121.873719 352.586484,115.970754 348.584009,108 L337,108 L337,171 L429,171 L429,108 L419.660892,108 Z" id="Fill-18" fill="#F19400"></path>
                    <polygon id="Fill-19" fill="#B55F3E" points="429 169 429 108 422.3346 108 391 169"></polygon>
                    <polygon id="Fill-20" fill="#288941" points="332.516882 107 324.769272 107 318.84822 148.390951 192 148.390951 192 167 335 167"></polygon>
                    <path d="M330,89 C330,89 337.54506,101.114036 345,124.278451 C351.751001,145.255288 354,171 354,171 L330,171 L330,89 Z" id="Fill-21" fill="#F8B033"></path>
                    <path d="M438,89 C438,89 430.453252,101.114036 422.999625,124.278451 C416.249906,145.255288 414,171 414,171 L438,171 L438,89 Z" id="Fill-22" fill="#F8B033"></path>
                    <path d="M192.372281,108 C188.672128,115.970754 175.375666,121.873719 159.53678,121.873719 C143.696898,121.873719 130.400436,115.970754 126.701278,108 L116,108 L116,171 L201,171 L201,108 L192.372281,108 Z" id="Fill-23" fill="#F19400"></path>
                    <polygon id="Fill-24" fill="#B55F3E" points="201 171 201 108 194.334426 108 163 171"></polygon>
                    <path d="M109,89 C109,89 116.544374,101.114036 123.999624,124.278451 C130.750907,145.255288 133,171 133,171 L109,171 L109,89 Z" id="Fill-25" fill="#F8B033"></path>
                    <path d="M211,89 C211,89 203.45494,101.114036 196.001001,124.278451 C189.25,145.255288 187,171 187,171 L211,171 L211,89 Z" id="Fill-26" fill="#F8B033"></path>
                    <polygon id="Fill-27" fill="#F8B033" points="330 260 341 260 341 55 330 55"></polygon>
                    <path d="M339,260 L339,247.065475 C339,244.820583 337.207014,243 334.999515,243 C332.790074,243 331,244.820583 331,247.065475 L331,260 L339,260 Z" id="Fill-28" fill="#F19400"></path>
                    <path d="M337,249 C337,250.104584 336.104783,251 334.999555,251 C333.895217,251 333,250.104584 333,249 C333,247.895416 333.895217,247 334.999555,247 C336.104783,247 337,247.895416 337,249" id="Fill-29" fill="#E45312"></path>
                    <polygon id="Fill-30" fill="#F1B333" points="330 93 341 93 341 84 330 84"></polygon>
                    <polygon id="Fill-31" fill="#F8B033" points="427 260 438 260 438 55 427 55"></polygon>
                    <path d="M437,260 L437,247.065475 C437,244.820583 435.20852,243 432.999515,243 C430.79148,243 429,244.820583 429,247.065475 L429,260 L437,260 Z" id="Fill-32" fill="#F19400"></path>
                    <path d="M435,249 C435,250.104584 434.105474,251 433,251 C431.895416,251 431,250.104584 431,249 C431,247.895416 431.895416,247 433,247 C434.105474,247 435,247.895416 435,249" id="Fill-33" fill="#E45312"></path>
                    <polygon id="Fill-34" fill="#F1B333" points="427 93 438 93 438 84 427 84"></polygon>
                    <polygon id="Fill-35" fill="#ED1C24" points="327 87 442 87 442 14 327 14"></polygon>
                    <polygon id="Fill-36" fill="#BF2412" points="353 87 356 87 356 14 353 14"></polygon>
                    <polygon id="Fill-37" fill="#BF2412" points="413 87 416 87 416 14 413 14"></polygon>
                    <polygon id="Fill-38" fill="#BF2412" points="383 87 386 87 386 14 383 14"></polygon>
                    <polygon id="Fill-39" fill="#C5D5D4" points="423 319 347 319 352.461222 169 417.482518 169"></polygon>
                    <polygon id="Fill-40" fill="#B55F3E" points="412 169 418.132838 318.226626 418.132838 339 423.241508 339 424 314.238482 416.911949 169"></polygon>
                    <polygon id="Fill-41" fill="#A3B6B6" points="423.254902 340 348 340 348 318 424 318"></polygon>
                    <path d="M442,11 L442,4.47125182 C442,2.00245633 440.001373,0 437.535067,0 L331.463933,0 C328.998627,0 327,2.00245633 327,4.47125182 L327,11 L442,11 Z" id="Fill-42" fill="#F8B033"></path>
                    <path d="M445,13.5 C445,14.8810044 443.770116,16 442.251023,16 L326.750978,16 C325.230885,16 324,14.8810044 324,13.5 C324,12.1189956 325.230885,11 326.750978,11 L442.251023,11 C443.770116,11 445,12.1189956 445,13.5" id="Fill-43" fill="#FFFFFF"></path>
                    <path d="M233.5,171 C232.118086,171 231,169.777865 231,168.270797 L231,106.72821 C231,105.220149 232.118086,104 233.5,104 C234.880095,104 236,105.220149 236,106.72821 L236,168.270797 C236,169.777865 234.880095,171 233.5,171" id="Fill-44" fill="#006838"></path>
                    <path d="M259.50091,171 C258.118493,171 257,169.777865 257,168.270797 L257,106.72821 C257,105.220149 258.118493,104 259.50091,104 C260.882417,104 262,105.220149 262,106.72821 L262,168.270797 C262,169.777865 260.882417,171 259.50091,171" id="Fill-45" fill="#006838"></path>
                    <path d="M284.49909,171 C283.118996,171 282,169.777865 282,168.270797 L282,106.72821 C282,105.220149 283.118996,104 284.49909,104 C285.880095,104 287,105.220149 287,106.72821 L287,168.270797 C287,169.777865 285.880095,171 284.49909,171" id="Fill-46" fill="#006838"></path>
                    <path d="M309.499545,171 C308.118289,171 307,169.777865 307,168.270797 L307,106.72821 C307,105.220149 308.118289,104 309.499545,104 C310.880801,104 312,105.220149 312,106.72821 L312,168.270797 C312,169.777865 310.880801,171 309.499545,171" id="Fill-47" fill="#006838"></path>
                    <polygon id="Fill-48" fill="#F8B033" points="105 260 116 260 116 55 105 55"></polygon>
                    <path d="M115,260 L115,247.065475 C115,244.820583 113.209491,243 110.999515,243 C108.790509,243 107,244.820583 107,247.065475 L107,260 L115,260 Z" id="Fill-49" fill="#F19400"></path>
                    <path d="M113,249 C113,250.104584 112.103694,251 111,251 C109.896306,251 109,250.104584 109,249 C109,247.895416 109.896306,247 111,247 C112.103694,247 113,247.895416 113,249" id="Fill-50" fill="#E45312"></path>
                    <polygon id="Fill-51" fill="#F1B333" points="105 93 116 93 116 84 105 84"></polygon>
                    <polygon id="Fill-52" fill="#F8B033" points="203 260 214 260 214 55 203 55"></polygon>
                    <path d="M212,260 L212,247.065475 C212,244.820583 210.209709,243 208,243 C205.791262,243 204,244.820583 204,247.065475 L204,260 L212,260 Z" id="Fill-53" fill="#F19400"></path>
                    <path d="M210,249 C210,250.104584 209.106857,251 208.00089,251 C206.895815,251 206,250.104584 206,249 C206,247.895416 206.895815,247 208.00089,247 C209.106857,247 210,247.895416 210,249" id="Fill-54" fill="#E45312"></path>
                    <polygon id="Fill-55" fill="#F1B333" points="203 93 214 93 214 84 203 84"></polygon>
                    <polygon id="Fill-56" fill="#F8B033" points="7 260 18 260 18 55 7 55"></polygon>
                    <path d="M17,260 L17,247.065475 C17,244.820583 15.2094914,243 12.9995145,243 C10.7905086,243 9,244.820583 9,247.065475 L9,260 L17,260 Z" id="Fill-57" fill="#F19400"></path>
                    <path d="M15,249 C15,250.104584 14.1045839,251 13.0008901,251 C11.8963062,251 11,250.104584 11,249 C11,247.895416 11.8963062,247 13.0008901,247 C14.1045839,247 15,247.895416 15,249" id="Fill-58" fill="#E45312"></path>
                    <polygon id="Fill-59" fill="#F1B333" points="7 93 18 93 18 84 7 84"></polygon>
                    <polygon id="Fill-60" fill="#ED1C24" points="3 87 219 87 219 14 3 14"></polygon>
                    <polygon id="Fill-61" fill="#BF2412" points="28 87 31 87 31 16 28 16"></polygon>
                    <polygon id="Fill-62" fill="#BF2412" points="55 87 58 87 58 16 55 16"></polygon>
                    <polygon id="Fill-63" fill="#BF2412" points="82 87 85 87 85 16 82 16"></polygon>
                    <polygon id="Fill-64" fill="#BF2412" points="110 87 113 87 113 16 110 16"></polygon>
                    <polygon id="Fill-65" fill="#BF2412" points="137 87 140 87 140 16 137 16"></polygon>
                    <polygon id="Fill-66" fill="#BF2412" points="164 87 167 87 167 16 164 16"></polygon>
                    <polygon id="Fill-67" fill="#BF2412" points="191 87 194 87 194 16 191 16"></polygon>
                    <path d="M219,11 L219,4.47125182 C219,2.00245633 217.001814,0 214.53382,0 L7.46518085,0 C4.99718633,0 3,2.00245633 3,4.47125182 L3,11 L219,11 Z" id="Fill-68" fill="#F8B033"></path>
                    <path d="M222,13.5 C222,14.8810044 220.767573,16 219.250046,16 L2.74895347,16 C1.22842608,16 0,14.8810044 0,13.5 C0,12.1189956 1.22842608,11 2.74895347,11 L219.250046,11 C220.767573,11 222,12.1189956 222,13.5" id="Fill-69" fill="#FFFFFF"></path>
                    <path d="M39,172.89458 C39,177.923319 34.9697518,182 29.9995068,182 C25.0302482,182 21,177.923319 21,172.89458 L21,117.104422 C21,112.075683 25.0302482,108 29.9995068,108 C34.9697518,108 39,112.075683 39,117.104422 L39,172.89458 Z" id="Fill-70" fill="#F8B033"></path>
                    <path d="M33,114.500505 C33,115.881592 31.8823767,117 30.4989895,117 C29.1176233,117 28,115.881592 28,114.500505 C28,113.119418 29.1176233,112 30.4989895,112 C31.8823767,112 33,113.119418 33,114.500505" id="Fill-71" fill="#C5D5D4"></path>
                    <path d="M33,175.500505 C33,176.881592 31.8823767,178 30.4989895,178 C29.1176233,178 28,176.881592 28,175.500505 C28,174.119418 29.1176233,173 30.4989895,173 C31.8823767,173 33,174.119418 33,175.500505" id="Fill-72" fill="#C5D5D4"></path>
                    <path d="M60,172.89458 C60,177.923319 55.9697518,182 50.9995068,182 C46.0302482,182 42,177.923319 42,172.89458 L42,117.104422 C42,112.075683 46.0302482,108 50.9995068,108 C55.9697518,108 60,112.075683 60,117.104422 L60,172.89458 Z" id="Fill-73" fill="#F8B033"></path>
                    <path d="M53,114.500505 C53,115.881592 51.8823767,117 50.4989895,117 C49.1176233,117 48,115.881592 48,114.500505 C48,113.119418 49.1176233,112 50.4989895,112 C51.8823767,112 53,113.119418 53,114.500505" id="Fill-74" fill="#C5D5D4"></path>
                    <path d="M53,175.500505 C53,176.881592 51.8823767,178 50.4989895,178 C49.1176233,178 48,176.881592 48,175.500505 C48,174.119418 49.1176233,173 50.4989895,173 C51.8823767,173 53,174.119418 53,175.500505" id="Fill-75" fill="#C5D5D4"></path>
                    <path d="M80,172.89458 C80,177.923319 75.9697518,182 70.9995068,182 C66.0302482,182 62,177.923319 62,172.89458 L62,117.104422 C62,112.075683 66.0302482,108 70.9995068,108 C75.9697518,108 80,112.075683 80,117.104422 L80,172.89458 Z" id="Fill-76" fill="#F8B033"></path>
                    <path d="M74,114.500505 C74,115.881592 72.8823767,117 71.4989895,117 C70.1176233,117 69,115.881592 69,114.500505 C69,113.119418 70.1176233,112 71.4989895,112 C72.8823767,112 74,113.119418 74,114.500505" id="Fill-77" fill="#C5D5D4"></path>
                    <path d="M74,175.500505 C74,176.881592 72.8823767,178 71.4989895,178 C70.1176233,178 69,176.881592 69,175.500505 C69,174.119418 70.1176233,173 71.4989895,173 C72.8823767,173 74,174.119418 74,175.500505" id="Fill-78" fill="#C5D5D4"></path>
                    <path d="M101,172.89458 C101,177.923319 96.9697518,182 91.9995068,182 C87.0302482,182 83,177.923319 83,172.89458 L83,117.104422 C83,112.075683 87.0302482,108 91.9995068,108 C96.9697518,108 101,112.075683 101,117.104422 L101,172.89458 Z" id="Fill-79" fill="#F8B033"></path>
                    <path d="M94,114.500505 C94,115.881592 92.8823767,117 91.4989895,117 C90.1176233,117 89,115.881592 89,114.500505 C89,113.119418 90.1176233,112 91.4989895,112 C92.8823767,112 94,113.119418 94,114.500505" id="Fill-80" fill="#C5D5D4"></path>
                    <path d="M94,175.500505 C94,176.881592 92.8823767,178 91.4989895,178 C90.1176233,178 89,176.881592 89,175.500505 C89,174.119418 90.1176233,173 91.4989895,173 C92.8823767,173 94,174.119418 94,175.500505" id="Fill-81" fill="#C5D5D4"></path>
                    <polygon id="Fill-82" fill="#FF5622" points="119 209 201 209 201 203 119 203"></polygon>
                    <polygon id="Fill-83" fill="#FF5622" points="112 233 210 233 210 227 112 227"></polygon>
                    <polygon id="Fill-84" fill="#FF5622" points="106 258 212 258 212 252 106 252"></polygon>
                    <polygon id="Fill-85" fill="#FF5622" points="101 283 225 283 225 277 101 277"></polygon>
                    <polygon id="Fill-86" fill="#F8B033" points="116 202 122 202 122 105 116 105"></polygon>
                    <polygon id="Fill-87" fill="#F8B033" points="197 202 203 202 203 105 197 105"></polygon>
                    <path d="M96.1224151,221.91007 C93.9910917,221.4446 92.6315731,219.300223 93.0883556,217.123676 L111.191314,131.188758 C111.647113,129.0102 113.74398,127.623845 115.877273,128.09032 C118.007612,128.556795 119.36713,130.69715 118.912317,132.875708 L100.809358,218.810626 C100.354544,220.988179 98.2547229,222.375539 96.1224151,221.91007" id="Fill-88" fill="#F75338"></path>
                    <path d="M97.1766747,292.899674 C94.9788704,292.411023 93.6042252,290.265944 94.1017837,288.112886 L113.94002,203.114484 C114.440631,200.958434 116.625208,199.61215 118.823012,200.099804 C121.020816,200.591447 122.396479,202.732538 121.897903,204.88759 L102.060684,289.88699 C101.562108,292.03905 99.3734615,293.389323 97.1766747,292.899674" id="Fill-89" fill="#BC4D2A"></path>
                    <polygon id="Fill-90" fill="#F8B033" points="91 298 102 298 102 211 91 211"></polygon>
                    <path d="M101,298 L101,285.064724 C101,282.820688 99.2087379,281 96.9990291,281 C94.7912621,281 93,282.820688 93,285.064724 L93,298 L101,298 Z" id="Fill-91" fill="#F19400"></path>
                    <path d="M99,286 C99,287.104093 98.1047831,288 96.9986652,288 C95.894327,288 95,287.104093 95,286 C95,284.895907 95.894327,284 96.9986652,284 C98.1047831,284 99,284.895907 99,286" id="Fill-92" fill="#E45312"></path>
                    <polygon id="Fill-93" fill="#F1B333" points="91 224 102 224 102 215 91 215"></polygon>
                    <path d="M108,218.499499 C108,224.298507 103.300734,229 97.5,229 C91.700267,229 87,224.298507 87,218.499499 C87,212.700491 91.700267,208 97.5,208 C103.300734,208 108,212.700491 108,218.499499" id="Fill-94" fill="#F75338"></path>
                    <path d="M222.939102,292.89149 C225.074988,292.382957 226.397155,290.22294 225.89267,288.069916 L205.844087,203.084938 C205.338611,200.929916 203.197769,199.599138 201.062875,200.10867 C198.925007,200.617203 197.602839,202.774223 198.107324,204.929244 L218.153925,289.915222 C218.659401,292.067246 220.803216,293.401022 222.939102,292.89149" id="Fill-95" fill="#BC4D2A"></path>
                    <polygon id="Fill-96" fill="#F8B033" points="218 298 229 298 229 211 218 211"></polygon>
                    <path d="M219,298 L219,285.064724 C219,282.820688 220.792233,281 223.000971,281 C225.208738,281 227,282.820688 227,285.064724 L227,298 L219,298 Z" id="Fill-97" fill="#F19400"></path>
                    <path d="M221,286 C221,287.104093 221.895416,288 223,288 C224.104584,288 225,287.104093 225,286 C225,284.895907 224.104584,284 223,284 C221.895416,284 221,284.895907 221,286" id="Fill-98" fill="#E45312"></path>
                    <polygon id="Fill-99" fill="#F1B333" points="218 224 229 224 229 215 218 215"></polygon>
                    <path d="M223.859931,221.897077 C226.037329,221.402159 227.397447,219.251861 226.895979,217.099567 L206.990644,132.104411 C206.488168,129.950121 204.316823,128.607058 202.140434,129.102973 C199.962027,129.599887 198.60191,131.746194 199.104386,133.901481 L219.007703,218.89564 C219.509171,221.048932 221.683542,222.392993 223.859931,221.897077" id="Fill-100" fill="#F75338"></path>
                    <path d="M212,218.499499 C212,224.298507 216.69949,229 222.500501,229 C228.30051,229 233,224.298507 233,218.499499 C233,212.700491 228.30051,208 222.500501,208 C216.69949,208 212,212.700491 212,218.499499" id="Fill-101" fill="#F75338"></path>
                    <polygon id="Fill-102" fill="#5D5D5D" points="348 343 423 343 423 339 348 339"></polygon>
                    <path d="M426.988742,319.611385 C426.989766,319.552245 427.001023,319.49511 426.997953,319.434967 L419.621959,166.62438 C419.549294,165.103772 418.231093,163.930989 416.677498,164.00316 C415.126973,164.074329 413.929538,165.36439 414.003227,166.884998 L421.37922,319.696588 C421.37922,319.696588 421.380244,319.698592 421.380244,319.699595 C421.380244,319.706611 421.377174,319.71463 421.377174,319.722649 L421.377174,343.245464 C421.377174,344.766072 422.634992,346 424.18654,346 C425.741158,346 427,344.766072 427,343.245464 L427,319.722649 C427,319.684559 426.989766,319.648473 426.988742,319.611385" id="Fill-103" fill="#F75338"></path>
                    <path d="M353.321624,164.003078 C351.768161,163.931909 350.453142,165.10369 350.37946,166.624298 L343.002047,319.434955 C343,319.493093 343.010234,319.548224 343.011257,319.605359 C343.00921,319.645454 343,319.682542 343,319.722638 L343,343.245463 C343,344.767074 344.258735,346 345.812197,346 C347.36566,346 348.624395,344.767074 348.624395,343.245463 L348.624395,319.722638 C348.624395,319.713616 348.621325,319.705597 348.621325,319.696576 L355.996691,166.884917 C356.071397,165.364308 354.872017,164.074246 353.321624,164.003078" id="Fill-104" fill="#F75338"></path>
                </g>
            </g>
        </g>
    </g>
</svg>