<?xml version="1.0" encoding="UTF-8"?>
<svg width="282px" height="65px" viewBox="0 0 282 65" version="1.1" xmlns="http://www.w3.org/2000/svg" xmlns:xlink="http://www.w3.org/1999/xlink">
    <!-- Generator: Sketch 53.1 (72631) - https://sketchapp.com -->
    <title>Group 39sandground</title>
    <desc>Created with Sketch.</desc>
    <g id="Page-1" stroke="none" stroke-width="1" fill="none" fill-rule="evenodd">
        <g id="Artboard" transform="translate(-1978.000000, -1554.000000)">
            <g id="Group-39" transform="translate(1978.000000, 1554.000000)">
                <polygon id="Fill-105" fill="#A87838" points="0 65 282 65 282 41 0 41"></polygon>
                <polygon id="Fill-106" fill="#D8B28D" points="245.880234 0 36.1207676 0 0 41 282 41"></polygon>
                <polygon id="Fill-107" fill="#7C4C20" points="244.606928 2 37.6689464 2 7 38 276 38"></polygon>
                <polygon id="Fill-108" fill="#533311" points="38 2 37.9647063 2 7 38 38 38"></polygon>
                <polygon id="Fill-109" fill="#533311" points="245 3 245 39 276 39"></polygon>
                <path d="M262.021496,35.0461638 C258.148438,31.1629674 256.851088,26.0450678 253.405816,21.9429876 C252.426307,20.7799191 251.285879,19.7133583 249.951548,18.8288691 C248.230411,17.6866939 246.329364,16.7524584 244.563249,15.6640093 C235.700693,17.2131091 228.153477,15.6510752 219.141995,15.5565573 C207.540811,15.4341813 195.949623,15.9694516 184.352437,16.0331268 C174.404425,16.0858579 163.733775,18.1911215 154.227541,15.0232769 C149.567878,13.4682075 143.992673,10.1172965 138.708322,11.2176847 C134.854255,12.02059 131.184095,14.2263411 127.069158,13.878117 C121.319041,13.3955779 116.041687,13.0612827 110.289571,13.9099546 C105.224111,14.658139 100.251604,15.7774308 95.1791468,16.4848233 C84.8403304,17.9165219 75.8948155,16.232112 65.8438548,14.2691229 C57.9228262,12.7200231 48.6234887,12.1300319 41.9158517,16.6529658 C40.1507367,17.8409075 38.2946673,19.1860475 36.8703814,20.6754518 C33.6410005,24.0562106 28.9713418,26.1684386 25.7319659,29.5024358 C23.2092308,32.0991928 20.9683543,35.6043174 21,39 L267,39 C265.180912,37.8389213 263.500754,36.5305935 262.021496,35.0461638" id="Fill-110" fill="#F8B033"></path>
                <path d="M52.8410571,16.0000591 C48.8668814,16.073373 46.04594,17.7881044 42.9163149,19.6097519 C41.1171879,20.6565119 38.8310945,20.988461 36.7813531,21.5057315 C35.0229764,21.9507064 34.1213755,22.5698018 33.0302854,23.8161386 C32.9202596,23.9434197 33.1362363,24.0656096 33.259506,23.9597117 C34.8620127,22.5698018 36.402375,22.1574109 38.5896489,21.7307646 C40.0688857,21.4405636 41.5939667,21.0811217 42.907146,20.4243511 C44.2559819,19.7482337 45.5681424,18.8959593 46.850759,18.1139441 C48.5897792,17.0580198 50.8086345,16.5712968 52.8828262,16.2322199 C53.0672214,16.2037089 53.0193398,15.9959861 52.8410571,16.0000591" id="Fill-111" fill="#C25317"></path>
                <path d="M82.9481956,30.8844927 C80.2214735,30.8525967 77.6449014,30.6323148 74.9462074,30.2824554 C71.8351016,29.8767779 68.9081798,28.9916633 65.879156,28.3318144 C63.7850655,27.8723124 61.4016862,27.9600265 59.2745628,28.1763214 C57.9922827,28.3068957 56.7510436,28.6089111 55.5188135,28.9338518 C54.0293266,29.3295618 52.5638637,29.9904074 51.0423448,30.2874391 C50.9752778,30.2994001 50.9922948,30.3811337 51.0623647,30.3761499 C53.6459439,30.0532027 56.1204141,29.1401792 58.7340232,28.8122482 C61.664949,28.4434505 64.5688479,28.6527681 67.3946689,29.3455098 C72.4577232,30.5814805 77.6759324,31.1157388 82.9481956,30.979184 C83.0182655,30.979184 83.0162635,30.8844927 82.9481956,30.8844927" id="Fill-112" fill="#C25317"></path>
                <path d="M174.887272,25.3587732 C171.177551,23.7140647 167.57385,22.0471168 164.005156,20.1810246 C160.458467,18.3250413 157.169827,16.1223248 153.73516,14.1288612 C150.832595,12.4427065 148.073059,11.1437204 144.729409,10.1368797 C143.462163,9.75476553 141.684817,10.2723382 140.422572,10.4795695 C138.583214,10.7878891 136.758859,11.3438754 135.042526,11.9776998 C131.595856,13.2534356 128.32822,14.7111305 125.078589,16.295186 C121.68993,17.9469707 118.460302,19.8696723 115.138656,21.617491 C111.501949,23.53716 107.171107,25.2900331 103.026301,26.2625037 C100.976903,26.7426736 98.7824764,26.9296872 96.6690656,27.1247879 C94.5696574,27.3208994 92.2772117,27.7859061 90.1868053,27.393683 C89.9927676,27.359313 89.9257546,27.6150667 90.102789,27.6757197 C91.4330476,28.1275849 92.7813097,28.0032462 94.1785814,27.9132775 C96.3139965,27.7687211 98.4554128,27.6443823 100.567824,27.3744762 C104.551598,26.8690342 108.06028,25.5376997 111.700988,24.1366143 C115.388705,22.7143003 118.60533,20.6622055 122.095009,18.947746 C123.621305,18.1996917 125.098592,17.3606579 126.588882,16.5661029 C128.433241,15.5845344 130.303604,14.8496216 132.28699,14.0904476 C135.793672,12.7459717 139.245343,11.1942646 143.185109,10.9930986 C145.14449,10.8869558 147.497947,11.8907637 149.246287,12.647916 C150.927614,13.3656437 152.517923,14.5170408 154.122235,15.3752814 C157.470886,17.1615137 160.545484,19.3086316 163.955147,21.0362326 C167.452827,22.8093234 170.849487,24.5530986 174.749245,25.6569841 C174.98029,25.7196589 175.104314,25.4537964 174.887272,25.3587732" id="Fill-113" fill="#C25317"></path>
                <path d="M240.868299,35.6516651 C236.8924,35.4314666 232.622139,35.399735 228.789417,34.4824015 C225.194989,33.629493 221.603564,32.8304321 218.241422,31.4707785 C215.234718,30.2601676 212.561424,28.6841618 209.608787,27.4120107 C208.332214,26.86488 207.084677,26.3898666 205.667931,26.1321671 C204.066959,25.8340818 202.400906,26.1398596 200.819959,26.307172 C199.16492,26.4869847 197.434788,25.7129246 195.822802,25.433109 C194.338974,25.1734863 192.798076,24.9715576 191.2752,25.0032892 C189.66822,25.0330978 188.176382,25.5475353 186.686546,25.9850476 C184.836267,26.5264089 183.065085,27.0552699 181.333952,27.8264454 C179.762015,28.5255035 178.219114,29.2601395 176.644174,29.9515051 C174.942077,30.7015262 173.367137,30.7197959 171.461789,30.7447966 C168.098646,30.7871055 165.376292,32.4611909 162.108266,32.7688919 C161.936054,32.7871616 161.984113,32.983321 162.148315,32.9804363 C165.39131,32.9131267 168.197768,31.3486597 171.473804,31.3390441 C172.912577,31.3371209 174.215182,31.4130846 175.631927,31.111153 C177.138783,30.7871055 178.574552,29.8726567 179.917206,29.2505239 C183.203255,27.7370198 187.003937,26.1927457 190.789601,25.7465793 C192.415605,25.5552278 194.123709,25.917738 195.719675,26.1465906 C197.29862,26.3696738 198.787455,27.1129639 200.413458,27.0552699 C202.16862,26.9850757 203.766589,26.6648744 205.557796,26.86488 C207.474157,27.0812322 209.056106,28.1331848 210.768215,28.7658949 C212.183959,29.2870634 213.284315,30.177473 214.650999,30.7688357 C216.29202,31.485202 217.937047,32.1996451 219.634138,32.8304321 C222.852102,34.0275811 226.477569,34.7074079 229.906794,35.4064659 C233.390085,36.1112934 237.308913,36.0622536 240.873305,35.8949412 C241.046518,35.8853255 241.039509,35.6593577 240.868299,35.6516651" id="Fill-114" fill="#C25317"></path>
                <path d="M257.869421,31.6033279 C256.228591,31.4622791 254.695894,31.7453914 253.063,31.3242745 C251.277333,30.8605385 249.544244,30.3450508 248.038332,29.389166 C245.640578,27.8680714 243.790429,26.3966989 240.687336,26.3743747 C237.355083,26.3520504 234.492064,24.607713 231.597299,23.4407624 C228.706503,22.2788856 225.989313,23.7319927 223.121333,24.1703602 C222.932846,24.1987729 222.976496,24.4372367 223.165975,24.4169419 C224.600461,24.2982174 226.03197,23.9065279 227.434711,23.6426956 C228.480318,23.4458361 229.754094,23.4458361 230.770932,23.7482285 C231.66079,24.0161198 232.414738,24.6432289 233.220272,25.0491247 C234.39782,25.6407179 235.816433,26.0202305 237.065408,26.4961434 C238.405651,27.0014837 239.688355,27.101943 241.138713,27.1120904 C244.694174,27.1374588 246.622695,30.1096312 249.749596,31.0350737 C252.423136,31.8235264 255.054019,32.2273927 257.872397,31.8671602 C258.043027,31.8417917 258.043027,31.6205785 257.869421,31.6033279" id="Fill-115" fill="#C25317"></path>
                <path d="M59.5455533,18.1895 C59.0685533,18.1895 58.9735533,18.8105 59.4525533,18.8105 C59.9315533,18.8105 60.0275533,18.1895 59.5455533,18.1895" id="Fill-116" fill="#F0BB04"></path>
                <path d="M81.560425,18 C80.9049245,18 80.7740998,19 81.4385515,19 C82.095429,19 82.2262537,18 81.560425,18" id="Fill-117" fill="#F0BB04"></path>
                <path d="M34.5600471,31.043 C33.904971,31.043 33.7741426,31.957 34.4385637,31.957 C35.0955088,31.957 35.2263372,31.043 34.5600471,31.043" id="Fill-118" fill="#F0BB04"></path>
                <path d="M60.8472602,37.2700816 C60.8017349,37.2451574 60.7653147,37.2186252 60.726293,37.190485 C60.2281165,36.8262703 59.1016912,37.0256638 59.0067384,37.4405308 C58.8961771,37.9229344 60.1747869,38.2163965 60.7393003,37.8031375 C60.7770212,37.7749973 60.8147421,37.7484651 60.8550645,37.7243449 C61.054075,37.602136 61.04497,37.3955065 60.8472602,37.2700816" id="Fill-119" fill="#F0BB04"></path>
                <path d="M120.946273,32.3461427 C120.977532,32.2452555 120.993162,32.1337486 120.995116,32.0235691 C120.995116,32.0102945 121,32.0010022 121,31.9877276 C121,31.862946 120.977532,31.7355096 120.936504,31.6293125 C120.926736,31.6094005 120.915013,31.6027632 120.912083,31.5894886 C120.82905,31.3837318 120.69229,31.2058517 120.494965,31.1354961 C120.398256,31.1049644 120.299594,31.0890349 120.203862,31.066468 C120.079801,31.012042 119.944995,30.9921301 119.806281,31.0027498 C119.78186,31.0027498 119.757438,31.0027498 119.734971,31.0080596 L119.723248,31.0080596 C119.698827,31.012042 119.67929,31.0186793 119.654869,31.0253166 C119.627517,31.031954 119.599188,31.031954 119.574766,31.0452286 C119.149834,31.17532 118.973023,31.6027632 119.003305,32.0275515 C119.003305,32.4828715 119.232867,32.9262442 119.7506,32.9899625 C119.767207,32.9899625 119.778929,32.9952723 119.796513,32.9992547 C119.828749,33.0032371 119.85317,32.9899625 119.883453,32.9899625 L119.987,32.9899625 C120.004583,32.9859801 120.02119,32.9793428 120.038773,32.9727054 C120.091523,32.9660681 120.144274,32.9567759 120.197024,32.9328815 C120.299594,32.9063323 120.404118,32.8890753 120.509618,32.8519063 C120.719642,32.7802233 120.86324,32.5877411 120.936504,32.3594174 L120.943342,32.355435 L120.946273,32.3461427 Z" id="Fill-120" fill="#F0BB04"></path>
                <path d="M142.993443,16.9381818 C142.988961,16.6963482 142.896618,16.4621399 142.708346,16.2889347 C142.546074,16.1124615 142.328216,16.0057061 142.068222,16.0220462 C142.059257,16.0187782 142.052085,16.0187782 142.045809,16.0187782 C140.658873,15.7627831 140.641839,18.2127105 142.052085,17.9850383 C142.289666,18.0090038 142.498558,17.9294819 142.659037,17.7737062 C142.930686,17.5732675 143.027512,17.251912 142.993443,16.9381818" id="Fill-121" fill="#F0BB04"></path>
                <path d="M183.99893,33.2540544 C183.99893,33.2396964 183.996,33.2297561 183.996,33.215398 C184.001861,33.1513389 184.001861,33.0905931 183.992092,33.0221161 C183.936405,32.5228963 183.728312,32.13081 183.168512,32.0170497 C182.935995,31.9684531 182.753303,32.0280944 182.607736,32.1407502 C181.978572,32.3152562 181.821281,33.040892 182.21402,33.4639035 C182.523717,34.2944638 183.865087,34.1100175 183.989161,33.2540544 L183.99893,33.2540544 Z" id="Fill-122" fill="#F0BB04"></path>
                <path d="M191.827338,28.003213 C190.850106,27.9165064 190.675571,29.6119723 191.64457,29.7935875 C191.500496,29.7666381 191.717842,29.8545164 191.740893,29.868577 C191.864385,29.9505968 192.029041,29.9716875 192.168999,29.9939501 C192.417629,30.0302731 192.700013,29.9013849 192.845734,29.6518104 C193.35946,28.7753706 192.479375,28.0535966 191.827338,28.003213" id="Fill-123" fill="#F0BB04"></path>
                <path d="M210.367756,33.3468561 L210.365346,33.3468561 C210.31394,33.2996248 210.265747,33.245953 210.219964,33.194428 C209.608716,32.5374844 208.587025,33.7010903 209.177389,34.3752089 C209.53723,34.7798948 210.028798,35.2167837 210.564544,34.8797244 C210.852096,34.6983135 211.042458,34.4020449 210.991855,34.0156075 C210.943662,33.6474185 210.679404,33.4005279 210.367756,33.3468561" id="Fill-124" fill="#F0BB04"></path>
                <path d="M214.360487,17.0987264 C213.603917,17.3960951 214.122868,18.0966528 215.132749,17.9888231 C215.208967,17.9801164 215.281822,17.9720794 215.356918,17.9633727 C215.679722,17.925197 215.857936,17.8267438 215.928549,17.6673435 C215.945362,17.6298375 215.964416,17.5909921 215.978987,17.5534861 C216.170651,17.1087726 215.004973,16.8455612 214.360487,17.0987264" id="Fill-125" fill="#F0BB04"></path>
                <path d="M238.745828,18.2575049 C238.473912,18.132854 238.114448,18.0332852 237.778673,18.0044027 C236.864046,17.9299161 236.689979,18.8245147 237.607695,18.8777194 C237.680824,18.88456 237.804422,18.9256036 237.888881,18.9499258 C238.076338,19.0000902 238.245256,19.0038905 238.445073,18.99781 C239.038344,18.9788083 239.183572,18.4558823 238.745828,18.2575049" id="Fill-126" fill="#F0BB04"></path>
                <path d="M250.343278,25.0190169 C250.192258,24.9957212 250.036327,25.0003803 249.884079,25.0003803 C249.453119,25.0003803 249.062677,25.1448138 249.00497,25.4411355 C248.957086,25.6871384 249.260354,25.9965056 249.692541,25.9965056 C249.909863,25.9965056 250.155424,26.0104831 250.367834,25.9825282 C251.239577,25.8520721 251.189237,25.1401547 250.343278,25.0190169" id="Fill-127" fill="#F0BB04"></path>
                <path d="M228.292603,20.0257672 C228.177932,19.9975336 228.063261,20.006517 227.952201,20.0001003 C227.4881,19.9936835 227.068242,20.2952702 227.006843,20.8843266 C226.935512,21.6004343 227.433022,22.0111055 227.977483,21.998272 C228.089445,21.998272 228.207728,22.0085388 228.315176,21.9790218 C229.258728,21.721069 229.204553,20.2734533 228.292603,20.0257672" id="Fill-128" fill="#F0BB04"></path>
                <path d="M43.562458,24 C42.9051885,24 42.7740229,25 43.4370579,25 C44.0957687,25 44.2254929,24 43.562458,24" id="Fill-129" fill="#F0BB04"></path>
                <path d="M146.338082,22.3915946 C146.289965,22.434822 146.246125,22.4817545 146.200147,22.5249819 C145.838736,22.8880919 146.007679,23.5365025 146.381921,23.8143928 C146.899445,24.1935587 147.568803,23.9551906 147.839326,23.4302867 C147.742023,23.5945507 147.765547,23.5587338 147.901344,23.3240709 C147.963361,23.2153849 147.990092,23.089408 147.998646,22.9683713 C148.046763,22.0667717 146.798934,21.6283226 146.338082,22.3915946" id="Fill-130" fill="#E58414"></path>
                <path d="M129.938619,19.178045 C130.242292,18.4211543 129.362192,17.6363206 128.550557,18.1818164 C128.250196,18.3907814 128.045907,18.6872202 128.007258,19.0346853 C127.882476,20.0527822 129.401946,20.3710894 129.855799,19.4732688 C129.89997,19.3930846 129.919847,19.3080407 129.930889,19.219352 C129.934202,19.1999134 129.938619,19.1877643 129.938619,19.178045" id="Fill-131" fill="#E58414"></path>
                <path d="M150.123103,16 C148.810185,16 148.546994,18 149.878133,18 C151.191051,18 151.451205,16 150.123103,16" id="Fill-132" fill="#E58414"></path>
                <path d="M131.918889,31.6094607 C131.716741,31.1489598 131.129716,30.8556271 130.650386,31.0732611 C130.222255,31.2656621 129.938894,31.6756971 130.011279,32.1561741 C130.106616,32.7922541 130.807514,33.1760048 131.397187,32.91947 C131.899469,32.7018361 132.136927,32.1057082 131.918889,31.6094607" id="Fill-133" fill="#E58414"></path>
                <path d="M174.357102,34.272711 C174.239962,34.2408708 174.123938,34.2079325 174.003451,34.1782881 C173.966635,34.1695046 173.927588,34.1585252 173.893004,34.1475458 C173.785905,34.1222932 173.707811,34.105824 173.65984,34.0981385 C173.166736,33.9114885 172.581036,33.9872464 172.232962,34.3583504 C171.836917,34.7909391 171.968561,35.3728477 172.456086,35.7077197 C173.032862,36.1007825 173.71339,36.0381999 174.377183,35.8636273 C175.237326,35.6363535 175.183776,34.4988869 174.357102,34.272711" id="Fill-134" fill="#E58414"></path>
                <path d="M194.811632,35.3025514 C194.609387,35.0177787 194.316707,34.9522273 194.034714,35.0306741 C193.787252,34.9801673 193.524169,35.0306741 193.322745,35.2004631 C192.932231,35.5389664 192.911678,36.107437 193.177228,36.5372825 C193.505259,37.0692163 194.131726,37.1261708 194.595411,36.7919659 C195.037719,36.4824772 195.128976,35.7495907 194.811632,35.3025514" id="Fill-135" fill="#E58414"></path>
                <path d="M211.81124,21.3508561 C211.55269,20.9988451 211.127929,20.9188968 210.765035,21.0787934 C210.378134,21.1575484 210.057716,21.4463168 210.00693,21.9081075 C209.933058,22.5739453 210.461239,23.0464754 211.045747,22.9963586 C211.268285,22.9784597 211.497286,22.8841923 211.660727,22.7135565 C212.01254,22.3460331 212.136274,21.7971345 211.81124,21.3508561" id="Fill-136" fill="#E58414"></path>
                <path d="M244.937204,20.7654006 C244.776501,20.340711 244.40698,20.1138882 244.001854,20.0185743 C243.525519,19.9003369 243.058806,20.3672541 243.00588,20.8329648 C242.957765,21.2673064 243.209886,21.6558009 243.58037,21.8066139 C243.640032,21.8548741 243.705468,21.9055473 243.77764,21.9357099 C243.948928,22.0081002 244.11348,22.0117197 244.290542,21.9839701 C244.845786,21.9079603 245.136399,21.285404 244.937204,20.7654006" id="Fill-137" fill="#E58414"></path>
                <path d="M225.124659,26 C223.808927,26 223.547947,28 224.877467,28 C226.189259,28 226.452209,26 225.124659,26" id="Fill-138" fill="#E58414"></path>
                <path d="M252.695021,33.1375313 C252.343723,33.2218039 252.051713,33.469806 252.004815,33.935713 C251.956146,34.4052316 252.281782,35.0059746 252.740149,34.9999551 C253.174625,34.9975473 253.537426,34.944576 253.819702,34.5244171 C254.417881,33.6431668 253.394075,32.6258765 252.695021,33.1375313" id="Fill-139" fill="#E58414"></path>
                <path d="M240.124719,30 C238.808346,30 238.548322,32 239.877696,32 C241.19082,32 241.450844,30 240.124719,30" id="Fill-140" fill="#E58414"></path>
                <path d="M223.121007,36 C221.812351,36 221.547051,37 222.874741,37 C224.191725,37 224.452266,36 223.121007,36" id="Fill-141" fill="#E58414"></path>
                <path d="M98.1218828,20 C96.809632,20 96.5481611,22 97.8770599,22 C99.1912693,22 99.4517609,20 98.1218828,20" id="Fill-142" fill="#E58414"></path>
                <path d="M66.1192127,20.0073206 C65.4038687,19.9320701 64.9940736,20.4487903 65.0000648,21.0131692 C65.0084524,21.1009614 65.0084524,21.1925162 65.0084524,21.2752918 C65.0312188,22.2573111 66.9723532,22.2334817 66.9963179,21.2514625 C66.9963179,21.1636702 66.9963179,21.0721154 66.9999126,20.9855773 C67.0059037,20.5027198 66.7039495,20.0662668 66.1192127,20.0073206" id="Fill-143" fill="#E58414"></path>
                <path d="M47.8959937,15.6945716 C47.8843944,15.6603225 47.8774347,15.6358587 47.8774347,15.6456442 C47.6825653,14.7563883 46.3057196,14.8077621 46.11433,15.663992 C46.11433,15.663992 46.1120101,15.6786702 46.1120101,15.6884557 C46.0122555,15.8658176 45.9693378,16.0639737 46.0238549,16.257237 C46.0273347,16.2963789 46.0482135,16.3245122 46.0644527,16.3575382 C46.0853315,16.428483 46.11433,16.4896423 46.1595675,16.5556943 C46.170007,16.5715957 46.1804464,16.5899435 46.1955256,16.6082912 C46.2477228,16.6816824 46.3115193,16.7428417 46.3869152,16.7966618 C46.4205534,16.8247951 46.4611512,16.8431429 46.501749,16.8614907 C46.5423469,16.8896239 46.5748251,16.9177572 46.6223825,16.936105 C46.6560207,16.9483368 46.6861791,16.9507832 46.7151775,16.9605687 C46.7395362,16.969131 46.7592551,16.9715774 46.7778141,16.9752469 C46.9054072,17.0033802 47.0237209,17.0058265 47.1408745,16.9911483 L47.1489941,16.9911483 C47.1640733,16.9911483 47.1745127,16.9838092 47.1895919,16.9838092 C47.2371493,16.9752469 47.2777471,16.9630151 47.3253046,16.9483368 C47.6558867,16.8468124 47.8774347,16.6082912 47.9516707,16.3208426 C47.9574704,16.2927094 47.9771894,16.2657993 47.9806692,16.2352197 C48.0270667,16.0492955 47.9864689,15.8584785 47.8959937,15.6945716" id="Fill-144" fill="#E58414"></path>
                <path d="M31.5442142,27.183268 C31.4096621,27.2845795 31.2771333,27.3736848 31.1820364,27.5079531 C30.5689644,28.4063296 31.6302061,29.4231064 32.5002422,28.8164581 C32.6307476,28.7200291 32.7248329,28.5759959 32.8148715,28.4490514 C33.4350251,27.6043821 32.3656901,26.5753991 31.5442142,27.183268" id="Fill-145" fill="#E58414"></path>
                <path d="M33.6720738,35.3013223 C33.1645348,34.6680431 32.0957839,35.1152677 32.006329,35.8814431 C31.9036913,36.7678028 33.0750799,37.3906815 33.6570077,36.7134887 C34.1165235,36.3633362 34.1071071,35.657253 33.6720738,35.3013223" id="Fill-146" fill="#E58414"></path>
                <path d="M56.1217698,32 C54.8084601,32 54.5486845,34 55.8782302,34 C57.1915399,34 57.4513155,32 56.1217698,32" id="Fill-147" fill="#E58414"></path>
                <path d="M94.8701802,34.6538146 C94.8163026,34.3929208 94.6668356,34.171618 94.3826747,34.0548757 C94.0107454,33.9107243 93.5336679,34.0579211 93.3416203,34.4101784 C93.3138125,34.4355572 93.2807907,34.4578905 93.2547209,34.4893601 C93.1817254,34.5766631 93.1295858,34.6791933 93.0791842,34.7827387 C92.8141411,35.3136625 93.2547209,35.9095559 93.8039249,35.9867074 C93.9559988,36.0090407 94.1106797,35.9999043 94.2644916,35.9836619 C94.9744594,35.9126014 95.1569481,35.1461626 94.8701802,34.6538146" id="Fill-148" fill="#E58414"></path>
                <path d="M80.2451006,25.0089231 C80.0756634,24.9942475 79.9083985,25.0015853 79.7357029,25.0037867 C78.7375441,25.0243324 78.7646975,25.976042 79.7585118,25.9980553 C79.9322935,25.9995228 80.1039029,26.0046593 80.2733401,25.9885162 C81.272585,25.9041318 81.2204505,25.0903724 80.2451006,25.0089231" id="Fill-149" fill="#E58414"></path>
                <path d="M153.559214,34.1797381 C153.492903,34.2292648 153.422632,34.2776123 153.354341,34.3271391 C152.701124,34.7811341 153.004969,35.9603419 153.82545,35.9980766 C153.942237,36.0016142 154.054076,36.0016142 154.167894,35.9862845 C154.615249,35.9332202 154.854763,35.614834 154.917115,35.2634301 C155.287272,34.4568519 154.343075,33.6255104 153.559214,34.1797381" id="Fill-150" fill="#E58414"></path>
                <path d="M160.550925,24.1465 C160.008925,24.1465 159.900925,24.8535 160.447925,24.8535 C160.990925,24.8535 161.099925,24.1465 160.550925,24.1465" id="Fill-151" fill="#E58414"></path>
                <path d="M138.54704,18.184 C138.06004,18.184 137.96504,18.816 138.45404,18.816 C138.93904,18.816 139.03504,18.184 138.54704,18.184" id="Fill-152" fill="#E58414"></path>
                <path d="M116.108461,28.4893663 C116.108461,28.5663663 116.121461,28.6273663 116.158461,28.6963663 C116.288461,28.9463663 116.715461,28.9333663 116.846461,28.6903663 C116.881461,28.6173663 116.891461,28.5563663 116.891461,28.4793663 C116.907461,27.9943663 116.095461,28.0073663 116.108461,28.4893663" id="Fill-153" fill="#E58414"></path>
                <path d="M103.532478,22.275 C103.187478,22.275 103.120478,22.725 103.464478,22.725 C103.812478,22.725 103.881478,22.275 103.532478,22.275" id="Fill-154" fill="#E58414"></path>
                <path d="M90.5481233,21.1575 C90.0251233,21.1575 89.9211233,21.8425 90.4501233,21.8425 C90.9771233,21.8425 91.0781233,21.1575 90.5481233,21.1575" id="Fill-155" fill="#E58414"></path>
                <path d="M74.8365309,18.2248569 C74.7865309,18.0948569 74.5515309,18.0818569 74.4635309,18.1898569 C74.4035309,18.2588569 74.3295309,18.3238569 74.2505309,18.3838569 C73.8735309,18.6498569 74.4345309,19.0908569 74.7255309,18.7708569 C74.8765309,18.6058569 74.9135309,18.4218569 74.8365309,18.2248569" id="Fill-156" fill="#E58414"></path>
                <path d="M56.6298207,14.2048578 C56.5778207,14.1948578 56.5268207,14.1848578 56.4808207,14.1828578 C55.9278207,14.0998578 55.9258207,14.9018578 56.4898207,14.8168578 C56.5398207,14.8108578 56.5878207,14.8008578 56.6378207,14.7938578 C57.0448207,14.7348578 57.0218207,14.2608578 56.6298207,14.2048578" id="Fill-157" fill="#E58414"></path>
                <path d="M38.5451152,27.189 C38.0671152,27.189 37.9751152,27.811 38.4571152,27.811 C38.9321152,27.811 39.0241152,27.189 38.5451152,27.189" id="Fill-158" fill="#E58414"></path>
                <path d="M25.9140407,35.3181477 C25.8591489,35.2731477 25.7967095,35.2421477 25.7267224,35.2141477 C25.6443847,35.0891477 25.4954906,35.0281477 25.3740424,35.1431477 C25.371984,35.1461477 25.3685532,35.1531477 25.3637502,35.1561477 C25.3170921,35.1591477 25.2759233,35.1761477 25.2347544,35.1881477 C25.2176007,35.1911477 25.195644,35.1971477 25.1784903,35.2061477 C25.1764318,35.2061477 25.1695704,35.2061477 25.1675119,35.2101477 L25.1675119,35.2141477 C24.963726,35.3231477 24.9239295,35.7301477 25.1716288,35.8631477 C25.3918823,35.9751477 25.7253501,35.9051477 25.9140407,35.7451477 C26.0320582,35.6511477 26.0251967,35.4131477 25.9140407,35.3181477" id="Fill-159" fill="#E58414"></path>
                <path d="M44.541261,36.2145 C44.103261,36.2145 44.018261,36.7855 44.458261,36.7855 C44.895261,36.7855 44.983261,36.2145 44.541261,36.2145" id="Fill-160" fill="#E58414"></path>
                <path d="M46.9987723,30.4155 C47.0151937,30.2315 46.8646638,30.1205 46.6803787,30.1175 C46.6511851,30.1245 46.527112,30.1375 46.5207258,30.1405 C46.4523032,30.1595 46.3902666,30.1815 46.3163701,30.1875 C45.8912372,30.2295 45.8930618,30.8625 46.330967,30.8825 C46.3656344,30.8825 46.397565,30.8755 46.4313202,30.8725 L46.4313202,30.8825 C46.4404432,30.8795 46.4495663,30.8725 46.4568647,30.8725 C46.5006552,30.8725 46.5471826,30.8725 46.59371,30.8625 C46.7296431,30.8375 46.8144872,30.7645 46.8573654,30.6795 C46.9312619,30.6075 46.9878246,30.5245 46.9987723,30.4155" id="Fill-161" fill="#E58414"></path>
                <path d="M46.484592,30.4985 C46.494592,30.4985 46.501592,30.5015 46.506592,30.5015 C46.519592,30.5015 46.522592,30.4985 46.484592,30.4985" id="Fill-162" fill="#E58414"></path>
                <path d="M65.9394144,32.4897596 C65.8944144,32.4007596 65.8444144,32.3177596 65.7674144,32.2387596 C65.3874144,31.8507596 64.7274144,32.4107596 65.1944144,32.7297596 C65.2854144,32.7927596 65.3874144,32.8277596 65.4954144,32.8707596 C65.7744144,32.9707596 66.0564144,32.7177596 65.9394144,32.4897596" id="Fill-163" fill="#E58414"></path>
                <path d="M82.8126052,36.2085815 C82.7828449,36.1942285 82.7505337,36.1894441 82.7173722,36.1846598 C82.5855765,35.9023831 82.0524418,35.947356 82.0243821,36.2946999 C82.0158791,36.3875163 82.0090768,36.4841601 82.0014241,36.5788903 C81.9733644,36.8707357 82.3662005,37.1463143 82.6280913,36.9118811 C82.6748575,36.8707357 82.7207734,36.8286334 82.7632881,36.7827036 C82.7768928,36.7702643 82.7768928,36.7683506 82.7828449,36.7587819 C82.7913478,36.7587819 82.7930484,36.7587819 82.8168567,36.7463426 C83.0634421,36.6334319 83.0600409,36.3147941 82.8126052,36.2085815" id="Fill-164" fill="#E58414"></path>
                <path d="M94.9889147,31.3329325 C94.9476081,31.1769325 94.8490357,31.1009325 94.6800544,31.0659325 C94.4951137,31.0249325 94.3308263,31.1229325 94.1871922,31.2079325 C93.6304925,31.5429325 94.4566235,32.2749325 94.8340151,31.7729325 C94.9335264,31.6429325 95.0339764,31.4929325 94.9889147,31.3329325" id="Fill-165" fill="#E58414"></path>
                <path d="M106.560978,37.083 C105.921978,37.083 105.792978,37.917 106.439978,37.917 C107.080978,37.917 107.203978,37.083 106.560978,37.083" id="Fill-166" fill="#E58414"></path>
                <path d="M133.55404,28.1305 C132.98604,28.1305 132.87404,28.8695 133.44704,28.8695 C134.01304,28.8695 134.12604,28.1305 133.55404,28.1305" id="Fill-167" fill="#E58414"></path>
                <path d="M124.550458,35.1605 C124.030458,35.1605 123.925458,35.8395 124.447458,35.8395 C124.972458,35.8395 125.073458,35.1605 124.550458,35.1605" id="Fill-168" fill="#E58414"></path>
                <path d="M141.505364,35.4950768 C141.483364,35.5150768 141.501364,35.4990768 141.505364,35.4950768" id="Fill-169" fill="#E58414"></path>
                <path d="M141.921739,35.3209027 L141.847491,35.2539027 C141.571994,35.0119027 141.060076,35.0759027 141.00439,35.4529027 C140.942843,35.8909027 141.543662,36.0179027 141.850422,35.7479027 C141.865076,35.7359027 141.865076,35.7359027 141.860191,35.7409027 C141.862145,35.7379027 141.862145,35.7379027 141.865076,35.7359027 C141.987194,35.6339027 142.067303,35.4429027 141.921739,35.3209027" id="Fill-170" fill="#E58414"></path>
                <path d="M154.943101,29.0975582 C154.814313,29.1612532 154.705238,29.1463247 154.548853,29.1562771 C153.751158,29.211015 153.88126,29.9654037 154.564623,29.9942655 C155.019322,30.0221321 155.421455,29.9494799 155.76445,29.7534185 C156.400504,29.4001098 155.619893,28.7542019 154.943101,29.0975582" id="Fill-171" fill="#E58414"></path>
                <path d="M164.553179,37.124 C163.978179,37.124 163.861179,37.876 164.448179,37.876 C165.025179,37.876 165.135179,37.124 164.553179,37.124" id="Fill-172" fill="#E58414"></path>
                <path d="M184.558872,30.0945 C183.936872,30.0945 183.812872,30.9055 184.441872,30.9055 C185.062872,30.9055 185.186872,30.0945 184.558872,30.0945" id="Fill-173" fill="#E58414"></path>
                <path d="M188.759335,35.0032077 C188.631959,34.9886329 188.534088,35.0245841 188.449891,35.0935715 C188.424704,35.0867699 188.403834,35.0751101 188.381525,35.0751101 C187.97493,35.0420739 187.869144,35.6755917 188.182186,35.823283 C188.305964,36.03316 188.588061,36.0729978 188.746381,35.8504893 C188.784522,35.8019066 188.819065,35.7465224 188.842093,35.6872515 L188.873757,35.6143776 C188.88743,35.5861996 188.88743,35.5803697 188.88743,35.5677382 C189.070938,35.4006139 189.031358,35.0420739 188.759335,35.0032077" id="Fill-174" fill="#E58414"></path>
                <path d="M198.558818,32.109 C197.958818,32.109 197.835818,32.891 198.443818,32.891 C199.040818,32.891 199.162818,32.109 198.558818,32.109" id="Fill-175" fill="#E58414"></path>
                <path d="M206.536437,23.0917217 C206.266437,23.1347217 206.036437,23.2897217 206.016437,23.5367217 C206.003437,23.7567217 206.206437,23.9407217 206.478437,23.9117217 C206.629437,23.8937217 206.748437,23.8587217 206.841437,23.7467217 C206.863437,23.7237217 206.860437,23.6957217 206.872437,23.6677217 C207.108437,23.4687217 206.958437,23.0267217 206.536437,23.0917217" id="Fill-176" fill="#E58414"></path>
                <path d="M221.554881,19.0414789 C221.282208,19.1894789 221.079795,19.2664789 221.008699,19.5934789 C220.916693,20.0334789 221.581647,20.1434789 221.725511,19.7614789 C221.736385,19.7514789 221.738058,19.7544789 221.762314,19.7364789 C221.8309,19.6814789 221.888613,19.6014789 221.939635,19.5314789 C222.12532,19.2884789 221.850138,18.8824789 221.554881,19.0414789" id="Fill-177" fill="#E58414"></path>
                <path d="M236.800465,21.3241802 C236.785559,21.3159228 236.765945,21.3159228 236.748685,21.3076655 C236.748685,21.3012431 236.748685,21.2957382 236.746331,21.2893158 C236.711027,20.8938802 236.076327,20.9103949 236.041807,21.2984906 C236.032392,21.392074 236.023762,21.4819875 236.007287,21.5719009 C235.952368,21.8223741 236.21833,22.028808 236.453695,21.996696 C236.576869,21.9792638 236.689059,21.9563267 236.807526,21.9086176 C237.071134,21.8049419 237.059366,21.424186 236.800465,21.3241802" id="Fill-178" fill="#E58414"></path>
                <path d="M248.947151,23.3805479 C248.929151,23.3395479 248.904151,23.2985479 248.884151,23.2535479 C248.735151,22.9735479 248.265151,22.9915479 248.119151,23.2605479 C248.097151,23.3015479 248.074151,23.3455479 248.050151,23.3855479 C247.922151,23.6335479 248.139151,23.9185479 248.447151,23.9455479 C248.808151,23.9855479 249.096151,23.6635479 248.947151,23.3805479" id="Fill-179" fill="#E58414"></path>
                <path d="M244.557987,17.1035 C243.945987,17.1035 243.825987,17.8965 244.444987,17.8965 C245.052987,17.8965 245.172987,17.1035 244.557987,17.1035" id="Fill-180" fill="#E58414"></path>
                <path d="M230.553115,31.129 C229.983115,31.129 229.868115,31.871 230.449115,31.871 C231.016115,31.871 231.131115,31.129 230.553115,31.129" id="Fill-181" fill="#E58414"></path>
                <path d="M218.558807,24.0634308 C218.209807,24.0284308 217.886807,24.3494308 218.053807,24.6284308 C218.091807,24.6924308 218.133807,24.7654308 218.191807,24.8184308 C218.378807,24.9824308 218.628807,24.9774308 218.811807,24.8154308 C218.873807,24.7624308 218.911807,24.6854308 218.948807,24.6194308 C219.091807,24.3814308 218.853807,24.0934308 218.558807,24.0634308" id="Fill-182" fill="#E58414"></path>
                <path d="M214.751665,28.2137375 C214.696665,28.1937375 214.646665,28.1787375 214.591665,28.1617375 C213.833665,27.9137375 213.821665,29.0877375 214.605665,28.8377375 C214.653665,28.8207375 214.706665,28.8027375 214.756665,28.7907375 C215.060665,28.6887375 215.048665,28.3057375 214.751665,28.2137375" id="Fill-183" fill="#E58414"></path>
                <path d="M235.94654,28.6251574 C235.98254,28.5421574 236.004491,28.4541574 235.999223,28.3501574 C235.985174,27.9691574 235.506637,27.9401574 235.283613,28.1631574 C234.869174,28.2721574 234.916588,28.9331574 235.375808,28.9771574 C235.417076,28.9771574 235.453076,28.9671574 235.492589,28.9641574 C235.492589,28.9671574 235.492589,28.9711574 235.495223,28.9741574 C235.500491,28.9711574 235.509271,28.9641574 235.51454,28.9641574 C235.629564,28.9541574 235.740198,28.9241574 235.823613,28.8421574 C235.895613,28.7741574 235.933369,28.6991574 235.94654,28.6251574" id="Fill-184" fill="#E58414"></path>
                <path d="M250.999607,34.2841772 C250.985655,33.8972115 250.241576,33.9106212 250.218324,34.2927977 C250.218324,34.3014183 250.218324,34.3014183 250.221114,34.3081231 C250.206233,34.3109966 250.200652,34.3109966 250.169959,34.3253642 C249.825822,34.5284254 250.058347,34.9240116 250.388532,34.9910601 C250.506655,35.015006 250.639659,34.9881866 250.74383,34.9422105 C250.943801,34.8636679 251.002397,34.6970045 250.964263,34.5475821 C250.990306,34.4690395 251.002397,34.3876235 250.999607,34.2841772" id="Fill-185" fill="#E58414"></path>
                <path d="M262.979915,37.4081094 C262.965235,37.3671094 262.963767,37.3551094 262.926335,37.3041094 C262.907251,37.2721094 262.681922,37.0351094 262.855873,37.2311094 C262.795688,37.1651094 262.703207,37.1131094 262.613662,37.1171094 C262.476409,36.9961094 262.299521,36.9551094 262.146121,37.0901094 C261.999326,37.2231094 261.936939,37.5261094 262.083733,37.6881094 C262.273832,37.9031094 262.416223,38.0051094 262.695867,37.9931094 C262.954226,37.9801094 263.044504,37.6431094 262.979915,37.4081094" id="Fill-186" fill="#E58414"></path>
                <path d="M245.041692,29.5014106 C245.054692,29.6124106 245.075692,29.7114106 245.173692,29.7934106 C245.320692,29.9104106 245.577692,29.9934106 245.754692,29.8464106 C245.890692,29.7364106 245.941692,29.6464106 245.958692,29.4884106 C246.011692,28.9334106 244.983692,28.9364106 245.041692,29.5014106" id="Fill-187" fill="#E58414"></path>
                <path d="M241.547977,37.1685 C241.037977,37.1685 240.934977,37.8315 241.452977,37.8315 C241.964977,37.8315 242.061977,37.1685 241.547977,37.1685" id="Fill-188" fill="#E58414"></path>
                <path d="M214.544334,34.1446973 C214.465334,34.1636973 214.392334,34.1856973 214.315334,34.2086973 C213.589334,34.4176973 214.594334,35.2666973 214.852334,34.6456973 C214.879334,34.5816973 214.907334,34.5216973 214.927334,34.4586973 C215.004334,34.2436973 214.794334,34.0816973 214.544334,34.1446973" id="Fill-189" fill="#E58414"></path>
                <path d="M207.888107,30.397692 C207.861107,30.356692 207.836107,30.315692 207.808107,30.273692 C207.666107,30.045692 207.326107,30.058692 207.186107,30.280692 C207.161107,30.321692 207.131107,30.363692 207.111107,30.403692 C206.974107,30.609692 207.199107,30.860692 207.449107,30.889692 C207.744107,30.917692 208.043107,30.638692 207.888107,30.397692" id="Fill-190" fill="#E58414"></path>
            </g>
        </g>
    </g>
</svg>