<?xml version="1.0" encoding="UTF-8"?>
<svg width="123px" height="101px" viewBox="0 0 123 101" version="1.1" xmlns="http://www.w3.org/2000/svg" xmlns:xlink="http://www.w3.org/1999/xlink">
    <!-- Generator: Sketch 53.1 (72631) - https://sketchapp.com -->
    <title>Group 40toycar</title>
    <desc>Created with Sketch.</desc>
    <g id="Page-1" stroke="none" stroke-width="1" fill="none" fill-rule="evenodd">
        <g id="Artboard" transform="translate(-2360.000000, -1531.000000)">
            <g id="Group-40" transform="translate(2360.000000, 1531.000000)">
                <path d="M67.178947,61.7705205 L44.7598913,54.177372 C43.5271676,53.7597695 42.3062404,54.1051938 42.0486856,54.9445234 C41.7901479,55.7828218 42.5873879,56.811877 43.8210946,57.2294795 L66.2391673,64.822628 C67.472874,65.2402305 68.6928182,64.8948062 68.951356,64.0554766 C69.2098937,63.2161471 68.4116707,62.188123 67.178947,61.7705205" id="Fill-335" fill="#515A60"></path>
                <path d="M69.1792133,74.7705205 L46.7599223,67.177372 C45.5271857,66.7597695 44.3062456,67.1051938 44.0486882,67.9445234 C43.7901477,68.7828218 44.587396,69.811877 45.8201326,70.2294795 L68.2394237,77.822628 C69.4731433,78.2402305 70.6931004,77.8948062 70.9516408,77.0554766 C71.2091982,76.2161471 70.4119499,75.188123 69.1792133,74.7705205" id="Fill-336" fill="#515A60"></path>
                <path d="M70.178947,88.7705205 L47.7598913,81.177372 C46.5271676,80.7597695 45.3062404,81.1051938 45.0486856,81.9445234 C44.7901479,82.7828218 45.5873879,83.811877 46.8210946,84.2294795 L69.2391673,91.822628 C70.472874,92.2402305 71.6928182,91.8948062 71.951356,91.0554766 C72.2098937,90.2161471 71.4116707,89.188123 70.178947,88.7705205" id="Fill-337" fill="#515A60"></path>
                <path d="M43.4779168,53.9968426 L64.8979305,49.0803485 C66.0760413,48.8094726 67.4051663,49.2460944 67.8522083,50.0501983 C68.2982502,50.8533551 67.700194,51.7322814 66.5220832,52.0031574 L45.1020695,56.9196515 C43.9239587,57.1905274 42.5948337,56.7539056 42.1477917,55.9498017 C41.7017498,55.1466449 42.299806,54.2677186 43.4779168,53.9968426" id="Fill-338" fill="#41387A"></path>
                <path d="M44.4779168,66.9968426 L65.8979305,62.0803485 C67.0760413,61.8094726 68.4051663,62.2460944 68.8522083,63.0501983 C69.2982502,63.8533551 68.700194,64.7322814 67.5220832,65.0031574 L46.1020695,69.9196515 C44.9239587,70.1905274 43.5948337,69.7539056 43.1477917,68.9498017 C42.7017498,68.1466449 43.299806,67.2667715 44.4779168,66.9968426" id="Fill-339" fill="#41387A"></path>
                <path d="M46.4779168,80.9968426 L67.8979305,76.0803485 C69.0760413,75.8094726 70.4051663,76.2460944 70.8522083,77.0501983 C71.2982502,77.8533551 70.700194,78.7322814 69.5220832,79.0031574 L48.1020695,83.9196515 C46.9239587,84.1905274 45.5948337,83.7539056 45.1477917,82.9498017 C44.7017498,82.1466449 45.299806,81.2677186 46.4779168,80.9968426" id="Fill-340" fill="#41387A"></path>
                <path d="M77.0837037,4.29756083 C76.050305,4.91257447 75.6926273,6.28936636 76.2881124,7.35665464 L84.9535808,22.880757 C85.5500326,23.9480453 86.8821405,24.3174528 87.9165059,23.7024392 C88.9489379,23.0864271 89.3075823,21.7106336 88.7120972,20.6433454 L80.0456621,5.11924301 C79.450177,4.05195473 78.1171024,3.68254719 77.0837037,4.29756083" id="Fill-341" fill="#ED1C24"></path>
                <path d="M110.612642,16.4558563 C104.717481,11.5385652 97.1863799,9 89.4988585,9 L87.4235465,9 C86.3833998,9 83.2340666,14.9428436 82.516724,15.7817516 C77.450492,21.7077178 70.9396117,25.3959343 63.0787325,25.8843872 C51.8044981,26.5852972 41.0124774,20.1708781 35.9233303,10.1675216 L5.19317083,10.1675216 L5.19317083,22.2150337 C3.31512808,23.0688335 2,24.9551353 2,27.1362959 L2,45.5912776 C2,48.5656778 4.44295004,51 7.42789225,51 C8.34549298,51 9.21128563,50.7686798 9.9704732,50.3636213 L122.699865,50.3636213 C122.699865,50.3636213 126.014585,29.3035575 110.612642,16.4558563" id="Fill-342" fill="#ED1C24"></path>
                <path d="M66.8181066,39 L31.1818934,39 C29.4316038,39 28,37.650234 28,36 L28,36 C28,34.349766 29.4316038,33 31.1818934,33 L66.8181066,33 C68.5683962,33 70,34.349766 70,36 L70,36 C70,37.650234 68.5683962,39 66.8181066,39" id="Fill-343" fill="#F8B033"></path>
                <path d="M12.8363297,17 L4.16267803,17 C1.87345319,17 0,18.9635985 0,21.3640146 L0,24.6359854 C0,27.0364015 1.87345319,29 4.16267803,29 L12.8363297,29 C15.1265468,29 17,27.0364015 17,24.6359854 L17,21.3640146 C17,18.9635985 15.1265468,17 12.8363297,17" id="Fill-344" fill="#F8B033"></path>
                <path d="M6,51.5 C6,42.3873968 13.3873968,35 22.5,35 C31.6136127,35 39,42.3873968 39,51.5 C39,60.6126032 31.6136127,68 22.5,68 C13.3873968,68 6,60.6126032 6,51.5" id="Fill-345" fill="#515A60"></path>
                <path d="M10,52 C10,44.8207921 15.819802,39 23,39 C30.1792079,39 36,44.8207921 36,52 C36,59.1792079 30.1792079,65 23,65 C15.819802,65 10,59.1792079 10,52" id="Fill-346" fill="#FFFFFF"></path>
                <path d="M13,52 C13,46.4764979 17.4772808,42 22.9994957,42 C28.5227192,42 33,46.4764979 33,52 C33,57.5235021 28.5227192,62 22.9994957,62 C17.4772808,62 13,57.5235021 13,52" id="Fill-347" fill="#A3B6B6"></path>
                <path d="M76,51.5 C76,42.3873968 83.3873968,35 92.5,35 C101.613613,35 109,42.3873968 109,51.5 C109,60.6126032 101.613613,68 92.5,68 C83.3873968,68 76,60.6126032 76,51.5" id="Fill-348" fill="#515A60"></path>
                <path d="M79,52 C79,44.8207921 84.819802,39 92,39 C99.1792079,39 105,44.8207921 105,52 C105,59.1792079 99.1792079,65 92,65 C84.819802,65 79,59.1792079 79,52" id="Fill-349" fill="#FFFFFF"></path>
                <path d="M82,52 C82,46.4764979 86.4772808,42 91.9994957,42 C97.5227192,42 102,46.4764979 102,52 C102,57.5235021 97.5227192,62 91.9994957,62 C86.4772808,62 82,57.5235021 82,52" id="Fill-350" fill="#A3B6B6"></path>
                <path d="M79.270599,0.470576689 L67.8774574,9.05731052 C66.8813414,9.80864973 66.7065842,11.203994 67.4909356,12.1591697 C68.2752871,13.1143453 69.7329677,13.2807625 70.7301118,12.5294233 L82.1222254,3.94268948 C83.1193694,3.19135027 83.2930986,1.79600602 82.5087472,0.84083035 C81.7243957,-0.114345318 80.2677431,-0.280762522 79.270599,0.470576689" id="Fill-351" fill="#41387A"></path>
                <path d="M99.105083,89 L21.894917,89 C20.3029134,89 19,90.2789227 19,91.8416126 L19,98.1574021 C19,99.7210773 20.3029134,101 21.894917,101 L99.105083,101 C100.697087,101 102,99.7210773 102,98.1574021 L102,91.8416126 C102,90.2789227 100.697087,89 99.105083,89" id="Fill-352" fill="#41387A"></path>
            </g>
        </g>
    </g>
</svg>