<?xml version="1.0" encoding="UTF-8"?>
<svg width="164px" height="180px" viewBox="0 0 164 180" version="1.1" xmlns="http://www.w3.org/2000/svg" xmlns:xlink="http://www.w3.org/1999/xlink">
    <!-- Generator: Sketch 53.1 (72631) - https://sketchapp.com -->
    <title>Group 42rampoline</title>
    <desc>Created with Sketch.</desc>
    <g id="Page-1" stroke="none" stroke-width="1" fill="none" fill-rule="evenodd">
        <g id="Artboard" transform="translate(-213.000000, -1532.000000)">
            <g id="Group-42" transform="translate(213.000000, 1532.000000)">
                <path d="M98.256731,77.8361349 C97.4818778,77.7641762 96.7090241,77.6992134 95.9301717,77.6752271 C91.4310238,77.5353073 72.4086267,73.5136111 67.7855023,58.0724566 C62.5165002,40.4775359 65.3329668,18.557093 71.1498651,0.779277084 C77.401681,-0.740852107 85.2861876,0.431476322 85.2861876,0.431476322 L85.6051272,7.24557286 L87.881696,0.76128739 C87.881696,0.76128739 106.334201,0.621367543 126.118454,6.60793813 C126.165445,10.3757797 125.248619,13.4420232 125.248619,13.4420232 C125.248619,13.4420232 127.03728,10.7755507 127.749145,7.24957057 C136.492489,9.95202246 139.999825,13.4360266 139.999825,13.4360266 C139.999825,13.4360266 140.432743,81.7738792 98.256731,77.8361349" id="Fill-237" fill="#29235C"></path>
                <path d="M100.773933,71.6465332 L96.0349572,69 L90.7692046,70.4050471 C90.7692046,70.4050471 83.1440558,76.599669 84.0795392,88.4578327 C85.5599645,95.1776229 92.7309951,94.3736128 92.6542996,94.968738 C92.7309951,94.3736128 99.4680906,96.9048652 102.624717,90.7595086 C106.56949,79.5073085 100.773933,71.6465332 100.773933,71.6465332" id="Fill-238" fill="#FED185"></path>
                <polygon id="Fill-239" fill="#29235C" points="83 86 84.4644283 105.275073 84.0470768 108.227393 83.5230101 110 87.3045316 107.648666 92 90.6783862"></polygon>
                <polygon id="Fill-240" fill="#29235C" points="103 89 96.2182006 106.872227 96.4488108 112 91 108.772371 92.630817 106.403229 96.745605 90.0970113"></polygon>
                <polygon id="Fill-241" fill="#FED185" points="104.969362 78.9531701 114.620322 76 116 80.0366727 101 85"></polygon>
                <polygon id="Fill-242" fill="#FED185" points="84.1656818 76.3809182 75.4707084 71 73 74.8452893 87 84"></polygon>
                <path d="M89.3183794,72 C89.3183794,72 85.7673666,72.1051066 84,75.2999504 C84.1373601,77.3168071 84.0925909,83.5498265 84.0925909,83.5498265 L103.867357,86 L106,78.1229549 C106,78.1229549 104.757654,74.601884 102.222089,74.2875558 C99.6855055,73.9742191 89.3183794,72 89.3183794,72" id="Fill-243" fill="#FFFFFF"></path>
                <path d="M88.0256847,72 C88.0256847,72 87.5503784,74.0784725 90.6891043,75.4975143 C93.8278303,76.9154553 94.9394032,74.8821191 94.9394032,74.8821191 L95,74.3305753 L88.0256847,72 Z" id="Fill-244" fill="#ECECEC"></path>
                <path d="M103,75 C103,75 103.013462,76.6091051 99.3567634,76.9543253 C95.6990291,77.2987215 95,75.5825076 95,75.5825076 L95.0662783,75.1697264 L103,75 Z" id="Fill-245" fill="#ECECEC"></path>
                <path d="M130.780427,49.9396799 C128.744179,65.8059266 113.088387,76.9031396 95.8124416,74.7277035 C78.5375012,72.5512718 66.1833257,57.9255712 68.2195736,42.0603201 C70.2558216,26.1940734 85.9116132,15.0968604 103.186554,17.2722965 C120.462499,19.4487282 132.816675,34.0744288 130.780427,49.9396799" id="Fill-246" fill="#FED185"></path>
                <path d="M80.0534911,51.368446 C79.3134439,45.9863292 86.4406837,43.9676548 89.7789623,48.5165229 C90.9112144,50.0592002 91.4707869,52.2849181 90.5069107,55.4798839 C90.1308376,56.9352781 84.6329116,58.4292393 81.4136052,54.4030546 C80.6090307,53.3962547 80.1906116,52.3640818 80.0534911,51.368446" id="Fill-247" fill="#FFFFFF"></path>
                <path d="M81.9581363,48.7247135 C80.4252506,50.6804659 80.7682527,53.5093762 82.725085,55.0422085 C84.6809055,56.5750408 87.5089025,56.2310388 89.0417882,54.2752865 C90.5746739,52.3195341 90.2316718,49.4906238 88.2758513,47.9577915 C86.319019,46.4249592 83.491022,46.7689612 81.9581363,48.7247135" id="Fill-248" fill="#432918"></path>
                <path d="M116.623237,55.2450346 C118.579146,50.50257 112.485775,46.9641608 108.331028,50.3272779 C106.921468,51.4671553 105.879661,53.3675895 106.011207,56.5170994 C106.013127,57.9357199 110.728625,60.6082055 114.650045,57.6943341 C115.6304,56.9663452 116.261245,56.1224528 116.623237,55.2450346" id="Fill-249" fill="#FFFFFF"></path>
                <path d="M115.622871,52.6998164 C116.617296,54.9769804 115.577348,57.6294566 113.300184,58.6228707 C111.02302,59.6172964 108.370543,58.5773477 107.377129,56.3001836 C106.382704,54.0240312 107.422652,51.371555 109.699816,50.3771293 C111.97698,49.3827036 114.628445,50.4226523 115.622871,52.6998164" id="Fill-250" fill="#432918"></path>
                <path d="M81.0202886,48.1847667 C81.1947051,46.8151154 82.445582,45.8467291 83.8152333,46.0200756 C85.1848846,46.1944921 86.1532709,47.445369 85.9799244,48.8150203 C85.8055079,50.1846716 84.554631,51.1541279 83.1849797,50.9797114 C81.8153284,50.8052949 80.8458721,49.554418 81.0202886,48.1847667" id="Fill-251" fill="#FFFFFF"></path>
                <path d="M107.020289,53.1847667 C107.194705,51.8151154 108.445582,50.8467291 109.815233,51.0200756 C111.184885,51.1944921 112.153271,52.445369 111.979924,53.8150203 C111.805508,55.1846716 110.554631,56.1541279 109.18498,55.9797114 C107.815328,55.8052949 106.845872,54.554418 107.020289,53.1847667" id="Fill-252" fill="#FFFFFF"></path>
                <path d="M70.1593925,47.0656698 C70.1593925,47.0656698 66.4663431,44.1797747 64.5650384,47.9061444 C62.6637336,51.6335099 65.7488696,56.6185998 71,57 L70.1593925,47.0656698 Z" id="Fill-253" fill="#FED185"></path>
                <path d="M127.394078,55.4157201 C127.394078,55.4157201 131.883659,53.5644552 132.863242,57.6751864 C133.841781,61.7869433 129.432613,65.835111 124,64.8505047 L127.394078,55.4157201 Z" id="Fill-254" fill="#FED185"></path>
                <path d="M81,15.943472 C81,15.943472 86.3335472,57.0340494 131.68769,54.9212271 C134.839241,26.3218077 113.868884,7.75728992 81,15.943472" id="Fill-255" fill="#29235C"></path>
                <path d="M80.9612497,58.070267 C81.2252051,57.1376245 80.1126743,55.902214 78.4773881,55.3112808 C76.8421019,54.7193741 75.3027057,54.9968304 75.0387503,55.9294729 C74.7747949,56.8621153 75.8873257,58.0975259 77.5226119,58.6894326 C79.1578981,59.2803657 80.6972943,59.0029095 80.9612497,58.070267" id="Fill-256" fill="#FEA87F"></path>
                <path d="M116.000034,62.3778354 C115.99218,61.2929965 117.329425,60.2453396 118.986745,60.0364644 C120.643084,59.8275892 121.993093,60.5373275 121.999966,61.6210728 C122.00782,62.7059117 120.670575,63.7546622 119.014236,63.9635374 C117.356916,64.1724126 116.007889,63.4626743 116.000034,62.3778354" id="Fill-257" fill="#FEA87F"></path>
                <path d="M84.0975754,83 L79,95.9402258 C79,95.9402258 83.0715553,98.416297 91.7951902,99.5645904 C100.51784,100.711864 104,99.2290766 104,99.2290766 L103.252908,85.5199226 L84.0975754,83 Z" id="Fill-258" fill="#672483"></path>
                <path d="M68.2609212,46 C68.2609212,46 70.2034036,29.0591653 88,25.8760556 C86.6433134,14.9964129 81.4840395,18.5573631 81.4840395,18.5573631 C81.4840395,18.5573631 65.8058676,25.5641404 68.2609212,46" id="Fill-259" fill="#29235C"></path>
                <polygon id="Fill-260" fill="#634E42" points="84 83.6406747 84.0030601 83 104 85.380331 103.824552 86"></polygon>
                <path d="M128.848724,28.6554295 C127.968272,28.8437516 126.981403,29.0399204 125.921247,29.2331467 C114.112951,31.3949271 91.9811802,33.3164008 76.5396395,21.8395437 C75.370054,20.9705158 74.2376141,20.0279246 73.1523592,19 C72.2568483,19.8925681 71.428601,20.8783165 70.6947238,21.9739194 C70.4577948,22.3270233 70.2278935,22.686993 70,23.0479437 C70.6495466,23.9915157 71.4707663,25.0439615 72.496789,26.1591812 C73.7486973,27.519612 75.3088139,28.9712613 77.2433987,30.4327191 C78.9621373,29.1801811 80.9800488,28.0835974 83.3664048,27.2694968 C84.681561,30.2620522 86.5027011,33.6008456 88.9934664,36.8856925 C98.4043631,40.6246703 111.852087,43.3425894 131.000159,42.9649644 C131.659745,42.9522134 132.326359,42.9355391 133,42.9149413 C132.337402,37.9646211 131.052364,33.0662855 128.848724,28.6554295" id="Fill-261" fill="#4B3FB7"></path>
                <path d="M81,40 C81,40 84.9279271,34.3242584 92,38.4617965 C89.1354897,32.8974081 82.0664237,34.5022052 81,40" id="Fill-262" fill="#2D2E83"></path>
                <path d="M85,74 L84.0687135,83 L84,75.6553932 C84,75.6553932 84.3581871,74.6174117 85,74" id="Fill-263" fill="#ECECEC"></path>
                <path d="M118.994186,45 C118.994186,45 116.569083,39.0501337 109,40.93284 C112.932888,36.7588317 119.217922,39.9128347 118.994186,45" id="Fill-264" fill="#29235C"></path>
                <path d="M104,85 L105.035844,76 C105.035844,76 105.878442,76.9149029 106,77.8001974 L104,85 Z" id="Fill-265" fill="#ECECEC"></path>
                <polygon id="Fill-266" fill="#ECECEC" points="93 83.929195 94.3125361 75 95 75.070805 93.6874639 84"></polygon>
                <polygon id="Fill-267" fill="#ECECEC" points="103.92254 83 84 80.5795455 84.0774601 80 104 82.4204545"></polygon>
                <path d="M95.9365,77.5555 C95.9675,77.3145 95.7965,77.0945 95.5555,77.0635 C95.3145,77.0325 95.0935,77.2035 95.0635,77.4445 C95.0325,77.6855 95.2035,77.9055 95.4445,77.9365 C95.6855,77.9675 95.9055,77.7965 95.9365,77.5555" id="Fill-268" fill="#D9D9D9"></path>
                <path d="M95.9365,80.5555 C95.9675,80.3145 95.7965,80.0945 95.5555,80.0635 C95.3145,80.0325 95.0935,80.2035 95.0635,80.4445 C95.0325,80.6855 95.2035,80.9055 95.4445,80.9365 C95.6855,80.9675 95.9055,80.7965 95.9365,80.5555" id="Fill-269" fill="#D9D9D9"></path>
                <path d="M94.9365,83.5555 C94.9675,83.3145 94.7965,83.0935 94.5555,83.0635 C94.3145,83.0325 94.0935,83.2035 94.0635,83.4445 C94.0325,83.6855 94.2035,83.9055 94.4445,83.9365 C94.6855,83.9675 94.9055,83.7965 94.9365,83.5555" id="Fill-270" fill="#D9D9D9"></path>
                <polygon id="Fill-271" fill="#501B6D" points="85.958246 84 81 97.3998199 84.0348698 98 88 84.2404599"></polygon>
                <polygon id="Fill-272" fill="#501B6D" points="89.3034726 84 86 98.6657877 89.1404127 99 92 84.3371786"></polygon>
                <polygon id="Fill-273" fill="#501B6D" points="101.902082 86.2511308 103 101 100.11028 100.825829 100 86"></polygon>
                <polygon id="Fill-274" fill="#501B6D" points="98 85.3514785 97.4131868 101 94 100.532049 95.056044 85"></polygon>
                <path d="M84.5322298,108.566335 L85.6094057,108.632407 L85.31229,109.367593 L84.2676603,109.425275 C82.6686945,110.368117 82.9385134,111.476665 83.1946839,112 L90,107.981122 L88.828335,106 L84.5322298,108.566335 Z" id="Fill-275" fill="#1F70B7"></path>
                <path d="M83.1840721,112 L90,108.283358 L89.8190834,108 L83,111.717613 C83.092562,111.893256 83.1840721,112 83.1840721,112" id="Fill-276" fill="#2D2E83"></path>
                <path d="M96.9936232,110.522783 L96.06919,110.393435 L95.856795,109.686918 L96.8177189,109.703577 L93.1798686,107 L92,108.760902 L97.7674149,113 C98.0312713,112.530622 98.3475248,111.518373 96.9936232,110.522783" id="Fill-277" fill="#1F70B7"></path>
                <path d="M91.1839912,108 L91,108.302043 L96.8141217,113 C96.8141217,113 96.9037585,112.889179 97,112.70013 L91.1839912,108 Z" id="Fill-278" fill="#2D2E83"></path>
                <polygon id="Fill-279" fill="#38A8E0" points="88.6163043 105 84 107.473892 84.5521739 108 89 105.588177"></polygon>
                <polygon id="Fill-280" fill="#38A8E0" points="97 108.555455 93.3597025 106 93 106.511271 96.505071 109"></polygon>
                <path d="M67.0081283,55.8738807 C66.938296,56.4216015 67.3261598,56.9222066 67.8738807,56.9920389 C68.4216015,57.0610299 68.9222066,56.6740075 68.9920389,56.1262866 C69.0610299,55.5785657 68.6740075,55.0779606 68.1262866,55.0081283 C67.5785657,54.938296 67.0779606,55.3261598 67.0081283,55.8738807" id="Fill-281" fill="#FFFFFF"></path>
                <path d="M127.008128,62.8738807 C126.938296,63.4216015 127.32616,63.9222066 127.873881,63.9920389 C128.421602,64.0610299 128.922207,63.6740075 128.992039,63.1262866 C129.06103,62.5785657 128.674007,62.0779606 128.126287,62.0081283 C127.578566,61.938296 127.077961,62.3261598 127.008128,62.8738807" id="Fill-282" fill="#FFFFFF"></path>
                <path d="M102.309117,60.536071 C101.766879,61.4043405 100.153552,63.5600083 97.6546641,63.2164261 C95.4283303,62.9100998 94.3237703,61.0431652 93.872383,60 C93.0327262,60.4129196 92.4904877,61.3432822 93.724152,62.9763325 C93.7461476,63.0042745 93.7671868,63.0332513 93.7891824,63.0611932 C95.4197233,65.1475236 98.488583,65.5738967 100.919571,64.2244052 C101.873031,63.6945435 102.850399,62.9690883 102.966115,62.1742958 C103.104783,61.2263401 102.804496,60.7347692 102.309117,60.536071" id="Fill-283" fill="#E84E1B"></path>
                <path d="M98.0347994,62.9685993 C100.700521,63.2619486 102.42156,61.4223304 103,60.6801213 C102.171616,60.4132795 100.827023,60.7658288 99.9486511,61.2261751 C98.5102018,61.9798708 96.7350941,60.50959 95.8985491,60.1128615 C95.5384267,59.9414466 94.6784176,59.9555839 94,60.2224257 C94.4815235,61.1139602 95.6598277,62.707059 98.0347994,62.9685993" id="Fill-284" fill="#FFFFFF"></path>
                <polygon id="Fill-285" fill="#D50B52" points="73.4971731 34 70 28.4071514 71.2474922 27 75 32.0680589"></polygon>
                <path d="M70.3409543,29.8309314 C70.3409543,29.8309314 69.1675906,26.8669747 71.1742862,26.1423847 C73.1809817,25.4177946 72.3770855,27.6945009 72.3770855,27.6945009 C72.3770855,27.6945009 73.7625885,26.9598191 73.984878,28.2162461 C74.2081825,29.4726731 71.909161,30.3940529 70.3409543,29.8309314" id="Fill-286" fill="#E61E73"></path>
                <path d="M75.8574817,72.5307166 C75.8574817,72.5307166 76.3589058,70.3364856 75.4806946,68.7055245 C74.6024835,67.0745635 73.9457426,68.5111123 74.82683,70.5760855 C72.7281354,67.6567493 71.7195349,67.8038721 71.6648863,68.3093439 C71.5843517,69.042856 72.8489374,70.5056767 72.8489374,70.5056767 C72.8489374,70.5056767 71.5517543,68.9945157 70.7713353,69.2677437 C69.9918749,69.5420226 71.9275827,71.5555028 71.9275827,71.5555028 C71.9275827,71.5555028 70.5623287,70.3879785 70.0743271,70.7431749 C69.5863254,71.0973205 71.6610514,72.8543867 71.6610514,72.8543867 C71.6610514,72.8543867 70.7627065,72.2637939 70.440568,72.8165551 C70.1184294,73.3703673 72.7588153,75.4469001 74.7712227,74.9130546" id="Fill-287" fill="#FED185"></path>
                <path d="M115,77.0396311 C115,77.0396311 115.010458,74.8141415 116.220718,73.4951797 C117.430027,72.176218 117.738058,73.7205196 116.428924,75.452949 C119.100432,73.2326278 120.035935,73.6429944 119.97509,74.1391556 C119.888575,74.8585893 118.344614,75.9149991 118.344614,75.9149991 C118.344614,75.9149991 119.930406,74.8213772 120.617773,75.290663 C121.30609,75.7609824 118.993952,77.161604 118.993952,77.161604 C118.993952,77.161604 120.567385,76.4142613 120.957178,76.8835471 C121.34602,77.3517992 118.958776,78.4712628 118.958776,78.4712628 C118.958776,78.4712628 119.954174,78.1477244 120.139563,78.7617238 C120.324953,79.3746896 117.321645,80.6471363 115.508632,79.6010631" id="Fill-288" fill="#FED185"></path>
                <path d="M68.1479747,51.473278 C68.3148111,51.1045506 68.5494526,51.0729171 68.7653585,51.157932 C68.7261029,50.2286994 68.7394855,49.6533659 68.7394855,49.6533659 C68.7296716,49.6385378 68.7189655,49.6246981 68.7091516,49.6108585 C67.7268691,48.2605055 65.736431,49.3330772 66.0290637,51.0363409 C66.2556757,52.3550605 67.3717842,53.334709 69,54 C68.9384401,53.5017731 68.8911549,53.0292484 68.855468,52.5893457 C68.4138423,52.3748314 67.9088724,52.0021498 68.1479747,51.473278" id="Fill-289" fill="#DFAC63"></path>
                <path d="M128.509733,59.5436692 C128.424786,59.0954657 128.187322,58.9889075 127.940205,59.0141739 C128.208559,58.0254898 128.335013,57.4026188 128.335013,57.4026188 C128.348527,57.3905348 128.363007,57.3784509 128.376521,57.366367 C129.735667,56.2172963 131.559123,57.9837453 130.836112,59.727125 C130.277202,61.0750311 128.86786,61.7857851 127,62 C127.186303,61.4825886 127.350405,60.9882466 127.496165,60.5268606 C128.010672,60.4312878 128.631361,60.1863139 128.509733,59.5436692" id="Fill-290" fill="#DFAC63"></path>
                <path d="M83.927374,75.1757551 C83.927374,75.1757551 83.1833438,74.6725487 83.02573,75.3690599 C82.8681161,76.0645484 83.4869823,76.0461384 83.4661217,76.4664998 C83.445261,76.8878839 83.0388645,76.8919751 83.3301411,77.8820233 C83.6979068,78.5539879 83.6384152,78.9354837 83.3494565,79.5798333 C83.0597251,80.2231601 83.4220825,80.7181843 83.600557,81.2244589 C83.7798042,81.7297108 83.2575151,82.6911213 84,83 L83.927374,75.1757551 Z" id="Fill-291" fill="#FFFFFF"></path>
                <path d="M105.869692,78.0699786 C105.869692,78.0699786 106.973053,77.7621888 106.999277,78.4376165 C107.026473,79.1120942 106.277625,78.9040511 106.201866,79.2897384 C106.127078,79.6744757 106.621454,79.8027215 106.030923,80.603545 C105.42388,81.0946788 105.405426,81.4556669 105.604536,82.1244449 C105.803646,82.7922728 105.246138,83.1257118 104.908136,83.5256486 C104.570135,83.9255854 104.977096,84.9506016 104,85 L105.869692,78.0699786 Z" id="Fill-292" fill="#FFFFFF"></path>
                <path d="M9,168 L9,168 C7.34335296,168 6,166.546083 6,164.753086 L6,138 L12,138 L12,164.753086 C12,166.546083 10.656647,168 9,168" id="Fill-293" fill="#4D3E91"></path>
                <path d="M156,168 L156,168 C154.343353,168 153,166.546083 153,164.753086 L153,138 L159,138 L159,164.753086 C159,166.546083 157.657577,168 156,168" id="Fill-294" fill="#4D3E91"></path>
                <path d="M82,180 L82,180 C79.7905035,180 78,178.111417 78,175.783137 L78,154.21787 C78,151.888583 79.7905035,150 82,150 C84.2094965,150 86,151.888583 86,154.21787 L86,175.783137 C86,178.111417 84.2094965,180 82,180" id="Fill-295" fill="#4D3E91"></path>
                <path d="M163.560494,140.5 C163.560494,147.956042 126.980567,154 81.8562043,154 C36.7318414,154 0.151914509,147.956042 0.151914509,140.5 C0.151914509,138.941426 -0.81416997,134.283642 2.12617428,132.890492 C13.2531826,127.619842 46.1631911,127 81.8562043,127 C117.968121,127 151.610711,127.850041 162.40901,133.218351 C165.102822,134.557688 163.560494,139.011183 163.560494,140.5" id="Fill-296" fill="#4D3E91"></path>
                <path d="M164,136.5 C164,143.956042 127.511536,150 82.5,150 C37.4884641,150 1,143.956042 1,136.5 C1,129.043958 37.4884641,123 82.5,123 C127.511536,123 164,129.043958 164,136.5" id="Fill-297" fill="#FFF8DC"></path>
                <path d="M82,145 C46.4716655,145 20.4978753,141.268124 9.90061686,137.73147 C8.69979438,137.331168 8.69979438,135.669818 9.90061686,135.26853 C20.4978753,131.731876 46.4716655,128 82,128 C117.528334,128 143.502125,131.731876 154.099383,135.26853 C155.300206,135.669818 155.300206,137.331168 154.099383,137.73147 C143.502125,141.268124 117.528334,145 82,145" id="Fill-298" fill="#ED1C24"></path>
                <path d="M82,142 C54.7463142,142 34.8212159,139.585437 26.6908136,137.297087 C25.7697288,137.036893 25.7697288,135.962136 26.6908136,135.702913 C34.8212159,133.414563 54.7463142,131 82,131 C109.253686,131 129.178784,133.414563 137.309186,135.702913 C138.230271,135.962136 138.230271,137.036893 137.309186,137.297087 C129.178784,139.585437 109.253686,142 82,142" id="Fill-299" fill="#FFF8DC"></path>
                <path d="M82,139 C68.8593911,139 59.2531255,137.902417 55.3335785,136.862505 C54.8888072,136.744416 54.8888072,136.255584 55.3335785,136.138411 C59.2531255,135.097583 68.8593911,134 82,134 C95.1406089,134 104.746875,135.097583 108.666422,136.138411 C109.111193,136.255584 109.111193,136.744416 108.666422,136.862505 C104.746875,137.902417 95.1406089,139 82,139" id="Fill-300" fill="#ED1C24"></path>
                <path d="M46.848481,80.557784 C47.6445639,84.3400974 45.224787,88.0514739 41.4424077,88.8485282 C37.6600284,89.6445973 33.947602,87.2238774 33.151519,83.441564 C32.3554361,79.6592506 34.775213,75.9478741 38.5575923,75.151805 C42.3399716,74.3547507 46.052398,76.7754706 46.848481,80.557784" id="Fill-301" fill="#A55E5D"></path>
                <path d="M54.8160423,90.748931 C55.7827276,95.3421759 52.8436439,99.8483592 48.2513881,100.816043 C43.6581316,101.782726 39.1509361,98.8436494 38.1842508,94.2514053 C37.2165647,89.6581605 40.1566492,85.1509765 44.748905,84.1842936 C49.3421615,83.21661 53.8493569,86.1556862 54.8160423,90.748931" id="Fill-302" fill="#A55E5D"></path>
                <path d="M35,80.9098235 C35,80.9098235 31.1976237,65.6974528 26.68673,63.4499658 C22.1758364,61.2034808 24.0514392,67.8397298 27.1551387,72.930894 C30.2598223,78.0220582 34.6053952,82 34.6053952,82 L35,80.9098235 Z" id="Fill-303" fill="#A55E5D"></path>
                <path d="M32,77 C30.7032641,75.5041483 29.214639,73.6101419 27.9515331,71.536714 C25.8536103,68.0934326 25.0019782,65.1259208 25,64 C25.1275964,64.0433434 25.2967359,64.1108785 25.512364,64.218733 C27.7794263,65.3496937 30.3422354,71.6375126 32,77" id="Fill-304" fill="#F494A3"></path>
                <path d="M41,78.014193 C41,78.014193 40.6528254,62.0969664 36.9010696,58.832624 C33.1502598,55.5692978 33.5040563,62.5624299 35.3364191,68.3126322 C37.1697279,74.0638508 40.4002488,79 40.4002488,79 L41,78.014193 Z" id="Fill-305" fill="#A55E5D"></path>
                <path d="M39,74 C38.0781978,72.2797993 37.0589534,70.133258 36.2959818,67.8680138 C35.0263113,64.1051367 34.8509155,61.0782166 35.0925719,60 C35.2065792,60.0692433 35.3546912,60.1731082 35.5369079,60.3224758 C37.4691847,61.9121034 38.5683315,68.500106 39,74" id="Fill-306" fill="#F494A3"></path>
                <path d="M55.981358,100.623439 L50.7983372,96.6861091 C49.9430794,96.0362074 49.7431233,94.7595772 50.3538803,93.8495042 L50.3538803,93.8495042 C50.9646374,92.9394313 52.1633842,92.7266596 53.018642,93.3765612 L58.2016628,97.3138909 C59.0569206,97.9637926 59.2568767,99.2404228 58.6461197,100.150496 C58.0353626,101.060569 56.8366158,101.27334 55.981358,100.623439" id="Fill-307" fill="#A55E5D"></path>
                <path d="M47.3181916,105.491077 L46.0396404,99.2917197 C45.8294412,98.2696528 46.4764305,97.2564477 47.4772873,97.0408093 C48.4791083,96.8251709 49.4712872,97.4858712 49.6824506,98.5089228 L50.9600376,104.70828 C51.171201,105.730347 50.5242117,106.743552 49.5223907,106.959191 C48.5215339,107.174829 47.529355,106.514129 47.3181916,105.491077" id="Fill-308" fill="#A55E5D"></path>
                <path d="M35.2960718,97.0964511 L38.6333102,91.8505518 C39.184135,90.9851585 40.3256719,90.7388767 41.1699533,91.3034752 C42.0142347,91.8680738 42.2545083,93.0371822 41.7046332,93.9035489 L38.3664451,99.1494482 C37.81657,100.014842 36.6750331,100.261123 35.829802,99.6965248 C34.9855205,99.1319262 34.745247,97.9618444 35.2960718,97.0964511" id="Fill-309" fill="#A55E5D"></path>
                <path d="M49.5089228,84.3181916 L55.7082803,83.0396404 C56.7303472,82.8294412 57.7435523,83.4764305 57.9591907,84.4772873 C58.1748291,85.4791083 57.5141288,86.4712872 56.4910772,86.6824506 L50.2917197,87.9600376 C49.2696528,88.171201 48.2564477,87.5242117 48.0408093,86.5223907 C47.8251709,85.5215339 48.4858712,84.529355 49.5089228,84.3181916" id="Fill-310" fill="#A55E5D"></path>
                <path d="M39,82.341 C39.3306991,82.45 41,82.659 41,82.659" id="Stroke-311" stroke="#72391B" stroke-width="1.797" stroke-linecap="round"></path>
                <path d="M40.6425,82 L40.3575,84" id="Stroke-312" stroke="#72391B" stroke-width="1.797" stroke-linecap="round"></path>
                <path d="M52.8918228,92.9700918 C53.4603476,95.6717911 51.7316075,98.323298 49.0299082,98.8918228 C46.3282089,99.4603476 43.6776672,97.7316075 43.1081772,95.0299082 C42.5396524,92.3282089 44.2683925,89.6776672 46.9700918,89.1081772 C49.6717911,88.5396524 52.323298,90.2683925 52.8918228,92.9700918" id="Fill-313" fill="#F494A3"></path>
                <path d="M41.9783394,78.7940785 C42.0920547,79.3339821 41.7468109,79.8646653 41.2058948,79.9783832 C40.6660032,80.092101 40.1353317,79.7458251 40.0216164,79.2059215 C39.907901,78.6660179 40.2541693,78.1353347 40.794061,78.0216168 C41.3339526,77.907899 41.8646241,78.2541749 41.9783394,78.7940785" id="Fill-314" fill="#72391B"></path>
                <path d="M37.9783394,82.794061 C38.0920547,83.3339526 37.7468109,83.8646241 37.2058948,83.9783394 C36.6660032,84.0920547 36.1353317,83.7468109 36.0216164,83.2058948 C35.907901,82.6660032 36.2541693,82.1353317 36.794061,82.0216164 C37.3339526,81.907901 37.8646241,82.2541693 37.9783394,82.794061" id="Fill-315" fill="#72391B"></path>
            </g>
        </g>
    </g>
</svg>