<?xml version="1.0" encoding="UTF-8"?>
<svg width="114px" height="82px" viewBox="0 0 114 82" version="1.1" xmlns="http://www.w3.org/2000/svg" xmlns:xlink="http://www.w3.org/1999/xlink">
    <!-- Generator: Sketch 53.1 (72631) - https://sketchapp.com -->
    <title>Group 77Rocket</title>
    <desc>Created with Sketch.</desc>
    <g id="Page-1" stroke="none" stroke-width="1" fill="none" fill-rule="evenodd">
        <g id="Desktop-HD" transform="translate(-796.000000, -3407.000000)">
            <g id="Group-77" transform="translate(796.462000, 3407.716438)">
                <polygon id="Fill-1" fill="#CE3266" points="70.2735 41.6174625 69.1805 61.8514625 56.2725 70.6744625 53.4285 53.1274625"></polygon>
                <polygon id="Fill-2" fill="#CE3266" points="60.0533 26.4059625 41.0273 19.9269625 28.1213 28.7469625 43.2133 37.9149625"></polygon>
                <path d="M112.8447,1.40866247 C112.8447,1.40866247 71.3997,-12.1093375 31.0467,44.6066625 C31.0467,44.6066625 35.7087,48.3536625 38.3737,52.3316625 C41.0387,56.2976625 42.7637,62.0536625 42.7637,62.0536625 C109.9267,45.2576625 112.8447,1.40866247 112.8447,1.40866247" id="Fill-3" fill="#EE7D61"></path>
                <path d="M86.8532,33.0441625 C81.9962,36.3711625 75.3892,35.0901625 72.0962,30.1831625 C68.8032,25.2821625 70.0722,18.6211625 74.9322,15.2911625 C79.7912,11.9741625 86.3992,13.2551625 89.6892,18.1521625 C92.9802,23.0621625 91.7122,29.7241625 86.8532,33.0441625" id="Fill-5" fill="#231F20"></path>
                <path d="M87.4735,31.7097625 C82.6145,35.0277625 76.0075,33.7467625 72.7165,28.8487625 C69.4245,23.9387625 70.6935,17.2767625 75.5525,13.9597625 C80.4095,10.6307625 87.0175,11.9117625 90.3085,16.8217625 C93.5985,21.7177625 92.3295,28.3797625 87.4735,31.7097625" id="Fill-7" fill="#152C47"></path>
                <path d="M92.0231,24.3906625 C91.4321,26.9106625 89.9401,29.2216625 87.6481,30.7926625 C82.7891,34.1106625 76.1821,32.8286625 72.8911,27.9316625 C71.3391,25.6146625 70.7981,22.9096625 71.1751,20.3486625 C70.5111,23.1786625 70.9771,26.2576625 72.7171,28.8486625 C76.0071,33.7466625 82.6151,35.0276625 87.4731,31.7096625 C90.0381,29.9536625 91.6031,27.2676625 92.0231,24.3906625" id="Fill-9" fill="#0E2338"></path>
                <path d="M86.11,29.6825625 C82.365,32.2385625 77.268,31.2495625 74.726,27.4755625 C72.185,23.6875625 73.165,18.5425625 76.914,15.9885625 C80.663,13.4205625 85.76,14.4095625 88.297,18.1955625 C90.839,21.9695625 89.859,27.1145625 86.11,29.6825625" id="Fill-11" fill="#83D0E3"></path>
                <path d="M89.6766,23.5577625 C89.1546,25.3217625 88.0486,26.9207625 86.4236,28.0347625 C82.6786,30.5917625 77.5816,29.6027625 75.0396,25.8277625 C73.9376,24.1847625 73.5016,22.2867625 73.6626,20.4527625 C72.9796,22.7577625 73.2876,25.3327625 74.7256,27.4757625 C77.2676,31.2497625 82.3646,32.2377625 86.1096,29.6827625 C88.2306,28.2297625 89.4646,25.9547625 89.6766,23.5577625" id="Fill-13" fill="#19C0D1"></path>
                <path d="M95.1985,13.4685625 C97.9035,17.5005625 101.1255,20.7975625 104.4775,23.2015625 C112.1955,11.1465625 112.8445,1.40856247 112.8445,1.40856247 C112.8445,1.40856247 103.6395,-1.59643753 89.6775,1.17256247 C90.6475,5.20256247 92.4925,9.43956247 95.1985,13.4685625" id="Fill-15" fill="#E23365"></path>
                <path d="M61.4331,13.5268625 C60.0491,14.4908625 58.6511,15.5028625 57.2431,16.5938625 C57.2921,22.2618625 59.4131,28.9308625 63.5611,35.1098625 C67.7131,41.2768625 73.0591,45.7458625 78.2651,47.8868625 C79.7871,46.9728625 81.2381,46.0438625 82.6301,45.0908625 C77.3711,42.9808625 71.9491,38.4918625 67.7501,32.2408625 C63.5571,25.9898625 61.4301,19.2478625 61.4331,13.5268625" id="Fill-17" fill="#E23365"></path>
                <path d="M64.9664,34.1396625 C60.8334,27.9916625 58.6614,21.3676625 58.4934,15.6486625 C58.0774,15.9646625 57.6594,16.2706625 57.2434,16.5936625 C57.2914,22.2616625 59.4134,28.9306625 63.5614,35.1096625 C67.7134,41.2766625 73.0594,45.7456625 78.2644,47.8866625 C78.7164,47.6176625 79.1474,47.3426625 79.5854,47.0696625 C74.3964,44.7836625 69.1004,40.2966625 64.9664,34.1396625" id="Fill-19" fill="#B30000"></path>
                <path d="M63.9994,11.8161625 C63.6154,12.0711625 63.2284,12.3171625 62.8424,12.5701625 C62.9874,18.3031625 65.1564,24.9731625 69.3174,31.1681625 C73.4774,37.3661625 78.8094,41.8671625 84.0364,44.1271625 C84.4144,43.8631625 84.7874,43.5981625 85.1554,43.3221625 C79.9444,41.0551625 74.6234,36.5571625 70.4714,30.3751625 C66.3244,24.1961625 64.1504,17.5501625 63.9994,11.8161625" id="Fill-21" fill="#E23365"></path>
                <path d="M69.8711,30.7897625 C65.7321,24.6247625 63.5411,17.9987625 63.3201,12.2617625 C63.1601,12.3677625 63.0001,12.4737625 62.8431,12.5697625 C62.9881,18.3027625 65.1561,24.9727625 69.3181,31.1687625 C73.4771,37.3657625 78.8091,41.8677625 84.0361,44.1267625 C84.1921,44.0187625 84.3411,43.9097625 84.4981,43.7957625 C79.2981,41.4627625 74.0111,36.9537625 69.8711,30.7897625" id="Fill-23" fill="#B30000"></path>
                <path d="M27.31,53.1666625 C21.094,52.6896625 15.17,57.1666625 15.17,57.1666625 L19.34,56.2476625 L-2.84217094e-14,71.8406625 L21.514,59.4876625 L19.129,63.0596625 C19.129,63.0596625 25.44,59.1636625 27.31,53.1666625" id="Fill-25" fill="#F79E3C"></path>
                <path d="M33.5034,62.3942625 C27.2914,61.9192625 21.3674,66.3832625 21.3674,66.3832625 L25.5374,65.4772625 L6.1964,81.0672625 L27.7084,68.7152625 L25.3264,72.2882625 C25.3264,72.2882625 31.6374,68.3842625 33.5034,62.3942625" id="Fill-27" fill="#F79E3C"></path>
                <path d="M35.3738,47.8552625 C34.3488,46.3292625 33.0298,44.8392625 31.7928,43.5822625 C31.5418,43.9272625 31.2938,44.2592625 31.0468,44.6072625 C31.0468,44.6072625 34.1528,47.1102625 36.7438,50.1872625 C36.3228,49.3762625 35.8668,48.5912625 35.3738,47.8552625" id="Fill-29" fill="#231F20"></path>
                <polygon id="Fill-31" fill="#E23365" points="50.5292 29.4629625 31.4992 22.9869625 18.5932 31.8069625 33.6862 40.9739625"></polygon>
                <polygon id="Fill-33" fill="#E23365" points="63.9298 49.4053625 62.8328 69.6423625 49.9258 78.4713625 47.0858 60.9273625"></polygon>
                <path d="M28.8913,52.5945625 C29.6743,53.7655625 30.3963,54.9425625 31.0593,56.1395625 C31.1443,56.0895625 31.2263,56.0395625 31.3093,55.9815625 L38.8063,50.8575625 C40.7383,49.5375625 41.2493,46.8575625 39.9393,44.9075625 C38.6283,42.9585625 35.9723,42.4435625 34.0423,43.7635625 L26.5433,48.8885625 C26.4573,48.9495625 26.3783,49.0175625 26.2983,49.0825625 C27.1963,50.1935625 28.0673,51.3575625 28.8913,52.5945625" id="Fill-35" fill="#152C47"></path>
                <path d="M40.5596,48.2326625 C40.3216,48.5096625 40.0476,48.7616625 39.7336,48.9856625 L32.2336,54.1096625 C32.1556,54.1666625 32.0686,54.2176625 31.9856,54.2556625 C31.3196,53.0716625 30.6056,51.8826625 29.8176,50.7126625 C29.1856,49.7696625 28.5286,48.8656625 27.8546,47.9996625 L26.5436,48.8886625 C26.4566,48.9496625 26.3786,49.0166625 26.2976,49.0826625 C27.1966,50.1936625 28.0666,51.3576625 28.8916,52.5946625 C29.6736,53.7656625 30.3956,54.9426625 31.0586,56.1396625 C31.1446,56.0896625 31.2256,56.0396625 31.3096,55.9816625 L38.8056,50.8576625 C39.7386,50.2206625 40.3376,49.2606625 40.5596,48.2326625" id="Fill-37" fill="#0E4361"></path>
                <path d="M29.6071,52.0998625 C28.7791,50.8768625 27.9121,49.7028625 27.0131,48.5878625 C27.0951,48.5228625 27.1721,48.4548625 27.2571,48.4068625 L26.5431,48.8878625 C26.4571,48.9498625 26.3791,49.0168625 26.2981,49.0828625 C27.1971,50.1928625 28.0671,51.3578625 28.8911,52.5948625 C29.6741,53.7658625 30.3961,54.9428625 31.0591,56.1398625 C31.1451,56.0898625 31.2261,56.0388625 31.3091,55.9818625 L32.0211,55.4998625 C31.9401,55.5488625 31.8591,55.5958625 31.7751,55.6458625 C31.1091,54.4608625 30.3911,53.2718625 29.6071,52.0998625" id="Fill-39" fill="#0E4361"></path>
                <polygon id="Fill-41" fill="#E23365" points="36.9123 52.1493625 32.1483 45.0563625 34.0213 43.7773625 38.7873 50.8713625"></polygon>
                <polygon id="Fill-43" fill="#B30000" points="38.216 50.0222625 36.34 51.3012625 36.912 52.1492625 38.787 50.8712625"></polygon>
                <polygon id="Fill-45" fill="#E23365" points="35.4016 53.1827625 30.6376 46.0887625 31.5746 45.4487625 36.3386 52.5437625"></polygon>
                <polygon id="Fill-47" fill="#B30000" points="35.7644 51.6958625 34.8294 52.3338625 35.4014 53.1828625 36.3384 52.5428625"></polygon>
                <path d="M34.7376,61.2969625 C35.5216,62.4569625 36.2406,63.6479625 36.9046,64.8439625 C36.9866,64.7919625 37.0706,64.7439625 37.1536,64.6859625 L44.6496,59.5619625 C46.5816,58.2419625 47.0926,55.5599625 45.7826,53.6109625 C44.4726,51.6629625 41.8176,51.1479625 39.8846,52.4679625 L32.3896,57.5919625 C32.3026,57.6539625 32.2216,57.7199625 32.1436,57.7849625 C33.0426,58.8899625 33.9106,60.0619625 34.7376,61.2969625" id="Fill-49" fill="#152C47"></path>
                <path d="M46.4041,56.9363625 C46.1661,57.2133625 45.8931,57.4643625 45.5741,57.6883625 L38.0781,62.8143625 C37.9961,62.8703625 37.9161,62.9083625 37.8311,62.9583625 C37.1661,61.7743625 36.4481,60.5863625 35.6641,59.4133625 C35.0321,58.4723625 34.3751,57.5703625 33.6951,56.7003625 L32.3901,57.5923625 C32.3031,57.6543625 32.2211,57.7203625 32.1431,57.7843625 C33.0431,58.8893625 33.9111,60.0623625 34.7371,61.2973625 C35.5221,62.4573625 36.2411,63.6473625 36.9041,64.8433625 C36.9861,64.7923625 37.0711,64.7433625 37.1531,64.6853625 L44.6491,59.5623625 C45.5821,58.9253625 46.1801,57.9653625 46.4041,56.9363625" id="Fill-51" fill="#0E4361"></path>
                <path d="M35.4508,60.8027625 C34.6248,59.5757625 33.7568,58.4067625 32.8578,57.2927625 C32.9358,57.2257625 33.0168,57.1597625 33.1018,57.1077625 L32.3898,57.5927625 C32.3028,57.6537625 32.2208,57.7197625 32.1428,57.7847625 C33.0428,58.8897625 33.9108,60.0617625 34.7378,61.2967625 C35.5218,62.4567625 36.2408,63.6477625 36.9038,64.8437625 C36.9858,64.7927625 37.0708,64.7437625 37.1528,64.6857625 L37.8658,64.2027625 C37.7848,64.2507625 37.7038,64.2987625 37.6178,64.3497625 C36.9538,63.1617625 36.2338,61.9767625 35.4508,60.8027625" id="Fill-53" fill="#0E4361"></path>
                <polygon id="Fill-55" fill="#E23365" points="42.7542 60.8535625 37.9902 53.7595625 39.8672 52.4805625 44.6312 59.5725625"></polygon>
                <polygon id="Fill-57" fill="#B30000" points="44.0564 58.7255625 42.1834 60.0065625 42.7544 60.8535625 44.6314 59.5735625"></polygon>
                <polygon id="Fill-59" fill="#E23365" points="41.2432 61.8869625 36.4802 54.7929625 37.4182 54.1539625 42.1822 61.2469625"></polygon>
                <polygon id="Fill-61" fill="#B30000" points="41.6101 60.3986625 40.6721 61.0386625 41.2431 61.8866625 42.1821 61.2466625"></polygon>
            </g>
        </g>
    </g>
</svg>