<?xml version="1.0" encoding="UTF-8"?>
<svg width="114px" height="131px" viewBox="0 0 114 131" version="1.1" xmlns="http://www.w3.org/2000/svg" xmlns:xlink="http://www.w3.org/1999/xlink">
    <!-- Generator: Sketch 53.1 (72631) - https://sketchapp.com -->
    <title>Group 64telescope</title>
    <desc>Created with Sketch.</desc>
    <defs>
        <polygon id="path-1" points="0 0.8334 29.6288 0.8334 29.6288 19.4044 0 19.4044"></polygon>
    </defs>
    <g id="Page-1" stroke="none" stroke-width="1" fill="none" fill-rule="evenodd">
        <g id="Desktop-HD" transform="translate(-428.000000, -3189.000000)">
            <g id="Group-64" transform="translate(428.000000, 3189.430552)">
                <g id="Group-195" transform="translate(0.000000, 41.589448)">
                    <mask id="mask-2" fill="white">
                        <use xlink:href="#path-1"></use>
                    </mask>
                    <g id="Clip-194"></g>
                    <path d="M29.6288,7.4414 C28.3718,9.6104 27.0078,11.6934 25.6058,13.7474 L25.2798,14.2254 L24.6178,13.9754 L23.6888,13.6254 L24.6328,13.5124 C23.7158,14.3904 22.7628,15.2224 21.8238,16.0734 C20.8888,16.9284 19.9278,17.7514 18.9678,18.5744 L17.9988,19.4044 L17.1318,18.3624 C16.5038,17.6094 15.8638,16.8654 15.2468,16.1044 L13.4078,13.8104 L12.4918,12.6674 L13.6948,11.7784 L14.7398,11.0054 L14.2728,12.7664 C13.5518,11.2194 12.8578,9.6594 12.1798,8.0924 C11.4878,6.5324 10.8608,4.9424 10.1988,3.3684 L12.1418,3.8194 C11.1778,4.5744 10.1738,5.2794 9.1888,6.0084 C8.2068,6.7394 7.1988,7.4404 6.1908,8.1414 C4.1758,9.5434 2.1318,10.9104 -0.0002,12.1704 C1.6498,10.3244 3.3868,8.5834 5.1528,6.8774 C6.0358,6.0254 6.9178,5.1714 7.8258,4.3494 C8.7318,3.5254 9.6178,2.6754 10.5448,1.8774 L11.7558,0.8334 L12.4878,2.3284 C13.2388,3.8614 14.0258,5.3784 14.7458,6.9264 C15.4818,8.4664 16.1998,10.0154 16.8918,11.5754 L17.3748,12.6664 L16.4248,13.3364 L15.3618,14.0864 L15.6488,12.0544 L17.4358,14.3894 C18.0268,15.1714 18.5958,15.9704 19.1768,16.7604 L17.3408,16.5484 C18.3528,15.7884 19.3628,15.0274 20.4008,14.3004 C21.4338,13.5674 22.4518,12.8164 23.5078,12.1114 L24.0328,11.7604 L24.4518,11.9984 L25.3148,12.4884 L24.3268,12.7164 C26.0338,10.9094 27.7778,9.1324 29.6288,7.4414" id="Fill-193" fill="#FCF4C9" mask="url(#mask-2)"></path>
                </g>
                <path d="M46.3189,27.3373481 L46.3299,27.3313481 L46.3299,27.3313481 C46.8929,26.8623481 47.1379,26.1773481 47.1409,25.5213481 C47.1499,24.8553481 46.9519,24.1963481 46.6949,23.5753481 C46.1889,22.3163481 45.3589,21.1953481 44.4919,20.1553481 C43.6039,19.1313481 42.5739,18.2163481 41.4979,17.5433481 C40.9629,17.2143481 40.3959,16.9603481 39.9049,16.8743481 C39.3859,16.7773481 39.1369,16.9213481 38.9319,17.0803481 L38.6899,17.2683481 L38.3999,17.3393481 L38.3989,17.3393481 L38.8719,17.1273481 C38.2389,17.6153481 37.6879,18.0573481 37.1129,18.5733481 L35.3719,20.1363481 C34.2049,21.1863481 33.0079,22.2043481 31.8259,23.2383481 L32.0189,21.2713481 L32.0249,21.2803481 L31.7989,23.2753481 C31.8569,23.2293481 31.8279,23.2473481 31.8069,23.2893481 C31.7829,23.3313481 31.7519,23.3963481 31.7249,23.4713481 C31.6699,23.6223481 31.6329,23.8163481 31.6179,24.0253481 L31.5709,24.6853481 L31.0109,25.0863481 L31.0089,25.0883481 L31.6129,24.0503481 C31.5969,24.2693481 31.6329,24.7013481 31.6969,25.0493481 L31.4619,24.5013481 L31.4639,24.5033481 L31.6219,24.7333481 L31.6999,25.0583481 L31.7019,25.0653481 L33.2579,31.5443481 L29.1539,26.2343481 L29.1509,26.2303481 L31.2619,26.3973481 C29.4869,27.9923481 27.7409,29.6193481 25.9429,31.1893481 L25.3719,31.6873481 L24.7119,31.5113481 L24.1429,31.3593481 L25.3379,31.0593481 L22.7609,33.2163481 C21.9049,33.9393481 21.0199,34.6293481 20.1509,35.3373481 L20.3909,35.0333481 C20.4559,34.8963481 20.4249,34.9453481 20.4339,34.9233481 C20.4329,34.9183481 20.4299,34.9233481 20.4269,34.9293481 C20.4209,34.9443481 20.4139,34.9733481 20.4089,35.0063481 C20.3999,35.0753481 20.3979,35.1653481 20.4069,35.2643481 L20.4629,35.8813481 L20.0819,36.2063481 C19.2499,36.9173481 18.3999,37.6093481 17.5479,38.2973481 L17.8009,37.8703481 C17.6449,38.3283481 17.6339,38.8553481 17.8009,39.3043481 C17.9599,39.7583481 18.3069,40.1553481 18.8009,40.4333481 L18.9779,40.5543481 C18.8989,40.4613481 18.7339,40.3963481 18.6139,40.4103481 L18.8499,40.4613481 L19.5519,40.7763481 L19.1879,40.8223481 C20.2319,40.3653481 21.2809,39.9183481 22.3389,39.4883481 L22.3949,39.4653481 L22.4169,39.4683481 L22.4239,39.4693481 L22.4739,39.4753481 L22.4849,39.4803481 C22.6759,39.5833481 22.8689,39.6863481 23.0679,39.7003481 C23.2669,39.7123481 23.4809,39.6003481 23.6909,39.5243481 C23.5029,39.6463481 23.3359,39.8083481 23.0809,39.8613481 C22.8259,39.9033481 22.5879,39.8373481 22.3639,39.7803481 L22.4239,39.7923481 L22.4169,39.7933481 L22.4949,39.7733481 C21.5619,40.4323481 20.6189,41.0733481 19.6709,41.7053481 L19.5179,41.8073481 L19.3069,41.7513481 L18.3759,41.5073481 L18.6119,41.5583481 C18.4619,41.5583481 18.2689,41.4783481 18.1619,41.3723481 L18.3389,41.4923481 C17.6099,41.2353481 16.8759,40.7093481 16.4669,39.9393481 C16.0569,39.1763481 15.9549,38.2903481 16.1149,37.4503481 L16.1529,37.2503481 L16.3679,37.0223481 C17.1199,36.2263481 17.8749,35.4323481 18.6479,34.6583481 L18.3229,35.6003481 C18.2829,35.3933481 18.2559,35.1733481 18.2569,34.9313481 C18.2579,34.8093481 18.2649,34.6833481 18.2859,34.5453481 C18.2969,34.4753481 18.3099,34.4053481 18.3309,34.3253481 C18.3609,34.2293481 18.3539,34.2043481 18.4539,33.9973481 L18.5179,33.8623481 L18.6939,33.6933481 C19.5009,32.9153481 20.2929,32.1203481 21.1129,31.3573481 L23.5649,29.0593481 L24.0439,28.6103481 L24.7609,28.7593481 L25.3369,28.8793481 L24.1069,29.2013481 C25.8139,27.5333481 27.5739,25.9213481 29.3049,24.2783481 L30.4269,23.2133481 L31.4159,24.4453481 L31.4189,24.4493481 L28.8709,25.6183481 L28.8689,25.6103481 L29.1059,26.1653481 L29.1039,26.1623481 L28.9269,25.9173481 L28.8679,25.6133481 C28.7539,25.0273481 28.6799,24.5023481 28.7429,23.7693481 L28.7999,23.1093481 L29.3479,22.7313481 L29.3499,22.7293481 L28.7439,23.7903481 C28.7839,23.3563481 28.8699,22.9123481 29.0449,22.4593481 C29.2389,22.0023481 29.4299,21.5553481 30.0189,21.0523481 L29.7929,23.0473481 L29.7859,23.0393481 L28.9329,21.9403481 L29.9789,21.0723481 C31.1859,20.0693481 32.3759,19.0473481 33.5959,18.0573481 L35.4459,16.5733481 C36.0679,16.0733481 36.7719,15.5703481 37.4079,15.1353481 L37.6589,14.9633481 L37.8809,14.9223481 L37.8819,14.9223481 L37.3499,15.1813481 C38.2649,14.4283481 39.5819,14.3633481 40.4349,14.6443481 C41.3339,14.9043481 42.0429,15.3433481 42.6829,15.8173481 C43.9639,16.7683481 44.9189,17.9613481 45.7619,19.2013481 C46.5879,20.4533481 47.2339,21.8293481 47.5799,23.3043481 C47.7299,24.0443481 47.8029,24.8233481 47.6409,25.5823481 C47.4809,26.3423481 46.9809,27.0203481 46.3319,27.3333481 L46.3309,27.3343481 L46.3189,27.3373481 Z" id="Fill-196" fill="#FCF4C9"></path>
                <path d="M110.3394,29.1014481 L110.3664,29.0904481 L110.3664,29.0904481 C111.7624,28.2004481 112.5404,26.6944481 112.7434,25.1614481 C112.9314,23.6074481 112.6754,22.0264481 112.2714,20.5094481 C111.4064,17.4704481 109.9094,14.6184481 108.1424,11.9984481 C106.3634,9.39144809 104.2884,6.94344809 101.8654,5.06444809 C100.6694,4.12644809 99.3674,3.32944809 98.0544,2.92744809 C96.7234,2.49944809 95.5364,2.68044809 94.6084,3.33444809 L94.3104,3.54444809 L93.9634,3.58944809 L93.9624,3.58944809 L94.5214,3.39244809 C92.9904,4.34344809 91.5614,5.26344809 90.1284,6.30844809 L85.8134,9.45744809 L77.1074,15.7124481 L77.4454,13.8074481 L77.4594,13.8284481 L78.2014,14.9444481 L77.1394,15.7194481 C76.9154,15.8834481 76.6544,16.1844481 76.4404,16.5104481 C76.2244,16.8414481 76.0484,17.2134481 75.9214,17.5994481 L75.7664,18.0694481 L75.4064,18.3144481 C72.1734,20.5124481 68.9624,22.7404481 65.6984,24.8944481 C62.4554,27.0764481 59.1804,29.2144481 55.9024,31.3484481 L55.6104,31.5394481 L55.3284,31.4684481 C55.1224,31.4164481 54.8224,31.3864481 54.5454,31.3894481 C54.2634,31.3914481 53.9784,31.4194481 53.7204,31.4774481 L53.8664,31.4144481 L53.8604,31.4174481 L53.7444,31.4794481 L53.7004,31.4844481 C53.0204,31.5764481 52.2754,32.2244481 51.5114,32.7214481 L49.2294,34.2984481 L46.9314,35.8564481 C46.1894,36.3284481 45.5754,37.0764481 45.2964,37.9544481 C45.4514,37.0404481 45.9644,36.1764481 46.6954,35.5484481 L48.7894,33.7284481 L50.8884,31.9144481 C51.2434,31.6134481 51.5944,31.3134481 51.9714,31.0154481 C52.1634,30.8664481 52.3594,30.7164481 52.5984,30.5724481 C52.8384,30.4254481 53.1384,30.3134481 53.3664,30.2444481 L53.2074,30.3114481 L53.2134,30.3074481 L53.2584,30.2774481 L53.3594,30.2434481 C53.7284,30.1214481 54.0924,30.0524481 54.4614,30.0124481 C54.8344,29.9794481 55.1924,29.9594481 55.6274,30.0314481 L55.0544,30.1504481 C58.1574,27.7694481 61.2614,25.3894481 64.4014,23.0604481 C67.5204,20.7014481 70.6924,18.4164481 73.8424,16.1024481 L73.3274,16.8164481 C73.5074,16.2004481 73.7614,15.6074481 74.0994,15.0474481 C74.4424,14.4874481 74.8584,13.9664481 75.4674,13.4914481 L75.1474,15.3824481 L75.1334,15.3624481 L74.3814,14.2564481 L75.4724,13.4574481 L84.1134,7.11644809 L88.4904,3.99444809 C89.9564,2.94844809 91.5434,1.94944809 93.0584,1.03244809 L93.3274,0.869448088 L93.6174,0.834448088 L93.6194,0.834448088 L92.9754,1.08944809 C93.8534,0.529448088 94.8754,0.0624480883 95.9244,0.0344480883 C96.4504,-0.0545519117 96.9404,0.0544480883 97.4454,0.0764480883 C97.9184,0.177448088 98.4054,0.268448088 98.8474,0.424448088 C100.6314,1.04144809 102.0994,2.05144809 103.4224,3.15144809 C106.0434,5.39444809 108.0684,8.10544809 109.7904,10.9614481 C111.4314,13.8604481 112.8174,16.9424481 113.3984,20.2584481 C113.6824,21.9044481 113.7834,23.6274481 113.3744,25.2834481 C112.9834,26.9374481 111.8644,28.4224481 110.3684,29.0934481 L110.3674,29.0944481 L110.3394,29.1014481 Z" id="Fill-198" fill="#FCF4C9"></path>
                <path d="M60.3719,71.3182481 L60.3689,71.3352481 L60.3639,71.3072481 L61.2309,69.8692481 L59.8069,71.5512481 L59.8109,71.5482481 L61.2409,72.7592481 C61.0419,72.2782481 60.7519,71.7892481 60.3719,71.3182481 L60.3719,71.3182481 Z M60.3719,71.3182481 C60.5679,70.8452481 60.8539,70.3542481 61.2309,69.8712481 L62.6609,71.0822481 L62.6659,71.0842481 L61.2419,72.7662481 L60.3639,71.3362481 L60.3359,71.2912481 L60.3579,71.3082481 L60.3719,71.3182481 Z" id="Fill-200" fill="#FCF4C9"></path>
                <path d="M65.1836,71.3030481 C66.8266,70.9650481 68.1016,70.3220481 69.0116,69.8400481 L69.0216,72.7370481 L65.1836,71.3030481 Z M65.1836,71.3030481 L69.0116,69.8400481 L69.0226,72.7370481 C67.3766,72.2640481 66.0956,71.6310481 65.1836,71.3030481 L65.1836,71.3030481 Z" id="Fill-202" fill="#FCF4C9"></path>
                <polygon id="Fill-204" fill="#330A32" points="65.7917 77.4333481 63.5497 128.115348 61.2927 128.115348 60.7197 77.4333481"></polygon>
                <polygon id="Fill-206" fill="#F79E3C" points="69.1331 71.2880481 70.5681 73.9050481 55.9441 73.9050481 57.2241 71.3330481"></polygon>
                <path d="M39.9196,62.6917481 C39.8736,62.6917481 39.8436,62.6607481 39.8126,62.6307481 C39.6756,62.5237481 39.5836,62.2957481 39.5836,62.0517481 C39.5836,61.8077481 39.6756,61.5787481 39.8126,61.4717481 C39.8736,61.4107481 39.9496,61.3807481 40.0266,61.3807481 C40.2856,61.3807481 40.4836,61.6857481 40.4836,62.0517481 C40.4836,62.2187481 40.4376,62.3717481 40.3616,62.4787481 L40.3616,62.4937481 C40.2856,62.6307481 40.1636,62.7227481 40.0266,62.7227481 C39.9956,62.7227481 39.9656,62.7227481 39.9346,62.6917481 L39.9196,62.6917481 Z M41.6276,65.9237481 C41.4896,65.8177481 41.3986,65.6037481 41.3986,65.3597481 C41.3986,65.1007481 41.4896,64.8717481 41.6276,64.7807481 C41.6886,64.7047481 41.7646,64.6737481 41.8406,64.6737481 C42.0996,64.6737481 42.2976,64.9787481 42.2976,65.3597481 C42.2976,65.7257481 42.0996,66.0157481 41.8406,66.0157481 C41.7646,66.0157481 41.6886,65.9847481 41.6276,65.9237481 L41.6276,65.9237481 Z M42.2976,58.5447481 C42.2976,58.9107481 42.0996,59.2157481 41.8406,59.2157481 C41.7646,59.2157481 41.6886,59.1847481 41.6276,59.1237481 C41.4896,59.0177481 41.3986,58.7887481 41.3986,58.5447481 C41.3986,58.3007481 41.4896,58.0717481 41.6276,57.9657481 C41.6886,57.9047481 41.7646,57.8737481 41.8406,57.8737481 C42.0996,57.8737481 42.2976,58.1787481 42.2976,58.5447481 L42.2976,58.5447481 Z M44.4026,61.9297481 C44.4026,62.2797481 44.1886,62.5847481 43.9446,62.5847481 C43.8686,62.5847481 43.7926,62.5547481 43.7316,62.4937481 C43.5936,62.3867481 43.4876,62.1737481 43.4876,61.9297481 C43.4876,61.6707481 43.5936,61.4417481 43.7316,61.3497481 C43.7926,61.2737481 43.8686,61.2437481 43.9446,61.2437481 C44.1886,61.2437481 44.4026,61.5477481 44.4026,61.9297481 L44.4026,61.9297481 Z M39.1576,61.7157481 C39.1576,61.8077481 39.1576,61.8837481 39.1726,61.9747481 C39.1576,62.0357481 39.1726,62.1127481 39.1726,62.1737481 C39.1726,62.2187481 39.1876,62.2647481 39.1876,62.3107481 C39.2026,62.5547481 39.2336,62.7837481 39.2636,63.0117481 C39.5836,64.8877481 40.6056,66.2897481 41.8406,66.4427481 C41.9016,66.4577481 41.9776,66.4577481 42.0546,66.4577481 C43.6706,66.4577481 44.9666,64.3387481 44.9666,61.7157481 C44.9666,61.2277481 44.9206,60.7707481 44.8446,60.3287481 C44.5546,58.7887481 43.7926,57.5837481 42.8316,57.1567481 C42.5876,57.0507481 42.3286,56.9897481 42.0546,56.9897481 C41.9776,56.9897481 41.9016,56.9897481 41.8406,57.0047481 C41.0176,57.0957481 40.3006,57.7517481 39.8286,58.7127481 C39.6756,58.9867481 39.5536,59.2917481 39.4626,59.6117481 C39.2636,60.2527481 39.1576,60.9687481 39.1576,61.7157481 L39.1576,61.7157481 Z" id="Fill-208" fill="#F79E3C"></path>
                <path d="M43.0604,61.9294481 C43.0604,61.5484481 43.2734,61.2434481 43.5174,61.2434481 C43.5944,61.2434481 43.6704,61.2734481 43.7314,61.3504481 C43.8684,61.4414481 43.9754,61.6704481 43.9754,61.9294481 C43.9754,62.1734481 43.8684,62.3864481 43.7314,62.4934481 C43.6704,62.5544481 43.5944,62.5854481 43.5174,62.5854481 C43.2734,62.5854481 43.0604,62.2804481 43.0604,61.9294481 L43.0604,61.9294481 Z M41.4444,57.8734481 C41.5204,57.8894481 41.5814,57.9194481 41.6274,57.9654481 C41.7794,58.0724481 41.8714,58.3004481 41.8714,58.5444481 C41.8714,58.7884481 41.7794,59.0174481 41.6274,59.1244481 C41.5814,59.1854481 41.5054,59.2154481 41.4134,59.2154481 C41.1694,59.2154481 40.9564,58.9104481 40.9564,58.5444481 C40.9564,58.3464481 41.0174,58.1634481 41.1244,58.0414481 C41.2004,57.9344481 41.3074,57.8734481 41.4134,57.8734481 L41.4444,57.8734481 Z M41.6274,65.9244481 C41.5814,65.9854481 41.5054,66.0154481 41.4134,66.0154481 C41.1694,66.0154481 40.9564,65.7254481 40.9564,65.3604481 C40.9564,64.9784481 41.1694,64.6734481 41.4134,64.6734481 C41.4904,64.6734481 41.5664,64.7044481 41.6274,64.7804481 C41.7794,64.8724481 41.8714,65.1004481 41.8714,65.3604481 C41.8714,65.6044481 41.7794,65.8174481 41.6274,65.9244481 L41.6274,65.9244481 Z M39.1724,61.9754481 C39.1874,61.6394481 39.3704,61.3804481 39.5994,61.3804481 C39.6904,61.3804481 39.7674,61.4114481 39.8124,61.4724481 C39.9654,61.5784481 40.0564,61.8074481 40.0564,62.0514481 C40.0564,62.2954481 39.9654,62.5244481 39.8124,62.6304481 C39.7674,62.6914481 39.6904,62.7224481 39.5994,62.7224481 C39.4164,62.7224481 39.2644,62.5544481 39.1874,62.3104481 C39.1874,62.2654481 39.1724,62.2194481 39.1724,62.1734481 C39.1574,62.1424481 39.1574,62.0974481 39.1574,62.0514481 C39.1574,62.0204481 39.1574,61.9904481 39.1724,61.9754481 L39.1724,61.9754481 Z M38.7154,61.7164481 C38.7154,62.2344481 38.7604,62.7374481 38.8524,63.2104481 C39.2484,65.1004481 40.3464,66.4574481 41.6274,66.4574481 C41.7034,66.4574481 41.7794,66.4574481 41.8404,66.4424481 C43.3504,66.2594481 44.5394,64.2164481 44.5394,61.7164481 C44.5394,61.3044481 44.5084,60.9074481 44.4474,60.5264481 C44.2044,59.0174481 43.5024,57.7974481 42.6034,57.2794481 C42.3594,57.1264481 42.1154,57.0354481 41.8404,57.0044481 C41.7794,56.9894481 41.7034,56.9894481 41.6274,56.9894481 C40.6364,56.9894481 39.7674,57.7974481 39.2334,59.0174481 C39.1874,59.1394481 39.1264,59.2764481 39.0814,59.4134481 C38.8524,60.0994481 38.7154,60.8924481 38.7154,61.7164481 L38.7154,61.7164481 Z" id="Fill-210" fill="#330A32"></path>
                <path d="M17.4164,40.1105481 C17.7244,40.5115481 18.1754,40.7915481 18.5694,40.9635481 C18.5844,40.9775481 18.5984,40.9845481 18.6124,40.9845481 C18.9924,41.1565481 19.3074,41.2355481 19.4004,41.2565481 L19.4294,41.2635481 L22.4174,39.6305481 L22.4244,39.6305481 L29.6314,35.6975481 L35.8714,32.2945481 L30.3334,25.4025481 L30.2834,25.3375481 L25.0244,30.1955481 L25.0244,30.2025481 L19.3654,35.4325481 L16.9574,37.6605481 C16.9574,37.6605481 16.6144,39.0425481 17.4164,40.1105481" id="Fill-212" fill="#330A32"></path>
                <polygon id="Fill-214" fill="#F79E3C" points="74.6243 17.2081481 62.6323 25.6871481 55.4783 30.7501481 53.2703 32.3081481 52.7563 32.6781481 50.6703 34.1481481 49.3693 35.0721481 47.2063 36.5961481 45.2963 37.9541481 29.6293 49.0311481 38.1753 63.5361481 55.4073 55.2711481 58.0873 53.9921481 60.2603 52.9521481 61.4083 52.4011481 63.9943 51.1601481 64.4733 50.9281481 66.9943 49.7171481 67.1903 49.6271481 73.6103 46.5511481 88.4773 39.4221481 88.9303 39.2041481"></polygon>
                <path d="M74.8956,45.0364481 L74.9006,45.0304481 L74.8626,45.0464481 C74.9026,45.1794481 74.9136,45.1724481 74.8956,45.0364481" id="Fill-216" fill="#FFDBB1"></path>
                <path d="M76.2898,14.5848481 L76.3038,14.6058481 L77.0988,15.8518481 L87.3808,31.9738481 L91.8288,38.9538481 L92.7728,38.4518481 L110.3398,29.1018481 C110.3508,29.0998481 110.3558,29.0938481 110.3668,29.0918481 L110.5338,29.0018481 L110.9868,28.7588481 L109.2478,28.5908481 L93.7998,2.20484809 L93.7958,2.21184809 L93.7898,2.21284809 L93.5548,2.35784809 C92.7458,2.87684809 90.2008,4.49584809 90.1798,4.51584809 L76.2898,14.5848481 Z" id="Fill-218" fill="#330A32"></path>
                <path d="M110.9877,28.7597481 L110.7457,28.8977481 C107.1137,30.8627481 100.6007,26.7567481 96.0057,19.5537481 C93.7957,16.0877481 92.4217,12.5207481 91.9557,9.48174809 C91.9617,9.47274809 91.9597,9.46874809 91.9577,9.46474809 C91.4667,6.14974809 92.0497,3.46174809 93.7987,2.20574809 C93.8597,2.16174809 93.9137,2.12674809 93.9767,2.08674809 C97.5487,-0.191251912 104.2517,3.93374809 108.9487,11.2987481 C113.4797,18.4027481 114.4867,25.9297481 111.3517,28.4947481 C111.2357,28.5907481 111.1137,28.6787481 110.9877,28.7597481" id="Fill-220" fill="#FBA393"></path>
                <path d="M110.9877,28.7597481 L110.7457,28.8977481 C107.1137,30.8627481 100.6007,26.7567481 96.0057,19.5537481 C93.7957,16.0877481 92.4217,12.5207481 91.9557,9.48174809 C91.9617,9.47274809 91.9597,9.46874809 91.9577,9.46474809 C91.4667,6.14974809 92.0497,3.46174809 93.7987,2.20574809 C93.8597,2.16174809 93.9137,2.12674809 93.9767,2.08674809 C97.5487,-0.191251912 104.2517,3.93374809 108.9487,11.2987481 C113.4797,18.4027481 114.4867,25.9297481 111.3517,28.4947481 C111.2357,28.5907481 111.1137,28.6787481 110.9877,28.7597481" id="Fill-222" fill="#F79E3C"></path>
                <path d="M76.7055,14.3189481 C76.5675,14.4089481 76.4325,14.5049481 76.3015,14.6069481 C75.8725,14.9509481 75.5035,15.3839481 75.2105,15.8739481 C74.9685,16.2819481 74.7705,16.7229481 74.6245,17.2079481 C74.4995,17.5889481 74.4095,17.9999481 74.3395,18.4319481 L74.3335,18.4359481 C74.3215,18.5009481 74.3125,18.5559481 74.3075,18.6169481 C74.1795,19.5579481 74.1855,20.5849481 74.3155,21.6809481 L74.3195,21.6869481 C74.4305,22.6519481 74.6455,23.6649481 74.9575,24.7029481 L74.9615,24.7099481 C75.4965,26.5229481 76.3375,28.4139481 77.4635,30.2699481 C77.5705,30.4649481 77.6855,30.6459481 77.8045,30.8339481 C78.5715,32.0369481 79.4015,33.1359481 80.2885,34.1189481 C80.3175,34.1679481 80.3625,34.2159481 80.3945,34.2559481 C80.3945,34.2559481 80.4115,34.2709481 80.4355,34.2979481 C80.4595,34.3249481 80.4875,34.3589481 80.5295,34.4009481 L80.6435,34.5239481 C80.7245,34.6189481 80.8205,34.7109481 80.9175,34.8199481 C81.3595,35.2589481 81.7995,35.6809481 82.2475,36.0739481 C82.2645,36.0889481 82.2775,36.0979481 82.2885,36.1169481 C82.4425,36.2509481 82.6025,36.3809481 82.7585,36.5049481 C83.0445,36.7359481 83.2275,36.8769481 83.3395,36.9689481 C83.6605,37.2039481 83.9825,37.4389481 84.3045,37.6479481 L84.3115,37.6439481 C85.0745,38.1499481 85.8485,38.5589481 86.6015,38.8639481 C86.7335,38.9189481 86.8755,38.9769481 87.0165,39.0189481 C89.0125,39.7389481 90.8665,39.7099481 92.3125,38.7919481 C92.4765,38.6879481 92.6295,38.5809481 92.7715,38.4549481 C95.2155,36.4079481 95.4215,31.7889481 93.5245,26.8189481 C93.0635,25.6279481 92.4925,24.4169481 91.7925,23.2159481 C91.6045,22.9109481 91.4155,22.5899481 91.2145,22.2769481 C89.8925,20.2029481 88.3575,18.4299481 86.7615,17.0339481 C85.8455,16.2269481 84.9025,15.5429481 83.9725,15.0099481 C83.9355,14.9899481 83.9095,14.9729481 83.8725,14.9529481 C82.4295,14.1399481 81.0025,13.6669481 79.7005,13.6019481 C78.5915,13.5399481 77.5695,13.7679481 76.7055,14.3189481" id="Fill-224" fill="#330A32"></path>
                <path d="M52.6385,31.2505481 C52.5215,31.3195481 52.4015,31.3985481 52.2915,31.4795481 C52.1785,31.5715481 52.0665,31.6625481 51.9605,31.7655481 C51.7355,31.9905481 51.5245,32.2395481 51.3475,32.5175481 C51.1405,32.8565481 50.9625,33.2185481 50.8305,33.6295481 C50.7715,33.7975481 50.7225,33.9675481 50.6705,34.1475481 C50.6335,34.3115481 50.5965,34.4745481 50.5625,34.6435481 L50.5565,34.6475481 C50.5475,34.7025481 50.5415,34.7475481 50.5325,34.8025481 C50.5075,34.9585481 50.4835,35.1145481 50.4685,35.2735481 C50.4585,35.3705481 50.4535,35.4735481 50.4415,35.5795481 C50.4065,36.1415481 50.4085,36.7385481 50.4715,37.3665481 L50.4745,37.3725481 C50.5295,37.9725481 50.6265,38.5895481 50.7755,39.2245481 C50.8205,39.4555481 50.8815,39.6865481 50.9425,39.9165481 L50.9455,39.9225481 C51.3565,41.4515481 52.0195,43.0565481 52.9245,44.6355481 C53.0065,44.8035481 53.1035,44.9545481 53.1985,45.1145481 C53.6155,45.8085481 54.0625,46.4685481 54.5275,47.0755481 C54.5355,47.0875481 54.5485,47.0965481 54.5555,47.1085481 C54.6305,47.2065481 54.7045,47.3035481 54.7845,47.3975481 C54.9225,47.5745481 55.0655,47.7475481 55.2095,47.9215481 C55.2285,47.9675481 55.2705,48.0105481 55.2945,48.0375481 C55.2945,48.0375481 55.3055,48.0555481 55.3265,48.0765481 C55.3465,48.0975481 55.3715,48.1255481 55.4025,48.1645481 L55.5005,48.2735481 C55.5635,48.3525481 55.6425,48.4305481 55.7225,48.5245481 C56.0795,48.9045481 56.4415,49.2655481 56.8095,49.6065481 C56.8225,49.6145481 56.8295,49.6275481 56.8405,49.6455481 C56.9635,49.7565481 57.0965,49.8685481 57.2265,49.9755481 C57.4615,50.1775481 57.6085,50.2995481 57.7035,50.3765481 C57.9685,50.5865481 58.2295,50.7895481 58.4965,50.9735481 L58.5025,50.9705481 C59.1325,51.4055481 59.7715,51.7695481 60.3975,52.0405481 C60.4395,52.0575481 60.4865,52.0795481 60.5295,52.0955481 C60.5995,52.1295481 60.6715,52.1535481 60.7435,52.1775481 C60.9615,52.2655481 61.1885,52.3395481 61.4075,52.4015481 C62.4535,52.7085481 63.4485,52.7455481 64.3295,52.4765481 C64.6225,52.3955481 64.8995,52.2735481 65.1655,52.1165481 L65.1835,52.1065481 C65.3255,52.0225481 65.4535,51.9305481 65.5785,51.8315481 C66.2185,51.3215481 66.6985,50.5985481 66.9945,49.7175481 C67.0075,49.6845481 67.0155,49.6545481 67.0295,49.6215481 C67.5955,47.8585481 67.4995,45.4945481 66.7405,42.9645481 C66.6635,42.6775481 66.5665,42.3855481 66.4625,42.0975481 C66.1015,41.0885481 65.6515,40.0565481 65.0925,39.0385481 C64.9405,38.7785481 64.7865,38.5035481 64.6265,38.2325481 C63.5635,36.4715481 62.3155,34.9455481 61.0095,33.7445481 C60.2575,33.0475481 59.4845,32.4555481 58.7105,31.9885481 C58.6845,31.9705481 58.6575,31.9535481 58.6305,31.9365481 C57.5515,31.2915481 56.4795,30.8835481 55.4785,30.7495481 C55.3745,30.7285481 55.2675,30.7165481 55.1645,30.7105481 C54.5895,30.6665481 54.0435,30.7135481 53.5395,30.8605481 L53.5335,30.8645481 C53.3255,30.9205481 53.1225,30.9985481 52.9295,31.0955481 C52.8335,31.1435481 52.7375,31.1925481 52.6385,31.2505481" id="Fill-226" fill="#330A32"></path>
                <path d="M47.0269,35.5711481 C46.9159,35.6361481 46.8079,35.7081481 46.7049,35.7861481 C46.3659,36.0441481 46.0709,36.3751481 45.8329,36.7481481 C45.6359,37.0641481 45.4699,37.4031481 45.3479,37.7741481 C45.3289,37.8271481 45.3079,37.8891481 45.2959,37.9541481 C45.2129,38.1941481 45.1509,38.4561481 45.1019,38.7261481 L45.0959,38.7291481 C45.0899,38.7751481 45.0789,38.8141481 45.0699,38.8691481 C44.9559,39.5931481 44.9379,40.3941481 45.0159,41.2461481 L45.0189,41.2521481 C45.0369,41.4661481 45.0649,41.6831481 45.0959,41.9051481 C45.1789,42.4551481 45.2929,43.0291481 45.4549,43.6151481 L45.4589,43.6211481 C45.8389,45.0431481 46.4549,46.5261481 47.2949,47.9941481 C47.3699,48.1491481 47.4529,48.2911481 47.5439,48.4461481 C47.9429,49.1091481 48.3679,49.7311481 48.8129,50.3171481 C48.8129,50.3171481 48.9019,50.4401481 49.0529,50.6251481 C49.1719,50.7711481 49.2879,50.9111481 49.4099,51.0471481 C49.4309,51.0841481 49.4629,51.1241481 49.4909,51.1571481 C49.5229,51.1971481 49.5539,51.2361481 49.5919,51.2721481 L49.6819,51.3691481 C49.7379,51.4361481 49.7979,51.5091481 49.8669,51.5841481 C49.9499,51.6681481 50.0369,51.7591481 50.1189,51.8431481 C50.3749,52.1081481 50.6339,52.3631481 50.8949,52.6081481 C50.9079,52.6171481 50.9219,52.6261481 50.9229,52.6421481 C50.9779,52.6931481 51.0389,52.7401481 51.0939,52.7911481 C51.1409,52.8291481 51.1619,52.8501481 51.1619,52.8501481 C51.1999,52.8861481 51.2439,52.9181481 51.2819,52.9541481 C51.4999,53.1411481 51.6389,53.2511481 51.7249,53.3251481 C51.9689,53.5141481 52.2169,53.7091481 52.4619,53.8721481 L52.4679,53.8681481 C53.0529,54.2811481 53.6469,54.6121481 54.2299,54.8681481 C54.3289,54.9091481 54.4349,54.9631481 54.5469,54.9971481 C54.8409,55.1151481 55.1269,55.2041481 55.4069,55.2711481 C56.6259,55.5761481 57.7499,55.4791481 58.6719,54.9281481 C58.8019,54.8511481 58.9219,54.7731481 59.0369,54.6711481 C59.5819,54.2421481 59.9889,53.6621481 60.2609,52.9521481 C60.3709,52.6881481 60.4569,52.3961481 60.5289,52.0961481 C60.6949,51.3751481 60.7519,50.5681481 60.7019,49.7071481 C60.6879,49.4581481 60.6679,49.2121481 60.6409,48.9541481 C60.5289,47.9881481 60.3089,46.9791481 59.9509,45.9341481 C59.9439,45.8801481 59.9249,45.8331481 59.9049,45.7861481 C59.8919,45.7361481 59.8789,45.6851481 59.8599,45.6381481 C59.5219,44.6981481 59.1029,43.7481481 58.5849,42.7971481 C58.4429,42.5571481 58.3039,42.3061481 58.1489,42.0571481 C57.4879,40.9491481 56.7509,39.9531481 55.9619,39.0791481 C55.5819,38.6461481 55.1919,38.2521481 54.7949,37.8881481 C54.2219,37.3521481 53.6209,36.8831481 53.0349,36.4961481 C52.9169,36.4081481 52.7899,36.3331481 52.6689,36.2551481 C52.6359,36.2411481 52.6179,36.2261481 52.5919,36.2091481 C51.9889,35.8491481 51.3809,35.5671481 50.7869,35.3761481 C50.6819,35.3391481 50.5759,35.3011481 50.4689,35.2731481 C50.0919,35.1701481 49.7279,35.1021481 49.3689,35.0721481 C48.5069,35.0071481 47.7079,35.1611481 47.0269,35.5711481" id="Fill-228" fill="#330A32"></path>
                <path d="M96.3853,18.1204481 C96.5523,18.4074481 96.7283,18.6904481 96.9093,18.9774481 C100.1903,24.1274481 104.6173,27.4414481 107.8153,27.4414481 L108.0003,27.4364481 C108.6583,27.4184481 109.2703,27.2414481 109.8033,26.9034481 C111.0413,26.1154481 111.6523,24.5494481 111.6763,22.5564481 C111.7173,19.5894481 110.4663,15.6634481 108.0463,11.8724481 C104.0053,5.53244809 98.2393,1.98144809 95.1613,3.94244809 C94.6013,4.29944809 94.1793,4.80844809 93.8683,5.44444809 C92.5433,8.17344809 93.4793,13.1884481 96.3853,18.1204481" id="Fill-230" fill="#330A32"></path>
                <path d="M96.3853,18.1204481 C96.5523,18.4074481 96.7283,18.6904481 96.9093,18.9774481 C100.1903,24.1274481 104.6173,27.4414481 107.8153,27.4414481 L108.0003,27.4364481 C108.0003,27.4364481 109.3633,24.9294481 108.9463,20.9154481 C108.7093,18.6254481 107.8983,15.8544481 105.9333,12.7764481 C101.7853,6.26844809 96.2323,5.46244809 93.8683,5.44444809 C92.5433,8.17344809 93.4793,13.1884481 96.3853,18.1204481" id="Fill-232" fill="#595BD9"></path>
                <path d="M106.0523,17.5329481 C105.4603,17.9099481 104.0293,16.7229481 102.8553,14.8819481 C101.6803,13.0409481 101.2083,11.2419481 101.7993,10.8649481 C102.3913,10.4879481 103.8223,11.6739481 104.9973,13.5159481 C106.1713,15.3569481 106.6443,17.1559481 106.0523,17.5329481" id="Fill-234" fill="#595BD9"></path>
                <path d="M101.3961,10.2769481 C101.0481,10.6249481 100.1951,10.3359481 99.4911,9.63194809 C98.7871,8.92794809 98.4981,8.07494809 98.8461,7.72694809 C99.1941,7.37894809 100.0471,7.66794809 100.7511,8.37194809 C101.4551,9.07594809 101.7441,9.92894809 101.3961,10.2769481" id="Fill-236" fill="#595BD9"></path>
                <path d="M86.6027,38.8609481 C86.7367,38.9189481 86.8767,38.9749481 87.0147,39.0209481 C89.0087,39.7379481 90.8667,39.7119481 92.3157,38.7929481 C92.4747,38.6919481 92.6277,38.5799481 92.7727,38.4519481 L110.3397,29.1019481 C109.6317,29.4229481 106.9777,30.2029481 102.6187,26.7319481 C98.2267,23.2299481 96.8907,20.8669481 96.8907,20.8669481 C96.8907,20.8669481 95.9907,23.7199481 93.5267,26.8199481 C92.7787,27.7629481 91.8777,28.7319481 90.8207,29.6519481 C89.7217,30.6059481 88.5407,31.3629481 87.3807,31.9739481 C86.7487,32.3029481 86.1177,32.5909481 85.5157,32.8359481 C82.6907,33.9889481 80.3977,34.2559481 80.3977,34.2559481 C80.3977,34.2559481 80.4107,34.2719481 80.4317,34.2979481 C80.5887,34.4909481 81.2867,35.2999481 82.2447,36.0749481 C82.2647,36.0899481 82.2767,36.0999481 82.2907,36.1149481 C83.3127,36.9399481 84.2137,37.5789481 84.3027,37.6479481 C84.5397,37.8869481 86.6027,38.8609481 86.6027,38.8609481" id="Fill-238" fill="#330A32"></path>
                <path d="M92.1135,4.79214809 L79.7005,13.6021481 L76.9235,15.5791481 L74.6245,17.2081481 C74.4995,17.5891481 74.4095,18.0001481 74.3395,18.4321481 L74.3335,18.4361481 C74.3215,18.5011481 74.3125,18.5561481 74.3065,18.6171481 C74.1795,19.5571481 74.1855,20.5851481 74.3155,21.6801481 L74.3195,21.6871481 L78.8315,18.5631481 L83.9725,15.0101481 L91.9585,9.48214809 C91.5035,6.38214809 92.1135,4.79214809 92.1135,4.79214809" id="Fill-240" fill="#595BD9"></path>
                <path d="M92.8544,13.0782481 L86.7614,17.0342481 L80.4664,21.1252481 L74.9574,24.7032481 L74.9614,24.7092481 C75.4974,26.5222481 76.3374,28.4142481 77.4634,30.2692481 L77.8254,30.5302481 L84.3004,27.1402481 L91.7924,23.2162481 L96.7244,20.6352481 C96.7244,20.6352481 94.1774,17.0462481 92.8544,13.0782481" id="Fill-242" fill="#595BD9"></path>
                <polygon id="Fill-244" fill="#F79E3C" points="29.6288 49.0310481 24.9658 54.8210481 22.3778 58.0350481 26.1338 64.4110481 29.7068 64.1520481 29.7168 64.1540481 38.1748 63.5370481"></polygon>
                <polygon id="Fill-246" fill="#330A32" points="52.6385 31.2505481 51.9605 31.7655481 46.7045 35.7855481 47.2065 36.5955481 47.6145 37.2455481 49.3135 39.9615481 53.9595 47.3935481 53.9805 47.4305481 54.2555 47.8685481 58.0875 53.9915481 58.6725 54.9275481 64.3295 52.4765481 65.1655 52.1165481 65.1835 52.1065481 64.8575 51.5665481 64.4725 50.9285481 62.8485 48.2265481 61.1765 45.4455481 55.1115 35.3645481 53.2705 32.3085481 53.1285 32.0675481 52.8635 31.6335481"></polygon>
                <path d="M24.0701,54.4013481 L18.1541,59.1503481 C18.1541,59.1503481 16.4701,61.8813481 18.2011,64.8193481 C18.7131,65.6893481 19.3011,66.2913481 19.8851,66.7043481 L19.9731,66.7683481 C21.3141,67.6913481 22.5561,67.6243481 22.5561,67.6243481 L29.6451,65.0363481 L29.7161,64.1543481 L29.7071,64.1523481 C29.6161,64.0973481 28.8971,63.6393481 27.9621,62.6023481 C27.3961,61.9793481 26.7441,61.1413481 26.1071,60.0613481 C24.4931,57.3203481 24.9661,54.8213481 24.9661,54.8213481 L24.0701,54.4013481 Z" id="Fill-248" fill="#330A32"></path>
                <path d="M52.9297,31.0955481 C52.9077,31.2835481 52.8867,31.4455481 52.8567,31.6205481 L52.8637,31.6335481 C52.8167,32.0185481 52.7827,32.3705481 52.7557,32.6775481 C52.6747,33.6825481 52.6817,34.2595481 52.6817,34.2595481 L45.0957,38.7295481 C45.0897,38.7745481 45.0787,38.8135481 45.0697,38.8695481 C44.9557,39.5935481 44.9377,40.3945481 45.0157,41.2465481 L45.0187,41.2525481 C45.0367,41.4665481 45.0647,41.6825481 45.0967,41.9055481 L45.1727,42.0355481 L49.3137,39.9615481 L50.7757,39.2245481 L53.1447,38.0365481 C53.1447,38.0365481 54.1687,41.7235481 57.2447,45.5325481 L57.2507,45.5295481 C57.5537,45.9165481 57.8847,46.2945481 58.2357,46.6785481 C59.0657,47.5785481 59.8747,48.3325481 60.6407,48.9535481 C61.9507,50.0195481 63.1197,50.7195481 63.9947,51.1605481 C64.3267,51.3305481 64.6157,51.4675481 64.8577,51.5665481 C65.3207,51.7595481 65.5787,51.8315481 65.5787,51.8315481 C66.2187,51.3215481 66.6987,50.5985481 66.9937,49.7175481 C67.0077,49.6845481 67.0157,49.6545481 67.0297,49.6215481 C67.5947,47.8585481 67.4997,45.4945481 66.7407,42.9645481 C66.6637,42.6775481 66.5667,42.3855481 66.4627,42.0975481 C66.1007,41.0885481 65.6507,40.0565481 65.0927,39.0385481 C64.9397,38.7785481 64.7867,38.5035481 64.6267,38.2325481 C63.5637,36.4715481 62.3157,34.9455481 61.0097,33.7445481 C60.2577,33.0475481 59.4847,32.4555481 58.7107,31.9885481 C58.6837,31.9715481 58.6567,31.9535481 58.6307,31.9365481 C57.5517,31.2915481 56.4797,30.8835481 55.4787,30.7495481 C55.3737,30.7285481 55.2677,30.7165481 55.1637,30.7105481 C54.5897,30.6665481 54.0437,30.7135481 53.5397,30.8605481 L53.5337,30.8645481 C53.3257,30.9205481 53.1217,30.9985481 52.9297,31.0955481" id="Fill-250" fill="#595BD9"></path>
                <path d="M62.6319,25.6871481 L55.4789,30.7501481 C55.4789,30.7501481 54.8079,32.4921481 55.1119,35.3641481 C55.2229,36.4551481 55.4819,37.6991481 55.9619,39.0791481 C56.3619,40.2241481 56.9219,41.4571481 57.6929,42.7661481 C58.4059,43.9751481 59.1529,44.9741481 59.9049,45.7861481 C59.9539,45.8411481 59.9989,45.8891481 60.0479,45.9431481 C61.0039,46.9601481 61.9609,47.6941481 62.8479,48.2271481 C64.8649,49.4331481 66.5269,49.6021481 67.0289,49.6221481 C67.1329,49.6271481 67.1899,49.6271481 67.1899,49.6271481 L73.6099,46.5511481 L70.7829,41.1741481 L62.6319,25.6871481 Z" id="Fill-252" fill="#F79E3C"></path>
                <path d="M25.3231,63.0343481 L19.8851,66.7043481 L19.9731,66.7683481 C21.3151,67.6913481 22.5561,67.6243481 22.5561,67.6243481 L29.6461,65.0363481 L29.7161,64.1543481 L38.1751,63.5363481 L55.4071,55.2713481 C56.6261,55.5763481 57.7501,55.4793481 58.6721,54.9283481 L64.3291,52.4763481 C64.6221,52.3953481 64.9001,52.2733481 65.1651,52.1173481 L65.1841,52.1063481 C65.3251,52.0223481 65.4541,51.9303481 65.5791,51.8313481 C66.2181,51.3213481 66.6981,50.5983481 66.9941,49.7173481 L67.1901,49.6263481 L73.6101,46.5513481 L88.4771,39.4223481 C87.9981,39.3713481 85.2311,38.7573481 82.2471,36.0743481 L70.7831,41.1733481 L66.7411,42.9643481 L61.1761,45.4453481 L60.0481,45.9433481 L59.9511,45.9343481 L57.2511,45.5293481 L57.2451,45.5333481 L54.5281,47.0753481 L53.9591,47.3933481 L48.8131,50.3173481 C48.8131,50.3173481 48.9021,50.4403481 49.0531,50.6253481 C49.1621,50.7683481 49.3131,50.9543481 49.4911,51.1573481 C49.5221,51.1963481 49.5541,51.2363481 49.5921,51.2723481 C49.6791,51.3783481 49.7731,51.4813481 49.8671,51.5843481 C49.9501,51.6683481 50.0361,51.7583481 50.1191,51.8433481 C50.6331,52.3473481 50.9591,52.6613481 51.0931,52.7903481 C51.1411,52.8293481 51.1621,52.8503481 51.1621,52.8503481 L36.3821,60.4933481 L34.6611,61.3823481 L27.9621,62.6023481 L25.3231,63.0343481 Z" id="Fill-254" fill="#330A32"></path>
                <path d="M74.5423,23.0603481 L55.2453,36.3343481 C55.2453,36.3343481 54.9823,34.8573481 55.0333,33.8103481 C55.0833,32.7643481 55.1973,31.8883481 55.1973,31.8883481 L74.2583,19.0603481 C74.2583,19.0603481 74.1663,21.5493481 74.5423,23.0603481" id="Fill-256" fill="#595BD9"></path>
                <polygon id="Fill-258" fill="#330A32" points="18.154 59.1507481 12.435 51.8497481 6.716 56.7207481 17.12 65.3447481"></polygon>
                <path d="M30.9023,22.1554481 L30.9093,22.1644481 L31.3003,22.6824481 L36.3613,29.3894481 L38.5513,32.2924481 L38.9473,32.0404481 L46.3193,27.3374481 C46.3243,27.3364481 46.3263,27.3334481 46.3303,27.3324481 L46.4003,27.2864481 L46.5903,27.1644481 L45.8233,27.1514481 L38.1443,16.1274481 L38.1423,16.1304481 L38.1403,16.1304481 L38.0423,16.2024481 C37.7063,16.4584481 36.6473,17.2554481 36.6383,17.2644481 L30.9023,22.1554481 Z" id="Fill-260" fill="#330A32"></path>
                <path d="M46.5912,27.1653481 L46.4902,27.2343481 C44.9672,28.2203481 41.9722,26.6473481 39.7102,23.6503481 C38.6222,22.2083481 37.8972,20.6933481 37.5882,19.3783481 C37.5902,19.3743481 37.5892,19.3723481 37.5892,19.3723481 C37.2592,17.9353481 37.4212,16.7383481 38.1442,16.1273481 C38.1692,16.1063481 38.1912,16.0893481 38.2182,16.0693481 C39.7042,14.9483481 42.7832,16.5233481 45.0952,19.5873481 C47.3252,22.5423481 48.0262,25.8043481 46.7412,27.0363481 C46.6942,27.0833481 46.6442,27.1253481 46.5912,27.1653481" id="Fill-262" fill="#FBA393"></path>
                <path d="M46.5912,27.1653481 L46.4902,27.2343481 C44.9672,28.2203481 41.9722,26.6473481 39.7102,23.6503481 C38.6222,22.2083481 37.8972,20.6933481 37.5882,19.3783481 C37.5902,19.3743481 37.5892,19.3723481 37.5892,19.3723481 C37.2592,17.9353481 37.4212,16.7383481 38.1442,16.1273481 C38.1692,16.1063481 38.1912,16.0893481 38.2182,16.0693481 C39.7042,14.9483481 42.7832,16.5233481 45.0952,19.5873481 C47.3252,22.5423481 48.0262,25.8043481 46.7412,27.0363481 C46.6942,27.0833481 46.6442,27.1253481 46.5912,27.1653481" id="Fill-264" fill="#F79E3C"></path>
                <path d="M31.0752,22.0245481 C31.0182,22.0685481 30.9622,22.1155481 30.9082,22.1645481 C30.7322,22.3305481 30.5852,22.5325481 30.4742,22.7575481 C30.3822,22.9445481 30.3112,23.1445481 30.2632,23.3615481 C30.2222,23.5335481 30.1962,23.7165481 30.1812,23.9075481 L30.1782,23.9095481 C30.1752,23.9385481 30.1732,23.9635481 30.1732,23.9905481 C30.1492,24.4065481 30.1882,24.8565481 30.2832,25.3315481 L30.2842,25.3345481 C30.3672,25.7535481 30.4952,26.1895481 30.6682,26.6335481 L30.6702,26.6365481 C30.9672,27.4115481 31.4012,28.2115481 31.9582,28.9855481 C32.0122,29.0675481 32.0692,29.1425481 32.1272,29.2205481 C32.5052,29.7215481 32.9062,30.1735481 33.3292,30.5735481 C33.3432,30.5945481 33.3652,30.6135481 33.3802,30.6305481 C33.3802,30.6305481 33.3882,30.6365481 33.3992,30.6475481 C33.4112,30.6585481 33.4242,30.6715481 33.4442,30.6885481 L33.4982,30.7395481 C33.5372,30.7775481 33.5822,30.8145481 33.6292,30.8595481 C33.8372,31.0365481 34.0452,31.2055481 34.2542,31.3625481 C34.2622,31.3685481 34.2682,31.3715481 34.2742,31.3795481 C34.3462,31.4335481 34.4212,31.4845481 34.4932,31.5335481 C34.6262,31.6245481 34.7112,31.6805481 34.7642,31.7165481 C34.9132,31.8085481 35.0622,31.9005481 35.2102,31.9805481 L35.2132,31.9785481 C35.5652,32.1745481 35.9182,32.3265481 36.2582,32.4345481 C36.3182,32.4535481 36.3822,32.4745481 36.4452,32.4875481 C37.3442,32.7335481 38.1562,32.6575481 38.7572,32.2055481 C38.8252,32.1535481 38.8892,32.1015481 38.9472,32.0415481 C39.9472,31.0605481 39.8772,29.0305481 38.8742,26.9185481 C38.6312,26.4125481 38.3392,25.9025481 37.9912,25.4005481 C37.8982,25.2735481 37.8042,25.1395481 37.7052,25.0085481 C37.0552,24.1465481 36.3212,23.4225481 35.5742,22.8665481 C35.1442,22.5445481 34.7082,22.2775481 34.2822,22.0755481 C34.2652,22.0685481 34.2532,22.0615481 34.2362,22.0545481 C33.5762,21.7485481 32.9352,21.5905481 32.3622,21.6065481 C31.8742,21.6185481 31.4352,21.7535481 31.0752,22.0245481" id="Fill-266" fill="#330A32"></path>
                <path d="M46.008,26.3925481 C45.787,26.5595481 45.525,26.6575481 45.237,26.6895481 L45.155,26.6975481 C43.754,26.8075481 41.702,25.5095481 40.086,23.3675481 C38.454,21.2055481 37.771,18.8565481 38.287,17.5425481 C38.4,17.2545481 38.568,17.0175481 38.801,16.8425481 C40.08,15.8765481 42.729,17.2325481 44.72,19.8705481 C46.71,22.5075481 47.287,25.4265481 46.008,26.3925481" id="Fill-268" fill="#330A32"></path>
                <path d="M45.2366,26.6890481 L45.1546,26.6980481 C43.7536,26.8080481 41.7026,25.5100481 40.0856,23.3670481 C38.4546,21.2050481 37.7716,18.8570481 38.2876,17.5430481 C39.3226,17.4710481 41.7816,17.6320481 43.8246,20.3380481 C46.4916,23.8730481 45.2366,26.6890481 45.2366,26.6890481" id="Fill-270" fill="#595BD9"></path>
                <path d="M44.0413,22.4181481 C43.7953,22.6041481 43.1273,22.1331481 42.5493,21.3671481 C41.9713,20.6011481 41.7023,19.8301481 41.9483,19.6441481 C42.1943,19.4581481 42.8623,19.9291481 43.4403,20.6951481 C44.0183,21.4611481 44.2873,22.2321481 44.0413,22.4181481" id="Fill-272" fill="#595BD9"></path>
                <path d="M44.5381,23.4186481 C44.3551,23.5456481 44.1141,23.4456481 44.0001,23.1956481 C43.8861,22.9466481 43.9431,22.6406481 44.1261,22.5136481 C44.3091,22.3866481 44.5501,22.4856481 44.6641,22.7356481 C44.7781,22.9856481 44.7211,23.2916481 44.5381,23.4186481" id="Fill-274" fill="#595BD9"></path>
                <path d="M36.2587,32.4327481 C36.3197,32.4537481 36.3827,32.4737481 36.4447,32.4887481 C37.3427,32.7337481 38.1557,32.6577481 38.7587,32.2057481 C38.8257,32.1557481 38.8887,32.1017481 38.9477,32.0407481 L46.3187,27.3377481 C46.0197,27.5027481 44.8847,27.9357481 42.8547,26.5657481 C40.8097,25.1837481 40.1437,24.1947481 40.1437,24.1947481 C40.1437,24.1947481 39.8477,25.4757481 38.8757,26.9187481 C38.5807,27.3577481 38.2187,27.8137481 37.7877,28.2527481 C37.3397,28.7087481 36.8487,29.0817481 36.3617,29.3887481 C36.0957,29.5547481 35.8297,29.7027481 35.5737,29.8307481 C34.3767,30.4337481 33.3817,30.6297481 33.3817,30.6297481 C33.3817,30.6297481 33.3877,30.6367481 33.3977,30.6467481 C33.4737,30.7267481 33.8067,31.0567481 34.2537,31.3627481 C34.2627,31.3687481 34.2687,31.3727481 34.2747,31.3787481 C34.7517,31.7047481 35.1677,31.9537481 35.2097,31.9807481 C35.1177,32.0077481 36.2587,32.4327481 36.2587,32.4327481" id="Fill-276" fill="#613487"></path>
                <path d="M37.4952,17.3189481 L32.3622,21.6069481 L31.2142,22.5689481 L30.2632,23.3619481 C30.2222,23.5329481 30.1962,23.7169481 30.1812,23.9079481 L30.1782,23.9099481 C30.1752,23.9389481 30.1732,23.9629481 30.1732,23.9899481 C30.1492,24.4069481 30.1882,24.8559481 30.2832,25.3319481 L30.2842,25.3339481 L32.1532,23.8099481 L34.2822,22.0759481 L37.5892,19.3789481 C37.2832,18.0369481 37.4952,17.3189481 37.4952,17.3189481" id="Fill-278" fill="#595BD9"></path>
                <path d="M38.1061,20.9229481 L35.5741,22.8659481 L32.9581,24.8759481 L30.6681,26.6339481 L30.6701,26.6359481 C30.9671,27.4119481 31.4011,28.2109481 31.9581,28.9849481 L32.1261,29.0869481 L34.8451,27.3779481 L37.9911,25.4009481 L40.0621,24.0989481 C40.0621,24.0989481 38.8231,22.6149481 38.1061,20.9229481" id="Fill-280" fill="#595BD9"></path>
                <polygon id="Fill-282" fill="#330A32" points="15.5823 53.7603481 8.1193 59.1503481 0.0003 53.7603481 11.3433 44.4373481"></polygon>
                <path d="M19.3651,35.4322481 C19.4511,35.9982481 19.7521,36.8292481 20.5691,37.9612481 C20.5691,37.9612481 20.6331,38.0472481 20.7191,38.1542481 C20.7481,38.1972481 20.7831,38.2332481 20.8121,38.2762481 C20.8771,38.3552481 20.9411,38.4342481 20.9911,38.5052481 C21.0771,38.5992481 21.1491,38.6852481 21.1991,38.7352481 L21.3851,38.9212481 C21.7791,39.2942481 22.1231,39.5082481 22.4171,39.6302481 L22.4241,39.6302481 C22.9401,39.8382481 23.2551,39.7522481 23.2551,39.7522481 L29.5311,36.4642481 L29.6311,35.6972481 C29.6311,35.6972481 28.3921,35.9122481 26.7801,34.4072481 C26.6511,34.2862481 26.5151,34.1572481 26.3791,34.0062481 C25.3041,32.8462481 25.0321,31.6992481 24.9891,30.9762481 C24.9601,30.5392481 25.0101,30.2522481 25.0251,30.2022481 L25.0251,30.1952481 L24.4521,30.0592481 L19.4221,34.5152481 C19.4221,34.5152481 19.2651,34.8092481 19.3651,35.4322481" id="Fill-284" fill="#F79E3C"></path>
                <polygon id="Fill-286" fill="#F79E3C" points="28.4638 36.3345481 37.1638 43.7035481 34.2848 45.7385481 23.6888 39.5235481"></polygon>
                <polygon id="Fill-288" fill="#613487" points="28.9663 36.7601481 23.6893 39.5231481 29.7683 43.0891481 31.2843 38.7231481"></polygon>
                <path d="M20.5686,37.9612481 C20.5686,37.9612481 20.6326,38.0472481 20.7186,38.1542481 C20.7476,38.1972481 20.7836,38.2332481 20.8126,38.2762481 C20.8766,38.3552481 20.9416,38.4342481 20.9916,38.5052481 C21.0776,38.5992481 21.1486,38.6852481 21.1986,38.7352481 L21.3856,38.9212481 C21.7796,39.2942481 22.1236,39.5082481 22.4166,39.6302481 L22.4236,39.6302481 C22.9396,39.8382481 23.2556,39.7522481 23.2556,39.7522481 L29.5306,36.4642481 L29.6316,35.6972481 C29.6316,35.6972481 28.3916,35.9122481 26.7796,34.4082481 L25.8346,34.4082481 L20.5686,37.9612481 Z" id="Fill-290" fill="#613487"></path>
                <path d="M19.3651,35.4322481 L24.2721,31.3912481 L24.9891,30.9762481 C24.9891,30.9762481 25.8491,31.6922481 26.7441,31.2482481 C27.6401,30.8112481 31.2861,27.9312481 31.2861,27.9312481 C30.6251,26.9152481 30.2831,25.3382481 30.2831,25.3382481 L25.0251,30.1952481 L24.4521,30.0592481 L19.4221,34.5152481 C19.4221,34.5152481 19.2651,34.8092481 19.3651,35.4322481" id="Fill-292" fill="#595BD9"></path>
                <polygon id="Fill-294" fill="#330A32" points="63.7148 54.5284481 64.4918 52.4064481 58.6718 54.9284481 60.2668 55.8974481"></polygon>
                <polygon id="Fill-296" fill="#330A32" points="65.1836 56.7208481 70.5676 70.1398481 55.9436 70.1398481 60.7196 58.4778481"></polygon>
                <polygon id="Fill-298" fill="#330A32" points="71.6425 67.6258481 71.6425 71.2798481 55.9445 71.3338481 55.0265 69.4798481"></polygon>
                <polygon id="Fill-300" fill="#330A32" points="76.2898 49.5357481 47.3808 61.0137481 48.6278 62.2587481 77.5528 53.2137481"></polygon>
                <polygon id="Fill-302" fill="#420C3B" points="76.2898 49.5357481 79.0758 49.5357481 78.6278 53.3927481 51.2248 62.2587481 48.6278 62.2587481 77.5528 53.2137481"></polygon>
                <polygon id="Fill-304" fill="#F79E3C" points="66.1586 59.1507481 64.3216 61.7517481 64.7176 67.6257481 69.1336 66.5637481"></polygon>
                <path d="M14.5972,66.7960481 C14.5972,69.3020481 15.3932,71.3330481 16.3752,71.3330481 C17.3582,71.3330481 18.1542,69.3020481 18.1542,66.7960481 C18.1542,64.2900481 17.3582,62.2590481 16.3752,62.2590481 C15.3932,62.2590481 14.5972,64.2900481 14.5972,66.7960481" id="Fill-306" fill="#330A32"></path>
                <path d="M15.1062,66.7960481 C15.1062,69.3020481 15.9022,71.3330481 16.8842,71.3330481 C17.8672,71.3330481 18.6632,69.3020481 18.6632,66.7960481 C18.6632,64.2900481 17.8672,62.2590481 16.8842,62.2590481 C15.9022,62.2590481 15.1062,64.2900481 15.1062,66.7960481" id="Fill-308" fill="#330A32"></path>
                <path d="M36.5305,57.9476481 C36.5305,57.9476481 39.2245,59.6166481 41.0155,60.3336481 C42.8065,61.0496481 43.2215,61.1156481 43.2215,61.1156481 L38.1745,63.5366481 L33.0705,63.4306481 L36.5305,57.9476481 Z" id="Fill-310" fill="#613487"></path>
                <path d="M34.6593,66.2747481 C34.5223,66.1527481 34.4303,65.9397481 34.4303,65.6957481 C34.4303,65.4357481 34.5223,65.2227481 34.6593,65.1157481 C34.7203,65.0547481 34.7963,65.0247481 34.8883,65.0247481 C35.1323,65.0247481 35.3303,65.3147481 35.3303,65.6957481 C35.3303,66.0617481 35.1323,66.3667481 34.8883,66.3667481 C34.7963,66.3667481 34.7203,66.3357481 34.6593,66.2747481 M35.1163,58.3307481 C35.2083,58.3917481 35.2693,58.4987481 35.2843,58.6357481 L35.2993,58.6517481 C35.3153,58.7277481 35.3303,58.8037481 35.3303,58.8957481 C35.3303,59.2457481 35.1323,59.5507481 34.8883,59.5507481 C34.7963,59.5507481 34.7203,59.5207481 34.6593,59.4597481 C34.5223,59.3527481 34.4303,59.1387481 34.4303,58.8957481 C34.4303,58.6357481 34.5223,58.4227481 34.6593,58.3157481 C34.7203,58.2397481 34.7963,58.2087481 34.8883,58.2087481 C34.9643,58.2087481 35.0553,58.2397481 35.1163,58.3307481 M37.4343,62.2647481 C37.4343,62.6307481 37.2363,62.9357481 36.9923,62.9357481 C36.9003,62.9357481 36.8243,62.9057481 36.7633,62.8437481 C36.6263,62.7377481 36.5343,62.5087481 36.5343,62.2647481 C36.5343,62.0057481 36.6263,61.7927481 36.7633,61.6857481 C36.8243,61.6247481 36.9003,61.5937481 36.9923,61.5937481 C37.0073,61.5937481 37.0383,61.5937481 37.0533,61.6087481 C37.2663,61.6547481 37.4343,61.9137481 37.4343,62.2647481 M32.6163,62.3867481 C32.6163,62.1277481 32.7073,61.9137481 32.8603,61.8077481 C32.9213,61.7617481 32.9973,61.7307481 33.0733,61.7307481 C33.3173,61.7307481 33.5153,62.0207481 33.5153,62.3867481 C33.5153,62.7677481 33.3173,63.0577481 33.0733,63.0577481 C32.9823,63.0577481 32.9063,63.0277481 32.8603,62.9657481 C32.7073,62.8597481 32.6163,62.6457481 32.6163,62.3867481 M32.1893,62.0667481 C32.1893,62.1427481 32.1893,62.2187481 32.2043,62.2797481 C32.1893,62.4017481 32.2043,62.5237481 32.2203,62.6457481 L32.2203,62.6607481 C32.2503,63.1187481 32.3263,63.5457481 32.4333,63.9577481 C32.8453,65.5277481 33.7753,66.6557481 34.8883,66.7777481 C34.9643,66.7927481 35.0253,66.7927481 35.1013,66.7927481 C36.3823,66.7927481 37.4803,65.4357481 37.8463,63.5607481 C37.8463,63.5607481 37.8763,63.5457481 37.8613,63.5307481 C37.9073,63.3927481 37.9223,63.2557481 37.9373,63.1187481 C37.9833,62.7837481 38.0133,62.4327481 38.0133,62.0667481 C38.0133,61.2587481 37.8913,60.4957481 37.6633,59.8407481 C37.4033,59.0477481 37.0073,58.3917481 36.5343,57.9657481 C36.1083,57.5687481 35.6203,57.3397481 35.1013,57.3397481 C35.0253,57.3397481 34.9643,57.3397481 34.8883,57.3557481 C34.7813,57.3707481 34.6743,57.3857481 34.5683,57.4167481 C33.2563,57.8127481 32.2653,59.6117481 32.2043,61.8227481 C32.1893,61.8987481 32.1893,61.9907481 32.1893,62.0667481" id="Fill-312" fill="#F79E3C"></path>
                <path d="M34.6593,66.2747481 C34.5983,66.3357481 34.5223,66.3667481 34.4463,66.3667481 C34.2023,66.3667481 34.0033,66.0617481 34.0033,65.6957481 C34.0033,65.3147481 34.2023,65.0247481 34.4463,65.0247481 C34.5373,65.0247481 34.6133,65.0547481 34.6593,65.1157481 C34.8113,65.2227481 34.9033,65.4357481 34.9033,65.6957481 C34.9033,65.9547481 34.8113,66.1677481 34.6593,66.2747481 M34.4463,58.2087481 C34.5223,58.2087481 34.5983,58.2397481 34.6593,58.3157481 C34.8113,58.4077481 34.9033,58.6357481 34.9033,58.8957481 C34.9033,59.1387481 34.8113,59.3527481 34.6593,59.4597481 C34.6133,59.5207481 34.5373,59.5507481 34.4463,59.5507481 C34.2023,59.5507481 34.0033,59.2457481 34.0033,58.8957481 C34.0033,58.5137481 34.2023,58.2087481 34.4463,58.2087481 M36.7633,62.8437481 C36.7173,62.9057481 36.6413,62.9357481 36.5653,62.9357481 C36.3063,62.9357481 36.1083,62.6307481 36.1083,62.2647481 C36.1083,61.8837481 36.3063,61.5937481 36.5653,61.5937481 C36.6413,61.5937481 36.7173,61.6247481 36.7633,61.6857481 C36.9163,61.7927481 37.0073,62.0057481 37.0073,62.2647481 C37.0073,62.5087481 36.9163,62.7377481 36.7633,62.8437481 M32.2043,62.2797481 C32.2203,62.0517481 32.3263,61.8687481 32.4633,61.7767481 C32.5243,61.7467481 32.5863,61.7307481 32.6463,61.7307481 C32.6623,61.7307481 32.6623,61.7307481 32.6773,61.7467481 C32.7533,61.7467481 32.8143,61.7767481 32.8603,61.8077481 C32.9973,61.9297481 33.0893,62.1427481 33.0893,62.3867481 C33.0893,62.6457481 32.9973,62.8597481 32.8603,62.9657481 C32.7993,63.0277481 32.7233,63.0577481 32.6463,63.0577481 C32.4483,63.0577481 32.2963,62.9057481 32.2203,62.6607481 L32.2203,62.6457481 C32.2043,62.5697481 32.1893,62.4787481 32.1893,62.3867481 C32.1893,62.3567481 32.1893,62.3107481 32.2043,62.2797481 M31.7623,62.0667481 C31.7623,62.7527481 31.8543,63.4087481 32.0213,63.9877481 C32.4633,65.6347481 33.4853,66.7927481 34.6743,66.7927481 C34.7503,66.7927481 34.8273,66.7927481 34.8883,66.7777481 C36.0773,66.6407481 37.0533,65.3447481 37.4033,63.5917481 C37.4193,63.5757481 37.4343,63.5457481 37.4193,63.5147481 C37.4953,63.1797481 37.5413,62.8287481 37.5413,62.4477481 C37.5713,62.3257481 37.5713,62.2037481 37.5713,62.0667481 C37.5713,61.3347481 37.4643,60.6487481 37.2813,60.0387481 C37.0833,59.3067481 36.7633,58.6817481 36.3513,58.2247481 C35.9403,57.7367481 35.4373,57.4167481 34.8883,57.3557481 C34.8273,57.3397481 34.7503,57.3397481 34.6743,57.3397481 C34.6283,57.3397481 34.5833,57.3397481 34.5373,57.3557481 C33.0123,57.4617481 31.8083,59.4287481 31.7773,61.8987481 L31.7773,61.9137481 C31.7623,61.9597481 31.7623,62.0207481 31.7623,62.0667481" id="Fill-314" fill="#330A32"></path>
                <path d="M63.256,68.8039481 C63.256,68.8039481 46.735,71.6919481 34.883,71.3339481 C23.031,70.9749481 17.084,66.2569481 17.084,66.2569481 L16.837,66.6049481 L16.508,66.4829481 L16.287,67.9229481 L16.567,68.0429481 L16.885,68.4509481 C16.885,68.4509481 26.4,71.6619481 34.668,71.9899481 C42.935,72.3189481 62.998,70.6649481 62.998,70.6649481 L63.256,68.8039481 Z" id="Fill-316" fill="#330A32"></path>
                <polygon id="Fill-318" fill="#F79E3C" points="63.9122 68.4882481 60.7192 68.1392481 61.2922 71.6622481 63.3342 71.3332481 63.3342 71.0652481 62.1202 70.8562481 61.5822 68.8262481 63.8512 68.7962481"></polygon>
                <polygon id="Fill-320" fill="#F79E3C" points="60.3719 68.8832481 58.1499 68.3782481 58.6719 71.9902481 60.3719 71.3182481 60.3719 71.0052481 59.1349 71.1842481 58.9259 69.2732481 60.3719 69.2732481"></polygon>
                <polygon id="Fill-322" fill="#330A32" points="65.1836 68.1394481 65.1836 71.9904481 62.8456 71.8034481 62.3156 68.6664481"></polygon>
                <polygon id="Fill-324" fill="#330A32" points="70.5678 73.9051481 74.2398 74.5031481 91.7898 128.116148 88.9308 128.116148 69.6728 76.4081481 69.6728 73.9051481"></polygon>
                <polygon id="Fill-326" fill="#F79E3C" points="71.0787 80.1818481 75.4397 91.8898481 87.7877 125.047848 90.5827 124.421848 77.5537 84.6268481 75.8527 79.4268481"></polygon>
                <polygon id="Fill-328" fill="#330A32" points="55.1317 73.9051481 51.4597 74.5031481 34.1807 127.285148 37.1447 127.416148 56.0267 76.4081481 56.0267 73.9051481"></polygon>
                <polygon id="Fill-330" fill="#F79E3C" points="35.1163 124.422148 37.9113 125.048148 45.5173 104.631148 54.6243 80.1821481 49.8503 79.4261481 40.9653 106.568148"></polygon>
                <polygon id="Fill-332" fill="#330A32" points="66.9261 77.1038481 59.5831 77.1038481 60.2691 83.8208481 66.1201 83.8208481"></polygon>
                <polygon id="Fill-334" fill="#330A32" points="70.1002 77.5569481 55.0332 77.5569481 56.0272 73.9049481 70.5682 73.9049481"></polygon>
                <polygon id="Fill-336" fill="#613487" points="54.6224 80.1798481 52.9384 79.9138481 37.0104 124.846848 37.9114 125.048848"></polygon>
                <polygon id="Fill-338" fill="#330A32" points="77.8893 98.4703481 78.2653 99.4783481 46.8643 101.010348 47.5053 99.2893481"></polygon>
                <polygon id="Fill-340" fill="#330A32" points="81.9077 96.2032481 76.8817 98.0362481 78.0907 101.010248 83.1507 100.275248"></polygon>
                <polygon id="Fill-342" fill="#330A32" points="90.9092 123.643448 87.3172 125.048448 88.9312 128.115448 92.5502 128.115448"></polygon>
                <polygon id="Fill-344" fill="#330A32" points="38.4187 125.048548 34.4787 123.643548 33.5277 127.256548 37.1447 127.416548"></polygon>
                <polygon id="Fill-346" fill="#330A32" points="91.2761 128.973648 91.2761 127.583648 89.6921 127.892648 90.5821 128.973648"></polygon>
                <polygon id="Fill-348" fill="#330A32" points="89.7004 129.747348 92.3994 129.854348 91.2704 128.970348 90.5844 128.970348"></polygon>
                <polygon id="Fill-350" fill="#9A3E41" points="61.8902 128.115948 61.9812 128.511948 62.9122 128.557948 63.0492 128.115948"></polygon>
                <polygon id="Fill-352" fill="#330A32" points="34.1169 125.497448 33.3009 124.849448 32.8759 125.879448 34.1169 125.879448"></polygon>
                <polygon id="Fill-354" fill="#9A3E41" points="62.1172 125.072548 61.3012 124.424548 60.8762 125.454548 62.1172 125.454548"></polygon>
                <polygon id="Fill-356" fill="#330A32" points="61.5523 123.218648 60.6353 127.389648 59.8723 127.158648 60.1043 123.063648"></polygon>
                <polygon id="Fill-358" fill="#330A32" points="91.2761 125.381648 92.3381 124.570648 92.5511 125.381648 91.4501 125.787648"></polygon>
                <polygon id="Fill-360" fill="#330A32" points="91.5078 123.160648 92.8308 122.716648 93.9028 127.359648 93.4008 127.583648"></polygon>
                <path d="M96.3853,18.1204481 C96.5523,18.4074481 96.7283,18.6904481 96.9093,18.9774481 C100.1903,24.1274481 104.6173,27.4414481 107.8153,27.4414481 L108.0003,27.4364481 C108.0003,27.4364481 109.3633,24.9294481 108.9463,20.9154481 C107.3193,20.0304481 105.4743,19.2094481 103.5973,18.7414481 C99.2873,17.6564481 97.1593,17.9254481 96.3853,18.1204481" id="Fill-362" fill="#595BD9"></path>
                <polygon id="Fill-364" fill="#613487" points="75.8527 79.4264481 71.0787 80.1814481 75.4397 91.8894481 76.0797 85.9614481 77.5537 84.6264481"></polygon>
                <polygon id="Fill-366" fill="#613487" points="40.9656 106.568448 45.5176 104.631448 54.6246 80.1814481 49.8506 79.4264481"></polygon>
                <polygon id="Fill-368" fill="#330A32" points="48.3593 98.8069481 46.8643 102.236948 42.0073 101.698948 43.2253 97.2899481"></polygon>
                <polygon id="Fill-370" fill="#613487" points="82.6979 100.341048 82.9179 101.010048 81.5229 101.782048 79.8009 103.601048 78.7969 100.908048"></polygon>
                <path d="M29.6288,49.0310481 L25.6398,59.1510481 C25.6398,59.1510481 25.2048,58.2440481 24.9898,56.9130481 C24.7748,55.5830481 24.9658,54.8210481 24.9658,54.8210481 L29.6288,49.0310481 Z" id="Fill-372" fill="#613487"></path>
                <polygon id="Fill-374" fill="#330A32" points="11.6383 45.0861481 4.7963 52.6571481 8.9593 58.5441481 8.1193 59.1511481 0.0003 53.7601481 11.3433 44.4371481"></polygon>
            </g>
        </g>
    </g>
</svg>