<?xml version="1.0" encoding="UTF-8"?>
<svg width="37px" height="43px" viewBox="0 0 37 43" version="1.1" xmlns="http://www.w3.org/2000/svg" xmlns:xlink="http://www.w3.org/1999/xlink">
    <!-- Generator: Sketch 53.1 (72631) - https://sketchapp.com -->
    <title>Group 19apple</title>
    <desc>Created with Sketch.</desc>
    <defs>
        <polygon id="path-1" points="0.962868803 0.436512094 37.576 0.436512094 37.576 33.451937 0.962868803 33.451937"></polygon>
        <polygon id="path-3" points="0.1872 0.183328044 18.576 0.183328044 18.576 32.451337 0.1872 32.451337"></polygon>
    </defs>
    <g id="Page-1" stroke="none" stroke-width="1" fill="none" fill-rule="evenodd">
        <g id="Artboard" transform="translate(-1220.000000, -931.000000)">
            <g id="Group-19" transform="translate(1219.000000, 931.741900)">
                <g id="Group-320" transform="translate(0.000000, 8.674100)">
                    <mask id="mask-2" fill="white">
                        <use xlink:href="#path-1"></use>
                    </mask>
                    <g id="Clip-319"></g>
                    <path d="M19.66,4.4136 C19.66,4.4136 12.611,-3.1054 6.531,2.5336 C-8.166,17.6386 10.254,33.4856 15.8,33.1456 C18.534,32.9786 18.896,32.5136 19.66,32.6086 C20.424,32.7046 21.378,33.2936 22.679,33.4346 C28.387,34.0526 47.016,18.0416 31.609,2.5336 C27.38,-1.3594 19.66,4.4136 19.66,4.4136" id="Fill-318" fill="#ED1C24" mask="url(#mask-2)"></path>
                </g>
                <path d="M6.9487,16.592 C6.3247,17.979 5.2707,18.856 4.5957,18.553 C3.9197,18.248 3.8777,16.878 4.5017,15.491 C5.1257,14.105 6.1797,13.227 6.8557,13.531 C7.5307,13.835 7.5727,15.205 6.9487,16.592" id="Fill-321" fill="#FFFFFF"></path>
                <path d="M19.4836,13.6541 C19.4836,13.6541 21.4976,2.4431 22.7056,1.6371 C23.9146,0.8321 23.9816,2.5771 25.0556,2.9131 C22.2356,5.0611 19.4836,13.6541 19.4836,13.6541" id="Fill-323" fill="#663F30"></path>
                <path d="M12.5763957,-2.84217094e-14 C12.5763957,-2.84217094e-14 12.5384,16.888 19.6014,13.101 C26.6644,9.313 12.5763957,-2.84217094e-14 12.5763957,-2.84217094e-14" id="Fill-325" fill="#40941C"></path>
                <polygon id="Fill-327" fill="#306E15" points="13.2422 1.2419 17.6382 10.8609 19.6012 13.1009 18.8222 10.2269"></polygon>
                <g id="Group-331" transform="translate(19.000000, 9.674100)">
                    <mask id="mask-4" fill="white">
                        <use xlink:href="#path-3"></use>
                    </mask>
                    <g id="Clip-330"></g>
                    <path d="M12.6092,1.534 C8.4352,-2.309 0.8752,3.255 0.6782,3.4 C0.6822,3.388 0.6872,3.375 0.6912,3.362 L0.1872,31.621 C0.3442,31.597 0.4932,31.588 0.6602,31.609 C1.4242,31.704 2.3782,32.293 3.6792,32.434 C9.3872,33.052 28.0162,17.041 12.6092,1.534" id="Fill-329" fill="#C11A26" mask="url(#mask-4)"></path>
                </g>
            </g>
        </g>
    </g>
</svg>