<?xml version="1.0" encoding="UTF-8"?>
<svg width="50px" height="97px" viewBox="0 0 50 97" version="1.1" xmlns="http://www.w3.org/2000/svg" xmlns:xlink="http://www.w3.org/1999/xlink">
    <!-- Generator: Sketch 53.1 (72631) - https://sketchapp.com -->
    <title>Group 18bakery</title>
    <desc>Created with Sketch.</desc>
    <defs>
        <polygon id="path-1" points="0.785124004 0.584 18.6924948 0.584 18.6924948 80.7817963 0.785124004 80.7817963"></polygon>
    </defs>
    <g id="Page-1" stroke="none" stroke-width="1" fill="none" fill-rule="evenodd">
        <g id="Artboard" transform="translate(-1125.000000, -882.000000)">
            <g id="Group-18" transform="translate(1125.178600, 881.416000)">
                <polygon id="Fill-119" fill="#FFF5D1" points="1.6779 39.2213 11.1989 22.3953 42.6659 51.9993 4.5979 53.1893"></polygon>
                <path d="M3.6999,43.7171 C2.7519,38.1951 5.8069,31.4241 5.8069,31.4241 C5.8069,31.4241 8.9209,24.6801 13.7129,21.7781 C13.7129,21.7781 16.4159,19.4611 20.8539,21.4871 C25.2929,23.5131 25.6909,29.6911 21.6079,38.6361 C17.5249,47.5821 12.5969,51.3281 8.1579,49.3021 C3.7199,47.2771 3.6999,43.7171 3.6999,43.7171" id="Fill-121" fill="#EA9D49"></path>
                <path d="M3.7039,43.7961 C4.3009,44.8861 5.4019,46.1511 7.4579,47.0891 C11.8959,49.1151 16.8239,45.3681 20.9069,36.4231 C23.2289,31.3361 24.0999,27.1461 23.6049,24.1031 C25.1679,27.1551 24.5579,32.1721 21.6079,38.6361 C17.5249,47.5811 12.5969,51.3281 8.1589,49.3021 C4.0889,47.4451 3.7349,44.3061 3.7039,43.7961" id="Fill-123" fill="#EA9D49"></path>
                <path d="M2.3877,40.7413 C1.8807,36.3333 4.3907,30.7773 4.3907,30.7773 C4.3907,30.7773 6.9437,25.2413 10.6057,22.7363 C10.6057,22.7363 12.6947,20.7763 15.9177,22.2473 C19.1407,23.7183 19.2157,28.6733 15.8647,36.0153 C12.5147,43.3563 8.7217,46.5463 5.4987,45.0753 C2.2757,43.6043 2.3877,40.7413 2.3877,40.7413" id="Fill-125" fill="#EA9D49"></path>
                <path d="M2.7191,42.3158 C3.1851,42.9808 3.9121,43.6658 5.0601,44.1898 C8.2831,45.6618 11.9841,42.6738 15.1681,35.6968 C18.3531,28.7208 18.1851,23.9678 14.9621,22.4958 C13.8141,21.9718 12.8201,21.8718 12.0121,21.9558 C12.9391,21.6388 14.2811,21.5008 15.9181,22.2478 C19.1411,23.7188 19.2161,28.6738 15.8651,36.0148 C12.5141,43.3568 8.7221,46.5458 5.4981,45.0748 C3.8621,44.3278 3.0871,43.2238 2.7191,42.3158" id="Fill-127" fill="#7B4001"></path>
                <path d="M1.9561,36.9262 C1.6181,33.9842 3.2931,30.2772 3.2931,30.2772 C3.2931,30.2772 4.9971,26.5822 7.4401,24.9102 C7.4401,24.9102 8.8351,23.6022 10.9861,24.5842 C13.1371,25.5652 13.1871,28.8722 10.9511,33.7722 C8.7141,38.6712 6.1831,40.8002 4.0321,39.8182 C1.8811,38.8362 1.9561,36.9262 1.9561,36.9262" id="Fill-129" fill="#EA9D49"></path>
                <path d="M1.9598,37.0522 C2.2408,37.3482 2.6148,37.6322 3.1188,37.8612 C5.1768,38.8012 7.5998,36.7642 9.7398,32.0752 C11.2728,28.7162 11.6768,26.1452 11.0288,24.6082 C13.1348,25.6152 13.1708,28.9072 10.9508,33.7722 C8.7148,38.6712 6.1838,40.8002 4.0318,39.8182 C2.2078,38.9852 1.9858,37.4882 1.9598,37.0522" id="Fill-131" fill="#EA9D49"></path>
                <path d="M2.1763,37.974 C2.4903,38.372 2.9543,38.773 3.6433,39.087 C5.7943,40.069 8.2503,38.104 10.3523,33.499 C12.4543,28.894 12.3293,25.751 10.1783,24.769 C9.4893,24.454 8.8833,24.366 8.3763,24.39 C8.9953,24.178 9.8913,24.084 10.9853,24.584 C13.1373,25.566 13.1873,28.873 10.9503,33.772 C8.7143,38.671 6.1833,40.8 4.0323,39.818 C2.9383,39.319 2.4213,38.58 2.1763,37.974" id="Fill-133" fill="#7B4001"></path>
                <path d="M2.4169,35.6349 C2.4149,35.6319 2.4129,35.6289 2.4109,35.6259 C2.1069,35.1319 2.0289,34.5279 2.1409,33.9589 C2.4009,32.6339 2.8209,31.4529 3.0759,30.8039 C2.8729,31.4959 2.7279,32.2009 2.6999,32.9069 C2.6519,33.7259 2.7449,34.5569 3.1489,35.1509 C3.3499,35.4389 3.6109,35.6549 3.9219,35.7409 C4.2309,35.8309 4.5849,35.8049 4.9329,35.6879 C5.6429,35.4629 6.2479,34.9189 6.7179,34.2639 C7.1959,33.6139 7.5349,32.8459 7.7079,32.0569 C7.7929,31.6649 7.8419,31.2489 7.8079,30.8719 C7.7719,30.4949 7.6529,30.1279 7.4109,29.9049 C7.1759,29.6799 6.8089,29.6139 6.4419,29.7309 C6.0669,29.8319 5.7369,30.0739 5.4519,30.3729 C4.8779,30.9699 4.4879,31.7809 4.4019,32.6469 C4.3359,31.7699 4.6489,30.8779 5.1849,30.1439 C5.4619,29.7869 5.8329,29.4579 6.2899,29.2879 C6.7299,29.0939 7.3479,29.1069 7.7829,29.4559 C8.2219,29.7939 8.4119,30.3119 8.4829,30.7859 C8.5549,31.2729 8.5229,31.7349 8.4539,32.1959 C8.2959,33.1129 7.9459,33.9849 7.4239,34.7579 C7.1589,35.1419 6.8509,35.5019 6.4849,35.8159 C6.1209,36.1309 5.6889,36.3909 5.2159,36.5469 C4.7429,36.7059 4.1919,36.7609 3.6629,36.6049 C3.1279,36.4599 2.6899,36.0679 2.4169,35.6349" id="Fill-135" fill="#7B4001"></path>
                <path d="M1.9543,41.5054 C2.3873,41.7034 2.8983,41.5124 3.0953,41.0794 C3.2933,40.6464 3.1023,40.1364 2.6693,39.9384 C2.2373,39.7414 1.7263,39.9314 1.5283,40.3644 C1.3313,40.7974 1.5213,41.3084 1.9543,41.5054" id="Fill-137" fill="#7B4001"></path>
                <path d="M1.4994,41.0055 C1.5514,41.0465 1.6084,41.0815 1.6714,41.1105 C2.1034,41.3075 2.6144,41.1175 2.8124,40.6845 C2.9084,40.4745 2.9114,40.2455 2.8414,40.0435 C3.1484,40.2825 3.2644,40.7095 3.0954,41.0795 C2.8974,41.5125 2.3874,41.7025 1.9544,41.5055 C1.7314,41.4035 1.5744,41.2195 1.4994,41.0055" id="Fill-139" fill="#7B4001"></path>
                <path d="M1.5724,40.5242 C1.5854,40.4642 1.6124,40.4042 1.6354,40.3612 C1.7114,40.2182 1.8314,40.0812 1.9814,40.0152 C2.1454,39.9412 2.4084,39.9372 2.5154,40.0032 C2.6214,40.0692 2.4724,40.2152 2.1784,40.2472 C2.0594,40.2602 1.9534,40.3372 1.8784,40.4262 C1.8434,40.4662 1.8134,40.5122 1.7924,40.5612 C1.7624,40.6312 1.7854,40.7582 1.6734,40.7302 C1.5664,40.7032 1.5534,40.6142 1.5724,40.5242" id="Fill-141" fill="#FFFFFF"></path>
                <path d="M7.8584,42.3067 C8.2914,42.5037 8.8024,42.3137 8.9994,41.8807 C9.1974,41.4477 9.0064,40.9367 8.5734,40.7397 C8.1404,40.5417 7.6304,40.7327 7.4324,41.1657 C7.2354,41.5987 7.4254,42.1087 7.8584,42.3067" id="Fill-143" fill="#7B4001"></path>
                <path d="M7.4034,41.8068 C7.4554,41.8478 7.5124,41.8828 7.5754,41.9118 C8.0074,42.1088 8.5184,41.9188 8.7164,41.4858 C8.8124,41.2758 8.8154,41.0468 8.7454,40.8448 C9.0524,41.0838 9.1684,41.5108 8.9994,41.8808 C8.8014,42.3138 8.2914,42.5038 7.8584,42.3068 C7.6354,42.2048 7.4784,42.0208 7.4034,41.8068" id="Fill-145" fill="#7B4001"></path>
                <path d="M7.4765,41.3254 C7.4895,41.2654 7.5165,41.2054 7.5395,41.1624 C7.6155,41.0194 7.7355,40.8824 7.8855,40.8164 C8.0495,40.7424 8.3125,40.7374 8.4195,40.8044 C8.5255,40.8704 8.3765,41.0164 8.0825,41.0484 C7.9635,41.0614 7.8575,41.1384 7.7825,41.2274 C7.7475,41.2674 7.7175,41.3134 7.6965,41.3624 C7.6665,41.4324 7.6895,41.5594 7.5775,41.5314 C7.4705,41.5044 7.4575,41.4154 7.4765,41.3254" id="Fill-147" fill="#FFFFFF"></path>
                <path d="M10.1836,23.4757 C10.6166,23.6727 11.1276,23.4827 11.3246,23.0497 C11.5226,22.6167 11.3316,22.1057 10.8986,21.9087 C10.4666,21.7107 9.9556,21.9017 9.7576,22.3347 C9.5606,22.7677 9.7506,23.2777 10.1836,23.4757" id="Fill-149" fill="#7B4001"></path>
                <path d="M9.7287,22.9758 C9.7807,23.0168 9.8377,23.0518 9.9007,23.0808 C10.3327,23.2778 10.8437,23.0878 11.0417,22.6548 C11.1377,22.4448 11.1407,22.2158 11.0707,22.0138 C11.3777,22.2528 11.4937,22.6798 11.3247,23.0498 C11.1267,23.4828 10.6167,23.6728 10.1837,23.4758 C9.9617,23.3738 9.8037,23.1898 9.7287,22.9758" id="Fill-151" fill="#7B4001"></path>
                <path d="M9.8017,22.4944 C9.8147,22.4344 9.8417,22.3744 9.8647,22.3314 C9.9407,22.1884 10.0607,22.0514 10.2107,21.9854 C10.3747,21.9114 10.6377,21.9064 10.7447,21.9734 C10.8507,22.0394 10.7017,22.1854 10.4077,22.2174 C10.2887,22.2304 10.1837,22.3074 10.1077,22.3964 C10.0727,22.4364 10.0427,22.4824 10.0217,22.5314 C9.9917,22.6014 10.0147,22.7284 9.9027,22.7004 C9.7957,22.6734 9.7827,22.5844 9.8017,22.4944" id="Fill-153" fill="#FFFFFF"></path>
                <path d="M14.6572,27.411 C15.0902,27.609 15.6012,27.418 15.7982,26.985 C15.9962,26.552 15.8052,26.042 15.3722,25.844 C14.9392,25.647 14.4292,25.837 14.2312,26.27 C14.0342,26.703 14.2242,27.214 14.6572,27.411" id="Fill-155" fill="#7B4001"></path>
                <path d="M14.2023,26.9112 C14.2543,26.9522 14.3113,26.9872 14.3743,27.0162 C14.8063,27.2132 15.3173,27.0232 15.5153,26.5902 C15.6113,26.3802 15.6143,26.1512 15.5443,25.9492 C15.8513,26.1882 15.9673,26.6152 15.7983,26.9852 C15.6013,27.4182 15.0903,27.6082 14.6573,27.4112 C14.4353,27.3092 14.2773,27.1252 14.2023,26.9112" id="Fill-157" fill="#7B4001"></path>
                <path d="M14.2753,26.4298 C14.2883,26.3698 14.3153,26.3098 14.3383,26.2668 C14.4143,26.1238 14.5343,25.9868 14.6843,25.9208 C14.8483,25.8468 15.1113,25.8428 15.2183,25.9088 C15.3243,25.9748 15.1753,26.1208 14.8813,26.1528 C14.7623,26.1658 14.6563,26.2428 14.5813,26.3318 C14.5463,26.3718 14.5163,26.4178 14.4953,26.4668 C14.4653,26.5368 14.4883,26.6638 14.3763,26.6358 C14.2693,26.6088 14.2563,26.5198 14.2753,26.4298" id="Fill-159" fill="#FFFFFF"></path>
                <path d="M8.7091,27.7908 C9.1421,27.9888 9.6531,27.7978 9.8501,27.3648 C10.0481,26.9318 9.8571,26.4218 9.4241,26.2238 C8.9921,26.0268 8.4811,26.2168 8.2831,26.6498 C8.0861,27.0828 8.2761,27.5938 8.7091,27.7908" id="Fill-161" fill="#7B4001"></path>
                <path d="M8.2542,27.291 C8.3062,27.332 8.3632,27.367 8.4262,27.396 C8.8582,27.593 9.3692,27.403 9.5672,26.97 C9.6632,26.76 9.6662,26.531 9.5962,26.329 C9.9032,26.568 10.0192,26.995 9.8502,27.365 C9.6532,27.798 9.1422,27.988 8.7092,27.791 C8.4872,27.689 8.3292,27.505 8.2542,27.291" id="Fill-163" fill="#7B4001"></path>
                <path d="M8.3273,26.8096 C8.3403,26.7496 8.3673,26.6896 8.3903,26.6466 C8.4663,26.5036 8.5863,26.3666 8.7363,26.3006 C8.9003,26.2266 9.1633,26.2216 9.2703,26.2886 C9.3763,26.3546 9.2263,26.5006 8.9323,26.5326 C8.8143,26.5456 8.7083,26.6226 8.6333,26.7116 C8.5983,26.7516 8.5683,26.7976 8.5473,26.8466 C8.5173,26.9166 8.5403,27.0436 8.4283,27.0156 C8.3213,26.9886 8.3083,26.8996 8.3273,26.8096" id="Fill-165" fill="#FFFFFF"></path>
                <path d="M1.5199,37.5463 C1.9529,37.7443 2.4639,37.5533 2.6609,37.1203 C2.8589,36.6873 2.6679,36.1773 2.2349,35.9793 C1.8029,35.7823 1.2919,35.9723 1.0939,36.4053 C0.8969,36.8383 1.0869,37.3493 1.5199,37.5463" id="Fill-167" fill="#7B4001"></path>
                <path d="M1.0651,37.0465 C1.1171,37.0875 1.1741,37.1225 1.2371,37.1515 C1.6691,37.3485 2.1801,37.1585 2.3781,36.7255 C2.4741,36.5155 2.4771,36.2865 2.4071,36.0845 C2.7141,36.3235 2.8301,36.7505 2.6611,37.1205 C2.4631,37.5535 1.9531,37.7435 1.5201,37.5465 C1.2971,37.4445 1.1401,37.2605 1.0651,37.0465" id="Fill-169" fill="#7B4001"></path>
                <path d="M1.1381,36.5651 C1.1511,36.5051 1.1781,36.4451 1.2011,36.4021 C1.2771,36.2591 1.3971,36.1221 1.5471,36.0561 C1.7111,35.9821 1.9741,35.9781 2.0811,36.0441 C2.1871,36.1101 2.0371,36.2561 1.7431,36.2881 C1.6251,36.3011 1.5191,36.3781 1.4441,36.4671 C1.4091,36.5071 1.3791,36.5531 1.3581,36.6021 C1.3281,36.6721 1.3511,36.7991 1.2391,36.7711 C1.1321,36.7441 1.1191,36.6551 1.1381,36.5651" id="Fill-171" fill="#FFFFFF"></path>
                <path d="M7.6061,36.4179 C8.0391,36.6159 8.5501,36.4249 8.7471,35.9919 C8.9451,35.5589 8.7541,35.0489 8.3211,34.8509 C7.8891,34.6529 7.3781,34.8439 7.1801,35.2769 C6.9831,35.7099 7.1731,36.2209 7.6061,36.4179" id="Fill-173" fill="#7B4001"></path>
                <path d="M7.1513,35.918 C7.2033,35.959 7.2603,35.994 7.3233,36.023 C7.7553,36.221 8.2663,36.03 8.4643,35.597 C8.5603,35.387 8.5633,35.158 8.4933,34.956 C8.8003,35.195 8.9163,35.622 8.7473,35.992 C8.5493,36.425 8.0393,36.615 7.6063,36.418 C7.3833,36.316 7.2263,36.132 7.1513,35.918" id="Fill-175" fill="#7B4001"></path>
                <path d="M7.2244,35.4367 C7.2374,35.3767 7.2644,35.3167 7.2874,35.2737 C7.3634,35.1307 7.4834,34.9937 7.6334,34.9277 C7.7974,34.8537 8.0604,34.8487 8.1674,34.9157 C8.2734,34.9817 8.1234,35.1277 7.8294,35.1597 C7.7114,35.1727 7.6054,35.2497 7.5304,35.3387 C7.4954,35.3787 7.4654,35.4247 7.4444,35.4737 C7.4144,35.5437 7.4374,35.6707 7.3254,35.6427 C7.2184,35.6147 7.2054,35.5267 7.2244,35.4367" id="Fill-177" fill="#FFFFFF"></path>
                <path d="M5.3477,33.0811 C5.7807,33.2791 6.2917,33.0881 6.4887,32.6551 C6.6867,32.2221 6.4957,31.7121 6.0627,31.5141 C5.6297,31.3171 5.1197,31.5071 4.9217,31.9401 C4.7247,32.3731 4.9147,32.8841 5.3477,33.0811" id="Fill-179" fill="#7B4001"></path>
                <path d="M4.8929,32.5813 C4.9449,32.6223 5.0019,32.6573 5.0649,32.6863 C5.4969,32.8833 6.0079,32.6933 6.2059,32.2603 C6.3019,32.0503 6.3049,31.8213 6.2349,31.6193 C6.5419,31.8583 6.6579,32.2853 6.4889,32.6553 C6.2909,33.0883 5.7809,33.2783 5.3479,33.0813 C5.1249,32.9793 4.9679,32.7953 4.8929,32.5813" id="Fill-181" fill="#7B4001"></path>
                <path d="M4.9658,32.0999 C4.9788,32.0399 5.0058,31.9799 5.0288,31.9369 C5.1048,31.7939 5.2248,31.6569 5.3748,31.5909 C5.5388,31.5169 5.8018,31.5129 5.9088,31.5789 C6.0148,31.6449 5.8658,31.7909 5.5718,31.8229 C5.4528,31.8359 5.3478,31.9129 5.2718,32.0019 C5.2368,32.0419 5.2068,32.0879 5.1858,32.1369 C5.1558,32.2069 5.1788,32.3339 5.0668,32.3059 C4.9598,32.2789 4.9468,32.1899 4.9658,32.0999" id="Fill-183" fill="#FFFFFF"></path>
                <path d="M4.254,28.7492 C4.687,28.9472 5.198,28.7562 5.395,28.3232 C5.593,27.8902 5.402,27.3802 4.969,27.1822 C4.537,26.9852 4.026,27.1752 3.828,27.6082 C3.631,28.0412 3.821,28.5522 4.254,28.7492" id="Fill-185" fill="#7B4001"></path>
                <path d="M3.7991,28.2493 C3.8511,28.2903 3.9081,28.3253 3.9711,28.3543 C4.4031,28.5513 4.9141,28.3613 5.1121,27.9283 C5.2081,27.7183 5.2111,27.4893 5.1411,27.2873 C5.4481,27.5263 5.5641,27.9533 5.3951,28.3233 C5.1971,28.7563 4.6871,28.9463 4.2541,28.7493 C4.0311,28.6473 3.8741,28.4633 3.7991,28.2493" id="Fill-187" fill="#7B4001"></path>
                <path d="M3.8721,27.768 C3.8851,27.708 3.9121,27.648 3.9351,27.605 C4.0111,27.462 4.1311,27.325 4.2811,27.259 C4.4451,27.185 4.7081,27.18 4.8151,27.247 C4.9211,27.313 4.7721,27.459 4.4771,27.491 C4.3591,27.504 4.2531,27.581 4.1781,27.67 C4.1431,27.71 4.1131,27.756 4.0921,27.805 C4.0621,27.875 4.0851,28.002 3.9731,27.974 C3.8661,27.947 3.8531,27.858 3.8721,27.768" id="Fill-189" fill="#FFFFFF"></path>
                <path d="M12.9255,35.3536 C13.3585,35.5516 13.8695,35.3606 14.0665,34.9276 C14.2645,34.4946 14.0735,33.9846 13.6405,33.7866 C13.2085,33.5886 12.6975,33.7796 12.4995,34.2126 C12.3025,34.6456 12.4925,35.1556 12.9255,35.3536" id="Fill-191" fill="#7B4001"></path>
                <path d="M12.4706,34.8537 C12.5226,34.8947 12.5796,34.9297 12.6426,34.9587 C13.0746,35.1567 13.5856,34.9657 13.7836,34.5327 C13.8796,34.3227 13.8826,34.0937 13.8126,33.8917 C14.1196,34.1307 14.2356,34.5577 14.0666,34.9277 C13.8686,35.3607 13.3586,35.5507 12.9256,35.3537 C12.7026,35.2517 12.5456,35.0677 12.4706,34.8537" id="Fill-193" fill="#7B4001"></path>
                <path d="M12.5436,34.3723 C12.5566,34.3123 12.5836,34.2523 12.6066,34.2093 C12.6826,34.0663 12.8026,33.9303 12.9526,33.8633 C13.1166,33.7893 13.3796,33.7853 13.4866,33.8513 C13.5926,33.9173 13.4426,34.0633 13.1486,34.0953 C13.0306,34.1083 12.9246,34.1853 12.8496,34.2743 C12.8146,34.3143 12.7846,34.3603 12.7636,34.4093 C12.7336,34.4793 12.7566,34.6063 12.6446,34.5783 C12.5376,34.5513 12.5246,34.4623 12.5436,34.3723" id="Fill-195" fill="#FFFFFF"></path>
                <path d="M2.4191,41.1987 C2.8571,41.7037 3.4621,42.1937 4.3131,42.5817 C7.4331,44.0057 11.1041,40.9187 14.3471,33.8127 C16.6851,28.6907 17.2991,24.7687 16.2921,22.4447 C19.1391,24.1257 19.0801,28.9707 15.8651,36.0147 C12.5141,43.3567 8.7221,46.5457 5.4991,45.0747 C3.0681,43.9657 2.5351,42.0667 2.4191,41.1987" id="Fill-197" fill="#EA9D49"></path>
                <path d="M41.9711,42.8398 C45.2231,39.2058 46.1001,32.7988 46.1001,32.7988 C46.1001,32.7988 46.9211,26.3848 44.7281,22.0298 C44.7281,22.0298 43.8061,19.0718 39.5961,18.5138 C35.3861,17.9558 32.2361,22.3288 31.1121,30.8138 C29.9881,39.2988 31.8901,44.3408 36.1001,44.8978 C40.3111,45.4558 41.9711,42.8398 41.9711,42.8398" id="Fill-199" fill="#EA9D49"></path>
                <path d="M41.9315,42.8963 C40.9875,43.4243 39.5905,43.8483 37.6405,43.5893 C33.4305,43.0323 31.5275,37.9903 32.6515,29.5053 C33.2915,24.6803 34.5855,21.1863 36.3575,19.1713 C33.7945,20.6993 31.9245,24.6823 31.1115,30.8133 C29.9875,39.2983 31.8905,44.3403 36.1005,44.8983 C39.9605,45.4093 41.6725,43.2583 41.9315,42.8963" id="Fill-201" fill="#EA9D49"></path>
                <path d="M44.3146,41.2518 C46.7256,38.2348 47.4436,32.9768 47.4436,32.9768 C47.4436,32.9768 48.1196,27.7138 46.5776,24.1728 C46.5776,24.1728 45.9426,21.7618 42.8856,21.3568 C39.8276,20.9518 37.4816,24.5718 36.5596,31.5348 C35.6366,38.4988 36.9596,42.6048 40.0166,43.0098 C43.0736,43.4148 44.3146,41.2518 44.3146,41.2518" id="Fill-203" fill="#EA9D49"></path>
                <path d="M43.3423,42.2596 C42.6903,42.5346 41.8383,42.7036 40.7493,42.5596 C37.6913,42.1546 36.3433,38.2406 37.2203,31.6226 C38.0973,25.0046 40.4173,21.5766 43.4753,21.9816 C44.5643,22.1256 45.3433,22.5116 45.9003,22.9466 C45.3633,22.2846 44.4373,21.5616 42.8853,21.3566 C39.8283,20.9516 37.4813,24.5716 36.5593,31.5346 C35.6363,38.4986 36.9593,42.6046 40.0163,43.0096 C41.5693,43.2156 42.6513,42.7586 43.3423,42.2596" id="Fill-205" fill="#7B4001"></path>
                <path d="M46.3967,38.6373 C48.0057,36.6243 48.4847,33.1153 48.4847,33.1153 C48.4847,33.1153 48.9367,29.6023 47.9067,27.2393 C47.9067,27.2393 47.4827,25.6303 45.4427,25.3593 C43.4027,25.0893 41.8367,27.5053 41.2207,32.1523 C40.6057,36.8003 41.4877,39.5403 43.5287,39.8103 C45.5687,40.0813 46.3967,38.6373 46.3967,38.6373" id="Fill-207" fill="#EA9D49"></path>
                <path d="M46.3356,38.7286 C45.9916,38.8176 45.5846,38.8526 45.1066,38.7896 C43.1546,38.5316 42.3096,35.9086 42.8986,31.4616 C43.3206,28.2746 44.2116,26.1916 45.3996,25.3576 C43.3806,25.1276 41.8326,27.5386 41.2206,32.1526 C40.6056,36.8006 41.4876,39.5406 43.5286,39.8106 C45.2596,40.0396 46.1156,39.0386 46.3356,38.7286" id="Fill-209" fill="#EA9D49"></path>
                <path d="M45.7499,39.3083 C45.3339,39.4573 44.8069,39.5383 44.1529,39.4513 C42.1129,39.1813 41.2099,36.5953 41.7879,32.2283 C42.3669,27.8603 43.9119,25.5993 45.9529,25.8693 C46.6069,25.9563 47.0939,26.1713 47.4569,26.4233 C47.0989,25.9813 46.4809,25.4973 45.4429,25.3593 C43.4019,25.0893 41.8369,27.5053 41.2209,32.1523 C40.6049,36.8003 41.4879,39.5403 43.5279,39.8103 C44.5659,39.9483 45.2889,39.6423 45.7499,39.3083" id="Fill-211" fill="#7B4001"></path>
                <path d="M46.6538,37.4719 C46.6568,37.4709 46.6598,37.4689 46.6618,37.4679 C47.1148,37.2439 47.4518,36.8349 47.6328,36.3629 C48.0528,35.2669 48.2898,34.2009 48.4018,33.6039 C48.2308,34.2079 48.0128,34.7949 47.7058,35.3289 C47.3628,35.9559 46.9108,36.5249 46.3378,36.7759 C46.0558,36.8959 45.7638,36.9349 45.4948,36.8539 C45.2248,36.7769 44.9758,36.5949 44.7738,36.3479 C44.3538,35.8539 44.1588,35.1729 44.1158,34.4719 C44.0628,33.7719 44.1678,33.0489 44.4058,32.3869 C44.5238,32.0579 44.6798,31.7289 44.8798,31.4669 C45.0798,31.2049 45.3378,30.9899 45.6198,30.9369 C45.8968,30.8799 46.1978,30.9999 46.4148,31.2569 C46.6448,31.5039 46.7758,31.8359 46.8478,32.1879 C46.9958,32.8939 46.9078,33.6719 46.5708,34.3509 C47.0248,33.7339 47.2068,32.9309 47.1508,32.1429 C47.1108,31.7509 46.9898,31.3369 46.7318,30.9999 C46.4968,30.6539 46.0348,30.3769 45.5528,30.4329 C45.0728,30.4799 44.6928,30.7739 44.4218,31.0909 C44.1428,31.4169 43.9528,31.7719 43.7908,32.1449 C43.4838,32.8929 43.3388,33.6989 43.3658,34.5099 C43.3838,34.9159 43.4448,35.3239 43.5698,35.7239 C43.6928,36.1249 43.8908,36.5169 44.1678,36.8509 C44.4428,37.1859 44.8238,37.4819 45.2858,37.6109 C45.7478,37.7519 46.2528,37.6649 46.6538,37.4719" id="Fill-213" fill="#7B4001"></path>
                <path d="M44.281,42.0155 C43.871,41.9615 43.582,41.5845 43.636,41.1735 C43.691,40.7635 44.067,40.4745 44.478,40.5295 C44.888,40.5835 45.177,40.9605 45.123,41.3705 C45.068,41.7815 44.691,42.0695 44.281,42.0155" id="Fill-215" fill="#7B4001"></path>
                <path d="M44.8476,41.8572 C44.7906,41.8632 44.7316,41.8632 44.6726,41.8552 C44.2616,41.8012 43.9736,41.4242 44.0276,41.0132 C44.0536,40.8142 44.1576,40.6442 44.3026,40.5272 C43.9656,40.5622 43.6826,40.8232 43.6366,41.1742 C43.5816,41.5842 43.8706,41.9612 44.2806,42.0152 C44.4916,42.0432 44.6936,41.9802 44.8476,41.8572" id="Fill-217" fill="#7B4001"></path>
                <path d="M45.0163,41.4683 C45.0343,41.4183 45.0423,41.3613 45.0453,41.3183 C45.0553,41.1783 45.0293,41.0223 44.9503,40.9033 C44.8633,40.7733 44.6713,40.6483 44.5623,40.6483 C44.4523,40.6483 44.4953,40.8243 44.6973,40.9843 C44.7793,41.0493 44.8213,41.1543 44.8363,41.2543 C44.8423,41.3003 44.8443,41.3483 44.8373,41.3943 C44.8263,41.4593 44.7513,41.5423 44.8463,41.5733 C44.9383,41.6033 44.9893,41.5433 45.0163,41.4683" id="Fill-219" fill="#FFFFFF"></path>
                <path d="M39.556,39.8771 C39.146,39.8231 38.857,39.4461 38.911,39.0351 C38.966,38.6251 39.342,38.3361 39.753,38.3911 C40.163,38.4451 40.452,38.8221 40.398,39.2321 C40.343,39.6431 39.966,39.9311 39.556,39.8771" id="Fill-221" fill="#7B4001"></path>
                <path d="M40.1226,39.7187 C40.0656,39.7247 40.0066,39.7247 39.9476,39.7167 C39.5366,39.6627 39.2486,39.2857 39.3026,38.8747 C39.3296,38.6757 39.4326,38.5057 39.5776,38.3887 C39.2406,38.4237 38.9576,38.6847 38.9116,39.0357 C38.8566,39.4457 39.1456,39.8227 39.5556,39.8767 C39.7666,39.9047 39.9686,39.8417 40.1226,39.7187" id="Fill-223" fill="#7B4001"></path>
                <path d="M40.2913,39.3299 C40.3093,39.2799 40.3173,39.2229 40.3203,39.1799 C40.3303,39.0399 40.3043,38.8839 40.2253,38.7649 C40.1383,38.6349 39.9463,38.5099 39.8373,38.5099 C39.7273,38.5099 39.7703,38.6859 39.9723,38.8459 C40.0543,38.9109 40.0963,39.0159 40.1113,39.1159 C40.1183,39.1619 40.1193,39.2099 40.1123,39.2559 C40.1013,39.3209 40.0263,39.4039 40.1213,39.4349 C40.2133,39.4649 40.2643,39.4049 40.2913,39.3299" id="Fill-225" fill="#FFFFFF"></path>
                <path d="M46.5467,24.9133 C46.1367,24.8593 45.8477,24.4823 45.9017,24.0713 C45.9567,23.6613 46.3327,23.3723 46.7437,23.4273 C47.1537,23.4813 47.4427,23.8583 47.3887,24.2683 C47.3337,24.6793 46.9567,24.9673 46.5467,24.9133" id="Fill-227" fill="#7B4001"></path>
                <path d="M47.1132,24.7549 C47.0562,24.7609 46.9972,24.7609 46.9382,24.7529 C46.5272,24.6989 46.2392,24.3219 46.2932,23.9109 C46.3202,23.7119 46.4232,23.5419 46.5682,23.4249 C46.2312,23.4589 45.9482,23.7209 45.9022,24.0719 C45.8472,24.4819 46.1362,24.8589 46.5462,24.9129 C46.7572,24.9409 46.9592,24.8779 47.1132,24.7549" id="Fill-229" fill="#7B4001"></path>
                <path d="M47.282,24.3661 C47.3,24.3161 47.308,24.2591 47.311,24.2161 C47.321,24.0761 47.295,23.9201 47.216,23.8011 C47.129,23.6711 46.937,23.5461 46.827,23.5461 C46.718,23.5461 46.761,23.7221 46.963,23.8821 C47.045,23.9471 47.087,24.0521 47.102,24.1521 C47.108,24.1981 47.11,24.2461 47.103,24.2921 C47.092,24.3571 47.017,24.4401 47.112,24.4711 C47.204,24.5011 47.255,24.4411 47.282,24.3661" id="Fill-231" fill="#FFFFFF"></path>
                <path d="M41.4278,25.7477 C41.0178,25.6937 40.7288,25.3167 40.7828,24.9057 C40.8378,24.4957 41.2138,24.2067 41.6248,24.2617 C42.0348,24.3157 42.3238,24.6927 42.2698,25.1027 C42.2148,25.5137 41.8378,25.8017 41.4278,25.7477" id="Fill-233" fill="#7B4001"></path>
                <path d="M41.9944,25.5893 C41.9374,25.5953 41.8784,25.5953 41.8194,25.5873 C41.4084,25.5333 41.1204,25.1563 41.1744,24.7453 C41.2014,24.5463 41.3044,24.3763 41.4494,24.2593 C41.1124,24.2933 40.8294,24.5553 40.7834,24.9063 C40.7284,25.3163 41.0174,25.6933 41.4274,25.7473 C41.6384,25.7753 41.8404,25.7123 41.9944,25.5893" id="Fill-235" fill="#7B4001"></path>
                <path d="M42.1631,25.2005 C42.1811,25.1505 42.1891,25.0935 42.1921,25.0505 C42.2021,24.9105 42.1761,24.7545 42.0971,24.6355 C42.0101,24.5055 41.8181,24.3805 41.7091,24.3805 C41.5991,24.3805 41.6421,24.5565 41.8441,24.7165 C41.9261,24.7815 41.9681,24.8865 41.9831,24.9865 C41.9891,25.0325 41.9911,25.0805 41.9841,25.1265 C41.9731,25.1915 41.8981,25.2745 41.9931,25.3055 C42.0851,25.3355 42.1361,25.2755 42.1631,25.2005" id="Fill-237" fill="#FFFFFF"></path>
                <path d="M45.6393,28.7776 C45.2293,28.7236 44.9403,28.3466 44.9943,27.9356 C45.0493,27.5256 45.4253,27.2366 45.8363,27.2916 C46.2463,27.3456 46.5353,27.7226 46.4813,28.1326 C46.4263,28.5436 46.0493,28.8316 45.6393,28.7776" id="Fill-239" fill="#7B4001"></path>
                <path d="M46.2059,28.6192 C46.1489,28.6252 46.0899,28.6252 46.0309,28.6172 C45.6199,28.5632 45.3319,28.1862 45.3859,27.7752 C45.4129,27.5762 45.5159,27.4062 45.6609,27.2892 C45.3239,27.3242 45.0409,27.5852 44.9949,27.9362 C44.9399,28.3462 45.2289,28.7232 45.6389,28.7772 C45.8499,28.8052 46.0519,28.7422 46.2059,28.6192" id="Fill-241" fill="#7B4001"></path>
                <path d="M46.3745,28.2305 C46.3925,28.1805 46.4005,28.1235 46.4035,28.0805 C46.4135,27.9405 46.3875,27.7845 46.3085,27.6655 C46.2215,27.5355 46.0295,27.4105 45.9205,27.4105 C45.8105,27.4105 45.8535,27.5865 46.0555,27.7465 C46.1375,27.8115 46.1795,27.9155 46.1945,28.0165 C46.2015,28.0625 46.2025,28.1105 46.1955,28.1565 C46.1845,28.2215 46.1095,28.3045 46.2045,28.3355 C46.2965,28.3655 46.3475,28.3055 46.3745,28.2305" id="Fill-243" fill="#FFFFFF"></path>
                <path d="M46.4317,39.2964 C46.0207,39.2424 45.7327,38.8654 45.7867,38.4544 C45.8417,38.0444 46.2177,37.7554 46.6287,37.8104 C47.0387,37.8644 47.3277,38.2414 47.2737,38.6514 C47.2187,39.0624 46.8417,39.3504 46.4317,39.2964" id="Fill-245" fill="#7B4001"></path>
                <path d="M46.9983,39.138 C46.9413,39.144 46.8823,39.144 46.8233,39.136 C46.4123,39.082 46.1243,38.705 46.1783,38.294 C46.2053,38.095 46.3083,37.925 46.4533,37.808 C46.1163,37.842 45.8333,38.104 45.7873,38.455 C45.7323,38.865 46.0213,39.242 46.4313,39.296 C46.6423,39.324 46.8443,39.261 46.9983,39.138" id="Fill-247" fill="#7B4001"></path>
                <path d="M47.1669,38.7492 C47.1849,38.6992 47.1929,38.6422 47.1959,38.5992 C47.2059,38.4592 47.1799,38.3032 47.1009,38.1842 C47.0139,38.0542 46.8219,37.9292 46.7129,37.9292 C46.6029,37.9292 46.6459,38.1052 46.8479,38.2652 C46.9299,38.3302 46.9719,38.4352 46.9869,38.5352 C46.9939,38.5812 46.9949,38.6292 46.9879,38.6752 C46.9769,38.7402 46.9019,38.8232 46.9969,38.8542 C47.0889,38.8842 47.1399,38.8242 47.1669,38.7492" id="Fill-249" fill="#FFFFFF"></path>
                <path d="M42.4644,35.6504 C42.0544,35.5964 41.7654,35.2194 41.8194,34.8084 C41.8744,34.3984 42.2504,34.1094 42.6614,34.1644 C43.0714,34.2184 43.3604,34.5954 43.3064,35.0054 C43.2514,35.4164 42.8744,35.7044 42.4644,35.6504" id="Fill-251" fill="#7B4001"></path>
                <path d="M43.0311,35.492 C42.9741,35.498 42.9151,35.498 42.8561,35.49 C42.4451,35.436 42.1571,35.059 42.2111,34.648 C42.2371,34.449 42.3401,34.279 42.4861,34.162 C42.1491,34.197 41.8661,34.458 41.8201,34.809 C41.7651,35.219 42.0541,35.596 42.4641,35.65 C42.6751,35.678 42.8771,35.615 43.0311,35.492" id="Fill-253" fill="#7B4001"></path>
                <path d="M43.1997,35.1033 C43.2177,35.0533 43.2257,34.9963 43.2287,34.9533 C43.2387,34.8133 43.2127,34.6573 43.1337,34.5383 C43.0467,34.4083 42.8547,34.2833 42.7457,34.2833 C42.6357,34.2833 42.6787,34.4593 42.8807,34.6193 C42.9627,34.6843 43.0047,34.7883 43.0197,34.8893 C43.0257,34.9353 43.0277,34.9833 43.0207,35.0293 C43.0097,35.0943 42.9347,35.1773 43.0297,35.2083 C43.1217,35.2383 43.1727,35.1783 43.1997,35.1033" id="Fill-255" fill="#FFFFFF"></path>
                <path d="M45.6727,34.2335 C45.2627,34.1795 44.9737,33.8025 45.0277,33.3915 C45.0827,32.9815 45.4587,32.6925 45.8697,32.7475 C46.2797,32.8015 46.5687,33.1785 46.5147,33.5885 C46.4597,33.9995 46.0827,34.2875 45.6727,34.2335" id="Fill-257" fill="#7B4001"></path>
                <path d="M46.2394,34.0751 C46.1824,34.0811 46.1234,34.0811 46.0644,34.0731 C45.6534,34.0191 45.3654,33.6421 45.4194,33.2311 C45.4454,33.0321 45.5494,32.8621 45.6944,32.7451 C45.3574,32.7801 45.0744,33.0411 45.0284,33.3921 C44.9734,33.8021 45.2624,34.1791 45.6724,34.2331 C45.8834,34.2611 46.0854,34.1981 46.2394,34.0751" id="Fill-259" fill="#7B4001"></path>
                <path d="M46.408,33.6863 C46.426,33.6363 46.434,33.5793 46.437,33.5363 C46.447,33.3963 46.421,33.2403 46.342,33.1213 C46.255,32.9913 46.063,32.8663 45.954,32.8663 C45.844,32.8663 45.887,33.0423 46.089,33.2023 C46.171,33.2673 46.213,33.3723 46.228,33.4723 C46.234,33.5183 46.236,33.5663 46.229,33.6123 C46.218,33.6773 46.143,33.7603 46.238,33.7913 C46.33,33.8213 46.381,33.7613 46.408,33.6863" id="Fill-261" fill="#FFFFFF"></path>
                <path d="M48.4821,31.5441 C48.0721,31.4901 47.7831,31.1131 47.8371,30.7021 C47.8921,30.2921 48.2681,30.0031 48.6791,30.0581 C49.0891,30.1121 49.3781,30.4891 49.3241,30.8991 C49.2691,31.3101 48.8921,31.5981 48.4821,31.5441" id="Fill-263" fill="#7B4001"></path>
                <path d="M49.0487,31.3857 C48.9917,31.3917 48.9327,31.3917 48.8737,31.3837 C48.4627,31.3297 48.1747,30.9527 48.2287,30.5417 C48.2557,30.3427 48.3587,30.1727 48.5037,30.0557 C48.1667,30.0907 47.8837,30.3517 47.8377,30.7027 C47.7827,31.1127 48.0717,31.4897 48.4817,31.5437 C48.6927,31.5717 48.8947,31.5087 49.0487,31.3857" id="Fill-265" fill="#7B4001"></path>
                <path d="M49.2174,30.9969 C49.2354,30.9469 49.2434,30.8899 49.2464,30.8469 C49.2564,30.7069 49.2304,30.5509 49.1514,30.4319 C49.0644,30.3019 48.8724,30.1769 48.7634,30.1769 C48.6534,30.1769 48.6964,30.3529 48.8984,30.5129 C48.9804,30.5779 49.0224,30.6829 49.0374,30.7829 C49.0444,30.8289 49.0454,30.8769 49.0384,30.9229 C49.0274,30.9879 48.9524,31.0709 49.0474,31.1019 C49.1394,31.1319 49.1904,31.0719 49.2174,30.9969" id="Fill-267" fill="#FFFFFF"></path>
                <path d="M39.0333,32.4063 C38.6223,32.3523 38.3343,31.9753 38.3883,31.5643 C38.4433,31.1543 38.8193,30.8653 39.2303,30.9203 C39.6403,30.9743 39.9293,31.3513 39.8753,31.7613 C39.8203,32.1723 39.4433,32.4603 39.0333,32.4063" id="Fill-269" fill="#7B4001"></path>
                <path d="M39.5998,32.2479 C39.5428,32.2539 39.4838,32.2539 39.4248,32.2459 C39.0138,32.1919 38.7258,31.8149 38.7798,31.4039 C38.8068,31.2049 38.9098,31.0349 39.0548,30.9179 C38.7178,30.9529 38.4348,31.2139 38.3888,31.5649 C38.3338,31.9749 38.6228,32.3519 39.0328,32.4059 C39.2438,32.4339 39.4458,32.3709 39.5998,32.2479" id="Fill-271" fill="#7B4001"></path>
                <path d="M39.7685,31.8591 C39.7865,31.8091 39.7945,31.7521 39.7975,31.7091 C39.8075,31.5691 39.7815,31.4131 39.7025,31.2941 C39.6155,31.1641 39.4235,31.0391 39.3145,31.0391 C39.2045,31.0391 39.2475,31.2151 39.4495,31.3751 C39.5315,31.4401 39.5735,31.5451 39.5885,31.6451 C39.5955,31.6911 39.5965,31.7391 39.5895,31.7851 C39.5785,31.8501 39.5035,31.9331 39.5985,31.9641 C39.6905,31.9941 39.7415,31.9341 39.7685,31.8591" id="Fill-273" fill="#FFFFFF"></path>
                <path d="M44.08,41.5745 C43.523,41.7445 42.851,41.8265 42.043,41.7195 C39.084,41.3275 37.804,37.3525 38.697,30.6125 C39.341,25.7535 40.701,22.5775 42.518,21.3295 C39.641,21.2525 37.444,24.8535 36.559,31.5355 C35.637,38.4985 36.959,42.6045 40.017,43.0095 C42.322,43.3155 43.594,42.1605 44.08,41.5745" id="Fill-275" fill="#EA9D49"></path>
                <g id="Group-279" transform="translate(13.821400, 0.000000)">
                    <mask id="mask-2" fill="white">
                        <use xlink:href="#path-1"></use>
                    </mask>
                    <g id="Clip-278"></g>
                    <path d="M1.0962,40.0412 C2.8602,10.9242 10.3402,0.3662 14.0002,0.5872 C17.6612,0.8092 18.8032,2.8602 18.6842,4.8342 C18.5642,6.8082 16.4952,40.9742 16.4952,40.9742 C16.4952,40.9742 14.4262,75.1402 14.3062,77.1142 C14.1862,79.0882 12.8052,80.9852 9.1442,80.7642 C5.4842,80.5422 -0.6678,69.1582 1.0962,40.0412" id="Fill-277" fill="#F7B15E" mask="url(#mask-2)"></path>
                </g>
                <path d="M25.1487,76.9333 C25.2687,74.9593 27.3377,40.7933 27.3377,40.7933 C27.3377,40.7933 29.4067,6.6273 29.5267,4.6533 C29.6207,3.0923 28.9207,1.4883 26.8177,0.7733 C27.1747,0.6343 27.5127,0.5683 27.8217,0.5873 C31.4827,0.8093 32.6247,2.8593 32.5057,4.8333 C32.3857,6.8083 30.3167,40.9733 30.3167,40.9733 C30.3167,40.9733 28.2467,75.1393 28.1277,77.1133 C28.0077,79.0873 26.6257,80.9853 22.9657,80.7633 C22.6567,80.7453 22.3297,80.6393 21.9907,80.4583 C24.1657,80.0023 25.0537,78.4943 25.1487,76.9333" id="Fill-280" fill="#E89C4B"></path>
                <path d="M14.8002,42.2466 C14.8352,41.5206 14.8722,40.7906 14.9172,40.0416 C14.9632,39.2916 15.0142,38.5626 15.0672,37.8376 C20.3322,38.2436 24.4292,39.4476 24.3592,40.6126 C24.2882,41.7786 20.0752,42.4796 14.8002,42.2466" id="Fill-282" fill="#CE871B"></path>
                <path d="M23.7099,50.9998 C23.7349,52.1448 19.7669,53.0338 14.6499,53.0848 C14.6149,51.6758 14.6039,50.2058 14.6159,48.6748 C19.7079,48.8678 23.6849,49.8598 23.7099,50.9998" id="Fill-284" fill="#CE871B"></path>
                <path d="M23.0295,61.4715 C23.1235,62.5155 19.8885,63.4725 15.4535,63.8235 C15.2715,62.4785 15.1165,61.0385 14.9885,59.5145 C19.5055,59.6295 22.9355,60.4215 23.0295,61.4715" id="Fill-286" fill="#CE871B"></path>
                <path d="M16.7547,70.6426 C20.4867,71.0236 23.1297,71.8526 23.1507,72.7816 C23.1687,73.6096 21.0967,74.3026 18.0157,74.6426 C17.5687,73.4886 17.1447,72.1546 16.7547,70.6426" id="Fill-288" fill="#CE871B"></path>
                <path d="M24.9683,30.224 C24.8053,31.353 20.7383,31.857 15.6603,31.434 C15.8323,29.913 16.0213,28.455 16.2263,27.061 C21.3003,27.729 25.1313,29.09 24.9683,30.224" id="Fill-290" fill="#CE871B"></path>
                <path d="M25.5567,19.7465 C25.3367,20.7775 21.8367,21.1495 17.3387,20.7195 C17.6497,19.2215 17.9767,17.8105 18.3197,16.4975 C22.6807,17.3805 25.7757,18.7215 25.5567,19.7465" id="Fill-292" fill="#CE871B"></path>
                <path d="M20.4347,9.8852 C21.0037,8.4312 21.5857,7.1582 22.1697,6.0662 C25.1867,6.7762 27.1597,7.7142 27.0417,8.5332 C26.9097,9.4532 24.1847,9.9582 20.4347,9.8852" id="Fill-294" fill="#CE871B"></path>
                <path d="M19.0084,76.8605 C19.0604,76.8675 19.1134,76.8805 19.1634,76.8835 C22.8244,77.1055 24.2004,75.2975 24.3144,73.4125 C24.4284,71.5285 26.4044,38.9115 26.4044,38.9115 C26.4044,38.9115 28.3794,6.2955 28.4944,4.4105 C28.5744,3.0865 28.0254,1.7255 26.4234,0.9565 C26.9294,0.6865 27.4014,0.5625 27.8224,0.5875 C31.4824,0.8095 32.6254,2.8595 32.5054,4.8335 C32.3854,6.8075 30.3164,40.9735 30.3164,40.9735 C30.3164,40.9735 28.2474,75.1395 28.1274,77.1135 C28.0084,79.0875 26.6264,80.9855 22.9654,80.7635 C21.7884,80.6925 20.3544,79.4585 19.0084,76.8605" id="Fill-296" fill="#F7B15E"></path>
                <polygon id="Fill-298" fill="#FFF5D1" points="46.2872 39.9127 38.2352 23.5527 11.3132 50.9117 43.7952 51.9357"></polygon>
                <polygon id="Fill-300" fill="#FFF5D1" points="1.6734 45.229 9.7254 28.869 36.6474 56.228 4.1654 57.252"></polygon>
                <path d="M0.0004,97.3142 L48.8514,97.3142 L46.9794,92.4022 L48.8514,34.7842 C46.8134,34.7842 46.8134,38.6922 44.7754,38.6922 C42.7364,38.6922 42.7364,34.7842 40.6984,34.7842 C38.6614,34.7842 38.6614,38.6922 36.6244,38.6922 C34.5894,38.6922 34.5894,34.7842 32.5544,34.7842 C30.5194,34.7842 30.5194,38.6922 28.4844,38.6922 C26.4494,38.6922 26.4494,34.7842 24.4134,34.7842 C22.3784,34.7842 22.3784,38.6922 20.3424,38.6922 C18.3074,38.6922 18.3074,34.7842 16.2714,34.7842 C14.2374,34.7842 14.2374,38.6922 12.2024,38.6922 C10.1694,38.6922 10.1694,34.7842 8.1354,34.7842 C6.1014,34.7842 6.1014,38.6922 4.0664,38.6922 C2.0334,38.6922 2.0334,34.7842 0.0004,34.7842 L1.8734,92.4022 L0.0004,97.3142 Z" id="Fill-302" fill="#A87838"></path>
                <polygon id="Fill-304" fill="#A87838" points="46.9793 92.4016 1.8733 92.4016 0.0003 97.3146 48.8523 97.3146"></polygon>
                <polygon id="Fill-306" fill="#A87838" points="48.8519 97.3142 43.7229 92.4012 48.8519 34.7842 46.9789 92.4012"></polygon>
                <polygon id="Fill-308" fill="#A87838" points="0.0004 97.3142 5.1294 92.4012 0.0004 34.7842 1.8734 92.4012"></polygon>
                <path d="M48.852,35.0285 L40.212,76.2915 C38.847,82.8145 33.576,87.8035 26.989,88.8095 L1.873,92.6455 L1.873,92.6465 L-5.68434189e-14,97.5585 L48.852,97.5585 L46.979,92.6465 L48.852,35.0285 Z" id="Fill-310" fill="#7F5726"></path>
                <path d="M35.1337,75.4124 L13.7187,75.4124 C11.2867,75.4124 9.3097,73.4344 9.3097,71.0024 L9.3097,61.0954 C9.3097,58.6644 11.2867,56.6864 13.7187,56.6864 L35.1337,56.6864 C37.5657,56.6864 39.5437,58.6644 39.5437,61.0954 L39.5437,71.0024 C39.5437,73.4344 37.5657,75.4124 35.1337,75.4124" id="Fill-312" fill="#A87838"></path>
                <path d="M13.7183,58.6402 C12.3643,58.6402 11.2633,59.7412 11.2633,61.0952 L11.2633,71.0032 C11.2633,72.3572 12.3643,73.4582 13.7183,73.4582 L35.1333,73.4582 C36.4873,73.4582 37.5893,72.3572 37.5893,71.0032 L37.5893,61.0952 C37.5893,59.7412 36.4873,58.6402 35.1333,58.6402 L13.7183,58.6402 Z" id="Fill-314" fill="#A87838"></path>
                <path d="M5.1299,42.4377 C8.3459,42.2357 11.5619,42.1417 14.7779,42.0637 C17.9939,41.9747 21.2099,41.9617 24.4259,41.9497 C27.6419,41.9607 30.8579,41.9737 34.0739,42.0617 L38.8989,42.1977 C40.5059,42.2797 42.1139,42.3267 43.7229,42.4377 C42.1139,42.5487 40.5059,42.5957 38.8989,42.6777 L34.0739,42.8137 C30.8579,42.9017 27.6419,42.9147 24.4259,42.9257 C21.2099,42.9137 17.9939,42.9007 14.7779,42.8117 C11.5619,42.7337 8.3459,42.6387 5.1299,42.4377" id="Fill-316" fill="#A87838"></path>
            </g>
        </g>
    </g>
</svg>