<?xml version="1.0" encoding="UTF-8"?>
<svg width="49px" height="39px" viewBox="0 0 49 39" version="1.1" xmlns="http://www.w3.org/2000/svg" xmlns:xlink="http://www.w3.org/1999/xlink">
    <!-- Generator: Sketch 53.1 (72631) - https://sketchapp.com -->
    <title>Group 33banana</title>
    <desc>Created with Sketch.</desc>
    <g id="Page-1" stroke="none" stroke-width="1" fill="none" fill-rule="evenodd">
        <g id="Artboard" transform="translate(-575.000000, -956.000000)">
            <g id="Group-33" transform="translate(575.901546, 955.759400)">
                <g id="Group-12">
                    <path d="M7.61155389,5.2141 C10.9485539,5.2681 15.7875539,16.1341 26.2025539,16.0091 C36.6165539,15.8841 45.4865539,5.1391 45.4865539,5.1391 L46.7785539,6.5171 C46.7785539,6.5171 44.7315539,24.5261 27.3085539,24.8781 C9.88555389,25.2301 3.93555389,7.6551 5.83955389,6.5681 C6.29155389,6.0481 5.83355389,5.1851 7.61155389,5.2141" id="Fill-352" fill="#D89330"></path>
                    <path d="M9.27475389,12.0256 C9.27475389,12.0256 27.0817539,32.7866 42.0087539,13.0116 C26.4667539,29.6796 9.27475389,12.0256 9.27475389,12.0256" id="Fill-353" fill="#8F7C11"></path>
                    <polygon id="Fill-354" fill="#59501C" points="47.1788539 5.152 46.7788539 6.517 45.4858539 5.139 46.2578539 4.41"></polygon>
                    <path d="M3.81055389,6.0639 C3.81055389,6.0639 3.75155389,2.4499 4.25355389,0.7739 C4.25355389,0.7739 5.18355389,0.0439 5.85555389,0.5689 C6.20055389,3.3259 7.56855389,5.8369 7.56855389,5.8369 L3.81055389,6.0639 Z" id="Fill-355" fill="#CCB741"></path>
                    <polygon id="Fill-356" fill="#59501C" points="5.87475389 0.707 4.65475389 0.699 4.38275389 0.422 4.65475389 0.293 5.78475389 0.323"></polygon>
                    <path d="M7.17065389,5.6715 C10.3986539,6.5185 12.5136539,18.2235 22.6586539,20.5795 C32.8036539,22.9365 43.9756539,14.6105 43.9756539,14.6105 L44.9026539,16.2565 C44.9026539,16.2565 38.6296539,33.2615 21.6236539,29.4575 C4.61665389,25.6545 3.01965389,7.1675 5.12765389,6.5655 C5.69065389,6.1675 5.45065389,5.2205 7.17065389,5.6715" id="Fill-357" fill="#F8B033"></path>
                    <path d="M7.16535389,12.6832 C7.16535389,12.6832 19.5213539,37.0852 38.7253539,21.4292 C19.6633539,33.9212 7.16535389,12.6832 7.16535389,12.6832" id="Fill-358" fill="#8F7C11"></path>
                    <polygon id="Fill-359" fill="#59501C" points="45.6163539 15.0257 44.9033539 16.2557 43.9753539 14.6107 44.8983539 14.0857"></polygon>
                    <path d="M6.64195389,6.0067 C9.58095389,7.5867 8.89295389,19.4617 18.2029539,24.1307 C27.5129539,28.8007 40.3249539,23.3267 40.3249539,23.3267 L40.8409539,25.1437 C40.8409539,25.1437 30.7549539,40.2037 15.1149539,32.5187 C-0.526046108,24.8337 2.25595389,6.4877 4.44595389,6.3967 C5.08595389,6.1427 5.07595389,5.1647 6.64195389,6.0067" id="Fill-360" fill="#E8A334"></path>
                    <path d="M4.99275389,12.8216 C4.99275389,12.8216 11.2827539,39.4406 33.6217539,28.7236 C12.1627539,36.3976 4.99275389,12.8216 4.99275389,12.8216" id="Fill-361" fill="#8F7C11"></path>
                    <polygon id="Fill-362" fill="#59501C" points="41.8224539 24.1146 40.8404539 25.1436 40.3244539 23.3266 41.3444539 23.0326"></polygon>
                    <path d="M6.03585389,6.2115 C8.51185389,8.4495 4.99885389,19.8135 12.9198539,26.5765 C20.8408539,33.3405 34.5908539,31.0935 34.5908539,31.0935 L34.6558539,32.9815 C34.6558539,32.9815 21.2578539,45.1885 7.91285389,33.9805 C-5.43214611,22.7735 1.66185389,5.6275 3.81085389,6.0635 C4.49285389,5.9705 4.71685389,5.0195 6.03585389,6.2115" id="Fill-363" fill="#F8B033"></path>
                    <path d="M2.80242862,12.433 C2.80242862,12.433 2.53455389,39.783 26.7905539,34.729 C4.11755389,37.04 2.80242862,12.433 2.80242862,12.433" id="Fill-364" fill="#8F7C11"></path>
                    <polygon id="Fill-365" fill="#59501C" points="35.8560539 32.2177 34.6560539 32.9817 34.5910539 31.0937 35.6510539 31.0527"></polygon>
                </g>
            </g>
        </g>
    </g>
</svg>