<?xml version="1.0" encoding="UTF-8"?>
<svg width="57px" height="60px" viewBox="0 0 57 60" version="1.1" xmlns="http://www.w3.org/2000/svg" xmlns:xlink="http://www.w3.org/1999/xlink">
    <!-- Generator: Sketch 53.1 (72631) - https://sketchapp.com -->
    <title>Group 16Jar</title>
    <desc>Created with Sketch.</desc>
    <g id="Page-1" stroke="none" stroke-width="1" fill="none" fill-rule="evenodd">
        <g id="Artboard" transform="translate(-947.000000, -925.000000)">
            <g id="Group-16" transform="translate(947.931900, 925.142500)">
                <path d="M49.023,11.623 L44.604,28.723 L42.031,11.623 L49.023,11.623 Z M41.248,6.417 L40.281,-1.77635684e-14 L3.026,-1.77635684e-14 C2.404,-1.77635684e-14 1.986,0.663 2.233,1.257 L7.048,12.831 L-5.68434189e-14,59.655 L49.259,59.655 L46.509,41.383 L55.253,7.549 C55.401,6.978 54.988,6.417 54.419,6.417 L41.248,6.417 Z" id="Fill-113" fill-opacity="0.95" fill="#FFF8DC" opacity="0.365187872"></path>
                <path d="M11.2935,18.2531 L6.4965,50.1181 C6.1535,52.3921 7.8425,54.4481 10.0525,54.4481 L39.2075,54.4481 C41.4175,54.4481 43.1065,52.3921 42.7635,50.1181 L37.9675,18.2531 L11.2935,18.2531 Z" id="Fill-115" fill="#F8B033"></path>
                <path d="M11.6963,54.4493 C11.4383,54.4493 11.1783,54.4283 10.9153,54.3853 C8.1873,53.9393 6.3233,51.2763 6.7503,48.4353 L10.6313,22.6533 C11.0583,19.8123 13.6193,17.8783 16.3453,18.3163 C19.0733,18.7613 20.9383,21.4253 20.5103,24.2663 L16.6293,50.0483 C16.2433,52.6153 14.1153,54.4493 11.6963,54.4493" id="Fill-117" fill="#FFFFFF"></path>
            </g>
        </g>
    </g>
</svg>