<?xml version="1.0" encoding="UTF-8"?>
<svg width="78px" height="55px" viewBox="0 0 78 55" version="1.1" xmlns="http://www.w3.org/2000/svg" xmlns:xlink="http://www.w3.org/1999/xlink">
    <!-- Generator: Sketch 53.1 (72631) - https://sketchapp.com -->
    <title>Group 31Jellycake</title>
    <desc>Created with Sketch.</desc>
    <g id="Page-1" stroke="none" stroke-width="1" fill="none" fill-rule="evenodd">
        <g id="Artboard" transform="translate(-742.000000, -942.000000)">
            <g id="Group-31" transform="translate(742.219900, 942.470400)">
                <g id="Group-14">
                    <path d="M71.1498,43.3826 C71.1808,43.5536 71.1968,43.7246 71.1968,43.8976 C71.1968,49.2376 56.4388,53.5676 38.2328,53.5676 C20.0268,53.5676 5.2678,49.2376 5.2678,43.8976 C5.2678,43.7246 5.2848,43.5536 5.3158,43.3826 C5.3158,43.3826 9.6698,12.4996 37.8978,12.4996 C66.1258,12.4996 71.1498,43.3826 71.1498,43.3826" id="Fill-374" fill="#FFEFE2"></path>
                    <path d="M37.898,12.4995 C15.851,12.4995 8.367,31.3385 6.147,39.5885 C5.597,41.9165 7.944,44.3805 11.881,42.7685 C19.518,39.6425 20.626,32.2545 26.908,33.1065 C34.009,34.0705 31.661,48.4525 40.087,48.4525 C48.708,48.4525 46.861,37.6535 51.048,34.2435 C55.236,30.8335 57.946,42.7685 65.089,38.2215 C66.63,37.2415 67.55,35.5715 68.048,33.5585 C64.085,24.5165 55.507,12.4995 37.898,12.4995" id="Fill-375" fill="#F8B033"></path>
                    <path d="M10.1434,28.1335 C10.1434,28.1335 6.0224,34.1015 9.8594,33.8175 C13.6954,33.5325 13.5534,28.7015 16.1114,26.9965 C18.6684,25.2915 22.0784,27.5655 20.5154,30.8335 C18.9524,34.1015 15.1164,40.9215 20.0894,42.6265 C25.0624,44.3315 25.4894,35.5245 25.4894,31.5435 C25.4894,26.9965 30.0354,24.5815 32.4514,28.7015 C34.8664,32.8225 29.7454,43.4145 36.2874,43.9055 C41.9714,44.3315 40.4914,35.5095 39.9824,32.5385 C39.1294,27.5655 45.2394,24.7235 47.3704,29.1285 C49.5014,33.5325 47.6544,35.6645 48.0814,39.9265 C48.5074,44.1895 49.5014,46.3205 53.0544,45.7525 C56.6064,45.1845 55.3274,39.5005 53.9064,36.8005 C52.4854,34.1015 50.7804,27.7075 54.4754,25.7185 C58.1694,23.7285 60.8694,31.4015 61.0114,34.1015 C61.1534,36.8005 62.1474,42.0585 65.4154,41.3475 C68.6834,40.6375 69.5364,34.2435 66.2684,28.8435 C63.0004,23.4445 61.5794,21.7395 57.1744,18.3295 C53.1224,15.1925 17.5324,19.9635 17.5324,19.9635 C17.5324,19.9635 13.7664,22.3785 10.1434,28.1335" id="Fill-376" fill="#FF5622"></path>
                    <path d="M59.0865,19.5652 C59.1055,19.6732 59.1165,19.7822 59.1165,19.8912 C59.1165,23.2752 49.7665,26.0172 38.2325,26.0172 C26.6985,26.0172 17.3485,23.2752 17.3485,19.8912 C17.3485,19.7822 17.3595,19.6732 17.3785,19.5652 C17.3785,19.5652 20.1375,0.0002 38.0205,0.0002 C55.9035,0.0002 59.0865,19.5652 59.0865,19.5652" id="Fill-377" fill="#FFEFE2"></path>
                    <path d="M38.0206,1.77635684e-14 C25.5616,1.77635684e-14 20.4476,9.492 18.4896,15.253 C18.5906,15.668 18.8206,16.003 19.2366,16.198 C21.5106,17.264 21.5106,12.93 21.8656,10.941 C22.2206,8.952 24.0676,6.962 25.4886,8.596 C26.9096,10.23 25.2756,13.001 25.9156,15.061 C26.5546,17.122 28.7566,17.264 29.3256,15.488 C29.8936,13.712 29.0416,11.083 29.7516,8.596 C30.4616,6.11 33.3036,5.897 34.0856,8.099 C34.8666,10.301 33.7296,13.783 33.8006,15.914 C33.8726,18.045 34.7956,19.466 35.9326,19.75 C37.0696,20.034 38.7036,18.827 37.6376,14.706 C36.5716,10.586 36.8556,9.378 37.4246,8.667 C37.9926,7.957 40.0526,7.744 40.6216,10.088 C41.1896,12.433 39.6976,14.777 41.0476,16.98 C42.3976,19.182 44.8126,17.761 44.1736,14.706 C43.5346,11.651 42.7526,7.247 45.5236,7.247 C48.2936,7.247 49.2886,11.083 48.9336,13.783 C48.5786,16.482 50.7096,17.903 52.2726,16.909 C53.8356,15.914 52.9826,12.575 51.7046,10.017 C50.4256,7.46 52.0596,6.252 53.3386,8.454 C54.5526,10.545 54.8716,15.128 57.4526,14.13 C55.1046,8.34 49.6976,1.77635684e-14 38.0206,1.77635684e-14" id="Fill-378" fill="#FF5622"></path>
                    <path d="M7.5364,48.7983 L10.6594,52.4723 C11.7214,53.7223 13.3884,54.4583 15.1594,54.4583 L16.2804,54.4583 L61.0074,54.4583 L62.1284,54.4583 C63.8984,54.4583 65.5664,53.7223 66.6284,52.4723 L69.7514,48.7983 L7.5364,48.7983 Z" id="Fill-379" fill="#A3B6B6"></path>
                    <path d="M74.826,48.7983 L2.462,48.7983 C1.102,48.7983 0,47.6963 0,46.3373 L0,46.3373 C0,44.9773 1.102,43.8753 2.462,43.8753 L74.826,43.8753 C76.185,43.8753 77.287,44.9773 77.287,46.3373 L77.287,46.3373 C77.287,47.6963 76.185,48.7983 74.826,48.7983" id="Fill-380" fill="#C5D5D4"></path>
                </g>
            </g>
        </g>
    </g>
</svg>