<?xml version="1.0" encoding="UTF-8"?>
<svg width="24px" height="54px" viewBox="0 0 24 54" version="1.1" xmlns="http://www.w3.org/2000/svg" xmlns:xlink="http://www.w3.org/1999/xlink">
    <!-- Generator: Sketch 53.1 (72631) - https://sketchapp.com -->
    <title>Group 17juice</title>
    <desc>Created with Sketch.</desc>
    <g id="Page-1" stroke="none" stroke-width="1" fill="none" fill-rule="evenodd">
        <g id="Artboard" transform="translate(-1039.000000, -926.000000)">
            <g id="Group-17" transform="translate(1039.672400, 926.770500)">
                <polygon id="Fill-339" fill="#D9D6CA" points="9.228 37.068 8.281 8.586 5.68434189e-14 1.548 1.316 -7.10542736e-15 10.283 7.618 11.259 37.001"></polygon>
                <polygon id="Fill-341" fill="#FFF5D9" points="4.0526 52.7695 23.1696 52.7695 23.1696 11.7275 4.0526 11.7275"></polygon>
                <polygon id="Fill-343" fill="#F8B033" points="6.3516 48.4935 20.9676 48.4935 20.9676 13.5415 6.3516 13.5415"></polygon>
                <path d="M10.8183,18.0028 C10.8183,18.6378 10.3033,19.1518 9.6683,19.1518 C9.0343,19.1518 8.5193,18.6378 8.5193,18.0028 C8.5193,17.3678 9.0343,16.8538 9.6683,16.8538 C10.3033,16.8538 10.8183,17.3678 10.8183,18.0028" id="Fill-344" fill="#EDD9AD"></path>
                <path d="M16.3946,21.0571 C16.3946,22.1101 15.5416,22.9631 14.4886,22.9631 C13.4376,22.9631 12.5846,22.1101 12.5846,21.0571 C12.5846,20.0051 13.4376,19.1511 14.4886,19.1511 C15.5416,19.1511 16.3946,20.0051 16.3946,21.0571" id="Fill-345" fill="#EDD9AD"></path>
                <path d="M10.8183,25.2657 C10.8183,25.6897 10.4743,26.0347 10.0503,26.0347 C9.6253,26.0347 9.2823,25.6897 9.2823,25.2657 C9.2823,24.8417 9.6253,24.4977 10.0503,24.4977 C10.4743,24.4977 10.8183,24.8417 10.8183,25.2657" id="Fill-346" fill="#EDD9AD"></path>
                <path d="M15.3147,30.1654 C15.3147,30.6364 14.9337,31.0164 14.4627,31.0164 C13.9927,31.0164 13.6117,30.6364 13.6117,30.1654 C13.6117,29.6944 13.9927,29.3134 14.4627,29.3134 C14.9337,29.3134 15.3147,29.6944 15.3147,30.1654" id="Fill-347" fill="#EDD9AD"></path>
                <path d="M18.2368,38.586 C18.2368,39.743 17.2988,40.682 16.1408,40.682 C14.9838,40.682 14.0448,39.743 14.0448,38.586 C14.0448,37.428 14.9838,36.49 16.1408,36.49 C17.2988,36.49 18.2368,37.428 18.2368,38.586" id="Fill-348" fill="#EDD9AD"></path>
                <path d="M10.8183,34.111 C10.8183,34.429 10.5603,34.686 10.2433,34.686 C9.9263,34.686 9.6683,34.429 9.6683,34.111 C9.6683,33.794 9.9263,33.537 10.2433,33.537 C10.5603,33.537 10.8183,33.794 10.8183,34.111" id="Fill-349" fill="#EDD9AD"></path>
                <path d="M15.3147,44.6191 C15.3147,45.1801 14.8607,45.6351 14.2997,45.6351 C13.7377,45.6351 13.2827,45.1801 13.2827,44.6191 C13.2827,44.0581 13.7377,43.6031 14.2997,43.6031 C14.8607,43.6031 15.3147,44.0581 15.3147,44.6191" id="Fill-350" fill="#EDD9AD"></path>
                <path d="M10.8695,42.2692 C10.8695,41.7082 10.4145,41.2532 9.8535,41.2532 C9.2925,41.2532 8.8365,41.7082 8.8365,42.2692 C8.8365,42.8302 9.2925,43.2862 9.8535,43.2862 C10.4145,43.2862 10.8695,42.8302 10.8695,42.2692" id="Fill-351" fill="#EDD9AD"></path>
            </g>
        </g>
    </g>
</svg>