<?xml version="1.0" encoding="UTF-8"?>
<svg width="45px" height="48px" viewBox="0 0 45 48" version="1.1" xmlns="http://www.w3.org/2000/svg" xmlns:xlink="http://www.w3.org/1999/xlink">
    <!-- Generator: Sketch 53.1 (72631) - https://sketchapp.com -->
    <title>Group 15ketchup</title>
    <desc>Created with Sketch.</desc>
    <g id="Page-1" stroke="none" stroke-width="1" fill="none" fill-rule="evenodd">
        <g id="Artboard" transform="translate(-849.000000, -938.000000)">
            <g id="Group-15" transform="translate(849.443900, 938.546000)">
                <path d="M18.5,44.428 C18.5,46.084 17.157,47.428 15.5,47.428 L3,47.428 C1.343,47.428 0,46.084 0,44.428 L0,15.303 C0,13.647 1.343,12.303 3,12.303 L15.5,12.303 C17.157,12.303 18.5,13.647 18.5,15.303 L18.5,44.428 Z" id="Fill-366" fill="#ED1C24"></path>
                <polygon id="Fill-367" fill="#C91F2B" points="3.0001 12.303 15.5001 12.303 15.5001 9.303 3.0001 9.303"></polygon>
                <polygon id="Fill-368" fill="#ED1C24" points="11.4658 9.303 10.3748 5.32907052e-14 8.1248 5.32907052e-14 7.0338 9.303"></polygon>
                <polygon id="Fill-369" fill="#FFF8DC" points="3.0001 25.51 15.5001 25.51 15.5001 18.303 3.0001 18.303"></polygon>
                <path d="M44.4433,44.428 C44.4433,46.084 43.1003,47.428 41.4433,47.428 L28.9433,47.428 C27.2863,47.428 25.9433,46.084 25.9433,44.428 L25.9433,15.303 C25.9433,13.647 27.2863,12.303 28.9433,12.303 L41.4433,12.303 C43.1003,12.303 44.4433,13.647 44.4433,15.303 L44.4433,44.428 Z" id="Fill-370" fill="#F8B033"></path>
                <polygon id="Fill-371" fill="#F29100" points="28.9431 12.303 41.4431 12.303 41.4431 9.303 28.9431 9.303"></polygon>
                <polygon id="Fill-372" fill="#F8B033" points="37.4091 9.303 36.3181 5.32907052e-14 34.0681 5.32907052e-14 32.9771 9.303"></polygon>
                <polygon id="Fill-373" fill="#FFF8DC" points="28.9431 25.51 41.4431 25.51 41.4431 18.303 28.9431 18.303"></polygon>
            </g>
        </g>
    </g>
</svg>