<?xml version="1.0" encoding="UTF-8"?>
<svg width="71px" height="40px" viewBox="0 0 71 40" version="1.1" xmlns="http://www.w3.org/2000/svg" xmlns:xlink="http://www.w3.org/1999/xlink">
    <!-- Generator: Sketch 53.1 (72631) - https://sketchapp.com -->
    <title>Group 11melon</title>
    <desc>Created with Sketch.</desc>
    <defs>
        <path d="M0.491,28.967 C1.665,30.695 28.889,35.918 33.714,11.995 L33.714,11.995 C34.038,10.386 7.081,0.485 7.081,0.485 L7.081,0.485 C7.081,0.485 -0.683,27.239 0.491,28.967" id="path-1"></path>
        <path d="M0.491,28.967 C1.665,30.695 28.889,35.918 33.714,11.995 L33.714,11.995 C34.038,10.386 7.081,0.485 7.081,0.485 L7.081,0.485 C7.081,0.485 -0.683,27.239 0.491,28.967" id="path-3"></path>
    </defs>
    <g id="Page-1" stroke="none" stroke-width="1" fill="none" fill-rule="evenodd">
        <g id="Artboard" transform="translate(-456.000000, -961.000000)">
            <g id="Group-11" transform="translate(456.000000, 961.720600)">
                <path d="M9.8107,2.84217094e-14 C9.6637,0.709 9.5377,1.427 9.4387,2.155 C7.1217,19.148 18.9227,34.788 35.7957,37.088 C52.6697,39.389 68.2267,27.479 70.5427,10.487 C70.6417,9.758 70.7147,9.033 70.7627,8.311 L9.8107,2.84217094e-14 Z" id="Fill-381" fill="#026830"></path>
                <path d="M11.5123,0.2321 C11.3773,0.8911 11.0133,2.2321 10.9213,2.9091 C8.7693,18.6921 20.6213,33.0511 36.0593,35.1551 C51.4983,37.2601 66.1293,26.2581 68.2813,10.4741 C68.3743,9.8001 68.5913,8.9531 68.7013,8.2131 L11.5123,0.2321 Z" id="Fill-382" fill="#E3FFC5"></path>
                <path d="M13.2859,0.4737 C13.1579,1.0787 13.0499,1.6937 12.9659,2.3177 C10.9819,16.8577 21.4769,30.2957 36.4069,32.3297 C51.3369,34.3657 65.0459,24.2297 67.0289,9.6897 C67.1129,9.0667 67.1739,8.4447 67.2139,7.8277 L13.2859,0.4737 Z" id="Fill-383" fill="#ED1C24"></path>
                <path d="M17.0837,6.5272 C16.9457,7.1632 17.1557,7.9072 17.8197,8.0512 C18.4827,8.1962 18.9617,7.6242 19.1007,6.9872 C19.2407,6.3512 18.8377,5.3382 18.4137,5.2802 C17.9217,5.2132 17.2237,5.8892 17.0837,6.5272" id="Fill-384" fill="#380D1A"></path>
                <path d="M26.2708,8.9304 C26.1188,9.6324 26.3508,10.4524 27.0828,10.6124 C27.8128,10.7714 28.3418,10.1404 28.4948,9.4384 C28.6478,8.7374 28.2048,7.6194 27.7358,7.5564 C27.1958,7.4824 26.4238,8.2284 26.2708,8.9304" id="Fill-385" fill="#380D1A"></path>
                <path d="M37.5534,8.0887 C37.4284,8.6637 37.6184,9.3347 38.2184,9.4657 C38.8164,9.5967 39.2494,9.0797 39.3754,8.5047 C39.4994,7.9297 39.1364,7.0147 38.7534,6.9627 C38.3104,6.9017 37.6784,7.5137 37.5534,8.0887" id="Fill-386" fill="#380D1A"></path>
                <path d="M59.4096,11.0688 C59.3036,11.5548 59.4666,12.1238 59.9726,12.2338 C60.4786,12.3448 60.8446,11.9068 60.9516,11.4208 C61.0576,10.9348 60.7506,10.1608 60.4256,10.1168 C60.0506,10.0648 59.5166,10.5828 59.4096,11.0688" id="Fill-387" fill="#380D1A"></path>
                <path d="M48.6322,13.2705 C48.4782,13.9715 48.7122,14.7915 49.4422,14.9515 C50.1742,15.1105 50.7022,14.4795 50.8552,13.7775 C51.0092,13.0755 50.5652,11.9595 50.0972,11.8955 C49.5562,11.8225 48.7852,12.5675 48.6322,13.2705" id="Fill-388" fill="#380D1A"></path>
                <path d="M40.914,17.6877 C40.761,18.3887 40.994,19.2097 41.725,19.3687 C42.455,19.5277 42.985,18.8967 43.137,18.1947 C43.29,17.4937 42.846,16.3767 42.379,16.3137 C41.838,16.2387 41.067,16.9857 40.914,17.6877" id="Fill-389" fill="#380D1A"></path>
                <path d="M27.4285,24.1018 C27.3135,24.6298 27.4895,25.2478 28.0395,25.3688 C28.5915,25.4888 28.9895,25.0138 29.1045,24.4848 C29.2195,23.9558 28.8855,23.1138 28.5325,23.0658 C28.1255,23.0098 27.5445,23.5728 27.4285,24.1018" id="Fill-390" fill="#380D1A"></path>
                <path d="M36.8525,27.0619 C36.7365,27.5919 36.9115,28.2089 37.4635,28.3289 C38.0145,28.4489 38.4125,27.9739 38.5285,27.4449 C38.6435,26.9169 38.3085,26.0739 37.9565,26.0269 C37.5485,25.9709 36.9675,26.5329 36.8525,27.0619" id="Fill-391" fill="#380D1A"></path>
                <path d="M46.3175,23.8755 C46.2025,24.4045 46.3775,25.0225 46.9275,25.1425 C47.4795,25.2625 47.8775,24.7875 47.9925,24.2595 C48.1075,23.7295 47.7735,22.8885 47.4215,22.8405 C47.0135,22.7835 46.4325,23.3475 46.3175,23.8755" id="Fill-392" fill="#380D1A"></path>
                <path d="M31.5002,16.4044 C31.3852,16.9334 31.5612,17.5504 32.1112,17.6714 C32.6622,17.7914 33.0612,17.3164 33.1762,16.7874 C33.2912,16.2584 32.9562,15.4164 32.6042,15.3684 C32.1972,15.3124 31.6162,15.8754 31.5002,16.4044" id="Fill-393" fill="#380D1A"></path>
                <path d="M53.9595,21.0394 C53.8485,21.5444 54.0165,22.1364 54.5435,22.2514 C55.0695,22.3654 55.4525,21.9114 55.5615,21.4054 C55.6725,20.9004 55.3525,20.0944 55.0155,20.0494 C54.6265,19.9954 54.0685,20.5334 53.9595,21.0394" id="Fill-394" fill="#380D1A"></path>
                <path d="M20.1198,17.0605 C20.0088,17.5665 20.1768,18.1585 20.7038,18.2735 C21.2328,18.3875 21.6118,17.9335 21.7238,17.4275 C21.8338,16.9215 21.5148,16.1165 21.1768,16.0705 C20.7858,16.0165 20.2308,16.5555 20.1198,17.0605" id="Fill-395" fill="#380D1A"></path>
                <path d="M7.081,8.1798 C7.081,8.1798 -0.683,34.9348 0.491,36.6628 C1.665,38.3908 28.889,43.6138 33.714,19.6908 C34.038,18.0818 7.081,8.1798 7.081,8.1798" id="Fill-396" fill="#ED1C24"></path>
                <g id="Group-404" transform="translate(0.000000, 7.695400)">
                    <g id="Group-400">
                        <mask id="mask-2" fill="white">
                            <use xlink:href="#path-1"></use>
                        </mask>
                        <g id="Clip-399"></g>
                        <path d="M-0.4194,24.5812 C-0.4194,24.5812 22.3566,34.1542 30.9346,8.6162 C36.0176,10.0632 39.3756,15.1052 28.9516,24.5032 C16.7246,35.5272 1.6996,34.7502 -1.9814,28.8732 C-0.2464,24.1072 -0.4194,24.5812 -0.4194,24.5812" id="Fill-398" fill="#E3FFC5" mask="url(#mask-2)"></path>
                    </g>
                    <g id="Group-403">
                        <mask id="mask-4" fill="white">
                            <use xlink:href="#path-3"></use>
                        </mask>
                        <g id="Clip-402"></g>
                        <path d="M23.2935,29.2779 C20.8365,30.5329 18.3175,31.3069 15.9905,31.7759 C8.0435,33.3759 -0.6195,31.8429 -1.8495,30.0319 C-1.8495,30.0319 0.1815,27.0929 0.0735,27.5809 C1.3075,28.4659 11.1895,31.0449 19.8855,27.3509 C27.6365,24.0579 30.4365,19.3419 32.8835,10.2859 L36.0035,11.4669 C34.0445,21.1799 28.8295,26.4499 23.2935,29.2779" id="Fill-401" fill="#047233" mask="url(#mask-4)"></path>
                    </g>
                </g>
                <g id="Group-419" transform="translate(6.000000, 14.695400)" fill="#380D1A">
                    <path d="M0.4252,11.1073 C0.6212,11.5373 1.0672,11.8773 1.5172,11.6723 C1.9652,11.4673 1.9942,10.9263 1.7972,10.4953 C1.5992,10.0653 0.9242,9.6523 0.6522,9.8043 C0.3382,9.9793 0.2272,10.6763 0.4252,11.1073" id="Fill-405"></path>
                    <path d="M10.4239,2.3567 C10.6929,2.9467 11.3059,3.4137 11.9199,3.1317 C12.5349,2.8497 12.5749,2.1077 12.3049,1.5187 C12.0339,0.9277 11.1079,0.3617 10.7359,0.5697 C10.3049,0.8097 10.1529,1.7667 10.4239,2.3567" id="Fill-407"></path>
                    <path d="M17.759,5.6765 C18.026,6.2585 18.629,6.7175 19.235,6.4405 C19.841,6.1625 19.88,5.4315 19.614,4.8495 C19.347,4.2685 18.434,3.7105 18.067,3.9145 C17.642,4.1515 17.493,5.0945 17.759,5.6765" id="Fill-409"></path>
                    <path d="M5.6182,14.9715 C5.9062,15.6005 6.5582,16.0965 7.2142,15.7965 C7.8682,15.4975 7.9112,14.7065 7.6222,14.0775 C7.3342,13.4495 6.3492,12.8465 5.9522,13.0675 C5.4922,13.3235 5.3312,14.3425 5.6182,14.9715" id="Fill-411"></path>
                    <path d="M7.6071,8.0823 C7.8511,8.6153 8.4041,9.0363 8.9601,8.7823 C9.5161,8.5273 9.5511,7.8573 9.3071,7.3243 C9.0621,6.7913 8.2261,6.2793 7.8901,6.4673 C7.5001,6.6843 7.3631,7.5493 7.6071,8.0823" id="Fill-413"></path>
                    <path d="M14.3674,10.8428 C14.5474,11.2368 14.9574,11.5488 15.3684,11.3608 C15.7804,11.1728 15.8064,10.6758 15.6254,10.2818 C15.4444,9.8868 14.8254,9.5088 14.5764,9.6468 C14.2884,9.8068 14.1864,10.4478 14.3674,10.8428" id="Fill-415"></path>
                    <path d="M2.0175,3.6285 C2.2605,4.1595 2.8125,4.5795 3.3665,4.3265 C3.9215,4.0725 3.9565,3.4035 3.7125,2.8715 C3.4695,2.3395 2.6345,1.8295 2.2995,2.0165 C1.9105,2.2325 1.7735,3.0955 2.0175,3.6285" id="Fill-417"></path>
                </g>
            </g>
        </g>
    </g>
</svg>