<?xml version="1.0" encoding="UTF-8"?>
<svg width="314px" height="101px" viewBox="0 0 314 101" version="1.1" xmlns="http://www.w3.org/2000/svg" xmlns:xlink="http://www.w3.org/1999/xlink">
    <!-- Generator: Sketch 53.1 (72631) - https://sketchapp.com -->
    <title>Group 61Bunting</title>
    <desc>Created with Sketch.</desc>
    <defs>
        <polyline id="path-1" points="0.37 17.812 16.319 19.849 16.271 35.927 36.116 15.778 29.519 8.262 22.922 0.746"></polyline>
        <polyline id="path-3" points="0.37 17.812 16.319 19.849 16.271 35.927 36.116 15.778 29.519 8.262 22.922 0.746"></polyline>
        <polygon id="path-5" points="0.37 17.812 16.319 19.849 16.271 35.927 36.116 15.778 29.519 8.262 22.922 0.746"></polygon>
        <polyline id="path-7" points="0.37 17.812 16.319 19.849 16.271 35.927 36.116 15.778 29.519 8.262 22.922 0.746"></polyline>
        <polyline id="path-9" points="0.37 17.812 16.319 19.849 16.271 35.927 36.116 15.778 29.519 8.262 22.922 0.746"></polyline>
        <polyline id="path-11" points="0.37 17.812 16.319 19.849 16.271 35.927 36.116 15.778 29.519 8.262 22.922 0.746"></polyline>
        <polyline id="path-13" points="35.338 13.024 18.923 36.054 16.431 20.17 0.361 20.676 19.936 0.264 27.637 6.644"></polyline>
        <polyline id="path-15" points="35.338 13.024 18.923 36.054 16.431 20.17 0.361 20.676 19.936 0.264 27.637 6.644"></polyline>
        <polyline id="path-17" points="35.338 13.024 18.923 36.054 16.431 20.17 0.361 20.676 19.936 0.264 27.637 6.644"></polyline>
        <polyline id="path-19" points="35.338 13.024 18.923 36.054 16.431 20.17 0.361 20.676 19.936 0.264 27.637 6.644"></polyline>
        <polyline id="path-21" points="35.338 13.024 18.923 36.054 16.431 20.17 0.361 20.676 19.936 0.264 27.637 6.644"></polyline>
        <polyline id="path-23" points="35.338 13.024 18.923 36.054 16.431 20.17 0.361 20.676 19.936 0.264 27.637 6.644"></polyline>
        <polyline id="path-25" points="35.338 13.024 18.923 36.054 16.431 20.17 0.361 20.676 19.936 0.264 27.637 6.644"></polyline>
        <polyline id="path-27" points="35.338 13.024 18.923 36.054 16.431 20.17 0.361 20.676 19.936 0.264 27.637 6.644"></polyline>
        <polyline id="path-29" points="33.33 10.79 21.142 36.31 15.942 21.097 0.202 24.373 15.954 0.884 24.642 5.837"></polyline>
        <polyline id="path-31" points="33.33 10.79 21.142 36.31 15.942 21.097 0.202 24.373 15.954 0.884 24.642 5.837"></polyline>
        <polyline id="path-33" points="33.33 10.79 21.142 36.31 15.942 21.097 0.202 24.373 15.954 0.884 24.642 5.837"></polyline>
        <polyline id="path-35" points="33.33 10.79 21.142 36.31 15.942 21.097 0.202 24.373 15.954 0.884 24.642 5.837"></polyline>
        <polyline id="path-37" points="33.33 10.79 21.142 36.31 15.942 21.097 0.202 24.373 15.954 0.884 24.642 5.837"></polyline>
        <polyline id="path-39" points="31.186 7.894 22.465 34.797 15.308 20.4 0.136 25.72 12.658 0.362 21.922 4.128"></polyline>
        <polyline id="path-41" points="31.186 7.894 22.465 34.797 15.308 20.4 0.136 25.72 12.658 0.362 21.922 4.128"></polyline>
        <polyline id="path-43" points="31.186 7.894 22.465 34.797 15.308 20.4 0.136 25.72 12.658 0.362 21.922 4.128"></polyline>
        <polyline id="path-45" points="31.186 7.894 22.465 34.797 15.308 20.4 0.136 25.72 12.658 0.362 21.922 4.128"></polyline>
        <polyline id="path-47" points="31.186 7.894 22.465 34.797 15.308 20.4 0.136 25.72 12.658 0.362 21.922 4.128"></polyline>
        <polyline id="path-49" points="31.186 7.894 22.465 34.797 15.308 20.4 0.136 25.72 12.658 0.362 21.922 4.128"></polyline>
        <polyline id="path-51" points="0.716 27.859 14.78 20.067 24.253 33.057 28.332 5.071 18.567 2.915 8.802 0.758"></polyline>
        <polyline id="path-53" points="0.716 27.859 14.78 20.067 24.253 33.057 28.332 5.071 18.567 2.915 8.802 0.758"></polyline>
        <polygon id="path-55" points="0.716 27.859 14.78 20.067 24.253 33.057 28.332 5.071 18.567 2.915 8.802 0.758"></polygon>
        <polyline id="path-57" points="0.716 27.859 14.78 20.067 24.253 33.057 28.332 5.071 18.567 2.915 8.802 0.758"></polyline>
        <polyline id="path-59" points="0.716 27.859 14.78 20.067 24.253 33.057 28.332 5.071 18.567 2.915 8.802 0.758"></polyline>
        <polyline id="path-61" points="0.716 27.859 14.78 20.067 24.253 33.057 28.332 5.071 18.567 2.915 8.802 0.758"></polyline>
        <polyline id="path-63" points="24.247 1.207 24.637 29.485 13.232 18.154 0.575 28.069 4.28 0.031 14.264 0.619"></polyline>
        <polyline id="path-65" points="24.247 1.207 24.637 29.485 13.232 18.154 0.575 28.069 4.28 0.031 14.264 0.619"></polyline>
        <polyline id="path-67" points="24.247 1.207 24.637 29.485 13.232 18.154 0.575 28.069 4.28 0.031 14.264 0.619"></polyline>
        <polyline id="path-69" points="24.247 1.207 24.637 29.485 13.232 18.154 0.575 28.069 4.28 0.031 14.264 0.619"></polyline>
        <polyline id="path-71" points="24.247 1.207 24.637 29.485 13.232 18.154 0.575 28.069 4.28 0.031 14.264 0.619"></polyline>
        <polyline id="path-73" points="24.247 1.207 24.637 29.485 13.232 18.154 0.575 28.069 4.28 0.031 14.264 0.619"></polyline>
        <polyline id="path-75" points="24.247 1.207 24.637 29.485 13.232 18.154 0.575 28.069 4.28 0.031 14.264 0.619"></polyline>
        <polyline id="path-77" points="24.247 1.207 24.637 29.485 13.232 18.154 0.575 28.069 4.28 0.031 14.264 0.619"></polyline>
        <polyline id="path-79" points="20.521 0.922 25.793 28.707 12.6 19.518 1.848 31.471 0.652 3.215 10.586 2.068"></polyline>
        <polyline id="path-81" points="20.521 0.922 25.793 28.707 12.6 19.518 1.848 31.471 0.652 3.215 10.586 2.068"></polyline>
        <polyline id="path-83" points="20.521 0.922 25.793 28.707 12.6 19.518 1.848 31.471 0.652 3.215 10.586 2.068"></polyline>
        <polyline id="path-85" points="20.521 0.922 25.793 28.707 12.6 19.518 1.848 31.471 0.652 3.215 10.586 2.068"></polyline>
        <polyline id="path-87" points="20.521 0.922 25.793 28.707 12.6 19.518 1.848 31.471 0.652 3.215 10.586 2.068"></polyline>
        <polyline id="path-89" points="19.522 0.125 28.406 26.974 14.119 19.602 5.034 32.867 0.127 5.014 9.825 2.569"></polyline>
        <polyline id="path-91" points="19.522 0.125 28.406 26.974 14.119 19.602 5.034 32.867 0.127 5.014 9.825 2.569"></polyline>
        <polyline id="path-93" points="19.522 0.125 28.406 26.974 14.119 19.602 5.034 32.867 0.127 5.014 9.825 2.569"></polyline>
        <polyline id="path-95" points="19.522 0.125 28.406 26.974 14.119 19.602 5.034 32.867 0.127 5.014 9.825 2.569"></polyline>
        <polyline id="path-97" points="19.522 0.125 28.406 26.974 14.119 19.602 5.034 32.867 0.127 5.014 9.825 2.569"></polyline>
        <polyline id="path-99" points="19.522 0.125 28.406 26.974 14.119 19.602 5.034 32.867 0.127 5.014 9.825 2.569"></polyline>
        <polyline id="path-101" points="9.492 4.388 0.148 7.953 8.285 35.038 15.753 20.8 30.807 26.447 18.836 0.824"></polyline>
        <polyline id="path-103" points="9.492 4.388 0.148 7.953 8.285 35.038 15.753 20.8 30.807 26.447 18.836 0.824"></polyline>
        <polygon id="path-105" points="9.492 4.388 0.148 7.953 8.285 35.038 15.753 20.8 30.807 26.447 18.836 0.824"></polygon>
        <polyline id="path-107" points="9.492 4.388 0.148 7.953 8.285 35.038 15.753 20.8 30.807 26.447 18.836 0.824"></polyline>
        <polyline id="path-109" points="9.492 4.388 0.148 7.953 8.285 35.038 15.753 20.8 30.807 26.447 18.836 0.824"></polyline>
        <polyline id="path-111" points="9.492 4.388 0.148 7.953 8.285 35.038 15.753 20.8 30.807 26.447 18.836 0.824"></polyline>
        <polyline id="path-113" points="18.179 0.91 34.045 24.322 18.288 21.122 13.163 36.361 0.851 10.9 9.515 5.905"></polyline>
        <polyline id="path-115" points="18.179 0.91 34.045 24.322 18.288 21.122 13.163 36.361 0.851 10.9 9.515 5.905"></polyline>
        <polyline id="path-117" points="18.179 0.91 34.045 24.322 18.288 21.122 13.163 36.361 0.851 10.9 9.515 5.905"></polyline>
        <polyline id="path-119" points="18.179 0.91 34.045 24.322 18.288 21.122 13.163 36.361 0.851 10.9 9.515 5.905"></polyline>
        <polyline id="path-121" points="18.179 0.91 34.045 24.322 18.288 21.122 13.163 36.361 0.851 10.9 9.515 5.905"></polyline>
        <polyline id="path-123" points="18.179 0.91 34.045 24.322 18.288 21.122 13.163 36.361 0.851 10.9 9.515 5.905"></polyline>
        <polyline id="path-125" points="18.179 0.91 34.045 24.322 18.288 21.122 13.163 36.361 0.851 10.9 9.515 5.905"></polyline>
        <polyline id="path-127" points="18.179 0.91 34.045 24.322 18.288 21.122 13.163 36.361 0.851 10.9 9.515 5.905"></polyline>
        <polyline id="path-129" points="16.108 0.086 34.892 21.229 18.853 20.111 15.758 35.889 0.232 12.251 8.17 6.169"></polyline>
        <polyline id="path-131" points="16.108 0.086 34.892 21.229 18.853 20.111 15.758 35.889 0.232 12.251 8.17 6.169"></polyline>
        <polyline id="path-133" points="16.108 0.086 34.892 21.229 18.853 20.111 15.758 35.889 0.232 12.251 8.17 6.169"></polyline>
        <polyline id="path-135" points="16.108 0.086 34.892 21.229 18.853 20.111 15.758 35.889 0.232 12.251 8.17 6.169"></polyline>
        <polyline id="path-137" points="16.108 0.086 34.892 21.229 18.853 20.111 15.758 35.889 0.232 12.251 8.17 6.169"></polyline>
        <polyline id="path-139" points="13.998 0.6 36.175 18.15 20.186 19.841 19.885 35.916 0.481 15.342 7.239 7.971"></polyline>
        <polyline id="path-141" points="13.998 0.6 36.175 18.15 20.186 19.841 19.885 35.916 0.481 15.342 7.239 7.971"></polyline>
        <polyline id="path-143" points="13.998 0.6 36.175 18.15 20.186 19.841 19.885 35.916 0.481 15.342 7.239 7.971"></polyline>
        <polyline id="path-145" points="13.998 0.6 36.175 18.15 20.186 19.841 19.885 35.916 0.481 15.342 7.239 7.971"></polyline>
        <polyline id="path-147" points="13.998 0.6 36.175 18.15 20.186 19.841 19.885 35.916 0.481 15.342 7.239 7.971"></polyline>
        <polyline id="path-149" points="13.998 0.6 36.175 18.15 20.186 19.841 19.885 35.916 0.481 15.342 7.239 7.971"></polyline>
    </defs>
    <g id="Page-1" stroke="none" stroke-width="1" fill="none" fill-rule="evenodd">
        <g id="Desktop-HD" transform="translate(-457.000000, -2374.000000)">
            <g id="Group-61" transform="translate(457.000000, 2374.182140)">
                <polygon id="Fill-225" fill="#00EBAA" points="36.1166 26.0262603 29.5196 18.5102603 22.9216 10.9942603 0.3706 28.0602603 16.3186 30.0982603 16.2716 46.1752603"></polygon>
                <g id="Group-247" transform="translate(0.000000, 10.248860)">
                    <g id="Group-230">
                        <mask id="mask-2" fill="white">
                            <use xlink:href="#path-1"></use>
                        </mask>
                        <g id="Clip-229"></g>
                        <path d="M33.5121,5.826 C28.4331,7.254 23.1641,6.147 18.0731,5.328 C12.6611,4.457 7.2761,3.442 1.9121,2.316 C0.7851,2.079 1.2291,3.514 2.0651,3.69 C8.1681,4.972 14.3011,6.107 20.4651,7.055 C25.1261,7.772 29.8111,8.484 34.4341,7.183 C35.3701,6.92 34.2511,5.618 33.5121,5.826" id="Fill-228" fill="#FFFFFF" mask="url(#mask-2)"></path>
                    </g>
                    <g id="Group-237">
                        <g id="Group-233">
                            <mask id="mask-4" fill="white">
                                <use xlink:href="#path-3"></use>
                            </mask>
                            <g id="Clip-232"></g>
                            <path d="M36.8436,11.3039 C23.8076,9.6829 10.3666,10.3309 -2.2374,6.1299 C-3.3124,5.7719 -2.3274,6.9419 -1.8224,7.1109 C11.0186,11.3909 24.6386,10.7799 37.9186,12.4309 C38.4746,12.4999 37.3006,11.3609 36.8436,11.3039" id="Fill-231" fill="#FFFFFF" mask="url(#mask-4)"></path>
                        </g>
                        <g id="Group-236">
                            <mask id="mask-6" fill="white">
                                <use xlink:href="#path-5"></use>
                            </mask>
                            <g id="Clip-235"></g>
                            <path d="M36.8436,11.3039 C23.8076,9.6829 10.3666,10.3309 -2.2374,6.1299 C-3.3124,5.7719 -2.3274,6.9419 -1.8224,7.1109 C11.0186,11.3909 24.6386,10.7799 37.9186,12.4309 C38.4746,12.4999 37.3006,11.3609 36.8436,11.3039 Z" id="Stroke-234" stroke="#FFFFFF" stroke-width="1.034" mask="url(#mask-6)"></path>
                        </g>
                    </g>
                    <g id="Group-240">
                        <mask id="mask-8" fill="white">
                            <use xlink:href="#path-7"></use>
                        </mask>
                        <g id="Clip-239"></g>
                        <path d="M36.9749,18.2449 C22.2559,16.8429 7.4049,14.9189 -6.1471,8.6519 C-7.1991,8.1659 -7.3291,9.5259 -6.4411,9.9369 C7.2409,16.2629 22.2399,18.2399 37.1029,19.6559 C38.2449,19.7639 37.8679,18.3299 36.9749,18.2449" id="Fill-238" fill="#FFFFFF" mask="url(#mask-8)"></path>
                    </g>
                    <g id="Group-243">
                        <mask id="mask-10" fill="white">
                            <use xlink:href="#path-9"></use>
                        </mask>
                        <g id="Clip-242"></g>
                        <path d="M27.8137,21.5212 C16.6127,19.5202 5.5867,16.7352 -5.2153,13.1552 C-6.3053,12.7942 -6.4273,14.1032 -5.4903,14.4142 C5.4487,18.0392 16.6127,20.8812 27.9577,22.9082 C29.0917,23.1102 28.6697,21.6742 27.8137,21.5212" id="Fill-241" fill="#FFFFFF" mask="url(#mask-10)"></path>
                    </g>
                    <g id="Group-246">
                        <mask id="mask-12" fill="white">
                            <use xlink:href="#path-11"></use>
                        </mask>
                        <g id="Clip-245"></g>
                        <path d="M28.7171,29.8746 C22.9261,28.2266 17.1341,26.5796 11.3431,24.9316 C10.2371,24.6176 10.8551,25.9806 11.5751,26.1856 C17.3671,27.8336 23.1581,29.4806 28.9501,31.1286 C30.0561,31.4426 29.4371,30.0796 28.7171,29.8746" id="Fill-244" fill="#FFFFFF" mask="url(#mask-12)"></path>
                    </g>
                </g>
                <g id="Group-324" transform="translate(0.000000, 22.248860)">
                    <path d="M36.1166,3.7774 L34.3406,1.7544 C29.7896,4.8324 18.9386,10.0694 6.9276,0.8494 L0.3706,5.8114 L16.3186,7.8494 L16.2716,23.9264 L36.1166,3.7774 Z" id="Fill-248" fill="#000000" opacity="0.300920759"></path>
                    <polygon id="Fill-250" fill="#F79E3C" points="56.3379 20.0238 48.6369 13.6438 40.9359 7.2638 21.3609 27.6768 37.4309 27.1698 39.9229 43.0538"></polygon>
                    <g id="Group-276" transform="translate(21.000000, 7.000000)">
                        <g id="Group-254">
                            <mask id="mask-14" fill="white">
                                <use xlink:href="#path-13"></use>
                            </mask>
                            <g id="Clip-253"></g>
                            <path d="M16.3065,8.3179 C15.3005,9.5359 13.4985,9.7069 12.2805,8.7019 C11.0625,7.6959 10.8905,5.8929 11.8965,4.6759 C12.9025,3.4579 14.7055,3.2859 15.9225,4.2919 C17.1405,5.2979 17.3125,7.0999 16.3065,8.3179" id="Fill-252" fill="#FFFFFF" mask="url(#mask-14)"></path>
                        </g>
                        <g id="Group-257">
                            <mask id="mask-16" fill="white">
                                <use xlink:href="#path-15"></use>
                            </mask>
                            <g id="Clip-256"></g>
                            <path d="M23.2147,11.9334 C22.6467,12.6214 21.6287,12.7174 20.9417,12.1504 C20.2537,11.5824 20.1577,10.5644 20.7247,9.8774 C21.2927,9.1894 22.3107,9.0924 22.9977,9.6604 C23.6857,10.2284 23.7827,11.2464 23.2147,11.9334" id="Fill-255" fill="#FFFFFF" mask="url(#mask-16)"></path>
                        </g>
                        <g id="Group-260">
                            <mask id="mask-18" fill="white">
                                <use xlink:href="#path-17"></use>
                            </mask>
                            <g id="Clip-259"></g>
                            <path d="M33.2173,13.0609 C32.1603,14.3409 30.2653,14.5219 28.9843,13.4639 C27.7043,12.4069 27.5243,10.5119 28.5813,9.2319 C29.6393,7.9519 31.5343,7.7709 32.8143,8.8279 C34.0943,9.8859 34.2743,11.7809 33.2173,13.0609" id="Fill-258" fill="#FFFFFF" mask="url(#mask-18)"></path>
                        </g>
                        <g id="Group-263">
                            <mask id="mask-20" fill="white">
                                <use xlink:href="#path-19"></use>
                            </mask>
                            <g id="Clip-262"></g>
                            <path d="M29.8591,25.6469 C29.2011,26.4429 28.0231,26.5549 27.2271,25.8979 C26.4301,25.2399 26.3181,24.0619 26.9761,23.2649 C27.6331,22.4689 28.8121,22.3569 29.6081,23.0149 C30.4041,23.6719 30.5171,24.8509 29.8591,25.6469" id="Fill-261" fill="#FFFFFF" mask="url(#mask-20)"></path>
                        </g>
                        <g id="Group-266">
                            <mask id="mask-22" fill="white">
                                <use xlink:href="#path-21"></use>
                            </mask>
                            <g id="Clip-265"></g>
                            <path d="M20.4272,27.8339 C19.6432,28.7839 18.2372,28.9169 17.2882,28.1329 C16.3382,27.3489 16.2042,25.9429 16.9882,24.9939 C17.7732,24.0439 19.1782,23.9099 20.1282,24.6949 C21.0772,25.4789 21.2112,26.8849 20.4272,27.8339" id="Fill-264" fill="#FFFFFF" mask="url(#mask-22)"></path>
                        </g>
                        <g id="Group-269">
                            <mask id="mask-24" fill="white">
                                <use xlink:href="#path-23"></use>
                            </mask>
                            <g id="Clip-268"></g>
                            <path d="M11.8607,22.3357 C11.2677,23.0537 10.2047,23.1547 9.4867,22.5617 C8.7687,21.9687 8.6667,20.9057 9.2597,20.1877 C9.8537,19.4697 10.9167,19.3687 11.6347,19.9617 C12.3527,20.5547 12.4537,21.6177 11.8607,22.3357" id="Fill-267" fill="#FFFFFF" mask="url(#mask-24)"></path>
                        </g>
                        <g id="Group-272">
                            <mask id="mask-26" fill="white">
                                <use xlink:href="#path-25"></use>
                            </mask>
                            <g id="Clip-271"></g>
                            <path d="M23.5387,3.5922 C22.8807,4.3882 21.7027,4.5002 20.9067,3.8432 C20.1097,3.1852 19.9977,2.0072 20.6557,1.2102 C21.3127,0.4142 22.4917,0.3022 23.2877,0.9602 C24.0837,1.6172 24.1967,2.7962 23.5387,3.5922" id="Fill-270" fill="#FFFFFF" mask="url(#mask-26)"></path>
                        </g>
                        <g id="Group-275">
                            <mask id="mask-28" fill="white">
                                <use xlink:href="#path-27"></use>
                            </mask>
                            <g id="Clip-274"></g>
                            <path d="M6.9653,15.5968 C6.6383,15.9918 6.0533,16.0478 5.6583,15.7218 C5.2633,15.3948 5.2073,14.8098 5.5333,14.4148 C5.8603,14.0188 6.4453,13.9628 6.8403,14.2898 C7.2363,14.6168 7.2923,15.2018 6.9653,15.5968" id="Fill-273" fill="#FFFFFF" mask="url(#mask-28)"></path>
                        </g>
                    </g>
                    <path d="M56.3379,20.0238 L54.2649,18.3068 C50.2569,22.0648 40.3689,28.9498 27.0529,21.7408 L21.3609,27.6768 L37.4309,27.1698 L39.9229,43.0538 L56.3379,20.0238 Z" id="Fill-277" fill="#000000" opacity="0.300920759"></path>
                    <polygon id="Fill-279" fill="#53ACD3" points="78.3296 32.7899 69.6416 27.8369 60.9536 22.8839 45.2016 46.3729 60.9426 43.0969 66.1426 58.3109"></polygon>
                    <g id="Group-296" transform="translate(45.000000, 22.000000)">
                        <g id="Group-283">
                            <mask id="mask-30" fill="white">
                                <use xlink:href="#path-29"></use>
                            </mask>
                            <g id="Clip-282"></g>
                            <path d="M19.1043,-1.5266 C13.4113,8.6774 7.7183,18.8804 2.0253,29.0844 C1.7983,29.4924 2.6023,29.8254 2.8033,29.4654 C8.4963,19.2614 14.1893,9.0584 19.8823,-1.1456 C20.1093,-1.5536 19.3053,-1.8866 19.1043,-1.5266" id="Fill-281" fill="#FFFFFF" mask="url(#mask-30)"></path>
                        </g>
                        <g id="Group-286">
                            <mask id="mask-32" fill="white">
                                <use xlink:href="#path-31"></use>
                            </mask>
                            <g id="Clip-285"></g>
                            <path d="M22.7616,-0.3752 C18.4446,11.2248 10.4186,21.2138 4.9086,32.2668 C4.7066,32.6708 5.5146,32.9858 5.6876,32.6388 C11.2266,21.5298 19.2726,11.5098 23.6126,-0.1532 C23.7546,-0.5332 22.9076,-0.7672 22.7616,-0.3752" id="Fill-284" fill="#FFFFFF" mask="url(#mask-32)"></path>
                        </g>
                        <g id="Group-289">
                            <mask id="mask-34" fill="white">
                                <use xlink:href="#path-33"></use>
                            </mask>
                            <g id="Clip-288"></g>
                            <path d="M29.0247,-2.1871 C26.0207,3.3419 23.0347,8.8809 20.0707,14.4309 C18.6327,17.1219 17.1997,19.8149 15.7717,22.5109 C14.6197,24.6859 12.4887,27.3689 12.6247,29.9249 C12.6397,30.2109 13.4857,30.3339 13.4757,30.1469 C13.3477,27.7309 15.2687,25.2929 16.3557,23.2389 C17.8727,20.3739 19.3947,17.5119 20.9217,14.6529 C23.8867,9.1029 26.8727,3.5639 29.8767,-1.9651 C29.9717,-2.1411 29.1597,-2.4361 29.0247,-2.1871" id="Fill-287" fill="#FFFFFF" mask="url(#mask-34)"></path>
                        </g>
                        <g id="Group-292">
                            <mask id="mask-36" fill="white">
                                <use xlink:href="#path-35"></use>
                            </mask>
                            <g id="Clip-291"></g>
                            <path d="M34.554,-1.1838 C27.441,9.8932 20.871,21.2992 14.858,33.0102 C14.659,33.3982 15.473,33.7012 15.64,33.3742 C21.653,21.6632 28.223,10.2582 35.336,-0.8198 C35.569,-1.1828 34.756,-1.4978 34.554,-1.1838" id="Fill-290" fill="#FFFFFF" mask="url(#mask-36)"></path>
                        </g>
                        <g id="Group-295">
                            <mask id="mask-38" fill="white">
                                <use xlink:href="#path-37"></use>
                            </mask>
                            <g id="Clip-294"></g>
                            <path d="M33.4647,4.8802 C27.5487,15.0262 22.1137,25.4332 17.1687,36.0862 C17.1157,36.2002 17.9327,36.4962 18.0207,36.3072 C22.9657,25.6552 28.4007,15.2482 34.3157,5.1022 C34.3677,5.0132 33.5777,4.6862 33.4647,4.8802" id="Fill-293" fill="#FFFFFF" mask="url(#mask-38)"></path>
                        </g>
                    </g>
                    <path d="M78.3296,32.7899 L75.9916,31.4569 C72.6926,35.8509 64.1436,44.3419 49.7826,39.5429 L45.2016,46.3729 L60.9426,43.0969 L66.1426,58.3109 L78.3296,32.7899 Z" id="Fill-297" fill="#000000" opacity="0.300920759"></path>
                    <polygon id="Fill-299" fill="#595BD9" points="101.1865 42.8939 91.9225 39.1279 82.6575 35.3619 70.1355 60.7199 85.3075 55.3999 92.4655 69.7969"></polygon>
                    <path d="M101.1866,42.8939 L98.6936,41.8799 C96.0016,46.6709 88.6446,56.2129 73.7766,53.3469 L70.1356,60.7199 L85.3076,55.3999 L92.4656,69.7969 L101.1866,42.8939 Z" id="Fill-301" fill="#000000" opacity="0.158970424"></path>
                    <g id="Group-321" transform="translate(70.000000, 35.000000)">
                        <g id="Group-305">
                            <mask id="mask-40" fill="white">
                                <use xlink:href="#path-39"></use>
                            </mask>
                            <g id="Clip-304"></g>
                            <path d="M3.7758,2.1945 C18.3788,8.6855 33.1328,14.8265 48.0288,20.6135 C48.6788,20.8665 49.7648,20.6565 48.6338,20.2175 C33.7378,14.4305 18.9838,8.2895 4.3808,1.7975 C3.7358,1.5115 2.6708,1.7035 3.7758,2.1945" id="Fill-303" fill="#FFFFFF" mask="url(#mask-40)"></path>
                        </g>
                        <g id="Group-308">
                            <mask id="mask-42" fill="white">
                                <use xlink:href="#path-41"></use>
                            </mask>
                            <g id="Clip-307"></g>
                            <path d="M2.1,5.5181 C17.699,11.7681 33.298,18.0181 48.897,24.2671 C49.582,24.5421 50.649,24.2261 49.53,23.7781 C33.931,17.5281 18.332,11.2781 2.733,5.0291 C2.047,4.7541 0.981,5.0701 2.1,5.5181" id="Fill-306" fill="#FFFFFF" mask="url(#mask-42)"></path>
                        </g>
                        <g id="Group-311">
                            <mask id="mask-44" fill="white">
                                <use xlink:href="#path-43"></use>
                            </mask>
                            <g id="Clip-310"></g>
                            <path d="M0.5615,9.2117 C14.1515,15.0887 27.8635,20.6737 41.6915,25.9657 C42.4445,26.2537 43.4885,25.7287 42.3755,25.3027 C28.5475,20.0107 14.8355,14.4257 1.2455,8.5487 C0.4955,8.2247 -0.5315,8.7387 0.5615,9.2117" id="Fill-309" fill="#FFFFFF" mask="url(#mask-44)"></path>
                        </g>
                        <g id="Group-314">
                            <mask id="mask-46" fill="white">
                                <use xlink:href="#path-45"></use>
                            </mask>
                            <g id="Clip-313"></g>
                            <path d="M1.8217,15.2693 C17.2567,21.6043 32.6917,27.9393 48.1257,34.2743 C48.8137,34.5563 50.1057,33.5693 49.1167,33.1643 C33.6817,26.8293 18.2477,20.4943 2.8127,14.1593 C2.1247,13.8763 0.8327,14.8633 1.8217,15.2693" id="Fill-312" fill="#FFFFFF" mask="url(#mask-46)"></path>
                        </g>
                        <g id="Group-317">
                            <mask id="mask-48" fill="white">
                                <use xlink:href="#path-47"></use>
                            </mask>
                            <g id="Clip-316"></g>
                            <path d="M7.9736,-1.126 C17.6136,4.519 27.6006,9.513 37.8956,13.85 C38.5616,14.13 39.6276,13.874 38.5146,13.405 C28.3486,9.123 18.4966,4.183 8.9776,-1.391 C8.5456,-1.644 7.0026,-1.695 7.9736,-1.126" id="Fill-315" fill="#FFFFFF" mask="url(#mask-48)"></path>
                        </g>
                        <g id="Group-320">
                            <mask id="mask-50" fill="white">
                                <use xlink:href="#path-49"></use>
                            </mask>
                            <g id="Clip-319"></g>
                            <path d="M-3.7682,20.6085 C11.4868,25.7575 26.6528,31.1605 41.7268,36.8155 C42.7308,37.1925 42.9898,36.2505 42.0028,35.8805 C26.9298,30.2245 11.7628,24.8215 -3.4912,19.6725 C-4.5042,19.3315 -4.7742,20.2685 -3.7682,20.6085" id="Fill-318" fill="#FFFFFF" mask="url(#mask-50)"></path>
                        </g>
                    </g>
                    <polygon id="Fill-322" fill="#F79E3C" points="127.3326 49.0713 117.5676 46.9153 107.8016 44.7583 99.7166 71.8593 113.7796 64.0663 123.2536 77.0563"></polygon>
                </g>
                <g id="Group-344" transform="translate(99.000000, 66.248860)">
                    <g id="Group-327">
                        <mask id="mask-52" fill="white">
                            <use xlink:href="#path-51"></use>
                        </mask>
                        <g id="Clip-326"></g>
                        <path d="M20.3454,-1.4109 C17.0954,2.7461 12.1924,4.9701 7.6034,7.3221 C2.7254,9.8211 -2.2166,12.1891 -7.2076,14.4531 C-8.2566,14.9291 -7.0496,15.8241 -6.2716,15.4711 C-0.5926,12.8941 5.0224,10.1811 10.5534,7.2981 C14.7354,5.1191 18.9334,2.9211 21.8914,-0.8619 C22.4904,-1.6279 20.8184,-2.0159 20.3454,-1.4109" id="Fill-325" fill="#FFFFFF" mask="url(#mask-52)"></path>
                    </g>
                    <g id="Group-334">
                        <g id="Group-330">
                            <mask id="mask-54" fill="white">
                                <use xlink:href="#path-53"></use>
                            </mask>
                            <g id="Clip-329"></g>
                            <path d="M26.2721,1.0345 C14.8031,7.4395 4.3501,15.9145 -8.2969,19.9835 C-9.3759,20.3305 -7.8889,20.6915 -7.3829,20.5285 C5.5031,16.3825 16.1221,7.8325 27.8061,1.3075 C28.2951,1.0345 26.6741,0.8095 26.2721,1.0345" id="Fill-328" fill="#FFFFFF" mask="url(#mask-54)"></path>
                        </g>
                        <g id="Group-333">
                            <mask id="mask-56" fill="white">
                                <use xlink:href="#path-55"></use>
                            </mask>
                            <g id="Clip-332"></g>
                            <path d="M26.2721,1.0345 C14.8031,7.4395 4.3501,15.9145 -8.2969,19.9835 C-9.3759,20.3305 -7.8889,20.6915 -7.3829,20.5285 C5.5031,16.3825 16.1221,7.8325 27.8061,1.3075 C28.2951,1.0345 26.6741,0.8095 26.2721,1.0345 Z" id="Stroke-331" stroke="#FFFFFF" stroke-width="1.034" mask="url(#mask-56)"></path>
                        </g>
                    </g>
                    <g id="Group-337">
                        <mask id="mask-58" fill="white">
                            <use xlink:href="#path-57"></use>
                        </mask>
                        <g id="Clip-336"></g>
                        <path d="M30.4843,6.5528 C17.7883,14.1308 4.6763,21.3648 -9.9577,24.3308 C-11.0927,24.5608 -10.3927,25.7338 -9.4337,25.5398 C5.3403,22.5458 18.6023,15.2658 31.4223,7.6138 C32.4073,7.0258 31.2543,6.0928 30.4843,6.5528" id="Fill-335" fill="#FFFFFF" mask="url(#mask-58)"></path>
                    </g>
                    <g id="Group-340">
                        <mask id="mask-60" fill="white">
                            <use xlink:href="#path-59"></use>
                        </mask>
                        <g id="Clip-339"></g>
                        <path d="M25.0366,14.6141 C14.8216,19.6281 4.2846,23.9051 -6.5414,27.4091 C-7.6344,27.7631 -6.9574,28.8911 -6.0184,28.5871 C4.9456,25.0381 15.6276,20.7251 25.9736,15.6471 C27.0076,15.1391 25.8166,14.2311 25.0366,14.6141" id="Fill-338" fill="#FFFFFF" mask="url(#mask-60)"></path>
                    </g>
                    <g id="Group-343">
                        <mask id="mask-62" fill="white">
                            <use xlink:href="#path-61"></use>
                        </mask>
                        <g id="Clip-342"></g>
                        <path d="M30.7068,20.8143 C25.0628,22.9123 19.4188,25.0103 13.7748,27.1083 C12.6968,27.5083 14.0018,28.2423 14.7038,27.9813 C20.3478,25.8833 25.9918,23.7853 31.6358,21.6873 C32.7138,21.2873 31.4088,20.5533 30.7068,20.8143" id="Fill-341" fill="#FFFFFF" mask="url(#mask-62)"></path>
                    </g>
                </g>
                <g id="Group-421" transform="translate(99.000000, 55.248860)">
                    <path d="M28.3326,16.0713 L25.7046,15.4913 C23.8556,20.6653 18.2056,31.3073 3.0676,30.9783 L0.7166,38.8593 L14.7796,31.0663 L24.2536,44.0563 L28.3326,16.0713 Z" id="Fill-345" fill="#000000" opacity="0.120675223"></path>
                    <polygon id="Fill-347" fill="#00EBAA" points="54.2469 17.2065 44.2639 16.6185 34.2799 16.0315 30.5749 44.0685 43.2319 34.1535 54.6369 45.4855"></polygon>
                    <g id="Group-373" transform="translate(30.000000, 16.000000)">
                        <g id="Group-351">
                            <mask id="mask-64" fill="white">
                                <use xlink:href="#path-63"></use>
                            </mask>
                            <g id="Clip-350"></g>
                            <path d="M6.1192,8.6716 C6.0282,10.2486 4.6772,11.4536 3.1002,11.3626 C1.5232,11.2726 0.3182,9.9206 0.4092,8.3436 C0.4992,6.7666 1.8512,5.5626 3.4282,5.6526 C5.0052,5.7436 6.2102,7.0946 6.1192,8.6716" id="Fill-349" fill="#FFFFFF" mask="url(#mask-64)"></path>
                        </g>
                        <g id="Group-354">
                            <mask id="mask-66" fill="white">
                                <use xlink:href="#path-65"></use>
                            </mask>
                            <g id="Clip-353"></g>
                            <path d="M13.8278,7.4997 C13.7768,8.3897 13.0138,9.0697 12.1238,9.0187 C11.2328,8.9677 10.5528,8.2047 10.6038,7.3147 C10.6548,6.4247 11.4178,5.7437 12.3088,5.7957 C13.1988,5.8467 13.8788,6.6097 13.8278,7.4997" id="Fill-352" fill="#FFFFFF" mask="url(#mask-66)"></path>
                        </g>
                        <g id="Group-357">
                            <mask id="mask-68" fill="white">
                                <use xlink:href="#path-67"></use>
                            </mask>
                            <g id="Clip-356"></g>
                            <path d="M22.5592,2.491 C22.4642,4.149 21.0432,5.415 19.3852,5.32 C17.7282,5.225 16.4612,3.804 16.5562,2.146 C16.6512,0.489 18.0722,-0.778 19.7302,-0.683 C21.3882,-0.588 22.6542,0.833 22.5592,2.491" id="Fill-355" fill="#FFFFFF" mask="url(#mask-68)"></path>
                        </g>
                        <g id="Group-360">
                            <mask id="mask-70" fill="white">
                                <use xlink:href="#path-69"></use>
                            </mask>
                            <g id="Clip-359"></g>
                            <path d="M27.2977,14.6249 C27.2387,15.6559 26.3547,16.4439 25.3237,16.3849 C24.2927,16.3249 23.5047,15.4419 23.5637,14.4109 C23.6237,13.3799 24.5067,12.5919 25.5377,12.6509 C26.5687,12.7099 27.3567,13.5939 27.2977,14.6249" id="Fill-358" fill="#FFFFFF" mask="url(#mask-70)"></path>
                        </g>
                        <g id="Group-363">
                            <mask id="mask-72" fill="white">
                                <use xlink:href="#path-71"></use>
                            </mask>
                            <g id="Clip-362"></g>
                            <path d="M20.9872,21.9681 C20.9162,23.1981 19.8622,24.1371 18.6332,24.0661 C17.4032,23.9961 16.4642,22.9421 16.5342,21.7121 C16.6052,20.4831 17.6592,19.5431 18.8892,19.6141 C20.1182,19.6841 21.0582,20.7381 20.9872,21.9681" id="Fill-361" fill="#FFFFFF" mask="url(#mask-72)"></path>
                        </g>
                        <g id="Group-366">
                            <mask id="mask-74" fill="white">
                                <use xlink:href="#path-73"></use>
                            </mask>
                            <g id="Clip-365"></g>
                            <path d="M10.828,22.6032 C10.775,23.5332 9.977,24.2442 9.048,24.1902 C8.118,24.1372 7.407,23.3402 7.46,22.4102 C7.514,21.4802 8.311,20.7692 9.241,20.8232 C10.171,20.8762 10.881,21.6732 10.828,22.6032" id="Fill-364" fill="#FFFFFF" mask="url(#mask-74)"></path>
                        </g>
                        <g id="Group-369">
                            <mask id="mask-76" fill="white">
                                <use xlink:href="#path-75"></use>
                            </mask>
                            <g id="Clip-368"></g>
                            <path d="M9.1543,0.583 C9.0953,1.614 8.2113,2.402 7.1803,2.343 C6.1493,2.283 5.3613,1.4 5.4203,0.369 C5.4803,-0.662 6.3633,-1.45 7.3943,-1.391 C8.4253,-1.332 9.2133,-0.448 9.1543,0.583" id="Fill-367" fill="#FFFFFF" mask="url(#mask-76)"></path>
                        </g>
                        <g id="Group-372">
                            <mask id="mask-78" fill="white">
                                <use xlink:href="#path-77"></use>
                            </mask>
                            <g id="Clip-371"></g>
                            <path d="M2.8944,20.0663 C2.8654,20.5783 2.4264,20.9693 1.9144,20.9403 C1.4024,20.9103 1.0114,20.4713 1.0404,19.9603 C1.0704,19.4483 1.5084,19.0573 2.0204,19.0863 C2.5324,19.1153 2.9234,19.5543 2.8944,20.0663" id="Fill-370" fill="#FFFFFF" mask="url(#mask-78)"></path>
                        </g>
                    </g>
                    <path d="M54.2469,17.2065 L51.5599,17.0485 C50.5509,22.4495 46.6529,33.8505 31.6529,35.9155 L30.5749,44.0685 L43.2319,34.1535 L54.6369,45.4855 L54.2469,17.2065 Z" id="Fill-374" fill="#000000" opacity="0.17624628"></path>
                    <polygon id="Fill-376" fill="#53ACD3" points="79.5208 14.9217 69.5858 16.0687 59.6518 17.2157 60.8478 45.4707 71.6008 33.5177 84.7928 42.7067"></polygon>
                    <g id="Group-393" transform="translate(59.000000, 14.000000)">
                        <g id="Group-380">
                            <mask id="mask-80" fill="white">
                                <use xlink:href="#path-79"></use>
                            </mask>
                            <g id="Clip-379"></g>
                            <path d="M1.7654,-0.5925 C3.2124,11.0015 4.6594,22.5965 6.1054,34.1905 C6.1634,34.6545 7.0094,34.4475 6.9584,34.0375 C5.5114,22.4435 4.0644,10.8495 2.6174,-0.7455 C2.5594,-1.2095 1.7144,-1.0015 1.7654,-0.5925" id="Fill-378" fill="#FFFFFF" mask="url(#mask-80)"></path>
                        </g>
                        <g id="Group-383">
                            <mask id="mask-82" fill="white">
                                <use xlink:href="#path-81"></use>
                            </mask>
                            <g id="Clip-382"></g>
                            <path d="M5.3951,-1.8279 C8.7771,10.0781 8.2161,22.8801 10.3121,35.0511 C10.3891,35.4971 11.2271,35.2721 11.1611,34.8901 C9.0541,22.6571 9.6141,9.8181 6.2131,-2.1529 C6.1021,-2.5429 5.2811,-2.2309 5.3951,-1.8279" id="Fill-381" fill="#FFFFFF" mask="url(#mask-82)"></path>
                        </g>
                        <g id="Group-386">
                            <mask id="mask-84" fill="white">
                                <use xlink:href="#path-83"></use>
                            </mask>
                            <g id="Clip-385"></g>
                            <path d="M9.3727,-6.9939 C10.2217,-0.7589 11.0917,5.4731 11.9847,11.7011 C12.4177,14.7211 12.8557,17.7401 13.2997,20.7591 C13.6577,23.1941 13.5267,26.6181 15.1477,28.5981 C15.3297,28.8191 16.0847,28.4181 15.9657,28.2731 C14.4337,26.4021 14.5397,23.2991 14.2007,21.0001 C13.7287,17.7931 13.2627,14.5851 12.8027,11.3761 C11.9097,5.1481 11.0397,-1.0839 10.1907,-7.3189 C10.1637,-7.5169 9.3347,-7.2749 9.3727,-6.9939" id="Fill-384" fill="#FFFFFF" mask="url(#mask-84)"></path>
                        </g>
                        <g id="Group-389">
                            <mask id="mask-86" fill="white">
                                <use xlink:href="#path-85"></use>
                            </mask>
                            <g id="Clip-388"></g>
                            <path d="M14.4242,-9.4562 C15.2432,3.6828 16.6942,16.7648 18.7742,29.7638 C18.8432,30.1948 19.6782,29.9578 19.6202,29.5948 C17.5402,16.5958 16.0892,3.5138 15.2702,-9.6252 C15.2432,-10.0552 14.4012,-9.8282 14.4242,-9.4562" id="Fill-387" fill="#FFFFFF" mask="url(#mask-86)"></path>
                        </g>
                        <g id="Group-392">
                            <mask id="mask-88" fill="white">
                                <use xlink:href="#path-87"></use>
                            </mask>
                            <g id="Clip-391"></g>
                            <path d="M17.1335,-3.9228 C18.3665,7.7572 20.1415,19.3622 22.4565,30.8762 C22.4815,31.0002 23.3155,30.7562 23.2745,30.5522 C20.9595,19.0372 19.1845,7.4322 17.9515,-4.2478 C17.9405,-4.3498 17.1095,-4.1468 17.1335,-3.9228" id="Fill-390" fill="#FFFFFF" mask="url(#mask-88)"></path>
                        </g>
                    </g>
                    <path d="M79.5208,14.9217 L76.8468,15.2307 C76.7868,20.7247 74.9178,32.6277 60.4998,37.2547 L60.8478,45.4707 L71.6008,33.5177 L84.7928,42.7067 L79.5208,14.9217 Z" id="Fill-394" fill="#000000" opacity="0.17624628"></path>
                    <polygon id="Fill-396" fill="#08BDBD" points="104.5217 9.1246 94.8247 11.5696 85.1277 14.0146 90.0337 41.8666 99.1187 28.6016 113.4067 35.9736"></polygon>
                    <path d="M104.5218,9.1246 L101.9118,9.7826 C102.5758,15.2366 102.2898,27.2826 88.6068,33.7676 L90.0338,41.8666 L99.1188,28.6016 L113.4068,35.9736 L104.5218,9.1246 Z" id="Fill-398" fill="#000000" opacity="0.0725911458"></path>
                    <g id="Group-418" transform="translate(85.000000, 9.000000)">
                        <g id="Group-402">
                            <mask id="mask-90" fill="white">
                                <use xlink:href="#path-89"></use>
                            </mask>
                            <g id="Clip-401"></g>
                            <path d="M-5.9494,11.7459 C9.6646,8.3399 25.1926,4.5629 40.6256,0.4159 C41.2986,0.2349 42.0506,-0.5771 40.8786,-0.2621 C25.4456,3.8849 9.9176,7.6629 -5.6964,11.0679 C-6.3854,11.2189 -7.1314,12.0039 -5.9494,11.7459" id="Fill-400" fill="#FFFFFF" mask="url(#mask-90)"></path>
                        </g>
                        <g id="Group-405">
                            <mask id="mask-92" fill="white">
                                <use xlink:href="#path-91"></use>
                            </mask>
                            <g id="Clip-404"></g>
                            <path d="M-5.3342,15.4169 C10.9398,11.2269 27.2138,7.0379 43.4878,2.8479 C44.2018,2.6639 44.8758,1.7779 43.7078,2.0789 C27.4338,6.2689 11.1598,10.4579 -5.1142,14.6479 C-5.8282,14.8319 -6.5022,15.7179 -5.3342,15.4169" id="Fill-403" fill="#FFFFFF" mask="url(#mask-92)"></path>
                        </g>
                        <g id="Group-408">
                            <mask id="mask-94" fill="white">
                                <use xlink:href="#path-93"></use>
                            </mask>
                            <g id="Clip-407"></g>
                            <path d="M-4.3894,19.3049 C10.0436,16.0029 24.4026,12.3939 38.6816,8.4799 C39.4596,8.2659 39.9906,7.2249 38.8416,7.5399 C24.5626,11.4549 10.2026,15.0639 -4.2304,18.3659 C-5.0264,18.5479 -5.5504,19.5709 -4.3894,19.3049" id="Fill-406" fill="#FFFFFF" mask="url(#mask-94)"></path>
                        </g>
                        <g id="Group-411">
                            <mask id="mask-96" fill="white">
                                <use xlink:href="#path-95"></use>
                            </mask>
                            <g id="Clip-410"></g>
                            <path d="M0.3546,22.9763 C16.5466,18.9523 32.7386,14.9283 48.9296,10.9043 C49.9226,10.6583 49.7876,10.1073 48.7836,10.3573 C32.5916,14.3813 16.3996,18.4053 0.2076,22.4283 C-0.7854,22.6753 -0.6494,23.2263 0.3546,22.9763" id="Fill-409" fill="#FFFFFF" mask="url(#mask-96)"></path>
                        </g>
                        <g id="Group-414">
                            <mask id="mask-98" fill="white">
                                <use xlink:href="#path-97"></use>
                            </mask>
                            <g id="Clip-413"></g>
                            <path d="M-4.5295,6.5854 C6.5825,5.4334 17.5885,3.5514 28.4535,0.9574 C29.1565,0.7894 29.8655,-0.0476 28.6905,0.2324 C17.9615,2.7944 7.0955,4.6404 -3.8765,5.7774 C-4.3745,5.8294 -5.6495,6.7014 -4.5295,6.5854" id="Fill-412" fill="#FFFFFF" mask="url(#mask-98)"></path>
                        </g>
                        <g id="Group-417">
                            <mask id="mask-100" fill="white">
                                <use xlink:href="#path-99"></use>
                            </mask>
                            <g id="Clip-416"></g>
                            <path d="M-1.1378,31.0548 C14.2072,26.1808 29.6312,21.5648 45.1292,17.2068 C46.1622,16.9168 45.8142,16.0038 44.7992,16.2888 C29.3002,20.6468 13.8762,25.2628 -1.4678,30.1368 C-2.4868,30.4598 -2.1498,31.3768 -1.1378,31.0548" id="Fill-415" fill="#FFFFFF" mask="url(#mask-100)"></path>
                        </g>
                    </g>
                    <polygon id="Fill-419" fill="#F79E3C" points="129.8362 0.8237 120.4922 4.3877 111.1482 7.9527 119.2852 35.0377 126.7532 20.7997 141.8062 26.4467"></polygon>
                </g>
                <g id="Group-441" transform="translate(210.000000, 55.248860)">
                    <g id="Group-424">
                        <mask id="mask-102" fill="white">
                            <use xlink:href="#path-101"></use>
                        </mask>
                        <g id="Clip-423"></g>
                        <path d="M8.601,-0.2031 C8.17,5.0559 5.296,9.6089 2.754,14.0949 C0.051,18.8639 -2.776,23.5579 -5.702,28.1919 C-6.317,29.1659 -4.817,29.2509 -4.361,28.5279 C-1.032,23.2539 2.169,17.9019 5.206,12.4539 C7.502,8.3349 9.802,4.1919 10.195,-0.5941 C10.274,-1.5631 8.664,-0.9681 8.601,-0.2031" id="Fill-422" fill="#FFFFFF" mask="url(#mask-102)"></path>
                    </g>
                    <g id="Group-431">
                        <g id="Group-427">
                            <mask id="mask-104" fill="white">
                                <use xlink:href="#path-103"></use>
                            </mask>
                            <g id="Clip-426"></g>
                            <path d="M14.8965,-1.4167 C8.8335,10.2373 4.7575,23.0623 -3.5725,33.4113 C-4.2835,34.2943 -2.8435,33.7783 -2.5095,33.3643 C5.9785,22.8193 10.1515,9.8403 16.3275,-2.0317 C16.5865,-2.5287 15.1085,-1.8257 14.8965,-1.4167" id="Fill-425" fill="#FFFFFF" mask="url(#mask-104)"></path>
                        </g>
                        <g id="Group-430">
                            <mask id="mask-106" fill="white">
                                <use xlink:href="#path-105"></use>
                            </mask>
                            <g id="Clip-429"></g>
                            <path d="M14.8965,-1.4167 C8.8335,10.2373 4.7575,23.0623 -3.5725,33.4113 C-4.2835,34.2943 -2.8435,33.7783 -2.5095,33.3643 C5.9785,22.8193 10.1515,9.8403 16.3275,-2.0317 C16.5865,-2.5287 15.1085,-1.8257 14.8965,-1.4167 Z" id="Stroke-428" stroke="#FFFFFF" stroke-width="1.034" mask="url(#mask-106)"></path>
                        </g>
                    </g>
                    <g id="Group-434">
                        <mask id="mask-108" fill="white">
                            <use xlink:href="#path-107"></use>
                        </mask>
                        <g id="Clip-433"></g>
                        <path d="M21.4482,0.8791 C15.0052,14.1861 8.0252,27.4361 -2.5718,37.9551 C-3.3938,38.7711 -2.1638,39.3671 -1.4688,38.6781 C9.2282,28.0581 16.3092,14.6881 22.8152,1.2501 C23.3152,0.2181 21.8392,0.0711 21.4482,0.8791" id="Fill-432" fill="#FFFFFF" mask="url(#mask-108)"></path>
                    </g>
                    <g id="Group-437">
                        <mask id="mask-110" fill="white">
                            <use xlink:href="#path-109"></use>
                        </mask>
                        <g id="Clip-436"></g>
                        <path d="M21.3264,10.6078 C15.5474,20.4098 9.0944,29.7738 1.9744,38.6508 C1.2554,39.5468 2.4404,40.1168 3.0584,39.3468 C10.2684,30.3568 16.8234,20.8838 22.6764,10.9558 C23.2614,9.9638 21.7674,9.8588 21.3264,10.6078" id="Fill-435" fill="#FFFFFF" mask="url(#mask-110)"></path>
                    </g>
                    <g id="Group-440">
                        <mask id="mask-112" fill="white">
                            <use xlink:href="#path-111"></use>
                        </mask>
                        <g id="Clip-439"></g>
                        <path d="M29.4708,12.6722 C25.9078,17.5262 22.3458,22.3802 18.7828,27.2352 C18.1028,28.1612 19.5958,28.0572 20.0388,27.4532 C23.6018,22.5992 27.1648,17.7452 30.7268,12.8912 C31.4078,11.9642 29.9138,12.0682 29.4708,12.6722" id="Fill-438" fill="#FFFFFF" mask="url(#mask-112)"></path>
                    </g>
                </g>
                <path d="M228.8362,56.0725603 L226.3212,57.0315603 C227.6202,62.3705603 228.7472,74.3665603 215.9192,82.4105603 L218.2852,90.2865603 L225.7532,76.0485603 L240.8062,81.6955603 L228.8362,56.0725603 Z" id="Fill-442" fill="#000000" opacity="0.17624628"></path>
                <polygon id="Fill-444" fill="#00EBAA" points="252.179 43.1589603 243.515 48.1539603 234.851 53.1489603 247.163 78.6099603 252.288 63.3709603 268.045 66.5709603"></polygon>
                <g id="Group-470" transform="translate(234.000000, 42.248860)">
                    <g id="Group-448">
                        <mask id="mask-114" fill="white">
                            <use xlink:href="#path-113"></use>
                        </mask>
                        <g id="Clip-447"></g>
                        <path d="M7.1357,17.1083 C7.9267,18.4753 7.4597,20.2253 6.0927,21.0153 C4.7247,21.8063 2.9757,21.3393 2.1847,19.9723 C1.3937,18.6053 1.8617,16.8553 3.2287,16.0653 C4.5957,15.2743 6.3447,15.7413 7.1357,17.1083" id="Fill-446" fill="#FFFFFF" mask="url(#mask-114)"></path>
                    </g>
                    <g id="Group-451">
                        <mask id="mask-116" fill="white">
                            <use xlink:href="#path-115"></use>
                        </mask>
                        <g id="Clip-450"></g>
                        <path d="M12.9321,11.8933 C13.3791,12.6653 13.1151,13.6523 12.3431,14.0993 C11.5711,14.5453 10.5831,14.2823 10.1371,13.5103 C9.6901,12.7383 9.9541,11.7503 10.7261,11.3043 C11.4981,10.8573 12.4861,11.1213 12.9321,11.8933" id="Fill-449" fill="#FFFFFF" mask="url(#mask-116)"></path>
                    </g>
                    <g id="Group-454">
                        <mask id="mask-118" fill="white">
                            <use xlink:href="#path-117"></use>
                        </mask>
                        <g id="Clip-453"></g>
                        <path d="M17.4748,2.9107 C18.3058,4.3477 17.8148,6.1867 16.3778,7.0187 C14.9408,7.8497 13.1018,7.3587 12.2698,5.9217 C11.4388,4.4837 11.9298,2.6447 13.3668,1.8137 C14.8048,0.9827 16.6438,1.4737 17.4748,2.9107" id="Fill-452" fill="#FFFFFF" mask="url(#mask-118)"></path>
                    </g>
                    <g id="Group-457">
                        <mask id="mask-120" fill="white">
                            <use xlink:href="#path-119"></use>
                        </mask>
                        <g id="Clip-456"></g>
                        <path d="M28.1014,10.4445 C28.6184,11.3385 28.3134,12.4825 27.4194,12.9995 C26.5254,13.5165 25.3814,13.2105 24.8644,12.3175 C24.3474,11.4235 24.6524,10.2795 25.5464,9.7625 C26.4404,9.2455 27.5844,9.5505 28.1014,10.4445" id="Fill-455" fill="#FFFFFF" mask="url(#mask-120)"></path>
                    </g>
                    <g id="Group-460">
                        <mask id="mask-122" fill="white">
                            <use xlink:href="#path-121"></use>
                        </mask>
                        <g id="Clip-459"></g>
                        <path d="M26.8643,20.0473 C27.4813,21.1133 27.1163,22.4773 26.0503,23.0943 C24.9843,23.7113 23.6203,23.3463 23.0033,22.2803 C22.3873,21.2143 22.7513,19.8503 23.8173,19.2333 C24.8833,18.6173 26.2473,18.9813 26.8643,20.0473" id="Fill-458" fill="#FFFFFF" mask="url(#mask-122)"></path>
                    </g>
                    <g id="Group-463">
                        <mask id="mask-124" fill="white">
                            <use xlink:href="#path-123"></use>
                        </mask>
                        <g id="Clip-462"></g>
                        <path d="M18.7254,26.1606 C19.1914,26.9666 18.9164,27.9986 18.1104,28.4646 C17.3034,28.9316 16.2724,28.6556 15.8054,27.8496 C15.3394,27.0436 15.6144,26.0116 16.4214,25.5456 C17.2274,25.0786 18.2594,25.3546 18.7254,26.1606" id="Fill-461" fill="#FFFFFF" mask="url(#mask-124)"></path>
                    </g>
                    <g id="Group-466">
                        <mask id="mask-126" fill="white">
                            <use xlink:href="#path-125"></use>
                        </mask>
                        <g id="Clip-465"></g>
                        <path d="M5.2267,8.6826 C5.7437,9.5766 5.4387,10.7206 4.5447,11.2376 C3.6507,11.7546 2.5067,11.4486 1.9897,10.5556 C1.4727,9.6616 1.7777,8.5176 2.6717,8.0006 C3.5657,7.4836 4.7097,7.7886 5.2267,8.6826" id="Fill-464" fill="#FFFFFF" mask="url(#mask-126)"></path>
                    </g>
                    <g id="Group-469">
                        <mask id="mask-128" fill="white">
                            <use xlink:href="#path-127"></use>
                        </mask>
                        <g id="Clip-468"></g>
                        <path d="M10.7029,28.4006 C10.9599,28.8446 10.8079,29.4126 10.3639,29.6686 C9.9199,29.9256 9.3519,29.7746 9.0959,29.3306 C8.8389,28.8866 8.9909,28.3186 9.4349,28.0616 C9.8779,27.8046 10.4459,27.9566 10.7029,28.4006" id="Fill-467" fill="#FFFFFF" mask="url(#mask-128)"></path>
                    </g>
                </g>
                <path d="M252.179,43.1589603 L249.847,44.5029603 C251.972,49.5699603 254.98,61.2379603 243.583,71.2059603 L247.163,78.6099603 L252.288,63.3709603 L268.045,66.5709603 L252.179,43.1589603 Z" id="Fill-471" fill="#000000" opacity="0.17624628"></path>
                <polygon id="Fill-473" fill="#595BD9" points="273.1082 28.3350603 265.1702 34.4170603 257.2312 40.5000603 272.7582 64.1370603 275.8532 48.3600603 291.8922 49.4770603"></polygon>
                <g id="Group-490" transform="translate(257.000000, 28.248860)">
                    <g id="Group-477">
                        <mask id="mask-130" fill="white">
                            <use xlink:href="#path-129"></use>
                        </mask>
                        <g id="Clip-476"></g>
                        <path d="M-0.7664,8.4111 C6.4256,17.6201 13.6166,26.8291 20.8086,36.0381 C21.0956,36.4061 21.7156,35.7941 21.4616,35.4691 C14.2696,26.2601 7.0786,17.0511 -0.1134,7.8431 C-0.4014,7.4741 -1.0204,8.0861 -0.7664,8.4111" id="Fill-475" fill="#FFFFFF" mask="url(#mask-130)"></path>
                    </g>
                    <g id="Group-480">
                        <mask id="mask-132" fill="white">
                            <use xlink:href="#path-131"></use>
                        </mask>
                        <g id="Clip-479"></g>
                        <path d="M1.715,5.4882 C10.728,13.9712 16.815,25.2472 24.86,34.6172 C25.155,34.9612 25.759,34.3382 25.506,34.0442 C17.42,24.6252 11.312,13.3192 2.25,4.7892 C1.955,4.5122 1.41,5.2012 1.715,5.4882" id="Fill-478" fill="#FFFFFF" mask="url(#mask-132)"></path>
                    </g>
                    <g id="Group-483">
                        <mask id="mask-134" fill="white">
                            <use xlink:href="#path-133"></use>
                        </mask>
                        <g id="Clip-482"></g>
                        <path d="M2.4779,-0.987 C6.4069,3.928 10.3509,8.831 14.3139,13.719 C16.2349,16.088 18.1609,18.455 20.0899,20.818 C21.6469,22.724 23.2919,25.73 25.6989,26.597 C25.9689,26.695 26.4109,25.963 26.2339,25.899 C23.9589,25.079 22.4579,22.362 20.9869,20.562 C18.9359,18.052 16.8899,15.538 14.8489,13.02 C10.8859,8.133 6.9419,3.23 3.0129,-1.685 C2.8879,-1.841 2.3009,-1.208 2.4779,-0.987" id="Fill-481" fill="#FFFFFF" mask="url(#mask-134)"></path>
                    </g>
                    <g id="Group-486">
                        <mask id="mask-136" fill="white">
                            <use xlink:href="#path-135"></use>
                        </mask>
                        <g id="Clip-485"></g>
                        <path d="M5.5499,-5.6925 C12.9949,5.1645 20.9539,15.6485 29.4099,25.7375 C29.6899,26.0715 30.2849,25.4395 30.0499,25.1585 C21.5929,15.0695 13.6349,4.5855 6.1889,-6.2715 C5.9449,-6.6275 5.3389,-6.0005 5.5499,-5.6925" id="Fill-484" fill="#FFFFFF" mask="url(#mask-136)"></path>
                    </g>
                    <g id="Group-489">
                        <mask id="mask-138" fill="white">
                            <use xlink:href="#path-137"></use>
                        </mask>
                        <g id="Clip-488"></g>
                        <path d="M10.7148,-2.3335 C17.7668,7.0585 25.2458,16.1085 33.1418,24.8025 C33.2258,24.8965 33.8168,24.2585 33.6768,24.1045 C25.7808,15.4095 18.3018,6.3605 11.2498,-3.0315 C11.1878,-3.1145 10.5798,-2.5135 10.7148,-2.3335" id="Fill-487" fill="#FFFFFF" mask="url(#mask-138)"></path>
                    </g>
                </g>
                <path d="M273.1082,28.3350603 L270.9712,29.9720603 C273.7392,34.7180603 278.2432,45.8940603 268.2432,57.2640603 L272.7582,64.1370603 L275.8532,48.3600603 L291.8922,49.4770603 L273.1082,28.3350603 Z" id="Fill-491" fill="#000000" opacity="0.28062221"></path>
                <polygon id="Fill-493" fill="#08BDBD" points="290.9977 9.84856029 284.2397 17.2195603 277.4807 24.5905603 296.8847 45.1655603 297.1867 29.0905603 313.1747 27.3985603"></polygon>
                <path d="M290.9977,9.84846029 L289.1787,11.8324603 C292.7307,16.0244603 299.1107,26.2454603 291.2427,39.1824603 L296.8847,45.1654603 L297.1867,29.0904603 L313.1747,27.3984603 L290.9977,9.84846029 Z" id="Fill-495" fill="#000000" opacity="0.134184338"></path>
                <g id="Group-515" transform="translate(277.000000, 9.248860)">
                    <g id="Group-499">
                        <mask id="mask-140" fill="white">
                            <use xlink:href="#path-139"></use>
                        </mask>
                        <g id="Clip-498"></g>
                        <path d="M-0.8972,24.3058 C10.2768,12.8808 21.1738,1.1918 31.7898,-10.7532 C32.2528,-11.2752 32.4348,-12.3662 31.6288,-11.4592 C21.0138,0.4858 10.1158,12.1748 -1.0582,23.5998 C-1.5512,24.1048 -1.7432,25.1708 -0.8972,24.3058" id="Fill-497" fill="#FFFFFF" mask="url(#mask-140)"></path>
                    </g>
                    <g id="Group-502">
                        <mask id="mask-142" fill="white">
                            <use xlink:href="#path-141"></use>
                        </mask>
                        <g id="Clip-501"></g>
                        <path d="M1.634,27.0348 C12.928,14.5918 24.223,2.1488 35.517,-10.2942 C36.013,-10.8412 36.089,-11.9512 35.279,-11.0582 C23.984,1.3848 12.69,13.8278 1.396,26.2708 C0.9,26.8178 0.824,27.9278 1.634,27.0348" id="Fill-500" fill="#FFFFFF" mask="url(#mask-142)"></path>
                    </g>
                    <g id="Group-505">
                        <mask id="mask-144" fill="white">
                            <use xlink:href="#path-143"></use>
                        </mask>
                        <g id="Clip-504"></g>
                        <path d="M4.5601,29.764 C14.8041,19.074 24.8181,8.168 34.5971,-2.949 C35.1301,-3.554 35.0011,-4.716 34.2141,-3.821 C24.4351,7.296 14.4211,18.202 4.1771,28.892 C3.6111,29.482 3.7361,30.624 4.5601,29.764" id="Fill-503" fill="#FFFFFF" mask="url(#mask-144)"></path>
                    </g>
                    <g id="Group-508">
                        <mask id="mask-146" fill="white">
                            <use xlink:href="#path-145"></use>
                        </mask>
                        <g id="Clip-507"></g>
                        <path d="M11.0103,30.1737 C22.3273,17.9147 33.6443,5.6547 44.9613,-6.6043 C45.6333,-7.3323 43.9823,-7.2953 43.5993,-6.8803 C32.2823,5.3797 20.9653,17.6387 9.6483,29.8987 C8.9763,30.6267 10.6273,30.5887 11.0103,30.1737" id="Fill-506" fill="#FFFFFF" mask="url(#mask-146)"></path>
                    </g>
                    <g id="Group-511">
                        <mask id="mask-148" fill="white">
                            <use xlink:href="#path-147"></use>
                        </mask>
                        <g id="Clip-510"></g>
                        <path d="M-2.5466,19.2139 C6.1044,12.1449 14.2654,4.5249 21.9184,-3.6131 C22.4134,-4.1391 22.5444,-5.2281 21.7174,-4.3481 C14.1604,3.6879 6.0974,11.2009 -2.4446,18.1799 C-2.8326,18.4969 -3.4186,19.9259 -2.5466,19.2139" id="Fill-509" fill="#FFFFFF" mask="url(#mask-148)"></path>
                    </g>
                    <g id="Group-514">
                        <mask id="mask-150" fill="white">
                            <use xlink:href="#path-149"></use>
                        </mask>
                        <g id="Clip-513"></g>
                        <path d="M13.7333,37.794 C23.8753,25.29 34.2253,12.957 44.7793,0.8 C45.4823,-0.01 44.6903,-0.582 43.9993,0.214 C33.4443,12.372 23.0953,24.705 12.9533,37.209 C12.2803,38.038 13.0643,38.619 13.7333,37.794" id="Fill-512" fill="#FFFFFF" mask="url(#mask-150)"></path>
                    </g>
                </g>
                <path d="M15.87,2.42036029 C27.367,19.6613603 41.856,34.1753603 59.503,45.1033603 C78.528,56.8843603 99.117,66.6623603 121.361,70.2093603 C132.236,71.9433603 143.284,72.6553603 154.293,72.5283603 C164.717,72.4083603 174.975,71.8063603 185.208,69.6833603 C206.097,65.3483603 226.405,58.2063603 245.147,47.9923603 C266.084,36.5823603 285.329,22.0163603 296.656,0.523360291 C297.052,-0.228639709 295.346,-0.0936397093 295.062,0.445360291 C285.152,19.2483603 269.085,32.8263603 251.021,43.4733603 C232.421,54.4373603 212.474,62.1743603 191.515,67.2633603 C171.016,72.2403603 149.496,72.6223603 128.596,70.0943603 C117.432,68.7453603 106.537,66.2393603 96.053,62.1443603 C85.697,58.1003603 75.75,53.0173603 66.153,47.4203603 C56.349,41.7043603 47.07,35.2193603 38.797,27.4213603 C30.659,19.7523603 23.639,11.0253603 17.443,1.73336029 C17.1,1.21936029 15.454,1.79736029 15.87,2.42036029" id="Fill-516" fill="#146875"></path>
            </g>
        </g>
    </g>
</svg>