<?xml version="1.0" encoding="UTF-8"?>
<svg width="51px" height="137px" viewBox="0 0 51 137" version="1.1" xmlns="http://www.w3.org/2000/svg" xmlns:xlink="http://www.w3.org/1999/xlink">
    <!-- Generator: Sketch 53.1 (72631) - https://sketchapp.com -->
    <title>Group 50Hanging</title>
    <desc>Created with Sketch.</desc>
    <g id="Page-1" stroke="none" stroke-width="1" fill="none" fill-rule="evenodd">
        <g id="Desktop-HD" transform="translate(-895.000000, -2478.000000)">
            <g id="Group-50" transform="translate(895.129600, 2478.041000)">
                <polygon id="Fill-1164" fill="#00ADEE" points="6.3694 97.998 6.8874 97.998 6.8874 0.422 6.3694 0.422"></polygon>
                <polygon id="Fill-1166" fill="#00ADEE" points="16.3584 120.46 16.8764 120.46 16.8764 2.84217094e-14 16.3584 2.84217094e-14"></polygon>
                <polygon id="Fill-1167" fill="#00ADEE" points="30.6764 103.238 31.1944 103.238 31.1944 1.56319402e-13 30.6764 1.56319402e-13"></polygon>
                <polygon id="Fill-1168" fill="#00ADEE" points="46.7744 95.591 47.2924 95.591 47.2924 1.84741111e-13 46.7744 1.84741111e-13"></polygon>
                <polygon id="Fill-1169" fill="#00ADEE" points="21.9384 78.602 22.4564 78.602 22.4564 -5.68434189e-14 21.9384 -5.68434189e-14"></polygon>
                <polygon id="Fill-1170" fill="#00ADEE" points="36.2614 126.233 36.7794 126.233 36.7794 9.9475983e-14 36.2614 9.9475983e-14"></polygon>
                <path d="M13.257,99.961 C13.257,103.622 10.29,106.589 6.629,106.589 C2.968,106.589 5.68434189e-14,103.622 5.68434189e-14,99.961 C5.68434189e-14,96.3 2.968,93.332 6.629,93.332 C10.29,93.332 13.257,96.3 13.257,99.961" id="Fill-1171" fill="#FAAF40"></path>
                <path d="M25.5752,79.8628 C25.5752,81.7278 24.0632,83.2408 22.1982,83.2408 C20.3322,83.2408 18.8202,81.7278 18.8202,79.8628 C18.8202,77.9978 20.3322,76.4848 22.1982,76.4848 C24.0632,76.4848 25.5752,77.9978 25.5752,79.8628" id="Fill-1172" fill="#FAAF40"></path>
                <path d="M38.5533,104.5249 C38.5533,108.7319 35.1423,112.1429 30.9353,112.1429 C26.7283,112.1429 23.3183,108.7319 23.3183,104.5249 C23.3183,100.3179 26.7283,96.9069 30.9353,96.9069 C35.1423,96.9069 38.5533,100.3179 38.5533,104.5249" id="Fill-1173" fill="#FAAF40"></path>
                <path d="M44.1375,128.9461 C44.1375,133.1531 40.7265,136.5631 36.5205,136.5631 C32.3125,136.5631 28.9025,133.1531 28.9025,128.9461 C28.9025,124.7391 32.3125,121.3281 36.5205,121.3281 C40.7265,121.3281 44.1375,124.7391 44.1375,128.9461" id="Fill-1174" fill="#FAAF40"></path>
                <path d="M38.5533,81.8961 C38.5533,83.0191 37.6433,83.9291 36.5203,83.9291 C35.3973,83.9291 34.4863,83.0191 34.4863,81.8961 C34.4863,80.7731 35.3973,79.8631 36.5203,79.8631 C37.6433,79.8631 38.5533,80.7731 38.5533,81.8961" id="Fill-1175" fill="#FAAF40"></path>
                <path d="M50.1702,94.8611 C50.1702,96.5931 48.7662,97.9981 47.0332,97.9981 C45.3012,97.9981 43.8972,96.5931 43.8972,94.8611 C43.8972,93.1291 45.3012,91.7241 47.0332,91.7241 C48.7662,91.7241 50.1702,93.1291 50.1702,94.8611" id="Fill-1176" fill="#FAAF40"></path>
                <path d="M19.9784,121.3284 C19.9784,123.1844 18.4744,124.6894 16.6174,124.6894 C14.7614,124.6894 13.2574,123.1844 13.2574,121.3284 C13.2574,119.4724 14.7614,117.9674 16.6174,117.9674 C18.4744,117.9674 19.9784,119.4724 19.9784,121.3284" id="Fill-1177" fill="#FAAF40"></path>
                <path d="M0.0003,99.961 C0.0003,103.622 2.9683,106.589 6.6283,106.589 L6.6283,93.332 C2.9683,93.332 0.0003,96.3 0.0003,99.961" id="Fill-1178" fill="#FAAF40"></path>
                <path d="M18.8204,79.8628 C18.8204,81.7278 20.3324,83.2408 22.1974,83.2408 L22.1974,76.4848 C20.3324,76.4848 18.8204,77.9978 18.8204,79.8628" id="Fill-1179" fill="#FAAF40"></path>
                <path d="M34.4867,81.8961 C34.4867,83.0191 35.3967,83.9291 36.5197,83.9291 L36.5197,79.8631 C35.3967,79.8631 34.4867,80.7731 34.4867,81.8961" id="Fill-1180" fill="#FAAF40"></path>
                <path d="M43.8968,94.8611 C43.8968,96.5931 45.3008,97.9981 47.0338,97.9981 L47.0338,91.7241 C45.3008,91.7241 43.8968,93.1291 43.8968,94.8611" id="Fill-1181" fill="#FAAF40"></path>
                <path d="M23.3179,104.5249 C23.3179,108.7319 26.7289,112.1429 30.9359,112.1429 L30.9359,96.9069 C26.7289,96.9069 23.3179,100.3179 23.3179,104.5249" id="Fill-1182" fill="#FAAF40"></path>
                <path d="M28.9026,128.9461 C28.9026,133.1531 32.3126,136.5631 36.5196,136.5631 L36.5196,121.3281 C32.3126,121.3281 28.9026,124.7391 28.9026,128.9461" id="Fill-1183" fill="#FAAF40"></path>
                <path d="M13.257,121.3284 C13.257,123.1844 14.762,124.6894 16.618,124.6894 L16.618,117.9674 C14.762,117.9674 13.257,119.4724 13.257,121.3284" id="Fill-1184" fill="#FAAF40"></path>
            </g>
        </g>
    </g>
</svg>