<?xml version="1.0" encoding="UTF-8"?>
<svg width="135px" height="172px" viewBox="0 0 135 172" version="1.1" xmlns="http://www.w3.org/2000/svg" xmlns:xlink="http://www.w3.org/1999/xlink">
    <!-- Generator: Sketch 53.1 (72631) - https://sketchapp.com -->
    <title>Group 53Light</title>
    <desc>Created with Sketch.</desc>
    <defs>
        <path d="M0.202,48.319 C0.202,74.928 21.772,96.498 48.38,96.498 L48.38,96.498 C74.989,96.498 96.559,74.928 96.559,48.319 L96.559,48.319 C96.559,21.711 74.989,0.14 48.38,0.14 L48.38,0.14 C21.772,0.14 0.202,21.711 0.202,48.319" id="path-1"></path>
        <path d="M0.202,48.319 C0.202,74.928 21.772,96.498 48.38,96.498 L48.38,96.498 C74.989,96.498 96.559,74.928 96.559,48.319 L96.559,48.319 C96.559,21.711 74.989,0.14 48.38,0.14 L48.38,0.14 C21.772,0.14 0.202,21.711 0.202,48.319" id="path-3"></path>
        <path d="M0.202,48.319 C0.202,74.928 21.772,96.498 48.38,96.498 L48.38,96.498 C74.989,96.498 96.559,74.928 96.559,48.319 L96.559,48.319 C96.559,21.711 74.989,0.14 48.38,0.14 L48.38,0.14 C21.772,0.14 0.202,21.711 0.202,48.319" id="path-5"></path>
        <path d="M0.202,48.319 C0.202,74.928 21.772,96.498 48.38,96.498 L48.38,96.498 C74.989,96.498 96.559,74.928 96.559,48.319 L96.559,48.319 C96.559,21.711 74.989,0.14 48.38,0.14 L48.38,0.14 C21.772,0.14 0.202,21.711 0.202,48.319" id="path-7"></path>
        <path d="M48.38,96.498 C74.989,96.498 96.559,74.928 96.559,48.319 C96.559,21.711 74.989,0.14 48.38,0.14 C21.772,0.14 0.202,21.711 0.202,48.319 C0.202,74.928 21.772,96.498 48.38,96.498 Z" id="path-9"></path>
        <path d="M0.478,18.342 C0.478,28.086 8.377,35.984 18.12,35.984 L18.12,35.984 C27.864,35.984 35.762,28.086 35.762,18.342 L35.762,18.342 C35.762,8.599 27.864,0.7 18.12,0.7 L18.12,0.7 C8.377,0.7 0.478,8.599 0.478,18.342" id="path-11"></path>
        <path d="M0.478,18.342 C0.478,28.086 8.377,35.984 18.12,35.984 L18.12,35.984 C27.864,35.984 35.762,28.086 35.762,18.342 L35.762,18.342 C35.762,8.599 27.864,0.7 18.12,0.7 L18.12,0.7 C8.377,0.7 0.478,8.599 0.478,18.342" id="path-13"></path>
        <path d="M0.478,18.342 C0.478,28.086 8.377,35.984 18.12,35.984 L18.12,35.984 C27.864,35.984 35.762,28.086 35.762,18.342 L35.762,18.342 C35.762,8.599 27.864,0.7 18.12,0.7 L18.12,0.7 C8.377,0.7 0.478,8.599 0.478,18.342" id="path-15"></path>
        <path d="M0.478,18.342 C0.478,28.086 8.377,35.984 18.12,35.984 L18.12,35.984 C27.864,35.984 35.762,28.086 35.762,18.342 L35.762,18.342 C35.762,8.599 27.864,0.7 18.12,0.7 L18.12,0.7 C8.377,0.7 0.478,8.599 0.478,18.342" id="path-17"></path>
        <path d="M0.478,18.342 C0.478,28.086 8.377,35.984 18.12,35.984 L18.12,35.984 C27.864,35.984 35.762,28.086 35.762,18.342 L35.762,18.342 C35.762,8.599 27.864,0.7 18.12,0.7 L18.12,0.7 C8.377,0.7 0.478,8.599 0.478,18.342" id="path-19"></path>
        <path d="M0.478,18.342 C0.478,28.086 8.377,35.984 18.12,35.984 L18.12,35.984 C27.864,35.984 35.762,28.086 35.762,18.342 L35.762,18.342 C35.762,8.599 27.864,0.7 18.12,0.7 L18.12,0.7 C8.377,0.7 0.478,8.599 0.478,18.342" id="path-21"></path>
    </defs>
    <g id="Page-1" stroke="none" stroke-width="1" fill="none" fill-rule="evenodd">
        <g id="Desktop-HD" transform="translate(-558.000000, -2648.000000)">
            <g id="Group-53" transform="translate(558.000000, 2648.000000)">
                <polygon id="Fill-518" fill="#146875" points="70.7857 122.601 69.6027 122.619 67.7767 0.018 68.9597 -1.63424829e-13"></polygon>
                <path d="M24.3681,109.894 C24.2421,112.016 24.3911,114.096 24.7611,116.114 C24.9531,117.121 25.1961,118.121 25.4891,119.103 C28.3181,128.584 33.9581,137.186 41.9961,142.508 C42.8871,143.099 43.8111,143.652 44.7621,144.161 C53.2431,151.002 64.6151,153.458 75.2771,152.01 C76.4611,151.85 77.6391,151.637 78.8141,151.39 C85.5051,150.676 91.7081,148.252 96.8351,144.338 C97.6881,143.687 98.5131,142.996 99.3051,142.259 C102.1621,139.853 104.6641,137.18 106.7631,134.284 C107.4611,133.316 108.1171,132.323 108.7261,131.31 C110.6301,127.967 112.0111,124.43 112.9151,120.796 C113.2171,119.582 113.4661,118.364 113.6651,117.133 C114.4381,113.643 114.8321,110.097 114.8061,106.585 C114.7971,105.415 114.7391,104.25 114.6261,103.086 C114.5961,101.869 114.4941,100.663 114.3181,99.478 C114.1471,98.29 113.9061,97.122 113.6041,95.976 C110.4611,84.443 102.8071,74.331 92.2021,69.104 C91.3891,68.673 90.5571,68.278 89.7131,67.907 C84.6541,65.698 79.0451,64.581 73.3871,64.49 C72.3951,64.409 71.3991,64.361 70.4091,64.34 C69.4141,64.32 68.4221,64.331 67.4291,64.374 C66.2371,64.427 65.0501,64.52 63.8691,64.658 C58.9431,65.153 54.0871,66.513 49.6691,68.661 C48.5681,69.196 47.4921,69.783 46.4321,70.417 C37.5541,74.896 30.6501,82.848 28.0851,92.486 C27.7641,93.691 27.5121,94.921 27.3141,96.186 C26.8211,99.664 26.1911,103.083 24.9311,106.599 C24.6881,107.697 24.4971,108.802 24.3681,109.894" id="Fill-520" fill="#F6E08A"></path>
                <path d="M114.6266,103.0864 C114.5956,101.8684 114.4936,100.6624 114.3186,99.4784 C114.1466,98.2894 113.9066,97.1224 113.6046,95.9754 C110.4616,84.4424 102.8076,74.3304 92.2026,69.1034 C91.3896,68.6734 90.5566,68.2774 89.7136,67.9064 C84.6546,65.6984 79.0456,64.5804 73.3866,64.4904 C72.3946,64.4084 71.3996,64.3604 70.4096,64.3404 C69.4136,64.3204 68.4226,64.3314 67.4286,64.3734 C66.2376,64.4264 65.0506,64.5204 63.8696,64.6584 C58.9436,65.1524 54.0876,66.5124 49.6696,68.6614 C48.5676,69.1954 47.4916,69.7834 46.4316,70.4174 C42.5516,72.3754 39.0806,75.0304 36.1496,78.1694 C38.7236,75.7374 41.6536,73.6594 44.8546,72.0444 C45.9076,71.4094 46.9906,70.8234 48.0916,70.2884 C52.5106,68.1394 57.3576,66.7834 62.2846,66.2914 C63.4656,66.1484 64.6536,66.0574 65.8436,66.0044 C66.8386,65.9624 67.8366,65.9504 68.8256,65.9704 C69.8216,65.9924 70.8146,66.0354 71.8036,66.1164 C77.4656,66.2074 83.0766,67.3254 88.1356,69.5394 C88.9776,69.9044 89.8046,70.3054 90.6186,70.7284 C101.2306,75.9564 108.8766,86.0684 112.0216,97.6014 C112.3216,98.7494 112.5636,99.9174 112.7386,101.1044 C112.9076,102.2894 113.0156,103.4964 113.0486,104.7204 C113.1596,105.8824 113.2166,107.0464 113.2266,108.2164 C113.2536,111.7214 112.8536,115.2684 112.0856,118.7594 C111.8866,119.9914 111.6396,121.2124 111.3376,122.4274 C110.4326,126.0614 109.0526,129.5984 107.1456,132.9364 C106.5396,133.9544 105.8816,134.9474 105.1796,135.9094 C104.2176,137.2454 103.1516,138.5304 102.0176,139.7594 C103.7636,138.0394 105.3636,136.2144 106.7626,134.2834 C107.4606,133.3154 108.1176,132.3224 108.7266,131.3104 C110.6306,127.9674 112.0106,124.4304 112.9156,120.7954 C113.2176,119.5814 113.4656,118.3644 113.6656,117.1324 C114.4386,113.6434 114.8326,110.0964 114.8066,106.5844 C114.7976,105.4144 114.7396,104.2504 114.6266,103.0864" id="Fill-522" fill="#FFF7D7"></path>
                <path d="M42.1445,104.8987 C43.0315,108.3777 44.4485,112.1057 47.2475,114.5467 C47.8645,115.1157 48.5455,115.6197 49.2825,116.0627 C52.2005,117.5827 55.3695,118.5777 58.5725,118.8367 C59.6365,118.9197 60.7035,118.9247 61.7745,118.8447 C64.7705,118.4777 67.8275,117.4157 70.4755,115.7977 C71.3585,115.2607 72.1945,114.6587 72.9725,113.9947 C76.7355,110.5937 79.4265,105.7307 78.5945,100.8787 C78.4245,99.9037 78.1165,98.9297 77.6505,97.9687 C74.5795,92.0567 68.8945,85.9127 62.0615,86.1537 C61.0895,86.1837 60.0855,86.3467 59.0385,86.6467 C51.6045,88.8197 42.4555,92.7037 41.7265,101.7377 C41.7585,102.7587 41.8915,103.8107 42.1445,104.8987" id="Fill-524" fill="#FFF0A3"></path>
                <path d="M46.6212,77.6945 C46.9432,78.9555 47.4582,80.3035 48.4682,81.1835 C48.6892,81.3875 48.9372,81.5755 49.2082,81.7295 C50.2602,82.2815 51.4052,82.6405 52.5632,82.7365 C52.9502,82.7655 53.3392,82.7655 53.7202,82.7395 C54.8082,82.6055 55.9122,82.2215 56.8722,81.6355 C57.1872,81.4445 57.4922,81.2255 57.7702,80.9855 C59.1342,79.7525 60.1042,77.9955 59.8022,76.2415 C59.7472,75.8895 59.6332,75.5405 59.4592,75.1885 C58.3522,73.0505 56.2972,70.8305 53.8252,70.9165 C53.4762,70.9285 53.1132,70.9875 52.7342,71.0965 C50.0442,71.8835 46.7402,73.2855 46.4752,76.5515 C46.4862,76.9235 46.5302,77.2985 46.6212,77.6945" id="Fill-526" fill="#C9B866"></path>
                <path d="M37.7709,84.0723 C37.9499,84.7773 38.2379,85.5423 38.8069,86.0383 C38.9359,86.1553 39.0709,86.2553 39.2249,86.3463 C39.8199,86.6563 40.4679,86.8573 41.1159,86.9103 C41.3359,86.9293 41.5519,86.9313 41.7689,86.9133 C42.3809,86.8393 43.0039,86.6233 43.5439,86.2943 C43.7199,86.1813 43.8949,86.0623 44.0509,85.9243 C44.8219,85.2333 45.3709,84.2423 45.1969,83.2503 C45.1619,83.0543 45.1049,82.8583 45.0059,82.6563 C44.3809,81.4513 43.2229,80.2023 41.8319,80.2513 C41.6289,80.2583 41.4259,80.2873 41.2149,80.3493 C39.6969,80.7933 37.8299,81.5853 37.6859,83.4263 C37.6909,83.6343 37.7179,83.8513 37.7709,84.0723" id="Fill-528" fill="#C9B866"></path>
                <path d="M81.5228,95.5293 C81.9058,97.0383 82.5208,98.6493 83.7318,99.7033 C83.9968,99.9543 84.2958,100.1723 84.6128,100.3603 C85.8798,101.0233 87.2508,101.4493 88.6398,101.5653 C89.0988,101.6013 89.5658,101.6043 90.0248,101.5673 C91.3228,101.4083 92.6458,100.9493 93.7918,100.2503 C94.1768,100.0173 94.5358,99.7583 94.8748,99.4703 C96.5038,97.9963 97.6698,95.8923 97.3088,93.7893 C97.2338,93.3643 97.1048,92.9443 96.8968,92.5263 C95.5678,89.9683 93.1088,87.3073 90.1518,87.4103 C89.7248,87.4243 89.2938,87.4973 88.8388,87.6253 C85.6188,88.5653 81.6608,90.2503 81.3438,94.1573 C81.3558,94.6033 81.4138,95.0563 81.5228,95.5293" id="Fill-530" fill="#E3D17D"></path>
                <path d="M84.354,99.56 C84.819,99.597 85.281,99.601 85.741,99.562 C87.04,99.404 88.369,98.946 89.513,98.245 C89.891,98.013 90.256,97.753 90.593,97.466 C92.22,95.992 93.387,93.887 93.025,91.784 C92.956,91.359 92.822,90.941 92.618,90.521 C92.047,89.432 91.275,88.321 90.344,87.415 C93.213,87.433 95.597,90.025 96.897,92.526 C97.105,92.944 97.234,93.364 97.309,93.789 C97.67,95.892 96.504,97.996 94.874,99.47 C94.536,99.758 94.177,100.017 93.792,100.25 C92.646,100.949 91.323,101.409 90.025,101.567 C89.566,101.604 89.099,101.601 88.638,101.565 C87.251,101.449 85.88,101.023 84.613,100.361 C84.296,100.172 83.997,99.955 83.732,99.703 C83.64,99.624 83.553,99.531 83.463,99.438 C83.758,99.493 84.057,99.536 84.354,99.56" id="Fill-532" fill="#C9B866"></path>
                <path d="M87.6104,101.3248 C88.0754,101.3628 88.5364,101.3638 89.0014,101.3288 C90.2964,101.1668 91.6204,100.7098 92.7674,100.0088 C93.1504,99.7768 93.5124,99.5198 93.8504,99.2308 C95.4764,97.7498 96.6434,95.6508 96.2814,93.5498 C96.2084,93.1238 96.0784,92.7058 95.8764,92.2868 C94.8244,90.2668 93.0714,88.1918 90.9234,87.4568 C93.5344,87.7848 95.6864,90.1918 96.8964,92.5258 C97.1054,92.9448 97.2334,93.3638 97.3084,93.7888 C97.6704,95.8918 96.5044,97.9958 94.8744,99.4698 C94.5364,99.7578 94.1764,100.0178 93.7914,100.2498 C92.6464,100.9498 91.3234,101.4088 90.0244,101.5668 C89.5654,101.6048 89.0994,101.6008 88.6374,101.5648 C87.9864,101.5098 87.3374,101.3888 86.6994,101.1998 C87.0034,101.2558 87.3064,101.2978 87.6104,101.3248" id="Fill-534" fill="#B29E47"></path>
                <path d="M88.8393,87.6251 C88.9263,87.6001 89.0123,87.5781 89.0943,87.5571 C86.0433,88.5421 82.6493,90.2561 82.3623,93.8571 C82.3753,94.3051 82.4303,94.7561 82.5403,95.2291 C82.9273,96.7381 83.5383,98.3501 84.7513,99.4061 C85.0163,99.6551 85.3133,99.8731 85.6343,100.0611 C86.8953,100.7231 88.2673,101.1531 89.6523,101.2651 C90.1183,101.3041 90.5783,101.3051 91.0383,101.2701 C91.3623,101.2291 91.6843,101.1681 92.0053,101.0921 C91.3583,101.3281 90.6903,101.4861 90.0243,101.5671 C89.5653,101.6041 89.0993,101.6011 88.6373,101.5651 C87.2513,101.4491 85.8793,101.0231 84.6123,100.3611 C84.2953,100.1721 83.9973,99.9551 83.7313,99.7031 C82.5203,98.6491 81.9063,97.0381 81.5233,95.5291 C81.4133,95.0561 81.3563,94.6031 81.3433,94.1571 C81.6613,90.2501 85.6183,88.5651 88.8393,87.6251" id="Fill-536" fill="#FFF0A3"></path>
                <path d="M81.9557,130.9261 C82.1337,131.6381 82.4237,132.3981 82.9967,132.8971 C83.1207,133.0091 83.2587,133.1131 83.4087,133.2061 C84.0047,133.5161 84.6537,133.7181 85.3067,133.7711 C85.5227,133.7881 85.7397,133.7891 85.9597,133.7741 C86.5657,133.6971 87.1907,133.4841 87.7317,133.1551 C87.9137,133.0401 88.0797,132.9181 88.2417,132.7851 C89.0067,132.0881 89.5547,131.1001 89.3877,130.1111 C89.3537,129.9121 89.2897,129.7121 89.1917,129.5161 C88.5657,128.3121 87.4067,127.0561 86.0167,127.1051 C85.8207,127.1121 85.6097,127.1461 85.4017,127.2101 C83.8827,127.6521 82.0177,128.4431 81.8697,130.2861 C81.8767,130.4921 81.9047,130.7061 81.9557,130.9261" id="Fill-538" fill="#E3D17D"></path>
                <path d="M83.2869,132.8265 C83.5089,132.8435 83.7249,132.8445 83.9399,132.8295 C84.5519,132.7515 85.1769,132.5385 85.7129,132.2085 C85.8989,132.0955 86.0679,131.9775 86.2239,131.8395 C86.9919,131.1445 87.5419,130.1585 87.3679,129.1645 C87.3349,128.9675 87.2749,128.7705 87.1779,128.5725 C86.9119,128.0585 86.5449,127.5365 86.1069,127.1075 C87.4579,127.1165 88.5799,128.3385 89.1919,129.5165 C89.2899,129.7115 89.3539,129.9125 89.3879,130.1105 C89.5549,131.1005 89.0069,132.0885 88.2419,132.7855 C88.0799,132.9175 87.9129,133.0395 87.7319,133.1555 C87.1909,133.4835 86.5649,133.6965 85.9589,133.7735 C85.7399,133.7885 85.5229,133.7875 85.3069,133.7715 C84.6539,133.7175 84.0049,133.5165 83.4089,133.2065 C83.2579,133.1135 83.1209,133.0095 82.9959,132.8965 C82.9539,132.8555 82.9109,132.8115 82.8699,132.7695 C83.0079,132.7945 83.1499,132.8145 83.2869,132.8265" id="Fill-540" fill="#C9B866"></path>
                <path d="M84.8205,133.655 C85.0385,133.675 85.2595,133.676 85.4745,133.658 C86.0845,133.582 86.7105,133.369 87.2475,133.038 C87.4275,132.928 87.6025,132.807 87.7575,132.669 C88.5245,131.977 89.0755,130.986 88.9005,129.994 C88.8685,129.798 88.8085,129.602 88.7125,129.399 C88.2215,128.453 87.3885,127.474 86.3845,127.126 C87.6125,127.288 88.6215,128.419 89.1925,129.517 C89.2895,129.712 89.3535,129.912 89.3875,130.111 C89.5545,131.1 89.0065,132.088 88.2415,132.785 C88.0795,132.918 87.9135,133.04 87.7315,133.155 C87.1905,133.484 86.5655,133.697 85.9595,133.774 C85.7395,133.789 85.5225,133.788 85.3065,133.771 C85.0005,133.746 84.6955,133.685 84.3955,133.598 C84.5335,133.623 84.6805,133.645 84.8205,133.655" id="Fill-542" fill="#B29E47"></path>
                <path d="M85.4012,127.2099 C85.4412,127.1969 85.4802,127.1879 85.5172,127.1779 C84.0852,127.6429 82.4882,128.4469 82.3522,130.1419 C82.3582,130.3489 82.3822,130.5689 82.4312,130.7889 C82.6172,131.4969 82.9072,132.2579 83.4752,132.7539 C83.6002,132.8719 83.7392,132.9709 83.8862,133.0619 C84.4822,133.3739 85.1292,133.5739 85.7832,133.6279 C85.9972,133.6459 86.2172,133.6469 86.4362,133.6309 C86.5862,133.6129 86.7412,133.5829 86.8892,133.5479 C86.5822,133.6569 86.2662,133.7329 85.9592,133.7739 C85.7392,133.7889 85.5222,133.7879 85.3062,133.7709 C84.6532,133.7179 84.0052,133.5159 83.4092,133.2069 C83.2582,133.1139 83.1202,133.0089 82.9962,132.8969 C82.4242,132.3979 82.1332,131.6379 81.9552,130.9259 C81.9042,130.7069 81.8772,130.4929 81.8692,130.2859 C82.0182,128.4429 83.8832,127.6519 85.4012,127.2099" id="Fill-544" fill="#FFF0A3"></path>
                <path d="M100.5166,130.3113 C100.6676,130.9173 100.9156,131.5653 101.4056,131.9943 C101.5116,132.0943 101.6336,132.1793 101.7656,132.2573 C102.2726,132.5233 102.8236,132.6933 103.3836,132.7423 C103.5736,132.7563 103.7576,132.7563 103.9416,132.7423 C104.4656,132.6773 105.0046,132.4953 105.4646,132.2143 C105.6186,132.1163 105.7636,132.0153 105.9046,131.8973 C106.5556,131.3033 107.0306,130.4543 106.8826,129.6073 C106.8536,129.4343 106.7986,129.2663 106.7196,129.0933 C106.1786,128.0633 105.1886,126.9923 103.9966,127.0353 C103.8226,127.0393 103.6496,127.0653 103.4676,127.1173 C102.1656,127.4963 100.5726,128.1773 100.4416,129.7583 C100.4476,129.9343 100.4716,130.1153 100.5166,130.3113" id="Fill-546" fill="#E3D17D"></path>
                <path d="M101.6573,131.9326 C101.8443,131.9496 102.0323,131.9516 102.2153,131.9356 C102.7383,131.8706 103.2733,131.6866 103.7373,131.4036 C103.8903,131.3096 104.0383,131.2026 104.1763,131.0896 C104.8303,130.4946 105.3033,129.6456 105.1553,128.7976 C105.1263,128.6256 105.0703,128.4556 104.9883,128.2866 C104.7613,127.8486 104.4473,127.3986 104.0753,127.0356 C105.2333,127.0386 106.1913,128.0856 106.7193,129.0936 C106.7983,129.2656 106.8533,129.4346 106.8823,129.6076 C107.0303,130.4546 106.5563,131.3026 105.9043,131.8976 C105.7633,132.0156 105.6183,132.1166 105.4643,132.2146 C105.0043,132.4956 104.4653,132.6776 103.9423,132.7416 C103.7583,132.7566 103.5733,132.7566 103.3833,132.7416 C102.8243,132.6936 102.2733,132.5236 101.7653,132.2566 C101.6333,132.1796 101.5123,132.0936 101.4063,131.9936 C101.3673,131.9606 101.3323,131.9216 101.2963,131.8856 C101.4183,131.9076 101.5363,131.9236 101.6573,131.9326" id="Fill-548" fill="#C9B866"></path>
                <path d="M102.9729,132.6473 C103.1579,132.6623 103.3409,132.6613 103.5339,132.6483 C104.0549,132.5843 104.5879,132.3953 105.0499,132.1143 C105.2059,132.0233 105.3539,131.9173 105.4889,131.7993 C106.1479,131.2053 106.6139,130.3533 106.4719,129.5073 C106.4439,129.3393 106.3889,129.1663 106.3039,128.9993 C105.8849,128.1853 105.1739,127.3433 104.3079,127.0493 C105.3599,127.1843 106.2269,128.1573 106.7199,129.0933 C106.7979,129.2663 106.8529,129.4343 106.8819,129.6073 C107.0309,130.4543 106.5559,131.3033 105.9039,131.8973 C105.7639,132.0153 105.6179,132.1163 105.4649,132.2143 C105.0039,132.4953 104.4659,132.6773 103.9419,132.7423 C103.7579,132.7563 103.5739,132.7563 103.3839,132.7423 C103.1209,132.7203 102.8599,132.6693 102.6059,132.5983 C102.7239,132.6203 102.8479,132.6363 102.9729,132.6473" id="Fill-550" fill="#B29E47"></path>
                <path d="M103.4678,127.1173 C103.5038,127.1063 103.5348,127.0973 103.5678,127.0893 C102.3408,127.4873 100.9688,128.1793 100.8538,129.6353 C100.8578,129.8123 100.8798,129.9983 100.9228,130.1863 C101.0798,130.7943 101.3278,131.4473 101.8188,131.8703 C101.9228,131.9733 102.0438,132.0623 102.1708,132.1353 C102.6818,132.4013 103.2368,132.5783 103.7968,132.6253 C103.9808,132.6393 104.1708,132.6393 104.3558,132.6253 C104.4828,132.6093 104.6148,132.5853 104.7468,132.5563 C104.4808,132.6453 104.2128,132.7103 103.9418,132.7413 C103.7578,132.7563 103.5738,132.7563 103.3838,132.7423 C102.8238,132.6933 102.2728,132.5233 101.7648,132.2563 C101.6328,132.1793 101.5118,132.0943 101.4058,131.9943 C100.9158,131.5653 100.6678,130.9173 100.5168,130.3113 C100.4718,130.1153 100.4478,129.9343 100.4408,129.7583 C100.5728,128.1773 102.1658,127.4963 103.4678,127.1173" id="Fill-552" fill="#FFF0A3"></path>
                <path d="M45.25,131.8845 C45.82,133.3925 46.739,134.9985 48.561,136.0495 C48.96,136.2945 49.409,136.5085 49.888,136.6965 C51.8,137.3445 53.874,137.7685 55.969,137.8685 C56.665,137.9015 57.368,137.8985 58.062,137.8605 C60.032,137.6945 62.039,137.2205 63.778,136.5115 C64.357,136.2775 64.909,136.0145 65.418,135.7265 C67.896,134.2375 69.678,132.1245 69.143,130.0235 C69.042,129.6065 68.839,129.1825 68.535,128.7655 C66.544,126.2175 62.84,123.5745 58.366,123.7015 C57.724,123.7185 57.066,123.7925 56.381,123.9285 C51.501,124.8915 45.493,126.6055 44.983,130.5205 C44.999,130.9615 45.085,131.4185 45.25,131.8845" id="Fill-554" fill="#E3D17D"></path>
                <path d="M49.501,135.8956 C50.201,135.9286 50.906,135.9276 51.6,135.8876 C53.568,135.7226 55.576,135.2496 57.317,134.5416 C57.895,134.3066 58.447,134.0446 58.957,133.7536 C61.434,132.2666 63.212,130.1536 62.68,128.0526 C62.574,127.6336 62.376,127.2096 62.072,126.7966 C61.222,125.7056 60.06,124.6026 58.662,123.7046 C63,123.6996 66.59,126.2716 68.535,128.7656 C68.838,129.1826 69.042,129.6066 69.143,130.0226 C69.678,132.1246 67.896,134.2376 65.418,135.7266 C64.909,136.0146 64.357,136.2776 63.778,136.5116 C62.039,137.2206 60.032,137.6946 58.062,137.8606 C57.368,137.8986 56.665,137.9006 55.969,137.8686 C53.874,137.7686 51.8,137.3446 49.888,136.6966 C49.409,136.5086 48.96,136.2946 48.561,136.0496 C48.415,135.9636 48.286,135.8716 48.153,135.7846 C48.598,135.8346 49.053,135.8726 49.501,135.8956" id="Fill-556" fill="#C9B866"></path>
                <path d="M54.4205,137.6345 C55.1135,137.6705 55.8185,137.6675 56.5185,137.6295 C58.4815,137.4575 60.4885,136.9895 62.2275,136.2785 C62.8075,136.0435 63.3585,135.7825 63.8705,135.4955 C66.3465,134.0065 68.1295,131.8935 67.5985,129.7915 C67.4915,129.3705 67.2915,128.9515 66.9895,128.5335 C65.4185,126.5205 62.7795,124.4585 59.5385,123.7415 C63.4795,124.0545 66.7175,126.4405 68.5345,128.7655 C68.8385,129.1825 69.0425,129.6065 69.1425,130.0235 C69.6785,132.1245 67.8955,134.2375 65.4175,135.7265 C64.9085,136.0145 64.3575,136.2775 63.7775,136.5115 C62.0385,137.2205 60.0315,137.6945 58.0625,137.8605 C57.3685,137.8985 56.6645,137.9015 55.9685,137.8685 C54.9815,137.8185 54.0005,137.7005 53.0385,137.5235 C53.4975,137.5705 53.9545,137.6115 54.4205,137.6345" id="Fill-558" fill="#B29E47"></path>
                <path d="M56.3806,123.9283 C56.5106,123.9043 56.6356,123.8823 56.7646,123.8603 C52.1416,124.8693 46.9916,126.6033 46.5246,130.2133 C46.5406,130.6543 46.6266,131.1093 46.7846,131.5803 C47.3566,133.0843 48.2746,134.6933 50.0976,135.7413 C50.5016,135.9843 50.9446,136.2003 51.4326,136.3873 C53.3356,137.0393 55.4086,137.4613 57.5046,137.5593 C58.2066,137.5963 58.9096,137.5943 59.6036,137.5523 C60.0936,137.5133 60.5836,137.4493 61.0686,137.3753 C60.0876,137.6093 59.0706,137.7733 58.0616,137.8603 C57.3686,137.8983 56.6646,137.9013 55.9686,137.8683 C53.8736,137.7683 51.8006,137.3443 49.8876,136.6963 C49.4086,136.5093 48.9606,136.2943 48.5616,136.0493 C46.7396,134.9983 45.8196,133.3933 45.2496,131.8843 C45.0846,131.4183 44.9996,130.9613 44.9826,130.5203 C45.4926,126.6063 51.5006,124.8913 56.3806,123.9283" id="Fill-560" fill="#FFF0A3"></path>
                <path d="M29.5006,106.7033 C28.7706,107.3553 28.0606,108.2223 27.8636,109.4873 C27.8156,109.7663 27.7896,110.0653 27.7886,110.3793 C27.8376,111.6043 28.0486,112.8703 28.4486,114.0723 C28.5776,114.4773 28.7346,114.8773 28.9066,115.2593 C29.4306,116.3383 30.1336,117.3713 30.9166,118.2023 C31.1766,118.4803 31.4436,118.7323 31.7196,118.9643 C33.0966,120.0393 34.6856,120.5883 35.7556,119.8293 C35.9706,119.6783 36.1696,119.4773 36.3346,119.2123 C37.3486,117.5283 38.0316,114.8533 36.9926,112.3503 C36.8376,111.9893 36.6576,111.6313 36.4286,111.2773 C34.8236,108.7203 32.5406,105.6963 30.2146,106.2603 C29.9696,106.3653 29.7316,106.5093 29.5006,106.7033" id="Fill-562" fill="#E3D17D"></path>
                <path d="M28.1564,109.9867 C28.2894,110.3927 28.4454,110.7877 28.6174,111.1727 C29.1374,112.2517 29.8444,113.2847 30.6214,114.1127 C30.8824,114.3917 31.1544,114.6467 31.4314,114.8777 C32.8084,115.9527 34.3954,116.4997 35.4664,115.7387 C35.6794,115.5897 35.8804,115.3877 36.0464,115.1217 C36.4744,114.4037 36.8464,113.5057 37.0484,112.5137 C37.9984,114.9737 37.3274,117.5657 36.3344,119.2127 C36.1694,119.4777 35.9704,119.6777 35.7554,119.8297 C34.6864,120.5887 33.0964,120.0397 31.7204,118.9647 C31.4434,118.7317 31.1764,118.4797 30.9164,118.2027 C30.1334,117.3717 29.4304,116.3387 28.9064,115.2597 C28.7344,114.8767 28.5774,114.4767 28.4484,114.0727 C28.0484,112.8707 27.8374,111.6047 27.7884,110.3797 C27.7904,110.0657 27.8154,109.7667 27.8634,109.4877 C27.8774,109.3847 27.9014,109.2957 27.9224,109.1997 C27.9954,109.4627 28.0714,109.7277 28.1564,109.9867" id="Fill-564" fill="#C9B866"></path>
                <path d="M28.2379,113.1498 C28.3749,113.5498 28.5249,113.9498 28.7029,114.3358 C29.2249,115.4118 29.9299,116.4448 30.7059,117.2738 C30.9669,117.5528 31.2359,117.8098 31.5149,118.0368 C32.8959,119.1108 34.4819,119.6598 35.5539,118.9058 C35.7659,118.7498 35.9589,118.5488 36.1339,118.2838 C36.9259,116.9548 37.5209,115.0118 37.2229,113.0248 C37.9069,115.3248 37.2579,117.6778 36.3349,119.2128 C36.1699,119.4768 35.9709,119.6778 35.7559,119.8298 C34.6859,120.5888 33.0969,120.0398 31.7199,118.9648 C31.4429,118.7318 31.1769,118.4798 30.9169,118.2028 C30.1329,117.3718 29.4299,116.3388 28.9069,115.2598 C28.7349,114.8768 28.5779,114.4768 28.4489,114.0728 C28.2579,113.5068 28.1149,112.9248 28.0059,112.3408 C28.0789,112.6108 28.1569,112.8798 28.2379,113.1498" id="Fill-566" fill="#B29E47"></path>
                <path d="M36.4282,111.2774 C36.4692,111.3404 36.5112,111.4114 36.5502,111.4784 C34.9742,109.0784 32.8702,106.5444 30.7302,107.0634 C30.4772,107.1704 30.2382,107.3154 30.0082,107.5124 C29.2832,108.1594 28.5692,109.0334 28.3762,110.2914 C28.3232,110.5704 28.2962,110.8694 28.2952,111.1834 C28.3432,112.4074 28.5542,113.6734 28.9552,114.8814 C29.0912,115.2834 29.2412,115.6814 29.4172,116.0684 C29.5452,116.3374 29.6902,116.5984 29.8382,116.8574 C29.4892,116.3544 29.1722,115.8084 28.9062,115.2594 C28.7352,114.8774 28.5772,114.4774 28.4492,114.0724 C28.0482,112.8704 27.8372,111.6044 27.7882,110.3794 C27.7902,110.0654 27.8162,109.7664 27.8632,109.4874 C28.0612,108.2224 28.7702,107.3554 29.5002,106.7034 C29.7312,106.5094 29.9692,106.3654 30.2142,106.2604 C32.5412,105.6964 34.8232,108.7204 36.4282,111.2774" id="Fill-568" fill="#FFF0A3"></path>
                <path d="M73.1878,127.284 C73.1978,127.94 73.7418,128.465 74.3948,128.456 C75.0528,128.446 75.5758,127.905 75.5658,127.249 C75.5558,126.593 75.0178,126.067 74.3598,126.077 C73.7058,126.087 73.1778,126.628 73.1878,127.284" id="Fill-570" fill="#B29E47"></path>
                <path d="M71.3626,126.0106 C71.3666,126.3026 71.6066,126.5356 71.9016,126.5316 C72.1916,126.5276 72.4236,126.2866 72.4196,125.9946 C72.4156,125.7026 72.1756,125.4686 71.8856,125.4726 C71.5906,125.4776 71.3586,125.7176 71.3626,126.0106" id="Fill-572" fill="#B29E47"></path>
                <path d="M78.0355,126.0223 C78.0395,126.3123 78.2805,126.5503 78.5715,126.5463 C78.8645,126.5423 79.0965,126.2963 79.0915,126.0063 C79.0875,125.7123 78.8485,125.4803 78.5555,125.4843 C78.2645,125.4893 78.0315,125.7283 78.0355,126.0223" id="Fill-574" fill="#B29E47"></path>
                <path d="M71.208,128.1881 C71.213,128.5341 71.496,128.8061 71.839,128.8011 C72.183,128.7961 72.457,128.5151 72.452,128.1691 C72.447,127.8281 72.164,127.5531 71.82,127.5591 C71.477,127.5641 71.203,127.8461 71.208,128.1881" id="Fill-576" fill="#B29E47"></path>
                <path d="M80.4709,73.3005 C79.9719,74.4075 80.4609,75.7105 81.5689,76.2075 C82.6769,76.7135 83.9769,76.2195 84.4809,75.1135 C84.9799,74.0095 84.4839,72.7035 83.3779,72.2035 C82.2739,71.7065 80.9689,72.1945 80.4709,73.3005" id="Fill-578" fill="#B29E47"></path>
                <path d="M78.416,69.7291 C78.191,70.2231 78.413,70.8041 78.902,71.0241 C79.394,71.2471 79.974,71.0291 80.2,70.5391 C80.42,70.0431 80.204,69.4651 79.709,69.2411 C79.215,69.0211 78.638,69.2391 78.416,69.7291" id="Fill-580" fill="#B29E47"></path>
                <path d="M89.5661,75.0006 C89.3461,75.4916 89.5621,76.0706 90.0581,76.2966 C90.5511,76.5176 91.1281,76.3006 91.3501,75.8056 C91.5741,75.3146 91.3541,74.7346 90.8631,74.5146 C90.3701,74.2876 89.7911,74.5096 89.5661,75.0006" id="Fill-582" fill="#B29E47"></path>
                <path d="M76.4468,73.2633 C76.1868,73.8423 76.4408,74.5173 77.0208,74.7793 C77.5968,75.0413 78.2748,74.7843 78.5418,74.2053 C78.8018,73.6273 78.5468,72.9513 77.9678,72.6843 C77.3868,72.4243 76.7088,72.6843 76.4468,73.2633" id="Fill-584" fill="#B29E47"></path>
                <path d="M111.3616,104.591 C110.4056,104.089 109.2276,103.689 107.8476,103.971 C107.5356,104.028 107.2156,104.115 106.8886,104.237 C105.6386,104.755 104.4076,105.467 103.3086,106.347 C102.9416,106.639 102.5926,106.952 102.2596,107.283 C101.3446,108.243 100.5436,109.368 99.9836,110.498 C99.7936,110.875 99.6346,111.248 99.5036,111.623 C98.9196,113.472 98.9626,115.327 100.1626,116.148 C100.4076,116.313 100.6906,116.435 101.0286,116.504 C103.1636,116.908 106.2036,116.589 108.3966,114.538 C108.7106,114.245 109.0096,113.917 109.2946,113.542 C111.3206,110.89 113.5806,107.36 112.0976,105.163 C111.8946,104.95 111.6526,104.758 111.3616,104.591" id="Fill-586" fill="#E3D17D"></path>
                <path d="M107.4373,104.4667 C107.0683,104.7587 106.7213,105.0717 106.3863,105.4017 C105.4733,106.3617 104.6693,107.4877 104.1073,108.6177 C103.9213,108.9957 103.7653,109.3747 103.6323,109.7427 C103.0463,111.5917 103.0903,113.4467 104.2903,114.2697 C104.5323,114.4297 104.8173,114.5557 105.1553,114.6297 C106.0663,114.7997 107.1423,114.8377 108.2493,114.6657 C106.0633,116.5977 103.1153,116.8957 101.0283,116.5047 C100.6903,116.4347 100.4073,116.3127 100.1623,116.1477 C98.9623,115.3267 98.9203,113.4717 99.5043,111.6237 C99.6353,111.2477 99.7943,110.8747 99.9833,110.4977 C100.5433,109.3677 101.3453,108.2427 102.2593,107.2827 C102.5923,106.9527 102.9413,106.6387 103.3083,106.3477 C104.4083,105.4667 105.6383,104.7557 106.8883,104.2367 C107.2153,104.1147 107.5363,104.0277 107.8483,103.9717 C107.9513,103.9497 108.0603,103.9387 108.1653,103.9237 C107.9163,104.0957 107.6723,104.2787 107.4373,104.4667" id="Fill-588" fill="#C9B866"></path>
                <path d="M104.1917,105.7769 C103.8237,106.0689 103.4717,106.3819 103.1437,106.7109 C102.2277,107.6669 101.4277,108.7979 100.8677,109.9279 C100.6757,110.3049 100.5177,110.6789 100.3877,111.0529 C99.8017,112.9009 99.8457,114.7539 101.0467,115.5779 C101.2857,115.7399 101.5767,115.8649 101.9097,115.9349 C103.5987,116.2499 105.8407,116.1179 107.7887,115.0369 C105.6667,116.6349 102.9757,116.8709 101.0287,116.5039 C100.6907,116.4349 100.4077,116.3129 100.1627,116.1479 C98.9617,115.3269 98.9197,113.4719 99.5037,111.6229 C99.6347,111.2479 99.7937,110.8749 99.9837,110.4979 C100.5437,109.3679 101.3447,108.2429 102.2587,107.2829 C102.5927,106.9519 102.9417,106.6389 103.3087,106.3469 C103.8257,105.9309 104.3767,105.5559 104.9377,105.2229 C104.6807,105.3989 104.4337,105.5789 104.1917,105.7769" id="Fill-590" fill="#B29E47"></path>
                <path d="M109.2947,113.5417 C109.2387,113.6147 109.1897,113.6837 109.1337,113.7457 C111.0107,111.1867 112.8297,108.0297 111.4607,106.0067 C111.2537,105.7857 111.0127,105.5957 110.7227,105.4327 C109.7647,104.9267 108.5867,104.5277 107.2077,104.8107 C106.8957,104.8667 106.5747,104.9527 106.2477,105.0737 C104.9987,105.5927 103.7727,106.3027 102.6707,107.1837 C102.3037,107.4777 101.9547,107.7907 101.6197,108.1227 C101.3947,108.3557 101.1707,108.6067 100.9617,108.8597 C101.3537,108.3047 101.7877,107.7707 102.2587,107.2827 C102.5927,106.9527 102.9417,106.6387 103.3087,106.3477 C104.4077,105.4667 105.6387,104.7557 106.8887,104.2367 C107.2157,104.1147 107.5357,104.0277 107.8477,103.9717 C109.2277,103.6887 110.4057,104.0887 111.3617,104.5907 C111.6527,104.7577 111.8947,104.9497 112.0977,105.1627 C113.5807,107.3597 111.3207,110.8897 109.2947,113.5417" id="Fill-592" fill="#FFF0A3"></path>
                <path d="M108.9793,108.3811 C108.6843,108.0541 108.1783,108.0281 107.8533,108.3281 C107.5273,108.6231 107.5023,109.1261 107.7973,109.4551 C108.0953,109.7801 108.5973,109.8051 108.9243,109.5081 C109.2513,109.2111 109.2753,108.7091 108.9793,108.3811" id="Fill-594" fill="#B29E47"></path>
                <path d="M110.467,108.207 C110.333,108.065 110.108,108.054 109.965,108.185 C109.817,108.319 109.807,108.541 109.941,108.69 C110.071,108.831 110.3,108.84 110.442,108.707 C110.585,108.578 110.596,108.355 110.467,108.207" id="Fill-596" fill="#B29E47"></path>
                <path d="M107.0986,111.1653 C106.9696,111.0223 106.7476,111.0123 106.5996,111.1403 C106.4566,111.2763 106.4456,111.5003 106.5746,111.6443 C106.7086,111.7903 106.9336,111.7983 107.0786,111.6693 C107.2236,111.5363 107.2346,111.3133 107.0986,111.1653" id="Fill-598" fill="#B29E47"></path>
                <path d="M109.575,107.0431 C109.417,106.8721 109.153,106.8601 108.985,107.0141 C108.812,107.1711 108.798,107.4351 108.955,107.6031 C109.114,107.7761 109.374,107.7881 109.545,107.6311 C109.716,107.4781 109.727,107.2161 109.575,107.0431" id="Fill-600" fill="#B29E47"></path>
                <path d="M91.6467,84.3923 C91.8257,85.1053 92.1157,85.8613 92.6827,86.3583 C92.8117,86.4763 92.9467,86.5813 93.1007,86.6663 C93.6957,86.9803 94.3417,87.1783 94.9917,87.2333 C95.2117,87.2513 95.4287,87.2523 95.6447,87.2353 C96.2557,87.1603 96.8797,86.9443 97.4197,86.6133 C97.6027,86.5093 97.7717,86.3823 97.9267,86.2453 C98.6977,85.5543 99.2467,84.5613 99.0727,83.5713 C99.0387,83.3753 98.9797,83.1773 98.8817,82.9773 C98.2567,81.7763 97.0997,80.5233 95.7077,80.5723 C95.5047,80.5793 95.3007,80.6123 95.0917,80.6683 C93.5747,81.1123 91.7077,81.9043 91.5617,83.7473 C91.5667,83.9563 91.5937,84.1703 91.6467,84.3923" id="Fill-602" fill="#E3D17D"></path>
                <path d="M92.9771,86.2906 C93.1941,86.3056 93.4161,86.3076 93.6321,86.2876 C94.2421,86.2196 94.8671,85.9996 95.4051,85.6696 C95.5831,85.5626 95.7591,85.4376 95.9111,85.3056 C96.6781,84.6096 97.2321,83.6166 97.0581,82.6316 C97.0231,82.4296 96.9641,82.2316 96.8701,82.0366 C96.6031,81.5226 96.2371,80.9986 95.7961,80.5756 C97.1501,80.5826 98.2711,81.7986 98.8811,82.9776 C98.9801,83.1766 99.0391,83.3746 99.0721,83.5716 C99.2461,84.5606 98.6981,85.5546 97.9271,86.2456 C97.7711,86.3826 97.6031,86.5086 97.4191,86.6136 C96.8801,86.9436 96.2561,87.1596 95.6441,87.2356 C95.4291,87.2526 95.2121,87.2516 94.9921,87.2336 C94.3421,87.1786 93.6961,86.9806 93.1011,86.6666 C92.9471,86.5816 92.8121,86.4766 92.6831,86.3586 C92.6361,86.3196 92.5981,86.2786 92.5601,86.2366 C92.6961,86.2616 92.8401,86.2806 92.9771,86.2906" id="Fill-604" fill="#C9B866"></path>
                <path d="M94.5116,87.1238 C94.7256,87.1398 94.9456,87.1408 95.1646,87.1258 C95.7756,87.0488 96.4016,86.8288 96.9396,86.5048 C97.1176,86.3918 97.2866,86.2678 97.4466,86.1358 C98.2136,85.4408 98.7626,84.4468 98.5926,83.4608 C98.5566,83.2608 98.4936,83.0618 98.4016,82.8668 C97.9046,81.9168 97.0806,80.9378 96.0686,80.5948 C97.2986,80.7478 98.3126,81.8828 98.8816,82.9778 C98.9806,83.1768 99.0386,83.3748 99.0726,83.5708 C99.2466,84.5608 98.6976,85.5548 97.9266,86.2458 C97.7716,86.3828 97.6026,86.5088 97.4196,86.6138 C96.8796,86.9438 96.2556,87.1598 95.6446,87.2358 C95.4286,87.2518 95.2116,87.2518 94.9916,87.2338 C94.6886,87.2078 94.3816,87.1508 94.0856,87.0648 C94.2246,87.0918 94.3656,87.1098 94.5116,87.1238" id="Fill-606" fill="#B29E47"></path>
                <path d="M95.0913,80.6685 C95.1313,80.6615 95.1703,80.6515 95.2053,80.6445 C93.7713,81.1015 92.1773,81.9075 92.0373,83.6095 C92.0423,83.8185 92.0693,84.0275 92.1233,84.2495 C92.3043,84.9605 92.5903,85.7185 93.1613,86.2195 C93.2883,86.3325 93.4303,86.4385 93.5773,86.5275 C94.1723,86.8395 94.8203,87.0405 95.4743,87.0945 C95.6883,87.1135 95.9053,87.1145 96.1223,87.0955 C96.2753,87.0775 96.4303,87.0505 96.5803,87.0135 C96.2733,87.1235 95.9583,87.1965 95.6443,87.2355 C95.4283,87.2525 95.2123,87.2515 94.9913,87.2335 C94.3423,87.1785 93.6963,86.9805 93.1013,86.6665 C92.9473,86.5815 92.8113,86.4765 92.6833,86.3585 C92.1153,85.8615 91.8253,85.1055 91.6463,84.3925 C91.5933,84.1705 91.5663,83.9565 91.5623,83.7475 C91.7073,81.9045 93.5753,81.1125 95.0913,80.6685" id="Fill-608" fill="#FFF0A3"></path>
                <path d="M30.5436,97.0049 C30.7536,97.8349 31.0936,98.7249 31.7636,99.3069 C31.9066,99.4459 32.0736,99.5679 32.2466,99.6709 C32.9466,100.0349 33.7006,100.2719 34.4686,100.3339 C34.7216,100.3559 34.9776,100.3589 35.2296,100.3369 C35.9486,100.2479 36.6756,99.9949 37.3096,99.6099 C37.5176,99.4819 37.7196,99.3389 37.9056,99.1799 C38.8046,98.3639 39.4476,97.2049 39.2446,96.0459 C39.2056,95.8139 39.1336,95.5819 39.0226,95.3489 C38.2856,93.9379 36.9306,92.4709 35.2966,92.5279 C35.0636,92.5359 34.8276,92.5739 34.5786,92.6479 C32.8016,93.1669 30.6156,94.0929 30.4416,96.2529 C30.4496,96.4949 30.4816,96.7449 30.5436,97.0049" id="Fill-610" fill="#E3D17D"></path>
                <path d="M32.1064,99.2322 C32.3614,99.2522 32.6164,99.2522 32.8694,99.2322 C33.5874,99.1452 34.3144,98.8922 34.9474,98.5052 C35.1554,98.3742 35.3554,98.2322 35.5444,98.0712 C36.4434,97.2612 37.0854,96.1002 36.8854,94.9412 C36.8434,94.7092 36.7714,94.4782 36.6604,94.2432 C36.3484,93.6422 35.9174,93.0312 35.4074,92.5312 C36.9914,92.5402 38.3014,93.9712 39.0224,95.3482 C39.1334,95.5822 39.2054,95.8142 39.2444,96.0452 C39.4474,97.2052 38.8044,98.3642 37.9064,99.1802 C37.7194,99.3392 37.5174,99.4822 37.3094,99.6092 C36.6754,99.9942 35.9494,100.2482 35.2294,100.3372 C34.9774,100.3582 34.7214,100.3562 34.4684,100.3332 C33.7004,100.2712 32.9464,100.0352 32.2474,99.6712 C32.0734,99.5682 31.9064,99.4462 31.7634,99.3072 C31.7084,99.2652 31.6594,99.2142 31.6104,99.1632 C31.7774,99.1922 31.9374,99.2172 32.1064,99.2322" id="Fill-612" fill="#C9B866"></path>
                <path d="M33.9008,100.1992 C34.1558,100.2212 34.4138,100.2232 34.6638,100.2042 C35.3798,100.1132 36.1108,99.8602 36.7448,99.4802 C36.9528,99.3482 37.1508,99.2032 37.3418,99.0462 C38.2408,98.2332 38.8788,97.0732 38.6818,95.9152 C38.6398,95.6802 38.5648,95.4472 38.4578,95.2182 C37.8808,94.1042 36.9098,92.9612 35.7288,92.5532 C37.1648,92.7342 38.3518,94.0662 39.0228,95.3482 C39.1338,95.5822 39.2058,95.8142 39.2448,96.0452 C39.4478,97.2052 38.8048,98.3642 37.9058,99.1802 C37.7198,99.3392 37.5178,99.4822 37.3098,99.6092 C36.6758,99.9942 35.9488,100.2482 35.2288,100.3372 C34.9778,100.3582 34.7208,100.3562 34.4688,100.3332 C34.1068,100.3062 33.7478,100.2352 33.3948,100.1332 C33.5668,100.1612 33.7308,100.1852 33.9008,100.1992" id="Fill-614" fill="#B29E47"></path>
                <path d="M34.5787,92.6483 C34.6267,92.6333 34.6727,92.6233 34.7147,92.6123 C33.0337,93.1533 31.1657,94.0973 31.0027,96.0853 C31.0097,96.3323 31.0407,96.5823 31.1037,96.8413 C31.3137,97.6723 31.6547,98.5623 32.3217,99.1453 C32.4657,99.2773 32.6327,99.4023 32.8077,99.5073 C33.5057,99.8683 34.2597,100.1113 35.0267,100.1663 C35.2817,100.1893 35.5357,100.1913 35.7897,100.1713 C35.9687,100.1483 36.1477,100.1133 36.3217,100.0783 C35.9667,100.2023 35.5987,100.2923 35.2287,100.3373 C34.9777,100.3583 34.7217,100.3563 34.4687,100.3333 C33.7007,100.2713 32.9467,100.0353 32.2467,99.6703 C32.0737,99.5673 31.9067,99.4463 31.7637,99.3073 C31.0937,98.7253 30.7537,97.8353 30.5437,97.0053 C30.4817,96.7453 30.4497,96.4953 30.4417,96.2523 C30.6157,94.0933 32.8017,93.1663 34.5787,92.6483" id="Fill-616" fill="#FFF0A3"></path>
                <path d="M127.5276,108.1185 C127.5276,139.8585 101.7966,165.5895 70.0566,165.5895 C38.3166,165.5895 12.5856,139.8585 12.5856,108.1185 C12.5856,76.3785 38.3166,50.6475 70.0566,50.6475 C101.7966,50.6475 127.5276,76.3785 127.5276,108.1185" id="Fill-618" fill="#FFFFFF" opacity="0.318219866"></path>
                <path d="M51.262,146.1903 C51.262,160.3463 39.787,171.8213 25.631,171.8213 C11.475,171.8213 -2.84217094e-14,160.3463 -2.84217094e-14,146.1903 C-2.84217094e-14,132.0343 11.475,120.5593 25.631,120.5593 C39.787,120.5593 51.262,132.0343 51.262,146.1903" id="Fill-620" fill="#9F86D1" opacity="0.334728423"></path>
                <path d="M134.2969,108.4474 C134.2969,142.9134 106.3569,170.8534 71.8909,170.8534 C37.4259,170.8534 9.4859,142.9134 9.4859,108.4474 C9.4859,73.9814 37.4259,46.0414 71.8909,46.0414 C106.3569,46.0414 134.2969,73.9814 134.2969,108.4474" id="Fill-622" fill="#9F86D1" opacity="0.529808408"></path>
                <g id="Group-640" transform="translate(23.511000, 59.391000)">
                    <g id="Group-627">
                        <mask id="mask-2" fill="white">
                            <use xlink:href="#path-1"></use>
                        </mask>
                        <g id="Clip-626"></g>
                        <path d="M96.559,48.319 C96.559,74.927 74.989,96.498 48.38,96.498 C21.772,96.498 0.201,74.927 0.201,48.319 C0.201,21.711 21.772,0.14 48.38,0.14 C74.989,0.14 96.559,21.711 96.559,48.319" id="Fill-625" fill="#E23365" mask="url(#mask-2)"></path>
                    </g>
                    <g id="Group-630">
                        <mask id="mask-4" fill="white">
                            <use xlink:href="#path-3"></use>
                        </mask>
                        <g id="Clip-629"></g>
                        <path d="M-22.0427,58.053 C-15.5657,48.45 -3.8117,42.59 7.7173,42.413 C19.6243,42.23 30.1373,48.902 41.7833,50.349 C53.3143,51.783 63.1023,46.542 72.1563,39.971 C82.1933,32.687 92.8583,23.612 106.1083,26.729 C110.5283,27.769 112.2713,21.36 107.9773,19.949 C95.7673,15.935 83.4663,22.986 73.9503,30.058 C68.7103,33.952 63.5703,38.191 57.6673,41.065 C50.5433,44.532 43.4593,44.556 35.8993,42.55 C23.9443,39.377 13.0873,34.516 0.4973,37.296 C-10.5117,39.727 -19.4397,46.67 -25.6047,55.971 C-27.0777,58.194 -23.5187,60.241 -22.0427,58.053" id="Fill-628" fill="#B13558" opacity="0.609514509" mask="url(#mask-4)"></path>
                    </g>
                    <g id="Group-633">
                        <mask id="mask-6" fill="white">
                            <use xlink:href="#path-5"></use>
                        </mask>
                        <g id="Clip-632"></g>
                        <path d="M102.3992,48.5753 C95.7422,57.8703 86.5632,64.5863 75.7912,68.3843 C64.5832,72.3363 52.8142,71.8013 41.1902,73.3003 C31.3652,74.5673 21.2332,77.2123 13.7462,84.0743 C7.0872,90.1793 3.0772,99.6313 5.4442,108.5823 C6.4212,112.2773 11.6242,110.6493 11.0492,107.0373 C9.2062,95.4693 17.6812,86.3433 27.9232,82.4703 C38.2322,78.5713 49.5252,78.6433 60.3242,77.2253 C78.8552,74.7923 94.4362,65.6703 104.9492,50.0653 C106.0222,48.4733 103.4902,47.0513 102.3992,48.5753" id="Fill-631" fill="#B13558" mask="url(#mask-6)"></path>
                    </g>
                    <g id="Group-636">
                        <mask id="mask-8" fill="white">
                            <use xlink:href="#path-7"></use>
                        </mask>
                        <g id="Clip-635"></g>
                        <path d="M73.7439,9.0034 C75.8619,7.2004 73.1209,3.7324 70.7899,5.1754 C53.6409,15.7914 32.5179,19.8094 14.0769,9.6274 C12.4659,8.7374 11.0259,11.1944 12.6339,12.0964 C31.2969,22.5684 56.7579,23.4614 73.7439,9.0034 Z" id="Fill-634" fill="#B13558" mask="url(#mask-8)"></path>
                    </g>
                    <g id="Group-639">
                        <mask id="mask-10" fill="white">
                            <use xlink:href="#path-9"></use>
                        </mask>
                        <g id="Clip-638"></g>
                        <path d="M65.9512,94.9577 C73.7612,93.6507 81.3482,94.2287 89.1842,93.9027 C91.7292,93.7967 92.4192,90.0187 89.8012,89.3447 C74.1092,85.3067 55.3422,91.0067 41.5432,98.4327 C39.0292,99.7857 41.2442,103.4887 43.7672,102.2377 C50.7832,98.7597 58.2182,96.2517 65.9512,94.9577 Z" id="Fill-637" fill="#B13558" mask="url(#mask-10)"></path>
                    </g>
                </g>
                <g id="Group-659" transform="translate(7.511000, 128.391000)">
                    <g id="Group-643">
                        <mask id="mask-12" fill="white">
                            <use xlink:href="#path-11"></use>
                        </mask>
                        <g id="Clip-642"></g>
                        <path d="M35.7618,18.3419 C35.7618,28.0849 27.8638,35.9839 18.1198,35.9839 C8.3768,35.9839 0.4778,28.0849 0.4778,18.3419 C0.4778,8.5989 8.3768,0.6999 18.1198,0.6999 C27.8638,0.6999 35.7618,8.5989 35.7618,18.3419" id="Fill-641" fill="#32D0DE" mask="url(#mask-12)"></path>
                    </g>
                    <g id="Group-646">
                        <mask id="mask-14" fill="white">
                            <use xlink:href="#path-13"></use>
                        </mask>
                        <g id="Clip-645"></g>
                        <path d="M-5.0089,16.7788 C2.9441,15.1998 10.8391,13.2828 18.5441,10.7468 C25.5841,8.4288 33.3071,6.0938 39.7001,2.2798 C40.9451,1.5378 40.1391,-0.5922 38.6891,-0.1192 C31.3121,2.2908 24.3101,5.9048 16.9331,8.4168 C9.5431,10.9338 2.0821,13.1408 -5.5139,14.9478 C-6.7099,15.2328 -6.1979,17.0148 -5.0089,16.7788" id="Fill-644" fill="#56DEEA" mask="url(#mask-14)"></path>
                    </g>
                    <g id="Group-649">
                        <mask id="mask-16" fill="white">
                            <use xlink:href="#path-15"></use>
                        </mask>
                        <g id="Clip-648"></g>
                        <path d="M-2.9924,25.8528 C4.7016,24.6008 12.2116,23.0248 19.6996,20.8268 C26.3816,18.8648 34.1756,17.0918 40.0706,13.2928 C41.3276,12.4818 40.5066,10.6598 39.0766,10.9368 C31.9336,12.3188 24.9466,15.8898 17.9676,18.0398 C10.8866,20.2218 3.6906,22.2308 -3.5154,23.9548 C-4.7704,24.2548 -4.2174,26.0518 -2.9924,25.8528" id="Fill-647" fill="#56DEEA" mask="url(#mask-16)"></path>
                    </g>
                    <g id="Group-652">
                        <mask id="mask-18" fill="white">
                            <use xlink:href="#path-17"></use>
                        </mask>
                        <g id="Clip-651"></g>
                        <path d="M6.9001,34.0915 C13.1511,31.5325 19.4031,28.9725 25.6541,26.4135 C31.3371,24.0865 37.4671,22.1115 42.7841,19.0215 C43.8281,18.4155 43.1361,16.7515 41.9631,17.0725 C36.0521,18.6885 30.3111,21.6845 24.6781,24.0975 C18.4691,26.7575 12.2601,29.4185 6.0511,32.0785 C4.9181,32.5635 5.7421,34.5655 6.9001,34.0915" id="Fill-650" fill="#56DEEA" mask="url(#mask-18)"></path>
                    </g>
                    <g id="Group-655">
                        <mask id="mask-20" fill="white">
                            <use xlink:href="#path-19"></use>
                        </mask>
                        <g id="Clip-654"></g>
                        <path d="M14.1969,36.8086 C23.4159,33.5406 33.5319,30.9966 42.2229,26.4986 C43.4029,25.8886 42.5659,24.1386 41.3469,24.4216 C31.9459,26.6026 22.6189,31.2176 13.6049,34.6616 C12.2879,35.1646 12.8319,37.2926 14.1969,36.8086" id="Fill-653" fill="#56DEEA" mask="url(#mask-20)"></path>
                    </g>
                    <g id="Group-658">
                        <mask id="mask-22" fill="white">
                            <use xlink:href="#path-21"></use>
                        </mask>
                        <g id="Clip-657"></g>
                        <path d="M2.3007,4.4356 C11.3177,2.9906 20.6147,2.0536 29.5057,-0.0134 C30.9637,-0.3534 30.6857,-2.8734 29.1437,-2.6844 C19.9807,-1.5564 10.8357,0.7556 1.7707,2.5146 C0.5007,2.7606 1.0557,4.6356 2.3007,4.4356" id="Fill-656" fill="#56DEEA" mask="url(#mask-22)"></path>
                    </g>
                </g>
            </g>
        </g>
    </g>
</svg>