<?xml version="1.0" encoding="UTF-8"?>
<svg width="107px" height="107px" viewBox="0 0 107 107" version="1.1" xmlns="http://www.w3.org/2000/svg" xmlns:xlink="http://www.w3.org/1999/xlink">
    <!-- Generator: Sketch 53.1 (72631) - https://sketchapp.com -->
    <title>Group 37playground_invite_button</title>
    <desc>Created with Sketch.</desc>
    <g id="Page-1" stroke="none" stroke-width="1" fill="none" fill-rule="evenodd">
        <g id="Group-37" transform="translate(1.000000, 1.000000)">
            <path d="M104.1689,52.3028 C104.1689,80.8788 81.0039,104.0438 52.4279,104.0438 C23.8529,104.0438 0.6869,80.8788 0.6869,52.3028 C0.6869,23.7268 23.8529,0.5618 52.4279,0.5618 C81.0039,0.5618 104.1689,23.7268 104.1689,52.3028" id="Fill-2" fill="#006838"></path>
            <path d="M104.1689,52.3028 C104.1689,80.8788 81.0039,104.0438 52.4279,104.0438 C23.8529,104.0438 0.6869,80.8788 0.6869,52.3028 C0.6869,23.7268 23.8529,0.5618 52.4279,0.5618 C81.0039,0.5618 104.1689,23.7268 104.1689,52.3028 Z" id="Stroke-4" stroke="#FFFFFF" stroke-width="3"></path>
            <path d="M81.7676,44.6675 C78.3816,43.5845 74.1546,44.9435 70.7696,46.8405 C69.4756,47.5665 68.5786,48.8375 68.3126,50.2975 L67.9886,52.0765 C67.8276,52.9675 67.9076,53.8865 68.2276,54.7325 C70.1406,59.7795 74.1186,60.9585 76.9776,61.2145 C77.7386,65.3005 80.4786,66.5575 82.8636,66.8325 C84.8826,71.9725 88.5996,74.7095 90.0066,71.8045 C94.5846,62.3565 86.6016,46.2125 81.7676,44.6675" id="Fill-6" fill="#F5EEF3"></path>
            <path d="M84.0049,64.107 C81.6199,63.832 78.8799,62.576 78.1199,58.49 C75.2599,58.233 71.2819,57.056 69.3699,52.008 C69.0489,51.162 68.9689,50.242 69.1299,49.352 L69.3739,48.01 C68.8379,48.662 68.4669,49.447 68.3129,50.297 L67.9879,52.076 C67.8269,52.967 67.9069,53.887 68.2279,54.733 C70.1409,59.78 74.1179,60.959 76.9779,61.215 C77.7379,65.3 80.4789,66.557 82.8629,66.832 C84.8819,71.973 88.5989,74.71 90.0059,71.805 C90.3459,71.105 90.6139,70.367 90.8219,69.602 C89.2329,71.59 85.8849,68.891 84.0049,64.107" id="Fill-8" fill="#BED0E9"></path>
            <path d="M15.9082,38.8145 C14.6912,41.8045 19.2122,42.7345 24.3842,40.7945 C26.1832,42.3835 28.9512,43.5785 32.4962,41.4105 C34.6002,43.3635 38.1372,45.5315 43.1682,43.5755 C44.0122,43.2475 44.7492,42.6915 45.3022,41.9765 L46.4072,40.5445 C47.3142,39.3705 47.6582,37.8535 47.3322,36.4055 C46.4762,32.6215 44.6582,28.5705 41.5892,26.7785 C37.2062,24.2195 19.8662,29.0895 15.9082,38.8145" id="Fill-10" fill="#F5EEF3"></path>
            <path d="M45.832,41.1363 C40.802,43.0923 37.265,40.9243 35.16,38.9703 C31.616,41.1393 28.849,39.9443 27.048,38.3553 C21.877,40.2953 17.355,39.3643 18.572,36.3743 C19.175,34.8953 20.088,33.5293 21.217,32.2843 C18.855,34.1063 16.934,36.2973 15.908,38.8143 C14.691,41.8043 19.212,42.7353 24.384,40.7953 C26.184,42.3833 28.951,43.5783 32.496,41.4103 C34.601,43.3643 38.138,45.5313 43.168,43.5753 C44.012,43.2473 44.749,42.6923 45.302,41.9763 L46.01,41.0603 C45.95,41.0853 45.893,41.1123 45.832,41.1363" id="Fill-12" fill="#BED0E9"></path>
            <path d="M40.8994,37.4376 C36.3254,43.4616 33.3304,50.1886 31.9144,57.6186 C31.7284,58.5906 32.1704,59.5786 33.0184,60.0876 C42.3894,65.7116 52.2984,70.1236 62.7484,73.3236 C63.6954,73.6136 64.7234,73.2816 65.3224,72.4936 C69.8964,66.4696 72.8914,59.7426 74.3074,52.3126 C74.4934,51.3396 74.0514,50.3526 73.2024,49.8436 C63.8324,44.2196 53.9214,39.8076 43.4724,36.6066 C42.5264,36.3166 41.4984,36.6496 40.8994,37.4376" id="Fill-14" fill="#F8B033"></path>
            <path d="M73.2021,49.8433 C68.2211,46.8533 63.0851,44.2093 57.7981,41.9043 C61.9591,43.8003 66.0041,45.9583 69.9291,48.3853 C70.6871,48.8553 71.0561,49.8093 70.8491,50.7733 C69.2751,58.1333 66.2811,64.8593 61.8641,70.9533 C61.2871,71.7513 60.3311,72.1163 59.4741,71.8663 C55.0451,70.5733 50.7341,69.0123 46.5401,67.1883 C51.7911,69.5743 57.1921,71.6223 62.7481,73.3233 C63.6951,73.6143 64.7231,73.2813 65.3221,72.4933 C69.8951,66.4693 72.8901,59.7423 74.3071,52.3123 C74.4931,51.3403 74.0521,50.3523 73.2021,49.8433" id="Fill-16" fill="#A87838"></path>
            <path d="M74.1211,53.2339 C74.0251,53.1449 73.9221,53.0609 73.8101,52.9869 C64.6811,46.9809 54.9611,42.1619 44.6541,38.5309 C44.2291,38.3819 43.7831,38.3619 43.3631,38.4539 L52.4961,55.3699 C53.1111,56.5099 54.3801,57.1399 55.6601,56.9389 L73.9361,54.0799 C74.0001,53.7979 74.0621,53.5169 74.1211,53.2339" id="Fill-18" fill="#A87838"></path>
            <path d="M55.2324,54.543 L74.0854,50.788 C73.8884,50.405 73.5874,50.075 73.2024,49.843 C63.8324,44.219 53.9214,39.808 43.4724,36.607 C43.0434,36.475 42.5954,36.473 42.1804,36.583 L52.0044,53.106 C52.6684,54.22 53.9614,54.796 55.2324,54.543" id="Fill-20" fill="#F8B033"></path>
            <path d="M64.5703,73.1377 L61.2423,65.8557 C60.9803,65.2827 60.3023,65.0297 59.7293,65.2917 C59.1553,65.5537 58.9033,66.2317 59.1653,66.8047 L62.0433,73.1017 C62.2783,73.1757 62.5123,73.2517 62.7483,73.3237 C63.3693,73.5137 64.0233,73.4357 64.5703,73.1377" id="Fill-22" fill="#A87838"></path>
            <path d="M63.0215,73.3882 C63.0755,73.3982 63.1295,73.4062 63.1835,73.4112 C63.2035,73.4142 63.2215,73.4162 63.2415,73.4182 C63.3875,73.4302 63.5355,73.4292 63.6795,73.4142 C63.6875,73.4132 63.6945,73.4122 63.7015,73.4112 C63.7695,73.4042 63.8375,73.3932 63.9045,73.3792 C63.9125,73.3772 63.9195,73.3762 63.9265,73.3752 C64.1515,73.3262 64.3685,73.2472 64.5705,73.1382 L62.8965,69.4742 C62.5605,69.9712 62.2185,70.4652 61.8645,70.9532 C61.7065,71.1722 61.5185,71.3562 61.3135,71.5072 L62.0425,73.1012 C62.2785,73.1752 62.5125,73.2522 62.7485,73.3242 C62.8185,73.3452 62.8895,73.3632 62.9605,73.3772 C62.9815,73.3822 63.0005,73.3852 63.0215,73.3882" id="Fill-24" fill="#A87838"></path>
            <path d="M41.0088,56.9566 C40.8198,56.3546 40.1778,56.0206 39.5768,56.2086 L31.9388,58.6086 C32.0828,59.2136 32.4618,59.7536 33.0188,60.0876 C33.2298,60.2146 33.4438,60.3376 33.6548,60.4636 L40.2608,58.3886 C40.8628,58.1996 41.1968,57.5586 41.0088,56.9566" id="Fill-26" fill="#A87838"></path>
            <path d="M60.7979,50.3282 C59.2969,49.1242 56.9069,49.0212 55.3809,50.2032 C55.2819,50.2792 55.1409,50.2162 55.1309,50.0922 C54.9879,48.1662 53.3129,46.4592 51.4129,46.1502 C48.1449,45.6182 45.6019,48.8672 45.7619,51.9032 C45.9369,55.2202 49.2709,60.6582 49.9249,61.6962 C49.9919,61.8032 50.1159,61.8582 50.2399,61.8362 C51.4499,61.6282 57.7219,60.4682 60.3039,58.3782 C62.6679,56.4652 63.3809,52.4022 60.7979,50.3282" id="Fill-28" fill="#FFF8DC"></path>
            <path d="M27.5313,52.6358 L22.3843,52.6358 C21.7523,52.6358 21.2413,52.1238 21.2413,51.4938 C21.2413,50.8628 21.7533,50.3518 22.3843,50.3518 L27.5313,50.3518 C28.1613,50.3518 28.6733,50.8628 28.6733,51.4938 C28.6733,52.1238 28.1613,52.6358 27.5313,52.6358" id="Fill-30" fill="#BED0E9"></path>
            <path d="M27.5313,60.879 L19.5483,60.879 C18.9183,60.879 18.4073,60.368 18.4073,59.737 C18.4073,59.107 18.9183,58.596 19.5483,58.596 L27.5313,58.596 C28.1613,58.596 28.6733,59.107 28.6733,59.737 C28.6733,60.368 28.1613,60.879 27.5313,60.879" id="Fill-32" fill="#BED0E9"></path>
            <path d="M27.5313,69.1226 L17.1443,69.1226 C16.5133,69.1226 16.0033,68.6116 16.0033,67.9806 C16.0033,67.3506 16.5133,66.8386 17.1443,66.8386 L27.5313,66.8386 C28.1613,66.8386 28.6733,67.3506 28.6733,67.9806 C28.6733,68.6116 28.1613,69.1226 27.5313,69.1226" id="Fill-34" fill="#BED0E9"></path>
        </g>
    </g>
</svg>