<?xml version="1.0" encoding="UTF-8"?>
<svg width="80px" height="80px" viewBox="0 0 80 80" version="1.1" xmlns="http://www.w3.org/2000/svg" xmlns:xlink="http://www.w3.org/1999/xlink">
    <!-- Generator: Sketch 53.1 (72631) - https://sketchapp.com -->
    <title>Group 76Ball</title>
    <desc>Created with Sketch.</desc>
    <g id="Page-1" stroke="none" stroke-width="1" fill="none" fill-rule="evenodd">
        <g id="Desktop-HD" transform="translate(-688.000000, -3408.000000)">
            <g id="Group-76" transform="translate(688.670500, 3408.620300)">
                <path d="M79.26,39.622 C79.26,40.692 79.212,41.761 79.116,42.815 L79.116,42.831 C78.829,46.63 77.983,50.27 76.674,53.686 C76.147,55.107 75.54,56.496 74.822,57.821 C73.944,59.545 72.938,61.189 71.805,62.754 C71.023,63.855 70.193,64.893 69.299,65.899 C63.153,72.843 54.596,77.6 44.954,78.893 C43.214,79.132 41.426,79.26 39.622,79.26 C39.111,79.26 38.6,79.244 38.105,79.228 L38.089,79.228 C29.341,78.909 21.343,75.748 14.958,70.64 C13.665,69.618 12.451,68.517 11.318,67.351 C7.471,63.44 4.454,58.731 2.49,53.495 L2.49,53.479 C2.043,52.281 1.66,51.052 1.325,49.807 C1.006,48.594 0.734,47.349 0.543,46.087 C0.175,43.996 0,41.825 0,39.622 C0,37.212 0.207,34.849 0.638,32.566 C0.814,31.512 1.053,30.459 1.325,29.437 C5.811,12.484 21.248,1.13686838e-13 39.622,1.13686838e-13 C40.931,1.13686838e-13 42.208,0.064 43.485,0.191 C45.098,0.335 46.694,0.59 48.242,0.942 C61.828,3.943 72.779,13.92 77.185,26.931 C78.366,30.411 79.068,34.099 79.228,37.946 C79.244,38.505 79.26,39.063 79.26,39.622" id="Fill-451" fill="#E23365"></path>
                <path d="M76.6739,53.6861 C76.1469,55.1071 75.5409,56.4961 74.8219,57.8211 C72.9389,58.4431 70.8149,59.0181 68.4049,59.4811 C67.3509,59.6891 66.2339,59.8801 65.0679,60.0401 C63.5359,60.2631 61.9069,60.4391 60.1679,60.5661 C59.0339,60.6621 57.8689,60.7261 56.6549,60.7741 C55.9689,60.8061 55.2669,60.8221 54.5479,60.8381 C54.0369,60.8541 53.5269,60.8541 53.0159,60.8541 C52.3289,60.8541 51.6429,60.8381 50.9399,60.8221 C49.8549,60.8061 48.7529,60.7581 47.6679,60.6941 C29.9959,59.6561 11.8769,53.7981 1.3249,49.8071 L0.5429,46.0871 C10.4719,49.9191 29.3569,56.3201 47.3809,57.4851 C48.5299,57.5491 49.6629,57.6131 50.7969,57.6291 C52.0259,57.6611 53.2549,57.6771 54.4839,57.6451 C55.6819,57.6291 56.8469,57.5811 57.9639,57.5171 C59.1459,57.4541 60.2789,57.3741 61.3649,57.2621 C62.9769,57.1181 64.4779,56.9111 65.8979,56.6871 L65.9139,56.6871 C67.2709,56.4641 68.5319,56.2081 69.7139,55.9371 C72.4599,55.2981 74.7579,54.5161 76.6739,53.6861" id="Fill-453" fill="#53ACD3"></path>
                <path d="M63.2961,43.0543 C63.4081,48.4183 62.6581,53.1433 61.3651,57.2623 C61.0131,58.4113 60.5981,59.5133 60.1671,60.5663 C56.4001,69.6343 49.9661,75.4773 44.9541,78.8933 C43.2141,79.1323 41.4261,79.2603 39.6221,79.2603 C39.1111,79.2603 38.6001,79.2443 38.1051,79.2283 C41.7771,77.5203 51.4351,72.1403 56.6551,60.7743 C57.1341,59.7363 57.5651,58.6503 57.9641,57.5173 C59.3851,53.4143 60.2151,48.6413 60.1031,43.1183 C59.6561,21.8383 48.7851,6.4333 43.4851,0.1913 C45.0971,0.3353 46.6941,0.5903 48.2421,0.9413 C54.1811,8.6843 62.8811,23.3393 63.2961,43.0543" id="Fill-455" fill="#53ACD3"></path>
                <path d="M51.052,59.082 C51.084,59.673 51.052,60.263 50.94,60.822 C50.685,62.195 49.967,63.44 48.833,64.558 C43.645,69.602 29.389,70.672 18.199,70.672 C17.081,70.672 15.995,70.656 14.958,70.64 C13.665,69.618 12.451,68.517 11.318,67.351 C23.387,67.782 41.442,67.287 46.598,62.259 C47.125,61.764 47.476,61.253 47.668,60.694 C47.843,60.247 47.907,59.784 47.875,59.274 C47.843,58.699 47.668,58.108 47.38,57.486 C43.629,49.456 19.14,38.824 0.638,32.566 L1.325,29.437 C14.686,33.939 47.556,46.103 50.797,57.629 C50.94,58.124 51.02,58.603 51.052,59.082" id="Fill-457" fill="#53ACD3"></path>
                <path d="M79.26,39.622 C79.26,40.692 79.212,41.761 79.116,42.815 L79.116,42.831 C75.7,46.71 71.805,51.627 69.714,55.937 C69.267,56.847 68.9,57.725 68.644,58.571 C68.548,58.89 68.453,59.194 68.405,59.481 C68.085,60.838 68.181,61.812 68.66,62.275 C69.235,62.833 70.496,62.913 71.805,62.754 C71.023,63.855 70.193,64.893 69.299,65.899 C68.245,65.723 67.223,65.324 66.441,64.574 C65.324,63.504 64.877,61.987 65.068,60.04 C65.148,59.305 65.324,58.491 65.579,57.629 C65.675,57.326 65.787,57.007 65.898,56.687 L65.914,56.687 C68.229,50.398 74.822,42.671 79.228,37.946 C79.244,38.505 79.26,39.063 79.26,39.622" id="Fill-459" fill="#55C9F2"></path>
                <path d="M60.9896,19.6651 C60.5166,20.6881 60.9516,21.9031 61.9646,22.3551 C62.9676,22.8471 64.1746,22.4001 64.6596,21.3971 C65.1286,20.3881 64.6976,19.1901 63.6796,18.7011 C62.6756,18.2181 61.4696,18.6611 60.9896,19.6651" id="Fill-464" fill="#BA2A5A"></path>
                <path d="M59.1492,16.3683 C58.9342,16.8233 59.1312,17.3433 59.5932,17.5593 C60.0352,17.7763 60.5702,17.5773 60.7862,17.1173 C60.9852,16.6913 60.8042,16.1423 60.3442,15.9243 C59.8962,15.7093 59.3672,15.9063 59.1492,16.3683" id="Fill-466" fill="#BA2A5A"></path>
                <path d="M69.3346,21.3601 C69.1276,21.8221 69.3116,22.3341 69.7706,22.5531 C70.2156,22.7741 70.7456,22.5721 70.9656,22.1091 C71.1796,21.6851 70.9816,21.1321 70.5376,20.9141 C70.0806,20.7081 69.5426,20.8981 69.3346,21.3601" id="Fill-468" fill="#BA2A5A"></path>
                <path d="M57.2917,19.5713 C57.0437,20.1093 57.2687,20.7243 57.7947,20.9763 C58.3307,21.2293 58.9517,21.0003 59.2027,20.4913 C59.4547,19.9493 59.2247,19.3353 58.6987,19.0853 C58.1777,18.8273 57.5457,19.0613 57.2917,19.5713" id="Fill-470" fill="#BA2A5A"></path>
                <path d="M8.9583,26.3778 C8.4833,27.3818 8.9163,28.5828 9.9333,29.0758 C10.9363,29.5578 12.1423,29.1138 12.6263,28.1098 C13.0963,27.1078 12.6653,25.8898 11.6493,25.4188 C10.6433,24.9298 9.4333,25.3758 8.9583,26.3778" id="Fill-472" fill="#BA2A5A"></path>
                <path d="M7.1163,23.086 C6.9033,23.514 7.0993,24.058 7.5583,24.277 C8.0013,24.492 8.5383,24.295 8.7553,23.83 C8.9553,23.375 8.7713,22.858 8.3113,22.64 C7.8653,22.424 7.3343,22.621 7.1163,23.086" id="Fill-474" fill="#BA2A5A"></path>
                <path d="M5.2596,26.2842 C5.0106,26.8252 5.2386,27.4402 5.7636,27.6902 C6.2966,27.9442 6.9206,27.7142 7.1706,27.2012 C7.4246,26.6652 7.1926,26.0162 6.6656,25.7932 C6.1446,25.5452 5.5126,25.7712 5.2596,26.2842" id="Fill-476" fill="#BA2A5A"></path>
                <path d="M19.5656,63.351 C19.5656,63.964 20.0536,64.468 20.6546,64.468 C21.2596,64.468 21.7466,63.964 21.7466,63.351 C21.7466,62.763 21.2596,62.258 20.6546,62.258 C20.0536,62.258 19.5656,62.763 19.5656,63.351" id="Fill-478" fill="#BA2A5A"></path>
                <path d="M17.8931,62.1531 C17.8931,62.4271 18.1211,62.6501 18.3811,62.6501 C18.6531,62.6501 18.8761,62.4271 18.8761,62.1531 C18.8761,61.9081 18.6531,61.6821 18.3811,61.6821 C18.1211,61.6821 17.8931,61.9081 17.8931,62.1531" id="Fill-480" fill="#BA2A5A"></path>
                <path d="M24.0407,62.2579 C24.0407,62.5339 24.2567,62.7569 24.5217,62.7569 C24.7927,62.7569 25.0027,62.5339 25.0027,62.2579 C25.0027,62.0109 24.7927,61.7879 24.5217,61.7879 C24.2567,61.7879 24.0407,62.0109 24.0407,62.2579" id="Fill-482" fill="#BA2A5A"></path>
                <path d="M17.7332,64.1726 C17.7332,64.5006 17.9812,64.7296 18.3012,64.7296 C18.6122,64.7296 18.8762,64.5006 18.8762,64.1726 C18.8762,63.8466 18.6122,63.5866 18.3012,63.5866 C17.9812,63.5866 17.7332,63.8466 17.7332,64.1726" id="Fill-484" fill="#BA2A5A"></path>
                <path d="M62.8048,57.7618 C62.8048,58.3458 63.2988,58.8468 63.8958,58.8468 C64.5078,58.8468 64.9958,58.3458 64.9958,57.7618 C64.9958,57.1438 64.5078,56.6738 63.8958,56.6738 C63.2988,56.6738 62.8048,57.1438 62.8048,57.7618" id="Fill-486" fill="#BA2A5A"></path>
                <path d="M61.1452,56.5672 C61.1452,56.8362 61.3562,57.0322 61.6282,57.0322 C61.9002,57.0322 62.1102,56.8362 62.1102,56.5672 C62.1102,56.2922 61.9002,56.0652 61.6282,56.0652 C61.3562,56.0652 61.1452,56.2922 61.1452,56.5672" id="Fill-488" fill="#BA2A5A"></path>
                <path d="M67.2752,56.6737 C67.2752,56.9187 67.5012,57.1407 67.7662,57.1407 C68.0302,57.1407 68.2582,56.9187 68.2582,56.6737 C68.2582,56.3977 68.0302,56.1697 67.7662,56.1697 C67.5012,56.1697 67.2752,56.3977 67.2752,56.6737" id="Fill-490" fill="#BA2A5A"></path>
                <path d="M60.9741,58.5561 C60.9741,58.8821 61.2341,59.1421 61.5441,59.1421 C61.8621,59.1421 62.1111,58.8821 62.1111,58.5561 C62.1111,58.2331 61.8621,58.0011 61.5441,58.0011 C61.2341,58.0011 60.9741,58.2331 60.9741,58.5561" id="Fill-492" fill="#BA2A5A"></path>
            </g>
        </g>
    </g>
</svg>