<?xml version="1.0" encoding="UTF-8"?>
<svg width="91px" height="91px" viewBox="0 0 91 91" version="1.1" xmlns="http://www.w3.org/2000/svg" xmlns:xlink="http://www.w3.org/1999/xlink">
    <!-- Generator: Sketch 53.1 (72631) - https://sketchapp.com -->
    <title>Group 591EarthBall</title>
    <desc>Created with Sketch.</desc>
    <defs>
        <path d="M0.005,45.337 C0.005,70.338 20.271,90.604 45.271,90.604 L45.271,90.604 C70.27,90.604 90.536,70.338 90.536,45.337 L90.536,45.337 C90.536,20.338 70.27,0.072 45.271,0.072 L45.271,0.072 C20.271,0.072 0.005,20.338 0.005,45.337" id="path-1"></path>
        <path d="M0.005,45.337 C0.005,70.338 20.271,90.604 45.271,90.604 L45.271,90.604 C70.27,90.604 90.536,70.338 90.536,45.337 L90.536,45.337 C90.536,20.338 70.27,0.072 45.271,0.072 L45.271,0.072 C20.271,0.072 0.005,20.338 0.005,45.337" id="path-3"></path>
        <path d="M0.005,45.337 C0.005,70.338 20.271,90.604 45.271,90.604 L45.271,90.604 C70.27,90.604 90.536,70.338 90.536,45.337 L90.536,45.337 C90.536,20.338 70.27,0.072 45.271,0.072 L45.271,0.072 C20.271,0.072 0.005,20.338 0.005,45.337" id="path-5"></path>
        <path d="M0.005,45.337 C0.005,70.338 20.271,90.604 45.271,90.604 L45.271,90.604 C70.27,90.604 90.536,70.338 90.536,45.337 L90.536,45.337 C90.536,20.338 70.27,0.072 45.271,0.072 L45.271,0.072 C20.271,0.072 0.005,20.338 0.005,45.337" id="path-7"></path>
        <path d="M0.005,45.337 C0.005,70.338 20.271,90.604 45.271,90.604 L45.271,90.604 C70.27,90.604 90.536,70.338 90.536,45.337 L90.536,45.337 C90.536,20.338 70.27,0.072 45.271,0.072 L45.271,0.072 C20.271,0.072 0.005,20.338 0.005,45.337" id="path-9"></path>
        <path d="M0.005,45.337 C0.005,70.338 20.271,90.604 45.271,90.604 L45.271,90.604 C70.27,90.604 90.536,70.338 90.536,45.337 L90.536,45.337 C90.536,20.338 70.27,0.072 45.271,0.072 L45.271,0.072 C20.271,0.072 0.005,20.338 0.005,45.337" id="path-11"></path>
        <path d="M0.005,45.337 C0.005,70.338 20.271,90.604 45.271,90.604 L45.271,90.604 C70.27,90.604 90.536,70.338 90.536,45.337 L90.536,45.337 C90.536,20.338 70.27,0.072 45.271,0.072 L45.271,0.072 C20.271,0.072 0.005,20.338 0.005,45.337" id="path-13"></path>
        <path d="M0.005,45.337 C0.005,70.338 20.271,90.604 45.271,90.604 L45.271,90.604 C70.27,90.604 90.536,70.338 90.536,45.337 L90.536,45.337 C90.536,20.338 70.27,0.072 45.271,0.072 L45.271,0.072 C20.271,0.072 0.005,20.338 0.005,45.337" id="path-15"></path>
        <path d="M0.005,45.337 C0.005,70.338 20.271,90.604 45.271,90.604 L45.271,90.604 C70.27,90.604 90.536,70.338 90.536,45.337 L90.536,45.337 C90.536,20.338 70.27,0.072 45.271,0.072 L45.271,0.072 C20.271,0.072 0.005,20.338 0.005,45.337" id="path-17"></path>
        <path d="M0.005,45.337 C0.005,70.338 20.271,90.604 45.271,90.604 L45.271,90.604 C70.27,90.604 90.536,70.338 90.536,45.337 L90.536,45.337 C90.536,20.338 70.27,0.072 45.271,0.072 L45.271,0.072 C20.271,0.072 0.005,20.338 0.005,45.337" id="path-19"></path>
        <path d="M0.005,45.337 C0.005,70.338 20.271,90.604 45.271,90.604 L45.271,90.604 C70.27,90.604 90.536,70.338 90.536,45.337 L90.536,45.337 C90.536,20.338 70.27,0.072 45.271,0.072 L45.271,0.072 C20.271,0.072 0.005,20.338 0.005,45.337" id="path-21"></path>
        <path d="M0.005,45.337 C0.005,70.338 20.271,90.604 45.271,90.604 L45.271,90.604 C70.27,90.604 90.536,70.338 90.536,45.337 L90.536,45.337 C90.536,20.338 70.27,0.072 45.271,0.072 L45.271,0.072 C20.271,0.072 0.005,20.338 0.005,45.337" id="path-23"></path>
        <path d="M0.005,45.337 C0.005,70.338 20.271,90.604 45.271,90.604 L45.271,90.604 C70.27,90.604 90.536,70.338 90.536,45.337 L90.536,45.337 C90.536,20.338 70.27,0.072 45.271,0.072 L45.271,0.072 C20.271,0.072 0.005,20.338 0.005,45.337" id="path-25"></path>
        <path d="M0.005,45.337 C0.005,70.338 20.271,90.604 45.271,90.604 L45.271,90.604 C70.27,90.604 90.536,70.338 90.536,45.337 L90.536,45.337 C90.536,20.338 70.27,0.072 45.271,0.072 L45.271,0.072 C20.271,0.072 0.005,20.338 0.005,45.337" id="path-27"></path>
        <path d="M0.005,45.337 C0.005,70.338 20.271,90.604 45.271,90.604 L45.271,90.604 C70.27,90.604 90.536,70.338 90.536,45.337 L90.536,45.337 C90.536,20.338 70.27,0.072 45.271,0.072 L45.271,0.072 C20.271,0.072 0.005,20.338 0.005,45.337" id="path-29"></path>
    </defs>
    <g id="Page-1" stroke="none" stroke-width="1" fill="none" fill-rule="evenodd">
        <g id="Desktop-HD" transform="translate(-724.000000, -3209.000000)">
            <g id="Group-591" transform="translate(724.000000, 3209.020000)">
                <g id="Group-590">
                    <g id="Group-547">
                        <mask id="mask-2" fill="white">
                            <use xlink:href="#path-1"></use>
                        </mask>
                        <g id="Clip-546"></g>
                        <path d="M90.5368,45.3376 C90.5368,70.3376 70.2708,90.6036 45.2708,90.6036 C20.2708,90.6036 0.0048,70.3376 0.0048,45.3376 C0.0048,20.3376 20.2708,0.0716 45.2708,0.0716 C70.2708,0.0716 90.5368,20.3376 90.5368,45.3376" id="Fill-545" fill="#595BD9" mask="url(#mask-2)"></path>
                    </g>
                    <g id="Group-550">
                        <mask id="mask-4" fill="white">
                            <use xlink:href="#path-3"></use>
                        </mask>
                        <g id="Clip-549"></g>
                        <path d="M39.6416,47.7124 C37.8016,48.8904 36.3166,50.7204 35.8626,52.8574 C35.4086,54.9944 36.1126,57.4154 37.8446,58.7464 C39.6856,60.1614 42.4796,60.0934 44.3196,58.6794 C46.1596,57.2644 46.9516,54.6674 46.3256,52.4324 C45.6996,50.1974 43.7476,48.4204 41.4876,47.8884" id="Fill-548" fill="#0069A2" mask="url(#mask-4)"></path>
                    </g>
                    <g id="Group-553">
                        <mask id="mask-6" fill="white">
                            <use xlink:href="#path-5"></use>
                        </mask>
                        <g id="Clip-552"></g>
                        <path d="M91.9978,80.3054 C97.7378,73.1574 79.9408,65.4054 70.8878,63.9594 C61.5248,62.4624 51.9928,67.7974 46.4738,75.5074 C40.9548,83.2174 38.8918,92.9034 38.3468,102.3704 C38.3468,102.3704 69.4908,108.3294 91.9978,80.3054" id="Fill-551" fill="#0069A2" opacity="0.329496838" mask="url(#mask-6)"></path>
                    </g>
                    <g id="Group-556">
                        <mask id="mask-8" fill="white">
                            <use xlink:href="#path-7"></use>
                        </mask>
                        <g id="Clip-555"></g>
                        <path d="M34.2721,88.5808 C39.3461,81.1938 40.7721,71.4218 38.0201,62.8928 C37.2921,60.6348 36.2211,58.3778 34.3481,56.9208 C32.4751,55.4648 29.6351,55.0438 27.7451,56.4768 C28.1041,52.9158 28.4631,49.3118 27.9531,45.7688 C27.4441,42.2258 25.9691,38.6928 23.2271,36.3928 C19.7201,33.4518 14.6541,32.9748 10.2031,34.0438 C5.7531,35.1118 1.7621,37.5268 -2.1469,39.9058 C-2.1469,39.9058 -11.8689,64.1508 7.5561,84.2558 C17.3981,94.4428 34.2721,88.5808 34.2721,88.5808" id="Fill-554" fill="#0069A2" opacity="0.310965402" mask="url(#mask-8)"></path>
                    </g>
                    <g id="Group-559">
                        <mask id="mask-10" fill="white">
                            <use xlink:href="#path-9"></use>
                        </mask>
                        <g id="Clip-558"></g>
                        <path d="M96.7932,51.0341 C85.7762,59.5211 70.3872,61.9771 57.2752,57.3391 C52.6982,55.7191 48.2792,53.1851 45.4172,49.2631 C42.5542,45.3411 41.5282,39.8491 43.7472,35.5291 C36.0152,33.1181 30.2862,25.3611 30.2552,17.2621 C30.2252,9.1631 35.8962,1.3631 43.6092,-1.1059 C43.6092,-1.1059 80.0472,-9.8899 90.5372,19.5511 C101.0262,48.9931 96.7932,51.0341 96.7932,51.0341" id="Fill-557" fill="#0069A2" opacity="0.273972284" mask="url(#mask-10)"></path>
                    </g>
                    <g id="Group-562">
                        <mask id="mask-12" fill="white">
                            <use xlink:href="#path-11"></use>
                        </mask>
                        <g id="Clip-561"></g>
                        <path d="M91.7405,45.7214 C91.5685,52.1944 80.1645,51.7874 73.7745,52.8364 C67.3845,53.8844 60.4355,52.9194 55.2655,49.0204 C52.9645,47.2844 50.9985,44.8444 50.6575,41.9824 C50.2295,38.3904 52.4925,34.9044 55.4645,32.8434 C58.4375,30.7814 62.0325,29.8634 65.5415,28.9844 C60.7515,30.1594 55.8835,31.3424 50.9555,31.1464 C46.0265,30.9494 40.9405,29.1854 37.8015,25.3804 C33.7565,20.4764 33.8775,12.8844 37.3775,7.5774 C40.8775,2.2704 47.2195,-0.7746 53.5645,-1.1566 C53.5645,-1.1566 92.9445,0.3224 91.7405,45.7214" id="Fill-560" fill="#00E586" mask="url(#mask-12)"></path>
                    </g>
                    <g id="Group-565">
                        <mask id="mask-14" fill="white">
                            <use xlink:href="#path-13"></use>
                        </mask>
                        <g id="Clip-564"></g>
                        <path d="M28.5107,88.6906 C32.4277,86.9516 34.3287,82.4816 35.1777,78.2806 C35.7437,75.4796 36.0017,72.5496 35.2877,69.7816 C34.5747,67.0146 32.7637,64.4206 30.1267,63.3186 C27.4897,62.2166 24.0477,62.9506 22.4987,65.3526 C24.3377,60.6916 26.2027,55.8976 26.2357,50.8876 C26.2677,45.8776 24.0557,40.5276 19.5867,38.2626 C16.2697,36.5816 12.2697,36.8416 8.7037,37.8986 C4.1437,39.2496 -0.3573,42.2526 -1.6203,46.8386 C-1.6203,46.8386 -3.0993,66.8066 5.1787,77.6706 C13.4557,88.5346 28.5107,88.6906 28.5107,88.6906" id="Fill-563" fill="#00E586" mask="url(#mask-14)"></path>
                    </g>
                    <g id="Group-568">
                        <mask id="mask-16" fill="white">
                            <use xlink:href="#path-15"></use>
                        </mask>
                        <g id="Clip-567"></g>
                        <path d="M80.3403,83.0899 C82.7143,80.1539 79.2403,75.5599 77.6853,72.1189 C76.1303,68.6779 73.4173,65.5759 69.8163,64.4419 C65.3643,63.0389 60.4733,64.8849 56.7233,67.6649 C49.1923,73.2459 44.7913,82.7989 45.4443,92.1499 C45.4443,92.1499 70.5213,95.2349 80.3403,83.0899" id="Fill-566" fill="#00E586" mask="url(#mask-16)"></path>
                    </g>
                    <g id="Group-571">
                        <mask id="mask-18" fill="white">
                            <use xlink:href="#path-17"></use>
                        </mask>
                        <g id="Clip-570"></g>
                        <path d="M39.096,47.7124 C37.756,48.5704 36.674,49.9034 36.344,51.4604 C36.013,53.0164 36.526,54.7804 37.787,55.7494 C39.128,56.7804 41.163,56.7304 42.504,55.7004 C43.844,54.6704 44.421,52.7784 43.965,51.1504 C43.509,49.5224 42.087,48.2284 40.441,47.8404" id="Fill-569" fill="#00E586" mask="url(#mask-18)"></path>
                    </g>
                    <g id="Group-574">
                        <mask id="mask-20" fill="white">
                            <use xlink:href="#path-19"></use>
                        </mask>
                        <g id="Clip-573"></g>
                        <path d="M35.0002,39.8259 C36.9132,39.3049 36.1662,36.3479 34.2652,36.8999 C32.4382,37.4299 33.1782,40.3219 35.0002,39.8259" id="Fill-572" fill="#00E586" mask="url(#mask-20)"></path>
                    </g>
                    <g id="Group-577">
                        <mask id="mask-22" fill="white">
                            <use xlink:href="#path-21"></use>
                        </mask>
                        <g id="Clip-576"></g>
                        <path d="M63.6359,60.3028 C63.9209,60.3028 63.9219,59.8598 63.6359,59.8598 C63.3509,59.8598 63.3509,60.3028 63.6359,60.3028" id="Fill-575" fill="#00CCED" mask="url(#mask-22)"></path>
                    </g>
                    <g id="Group-580">
                        <mask id="mask-24" fill="white">
                            <use xlink:href="#path-23"></use>
                        </mask>
                        <g id="Clip-579"></g>
                        <path d="M63.6359,61.4591 C65.4089,61.4591 65.4119,58.7031 63.6359,58.7031 C61.8629,58.7031 61.8599,61.4591 63.6359,61.4591" id="Fill-578" fill="#00E586" mask="url(#mask-24)"></path>
                    </g>
                    <g id="Group-583">
                        <mask id="mask-26" fill="white">
                            <use xlink:href="#path-25"></use>
                        </mask>
                        <g id="Clip-582"></g>
                        <path d="M80.449,58.4026 C80.952,58.4026 80.952,57.6216 80.449,57.6216 C79.946,57.6216 79.946,58.4026 80.449,58.4026" id="Fill-581" fill="#00E586" mask="url(#mask-26)"></path>
                    </g>
                    <g id="Group-586">
                        <mask id="mask-28" fill="white">
                            <use xlink:href="#path-27"></use>
                        </mask>
                        <g id="Clip-585"></g>
                        <path d="M17.3354,26.8908 C18.2294,26.8908 18.2304,25.5018 17.3354,25.5018 C16.4424,25.5018 16.4404,26.8908 17.3354,26.8908" id="Fill-584" fill="#00E586" mask="url(#mask-28)"></path>
                    </g>
                    <g id="Group-589">
                        <mask id="mask-30" fill="white">
                            <use xlink:href="#path-29"></use>
                        </mask>
                        <g id="Clip-588"></g>
                        <path d="M41.9083,81.8357 C42.9413,81.8357 42.9433,80.2297 41.9083,80.2297 C40.8753,80.2297 40.8733,81.8357 41.9083,81.8357" id="Fill-587" fill="#00E586" mask="url(#mask-30)"></path>
                    </g>
                </g>
            </g>
        </g>
    </g>
</svg>