<?xml version="1.0" encoding="UTF-8"?>
<svg width="64px" height="101px" viewBox="0 0 64 101" version="1.1" xmlns="http://www.w3.org/2000/svg" xmlns:xlink="http://www.w3.org/1999/xlink">
    <!-- Generator: Sketch 53.1 (72631) - https://sketchapp.com -->
    <title>Group 79Icecream</title>
    <desc>Created with Sketch.</desc>
    <defs>
        <polygon id="path-1" points="0.2717 0.2021 18.2217 0.2021 18.2217 27 0.2717 27"></polygon>
    </defs>
    <g id="Page-1" stroke="none" stroke-width="1" fill="none" fill-rule="evenodd">
        <g id="Desktop-HD" transform="translate(-946.000000, -3404.000000)">
            <g id="Group-79" transform="translate(946.519541, 3404.182527)">
                <g id="Group-65" transform="translate(36.480459, 73.837473)">
                    <mask id="mask-2" fill="white">
                        <use xlink:href="#path-1"></use>
                    </mask>
                    <g id="Clip-64"></g>
                    <path d="M1.7247,0.3161 C1.7247,0.3161 11.4127,24.6491 14.2987,26.1911 C15.3547,26.7521 16.7767,26.8261 18.2217,26.5281 C15.3507,27.5991 13.0417,26.6151 11.6587,25.8711 C8.6737,24.2561 0.8597,2.3561 0.2717,0.7011 C0.7377,0.5371 1.2097,0.3751 1.6847,0.2021 L1.7247,0.3161 Z" id="Fill-63" fill="#B1815B" mask="url(#mask-2)"></path>
                </g>
                <path d="M38.1023587,74.0643734 C38.3953587,73.9643734 38.6853587,73.8583734 38.9813587,73.7503734 C42.4093587,72.5143734 46.0303587,71.0933734 49.3933587,69.6223734 C49.7753587,69.4493734 50.1553587,69.2843734 50.5323587,69.1143734 C51.9143587,72.4173734 60.6143587,93.2763734 60.4883587,95.2313734 C60.3223587,97.7973734 57.3443587,99.9113734 54.4463587,100.469373 C53.0523587,100.746373 51.6763587,100.653373 50.6473587,100.081373 C47.8353587,98.5103734 38.1423587,74.1783734 38.1423587,74.1783734 L38.1023587,74.0643734 Z" id="Fill-66" fill="#C89F6A"></path>
                <path d="M48.1390587,99.7082734 C49.5220587,100.452273 51.8310587,101.436273 54.7020587,100.365273 C53.2570587,100.663273 51.8350587,100.589273 50.7790587,100.028273 C48.2380587,98.6712734 40.4280587,79.6542734 38.5940587,75.1212734 C38.1150587,75.3032734 37.6370587,75.4882734 37.1600587,75.6772734 C38.9220587,80.5532734 45.4660587,98.2622734 48.1390587,99.7082734" id="Fill-68" fill="#B1815B"></path>
                <path d="M38.2051587,74.1535734 L38.1651587,74.0395734 C37.6901587,74.2125734 37.2181587,74.3745734 36.7521587,74.5385734 C36.8131587,74.7115734 36.9551587,75.1085734 37.1601587,75.6775734 C37.6371587,75.4875734 38.1151587,75.3025734 38.5941587,75.1215734 C38.3451587,74.5055734 38.2051587,74.1535734 38.2051587,74.1535734" id="Fill-70" fill="#650E81"></path>
                <path d="M50.9029587,70.0012734 C50.7509587,69.6362734 50.6239587,69.3342734 50.5319587,69.1142734 C50.1549587,69.2842734 49.7749587,69.4492734 49.3929587,69.6222734 C46.0299587,71.0932734 42.4089587,72.5142734 38.9809587,73.7512734 C38.6859587,73.8582734 38.3949587,73.9642734 38.1019587,74.0642734 L38.1429587,74.1782734 C38.1429587,74.1782734 38.2829587,74.5302734 38.5309587,75.1452734 C42.7079587,73.5612734 46.9789587,72.2112734 50.9029587,70.0012734" id="Fill-72" fill="#650E81"></path>
                <path d="M38.5313587,75.1450734 C40.3633587,79.6750734 48.1713587,98.6980734 50.6473587,100.081073 C51.6763587,100.654073 53.0523587,100.746073 54.4463587,100.469073 C57.3443587,99.9110734 60.3223587,97.7970734 60.4883587,95.2310734 C60.6063587,93.4060734 53.0353587,75.1160734 50.9033587,70.0010734 C46.9793587,72.2120734 42.7073587,73.5610734 38.5313587,75.1450734" id="Fill-74" fill="#EE7D61"></path>
                <path d="M0.339658695,27.5597734 C-0.822341305,22.7097734 1.3586587,17.0917734 1.4976587,16.7437734 C-0.872341305,25.0747734 20.7846587,77.5367734 24.5306587,77.7497734 C24.3726587,77.7717734 22.9846587,77.8857734 20.0546587,76.0827734 C16.9546587,74.1817734 1.5356587,32.5687734 0.339658695,27.5597734" id="Fill-76" fill="#BA1C51"></path>
                <path d="M49.1946587,69.1607734 C49.1946587,69.1607734 26.7006587,19.2247734 24.9526587,14.2777734 C23.2036587,9.33177336 31.0006587,8.37777336 33.4766587,9.98377336 C38.4606587,13.2187734 58.2446587,64.4757734 58.2446587,64.4757734 L58.5626587,65.0127734 C56.3986587,66.3277734 53.6006587,67.7377734 50.5326587,69.1137734 C50.1546587,69.2847734 49.7756587,69.4497734 49.3926587,69.6217734 L49.1946587,69.1607734 Z" id="Fill-78" fill="#DB79CF"></path>
                <path d="M36.7423587,74.5422734 C33.9573587,75.5002734 31.3783587,76.3042734 29.2673587,76.8662734 L29.2353587,76.7422734 C29.2353587,76.7422734 6.2383587,26.8432734 7.3943587,21.0142734 C7.9623587,18.1192734 14.0763587,13.1912734 16.4093587,17.8902734 C18.7413587,22.5892734 38.8983587,73.5162734 38.8983587,73.5162734 L38.9813587,73.7512734 C38.6853587,73.8582734 38.3953587,73.9642734 38.1023587,74.0642734 C37.6463587,74.2302734 37.1903587,74.3852734 36.7423587,74.5422734" id="Fill-80" fill="#DB79CF"></path>
                <path d="M33.7814587,1.23857336 C44.2534587,8.07057336 62.5244587,56.1715734 63.0024587,60.5655734 C63.1274587,61.7295734 61.3854587,63.2955734 58.5634587,65.0125734 L58.2444587,64.4755734 C58.2444587,64.4755734 38.4604587,13.2185734 33.4764587,9.98457336 C31.0004587,8.37757336 23.2044587,9.33157336 24.9524587,14.2785734 C26.7014587,19.2245734 49.1944587,69.1605734 49.1944587,69.1605734 L49.3924587,69.6215734 C46.0304587,71.0935734 42.4094587,72.5145734 38.9814587,73.7505734 L38.8984587,73.5165734 C38.8984587,73.5165734 18.7414587,22.5895734 16.4094587,17.8905734 C14.0764587,13.1915734 7.9624587,18.1195734 7.3944587,21.0145734 C6.2384587,26.8425734 29.2354587,76.7425734 29.2354587,76.7425734 L29.2674587,76.8655734 C27.1174587,77.4365734 25.4504587,77.7585734 24.5484587,77.7485734 C24.5484587,77.7485734 24.5424587,77.7505734 24.5304587,77.7495734 C20.7854587,77.5375734 -0.872541305,25.0745734 1.4984587,16.7435734 C1.5014587,16.7365734 1.5044587,16.7295734 1.5044587,16.7295734 C4.7494587,5.48157336 26.7444587,-3.35042664 33.7814587,1.23857336" id="Fill-82" fill="#E23365"></path>
            </g>
        </g>
    </g>
</svg>