<?xml version="1.0" encoding="UTF-8"?>
<svg width="94px" height="79px" viewBox="0 0 94 79" version="1.1" xmlns="http://www.w3.org/2000/svg" xmlns:xlink="http://www.w3.org/1999/xlink">
    <!-- Generator: Sketch 53.1 (72631) - https://sketchapp.com -->
    <title>Group 69Sticker</title>
    <desc>Created with Sketch.</desc>
    <g id="Page-1" stroke="none" stroke-width="1" fill="none" fill-rule="evenodd">
        <g id="Desktop-HD" transform="translate(-850.000000, -3207.000000)">
            <g id="Group-69" transform="translate(850.088786, 3207.628873)">
                <polygon id="Fill-494" fill="#595BD9" points="41.3066142 71.9945274 39.4736142 71.3555274 43.1626142 60.7625274 44.9956142 61.4015274"></polygon>
                <path d="M42.3824142,73.1687274 C41.9314142,74.4627274 40.5174142,75.1457274 39.2234142,74.6957274 C37.9304142,74.2447274 37.2464142,72.8307274 37.6974142,71.5367274 C38.1474142,70.2427274 39.5614142,69.5597274 40.8554142,70.0097274 C42.1494142,70.4607274 42.8334142,71.8747274 42.3824142,73.1687274" id="Fill-496" fill="#595BD9"></path>
                <polygon id="Fill-498" fill="#595BD9" points="32.7849142 69.1126274 31.3209142 67.8376274 38.6899142 59.3796274 40.1539142 60.6556274"></polygon>
                <path d="M33.3461142,70.6029274 C32.4461142,71.6359274 30.8791142,71.7439274 29.8461142,70.8439274 C28.8131142,69.9439274 28.7051142,68.3769274 29.6051142,67.3439274 C30.5051142,66.3109274 32.0721142,66.2029274 33.1051142,67.1029274 C34.1381142,68.0029274 34.2461142,69.5699274 33.3461142,70.6029274" id="Fill-500" fill="#595BD9"></path>
                <polygon id="Fill-502" fill="#595BD9" points="47.8876142 74.3727274 49.8266142 74.2827274 49.3066142 63.0777274 47.3666142 63.1677274"></polygon>
                <path d="M46.5219142,75.1918274 C46.5859142,76.5608274 47.7469142,77.6188274 49.1149142,77.5548274 C50.4839142,77.4908274 51.5419142,76.3298274 51.4779142,74.9618274 C51.4149142,73.5928274 50.2539142,72.5348274 48.8849142,72.5988274 C47.5159142,72.6618274 46.4579142,73.8228274 46.5219142,75.1918274" id="Fill-504" fill="#595BD9"></path>
                <path d="M89.2138142,66.0658274 C82.8148142,60.5958274 67.6248142,53.0638274 49.2188142,46.6538274 C30.8128142,40.2438274 14.2298142,36.7088274 5.8178142,37.0208274 L1.3748142,35.4728274 L0.0978142023,39.1398274 C-1.5481858,43.8648274 17.7758142,54.8908274 43.2588142,63.7658274 C68.7418142,72.6408274 90.7338142,76.0048274 92.3798142,71.2798274 L93.6568142,67.6128274 L89.2138142,66.0658274 Z" id="Fill-506" fill="#7A9AB3"></path>
                <path d="M93.6569142,67.6132274 C92.0109142,72.3382274 70.0189142,68.9742274 44.5359142,60.0992274 C19.0529142,51.2242274 -0.271085798,40.1982274 1.3749142,35.4732274 C3.0209142,30.7472274 25.0129142,34.1122274 50.4959142,42.9872274 C75.9789142,51.8622274 95.3029142,62.8882274 93.6569142,67.6132274" id="Fill-508" fill="#595BD9"></path>
                <path d="M73.4220142,58.5099274 C72.5210142,61.0979274 60.4770142,59.2549274 46.5220142,54.3949274 C32.5670142,49.5349274 21.9850142,43.4969274 22.8870142,40.9099274 C23.7880142,38.3219274 35.8310142,40.1639274 49.7860142,45.0239274 C63.7410142,49.8849274 74.3230142,55.9219274 73.4220142,58.5099274" id="Fill-510" fill="#59B2D1"></path>
                <polygon id="Fill-512" fill="#00E586" points="60.6294142 30.5696274 67.3584142 26.1106274 66.5874142 24.9456274 59.8574142 29.4056274"></polygon>
                <path d="M71.6532142,25.6792274 C71.0192142,27.5002274 69.0282142,28.4622274 67.2072142,27.8282274 C65.3862142,27.1942274 64.4242142,25.2032274 65.0582142,23.3822274 C65.6922142,21.5612274 67.6832142,20.5992274 69.5042142,21.2332274 C71.3252142,21.8672274 72.2872142,23.8582274 71.6532142,25.6792274" id="Fill-514" fill="#FFFFFF"></path>
                <path d="M69.3433142,21.6950274 C67.7793142,21.1500274 66.0643142,21.9800274 65.5203142,23.5430274 C64.9753142,25.1070274 65.8043142,26.8220274 67.3683142,27.3670274 C68.9313142,27.9110274 70.6473142,27.0820274 71.1913142,25.5180274 C71.7363142,23.9550274 70.9073142,22.2400274 69.3433142,21.6950274 M67.0463142,28.2900274 C64.9733142,27.5680274 63.8743142,25.2940274 64.5963142,23.2220274 C65.3183142,21.1490274 67.5923142,20.0500274 69.6653142,20.7720274 C71.7373142,21.4940274 72.8363142,23.7670274 72.1143142,25.8400274 C71.3933142,27.9130274 69.1193142,29.0120274 67.0463142,28.2900274" id="Fill-516" fill="#00E586"></path>
                <path d="M68.8603142,24.7804274 C68.7713142,25.0354274 68.4933142,25.1704274 68.2383142,25.0814274 C67.9833142,24.9924274 67.8483142,24.7134274 67.9373142,24.4594274 C68.0253142,24.2044274 68.3043142,24.0694274 68.5593142,24.1584274 C68.8143142,24.2464274 68.9493142,24.5254274 68.8603142,24.7804274" id="Fill-518" fill="#212121"></path>
                <polygon id="Fill-520" fill="#00E586" points="48.5932142 26.3777274 46.0902142 18.7027274 47.4182142 18.2697274 49.9212142 25.9447274"></polygon>
                <path d="M42.9927142,15.6973274 C42.3587142,17.5183274 43.3207142,19.5093274 45.1417142,20.1433274 C46.9627142,20.7773274 48.9537142,19.8153274 49.5877142,17.9943274 C50.2217142,16.1733274 49.2597142,14.1823274 47.4387142,13.5483274 C45.6177142,12.9143274 43.6267142,13.8763274 42.9927142,15.6973274" id="Fill-522" fill="#FFFFFF"></path>
                <path d="M43.4542142,15.8580274 C42.9092142,17.4220274 43.7392142,19.1370274 45.3022142,19.6810274 C46.8662142,20.2260274 48.5812142,19.3970274 49.1262142,17.8330274 C49.6702142,16.2700274 48.8412142,14.5550274 47.2772142,14.0100274 C45.7142142,13.4650274 43.9992142,14.2940274 43.4542142,15.8580274 M42.5312142,15.5360274 C43.2532142,13.4640274 45.5262142,12.3650274 47.5992142,13.0870274 C49.6722142,13.8080274 50.7712142,16.0820274 50.0492142,18.1550274 C49.3272142,20.2280274 47.0532142,21.3270274 44.9812142,20.6050274 C42.9082142,19.8830274 41.8092142,17.6090274 42.5312142,15.5360274" id="Fill-524" fill="#00E586"></path>
                <path d="M45.7395142,16.7279274 C45.6505142,16.9829274 45.7855142,17.2619274 46.0405142,17.3499274 C46.2955142,17.4389274 46.5735142,17.3049274 46.6625142,17.0489274 C46.7515142,16.7949274 46.6165142,16.5159274 46.3615142,16.4269274 C46.1065142,16.3379274 45.8285142,16.4729274 45.7395142,16.7279274" id="Fill-526" fill="#212121"></path>
                <path d="M57.0068142,53.4780274 L63.7828142,34.0230274 C65.6828142,28.5670274 62.7998142,22.6030274 57.3438142,20.7020274 C51.8868142,18.8020274 45.9228142,21.6850274 44.0218142,27.1410274 L37.2468142,46.5960274 L57.0068142,53.4780274 Z" id="Fill-528" fill="#00E586"></path>
                <path d="M51.7026142,36.9137274 C55.6996142,38.3057274 60.0676142,36.1937274 61.4596142,32.1977274 L46.9866142,27.1567274 C45.5946142,31.1537274 47.7056142,35.5217274 51.7026142,36.9137274" id="Fill-530" fill="#212121"></path>
                <path d="M56.7102142,36.9232274 C56.1752142,34.9922274 54.9172142,33.4472274 53.1272142,32.8232274 C51.3372142,32.2002274 49.3912142,32.6302274 47.7722142,33.8102274 C48.6662142,35.2072274 50.0152142,36.3262274 51.7022142,36.9142274 C53.3902142,37.5012274 55.1422142,37.4622274 56.7102142,36.9232274" id="Fill-532" fill="#ED8A6B"></path>
                <path d="M65.5418142,1.50172737 L65.5418142,1.50172737 C51.5348142,-3.37727263 36.2248142,4.02372737 31.3458142,18.0307274 L23.1518142,41.5597274 L23.2458142,41.5927274 C22.3448142,44.1807274 32.9268142,50.2177274 46.8818142,55.0787274 C60.8368142,59.9387274 72.8798142,61.7807274 73.7818142,59.1927274 L73.8758142,59.2267274 L82.0708142,35.6967274 C86.9498142,21.6897274 79.5488142,6.38072737 65.5418142,1.50172737" id="Fill-534" fill="#98EDF4" opacity="0.431942894"></path>
                <path d="M33.5404142,24.8482274 C33.0904142,24.6912274 32.8524142,24.1992274 33.0094142,23.7492274 C35.8964142,15.4612274 39.8594142,9.55022737 44.7894142,6.18022737 C48.5614142,3.60222737 51.4924142,3.55722737 51.6154142,3.55622737 C52.0914142,3.55422737 52.4804142,3.93822737 52.4824142,4.41522737 C52.4854142,4.89022737 52.1034142,5.27722737 51.6284142,5.28222737 C51.5884142,5.28322737 48.9924142,5.35722737 45.6404142,7.69022737 C42.5024142,9.87322737 38.0474142,14.5302274 34.6394142,24.3172274 C34.4824142,24.7672274 33.9904142,25.0052274 33.5404142,24.8482274" id="Fill-536" fill="#FFFFFF"></path>
                <path d="M80.4352142,27.9322274 C80.4352142,27.9322274 80.7692142,33.5312274 76.8152142,43.5742274" id="Fill-538" fill="#FFFFFF"></path>
                <path d="M76.5669142,44.2878274 C76.5569142,44.2848274 76.5479142,44.2808274 76.5379142,44.2768274 C76.1499142,44.1248274 75.9589142,43.6858274 76.1119142,43.2978274 C79.9619142,33.5228274 79.6849142,28.0318274 79.6819142,27.9768274 C79.6569142,27.5608274 79.9739142,27.2038274 80.3899142,27.1788274 C80.8059142,27.1528274 81.1639142,27.4708274 81.1889142,27.8878274 C81.2029142,28.1228274 81.4879142,33.7678274 77.5169142,43.8508274 C77.3679142,44.2298274 76.9479142,44.4208274 76.5669142,44.2878274" id="Fill-540" fill="#FFFFFF"></path>
            </g>
        </g>
    </g>
</svg>