<?xml version="1.0" encoding="UTF-8"?>
<svg width="140px" height="67px" viewBox="0 0 140 67" version="1.1" xmlns="http://www.w3.org/2000/svg" xmlns:xlink="http://www.w3.org/1999/xlink">
    <!-- Generator: Sketch 53.1 (72631) - https://sketchapp.com -->
    <title>Group 35cherries</title>
    <desc>Created with Sketch.</desc>
    <g id="Page-1" stroke="none" stroke-width="1" fill="none" fill-rule="evenodd">
        <g id="Desktop-HD" transform="translate(-186.000000, -1777.000000)">
            <g id="Group-35" transform="translate(187.552700, 1777.391200)">
                <path d="M120.6545,52.916 C120.6545,52.916 110.1905,47.365 124.5465,39.18 C124.5465,39.18 127.6955,47.902 122.3535,52.084 C122.3535,52.084 132.1195,45.96 137.7945,55.723 C137.7945,55.723 124.1915,62.157 120.6545,52.916" id="Fill-1" fill="#4C8C53"></path>
                <path d="M3.4567,27.8275 C3.4567,27.8275 16.3287,64.8345 65.4037,64.8345 C114.4777,64.8345 119.3047,24.6095 119.3047,24.6095 L3.4567,27.8275 Z" id="Fill-3" fill="#EFEFDC"></path>
                <path d="M79.0539,25.7276 C80.5149,27.8926 81.6649,30.2526 82.4809,32.8216 L83.6889,39.7576 L83.6889,40.1596 C83.8659,45.1396 82.7839,49.8276 80.4409,54.2256 C79.0659,56.1266 77.6909,58.0286 76.3149,59.9296 C74.5499,61.7986 72.5239,63.3906 70.3249,64.6836 C114.7939,62.0906 119.3049,24.6096 119.3049,24.6096 L79.0539,25.7276 Z" id="Fill-5" fill="#BEB995"></path>
                <path d="M122.762,21.9948 C122.762,31.8808 95.281,39.8948 61.381,39.8948 C27.481,39.8948 0,31.8808 0,21.9948 C0,12.1088 27.481,4.0948 61.381,4.0948 C95.281,4.0948 122.762,12.1088 122.762,21.9948" id="Fill-7" fill="#D4D2B7"></path>
                <path d="M122.762,21.9948 C122.762,31.8808 95.281,39.8948 61.381,39.8948 C27.481,39.8948 0,31.8808 0,21.9948 C0,12.1088 27.481,4.0948 61.381,4.0948 C95.281,4.0948 122.762,12.1088 122.762,21.9948 Z" id="Stroke-9" stroke="#587C8A" stroke-width="2.716"></path>
                <path d="M107.5891,33.6602 C108.5261,38.2862 61.3811,39.8952 61.3811,39.8952 C61.3811,39.8952 16.2091,38.8892 15.1721,33.6602 C13.7251,26.3602 35.8611,20.1852 61.3811,20.1852 C86.9011,20.1852 106.1121,26.3662 107.5891,33.6602" id="Fill-11" fill="#BEB995"></path>
                <path d="M122.762,21.9948 C122.762,31.8808 95.281,39.8948 61.381,39.8948 C27.481,39.8948 0,31.8808 0,21.9948 C0,12.1088 27.481,4.0948 61.381,4.0948 C95.281,4.0948 122.762,12.1088 122.762,21.9948 Z" id="Stroke-13" stroke="#587C8A" stroke-width="2.716"></path>
                <path d="M39.4036,24.123 L38.5686,24.103 C38.6026,24.008 38.6426,23.917 38.6726,23.821 C38.9036,23.937 39.1486,24.035 39.4036,24.123 L39.4036,24.123 Z M117.8836,26.016 L117.8566,26.016 C119.1766,22.238 117.2346,17.178 112.0276,17.178 C110.2446,17.178 108.8476,17.773 107.8306,18.705 C107.2756,18.555 106.6746,18.466 106.0156,18.466 C105.4206,18.466 104.8726,18.539 104.3636,18.662 C104.3116,18.579 104.2626,18.494 104.2076,18.413 C105.3256,14.673 103.3556,9.878 98.2856,9.878 C94.4866,9.878 92.4306,12.571 92.1056,15.494 C91.8816,15.474 91.6516,15.46 91.4136,15.46 C91.0376,15.46 90.6836,15.495 90.3406,15.546 C90.3786,12.297 88.3046,9.019 84.1136,9.019 C82.9126,9.019 81.8916,9.294 81.0376,9.754 C82.1106,6.025 80.1336,1.289 75.0956,1.289 C73.0516,1.289 71.5126,2.071 70.4746,3.247 C69.9806,3.113 69.4466,3.033 68.8696,3.017 C67.8996,1.273 66.1106,-7.81597009e-14 63.5006,-7.81597009e-14 C60.2826,-7.81597009e-14 58.3176,1.934 57.5916,4.302 C56.5606,3.258 55.0976,2.577 53.1936,2.577 C50.7726,2.577 49.0626,3.674 48.0526,5.225 C47.3036,4.908 46.4436,4.724 45.4636,4.724 C42.8196,4.724 41.0206,6.031 40.0596,7.81 C39.7276,7.763 39.3856,7.73 39.0216,7.73 C38.5656,7.73 38.1396,7.775 37.7336,7.849 C37.3276,7.775 36.9016,7.73 36.4456,7.73 C32.2536,7.73 30.1796,11.01 30.2176,14.26 C29.8236,14.294 29.4356,14.366 29.0516,14.474 C28.4346,14.281 27.7516,14.172 26.9976,14.172 C24.9336,14.172 23.3836,14.968 22.3446,16.163 C21.8126,13.49 19.7886,11.166 16.2616,11.166 C11.5386,11.166 9.5036,15.328 10.1506,18.922 C2.5016,19.452 2.5546,31.385 10.3056,31.761 L25.2616,36.467 L52.8146,39.493 C52.8146,39.493 73.2046,39.569 74.3566,39.493 C75.1686,39.439 89.7656,37.11 98.3096,35.739 C98.9456,35.948 99.6476,36.074 100.4326,36.074 C102.0636,36.074 103.3646,35.567 104.3546,34.768 C104.3756,34.765 104.4056,34.76 104.4056,34.76 L113.4686,31.465 L118.2846,28.714 L117.8836,26.016 Z" id="Fill-15" fill="#D91922"></path>
                <path d="M122.762,21.9948 C122.762,31.8808 95.281,39.8948 61.381,39.8948 C27.481,39.8948 0,31.8808 0,21.9948" id="Stroke-17" stroke="#587C8A" stroke-width="2.716"></path>
                <path d="M51.4063,27.8275 C59.1883,27.8275 59.1883,15.7595 51.4063,15.7595 C43.6243,15.7595 43.6243,27.8275 51.4063,27.8275" id="Fill-19" fill="#FF141D"></path>
                <path d="M74.3345,18.978 C82.1165,18.978 82.1165,6.91 74.3345,6.91 C66.5525,6.91 66.5525,18.978 74.3345,18.978" id="Fill-21" fill="#FF141D"></path>
                <path d="M99.6764,34.2635 C107.4584,34.2635 107.4584,22.1955 99.6764,22.1955 C91.8944,22.1955 91.8944,34.2635 99.6764,34.2635" id="Fill-23" fill="#FF141D"></path>
                <path d="M91.4303,23.0005 C99.2123,23.0005 99.2123,10.9325 91.4303,10.9325 C83.6483,10.9325 83.6483,23.0005 91.4303,23.0005" id="Fill-25" fill="#FF141D"></path>
                <path d="M27.07,25.8163 C34.852,25.8163 34.852,13.7483 27.07,13.7483 C19.288,13.7483 19.288,25.8163 27.07,25.8163" id="Fill-27" fill="#FF141D"></path>
                <path d="M31.2936,31.2466 C39.0756,31.2466 39.0756,19.1786 31.2936,19.1786 C23.5116,19.1786 23.5116,31.2466 31.2936,31.2466" id="Fill-29" fill="#FF141D"></path>
                <path d="M74.5357,36.4759 C82.3177,36.4759 82.3177,24.4079 74.5357,24.4079 C66.7537,24.4079 66.7537,36.4759 74.5357,36.4759" id="Fill-31" fill="#FF141D"></path>
                <path d="M63.2726,21.3915 C71.0546,21.3915 71.0546,9.3235 63.2726,9.3235 C55.4906,9.3235 55.4906,21.3915 63.2726,21.3915" id="Fill-33" fill="#F7515C"></path>
                <path d="M91.8325,28.2298 C99.6145,28.2298 99.6145,16.1618 91.8325,16.1618 C84.0505,16.1618 84.0505,28.2298 91.8325,28.2298" id="Fill-35" fill="#F7515C"></path>
                <path d="M39.9421,16.1623 C47.7241,16.1623 47.7241,4.0943 39.9421,4.0943 C32.1601,4.0943 32.1601,16.1623 39.9421,16.1623" id="Fill-37" fill="#F7515C"></path>
                <path d="M27.6734,19.5813 C35.4554,19.5813 35.4554,7.5133 27.6734,7.5133 C19.8914,7.5133 19.8914,19.5813 27.6734,19.5813" id="Fill-39" fill="#F7515C"></path>
                <path d="M41.35,33.6602 C49.132,33.6602 49.132,21.5922 41.35,21.5922 C33.568,21.5922 33.568,33.6602 41.35,33.6602" id="Fill-41" fill="#F7515C"></path>
                <path d="M96.6595,66.2426 C104.4415,66.2426 104.4415,54.1746 96.6595,54.1746 C88.8775,54.1746 88.8775,66.2426 96.6595,66.2426" id="Fill-43" fill="#F7515C"></path>
                <path d="M104.9057,56.1863 C112.6877,56.1863 112.6877,44.1183 104.9057,44.1183 C97.1237,44.1183 97.1237,56.1863 104.9057,56.1863" id="Fill-45" fill="#D91922"></path>
                <path d="M116.9732,62.4212 C124.7552,62.4212 124.7552,50.3532 116.9732,50.3532 C109.1912,50.3532 109.1912,62.4212 116.9732,62.4212" id="Fill-47" fill="#FF141D"></path>
            </g>
        </g>
    </g>
</svg>