<?xml version="1.0" encoding="UTF-8"?>
<svg width="89px" height="83px" viewBox="0 0 89 83" version="1.1" xmlns="http://www.w3.org/2000/svg" xmlns:xlink="http://www.w3.org/1999/xlink">
    <!-- Generator: Sketch 53.1 (72631) - https://sketchapp.com -->
    <title>Group 40Ketchup</title>
    <desc>Created with Sketch.</desc>
    <g id="Page-1" stroke="none" stroke-width="1" fill="none" fill-rule="evenodd">
        <g id="Desktop-HD" transform="translate(-821.000000, -1565.000000)">
            <g id="Group-40" transform="translate(821.619000, 1565.928700)">
                <g id="Group-33">
                    <path d="M17.0737,13.339 L8.5367,13.339 L11.3487,0.788 C11.4517,0.327 11.8517,-2.84217094e-14 12.3137,-2.84217094e-14 L13.2967,-2.84217094e-14 C13.7587,-2.84217094e-14 14.1587,0.327 14.2627,0.788 L17.0737,13.339 Z" id="Fill-167" fill="#C92D61"></path>
                    <path d="M20.2911,13.0622 L5.4261,13.0622 C5.0221,13.0622 4.6951,13.3892 4.6951,13.7932 L4.6951,19.0582 L21.0221,19.0582 L21.0221,13.7932 C21.0221,13.3892 20.6951,13.0622 20.2911,13.0622" id="Fill-169" fill="#C92D61"></path>
                    <path d="M21.683,81.2419 L3.927,81.2419 C1.758,81.2419 -5.68434189e-14,79.4839 -5.68434189e-14,77.3139 L-5.68434189e-14,18.6039 C-5.68434189e-14,17.3459 1.019,16.3269 2.276,16.3269 L23.334,16.3269 C24.591,16.3269 25.611,17.3459 25.611,18.6039 L25.611,77.3139 C25.611,79.4839 23.852,81.2419 21.683,81.2419" id="Fill-171" fill="#E23365"></path>
                    <path d="M5.0466,43.6451 L3.4186,43.6451 C3.0626,43.6451 2.7746,43.3571 2.7746,43.0011 L2.7746,21.0261 C2.7746,20.6701 3.0626,20.3821 3.4186,20.3821 L5.0466,20.3821 C5.4026,20.3821 5.6906,20.6701 5.6906,21.0261 L5.6906,43.0011 C5.6906,43.3571 5.4026,43.6451 5.0466,43.6451" id="Fill-173" fill="#EF5B6D"></path>
                    <path d="M5.7977,46.5958 C5.7977,47.4598 5.0967,48.1608 4.2327,48.1608 C3.3687,48.1608 2.6677,47.4598 2.6677,46.5958 C2.6677,45.7318 3.3687,45.0308 4.2327,45.0308 C5.0967,45.0308 5.7977,45.7318 5.7977,46.5958" id="Fill-175" fill="#EF5B6D"></path>
                    <path d="M49.975,13.339 L41.438,13.339 L44.25,0.788 C44.353,0.327 44.753,-2.84217094e-14 45.215,-2.84217094e-14 L46.198,-2.84217094e-14 C46.66,-2.84217094e-14 47.06,0.327 47.164,0.788 L49.975,13.339 Z" id="Fill-177" fill="#F79E3C"></path>
                    <path d="M53.1926,13.0622 L38.3276,13.0622 C37.9236,13.0622 37.5966,13.3892 37.5966,13.7932 L37.5966,19.0582 L53.9236,19.0582 L53.9236,13.7932 C53.9236,13.3892 53.5966,13.0622 53.1926,13.0622" id="Fill-179" fill="#D8822E"></path>
                    <path d="M54.5845,81.2587 L36.8285,81.2587 C34.6595,81.2587 32.9015,79.5007 32.9015,77.3307 L32.9015,18.6197 C32.9015,17.3627 33.9205,16.3437 35.1775,16.3437 L56.2355,16.3437 C57.4925,16.3437 58.5125,17.3627 58.5125,18.6197 L58.5125,77.3307 C58.5125,79.5007 56.7535,81.2587 54.5845,81.2587" id="Fill-181" fill="#F79E3C"></path>
                    <path d="M37.9481,43.6451 L36.3201,43.6451 C35.9641,43.6451 35.6761,43.3571 35.6761,43.0011 L35.6761,21.0261 C35.6761,20.6701 35.9641,20.3821 36.3201,20.3821 L37.9481,20.3821 C38.3041,20.3821 38.5921,20.6701 38.5921,21.0261 L38.5921,43.0011 C38.5921,43.3571 38.3041,43.6451 37.9481,43.6451" id="Fill-183" fill="#F9EFA5"></path>
                    <path d="M38.6992,46.5958 C38.6992,47.4598 37.9982,48.1608 37.1342,48.1608 C36.2702,48.1608 35.5692,47.4598 35.5692,46.5958 C35.5692,45.7318 36.2702,45.0308 37.1342,45.0308 C37.9982,45.0308 38.6992,45.7318 38.6992,46.5958" id="Fill-185" fill="#F9EFA5"></path>
                    <path d="M77.526,28.111 C77.526,28.749 77.008,29.267 76.37,29.267 C75.732,29.267 75.214,28.749 75.214,28.111 C75.214,27.473 75.732,26.955 76.37,26.955 C77.008,26.955 77.526,27.473 77.526,28.111" id="Fill-187" fill="#D1D3D4"></path>
                    <path d="M81.9782,81.2587 L70.9252,81.2587 C67.4332,81.2587 64.7392,78.1867 65.1942,74.7247 L69.7742,39.9147 L83.1282,39.9147 L87.7092,74.7247 C88.1642,78.1867 85.4702,81.2587 81.9782,81.2587" id="Fill-189" fill="#53ACD3"></path>
                    <path d="M84.8209,37.0868 L68.0819,37.0868 C67.5149,37.0868 67.0549,37.5468 67.0549,38.1148 L67.0549,38.8878 C67.0549,39.4548 67.5149,39.9148 68.0819,39.9148 L84.8209,39.9148 C85.3889,39.9148 85.8489,39.4548 85.8489,38.8878 L85.8489,38.1148 C85.8489,37.5468 85.3889,37.0868 84.8209,37.0868" id="Fill-191" fill="#3C91AF"></path>
                    <path d="M82.7221,28.111 L70.0181,28.111 C68.5431,28.111 67.4861,29.535 67.9141,30.947 L69.7751,37.087 L82.9661,37.087 L84.8261,30.947 C85.2541,29.535 84.1971,28.111 82.7221,28.111" id="Fill-193" fill="#3C91AF"></path>
                    <polygon id="Fill-195" fill="#3C91AF" points="83.4441 42.3131 83.1291 39.9151 69.7751 39.9151 69.4591 42.3131"></polygon>
                </g>
            </g>
        </g>
    </g>
</svg>