<?xml version="1.0" encoding="UTF-8"?>
<svg width="167px" height="179px" viewBox="0 0 167 179" version="1.1" xmlns="http://www.w3.org/2000/svg" xmlns:xlink="http://www.w3.org/1999/xlink">
    <!-- Generator: Sketch 53.1 (72631) - https://sketchapp.com -->
    <title>Group 43Pizza</title>
    <desc>Created with Sketch.</desc>
    <g id="Page-1" stroke="none" stroke-width="1" fill="none" fill-rule="evenodd">
        <g id="Desktop-HD" transform="translate(-746.000000, -1715.000000)">
            <g id="Group-43" transform="translate(746.000000, 1715.626000)">
                <polygon id="Fill-339" fill="#DBA97E" points="145.8421 125.9664 73.6471 167.9214 0.9801 125.9674 73.1751 84.0124"></polygon>
                <g id="Group-345" transform="translate(0.000000, 83.000000)">
                    <polygon id="Fill-340" fill="#B78C65" points="145.4511 42.9653 145.4231 52.8203 73.1491 11.0923 73.1771 1.2373"></polygon>
                    <polygon id="Fill-341" fill="#C19772" points="73.1767 1.2377 73.1487 11.0927 1.3437 52.8207 1.3717 42.9657"></polygon>
                    <polygon id="Fill-342" fill="#EEEEEF" points="73.6525 85.1453 73.6245 95.0003 0.5675 52.8203 0.5955 42.9663"></polygon>
                    <polygon id="Fill-343" fill="#EEEEEF" points="146.231 42.9673 146.203 52.8223 73.625 95.0003 73.653 85.1453"></polygon>
                    <path d="M73.6464,84.6936 L145.4514,42.9656 L73.1764,1.2376 L1.3724,42.9656 L73.6464,84.6936 L73.6464,84.6936 Z M73.1744,0.7876 L146.2314,42.9676 L73.6524,85.1456 L0.5954,42.9656 L73.1744,0.7876 Z" id="Fill-344" fill="#FFFFFF"></path>
                </g>
                <polygon id="Fill-346" fill="#B78C65" points="73.1487 83.8028 73.1487 84.2538 73.1767 84.2378 145.4507 125.9648 145.4397 125.9718 146.2307 125.9668 73.1747 83.7878"></polygon>
                <polygon id="Fill-347" fill="#D9A67C" points="166.7297 46.1349 146.2057 126.0379 73.3507 84.2379 95.4467 0.5649"></polygon>
                <g id="Group-353" transform="translate(65.000000, 0.000000)">
                    <g id="Group-351">
                        <polygon id="Fill-348" fill="#B78C65" points="20.1227 1.3508 0.9757 77.9308 8.3507 84.2378 30.4417 0.5438"></polygon>
                        <polygon id="Fill-349" fill="#D9CFC9" points="91.5121 46.6556 101.8311 45.8486 81.1961 126.0166 74.1981 115.4426"></polygon>
                        <polygon id="Fill-350" fill="#E7DFDB" points="19.8244 0.8624 30.1434 0.0554 101.8314 45.8484 91.5124 46.6554"></polygon>
                    </g>
                    <polygon id="Fill-352" fill="#FFFFFF" points="19.8244 0.8624 0.6194 77.4904 0.9754 77.9304 1.0854 77.6664 20.1224 1.3504 90.9924 46.6934 74.0054 114.7044 73.7924 115.2184 74.1984 115.4424 91.5124 46.6554"></polygon>
                </g>
                <path d="M33.8731,136.6019 C33.9881,136.7769 34.0961,136.9539 34.2191,137.1279 C34.0961,136.9539 33.9881,136.7769 33.8731,136.6019 M33.1791,135.4639 C33.2801,135.6429 33.3731,135.8219 33.4811,135.9999 C33.3731,135.8219 33.2801,135.6429 33.1791,135.4639 M32.5841,134.3129 C32.6701,134.4939 32.7481,134.6759 32.8411,134.8559 C32.7481,134.6759 32.6701,134.4939 32.5841,134.3129 M32.0871,133.1459 C32.1571,133.3309 32.2211,133.5159 32.2991,133.6989 C32.2211,133.5159 32.1571,133.3309 32.0871,133.1459 M31.6891,131.9719 C31.7441,132.1579 31.7931,132.3459 31.8551,132.5319 C31.7931,132.3459 31.7441,132.1579 31.6891,131.9719 M31.3901,130.7909 C31.4301,130.9789 31.4631,131.1679 31.5101,131.3549 C31.4631,131.1679 31.4301,130.9789 31.3901,130.7909 M31.1901,129.6039 C31.2141,129.7939 31.2311,129.9829 31.2631,130.1719 C31.2311,129.9829 31.2141,129.7939 31.1901,129.6039 M31.0881,128.4159 C31.0961,128.6059 31.0981,128.7949 31.1141,128.9849 C31.0981,128.7949 31.0961,128.6059 31.0881,128.4159 M116.3781,128.5249 C116.6461,121.9779 112.4611,115.3739 103.8071,110.3779 C87.0901,100.7269 60.0721,100.7269 43.4601,110.3799 C35.1831,115.1909 31.0551,121.4899 31.0641,127.7949 C31.0641,127.7749 31.0611,127.7549 31.0611,127.7349 L31.0491,131.9089 C31.0311,138.2749 35.2331,144.6509 43.6451,149.5079 C44.1481,149.7979 44.6611,150.0779 45.1821,150.3509 C45.3561,150.4419 45.5351,150.5279 45.7111,150.6169 C46.0621,150.7949 46.4131,150.9729 46.7721,151.1429 C46.9861,151.2449 47.2051,151.3409 47.4221,151.4399 C47.7501,151.5899 48.0781,151.7389 48.4111,151.8829 C48.6461,151.9829 48.8841,152.0789 49.1211,152.1769 C49.3481,152.2699 49.5711,152.3679 49.8001,152.4579 C49.8711,152.4869 49.9461,152.5099 50.0181,152.5379 C50.7591,152.8269 51.5091,153.1029 52.2731,153.3619 C52.3901,153.4019 52.5101,153.4369 52.6271,153.4759 C53.2921,153.6969 53.9661,153.9059 54.6471,154.1039 C54.7591,154.1369 54.8681,154.1759 54.9811,154.2079 C55.1101,154.2449 55.2431,154.2759 55.3731,154.3119 C55.8031,154.4309 56.2351,154.5439 56.6691,154.6549 C56.9321,154.7219 57.1951,154.7899 57.4591,154.8529 C57.9351,154.9679 58.4151,155.0739 58.8961,155.1779 C59.0761,155.2169 59.2521,155.2619 59.4321,155.2989 C59.4801,155.3089 59.5291,155.3169 59.5781,155.3269 C60.0161,155.4159 60.4591,155.4969 60.9011,155.5779 C61.1391,155.6219 61.3761,155.6709 61.6161,155.7119 C62.1951,155.8119 62.7791,155.9019 63.3641,155.9879 C63.4641,156.0019 63.5621,156.0199 63.6621,156.0349 C63.6671,156.0349 63.6731,156.0359 63.6781,156.0369 C64.3551,156.1319 65.0351,156.2179 65.7171,156.2949 C65.8741,156.3119 66.0321,156.3239 66.1891,156.3409 C66.7151,156.3959 67.2421,156.4509 67.7721,156.4939 C67.7851,156.4959 67.7981,156.4969 67.8111,156.4979 C68.0431,156.5169 68.2771,156.5289 68.5091,156.5459 C68.9531,156.5779 69.3961,156.6119 69.8411,156.6359 C70.1201,156.6509 70.3991,156.6589 70.6781,156.6709 C71.0901,156.6889 71.5021,156.7079 71.9151,156.7189 C71.9481,156.7199 71.9811,156.7219 72.0141,156.7229 C72.2431,156.7289 72.4711,156.7259 72.7001,156.7299 C73.1451,156.7369 73.5901,156.7449 74.0361,156.7439 C74.3261,156.7429 74.6161,156.7359 74.9061,156.7319 C75.3231,156.7259 75.7391,156.7199 76.1561,156.7069 C76.2321,156.7049 76.3091,156.7049 76.3851,156.7029 C76.5781,156.6959 76.7691,156.6819 76.9611,156.6739 C77.4421,156.6539 77.9211,156.6309 78.4001,156.6009 C78.6881,156.5839 78.9761,156.5629 79.2641,156.5409 C79.7221,156.5079 80.1801,156.4699 80.6361,156.4269 C80.7971,156.4129 80.9581,156.4029 81.1171,156.3869 C81.2291,156.3759 81.3391,156.3589 81.4511,156.3479 C82.1621,156.2739 82.8711,156.1899 83.5761,156.0939 C83.6911,156.0789 83.8061,156.0669 83.9211,156.0509 C84.7311,155.9369 85.5351,155.8069 86.3351,155.6659 C86.4091,155.6519 86.4861,155.6429 86.5601,155.6289 C86.7731,155.5909 86.9821,155.5449 87.1931,155.5049 C87.5671,155.4339 87.9401,155.3619 88.3101,155.2849 C88.6121,155.2219 88.9121,155.1549 89.2121,155.0879 C89.5771,155.0059 89.9421,154.9229 90.3041,154.8359 C90.6031,154.7629 90.9001,154.6869 91.1971,154.6099 C91.5531,154.5179 91.9091,154.4239 92.2621,154.3259 C92.5581,154.2439 92.8511,154.1599 93.1441,154.0729 C93.4931,153.9699 93.8411,153.8649 94.1861,153.7559 C94.3361,153.7089 94.4891,153.6669 94.6381,153.6179 C94.7461,153.5829 94.8491,153.5419 94.9561,153.5069 C95.5811,153.2999 96.1991,153.0829 96.8101,152.8569 C96.9371,152.8089 97.0671,152.7649 97.1941,152.7169 C97.9151,152.4429 98.6241,152.1519 99.3211,151.8489 C99.5031,151.7699 99.6811,151.6869 99.8621,151.6059 C100.3971,151.3659 100.9251,151.1179 101.4441,150.8609 C101.6381,150.7649 101.8331,150.6699 102.0251,150.5719 C102.6921,150.2289 103.3501,149.8779 103.9881,149.5069 C104.1641,149.4049 104.3371,149.3029 104.5091,149.1989 C104.6701,149.1019 104.8191,149.0009 104.9771,148.9029 C105.2381,148.7409 105.4991,148.5779 105.7521,148.4119 C105.9841,148.2599 106.2081,148.1059 106.4321,147.9509 C106.6761,147.7839 106.9191,147.6149 107.1531,147.4439 C107.3701,147.2869 107.5801,147.1279 107.7891,146.9679 C108.0151,146.7949 108.2391,146.6209 108.4571,146.4459 C108.6571,146.2829 108.8521,146.1199 109.0451,145.9549 C109.2541,145.7769 109.4601,145.5989 109.6611,145.4179 C109.7431,145.3439 109.8331,145.2719 109.9141,145.1969 C110.0781,145.0459 110.2341,144.8919 110.3931,144.7389 C110.4491,144.6839 110.5081,144.6299 110.5631,144.5749 C110.8731,144.2689 111.1701,143.9589 111.4551,143.6469 C111.5221,143.5739 111.5871,143.4999 111.6521,143.4259 C111.8931,143.1559 112.1251,142.8849 112.3471,142.6109 C112.3961,142.5519 112.4461,142.4929 112.4931,142.4329 C112.5151,142.4059 112.5391,142.3789 112.5611,142.3509 C112.6401,142.2509 112.7061,142.1469 112.7831,142.0459 C112.9911,141.7729 113.1951,141.4989 113.3841,141.2219 C113.4891,141.0699 113.5841,140.9169 113.6831,140.7629 C113.8451,140.5129 114.0031,140.2609 114.1501,140.0079 C114.1911,139.9389 114.2391,139.8709 114.2781,139.8009 C114.3361,139.6989 114.3831,139.5939 114.4381,139.4909 C114.5531,139.2779 114.6641,139.0649 114.7691,138.8509 C114.8561,138.6709 114.9401,138.4919 115.0201,138.3119 C115.1161,138.0959 115.2071,137.8809 115.2931,137.6639 C115.3311,137.5679 115.3781,137.4719 115.4151,137.3749 C115.4471,137.2879 115.4701,137.2009 115.5011,137.1139 C115.5741,136.9079 115.6421,136.7029 115.7061,136.4959 C115.7641,136.3079 115.8201,136.1199 115.8711,135.9319 C115.9261,135.7249 115.9761,135.5179 116.0221,135.3099 C116.0471,135.1979 116.0821,135.0859 116.1041,134.9729 C116.1191,134.8969 116.1261,134.8209 116.1401,134.7449 C116.1791,134.5319 116.2111,134.3189 116.2401,134.1059 C116.2661,133.9189 116.2921,133.7319 116.3111,133.5449 C116.3331,133.3309 116.3451,133.1159 116.3571,132.9009 C116.3641,132.7759 116.3801,132.6499 116.3841,132.5249 C116.3881,132.3999 116.3901,132.2749 116.3901,132.1499 L116.4021,127.9759 C116.4011,128.1589 116.3891,128.3419 116.3781,128.5249" id="Fill-354" fill="#B78C65"></path>
                <g id="Group-428" transform="translate(31.000000, 100.000000)">
                    <path d="M85.369,26.104 C85.357,26.319 85.344,26.533 85.323,26.748 C85.304,26.935 85.278,27.122 85.252,27.309 C85.223,27.522 85.191,27.735 85.152,27.948 C85.117,28.136 85.076,28.324 85.034,28.512 C84.988,28.72 84.938,28.927 84.883,29.134 C84.832,29.323 84.776,29.511 84.718,29.699 C84.654,29.905 84.586,30.111 84.513,30.316 C84.448,30.5 84.378,30.684 84.305,30.867 C84.219,31.083 84.128,31.299 84.032,31.514 C83.952,31.694 83.868,31.874 83.781,32.053 C83.676,32.267 83.565,32.481 83.45,32.693 C83.357,32.866 83.262,33.039 83.162,33.211 C83.015,33.464 82.857,33.715 82.695,33.966 C82.596,34.119 82.501,34.273 82.396,34.425 C82.206,34.702 82.002,34.977 81.794,35.251 C81.697,35.379 81.607,35.508 81.505,35.635 C81.458,35.695 81.407,35.755 81.358,35.815 C81.136,36.088 80.905,36.359 80.665,36.628 C80.599,36.702 80.534,36.776 80.467,36.85 C80.181,37.162 79.885,37.471 79.575,37.778 C79.52,37.832 79.461,37.886 79.404,37.941 C79.169,38.17 78.922,38.396 78.672,38.621 C78.472,38.801 78.266,38.98 78.057,39.158 C77.864,39.322 77.669,39.486 77.469,39.648 C77.251,39.824 77.027,39.998 76.8,40.171 C76.592,40.33 76.382,40.489 76.166,40.647 C75.931,40.818 75.688,40.986 75.444,41.154 C75.22,41.309 74.995,41.463 74.764,41.615 C74.511,41.78 74.25,41.943 73.989,42.106 C73.662,42.308 73.34,42.512 73,42.71 C72.362,43.08 71.704,43.432 71.036,43.774 C70.845,43.872 70.65,43.968 70.456,44.063 C69.937,44.32 69.409,44.569 68.874,44.809 C68.693,44.89 68.515,44.973 68.333,45.052 C67.636,45.355 66.928,45.645 66.206,45.919 C66.079,45.968 65.947,46.012 65.819,46.06 C65.21,46.286 64.593,46.503 63.969,46.709 C63.712,46.794 63.455,46.878 63.196,46.959 C62.852,47.068 62.506,47.173 62.157,47.276 C61.864,47.362 61.569,47.447 61.273,47.529 C60.921,47.627 60.566,47.721 60.211,47.812 C59.913,47.889 59.614,47.966 59.314,48.038 C58.953,48.126 58.59,48.208 58.226,48.29 C57.925,48.357 57.624,48.424 57.321,48.488 C56.951,48.565 56.579,48.636 56.206,48.707 C55.92,48.762 55.634,48.817 55.347,48.868 C54.547,49.009 53.743,49.14 52.933,49.253 C52.819,49.269 52.703,49.281 52.588,49.297 C51.883,49.392 51.174,49.476 50.463,49.55 C50.192,49.579 49.92,49.605 49.648,49.63 C49.192,49.672 48.734,49.71 48.275,49.744 C47.988,49.765 47.7,49.786 47.412,49.804 C46.934,49.833 46.455,49.856 45.976,49.876 C45.706,49.888 45.436,49.901 45.166,49.91 C44.752,49.923 44.338,49.928 43.924,49.934 C43.631,49.938 43.339,49.945 43.046,49.946 C42.604,49.947 42.163,49.939 41.721,49.933 C41.456,49.929 41.19,49.929 40.925,49.922 C40.518,49.911 40.112,49.891 39.705,49.874 C39.421,49.862 39.136,49.854 38.851,49.838 C38.415,49.815 37.979,49.781 37.544,49.75 C37.29,49.731 37.036,49.718 36.782,49.697 C36.257,49.653 35.734,49.599 35.211,49.544 C35.051,49.528 34.889,49.515 34.729,49.497 C34.046,49.421 33.366,49.335 32.69,49.239 C32.585,49.224 32.481,49.205 32.376,49.19 C31.791,49.104 31.207,49.014 30.627,48.914 C30.388,48.873 30.151,48.825 29.913,48.781 C29.471,48.7 29.028,48.619 28.59,48.529 C28.361,48.482 28.135,48.429 27.908,48.38 C27.427,48.276 26.947,48.17 26.472,48.056 C26.206,47.992 25.944,47.924 25.68,47.857 C25.247,47.747 24.815,47.633 24.387,47.515 C24.142,47.447 23.9,47.377 23.657,47.306 C22.978,47.108 22.306,46.9 21.642,46.68 C21.523,46.641 21.402,46.605 21.285,46.565 C20.521,46.306 19.77,46.029 19.03,45.741 C18.728,45.623 18.429,45.501 18.132,45.379 C17.895,45.281 17.658,45.186 17.424,45.085 C17.089,44.941 16.76,44.791 16.431,44.641 C16.215,44.543 15.997,44.447 15.785,44.346 C15.424,44.175 15.07,43.996 14.717,43.816 C14.544,43.728 14.366,43.644 14.195,43.554 C13.673,43.281 13.16,43 12.657,42.71 C4.245,37.853 0.043,31.478 0.061,25.112 L0.05,29.286 C0.031,35.652 4.233,42.027 12.645,46.884 C13.148,47.174 13.661,47.455 14.182,47.728 C14.356,47.819 14.535,47.904 14.711,47.993 C15.062,48.171 15.413,48.349 15.772,48.519 C15.986,48.621 16.205,48.718 16.422,48.817 C16.75,48.966 17.078,49.116 17.411,49.259 C17.646,49.36 17.884,49.456 18.121,49.553 C18.348,49.647 18.571,49.744 18.8,49.835 C18.871,49.863 18.946,49.887 19.018,49.915 C19.759,50.203 20.51,50.48 21.274,50.739 C21.39,50.779 21.51,50.814 21.627,50.853 C22.292,51.074 22.966,51.282 23.647,51.481 C23.76,51.513 23.868,51.552 23.981,51.584 C24.11,51.621 24.243,51.652 24.373,51.688 C24.803,51.807 25.235,51.921 25.67,52.031 C25.933,52.098 26.195,52.166 26.459,52.23 C26.935,52.344 27.415,52.45 27.896,52.554 C28.076,52.593 28.252,52.638 28.432,52.675 C28.48,52.685 28.53,52.693 28.578,52.703 C29.016,52.793 29.459,52.874 29.901,52.955 C30.14,52.999 30.376,53.047 30.616,53.088 C31.195,53.188 31.779,53.279 32.364,53.364 C32.464,53.379 32.562,53.397 32.662,53.411 C32.662,53.411 32.673,53.412 32.678,53.413 C33.355,53.509 34.035,53.595 34.717,53.671 C34.874,53.689 35.032,53.701 35.189,53.717 C35.715,53.773 36.242,53.827 36.772,53.871 C36.785,53.872 36.798,53.874 36.811,53.875 C37.043,53.894 37.277,53.905 37.509,53.922 C37.953,53.954 38.396,53.988 38.841,54.013 C39.12,54.028 39.399,54.035 39.678,54.047 C40.09,54.065 40.502,54.085 40.915,54.096 C40.948,54.097 40.981,54.099 41.014,54.1 C41.243,54.105 41.471,54.103 41.7,54.107 C42.145,54.114 42.59,54.121 43.036,54.12 C43.326,54.119 43.616,54.112 43.906,54.108 C44.323,54.102 44.739,54.097 45.156,54.084 C45.232,54.081 45.309,54.082 45.385,54.079 C45.578,54.073 45.769,54.058 45.961,54.05 C46.442,54.03 46.921,54.008 47.4,53.978 C47.689,53.96 47.976,53.939 48.264,53.918 C48.722,53.884 49.18,53.846 49.637,53.804 C49.797,53.789 49.958,53.78 50.118,53.764 C50.229,53.753 50.339,53.736 50.451,53.724 C51.162,53.65 51.871,53.566 52.577,53.471 C52.691,53.455 52.807,53.443 52.921,53.427 C53.731,53.314 54.535,53.183 55.335,53.042 C55.409,53.029 55.486,53.02 55.56,53.006 C55.773,52.968 55.982,52.922 56.194,52.881 C56.567,52.81 56.94,52.739 57.31,52.662 C57.613,52.599 57.912,52.531 58.212,52.464 C58.577,52.383 58.942,52.3 59.304,52.212 C59.603,52.14 59.9,52.064 60.197,51.987 C60.554,51.895 60.909,51.801 61.262,51.703 C61.558,51.621 61.851,51.536 62.144,51.45 C62.493,51.347 62.841,51.241 63.186,51.133 C63.336,51.085 63.489,51.043 63.639,50.995 C63.746,50.96 63.849,50.919 63.956,50.884 C64.581,50.677 65.199,50.46 65.81,50.233 C65.937,50.186 66.067,50.142 66.194,50.094 C66.915,49.819 67.624,49.529 68.321,49.226 C68.504,49.147 68.682,49.064 68.862,48.983 C69.397,48.743 69.925,48.494 70.445,48.238 C70.638,48.142 70.833,48.046 71.025,47.948 C71.692,47.606 72.35,47.254 72.988,46.884 C73.164,46.782 73.337,46.679 73.509,46.576 C73.67,46.479 73.819,46.378 73.977,46.28 C74.238,46.117 74.499,45.954 74.752,45.789 C74.984,45.637 75.208,45.483 75.433,45.328 C75.676,45.16 75.919,44.992 76.153,44.821 C76.37,44.664 76.58,44.504 76.789,44.344 C77.015,44.171 77.239,43.998 77.457,43.822 C77.657,43.66 77.852,43.496 78.045,43.332 C78.254,43.154 78.46,42.975 78.661,42.795 C78.743,42.721 78.833,42.649 78.914,42.574 C79.078,42.422 79.234,42.269 79.393,42.115 C79.449,42.061 79.508,42.006 79.563,41.952 C79.873,41.645 80.17,41.336 80.455,41.024 C80.522,40.95 80.587,40.877 80.652,40.803 C80.893,40.533 81.125,40.261 81.347,39.987 C81.396,39.928 81.446,39.869 81.493,39.81 C81.515,39.782 81.539,39.755 81.561,39.728 C81.64,39.627 81.706,39.524 81.783,39.423 C81.991,39.15 82.195,38.876 82.384,38.599 C82.489,38.447 82.584,38.293 82.683,38.14 C82.845,37.889 83.003,37.638 83.15,37.385 C83.191,37.315 83.239,37.247 83.278,37.178 C83.336,37.075 83.383,36.971 83.438,36.868 C83.553,36.655 83.664,36.442 83.769,36.227 C83.856,36.048 83.94,35.868 84.02,35.688 C84.116,35.473 84.207,35.257 84.293,35.041 C84.331,34.944 84.379,34.849 84.415,34.752 C84.447,34.665 84.47,34.577 84.501,34.49 C84.574,34.285 84.642,34.079 84.706,33.873 C84.764,33.685 84.82,33.497 84.871,33.308 C84.927,33.101 84.976,32.894 85.022,32.687 C85.047,32.574 85.082,32.462 85.104,32.349 C85.12,32.274 85.126,32.198 85.14,32.122 C85.179,31.909 85.211,31.696 85.241,31.483 C85.267,31.296 85.292,31.109 85.311,30.922 C85.333,30.707 85.345,30.493 85.357,30.278 C85.364,30.152 85.381,30.027 85.384,29.901 C85.388,29.776 85.39,29.651 85.39,29.526 L85.402,25.352 C85.401,25.603 85.383,25.853 85.369,26.104" id="Fill-355" fill="#E29648"></path>
                    <path d="M17.7934,21.2633 C17.1724,21.6243 16.1844,21.6383 15.5854,21.2923 C14.9854,20.9463 15.0074,20.3743 15.6284,20.0133 C16.2494,19.6523 17.2374,19.6383 17.8374,19.9843 C18.4364,20.3303 18.4144,20.9023 17.7934,21.2633" id="Fill-356" fill="#FCCF8D"></path>
                    <path d="M50.1546,22.3629 C50.0346,22.2819 49.9086,22.2039 49.7766,22.1269 C48.3166,21.2849 46.3856,20.8839 44.4796,20.9239 C44.3276,20.2949 44.6666,19.6349 45.4986,19.1509 C45.7546,19.0019 46.0436,18.8809 46.3476,18.7839 C45.3086,18.0399 45.2736,16.9829 46.2456,16.2209 C47.9606,16.4519 49.7936,16.3109 51.3586,15.7979 C51.3756,15.8049 51.3936,15.8129 51.4106,15.8209 C51.5216,15.8719 51.6266,15.9269 51.7256,15.9829 C52.5706,16.4719 52.9126,17.1399 52.7576,17.7729 C53.8546,17.6809 55.0046,17.8779 55.8526,18.3679 C55.8746,18.3809 55.8966,18.3939 55.9186,18.4069 C57.1826,19.1739 57.2436,20.4179 56.0496,21.2209 C54.8276,22.0449 52.7816,22.1729 51.2976,21.6049 C51.0746,21.8569 50.7576,22.0879 50.3456,22.2799 C50.2836,22.3089 50.2196,22.3369 50.1546,22.3629" id="Fill-357" fill="#FCCF8D"></path>
                    <path d="M19.8881,22.2469 C20.4251,21.1099 22.4671,20.4579 24.4091,20.7939 C24.7611,20.8539 25.0801,20.9419 25.3701,21.0519 C25.6831,20.6169 26.2301,20.2699 26.8981,20.0469 C27.1381,19.9939 27.3751,19.9329 27.6061,19.8649 C28.4261,19.7129 29.3501,19.7279 30.2271,19.9589 C30.6201,20.0619 30.9691,20.2049 31.2651,20.3749 C32.0891,20.8509 32.5001,21.5459 32.2961,22.2279 C32.0581,23.0099 31.1341,23.5929 29.9771,23.8409 C30.6571,24.3669 30.9111,25.0699 30.5311,25.7489 C30.1891,26.3629 29.3681,26.8309 28.3751,27.0529 C28.1501,26.8729 27.8981,26.6999 27.6171,26.5379 C26.4541,25.8659 24.9921,25.4749 23.4821,25.3639 C23.4471,25.2149 23.4401,25.0619 23.4621,24.9079 C22.9731,24.9149 22.4701,24.8619 21.9801,24.7429 C21.5511,24.6379 21.1711,24.4869 20.8531,24.3029 C19.9441,23.7779 19.5361,22.9879 19.8881,22.2469" id="Fill-358" fill="#FCCF8D"></path>
                    <path d="M36.3206,11.5781 C36.9196,11.9241 36.9016,12.4991 36.2806,12.8591 C35.6596,13.2201 34.6676,13.2331 34.0686,12.8871 C33.4726,12.5431 33.4916,11.9681 34.1126,11.6071 C34.7326,11.2471 35.7246,11.2341 36.3206,11.5781" id="Fill-359" fill="#FCCF8D"></path>
                    <path d="M51.0278,37.192 C50.7808,37.428 50.6188,37.685 50.5448,37.946 C49.7658,38.679 48.2318,39.09 46.7318,38.911 C46.9448,37.716 46.2568,36.476 44.6708,35.56 C43.4068,34.831 41.7898,34.432 40.1418,34.364 C40.1598,34.244 40.1958,34.123 40.2518,34.004 C40.7928,32.869 42.8348,32.217 44.7768,32.553 C45.1248,32.611 45.4478,32.702 45.7378,32.811 C46.5028,31.747 48.6658,31.21 50.5948,31.718 C50.9868,31.821 51.3358,31.963 51.6318,32.134 C52.4548,32.609 52.8678,33.305 52.6638,33.987 C52.4258,34.77 51.5018,35.353 50.3448,35.6 C50.9198,36.045 51.1898,36.616 51.0278,37.192" id="Fill-360" fill="#FCCF8D"></path>
                    <path d="M55.1606,37.5484 C55.7596,37.8944 55.7446,38.4674 55.1206,38.8294 C54.4996,39.1904 53.5116,39.2014 52.9126,38.8554 C52.8626,38.8264 52.8166,38.7954 52.7756,38.7634 C52.7886,38.7444 52.8016,38.7254 52.8136,38.7064 C53.0706,38.3024 53.1666,37.8904 53.1216,37.4914 C53.7446,37.2164 54.6166,37.2344 55.1606,37.5484" id="Fill-361" fill="#FCCF8D"></path>
                    <path d="M68.7906,27.5318 C68.1916,27.1858 68.2096,26.6108 68.8306,26.2508 C69.4516,25.8898 70.4436,25.8768 71.0426,26.2228 C71.6386,26.5668 71.6196,27.1418 70.9986,27.5028 C70.3786,27.8628 69.3866,27.8758 68.7906,27.5318" id="Fill-362" fill="#FCCF8D"></path>
                    <path d="M27.9152,37.02 C28.5112,37.364 28.4962,37.937 27.8752,38.297 C27.2512,38.66 26.2622,38.671 25.6672,38.327 C25.0672,37.981 25.0822,37.408 25.7072,37.045 C26.3272,36.684 27.3162,36.674 27.9152,37.02" id="Fill-363" fill="#FCCF8D"></path>
                    <path d="M15.585,21.2927 C16.184,21.6387 17.173,21.6237 17.793,21.2637 C18.414,20.9027 18.436,20.3297 17.837,19.9837 C17.238,19.6377 16.249,19.6527 15.628,20.0137 C15.008,20.3737 14.986,20.9467 15.585,21.2927 M17.586,21.7877 C17.431,22.0707 17.354,22.3567 17.347,22.6387 C16.219,22.7847 15.013,22.6137 14.159,22.1207 C13.661,21.8337 13.352,21.4767 13.23,21.0997 C13.019,20.4487 13.364,19.7387 14.255,19.2207 C14.551,19.0487 14.884,18.9117 15.238,18.8097 C16.567,18.4257 18.19,18.5357 19.262,19.1557 C19.706,19.4117 20,19.7237 20.145,20.0557 C18.958,20.4057 18.007,21.0187 17.586,21.7877" id="Fill-364" fill="#444546"></path>
                    <path d="M56.5861,36.7199 C57.9451,37.5039 57.9051,38.8029 56.4941,39.6229 C55.1351,40.4119 53.0001,40.4649 51.6321,39.7619 C52.1191,39.4839 52.5141,39.1469 52.7751,38.7639 C52.8171,38.7959 52.8621,38.8259 52.9121,38.8549 C53.5111,39.2009 54.5001,39.1909 55.1211,38.8299 C55.7451,38.4669 55.7601,37.8939 55.1611,37.5479 C54.6161,37.2339 53.7451,37.2159 53.1221,37.4919 C53.0781,37.0959 52.8951,36.7129 52.5961,36.3639 C53.9201,35.9909 55.5251,36.1069 56.5861,36.7199" id="Fill-365" fill="#444546"></path>
                    <path d="M68.8304,26.2504 C69.4514,25.8894 70.4434,25.8774 71.0424,26.2234 C71.6384,26.5674 71.6194,27.1414 70.9994,27.5024 C70.3784,27.8634 69.3864,27.8754 68.7904,27.5314 C68.1914,27.1854 68.2094,26.6114 68.8304,26.2504 M72.3724,28.2954 C73.7794,27.4774 73.8234,26.1774 72.4684,25.3944 C71.1094,24.6104 68.8684,24.6414 67.4604,25.4594 C66.0494,26.2794 66.0064,27.5754 67.3654,28.3604 C68.7194,29.1424 70.9614,29.1154 72.3724,28.2954" id="Fill-366" fill="#444546"></path>
                    <path d="M34.0686,12.8867 C34.6676,13.2327 35.6596,13.2197 36.2806,12.8597 C36.9016,12.4987 36.9196,11.9237 36.3206,11.5777 C35.7246,11.2337 34.7326,11.2467 34.1126,11.6077 C33.4916,11.9677 33.4726,12.5427 34.0686,12.8867 M37.7456,10.7497 C39.1046,11.5337 39.0646,12.8317 37.6536,13.6517 C36.2466,14.4697 34.0016,14.4997 32.6426,13.7147 C31.2876,12.9327 31.3316,11.6327 32.7386,10.8147 C34.1496,9.9947 36.3916,9.9677 37.7456,10.7497" id="Fill-367" fill="#444546"></path>
                    <path d="M25.6669,38.3266 C26.2629,38.6706 27.2509,38.6596 27.8749,38.2976 C28.4959,37.9366 28.5109,37.3636 27.9149,37.0196 C27.3159,36.6736 26.3279,36.6846 25.7069,37.0456 C25.0819,37.4076 25.0679,37.9806 25.6669,38.3266 M29.3409,36.1916 C30.6959,36.9736 30.6559,38.2716 29.2489,39.0896 C27.8379,39.9096 25.5959,39.9376 24.2409,39.1546 C22.8829,38.3706 22.9229,37.0726 24.3339,36.2526 C25.7409,35.4346 27.9819,35.4076 29.3409,36.1916" id="Fill-368" fill="#444546"></path>
                    <path d="M33.5538,19.2679 C34.6818,19.9189 35.2628,20.8629 35.0208,21.8019 C34.7258,22.9409 33.4018,23.7859 31.7388,24.1429 C32.7348,24.9149 33.0778,25.9569 32.4458,26.9469 C31.9398,27.7389 30.8688,28.3429 29.5778,28.6479 C29.3818,28.0839 28.9798,27.5389 28.3748,27.0529 C29.3678,26.8309 30.1888,26.3629 30.5308,25.7489 C30.9108,25.0699 30.6568,24.3669 29.9768,23.8409 C31.1348,23.5929 32.0578,23.0099 32.2958,22.2279 C32.4998,21.5459 32.0888,20.8509 31.2658,20.3749 C30.9698,20.2039 30.6198,20.0619 30.2268,19.9589 C29.3508,19.7279 28.4258,19.7129 27.6058,19.8649 C27.3588,19.9109 27.1218,19.9719 26.8978,20.0469 C26.2298,20.2699 25.6838,20.6169 25.3708,21.0519 C25.0798,20.9419 24.7608,20.8539 24.4098,20.7939 C22.4668,20.4579 20.4248,21.1099 19.8878,22.2469 C19.5358,22.9879 19.9438,23.7779 20.8528,24.3029 C21.1708,24.4869 21.5508,24.6379 21.9808,24.7429 C22.4698,24.8619 22.9738,24.9149 23.4618,24.9079 C23.4398,25.0619 23.4468,25.2149 23.4818,25.3639 C22.5648,25.2959 21.6308,25.3319 20.7348,25.4709 C20.0088,25.3189 19.3748,25.0809 18.8568,24.7819 C17.8858,24.2209 17.3258,23.4479 17.3468,22.6389 C17.3538,22.3569 17.4308,22.0709 17.5868,21.7879 C18.0068,21.0179 18.9578,20.4059 20.1448,20.0559 C20.4438,19.9679 20.7588,19.8959 21.0828,19.8429 C21.7628,19.7309 22.4888,19.7009 23.2158,19.7659 C23.9768,19.8329 24.6618,19.9939 25.2538,20.2189 C25.4338,19.9679 25.6708,19.7379 25.9508,19.5319 C26.6828,18.9939 27.7168,18.6229 28.8618,18.4779 C29.3458,18.4159 29.8498,18.3949 30.3588,18.4189 C30.9358,18.4459 31.5188,18.5309 32.0878,18.6789 C32.6428,18.8249 33.1358,19.0259 33.5538,19.2679" id="Fill-369" fill="#6A9951"></path>
                    <path d="M51.298,21.605 C52.782,22.173 54.827,22.045 56.05,21.221 C57.244,20.418 57.183,19.174 55.918,18.407 C55.897,18.393 55.875,18.381 55.853,18.368 C55.004,17.878 53.854,17.681 52.757,17.773 C52.913,17.14 52.571,16.471 51.725,15.983 C51.627,15.926 51.522,15.872 51.41,15.821 C51.393,15.813 51.376,15.805 51.359,15.798 C50.961,15.621 50.509,15.5 50.038,15.433 C49.13,15.304 48.147,15.378 47.326,15.657 C47.208,15.697 47.093,15.741 46.982,15.789 C46.693,15.917 46.447,16.063 46.245,16.221 C45.274,16.983 45.309,18.039 46.347,18.784 C46.043,18.881 45.754,19.002 45.498,19.151 C44.666,19.635 44.327,20.295 44.48,20.924 C44.535,21.15 44.653,21.372 44.835,21.58 C45.006,21.775 45.231,21.958 45.512,22.12 C45.53,22.13 45.548,22.14 45.566,22.15 C46.506,22.675 47.868,22.848 49.079,22.654 C49.458,22.593 49.823,22.496 50.155,22.363 C50.22,22.337 50.283,22.309 50.346,22.28 C50.758,22.087 51.075,21.857 51.298,21.605 M58.584,21.945 C56.848,23.043 54.041,23.201 51.998,22.415 C51.76,22.679 51.457,22.926 51.079,23.147 C50.793,23.312 50.488,23.452 50.165,23.568 C48.324,24.233 45.906,24.153 44.196,23.329 C44.077,23.272 43.962,23.211 43.851,23.147 C43.827,23.133 43.803,23.119 43.779,23.105 C43.749,23.087 43.721,23.069 43.692,23.051 C43.13,22.695 42.744,22.272 42.537,21.824 C42.436,21.606 42.378,21.382 42.363,21.157 C42.319,20.493 42.65,19.821 43.37,19.269 C43.839,18.912 44.406,18.642 45.024,18.447 C43.932,17.664 43.629,16.632 44.119,15.713 C44.231,15.503 44.384,15.298 44.58,15.104 C44.909,14.776 45.357,14.478 45.923,14.229 C46.435,14.003 47.01,13.841 47.612,13.745 C48.172,13.656 48.755,13.623 49.333,13.645 C50.298,13.684 51.248,13.878 52.049,14.229 C52.19,14.29 52.323,14.355 52.449,14.422 C52.5,14.449 52.55,14.477 52.598,14.505 C52.826,14.636 53.028,14.777 53.204,14.926 C53.946,15.55 54.227,16.303 54.049,17.022 C55.313,16.918 56.635,17.084 57.724,17.527 C57.959,17.622 58.183,17.73 58.393,17.852 C58.467,17.895 58.54,17.939 58.611,17.986 C60.067,18.945 60.285,20.321 59.275,21.387 C59.123,21.547 58.944,21.7 58.736,21.844 C58.687,21.878 58.636,21.912 58.584,21.945" id="Fill-370" fill="#6A9951"></path>
                    <path d="M53.9214,31.0272 C55.0494,31.6782 55.6314,32.6222 55.3884,33.5612 C55.0904,34.6982 53.7694,35.5452 52.1024,35.9002 C52.2914,36.0462 52.4564,36.2012 52.5954,36.3642 C52.8954,36.7132 53.0774,37.0962 53.1224,37.4922 C53.1664,37.8912 53.0714,38.3032 52.8134,38.7062 C52.8014,38.7252 52.7884,38.7442 52.7754,38.7632 C52.5144,39.1462 52.1194,39.4842 51.6324,39.7622 C50.4494,40.4382 48.7204,40.7692 47.0234,40.5682 C46.6554,40.5252 46.3064,40.4602 45.9784,40.3762 C46.3914,39.9142 46.6424,39.4172 46.7324,38.9112 C48.2324,39.0902 49.7664,38.6792 50.5444,37.9462 C50.6894,37.8102 50.8074,37.6632 50.8954,37.5062 C50.9544,37.4022 50.9984,37.2972 51.0274,37.1922 C51.1904,36.6162 50.9204,36.0452 50.3444,35.6002 C51.5024,35.3522 52.4254,34.7692 52.6634,33.9872 C52.8674,33.3052 52.4544,32.6092 51.6314,32.1342 C51.3354,31.9632 50.9864,31.8202 50.5944,31.7182 C48.6654,31.2102 46.5034,31.7472 45.7384,32.8112 C45.4474,32.7012 45.1254,32.6112 44.7774,32.5532 C42.8344,32.2172 40.7924,32.8692 40.2524,34.0042 C40.1964,34.1232 40.1594,34.2442 40.1414,34.3642 C39.3264,34.3312 38.5044,34.3782 37.7134,34.5072 C37.7004,34.1892 37.7754,33.8652 37.9504,33.5452 C38.7034,32.1772 41.1274,31.3032 43.5804,31.5232 C44.3444,31.5922 45.0264,31.7512 45.6174,31.9762 C46.6954,30.4782 49.7364,29.7252 52.4554,30.4392 C53.0104,30.5842 53.5034,30.7852 53.9214,31.0272" id="Fill-371" fill="#6A9951"></path>
                    <path d="M75.7819,26.8438 C75.9829,28.4058 76.4189,30.0338 75.4359,31.5398 C74.3419,33.2238 71.7969,34.3508 69.5359,35.5108 C69.2419,35.7968 68.8839,36.0668 68.4599,36.3128 C67.9899,36.5858 67.4699,36.8128 66.9169,36.9928 C66.5309,37.2538 66.1739,37.5278 65.8649,37.8208 C64.9029,38.7288 64.9199,39.6628 63.2249,40.2688 C60.3159,41.3068 56.4069,40.1988 53.1509,40.7988 C50.7319,41.2458 49.0409,42.5738 46.6319,43.0478 C44.7799,43.4128 42.7519,43.2238 40.8239,43.0008 C38.7839,42.7648 36.7299,42.4898 34.6479,42.4748 C31.1609,42.4518 27.3269,43.1058 24.3949,42.0068 C24.0239,41.8688 23.6919,41.7108 23.3909,41.5368 C22.1009,40.7918 21.3769,39.7568 20.6429,38.7168 C19.9049,37.6738 19.1589,36.6268 17.8069,35.8458 C16.9899,35.3768 15.9589,35.0168 15.1519,34.5508 C14.8439,34.3728 14.5679,34.1788 14.3489,33.9578 C13.8069,33.4068 13.6869,32.7558 13.5819,32.1268 C13.2269,30.0568 12.8749,27.9848 12.5219,25.9128 C12.3019,24.6268 12.0879,23.3078 12.6489,22.0598 C12.7979,21.7308 12.9989,21.4118 13.2299,21.0998 C13.0189,20.4488 13.3639,19.7388 14.2549,19.2208 C14.5509,19.0488 14.8849,18.9118 15.2379,18.8088 C15.6119,18.3698 15.9459,17.9208 16.1789,17.4508 C17.0449,15.7018 16.5589,13.6358 18.5649,12.2388 C20.0969,11.1758 22.6549,10.8338 25.0409,10.7268 C27.5389,10.6138 30.5689,10.5148 31.7089,9.2248 C32.2989,8.5578 32.1709,7.7358 32.7719,7.0748 C33.8409,5.9028 36.5989,5.7388 38.8839,5.8458 C41.3509,5.9618 43.8329,5.6388 46.2559,5.8668 C46.5319,5.8918 46.8069,5.9258 47.0609,5.9968 C47.3549,6.0788 47.6019,6.2088 47.8489,6.3388 C49.7659,7.3498 50.9219,8.0878 53.5619,8.3418 C55.5869,8.5368 58.1089,8.8258 60.1369,8.8258 C61.8799,9.0958 63.4759,9.6498 64.7539,10.3878 C66.0379,11.1288 67.0029,12.0568 67.4749,13.0708 C67.7819,13.7338 67.9169,14.4508 68.6189,15.0068 C68.7289,15.0938 68.8509,15.1748 68.9819,15.2508 C69.5729,15.5918 70.3549,15.8288 71.1269,16.0618 C71.9039,16.2978 72.6729,16.5288 73.2409,16.8568 C73.5319,17.0248 73.7699,17.2178 73.9299,17.4498 C74.7909,18.7088 73.8289,20.1008 74.8169,21.3948 C75.0829,21.7368 75.4399,22.0558 75.6809,22.4078 C76.5719,23.7088 75.5969,25.4408 75.7819,26.8438 M68.0899,10.4958 C53.9159,2.3118 31.0719,2.2768 17.0659,10.4158 C3.0639,18.5538 3.1999,31.7858 17.3739,39.9688 C31.5479,48.1518 54.3909,48.1878 68.3939,40.0498 C82.3999,31.9108 82.2639,18.6788 68.0899,10.4958" id="Fill-372" fill="#EEAA4D"></path>
                    <path d="M78.8096,25.2895 C78.8126,25.5405 78.8066,25.7905 78.7936,26.0415 C78.7896,26.1315 78.7836,26.2215 78.7766,26.3105 C78.7536,26.6285 78.7176,26.9445 78.6696,27.2605 C78.6556,27.3545 78.6406,27.4485 78.6236,27.5415 C78.5826,27.7755 78.5346,28.0095 78.4796,28.2425 C78.4716,28.2745 78.4646,28.3065 78.4566,28.3385 C78.4006,28.5705 78.3376,28.8015 78.2676,29.0325 C78.2426,29.1155 78.2166,29.1975 78.1906,29.2795 C77.7476,30.6445 77.0676,31.9875 76.1516,33.2875 C76.0736,33.3985 75.9946,33.5085 75.9126,33.6185 C75.6826,33.9305 75.4376,34.2395 75.1796,34.5445 C74.7276,35.0805 74.2336,35.6065 73.6966,36.1225 C73.3136,36.4905 72.9086,36.8535 72.4826,37.2105 C72.1416,37.4955 71.7866,37.7765 71.4176,38.0545 C70.4966,38.7475 69.4886,39.4145 68.3936,40.0505 C67.7376,40.4315 67.0616,40.7955 66.3686,41.1405 C65.9056,41.3715 65.4356,41.5935 64.9586,41.8075 C64.0036,42.2365 63.0196,42.6335 62.0106,42.9985 C61.0596,43.3425 60.0846,43.6575 59.0926,43.9445 C58.9596,43.9835 58.8266,44.0215 58.6936,44.0585 C58.3066,44.1675 57.9166,44.2715 57.5246,44.3715 C57.1876,44.4575 56.8486,44.5415 56.5076,44.6215 C55.9666,44.7475 55.4206,44.8665 54.8706,44.9775 C42.2276,47.5235 27.5616,45.8505 17.3736,39.9685 C10.1756,35.8135 6.5986,30.3555 6.6536,24.9245 C6.6546,24.8375 6.6566,24.7505 6.6596,24.6635 C6.6646,24.5055 6.6726,24.3465 6.6836,24.1885 C6.7076,23.8495 6.7456,23.5105 6.7976,23.1725 C6.8216,23.0215 6.8476,22.8705 6.8766,22.7205 C6.8836,22.6875 6.8896,22.6545 6.8966,22.6225 C6.9226,22.4925 6.9506,22.3625 6.9806,22.2325 C7.0106,22.1085 7.0416,21.9845 7.0736,21.8605 C7.1916,21.4185 7.3336,20.9775 7.5006,20.5395 C7.5566,20.3925 7.6156,20.2455 7.6776,20.0985 C7.7496,19.9265 7.8256,19.7555 7.9056,19.5845 C8.0376,19.3035 8.1786,19.0235 8.3306,18.7455 C8.3926,18.6315 8.4576,18.5185 8.5236,18.4045 C8.5786,18.3095 8.6346,18.2155 8.6916,18.1205 C8.8706,17.8275 9.0606,17.5355 9.2626,17.2465 C9.3796,17.0785 9.4996,16.9125 9.6246,16.7465 C9.7746,16.5465 9.9296,16.3485 10.0916,16.1505 C10.3426,15.8435 10.6076,15.5385 10.8866,15.2375 C11.0616,15.0495 11.2416,14.8625 11.4266,14.6765 C11.5416,14.5615 11.6576,14.4465 11.7766,14.3315 C11.9266,14.1885 12.0786,14.0465 12.2346,13.9045 C12.3146,13.8315 12.3956,13.7595 12.4776,13.6865 C12.8046,13.3975 13.1456,13.1125 13.5006,12.8305 C13.6776,12.6905 13.8586,12.5505 14.0436,12.4115 C14.3196,12.2035 14.6036,11.9985 14.8956,11.7955 C14.9926,11.7275 15.0916,11.6605 15.1906,11.5935 C15.3886,11.4585 15.5896,11.3255 15.7946,11.1935 C15.9996,11.0615 16.2086,10.9305 16.4196,10.8015 C16.6316,10.6715 16.8476,10.5435 17.0666,10.4165 C17.5036,10.1615 17.9506,9.9155 18.4046,9.6775 C18.8586,9.4385 19.3216,9.2085 19.7916,8.9855 C20.4276,8.6845 21.0786,8.3995 21.7416,8.1275 C21.8826,8.0705 22.0236,8.0125 22.1656,7.9565 C23.0826,7.5915 24.0226,7.2535 24.9826,6.9435 C25.7566,6.6935 26.5446,6.4615 27.3436,6.2475 C27.8756,6.1055 28.4126,5.9705 28.9546,5.8435 C29.8146,5.6425 30.6866,5.4625 31.5676,5.3015 C32.9026,5.0575 34.2586,4.8585 35.6286,4.7065 C36.1956,4.6435 36.7666,4.5885 37.3376,4.5415 C37.6236,4.5185 37.9096,4.4975 38.1966,4.4775 C38.4966,4.4575 38.7966,4.4395 39.0966,4.4235 C43.1066,4.2095 47.1716,4.3835 51.1106,4.9455 C51.6756,5.0265 52.2376,5.1155 52.7966,5.2115 C53.1216,5.2675 53.4446,5.3275 53.7676,5.3885 C54.5036,5.5295 55.2336,5.6835 55.9556,5.8515 C56.0596,5.8755 56.1636,5.9005 56.2666,5.9255 C57.2386,6.1575 58.1956,6.4155 59.1376,6.6985 C59.2796,6.7415 59.4226,6.7855 59.5646,6.8295 C60.0056,6.9665 60.4446,7.1085 60.8776,7.2565 C61.3916,7.4325 61.9006,7.6165 62.4026,7.8085 C63.1556,8.0965 63.8946,8.4025 64.6176,8.7265 C65.0996,8.9425 65.5746,9.1665 66.0416,9.3985 C66.5086,9.6305 66.9676,9.8705 67.4196,10.1185 C67.6446,10.2415 67.8686,10.3675 68.0896,10.4955 C69.5296,11.3265 70.8246,12.2105 71.9736,13.1345 C72.1506,13.2765 72.3246,13.4205 72.4946,13.5645 C72.5796,13.6365 72.6636,13.7085 72.7466,13.7815 C73.2466,14.2165 73.7156,14.6605 74.1536,15.1115 C74.2266,15.1865 74.2986,15.2615 74.3706,15.3375 C75.0836,16.0925 75.7106,16.8675 76.2516,17.6575 C76.3056,17.7365 76.3596,17.8165 76.4116,17.8955 C76.9356,18.6885 77.3736,19.4955 77.7266,20.3125 C77.8676,20.6395 77.9946,20.9675 78.1076,21.2975 C78.4196,22.2035 78.6286,23.1185 78.7326,24.0365 C78.7416,24.1195 78.7506,24.2035 78.7576,24.2865 C78.7736,24.4535 78.7856,24.6215 78.7936,24.7885 C78.7986,24.8715 78.8016,24.9555 78.8046,25.0385 C78.8066,25.1225 78.8086,25.2055 78.8096,25.2895 M72.8066,7.7545 C56.0896,-1.8965 29.0716,-1.8965 12.4606,7.7565 C-4.1484,17.4085 -4.0604,33.0585 12.6566,42.7095 C29.3736,52.3615 56.3916,52.3615 72.9996,42.7095 C89.6116,33.0555 89.5236,17.4065 72.8066,7.7545" id="Fill-373" fill="#F79E3C"></path>
                    <path d="M72.468,25.3947 C71.109,24.6107 68.868,24.6417 67.461,25.4597 C66.05,26.2797 66.006,27.5757 67.365,28.3607 C68.72,29.1427 70.961,29.1157 72.372,28.2957 C73.78,27.4777 73.823,26.1767 72.468,25.3947 M24.241,39.1547 C25.596,39.9377 27.837,39.9097 29.248,39.0897 C30.656,38.2717 30.696,36.9737 29.341,36.1917 C27.982,35.4077 25.741,35.4347 24.334,36.2527 C22.923,37.0727 22.883,38.3707 24.241,39.1547 M32.643,13.7157 C34.002,14.4997 36.246,14.4697 37.654,13.6527 C39.065,12.8327 39.105,11.5337 37.746,10.7497 C36.391,9.9677 34.15,9.9947 32.739,10.8147 C31.331,11.6327 31.288,12.9327 32.643,13.7157 M51.632,39.7627 C53.001,40.4647 55.135,40.4117 56.494,39.6227 C57.905,38.8027 57.945,37.5047 56.586,36.7197 C55.525,36.1067 53.92,35.9907 52.596,36.3637 C52.456,36.2007 52.291,36.0457 52.103,35.8997 C53.77,35.5457 55.09,34.6987 55.388,33.5617 C55.631,32.6227 55.049,31.6787 53.921,31.0267 C53.503,30.7857 53.01,30.5847 52.456,30.4387 C49.736,29.7257 46.695,30.4787 45.618,31.9757 C45.026,31.7517 44.344,31.5927 43.58,31.5227 C41.128,31.3027 38.703,32.1777 37.95,33.5447 C37.776,33.8647 37.7,34.1897 37.713,34.5067 C36.576,34.6907 35.504,35.0417 34.613,35.5607 C31.845,37.1687 31.859,39.7777 34.645,41.3867 C37.432,42.9947 41.936,42.9947 44.704,41.3867 C45.229,41.0807 45.654,40.7397 45.979,40.3767 C46.307,40.4597 46.656,40.5247 47.024,40.5687 C48.72,40.7687 50.449,40.4377 51.632,39.7627 M39.718,22.1277 C36.95,23.7357 36.965,26.3447 39.751,27.9537 C42.537,29.5617 47.041,29.5617 49.809,27.9537 C52.046,26.6537 52.466,24.6997 51.074,23.1497 C51.458,22.9267 51.76,22.6787 51.998,22.4147 C54.041,23.2007 56.848,23.0437 58.584,21.9447 C58.742,22.0577 58.912,22.1667 59.094,22.2717 C61.88,23.8807 66.38,23.8787 69.148,22.2697 C71.916,20.6607 71.905,18.0547 69.119,16.4457 C66.333,14.8367 61.829,14.8367 59.061,16.4457 C58.502,16.7707 58.056,17.1367 57.724,17.5267 C56.635,17.0837 55.313,16.9177 54.049,17.0227 C54.227,16.3027 53.946,15.5497 53.204,14.9257 C55.649,13.3077 55.526,10.8427 52.851,9.2987 C50.065,7.6897 45.564,7.6877 42.796,9.2967 C40.028,10.9047 40.043,13.5137 42.829,15.1227 C43.227,15.3527 43.66,15.5487 44.119,15.7137 C43.629,16.6327 43.932,17.6637 45.024,18.4467 C44.406,18.6417 43.839,18.9127 43.37,19.2687 C42.65,19.8207 42.319,20.4927 42.363,21.1567 C41.397,21.3557 40.49,21.6787 39.718,22.1277 M65.865,37.8207 C64.903,38.7287 64.919,39.6627 63.225,40.2687 C60.316,41.3067 56.406,40.1997 53.151,40.7987 C50.731,41.2457 49.041,42.5737 46.632,43.0477 C44.78,43.4127 42.752,43.2237 40.824,43.0017 C38.784,42.7647 36.73,42.4897 34.648,42.4747 C31.161,42.4517 27.327,43.1067 24.395,42.0077 C24.024,41.8687 23.692,41.7107 23.391,41.5367 C22.101,40.7917 21.377,39.7567 20.643,38.7167 C19.905,37.6737 19.159,36.6267 17.82,35.8537 C16.989,35.3767 15.959,35.0167 15.152,34.5507 C14.844,34.3727 14.568,34.1787 14.349,33.9577 C13.807,33.4067 13.687,32.7567 13.582,32.1267 C13.227,30.0567 12.874,27.9847 12.522,25.9127 C12.302,24.6277 12.088,23.3077 12.649,22.0607 C12.798,21.7307 12.998,21.4117 13.23,21.0997 C13.352,21.4767 13.661,21.8337 14.159,22.1207 C15.013,22.6137 16.219,22.7847 17.347,22.6387 C17.326,23.4477 17.885,24.2207 18.857,24.7827 C19.375,25.0807 20.009,25.3197 20.735,25.4707 C19.572,25.6517 18.473,26.0067 17.562,26.5357 C14.791,28.1467 14.809,30.7537 17.595,32.3617 C20.381,33.9707 24.882,33.9727 27.654,32.3617 C29.391,31.3527 30.03,29.9497 29.577,28.6477 C30.869,28.3427 31.94,27.7387 32.446,26.9467 C33.078,25.9567 32.735,24.9147 31.739,24.1427 C33.402,23.7867 34.726,22.9407 35.02,21.8027 C35.263,20.8627 34.681,19.9187 33.554,19.2677 C33.135,19.0267 32.642,18.8257 32.088,18.6797 C31.519,18.5307 30.936,18.4457 30.359,18.4187 C32.123,16.8237 31.792,14.6747 29.375,13.2787 C26.588,11.6707 22.084,11.6707 19.316,13.2787 C16.548,14.8877 16.563,17.4967 19.349,19.1057 C19.874,19.4087 20.459,19.6537 21.083,19.8427 C20.758,19.8957 20.444,19.9677 20.145,20.0557 C20,19.7237 19.706,19.4117 19.262,19.1557 C18.19,18.5357 16.567,18.4257 15.238,18.8097 C15.612,18.3697 15.946,17.9207 16.179,17.4507 C17.045,15.7017 16.559,13.6357 18.565,12.2387 C20.097,11.1757 22.655,10.8337 25.041,10.7267 C27.538,10.6137 30.568,10.5147 31.709,9.2247 C32.299,8.5577 32.171,7.7357 32.772,7.0757 C33.841,5.9027 36.599,5.7397 38.884,5.8467 C41.351,5.9617 43.833,5.6387 46.256,5.8667 C46.532,5.8927 46.807,5.9257 47.061,5.9977 C47.355,6.0787 47.601,6.2087 47.848,6.3387 C49.766,7.3497 50.921,8.0877 53.562,8.3417 C55.587,8.5367 58.109,8.8267 60.137,8.8267 C61.88,9.0967 63.476,9.6497 64.754,10.3877 C66.038,11.1297 67.003,12.0567 67.474,13.0717 C67.782,13.7337 67.917,14.4507 68.619,15.0067 C68.729,15.0937 68.851,15.1747 68.982,15.2507 C69.573,15.5917 70.355,15.8287 71.127,16.0617 C71.904,16.2977 72.673,16.5287 73.241,16.8567 C73.532,17.0247 73.77,17.2177 73.93,17.4507 C74.791,18.7087 73.829,20.1017 74.817,21.3957 C75.083,21.7367 75.44,22.0557 75.681,22.4077 C76.572,23.7087 75.597,25.4407 75.782,26.8437 C75.983,28.4067 76.419,30.0337 75.435,31.5397 C74.342,33.2247 71.797,34.3507 69.536,35.5107 C71.158,33.9297 70.786,31.8527 68.423,30.4887 C65.637,28.8807 61.14,28.8807 58.372,30.4887 C55.604,32.0977 55.615,34.7047 58.401,36.3127 C60.717,37.6507 64.213,37.8757 66.917,36.9937 C66.531,37.2537 66.174,37.5277 65.865,37.8207" id="Fill-374" fill="#FCCF8D"></path>
                    <path d="M47.6301,10.0009 C47.8261,10.1139 47.8271,10.2989 47.6291,10.4139 C47.4341,10.5269 47.1151,10.5269 46.9191,10.4139 C46.7191,10.2989 46.7181,10.1139 46.9131,10.0009 C47.1121,9.8859 47.4301,9.8859 47.6301,10.0009" id="Fill-375" fill="#C25646"></path>
                    <path d="M24.1467,13.9816 C24.3467,14.0966 24.3477,14.2816 24.1527,14.3946 C23.9577,14.5076 23.6387,14.5076 23.4397,14.3926 C23.2437,14.2796 23.2417,14.0946 23.4367,13.9816 C23.6317,13.8686 23.9507,13.8686 24.1467,13.9816" id="Fill-376" fill="#C25646"></path>
                    <path d="M47.3257,15.6565 C48.2417,15.7035 49.1717,15.6295 50.0387,15.4335 C50.5097,15.4995 50.9607,15.6215 51.3587,15.7975 C49.7927,16.3105 47.9607,16.4515 46.2447,16.2205 C46.4467,16.0625 46.6927,15.9165 46.9817,15.7895 C47.0927,15.7405 47.2077,15.6965 47.3257,15.6565" id="Fill-377" fill="#C25646"></path>
                    <path d="M22.3589,16.708 C22.5989,16.846 22.5999,17.069 22.3619,17.207 C22.1239,17.346 21.7359,17.348 21.4959,17.209 C21.2569,17.071 21.2549,16.844 21.4939,16.706 C21.7319,16.567 22.1189,16.57 22.3589,16.708" id="Fill-378" fill="#C25646"></path>
                    <path d="M25.6658,16.9157 C26.0728,17.1507 26.0748,17.5327 25.6708,17.7667 C25.2628,18.0037 24.6038,18.0037 24.1968,17.7697 C23.7868,17.5327 23.7848,17.1507 24.1918,16.9137 C24.5968,16.6787 25.2558,16.6787 25.6658,16.9157" id="Fill-379" fill="#C25646"></path>
                    <path d="M24.658,18.6207 C24.854,18.7337 24.852,18.9207 24.657,19.0337 C24.462,19.1467 24.143,19.1467 23.947,19.0337 C23.751,18.9207 23.75,18.7357 23.945,18.6227 C24.14,18.5097 24.462,18.5077 24.658,18.6207" id="Fill-380" fill="#C25646"></path>
                    <path d="M68.6574,19.3147 C69.0064,19.5157 69.0044,19.8407 68.6574,20.0427 C68.3114,20.2437 67.7504,20.2457 67.4014,20.0447 C67.0524,19.8437 67.0514,19.5157 67.3974,19.3147 C67.7434,19.1137 68.3084,19.1137 68.6574,19.3147" id="Fill-381" fill="#C25646"></path>
                    <path d="M28.5735,13.7445 C26.2345,12.3935 22.4465,12.3935 20.1225,13.7445 C17.7985,15.0955 17.8105,17.2885 20.1505,18.6395 C21.7245,19.5485 23.9535,19.8455 25.9515,19.5315 C25.6705,19.7375 25.4345,19.9675 25.2535,20.2185 C24.6625,19.9945 23.9765,19.8325 23.2165,19.7655 C22.4885,19.7005 21.7635,19.7315 21.0825,19.8425 C20.4595,19.6535 19.8735,19.4085 19.3495,19.1055 C16.5625,17.4965 16.5485,14.8875 19.3165,13.2785 C22.0845,11.6705 26.5885,11.6705 29.3745,13.2785 C31.7925,14.6745 32.1225,16.8235 30.3595,18.4185 C29.8505,18.3955 29.3465,18.4155 28.8625,18.4775 C30.9205,17.1185 30.8215,15.0425 28.5735,13.7445" id="Fill-382" fill="#C25646"></path>
                    <path d="M65.4067,20.0802 C65.8167,20.3172 65.8197,20.6992 65.4117,20.9362 C65.0077,21.1712 64.3487,21.1712 63.9377,20.9342 C63.5307,20.6992 63.5287,20.3172 63.9327,20.0822 C64.3407,19.8452 64.9997,19.8452 65.4067,20.0802" id="Fill-383" fill="#C25646"></path>
                    <path d="M48.9754,22.5928 C47.8294,21.9308 46.3344,21.5938 44.8354,21.5808 C44.6534,21.3718 44.5344,21.1498 44.4794,20.9238 C46.3854,20.8838 48.3174,21.2848 49.7764,22.1268 C49.9094,22.2038 50.0344,22.2818 50.1544,22.3628 C49.8224,22.4958 49.4584,22.5928 49.0784,22.6538 C49.0444,22.6328 49.0104,22.6128 48.9754,22.5928" id="Fill-384" fill="#C25646"></path>
                    <path d="M63.1802,17.5614 C63.3762,17.6744 63.6952,17.6744 63.8932,17.5594 C64.0882,17.4464 64.0872,17.2614 63.8912,17.1484 C63.6952,17.0354 63.3762,17.0354 63.1812,17.1484 C62.9832,17.2634 62.9842,17.4484 63.1802,17.5614 M63.6882,22.2024 C63.8842,22.3154 64.2032,22.3164 64.4012,22.2004 C64.5962,22.0874 64.5952,21.9024 64.3992,21.7894 C64.1992,21.6744 63.8802,21.6744 63.6852,21.7874 C63.4872,21.9024 63.4882,22.0874 63.6882,22.2024 M61.2412,20.3764 C61.4802,20.5144 61.8642,20.5144 62.1022,20.3764 C62.3412,20.2374 62.3432,20.0134 62.1032,19.8744 C61.8632,19.7364 61.4722,19.7364 61.2342,19.8744 C60.9962,20.0134 61.0012,20.2374 61.2412,20.3764 M67.4012,20.0444 C67.7502,20.2454 68.3112,20.2434 68.6582,20.0424 C69.0042,19.8414 69.0062,19.5164 68.6572,19.3144 C68.3082,19.1134 67.7442,19.1134 67.3972,19.3144 C67.0512,19.5164 67.0532,19.8434 67.4012,20.0444 M63.9382,20.9334 C64.3482,21.1704 65.0072,21.1704 65.4112,20.9364 C65.8192,20.6984 65.8172,20.3174 65.4062,20.0804 C65.0002,19.8454 64.3412,19.8454 63.9332,20.0824 C63.5292,20.3174 63.5312,20.6984 63.9382,20.9334 M68.3142,16.9134 C70.6542,18.2644 70.6662,20.4534 68.3422,21.8044 C66.0142,23.1564 62.2342,23.1574 59.8952,21.8064 C59.6652,21.6744 59.4592,21.5334 59.2752,21.3874 C60.2842,20.3214 60.0672,18.9454 58.6422,18.0064 C58.6322,17.9994 58.6212,17.9924 58.6112,17.9854 C58.9002,17.5954 59.3182,17.2304 59.8672,16.9114 C62.1912,15.5604 65.9712,15.5604 68.3142,16.9134" id="Fill-385" fill="#E5906F"></path>
                    <path d="M44.1959,23.3288 C44.0669,23.3288 43.9369,23.3008 43.8379,23.2428 C43.7459,23.1898 43.6979,23.1208 43.6919,23.0508 C43.7209,23.0688 43.7499,23.0868 43.7789,23.1048 C43.8029,23.1188 43.8269,23.1328 43.8509,23.1468 C43.9619,23.2118 44.0769,23.2718 44.1959,23.3288" id="Fill-386" fill="#C25646"></path>
                    <path d="M49.3148,24.9963 C49.6638,25.1973 49.6658,25.5243 49.3188,25.7263 C48.9728,25.9273 48.4108,25.9253 48.0628,25.7243 C47.7138,25.5223 47.7088,25.1973 48.0548,24.9963 C48.4008,24.7953 48.9658,24.7953 49.3148,24.9963" id="Fill-387" fill="#C25646"></path>
                    <path d="M42.7609,25.5563 C43.0009,25.6943 43.0019,25.9173 42.7639,26.0553 C42.5259,26.1943 42.1379,26.1963 41.8979,26.0573 C41.6589,25.9193 41.6569,25.6923 41.8959,25.5543 C42.1339,25.4153 42.5209,25.4183 42.7609,25.5563" id="Fill-388" fill="#C25646"></path>
                    <path d="M46.0678,25.7639 C46.4748,25.9989 46.4768,26.3809 46.0728,26.6149 C45.6648,26.8519 45.0058,26.8519 44.5988,26.6179 C44.1888,26.3809 44.1858,25.9989 44.5938,25.7619 C44.9978,25.5269 45.6568,25.5269 46.0678,25.7639" id="Fill-389" fill="#C25646"></path>
                    <path d="M45.0563,27.4711 C45.2523,27.5841 45.2533,27.7691 45.0583,27.8821 C44.8633,27.9951 44.5453,27.9951 44.3493,27.8821 C44.1533,27.7691 44.1523,27.5841 44.3463,27.4711 C44.5413,27.3581 44.8603,27.3581 45.0563,27.4711" id="Fill-390" fill="#C25646"></path>
                    <path d="M46.9192,10.414 C47.1152,10.527 47.4342,10.527 47.6292,10.414 C47.8272,10.299 47.8262,10.114 47.6302,10.001 C47.4302,9.885 47.1122,9.885 46.9132,10.001 C46.7182,10.114 46.7192,10.299 46.9192,10.414 M44.9762,13.226 C45.2162,13.365 45.6032,13.367 45.8412,13.228 C46.0792,13.09 46.0782,12.864 45.8382,12.725 C45.5992,12.587 45.2112,12.589 44.9732,12.727 C44.7352,12.866 44.7362,13.088 44.9762,13.226 M51.1372,12.895 C51.4852,13.096 52.0502,13.096 52.3972,12.895 C52.7432,12.694 52.7382,12.369 52.3892,12.167 C52.0402,11.966 51.4832,11.966 51.1362,12.167 C50.7902,12.369 50.7882,12.694 51.1372,12.895 M52.4492,14.422 C52.3232,14.355 52.1902,14.29 52.0492,14.229 C51.2482,13.878 50.2982,13.684 49.3322,13.645 C49.5422,13.416 49.4782,13.125 49.1452,12.933 C48.7352,12.696 48.0762,12.696 47.6682,12.933 C47.2872,13.155 47.2672,13.507 47.6122,13.745 C47.0102,13.841 46.4352,14.003 45.9232,14.229 C45.3572,14.478 44.9092,14.776 44.5802,15.104 C44.2442,14.976 43.9252,14.827 43.6302,14.657 C41.2902,13.306 41.2752,11.115 43.6022,9.762 C45.9262,8.411 49.7102,8.413 52.0492,9.764 C54.2582,11.039 54.3962,13.063 52.4492,14.422" id="Fill-391" fill="#E5906F"></path>
                    <path d="M45.8386,12.7252 C46.0786,12.8632 46.0796,13.0902 45.8416,13.2282 C45.6036,13.3672 45.2156,13.3652 44.9766,13.2262 C44.7366,13.0882 44.7346,12.8662 44.9736,12.7272 C45.2116,12.5892 45.5986,12.5872 45.8386,12.7252" id="Fill-392" fill="#C25646"></path>
                    <path d="M49.1456,12.9328 C49.4776,13.1248 49.5426,13.4158 49.3326,13.6458 C48.7546,13.6228 48.1716,13.6558 47.6116,13.7448 C47.2676,13.5068 47.2866,13.1548 47.6686,12.9328 C48.0766,12.6958 48.7356,12.6958 49.1456,12.9328" id="Fill-393" fill="#C25646"></path>
                    <path d="M47.3257,15.6565 C48.1467,15.3785 49.1297,15.3045 50.0387,15.4335 C49.1717,15.6295 48.2417,15.7035 47.3257,15.6565" id="Fill-394" fill="#E5906F"></path>
                    <path d="M28.9129,16.148 C29.2619,16.349 29.2639,16.677 28.9169,16.878 C28.5709,17.079 28.0089,17.077 27.6609,16.876 C27.3119,16.674 27.3069,16.349 27.6529,16.148 C27.9989,15.947 28.5639,15.947 28.9129,16.148" id="Fill-395" fill="#C25646"></path>
                    <path d="M27.6059,19.8652 C27.3749,19.9332 27.1389,19.9942 26.8979,20.0462 C27.1219,19.9722 27.3589,19.9112 27.6059,19.8652" id="Fill-396" fill="#C25646"></path>
                    <path d="M69.1192,16.4456 C71.9052,18.0546 71.9162,20.6616 69.1482,22.2696 C66.3802,23.8786 61.8802,23.8806 59.0932,22.2716 C58.9122,22.1666 58.7422,22.0576 58.5842,21.9446 C58.6352,21.9116 58.6862,21.8786 58.7362,21.8436 C58.9442,21.7006 59.1232,21.5476 59.2752,21.3866 C59.4592,21.5336 59.6662,21.6736 59.8952,21.8066 C62.2342,23.1566 66.0142,23.1566 68.3422,21.8046 C70.6662,20.4536 70.6542,18.2636 68.3142,16.9136 C65.9712,15.5606 62.1912,15.5606 59.8672,16.9116 C59.3182,17.2306 58.9002,17.5956 58.6112,17.9856 C58.5402,17.9396 58.4672,17.8946 58.3932,17.8516 C58.1832,17.7306 57.9592,17.6226 57.7242,17.5266 C58.0562,17.1366 58.5012,16.7706 59.0612,16.4456 C61.8292,14.8366 66.3332,14.8366 69.1192,16.4456" id="Fill-397" fill="#C25646"></path>
                    <path d="M44.3489,27.8821 C44.5449,27.9951 44.8639,27.9951 45.0589,27.8821 C45.2539,27.7691 45.2529,27.5841 45.0559,27.4711 C44.8599,27.3581 44.5419,27.3581 44.3469,27.4711 C44.1519,27.5841 44.1529,27.7691 44.3489,27.8821 M41.8979,26.0571 C42.1379,26.1961 42.5259,26.1941 42.7639,26.0551 C43.0019,25.9171 43.0009,25.6951 42.7609,25.5561 C42.5209,25.4181 42.1339,25.4161 41.8959,25.5541 C41.6569,25.6931 41.6589,25.9191 41.8979,26.0571 M48.0629,25.7241 C48.4109,25.9251 48.9729,25.9271 49.3189,25.7261 C49.6659,25.5251 49.6639,25.1981 49.3149,24.9961 C48.9659,24.7951 48.4009,24.7951 48.0549,24.9961 C47.7079,25.1981 47.7139,25.5231 48.0629,25.7241 M44.5989,26.6171 C45.0059,26.8521 45.6649,26.8521 46.0729,26.6151 C46.4769,26.3801 46.4749,25.9991 46.0679,25.7641 C45.6569,25.5271 44.9979,25.5271 44.5939,25.7621 C44.1859,25.9991 44.1879,26.3801 44.5989,26.6171 M50.1649,23.5681 C51.2109,24.8511 50.8259,26.4291 49.0029,27.4881 C46.6789,28.8381 42.8919,28.8381 40.5519,27.4881 C38.2129,26.1371 38.2009,23.9431 40.5249,22.5931 C41.1169,22.2491 41.8039,21.9931 42.5369,21.8241 C42.7439,22.2721 43.1299,22.6951 43.6919,23.0511 C43.6979,23.1211 43.7459,23.1901 43.8379,23.2431 C43.9369,23.3001 44.0669,23.3291 44.1959,23.3291 C45.9059,24.1531 48.3239,24.2331 50.1649,23.5681" id="Fill-398" fill="#E5906F"></path>
                    <path d="M51.0735,23.1493 C52.4655,24.7003 52.0465,26.6533 49.8095,27.9533 C47.0415,29.5623 42.5375,29.5623 39.7505,27.9533 C36.9645,26.3453 36.9505,23.7363 39.7185,22.1273 C40.4895,21.6793 41.3965,21.3553 42.3625,21.1573 C42.3785,21.3823 42.4365,21.6063 42.5375,21.8243 C41.8035,21.9923 41.1165,22.2493 40.5245,22.5933 C38.2005,23.9433 38.2125,26.1373 40.5525,27.4883 C42.8915,28.8383 46.6785,28.8383 49.0035,27.4883 C50.8255,26.4283 51.2115,24.8513 50.1645,23.5683 C50.4875,23.4513 50.7925,23.3123 51.0735,23.1493" id="Fill-399" fill="#C25646"></path>
                    <path d="M27.1554,29.407 C27.5044,29.608 27.5094,29.933 27.1634,30.135 C26.8164,30.336 26.2514,30.336 25.9034,30.135 C25.5584,29.936 25.5564,29.608 25.9024,29.407 C26.2494,29.206 26.8104,29.208 27.1554,29.407" id="Fill-400" fill="#C25646"></path>
                    <path d="M23.9119,30.1725 C24.3219,30.4095 24.3249,30.7915 23.9169,31.0285 C23.5129,31.2635 22.8499,31.2655 22.4399,31.0285 C22.0329,30.7935 22.0309,30.4075 22.4349,30.1725 C22.8429,29.9355 23.5049,29.9375 23.9119,30.1725" id="Fill-401" fill="#C25646"></path>
                    <path d="M61.4149,33.918 C61.6509,34.054 61.6519,34.281 61.4139,34.419 C61.1759,34.558 60.7889,34.556 60.5519,34.419 C60.3129,34.281 60.3079,34.056 60.5459,33.918 C60.7839,33.78 61.1749,33.78 61.4149,33.918" id="Fill-402" fill="#C25646"></path>
                    <path d="M64.7181,34.1236 C65.1281,34.3606 65.1311,34.7426 64.7231,34.9796 C64.3191,35.2146 63.6601,35.2146 63.2491,34.9776 C62.8421,34.7426 62.8401,34.3606 63.2441,34.1256 C63.6521,33.8886 64.3111,33.8886 64.7181,34.1236" id="Fill-403" fill="#C25646"></path>
                    <path d="M62.4917,31.6047 C62.6877,31.7177 63.0067,31.7177 63.2017,31.6047 C63.3997,31.4897 63.3987,31.3047 63.2027,31.1917 C63.0067,31.0787 62.6877,31.0787 62.4897,31.1937 C62.2947,31.3067 62.2957,31.4917 62.4917,31.6047 M62.9997,36.2457 C63.1957,36.3587 63.5137,36.3587 63.7127,36.2437 C63.9077,36.1307 63.9067,35.9457 63.7107,35.8327 C63.5107,35.7177 63.1917,35.7177 62.9967,35.8307 C62.7987,35.9457 62.7997,36.1307 62.9997,36.2457 M60.5527,34.4197 C60.7887,34.5557 61.1757,34.5577 61.4137,34.4197 C61.6527,34.2807 61.6507,34.0547 61.4147,33.9177 C61.1747,33.7797 60.7837,33.7797 60.5457,33.9177 C60.3077,34.0567 60.3127,34.2807 60.5527,34.4197 M66.7127,34.0877 C67.0577,34.2867 67.6227,34.2867 67.9697,34.0857 C68.3157,33.8847 68.3107,33.5597 67.9657,33.3597 C67.6167,33.1587 67.0557,33.1567 66.7087,33.3577 C66.3627,33.5597 66.3647,33.8867 66.7127,34.0877 M63.2497,34.9767 C63.6597,35.2137 64.3187,35.2137 64.7227,34.9787 C65.1307,34.7417 65.1287,34.3607 64.7177,34.1237 C64.3117,33.8887 63.6527,33.8887 63.2447,34.1257 C62.8407,34.3607 62.8427,34.7417 63.2497,34.9767 M67.6227,30.9547 C69.9657,32.3077 69.9777,34.4967 67.6537,35.8477 C65.3257,37.1997 61.5457,37.1997 59.2027,35.8477 C56.8637,34.4967 56.8507,32.3077 59.1787,30.9547 C61.5027,29.6037 65.2827,29.6037 67.6227,30.9547" id="Fill-404" fill="#E5906F"></path>
                    <path d="M67.9653,33.3601 C68.3103,33.5591 68.3163,33.8841 67.9693,34.0861 C67.6233,34.2871 67.0583,34.2871 66.7133,34.0881 C66.3643,33.8861 66.3623,33.5591 66.7093,33.3581 C67.0553,33.1571 67.6163,33.1591 67.9653,33.3601" id="Fill-405" fill="#C25646"></path>
                    <path d="M59.2026,35.8474 C61.5456,37.2004 65.3256,37.2004 67.6536,35.8474 C69.9776,34.4964 69.9656,32.3074 67.6226,30.9544 C65.2826,29.6034 61.5026,29.6044 59.1786,30.9544 C56.8506,32.3074 56.8636,34.4964 59.2026,35.8474 M69.5356,35.5104 C69.2426,35.7964 68.8836,36.0664 68.4596,36.3134 C67.9896,36.5864 67.4696,36.8124 66.9166,36.9934 C64.2126,37.8754 60.7176,37.6504 58.4016,36.3134 C55.6156,34.7044 55.6046,32.0974 58.3726,30.4894 C61.1406,28.8804 65.6376,28.8804 68.4236,30.4884 C70.7856,31.8524 71.1576,33.9294 69.5356,35.5104" id="Fill-406" fill="#C25646"></path>
                    <path d="M63.1229,31.6419 C63.1509,31.6309 63.1769,31.6189 63.2009,31.6049 C63.2389,31.5829 63.2689,31.5589 63.2919,31.5339 C63.3039,31.5199 63.3139,31.5059 63.3229,31.4909 C63.3279,31.4819 63.3319,31.4739 63.3359,31.4649 C63.3449,31.4429 63.3499,31.4199 63.3499,31.3969 C63.3499,31.3859 63.3479,31.3739 63.3459,31.3629 C63.3389,31.3279 63.3209,31.2939 63.2919,31.2619 C63.2689,31.2369 63.2399,31.2129 63.2029,31.1919 C63.0069,31.0779 62.6879,31.0779 62.4889,31.1939 C62.3919,31.2499 62.3439,31.3249 62.3439,31.3989 C62.3439,31.4089 62.3449,31.4179 62.3459,31.4269 C62.3509,31.4549 62.3629,31.4819 62.3809,31.5089 C62.4059,31.5439 62.4429,31.5759 62.4919,31.6049 C62.5899,31.6609 62.7189,31.6899 62.8469,31.6899 C62.8789,31.6899 62.9109,31.6879 62.9429,31.6839 C63.0059,31.6769 63.0679,31.6629 63.1229,31.6419" id="Fill-407" fill="#C25646"></path>
                    <path d="M22.9005,31.8797 C23.1005,31.9947 23.1015,32.1797 22.9065,32.2927 C22.7085,32.4087 22.3895,32.4087 22.1895,32.2927 C21.9935,32.1797 21.9925,31.9947 22.1905,31.8797 C22.3855,31.7667 22.7045,31.7667 22.9005,31.8797" id="Fill-408" fill="#C25646"></path>
                    <path d="M18.3964,31.8964 C20.7394,33.2494 24.5194,33.2494 26.8474,31.8964 C29.1714,30.5454 29.1594,28.3564 26.8164,27.0034 C24.4764,25.6524 20.6964,25.6524 18.3724,27.0034 C16.0444,28.3564 16.0574,30.5454 18.3964,31.8964 M29.5774,28.6474 C30.0304,29.9504 29.3904,31.3524 27.6534,32.3624 C24.8824,33.9724 20.3814,33.9704 17.5954,32.3624 C14.8094,30.7534 14.7904,28.1464 17.5624,26.5354 C18.4734,26.0064 19.5714,25.6514 20.7344,25.4714 C21.6304,25.3314 22.5654,25.2964 23.4814,25.3634 C24.9914,25.4744 26.4534,25.8664 27.6174,26.5374 C27.8984,26.7004 28.1504,26.8724 28.3754,27.0534 C28.9804,27.5394 29.3814,28.0844 29.5774,28.6474" id="Fill-409" fill="#C25646"></path>
                    <path d="M20.6014,29.9669 C20.8414,30.1049 20.8464,30.3299 20.6084,30.4679 C20.3694,30.6069 19.9824,30.6049 19.7424,30.4659 C19.5024,30.3279 19.5014,30.1049 19.7394,29.9669 C19.9784,29.8289 20.3614,29.8289 20.6014,29.9669" id="Fill-410" fill="#C25646"></path>
                    <path d="M27.1631,30.1347 C26.8171,30.3357 26.2521,30.3357 25.9031,30.1347 C25.5581,29.9357 25.5561,29.6087 25.9031,29.4067 C26.2491,29.2057 26.8101,29.2077 27.1551,29.4067 C27.5041,29.6087 27.5091,29.9337 27.1631,30.1347 M23.9171,31.0277 C23.5121,31.2627 22.8501,31.2647 22.4391,31.0287 C22.0331,30.7937 22.0301,30.4077 22.4351,30.1727 C22.8421,29.9357 23.5051,29.9377 23.9121,30.1727 C24.3221,30.4097 24.3241,30.7907 23.9171,31.0277 M22.9061,32.2927 C22.7081,32.4077 22.3891,32.4077 22.1891,32.2927 C21.9931,32.1797 21.9921,31.9947 22.1911,31.8797 C22.3861,31.7667 22.7041,31.7667 22.9001,31.8797 C23.1001,31.9947 23.1011,32.1797 22.9061,32.2927 M21.6851,27.6537 C21.4891,27.5407 21.4881,27.3557 21.6831,27.2427 C21.8821,27.1277 22.2001,27.1277 22.3961,27.2407 C22.5931,27.3537 22.5941,27.5387 22.3951,27.6537 C22.2001,27.7667 21.8821,27.7667 21.6851,27.6537 M20.6081,30.4687 C20.3701,30.6067 19.9821,30.6047 19.7421,30.4657 C19.5031,30.3277 19.5011,30.1057 19.7401,29.9667 C19.9781,29.8287 20.3621,29.8287 20.6011,29.9667 C20.8411,30.1057 20.8461,30.3297 20.6081,30.4687 M26.8161,27.0037 C24.4771,25.6527 20.6971,25.6527 18.3721,27.0037 C16.0451,28.3567 16.0571,30.5457 18.3961,31.8967 C20.7391,33.2487 24.5191,33.2487 26.8471,31.8967 C29.1711,30.5457 29.1591,28.3567 26.8161,27.0037" id="Fill-411" fill="#E5906F"></path>
                    <path d="M44.2092,38.4293 C44.5582,38.6303 44.5602,38.9573 44.2132,39.1593 C43.8672,39.3603 43.3052,39.3583 42.9572,39.1573 C42.6082,38.9553 42.6062,38.6323 42.9532,38.4313 C43.2992,38.2303 43.8602,38.2283 44.2092,38.4293" id="Fill-412" fill="#C25646"></path>
                    <path d="M39.2433,41.3152 C39.4433,41.4302 39.7613,41.4302 39.9563,41.3172 C40.1513,41.2042 40.1503,41.0192 39.9503,40.9042 C39.7543,40.7912 39.4363,40.7912 39.2413,40.9042 C39.0463,41.0172 39.0473,41.2022 39.2433,41.3152 M38.7353,36.6782 C38.9323,36.7912 39.2503,36.7912 39.4493,36.6762 C39.6443,36.5632 39.6423,36.3782 39.4463,36.2652 C39.2463,36.1492 38.9283,36.1492 38.7333,36.2632 C38.5353,36.3782 38.5353,36.5632 38.7353,36.6782 M36.7923,39.4902 C37.0323,39.6292 37.4203,39.6312 37.6583,39.4922 C37.8963,39.3542 37.8953,39.1282 37.6553,38.9892 C37.4153,38.8512 37.0283,38.8532 36.7903,38.9912 C36.5513,39.1302 36.5533,39.3522 36.7923,39.4902 M42.9573,39.1572 C43.3053,39.3582 43.8673,39.3602 44.2133,39.1592 C44.5593,38.9582 44.5583,38.6302 44.2093,38.4292 C43.8603,38.2282 43.2993,38.2302 42.9533,38.4312 C42.6063,38.6332 42.6083,38.9562 42.9573,39.1572 M39.4933,40.0502 C39.9033,40.2872 40.5623,40.2872 40.9703,40.0502 C41.3743,39.8152 41.3723,39.4342 40.9623,39.1972 C40.5553,38.9622 39.8923,38.9602 39.4883,39.1952 C39.0803,39.4322 39.0863,39.8152 39.4933,40.0502 M43.8693,36.0262 C46.2123,37.3782 46.2213,39.5702 43.8973,40.9212 C41.5733,42.2712 37.7893,42.2732 35.4463,40.9212 C33.1073,39.5702 33.0983,37.3782 35.4223,36.0282 C37.7473,34.6772 41.5303,34.6752 43.8693,36.0262" id="Fill-413" fill="#E5906F"></path>
                    <path d="M37.6552,38.9893 C37.8952,39.1273 37.8962,39.3543 37.6582,39.4923 C37.4202,39.6313 37.0322,39.6293 36.7922,39.4903 C36.5532,39.3523 36.5512,39.1303 36.7902,38.9913 C37.0282,38.8533 37.4152,38.8513 37.6552,38.9893" id="Fill-414" fill="#C25646"></path>
                    <path d="M40.9621,39.1969 C41.3721,39.4339 41.3751,39.8159 40.9701,40.0509 C40.5631,40.2879 39.9041,40.2879 39.4931,40.0509 C39.0861,39.8159 39.0811,39.4319 39.4881,39.1949 C39.8931,38.9599 40.5551,38.9619 40.9621,39.1969" id="Fill-415" fill="#C25646"></path>
                    <path d="M39.9507,40.9041 C40.1507,41.0191 40.1517,41.2041 39.9567,41.3171 C39.7617,41.4301 39.4427,41.4301 39.2437,41.3151 C39.0467,41.2021 39.0457,41.0171 39.2407,40.9041 C39.4357,40.7911 39.7547,40.7911 39.9507,40.9041" id="Fill-416" fill="#C25646"></path>
                    <path d="M51.1368,12.895 C51.4858,13.096 52.0508,13.096 52.3968,12.895 C52.6778,12.731 52.7278,12.486 52.5488,12.292 C52.5078,12.247 52.4548,12.205 52.3888,12.167 C52.3458,12.142 52.2988,12.12 52.2498,12.101 C51.9038,11.969 51.4398,11.991 51.1358,12.167 C51.0718,12.205 51.0188,12.247 50.9778,12.292 C50.8018,12.486 50.8538,12.731 51.1368,12.895" id="Fill-417" fill="#C25646"></path>
                    <path d="M63.8912,17.1483 C64.0872,17.2613 64.0882,17.4463 63.8932,17.5593 C63.6952,17.6743 63.3762,17.6743 63.1802,17.5613 C62.9842,17.4483 62.9832,17.2633 63.1812,17.1483 C63.3762,17.0353 63.6952,17.0353 63.8912,17.1483" id="Fill-418" fill="#C25646"></path>
                    <path d="M62.1035,19.8747 C62.3435,20.0127 62.3405,20.2377 62.1025,20.3757 C61.8645,20.5147 61.4805,20.5147 61.2405,20.3757 C61.0015,20.2377 60.9965,20.0127 61.2345,19.8747 C61.4725,19.7367 61.8635,19.7367 62.1035,19.8747" id="Fill-419" fill="#C25646"></path>
                    <path d="M64.3989,21.7895 C64.5949,21.9025 64.5959,22.0875 64.4009,22.2005 C64.2029,22.3155 63.8839,22.3155 63.6879,22.2025 C63.4879,22.0875 63.4869,21.9025 63.6859,21.7875 C63.8809,21.6745 64.1989,21.6745 64.3989,21.7895" id="Fill-420" fill="#C25646"></path>
                    <path d="M39.4465,36.265 C39.6425,36.378 39.6435,36.563 39.4485,36.676 C39.2505,36.791 38.9315,36.791 38.7355,36.678 C38.5355,36.563 38.5345,36.378 38.7335,36.263 C38.9285,36.15 39.2465,36.15 39.4465,36.265" id="Fill-421" fill="#C25646"></path>
                    <path d="M35.4465,40.9209 C37.7895,42.2739 41.5735,42.2719 43.8975,40.9209 C46.2215,39.5699 46.2125,37.3789 43.8695,36.0259 C41.5305,34.6749 37.7465,34.6769 35.4225,36.0279 C33.0985,37.3789 33.1075,39.5699 35.4465,40.9209 M45.9785,40.3759 C45.6535,40.7399 45.2285,41.0809 44.7035,41.3859 C41.9355,42.9949 37.4315,42.9949 34.6455,41.3869 C31.8595,39.7779 31.8445,37.1689 34.6125,35.5599 C35.5045,35.0419 36.5765,34.6909 37.7135,34.5069 C38.5045,34.3789 39.3265,34.3309 40.1415,34.3639 C41.7895,34.4319 43.4075,34.8309 44.6705,35.5599 C46.2565,36.4759 46.9445,37.7159 46.7325,38.9109 C46.6425,39.4169 46.3915,39.9149 45.9785,40.3759" id="Fill-422" fill="#C25646"></path>
                    <path d="M43.63,14.6568 C43.925,14.8278 44.244,14.9768 44.58,15.1038 C44.384,15.2978 44.231,15.5028 44.119,15.7128 C43.66,15.5488 43.227,15.3518 42.829,15.1228 C40.043,13.5138 40.028,10.9048 42.796,9.2958 C45.564,7.6878 50.065,7.6898 52.851,9.2978 C55.526,10.8428 55.649,13.3078 53.204,14.9258 C53.028,14.7778 52.826,14.6368 52.598,14.5048 C52.55,14.4768 52.5,14.4488 52.449,14.4218 C54.396,13.0628 54.258,11.0388 52.05,9.7638 C49.71,8.4128 45.927,8.4108 43.602,9.7618 C41.275,11.1148 41.291,13.3058 43.63,14.6568" id="Fill-423" fill="#C25646"></path>
                    <path d="M23.4393,14.3926 C23.6393,14.5076 23.9573,14.5076 24.1523,14.3946 C24.3473,14.2816 24.3463,14.0966 24.1463,13.9816 C23.9503,13.8686 23.6323,13.8686 23.4373,13.9816 C23.2423,14.0946 23.2433,14.2796 23.4393,14.3926 M23.9473,19.0336 C24.1433,19.1476 24.4613,19.1476 24.6563,19.0336 C24.8513,18.9206 24.8543,18.7336 24.6583,18.6206 C24.4613,18.5076 24.1393,18.5096 23.9443,18.6226 C23.7493,18.7356 23.7513,18.9206 23.9473,19.0336 M21.4963,17.2096 C21.7363,17.3476 22.1233,17.3456 22.3613,17.2076 C22.6003,17.0686 22.5983,16.8466 22.3593,16.7076 C22.1193,16.5696 21.7313,16.5676 21.4933,16.7056 C21.2553,16.8446 21.2563,17.0706 21.4963,17.2096 M27.6603,16.8756 C28.0093,17.0766 28.5703,17.0796 28.9173,16.8776 C29.2633,16.6766 29.2613,16.3496 28.9133,16.1476 C28.5643,15.9466 27.9993,15.9466 27.6533,16.1476 C27.3063,16.3496 27.3123,16.6746 27.6603,16.8756 M24.1973,17.7696 C24.6033,18.0036 25.2623,18.0036 25.6703,17.7676 C26.0743,17.5326 26.0723,17.1506 25.6653,16.9156 C25.2553,16.6786 24.5963,16.6786 24.1923,16.9136 C23.7843,17.1506 23.7863,17.5326 24.1973,17.7696 M28.8623,18.4776 C27.7173,18.6226 26.6823,18.9946 25.9513,19.5316 C23.9533,19.8456 21.7243,19.5486 20.1503,18.6396 C17.8113,17.2886 17.7983,15.0956 20.1223,13.7446 C22.4473,12.3936 26.2343,12.3936 28.5733,13.7446 C30.8213,15.0426 30.9203,17.1186 28.8623,18.4776" id="Fill-424" fill="#E5906F"></path>
                    <path d="M45.5659,22.1503 C45.5479,22.1403 45.5299,22.1303 45.5129,22.1203 C45.2309,21.9573 45.0059,21.7753 44.8359,21.5803 C46.3349,21.5933 47.8289,21.9313 48.9759,22.5923 C49.0109,22.6133 49.0449,22.6333 49.0789,22.6543 C47.8679,22.8483 46.5059,22.6753 45.5659,22.1503" id="Fill-425" fill="#E5906F"></path>
                    <path d="M22.3965,27.2405 C22.5925,27.3535 22.5935,27.5385 22.3955,27.6535 C22.2005,27.7665 21.8815,27.7665 21.6855,27.6535 C21.4895,27.5405 21.4885,27.3555 21.6835,27.2425 C21.8815,27.1275 22.2005,27.1275 22.3965,27.2405" id="Fill-426" fill="#C25646"></path>
                    <path d="M63.7103,35.8328 C63.9063,35.9458 63.9073,36.1308 63.7123,36.2438 C63.5143,36.3588 63.1953,36.3588 62.9993,36.2458 C62.7993,36.1308 62.7983,35.9458 62.9973,35.8308 C63.1923,35.7178 63.5103,35.7178 63.7103,35.8328" id="Fill-427" fill="#C25646"></path>
                </g>
            </g>
        </g>
    </g>
</svg>