<?xml version="1.0" encoding="UTF-8"?>
<svg width="86px" height="133px" viewBox="0 0 86 133" version="1.1" xmlns="http://www.w3.org/2000/svg" xmlns:xlink="http://www.w3.org/1999/xlink">
    <!-- Generator: Sketch 53.1 (72631) - https://sketchapp.com -->
    <title>Group 3child5</title>
    <desc>Created with Sketch.</desc>
    <g id="Page-1" stroke="none" stroke-width="1" fill="none" fill-rule="evenodd">
        <g id="Group-3" transform="translate(0.551481, 0.000489)">
            <path d="M35.4388192,124.686511 L36.3458192,128.608511 C36.3928192,128.811511 36.3268192,129.023511 36.1718192,129.164511 L34.1098192,131.039511 C33.7208192,131.392511 33.9708192,132.039511 34.4968192,132.039511 L41.7418192,132.039511 C42.0588192,132.039511 42.3168192,131.782511 42.3168192,131.464511 L42.3168192,124.686511 L42.3168192,110.870511 C42.3168192,110.633511 42.1708192,110.420511 41.9498192,110.334511 L32.1618192,106.527511 C31.7308192,106.360511 31.2888192,106.743511 31.3928192,107.193511 L35.4388192,124.686511 Z" id="Fill-358" fill="#FFD9C0"></path>
            <path d="M50.5843192,124.686511 L54.6303192,107.193511 C54.7333192,106.743511 54.2913192,106.360511 53.8603192,106.527511 L44.0723192,110.334511 C43.8523192,110.420511 43.7063192,110.633511 43.7063192,110.870511 L43.7063192,124.686511 L43.7063192,131.464511 C43.7063192,131.782511 43.9633192,132.039511 44.2813192,132.039511 L51.5253192,132.039511 C52.0523192,132.039511 52.3023192,131.392511 51.9123192,131.039511 L49.8503192,129.164511 C49.6963192,129.023511 49.6303192,128.811511 49.6773192,128.608511 L50.5843192,124.686511 Z" id="Fill-360" fill="#FFD9C0"></path>
            <path d="M49.1898192,85.7095113 L43.0108192,83.1475113 L36.8338192,85.7095113 C36.8338192,85.7095113 28.5448192,94.6005113 31.5588192,109.216511 C34.4218192,117.353511 43.0108192,115.244511 43.0108192,115.997511 C43.0108192,115.244511 51.5998192,117.353511 54.4628192,109.216511 C57.4768192,94.6005113 49.1898192,85.7095113 49.1898192,85.7095113" id="Fill-362" fill="#FFD9C0"></path>
            <path d="M49.7191192,86.2280113 C49.7191192,86.2280113 53.9811192,94.6400113 63.8971192,87.4730113 L66.1941192,90.0930113 C66.1941192,90.0930113 61.7301192,102.277011 51.3021192,96.8670113" id="Fill-364" fill="#FFD9C0"></path>
            <path d="M5.11361919,65.0625113 C5.11361919,65.0625113 -4.89938081,48.5355113 5.11361919,26.8915113 C15.1266192,5.24651128 52.6746192,-2.70548872 74.6136192,21.2955113 C96.5526192,45.2965113 78.1056192,65.9455113 78.1056192,65.9455113" id="Fill-366" fill="#F97000"></path>
            <path d="M5.91931919,55.1689113 C5.91931919,73.6489113 22.0783192,88.6309113 42.0123192,88.6309113 C61.9463192,88.6309113 78.1063192,73.6489113 78.1063192,55.1689113 C78.1063192,36.6889113 61.9463192,21.7079113 42.0123192,21.7079113 C22.0783192,21.7079113 5.91931919,36.6889113 5.91931919,55.1689113" id="Fill-368" fill="#FFD9C0"></path>
            <path d="M16.7132192,56.7280113 C16.7132192,61.0310113 20.2012192,64.5200113 24.5052192,64.5200113 C28.8082192,64.5200113 32.2962192,61.0310113 32.2962192,56.7280113 C32.2962192,52.4250113 28.8082192,48.9360113 24.5052192,48.9360113 C20.2012192,48.9360113 16.7132192,52.4250113 16.7132192,56.7280113" id="Fill-370" fill="#FFFFFF"></path>
            <path d="M17.3294192,56.7280113 C17.3294192,60.1350113 20.0914192,62.8960113 23.4984192,62.8960113 C26.9044192,62.8960113 29.6664192,60.1350113 29.6664192,56.7280113 C29.6664192,53.3210113 26.9044192,50.5600113 23.4984192,50.5600113 C20.0914192,50.5600113 17.3294192,53.3210113 17.3294192,56.7280113" id="Fill-372" fill="#373026"></path>
            <path d="M51.5042192,56.7280113 C51.5042192,61.0310113 54.9932192,64.5200113 59.2962192,64.5200113 C63.6002192,64.5200113 67.0882192,61.0310113 67.0882192,56.7280113 C67.0882192,52.4250113 63.6002192,48.9360113 59.2962192,48.9360113 C54.9932192,48.9360113 51.5042192,52.4250113 51.5042192,56.7280113" id="Fill-374" fill="#FFFFFF"></path>
            <path d="M52.1204192,56.7280113 C52.1204192,60.1350113 54.8824192,62.8960113 58.2894192,62.8960113 C61.6954192,62.8960113 64.4574192,60.1350113 64.4574192,56.7280113 C64.4574192,53.3210113 61.6954192,50.5600113 58.2894192,50.5600113 C54.8824192,50.5600113 52.1204192,53.3210113 52.1204192,56.7280113" id="Fill-376" fill="#373026"></path>
            <path d="M19.9740192,65.4204113 C20.1380192,64.2054113 18.6170192,62.8164113 16.5770192,62.3194113 C14.5370192,61.8224113 12.7490192,62.4034113 12.5850192,63.6194113 C12.4210192,64.8344113 13.9420192,66.2224113 15.9820192,66.7204113 C18.0230192,67.2174113 19.8090192,66.6354113 19.9740192,65.4204113" id="Fill-378" fill="#F1B081"></path>
            <path d="M63.8275192,65.4204113 C63.6635192,64.2054113 65.1835192,62.8164113 67.2245192,62.3194113 C69.2645192,61.8224113 71.0525192,62.4034113 71.2165192,63.6194113 C71.3805192,64.8344113 69.8595192,66.2224113 67.8185192,66.7204113 C65.7785192,67.2174113 63.9915192,66.6354113 63.8275192,65.4204113" id="Fill-380" fill="#F1B081"></path>
            <path d="M6.83041919,55.8232113 C6.83041919,55.8232113 2.06241919,53.0692113 0.368419194,57.6242113 C-1.32658081,62.1792113 3.03041919,67.4312113 9.26741919,67.0822113 L6.83041919,55.8232113 Z" id="Fill-382" fill="#FFD9C0"></path>
            <path d="M76.5257192,55.8232113 C76.5257192,55.8232113 81.2927192,53.0692113 82.9877192,57.6242113 C84.6817192,62.1792113 80.3247192,67.4312113 74.0887192,67.0822113 L76.5257192,55.8232113 Z" id="Fill-384" fill="#FFD9C0"></path>
            <path d="M19.1331192,24.5053113 C19.1331192,24.5053113 18.6991192,41.1853113 32.9371192,38.5343113 C45.8491192,36.0313113 41.8081192,26.2773113 41.8081192,26.2773113 C41.8081192,26.2773113 53.8001192,36.9153113 64.6961192,26.6083113 C75.5921192,16.3003113 43.6571192,4.73331128 19.1331192,24.5053113" id="Fill-386" fill="#F97000"></path>
            <path d="M41.6165192,74.5981113 C41.3855192,74.5981113 41.1535192,74.5851113 40.9225192,74.5611113 C37.0355192,74.1611113 34.7965192,70.5351113 34.7025192,70.3811113 C34.5955192,70.2061113 34.6525192,69.9781113 34.8275192,69.8721113 C35.0025192,69.7651113 35.2305192,69.8231113 35.3365192,69.9961113 C35.3575192,70.0311113 37.4865192,73.4641113 41.0045192,73.8251113 C43.4865192,74.0731113 46.0885192,72.7711113 48.7335192,69.9361113 C48.8745192,69.7871113 49.1085192,69.7781113 49.2585192,69.9181113 C49.4085192,70.0581113 49.4165192,70.2921113 49.2765192,70.4421113 C46.7005192,73.2031113 44.1265192,74.5981113 41.6165192,74.5981113" id="Fill-388" fill="#F2B15E"></path>
            <polygon id="Fill-390" fill="#634E42" points="31.1781192 106.974611 54.8451192 106.974611 54.7701192 108.815611 31.2821192 108.815611"></polygon>
            <path d="M63.8968192,87.4731113 C63.8968192,87.4731113 62.6288192,85.1331113 63.2498192,82.9931113 C63.8698192,80.8531113 65.1098192,82.2801113 64.6138192,84.9151113 C66.3808192,80.9151113 67.6838192,80.7601113 67.9008192,81.3181113 C68.2158192,82.1281113 67.0638192,84.2011113 67.0638192,84.2011113 C67.0638192,84.2011113 68.2418192,82.0621113 69.2958192,82.1241113 C70.3508192,82.1861113 68.5208192,85.1011113 68.5208192,85.1011113 C68.5208192,85.1011113 69.8848192,83.3341113 70.5988192,83.5821113 C71.3118192,83.8301113 69.2338192,86.4971113 69.2338192,86.4971113 C69.2338192,86.4971113 70.1838192,85.5361113 70.7478192,86.0631113 C71.3118192,86.5901113 68.6208192,89.8041113 65.9508192,89.8411113" id="Fill-392" fill="#FFD9C0"></path>
            <path d="M37.1556192,8.48731128 C37.1556192,8.48731128 29.5856192,6.30231128 33.3976192,1.72431128 C37.2096192,-2.85368872 39.9646192,4.22131128 39.9646192,4.22131128 C39.9646192,4.22131128 41.1346192,-2.33268872 46.5586192,0.892311281 C51.9836192,4.11731128 43.5936192,8.48731128 43.5936192,8.48731128" id="Fill-394" fill="#F97000"></path>
            <path d="M5.26691919,60.5512113 C5.43391919,60.0772113 5.74291919,59.9992113 6.04491919,60.0652113 C5.84991919,58.9472113 5.77991919,58.2502113 5.77991919,58.2502113 C5.76391919,58.2342113 5.74791919,58.2192113 5.73291919,58.2042113 C4.20791919,56.7392113 1.70691919,58.3742113 2.36091919,60.3842113 C2.86791919,61.9392113 4.51291919,62.9342113 6.79591919,63.4602113 C6.63691919,62.8682113 6.50191919,62.3052113 6.38591919,61.7802113 C5.76191919,61.5962113 5.02791919,61.2312113 5.26691919,60.5512113" id="Fill-396" fill="#F2B15E"></path>
            <path d="M78.4105192,60.5512113 C78.2435192,60.0772113 77.9335192,59.9992113 77.6325192,60.0652113 C77.8275192,58.9472113 77.8975192,58.2502113 77.8975192,58.2502113 C77.9135192,58.2342113 77.9295192,58.2192113 77.9445192,58.2042113 C79.4695192,56.7392113 81.9705192,58.3742113 81.3165192,60.3842113 C80.8095192,61.9392113 79.1645192,62.9342113 76.8815192,63.4602113 C77.0405192,62.8682113 77.1755192,62.3052113 77.2915192,61.7802113 C77.9155192,61.5962113 78.6495192,61.2312113 78.4105192,60.5512113" id="Fill-398" fill="#F2B15E"></path>
            <path d="M31.5169192,113.030811 C31.5169192,113.030811 36.1449192,113.426811 36.1449192,108.815811 L31.2819192,108.815811 L31.5169192,113.030811 Z" id="Fill-400" fill="#0EB046"></path>
            <path d="M54.5784192,113.030811 C54.5784192,113.030811 49.9504192,113.426811 49.9504192,108.815811 L54.7694192,108.815811 L54.5784192,113.030811 Z" id="Fill-402" fill="#0EB046"></path>
            <polygon id="Fill-404" fill="#058C36" points="31.1781192 106.974611 54.8451192 106.974611 54.3491192 119.086611 43.7061192 119.086611 43.7061192 116.957611 42.3171192 116.957611 42.3171192 119.086611 31.8571192 119.086611"></polygon>
            <polygon id="Fill-406" fill="#036633" points="31.5455192 120.362511 42.6445192 120.362511 42.6445192 117.802511 31.5455192 117.802511"></polygon>
            <polygon id="Fill-408" fill="#036633" points="43.3455192 120.362511 54.6275192 120.362511 54.6275192 117.802511 43.3455192 117.802511"></polygon>
            <polygon id="Fill-409" fill="#0EB046" points="41.7235192 116.957511 44.3005192 116.957511 44.3005192 108.815511 41.7235192 108.815511"></polygon>
            <polygon id="Fill-410" fill="#0EB046" points="36.1445192 108.815511 36.7315192 108.815511 36.7315192 106.974511 36.1445192 106.974511"></polygon>
            <polygon id="Fill-411" fill="#0EB046" points="49.4265192 108.815511 50.0135192 108.815511 50.0135192 106.974511 49.4265192 106.974511"></polygon>
            <path d="M72.3861192,19.0014113 C67.4231192,21.5454113 62.3791192,21.3784113 57.8961192,17.9294113 C47.4161192,9.86941128 37.6711192,8.99241128 27.4361192,13.1534113 C23.4421192,14.7784113 20.7711192,13.9304113 19.0091192,12.3804113 C13.1381192,15.7264113 8.41511919,20.3874113 5.55611919,26.0554113 C10.0351192,27.7124113 14.7131192,27.8124113 19.2841192,26.8744113 C26.7541192,25.3404113 31.2931192,21.2654113 38.7031192,21.8564113 C46.1311192,22.4484113 50.1491192,28.0204113 58.8421192,30.3004113 C60.2401192,29.8084113 61.6581192,29.0574113 63.0711192,27.9904113 C64.5371192,28.9684113 65.9231192,30.0434113 67.2141192,31.2104113 C71.4901192,30.9904113 75.6191192,29.6354113 78.9871192,26.7424113 C77.0661192,23.9534113 74.6951192,21.2054113 72.3861192,19.0014113" id="Fill-412" fill="#FFFFFF" opacity="0.26999628"></path>
            <path d="M19.1312192,52.8520113 C19.1312192,51.2570113 20.4252192,49.9630113 22.0202192,49.9630113 C23.6152192,49.9630113 24.9082192,51.2570113 24.9082192,52.8520113 C24.9082192,54.4470113 23.6152192,55.7400113 22.0202192,55.7400113 C20.4252192,55.7400113 19.1312192,54.4470113 19.1312192,52.8520113" id="Fill-413" fill="#FFFFFF"></path>
            <path d="M54.0501192,52.8520113 C54.0501192,51.2570113 55.3431192,49.9630113 56.9381192,49.9630113 C58.5331192,49.9630113 59.8261192,51.2570113 59.8261192,52.8520113 C59.8261192,54.4470113 58.5331192,55.7400113 56.9381192,55.7400113 C55.3431192,55.7400113 54.0501192,54.4470113 54.0501192,52.8520113" id="Fill-414" fill="#FFFFFF"></path>
            <path d="M35.0579192,93.0303113 C35.0579192,93.0303113 35.2629192,101.105311 39.8189192,101.063311 C44.3749192,101.021311 45.3259192,100.767311 45.3259192,100.767311 L42.6879192,102.855311 L34.3339192,101.571311 C34.3339192,101.571311 33.0809192,99.0563113 35.0579192,93.0303113" id="Fill-415" fill="#EFD09E"></path>
            <path d="M26.4779192,114.828111 C24.5679192,114.726111 23.0659192,113.894111 22.0209192,112.289111 C21.7019192,111.799111 21.4639192,111.256111 21.1899192,110.738111 C21.3109192,110.465111 21.6059192,110.376111 21.7889192,110.171111 C22.3269192,109.569111 22.7729192,108.906111 23.1109192,108.169111 C23.6649192,106.961111 23.2299192,105.845111 22.7959192,104.728111 C22.7309192,104.557111 22.5949192,104.413111 22.5979192,104.216111 C23.8939192,102.809111 25.4109192,101.773111 27.3279192,101.413111 C27.6919192,101.606111 27.5239192,101.868111 27.3639192,102.056111 C26.3679192,103.229111 27.1599192,102.799111 27.3779192,104.216111 C27.4439192,104.644111 28.7319192,104.711111 29.1609192,105.745111 C29.2609192,105.698111 29.3699192,105.689111 29.4779192,105.689111 C31.0119192,105.689111 32.1979192,104.952111 33.2049192,103.882111 C33.7729192,103.279111 33.9919192,102.561111 33.6729192,101.741111 C33.6099192,101.575111 33.5109192,101.384111 33.7489192,101.255111 C34.4649192,101.167111 35.1789192,101.143111 35.8919192,101.272111 C36.5369192,101.617111 37.2529192,101.514111 37.9329192,101.551111 C39.3039192,101.625111 40.6809192,101.548111 42.0549192,101.586111 C42.3739192,101.595111 42.6889192,101.395111 43.0079192,101.570111 C43.1159192,101.650111 43.0819192,101.757111 43.0669192,101.865111 C42.9819192,102.488111 43.2159192,102.980111 43.7029192,103.359111 C44.0949192,103.666111 44.5139192,103.923111 45.0069192,104.047111 C45.9209192,104.277111 46.6319192,103.813111 46.7389192,102.883111 C46.8349192,102.043111 46.7149192,101.245111 46.2019192,100.540111 C46.0459192,100.328111 45.9049192,100.105111 45.7619192,99.8841113 C45.4019192,99.3251113 44.9299192,98.9741113 44.2259192,99.0461113 C43.9589192,98.6901113 44.1249192,98.2891113 44.1719192,97.9361113 C44.4439192,95.8791113 44.5759192,93.8011113 45.0739192,91.7771113 C45.1589192,91.4311113 45.2189192,91.0751113 45.3669192,90.7501113 C45.5159192,90.4191113 45.4239192,90.2261113 45.1419192,90.0111113 C44.5419192,89.5511113 44.1089192,88.9461113 43.7899192,88.2611113 C43.5199192,87.6831113 43.4449192,87.0721113 43.5059192,86.4451113 C43.5569192,85.9321113 43.9699192,85.6841113 44.4429192,85.8951113 C45.2819192,86.2711113 45.7789192,86.9711113 46.1629192,87.7721113 C46.2809192,88.0211113 46.2859192,88.4181113 46.5289192,88.4871113 C46.7919192,88.5621113 46.9389192,88.1751113 47.1559192,88.0131113 C47.9919192,87.3871113 48.9159192,86.9821113 49.9499192,86.8251113 C50.3989192,86.7221113 50.8489192,86.6191113 51.3109192,86.6041113 C51.6049192,86.5951113 51.7409192,86.4701113 51.8109192,86.1801113 C51.9239192,85.7061113 52.0299192,85.2171113 52.4329192,84.8761113 C52.6199192,84.6071113 52.8109192,84.2881113 53.1959192,84.4131113 C53.5899192,84.5401113 53.7089192,84.9121113 53.7629192,85.2911113 C53.7819192,85.4281113 53.7729192,85.5691113 53.7769192,85.7071113 C53.8429192,86.3221113 54.2679192,86.4031113 54.7669192,86.3771113 C55.3469192,86.3711113 55.9289192,86.2781113 56.5029192,86.4371113 C56.4709192,86.7731113 56.2129192,86.9681113 56.0219192,87.2031113 C55.0059192,88.4441113 54.4369192,89.8581113 54.2469192,91.4551113 C54.1259192,92.4571113 54.2099192,93.4231113 54.4519192,94.3881113 C54.2559192,94.6571113 54.0999192,94.4191113 53.9569192,94.3311113 C53.4809192,94.0421113 53.1129192,93.6231113 52.6849192,93.2661113 C52.8009192,93.6171113 53.0719192,93.8521113 53.3389192,94.0801113 C53.7029192,94.3901113 54.0839192,94.6751113 54.5009192,94.9111113 C54.6579192,94.9991113 54.8409192,95.0681113 54.9219192,95.2541113 C55.0809192,95.8281113 55.5039192,96.1831113 55.9429192,96.5361113 C56.0979192,96.6621113 56.4069192,96.7371113 56.2409192,97.0601113 C55.5789192,97.3611113 54.8589192,97.3761113 54.1569192,97.4591113 C52.7919192,97.6201113 53.0259192,97.5451113 53.2269192,98.6711113 C53.2789192,98.9601113 53.3529192,99.2461113 53.3969192,99.5361113 C53.4439192,99.8531113 53.6089192,99.9501113 53.9139192,99.8961113 C54.5839192,99.7801113 55.2629192,99.7081113 55.9339192,99.5901113 C56.1319192,99.5551113 56.3319192,99.5121113 56.5249192,99.6101113 C56.7349192,99.8491113 56.5359192,100.048111 56.4459192,100.244111 C56.0849192,101.022111 55.7559192,101.808111 55.7499192,102.683111 C55.7419192,103.929111 56.7429192,104.651111 57.9239192,104.262111 C59.8109192,103.642111 60.8649192,101.438111 60.1549192,99.5971113 C60.1049192,99.4681113 60.0309192,99.3451113 60.0719192,99.1971113 C60.4569192,98.9701113 60.8519192,98.8131113 61.3009192,99.0141113 C61.8589192,99.0081113 62.4169192,99.0151113 62.9749192,98.9941113 C64.8099192,98.9241113 66.0389192,99.8601113 66.9369192,101.355111 C65.3719192,102.404111 64.9699192,104.046111 64.6779192,105.752111 C64.5509192,106.498111 64.6019192,107.205111 64.9979192,107.862111 C65.4389192,108.596111 65.9989192,108.797111 66.8169192,108.537111 C66.9569192,108.493111 67.0989192,108.386111 67.2519192,108.511111 C66.6759192,109.737111 65.7919192,110.639111 64.4809192,111.055111 C63.2729192,111.439111 62.1239192,111.996111 60.8749192,112.266111 C59.9049192,112.476111 58.9289192,112.645111 57.9469192,112.781111 C57.8209192,112.576111 57.9519192,112.393111 58.0009192,112.206111 C58.1949192,111.479111 58.2979192,110.755111 58.0579192,110.015111 C57.7309192,109.005111 56.7529192,108.517111 55.8079192,108.995111 C54.4839192,109.666111 53.7739192,110.800111 53.6129192,112.272111 C53.5609192,112.747111 53.6699192,113.224111 53.6169192,113.702111 C53.4659192,113.921111 53.2259192,113.937111 52.9989192,113.971111 C51.2669192,114.223111 49.5269192,114.411111 47.7879192,114.597111 C47.4219192,114.636111 47.0569192,114.763111 46.6819192,114.655111 C46.5909192,114.655111 46.4989192,114.656111 46.4079192,114.657111 C46.0909192,114.889111 45.7079192,114.894111 45.3459192,114.953111 C43.2659192,115.287111 41.1729192,115.522111 39.0699192,115.607111 C38.0499192,115.649111 37.0319192,115.748111 36.0089192,115.724111 C35.7939192,115.719111 35.5719192,115.746111 35.3869192,115.594111 C35.2179192,115.517111 35.0459192,115.476111 34.8559192,115.486111 C33.6899192,115.545111 32.5289192,115.410111 31.3649192,115.381111 C31.3039192,115.288111 31.3489192,115.203111 31.3829192,115.117111 C32.0519192,113.427111 31.4289192,111.866111 29.7739192,111.059111 C29.0769192,110.719111 28.3519192,110.647111 27.6029192,110.810111 C26.7379192,110.998111 26.2029192,111.735111 26.1529192,112.786111 C26.1259192,113.338111 26.2799192,113.860111 26.4249192,114.383111 C26.4649192,114.528111 26.5599192,114.668111 26.4779192,114.828111" id="Fill-416" fill="#08AAEB"></path>
            <path d="M54.3919192,94.4643113 C53.7649192,92.6073113 54.0379192,90.8063113 54.7439192,89.0383113 C55.1399192,88.0463113 55.7889192,87.2183113 56.5029192,86.4383113 C57.7379192,86.4153113 58.8409192,86.8123113 59.7959192,87.5683113 C60.4559192,88.0893113 60.7779192,88.8703113 61.0289192,89.6403113 C61.4649192,90.9763113 61.5149192,92.3483113 61.2119192,93.7293113 C61.0899192,94.2853113 60.6859192,94.6913113 60.4689192,95.1943113 C60.2489192,95.5903113 59.8569192,95.7583113 59.4789192,95.9473113 C57.7609192,96.1333113 56.2069192,95.6153113 54.7199192,94.8253113 C54.5739192,94.7483113 54.4129192,94.6643113 54.3919192,94.4643113" id="Fill-417" fill="#FDECA3"></path>
            <path d="M26.4779192,114.828111 C26.1459192,114.049111 25.9439192,113.252111 26.0779192,112.392111 C26.2949192,110.995111 27.3419192,110.561111 28.4399192,110.593111 C29.7499192,110.632111 30.7279192,111.316111 31.4009192,112.404111 C32.0059192,113.384111 31.9929192,114.396111 31.3649192,115.381111 C29.7669192,115.263111 28.1629192,115.225111 26.5839192,114.911111 C26.5449192,114.902111 26.5129192,114.856111 26.4779192,114.828111" id="Fill-418" fill="#FDECA3"></path>
            <path d="M67.2523192,108.510711 C66.9413192,108.596711 66.6593192,108.771711 66.3243192,108.786711 C65.4813192,108.825711 64.6973192,108.110711 64.5633192,107.073711 C64.3523192,105.446711 64.8123192,103.955711 65.6133192,102.555711 C65.9233192,102.015711 66.2403192,101.474711 66.9363192,101.354711 C67.5873192,102.255711 67.8713192,103.292711 67.9973192,104.369711 C68.1663192,105.817711 67.8013192,107.183711 67.2523192,108.510711" id="Fill-419" fill="#FDECA3"></path>
            <path d="M53.5911192,113.638211 C53.1251192,112.018211 53.9381192,109.928211 55.3731192,109.056211 C56.8071192,108.185211 58.2341192,108.982211 58.3231192,110.701211 C58.3621192,111.426211 58.1751192,112.106211 57.9461192,112.781211 C57.0001192,112.880211 56.0911192,113.161211 55.1631192,113.351211 C54.7691192,113.707211 53.9291192,113.860211 53.5911192,113.638211" id="Fill-420" fill="#FDECA3"></path>
            <path d="M22.5980192,104.215811 C23.5320192,105.716811 23.8690192,107.354811 22.9270192,108.790811 C22.4430192,109.529811 22.0300192,110.320811 21.1900192,110.737811 C20.3080192,109.045811 20.2660192,107.383811 21.3940192,105.776811 C21.7710192,105.238811 22.0600192,104.630811 22.5980192,104.215811" id="Fill-421" fill="#FDECA3"></path>
            <path d="M54.7669192,86.3769113 C54.6939192,86.4499113 54.5999192,86.4369113 54.5099192,86.4409113 C53.7409192,86.4809113 53.7409192,86.4809113 53.7769192,85.7079113 C54.1329192,85.8929113 54.3709192,86.2499113 54.7669192,86.3769113" id="Fill-422" fill="#FBD398"></path>
            <path d="M36.2874192,105.699211 C37.5544192,105.706211 38.5544192,106.532211 38.7254192,107.659211 C38.8014192,108.154211 38.6554192,108.617211 38.4114192,109.035211 C37.6004192,110.420211 36.4114192,111.212211 34.7804192,111.217211 C33.7834192,111.220211 33.0804192,110.455211 33.0874192,109.457211 C33.0994192,107.662211 33.9454192,106.374211 35.4594192,105.834211 C35.7574192,105.727211 36.0584192,105.683211 36.2874192,105.699211" id="Fill-423" fill="#FDECA3"></path>
            <path d="M42.5814192,110.251511 C42.5844192,110.001511 42.6004192,109.759511 42.6734192,109.517511 C42.9554192,108.575511 43.6654192,108.141511 44.6254192,108.335511 C45.9434192,108.601511 47.4084192,110.342511 47.4454192,111.687511 C47.4734192,112.652511 46.8994192,113.596511 46.0884192,113.923511 C45.3924192,114.204511 44.4104192,113.932511 43.7754192,113.235511 C43.0094192,112.395511 42.5974192,111.398511 42.5814192,110.251511" id="Fill-424" fill="#FDECA3"></path>
            <path d="M58.5052192,99.4770113 C59.0362192,99.3860113 59.5682192,99.2940113 60.1002192,99.2020113 C61.3412192,101.431011 59.8642192,103.275011 58.4272192,104.170011 C57.7342192,104.602011 56.9832192,104.674011 56.2882192,104.162011 C55.6052192,103.657011 55.5292192,102.926011 55.6552192,102.150011 C55.8002192,101.268011 56.2122192,100.482011 56.5592192,99.6730113 C57.1862192,99.3920113 57.8272192,99.2530113 58.5052192,99.4770113" id="Fill-425" fill="#FDECA3"></path>
            <path d="M43.9876192,99.4829113 C43.9396192,99.2409113 44.1366192,99.1449113 44.2696192,99.0089113 C44.7726192,98.7459113 45.1716192,99.0249113 45.4596192,99.3499113 C46.3106192,100.310911 47.0186192,101.339911 46.8946192,102.740911 C46.7946192,103.867911 45.9806192,104.487911 44.9066192,104.141911 C44.0166192,103.854911 43.2376192,103.416911 42.9386192,102.427911 C42.8556192,102.151911 42.8246192,101.916911 43.0716192,101.716911 C43.2086192,101.463911 43.5766192,101.511911 43.6936192,101.234911 C43.7566192,101.084911 43.7686192,100.926911 43.7696192,100.766911 C43.7666192,100.493911 43.7536192,100.220911 43.7666192,99.9489113 C43.7766192,99.7639113 43.7956192,99.5819113 43.9876192,99.4829113" id="Fill-426" fill="#FDECA3"></path>
            <path d="M29.7435192,101.063011 C29.7905192,101.317011 29.9935192,101.244011 30.1465192,101.245011 C31.1445192,101.250011 32.1415192,101.248011 33.1395192,101.247011 C33.3235192,101.247011 33.5105192,101.232011 33.6705192,101.352011 C34.2645192,102.605011 33.8415192,103.610011 32.8545192,104.424011 C31.8005192,105.295011 30.6435192,105.958011 29.1915192,105.796011 C27.7265192,105.821011 25.9055192,103.918011 25.9365192,103.442011 C25.9415192,103.365011 28.4885192,102.478011 28.5845192,102.462011 C28.6695192,102.448011 29.3385192,101.898011 29.3865192,101.960011 C29.6135192,102.251011 29.5375192,101.320011 29.8665192,101.458011 C30.2795192,101.630011 29.8705192,101.532011 30.1465192,101.245011 C30.4725192,100.907011 30.0415192,100.781011 31.5975192,103.466011 C31.2325192,102.711011 30.6855192,102.110011 29.9525192,101.691011 C29.6905192,101.542011 29.5335192,101.365011 29.7435192,101.063011" id="Fill-427" fill="#FDECA3"></path>
            <path d="M48.3997192,93.3335113 C49.3707192,93.3405113 50.1417192,94.0815113 50.1177192,94.9825113 C50.0947192,95.8145113 49.2817192,96.4985113 48.3177192,96.4955113 C47.5007192,96.4935113 46.6687192,95.7335113 46.7287192,94.9905113 C46.8097192,93.9785113 47.7117192,93.2075113 48.3997192,93.3335113" id="Fill-428" fill="#51D7D3"></path>
            <path d="M59.5277192,95.8525113 C59.0867192,96.1685113 58.6077192,96.3695113 58.0517192,96.3305113 C57.9117192,96.4445113 57.7577192,96.3845113 57.6097192,96.3615113 C56.7977192,96.2335113 56.0347192,95.9495113 55.2877192,95.6175113 C55.1197192,95.5425113 54.9527192,95.4555113 54.8817192,95.2645113 C54.1637192,94.8455113 53.4477192,94.4195113 52.8827192,93.7925113 C52.6917192,93.5805113 52.3417192,93.2415113 52.5187192,93.0825113 C52.7467192,92.8785113 52.9257192,93.3225113 53.1127192,93.4895113 C53.5137192,93.8505113 53.9077192,94.2145113 54.3927192,94.4645113 C55.8097192,95.3425113 57.3237192,95.8965113 59.0187192,95.8475113 C59.1877192,95.8435113 59.3577192,95.8505113 59.5277192,95.8525113" id="Fill-429" fill="#005450"></path>
            <path d="M52.3675192,90.1157113 C52.3635192,90.4467113 52.2775192,90.6797113 52.0265192,90.7907113 C51.7525192,90.9117113 51.4635192,90.8687113 51.2535192,90.6567113 C50.8695192,90.2697113 50.5695192,89.8237113 50.4695192,89.2717113 C50.4175192,88.9887113 50.5075192,88.7557113 50.7415192,88.5867113 C50.9705192,88.4217113 51.1865192,88.5187113 51.3865192,88.6447113 C51.9525192,89.0017113 52.2895192,89.5097113 52.3675192,90.1157113" id="Fill-430" fill="#00534F"></path>
            <path d="M45.8568192,88.7974113 C45.8618192,89.1024113 45.8008192,89.2964113 45.5948192,89.3904113 C45.3848192,89.4864113 45.2068192,89.3984113 45.0528192,89.2394113 C44.6058192,88.7754113 44.2888192,88.2274113 44.0428192,87.6374113 C43.9528192,87.4224113 43.9518192,87.1974113 44.1718192,87.0564113 C44.3838192,86.9214113 44.5858192,86.9844113 44.7608192,87.1534113 C45.2668192,87.6434113 45.7168192,88.1664113 45.8568192,88.7974113" id="Fill-431" fill="#00534F"></path>
            <path d="M49.7650192,91.0801113 C49.7890192,91.3701113 49.6940192,91.6531113 49.3510192,91.7731113 C48.9960192,91.8971113 48.7660192,91.6791113 48.5750192,91.4241113 C48.3590192,91.1371113 48.2030192,90.8201113 48.1910192,90.4521113 C48.1810192,90.1891113 48.2590192,89.9491113 48.5050192,89.8301113 C48.7420192,89.7181113 48.9890192,89.7511113 49.2000192,89.9221113 C49.5510192,90.2071113 49.7700192,90.5621113 49.7650192,91.0801113" id="Fill-432" fill="#00534F"></path>
            <path d="M54.8822192,95.2642113 C55.8702192,95.8212113 56.9402192,96.1392113 58.0512192,96.3302113 C58.1452192,96.3722113 58.2382192,96.4132113 58.3462192,96.4602113 C58.0182192,96.6022113 57.6992192,96.7402113 57.3812192,96.8782113 C57.0212192,96.8652113 56.6892192,97.1552113 56.3142192,96.9752113 C55.8422192,96.5722113 55.3002192,96.2412113 54.9722192,95.6902113 C54.8992192,95.5672113 54.6912192,95.4512113 54.8822192,95.2642113" id="Fill-433" fill="#FDECA3"></path>
            <path d="M52.5462192,85.8633113 C52.5262192,85.6313113 52.5912192,85.4093113 52.6692192,85.1933113 C52.7252192,85.0363113 52.8262192,84.9323113 53.0102192,84.9393113 C53.1872192,84.9463113 53.3112192,85.0423113 53.3502192,85.1993113 C53.4482192,85.5903113 53.3912192,85.9623113 53.1422192,86.2873113 C53.0542192,86.4013113 52.9312192,86.4773113 52.7782192,86.4113113 C52.5332192,86.3053113 52.5282192,86.0883113 52.5462192,85.8633113" id="Fill-434" fill="#005450"></path>
            <path d="M59.2493192,91.0312113 C59.2273192,91.2792113 59.0923192,91.4792113 58.7703192,91.4872113 C58.3963192,91.4962113 58.0293192,90.9272113 58.0283192,90.3532113 C58.0283192,90.1082113 58.1103192,89.9242113 58.3853192,89.9082113 C58.7333192,89.8892113 59.2503192,90.5362113 59.2493192,91.0312113" id="Fill-435" fill="#005550"></path>
            <path d="M57.2034192,92.0181113 C57.2064192,92.1871113 57.1414192,92.3251113 56.9914192,92.4031113 C56.8074192,92.4991113 56.6244192,92.4611113 56.4674192,92.3431113 C56.1304192,92.0881113 56.0344192,91.7111113 56.0124192,91.3191113 C55.9994192,91.1101113 56.1424192,91.0321113 56.3524192,91.0501113 C56.7524192,91.0841113 57.2124192,91.6011113 57.2034192,92.0181113" id="Fill-436" fill="#005550"></path>
            <polygon id="Fill-437" fill="#FFD9C0" points="33.8079192 100.593711 23.4119192 106.974711 21.0229192 103.273711 36.1449192 86.5517113"></polygon>
            <path d="M23.4115192,106.974611 L21.0595192,103.277611 C18.4005192,103.024611 15.3775192,105.927611 15.8815192,106.512611 C16.3855192,107.098611 17.4325192,106.245611 17.4325192,106.245611 C17.4325192,106.245611 15.0785192,108.671611 15.7605192,108.995611 C16.4425192,109.319611 17.9905192,107.709611 17.9905192,107.709611 C17.9905192,107.709611 15.8555192,110.409611 16.8965192,110.585611 C17.9385192,110.761611 19.3425192,108.762611 19.3425192,108.762611 C19.3425192,108.762611 17.9725192,110.698611 18.1975192,111.537611 C18.3525192,112.116611 19.6645192,112.103611 21.8545192,108.318611 C21.0755192,110.884611 22.1545192,112.437611 23.0035192,110.377611 C23.8515192,108.317611 23.4115192,106.974611 23.4115192,106.974611" id="Fill-438" fill="#FFD9C0"></path>
            <path d="M38.7415192,94.5986113 C38.7425192,94.5566113 38.7415192,94.5146113 38.7325192,94.4726113 C38.7315192,94.4656113 38.7295192,94.4596113 38.7285192,94.4536113 C38.6385192,94.0046113 37.9145192,94.0046113 37.8245192,94.4536113 C37.8235192,94.4596113 37.8225192,94.4656113 37.8215192,94.4726113 C37.8125192,94.5146113 37.8105192,94.5566113 37.8115192,94.5986113 C37.8105192,94.6176113 37.8125192,94.6356113 37.8145192,94.6536113 L37.8145192,94.6606113 C37.8165192,94.6816113 37.8165192,94.7026113 37.8215192,94.7236113 C37.8415192,94.8236113 37.9015192,94.9056113 37.9795192,94.9656113 C37.9935192,94.9766113 38.0095192,94.9846113 38.0235192,94.9946113 C38.0305192,94.9986113 38.0365192,95.0036113 38.0445192,95.0076113 C38.0765192,95.0266113 38.1115192,95.0426113 38.1505192,95.0536113 C38.1915192,95.0646113 38.2345192,95.0676113 38.2765192,95.0666113 C38.3195192,95.0676113 38.3615192,95.0646113 38.4025192,95.0536113 C38.4415192,95.0426113 38.4765192,95.0266113 38.5105192,95.0076113 C38.5165192,95.0036113 38.5225192,94.9986113 38.5295192,94.9946113 C38.5445192,94.9846113 38.5595192,94.9766113 38.5735192,94.9656113 C38.6525192,94.9056113 38.7125192,94.8236113 38.7325192,94.7236113 C38.7365192,94.7026113 38.7365192,94.6816113 38.7385192,94.6606113 C38.7385192,94.6586113 38.7385192,94.6566113 38.7395192,94.6536113 C38.7405192,94.6356113 38.7425192,94.6176113 38.7415192,94.5986113" id="Fill-439" fill="#F2B15E"></path>
        </g>
    </g>
</svg>