<?xml version="1.0" encoding="UTF-8"?>
<svg width="86px" height="134px" viewBox="0 0 86 134" version="1.1" xmlns="http://www.w3.org/2000/svg" xmlns:xlink="http://www.w3.org/1999/xlink">
    <!-- Generator: Sketch 53.1 (72631) - https://sketchapp.com -->
    <title>Group 4child4</title>
    <desc>Created with Sketch.</desc>
    <g id="Page-1" stroke="none" stroke-width="1" fill="none" fill-rule="evenodd">
        <g id="Group-4" transform="translate(0.924985, 0.000063)">
            <path d="M9.90511476,67.3690367 C9.90511476,67.3690367 0.33111476,66.6550367 0.33111476,52.6580367 C0.33111476,38.6610367 6.79511476,8.59103666 42.2231148,8.59103666 C42.2231148,8.59103666 84.6821148,5.34403666 84.6821148,52.6580367 C84.6821148,62.8720367 75.5051148,68.3400367 75.5051148,68.3400367 L9.90511476,67.3690367 Z" id="Fill-236" fill="#442E23"></path>
            <polygon id="Fill-238" fill="#D9A278" points="53.3934148 96.6029367 65.4554148 98.5849367 67.1574148 94.9629367 47.3964148 86.6639367"></polygon>
            <polygon id="Fill-240" fill="#D9A278" points="30.9471148 96.5888367 17.8431148 99.0838367 17.0871148 95.1438367 36.6911148 86.5008367"></polygon>
            <polygon id="Fill-242" fill="#D9A278" points="31.3739148 105.945737 35.6119148 127.424737 32.3509148 130.388737 41.2449148 130.388737 41.2449148 109.784737"></polygon>
            <polygon id="Fill-244" fill="#D9A278" points="53.9110148 103.689437 54.8900148 126.033437 58.8260148 128.017437 50.2110148 130.234437 44.7390148 110.546437"></polygon>
            <path d="M79.9071148,55.5819367 C79.9071148,74.8759367 63.0361148,90.5179367 42.2231148,90.5179367 C21.4121148,90.5179367 4.54111476,74.8759367 4.54111476,55.5819367 C4.54111476,36.2879367 21.4121148,20.6459367 42.2231148,20.6459367 C63.0361148,20.6459367 79.9071148,36.2879367 79.9071148,55.5819367" id="Fill-246" fill="#D9A278"></path>
            <path d="M18.1346148,64.2059367 C18.1346148,68.3179367 21.4676148,71.6519367 25.5796148,71.6519367 C29.6926148,71.6519367 33.0256148,68.3179367 33.0256148,64.2059367 C33.0256148,60.0939367 29.6926148,56.7609367 25.5796148,56.7609367 C21.4676148,56.7609367 18.1346148,60.0939367 18.1346148,64.2059367" id="Fill-248" fill="#FFFFFF"></path>
            <path d="M20.4618148,63.4296367 C20.4618148,66.6846367 23.1018148,69.3246367 26.3568148,69.3246367 C29.6118148,69.3246367 32.2508148,66.6846367 32.2508148,63.4296367 C32.2508148,60.1746367 29.6118148,57.5346367 26.3568148,57.5346367 C23.1018148,57.5346367 20.4618148,60.1746367 20.4618148,63.4296367" id="Fill-250" fill="#432918"></path>
            <path d="M51.3797148,64.2059367 C51.3797148,68.3179367 54.7137148,71.6519367 58.8247148,71.6519367 C62.9377148,71.6519367 66.2717148,68.3179367 66.2717148,64.2059367 C66.2717148,60.0939367 62.9377148,56.7609367 58.8247148,56.7609367 C54.7137148,56.7609367 51.3797148,60.0939367 51.3797148,64.2059367" id="Fill-252" fill="#FFFFFF"></path>
            <path d="M53.7079148,63.4296367 C53.7079148,66.6846367 56.3469148,69.3246367 59.6029148,69.3246367 C62.8569148,69.3246367 65.4959148,66.6846367 65.4959148,63.4296367 C65.4959148,60.1746367 62.8569148,57.5346367 59.6029148,57.5346367 C56.3469148,57.5346367 53.7079148,60.1746367 53.7079148,63.4296367" id="Fill-254" fill="#432918"></path>
            <path d="M21.2499148,72.5121367 C21.4069148,71.3511367 19.9539148,70.0241367 18.0039148,69.5491367 C16.0549148,69.0741367 14.3469148,69.6301367 14.1899148,70.7911367 C14.0329148,71.9521367 15.4859148,73.2791367 17.4369148,73.7541367 C19.3859148,74.2291367 21.0929148,73.6741367 21.2499148,72.5121367" id="Fill-256" fill="#EB8F55"></path>
            <path d="M12.2411148,27.8695367 C12.2411148,27.8695367 20.9961148,53.8905367 43.5641148,47.8375367 C63.7901148,42.5655367 53.2461148,29.6785367 53.2461148,29.6785367 C53.2461148,29.6785367 61.0941148,47.6425367 78.1921148,36.1215367 C64.4291148,16.2815367 37.4291148,9.46353666 12.2411148,27.8695367" id="Fill-258" fill="#442E23"></path>
            <path d="M63.1551148,72.5121367 C62.9991148,71.3511367 64.4521148,70.0241367 66.4011148,69.5491367 C68.3501148,69.0741367 70.0581148,69.6301367 70.2161148,70.7911367 C70.3721148,71.9521367 68.9191148,73.2791367 66.9691148,73.7541367 C65.0201148,74.2291367 63.3121148,73.6741367 63.1551148,72.5121367" id="Fill-260" fill="#EB8F55"></path>
            <path d="M77.3163148,61.1005367 C77.3163148,61.1005367 82.2933148,58.2245367 84.0623148,62.9805367 C85.8333148,67.7365367 81.2833148,73.2205367 74.7723148,72.8555367 L77.3163148,61.1005367 Z" id="Fill-262" fill="#D9A278"></path>
            <path d="M35.5350148,13.8627367 C35.5350148,13.8627367 25.1070148,8.00473666 32.1330148,1.95173666 C39.1580148,-4.10126334 42.9050148,5.85773666 42.9050148,5.85773666 C42.9050148,5.85773666 44.8700148,-0.976263336 51.8740148,3.51373666 C58.8790148,8.00473666 50.8730148,13.8627367 50.8730148,13.8627367 L35.5350148,13.8627367 Z" id="Fill-264" fill="#442E23"></path>
            <path d="M19.4090148,97.6981367 C19.4090148,97.6981367 19.5480148,100.238137 18.1380148,101.832137 C16.7260148,103.427137 16.2380148,101.688137 17.7450148,99.6141367 C14.5830148,102.346137 13.3940148,101.948137 13.4340148,101.377137 C13.4940148,100.549137 15.3370148,99.2291367 15.3370148,99.2291367 C15.3370148,99.2291367 13.4440148,100.594137 12.5590148,100.110137 C11.6740148,99.6251367 14.4460148,97.8561367 14.4460148,97.8561367 C14.4460148,97.8561367 12.5450148,98.8241367 12.0300148,98.3191367 C11.5150148,97.8131367 14.4000148,96.3591367 14.4000148,96.3591367 C14.4000148,96.3591367 13.1870148,96.8011367 12.9160148,96.1151367 C12.6430148,95.4291367 16.2820148,93.7541367 18.6030148,94.8141367" id="Fill-266" fill="#D9A278"></path>
            <path d="M64.3924148,97.6044367 C64.3924148,97.6044367 64.1524148,100.137437 65.4974148,101.786437 C66.8434148,103.436437 67.4014148,101.717437 65.9784148,99.5854367 C69.0294148,102.441437 70.2334148,102.090437 70.2144148,101.519437 C70.1894148,100.688437 68.4004148,99.2974367 68.4004148,99.2974367 C68.4004148,99.2974367 70.2364148,100.736437 71.1404148,100.287437 C72.0434148,99.8384367 69.3444148,97.9594367 69.3444148,97.9594367 C69.3444148,97.9594367 71.2054148,99.0034367 71.7404148,98.5194367 C72.2744148,98.0344367 69.4504148,96.4664367 69.4504148,96.4664367 C69.4504148,96.4664367 70.6444148,96.9564367 70.9434148,96.2814367 C71.2424148,95.6064367 67.6734148,93.7884367 65.3114148,94.7544367" id="Fill-268" fill="#D9A278"></path>
            <path d="M68.3251148,15.6889367 C67.0351148,18.3549367 64.1671148,21.6849367 58.1941148,19.2559367 C48.9661148,15.5039367 39.6361148,15.7069367 29.0891148,23.8199367 C21.6511148,29.5409367 14.3651148,24.9259367 10.7131148,21.7069367 C9.61811476,23.0099367 8.63311476,24.3699367 7.74511476,25.7669367 C10.1261148,29.3289367 15.1511148,33.9319367 24.9661148,32.9119367 C40.5841148,31.2899367 41.0551148,22.1969367 59.0061148,30.1079367 C68.8871148,34.4619367 76.1451148,33.0309367 80.7111148,30.8999367 C77.6661148,23.8169367 73.1871148,19.0149367 68.3251148,15.6889367" id="Fill-270" fill="#FFFFFF" opacity="0.130254836"></path>
            <path d="M20.2606148,60.5370367 C20.2606148,59.0130367 21.4966148,57.7770367 23.0216148,57.7770367 C24.5456148,57.7770367 25.7816148,59.0130367 25.7816148,60.5370367 C25.7816148,62.0610367 24.5456148,63.2970367 23.0216148,63.2970367 C21.4966148,63.2970367 20.2606148,62.0610367 20.2606148,60.5370367" id="Fill-272" fill="#FFFFFF"></path>
            <path d="M53.6278148,60.5370367 C53.6278148,59.0130367 54.8628148,57.7770367 56.3878148,57.7770367 C57.9118148,57.7770367 59.1488148,59.0130367 59.1488148,60.5370367 C59.1488148,62.0610367 57.9118148,63.2970367 56.3878148,63.2970367 C54.8628148,63.2970367 53.6278148,62.0610367 53.6278148,60.5370367" id="Fill-274" fill="#FFFFFF"></path>
            <path d="M48.1278148,83.5951367 L42.2238148,81.1471367 L36.3198148,83.5951367 C36.3198148,83.5951367 28.3998148,92.0911367 31.2798148,106.058137 C34.0168148,113.833137 42.2238148,111.817137 42.2238148,112.537137 C42.2238148,111.817137 50.4318148,113.833137 53.1668148,106.058137 C56.0468148,92.0911367 48.1278148,83.5951367 48.1278148,83.5951367" id="Fill-276" fill="#D9A278"></path>
            <path d="M35.5887148,127.306137 C35.6787148,127.522137 36.7967148,127.799137 37.0587148,127.976137 C37.4157148,128.217137 37.7897148,128.386137 38.2247148,128.403137 C39.1397148,128.439137 40.0467148,128.378137 40.9417148,128.172137 C41.1187148,128.131137 41.3047148,128.040137 41.4827148,128.179137 C41.6357148,128.720137 42.1097148,129.009137 42.4557148,129.395137 C42.8127148,129.791137 43.1827148,130.156137 43.1547148,130.754137 C43.1297148,131.324137 42.8277148,131.638137 42.2467148,131.665137 C40.7167148,131.737137 39.1857148,131.781137 37.6527148,131.748137 C36.2097148,131.717137 34.7767148,131.906137 33.3357148,131.938137 C32.2337148,131.963137 31.1307148,132.077137 30.0327148,132.193137 C28.7977148,132.325137 27.5867148,132.596137 26.3927148,132.940137 C25.9757148,133.061137 25.5457148,133.136137 25.1217148,133.232137 L24.5117148,133.232137 C23.7557148,132.855137 23.5487148,132.439137 23.8437148,131.866137 C23.9687148,131.623137 24.1097148,131.389137 24.3177148,131.205137 C24.4047148,131.130137 24.4977148,131.060137 24.6487148,130.939137 C24.0997148,130.821137 23.6917148,130.600137 23.2567148,130.449137 C22.9817148,130.353137 22.9197148,130.136137 22.9527148,129.902137 C22.9857148,129.667137 22.9547148,129.405137 23.3027148,129.293137 C24.0537148,129.052137 24.8387148,128.993137 25.6017148,128.814137 C26.7787148,128.537137 27.9637148,128.275137 29.1517148,128.047137 C30.2187148,127.843137 31.2977148,127.715137 32.3867148,127.646137 C33.6007148,127.570137 34.3887148,127.552137 35.5887148,127.306137" id="Fill-278" fill="#84BA6F"></path>
            <path d="M54.9833148,125.914037 C55.3533148,125.597037 55.8163148,125.444037 56.2453148,125.244037 C58.1383148,124.361037 60.0913148,123.624037 62.1073148,123.081037 C63.5653148,122.687037 65.0543148,122.425037 66.5743148,122.421037 C67.2513148,122.420037 67.5593148,122.643037 67.7213148,123.170037 C67.8223148,123.496037 67.7113148,123.768037 67.5413148,124.024037 C67.3043148,124.382037 66.9513148,124.628037 66.6253148,124.893037 C66.4583148,125.028037 66.3543148,125.083037 66.6093148,125.227037 C67.2213148,125.574037 67.2253148,126.109037 66.5733148,126.528037 C66.0683148,126.851037 65.4953148,127.005037 64.9613148,127.252037 C64.5393148,127.447037 64.0953148,127.620037 63.6543148,127.781037 C62.1723148,128.321037 60.7433148,128.992037 59.2703148,129.548037 C58.3043148,129.913037 57.3263148,130.267037 56.2933148,130.441037 C55.5033148,130.575037 54.7273148,130.800037 53.9453148,130.980037 C53.0023148,131.198037 52.0443148,131.348037 51.1013148,131.575037 C50.5583148,131.705037 50.3093148,131.495037 50.1313148,130.945037 C49.9543148,130.392037 49.9903148,129.376037 49.8173148,128.820037 C49.7413148,128.544037 50.5083148,128.733037 50.9203148,128.666037 C52.1893148,128.458037 53.3383148,128.464037 54.4823148,127.831037 C55.1363148,127.468037 55.2283148,127.275037 55.0443148,126.539037 C54.9923148,126.333037 54.8963148,126.133037 54.9833148,125.914037" id="Fill-280" fill="#84BA6F"></path>
            <path d="M29.6864148,90.2660367 C30.2504148,91.6140367 30.6114148,93.0230367 30.9374148,94.4430367 C31.0314148,94.8520367 30.9314148,95.2800367 31.0584148,95.6850367 C30.9764148,96.6720367 30.3984148,97.3210367 29.5994148,97.8110367 C29.3314148,97.9760367 29.3494148,98.1360367 29.5414148,98.3430367 C29.6434148,98.4520367 29.7324148,98.5790367 29.7994148,98.7110367 C29.9934148,99.0890367 29.8574148,99.4480367 29.4724148,99.6370367 C29.2954148,99.7240367 29.1144148,99.7840367 28.9204148,99.8190367 C28.2594148,99.9390367 28.0474148,99.8140367 27.9864148,99.1560367 C27.9454148,98.7210367 27.8394148,98.5700367 27.3914148,98.7670367 C27.1384148,98.8800367 26.8374148,98.9000367 26.5544148,98.9270367 C25.1674148,99.0560367 24.7194148,98.5110367 24.6184148,97.1610367 C24.6904148,96.9190367 24.8804148,96.9160367 25.0864148,96.9110367 C25.6044148,96.8970367 25.6714148,96.7530367 25.6654148,96.2460367 C25.6504148,95.2210367 25.3434148,94.2790367 24.9954148,93.3330367 C24.8194148,92.8550367 24.6284148,92.4550367 24.0704148,92.3760367 C23.4814148,91.5280367 23.6524148,90.9190367 24.5854148,90.4850367 C25.3574148,90.1270367 26.1264148,89.7640367 26.8894148,89.3860367 C27.7444148,88.9620367 28.7934148,88.8760367 29.4524148,90.0020367 C29.5094148,90.1010367 29.6074148,90.1790367 29.6864148,90.2660367" id="Fill-282" fill="#AEBC4A"></path>
            <path d="M60.9608148,91.2499367 C61.4528148,92.9569367 61.1308148,94.5869367 60.4998148,96.1889367 C60.2798148,96.6249367 60.1938148,97.0389367 60.6228148,97.4219367 C60.7378148,97.5249367 60.7988148,97.7009367 60.8568148,97.8539367 C60.9628148,98.1339367 60.9818148,98.4369367 60.6898148,98.6009367 C60.3928148,98.7689367 60.0148148,98.7499367 59.8668148,98.4229367 C59.6088148,97.8539367 59.2188148,97.8549367 58.6818148,97.8939367 C57.6688148,97.9679367 56.6458148,98.0479367 55.6428148,97.7499367 C54.4038148,97.3819367 54.1258148,96.9829367 54.2578148,95.7149367 C54.3568148,94.9519367 54.6448148,94.2349367 54.7948148,93.4809367 C55.0038148,92.4389367 55.0948148,91.4169367 54.8768148,90.3739367 C54.8638148,90.3109367 54.8748148,90.2429367 54.8748148,90.1779367 C54.9748148,89.0999367 55.2938148,88.8349367 56.3688148,88.9229367 C57.2878148,88.9989367 58.2188148,89.0349367 59.0838148,89.3929367 C59.9538148,89.7519367 60.7548148,90.2079367 60.9608148,91.2499367" id="Fill-284" fill="#AEBC4A"></path>
            <path d="M28.1805148,130.152237 C28.2195148,129.990237 28.3005148,129.956237 28.3815148,129.926237 C30.1515148,129.261237 31.9675148,128.802237 33.8615148,128.693237 C34.0855148,128.680237 34.4705148,128.588237 34.4875148,128.887237 C34.5045148,129.199237 34.1185148,129.112237 33.8965148,129.129237 C32.4025148,129.239237 30.9655148,129.638237 29.5175148,129.982237 C29.0895148,130.083237 28.6605148,130.222237 28.1805148,130.152237" id="Fill-286" fill="#006C2C"></path>
            <path d="M30.5331148,130.943337 C30.7911148,130.610337 31.1521148,130.625337 31.4521148,130.534337 C32.4921148,130.222337 33.5561148,130.022337 34.6461148,129.992337 C34.7581148,129.989337 34.9081148,129.975337 34.9341148,130.120337 C34.9621148,130.266337 34.8211148,130.317337 34.7111148,130.336337 C33.4021148,130.563337 32.1071148,130.870337 30.7791148,130.977337 C30.7151148,130.983337 30.6481148,130.960337 30.5331148,130.943337" id="Fill-288" fill="#006C2C"></path>
            <path d="M2.61121476,64.8383367 C1.85621476,64.3143367 0.80421476,62.8573367 1.07421476,62.0853367 C0.92021476,54.2783367 1.96321476,44.5343367 6.81421476,39.6713367 C7.97521476,38.5063367 9.25121476,37.5133367 10.7242148,36.7823367 C10.9952148,36.6493367 11.2922148,36.5853367 11.2982148,36.1823367 C11.3422148,33.2423367 13.2912148,31.4463367 15.3032148,29.7643367 C17.3042148,28.0933367 19.6352148,26.9893367 22.1882148,26.4063367 C24.9502148,25.7743367 27.6722148,24.9903367 30.5772148,25.1703367 C33.5722148,25.3563367 35.7802148,26.6613367 37.1792148,29.2783367 C37.5132148,29.9023367 37.8352148,30.0543367 38.4952148,29.9243367 C41.7232148,29.2843367 44.9172148,28.4123367 48.2382148,28.3553367 C48.5972148,28.3493367 48.7582148,28.1413367 48.9192148,27.8583367 C49.1612148,27.4313367 49.4842148,27.0493367 49.7192148,26.6193367 C51.5892148,23.2063367 54.9482148,22.2963367 58.3562148,21.6403367 C61.8582148,20.9663367 65.4152148,20.7343367 68.9862148,21.1973367 C71.6182148,21.5383367 73.7782148,22.6733367 75.5322148,24.7003367 C76.8832148,26.2603367 77.2582148,28.0093367 76.6932148,29.8843367 C76.1152148,31.8033367 75.0452148,33.5123367 73.2442148,34.5233367 C68.3312148,37.2833367 63.0492148,38.3413367 57.4682148,37.4793367 C54.1312148,36.9643367 51.3542148,35.4953367 49.9852148,32.1243367 C49.6472148,31.2923367 48.9652148,30.9983367 48.0572148,31.0953367 C44.8092148,31.4413367 41.6632148,32.3293367 38.4462148,32.8373367 C38.1032148,32.8913367 37.8942148,33.0073367 37.8042148,33.3533367 C36.9212148,36.7283367 34.3512148,38.2523367 31.3062148,39.2453367 C27.5432148,40.4723367 23.7272148,41.4563367 19.7262148,41.1853367 C17.2182148,41.0153367 14.7292148,40.6233367 12.7582148,38.8423367 C12.2822148,38.4113367 12.1072148,38.6793367 11.7702148,38.9613367 C6.04321476,43.7483367 5.71521476,48.3603367 4.52421476,57.8673367 C4.30821476,60.3093367 5.03621476,63.4533367 4.83821476,63.9013367 C4.28321476,64.7133367 3.63321476,65.5713367 2.61121476,64.8383367" id="Fill-290" fill="#AEBC4A"></path>
            <path d="M61.5712148,126.607337 C60.7252148,126.877337 59.8802148,127.148337 59.0322148,127.416337 C58.8922148,127.461337 58.6942148,127.547337 58.6302148,127.381337 C58.5672148,127.215337 58.7662148,127.134337 58.9052148,127.074337 C60.5192148,126.365337 62.1742148,125.771337 63.9002148,125.400337 C64.0882148,125.360337 64.3972148,125.252337 64.4592148,125.510337 C64.5092148,125.720337 64.2052148,125.768337 64.0232148,125.827337 C63.2082148,126.093337 62.3902148,126.351337 61.5732148,126.611337 C61.5722148,126.610337 61.5722148,126.608337 61.5712148,126.607337" id="Fill-292" fill="#006D2C"></path>
            <path d="M64.1766148,124.327137 C63.3156148,125.005137 62.2636148,125.222137 61.2886148,125.610137 C60.2806148,126.012137 59.2496148,126.359137 58.2536148,126.792137 C58.2396148,126.799137 58.2256148,126.806137 58.2106148,126.808137 C58.0466148,126.834137 57.8426148,127.042137 57.7346148,126.789137 C57.6426148,126.577137 57.8886148,126.520137 58.0286148,126.454137 C58.4296148,126.267137 58.8336148,126.085137 59.2476148,125.927137 C60.4046148,125.482137 61.5666148,125.051137 62.7256148,124.614137 C63.1946148,124.438137 63.6806148,124.358137 64.1766148,124.327137" id="Fill-294" fill="#006C2C"></path>
            <path d="M60.4100148,79.2152367 C58.8910148,79.2442367 57.3970148,79.5572367 55.8870148,79.6422367 C53.8800148,79.7542367 51.9090148,80.2972367 49.8820148,80.1352367 C49.5410148,80.1082367 49.2640148,80.1832367 49.0120148,80.4472367 C48.6130148,80.8652367 48.0340148,80.8952367 47.5220148,80.9082367 C46.6670148,80.9322367 45.8170148,81.0372367 44.9630148,81.0462367 C43.7060148,81.0572367 42.4600148,80.9372367 41.2310148,80.6902367 C40.4000148,80.5222367 39.8380148,79.9892367 39.6070148,79.1752367 C39.3370148,78.2182367 39.2660148,77.2372367 39.4590148,76.2522367 C39.6670148,75.1882367 40.4570148,74.6272367 41.9060148,74.4022367 C43.1800148,74.2042367 44.4630148,74.0072367 45.7430148,73.9942367 C46.6860148,73.9852367 47.6820148,73.8912367 48.5970148,74.3402367 C49.1180148,74.5962367 49.4500148,74.9652367 49.5170148,75.5432367 C49.5630148,75.9372367 49.7640148,76.0742367 50.1420148,75.9762367 C50.2700148,75.9432367 50.4030148,75.8992367 50.5320148,75.9042367 C52.2680148,75.9672367 53.9730148,75.6982367 55.6810148,75.4412367 C57.8360148,75.1172367 59.9850148,74.7682367 62.1120148,74.2932367 C62.2220148,74.2692367 62.3260148,74.2182367 62.4320148,74.1802367 C62.6310148,74.0072367 62.8480148,73.9102367 63.1140148,74.0052367 C63.5610148,74.5132367 63.7120148,75.1722367 63.9900148,75.7662367 C64.3970148,76.6362367 64.5770148,77.6022367 65.0920148,78.4292367 C63.8080148,78.8722367 62.4690148,78.9762367 61.1320148,79.1022367 C60.8890148,79.1252367 60.6360148,79.0762367 60.4100148,79.2152367" id="Fill-296" fill="#AEBC4A"></path>
            <path d="M66.5643148,53.6947367 C66.3413148,53.3477367 66.4353148,52.9577367 66.4573148,52.5947367 C66.5063148,51.7777367 66.3043148,50.9487367 66.5653148,50.1417367 C66.6673148,50.1827367 66.7313148,50.4377367 66.8713148,50.2467367 C67.3473148,49.5977367 68.0853148,49.7407367 68.7043148,49.7107367 C70.0093148,49.6467367 71.3243148,49.7317367 72.6263148,49.8997367 C73.7753148,50.0467367 74.1943148,50.4667367 74.3353148,51.5967367 C74.3953148,52.0677367 74.4273148,52.5427367 74.4413148,53.0167367 C74.4673148,53.9367367 74.0073148,54.4287367 73.0853148,54.5027367 C72.9083148,54.5167367 72.6863148,54.4417367 72.6233148,54.7117367 C72.5103148,54.8287367 72.3673148,54.8757367 72.2113148,54.8767367 C71.0383148,54.8847367 69.8553148,54.9917367 68.7143148,54.5987367 C68.3613148,54.4767367 68.0003148,54.5477367 67.6433148,54.5287367 C67.0643148,54.5357367 66.8063148,54.1257367 66.5643148,53.6947367" id="Fill-298" fill="#84BA6F"></path>
            <path d="M69.4022148,75.9984367 C68.5402148,77.1464367 67.3432148,77.7384367 65.9822148,78.0564367 C65.8182148,77.9994367 65.7642148,77.8534367 65.7092148,77.7114367 C65.2062148,76.4154367 64.7972148,75.0804367 64.0352148,73.8974367 C64.0052148,73.8504367 64.0092148,73.7874367 64.0132148,73.7294367 C64.5012148,73.1794367 65.2082148,73.1034367 65.8462148,72.8804367 C66.3682148,73.4794367 66.8902148,74.0734367 67.5222148,74.5704367 C67.8112148,74.7974367 68.1612148,74.6804367 68.3832148,74.8174367 C68.5732148,74.9364367 68.5062148,75.3754367 68.8112148,75.5594367 C69.0192148,75.6834367 69.2352148,75.8124367 69.4022148,75.9984367" id="Fill-300" fill="#AEBC4A"></path>
            <path d="M72.1503148,64.2079367 C71.9763148,65.1319367 71.8023148,66.0559367 71.6293148,66.9799367 C70.2813148,66.9499367 68.9263148,66.9939367 67.6003148,66.6709367 C67.3803148,65.8179367 67.5253148,65.0199367 67.9633148,64.2659367 C69.2543148,64.1319367 70.5453148,63.9819367 71.8473148,64.0699367 C71.9613148,64.0779367 72.0683148,64.1209367 72.1503148,64.2079367" id="Fill-302" fill="#AEBC4A"></path>
            <path d="M72.5301148,60.6820367 C72.5481148,61.4880367 72.3991148,62.2780367 72.2961148,63.0730367 C72.1461148,63.2080367 71.9641148,63.2450367 71.7711148,63.2510367 C70.6381148,63.2860367 69.5041148,63.2010367 68.3741148,63.3280367 C68.2601148,63.3400367 68.1491148,63.3000367 68.0521148,63.2330367 C68.0001148,63.1780367 67.9431148,63.1140367 67.9401148,63.0400367 C67.9091148,62.2690367 67.9211148,61.5010367 68.1521148,60.7540367 C69.5411148,60.5310367 70.9391148,60.5150367 72.3411148,60.5590367 C72.4141148,60.5620367 72.4751148,60.6270367 72.5301148,60.6820367" id="Fill-304" fill="#AEBC4A"></path>
            <path d="M70.7987148,71.7689367 C70.6197148,72.8019367 70.3207148,73.7989367 69.8877148,74.7539367 C69.7007148,74.8929367 69.5627148,74.7609367 69.4307148,74.6629367 C68.5297148,73.9929367 67.6257148,73.3299367 66.7407148,72.6409367 C66.5767148,72.5129367 66.4217148,72.3679367 66.3627148,72.1529367 C66.4337148,71.6179367 66.3597148,71.0439367 66.7727148,70.5999367 C67.8567148,71.0009367 68.9937148,71.1879367 70.1147148,71.4459367 C70.3617148,71.5029367 70.6577148,71.4769367 70.7987148,71.7689367" id="Fill-306" fill="#AEBC4A"></path>
            <path d="M72.6356148,57.2387367 C72.6366148,58.0007367 72.6376148,58.7637367 72.6386148,59.5257367 C72.5196148,59.6307367 72.3796148,59.6927367 72.2246148,59.6897367 C71.0106148,59.6737367 69.8066148,59.8117367 68.5976148,59.8757367 C68.4826148,59.8817367 68.3716148,59.8487367 68.2786148,59.7747367 C68.1536148,59.6397367 68.1266148,59.4697367 68.1196148,59.2977367 C68.0866148,58.4777367 68.2546148,57.6677367 68.2596148,56.8487367 C68.2606148,56.7177367 68.3226148,56.5897367 68.4646148,56.5307367 C68.5126148,56.5597367 68.5646148,56.5817367 68.5906148,56.6377367 C68.9136148,57.3297367 68.9606148,57.3847367 69.7286148,57.2667367 C70.4986148,57.1497367 71.2816148,57.2447367 72.0476148,57.0987367 C72.2556148,57.0597367 72.4646148,57.0877367 72.6356148,57.2387367" id="Fill-308" fill="#AEBC4A"></path>
            <path d="M71.3739148,68.1088367 C71.3409148,68.9248367 71.1769148,69.7228367 71.0509148,70.5258367 C69.8439148,70.3118367 68.6429148,70.0668367 67.4339148,69.8668367 C67.2429148,69.8348367 67.0659148,69.7748367 66.9559148,69.5978367 C66.8769148,68.8908367 66.8809148,68.2018367 67.3719148,67.6148367 C68.4069148,67.7488367 69.4449148,67.8478367 70.4909148,67.8338367 C70.8089148,67.8288367 71.1479148,67.7978367 71.3739148,68.1088367" id="Fill-310" fill="#AEBC4A"></path>
            <path d="M67.4803148,54.3905367 C68.1353148,54.2575367 68.7513148,54.4595367 69.3793148,54.5975367 C70.4513148,54.8325367 71.5413148,54.6865367 72.6233148,54.7115367 C72.6243148,55.1755367 72.6263148,55.6395367 72.6263148,56.1035367 C72.1823148,56.3795367 71.6673148,56.3115367 71.1903148,56.3485367 C70.4343148,56.4065367 69.6783148,56.4525367 68.9243148,56.5385367 C68.7923148,56.5545367 68.6593148,56.5575367 68.5393148,56.4845367 C68.2733148,56.2325367 68.3873148,55.9245367 68.4223148,55.6335367 C68.5183148,54.8285367 68.5213148,54.8295367 67.7513148,54.6245367 C67.6253148,54.5915367 67.4863148,54.5655367 67.4803148,54.3905367" id="Fill-312" fill="#AEBC4A"></path>
            <path d="M66.4325148,72.2074367 C67.4975148,73.0224367 68.5625148,73.8384367 69.6305148,74.6494367 C69.7025148,74.7034367 69.8015148,74.7204367 69.8875148,74.7544367 C69.8785148,75.2284367 69.6545148,75.6194367 69.4035148,75.9984367 C68.7035148,75.8444367 68.2705148,75.3714367 68.3475148,74.7384367 C68.1605148,75.0804367 67.9875148,75.0914367 67.7435148,74.8904367 C67.0475148,74.3164367 66.2485148,73.8464367 65.8955148,72.9484367 C66.0355148,72.6734367 66.1415148,72.3734367 66.4325148,72.2074367" id="Fill-314" fill="#86BA6F"></path>
            <path d="M64.0477148,73.7289367 C65.0097148,75.0299367 65.4037148,76.5839367 65.9827148,78.0569367 C65.7237148,78.2709367 65.3997148,78.3329367 65.0917148,78.4299367 C64.8327148,78.4179367 64.7337148,78.2299367 64.6687148,78.0259367 C64.2417148,76.6619367 63.6417148,75.3659367 63.1117148,74.0429367 C63.3407148,73.6899367 63.6547148,73.5939367 64.0477148,73.7289367" id="Fill-316" fill="#86BA6F"></path>
            <path d="M67.0184148,69.5961367 C68.2044148,69.8251367 69.3884148,70.0581367 70.5754148,70.2781367 C70.7684148,70.3131367 70.9544148,70.3231367 71.0504148,70.5261367 C71.0084148,70.9491367 70.9674148,71.3721367 70.7984148,71.7691367 C69.6584148,71.5041367 68.5154148,71.2441367 67.3764148,70.9701367 C67.1514148,70.9161367 66.8644148,70.9371367 66.7834148,70.6241367 C66.6254148,70.2271367 66.6334148,69.8681367 67.0184148,69.5961367" id="Fill-318" fill="#86BA6F"></path>
            <path d="M71.3739148,68.1088367 C71.0089148,67.9888367 70.6309148,67.9838367 70.2559148,68.0078367 C69.4229148,68.0638367 68.6059148,67.8528367 67.7759148,67.8798367 C67.5929148,67.8858367 67.4439148,67.8248367 67.3579148,67.6508367 C67.2179148,67.2568367 67.2609148,66.9048367 67.5929148,66.6188367 C68.8569148,66.6968367 70.1219148,66.7738367 71.3859148,66.8588367 C71.4699148,66.8638367 71.5479148,66.9388367 71.6289148,66.9808367 C71.5499148,67.3578367 71.5409148,67.7508367 71.3739148,68.1088367" id="Fill-320" fill="#86BA6F"></path>
            <path d="M68.0565148,63.1893367 C69.4655148,63.0033367 70.8815148,63.0883367 72.2955148,63.0723367 C72.2465148,63.4513367 72.1995148,63.8293367 72.1505148,64.2083367 C70.7455148,64.2523367 69.3415148,64.2963367 67.9385148,64.3413367 C67.6805148,63.9263367 67.8035148,63.5513367 68.0565148,63.1893367" id="Fill-322" fill="#86BA6F"></path>
            <path d="M68.2831148,59.7543367 C69.7301148,59.5893367 71.1801148,59.4873367 72.6381148,59.5253367 C72.6481148,59.9153367 72.6691148,60.3063367 72.5301148,60.6823367 C71.0811148,60.6503367 69.6371148,60.8903367 68.1861148,60.7813367 C68.1451148,60.7403367 68.1251148,60.6903367 68.1221148,60.6333367 C68.1651148,60.3613367 68.1021148,60.0753367 68.2231148,59.8133367 C68.2431148,59.7933367 68.2621148,59.7743367 68.2831148,59.7543367" id="Fill-324" fill="#86BA6F"></path>
            <path d="M68.5223148,56.4432367 C69.8793148,56.1982367 71.2533148,56.1562367 72.6263148,56.1032367 L72.6353148,57.2382367 C71.5943148,57.3142367 70.5543148,57.4092367 69.5113148,57.4592367 C68.5423148,57.5052367 68.5413148,57.4832367 68.5023148,56.5472367 C68.4783148,56.5062367 68.4843148,56.4712367 68.5223148,56.4432367" id="Fill-326" fill="#86BB6F"></path>
            <path d="M47.8378148,75.2011367 C48.2848148,75.1441367 48.6488148,75.2431367 48.9618148,75.6061367 C49.2428148,75.9311367 49.1908148,76.1461367 48.8578148,76.3341367 C48.5908148,76.4831367 48.3008148,76.5621367 47.9878148,76.5841367 C46.7808148,76.6691367 46.1388148,77.3411367 46.0868148,78.5641367 C46.0748148,78.8311367 46.0898148,79.0981367 46.0828148,79.3651367 C46.0618148,80.2041367 45.4558148,80.5691367 44.7288148,80.1861367 C43.1788148,79.3691367 43.0368148,77.2781367 44.4608148,76.2501367 C45.4718148,75.5211367 46.6388148,75.3021367 47.8378148,75.2011367" id="Fill-328" fill="#84BA6F"></path>
            <path d="M68.1805148,60.6723367 C68.1815148,60.3633367 68.0885148,60.0433367 68.2835148,59.7553367 C68.2565148,60.0623367 68.3745148,60.3843367 68.1805148,60.6723367" id="Fill-330" fill="#AEBC4A"></path>
            <path d="M63.0360148,34.6137367 C60.2930148,34.7467367 57.4810148,34.7987367 54.7870148,33.5967367 C53.1850148,32.8827367 52.5110148,31.4627367 51.7780148,30.0627367 C51.6740148,29.8637367 51.6970148,29.4937367 51.8180148,29.2997367 C52.5720148,28.0847367 53.2390148,26.6777367 54.6080148,26.1147367 C59.3210148,24.1797367 64.2250148,23.6667367 69.2560148,24.5187367 C70.7230148,24.7677367 71.9030148,25.4937367 72.9060148,26.6297367 C73.6890148,27.5177367 73.8540148,28.4117367 73.4120148,29.4327367 C72.8550148,30.7147367 72.0150148,31.6987367 70.6820148,32.3227367 C68.2670148,33.4527367 65.7920148,34.3117367 63.0360148,34.6137367" id="Fill-332" fill="#FBFBFB"></path>
            <path d="M14.3163148,35.5629367 C15.3583148,32.9799367 17.4793148,31.4879367 19.7983148,30.2319367 C22.6673148,28.6789367 25.7843148,28.2349367 29.0043148,28.3209367 C29.7953148,28.3429367 30.5773148,28.2699367 31.3753148,28.4169367 C32.6753148,28.6569367 33.5553148,29.4149367 34.2313148,30.4689367 C35.1283148,31.8709367 34.8593148,33.4899367 33.5503148,34.6399367 C32.1703148,35.8539367 30.4273148,36.2899367 28.7403148,36.8229367 C25.7713148,37.7599367 22.7463148,38.4399367 19.6133148,38.1779367 C17.8963148,38.0339367 16.1423148,37.8359367 14.7343148,36.6349367 C14.4073148,36.3509367 14.1873148,36.0249367 14.3163148,35.5629367" id="Fill-334" fill="#FBFBFB"></path>
            <path d="M7.13171476,61.1005367 C7.13171476,61.1005367 2.15371476,58.2245367 0.38471476,62.9805367 C-1.38528524,67.7365367 3.16471476,73.2205367 9.67571476,72.8555367 L7.13171476,61.1005367 Z" id="Fill-336" fill="#D9A278"></path>
            <path d="M5.23231476,66.5556367 C5.39231476,66.1026367 5.68731476,66.0276367 5.97631476,66.0916367 C5.79031476,65.0236367 5.72231476,64.3566367 5.72231476,64.3566367 C5.70831476,64.3416367 5.69231476,64.3266367 5.67731476,64.3126367 C4.22131476,62.9126367 1.83131476,64.4756367 2.45631476,66.3956367 C2.93931476,67.8826367 4.51231476,68.8326367 6.69431476,69.3356367 C6.54231476,68.7696367 6.41331476,68.2316367 6.30131476,67.7296367 C5.70631476,67.5546367 5.00331476,67.2056367 5.23231476,66.5556367" id="Fill-338" fill="#C08451"></path>
            <path d="M79.2147148,66.5556367 C79.0557148,66.1026367 78.7597148,66.0276367 78.4707148,66.0916367 C78.6567148,65.0236367 78.7257148,64.3566367 78.7257148,64.3566367 C78.7397148,64.3416367 78.7547148,64.3266367 78.7707148,64.3126367 C80.2267148,62.9126367 82.6157148,64.4756367 81.9907148,66.3956367 C81.5077148,67.8826367 79.9357148,68.8326367 77.7537148,69.3356367 C77.9047148,68.7696367 78.0337148,68.2316367 78.1457148,67.7296367 C78.7417148,67.5546367 79.4437148,67.2056367 79.2147148,66.5556367" id="Fill-340" fill="#C08451"></path>
            <polygon id="Fill-342" fill="#AEBC4A" points="76.1503148 25.5399367 77.8753148 25.5399367 79.0713148 27.5409367 76.6443148 28.3749367"></polygon>
            <path d="M30.7977148,102.906237 L39.7037148,104.110237 L47.3967148,103.689237 L53.6617148,102.777237 L56.8457148,114.471237 C57.0517148,115.228237 56.6097148,116.010237 55.8567148,116.225237 L45.9537148,119.048237 C45.9437148,119.042237 45.9397148,119.039237 45.9287148,119.034237 C45.3877148,117.156237 44.8127148,115.289237 44.2377148,113.422237 C44.2337148,113.406237 44.2277148,113.388237 44.2117148,113.380237 C44.1987148,113.373237 44.1827148,113.375237 44.1677148,113.378237 C43.8467148,113.436237 43.5267148,113.512237 43.2077148,113.579237 C43.0167148,113.619237 42.6667148,113.564237 42.5257148,113.708237 C42.4347148,113.800237 42.4417148,113.946237 42.4517148,114.074237 C42.5677148,115.399237 42.5067148,116.741237 42.5067148,118.071237 L42.5067148,119.828237 L32.9677148,119.828237 C32.0787148,119.828237 31.3507148,119.123237 31.3197148,118.235237 L30.7977148,102.906237 Z" id="Fill-344" fill="#AEBC4A"></path>
            <path d="M30.7977148,102.906237 C30.7977148,102.906237 41.3467148,105.968237 53.6617148,102.777237" id="Fill-346" fill="#E09B60"></path>
            <path d="M42.1083148,117.753837 C41.4833148,117.628837 41.3823148,116.982837 40.9413148,116.566837 C40.7423148,116.962837 40.5643148,117.340837 40.3643148,117.705837 C40.1013148,118.183837 39.7943148,118.251837 39.3823148,117.893837 C39.0003148,117.558837 38.6373148,117.196837 38.2943148,116.821837 C38.0863148,116.594837 37.9513148,116.575837 37.8103148,116.861837 C37.7833148,116.915837 37.7443148,116.963837 37.7103148,117.014837 C36.8753148,118.263837 36.6433148,118.297837 35.4963148,117.334837 C35.4493148,117.295837 35.4083148,117.248837 35.3623148,117.209837 C34.7173148,116.662837 34.7173148,116.662837 34.2423148,117.322837 C33.8673148,117.843837 33.6213148,117.882837 33.0723148,117.532837 C32.5713148,117.212837 32.1533148,116.795837 31.7123148,116.405837 C31.7043148,116.239837 31.5093148,116.085837 31.6783148,115.907837 C31.9393148,115.728837 32.1413148,115.894837 32.3473148,116.021837 C32.5923148,116.172837 32.7803148,116.392837 33.0013148,116.572837 C33.4073148,116.906837 33.5403148,116.872837 33.7703148,116.397837 C34.1423148,115.632837 34.5853148,115.528837 35.2543148,116.051837 C35.4623148,116.214837 35.6503148,116.401837 35.8623148,116.562837 C36.5973148,117.122837 36.5953148,117.123837 37.1013148,116.374837 C37.2933148,116.091837 37.4463148,115.768837 37.8223148,115.675837 L38.1883148,115.687837 C38.7183148,115.840837 38.9083148,116.378837 39.3063148,116.688837 C39.6313148,116.941837 39.8113148,116.976837 39.9773148,116.566837 C40.0603148,116.359837 40.1773148,116.166837 40.3073148,115.983837 C40.7083148,115.416837 41.2283148,115.399837 41.6433148,115.961837 C41.9093148,116.321837 42.1043148,116.724837 42.2233148,117.160837 C42.1853148,117.357837 42.1473148,117.555837 42.1083148,117.753837" id="Fill-348" fill="#86BA6F"></path>
            <path d="M56.1434148,114.744537 C55.5084148,114.814537 55.2184148,114.228537 54.6714148,113.966537 C54.6014148,114.403537 54.5454148,114.816537 54.4654148,115.225537 C54.3604148,115.760537 54.0864148,115.918537 53.5864148,115.700537 C53.1204148,115.497537 52.6654148,115.262537 52.2244148,115.008537 C51.9574148,114.854537 51.8234148,114.877537 51.7754148,115.192537 C51.7664148,115.252537 51.7434148,115.310537 51.7264148,115.369537 C51.3074148,116.812537 51.0974148,116.913537 49.7124148,116.342537 C49.6564148,116.319537 49.6034148,116.287537 49.5474148,116.264537 C48.7674148,115.936537 48.7674148,115.937537 48.5144148,116.710537 C48.3144148,117.320537 48.0904148,117.432537 47.4614148,117.264537 C46.8874148,117.110537 46.3644148,116.838537 45.8254148,116.600537 C45.7664148,116.444537 45.5364148,116.356537 45.6434148,116.135537 C45.8364148,115.886537 46.0804148,115.983537 46.3154148,116.042537 C46.5944148,116.112537 46.8394148,116.265537 47.1044148,116.370537 C47.5914148,116.565537 47.7084148,116.493537 47.7854148,115.970537 C47.9084148,115.129537 48.2984148,114.896537 49.0944148,115.193537 C49.3424148,115.286537 49.5784148,115.407537 49.8294148,115.496537 C50.6994148,115.807537 50.6974148,115.809537 50.9534148,114.942537 C51.0494148,114.615537 51.0984148,114.260537 51.4284148,114.058537 C51.5464148,114.025537 51.6644148,113.992537 51.7824148,113.958537 C52.3324148,113.945537 52.6764148,114.400537 53.1504148,114.575537 C53.5374148,114.718537 53.7184148,114.697537 53.7514148,114.256537 C53.7694148,114.034537 53.8234148,113.814537 53.8914148,113.601537 C54.1014148,112.939537 54.5924148,112.766537 55.1584148,113.176537 C55.5204148,113.439537 55.8284148,113.764537 56.0734148,114.143537 L56.1434148,114.744537 Z" id="Fill-350" fill="#86BA6F"></path>
            <path d="M43.1317148,100.693737 C43.1447148,101.036737 43.0217148,101.319737 42.8567148,101.326737 C42.6927148,101.332737 42.5477148,101.059737 42.5347148,100.715737 C42.5227148,100.372737 42.6457148,100.089737 42.8097148,100.082737 C42.9747148,100.076737 43.1187148,100.349737 43.1317148,100.693737" id="Fill-352" fill="#725041"></path>
            <path d="M37.9432148,93.3515367 C37.9442148,93.3115367 37.9422148,93.2715367 37.9342148,93.2305367 C37.9332148,93.2255367 37.9322148,93.2195367 37.9312148,93.2135367 C37.8452148,92.7845367 37.1522148,92.7845367 37.0672148,93.2135367 C37.0662148,93.2195367 37.0642148,93.2255367 37.0632148,93.2305367 C37.0552148,93.2715367 37.0532148,93.3115367 37.0542148,93.3515367 C37.0542148,93.3695367 37.0552148,93.3865367 37.0572148,93.4045367 L37.0572148,93.4115367 C37.0592148,93.4315367 37.0592148,93.4505367 37.0632148,93.4705367 C37.0832148,93.5665367 37.1402148,93.6445367 37.2152148,93.7025367 C37.2282148,93.7125367 37.2432148,93.7205367 37.2572148,93.7295367 C37.2632148,93.7335367 37.2692148,93.7385367 37.2762148,93.7425367 C37.3082148,93.7605367 37.3412148,93.7755367 37.3792148,93.7865367 C37.4182148,93.7965367 37.4582148,93.7995367 37.4992148,93.7985367 C37.5402148,93.7995367 37.5802148,93.7965367 37.6192148,93.7865367 C37.6572148,93.7755367 37.6902148,93.7605367 37.7212148,93.7425367 C37.7282148,93.7385367 37.7342148,93.7335367 37.7412148,93.7295367 C37.7552148,93.7205367 37.7692148,93.7125367 37.7822148,93.7025367 C37.8582148,93.6445367 37.9152148,93.5665367 37.9342148,93.4705367 C37.9382148,93.4505367 37.9382148,93.4315367 37.9402148,93.4115367 C37.9402148,93.4085367 37.9402148,93.4065367 37.9412148,93.4045367 C37.9422148,93.3865367 37.9442148,93.3695367 37.9432148,93.3515367" id="Fill-354" fill="#B06754"></path>
            <path d="M48.3758148,92.3578367 C48.1148148,92.3578367 47.8968148,92.5758367 47.8968148,92.8368367 C47.8968148,93.0978367 48.1148148,93.3158367 48.3758148,93.3158367 C48.6368148,93.3158367 48.8548148,93.0978367 48.8548148,92.8368367 C48.8548148,92.5758367 48.6368148,92.3578367 48.3758148,92.3578367" id="Fill-356" fill="#B06754"></path>
        </g>
    </g>
</svg>