<?xml version="1.0" encoding="UTF-8"?>
<svg width="101px" height="123px" viewBox="0 0 101 123" version="1.1" xmlns="http://www.w3.org/2000/svg" xmlns:xlink="http://www.w3.org/1999/xlink">
    <!-- Generator: Sketch 53.1 (72631) - https://sketchapp.com -->
    <title>Group 2child6</title>
    <desc>Created with Sketch.</desc>
    <g id="Page-1" stroke="none" stroke-width="1" fill="none" fill-rule="evenodd">
        <g id="Group-2" transform="translate(0.372827, 0.000189)">
            <path d="M15.1330725,37.9510111 C14.9040725,41.1190111 15.5850725,44.2100111 15.9510725,47.3270111 C15.8430725,47.3940111 15.6820725,47.5450111 15.6340725,47.5160111 C12.6360725,45.7030111 9.0840725,45.5530111 5.8770725,44.3690111 C4.6420725,43.9120111 3.4460725,43.4000111 2.3270725,42.7050111 C1.7600725,42.3540111 1.1760725,41.9440111 1.2750725,41.2810111 C1.3830725,40.5540111 2.0020725,40.0630111 2.7200725,39.8260111 C4.2240725,39.3290111 5.7940725,39.1520111 7.3550725,38.9070111 C9.4450725,38.5780111 11.5080725,38.0860111 13.5920725,37.7190111 C14.0950725,37.6300111 14.6830725,37.4840111 15.1330725,37.9510111" id="Fill-511" fill="#0D9FCC"></path>
            <path d="M84.8283725,50.5520111 C84.7253725,48.4680111 85.0003725,46.4060111 85.1833725,44.3390111 C86.0753725,44.0560111 86.8253725,44.5880111 87.5773725,44.8540111 C90.2753725,45.8080111 92.8233725,47.1130111 95.3573725,48.4360111 C95.9643725,48.7520111 96.4993725,49.1650111 96.9853725,49.6410111 C97.1323725,49.7840111 97.3103725,49.9340111 97.2373725,50.1700111 C97.1543725,50.4340111 96.9043725,50.3470111 96.7103725,50.3820111 C94.6843725,50.7420111 92.6403725,50.4750111 90.6063725,50.5560111 C89.0463725,50.6190111 87.4783725,50.4260111 85.9213725,50.7160111 C85.5763725,50.7800111 85.1493725,50.8790111 84.8283725,50.5520111" id="Fill-512" fill="#0D9FCC"></path>
            <path d="M24.5940725,26.3587111 C24.5940725,26.3587111 15.8260725,33.7127111 10.5070725,24.8237111 C5.2130725,16.0887111 12.6640725,15.2837111 12.6640725,15.2837111 C12.6640725,15.2837111 5.9540725,8.68871108 13.2260725,3.48771108 C20.4980725,-1.71228892 24.1580725,3.03471108 24.1580725,3.03471108 C24.1580725,3.03471108 28.5840725,-3.41628892 35.6070725,2.49271108 C42.6280725,8.40171108 37.1840725,16.2927111 37.1840725,16.2927111 L24.5940725,26.3587111 Z" id="Fill-513" fill="#000000"></path>
            <path d="M80.3547725,26.9632111 L65.7207725,15.1212111 C65.7207725,15.1212111 61.1897725,4.21421108 68.5127725,1.40921108 C75.8357725,-1.39578892 77.8627725,4.05821108 77.8627725,4.05821108 C77.8627725,4.05821108 80.7957725,-1.55178892 87.1207725,3.12321108 C93.4437725,7.79721108 90.1717725,14.8092111 90.1717725,14.8092111 C90.1717725,14.8092111 95.1587725,16.9762111 93.1317725,23.2162111 C91.1067725,29.4562111 83.6857725,29.6582111 80.3547725,26.9632111" id="Fill-514" fill="#000000"></path>
            <path d="M17.3557725,30.2752111 L15.8487725,29.0592111 C15.8487725,29.0592111 17.3557725,11.1482111 39.0097725,7.92121108 C38.9957725,7.84621108 41.1717725,10.5952111 41.1717725,10.5952111 L17.3557725,30.2752111 Z" id="Fill-515" fill="#E5007E"></path>
            <path d="M83.9738725,30.9075111 L87.0738725,28.4685111 C87.0738725,28.4685111 85.3198725,17.0755111 64.2918725,8.94951108 C64.3068725,8.87351108 62.1288725,11.6225111 62.1288725,11.6225111 L83.9738725,30.9075111 Z" id="Fill-516" fill="#E5007E"></path>
            <path d="M84.3430725,28.6140111 C93.7360725,43.7850111 94.4180725,58.8170111 81.2790725,66.7500111 C68.1400725,74.6830111 31.2780725,74.1570111 18.8520725,65.1980111 C6.4250725,56.2400111 11.5210725,37.2810111 22.9350725,20.3750111 C34.3500725,3.47001108 51.3220725,9.39401108 51.3220725,9.39401108 C62.5160725,6.64901108 74.9510725,13.4420111 84.3430725,28.6140111" id="Fill-517" fill="#000000"></path>
            <path d="M56.8156725,80.1136111 L51.1116725,77.7486111 L45.4086725,80.1136111 C45.4086725,80.1136111 37.7566725,88.3216111 40.5396725,101.815611 C43.1816725,109.327611 51.1116725,107.380611 51.1116725,108.075611 C51.1116725,107.380611 59.0416725,109.327611 61.6846725,101.815611 C64.4666725,88.3216111 56.8156725,80.1136111 56.8156725,80.1136111" id="Fill-518" fill="#6D4412"></path>
            <polygon id="Fill-519" fill="#6D4412" points="40.3352725 100.719011 44.7992725 120.022011 41.6482725 122.886011 50.2412725 122.886011 50.2412725 102.979011"></polygon>
            <polygon id="Fill-520" fill="#6D4412" points="62.2375725 94.2576111 63.4245725 118.678611 67.2275725 120.594611 58.9485725 122.895611 53.6175725 103.715611"></polygon>
            <polygon id="Fill-521" fill="#6D4412" points="42.6154725 93.8548111 33.1754725 99.3298111 30.4454725 95.3238111 45.1464725 80.5208111"></polygon>
            <polygon id="Fill-522" fill="#6D4412" points="61.1613725 88.3143111 74.1593725 86.8143111 74.5823725 81.7743111 56.0233725 80.3133111"></polygon>
            <path d="M18.0988725,50.3792111 C18.0988725,67.3462111 32.9348725,81.1002111 51.2368725,81.1002111 C69.5368725,81.1002111 84.3728725,67.3462111 84.3728725,50.3792111 C84.3728725,33.4122111 69.5368725,19.6582111 51.2368725,19.6582111 C32.9348725,19.6582111 18.0988725,33.4122111 18.0988725,50.3792111" id="Fill-523" fill="#6D4412"></path>
            <path d="M33.4260725,23.4514111 C42.3420725,19.8264111 51.3570725,20.0224111 61.5460725,27.8604111 C69.4840725,33.9664111 77.2460725,27.8874111 80.2910725,24.8994111 C75.0500725,18.5344111 65.9840725,13.7384111 50.5450725,13.7384111 C38.1120725,13.7384111 29.8130725,16.7714111 24.3130725,21.1924111 C25.7960725,23.4214111 28.5370725,25.4394111 33.4260725,23.4514111" id="Fill-524" fill="#000000"></path>
            <path d="M37.3576725,32.2224111 C44.9726725,44.5244111 57.0196725,44.3554111 62.1446725,39.2034111 C52.1486725,36.4604111 48.8786725,29.0264111 37.3576725,32.2224111" id="Fill-525" fill="#000000"></path>
            <path d="M15.1320725,35.9910111 C12.6890725,45.7770111 15.0290725,55.0890111 15.0290725,55.0890111 C15.0290725,55.0890111 25.8350725,53.9970111 35.8480725,32.6850111 C34.8410725,33.0240111 33.7780725,33.4350111 32.6420725,33.9360111 C25.3100725,37.1670111 19.4550725,37.1180111 15.1320725,35.9910111" id="Fill-526" fill="#000000"></path>
            <path d="M84.4582725,31.9148111 C83.2882725,33.8318111 81.1542725,36.4818111 77.6212725,38.2548111 C81.7022725,52.1958111 86.0622725,56.1688111 86.0622725,56.1688111 C86.0622725,56.1688111 89.1862725,43.4328111 84.4582725,31.9148111" id="Fill-527" fill="#000000"></path>
            <path d="M85.6496725,29.5266111 L81.6416725,23.4516111 C81.6416725,23.4516111 81.1566725,24.0516111 80.2916725,24.8996111 C82.0996725,27.0956111 83.4586725,29.4766111 84.4586725,31.9146111 C85.3046725,30.5286111 85.6496725,29.5266111 85.6496725,29.5266111" id="Fill-528" fill="#000000"></path>
            <path d="M84.4582725,31.9148111 C83.4582725,29.4768111 82.1002725,27.0958111 80.2912725,24.8998111 C77.2462725,27.8868111 69.4832725,33.9658111 61.5462725,27.8608111 C51.3562725,20.0218111 42.3422725,19.8268111 33.4262725,23.4518111 C28.5372725,25.4388111 25.7962725,23.4208111 24.3122725,21.1918111 C19.1382725,25.3518111 16.4432725,30.7378111 15.1322725,35.9908111 C19.4552725,37.1188111 25.3102725,37.1668111 32.6422725,33.9358111 C33.7772725,33.4358111 34.8412725,33.0238111 35.8482725,32.6848111 C36.1072725,32.1318111 36.3672725,31.5758111 36.6262725,30.9958111 C36.8632725,31.4208111 37.1092725,31.8228111 37.3572725,32.2228111 C48.8782725,29.0258111 52.1482725,36.4608111 62.1452725,39.2038111 C63.6632725,37.6778111 64.5772725,35.7178111 64.5842725,33.5138111 C70.4792725,41.2228111 76.5122725,37.8708111 76.5122725,34.1838111 C76.8762725,35.6298111 77.2472725,36.9798111 77.6212725,38.2548111 C81.1542725,36.4818111 83.2882725,33.8318111 84.4582725,31.9148111" id="Fill-529" fill="#000000"></path>
            <path d="M84.4582725,31.9148111 C83.4582725,29.4768111 82.1002725,27.0958111 80.2912725,24.8998111 C77.2462725,27.8868111 69.4832725,33.9658111 61.5462725,27.8608111 C51.3562725,20.0218111 42.3422725,19.8268111 33.4262725,23.4518111 C28.5372725,25.4388111 25.7962725,23.4208111 24.3122725,21.1918111 C19.1382725,25.3518111 16.4432725,30.7378111 15.1322725,35.9908111 C19.4552725,37.1188111 25.3102725,37.1668111 32.6422725,33.9358111 C33.7772725,33.4358111 34.8412725,33.0238111 35.8482725,32.6848111 C36.1072725,32.1318111 36.3672725,31.5758111 36.6262725,30.9958111 C36.8632725,31.4208111 37.1092725,31.8228111 37.3572725,32.2228111 C48.8782725,29.0258111 52.1482725,36.4608111 62.1452725,39.2038111 C63.6632725,37.6778111 64.5772725,35.7178111 64.5842725,33.5138111 C70.4792725,41.2228111 76.5122725,37.8708111 76.5122725,34.1838111 C76.8762725,35.6298111 77.2472725,36.9798111 77.6212725,38.2548111 C81.1542725,36.4818111 83.2882725,33.8318111 84.4582725,31.9148111" id="Fill-530" fill="#000000"></path>
            <path d="M82.7287725,52.0369111 C82.7287725,52.0369111 87.8947725,49.0519111 89.7317725,53.9889111 C91.5687725,58.9249111 86.8457725,64.6179111 80.0877725,64.2389111 L82.7287725,52.0369111 Z" id="Fill-531" fill="#6D4412"></path>
            <path d="M19.0793725,52.0369111 C19.0793725,52.0369111 13.9133725,49.0519111 12.0763725,53.9889111 C10.2393725,58.9249111 14.9613725,64.6179111 21.7203725,64.2389111 L19.0793725,52.0369111 Z" id="Fill-532" fill="#6D4412"></path>
            <path d="M28.2834725,52.7854111 C28.2834725,56.7584111 31.5044725,59.9784111 35.4774725,59.9784111 C39.4504725,59.9784111 42.6714725,56.7584111 42.6714725,52.7854111 C42.6714725,48.8124111 39.4504725,45.5914111 35.4774725,45.5914111 C31.5044725,45.5914111 28.2834725,48.8124111 28.2834725,52.7854111" id="Fill-533" fill="#FFFFFF"></path>
            <path d="M29.7824725,52.0047111 C29.7824725,55.1497111 32.3324725,57.6997111 35.4774725,57.6997111 C38.6224725,57.6997111 41.1724725,55.1497111 41.1724725,52.0047111 C41.1724725,48.8587111 38.6224725,46.3097111 35.4774725,46.3097111 C32.3324725,46.3097111 29.7824725,48.8587111 29.7824725,52.0047111" id="Fill-534" fill="#432918"></path>
            <path d="M60.4045725,52.7854111 C60.4045725,56.7584111 63.6245725,59.9784111 67.5975725,59.9784111 C71.5705725,59.9784111 74.7915725,56.7584111 74.7915725,52.7854111 C74.7915725,48.8124111 71.5705725,45.5914111 67.5975725,45.5914111 C63.6245725,45.5914111 60.4045725,48.8124111 60.4045725,52.7854111" id="Fill-535" fill="#FFFFFF"></path>
            <path d="M61.9026725,52.0047111 C61.9026725,55.1497111 64.4526725,57.6997111 67.5976725,57.6997111 C70.7426725,57.6997111 73.2926725,55.1497111 73.2926725,52.0047111 C73.2926725,48.8587111 70.7426725,46.3097111 67.5976725,46.3097111 C64.4526725,46.3097111 61.9026725,48.8587111 61.9026725,52.0047111" id="Fill-536" fill="#432918"></path>
            <path d="M31.2942725,60.8103111 C31.4452725,59.6883111 30.0412725,58.4063111 28.1572725,57.9473111 C26.2742725,57.4883111 24.6242725,58.0253111 24.4732725,59.1473111 C24.3212725,60.2693111 25.7262725,61.5513111 27.6082725,62.0103111 C29.4922725,62.4693111 31.1422725,61.9323111 31.2942725,60.8103111" id="Fill-537" fill="#BC1523"></path>
            <path d="M71.7815725,60.8103111 C71.6295725,59.6883111 73.0335725,58.4063111 74.9175725,57.9473111 C76.8015725,57.4883111 78.4505725,58.0253111 78.6015725,59.1473111 C78.7535725,60.2693111 77.3495725,61.5513111 75.4665725,62.0103111 C73.5825725,62.4693111 71.9325725,61.9323111 71.7815725,60.8103111" id="Fill-538" fill="#BC1523"></path>
            <path d="M17.6838725,57.7830111 C17.8378725,57.3460111 18.1228725,57.2730111 18.4028725,57.3340111 C18.2218725,56.3030111 18.1578725,55.6580111 18.1578725,55.6580111 C18.1428725,55.6440111 18.1278725,55.6300111 18.1138725,55.6160111 C16.7068725,54.2640111 14.3978725,55.7740111 15.0008725,57.6290111 C15.4688725,59.0650111 16.9888725,59.9830111 19.0958725,60.4690111 C18.9498725,59.9230111 18.8248725,59.4030111 18.7168725,58.9180111 C18.1408725,58.7480111 17.4628725,58.4110111 17.6838725,57.7830111" id="Fill-539" fill="#7A4927"></path>
            <path d="M84.5276725,57.7830111 C84.3736725,57.3460111 84.0876725,57.2730111 83.8076725,57.3340111 C83.9886725,56.3030111 84.0536725,55.6580111 84.0536725,55.6580111 C84.0686725,55.6440111 84.0836725,55.6300111 84.0966725,55.6160111 C85.5046725,54.2640111 87.8136725,55.7740111 87.2106725,57.6290111 C86.7426725,59.0650111 85.2226725,59.9830111 83.1156725,60.4690111 C83.2616725,59.9230111 83.3866725,59.4030111 83.4946725,58.9180111 C84.0696725,58.7480111 84.7486725,58.4110111 84.5276725,57.7830111" id="Fill-540" fill="#7A4927"></path>
            <path d="M51.5461725,64.9134111 C49.5661725,64.9134111 47.8901725,63.8474111 47.8641725,63.8304111 C47.7061725,63.7284111 47.6611725,63.5164111 47.7641725,63.3584111 C47.8661725,63.2004111 48.0781725,63.1554111 48.2371725,63.2564111 C48.2721725,63.2784111 51.6501725,65.4184111 54.1871725,63.2824111 C54.3311725,63.1604111 54.5471725,63.1794111 54.6691725,63.3234111 C54.7911725,63.4684111 54.7731725,63.6844111 54.6281725,63.8064111 C53.6401725,64.6374111 52.5541725,64.9134111 51.5461725,64.9134111" id="Fill-541" fill="#6B3A1F"></path>
            <path d="M32.9279725,97.4725111 C32.9279725,97.4725111 34.0989725,99.6335111 33.5269725,101.608511 C32.9539725,103.584511 31.8089725,102.267511 32.2669725,99.8335111 C30.6349725,103.527511 29.4329725,103.670511 29.2319725,103.155511 C28.9419725,102.407511 30.0049725,100.493511 30.0049725,100.493511 C30.0049725,100.493511 28.9169725,102.467511 27.9439725,102.410511 C26.9699725,102.353511 28.6589725,99.6615111 28.6589725,99.6615111 C28.6589725,99.6615111 27.3999725,101.293511 26.7409725,101.064511 C26.0819725,100.835511 28.0009725,98.3735111 28.0009725,98.3735111 C28.0009725,98.3735111 27.1239725,99.2615111 26.6039725,98.7745111 C26.0819725,98.2875111 28.5679725,95.3205111 31.0319725,95.2865111" id="Fill-542" fill="#6D4412"></path>
            <path d="M72.9328725,83.8709111 C72.9328725,83.8709111 72.8148725,81.4159111 74.1878725,79.8849111 C75.5608725,78.3529111 76.0218725,80.0369111 74.5528725,82.0309111 C77.6248725,79.4109111 78.7708725,79.8029111 78.7278725,80.3539111 C78.6648725,81.1539111 76.8768725,82.4169111 76.8768725,82.4169111 C76.8768725,82.4169111 78.7138725,81.1099111 79.5658725,81.5839111 C80.4178725,82.0579111 77.7288725,83.7499111 77.7288725,83.7499111 C77.7288725,83.7499111 79.5718725,82.8259111 80.0658725,83.3179111 C80.5598725,83.8099111 77.7628725,85.1969111 77.7628725,85.1969111 C77.7628725,85.1969111 78.9378725,84.7769111 79.1968725,85.4419111 C79.4538725,86.1059111 75.9288725,87.7019111 73.6928725,86.6629111" id="Fill-543" fill="#6D4412"></path>
            <path d="M73.5861725,83.5486111 C73.5861725,83.1106111 73.2321725,82.7556111 72.7931725,82.7556111 C72.3561725,82.7556111 72.0001725,83.1106111 72.0001725,83.5486111 C72.0001725,83.9866111 72.3561725,84.3416111 72.7931725,84.3416111 C73.2321725,84.3416111 73.5861725,83.9866111 73.5861725,83.5486111" id="Fill-544" fill="#E61E73"></path>
            <path d="M73.8645725,84.9358111 C73.8645725,84.4978111 73.5095725,84.1428111 73.0715725,84.1428111 C72.6335725,84.1428111 72.2775725,84.4978111 72.2775725,84.9358111 C72.2775725,85.3738111 72.6335725,85.7288111 73.0715725,85.7288111 C73.5095725,85.7288111 73.8645725,85.3738111 73.8645725,84.9358111" id="Fill-545" fill="#E61E73"></path>
            <path d="M74.1438725,86.3416111 C74.1438725,85.9036111 73.7888725,85.5486111 73.3498725,85.5486111 C72.9128725,85.5486111 72.5568725,85.9036111 72.5568725,86.3416111 C72.5568725,86.7796111 72.9128725,87.1346111 73.3498725,87.1346111 C73.7888725,87.1346111 74.1438725,86.7796111 74.1438725,86.3416111" id="Fill-546" fill="#E61E73"></path>
            <path d="M73.3498725,82.1434111 C73.3498725,81.7054111 72.9958725,81.3504111 72.5568725,81.3504111 C72.1198725,81.3504111 71.7638725,81.7054111 71.7638725,82.1434111 C71.7638725,82.5814111 72.1198725,82.9364111 72.5568725,82.9364111 C72.9958725,82.9364111 73.3498725,82.5814111 73.3498725,82.1434111" id="Fill-547" fill="#E61E73"></path>
            <path d="M30.5236725,49.1668111 C30.5236725,47.6938111 31.7166725,46.4998111 33.1896725,46.4998111 C34.6626725,46.4998111 35.8566725,47.6938111 35.8566725,49.1668111 C35.8566725,50.6398111 34.6626725,51.8338111 33.1896725,51.8338111 C31.7166725,51.8338111 30.5236725,50.6398111 30.5236725,49.1668111" id="Fill-548" fill="#FFFFFF"></path>
            <path d="M62.7610725,49.1668111 C62.7610725,47.6938111 63.9540725,46.4998111 65.4270725,46.4998111 C66.9000725,46.4998111 68.0940725,47.6938111 68.0940725,49.1668111 C68.0940725,50.6398111 66.9000725,51.8338111 65.4270725,51.8338111 C63.9540725,51.8338111 62.7610725,50.6398111 62.7610725,49.1668111" id="Fill-549" fill="#FFFFFF"></path>
            <path d="M14.8049725,24.2596111 C16.4579725,20.3236111 19.1019725,17.1496111 22.3849725,14.4846111 C25.8109725,11.7036111 29.6739725,9.68861108 33.6569725,7.81361108 C37.1899725,6.14961108 40.9499725,5.40661108 44.6809725,4.56261108 C47.4759725,3.93061108 50.3639725,3.81461108 53.2519725,3.75961108 C58.1789725,3.66461108 62.9089725,4.45961108 67.5349725,6.14061108 C71.6909725,7.65061108 75.2799725,10.0286111 78.6149725,12.8616111 C81.3119725,15.1546111 83.3739725,17.9706111 84.9749725,21.0736111 C86.2129725,23.4726111 87.2309725,26.0436111 87.2369725,28.8066111 C87.2389725,29.6476111 87.3399725,30.5646111 87.0229725,31.4156111 C86.8859725,31.7816111 86.9579725,32.0866111 87.3819725,32.2806111 C87.6689725,32.4116111 87.9049725,32.6596111 88.0469725,32.9656111 C87.7739725,33.1446111 87.5349725,32.9916111 87.2969725,32.8806111 C85.9479725,32.2536111 84.5319725,31.8286111 83.0869725,31.4816111 C80.8679725,30.9486111 78.6659725,30.3536111 76.4709725,29.7336111 C76.1859725,29.6536111 75.8999725,29.5736111 75.6249725,29.4596111 C75.4649725,29.3926111 75.2629725,29.3326111 75.2479725,29.1326111 C75.2309725,28.8966111 75.4219725,28.7726111 75.6079725,28.6696111 C75.8419725,28.5396111 76.1019725,28.4716111 76.3509725,28.3786111 C78.6049725,27.5366111 80.8249725,26.6306111 82.7269725,25.1046111 C83.3779725,24.5816111 83.9889725,24.0176111 84.3749725,23.2646111 C85.0489725,21.9506111 84.3479725,20.7076111 82.8749725,20.5906111 C80.6709725,20.4156111 78.8529725,21.3926111 77.0969725,22.5416111 C76.6009725,22.8666111 76.1619725,23.2706111 75.6809725,23.6166111 C75.4469725,23.7856111 75.1589725,24.0306111 74.8819725,23.8246111 C74.6549725,23.6556111 74.7619725,23.3226111 74.8309725,23.0686111 C75.2569725,21.5106111 75.4109725,19.9266111 75.3379725,18.3166111 C75.2939725,17.3286111 75.1399725,16.3686111 74.6479725,15.4956111 C73.7219725,13.8526111 72.1159725,13.5586111 70.7189725,14.8336111 C69.5769725,15.8756111 69.0039725,17.2166111 68.9059725,18.7656111 C68.7309725,21.5406111 69.5999725,24.0796111 70.6339725,26.5876111 C70.8169725,27.0296111 71.3189725,27.4996111 70.9199725,27.9666111 C70.5459725,28.4046111 69.9639725,28.1286111 69.4929725,27.9916111 C63.8569725,26.3626111 58.0259725,25.8746111 52.2549725,25.0306111 C48.7969725,24.5236111 45.3429725,23.9706111 41.8619725,23.6646111 C38.6789725,23.3846111 35.4869725,23.2386111 32.2859725,23.2306111 C29.0279725,23.2216111 25.7699725,23.2596111 22.5209725,23.4526111 C20.2799725,23.5856111 18.0299725,23.7596111 15.8279725,24.2776111 C15.4919725,24.3566111 15.1409725,24.5126111 14.8049725,24.2596111" id="Fill-550" fill="#08AAEB"></path>
            <path d="M72.1692725,25.7327111 C71.3562725,23.6247111 70.4812725,21.5807111 70.4582725,19.3247111 C70.4472725,18.2307111 70.8282725,17.2387111 71.4862725,16.3727111 C71.7662725,16.0037111 72.0752725,15.5807111 72.6402725,15.6997111 C73.1432725,15.8067111 73.3032725,16.2527111 73.4492725,16.6707111 C73.9312725,18.0447111 73.8942725,19.4497111 73.6652725,20.8617111 C73.3922725,22.5457111 72.8372725,24.1457111 72.1692725,25.7327111" id="Fill-551" fill="#FD707D"></path>
            <path d="M74.3225725,27.3250111 C74.8465725,26.3260111 75.6035725,25.8040111 76.2895725,25.2240111 C77.8065725,23.9410111 79.4015725,22.7770111 81.3515725,22.2260111 C81.9055725,22.0700111 82.6865725,21.7830111 82.9755725,22.2960111 C83.2595725,22.8010111 82.5475725,23.2510111 82.1385725,23.6000111 C79.9125725,25.5070111 77.1955725,26.3800111 74.3225725,27.3250111" id="Fill-552" fill="#FD707D"></path>
            <path d="M91.2756725,50.2014111 C93.1116725,50.4114111 94.9776725,50.3524111 96.7966725,50.0274111 C95.7386725,48.5634111 94.0326725,47.7324111 92.3786725,47.0114111 C75.5056725,39.6564111 57.0286725,37.0754111 38.7336725,37.1004111 C29.5536725,37.1144111 20.2936725,37.7374111 11.2946725,39.6164111 C10.4036725,39.5614111 9.5336725,39.7194111 8.6626725,39.8744111 C7.2676725,40.1234111 5.8876725,40.4534111 4.4826725,40.6454111 C4.1026725,40.6974111 3.7286725,40.7904111 3.3636725,40.9094111 C2.9346725,41.0504111 2.4736725,41.2224111 2.3806725,41.7084111 C2.2776725,42.2544111 2.7796725,42.4514111 3.1456725,42.6754111 C4.4486725,43.4734111 5.9186725,43.8424111 7.3726725,44.2244111 C8.8306725,44.6074111 10.6156725,44.9874111 11.9646725,45.6854111 C12.1486725,45.8064111 12.1456725,46.0564111 11.9926725,46.8274111 C11.6836725,47.7194111 10.9426725,47.3424111 9.5696725,46.9624111 C7.0816725,46.2734111 4.4986725,45.8354111 2.1856725,44.6074111 C1.1706725,44.0684111 0.262672502,43.3704111 0.0676725016,42.1114111 C0.0276725016,41.8514111 -0.0503274984,41.5424111 0.0466725016,41.3264111 C0.563672502,40.1714111 0.935672502,38.9724111 1.8096725,37.9584111 C3.5666725,35.9244111 5.2766725,33.8524111 7.1176725,31.8904111 C8.9566725,29.9314111 10.8556725,28.0344111 12.8086725,26.1904111 C15.0716725,25.5604111 17.3946725,25.2754111 19.7226725,25.0754111 C23.7076725,24.7324111 27.7046725,24.7094111 31.7026725,24.6794111 C37.9436725,24.6324111 44.1196725,25.2794111 50.2706725,26.2314111 C53.7846725,26.7754111 57.3136725,27.2014111 60.8376725,27.6754111 C63.6076725,28.0494111 66.2856725,28.8214111 69.0046725,29.4184111 C69.2806725,29.4794111 69.6506725,29.5104111 69.7026725,29.8644111 C69.7516725,30.1914111 69.4636725,30.3914111 69.2166725,30.5514111 C67.4476725,31.6914111 65.5326725,32.4304111 63.4276725,32.6724111 C62.5756725,32.7704111 61.7146725,32.8044111 60.8716725,32.9664111 C60.6296725,33.0134111 60.2776725,33.0474111 60.2956725,33.3954111 C60.3076725,33.6594111 60.6116725,33.7184111 60.8286725,33.7974111 C62.2566725,34.3194111 63.6956725,34.1064111 65.1276725,33.8274111 C66.7806725,33.5064111 68.2646725,32.7734111 69.6836725,31.8924111 C69.8356725,31.7994111 69.9706725,31.6824111 70.1226725,31.5894111 C70.8896725,31.1114111 71.1646725,31.2504111 71.2056725,32.1804111 C71.2376725,32.8904111 71.2156725,33.6054111 71.4166725,34.2964111 C71.7286725,35.3794111 72.2626725,36.3004111 73.4546725,36.9394111 C72.8916725,35.6834111 72.6926725,34.4974111 72.5466725,33.3014111 C72.4606725,32.5924111 72.4526725,31.8844111 72.6236725,31.1804111 C72.7616725,30.6114111 73.0946725,30.3974111 73.6696725,30.5304111 C74.3046725,30.6774111 74.9286725,30.8674111 75.5526725,31.0534111 C79.1596725,32.1254111 82.8616725,32.8484111 86.4346725,34.0464111 C87.5156725,34.4084111 87.7966725,34.2074111 88.2026725,33.1204111 C89.5246725,33.8944111 90.5676725,35.0134111 91.6986725,36.0154111 C94.4196725,38.4274111 96.7546725,41.1804111 98.6006725,44.3204111 C99.5046725,45.8564111 100.156673,47.5184111 100.453673,49.2814111 C100.551673,49.8634111 100.382673,50.5044111 100.270673,51.1054111 C100.198673,51.4874111 99.8176725,51.6844111 99.4886725,51.7524111 C96.5276725,52.3614111 94.2086725,52.6004111 91.1926725,52.2574111" id="Fill-553" fill="#08AAEB"></path>
            <path d="M14.8049725,24.2596111 C18.0709725,23.4686111 21.3979725,23.2776111 24.7419725,23.1146111 C28.3849725,22.9386111 32.0269725,22.9296111 35.6649725,23.0266111 C40.6349725,23.1576111 45.5649725,23.7546111 50.4769725,24.5196111 C54.0969725,25.0836111 57.7369725,25.5246111 61.3689725,26.0036111 C64.2799725,26.3856111 67.0989725,27.1836111 69.9499725,27.8396111 C70.2639725,27.9116111 70.5679725,28.0336111 70.9849725,27.8836111 C70.0449725,26.1316111 69.4269725,24.2876111 68.9709725,22.3906111 C68.4229725,20.1176111 68.3129725,17.8806111 69.5869725,15.7746111 C70.0759725,14.9686111 70.7009725,14.3126111 71.5939725,13.9646111 C72.6959725,13.5346111 73.7989725,13.8636111 74.5159725,14.8076111 C75.2609725,15.7916111 75.5239725,16.9336111 75.6019725,18.1326111 C75.7259725,20.0366111 75.4789725,21.9006111 74.8459725,23.9296111 C75.5919725,23.3596111 76.1509725,22.8926111 76.7469725,22.4826111 C78.5499725,21.2466111 80.4329725,20.2226111 82.7239725,20.2976111 C83.5929725,20.3266111 84.3099725,20.6206111 84.7109725,21.4026111 C85.1289725,22.2176111 84.9469725,23.0096111 84.4079725,23.7276111 C82.9079725,25.7236111 80.7809725,26.8206111 78.5629725,27.7726111 C77.5109725,28.2246111 76.4289725,28.6066111 75.1109725,29.1156111 C77.3899725,29.7236111 79.4389725,30.2876111 81.4969725,30.8156111 C83.7289725,31.3866111 85.9829725,31.8846111 88.0469725,32.9646111 C88.0989725,33.0166111 88.1509725,33.0686111 88.2019725,33.1206111 C88.4909725,34.1716111 88.0109725,34.7036111 86.9009725,34.4246111 C85.3259725,34.0286111 83.7829725,33.5046111 82.2149725,33.0756111 C79.3649725,32.2976111 76.4989725,31.5676111 73.6539725,30.7726111 C73.0879725,30.6136111 72.9179725,30.7486111 72.8539725,31.2836111 C72.6319725,33.1446111 72.8599725,34.9306111 73.6639725,36.6326111 C73.7599725,36.8346111 74.0299725,37.0426111 73.8039725,37.2566111 C73.5479725,37.5006111 73.3119725,37.2226111 73.1029725,37.0906111 C71.6479725,36.1716111 71.0669725,34.7686111 70.9619725,33.1226111 C70.9279725,32.5926111 70.9559725,32.0586111 70.9559725,31.5156111 C70.5829725,31.3856111 70.4299725,31.7066111 70.2059725,31.8546111 C67.5179725,33.6416111 64.6379725,34.7296111 61.3449725,34.2096111 C60.7339725,34.1136111 59.7799725,34.0386111 59.8209725,33.3226111 C59.8599725,32.6256111 60.8259725,32.6606111 61.4279725,32.6256111 C64.1589725,32.4676111 66.7619725,31.9166111 69.0699725,30.3556111 C69.2589725,30.2276111 69.5039725,30.1536111 69.5849725,29.8266111 C66.3499725,29.0466111 63.1359725,28.2196111 59.8279725,27.7876111 C54.8489725,27.1376111 49.8819725,26.3946111 44.9029725,25.7446111 C42.7939725,25.4686111 40.6749725,25.2726111 38.5499725,25.1356111 C34.7919725,24.8936111 31.0329725,24.9386111 27.2749725,24.9846111 C22.8089725,25.0386111 18.3519725,25.2556111 13.9569725,26.1626111 C13.5879725,26.2386111 13.1919725,26.1846111 12.8089725,26.1906111 C13.4529725,25.5256111 14.4339725,25.2086111 14.8049725,24.2596111" id="Fill-554" fill="#99D9D9"></path>
            <path d="M43.1613725,95.8890111 L51.2363725,94.7270111 C51.2363725,94.7270111 51.9663725,88.7690111 44.0773725,86.5020111 C40.8623725,93.6860111 43.1613725,95.8890111 43.1613725,95.8890111" id="Fill-555" fill="#08AAEB"></path>
            <path d="M59.8283725,95.5115111 L52.1683725,94.5915111 C52.1683725,94.5915111 51.0233725,88.3915111 58.9113725,86.1245111 C62.1273725,93.3085111 59.8283725,95.5115111 59.8283725,95.5115111" id="Fill-556" fill="#08AAEB"></path>
            <path d="M39.9387725,96.6600111 L39.9297725,95.2490111 C40.2417725,95.1500111 46.5837725,93.2320111 56.3107725,94.1320111 C59.9327725,94.4660111 62.2937725,94.7270111 62.2937725,94.7270111 L62.3257725,96.0590111 C62.3207725,96.0590111 59.6897725,95.7160111 56.0947725,95.3840111 C46.8577725,94.5330111 40.0127725,96.6380111 39.9387725,96.6600111" id="Fill-557" fill="#08AAEB"></path>
            <polygon id="Fill-558" fill="#08AAEB" points="44.8723725 89.3948111 43.6983725 89.3948111 43.8883725 81.5328111 45.1463725 80.5208111"></polygon>
            <polygon id="Fill-559" fill="#08AAEB" points="59.0090725 88.9549111 59.5530725 80.6099111 58.1170725 80.4369111 57.5640725 88.7619111"></polygon>
            <path d="M40.3733725,100.229811 C40.3733725,100.229811 54.8763725,103.917811 62.4683725,98.9908111 C62.7743725,100.333811 62.7743725,100.944811 62.7743725,101.817811 C59.7543725,103.481811 57.0073725,105.540811 55.0903725,107.111811 C53.5713725,108.355811 51.4383725,108.475811 49.7833725,107.421811 C48.0683725,106.329811 45.3463725,104.994811 41.1983725,103.875811 C39.9303725,101.487811 40.3733725,100.229811 40.3733725,100.229811" id="Fill-560" fill="#08AAEB"></path>
        </g>
    </g>
</svg>