<?xml version="1.0" encoding="UTF-8"?>
<svg width="118px" height="136px" viewBox="0 0 118 136" version="1.1" xmlns="http://www.w3.org/2000/svg" xmlns:xlink="http://www.w3.org/1999/xlink">
    <!-- Generator: Sketch 53.1 (72631) - https://sketchapp.com -->
    <title>Group 6child2</title>
    <desc>Created with Sketch.</desc>
    <defs>
        <polygon id="path-1" points="0.596198054 0.899 117.569395 0.899 117.569395 100.24594 0.596198054 100.24594"></polygon>
    </defs>
    <g id="Page-1" stroke="none" stroke-width="1" fill="none" fill-rule="evenodd">
        <g id="Group-6" transform="translate(0.000000, -0.899000)">
            <path d="M9.628,118.9293 C7.58,122.6913 11.47,125.4103 15.001,125.9623 C18.691,126.5443 22.995,125.4533 26.435,127.2373 C28.14,128.1193 29.145,129.9323 30.247,131.4273 C32.015,133.8273 34.395,135.3293 37.305,135.9763 C41.45,136.8983 46.087,136.8083 50.319,136.8183 C55.482,136.8333 60.036,134.9923 64.886,133.5833 C67.695,132.7683 70.725,133.1573 73.609,133.2043 C76.594,133.2503 79.617,133.1273 82.481,132.1963 C84.747,131.4573 86.917,130.5053 88.725,128.9083 C93.45,124.7283 86.732,120.2743 88.586,115.7603 C89.625,113.2293 94.101,112.8573 93.924,109.7063 C93.784,107.2853 90.611,105.9433 88.628,105.0113 C85.047,103.3323 81.257,102.0943 77.432,100.9963 C75.643,100.4823 73.831,100.1153 71.996,99.7403 C70.098,99.3543 68.208,98.9173 66.282,98.6263 C63.919,98.2703 61.498,98.0703 59.112,97.8683 C56.789,97.6713 54.469,97.5673 52.137,97.5503 C47.312,97.5153 42.523,97.6723 37.823,98.5903 C35.469,99.0503 33.111,99.5073 30.794,100.0993 C26.832,101.1153 18.614,103.3893 20.108,108.6133 C20.385,109.5813 21.046,110.3873 20.951,111.4363 C20.772,113.4463 17.899,114.2503 16.227,114.8543 C13.903,115.6953 11.166,116.5183 9.811,118.6193 C9.746,118.7203 9.684,118.8243 9.628,118.9293" id="Fill-111" fill="#08C7EB"></path>
            <path d="M21.6866,105.8321 C21.4426,107.7231 22.9006,109.7731 21.8036,111.5551 C21.3376,112.3141 20.6036,112.9191 19.7746,113.3361 C19.7376,113.3411 19.7026,113.3471 19.6656,113.3531 C20.3626,112.8681 20.8786,112.2491 20.9516,111.4361 C21.0456,110.3871 20.3846,109.5821 20.1086,108.6131 C19.3536,105.9701 21.0826,104.0841 23.4886,102.7311 C22.5856,103.5541 21.8456,104.6001 21.6866,105.8321" id="Fill-113" fill="#CBE9F0"></path>
            <path d="M9.129,120.2774 C9.26,121.2374 9.732,122.0544 10.466,122.6914 C11.534,123.6214 12.907,124.1554 14.265,124.5094 C15.659,124.8724 17.088,125.0724 18.523,125.1764 C20.317,125.3084 22.141,125.3054 23.918,125.6214 C24.86,125.7904 25.798,126.0414 26.656,126.4684 C27.316,126.7944 28.022,127.1994 28.525,127.7454 C29.905,129.2494 31.219,130.8134 32.748,132.1734 C32.985,132.3844 33.389,132.7524 33.859,133.1054 C34.049,133.2564 34.245,133.4024 34.449,133.5384 C35.568,134.2784 36.82,134.6954 38.113,135.0194 C39.876,135.4564 41.666,135.7564 43.466,135.9854 C45.206,136.2084 46.95,136.4234 48.709,136.3304 C50.75,136.2174 52.756,135.7894 54.703,135.1694 C55.714,134.8434 56.712,134.4824 57.701,134.0944 C58.744,133.6914 59.773,133.2464 60.863,132.9794 C63.045,132.4484 65.296,132.4404 67.524,132.5974 C69.719,132.7554 71.895,133.0484 74.1,132.9494 C77.986,132.7764 82.061,131.8384 85.365,129.7144 C86.642,128.8924 87.892,127.8364 88.536,126.4284 C89.2,124.9754 89.098,123.4044 88.475,121.9544 C87.779,120.3324 86.483,118.6844 86.588,116.8334 C86.645,115.8744 87.077,114.9404 87.765,114.2654 C88.343,113.7024 89.049,113.3114 89.764,112.9474 C90.435,112.6064 91.123,112.2784 91.72,111.8174 C92.356,111.3274 93.065,110.6784 93.228,109.8534 C93.447,108.7594 92.813,107.7824 92.115,106.9094 C93.102,107.6454 93.856,108.5534 93.924,109.7064 C94.101,112.8574 89.625,113.2294 88.586,115.7604 C86.732,120.2744 93.45,124.7284 88.725,128.9084 C86.917,130.5054 84.747,131.4574 82.481,132.1954 C79.617,133.1274 76.594,133.2504 73.609,133.2044 C70.725,133.1574 67.695,132.7684 64.886,133.5834 C60.036,134.9924 55.483,136.8334 50.319,136.8184 C46.087,136.8084 41.45,136.8984 37.305,135.9764 C34.395,135.3294 32.015,133.8274 30.247,131.4274 C29.145,129.9324 28.14,128.1194 26.435,127.2364 C22.995,125.4534 18.691,126.5444 15.001,125.9624 C11.908,125.4804 8.539,123.3304 9.129,120.2774" id="Fill-115" fill="#CBE9F0"></path>
            <path d="M24.2286,116.9859 C24.5686,116.9859 24.8986,116.9929 25.2276,117.0079 C24.9976,116.2529 24.8746,115.4789 24.8746,114.6929 C24.8746,106.3829 38.1596,99.6479 54.5486,99.6479 C70.9356,99.6479 84.2216,106.3829 84.2216,114.6929 C84.2216,122.9979 70.9356,129.7349 54.5486,129.7349 C44.2736,129.7349 35.2176,127.0859 29.8936,123.0639 C28.3616,123.5649 26.3876,123.8719 24.2286,123.8719 C19.3706,123.8719 15.4326,122.3309 15.4326,120.4269 C15.4326,118.5279 19.3706,116.9859 24.2286,116.9859" id="Fill-117" fill="#08C7EB"></path>
            <path d="M80.0635,128.1715 C80.0635,128.5635 80.8525,128.8805 81.8215,128.8805 C82.7925,128.8805 83.5785,128.5635 83.5785,128.1715 C83.5785,127.7775 82.7925,127.4605 81.8215,127.4605 C80.8525,127.4605 80.0635,127.7775 80.0635,128.1715" id="Fill-119" fill="#08C7EB"></path>
            <path d="M76.502,129.9605 C76.502,130.1485 76.883,130.3025 77.352,130.3025 C77.822,130.3025 78.202,130.1485 78.202,129.9605 C78.202,129.7675 77.822,129.6145 77.352,129.6145 C76.883,129.6145 76.502,129.7675 76.502,129.9605" id="Fill-121" fill="#08C7EB"></path>
            <path d="M43.8047,133.1763 C43.8047,133.5683 44.5907,133.8883 45.5607,133.8883 C46.5327,133.8883 47.3177,133.5683 47.3177,133.1763 C47.3177,132.7843 46.5327,132.4663 45.5607,132.4663 C44.5907,132.4663 43.8047,132.7843 43.8047,133.1763" id="Fill-123" fill="#08C7EB"></path>
            <path d="M38.4327,133.1763 C38.4327,133.3673 38.8127,133.5233 39.2817,133.5233 C39.7527,133.5233 40.1327,133.3673 40.1327,133.1763 C40.1327,132.9883 39.7527,132.8343 39.2817,132.8343 C38.8127,132.8343 38.4327,132.9883 38.4327,133.1763" id="Fill-125" fill="#08C7EB"></path>
            <path d="M13.8526,121.4957 C13.8526,121.6857 14.2336,121.8377 14.7016,121.8377 C15.1716,121.8377 15.5506,121.6857 15.5506,121.4957 C15.5506,121.3057 15.1716,121.1497 14.7016,121.1497 C14.2336,121.1497 13.8526,121.3057 13.8526,121.4957" id="Fill-127" fill="#08C7EB"></path>
            <path d="M23.2081,105.3292 C23.2081,105.5192 23.5871,105.6732 24.0561,105.6732 C24.5261,105.6732 24.9091,105.5192 24.9091,105.3292 C24.9091,105.1402 24.5261,104.9862 24.0561,104.9862 C23.5871,104.9862 23.2081,105.1402 23.2081,105.3292" id="Fill-129" fill="#08C7EB"></path>
            <path d="M88.5684,108.3624 C88.5684,108.5534 88.9494,108.7064 89.4174,108.7064 C89.8884,108.7064 90.2704,108.5534 90.2704,108.3624 C90.2704,108.1744 89.8884,108.0194 89.4174,108.0194 C88.9494,108.0194 88.5684,108.1744 88.5684,108.3624" id="Fill-131" fill="#08C7EB"></path>
            <path d="M77.0303,126.0172 C80.0173,124.2682 82.9373,122.0842 84.4753,118.8952 C84.5053,118.8312 84.6313,118.9682 84.6093,119.0222 C83.2693,122.3782 80.2113,124.5022 77.1313,126.1422 C77.0803,126.1672 76.9873,126.0412 77.0303,126.0172" id="Fill-133" fill="#CBE9F0"></path>
            <path d="M74.1153,128.2779 C75.0943,127.8969 76.0883,127.5509 77.0373,127.0939 C77.9883,126.6319 78.8713,126.0339 79.7443,125.4449 C81.4033,124.3259 83.2333,123.0339 84.2703,121.2749 C84.3123,121.2059 84.4533,121.3619 84.4213,121.4229 C83.4903,123.2709 81.7553,124.7119 80.0693,125.8479 C78.2823,127.0599 76.4343,128.1429 74.2903,128.5629 C74.1883,128.5819 73.9913,128.3239 74.1153,128.2779" id="Fill-135" fill="#CBE9F0"></path>
            <path d="M33.8204,126.7501 C34.5254,127.2561 35.4504,127.5171 36.2664,127.7831 C37.1004,128.0571 37.9384,128.3131 38.7844,128.5591 C40.5284,129.0611 42.2974,129.5211 44.0654,129.9261 C44.1334,129.9421 44.2624,130.1481 44.1564,130.1311 C42.2244,129.8221 40.3094,129.3541 38.4374,128.7871 C36.9264,128.3331 35.0834,127.8581 33.8224,126.8691 C33.7714,126.8331 33.7224,126.6791 33.8204,126.7501" id="Fill-137" fill="#CBE9F0"></path>
            <path d="M38.0332,129.8136 C39.6272,130.3596 41.2502,130.7616 42.8852,131.1656 C42.9692,131.1856 43.1352,131.4526 42.9972,131.4286 C41.3112,131.1386 39.6652,130.5766 38.0782,129.9466 C38.0412,129.9326 37.9682,129.7896 38.0332,129.8136" id="Fill-139" fill="#CBE9F0"></path>
            <path d="M60.9375,109.7125 C50.7205,109.7125 42.4375,108.4205 42.4375,106.8265 C42.4375,105.2335 50.7205,103.9415 60.9375,103.9415 C71.1555,103.9415 79.4375,105.2335 79.4375,106.8265 C79.4375,108.4205 71.1555,109.7125 60.9375,109.7125 M58.9105,100.3335 C35.3505,100.3335 28.4725,105.8015 28.4725,112.5465 C28.4725,119.2915 35.3505,124.7595 58.9105,124.7595 C82.4695,124.7595 89.6925,119.2915 89.6925,112.5465 C89.6925,105.8015 82.4695,100.3335 58.9105,100.3335" id="Fill-141" fill="#F6A821"></path>
            <polygon id="Fill-143" fill="#FF8A64" points="51.4239 102.3267 43.2479 110.7267 39.4099 107.2077 51.4949 93.8847"></polygon>
            <path d="M44.2071,109.8394 C47.7231,108.5284 53.8311,107.6614 60.7791,107.6614 C67.7281,107.6614 73.8371,108.5284 77.3521,109.8394 C79.3501,109.0944 80.5111,108.2064 80.5111,107.2534 C80.5111,104.6214 71.6771,102.4884 60.7791,102.4884 C49.8831,102.4884 41.0491,104.6214 41.0491,107.2534 C41.0491,108.2064 42.2101,109.0944 44.2071,109.8394" id="Fill-145" fill="#4C2030"></path>
            <path d="M79.4375,106.8267 C79.4375,108.4207 71.1555,109.7127 60.9375,109.7127 C50.7205,109.7127 42.4375,108.4207 42.4375,106.8267 C42.4375,105.2327 50.7205,103.9407 60.9375,103.9407 C71.1555,103.9407 79.4375,105.2327 79.4375,106.8267 M57.4015,100.3427 C57.1525,100.3447 56.9035,100.3477 56.6585,100.3507 C56.5155,100.3537 56.3755,100.3567 56.2345,100.3597 C56.0115,100.3637 55.7895,100.3677 55.5705,100.3727 C55.4225,100.3767 55.2775,100.3807 55.1305,100.3847 C54.9215,100.3897 54.7135,100.3957 54.5075,100.4027 C54.3605,100.4077 54.2145,100.4127 54.0685,100.4187 C53.8675,100.4257 53.6665,100.4327 53.4665,100.4417 C53.3235,100.4477 53.1805,100.4537 53.0385,100.4597 C52.8405,100.4697 52.6455,100.4787 52.4505,100.4887 C52.3115,100.4947 52.1735,100.5027 52.0365,100.5107 C51.8405,100.5207 51.6475,100.5317 51.4565,100.5437 C51.3235,100.5517 51.1915,100.5597 51.0605,100.5677 C50.8655,100.5807 50.6715,100.5937 50.4785,100.6077 C50.3565,100.6157 50.2335,100.6247 50.1115,100.6337 C49.9115,100.6487 49.7135,100.6637 49.5175,100.6807 C49.4075,100.6887 49.2955,100.6977 49.1875,100.7067 C48.9745,100.7247 48.7645,100.7437 48.5565,100.7637 C48.4665,100.7717 48.3765,100.7797 48.2885,100.7877 C48.0415,100.8117 47.7985,100.8367 47.5575,100.8617 C47.5095,100.8667 47.4595,100.8717 47.4125,100.8767 C46.8215,100.9397 46.2465,101.0087 45.6875,101.0817 C45.6785,101.0827 45.6705,101.0847 45.6625,101.0857 C45.3965,101.1207 45.1345,101.1567 44.8765,101.1947 C44.8295,101.2017 44.7825,101.2087 44.7355,101.2157 C44.5165,101.2477 44.2995,101.2807 44.0865,101.3137 C44.0275,101.3237 43.9685,101.3337 43.9095,101.3437 C43.7105,101.3747 43.5135,101.4077 43.3195,101.4417 C43.2545,101.4517 43.1925,101.4637 43.1295,101.4747 C42.9415,101.5077 42.7545,101.5417 42.5715,101.5767 C42.5085,101.5877 42.4455,101.5997 42.3825,101.6127 C42.2005,101.6467 42.0205,101.6827 41.8415,101.7187 C41.7835,101.7307 41.7245,101.7437 41.6665,101.7547 C41.4855,101.7927 41.3065,101.8307 41.1295,101.8697 C41.0775,101.8817 41.0255,101.8927 40.9735,101.9047 C40.7905,101.9457 40.6095,101.9877 40.4305,102.0297 C40.3885,102.0397 40.3465,102.0497 40.3045,102.0597 C40.1135,102.1067 39.9245,102.1537 39.7385,102.2017 C39.7115,102.2077 39.6855,102.2147 39.6595,102.2217 C39.4485,102.2767 39.2405,102.3327 39.0365,102.3897 L39.0355,102.3897 C37.7675,102.7437 36.6335,103.1377 35.6245,103.5677 C35.6225,103.5687 35.6195,103.5697 35.6175,103.5707 C35.4535,103.6397 35.2925,103.7107 35.1355,103.7827 C35.1285,103.7857 35.1225,103.7887 35.1155,103.7917 C34.9605,103.8627 34.8105,103.9327 34.6635,104.0057 C34.6565,104.0087 34.6485,104.0127 34.6405,104.0157 C34.4935,104.0887 34.3485,104.1617 34.2075,104.2357 C34.2015,104.2387 34.1965,104.2417 34.1915,104.2437 C34.0445,104.3197 33.9025,104.3967 33.7625,104.4747 C32.9045,105.4937 32.2405,106.6467 31.9125,107.9417 C31.2055,110.7367 32.6515,114.1947 35.4595,114.8457 C37.6555,115.3547 40.1935,114.1537 42.1025,115.3517 C43.1165,115.9877 43.6515,117.1417 44.2395,118.1837 C45.2095,119.9037 46.4975,121.5007 48.2085,122.4857 C49.9195,123.4717 52.1025,123.7677 53.8885,122.9257 C56.3345,121.7717 57.7955,118.7077 60.4845,118.4117 C62.5375,118.1867 64.3055,119.7007 66.0815,120.7557 C67.5005,121.5997 69.0725,122.1887 70.6975,122.4847 C72.1695,122.7537 73.8115,122.7447 75.0175,121.8577 C76.4095,120.8337 76.8195,118.9807 77.4035,117.3547 C77.9875,115.7277 79.1785,113.9817 80.9065,114.0037 C82.6035,114.0267 83.7785,115.7417 85.3875,116.2807 C86.5235,116.6597 87.7955,116.4097 88.8625,115.8657 C88.9305,115.8297 88.9965,115.7917 89.0635,115.7547 C89.2235,115.3747 89.3515,114.9887 89.4495,114.5947 C89.4515,114.5857 89.4535,114.5767 89.4565,114.5667 C89.4855,114.4467 89.5115,114.3257 89.5355,114.2037 C89.5375,114.1937 89.5405,114.1827 89.5415,114.1727 C89.5895,113.9207 89.6255,113.6647 89.6505,113.4087 C89.6535,113.3767 89.6565,113.3467 89.6595,113.3147 C89.6665,113.2187 89.6735,113.1227 89.6785,113.0257 C89.6805,112.9917 89.6825,112.9567 89.6835,112.9227 C89.6895,112.7977 89.6925,112.6727 89.6925,112.5467 C89.6925,105.8017 82.4695,100.3337 58.9105,100.3337 C58.5265,100.3337 58.1475,100.3347 57.7725,100.3377 C57.6475,100.3387 57.5255,100.3407 57.4015,100.3427" id="Fill-147" fill="#F7CE7A"></path>
            <path d="M43.1963,108.814 C43.1963,108.814 44.4023,111.039 43.8123,113.073 C43.2223,115.108 42.0443,113.751 42.5153,111.246 C40.8353,115.049 39.5963,115.196 39.3903,114.666 C39.0913,113.896 40.1863,111.925 40.1863,111.925 C40.1863,111.925 39.0663,113.958 38.0633,113.899 C37.0613,113.84 38.8003,111.068 38.8003,111.068 C38.8003,111.068 37.5043,112.749 36.8253,112.513 C36.1473,112.277 38.1223,109.742 38.1223,109.742 C38.1223,109.742 37.2193,110.656 36.6833,110.155 C36.1473,109.653 38.7063,106.598 41.2443,106.563" id="Fill-149" fill="#FF8A64"></path>
            <path d="M67.3418,88.4796 L60.3148,88.0746 L51.9718,89.6906 C51.9718,89.6906 50.9128,99.9936 55.2378,113.4206 C57.9598,121.1566 65.3618,114.8896 71.2018,112.8586 C71.8288,101.0376 67.3418,88.4796 67.3418,88.4796" id="Fill-151" fill="#FF8A64"></path>
            <g id="Group-155">
                <mask id="mask-2" fill="white">
                    <use xlink:href="#path-1"></use>
                </mask>
                <g id="Clip-154"></g>
                <path d="M87.4297,97.669 C94.0007,101.177 102.6067,101.288 108.5947,96.857 C114.5827,92.427 116.8497,83.185 112.6167,77.055 C112.3347,76.646 112.0157,76.216 112.0107,75.718 C112.0047,75.095 112.4887,74.592 112.9157,74.138 C116.7637,70.051 118.4077,64.001 117.1567,58.529 C115.9047,53.057 111.7947,48.323 106.5527,46.315 C110.7577,41.321 111.1417,33.707 108.1357,27.912 C105.1287,22.116 99.1517,18.168 92.7597,16.836 C86.3677,15.505 79.6327,16.603 73.5947,19.085 C65.9767,4.428 46.8257,-2.349 31.3687,2.4 C24.1627,4.615 16.3527,10.635 12.5377,17.164 C7.7397,25.374 8.0207,35.744 10.8657,44.818 C5.6987,46.191 1.9267,51.076 0.9207,56.327 C-0.0843,61.578 1.3417,67.065 3.8667,71.778 C6.7767,77.207 11.8387,82.157 17.9947,82.306 C18.6357,88.188 23.3927,93.154 29.0337,94.939 C34.6737,96.724 40.9567,95.641 46.2117,92.922" id="Fill-153" fill="#4C2030" mask="url(#mask-2)"></path>
            </g>
            <path d="M98.4053,60.8345 C98.4053,79.7175 81.8933,95.0255 61.5253,95.0255 C41.1573,95.0255 24.6453,79.7175 24.6453,60.8345 C24.6453,41.9515 41.1573,26.6445 61.5253,26.6445 C81.8933,26.6445 98.4053,41.9515 98.4053,60.8345" id="Fill-156" fill="#FF8A64"></path>
            <path d="M93.1065,34.1685 C87.1365,27.5735 79.1275,24.4085 70.3185,22.8135 C61.8125,21.2725 43.2025,30.7965 35.2205,33.8735 C34.8705,41.0275 47.7355,39.8005 53.0435,44.9145 C58.5265,50.1965 66.3575,53.1995 74.1585,53.0105 C78.6275,63.2445 90.9645,69.7795 102.4615,68.0025 C102.6055,62.9065 101.5865,57.8535 100.5745,52.8475 C99.2335,46.2275 97.7305,39.2775 93.1065,34.1685" id="Fill-158" fill="#4C2030"></path>
            <path d="M47.9131,30.6075 C47.9131,30.6075 91.6331,18.7355 98.2441,60.6945 C98.2441,60.6945 88.1801,30.6925 47.9131,30.6075" id="Fill-160" fill="#C90E32"></path>
            <path d="M85.0196,41.3096 C83.2126,37.0096 82.9136,32.0946 84.1846,27.6066 C85.4556,23.1206 88.2886,19.0916 92.0816,16.3786 C92.2036,17.1066 92.3256,17.8356 92.4166,18.5686 C93.4406,26.7876 90.3606,35.4146 84.3636,41.1266" id="Fill-162" fill="#C90E32"></path>
            <path d="M84.9874,41.7574 C87.9194,37.6304 92.9804,35.4304 98.0084,34.8334 C103.0344,34.2364 108.1104,35.0444 113.1074,35.8504 C111.2904,39.0574 107.9814,41.2544 104.4304,42.2414 C100.8794,43.2294 97.0954,43.1014 93.4664,42.4584 C90.6834,41.9654 87.9544,41.1754 85.3394,40.1064" id="Fill-164" fill="#C90E32"></path>
            <path d="M39.0772,69.2393 C37.4352,63.1643 45.3842,59.7973 49.9092,64.5323 C51.4432,66.1383 52.4152,68.6133 51.7682,72.4273 C51.5462,74.1543 45.4052,76.6793 41.0942,72.5263 C40.0152,71.4883 39.3812,70.3633 39.0772,69.2393" id="Fill-166" fill="#FFFFFF"></path>
            <path d="M41.2891,65.9522 C39.8101,68.4312 40.6191,71.6402 43.0991,73.1202 C45.5771,74.6002 48.7871,73.7902 50.2671,71.3112 C51.7471,68.8322 50.9361,65.6222 48.4581,64.1422 C45.9781,62.6622 42.7691,63.4732 41.2891,65.9522" id="Fill-168" fill="#4C2030"></path>
            <path d="M82.9317,69.2393 C84.5747,63.1643 76.6247,59.7973 72.0997,64.5323 C70.5657,66.1383 69.5937,68.6133 70.2417,72.4273 C70.4627,74.1543 76.6037,76.6793 80.9147,72.5263 C81.9937,71.4883 82.6287,70.3633 82.9317,69.2393" id="Fill-170" fill="#FFFFFF"></path>
            <path d="M80.7198,65.9522 C82.1988,68.4312 81.3898,71.6402 78.9098,73.1202 C76.4318,74.6002 73.2218,73.7902 71.7418,71.3112 C70.2618,68.8322 71.0728,65.6222 73.5508,64.1422 C76.0308,62.6622 79.2408,63.4732 80.7198,65.9522" id="Fill-172" fill="#4C2030"></path>
            <path d="M40.0733,66.1373 C40.0733,64.6203 41.3023,63.3913 42.8193,63.3913 C44.3363,63.3913 45.5653,64.6203 45.5653,66.1373 C45.5653,67.6543 44.3363,68.8833 42.8193,68.8833 C41.3023,68.8833 40.0733,67.6543 40.0733,66.1373" id="Fill-174" fill="#FFFFFF"></path>
            <path d="M71.002,67.3214 C71.002,65.8044 72.231,64.5754 73.748,64.5754 C75.265,64.5754 76.494,65.8044 76.494,67.3214 C76.494,68.8384 75.265,70.0674 73.748,70.0674 C72.231,70.0674 71.002,68.8384 71.002,67.3214" id="Fill-176" fill="#FFFFFF"></path>
            <path d="M27.1211,66.2354 C27.1211,66.2354 22.2501,63.4214 20.5171,68.0754 C18.7861,72.7304 23.2381,78.0964 29.6101,77.7394 L27.1211,66.2354 Z" id="Fill-178" fill="#FF8A64"></path>
            <path d="M95.044,66.9586 C95.044,66.9586 99.79,64.2166 101.478,68.7516 C103.165,73.2866 98.827,78.5166 92.618,78.1676 L95.044,66.9586 Z" id="Fill-180" fill="#FF8A64"></path>
            <path d="M40.8213,76.9732 C40.9773,75.8182 39.5313,74.4982 37.5923,74.0252 C35.6523,73.5522 33.9533,74.1052 33.7973,75.2612 C33.6413,76.4162 35.0873,77.7362 37.0263,78.2092 C38.9673,78.6812 40.6653,78.1282 40.8213,76.9732" id="Fill-182" fill="#FEA87F"></path>
            <path d="M82.5147,76.9732 C82.3587,75.8182 83.8047,74.4982 85.7437,74.0252 C87.6837,73.5522 89.3827,74.1052 89.5387,75.2612 C89.6947,76.4162 88.2487,77.7362 86.3097,78.2092 C84.3687,78.6812 82.6707,78.1282 82.5147,76.9732" id="Fill-184" fill="#FEA87F"></path>
            <path d="M25.7793,64.6768 C27.1363,57.3958 31.8373,44.4888 48.0843,39.1228 C48.5383,38.9728 48.8143,38.4858 48.6703,38.0308 C44.4093,24.5408 28.4063,35.1638 28.4063,35.1638 C28.4063,35.1638 19.4253,41.2908 24.0383,64.6718 C24.2263,65.6278 25.6003,65.6348 25.7793,64.6768" id="Fill-186" fill="#4C2030"></path>
            <path d="M84.501,56.1099 C84.501,56.1099 80.702,49.4659 71.911,52.8389 C76,47.3189 84.008,50.0789 84.501,56.1099" id="Fill-188" fill="#4C2030"></path>
            <path d="M62.0391,104.4649 C62.0391,104.1789 61.8081,103.9469 61.5211,103.9469 C61.2361,103.9469 61.0051,104.1789 61.0051,104.4649 C61.0051,104.7509 61.2361,104.9819 61.5211,104.9819 C61.8081,104.9819 62.0391,104.7509 62.0391,104.4649" id="Fill-190" fill="#D9D9D9"></path>
            <path d="M24.1475,76.5211 C24.1475,77.2921 24.7735,77.9181 25.5445,77.9181 C26.3165,77.9181 26.9415,77.2921 26.9415,76.5211 C26.9415,75.7501 26.3165,75.1241 25.5445,75.1241 C24.7735,75.1241 24.1475,75.7501 24.1475,76.5211" id="Fill-192" fill="#FFFFFF"></path>
            <path d="M95.754,76.5211 C95.754,77.2921 96.38,77.9181 97.151,77.9181 C97.923,77.9181 98.548,77.2921 98.548,76.5211 C98.548,75.7501 97.923,75.1241 97.151,75.1241 C96.38,75.1241 95.754,75.7501 95.754,76.5211" id="Fill-194" fill="#FFFFFF"></path>
            <path d="M66.9151,76.5469 C66.3791,77.6099 64.7201,80.2889 61.6241,80.2889 C58.8651,80.2889 57.2511,78.3569 56.5511,77.2509 C55.5861,77.8469 55.0591,78.9789 56.7971,80.6279 C56.8271,80.6559 56.8571,80.6849 56.8891,80.7129 C59.1761,82.8109 62.9781,82.8159 65.7501,80.9179 C66.8361,80.1739 67.9241,79.2039 67.9511,78.2909 C67.9841,77.2009 67.5471,76.6949 66.9151,76.5469" id="Fill-196" fill="#EF4379"></path>
            <path d="M61.6241,80.2886 C64.7201,80.2886 66.3791,77.6096 66.9151,76.5466 C65.9231,76.3156 64.4461,76.9756 63.5201,77.7106 C62.0021,78.9146 59.7261,77.2316 58.7031,76.8296 C58.2621,76.6566 57.2811,76.8006 56.5511,77.2506 C57.2511,78.3566 58.8651,80.2886 61.6241,80.2886" id="Fill-198" fill="#FFFFFF"></path>
            <path d="M25.8409,71.5743 C26.0039,71.1123 26.3059,71.0353 26.6009,71.1003 C26.4099,70.0103 26.3409,69.3283 26.3409,69.3283 C26.3249,69.3133 26.3109,69.2983 26.2949,69.2833 C24.8089,67.8553 22.3669,69.4503 23.0059,71.4113 C23.4989,72.9283 25.1059,73.8993 27.3329,74.4133 C27.1779,73.8353 27.0459,73.2853 26.9329,72.7733 C26.3239,72.5943 25.6079,72.2383 25.8409,71.5743" id="Fill-200" fill="#CE5B52"></path>
            <path d="M97.21,71.5743 C97.047,71.1123 96.745,71.0353 96.45,71.1003 C96.641,70.0103 96.71,69.3283 96.71,69.3283 C96.725,69.3133 96.74,69.2983 96.756,69.2833 C98.242,67.8553 100.684,69.4503 100.045,71.4113 C99.551,72.9283 97.945,73.8993 95.718,74.4133 C95.873,73.8353 96.005,73.2853 96.118,72.7733 C96.727,72.5943 97.443,72.2383 97.21,71.5743" id="Fill-202" fill="#CE5B52"></path>
            <path d="M81.9795,103.4141 C81.5405,103.8381 80.9275,104.0961 80.2625,104.1691 C78.1065,104.4081 75.9495,104.6111 73.7905,104.7511 C77.2715,105.2761 79.4375,106.0121 79.4375,106.8271 C79.4375,108.4201 71.1555,109.7121 60.9375,109.7121 C50.7205,109.7121 42.4375,108.4201 42.4375,106.8271 C42.4375,106.2141 43.6625,105.6461 45.7495,105.1791 C44.4165,104.6221 43.1555,103.9811 42.0465,103.0231 C41.6435,102.6761 41.3035,102.2991 41.0195,101.8941 C41.0035,101.8971 40.9895,101.9011 40.9735,101.9041 C40.7905,101.9451 40.6095,101.9871 40.4305,102.0301 C40.3885,102.0401 40.3465,102.0501 40.3045,102.0601 C40.1135,102.1061 39.9245,102.1531 39.7385,102.2021 C39.7115,102.2081 39.6855,102.2151 39.6595,102.2221 C39.4485,102.2761 39.2405,102.3321 39.0365,102.3891 L39.0355,102.3901 C37.7675,102.7431 36.6335,103.1381 35.6245,103.5671 C35.6225,103.5681 35.6195,103.5691 35.6175,103.5701 C35.4535,103.6401 35.2925,103.7111 35.1355,103.7831 C35.1285,103.7861 35.1225,103.7891 35.1155,103.7921 C34.9605,103.8621 34.8105,103.9331 34.6635,104.0051 C34.6565,104.0091 34.6485,104.0131 34.6405,104.0161 C34.4935,104.0881 34.3485,104.1621 34.2075,104.2351 C34.2015,104.2381 34.1965,104.2411 34.1915,104.2441 C34.0445,104.3201 33.9025,104.3971 33.7625,104.4751 C32.9045,105.4941 32.2405,106.6471 31.9125,107.9411 C31.2055,110.7361 32.6515,114.1941 35.4595,114.8461 C37.6555,115.3541 40.1935,114.1541 42.1025,115.3521 C43.1165,115.9881 43.6515,117.1421 44.2395,118.1841 C45.2095,119.9031 46.4975,121.5001 48.2085,122.4861 C49.9195,123.4721 52.1025,123.7681 53.8885,122.9261 C56.3345,121.7721 57.7955,118.7081 60.4845,118.4121 C62.5375,118.1861 64.3055,119.7011 66.0815,120.7561 C67.5005,121.6001 69.0725,122.1891 70.6975,122.4851 C72.1695,122.7531 73.8115,122.7451 75.0175,121.8581 C76.4095,120.8341 76.8195,118.9801 77.4035,117.3541 C77.9875,115.7281 79.1785,113.9811 80.9065,114.0041 C82.6035,114.0261 83.7785,115.7421 85.3875,116.2801 C86.5235,116.6601 87.7955,116.4101 88.8625,115.8651 C88.9305,115.8301 88.9965,115.7921 89.0635,115.7551 C89.2235,115.3751 89.3515,114.9881 89.4495,114.5951 C89.4515,114.5851 89.4535,114.5761 89.4565,114.5661 C89.4855,114.4461 89.5115,114.3251 89.5355,114.2041 C89.5375,114.1931 89.5405,114.1831 89.5415,114.1731 C89.5895,113.9201 89.6255,113.6651 89.6505,113.4081 C89.6535,113.3771 89.6565,113.3461 89.6595,113.3151 C89.6665,113.2191 89.6735,113.1221 89.6785,113.0261 C89.6805,112.9921 89.6825,112.9571 89.6835,112.9231 C89.6895,112.7981 89.6925,112.6721 89.6925,112.5461 C89.6925,108.9131 87.5945,105.6511 81.9795,103.4141" id="Fill-204" fill="#F7CE7A"></path>
            <path d="M79.8184,102.6593 C79.8244,103.0603 79.7114,103.4583 79.4424,103.8083 C78.9184,104.4963 78.3804,105.1263 77.7644,105.6263 C78.8384,105.9913 79.4374,106.3983 79.4374,106.8263 C79.4374,108.4203 71.1554,109.7123 60.9374,109.7123 C50.7204,109.7123 42.4374,108.4203 42.4374,106.8263 C42.4374,106.4893 42.8104,106.1653 43.4934,105.8643 C42.3074,104.7593 41.3234,103.4513 40.6504,101.9793 C40.5774,101.9963 40.5034,102.0133 40.4304,102.0303 C40.3884,102.0403 40.3464,102.0503 40.3044,102.0603 C40.1134,102.1063 39.9244,102.1533 39.7384,102.2013 C39.7124,102.2083 39.6854,102.2153 39.6594,102.2223 C39.4484,102.2763 39.2404,102.3323 39.0364,102.3893 L39.0354,102.3893 C37.7674,102.7433 36.6334,103.1383 35.6244,103.5673 C35.6224,103.5683 35.6194,103.5693 35.6174,103.5703 C35.4534,103.6403 35.2934,103.7113 35.1354,103.7833 C35.1294,103.7853 35.1224,103.7893 35.1154,103.7923 C34.9614,103.8623 34.8104,103.9333 34.6634,104.0053 C34.6564,104.0093 34.6484,104.0133 34.6404,104.0163 C34.4934,104.0883 34.3484,104.1613 34.2074,104.2353 C34.2014,104.2383 34.1964,104.2413 34.1914,104.2433 C34.0454,104.3203 33.9024,104.3973 33.7624,104.4753 C32.9044,105.4943 32.2404,106.6473 31.9124,107.9413 C31.2054,110.7363 32.6514,114.1943 35.4604,114.8463 C37.6554,115.3543 40.1934,114.1543 42.1024,115.3513 C43.1164,115.9883 43.6514,117.1413 44.2394,118.1833 C45.2104,119.9033 46.4974,121.5003 48.2084,122.4863 C49.9204,123.4713 52.1024,123.7683 53.8884,122.9263 C56.3354,121.7723 57.7964,118.7083 60.4844,118.4123 C62.5374,118.1863 64.3054,119.7013 66.0814,120.7563 C67.5014,121.6003 69.0724,122.1893 70.6974,122.4853 C72.1704,122.7533 73.8114,122.7453 75.0174,121.8583 C76.4094,120.8343 76.8194,118.9803 77.4034,117.3543 C77.9874,115.7283 79.1784,113.9813 80.9064,114.0043 C82.6034,114.0263 83.7784,115.7423 85.3874,116.2803 C86.5234,116.6603 87.7964,116.4103 88.8624,115.8653 C88.9304,115.8303 88.9964,115.7923 89.0634,115.7553 C89.2234,115.3753 89.3514,114.9883 89.4494,114.5953 C89.4514,114.5853 89.4534,114.5763 89.4564,114.5663 C89.4854,114.4463 89.5114,114.3253 89.5354,114.2043 C89.5374,114.1933 89.5404,114.1833 89.5424,114.1733 C89.5894,113.9203 89.6264,113.6653 89.6504,113.4083 C89.6534,113.3773 89.6564,113.3463 89.6594,113.3153 C89.6674,113.2193 89.6734,113.1223 89.6784,113.0263 C89.6804,112.9923 89.6824,112.9573 89.6834,112.9233 C89.6894,112.7983 89.6924,112.6723 89.6924,112.5463 C89.6924,108.4803 87.0654,104.8793 79.8184,102.6593" id="Fill-206" fill="#F7CE7A"></path>
            <path d="M73.6905,111.2183 C75.5325,111.4513 77.3415,111.8483 79.1165,112.3933 C79.5935,112.5393 79.7965,111.7933 79.3225,111.6473 C77.4795,111.0823 75.6025,110.6873 73.6905,110.4453 C73.1975,110.3833 73.2035,111.1563 73.6905,111.2183" id="Fill-208" fill="#F97000"></path>
            <path d="M36.5499,107.0128 C36.8079,108.5718 37.1719,110.1048 37.6429,111.6138 C37.7909,112.0878 38.5369,111.8858 38.3889,111.4078 C37.9179,109.8988 37.5539,108.3668 37.2949,106.8068 C37.2129,106.3168 36.4689,106.5248 36.5499,107.0128" id="Fill-210" fill="#F97000"></path>
            <path d="M44.2559,112.1798 C45.8729,112.2028 47.4889,112.2258 49.1059,112.2488 C49.6049,112.2558 49.6039,111.4828 49.1059,111.4758 C47.4889,111.4528 45.8729,111.4298 44.2559,111.4068 C43.7579,111.3998 43.7579,112.1728 44.2559,112.1798" id="Fill-212" fill="#F97000"></path>
            <path d="M52.3809,120.2164 C53.2709,119.1544 54.1879,118.1164 55.1309,117.1034 C55.4709,116.7384 54.9249,116.1914 54.5849,116.5564 C53.6409,117.5704 52.7239,118.6084 51.8339,119.6704 C51.5169,120.0494 52.0609,120.5994 52.3809,120.2164" id="Fill-214" fill="#F97000"></path>
            <path d="M58.5997,112.3653 C60.1977,113.1113 61.8477,113.7133 63.5527,114.1613 C64.0367,114.2883 64.2407,113.5423 63.7587,113.4153 C62.1177,112.9853 60.5277,112.4153 58.9907,111.6983 C58.5407,111.4883 58.1487,112.1543 58.5997,112.3653" id="Fill-216" fill="#F97000"></path>
            <path d="M68.4512,117.8927 C70.1182,117.0957 71.8132,116.3617 73.5362,115.6927 C73.9962,115.5147 73.7962,114.7667 73.3312,114.9477 C71.5462,115.6407 69.7892,116.3987 68.0612,117.2257 C67.6112,117.4407 68.0042,118.1067 68.4512,117.8927" id="Fill-218" fill="#F97000"></path>
            <path d="M85.3829,108.1622 C85.0929,109.7612 84.7709,111.3522 84.4139,112.9372 C84.3059,113.4232 85.0509,113.6292 85.1589,113.1422 C85.5159,111.5582 85.8379,109.9662 86.1289,108.3682 C86.2169,107.8802 85.4719,107.6722 85.3829,108.1622" id="Fill-220" fill="#F97000"></path>
            <path d="M43.2461,104.0201 C44.6561,103.6221 46.0761,103.2601 47.5061,102.9351 C47.9921,102.8241 47.7861,102.0791 47.3011,102.1891 C45.8711,102.5141 44.4511,102.8761 43.0401,103.2741 C42.5611,103.4101 42.7661,104.1561 43.2461,104.0201" id="Fill-222" fill="#F97000"></path>
            <path d="M79.917,104.7999 C80.783,106.0069 81.732,107.1449 82.771,108.2079 C83.119,108.5649 83.665,108.0179 83.317,107.6609 C82.324,106.6449 81.412,105.5639 80.584,104.4099 C80.296,104.0079 79.625,104.3939 79.917,104.7999" id="Fill-224" fill="#F97000"></path>
            <polygon id="Fill-226" fill="#FF8A64" points="68.8575 101.9351 77.3795 110.7271 81.2185 107.2081 68.1925 93.1431"></polygon>
            <path d="M77.4239,108.814 C77.4239,108.814 76.2179,111.039 76.8069,113.073 C77.3969,115.108 78.5759,113.751 78.1049,111.246 C79.7849,115.049 81.0239,115.196 81.2299,114.666 C81.5289,113.896 80.4339,111.925 80.4339,111.925 C80.4339,111.925 81.5539,113.958 82.5569,113.899 C83.5589,113.84 81.8199,111.068 81.8199,111.068 C81.8199,111.068 83.1159,112.749 83.7949,112.513 C84.4729,112.277 82.4969,109.742 82.4969,109.742 C82.4969,109.742 83.4009,110.656 83.9369,110.155 C84.4729,109.653 81.9139,106.598 79.3749,106.563" id="Fill-228" fill="#FF8A64"></path>
            <path d="M59.8272,101.2833 C59.7812,101.3003 59.7402,101.3163 59.7042,101.3313 C59.7402,101.3163 59.7812,101.3003 59.8272,101.2833" id="Fill-230" fill="#C90E32"></path>
            <path d="M69.9278,100.4317 C66.4938,101.0207 63.1358,101.8537 59.9168,102.9227 C59.7478,102.9797 59.5668,103.0377 59.3828,103.0147 C59.2258,102.9957 59.0928,102.9197 58.9668,102.8477 C56.4938,101.4187 53.7368,100.2647 50.8148,99.4317 C49.9768,100.6977 51.7458,104.4607 51.4948,105.6537 C51.1088,107.4897 49.1358,108.7927 49.4798,109.0917 C49.4798,109.0917 53.3068,109.6527 57.1928,109.7127 C59.6588,109.7497 62.0578,109.6477 64.6338,109.6547 C68.2058,109.6637 70.9658,109.2677 72.1508,109.1177 L71.8288,108.3237 C70.9388,105.4677 71.9558,105.6967 71.3598,104.3487 C70.8138,103.1147 69.8898,100.3807 69.9278,100.4317" id="Fill-232" fill="#C90E32"></path>
            <path d="M68.8838,99.2349 L69.6958,94.7659 L68.8158,93.6309 L67.2198,99.0639 C67.2198,99.0639 60.8518,100.8599 59.7038,101.3309 C59.7038,101.3309 54.3118,99.1499 53.1068,98.8079 C53.2218,97.4819 52.5838,93.4799 52.5838,93.4799 L51.4948,93.8839 L51.5578,98.3799 C51.5578,98.3799 51.2298,98.8039 50.8148,99.4309 C53.7368,100.2649 56.4938,101.4189 58.9668,102.8469 C59.0928,102.9199 59.2258,102.9959 59.3828,103.0149 C59.5668,103.0379 59.7478,102.9799 59.9168,102.9229 C63.1358,101.8539 66.4938,101.0209 69.9278,100.4319 C69.6188,100.0239 69.2718,99.6179 68.8838,99.2349" id="Fill-234" fill="#4C2030"></path>
        </g>
    </g>
</svg>