<?xml version="1.0" encoding="UTF-8"?>
<svg width="94px" height="131px" viewBox="0 0 94 131" version="1.1" xmlns="http://www.w3.org/2000/svg" xmlns:xlink="http://www.w3.org/1999/xlink">
    <!-- Generator: Sketch 53.1 (72631) - https://sketchapp.com -->
    <title>Group 7child1</title>
    <desc>Created with Sketch.</desc>
    <g id="Page-1" stroke="none" stroke-width="1" fill="none" fill-rule="evenodd">
        <g id="Group-7" transform="translate(0.000078, 0.000384)">
            <path d="M40.7304218,117.525016 L40.7294218,117.544016 C35.1054218,125.775016 23.9254218,126.534016 23.9254218,126.534016 C23.9254218,126.534016 23.8034218,130.522016 22.5644218,130.484016 C21.3264218,130.446016 19.7284218,124.347016 20.5674218,123.812016 C23.4104218,121.997016 29.5574218,115.041016 30.5264218,113.941016 C33.1204218,115.416016 37.0084218,117.242016 40.7304218,117.525016" id="Fill-561" fill="#C68F73"></path>
            <path d="M30.3056218,114.190516 C28.8546218,115.831516 23.2456218,122.102516 20.5676218,123.811516 C19.7286218,124.346516 21.3266218,130.445516 22.5646218,130.483516 C23.8036218,130.522516 23.9256218,126.534516 23.9256218,126.534516 C23.9256218,126.534516 33.9206218,125.851516 39.7636218,118.815516 C36.2436218,118.203516 32.5096218,117.300516 30.3056218,114.190516" id="Fill-562" fill="#C68F73"></path>
            <path d="M70.2880218,124.712016 C72.1950218,125.252016 68.2080218,129.899016 65.0860218,130.468016 C62.1100218,131.013016 51.6430218,117.352016 50.6700218,116.071016 C55.3870218,115.358016 59.6410218,113.238016 62.2580218,111.674016 L62.2620218,111.678016 C63.2950218,114.149016 66.8660218,125.493016 66.8660218,125.493016 C66.8660218,125.493016 69.4080218,124.463016 70.2880218,124.712016" id="Fill-563" fill="#C68F73"></path>
            <path d="M70.2880218,124.712016 C69.4080218,124.463016 66.8660218,125.493016 66.8660218,125.493016 C66.8660218,125.493016 63.8090218,115.787016 62.5350218,112.378016 C59.2850218,114.700016 55.8940218,116.479016 51.7980218,117.529016 C54.8020218,121.360016 62.5860218,130.926016 65.0860218,130.468016 C68.2080218,129.899016 72.1950218,125.252016 70.2880218,124.712016" id="Fill-564" fill="#C68F73"></path>
            <path d="M63.1513218,119.297916 C63.0203218,119.156916 62.7453218,119.181916 62.6583218,119.360916 C62.5163218,119.654916 62.5333218,119.959916 62.4743218,120.273916 C62.4243218,120.537916 62.2043218,120.858916 61.9843218,121.005916 C61.7793218,121.142916 61.9083218,121.453916 62.1503218,121.400916 C62.6163218,121.297916 62.9423218,121.167916 63.2063218,120.744916 C63.4723218,120.316916 63.5033218,119.678916 63.1513218,119.297916" id="Fill-565" fill="#B06754"></path>
            <path d="M50.6152218,92.8023157 L56.5082218,83.0413157 C64.4742218,88.2813157 72.7902218,80.3043157 72.7902218,80.3043157 C72.7902218,80.3043157 76.8022218,83.0173157 76.6772218,82.9323157 C65.7452218,99.1033157 50.6152218,92.8023157 50.6152218,92.8023157" id="Fill-566" fill="#C68F73"></path>
            <path d="M57.0810218,83.4161157 L46.1470218,80.1251157 L39.2590218,82.5661157 C39.2590218,82.5661157 30.0180218,91.0361157 33.3780218,104.960116 C36.5700218,112.712116 46.1470218,110.703116 46.1470218,111.420116 C46.1470218,110.703116 55.7240218,112.712116 58.9160218,104.960116 C62.2760218,91.0361157 57.0810218,83.4161157 57.0810218,83.4161157" id="Fill-567" fill="#C68F73"></path>
            <path d="M46.4150218,0.0475156611 C46.4150218,0.0475156611 16.7490218,-2.31648434 4.30602184,26.3045157 C-8.13897816,54.9255157 11.1650218,68.5735157 23.6630218,71.2065157 C36.1620218,73.8395157 77.4740218,73.7155157 87.3680218,61.2715157 C97.2630218,48.8275157 94.3990218,-0.575484339 46.4150218,0.0475156611" id="Fill-568" fill="#332C22"></path>
            <path d="M5.46092184,46.3458157 C5.46092184,67.3148157 23.7969218,84.3128157 46.4149218,84.3128157 C69.0329218,84.3128157 87.3679218,67.3148157 87.3679218,46.3458157 C87.3679218,25.3768157 69.0329218,8.37881566 46.4149218,8.37881566 C23.7969218,8.37881566 5.46092184,25.3768157 5.46092184,46.3458157" id="Fill-569" fill="#C68F73"></path>
            <path d="M18.2656218,49.9771157 C18.2656218,54.7751157 22.1556218,58.6651157 26.9536218,58.6651157 C31.7516218,58.6651157 35.6416218,54.7751157 35.6416218,49.9771157 C35.6416218,45.1791157 31.7516218,41.2891157 26.9536218,41.2891157 C22.1556218,41.2891157 18.2656218,45.1791157 18.2656218,49.9771157" id="Fill-570" fill="#FFFFFF"></path>
            <path d="M20.0761218,49.9771157 C20.0761218,53.7751157 23.1551218,56.8551157 26.9531218,56.8551157 C30.7521218,56.8551157 33.8311218,53.7751157 33.8311218,49.9771157 C33.8311218,46.1791157 30.7521218,43.0991157 26.9531218,43.0991157 C23.1551218,43.0991157 20.0761218,46.1791157 20.0761218,49.9771157" id="Fill-571" fill="#332C22"></path>
            <path d="M57.0576218,49.9771157 C57.0576218,54.7751157 60.9476218,58.6651157 65.7456218,58.6651157 C70.5436218,58.6651157 74.4336218,54.7751157 74.4336218,49.9771157 C74.4336218,45.1791157 70.5436218,41.2891157 65.7456218,41.2891157 C60.9476218,41.2891157 57.0576218,45.1791157 57.0576218,49.9771157" id="Fill-572" fill="#FFFFFF"></path>
            <path d="M58.8671218,49.9771157 C58.8671218,53.7751157 61.9471218,56.8551157 65.7451218,56.8551157 C69.5441218,56.8551157 72.6231218,53.7751157 72.6231218,49.9771157 C72.6231218,46.1791157 69.5441218,43.0991157 65.7451218,43.0991157 C61.9471218,43.0991157 58.8671218,46.1791157 58.8671218,49.9771157" id="Fill-573" fill="#332C22"></path>
            <path d="M23.8290218,6.89221566 C23.8290218,6.89221566 38.2710218,44.3502157 89.5370218,47.7792157 C91.8490218,9.81221566 66.7710218,-4.10078434 23.8290218,6.89221566" id="Fill-574" fill="#332C22"></path>
            <path d="M7.74992184,47.9908157 C7.74992184,47.9908157 2.34092184,44.8658157 0.417921838,50.0338157 C-1.50507816,55.2028157 3.43892184,61.1628157 10.5149218,60.7658157 L7.74992184,47.9908157 Z" id="Fill-575" fill="#C68F73"></path>
            <path d="M85.7363218,47.9908157 C85.7363218,47.9908157 91.1453218,44.8658157 93.0693218,50.0338157 C94.9923218,55.2028157 90.0483218,61.1628157 82.9713218,60.7658157 L85.7363218,47.9908157 Z" id="Fill-576" fill="#C68F73"></path>
            <path d="M21.9013218,59.6690157 C22.0843218,58.3140157 20.3883218,56.7660157 18.1133218,56.2110157 C15.8393218,55.6570157 13.8463218,56.3060157 13.6633218,57.6610157 C13.4803218,59.0160157 15.1753218,60.5640157 17.4513218,61.1180157 C19.7253218,61.6730157 21.7173218,61.0240157 21.9013218,59.6690157" id="Fill-577" fill="#B06754"></path>
            <path d="M70.7978218,59.6690157 C70.6148218,58.3140157 72.3108218,56.7660157 74.5848218,56.2110157 C76.8598218,55.6570157 78.8528218,56.3060157 79.0348218,57.6610157 C79.2188218,59.0160157 77.5228218,60.5640157 75.2478218,61.1180157 C72.9738218,61.6730157 70.9818218,61.0240157 70.7978218,59.6690157" id="Fill-578" fill="#B06754"></path>
            <path d="M73.1279218,35.2008157 C73.1279218,35.2008157 68.6719218,27.4088157 58.3629218,31.3648157 C63.1579218,24.8918157 72.5489218,28.1278157 73.1279218,35.2008157" id="Fill-579" fill="#332C22"></path>
            <path d="M50.5586218,60.4029157 C50.0836218,61.9059157 48.5736218,65.6689157 45.3966218,65.4039157 C42.3446218,65.1499157 41.4836218,61.9629157 41.2476218,60.5109157 C39.5626218,60.7499157 37.1656218,62.3199157 40.0906218,65.2379157 C40.1276218,65.2739157 40.1636218,65.3099157 40.2006218,65.3449157 C42.9286218,67.9779157 47.4056218,68.0479157 50.6346218,65.7479157 C51.9026218,64.8449157 53.1656218,63.6649157 53.1826218,62.5349157 C53.2146218,60.4529157 51.9536218,60.0659157 50.5586218,60.4029157" id="Fill-580" fill="#C90E32"></path>
            <path d="M45.3964218,65.4039157 C49.1414218,65.7319157 50.0834218,61.9059157 50.5584218,60.4029157 C49.6374218,60.6259157 48.6594218,61.1619157 47.9564218,61.7439157 C46.1894218,63.2069157 43.4814218,61.0879157 42.2714218,60.5729157 C42.0324218,60.4719157 41.6614218,60.4519157 41.2484218,60.5109157 C41.4834218,61.9629157 42.3454218,65.1369157 45.3964218,65.4039157" id="Fill-581" fill="#FFFFFF"></path>
            <path d="M72.7871218,81.1842157 C72.7871218,81.1842157 71.7091218,78.4182157 72.6921218,76.1382157 C73.6761218,73.8572157 74.8501218,75.6072157 73.9341218,78.4552157 C76.4461218,74.2742157 77.9081218,74.2842157 78.0711218,74.9322157 C78.3071218,75.8712157 76.7441218,78.0042157 76.7441218,78.0042157 C76.7441218,78.0042157 78.3451218,75.8022157 79.5031218,76.0172157 C80.6611218,76.2332157 78.2311218,79.2042157 78.2311218,79.2042157 C78.2311218,79.2042157 79.9861218,77.4372157 80.7411218,77.8112157 C81.4961218,78.1852157 78.8261218,80.8462157 78.8261218,80.8462157 C78.8261218,80.8462157 80.0111218,79.9152157 80.5611218,80.5772157 C81.1121218,81.2382157 77.6881218,84.4192157 74.7281218,84.0892157" id="Fill-582" fill="#C68F73"></path>
            <path d="M5.65332184,53.5245157 C5.84032184,52.9965157 6.18432184,52.9085157 6.52132184,52.9825157 C6.30332184,51.7365157 6.22432184,50.9585157 6.22432184,50.9585157 C6.20732184,50.9415157 6.18932184,50.9235157 6.17332184,50.9075157 C4.47332184,49.2745157 1.68432184,51.0975157 2.41332184,53.3385157 C2.97732184,55.0725157 4.81332184,56.1815157 7.35832184,56.7685157 C7.18132184,56.1085157 7.03032184,55.4805157 6.90132184,54.8945157 C6.20532184,54.6895157 5.38632184,54.2825157 5.65332184,53.5245157" id="Fill-583" fill="#B06754"></path>
            <path d="M87.2080218,53.5245157 C87.0210218,52.9965157 86.6770218,52.9085157 86.3390218,52.9825157 C86.5580218,51.7365157 86.6370218,50.9585157 86.6370218,50.9585157 C86.6530218,50.9415157 86.6710218,50.9235157 86.6880218,50.9075157 C88.3880218,49.2745157 91.1770218,51.0975157 90.4470218,53.3385157 C89.8830218,55.0725157 88.0480218,56.1815157 85.5030218,56.7685157 C85.6800218,56.1085157 85.8300218,55.4805157 85.9600218,54.8945157 C86.6550218,54.6895157 87.4750218,54.2825157 87.2080218,53.5245157" id="Fill-584" fill="#B06754"></path>
            <path d="M87.0283218,22.1734157 C86.6233218,22.3144157 86.2043218,22.4584157 85.7643218,22.6044157 C76.0673218,25.8254157 57.8303218,30.0914157 41.0133218,29.2964157 C47.5733218,34.8884157 56.3723218,40.2844157 67.8473218,43.8404157 C74.4073218,43.6944157 81.7933218,43.2024157 89.6973218,42.1694157 C90.4513218,42.0714157 91.2083218,41.9694157 91.9703218,41.8614157 C91.7363218,35.4884157 90.2323218,28.5434157 87.0283218,22.1734157" id="Fill-585" fill="#FFFFFF" opacity="0.121675037"></path>
            <path d="M11.6015218,26.3414157 L5.46052184,23.8304157 C5.46052184,23.8304157 3.56452184,27.5134157 2.58952184,30.7314157 C4.78652184,32.1884157 7.74752184,33.8094157 7.74752184,33.8094157 C7.74752184,33.8094157 9.27852184,29.6314157 11.6015218,26.3414157" id="Fill-586" fill="#FFFFFF" opacity="0.121675037"></path>
            <path d="M20.0947218,46.3458157 C20.0947218,44.5668157 21.5367218,43.1248157 23.3157218,43.1248157 C25.0937218,43.1248157 26.5357218,44.5668157 26.5357218,46.3458157 C26.5357218,48.1248157 25.0937218,49.5668157 23.3157218,49.5668157 C21.5367218,49.5668157 20.0947218,48.1248157 20.0947218,46.3458157" id="Fill-587" fill="#FFFFFF"></path>
            <path d="M59.0283218,46.3458157 C59.0283218,44.5668157 60.4703218,43.1248157 62.2493218,43.1248157 C64.0273218,43.1248157 65.4693218,44.5668157 65.4693218,46.3458157 C65.4693218,48.1248157 64.0273218,49.5668157 62.2493218,49.5668157 C60.4703218,49.5668157 59.0283218,48.1248157 59.0283218,46.3458157" id="Fill-588" fill="#FFFFFF"></path>
            <path d="M59.8359218,92.2213157 C59.8779218,92.7953157 59.7169218,93.6243157 60.0479218,93.8813157 C67.0299218,92.8973157 70.0669218,89.9543157 73.0749218,87.3593157 C69.3679218,89.7103157 65.8759218,91.3673157 59.8359218,92.2213157" id="Fill-589" fill="#650E81" opacity="0.0945405506"></path>
            <path d="M52.8232218,117.143216 C51.8092218,117.296216 50.7642218,117.369216 49.7102218,117.323216 L48.1302218,112.046216 L48.1282218,112.000216 C45.6662218,112.394216 43.6182218,112.371216 43.6182218,112.371216 L41.1132218,118.220216 C40.4692218,118.302216 39.8042218,118.311216 39.1352218,118.258216 C35.9962218,118.019216 32.7162218,116.478216 30.5272218,115.234216 C28.9602218,114.340216 27.9502218,113.602216 27.9502218,113.602216 C30.6752218,110.026216 32.6272218,103.200216 32.6272218,103.200216 L31.8262218,102.830216 C31.8262218,102.830216 31.7292218,102.127216 31.8622218,101.667216 C31.9802218,101.247216 33.3362218,101.443216 33.5742218,101.480216 C33.5972218,101.484216 33.6102218,101.488216 33.6102218,101.488216 C33.6102218,101.488216 39.3562218,102.624216 47.9072218,102.279216 C54.6742218,102.004216 58.2982218,100.925216 59.6842218,100.750216 C60.0472218,100.703216 60.2572218,100.719216 60.3262218,100.830216 C60.6582218,101.363216 60.8832218,102.504216 60.0072218,102.651216 C60.0072218,102.651216 61.8902218,109.417216 64.0682218,112.273216 C64.0682218,112.273216 63.2692218,112.887216 61.9292218,113.687216 C59.8732218,114.916216 56.5302218,116.583216 52.8232218,117.143216" id="Fill-590" fill="#BC223F"></path>
            <path d="M52.4873218,110.869216 C51.0373218,111.450216 49.5873218,111.773216 48.1353218,112.068216 L49.7103218,117.323216 C49.9013218,117.331216 50.0913218,117.331216 50.2803218,117.332216 C49.5743218,114.791216 49.3983218,112.057216 52.4873218,110.869216" id="Fill-591" fill="#650E81" opacity="0.0945405506"></path>
            <path d="M60.0068218,102.651516 C60.8828218,102.504516 60.6578218,101.362516 60.3258218,100.829516 C60.2568218,100.718516 60.0468218,100.702516 59.6848218,100.750516 C58.2978218,100.925516 54.6738218,102.004516 47.9068218,102.279516 C39.3568218,102.624516 33.6108218,101.487516 33.6108218,101.487516 C33.6108218,101.487516 33.5978218,101.484516 33.5738218,101.480516 C33.3358218,101.443516 31.9808218,101.246516 31.8618218,101.667516 C31.7298218,102.127516 31.8258218,102.830516 31.8258218,102.830516 L32.6268218,103.200516 C32.6268218,103.200516 30.6748218,110.026516 27.9498218,113.602516 C27.9498218,113.602516 28.9598218,114.340516 30.5268218,115.234516 C32.7158218,116.478516 35.9958218,118.019516 39.1358218,118.257516 C39.8048218,118.311516 40.4698218,118.301516 41.1128218,118.219516 L43.6178218,112.371516 C43.6178218,112.371516 45.6658218,112.394516 48.1278218,112.000516 L48.1298218,112.046516 L48.1358218,112.068516 C49.5868218,111.773516 51.0368218,111.449516 52.4868218,110.869516 C49.3988218,112.057516 49.5738218,114.791516 50.2798218,117.332516 C51.1408218,117.335516 51.9918218,117.268516 52.8228218,117.143516 C56.5298218,116.583516 59.8728218,114.916516 61.9298218,113.687516 C63.2698218,112.886516 64.0688218,112.273516 64.0688218,112.273516 C61.8908218,109.417516 60.0068218,102.651516 60.0068218,102.651516" id="Fill-592" fill="#C90E32"></path>
            <path d="M38.3203218,119.347316 C38.6033218,119.006316 38.8773218,118.651316 39.1343218,118.274316 L39.1353218,118.258316 C35.9963218,118.019316 32.7163218,116.478316 30.5273218,115.234316 C30.4803218,115.287316 30.4163218,115.359316 30.3403218,115.445316 C32.2003218,118.069316 35.3503218,118.830316 38.3203218,119.347316" id="Fill-593" fill="#650E81" opacity="0.0945405506"></path>
            <path d="M61.9326218,113.691016 L61.9296218,113.688016 C59.8726218,114.917016 56.5306218,116.583016 52.8236218,117.143016 C52.9456218,117.304016 53.2606218,117.715016 53.7096218,118.289016 C56.9286218,117.463016 59.5936218,116.066016 62.1476218,114.241016 C62.0666218,114.024016 61.9946218,113.836016 61.9326218,113.691016" id="Fill-594" fill="#650E81" opacity="0.0945405506"></path>
            <path d="M53.2685218,110.539616 C53.2685218,110.539616 53.1285218,110.606616 52.8855218,110.724616 C52.7645218,110.783616 52.6165218,110.854616 52.4475218,110.936616 C52.2765218,111.016616 52.0915218,111.120616 51.8655218,111.189616 C51.6445218,111.267616 51.4045218,111.351616 51.1505218,111.441616 C51.0235218,111.485616 50.8925218,111.531616 50.7585218,111.578616 C50.6225218,111.613616 50.4845218,111.648616 50.3425218,111.685616 C50.0605218,111.757616 49.7685218,111.832616 49.4715218,111.909616 C49.1705218,111.967616 48.8665218,112.026616 48.5615218,112.084616 C48.4065218,112.112616 48.2595218,112.143616 48.0975218,112.166616 C47.9455218,112.185616 47.7925218,112.204616 47.6425218,112.222616 C47.3405218,112.259616 47.0435218,112.295616 46.7565218,112.331616 C46.4705218,112.373616 46.1885218,112.386616 45.9205218,112.402616 C45.6545218,112.417616 45.4025218,112.433616 45.1685218,112.446616 C44.9365218,112.465616 44.7225218,112.459616 44.5335218,112.462616 C44.3445218,112.463616 44.1795218,112.464616 44.0435218,112.465616 C43.7725218,112.460616 43.6175218,112.457616 43.6175218,112.457616 C43.5695218,112.456616 43.5315218,112.417616 43.5325218,112.369616 C43.5325218,112.323616 43.5695218,112.286616 43.6145218,112.284616 L43.6195218,112.284616 C43.6195218,112.284616 43.7725218,112.278616 44.0395218,112.267616 C44.3085218,112.247616 44.6945218,112.228616 45.1525218,112.188616 C45.6115218,112.138616 46.1435218,112.112616 46.7165218,112.027616 C47.0035218,111.988616 47.3005218,111.948616 47.6015218,111.908616 C47.7515218,111.887616 47.9045218,111.867616 48.0565218,111.847616 C48.1985218,111.824616 48.3545218,111.790616 48.5035218,111.763616 C48.8055218,111.707616 49.1075218,111.651616 49.4045218,111.597616 C49.6975218,111.525616 49.9855218,111.454616 50.2645218,111.386616 C50.4045218,111.352616 50.5405218,111.319616 50.6755218,111.287616 C50.8065218,111.246616 50.9345218,111.206616 51.0595218,111.167616 C51.3095218,111.089616 51.5455218,111.016616 51.7635218,110.947616 C51.9845218,110.888616 52.1765218,110.792616 52.3525218,110.726616 C52.5265218,110.654616 52.6785218,110.592616 52.8035218,110.541616 C53.0545218,110.439616 53.1975218,110.381616 53.1975218,110.381616 C53.2415218,110.363616 53.2915218,110.383616 53.3105218,110.428616 C53.3285218,110.470616 53.3085218,110.519616 53.2685218,110.539616" id="Fill-595" fill="#8F1732"></path>
            <path d="M46.6679218,104.136816 C46.6679218,104.136816 46.6719218,104.157816 46.6799218,104.197816 C46.6839218,104.236816 46.6999218,104.295816 46.6979218,104.369816 C46.7009218,104.444816 46.6959218,104.534816 46.6819218,104.636816 C46.6619218,104.737816 46.6369218,104.851816 46.5939218,104.969816 C46.5499218,105.087816 46.4879218,105.211816 46.4029218,105.328816 C46.3209218,105.446816 46.2209218,105.561816 46.1089218,105.673816 C45.9989218,105.784816 45.8629218,105.886816 45.6949218,105.952816 L45.5629218,105.987816 L45.4199218,105.990816 C45.3259218,105.978816 45.2069218,105.943816 45.1499218,105.906816 L45.0979218,105.878816 L45.0849218,105.871816 L45.0649218,105.858816 L45.0589218,105.852816 L45.0289218,105.828816 C44.9909218,105.798816 44.9559218,105.755816 44.9249218,105.709816 C44.8619218,105.615816 44.8489218,105.483816 44.8749218,105.384816 C44.9299218,105.181816 45.0469218,105.053816 45.1549218,104.936816 C45.3749218,104.706816 45.5999218,104.526816 45.8099218,104.400816 C46.2289218,104.148816 46.5519218,104.074816 46.5519218,104.074816 L46.5669218,104.070816 C46.6119218,104.060816 46.6569218,104.088816 46.6679218,104.133816 L46.6679218,104.136816 Z M46.4919218,104.321816 C46.4799218,104.331816 46.4659218,104.342816 46.4509218,104.353816 C46.3409218,104.435816 46.1789218,104.547816 45.9869218,104.678816 C45.7989218,104.811816 45.5589218,104.944816 45.3559218,105.135816 C45.2589218,105.230816 45.1679218,105.344816 45.1389218,105.447816 C45.1059218,105.542816 45.1569218,105.616816 45.2749218,105.692816 C45.3499218,105.747816 45.3909218,105.748816 45.4479218,105.769816 L45.5419218,105.778816 L45.6389218,105.763816 C45.7689218,105.731816 45.8909218,105.651816 45.9889218,105.552816 C46.0839218,105.449816 46.1579218,105.333816 46.2119218,105.215816 C46.2659218,105.097816 46.3149218,104.985816 46.3519218,104.879816 C46.3959218,104.776816 46.4219218,104.677816 46.4429218,104.589816 C46.4669218,104.501816 46.4819218,104.424816 46.4879218,104.360816 C46.4909218,104.346816 46.4899218,104.333816 46.4919218,104.321816 L46.4919218,104.321816 Z" id="Fill-596" fill="#00468C"></path>
            <path d="M46.7959218,104.244216 C46.7969218,104.256216 46.7949218,104.268216 46.7969218,104.282216 C46.7989218,104.347216 46.8099218,104.425216 46.8279218,104.514216 C46.8439218,104.603216 46.8639218,104.703216 46.9009218,104.809216 C46.9309218,104.917216 46.9739218,105.032216 47.0209218,105.153216 C47.0669218,105.274216 47.1329218,105.395216 47.2219218,105.503216 C47.3139218,105.608216 47.4309218,105.695216 47.5579218,105.735216 L47.6529218,105.756216 L47.7479218,105.753216 C47.8079218,105.736216 47.8489218,105.737216 47.9249218,105.686216 C48.0479218,105.619216 48.1039218,105.548216 48.0769218,105.451216 C48.0549218,105.346216 47.9709218,105.226216 47.8789218,105.126216 C47.6889218,104.923216 47.4569218,104.775216 47.2769218,104.631216 C47.0939218,104.488216 46.9399218,104.367216 46.8339218,104.278216 C46.8199218,104.265216 46.8079218,104.254216 46.7959218,104.244216 L46.7959218,104.244216 Z M46.7509218,103.993216 C46.7509218,103.993216 47.0689218,104.087216 47.4719218,104.364216 C47.6729218,104.503216 47.8869218,104.697216 48.0919218,104.940216 C48.1929218,105.062216 48.3029218,105.199216 48.3439218,105.403216 C48.3639218,105.504216 48.3429218,105.635216 48.2739218,105.726216 C48.2399218,105.769216 48.2029218,105.810216 48.1619218,105.838216 L48.1319218,105.860216 L48.1249218,105.866216 L48.1049218,105.877216 L48.0919218,105.883216 L48.0369218,105.908216 C47.9789218,105.942216 47.8579218,105.969216 47.7629218,105.975216 L47.6209218,105.964216 L47.4899218,105.921216 C47.3259218,105.845216 47.1979218,105.735216 47.0939218,105.616216 C46.9899218,105.498216 46.8969218,105.377216 46.8209218,105.254216 C46.7439218,105.132216 46.6909218,105.005216 46.6539218,104.885216 C46.6179218,104.764216 46.5999218,104.649216 46.5869218,104.547216 C46.5779218,104.443216 46.5789218,104.353216 46.5859218,104.279216 C46.5889218,104.204216 46.6089218,104.146216 46.6149218,104.107216 C46.6259218,104.069216 46.6309218,104.048216 46.6309218,104.048216 C46.6429218,104.003216 46.6879218,103.976216 46.7329218,103.988216 C46.7339218,103.988216 46.7339218,103.988216 46.7349218,103.988216 L46.7509218,103.993216 Z" id="Fill-597" fill="#00468C"></path>
            <path d="M34.0244218,103.251616 C34.0244218,103.251616 34.4214218,103.263616 35.1194218,103.311616 C35.8134218,103.364616 36.8044218,103.439616 37.9954218,103.530616 C38.5894218,103.576616 39.2334218,103.626616 39.9154218,103.679616 C40.5954218,103.735616 41.3144218,103.780616 42.0584218,103.823616 C42.8024218,103.864616 43.5724218,103.888616 44.3544218,103.917616 C45.1364218,103.926616 45.9304218,103.958616 46.7254218,103.949616 C47.1234218,103.951616 47.5204218,103.952616 47.9164218,103.953616 C48.3124218,103.950616 48.7064218,103.936616 49.0974218,103.926616 C49.8794218,103.913616 50.6484218,103.864616 51.3914218,103.813616 C52.1354218,103.767616 52.8474218,103.656616 53.5264218,103.582616 C54.2034218,103.499616 54.8364218,103.373616 55.4254218,103.290616 C56.0154218,103.210616 56.5444218,103.074616 57.0194218,102.987616 C57.2554218,102.936616 57.4794218,102.901616 57.6814218,102.846616 C57.8824218,102.791616 58.0674218,102.740616 58.2354218,102.694616 C58.9074218,102.520616 59.2914218,102.420616 59.2914218,102.420616 L59.2964218,102.419616 C59.3394218,102.408616 59.3844218,102.434616 59.3954218,102.477616 C59.4064218,102.519616 59.3814218,102.562616 59.3404218,102.575616 C59.3404218,102.575616 58.9594218,102.692616 58.2914218,102.897616 C58.1234218,102.946616 57.9364218,103.000616 57.7344218,103.059616 C57.5324218,103.118616 57.3064218,103.157616 57.0704218,103.212616 C56.5924218,103.308616 56.0604218,103.454616 55.4684218,103.543616 C54.8764218,103.626616 54.2364218,103.746616 53.5524218,103.803616 C52.8694218,103.857616 52.1524218,103.956616 51.4044218,103.984616 C50.6594218,104.038616 49.8894218,104.103616 49.1044218,104.126616 C48.7124218,104.142616 48.3174218,104.158616 47.9204218,104.175616 C47.5234218,104.183616 47.1254218,104.190616 46.7264218,104.198616 C45.9294218,104.221616 45.1314218,104.188616 44.3474218,104.185616 C43.5634218,104.161616 42.7914218,104.142616 42.0454218,104.105616 C41.2984218,104.070616 40.5764218,104.042616 39.8924218,103.997616 C39.2094218,103.957616 38.5634218,103.902616 37.9674218,103.856616 C37.3724218,103.810616 36.8284218,103.744616 36.3444218,103.696616 C35.8634218,103.639616 35.4434218,103.590616 35.0974218,103.549616 C34.4064218,103.462616 34.0114218,103.412616 34.0114218,103.412616 C33.9664218,103.407616 33.9354218,103.366616 33.9414218,103.322616 C33.9464218,103.280616 33.9834218,103.250616 34.0244218,103.251616" id="Fill-598" fill="#00468C"></path>
            <path d="M33.4873218,121.340416 C33.2573218,121.439416 33.0953218,121.655416 32.8603218,121.750416 C32.7453218,121.796416 32.5863218,121.770416 32.4693218,121.816416 C32.3473218,121.784416 32.2683218,121.932416 32.3503218,122.022416 L32.3503218,122.023416 C32.3553218,122.063416 32.3683218,122.102416 32.4013218,122.129416 C32.8523218,122.503416 33.6593218,122.288416 33.9093218,121.762416 C34.0493218,121.468416 33.7723218,121.217416 33.4873218,121.340416" id="Fill-599" fill="#B06754"></path>
            <path d="M37.4980218,105.141216 C37.4570218,104.970216 37.2500218,104.942216 37.1310218,105.044216 C36.9100218,105.234216 36.8460218,105.417216 36.7200218,105.680216 C36.5230218,106.088216 36.2150218,106.422216 35.8810218,106.719216 C35.0190218,107.485216 34.0600218,107.345216 33.0340218,107.094216 C32.9520218,107.073216 32.9040218,107.168216 32.9560218,107.228216 C33.6360218,108.022216 34.8040218,108.101216 35.7060218,107.633216 C36.4980218,107.223216 37.7370218,106.146216 37.4980218,105.141216" id="Fill-600" fill="#9D2236"></path>
            <path d="M59.5537218,106.546016 C59.2697218,106.428016 58.9627218,106.404016 58.6767218,106.283016 C58.3127218,106.128016 57.9967218,105.874016 57.7067218,105.610016 C57.2057218,105.154016 56.7977218,104.604016 56.4537218,104.023016 C56.3307218,103.816016 55.9837218,103.952016 56.0597218,104.189016 C56.3117218,104.968016 56.7697218,105.656016 57.3537218,106.228016 C57.8747218,106.740016 58.7857218,107.385016 59.5537218,107.140016 C59.8657218,107.041016 59.8267218,106.659016 59.5537218,106.546016" id="Fill-601" fill="#9D2236"></path>
            <path d="M39.0537218,116.304816 C35.8557218,115.577816 32.9007218,114.797816 29.9257218,113.356816 C29.8447218,113.317816 29.7827218,113.424816 29.8557218,113.476816 C32.4807218,115.367816 35.7817218,116.453816 39.0117218,116.614816 C39.1897218,116.623816 39.2267218,116.344816 39.0537218,116.304816" id="Fill-602" fill="#9D2236"></path>
            <path d="M62.4716218,111.131416 C61.0146218,111.698416 59.6686218,112.568416 58.2606218,113.251416 C56.3316218,114.186416 54.3116218,114.921416 52.2376218,115.456416 C52.2166218,115.461416 52.2266218,115.488416 52.2446218,115.485416 C55.7336218,115.002416 59.8286218,113.601416 62.6206218,111.389416 C62.7416218,111.294416 62.6126218,111.077416 62.4716218,111.131416" id="Fill-603" fill="#9D2236"></path>
            <path d="M76.8798218,80.0045157 C76.6038218,79.7905157 76.2828218,79.6815157 75.9348218,79.7365157 C75.8118218,79.7555157 75.7978218,79.9435157 75.9008218,79.9975157 C76.1338218,80.1185157 76.3868218,80.2135157 76.5948218,80.3795157 C76.7928218,80.5355157 76.9378218,80.7845157 77.1768218,80.8815157 C77.2298218,80.9035157 77.2968218,80.8585157 77.3098218,80.8065157 C77.3838218,80.4845157 77.1118218,80.1845157 76.8798218,80.0045157" id="Fill-604" fill="#A66350"></path>
            <path d="M78.5273218,19.5611157 C76.0923218,22.5521157 72.8513218,24.0881157 69.1893218,25.0931157 C64.9203218,26.2651157 60.5913218,26.6411157 56.2153218,26.5431157 C52.6683218,26.4641157 49.7863218,24.9871157 47.9163218,21.8321157 C47.2863218,20.7701157 44.7223218,20.7861157 44.2553218,21.9261157 C42.0123218,27.3941157 37.1343218,29.1501157 32.0733218,30.5241157 C29.4233218,31.2441157 26.7453218,31.9341157 23.9073218,31.8181157 C20.7273218,31.6881157 17.6393218,31.4751157 15.1053218,29.2601157 C14.6713218,28.8811157 14.4583218,29.1491157 14.2313218,29.4271157 C11.5833218,32.6841157 9.34932184,36.1971157 7.93832184,40.1661157 C7.25632184,42.0831157 6.47432184,43.9861157 6.22432184,46.0361157 C5.61132184,47.0471157 4.80532184,47.4681157 3.66932184,46.8651157 C2.61632184,46.3631157 2.72432184,45.4151157 2.92632184,44.5711157 C3.80732184,40.8931157 4.89332184,37.2811157 6.84932184,33.9981157 C8.33132184,31.5111157 9.82932184,29.0361157 12.0143218,27.0721157 C12.5183218,26.6191157 12.7633218,26.0901157 12.6463218,25.3601157 C12.2733218,23.0201157 12.9293218,20.9931157 14.6213218,19.3151157 C17.9093218,15.3951157 22.4063218,13.8261157 27.2103218,12.8551157 C28.1943218,12.6561157 29.1783218,12.4541157 30.1543218,12.2141157 C33.1433218,11.4811157 36.0873218,11.9201157 38.9603218,12.7211157 C41.0893218,13.3131157 42.6263218,14.8111157 43.7803218,16.6951157 C44.3153218,17.5701157 45.8213218,17.9391157 46.7233218,17.4801157 C46.9233218,17.3781157 46.9933218,17.2071157 47.0653218,17.0151157 C47.9413218,14.6961157 49.7433218,13.1881157 51.8313218,12.1361157 C54.2583218,10.9121157 56.7623218,9.77911566 59.5163218,9.40011566 C60.0763218,9.32311566 60.6253218,9.22711566 61.1893218,9.31811566 C64.7493218,8.40311566 68.3093218,8.37011566 71.9123218,9.13811566 C73.5443218,9.48611566 75.0533218,10.0781157 76.5403218,10.7861157 C76.8983218,11.0511157 77.4123218,11.1321157 77.5613218,11.6461157 C78.6023218,13.0411157 79.4093218,14.5341157 79.5073218,16.3211157 C79.8223218,16.9541157 79.7693218,17.5281157 79.2343218,18.0251157 C78.9993218,18.5371157 78.7623218,19.0491157 78.5273218,19.5611157" id="Fill-605" fill="#99D9D9"></path>
            <path d="M16.2949218,22.5040157 C17.2759218,20.5490157 19.1409218,19.7900157 20.9909218,18.9720157 C24.3249218,17.5000157 27.8299218,16.6750157 31.3929218,16.0050157 C33.4729218,15.6140157 35.5069218,15.7810157 37.4639218,16.4240157 C40.1279218,17.3000157 42.1699218,20.0500157 39.2769218,23.0590157 C37.6929218,24.7060157 35.7399218,25.7540157 33.6499218,26.4510157 C30.7179218,27.4270157 27.6979218,28.1530157 24.6129218,28.4840157 C23.5029218,28.6030157 22.3629218,28.5700157 21.2469218,28.4790157 C18.9079218,28.2870157 16.9679218,27.4410157 16.1499218,24.9910157 C15.9579218,24.1490157 15.8489218,23.3100157 16.2949218,22.5040157" id="Fill-606" fill="#FBFBFB"></path>
            <path d="M55.3017218,22.3780157 C53.2917218,22.2540157 51.8347218,21.1740157 50.6827218,19.6400157 C49.6957218,18.3240157 49.9607218,17.3740157 51.1817218,16.3260157 C54.0837218,13.8310157 57.5477218,12.8240157 61.1887218,11.9600157 C64.8287218,11.0950157 68.3777218,10.7780157 72.0157218,11.6990157 C72.8007218,11.8980157 73.5537218,12.1670157 74.2647218,12.5440157 C76.4067218,13.6810157 76.7567218,16.1960157 74.8827218,17.6990157 C73.4497218,18.8480157 71.9517218,19.9160157 70.1167218,20.4540157 C66.0127218,21.6560157 61.8637218,22.5120157 57.5717218,22.5910157 C56.7987218,22.6060157 56.0507218,22.4860157 55.3017218,22.3780157" id="Fill-607" fill="#FBFBFB"></path>
            <polygon id="Fill-608" fill="#99D9D9" points="76.5400218 10.7862157 80.8760218 13.2302157 82.9720218 15.7962157 79.5080218 16.3212157"></polygon>
            <path d="M62.9580218,105.278416 C62.9580218,105.278416 37.7840218,123.424416 6.19702184,105.719416 L5.90402184,100.784416 C5.90402184,100.784416 34.7730218,82.7114157 62.9580218,105.278416" id="Fill-609" fill="#F6A821"></path>
            <path d="M49.7910218,111.260316 L54.2500218,104.989316 L47.8760218,96.7113157 C45.1260218,95.7243157 42.4240218,95.0393157 39.7970218,94.5963157 L47.5690218,104.767316 L42.2340218,112.916316 C44.9830218,112.516316 47.5130218,111.931316 49.7910218,111.260316" id="Fill-610" fill="#F6A821"></path>
            <path d="M6.34562184,103.359516 C6.40562184,103.414516 6.46262184,103.472516 6.51962184,103.531516 L62.9536218,105.405516 C63.0246218,105.407516 63.0826218,105.352516 63.0846218,105.282516 C63.0866218,105.237516 63.0656218,105.198516 63.0316218,105.173516 C63.0116218,105.160516 62.9886218,105.151516 62.9616218,105.151516 L6.29862184,103.269516 C6.31862184,103.299516 6.33362184,103.329516 6.34562184,103.359516" id="Fill-611" fill="#F6A821"></path>
            <path d="M49.1660218,104.544516 L43.8560218,112.655516 C46.8750218,112.122516 49.6030218,111.376516 51.9900218,110.561516 L56.1050218,104.774516 L50.7830218,97.8645157 C47.7560218,96.5505157 44.7710218,95.6195157 41.8670218,94.9945157 L49.1660218,104.544516 Z" id="Fill-612" fill="#4C2030"></path>
            <path d="M20.9248218,95.1173157 L27.8848218,104.071316 L23.1288218,112.245316 C26.1418218,112.898316 29.0438218,113.263316 31.8128218,113.405316 L37.4048218,104.430316 L29.4268218,93.9933157 C26.3768218,94.1413157 23.5218218,94.5573157 20.9248218,95.1173157" id="Fill-613" fill="#F6A821"></path>
            <path d="M19.2070218,95.5167157 L25.6520218,104.039716 L21.1130218,111.768716 C23.8590218,112.471716 26.5200218,112.931716 29.0800218,113.194716 L34.8350218,104.344716 L27.0120218,94.1677157 C24.1970218,94.4397157 21.5770218,94.9257157 19.2070218,95.5167157" id="Fill-614" fill="#4C2030"></path>
            <path d="M39.2588218,82.9815157 C39.2588218,82.9815157 23.1958218,86.2345157 23.1958218,105.753516 L27.8868218,105.753516 C27.8868218,105.753516 30.3088218,94.4885157 39.8438218,94.3675157 L39.2588218,82.9815157 Z" id="Fill-615" fill="#C68F73"></path>
            <path d="M27.5712218,105.023516 C27.5712218,105.023516 30.0132218,106.710516 30.4762218,109.151516 C30.9382218,111.592516 28.9852218,110.799516 28.1492218,107.927516 C28.4092218,112.797516 27.1922218,113.608516 26.6952218,113.163516 C25.9732218,112.516516 26.0742218,109.874516 26.0742218,109.874516 C26.0742218,109.874516 25.9802218,112.595516 24.9012218,113.065516 C23.8212218,113.535516 24.1702218,109.713516 24.1702218,109.713516 C24.1702218,109.713516 23.7052218,112.159516 22.8712218,112.273516 C22.0362218,112.385516 22.7572218,108.686516 22.7572218,108.686516 C22.7572218,108.686516 22.2982218,110.120516 21.4702218,109.881516 C20.6432218,109.641516 21.6992218,105.088516 24.3362218,103.705516" id="Fill-616" fill="#C68F73"></path>
            <path d="M40.4980218,91.6998157 C40.4990218,91.6528157 40.4970218,91.6058157 40.4870218,91.5588157 C40.4860218,91.5518157 40.4840218,91.5448157 40.4830218,91.5388157 C40.3840218,91.0378157 39.5750218,91.0378157 39.4760218,91.5388157 C39.4740218,91.5448157 39.4730218,91.5518157 39.4720218,91.5588157 C39.4620218,91.6058157 39.4600218,91.6528157 39.4610218,91.6998157 C39.4600218,91.7208157 39.4620218,91.7408157 39.4640218,91.7618157 C39.4640218,91.7638157 39.4640218,91.7668157 39.4650218,91.7698157 C39.4670218,91.7918157 39.4670218,91.8148157 39.4720218,91.8388157 C39.4940218,91.9508157 39.5610218,92.0418157 39.6480218,92.1088157 C39.6630218,92.1208157 39.6810218,92.1308157 39.6970218,92.1408157 C39.7050218,92.1458157 39.7120218,92.1518157 39.7200218,92.1558157 C39.7570218,92.1768157 39.7960218,92.1948157 39.8390218,92.2068157 C39.8850218,92.2188157 39.9320218,92.2218157 39.9790218,92.2208157 C40.0270218,92.2218157 40.0740218,92.2188157 40.1190218,92.2068157 C40.1630218,92.1948157 40.2020218,92.1768157 40.2390218,92.1558157 C40.2470218,92.1518157 40.2540218,92.1458157 40.2620218,92.1408157 C40.2780218,92.1308157 40.2950218,92.1208157 40.3110218,92.1088157 C40.3980218,92.0418157 40.4650218,91.9508157 40.4870218,91.8388157 C40.4920218,91.8148157 40.4920218,91.7918157 40.4940218,91.7698157 C40.4940218,91.7668157 40.4940218,91.7638157 40.4950218,91.7618157 C40.4960218,91.7408157 40.4990218,91.7208157 40.4980218,91.6998157" id="Fill-617" fill="#B06754"></path>
            <path d="M52.6709218,90.5401157 C52.3659218,90.5401157 52.1119218,90.7941157 52.1119218,91.0991157 C52.1119218,91.4031157 52.3659218,91.6571157 52.6709218,91.6571157 C52.9759218,91.6571157 53.2299218,91.4031157 53.2299218,91.0991157 C53.2299218,90.7941157 52.9759218,90.5401157 52.6709218,90.5401157" id="Fill-618" fill="#B06754"></path>
        </g>
    </g>
</svg>