<?xml version="1.0" encoding="UTF-8"?>
<svg width="98px" height="129px" viewBox="0 0 98 129" version="1.1" xmlns="http://www.w3.org/2000/svg" xmlns:xlink="http://www.w3.org/1999/xlink">
    <!-- Generator: Sketch 53.1 (72631) - https://sketchapp.com -->
    <title>Group 5child3</title>
    <desc>Created with Sketch.</desc>
    <g id="Page-1" stroke="none" stroke-width="1" fill="none" fill-rule="evenodd">
        <g id="Group-5" transform="translate(0.842064, 0.000582)">
            <path d="M6.16193594,113.168818 C4.38793594,116.428818 7.75893594,118.784818 10.8179359,119.262818 C14.0149359,119.766818 17.7449359,118.821818 20.7249359,120.367818 C22.2029359,121.131818 23.0739359,122.702818 24.0289359,123.998818 C25.5609359,126.078818 27.6229359,127.379818 30.1449359,127.939818 C33.7369359,128.739818 37.7549359,128.661818 41.4229359,128.669818 C45.8959359,128.682818 49.8429359,127.087818 54.0449359,125.866818 C56.4789359,125.160818 59.1039359,125.497818 61.6029359,125.538818 C64.1899359,125.578818 66.8089359,125.471818 69.2909359,124.664818 C71.2549359,124.024818 73.1359359,123.199818 74.7009359,121.815818 C78.7969359,118.193818 72.9749359,114.334818 74.5819359,110.422818 C75.4809359,108.229818 79.3599359,107.906818 79.2069359,105.176818 C79.0859359,103.078818 76.3369359,101.915818 74.6179359,101.107818 C71.5149359,99.6538184 68.2299359,98.5808184 64.9159359,97.6298184 C63.3659359,97.1848184 61.7969359,96.8658184 60.2059359,96.5408184 C58.5599359,96.2058184 56.9229359,95.8278184 55.2549359,95.5758184 C53.2069359,95.2668184 51.1079359,95.0938184 49.0419359,94.9188184 C47.0279359,94.7478184 45.0179359,94.6578184 42.9969359,94.6428184 C38.8149359,94.6128184 34.6659359,94.7488184 30.5939359,95.5448184 C28.5539359,95.9428184 26.5109359,96.3388184 24.5029359,96.8518184 C21.0689359,97.7318184 13.9489359,99.7038184 15.2439359,104.229818 C15.4829359,105.068818 16.0569359,105.766818 15.9739359,106.675818 C15.8179359,108.417818 13.3299359,109.113818 11.8799359,109.637818 C9.86693594,110.366818 7.49493594,111.079818 6.31993594,112.899818 C6.26493594,112.987818 6.21093594,113.077818 6.16193594,113.168818" id="Fill-440" fill="#08C7EB"></path>
            <path d="M16.6111359,101.819718 C16.3991359,103.457718 17.6631359,105.234718 16.7131359,106.778718 C16.3091359,107.436718 15.6731359,107.961718 14.9551359,108.322718 C14.9231359,108.326718 14.8911359,108.331718 14.8601359,108.336718 C15.4641359,107.916718 15.9111359,107.380718 15.9731359,106.675718 C16.0561359,105.766718 15.4831359,105.068718 15.2441359,104.229718 C14.5901359,101.939718 16.0891359,100.304718 18.1721359,99.1327184 C17.3901359,99.8457184 16.7491359,100.752718 16.6111359,101.819718" id="Fill-441" fill="#CBE9F0"></path>
            <path d="M5.73023594,114.337318 C5.84223594,115.169318 6.25123594,115.877318 6.88823594,116.428318 C7.81323594,117.234318 9.00323594,117.697318 10.1802359,118.004318 C11.3882359,118.318318 12.6262359,118.492318 13.8702359,118.582318 C15.4242359,118.696318 17.0042359,118.693318 18.5442359,118.967318 C19.3612359,119.114318 20.1732359,119.331318 20.9182359,119.701318 C21.4902359,119.984318 22.1002359,120.335318 22.5362359,120.808318 C23.7332359,122.111318 24.8712359,123.466318 26.1962359,124.645318 C26.4022359,124.828318 26.7512359,125.147318 27.1592359,125.453318 C27.3232359,125.584318 27.4932359,125.710318 27.6702359,125.828318 C28.6392359,126.469318 29.7242359,126.831318 30.8452359,127.111318 C32.3732359,127.490318 33.9242359,127.750318 35.4832359,127.948318 C36.9912359,128.142318 38.5022359,128.328318 40.0262359,128.247318 C41.7952359,128.150318 43.5332359,127.778318 45.2212359,127.241318 C46.0962359,126.959318 46.9612359,126.646318 47.8192359,126.310318 C48.7222359,125.961318 49.6142359,125.575318 50.5582359,125.343318 C52.4492359,124.883318 54.3992359,124.877318 56.3302359,125.013318 C58.2332359,125.149318 60.1172359,125.404318 62.0292359,125.317318 C65.3972359,125.167318 68.9262359,124.355318 71.7912359,122.514318 C72.8962359,121.802318 73.9802359,120.886318 74.5382359,119.667318 C75.1142359,118.408318 75.0252359,117.047318 74.4852359,115.790318 C73.8822359,114.384318 72.7582359,112.957318 72.8502359,111.352318 C72.8992359,110.522318 73.2742359,109.712318 73.8702359,109.127318 C74.3712359,108.640318 74.9822359,108.300318 75.6022359,107.985318 C76.1832359,107.690318 76.7802359,107.406318 77.2962359,107.006318 C77.8482359,106.582318 78.4622359,106.019318 78.6042359,105.304318 C78.7932359,104.357318 78.2442359,103.509318 77.6392359,102.754318 C78.4952359,103.391318 79.1472359,104.178318 79.2072359,105.176318 C79.3602359,107.907318 75.4812359,108.230318 74.5822359,110.423318 C72.9742359,114.335318 78.7962359,118.193318 74.7012359,121.816318 C73.1352359,123.199318 71.2542359,124.025318 69.2912359,124.665318 C66.8092359,125.472318 64.1902359,125.579318 61.6032359,125.539318 C59.1042359,125.498318 56.4792359,125.161318 54.0442359,125.866318 C49.8422359,127.087318 45.8962359,128.683318 41.4222359,128.670318 C37.7542359,128.661318 33.7372359,128.739318 30.1452359,127.940318 C27.6232359,127.379318 25.5612359,126.079318 24.0292359,123.999318 C23.0742359,122.703318 22.2032359,121.132318 20.7252359,120.367318 C17.7452359,118.822318 14.0142359,119.767318 10.8182359,119.263318 C8.13723594,118.845318 5.21823594,116.983318 5.73023594,114.337318" id="Fill-442" fill="#CBE9F0"></path>
            <path d="M18.8132359,111.484818 C19.1082359,111.484818 19.3942359,111.490818 19.6792359,111.504818 C19.4792359,110.849818 19.3742359,110.178818 19.3742359,109.497818 C19.3742359,102.296818 30.8852359,96.4618184 45.0872359,96.4618184 C59.2872359,96.4618184 70.7992359,102.296818 70.7992359,109.497818 C70.7992359,116.694818 59.2872359,122.531818 45.0872359,122.531818 C36.1832359,122.531818 28.3362359,120.235818 23.7222359,116.751818 C22.3942359,117.185818 20.6852359,117.451818 18.8132359,117.451818 C14.6032359,117.451818 11.1922359,116.116818 11.1922359,114.466818 C11.1922359,112.819818 14.6032359,111.484818 18.8132359,111.484818" id="Fill-443" fill="#08C7EB"></path>
            <path d="M67.1960359,121.177118 C67.1960359,121.516118 67.8810359,121.792118 68.7190359,121.792118 C69.5600359,121.792118 70.2420359,121.516118 70.2420359,121.177118 C70.2420359,120.837118 69.5600359,120.561118 68.7190359,120.561118 C67.8810359,120.561118 67.1960359,120.837118 67.1960359,121.177118" id="Fill-444" fill="#08C7EB"></path>
            <path d="M64.1101359,122.727418 C64.1101359,122.891418 64.4401359,123.024418 64.8461359,123.024418 C65.2541359,123.024418 65.5831359,122.891418 65.5831359,122.727418 C65.5831359,122.560418 65.2541359,122.428418 64.8461359,122.428418 C64.4401359,122.428418 64.1101359,122.560418 64.1101359,122.727418" id="Fill-445" fill="#08C7EB"></path>
            <path d="M35.7771359,125.514518 C35.7771359,125.853518 36.4581359,126.131518 37.2981359,126.131518 C38.1401359,126.131518 38.8211359,125.853518 38.8211359,125.514518 C38.8211359,125.175518 38.1401359,124.898518 37.2981359,124.898518 C36.4581359,124.898518 35.7771359,125.175518 35.7771359,125.514518" id="Fill-446" fill="#08C7EB"></path>
            <path d="M31.1218359,125.514518 C31.1218359,125.680518 31.4508359,125.815518 31.8568359,125.815518 C32.2668359,125.815518 32.5958359,125.680518 32.5958359,125.514518 C32.5958359,125.351518 32.2668359,125.217518 31.8568359,125.217518 C31.4508359,125.217518 31.1218359,125.351518 31.1218359,125.514518" id="Fill-447" fill="#08C7EB"></path>
            <path d="M9.82303594,115.392518 C9.82303594,115.557518 10.1530359,115.689518 10.5580359,115.689518 C10.9660359,115.689518 11.2950359,115.557518 11.2950359,115.392518 C11.2950359,115.227518 10.9660359,115.093518 10.5580359,115.093518 C10.1530359,115.093518 9.82303594,115.227518 9.82303594,115.392518" id="Fill-448" fill="#08C7EB"></path>
            <path d="M17.9294359,101.384218 C17.9294359,101.549218 18.2584359,101.682218 18.6644359,101.682218 C19.0724359,101.682218 19.4034359,101.549218 19.4034359,101.384218 C19.4034359,101.220218 19.0724359,101.086218 18.6644359,101.086218 C18.2584359,101.086218 17.9294359,101.220218 17.9294359,101.384218" id="Fill-449" fill="#08C7EB"></path>
            <path d="M74.5662359,104.012118 C74.5662359,104.178118 74.8962359,104.310118 75.3012359,104.310118 C75.7112359,104.310118 76.0412359,104.178118 76.0412359,104.012118 C76.0412359,103.849118 75.7112359,103.715118 75.3012359,103.715118 C74.8962359,103.715118 74.5662359,103.849118 74.5662359,104.012118" id="Fill-450" fill="#08C7EB"></path>
            <path d="M64.5681359,119.310918 C67.1571359,117.794918 69.6861359,115.902918 71.0191359,113.138918 C71.0461359,113.083918 71.1541359,113.201918 71.1351359,113.249918 C69.9741359,116.157918 67.3241359,117.998918 64.6551359,119.418918 C64.6111359,119.439918 64.5301359,119.331918 64.5681359,119.310918" id="Fill-451" fill="#CBE9F0"></path>
            <path d="M62.0418359,121.269918 C62.8908359,120.938918 63.7518359,120.639918 64.5738359,120.243918 C65.3978359,119.842918 66.1628359,119.324918 66.9198359,118.814918 C68.3568359,117.844918 69.9428359,116.725918 70.8428359,115.200918 C70.8778359,115.141918 70.9998359,115.276918 70.9728359,115.329918 C70.1658359,116.931918 68.6618359,118.179918 67.2018359,119.164918 C65.6518359,120.213918 64.0528359,121.152918 62.1928359,121.516918 C62.1058359,121.533918 61.9358359,121.309918 62.0418359,121.269918" id="Fill-452" fill="#CBE9F0"></path>
            <path d="M27.1257359,119.945718 C27.7357359,120.383718 28.5377359,120.610718 29.2447359,120.840718 C29.9677359,121.078718 30.6937359,121.300718 31.4267359,121.512718 C32.9377359,121.948718 34.4707359,122.346718 36.0027359,122.697718 C36.0627359,122.712718 36.1737359,122.890718 36.0817359,122.875718 C34.4077359,122.608718 32.7477359,122.201718 31.1257359,121.710718 C29.8167359,121.317718 28.2197359,120.905718 27.1267359,120.048718 C27.0827359,120.017718 27.0407359,119.883718 27.1257359,119.945718" id="Fill-453" fill="#CBE9F0"></path>
            <path d="M30.7761359,122.600518 C32.1571359,123.073518 33.5631359,123.421518 34.9791359,123.771518 C35.0531359,123.789518 35.1971359,124.020518 35.0771359,124.000518 C33.6171359,123.748518 32.1901359,123.261518 30.8141359,122.716518 C30.7831359,122.703518 30.7191359,122.579518 30.7761359,122.600518" id="Fill-454" fill="#CBE9F0"></path>
            <path d="M68.7000359,46.2748184 C72.6840359,37.8998184 71.2230359,27.6218184 65.0240359,20.4238184 C64.8090359,20.1748184 64.5820359,19.9138184 64.5270359,19.6028184 C64.4560359,19.1928184 64.6950359,18.7988184 64.8890359,18.4228184 C66.2530359,15.7828184 65.5170359,12.5278184 63.6140359,10.1738184 C61.7120359,7.82081835 58.8060359,6.26681835 55.7850359,5.23681835 C51.3290359,3.71781835 46.0090359,3.30681835 42.0360359,5.67681835 C39.0750359,2.37081835 34.4770359,0.386818353 29.7780359,0.0508183528 C20.9130359,-0.583181647 10.5120359,4.75581835 12.8370359,13.7838184 C8.61803594,14.6438184 4.65603594,16.8188184 2.26703594,20.0698184 C-0.120964057,23.3208184 -0.765964057,27.6698184 1.02503594,31.2198184 C1.83903594,32.8338184 3.30403594,34.3468184 5.24803594,34.6118184 C4.64003594,37.3228184 5.39303594,40.2588184 7.26203594,42.4548184 C9.50203594,45.0888184 13.8700359,46.9298184 17.5450359,46.4508184" id="Fill-455" fill="#B0814D"></path>
            <path d="M39.3220359,88.1063184 C39.6510359,88.1593184 39.9820359,88.2013184 40.3170359,88.2313184 L40.3010359,88.3813184 C40.3010359,88.3813184 40.2870359,92.4153184 40.7560359,96.9503184 C30.8380359,96.2233184 21.3040359,86.7273184 21.6460359,86.1173184 C21.9810359,85.5263184 23.2000359,86.0853184 23.3010359,86.1153184 C23.2090359,86.0573184 21.6020359,84.7143184 22.0650359,84.1043184 C22.3510359,83.7253184 24.3390359,84.8653184 24.3390359,84.8653184 C24.3390359,84.8653184 23.2230359,82.9353184 23.5400359,82.6383184 C23.9700359,82.2343184 25.8970359,84.2893184 25.8970359,84.2893184 C25.8970359,84.2893184 25.4470359,82.1263184 26.2310359,82.5973184 C27.0140359,83.0673184 27.2890359,84.8883184 27.2890359,84.8883184 C30.8820359,86.8843184 36.2360359,87.7513184 39.3220359,88.1063184" id="Fill-456" fill="#E0C6B3"></path>
            <path d="M33.7517359,92.9965184 C33.6057359,92.8415184 33.4217359,92.8725184 33.2357359,92.9085184 C32.9737359,92.9595184 32.7237359,92.8935184 32.4777359,92.7995184 C32.3127359,92.7355184 32.1317359,92.9385184 32.2257359,93.0935184 C32.3887359,93.3625184 32.5997359,93.5355184 32.9067359,93.6185184 C33.1897359,93.6955184 33.6177359,93.6945184 33.7867359,93.4125184 C33.8697359,93.2755184 33.8597359,93.1115184 33.7517359,92.9965184" id="Fill-457" fill="#EDB9A6"></path>
            <path d="M25.2156359,84.7372184 C24.7826359,84.5902184 24.4076359,84.9822184 24.2076359,85.3222184 C23.9746359,85.7192184 23.9766359,86.1452184 24.1446359,86.5632184 C24.2696359,86.8722184 24.6916359,86.7172184 24.7286359,86.4412184 C24.7606359,86.1952184 24.8416359,85.9472184 24.9826359,85.7412184 C25.0456359,85.6472184 25.1476359,85.5682184 25.2296359,85.4892184 C25.3586359,85.3642184 25.4116359,85.2432184 25.4446359,85.0712184 C25.4716359,84.9262184 25.3426359,84.7802184 25.2156359,84.7372184" id="Fill-458" fill="#EDB9A6"></path>
            <path d="M47.0828359,92.0595184 C44.3548359,92.1415184 44.6768359,89.0105184 44.6768359,89.0105184 L44.7188359,88.8165184 C45.2188359,88.9345184 46.1078359,88.3405184 46.6028359,88.4045184 C47.7068359,88.5465184 48.4088359,89.2525184 49.4728359,89.1565184 C49.3938359,89.7525184 48.9638359,92.0045184 47.0828359,92.0595184" id="Fill-459" fill="#EFCBB1"></path>
            <path d="M44.6716359,89.5473184 C44.7196359,90.4383184 45.0736359,92.1193184 47.0826359,92.0593184 C48.4966359,92.0183184 49.0906359,90.7343184 49.3316359,89.8463184 C47.7706359,90.0193184 46.1786359,89.9143184 44.6716359,89.5473184" id="Fill-460" fill="#EFCBB1"></path>
            <path d="M33.6775359,101.465718 C33.5795359,101.935718 33.5015359,102.395718 33.4445359,102.837718 L33.4415359,102.843718 C32.9955359,102.604718 32.8025359,102.395718 32.8025359,102.250718 C32.8025359,101.729718 33.4385359,101.523718 33.6775359,101.465718" id="Fill-461" fill="#F3A22A"></path>
            <path d="M59.6628359,100.914918 C61.4068359,101.190918 62.0068359,102.158918 60.4768359,103.058918 C60.2168359,102.452918 59.9438359,101.726918 59.6628359,100.914918" id="Fill-462" fill="#F3A22A"></path>
            <path d="M44.0408359,116.479918 C40.9068359,116.346918 38.2488359,116.034918 36.0148359,115.577918 C26.2108359,113.572918 24.5308359,108.765918 26.6228359,103.933918 C28.7088359,99.1199184 33.8708359,99.8429184 33.8708359,99.8429184 L34.0468359,99.8889184 C33.9068359,100.424918 33.7798359,100.951918 33.6778359,101.465918 C33.4378359,101.522918 32.8028359,101.729918 32.8028359,102.250918 C32.8028359,102.395918 32.9958359,102.604918 33.4408359,102.843918 C34.9788359,103.675918 39.5118359,104.847918 49.3848359,104.762918 C55.6058359,104.711918 59.0188359,103.917918 60.4778359,103.058918 C62.0068359,102.158918 61.4068359,101.190918 59.6628359,100.914918 C59.5028359,100.442918 59.3358359,99.9429184 59.1698359,99.4219184 L59.3598359,99.3619184 C59.3598359,99.3619184 63.7708359,98.6379184 66.4988359,101.447918 C69.5198359,104.553918 70.2628359,112.818918 58.0338359,115.610918 C55.7388359,116.134918 52.9868359,116.464918 49.7048359,116.530918 C47.6648359,116.573918 45.7778359,116.555918 44.0408359,116.479918" id="Fill-463" fill="#F97000"></path>
            <path d="M35.8171359,94.5267184 C37.4591359,90.2727184 39.3021359,86.6857184 39.3021359,86.6857184 L39.3841359,86.5577184 C39.6601359,86.7337184 39.9441359,86.9027184 40.2321359,87.0607184 C41.6521359,87.8577184 43.1961359,88.4597184 44.7181359,88.8167184 L44.6761359,89.0107184 C44.6761359,89.0107184 44.3551359,92.1407184 47.0831359,92.0597184 C48.9631359,92.0047184 49.3931359,89.7527184 49.4721359,89.1557184 C51.7341359,88.9467184 53.8711359,88.2237184 55.7481359,87.0847184 C55.7521359,87.0847184 55.7541359,87.0817184 55.7571359,87.0817184 C55.7751359,87.0727184 55.7941359,87.0637184 55.8151359,87.0517184 C56.1321359,88.3717184 56.9351359,91.6477184 57.8771359,95.0417184 C58.2921359,96.5337184 58.7331359,98.0447184 59.1701359,99.4227184 C59.3361359,99.9437184 59.5031359,100.442718 59.6631359,100.914718 C59.9441359,101.726718 60.2161359,102.452718 60.4771359,103.058718 C59.0181359,103.918718 55.6061359,104.711718 49.3841359,104.762718 C39.5111359,104.847718 34.9791359,103.675718 33.4411359,102.843718 L33.4441359,102.837718 C33.5021359,102.395718 33.5801359,101.935718 33.6771359,101.465718 C33.7801359,100.951718 33.9071359,100.424718 34.0461359,99.8887184 C34.5091359,98.1237184 35.1451359,96.2677184 35.8171359,94.5267184" id="Fill-464" fill="#3C4A5E"></path>
            <path d="M59.6628359,100.059518 C59.5028359,99.4775184 59.3358359,98.8635184 59.1698359,98.2225184 C58.7328359,96.5265184 58.2918359,94.6665184 57.8768359,92.8305184 C56.9348359,88.6525184 56.1328359,84.6205184 55.8148359,82.9965184 C55.7938359,83.0115184 55.7748359,83.0215184 55.7578359,83.0335184 C55.7548359,83.0335184 55.7518359,83.0375184 55.7478359,83.0375184 C55.5088359,83.2155184 55.2648359,83.3855184 55.0168359,83.5485184 C54.8118359,83.8085184 54.6048359,84.0635184 54.3978359,84.3185184 C52.8638359,85.4985184 51.1178359,86.1915184 49.3318359,86.4355184 C49.0908359,87.5285184 48.4968359,89.1085184 47.0828359,89.1595184 C45.0738359,89.2335184 44.7198359,87.1645184 44.6718359,86.0675184 C42.6318359,85.4565184 40.7488359,84.2575184 39.3098359,82.5295184 L39.3028359,82.5455184 C39.3028359,82.5455184 37.4588359,86.9605184 35.8168359,92.1965184 C35.1448359,94.3395184 34.5098359,96.6235184 34.0468359,98.7955184 C33.9068359,99.4555184 33.7798359,100.104518 33.6778359,100.737518 C33.5798359,101.315518 33.5018359,101.881518 33.4438359,102.425518 L33.4408359,102.433518 C33.4998359,102.472518 33.5638359,102.512518 33.6318359,102.552518 C42.1918359,102.120518 52.6448359,107.604518 60.3378359,102.282518 C60.1198359,101.626518 59.8938359,100.881518 59.6628359,100.059518" id="Fill-465" fill="#99D9D9"></path>
            <path d="M36.3855359,104.737718 C35.8065359,104.148718 34.6515359,104.037718 33.8965359,103.747718 C33.4635359,103.581718 33.0515359,103.345718 32.7235359,103.019718 C32.3885359,102.687718 32.3605359,102.232718 32.2175359,101.807718 C32.0735359,101.377718 31.4575359,101.240718 31.2195359,101.676718 C30.5845359,102.833718 31.3805359,103.986718 32.3245359,104.651718 C32.8285359,105.006718 33.4435359,105.225718 34.0195359,105.430718 C34.5675359,105.626718 35.3065359,105.985718 35.8935359,105.925718 C36.4755359,105.866718 36.8425359,105.203718 36.3855359,104.737718" id="Fill-468" fill="#FFFDEE"></path>
            <path d="M39.2429359,105.350518 L39.2349359,105.317518 C39.1799359,105.073518 38.9609359,104.869518 38.7219359,104.805518 C38.4119359,104.722518 38.0769359,104.633518 37.7579359,104.709518 C37.3559359,104.803518 37.2519359,105.246518 37.4039359,105.578518 C37.5659359,105.931518 37.9939359,106.097518 38.3329359,106.220518 C38.5819359,106.311518 38.8629359,106.199518 39.0469359,106.032518 C39.0539359,106.025518 39.0599359,106.018518 39.0679359,106.012518 C39.2509359,105.846518 39.2959359,105.581518 39.2429359,105.350518" id="Fill-469" fill="#FFFDEE"></path>
            <path d="M63.2976359,102.973518 C63.2386359,102.786518 63.0716359,102.710518 62.8876359,102.740518 C62.3596359,102.826518 62.0376359,103.347518 61.6516359,103.679518 C60.9216359,104.306518 59.9786359,104.735518 59.0936359,105.084518 C57.5006359,105.713518 55.9736359,105.562518 54.3576359,105.842518 C54.2606359,105.858518 54.2186359,105.988518 54.2666359,106.066518 C55.1936359,107.579518 58.1506359,106.619518 59.3966359,106.182518 C60.4166359,105.825518 63.7756359,104.494518 63.2976359,102.973518" id="Fill-470" fill="#FFFDEE"></path>
            <path d="M39.4021359,92.3910184 C39.3871359,92.3690184 39.3731359,92.3470184 39.3601359,92.3240184 C39.1031359,91.9040184 38.5111359,91.8150184 38.1571359,92.1690184 C37.7891359,92.5370184 37.9101359,93.0950184 38.3121359,93.3710184 C38.3341359,93.3870184 38.3551359,93.4010184 38.3781359,93.4150184 C39.0041359,93.8230184 39.8041359,93.0160184 39.4021359,92.3910184" id="Fill-471" fill="#FFFFFF"></path>
            <path d="M39.8259359,96.1307184 C39.8249359,96.1237184 39.8259359,96.1187184 39.8249359,96.1127184 C39.8179359,96.0767184 39.8109359,96.0407184 39.8039359,96.0047184 C39.7389359,95.6647184 39.1839359,95.6647184 39.1199359,96.0047184 C39.1129359,96.0407184 39.1059359,96.0767184 39.0989359,96.1127184 C39.0979359,96.1187184 39.0979359,96.1237184 39.0969359,96.1307184 C39.0769359,96.2137184 39.0849359,96.2837184 39.1099359,96.3447184 C39.1629359,96.4987184 39.3109359,96.5657184 39.4619359,96.5607184 C39.6119359,96.5657184 39.7609359,96.4987184 39.8129359,96.3447184 C39.8389359,96.2837184 39.8469359,96.2137184 39.8259359,96.1307184" id="Fill-472" fill="#FFFFFF"></path>
            <path d="M42.0857359,92.8773184 C41.1847359,92.8773184 41.1847359,94.2743184 42.0857359,94.2743184 C42.9867359,94.2743184 42.9867359,92.8773184 42.0857359,92.8773184" id="Fill-473" fill="#FFFFFF"></path>
            <path d="M43.7009359,98.2435184 C43.3289359,98.2435184 43.0189359,98.5535184 43.0189359,98.9245184 C43.0189359,99.2955184 43.3289359,99.6055184 43.7009359,99.6055184 C44.0719359,99.6055184 44.3819359,99.2955184 44.3819359,98.9245184 C44.3819359,98.5535184 44.0719359,98.2435184 43.7009359,98.2435184" id="Fill-474" fill="#FFFFFF"></path>
            <path d="M37.7771359,99.2011184 C37.3271359,99.2011184 36.9521359,99.5761184 36.9521359,100.027118 C36.9521359,100.477118 37.3271359,100.852118 37.7771359,100.852118 C38.2271359,100.852118 38.6031359,100.477118 38.6031359,100.027118 C38.6031359,99.5761184 38.2271359,99.2011184 37.7771359,99.2011184" id="Fill-475" fill="#FFFFFF"></path>
            <path d="M45.7185359,94.7826184 C44.9315359,94.7826184 44.9315359,96.0026184 45.7185359,96.0026184 C46.5055359,96.0026184 46.5055359,94.7826184 45.7185359,94.7826184" id="Fill-476" fill="#FFFFFF"></path>
            <path d="M41.8230359,90.1234184 C41.4870359,90.1234184 41.2070359,90.4044184 41.2070359,90.7404184 C41.2070359,91.0774184 41.4870359,91.3574184 41.8230359,91.3574184 C42.1600359,91.3574184 42.4410359,91.0774184 42.4410359,90.7404184 C42.4410359,90.4044184 42.1600359,90.1234184 41.8230359,90.1234184" id="Fill-477" fill="#FFFFFF"></path>
            <path d="M52.1775359,90.8407184 C51.2535359,90.8407184 51.2535359,92.2747184 52.1775359,92.2747184 C53.1025359,92.2747184 53.1025359,90.8407184 52.1775359,90.8407184" id="Fill-478" fill="#FFFFFF"></path>
            <path d="M49.4529359,92.7318184 C49.1029359,92.7318184 48.8099359,93.0238184 48.8099359,93.3738184 C48.8099359,93.7238184 49.1029359,94.0168184 49.4529359,94.0168184 C49.8029359,94.0168184 50.0959359,93.7238184 50.0959359,93.3738184 C50.0959359,93.0238184 49.8029359,92.7318184 49.4529359,92.7318184" id="Fill-479" fill="#FFFFFF"></path>
            <path d="M49.0496359,97.0746184 C48.5906359,97.0746184 48.2086359,97.4576184 48.2086359,97.9156184 C48.2086359,98.3736184 48.5906359,98.7566184 49.0496359,98.7566184 C49.5076359,98.7566184 49.8906359,98.3736184 49.8906359,97.9156184 C49.8906359,97.4576184 49.5076359,97.0746184 49.0496359,97.0746184" id="Fill-480" fill="#FFFFFF"></path>
            <path d="M47.5691359,101.750418 C47.5691359,101.528418 47.4791359,101.313418 47.3231359,101.156418 C47.0971359,100.930418 46.8061359,100.882418 46.5051359,100.939418 C46.2881359,100.980418 46.1331359,101.124418 45.9791359,101.266418 C45.4701359,101.734418 45.8451359,102.720418 46.5591359,102.668418 C46.7171359,102.657418 46.8691359,102.643418 47.0061359,102.553418 C47.0261359,102.539418 47.0451359,102.521418 47.0651359,102.507418 C47.3591359,102.376418 47.5691359,102.106418 47.5691359,101.750418" id="Fill-481" fill="#FFFFFF"></path>
            <path d="M53.3386359,96.0453184 C53.3366359,96.0413184 53.3336359,96.0293184 53.3286359,96.0163184 C53.3146359,95.9773184 53.2956359,95.9403184 53.2746359,95.9033184 C53.2966359,95.9403184 53.3106359,95.9683184 53.3216359,95.9913184 C53.2246359,95.5313184 52.6586359,95.3683184 52.2816359,95.5723184 C52.2526359,95.5883184 52.2256359,95.6073184 52.1956359,95.6213184 C51.9006359,95.7653184 51.7226359,96.1993184 51.8346359,96.5103184 C51.8376359,96.5173184 51.8396359,96.5243184 51.8426359,96.5323184 C51.9376359,96.7913184 52.1076359,96.9963184 52.3826359,97.0723184 C52.6446359,97.1443184 52.9456359,97.0713184 53.1356359,96.8733184 C53.1406359,96.8683184 53.1456359,96.8633184 53.1506359,96.8573184 C53.3556359,96.6433184 53.4366359,96.3243184 53.3386359,96.0453184" id="Fill-482" fill="#FFFFFF"></path>
            <path d="M53.3289359,96.0160184 C53.3329359,96.0250184 53.3359359,96.0360184 53.3389359,96.0450184 C53.3459359,96.0570184 53.3459359,96.0400184 53.3219359,95.9910184 C53.3219359,95.9930184 53.3229359,95.9950184 53.3239359,95.9960184 C53.3259359,96.0060184 53.3269359,96.0090184 53.3289359,96.0160184" id="Fill-483" fill="#FFFFFF"></path>
            <path d="M51.7742359,100.433518 C51.4412359,100.433518 51.1642359,100.711518 51.1642359,101.043518 C51.1642359,101.376518 51.4412359,101.654518 51.7742359,101.654518 C52.1062359,101.654518 52.3842359,101.376518 52.3842359,101.043518 C52.3842359,100.711518 52.1062359,100.433518 51.7742359,100.433518" id="Fill-484" fill="#FFFFFF"></path>
            <path d="M56.4168359,100.031618 C56.0288359,100.031618 55.7068359,100.354618 55.7068359,100.740618 C55.7068359,101.127618 56.0288359,101.450618 56.4168359,101.450618 C56.8038359,101.450618 57.1258359,101.127618 57.1258359,100.740618 C57.1258359,100.354618 56.8038359,100.031618 56.4168359,100.031618" id="Fill-485" fill="#FFFFFF"></path>
            <path d="M54.9041359,92.8026184 C54.5151359,92.8026184 54.1901359,93.1276184 54.1901359,93.5156184 C54.1901359,93.9046184 54.5151359,94.2296184 54.9041359,94.2296184 C55.2931359,94.2296184 55.6181359,93.9046184 55.6181359,93.5156184 C55.6181359,93.1276184 55.2931359,92.8026184 54.9041359,92.8026184" id="Fill-486" fill="#FFFFFF"></path>
            <path d="M41.4275359,101.385118 C41.3185359,101.292118 41.2935359,101.277118 41.1575359,101.228118 C41.0825359,101.201118 41.0035359,101.201118 40.9255359,101.212118 C40.9185359,101.213118 40.9115359,101.215118 40.9055359,101.215118 C40.8795359,101.220118 40.8535359,101.222118 40.8275359,101.230118 C40.6595359,101.272118 40.5045359,101.379118 40.4205359,101.523118 C40.2175359,101.869118 40.4055359,102.327118 40.7915359,102.434118 C41.0685359,102.511118 41.3905359,102.389118 41.5235359,102.127118 C41.6415359,101.896118 41.6445359,101.568118 41.4275359,101.385118" id="Fill-487" fill="#FFFFFF"></path>
            <path d="M56.6043359,97.5516184 C56.5963359,97.5186184 56.5873359,97.4866184 56.5773359,97.4546184 C56.4473359,97.0446184 55.9773359,96.8276184 55.5923359,97.0536184 C55.1833359,97.2926184 55.1273359,97.9876184 55.5923359,98.2116184 C55.6233359,98.2266184 55.6533359,98.2426184 55.6833359,98.2596184 C56.1673359,98.5266184 56.7443359,98.0916184 56.6043359,97.5516184" id="Fill-488" fill="#FFFFFF"></path>
            <path d="M13.7986359,59.2596184 C13.7986359,59.2596184 7.03163594,41.2486184 20.8016359,21.9016184 C34.5716359,2.55461835 72.7776359,1.66161835 89.8466359,29.1766184 C106.914636,56.6906184 85.0726359,73.5156184 85.0726359,73.5156184" id="Fill-489" fill="#B0814D"></path>
            <path d="M16.4021359,49.7250184 C13.0111359,67.8110184 26.0781359,85.4380184 45.5881359,89.0950184 C65.0961359,92.7520184 83.6601359,81.0550184 87.0501359,62.9690184 C90.4411359,44.8820184 77.3741359,27.2550184 57.8651359,23.5990184 C38.3561359,19.9410184 19.7931359,31.6390184 16.4021359,49.7250184" id="Fill-490" fill="#F2D5C1"></path>
            <path d="M26.6804359,53.2308184 C25.8904359,57.4428184 28.6644359,61.4968184 32.8764359,62.2858184 C37.0874359,63.0758184 41.1424359,60.3018184 41.9314359,56.0898184 C42.7204359,51.8778184 39.9474359,47.8238184 35.7354359,47.0348184 C31.5234359,46.2458184 27.4694359,49.0198184 26.6804359,53.2308184" id="Fill-491" fill="#FFFFFF"></path>
            <path d="M27.2830359,53.3441184 C26.6580359,56.6781184 28.8540359,59.8871184 32.1880359,60.5121184 C35.5220359,61.1371184 38.7320359,58.9421184 39.3570359,55.6071184 C39.9820359,52.2731184 37.7860359,49.0641184 34.4520359,48.4391184 C31.1180359,47.8141184 27.9080359,50.0101184 27.2830359,53.3441184" id="Fill-492" fill="#373026"></path>
            <path d="M60.7302359,59.6136184 C59.9402359,63.8256184 62.7142359,67.8796184 66.9262359,68.6686184 C71.1372359,69.4586184 75.1922359,66.6846184 75.9812359,62.4726184 C76.7712359,58.2606184 73.9972359,54.2066184 69.7852359,53.4176184 C65.5742359,52.6286184 61.5192359,55.4026184 60.7302359,59.6136184" id="Fill-493" fill="#FFFFFF"></path>
            <path d="M61.3328359,59.7269184 C60.7078359,63.0609184 62.9038359,66.2699184 66.2378359,66.8949184 C69.5728359,67.5199184 72.7818359,65.3249184 73.4068359,61.9899184 C74.0318359,58.6559184 71.8358359,55.4469184 68.5018359,54.8219184 C65.1678359,54.1969184 61.9578359,56.3929184 61.3328359,59.7269184" id="Fill-494" fill="#373026"></path>
            <path d="M28.2761359,62.3363184 C28.6601359,61.1773184 27.4261359,59.5393184 25.5201359,58.6783184 C23.6151359,57.8173184 21.7591359,58.0593184 21.3761359,59.2183184 C20.9921359,60.3773184 22.2261359,62.0153184 24.1311359,62.8763184 C26.0371359,63.7373184 27.8921359,63.4953184 28.2761359,62.3363184" id="Fill-495" fill="#F1B081"></path>
            <path d="M17.1736359,50.5326184 C17.1736359,50.5326184 13.0136359,46.9626184 10.5196359,51.1096184 C8.02463594,55.2566184 11.3246359,61.1966184 17.4926359,61.9986184 L17.1736359,50.5326184 Z" id="Fill-496" fill="#F2D5C1"></path>
            <path d="M85.3835359,63.3187184 C85.3835359,63.3187184 90.5545359,61.4977184 91.3775359,66.2667184 C92.2005359,71.0357184 86.9725359,75.3767184 80.9335359,73.8907184 L85.3835359,63.3187184 Z" id="Fill-497" fill="#F2D5C1"></path>
            <path d="M34.9597359,22.1390184 C34.9597359,22.1390184 31.4757359,38.3840184 45.8957359,38.4020184 C58.9917359,38.3210184 56.8257359,28.0340184 56.8257359,28.0340184 C56.8257359,28.0340184 66.6117359,40.6440184 79.1667359,32.5560184 C91.7217359,24.4680184 62.5897359,7.28701835 34.9597359,22.1390184" id="Fill-498" fill="#B0814D"></path>
            <path d="M47.7742359,75.2889184 C47.5472359,75.2469184 47.3232359,75.1919184 47.1012359,75.1259184 C43.3712359,74.0199184 41.8442359,70.0609184 41.7812359,69.8929184 C41.7102359,69.7029184 41.8062359,69.4899184 41.9972359,69.4189184 C42.1882359,69.3459184 42.4012359,69.4439184 42.4722359,69.6329184 C42.4862359,69.6709184 43.9402359,73.4219184 47.3162359,74.4199184 C49.7012359,75.1179184 52.4862359,74.3219184 55.5952359,72.0319184 C55.7602359,71.9129184 55.9912359,71.9469184 56.1122359,72.1109184 C56.2322359,72.2749184 56.1972359,72.5059184 56.0342359,72.6269184 C53.0052359,74.8559184 50.2312359,75.7489184 47.7742359,75.2889184" id="Fill-499" fill="#EDB9A6"></path>
            <path d="M55.5369359,9.76891835 C55.5369359,9.76891835 48.5289359,6.24191835 53.0989359,2.46091835 C57.6709359,-1.32008165 59.0689359,6.10891835 59.0689359,6.10891835 C59.0689359,6.10891835 61.4169359,-0.0910816472 66.1339359,4.06091835 C70.8509359,8.21191835 61.8389359,10.9499184 61.8389359,10.9499184" id="Fill-500" fill="#B0814D"></path>
            <path d="M14.7761359,54.8729184 C15.0261359,54.4389184 15.3431359,54.4199184 15.6281359,54.5399184 C15.6411359,53.4109184 15.7001359,52.7139184 15.7001359,52.7139184 C15.6871359,52.6959184 15.6741359,52.6789184 15.6631359,52.6609184 C14.4401359,50.9479184 11.6911359,52.0899184 11.9631359,54.1769184 C12.1721359,55.7909184 13.6011359,57.0659184 15.7391359,58.0009184 C15.6921359,57.3929184 15.6631359,56.8159184 15.6461359,56.2809184 C15.0691359,55.9859184 14.4171359,55.4949184 14.7761359,54.8729184" id="Fill-501" fill="#EDB9A6"></path>
            <path d="M86.3611359,68.2919184 C86.2851359,67.7969184 85.9971359,67.6639184 85.6881359,67.6729184 C86.0851359,66.6159184 86.2821359,65.9449184 86.2821359,65.9449184 C86.2991359,65.9329184 86.3181359,65.9209184 86.3361359,65.9089184 C88.0961359,64.7549184 90.2451359,66.8149184 89.2361359,68.6619184 C88.4551359,70.0909184 86.6621359,70.7619184 84.3311359,70.8589184 C84.5941359,70.3089184 84.8311359,69.7819184 85.0411359,69.2889184 C85.6851359,69.2239184 86.4701359,69.0009184 86.3611359,68.2919184" id="Fill-502" fill="#EDB9A6"></path>
            <path d="M88.0876359,26.5223184 C82.7646359,28.1013184 77.8586359,27.0133184 74.1026359,22.8143184 C65.3256359,13.0033184 55.9496359,10.3573184 45.1686359,12.5523184 C40.9606359,13.4093184 38.5026359,12.0903184 37.0636359,10.2503184 C30.7036359,12.4473184 25.2266359,16.1423184 21.3876359,21.1663184 C25.4676359,23.6083184 30.0266359,24.5643184 34.6736359,24.4853184 C42.2656359,24.3553184 47.4556359,21.1993184 54.5986359,23.1373184 C61.7596359,25.0793184 64.6696359,31.2693184 72.7596359,35.0953184 C74.2186359,34.8703184 75.7436359,34.3963184 77.3216359,33.6113184 C78.5776359,34.8373184 79.7356359,36.1443184 80.7856359,37.5223184 C85.0116359,38.0913184 89.3016359,37.5223184 93.1276359,35.3093184 C91.7586359,32.2273184 89.9426359,29.1023184 88.0876359,26.5223184" id="Fill-503" fill="#9D7242"></path>
            <path d="M29.7576359,49.8812184 C30.0506359,48.3202184 31.5536359,47.2922184 33.1146359,47.5842184 C34.6756359,47.8772184 35.7036359,49.3802184 35.4116359,50.9412184 C35.1186359,52.5022184 33.6156359,53.5302184 32.0546359,53.2382184 C30.4936359,52.9452184 29.4656359,51.4422184 29.7576359,49.8812184" id="Fill-504" fill="#FFFFFF"></path>
            <path d="M63.9324359,56.2875184 C64.2244359,54.7255184 65.7274359,53.6975184 67.2884359,53.9905184 C68.8504359,54.2835184 69.8784359,55.7865184 69.5854359,57.3475184 C69.2924359,58.9085184 67.7894359,59.9365184 66.2294359,59.6435184 C64.6674359,59.3515184 63.6394359,57.8485184 63.9324359,56.2875184" id="Fill-505" fill="#FFFFFF"></path>
            <path d="M28.0017359,87.6112184 C27.9277359,88.4092184 31.3067359,99.4662184 45.8607359,101.636218 L45.9017359,101.637218 C45.8907359,98.1152184 45.7757359,94.7442184 45.7257359,93.3872184 C42.5957359,92.8492184 38.1827359,91.9072184 34.0227359,89.1362184 C34.0227359,89.1362184 34.1157359,86.5712184 33.4467359,86.6752184 C32.7747359,86.7792184 32.5697359,87.9872184 32.5697359,87.9872184 C32.5697359,87.9872184 31.3297359,85.0402184 30.8507359,85.1122184 C30.3737359,85.1862184 30.9037359,87.3612184 30.9037359,87.3612184 C30.9037359,87.3612184 29.2757359,85.0612184 28.8867359,85.7122184 C28.4927359,86.3602184 29.6977359,88.4302184 29.6977359,88.4302184 C29.6977359,88.4302184 28.0737359,86.8172184 28.0017359,87.6112184" id="Fill-506" fill="#F2D5C1"></path>
            <path d="M36.3445359,91.8715184 C36.4195359,91.7655184 36.5285359,91.7405184 36.6455359,91.7925184 C36.7985359,91.8615184 36.9135359,92.0105184 37.0375359,92.1255184 C37.0475359,92.1335184 37.1305359,92.2035184 37.1435359,92.2145184 C37.1145359,92.1885184 37.2195359,92.2655184 37.2335359,92.2755184 C37.3165359,92.3345184 37.4035359,92.3845184 37.4935359,92.4285184 C37.7625359,92.5595184 37.6355359,93.0075184 37.3425359,92.9905184 C37.0445359,92.9745184 36.7655359,92.9115184 36.5365359,92.7085184 C36.3215359,92.5175184 36.1555359,92.1385184 36.3445359,91.8715184" id="Fill-507" fill="#EDB9A6"></path>
            <path d="M82.2820359,62.1200184 C81.0810359,65.6690184 79.0020359,70.2450184 75.3640359,71.6440184 C70.5330359,73.5040184 65.8420359,73.4900184 61.2040359,71.0190184 C57.0210359,68.7900184 55.7150359,63.7090184 55.8050359,59.3180184 C55.8330359,57.9950184 56.1140359,56.6900184 56.4120359,55.4000184 C55.7070359,55.1100184 55.0010359,54.8190184 54.2960359,54.5280184 C54.5760359,53.5180184 54.9730359,52.5400184 55.4780359,51.6210184 C55.5760359,51.4430184 55.6860359,51.2580184 55.8660359,51.1630184 C56.0430359,51.0700184 56.2530359,51.0800184 56.4510359,51.0940184 C59.5550359,51.3210184 62.7390359,51.8380184 65.7970359,52.4270184 C69.3030359,53.1030184 72.7680359,54.0230184 76.1390359,55.2070184 C77.7920359,55.7880184 79.4230359,56.4320184 81.0190359,57.1540184 C81.9600359,57.5780184 84.7830359,58.3570184 85.2340359,59.2700184 C85.1840359,59.8550184 85.1350359,60.4400184 85.0860359,61.0240184 C85.0630359,61.2840184 85.0320359,61.5650184 84.8530359,61.7540184 C84.5970359,62.0240184 84.1560359,61.9870184 83.8040359,61.8640184 C83.0440359,61.5960184 82.5870359,61.2230184 82.2820359,62.1200184" id="Fill-508" fill="#512233"></path>
            <path d="M40.0994359,61.0370184 C40.6224359,60.1830184 41.0524359,59.2690184 41.3994359,58.3310184 C41.5794359,57.8430184 42.9044359,53.8760184 42.4784359,53.6390184 C43.0324359,53.9480184 43.7664359,53.6450184 44.1474359,53.1380184 C44.5294359,52.6300184 44.6444359,51.9780184 44.7484359,51.3520184 C44.8544359,50.7210184 44.9604359,50.0900184 45.0664359,49.4590184 C45.0824359,49.3600184 45.0984359,49.2530184 45.0544359,49.1620184 C44.9994359,49.0470184 44.8694359,48.9940184 44.7484359,48.9510184 C42.0174359,47.9840184 39.0974359,47.6680184 36.2614359,47.1490184 C33.1944359,46.5880184 30.0854359,46.2460184 26.9694359,46.1260184 C24.2214359,46.0190184 21.4084359,46.0190184 18.6834359,46.3750184 C18.3364359,46.4200184 17.9634359,46.4780184 17.7174359,46.7260184 C17.5314359,46.9140184 17.4514359,47.1810184 17.3804359,47.4360184 C17.2724359,47.8310184 17.1714359,48.2290184 17.0784359,48.6290184 C17.0104359,48.9240184 16.9474359,49.2410184 17.0574359,49.5240184 C17.5154359,50.7040184 18.9034359,49.8490184 19.0024359,51.3510184 C19.0824359,52.5790184 18.9924359,53.8190184 19.0824359,55.0510184 C19.2514359,57.3490184 19.7024359,59.8350184 21.2664359,61.6260184 C23.4394359,64.1130184 26.5864359,65.7840184 29.9114359,66.1570184 C33.5284359,66.5630184 36.4554359,65.4930184 38.8664359,62.7240184 C39.3254359,62.1980184 39.7354359,61.6320184 40.0994359,61.0370184" id="Fill-509" fill="#512233"></path>
            <path d="M39.4011359,51.7723184 C46.5051359,52.1553184 53.3671359,53.4533184 60.1261359,55.6583184 C61.2271359,56.0173184 61.6671359,54.2753184 60.5721359,53.9183184 C53.6641359,51.6653184 46.6201359,50.3673184 39.3691359,49.9763184 C38.2131359,49.9143184 38.2491359,51.7103184 39.4011359,51.7723184" id="Fill-510" fill="#512233"></path>
        </g>
    </g>
</svg>