<?xml version="1.0" encoding="UTF-8"?>
<svg width="32px" height="67px" viewBox="0 0 32 67" version="1.1" xmlns="http://www.w3.org/2000/svg" xmlns:xlink="http://www.w3.org/1999/xlink">
    <!-- Generator: Sketch 53.1 (72631) - https://sketchapp.com -->
    <title>Group 10icecream</title>
    <desc>Created with Sketch.</desc>
    <defs>
        <polygon id="path-1" points="0.955123311 0.6152 8.93549556 0.6152 8.93549556 15 0.955123311 15"></polygon>
        <polygon id="path-3" points="0 0.3355 3.4213 0.3355 3.4213 22.0465 0 22.0465"></polygon>
    </defs>
    <g id="Page-1" stroke="none" stroke-width="1" fill="none" fill-rule="evenodd">
        <g id="Artboard" transform="translate(-371.000000, -945.000000)">
            <g id="Group-10" transform="translate(371.000000, 945.842326)">
                <path d="M2.4139,8.31707435 C3.1019,6.20007435 5.2479,3.64407435 5.2479,3.64407435 L5.2589,3.65107435 C5.1669,3.77807435 5.0819,3.90507435 5.0069,4.03807435 C2.9359,7.67707435 1.8469,17.1830744 1.5429,26.5810744 L1.5399,26.5780744 C1.5399,26.5780744 1.5399,26.6050744 1.5389,26.6520744 C1.5389,26.6580744 1.5389,26.6650744 1.5389,26.6720744 C1.5259,27.0100744 1.5169,27.3530744 1.5109,27.6940744 C1.5099,27.7650744 1.5059,27.8350744 1.5019,27.9090744 C1.4139,29.7290744 1.1149,32.7450744 0.0969,32.5020744 L0.0129,32.5020744 C0.0389,30.5100744 0.1009,28.7260744 0.1379,27.4150744 C0.2939,21.7150744 1.7259,10.4340744 2.4139,8.31707435" id="Fill-1" fill="#EAEAEA"></path>
                <path d="M31.9578,24.1251744 C31.7618,25.1631744 30.2888,32.3891744 27.6518,32.5451744 C24.8098,32.7171744 26.0458,21.9251744 24.7498,22.1421744 C23.4538,22.3601744 24.5548,28.4521744 20.6708,28.9781744 C17.4138,29.4181744 18.7298,20.9241744 16.3908,21.4951744 C14.0518,22.0671744 17.3308,36.8661744 13.0648,37.2511744 C8.7988,37.6331744 10.3938,23.6301744 8.4538,23.8261744 C6.5138,24.0251744 7.6518,33.0861744 5.5708,33.6661744 C3.5208,34.2371744 1.5978,26.8061744 1.5428,26.5851744 C1.5398,26.5811744 1.5428,26.5811744 1.5428,26.5811744 C1.8468,17.1831744 2.9358,7.67717435 5.0068,4.03817435 C5.0818,3.90517435 5.1668,3.77817435 5.2588,3.65117435 C8.9958,-1.53682565 25.2358,-0.870825647 28.6748,3.60117435 C30.8948,6.48617435 31.8018,15.0921744 31.9578,24.1251744" id="Fill-3" fill="#FFFFFF"></path>
                <path d="M13.017,51.1891744 C12.966,52.9491744 12.727,62.6531744 13.716,64.0231744 C13.931,64.3231744 14.311,64.6311744 14.795,64.8971744 C14.35,64.7621744 13.147,64.2461744 12.564,62.5081744 C12.122,61.1891744 12.021,51.1611744 12.021,51.1611744 L12.025,51.1271744 C12.35,51.1501744 12.682,51.1731744 13.017,51.1891744" id="Fill-5" fill="#B1815B"></path>
                <g id="Group-9" transform="translate(12.000000, 50.573674)">
                    <mask id="mask-2" fill="white">
                        <use xlink:href="#path-1"></use>
                    </mask>
                    <g id="Clip-8"></g>
                    <path d="M2.7953,14.3232 C2.3113,14.0572 1.9313,13.7492 1.7153,13.4492 C0.7273,12.0792 0.9663,2.3762 1.0173,0.6152 C3.5583,0.7572 6.2673,0.7952 8.7633,0.7342 C8.8263,2.1032 9.2583,12.1482 8.4543,13.3862 C7.0443,15.5482 4.3783,15.1882 2.7953,14.3232" id="Fill-7" fill="#C89F6A" mask="url(#mask-2)"></path>
                </g>
                <path d="M12.0249,51.4871744 C12.0469,53.2101744 12.1689,61.3301744 12.5639,62.5081744 C13.1469,64.2461744 14.3499,64.7621744 14.7949,64.8971744 C14.3109,64.6311744 13.9309,64.3231744 13.7159,64.0231744 C12.8149,62.7741744 12.9329,54.6031744 12.9999,51.8341744 C12.6719,51.7391744 12.3469,51.6241744 12.0249,51.4871744" id="Fill-10" fill="#B1815B"></path>
                <path d="M20.7633,51.3082744 C18.2673,51.3692744 15.5583,51.3302744 13.0173,51.1892744 C12.6823,51.1732744 12.3503,51.1502744 12.0243,51.1272744 L12.0213,51.1612744 C12.0213,51.1612744 12.0223,51.2812744 12.0253,51.4872744 C12.3463,51.6232744 12.6723,51.7392744 13.0003,51.8342744 C15.5173,52.5582744 18.2063,52.1082744 20.7713,51.4942744 C20.7683,51.4222744 20.7653,51.3582744 20.7633,51.3082744" id="Fill-12" fill="#936F48"></path>
                <path d="M13.0001,51.8339744 C12.9331,54.6029744 12.8151,62.7739744 13.7161,64.0229744 C13.9311,64.3229744 14.3111,64.6309744 14.7951,64.8969744 C16.3781,65.7609744 19.0451,66.1209744 20.4541,63.9599744 C21.2291,62.7669744 20.8561,53.3979744 20.7721,51.4939744 C18.2061,52.1079744 15.5171,52.5579744 13.0001,51.8339744" id="Fill-14" fill="#C89F6A"></path>
                <path d="M20.7633,51.3082744 C18.2673,51.3692744 15.5583,51.3302744 13.0173,51.1892744 C12.6823,51.1732744 12.3503,51.1502744 12.0243,51.1272744 C8.1093,50.8682744 4.7403,50.3612744 3.4213,49.6202744 C1.9823,48.8102744 1.2383,38.6122744 1.5023,27.9092744 C1.5063,27.8352744 1.5103,27.7652744 1.5103,27.6942744 C1.5313,27.2122744 1.5373,26.8392744 1.5393,26.6722744 C1.5393,26.6652744 1.5393,26.6582744 1.5393,26.6522744 C1.5393,26.6282744 1.5393,26.6082744 1.5433,26.5842744 C1.5983,26.8062744 3.5213,34.2372744 5.5713,33.6662744 C7.6523,33.0862744 6.5133,24.0252744 8.4533,23.8262744 C10.3943,23.6302744 8.7993,37.6332744 13.0653,37.2512744 C17.3303,36.8662744 14.0523,22.0662744 16.3903,21.4952744 C18.7293,20.9242744 17.4143,29.4182744 20.6703,28.9782744 C24.5553,28.4522744 23.4533,22.3602744 24.7493,22.1422744 C26.0463,21.9242744 24.8093,32.7172744 27.6513,32.5452744 C30.2883,32.3892744 31.7613,25.1632744 31.9573,24.1252744 C32.1703,36.0892744 31.0563,48.8012744 29.9193,49.9392744 C29.1153,50.7442744 25.2953,51.1932744 20.7633,51.3082744" id="Fill-16" fill="#E777A4"></path>
                <g id="Group-20" transform="translate(0.000000, 27.573674)">
                    <mask id="mask-4" fill="white">
                        <use xlink:href="#path-3"></use>
                    </mask>
                    <g id="Clip-19"></g>
                    <path d="M1.5023,0.3355 C1.2383,11.0385 1.9823,21.2365 3.4213,22.0465 C0.2463,20.5885 -0.0807,11.5915 0.0133,4.9285 L0.0973,4.9285 C1.1143,5.1715 1.4143,2.1555 1.5023,0.3355" id="Fill-18" fill="#AF5884" mask="url(#mask-4)"></path>
                </g>
                <path d="M31.9578,24.1251744 C31.7618,25.1631744 30.2888,32.3891744 27.6518,32.5451744 C27.2848,32.5681744 26.9868,32.4041744 26.7418,32.1091744 C23.9198,31.5361744 26.0618,25.5701744 24.3208,22.9141744 C24.2628,22.9701744 24.2048,23.0281744 24.1478,23.0841744 C23.6968,24.8651744 23.6638,28.5731744 20.6708,28.9781744 C20.3838,29.0171744 20.1338,28.9831744 19.9118,28.8951744 C17.4158,28.4461744 18.4378,23.7231744 16.2808,21.8431744 C16.1198,21.8421744 15.9578,22.0701744 15.7588,22.3091744 C14.8858,25.0691744 16.2988,33.9511744 14.2928,36.5421744 C13.9938,37.0391744 13.5638,37.3311744 12.9158,37.2571744 C12.6198,37.2601744 12.3528,37.1901744 12.1118,37.0591744 C8.5668,35.7411744 9.4748,29.2731744 8.8728,25.4731744 C8.8758,25.1941744 8.6508,24.2241744 7.9978,24.0881744 C6.9688,25.2841744 7.2298,30.2321744 6.4548,32.5221744 C6.4598,32.5131744 6.4648,32.5061744 6.4698,32.4961744 C6.4648,32.5061744 6.4598,32.5131744 6.4548,32.5221744 C6.2488,33.1321744 5.9688,33.5551744 5.5708,33.6661744 C5.4818,33.6911744 5.3928,33.6961744 5.3038,33.6911744 C4.5188,33.9411744 3.6488,33.3491744 2.7808,32.4671744 C1.7338,37.4891744 2.6948,43.1981744 5.3478,46.9091744 C6.6978,48.5981744 8.3468,49.9281744 10.1798,50.9821744 C10.7768,51.0361744 11.3928,51.0861744 12.0248,51.1271744 C12.3498,51.1501744 12.6818,51.1731744 13.0168,51.1891744 C15.5578,51.3301744 18.2678,51.3691744 20.7638,51.3081744 C25.2948,51.1931744 29.1148,50.7451744 29.9198,49.9391744 C31.0558,48.8021744 32.1708,36.0891744 31.9578,24.1251744" id="Fill-21" fill="#E777A4"></path>
                <path d="M8.4538,23.8260744 C8.2778,23.8440744 8.1278,23.9370744 7.9978,24.0880744 C8.6508,24.2240744 8.8758,25.1940744 8.8728,25.4730744 C9.4748,29.2730744 8.5668,35.7410744 12.1118,37.0590744 C9.0428,35.3850744 10.2318,23.6470744 8.4538,23.8260744" id="Fill-23" fill="#D6699A"></path>
                <path d="M13.0649,37.2511744 C13.0139,37.2561744 12.9649,37.2561744 12.9159,37.2571744 C13.5639,37.3311744 13.9939,37.0391744 14.2929,36.5421744 C13.9759,36.9511744 13.5749,37.2051744 13.0649,37.2511744" id="Fill-25" fill="#D6699A"></path>
                <path d="M5.3477,46.9086744 C2.6947,43.1986744 1.7337,37.4896744 2.7807,32.4666744 C3.6487,33.3496744 4.5187,33.9406744 5.3037,33.6916744 C3.3567,33.5956744 1.5957,26.7966744 1.5427,26.5846744 C1.5397,26.6076744 1.5397,26.6286744 1.5397,26.6516744 C1.5387,26.6586744 1.5387,26.6656744 1.5387,26.6716744 C1.5377,26.8396744 1.5317,27.2116744 1.5107,27.6946744 C1.5097,27.7646744 1.5057,27.8356744 1.5027,27.9096744 C1.2387,38.6126744 1.9817,48.8096744 3.4207,49.6196744 C4.5267,50.2416744 7.0767,50.6976744 10.1797,50.9816744 C8.3467,49.9286744 6.6977,48.5976744 5.3477,46.9086744" id="Fill-27" fill="#D6699A"></path>
                <path d="M24.7497,22.1425744 C24.4527,22.1925744 24.2817,22.5545744 24.1477,23.0845744 C24.2047,23.0275744 24.2637,22.9705744 24.3207,22.9135744 C26.0617,25.5695744 23.9197,31.5365744 26.7417,32.1085744 C25.0877,30.1115744 25.8787,21.9525744 24.7497,22.1425744" id="Fill-29" fill="#D6699A"></path>
                <path d="M16.3906,21.4952744 C16.1016,21.5652744 15.9016,21.8592744 15.7586,22.3092744 C15.9576,22.0702744 16.1206,21.8422744 16.2806,21.8432744 C18.4386,23.7222744 17.4156,28.4462744 19.9126,28.8952744 C17.6186,27.9882744 18.5236,20.9742744 16.3906,21.4952744" id="Fill-31" fill="#D6699A"></path>
                <path d="M8.5652,14.9411744 C8.5242,14.5781744 8.0042,14.3691744 7.7112,14.5631744 C7.2632,14.8581744 7.0722,15.5751744 6.8362,16.0391744 C6.6852,16.3381744 6.5482,16.6461744 6.4092,16.9511744 C6.3702,17.0371744 6.3372,17.1251744 6.2942,17.2101744 C6.2702,17.2601744 6.2472,17.3111744 6.2262,17.3631744 C6.2202,17.3961744 6.2152,17.4291744 6.2092,17.4631744 C6.1252,17.6461744 6.2352,17.9021744 6.4732,17.9071744 C6.5252,17.9081744 6.7802,17.9151744 6.6042,17.8931744 C6.7582,17.9111744 6.8932,17.7961744 6.9952,17.6991744 C7.2352,17.4721744 7.4312,17.2071744 7.6252,16.9401744 C7.9952,16.4341744 8.6392,15.5941744 8.5652,14.9411744" id="Fill-33" fill="#EAEAEA"></path>
                <path d="M11.4072,22.4129744 C11.4072,22.4129744 11.4082,22.4099744 11.4092,22.4079744 C11.4502,22.3099744 11.4732,22.2079744 11.4752,22.0989744 C11.4812,21.8599744 11.4032,21.5989744 11.3672,21.3649744 C11.2892,20.8509744 11.2252,20.3349744 11.0172,19.8559744 C10.8192,19.4009744 10.2152,19.7259744 10.2672,20.1449744 C10.3342,20.6749744 10.0672,23.1679744 11.1922,22.6759744 C11.2632,22.6449744 11.3242,22.5809744 11.3662,22.5059744 C11.3662,22.5059744 11.3732,22.4939744 11.3862,22.4689744 C11.3962,22.4509744 11.3992,22.4319744 11.4072,22.4129744" id="Fill-35" fill="#EAEAEA"></path>
                <path d="M12.4611,13.6479744 C12.4771,13.0029744 12.4781,12.3349744 12.4321,11.6919744 C12.4031,11.2979744 11.8961,11.1979744 11.7471,11.5779744 C11.5511,12.0769744 11.5831,12.7119744 11.5341,13.2389744 C11.4961,13.6559744 11.1821,14.3619744 11.3781,14.7409744 C11.4541,14.8869744 11.6221,14.9939744 11.7881,14.9929744 C12.4921,14.9889744 12.4491,14.1459744 12.4611,13.6479744" id="Fill-37" fill="#EAEAEA"></path>
                <path d="M8.7354,7.62127435 C8.3714,7.96527435 8.1194,8.46927435 7.8144,8.86627435 C7.5184,9.24927435 7.1674,9.56327435 6.8334,9.90727435 C6.6434,10.1022744 6.7584,10.4312744 7.0374,10.4462744 C7.5744,10.4762744 8.0494,10.0082744 8.3974,9.65727435 C8.7864,9.26627435 9.2954,8.78527435 9.5544,8.29527435 C9.8294,7.77327435 9.1954,7.18627435 8.7354,7.62127435" id="Fill-39" fill="#EAEAEA"></path>
                <path d="M17.8515,7.26267435 C17.4955,7.19767435 17.2205,7.33167435 16.8755,7.40967435 C16.5445,7.48467435 16.2215,7.44067435 15.8875,7.44867435 C15.5845,7.45567435 15.4985,7.80767435 15.7245,7.98367435 C16.0365,8.22767435 16.4585,8.27767435 16.8425,8.29867435 C17.2415,8.32067435 17.7235,8.30867435 18.0295,8.03067435 C18.2615,7.81867435 18.1975,7.32567435 17.8515,7.26267435" id="Fill-41" fill="#EAEAEA"></path>
                <path d="M19.0205,14.4095744 C18.7635,13.7965744 18.5255,13.1785744 18.3115,12.5495744 C18.1575,12.0985744 17.5055,12.2475744 17.5885,12.7255744 C17.7105,13.4215744 17.8545,14.1135744 17.9835,14.8095744 C18.0275,15.0435744 18.2735,15.2415744 18.5105,15.2365744 C18.6135,15.2345744 18.7065,15.2255744 18.7955,15.1695744 C19.0745,14.9935744 19.1445,14.7055744 19.0205,14.4095744" id="Fill-43" fill="#EAEAEA"></path>
                <path d="M21.2067,23.2706744 C21.0387,22.6396744 20.7617,22.0736744 20.6727,21.4146744 C20.6067,20.9326744 19.9447,21.0886744 19.8867,21.4966744 C19.7917,22.1636744 19.9647,22.9526744 20.1907,23.5816744 C20.4507,24.3036744 21.4737,23.8776744 21.2067,23.2706744" id="Fill-45" fill="#EAEAEA"></path>
                <path d="M16.1294,17.9618744 C16.0114,17.2658744 15.9294,16.5648744 15.8764,15.8608744 C15.8434,15.4148744 15.2364,15.3898744 15.1824,15.8388744 C15.0934,16.5798744 15.1264,17.3178744 15.1644,18.0618744 C15.2014,18.7738744 16.2474,18.6648744 16.1294,17.9618744" id="Fill-47" fill="#EAEAEA"></path>
                <path d="M23.7846,12.8468744 C23.5796,12.3168744 23.3776,11.7078744 22.9706,11.2948744 C22.7516,11.0718744 22.4126,11.2258744 22.3816,11.5178744 C22.3296,12.0018744 22.5356,12.4828744 22.6766,12.9368744 C22.8256,13.4198744 22.8486,13.9568744 23.0436,14.4178744 C23.2406,14.8818744 23.8666,14.7028744 24.0186,14.3208744 C24.2056,13.8508744 23.9556,13.2878744 23.7846,12.8468744" id="Fill-49" fill="#EAEAEA"></path>
                <path d="M28.6696,15.9750744 C28.4646,15.4450744 28.2626,14.8360744 27.8556,14.4230744 C27.6366,14.2000744 27.2976,14.3540744 27.2666,14.6460744 C27.2146,15.1300744 27.4206,15.6110744 27.5616,16.0650744 C27.7106,16.5480744 27.7336,17.0850744 27.9286,17.5460744 C28.1256,18.0100744 28.7516,17.8310744 28.9036,17.4490744 C29.0906,16.9790744 28.8406,16.4160744 28.6696,15.9750744" id="Fill-51" fill="#EAEAEA"></path>
                <path d="M23.3887,7.93617435 C23.1587,7.83517435 22.9197,7.74917435 22.6847,7.65917435 C22.5087,7.59117435 22.2917,7.47717435 22.0947,7.50517435 C21.9177,7.49317435 21.7407,7.66917435 21.8547,7.85217435 C21.8557,7.85617435 21.8577,7.85817435 21.8597,7.86117435 C21.9057,8.06317435 22.0917,8.21417435 22.2527,8.35017435 C22.4677,8.53417435 22.7047,8.74117435 22.9647,8.86017435 C23.6397,9.17117435 24.0677,8.23417435 23.3887,7.93617435" id="Fill-53" fill="#EAEAEA"></path>
                <path d="M26.3649,10.4170744 C26.2219,10.6230744 26.0899,10.8410744 25.9569,11.0540744 C25.8569,11.2140744 25.7019,11.4050744 25.6919,11.6030744 C25.6459,11.7740744 25.7839,11.9820744 25.9859,11.9060744 C25.9899,11.9050744 25.9929,11.9040744 25.9959,11.9020744 C26.2029,11.8960744 26.3879,11.7430744 26.5519,11.6120744 C26.7739,11.4360744 27.0229,11.2440744 27.1899,11.0110744 C27.6249,10.4090744 26.7889,9.80907435 26.3649,10.4170744" id="Fill-55" fill="#EAEAEA"></path>
                <path d="M24.3127,19.1308744 C23.9917,18.7458744 23.4477,18.4278744 23.0017,18.2088744 C22.6057,18.0138744 22.1907,17.8518744 21.7597,18.0268744 C21.6767,18.0608744 21.6517,18.1798744 21.6927,18.2518744 C21.8827,18.5868744 22.1917,18.7938744 22.4927,19.0208744 C22.8787,19.3128744 23.2347,19.6888744 23.6427,19.9448744 C24.1717,20.2768744 24.6917,19.5848744 24.3127,19.1308744" id="Fill-57" fill="#EAEAEA"></path>
                <path d="M28.4634,23.3228744 C28.4024,23.0148744 27.9354,23.0058744 27.8524,23.3038744 C27.7444,23.6898744 27.7094,24.0958744 27.6084,24.4868744 C27.5084,24.8768744 27.2214,25.2068744 27.2774,25.6158744 C27.3054,25.8268744 27.5674,25.9668744 27.7614,25.9108744 C28.2204,25.7808744 28.3224,25.2928744 28.4094,24.8738744 C28.5114,24.3818744 28.5624,23.8188744 28.4634,23.3228744" id="Fill-59" fill="#EAEAEA"></path>
                <path d="M12.409,26.3822744 C12.209,27.3862744 11.833,28.3502744 11.68,29.3642744 C11.605,29.8602744 12.377,29.9502744 12.524,29.5042744 C12.845,28.5382744 13.077,27.5232744 13.171,26.5092744 C13.211,26.0752744 12.495,25.9492744 12.409,26.3822744" id="Fill-61" fill="#EAEAEA"></path>
                <path d="M4.9681,27.2266744 C4.8001,26.5866744 4.5571,26.0036744 4.2661,25.4096744 C4.1001,25.0696744 3.6101,25.3476744 3.7571,25.6866744 C3.9741,26.1876744 4.2581,26.7406744 4.2891,27.2966744 C4.3181,27.8116744 5.0931,27.7006744 4.9681,27.2266744" id="Fill-63" fill="#EAEAEA"></path>
                <path d="M12.4169,4.79157435 C11.9339,5.52557435 11.5129,6.66557435 12.1159,7.42857435 C12.2059,7.54257435 12.4069,7.54257435 12.5039,7.44157435 C13.0289,6.89557435 13.0799,6.09457435 13.5069,5.47457435 C13.9789,4.79157435 12.8729,4.09857435 12.4169,4.79157435" id="Fill-65" fill="#EAEAEA"></path>
                <path d="M19.82,2.67657435 C19.394,2.54157435 18.91,2.62657435 18.48,2.68757435 C18.128,2.73657435 17.564,2.76657435 17.365,3.11457435 C17.262,3.29457435 17.29,3.48057435 17.416,3.63757435 C17.641,3.91957435 18.104,3.85157435 18.418,3.83557435 C18.763,3.81857435 19.205,3.80657435 19.448,3.87857435 C20.227,4.10757435 20.592,2.92257435 19.82,2.67657435" id="Fill-67" fill="#EAEAEA"></path>
                <path d="M7.332,20.5432744 C7.304,20.3592744 7.13,20.3182744 6.987,20.3682744 C6.97,20.3672744 6.95,20.3642744 6.921,20.3612744 C6.835,20.3502744 6.717,20.3852744 6.63,20.3952744 C6.357,20.4292744 6.104,20.4662744 5.839,20.5382744 C5.313,20.6792744 4.695,20.9572744 4.37,21.4092744 C3.979,21.9532744 4.761,22.5032744 5.23,22.1162744 C5.66,21.7602744 6.186,21.6362744 6.66,21.3552744 C6.973,21.1692744 7.394,20.9422744 7.332,20.5432744" id="Fill-69" fill="#EAEAEA"></path>
                <path d="M25.7412,4.26557435 C25.6002,4.04657435 25.4232,3.87757435 25.1712,3.80157435 C25.1052,3.78157435 25.0382,3.78057435 24.9712,3.79557435 C24.9052,3.81157435 24.8792,3.81957435 24.8702,3.82357435 C24.7992,3.84057435 24.7342,3.86757435 24.6782,3.92357435 C24.5652,4.03857435 24.5752,4.23357435 24.7162,4.32257435 C24.7882,4.55157435 24.9722,4.79857435 25.0542,4.98657435 C25.2052,5.33557435 25.2672,5.76857435 25.5152,6.06357435 C25.7772,6.37457435 26.4082,6.17357435 26.3712,5.74057435 C26.3302,5.24457435 26.0082,4.67957435 25.7412,4.26557435" id="Fill-71" fill="#EAEAEA"></path>
                <path d="M8.9035,14.6081744 C8.8625,14.2451744 8.3425,14.0361744 8.0495,14.2301744 C7.6015,14.5261744 7.4105,15.2421744 7.1745,15.7061744 C7.0235,16.0051744 6.8865,16.3131744 6.7475,16.6181744 C6.7085,16.7041744 6.6755,16.7921744 6.6325,16.8771744 C6.6085,16.9271744 6.5855,16.9781744 6.5645,17.0301744 C6.5585,17.0631744 6.5535,17.0961744 6.5475,17.1301744 C6.4635,17.3131744 6.5735,17.5691744 6.8115,17.5741744 C6.8635,17.5751744 7.1185,17.5821744 6.9425,17.5601744 C7.0965,17.5791744 7.2315,17.4631744 7.3335,17.3661744 C7.5735,17.1391744 7.7695,16.8741744 7.9635,16.6071744 C8.3335,16.1011744 8.9775,15.2611744 8.9035,14.6081744" id="Fill-73" fill="#45C2F4"></path>
                <path d="M11.7454,22.0799744 L11.7474,22.0749744 C11.7884,21.9769744 11.8114,21.8749744 11.8134,21.7659744 C11.8194,21.5269744 11.7414,21.2659744 11.7054,21.0319744 C11.6274,20.5179744 11.5634,20.0019744 11.3554,19.5229744 C11.1574,19.0679744 10.5534,19.3929744 10.6054,19.8119744 C10.6724,20.3419744 10.4054,22.8349744 11.5304,22.3429744 C11.6014,22.3119744 11.6624,22.2479744 11.7044,22.1729744 C11.7044,22.1729744 11.7114,22.1609744 11.7244,22.1359744 C11.7344,22.1179744 11.7374,22.0989744 11.7454,22.0799744" id="Fill-75" fill="#F9CB5A"></path>
                <path d="M12.7993,13.3149744 C12.8153,12.6699744 12.8163,12.0019744 12.7693,11.3589744 C12.7413,10.9649744 12.2343,10.8649744 12.0853,11.2449744 C11.8883,11.7439744 11.9213,12.3789744 11.8723,12.9059744 C11.8343,13.3229744 11.5203,14.0289744 11.7163,14.4079744 C11.7923,14.5539744 11.9603,14.6609744 12.1263,14.6599744 C12.8303,14.6559744 12.7873,13.8129744 12.7993,13.3149744" id="Fill-77" fill="#F9CB5A"></path>
                <path d="M9.0736,7.28827435 C8.7096,7.63227435 8.4576,8.13627435 8.1526,8.53327435 C7.8566,8.91627435 7.5056,9.23027435 7.1716,9.57427435 C6.9816,9.76927435 7.0966,10.0982744 7.3756,10.1132744 C7.9126,10.1432744 8.3876,9.67527435 8.7356,9.32427435 C9.1246,8.93327435 9.6336,8.45227435 9.8926,7.96227435 C10.1676,7.44027435 9.5336,6.85327435 9.0736,7.28827435" id="Fill-79" fill="#F7A9C7"></path>
                <path d="M18.1899,6.92967435 C17.8339,6.86467435 17.5589,6.99867435 17.2139,7.07667435 C16.8829,7.15167435 16.5599,7.10767435 16.2259,7.11567435 C15.9229,7.12267435 15.8369,7.47467435 16.0629,7.65067435 C16.3749,7.89467435 16.7959,7.94467435 17.1809,7.96567435 C17.5799,7.98767435 18.0619,7.97567435 18.3679,7.69767435 C18.5999,7.48567435 18.5359,6.99267435 18.1899,6.92967435" id="Fill-81" fill="#45C2F4"></path>
                <path d="M19.3589,14.0765744 C19.1019,13.4635744 18.8639,12.8455744 18.6499,12.2165744 C18.4959,11.7655744 17.8439,11.9145744 17.9269,12.3925744 C18.0489,13.0885744 18.1929,13.7805744 18.3219,14.4765744 C18.3659,14.7105744 18.6119,14.9085744 18.8489,14.9035744 C18.9519,14.9015744 19.0449,14.8925744 19.1339,14.8365744 C19.4129,14.6605744 19.4829,14.3725744 19.3589,14.0765744" id="Fill-83" fill="#45C2F4"></path>
                <path d="M21.5451,22.9376744 C21.3771,22.3076744 21.1001,21.7406744 21.0111,21.0816744 C20.9451,20.5996744 20.2831,20.7556744 20.2251,21.1636744 C20.1301,21.8306744 20.3031,22.6196744 20.5291,23.2486744 C20.7891,23.9706744 21.8121,23.5446744 21.5451,22.9376744" id="Fill-85" fill="#B0EAD5"></path>
                <path d="M16.4676,17.6288744 C16.3496,16.9328744 16.2676,16.2318744 16.2146,15.5278744 C16.1816,15.0818744 15.5746,15.0568744 15.5206,15.5058744 C15.4316,16.2468744 15.4646,16.9848744 15.5026,17.7288744 C15.5396,18.4408744 16.5856,18.3318744 16.4676,17.6288744" id="Fill-87" fill="#F7A9C7"></path>
                <path d="M24.123,12.5138744 C23.918,11.9838744 23.716,11.3748744 23.309,10.9618744 C23.09,10.7388744 22.751,10.8928744 22.72,11.1848744 C22.668,11.6688744 22.874,12.1498744 23.015,12.6038744 C23.164,13.0868744 23.187,13.6238744 23.382,14.0848744 C23.579,14.5488744 24.205,14.3698744 24.357,13.9878744 C24.544,13.5178744 24.294,12.9548744 24.123,12.5138744" id="Fill-89" fill="#F9CB5A"></path>
                <path d="M29.008,15.6421744 C28.803,15.1121744 28.601,14.5031744 28.194,14.0901744 C27.975,13.8671744 27.636,14.0211744 27.605,14.3131744 C27.553,14.7971744 27.759,15.2781744 27.9,15.7321744 C28.049,16.2151744 28.072,16.7521744 28.267,17.2131744 C28.464,17.6771744 29.09,17.4981744 29.242,17.1161744 C29.429,16.6461744 29.179,16.0831744 29.008,15.6421744" id="Fill-91" fill="#F7A9C7"></path>
                <path d="M23.7271,7.60317435 C23.4971,7.50217435 23.2581,7.41617435 23.0231,7.32617435 C22.8471,7.25817435 22.6301,7.14417435 22.4331,7.17217435 C22.2561,7.16017435 22.0791,7.33617435 22.1931,7.51917435 C22.1941,7.52317435 22.1961,7.52517435 22.1981,7.52817435 C22.2441,7.73017435 22.4301,7.88117435 22.5911,8.01717435 C22.8061,8.20117435 23.0431,8.40817435 23.3031,8.52717435 C23.9781,8.83817435 24.4061,7.90117435 23.7271,7.60317435" id="Fill-93" fill="#B0EAD5"></path>
                <path d="M26.7033,10.0840744 C26.5603,10.2900744 26.4283,10.5080744 26.2953,10.7210744 C26.1953,10.8810744 26.0403,11.0720744 26.0303,11.2700744 C25.9843,11.4410744 26.1223,11.6490744 26.3243,11.5730744 C26.3283,11.5720744 26.3313,11.5710744 26.3343,11.5690744 C26.5413,11.5630744 26.7263,11.4100744 26.8903,11.2790744 C27.1123,11.1030744 27.3613,10.9110744 27.5283,10.6780744 C27.9633,10.0760744 27.1273,9.47607435 26.7033,10.0840744" id="Fill-95" fill="#F7A9C7"></path>
                <path d="M24.651,18.7978744 C24.33,18.4128744 23.786,18.0948744 23.34,17.8758744 C22.944,17.6808744 22.529,17.5188744 22.098,17.6938744 C22.015,17.7278744 21.99,17.8468744 22.031,17.9188744 C22.221,18.2538744 22.53,18.4608744 22.831,18.6878744 C23.217,18.9798744 23.573,19.3558744 23.981,19.6118744 C24.51,19.9438744 25.03,19.2518744 24.651,18.7978744" id="Fill-97" fill="#45C2F4"></path>
                <path d="M28.8018,22.9898744 C28.7408,22.6818744 28.2738,22.6728744 28.1908,22.9708744 C28.0828,23.3568744 28.0478,23.7628744 27.9468,24.1538744 C27.8468,24.5438744 27.5598,24.8738744 27.6158,25.2828744 C27.6438,25.4938744 27.9058,25.6338744 28.0998,25.5778744 C28.5588,25.4478744 28.6608,24.9598744 28.7478,24.5408744 C28.8498,24.0488744 28.9008,23.4858744 28.8018,22.9898744" id="Fill-99" fill="#F7A9C7"></path>
                <path d="M12.7472,26.0492744 C12.5472,27.0532744 12.1712,28.0172744 12.0182,29.0312744 C11.9432,29.5272744 12.7152,29.6172744 12.8622,29.1712744 C13.1832,28.2052744 13.4152,27.1912744 13.5092,26.1762744 C13.5492,25.7422744 12.8332,25.6162744 12.7472,26.0492744" id="Fill-101" fill="#45C2F4"></path>
                <path d="M5.3063,26.8935744 C5.1383,26.2535744 4.8953,25.6705744 4.6043,25.0765744 C4.4383,24.7365744 3.9483,25.0145744 4.0953,25.3535744 C4.3123,25.8545744 4.5963,26.4075744 4.6273,26.9635744 C4.6563,27.4785744 5.4313,27.3675744 5.3063,26.8935744" id="Fill-103" fill="#F9CB5A"></path>
                <path d="M12.7551,4.45857435 C12.2721,5.19257435 11.8511,6.33257435 12.4541,7.09557435 C12.5441,7.20957435 12.7451,7.20957435 12.8421,7.10857435 C13.3671,6.56257435 13.4181,5.76157435 13.8451,5.14157435 C14.3171,4.45857435 13.2111,3.76557435 12.7551,4.45857435" id="Fill-105" fill="#B0EAD5"></path>
                <path d="M20.1584,2.34357435 C19.7324,2.20857435 19.2484,2.29357435 18.8184,2.35457435 C18.4664,2.40457435 17.9024,2.43357435 17.7034,2.78157435 C17.6004,2.96157435 17.6284,3.14757435 17.7544,3.30457435 C17.9794,3.58657435 18.4424,3.51857435 18.7564,3.50257435 C19.1014,3.48557435 19.5434,3.47357435 19.7864,3.54557435 C20.5654,3.77457435 20.9304,2.58957435 20.1584,2.34357435" id="Fill-107" fill="#F7A9C7"></path>
                <path d="M7.6702,20.2102744 C7.6422,20.0262744 7.4682,19.9852744 7.3252,20.0352744 C7.3082,20.0342744 7.2882,20.0312744 7.2592,20.0282744 C7.1732,20.0172744 7.0552,20.0522744 6.9682,20.0622744 C6.6952,20.0962744 6.4422,20.1332744 6.1772,20.2052744 C5.6512,20.3462744 5.0332,20.6242744 4.7082,21.0762744 C4.3172,21.6202744 5.0992,22.1702744 5.5682,21.7832744 C5.9982,21.4272744 6.5242,21.3032744 6.9982,21.0222744 C7.3112,20.8362744 7.7322,20.6092744 7.6702,20.2102744" id="Fill-109" fill="#B0EAD5"></path>
                <path d="M26.0795,3.93257435 C25.9385,3.71357435 25.7615,3.54457435 25.5095,3.46857435 C25.4435,3.44857435 25.3765,3.44757435 25.3105,3.46257435 C25.2435,3.47857435 25.2175,3.48657435 25.2085,3.49057435 C25.1375,3.50757435 25.0725,3.53457435 25.0165,3.59057435 C24.9035,3.70557435 24.9135,3.90057435 25.0545,3.98957435 C25.1265,4.21857435 25.3105,4.46557435 25.3925,4.65357435 C25.5435,5.00257435 25.6055,5.43557435 25.8535,5.73057435 C26.1155,6.04157435 26.7465,5.84057435 26.7095,5.40757435 C26.6685,4.91157435 26.3465,4.34657435 26.0795,3.93257435" id="Fill-111" fill="#F9CB5A"></path>
            </g>
        </g>
    </g>
</svg>