<?xml version="1.0" encoding="UTF-8"?>
<svg width="38px" height="39px" viewBox="0 0 38 39" version="1.1" xmlns="http://www.w3.org/2000/svg" xmlns:xlink="http://www.w3.org/1999/xlink">
    <!-- Generator: Sketch 53.1 (72631) - https://sketchapp.com -->
    <title>Group 23ball</title>
    <desc>Created with Sketch.</desc>
    <g id="Page-1" stroke="none" stroke-width="1" fill="none" fill-rule="evenodd">
        <g id="Artboard" transform="translate(-602.000000, -1233.000000)">
            <g id="Group-23" transform="translate(602.518341, 1233.838602)">
                <path d="M5.27805932,5.67599774 C-1.90094068,13.0749977 -1.73394068,24.8839977 5.64105932,32.0779977 C3.10905932,25.1349977 4.75405932,16.7799977 10.5440593,10.8139977 C16.3480593,4.83299774 24.6770593,2.94099774 31.7050593,5.29099774 L31.7170593,5.27899774 C24.3060593,-1.91200226 12.4690593,-1.73400226 5.27805932,5.67599774" id="Fill-84" fill="#ED1C24"></path>
                <path d="M10.5438593,10.8140977 C4.75485932,16.7800977 3.10885932,25.1350977 5.64085932,32.0780977 C5.65285932,32.0890977 5.66285932,32.1020977 5.67585932,32.1150977 L31.7048593,5.29109774 C24.6768593,2.94109774 16.3488593,4.83209774 10.5438593,10.8140977" id="Fill-86" fill="#F8B033"></path>
                <path d="M5.67565932,32.1153977 C13.0856593,39.3063977 24.9226593,39.1283977 32.1136593,31.7173977 C39.3056593,24.3073977 39.1276593,12.4703977 31.7176593,5.27939774 L5.67565932,32.1153977 Z" id="Fill-88" fill="#F8B033"></path>
                <path d="M19.0139593,18.3261977 C15.6739593,21.7681977 5.65395932,32.0941977 5.65395932,32.0941977 C5.66595932,32.1051977 5.67995932,32.1151977 5.69195932,32.1271977 C12.7079593,34.4501977 21.0089593,32.5531977 26.7979593,26.5881977 C32.6029593,20.6061977 34.2439593,12.2241977 31.6829593,5.27019774 C31.6829593,5.27019774 22.1809593,15.0621977 19.0139593,18.3261977" id="Fill-90" fill="#ED1C24"></path>
            </g>
        </g>
    </g>
</svg>