<?xml version="1.0" encoding="UTF-8"?>
<svg width="46px" height="33px" viewBox="0 0 46 33" version="1.1" xmlns="http://www.w3.org/2000/svg" xmlns:xlink="http://www.w3.org/1999/xlink">
    <!-- Generator: Sketch 53.1 (72631) - https://sketchapp.com -->
    <title>Group 24car</title>
    <desc>Created with Sketch.</desc>
    <g id="Page-1" stroke="none" stroke-width="1" fill="none" fill-rule="evenodd">
        <g id="Artboard" transform="translate(-701.000000, -1240.000000)">
            <g id="Group-24" transform="translate(701.928453, 1240.936600)">
                <path d="M2.22784724,20.297 C2.22784724,20.297 -2.63615276,21.458 2.00984724,23.947 C6.65584724,26.436 2.22784724,20.297 2.22784724,20.297" id="Fill-58" fill="#FF921F"></path>
                <path d="M32.9125472,14.879 C32.9125472,14.879 35.0485472,-3.55271368e-15 20.1155472,-3.55271368e-15 C5.18354724,-3.55271368e-15 8.32454724,15.184 8.32454724,15.184 C8.32454724,15.184 0.516547242,16.058 1.34654724,25.058 L44.7345472,25.058 C44.7345472,25.058 45.3975472,13.448 32.9125472,14.879" id="Fill-60" fill="#41387A"></path>
                <path d="M18.5852472,25.0257 C18.5852472,28.4617 15.7992472,31.2477 12.3632472,31.2477 C8.92724724,31.2477 6.14124724,28.4617 6.14124724,25.0257 C6.14124724,21.5897 8.92724724,18.8037 12.3632472,18.8037 C15.7992472,18.8037 18.5852472,21.5897 18.5852472,25.0257" id="Fill-62" fill="#515A60"></path>
                <path d="M15.5987472,25.0257 C15.5987472,26.8127 14.1497472,28.2607 12.3637472,28.2607 C10.5767472,28.2607 9.12774724,26.8127 9.12774724,25.0257 C9.12774724,23.2387 10.5767472,21.7907 12.3637472,21.7907 C14.1497472,21.7907 15.5987472,23.2387 15.5987472,25.0257" id="Fill-64" fill="#A3B6B6"></path>
                <path d="M36.5048472,25.0257 C36.5048472,28.4617 33.7188472,31.2477 30.2828472,31.2477 C26.8468472,31.2477 24.0608472,28.4617 24.0608472,25.0257 C24.0608472,21.5897 26.8468472,18.8037 30.2828472,18.8037 C33.7188472,18.8037 36.5048472,21.5897 36.5048472,25.0257" id="Fill-66" fill="#515A60"></path>
                <path d="M33.5182472,25.0257 C33.5182472,26.8127 32.0692472,28.2607 30.2832472,28.2607 C28.4962472,28.2607 27.0472472,26.8127 27.0472472,25.0257 C27.0472472,23.2387 28.4962472,21.7907 30.2832472,21.7907 C32.0692472,21.7907 33.5182472,23.2387 33.5182472,25.0257" id="Fill-68" fill="#A3B6B6"></path>
                <path d="M11.1351472,15.058 C11.1351472,15.058 8.03814724,4.368 19.0381472,2.377 L19.0381472,15.058 L11.1351472,15.058 Z" id="Fill-70" fill="#C8E9D9"></path>
                <path d="M30.1337472,15.058 C30.1337472,15.058 32.0377472,4.368 22.0377472,2.377 L22.0377472,15.058 L30.1337472,15.058 Z" id="Fill-76" fill="#C8E9D9"></path>
                <path d="M26.0379472,17.558 C26.0379472,17.834 25.8139472,18.058 25.5379472,18.058 L22.5379472,18.058 C22.2619472,18.058 22.0379472,17.834 22.0379472,17.558 C22.0379472,17.282 22.2619472,17.058 22.5379472,17.058 L25.5379472,17.058 C25.8139472,17.058 26.0379472,17.282 26.0379472,17.558" id="Fill-82" fill="#000000"></path>
            </g>
        </g>
    </g>
</svg>