<?xml version="1.0" encoding="UTF-8"?>
<svg width="80px" height="25px" viewBox="0 0 80 25" version="1.1" xmlns="http://www.w3.org/2000/svg" xmlns:xlink="http://www.w3.org/1999/xlink">
    <!-- Generator: Sketch 53.1 (72631) - https://sketchapp.com -->
    <title>Fill 34hulahoop</title>
    <desc>Created with Sketch.</desc>
    <g id="Page-1" stroke="none" stroke-width="1" fill="none" fill-rule="evenodd">
        <g id="Artboard" transform="translate(-284.000000, -1275.000000)" fill="#FF8E01">
            <path d="M328.8954,1275.6195 C328.8944,1276.1865 329.0294,1276.8645 329.0124,1277.4025 C345.3924,1278.2005 360.4394,1282.2695 360.4924,1287.3945 C360.5504,1293.0855 343.7644,1297.2705 323.8684,1297.3945 C303.9724,1297.5185 286.9124,1293.5425 286.8534,1287.8525 C286.8144,1284.1425 295.0664,1280.7445 305.6164,1278.8445 C305.7584,1278.0885 305.7784,1277.2785 305.8444,1276.8215 C292.8844,1278.8175 284.0004,1282.9055 284.0004,1287.6235 C284.0004,1294.3075 301.8234,1299.7255 323.8104,1299.7255 C345.7974,1299.7255 363.6204,1294.3075 363.6204,1287.6235 C363.6204,1281.4645 348.4814,1276.3795 328.8954,1275.6195" id="Fill-34"></path>
        </g>
    </g>
</svg>