<?xml version="1.0" encoding="UTF-8"?>
<svg width="84px" height="92px" viewBox="0 0 84 92" version="1.1" xmlns="http://www.w3.org/2000/svg" xmlns:xlink="http://www.w3.org/1999/xlink">
    <!-- Generator: Sketch 53.1 (72631) - https://sketchapp.com -->
    <title>Group 27picnicbasket</title>
    <desc>Created with Sketch.</desc>
    <g id="Page-1" stroke="none" stroke-width="1" fill="none" fill-rule="evenodd">
        <g id="Artboard" transform="translate(-1093.000000, -1200.000000)">
            <g id="Group-27" transform="translate(1093.515200, 1200.144900)">
                <path d="M78.4681,60.305 L56.5511,60.305 L18.7191,60.305 L5.0921,60.305 C5.5901,60.91 6.0891,61.514 6.5881,62.118 L6.5881,27.003 C6.5881,24.09 6.7781,21.284 7.5301,18.483 C8.8491,13.566 11.7421,9.386 15.3671,6.719 C18.2381,4.607 21.5261,3.627 24.8681,3.627 L29.7221,3.627 L48.2911,3.627 C52.2021,3.627 56.1511,3.432 60.0601,3.666 C68.9231,4.196 76.2421,13.159 76.9231,23.791 C77.0371,25.581 76.9721,27.407 76.9721,29.2 L76.9721,39.263 L76.9721,62.118 C76.9721,64.457 79.9641,64.457 79.9641,62.118 L79.9641,27.003 C79.9641,23.998 79.7841,21.041 79.0771,18.136 C77.7901,12.847 75.0291,8.329 71.4391,5.003 C67.9011,1.726 63.3781,-1.10134124e-13 58.9411,-1.10134124e-13 L55.4741,-1.10134124e-13 L24.7131,-1.10134124e-13 C16.0651,-1.10134124e-13 8.4261,6.406 5.1071,16.009 C3.1571,21.651 3.5961,27.948 3.5961,33.927 L3.5961,62.118 C3.5961,63.107 4.2761,63.932 5.0921,63.932 L27.0091,63.932 L64.8411,63.932 L78.4681,63.932 C80.3981,63.932 80.3981,60.305 78.4681,60.305" id="Fill-201" fill="#A87838"></path>
                <path d="M58.7985,91.6461 C59.1485,91.6461 59.4975,91.6371 59.8435,91.6211 L15.3465,47.4491 L7.3565,47.4491 L51.8785,91.6461 L58.7985,91.6461 Z" id="Fill-203" fill="#8E6533"></path>
                <path d="M72.3757,86.9618 L32.5727,47.4488 L24.5817,47.4488 L67.3647,89.9188 C69.1727,89.1548 70.8557,88.1568 72.3757,86.9618" id="Fill-205" fill="#8E6533"></path>
                <path d="M79.5164,76.9505 L49.7984,47.4495 L41.8074,47.4495 L76.8394,82.2255 C77.9594,80.6105 78.8654,78.8395 79.5164,76.9505" id="Fill-207" fill="#8E6533"></path>
                <polygon id="Fill-209" fill="#8E6533" points="80.6902 61.0157 67.0242 47.4487 59.0332 47.4487 80.6902 68.9477"></polygon>
                <polygon id="Fill-211" fill="#8E6533" points="42.643 91.6461 2.275 51.5721 2.275 59.5041 34.653 91.6461"></polygon>
                <path d="M2.2747,68.6724 L2.2747,69.9144 C2.2747,81.9164 12.0757,91.6464 24.1667,91.6464 L25.4177,91.6464 L2.2747,68.6724 Z" id="Fill-213" fill="#8E6533"></path>
                <polygon id="Fill-215" fill="#8E6533" points="80.6902 47.4491 76.2592 47.4491 80.6902 51.8481"></polygon>
                <path d="M76.8394,82.2251 L41.8074,47.4491 L32.5724,47.4491 L72.3754,86.9621 C74.0904,85.6141 75.5964,84.0171 76.8394,82.2251" id="Fill-217" fill="#8E6533"></path>
                <path d="M67.3642,89.919 L24.5822,47.449 L15.3462,47.449 L59.8432,91.621 C62.5022,91.497 65.0362,90.902 67.3642,89.919" id="Fill-219" fill="#8E6533"></path>
                <polygon id="Fill-221" fill="#8E6533" points="51.8784 91.6461 7.3564 47.4491 2.2744 47.4491 2.2744 51.5721 42.6434 91.6461"></polygon>
                <polygon id="Fill-223" fill="#8E6533" points="34.6526 91.6461 2.2746 59.5041 2.2746 68.6721 25.4176 91.6461"></polygon>
                <polygon id="Fill-225" fill="#8E6533" points="80.6902 51.8478 76.2592 47.4488 67.0242 47.4488 80.6902 61.0158"></polygon>
                <path d="M80.6902,69.9142 L80.6902,68.9482 L59.0332,47.4492 L49.7982,47.4492 L79.5162,76.9502 C80.2772,74.7432 80.6902,72.3772 80.6902,69.9142" id="Fill-227" fill="#8E6533"></path>
                <path d="M51.8784,91.6461 L40.2274,91.6461 C19.2664,91.6461 1.7404,91.1431 2.2744,53.6931 L2.2744,47.4491 L80.6904,47.4491 L80.6904,53.6931 C80.6904,74.6541 83.0104,91.4311 51.8784,91.6461" id="Fill-229" fill="#8E6533"></path>
                <path d="M53.671,47.4491 L44.436,47.4491 L7.552,84.0641 C7.724,84.2641 7.901,84.4601 8.081,84.6541 C8.094,84.6681 8.108,84.6821 8.121,84.6961 C8.48,85.0791 8.852,85.4501 9.237,85.8061 C9.25,85.8191 9.263,85.8311 9.276,85.8431 C9.667,86.2031 10.071,86.5491 10.488,86.8811 C10.494,86.8861 10.501,86.8911 10.507,86.8961 C11.146,87.4031 11.815,87.8761 12.509,88.3101 L53.671,47.4491 Z" id="Fill-231" fill="#A87838"></path>
                <path d="M61.6614,47.4491 L18.0164,90.7751 C18.4944,90.9141 18.9804,91.0371 19.4714,91.1431 C19.4904,91.1481 19.5094,91.1521 19.5284,91.1561 C20.0074,91.2581 20.4924,91.3451 20.9824,91.4161 C21.0174,91.4221 21.0524,91.4261 21.0864,91.4311 C21.2984,91.4611 21.5104,91.4871 21.7244,91.5111 C21.7594,91.5151 21.7954,91.5191 21.8314,91.5231 C22.0694,91.5481 22.3084,91.5691 22.5484,91.5871 C22.5874,91.5901 22.6254,91.5921 22.6644,91.5941 C22.8634,91.6081 23.0634,91.6181 23.2644,91.6261 C23.3264,91.6291 23.3894,91.6311 23.4524,91.6331 C23.6894,91.6411 23.9274,91.6461 24.1664,91.6461 L26.3744,91.6461 L70.8964,47.4491 L61.6614,47.4491 Z" id="Fill-233" fill="#A87838"></path>
                <polygon id="Fill-235" fill="#A87838" points="80.6902 47.4491 78.8872 47.4491 34.3652 91.6461 43.6002 91.6461 80.6902 54.8271"></polygon>
                <path d="M80.5867,72.0297 C80.6207,71.6827 80.6467,71.3337 80.6637,70.9827 C80.6647,70.9557 80.6657,70.9287 80.6667,70.9017 C80.6737,70.7527 80.6797,70.6047 80.6837,70.4547 C80.6877,70.2747 80.6907,70.0947 80.6907,69.9137 L80.6907,62.7587 L51.5907,91.6457 L58.7987,91.6457 L58.7987,91.6457 C58.9807,91.6457 59.1617,91.6437 59.3427,91.6397 C59.4967,91.6357 59.6507,91.6297 59.8037,91.6227 C59.8277,91.6217 59.8507,91.6207 59.8737,91.6197 C60.2277,91.6027 60.5797,91.5767 60.9297,91.5437 L80.5867,72.0297 Z" id="Fill-237" fill="#A87838"></path>
                <polygon id="Fill-239" fill="#A87838" points="9.9843 47.4491 2.2743 55.1021 2.2743 64.2701 19.2193 47.4491"></polygon>
                <path d="M36.4452,47.4491 L27.2102,47.4491 L2.3842,72.0941 L2.3842,72.0941 C2.4142,72.3931 2.4512,72.6891 2.4932,72.9851 C2.4972,73.0171 2.5022,73.0491 2.5062,73.0801 C2.5482,73.3661 2.5962,73.6501 2.6492,73.9321 C2.6562,73.9651 2.6622,73.9981 2.6692,74.0321 C2.7242,74.3201 2.7852,74.6061 2.8522,74.8901 C2.8542,74.8981 2.8562,74.9061 2.8582,74.9141 C2.9282,75.2131 3.0052,75.5081 3.0882,75.8021 C3.0882,75.8031 3.0882,75.8031 3.0882,75.8031 C3.1692,76.0891 3.2572,76.3721 3.3492,76.6521 C3.3572,76.6761 3.3642,76.7011 3.3732,76.7251 C3.4642,76.9991 3.5602,77.2711 3.6622,77.5401 C3.6702,77.5621 3.6782,77.5831 3.6862,77.6041 C3.9012,78.1681 4.1392,78.7211 4.3982,79.2621 L36.4452,47.4491 Z" id="Fill-241" fill="#A87838"></path>
                <path d="M76.8394,82.2251 L41.8074,47.4491 L32.5724,47.4491 L72.3754,86.9621 C74.0904,85.6141 75.5964,84.0171 76.8394,82.2251" id="Fill-243" fill="#8C6230"></path>
                <path d="M67.3642,89.919 L24.5822,47.449 L15.3462,47.449 L59.8432,91.621 C62.5022,91.497 65.0362,90.902 67.3642,89.919" id="Fill-245" fill="#8C6230"></path>
                <polygon id="Fill-247" fill="#8C6230" points="51.8784 91.6461 7.3564 47.4491 2.2744 47.4491 2.2744 51.5721 42.6434 91.6461"></polygon>
                <polygon id="Fill-249" fill="#8C6230" points="34.6526 91.6461 2.2746 59.5041 2.2746 68.6721 25.4176 91.6461"></polygon>
                <polygon id="Fill-251" fill="#8C6230" points="80.6902 51.8478 76.2592 47.4488 67.0242 47.4488 80.6902 61.0158"></polygon>
                <path d="M80.6902,69.9142 L80.6902,68.9482 L59.0332,47.4492 L49.7982,47.4492 L79.5162,76.9502 C80.2772,74.7432 80.6902,72.3772 80.6902,69.9142" id="Fill-253" fill="#8C6230"></path>
                <path d="M78.554,54.2961 L4.411,54.2961 C1.975,54.2961 -1.13686838e-13,52.3211 -1.13686838e-13,49.8851 L-1.13686838e-13,49.8851 C-1.13686838e-13,47.4491 1.975,45.4741 4.411,45.4741 L78.554,45.4741 C80.99,45.4741 82.965,47.4491 82.965,49.8851 L82.965,49.8851 C82.965,52.3211 80.99,54.2961 78.554,54.2961" id="Fill-255" fill="#A87838"></path>
                <polyline id="Fill-257" fill="#FFF8DC" points="75.9908 45.3442 51.1848 66.2692 28.5618 45.3442"></polyline>
            </g>
        </g>
    </g>
</svg>