<?xml version="1.0" encoding="UTF-8"?>
<svg width="26px" height="49px" viewBox="0 0 26 49" version="1.1" xmlns="http://www.w3.org/2000/svg" xmlns:xlink="http://www.w3.org/1999/xlink">
    <!-- Generator: Sketch 53.1 (72631) - https://sketchapp.com -->
    <title>Group 21pinwheel</title>
    <desc>Created with Sketch.</desc>
    <g id="Page-1" stroke="none" stroke-width="1" fill="none" fill-rule="evenodd">
        <g id="Artboard" transform="translate(-432.000000, -1257.000000)">
            <g id="Group-21" transform="translate(432.768700, 1257.604100)">
                <path d="M12.357,47.7799 C11.902,47.7799 11.533,47.4109 11.533,46.9559 L11.533,12.3569 L13.181,12.3569 L13.181,46.9559 C13.181,47.4109 12.812,47.7799 12.357,47.7799" id="Fill-36" fill="#C5D5D4"></path>
                <polygon id="Fill-38" fill="#734B46" points="13.1805 23.8903 11.5335 25.5373 11.5335 23.0663 13.1805 21.4183"></polygon>
                <polygon id="Fill-40" fill="#ED1C24" points="12.357 12.357 4.26325641e-14 -1.03028697e-13 4.26325641e-14 10.592 7.061 17.653"></polygon>
                <polygon id="Fill-42" fill="#F8B033" points="12.357 12.357 24.714 24.714 24.714 14.122 17.653 7.061"></polygon>
                <polygon id="Fill-44" fill="#DF51CD" points="12.357 12.357 1.42108547e-14 24.714 10.592 24.714 17.653 17.653"></polygon>
                <polygon id="Fill-46" fill="#41387A" points="12.357 12.357 24.714 -1.42108547e-14 14.122 -1.42108547e-14 7.061 7.061"></polygon>
                <polygon id="Fill-48" fill="#DB1B29" points="0.0001 4.119 10.2971 14.416 12.3571 12.357 0.0001 8.17124146e-14"></polygon>
                <polygon id="Fill-50" fill="#E09B2D" points="24.7139 20.5949 14.4169 10.2979 12.3569 12.3569 24.7139 24.7139"></polygon>
                <polygon id="Fill-52" fill="#CC44C2" points="4.1191 24.7138 14.4161 14.4168 12.3571 12.3568 0.0001 24.7138"></polygon>
                <polygon id="Fill-54" fill="#302C63" points="20.5949 0.0001 10.2979 10.2971 12.3569 12.3571 24.7139 0.0001"></polygon>
                <path d="M14.0213,12.357 C14.0213,13.276 13.2763,14.021 12.3573,14.021 C11.4383,14.021 10.6923,13.276 10.6923,12.357 C10.6923,11.438 11.4383,10.693 12.3573,10.693 C13.2763,10.693 14.0213,11.438 14.0213,12.357" id="Fill-56" fill="#C5D5D4"></path>
            </g>
        </g>
    </g>
</svg>