<?xml version="1.0" encoding="UTF-8"?>
<svg width="171px" height="138px" viewBox="0 0 171 138" version="1.1" xmlns="http://www.w3.org/2000/svg" xmlns:xlink="http://www.w3.org/1999/xlink">
    <!-- Generator: Sketch 53.1 (72631) - https://sketchapp.com -->
    <title>Group 37juice</title>
    <desc>Created with Sketch.</desc>
    <defs>
        <path d="M10.218,1.589 C7.466,3.202 7.367,5.95 7.369,5.956 L7.369,5.956 L0.945,61.287 L3.925,61.631 L10.357,6.198 C10.36,6.145 10.465,4.923 11.735,4.177 L11.735,4.177 C12.388,3.796 13.31,3.579 14.403,3.553 L14.403,3.553 C16.655,3.499 20.889,4.228 28.277,8.007 L28.277,8.007 L28.721,8.234 L30.088,5.564 L29.642,5.336 C23.403,2.146 18.376,0.546 14.624,0.546 L14.624,0.546 C12.876,0.546 11.406,0.893 10.218,1.589" id="path-1"></path>
        <path d="M10.218,1.589 C7.466,3.202 7.367,5.95 7.369,5.956 L7.369,5.956 L0.945,61.287 L3.925,61.631 L10.357,6.198 C10.36,6.145 10.465,4.923 11.735,4.177 L11.735,4.177 C12.388,3.796 13.31,3.579 14.403,3.553 L14.403,3.553 C16.655,3.499 20.889,4.228 28.277,8.007 L28.277,8.007 L28.721,8.234 L30.088,5.564 L29.642,5.336 C23.403,2.146 18.376,0.546 14.624,0.546 L14.624,0.546 C12.876,0.546 11.406,0.893 10.218,1.589" id="path-3"></path>
        <path d="M10.218,1.589 C7.466,3.202 7.367,5.95 7.369,5.956 L7.369,5.956 L0.945,61.287 L3.925,61.631 L10.357,6.198 C10.36,6.145 10.465,4.923 11.735,4.177 L11.735,4.177 C12.388,3.796 13.31,3.579 14.403,3.553 L14.403,3.553 C16.655,3.499 20.889,4.228 28.277,8.007 L28.277,8.007 L28.721,8.234 L30.088,5.564 L29.642,5.336 C23.403,2.146 18.376,0.546 14.624,0.546 L14.624,0.546 C12.876,0.546 11.406,0.893 10.218,1.589" id="path-5"></path>
        <path d="M10.218,1.589 C7.466,3.202 7.367,5.95 7.369,5.956 L7.369,5.956 L0.945,61.287 L3.925,61.631 L10.357,6.198 C10.36,6.145 10.465,4.923 11.735,4.177 L11.735,4.177 C12.388,3.796 13.31,3.579 14.403,3.553 L14.403,3.553 C16.655,3.499 20.889,4.228 28.277,8.007 L28.277,8.007 L28.721,8.234 L30.088,5.564 L29.642,5.336 C23.403,2.146 18.376,0.546 14.624,0.546 L14.624,0.546 C12.876,0.546 11.406,0.893 10.218,1.589" id="path-7"></path>
        <path d="M10.218,1.589 C7.466,3.202 7.367,5.95 7.369,5.956 L7.369,5.956 L0.945,61.287 L3.925,61.631 L10.357,6.198 C10.36,6.145 10.465,4.923 11.735,4.177 L11.735,4.177 C12.388,3.796 13.31,3.579 14.403,3.553 L14.403,3.553 C16.655,3.499 20.889,4.228 28.277,8.007 L28.277,8.007 L28.721,8.234 L30.088,5.564 L29.642,5.336 C23.403,2.146 18.376,0.546 14.624,0.546 L14.624,0.546 C12.876,0.546 11.406,0.893 10.218,1.589" id="path-9"></path>
        <path d="M10.218,1.589 C7.466,3.202 7.367,5.95 7.369,5.956 L7.369,5.956 L0.945,61.287 L3.925,61.631 L10.357,6.198 C10.36,6.145 10.465,4.923 11.735,4.177 L11.735,4.177 C12.388,3.796 13.31,3.579 14.403,3.553 L14.403,3.553 C16.655,3.499 20.889,4.228 28.277,8.007 L28.277,8.007 L28.721,8.234 L30.088,5.564 L29.642,5.336 C23.403,2.146 18.376,0.546 14.624,0.546 L14.624,0.546 C12.876,0.546 11.406,0.893 10.218,1.589" id="path-11"></path>
        <path d="M10.218,1.589 C7.466,3.202 7.367,5.95 7.369,5.956 L7.369,5.956 L0.945,61.287 L3.925,61.631 L10.357,6.198 C10.36,6.145 10.465,4.923 11.735,4.177 L11.735,4.177 C12.388,3.796 13.31,3.579 14.403,3.553 L14.403,3.553 C16.655,3.499 20.889,4.228 28.277,8.007 L28.277,8.007 L28.721,8.234 L30.088,5.564 L29.642,5.336 C23.403,2.146 18.376,0.546 14.624,0.546 L14.624,0.546 C12.876,0.546 11.406,0.893 10.218,1.589" id="path-13"></path>
        <path d="M10.218,1.589 C7.466,3.202 7.367,5.95 7.369,5.956 L7.369,5.956 L0.945,61.287 L3.925,61.631 L10.357,6.198 C10.36,6.145 10.465,4.923 11.735,4.177 L11.735,4.177 C12.388,3.796 13.31,3.579 14.403,3.553 L14.403,3.553 C16.655,3.499 20.889,4.228 28.277,8.007 L28.277,8.007 L28.721,8.234 L30.088,5.564 L29.642,5.336 C23.403,2.146 18.376,0.546 14.624,0.546 L14.624,0.546 C12.876,0.546 11.406,0.893 10.218,1.589" id="path-15"></path>
        <path d="M10.218,1.589 C7.466,3.202 7.367,5.95 7.369,5.956 L7.369,5.956 L0.945,61.287 L3.925,61.631 L10.357,6.198 C10.36,6.145 10.465,4.923 11.735,4.177 L11.735,4.177 C12.388,3.796 13.31,3.579 14.403,3.553 L14.403,3.553 C16.655,3.499 20.889,4.228 28.277,8.007 L28.277,8.007 L28.721,8.234 L30.088,5.564 L29.642,5.336 C23.403,2.146 18.376,0.546 14.624,0.546 L14.624,0.546 C12.876,0.546 11.406,0.893 10.218,1.589" id="path-17"></path>
        <path d="M10.218,1.589 C7.466,3.202 7.367,5.95 7.369,5.956 L7.369,5.956 L0.945,61.287 L3.925,61.631 L10.357,6.198 C10.36,6.145 10.465,4.923 11.735,4.177 L11.735,4.177 C12.388,3.796 13.31,3.579 14.403,3.553 L14.403,3.553 C16.655,3.499 20.889,4.228 28.277,8.007 L28.277,8.007 L28.721,8.234 L30.088,5.564 L29.642,5.336 C23.403,2.146 18.376,0.546 14.624,0.546 L14.624,0.546 C12.876,0.546 11.406,0.893 10.218,1.589" id="path-19"></path>
        <path d="M10.218,1.589 C7.466,3.202 7.367,5.95 7.369,5.956 L7.369,5.956 L0.945,61.287 L3.925,61.631 L10.357,6.198 C10.36,6.145 10.465,4.923 11.735,4.177 L11.735,4.177 C12.388,3.796 13.31,3.579 14.403,3.553 L14.403,3.553 C16.655,3.499 20.889,4.228 28.277,8.007 L28.277,8.007 L28.721,8.234 L30.088,5.564 L29.642,5.336 C23.403,2.146 18.376,0.546 14.624,0.546 L14.624,0.546 C12.876,0.546 11.406,0.893 10.218,1.589" id="path-21"></path>
        <path d="M10.218,1.589 C7.466,3.202 7.367,5.95 7.369,5.956 L7.369,5.956 L0.945,61.287 L3.925,61.631 L10.357,6.198 C10.36,6.145 10.465,4.923 11.735,4.177 L11.735,4.177 C12.388,3.796 13.31,3.579 14.403,3.553 L14.403,3.553 C16.655,3.499 20.889,4.228 28.277,8.007 L28.277,8.007 L28.721,8.234 L30.088,5.564 L29.642,5.336 C23.403,2.146 18.376,0.546 14.624,0.546 L14.624,0.546 C12.876,0.546 11.406,0.893 10.218,1.589" id="path-23"></path>
    </defs>
    <g id="Page-1" stroke="none" stroke-width="1" fill="none" fill-rule="evenodd">
        <g id="Desktop-HD" transform="translate(-1251.000000, -1483.000000)">
            <g id="Group-37" transform="translate(1252.000000, 1485.000000)">
                <path d="M33.8495107,104.976508 C15.2575107,96.0705075 3.4645107,81.5805075 0.639510697,64.1745075 C-1.7734893,49.3025075 2.7635107,33.7985075 12.1975107,24.6795075 C16.9005107,20.1335075 21.8955107,18.3055075 27.0435107,19.2375075 C38.2505107,21.2735075 45.4455107,36.1785075 45.7455107,36.8125075 L40.2865107,39.4075075 C38.5945107,35.8655075 32.7225107,26.4045075 25.9545107,25.1855075 C22.7885107,24.6105075 19.6635107,25.8705075 16.3995107,29.0275075 C8.4695107,36.6915075 4.5345107,50.4275075 6.6075107,63.2065075 C9.1055107,78.6015075 19.7075107,91.4985075 36.4615107,99.5255075 L33.8495107,104.976508 Z" id="Fill-522" fill="#C2F4FF"></path>
                <path d="M33.8495107,104.976508 C15.2575107,96.0705075 3.4645107,81.5805075 0.639510697,64.1745075 C-1.7734893,49.3025075 2.7635107,33.7985075 12.1975107,24.6795075 C16.9005107,20.1335075 21.8955107,18.3055075 27.0435107,19.2375075 C38.2505107,21.2735075 45.4455107,36.1785075 45.7455107,36.8125075 L40.2865107,39.4075075 C38.5945107,35.8655075 32.7225107,26.4045075 25.9545107,25.1855075 C22.7885107,24.6105075 19.6635107,25.8705075 16.3995107,29.0275075 C8.4695107,36.6915075 4.5345107,50.4275075 6.6075107,63.2065075 C9.1055107,78.6015075 19.7075107,91.4985075 36.4615107,99.5255075 L33.8495107,104.976508 Z" id="Stroke-523" stroke="#FFFFFF" stroke-width="2" stroke-linejoin="round"></path>
                <path d="M119.794711,64.1112075 C106.191711,35.2462075 96.8207107,17.4962075 108.912711,9.97320754 C121.003711,2.45120754 76.5677107,-0.278792456 73.5457107,0.0222075442 C70.5227107,-0.278792456 26.0867107,2.45120754 38.1777107,9.97320754 C50.2697107,17.4962075 40.8997107,35.2462075 27.2967107,64.1112075 C13.6937107,92.9762075 46.3397107,131.824208 48.4557107,133.078208 C50.5717107,134.330208 96.5187107,134.330208 98.6347107,133.078208 C100.750711,131.824208 133.397711,92.9762075 119.794711,64.1112075" id="Fill-524" fill="#C2F4FF"></path>
                <path d="M119.794711,64.1112075 C106.191711,35.2462075 96.8207107,17.4962075 108.912711,9.97320754 C121.003711,2.45120754 76.5677107,-0.278792456 73.5457107,0.0222075442 C70.5227107,-0.278792456 26.0867107,2.45120754 38.1777107,9.97320754 C50.2697107,17.4962075 40.8997107,35.2462075 27.2967107,64.1112075 C13.6937107,92.9762075 46.3397107,131.824208 48.4557107,133.078208 C50.5717107,134.330208 96.5187107,134.330208 98.6347107,133.078208 C100.750711,131.824208 133.397711,92.9762075 119.794711,64.1112075 Z" id="Stroke-525" stroke="#FFFFFF" stroke-width="2" stroke-linejoin="round"></path>
                <path d="M117.256111,65.0253075 C112.537111,55.1273075 108.190111,45.7733075 105.225111,38.6643075 C103.294111,34.0333075 43.7961107,34.0333075 41.8661107,38.6643075 C38.9221107,45.7243075 34.6151107,54.9953075 29.9341107,64.8163075 C29.9011107,64.8863075 29.8691107,64.9543075 29.8351107,65.0253075 C21.8001107,81.8803075 30.8401107,102.380308 39.2371107,115.670308 C44.2761107,123.642308 49.0841107,129.021308 49.8341107,129.461308 C51.8331107,130.630308 95.2581107,130.630308 97.2561107,129.461308 C99.2571107,128.291308 130.112111,91.9943075 117.256111,65.0253075" id="Fill-526" fill="#F79E3C"></path>
                <path d="M105.037811,38.3944075 C105.037811,39.3084075 91.4318107,39.7004075 73.9718107,39.7004075 C56.5118107,39.7004075 41.9948107,39.4964075 41.9948107,38.5804075 C41.9948107,37.4414075 50.6848107,35.1914075 73.9718107,35.1914075 C95.5548107,35.1914075 105.037811,37.2944075 105.037811,38.3944075" id="Fill-527" fill="#FFB471"></path>
                <path d="M106.448011,5.68740754 C106.448011,6.93940754 91.9970107,9.08940754 73.7260107,9.08940754 C55.4540107,9.08940754 40.6420107,7.01540754 40.6420107,5.76340754 C40.6420107,4.51140754 55.4540107,1.12840754 73.7260107,1.12840754 C91.9970107,1.12840754 106.448011,4.43740754 106.448011,5.68740754" id="Fill-528" fill="#B0F4FF"></path>
                <path d="M106.448011,5.10930754 C106.448011,6.36130754 91.9970107,8.50930754 73.7260107,8.50930754 C55.4540107,8.50930754 40.6420107,6.43730754 40.6420107,5.18530754" id="Stroke-529" stroke="#FFFFFF" stroke-width="2" stroke-linejoin="round"></path>
                <path d="M32.4563107,71.4726075 C31.7623107,67.6136075 34.8263107,60.0606075 39.6713107,48.3786075 C42.9553107,40.4596075 46.3493107,32.2736075 47.2843107,27.0356075 C48.9513107,17.6896075 46.7033107,15.0936075 45.7453107,11.9116075 C45.2313107,10.1976075 47.1463107,11.3746075 48.2123107,11.4056075 C49.3583107,11.4396075 54.3783107,14.8086075 52.0453107,27.8826075 C51.0183107,33.6406075 47.5203107,42.0766075 44.1383107,50.2306075 C40.7223107,58.4696075 38.1783107,68.4376075 37.4223107,71.9636075 C37.1603107,73.1836075 32.6763107,72.7016075 32.4563107,71.4726075" id="Fill-530" fill="#FFFFFF"></path>
                <path d="M38.8078107,107.281208 C29.8558107,99.8222075 31.3938107,76.4892075 31.8648107,75.9762075 C32.7078107,75.0602075 36.0688107,76.1402075 36.1788107,77.3752075 C36.1908107,77.5252075 35.7038107,93.9602075 41.8258107,105.445208 C42.2288107,106.201208 39.4848107,107.843208 38.8078107,107.281208" id="Fill-531" fill="#FFFFFF"></path>
                <polygon id="Fill-532" fill="#FFFFFF" opacity="0.543364025" points="89.1579107 119.615108 75.7119107 117.374108 77.7159107 103.148108 91.5189107 105.449108"></polygon>
                <polygon id="Fill-533" fill="#FFFFFF" points="89.1579107 119.615108 96.1629107 113.912108 98.0329107 101.909108 91.5189107 105.449108"></polygon>
                <polygon id="Fill-534" fill="#FFFFFF" points="77.7157107 103.148308 86.4527107 100.059308 98.0337107 101.909308 91.5197107 105.449308"></polygon>
                <polygon id="Stroke-535" stroke="#FFFFFF" stroke-width="0.25" stroke-linejoin="round" points="89.1579107 119.615108 75.7119107 117.374108 77.7159107 103.148108 91.5189107 105.449108"></polygon>
                <polygon id="Stroke-536" stroke="#FFFFFF" stroke-width="0.25" opacity="0.543364025" stroke-linejoin="round" points="77.7157107 103.148308 86.4527107 100.059308 98.0337107 101.909308 91.5197107 105.449308"></polygon>
                <polygon id="Stroke-537" stroke="#FFFFFF" stroke-width="0.25" opacity="0.543364025" stroke-linejoin="round" points="89.1579107 119.615108 96.1629107 113.912108 98.0329107 101.909108 91.5189107 105.449108"></polygon>
                <polygon id="Fill-538" fill="#FFFFFF" opacity="0.536830357" points="82.8728107 55.4862075 94.7728107 59.0762075 98.8708107 46.6362075 86.6558107 42.9512075"></polygon>
                <polygon id="Fill-539" fill="#FFFFFF" opacity="0.536830357" points="82.8728107 55.4862075 79.4448107 47.9982075 82.7568107 37.4272075 86.6558107 42.9512075"></polygon>
                <polygon id="Fill-540" fill="#FFFFFF" points="98.8708107 46.6366075 92.9728107 40.5846075 82.7568107 37.4276075 86.6558107 42.9506075"></polygon>
                <polygon id="Stroke-541" stroke="#FFFFFF" stroke-width="0.25" stroke-linejoin="round" points="82.8728107 55.4862075 94.7728107 59.0762075 98.8708107 46.6362075 86.6558107 42.9512075"></polygon>
                <polygon id="Stroke-542" stroke="#FFFFFF" stroke-width="0.25" opacity="0.536830357" stroke-linejoin="round" points="98.8708107 46.6366075 92.9728107 40.5846075 82.7568107 37.4276075 86.6558107 42.9506075"></polygon>
                <polygon id="Stroke-543" stroke="#FFFFFF" stroke-width="0.25" stroke-linejoin="round" points="82.8728107 55.4862075 79.4448107 47.9982075 82.7568107 37.4272075 86.6558107 42.9512075"></polygon>
                <path d="M73.2757107,64.1073075 C73.2137107,68.3393075 69.5887107,71.7193075 65.1787107,71.6573075 C60.7697107,71.5893075 57.2437107,68.1073075 57.3057107,63.8773075 C57.3677107,59.6433075 60.9927107,56.2653075 65.4037107,56.3293075 C69.8127107,56.3923075 73.3377107,59.8773075 73.2757107,64.1073075" id="Fill-544" fill="#F78100"></path>
                <path d="M72.3656107,64.0956075 C72.3096107,67.8436075 69.0976107,70.8386075 65.1916107,70.7806075 C61.2836107,70.7236075 58.1616107,67.6376075 58.2166107,63.8886075 C58.2716107,60.1386075 61.4826107,57.1446075 65.3906107,57.2026075 C69.2966107,57.2606075 72.4206107,60.3466075 72.3656107,64.0956075" id="Fill-545" fill="#FFB95C"></path>
                <path d="M65.1120107,63.7763075 C63.1230107,61.5713075 59.4420107,61.5223075 61.7670107,59.6163075 C64.1190107,57.6833075 63.4980107,61.2923075 65.3110107,63.7163075 C65.4500107,60.7263075 62.8850107,58.0583075 65.8610107,58.3693075 C68.8350107,58.6783075 65.9750107,60.7473075 65.5090107,63.7033075 C67.7270107,61.6973075 67.9240107,58.0843075 69.8110107,60.4363075 C71.6910107,62.7883075 68.0810107,62.0673075 65.6750107,63.8223075 C68.5820107,63.8983075 71.1490107,61.6133075 70.8440107,64.5823075 C70.5260107,67.5933075 68.4830107,64.4963075 65.5570107,64.0183075 C67.5380107,66.2773075 71.1270107,66.4603075 68.7920107,68.3823075 C66.4630107,70.2873075 67.1860107,66.6373075 65.4570107,64.2063075 C65.2760107,67.2203075 67.6770107,69.9173075 64.6890107,69.6093075 C61.6790107,69.2923075 64.8490107,67.1733075 65.2680107,64.1553075 C63.0660107,66.1723075 63.0160107,69.9183075 61.1300107,67.5623075 C59.2270107,65.1933075 62.7850107,65.8103075 65.1810107,63.9763075 C62.1610107,63.7323075 59.4150107,66.4853075 59.7370107,63.4193075 C60.0520107,60.3753075 62.1350107,63.3663075 65.1120107,63.7763075" id="Fill-546" fill="#FFDA8F"></path>
                <path d="M52.5085107,114.136608 C48.9125107,112.195608 47.8575107,107.741608 50.1545107,104.185608 C52.4545107,100.630608 57.2325107,99.3216075 60.8265107,101.259608 C64.4245107,103.200608 65.4765107,107.654608 63.1785107,111.210608 C60.8825107,114.765608 56.1025107,116.075608 52.5085107,114.136608" id="Fill-547" fill="#F78100"></path>
                <path d="M52.9817107,113.401308 C49.7967107,111.682308 48.8627107,107.735308 50.8997107,104.587308 C52.9347107,101.436308 57.1677107,100.277308 60.3537107,101.996308 C63.5407107,103.713308 64.4737107,107.661308 62.4367107,110.810308 C60.4007107,113.959308 56.1677107,115.119308 52.9817107,113.401308" id="Fill-548" fill="#FFB95C"></path>
                <path d="M56.9432107,107.650308 C59.8452107,107.016308 61.7582107,104.048308 62.2102107,106.789308 C62.6712107,109.562308 59.8942107,107.446308 56.8942107,107.837308 C59.3862107,109.285308 62.9772107,108.391308 61.1982107,110.671308 C59.4202107,112.950308 59.1022107,109.703308 56.8052107,108.005308 C57.3962107,110.703308 60.3932107,112.475308 57.4172107,112.959308 C54.4462107,113.436308 56.8992107,110.825308 56.6182107,108.086308 C55.0742107,110.415308 55.7272107,113.521308 53.3382107,111.947308 C50.9192107,110.343308 54.6122107,110.067308 56.5092107,107.902308 C53.5662107,108.504308 51.5852107,111.339308 51.1242107,108.583308 C50.6762107,105.839308 53.4362107,108.057308 56.4002107,107.737308 C53.9082107,106.244308 50.3752107,106.993308 52.1592107,104.701308 C53.9622107,102.396308 54.1652107,105.918308 56.5392107,107.607308 C55.9292107,104.917308 52.7452107,103.203308 55.7232107,102.722308 C58.7212107,102.234308 56.3832107,104.849308 56.7372107,107.616308 C58.4812107,105.270308 57.5192107,101.810308 59.9822107,103.440308 C62.4312107,105.055308 58.8092107,105.413308 56.9432107,107.650308" id="Fill-549" fill="#FFDA8F"></path>
                <polygon id="Fill-550" fill="#FFFFFF" opacity="0.536830357" points="63.0730107 84.4657075 73.9140107 78.3847075 67.7950107 66.8037075 56.6670107 73.0467075"></polygon>
                <polygon id="Fill-551" fill="#FFFFFF" points="63.0730107 84.4657075 55.3010107 81.7427075 49.9840107 72.0257075 56.6670107 73.0467075"></polygon>
                <polygon id="Fill-552" fill="#FFFFFF" points="67.7947107 66.8036075 59.3447107 66.8556075 49.9837107 72.0256075 56.6677107 73.0466075"></polygon>
                <polygon id="Stroke-553" stroke="#FFFFFF" stroke-width="0.25" stroke-linejoin="round" points="63.0730107 84.4657075 73.9140107 78.3847075 67.7950107 66.8037075 56.6670107 73.0467075"></polygon>
                <polygon id="Stroke-554" stroke="#FFFFFF" stroke-width="0.25" opacity="0.536830357" stroke-linejoin="round" points="67.7947107 66.8036075 59.3447107 66.8556075 49.9837107 72.0256075 56.6677107 73.0466075"></polygon>
                <polygon id="Stroke-555" stroke="#FFFFFF" stroke-width="0.25" opacity="0.422921317" stroke-linejoin="round" points="63.0730107 84.4657075 55.3010107 81.7427075 49.9840107 72.0257075 56.6670107 73.0467075"></polygon>
                <path d="M108.001711,80.7743075 C107.923711,86.0573075 103.399711,90.2763075 97.8947107,90.1983075 C92.3897107,90.1153075 87.9887107,85.7663075 88.0647107,80.4863075 C88.1427107,75.2003075 92.6687107,70.9843075 98.1747107,71.0633075 C103.678711,71.1423075 108.079711,75.4923075 108.001711,80.7743075" id="Fill-556" fill="#F78100"></path>
                <path d="M106.865611,80.7577075 C106.796611,85.4377075 102.786611,89.1767075 97.9096107,89.1037075 C93.0316107,89.0327075 89.1336107,85.1797075 89.2036107,80.5007075 C89.2716107,75.8187075 93.2796107,72.0817075 98.1586107,72.1527075 C103.033611,72.2257075 106.934611,76.0787075 106.865611,80.7577075" id="Fill-557" fill="#FFB95C"></path>
                <path d="M97.8108107,80.3603075 C95.3278107,77.6073075 90.7318107,77.5463075 93.6358107,75.1673075 C96.5718107,72.7533075 95.7958107,77.2593075 98.0588107,80.2863075 C98.2328107,76.5523075 95.0308107,73.2213075 98.7458107,73.6103075 C102.458811,73.9973075 98.8888107,76.5793075 98.3068107,80.2693075 C101.075811,77.7633075 101.320811,73.2553075 103.676811,76.1913075 C106.023811,79.1273075 101.516811,78.2273075 98.5138107,80.4173075 C102.142811,80.5123075 105.347811,77.6593075 104.965811,81.3653075 C104.568811,85.1253075 102.018811,81.2583075 98.3668107,80.6633075 C100.839811,83.4823075 105.320811,83.7103075 102.404811,86.1113075 C99.4968107,88.4883075 100.399811,83.9313075 98.2418107,80.8963075 C98.0158107,84.6593075 101.013811,88.0263075 97.2828107,87.6423075 C93.5248107,87.2463075 97.4828107,84.6013075 98.0058107,80.8333075 C95.2568107,83.3523075 95.1938107,88.0273075 92.8408107,85.0873075 C90.4648107,82.1283075 94.9058107,82.8993075 97.8978107,80.6103075 C94.1278107,80.3053075 90.6988107,83.7423075 91.1018107,79.9153075 C91.4948107,76.1143075 94.0948107,79.8483075 97.8108107,80.3603075" id="Fill-558" fill="#FFDA8F"></path>
                <path d="M152.910911,65.3387075 C152.910911,64.2857075 144.926911,63.4327075 135.077911,63.4327075 C125.227911,63.4327075 117.243911,64.2857075 117.243911,65.3387075 L117.243911,65.8187075 L120.702911,128.901708 L149.202911,128.901708 L152.910911,65.8187075 L152.910911,65.3387075 Z" id="Fill-559" fill="#C2F4FF"></path>
                <path d="M152.910911,65.3387075 C152.910911,64.2857075 144.926911,63.4327075 135.077911,63.4327075 C125.227911,63.4327075 117.243911,64.2857075 117.243911,65.3387075 L117.243911,65.8187075 L120.702911,128.901708 L149.202911,128.901708 L152.910911,65.8187075 L152.910911,65.3387075 Z" id="Stroke-560" stroke="#FFFFFF" stroke-linejoin="round"></path>
                <polygon id="Fill-561" fill="#FFAC3E" points="147.870911 127.652108 121.994911 127.652108 119.495911 83.9601075 150.608911 83.7151075"></polygon>
                <path d="M150.609211,83.7928075 C150.609211,84.6898075 143.643211,85.5738075 135.052211,85.5738075 C126.462211,85.5738075 119.496211,84.8468075 119.496211,83.9498075 C119.496211,83.0528075 126.462211,82.3248075 135.052211,82.3248075 C143.643211,82.3248075 150.609211,82.8948075 150.609211,83.7928075" id="Fill-562" fill="#FCB765"></path>
                <path d="M117.243911,65.3387075 C117.243911,64.2857075 125.227911,63.4327075 135.077911,63.4327075 C144.926911,63.4327075 152.910911,64.2857075 152.910911,65.3387075" id="Stroke-563" stroke="#FFFFFF" stroke-linejoin="round"></path>
                <path d="M168.812311,53.3845075 C159.666311,48.7075075 153.124311,47.4485075 149.387311,49.6375075 C146.636311,51.2505075 146.537311,53.9985075 146.539311,54.0045075 L140.115311,109.334508 L143.094311,109.679508 L149.527311,54.2455075 C149.530311,54.1945075 149.635311,52.9715075 150.905311,52.2255075 C151.557311,51.8435075 152.480311,51.6275075 153.573311,51.6015075 C155.825311,51.5475075 160.059311,52.2775075 167.447311,56.0555075 L167.890311,56.2825075 L169.257311,53.6125075 L168.812311,53.3845075 Z" id="Fill-564" fill="#FFFFFF"></path>
                <g id="Group-602" transform="translate(139.169911, 48.048408)">
                    <g id="Group-568">
                        <mask id="mask-2" fill="white">
                            <use xlink:href="#path-1"></use>
                        </mask>
                        <g id="Clip-567"></g>
                        <path d="M25.076,8.343 C24.795,8.351 24.51,8.297 24.234,8.179 C23.22,7.739 22.756,6.562 23.195,5.548 L24.297,3.005 C24.736,1.991 25.916,1.528 26.928,1.965 C27.941,2.404 28.406,3.582 27.967,4.595 L26.865,7.138 C26.545,7.878 25.832,8.325 25.076,8.343" id="Fill-566" fill="#15EA3D" mask="url(#mask-2)"></path>
                    </g>
                    <g id="Group-571">
                        <mask id="mask-4" fill="white">
                            <use xlink:href="#path-3"></use>
                        </mask>
                        <g id="Clip-570"></g>
                        <path d="M19.2225,5.7766 C18.9415,5.7826 18.6555,5.7296 18.3805,5.6116 C17.3675,5.1716 16.9015,3.9946 17.3405,2.9816 L18.4435,0.4386 C18.8825,-0.5774 20.0615,-1.0394 21.0725,-0.6024 C22.0865,-0.1624 22.5525,1.0146 22.1135,2.0286 L21.0105,4.5716 C20.6895,5.3106 19.9785,5.7586 19.2225,5.7766" id="Fill-569" fill="#15EA3D" mask="url(#mask-4)"></path>
                    </g>
                    <g id="Group-574">
                        <mask id="mask-6" fill="white">
                            <use xlink:href="#path-5"></use>
                        </mask>
                        <g id="Clip-573"></g>
                        <path d="M13.1629,5.2512 C12.2119,5.2742 11.3509,4.6122 11.1569,3.6472 L10.6089,0.9302 C10.3919,-0.1528 11.0939,-1.2078 12.1759,-1.4258 C13.2669,-1.6468 14.3129,-0.9428 14.5309,0.1402 L15.0789,2.8562 C15.2969,3.9402 14.5959,4.9942 13.5139,5.2122 C13.3949,5.2352 13.2779,5.2492 13.1629,5.2512" id="Fill-572" fill="#15EA3D" mask="url(#mask-6)"></path>
                    </g>
                    <g id="Group-577">
                        <mask id="mask-8" fill="white">
                            <use xlink:href="#path-7"></use>
                        </mask>
                        <g id="Clip-576"></g>
                        <path d="M6.0135,7.0403 C5.2085,6.2823 5.1705,5.0173 5.9285,4.2123 C6.6845,3.4083 7.9505,3.3703 8.7555,4.1283 L10.7745,6.0283 C11.5775,6.7853 11.6155,8.0513 10.8585,8.8543 C10.4775,9.2613 6.0135,7.0403 6.0135,7.0403" id="Fill-575" fill="#15EA3D" mask="url(#mask-8)"></path>
                    </g>
                    <g id="Group-580">
                        <mask id="mask-10" fill="white">
                            <use xlink:href="#path-9"></use>
                        </mask>
                        <g id="Clip-579"></g>
                        <path d="M9.492,14.9719 C9.358,14.9759 9.224,14.9649 9.087,14.9409 L6.359,14.4469 C5.272,14.2509 4.551,13.2099 4.747,12.1219 C4.943,11.0359 5.985,10.3159 7.071,10.5109 L9.798,11.0049 C10.885,11.2009 11.607,12.2419 11.41,13.3289 C11.238,14.2789 10.422,14.9509 9.492,14.9719" id="Fill-578" fill="#15EA3D" mask="url(#mask-10)"></path>
                    </g>
                    <g id="Group-583">
                        <mask id="mask-12" fill="white">
                            <use xlink:href="#path-11"></use>
                        </mask>
                        <g id="Clip-582"></g>
                        <path d="M8.8524,20.9699 C8.7184,20.9739 8.5824,20.9629 8.4474,20.9389 L5.7194,20.4449 C4.6324,20.2489 3.9104,19.2079 4.1074,18.1199 C4.3034,17.0339 5.3434,16.3139 6.4304,16.5089 L9.1584,17.0019 C10.2444,17.1989 10.9674,18.2399 10.7704,19.3269 C10.5984,20.2769 9.7814,20.9489 8.8524,20.9699" id="Fill-581" fill="#15EA3D" mask="url(#mask-12)"></path>
                    </g>
                    <g id="Group-586">
                        <mask id="mask-14" fill="white">
                            <use xlink:href="#path-13"></use>
                        </mask>
                        <g id="Clip-585"></g>
                        <path d="M7.949,27.1653 C7.815,27.1683 7.681,27.1573 7.544,27.1333 L4.816,26.6403 C3.729,26.4423 3.008,25.4023 3.204,24.3153 C3.4,23.2273 4.443,22.5073 5.528,22.7033 L8.256,23.1963 C9.343,23.3943 10.064,24.4353 9.868,25.5203 C9.696,26.4723 8.879,27.1423 7.949,27.1653" id="Fill-584" fill="#15EA3D" mask="url(#mask-14)"></path>
                    </g>
                    <g id="Group-589">
                        <mask id="mask-16" fill="white">
                            <use xlink:href="#path-15"></use>
                        </mask>
                        <g id="Clip-588"></g>
                        <path d="M7.1199,33.6604 C6.9859,33.6634 6.8519,33.6534 6.7149,33.6284 L3.9869,33.1354 C2.8999,32.9384 2.1779,31.8974 2.3749,30.8114 C2.5719,29.7234 3.6099,29.0034 4.6989,29.1994 L7.4259,29.6924 C8.5129,29.8894 9.2349,30.9304 9.0379,32.0164 C8.8659,32.9674 8.0489,33.6374 7.1199,33.6604" id="Fill-587" fill="#15EA3D" mask="url(#mask-16)"></path>
                    </g>
                    <g id="Group-592">
                        <mask id="mask-18" fill="white">
                            <use xlink:href="#path-17"></use>
                        </mask>
                        <g id="Clip-591"></g>
                        <path d="M6.5682,40.5315 C6.4342,40.5345 6.2992,40.5245 6.1632,40.4995 L3.4352,40.0065 C2.3482,39.8095 1.6272,38.7685 1.8232,37.6815 C2.0202,36.5945 3.0592,35.8725 4.1472,36.0695 L6.8742,36.5635 C7.9612,36.7605 8.6832,37.8015 8.4862,38.8875 C8.3142,39.8385 7.4982,40.5085 6.5682,40.5315" id="Fill-590" fill="#15EA3D" mask="url(#mask-18)"></path>
                    </g>
                    <g id="Group-595">
                        <mask id="mask-20" fill="white">
                            <use xlink:href="#path-19"></use>
                        </mask>
                        <g id="Clip-594"></g>
                        <path d="M5.6649,46.7258 C5.5309,46.7298 5.3959,46.7188 5.2599,46.6948 L2.5329,46.2008 C1.4449,46.0048 0.7239,44.9638 0.9209,43.8758 C1.1159,42.7888 2.1589,42.0678 3.2439,42.2648 L5.9719,42.7578 C7.0579,42.9548 7.7799,43.9958 7.5839,45.0818 C7.4119,46.0328 6.5949,46.7048 5.6649,46.7258" id="Fill-593" fill="#15EA3D" mask="url(#mask-20)"></path>
                    </g>
                    <g id="Group-598">
                        <mask id="mask-22" fill="white">
                            <use xlink:href="#path-21"></use>
                        </mask>
                        <g id="Clip-597"></g>
                        <path d="M4.8358,53.2219 C4.7018,53.2249 4.5668,53.2139 4.4308,53.1899 L1.7028,52.6969 C0.6158,52.4999 -0.1062,51.4589 0.0908,50.3719 C0.2878,49.2859 1.3278,48.5629 2.4148,48.7609 L5.1428,49.2539 C6.2288,49.4509 6.9508,50.4919 6.7548,51.5769 C6.5828,52.5289 5.7658,53.2009 4.8358,53.2219" id="Fill-596" fill="#15EA3D" mask="url(#mask-22)"></path>
                    </g>
                    <g id="Group-601">
                        <mask id="mask-24" fill="white">
                            <use xlink:href="#path-23"></use>
                        </mask>
                        <g id="Clip-600"></g>
                        <path d="M4.1932,59.841 C4.0592,59.843 3.9242,59.833 3.7882,59.809 L1.0602,59.316 C-0.0268,59.118 -0.7478,58.077 -0.5518,56.991 C-0.3548,55.903 0.6852,55.182 1.7722,55.379 L4.4992,55.872 C5.5862,56.07 6.3082,57.11 6.1112,58.196 C5.9402,59.147 5.1232,59.819 4.1932,59.841" id="Fill-599" fill="#15EA3D" mask="url(#mask-24)"></path>
                    </g>
                </g>
                <g id="Group-633" transform="translate(117.169911, 65.048408)">
                    <path d="M33.4266,18.8742 L33.4396,18.6672 L33.2616,18.6692 C31.4076,18.9012 25.7156,19.1042 17.8826,19.1042 C9.2916,19.1042 3.8976,19.0412 2.3256,18.9012 C2.3236,18.9002 2.3306,18.9082 2.3306,18.9112 L2.3256,18.9112 L4.8246,62.6042 L30.7006,62.6042 L33.4226,18.9362 C33.4246,18.9242 33.4396,18.9132 33.4396,18.9012 C33.4396,18.8922 33.4276,18.8842 33.4266,18.8742" id="Fill-603" fill="#FF9E3E"></path>
                    <path d="M35.741,0.2903 C35.741,1.3433 27.757,2.1963 17.908,2.1963 C8.058,2.1963 0.074,1.3433 0.074,0.2903" id="Stroke-605" stroke="#FFFFFF" stroke-linejoin="round"></path>
                    <path d="M20.7596,37.9944 C20.7596,38.3394 20.4796,38.6194 20.1346,38.6194 C19.7896,38.6194 19.5096,38.3394 19.5096,37.9944 C19.5096,37.6494 19.7896,37.3694 20.1346,37.3694 C20.4796,37.3694 20.7596,37.6494 20.7596,37.9944" id="Fill-607" fill="#FFD6A9"></path>
                    <path d="M13.034,25.8537 C13.034,26.1987 12.754,26.4787 12.409,26.4787 C12.064,26.4787 11.784,26.1987 11.784,25.8537 C11.784,25.5087 12.064,25.2287 12.409,25.2287 C12.754,25.2287 13.034,25.5087 13.034,25.8537" id="Fill-609" fill="#FFD6A9"></path>
                    <path d="M18.533,47.2551 C18.533,47.6011 18.253,47.8801 17.908,47.8801 C17.563,47.8801 17.283,47.6011 17.283,47.2551 C17.283,46.9101 17.563,46.6301 17.908,46.6301 C18.253,46.6301 18.533,46.9101 18.533,47.2551" id="Fill-611" fill="#FFD6A9"></path>
                    <path d="M27.534,58.4367 C27.534,58.7827 27.254,59.0617 26.909,59.0617 C26.564,59.0617 26.284,58.7827 26.284,58.4367 C26.284,58.0917 26.564,57.8117 26.909,57.8117 C27.254,57.8117 27.534,58.0917 27.534,58.4367" id="Fill-613" fill="#FFD6A9"></path>
                    <path d="M10.283,58.4367 C10.283,58.7827 10.003,59.0617 9.658,59.0617 C9.313,59.0617 9.033,58.7827 9.033,58.4367 C9.033,58.0917 9.313,57.8117 9.658,57.8117 C10.003,57.8117 10.283,58.0917 10.283,58.4367" id="Fill-615" fill="#FFD6A9"></path>
                    <path d="M16.5721,32.9787 C16.5721,33.3237 16.2921,33.6037 15.9471,33.6037 C15.6021,33.6037 15.3221,33.3237 15.3221,32.9787 C15.3221,32.6337 15.6021,32.3537 15.9471,32.3537 C16.2921,32.3537 16.5721,32.6337 16.5721,32.9787" id="Fill-617" fill="#FFD6A9"></path>
                    <path d="M13.4949,40.174 C13.4949,40.429 13.2889,40.636 13.0339,40.636 C12.7789,40.636 12.5729,40.429 12.5729,40.174 C12.5729,39.919 12.7789,39.712 13.0339,39.712 C13.2889,39.712 13.4949,39.919 13.4949,40.174" id="Fill-619" fill="#FFD6A9"></path>
                    <path d="M20.1346,54.9787 C20.1346,55.2337 19.9286,55.4407 19.6736,55.4407 C19.4186,55.4407 19.2126,55.2337 19.2126,54.9787 C19.2126,54.7237 19.4186,54.5167 19.6736,54.5167 C19.9286,54.5167 20.1346,54.7237 20.1346,54.9787" id="Fill-621" fill="#FFD6A9"></path>
                    <path d="M27.9949,48.5051 C27.9949,48.7611 27.7889,48.9671 27.5339,48.9671 C27.2789,48.9671 27.0729,48.7611 27.0729,48.5051 C27.0729,48.2511 27.2789,48.0441 27.5339,48.0441 C27.7889,48.0441 27.9949,48.2511 27.9949,48.5051" id="Fill-623" fill="#FFD6A9"></path>
                    <path d="M10.119,50.2287 C10.119,50.4837 9.913,50.6907 9.658,50.6907 C9.403,50.6907 9.197,50.4837 9.197,50.2287 C9.197,49.9737 9.403,49.7667 9.658,49.7667 C9.913,49.7667 10.119,49.9737 10.119,50.2287" id="Fill-625" fill="#FFD6A9"></path>
                    <path d="M21.5174,23.1037 C21.5174,23.3587 21.3114,23.5657 21.0564,23.5657 C20.8014,23.5657 20.5954,23.3587 20.5954,23.1037 C20.5954,22.8487 20.8014,22.6417 21.0564,22.6417 C21.3114,22.6417 21.5174,22.8487 21.5174,23.1037" id="Fill-627" fill="#FFD6A9"></path>
                    <path d="M16.0721,59.4367 C16.0721,59.6437 15.9041,59.8117 15.6971,59.8117 C15.4901,59.8117 15.3221,59.6437 15.3221,59.4367 C15.3221,59.2297 15.4901,59.0617 15.6971,59.0617 C15.9041,59.0617 16.0721,59.2297 16.0721,59.4367" id="Fill-629" fill="#FFD6A9"></path>
                    <path d="M3.9178,3.4836 C3.9378,2.6716 7.1008,2.5246 7.1638,3.3346 C7.9118,12.8326 8.5368,35.3946 8.9838,43.7696 C9.0278,44.5986 5.7098,44.1256 5.6948,43.2946 C5.5308,34.2696 3.6858,12.9576 3.9178,3.4836" id="Fill-631" fill="#FFFFFF"></path>
                </g>
            </g>
        </g>
    </g>
</svg>