<?xml version="1.0" encoding="UTF-8"?>
<svg width="111px" height="114px" viewBox="0 0 111 114" version="1.1" xmlns="http://www.w3.org/2000/svg" xmlns:xlink="http://www.w3.org/1999/xlink">
    <!-- Generator: Sketch 53.1 (72631) - https://sketchapp.com -->
    <title>Group 41SaladBowl</title>
    <desc>Created with Sketch.</desc>
    <g id="Page-1" stroke="none" stroke-width="1" fill="none" fill-rule="evenodd">
        <g id="Desktop-HD" transform="translate(-569.000000, -1750.000000)">
            <g id="Group-41" transform="translate(569.000000, 1750.000000)">
                <path d="M104.072549,46.6703652 C103.785549,46.0173652 103.408549,45.4063652 102.960549,44.8453652 C103.915549,43.6043652 104.489549,42.0543652 104.489549,40.3673652 C104.489549,36.3013652 101.193549,33.0063652 97.1285493,33.0063652 C94.0025493,33.0063652 91.3395493,34.9573652 90.2715493,37.7053652 C89.9925493,37.7243652 89.7165493,37.7573652 89.4465493,37.8063652 C88.4065493,35.0053652 85.7165493,33.0063652 82.5525493,33.0063652 C80.8155493,33.0063652 79.2215493,33.6113652 77.9625493,34.6173652 C76.2415493,33.2223652 74.0505493,32.3833652 71.6615493,32.3833652 C67.6485493,32.3833652 64.1955493,34.7493652 62.5975493,38.1583652 C61.6425493,37.7053652 60.5785493,37.4443652 59.4505493,37.4443652 C55.9745493,37.4443652 53.0685493,39.8573652 52.2975493,43.0973652 C50.7015493,42.0233652 48.7805493,41.3953652 46.7125493,41.3953652 C44.6055493,41.3953652 42.6515493,42.0473652 41.0385493,43.1583652 C40.2385493,43.2413652 39.4355493,43.4193652 38.6485493,43.7223652 C38.3825493,43.8243652 38.1255493,43.9393652 37.8745493,44.0623652 C35.6735493,43.0543652 33.0855493,42.8963652 30.6465493,43.8353652 C29.6185493,44.2303652 28.7035493,44.7903652 27.9135493,45.4703652 C26.7825493,42.8603652 24.1855493,41.0323652 21.1595493,41.0323652 C18.2015493,41.0323652 15.6595493,42.7803652 14.4885493,45.2953652 C12.0575493,43.6763652 8.90854934,43.2153652 5.97454934,44.3443652 C1.17154934,46.1923652 -1.22345066,51.5833652 0.623549343,56.3863652 C2.47254934,61.1893652 7.86354934,63.5853652 12.6665493,61.7373652 C12.9415493,61.6313652 13.2075493,61.5133652 13.4655493,61.3853652 C13.0995493,62.5203652 13.1015493,63.7833652 13.5635493,64.9833652 C14.6355493,67.7703652 17.7645493,69.1603652 20.5515493,68.0883652 C21.7115493,67.6423652 22.6235493,66.8373652 23.2225493,65.8513652 C25.0545493,67.3563652 27.6205493,67.8613652 29.9915493,66.9493652 C31.8115493,66.2493652 33.1465493,64.8463652 33.8325493,63.1733652 C35.2605493,63.9573652 36.8985493,64.4043652 38.6425493,64.4043652 C41.4505493,64.4043652 43.9875493,63.2473652 45.8055493,61.3853652 C46.1045493,61.4123652 46.4065493,61.4283652 46.7125493,61.4283652 C47.8885493,61.4283652 49.0155493,61.2243652 50.0635493,60.8523652 C51.3515493,62.9403652 53.6595493,64.3323652 56.2925493,64.3323652 C59.0235493,64.3323652 61.4025493,62.8353652 62.6585493,60.6183652 C63.6405493,61.3753652 64.8675493,61.8313652 66.2025493,61.8313652 C68.9925493,61.8313652 71.3205493,59.8643652 71.8825493,57.2433652 C72.7565493,57.5683652 73.6495493,57.7373652 74.5335493,57.7603652 C74.9055493,59.7413652 76.2645493,61.4893652 78.2835493,62.2663652 C80.3775493,63.0713652 82.6435493,62.6263652 84.2615493,61.2963652 C84.7905493,62.1673652 85.5965493,62.8783652 86.6205493,63.2723652 C89.0825493,64.2193652 91.8455493,62.9913652 92.7925493,60.5303652 C93.2005493,59.4703652 93.2025493,58.3543652 92.8795493,57.3523652 C93.1075493,57.4653652 93.3425493,57.5693652 93.5845493,57.6633652 C94.8835493,58.1633652 96.2305493,58.3073652 97.5225493,58.1513652 C98.8485493,60.0933652 101.077549,61.3693652 103.606549,61.3693652 C107.671549,61.3693652 110.967549,58.0733652 110.967549,54.0083652 C110.967549,50.1003652 107.919549,46.9123652 104.072549,46.6703652" id="Fill-257" fill="#05C68A"></path>
                <path d="M89.4650493,37.8036652 L89.4470493,37.8066652 C88.4400493,35.0986652 85.8930493,33.1396652 82.8660493,33.0126652 L82.8240493,33.0106652 C82.7890493,33.0096652 82.7540493,33.0086652 82.7190493,33.0076652 C82.6780493,33.0066652 82.6370493,33.0066652 82.5970493,33.0066652 L82.5530493,33.0056652 C80.8160493,33.0056652 79.2220493,33.6116652 77.9630493,34.6176652 C76.2410493,33.2226652 74.0500493,32.3826652 71.6620493,32.3826652 C67.6480493,32.3826652 64.1950493,34.7496652 62.5970493,38.1586652 C61.6420493,37.7056652 60.5780493,37.4446652 59.4510493,37.4446652 C55.9740493,37.4446652 53.0680493,39.8566652 52.2970493,43.0976652 C50.7010493,42.0226652 48.7810493,41.3956652 46.7130493,41.3956652 C44.6050493,41.3956652 42.6510493,42.0476652 41.0380493,43.1586652 C40.2380493,43.2416652 39.4350493,43.4196652 38.6480493,43.7226652 C38.3830493,43.8246652 38.1260493,43.9396652 37.8750493,44.0626652 C35.6740493,43.0536652 33.0850493,42.8966652 30.6470493,43.8346652 C29.6190493,44.2306652 28.7030493,44.7906652 27.9140493,45.4706652 C26.7830493,42.8596652 24.1860493,41.0326652 21.1590493,41.0326652 C18.2020493,41.0326652 15.6590493,42.7796652 14.4890493,45.2946652 C12.0580493,43.6756652 8.90804934,43.2156652 5.97504934,44.3436652 C1.17204934,46.1916652 -1.22395066,51.5836652 0.624049343,56.3866652 C2.47204934,61.1896652 7.86304934,63.5856652 12.6670493,61.7376652 C12.9420493,61.6316652 13.2070493,61.5136652 13.4660493,61.3846652 C13.0990493,62.5206652 13.1020493,63.7836652 13.5640493,64.9836652 C13.8860493,65.8216652 14.3950493,66.5326652 15.0240493,67.0896652 C15.1580493,67.0476652 15.2920493,67.0006652 15.4260493,66.9486652 C17.2460493,66.2486652 18.5810493,64.8466652 19.2670493,63.1736652 C20.6950493,63.9566652 22.3330493,64.4036652 24.0770493,64.4036652 C26.8850493,64.4036652 29.4210493,63.2466652 31.2400493,61.3856652 C31.5390493,61.4126652 31.8410493,61.4286652 32.1470493,61.4286652 C33.3230493,61.4286652 34.4500493,61.2236652 35.4980493,60.8526652 C36.5830493,62.6106652 38.3900493,63.8746652 40.5070493,64.2306652 C42.5640493,63.8426652 44.4000493,62.8246652 45.8060493,61.3856652 C46.1050493,61.4126652 46.4070493,61.4286652 46.7130493,61.4286652 C47.0080493,61.4286652 47.3000493,61.4156652 47.5890493,61.3896652 C47.7720493,61.1446652 47.9410493,60.8866652 48.0930493,60.6186652 C48.3640493,60.8276652 48.6550493,61.0136652 48.9600493,61.1736652 C49.3360493,61.0876652 49.7040493,60.9796652 50.0630493,60.8526652 C50.2610493,61.1716652 50.4820493,61.4746652 50.7240493,61.7586652 C51.0210493,61.8066652 51.3260493,61.8306652 51.6370493,61.8306652 C54.4270493,61.8306652 56.7550493,59.8646652 57.3170493,57.2436652 C58.1910493,57.5676652 59.0840493,57.7366652 59.9680493,57.7596652 C60.2340493,59.1766652 61.0040493,60.4736652 62.1600493,61.3826652 C62.3420493,61.1386652 62.5080493,60.8836652 62.6590493,60.6186652 C63.6410493,61.3756652 64.8670493,61.8306652 66.2020493,61.8306652 C68.9920493,61.8306652 71.3200493,59.8646652 71.8830493,57.2436652 C72.7560493,57.5676652 73.6500493,57.7366652 74.5330493,57.7596652 C74.8510493,59.4526652 75.8900493,60.9746652 77.4450493,61.8666652 C77.7680493,61.4776652 78.0350493,61.0296652 78.2270493,60.5306652 C78.6350493,59.4696652 78.6370493,58.3546652 78.3130493,57.3516652 C78.5420493,57.4646652 78.7760493,57.5696652 79.0190493,57.6626652 C80.3180493,58.1626652 81.6650493,58.3076652 82.9570493,58.1506652 C84.2820493,60.0936652 86.5120493,61.3696652 89.0400493,61.3696652 C90.4460493,61.3696652 91.7600493,60.9746652 92.8770493,60.2916652 C93.1990493,59.3036652 93.1790493,58.2796652 92.8790493,57.3516652 C93.1080493,57.4646652 93.3420493,57.5696652 93.5850493,57.6626652 C94.1050493,57.8636652 94.6330493,58.0066652 95.1630493,58.0966652 C95.9450493,56.9266652 96.4020493,55.5206652 96.4020493,54.0086652 C96.4020493,50.0996652 93.3540493,46.9126652 89.5070493,46.6706652 C89.2200493,46.0176652 88.8430493,45.4066652 88.3950493,44.8456652 C89.3500493,43.6046652 89.9240493,42.0546652 89.9240493,40.3666652 C89.9240493,39.4656652 89.7620493,38.6016652 89.4650493,37.8036652" id="Fill-258" fill="#00EBAA"></path>
                <path d="M77.4461493,46.1134652 L81.0781493,46.1134652 C82.1151493,46.1134652 82.9631493,46.9614652 82.9631493,47.9984652 C82.9631493,49.0354652 82.1151493,49.8834652 81.0781493,49.8834652 L77.4461493,49.8834652 C76.4091493,49.8834652 75.5611493,49.0354652 75.5611493,47.9984652 C75.5611493,46.9614652 76.4091493,46.1134652 77.4461493,46.1134652" id="Fill-259" fill="#05C68A"></path>
                <path d="M59.0306493,46.1134652 L70.2016493,46.1134652 C71.2386493,46.1134652 72.0876493,46.9614652 72.0876493,47.9984652 C72.0876493,49.0354652 71.2386493,49.8834652 70.2016493,49.8834652 L59.0306493,49.8834652 C57.9936493,49.8834652 57.1456493,49.0354652 57.1456493,47.9984652 C57.1456493,46.9614652 57.9936493,46.1134652 59.0306493,46.1134652" id="Fill-260" fill="#05C68A"></path>
                <path d="M18.8621493,45.4889652 L22.4941493,45.4889652 C23.5311493,45.4889652 24.3791493,46.3369652 24.3791493,47.3739652 C24.3791493,48.4109652 23.5311493,49.2589652 22.4941493,49.2589652 L18.8621493,49.2589652 C17.8251493,49.2589652 16.9771493,48.4109652 16.9771493,47.3739652 C16.9771493,46.3369652 17.8251493,45.4889652 18.8621493,45.4889652" id="Fill-261" fill="#05C68A"></path>
                <path d="M40.6560493,48.3379652 C41.2060493,48.3379652 41.6550493,47.8889652 41.6550493,47.3389652 C41.6550493,46.7889652 41.2060493,46.3399652 40.6560493,46.3399652 C40.1060493,46.3399652 39.6570493,46.7889652 39.6570493,47.3389652" id="Fill-262" fill="#05C68A"></path>
                <path d="M71.9551493,39.5143652 C72.8121493,39.5143652 73.5111493,38.8153652 73.5111493,37.9583652 C73.5111493,37.1013652 72.8121493,36.4033652 71.9551493,36.4033652 C71.0981493,36.4033652 70.3991493,37.1013652 70.3991493,37.9583652 C70.3991493,38.8153652 71.0981493,39.5143652 71.9551493,39.5143652" id="Fill-263" fill="#4D7735"></path>
                <path d="M9.66844934,49.3175652 C10.2184493,49.3175652 10.6674493,48.8685652 10.6674493,48.3185652 C10.6674493,47.7685652 10.2184493,47.3195652 9.66844934,47.3195652 C9.11844934,47.3195652 8.66944934,47.7685652 8.66944934,48.3185652 C8.66944934,48.8685652 9.11844934,49.3175652 9.66844934,49.3175652" id="Fill-264" fill="#05C68A"></path>
                <path d="M28.7170493,78.5332652 C25.9780493,78.8922652 23.4670493,76.9622652 23.1080493,74.2222652 L20.6180493,55.2222652 C20.2590493,52.4822652 22.1890493,49.9712652 24.9290493,49.6132652 L43.9300493,47.1272652 C46.6680493,46.7682652 49.1810493,48.6992652 49.5390493,51.4382652 L52.0260493,70.4362652 C52.3850493,73.1752652 50.4540493,75.6872652 47.7150493,76.0452652 L28.7170493,78.5332652 Z" id="Fill-265" fill="#F1BB00"></path>
                <path d="M23.2239493,74.8219652 C23.1739493,74.6269652 23.1349493,74.4269652 23.1079493,74.2229652 L20.6179493,55.2219652 C20.2589493,52.4819652 22.1889493,49.9709652 24.9289493,49.6129652 L42.5989493,47.3009652 C42.6489493,47.4959652 42.6879493,47.6959652 42.7139493,47.9009652 L45.2009493,66.8999652 C45.5609493,69.6379652 43.6289493,72.1499652 40.8909493,72.5079652 L23.2239493,74.8219652 Z" id="Fill-266" fill="#FAC500"></path>
                <path d="M38.5584493,52.2623652 C39.5194493,53.1413652 39.5854493,54.6323652 38.7054493,55.5933652 C37.8264493,56.5543652 36.3354493,56.6193652 35.3744493,55.7403652 C34.4144493,54.8613652 34.3484493,53.3703652 35.2274493,52.4093652 C36.1064493,51.4493652 37.5984493,51.3833652 38.5584493,52.2623652" id="Fill-267" fill="#F1BB00"></path>
                <path d="M31.5559493,52.9221652 C32.0359493,53.3621652 32.0689493,54.1071652 31.6299493,54.5881652 C31.1899493,55.0681652 30.4439493,55.1011652 29.9639493,54.6611652 C29.4839493,54.2221652 29.4509493,53.4761652 29.8909493,52.9961652 C30.3299493,52.5151652 31.0759493,52.4821652 31.5559493,52.9221652" id="Fill-268" fill="#F1BB00"></path>
                <path d="M42.0183493,62.8690652 C42.4983493,63.3090652 42.5313493,64.0540652 42.0923493,64.5340652 C41.6523493,65.0150652 40.9073493,65.0480652 40.4263493,64.6080652 C39.9463493,64.1680652 39.9133493,63.4230652 40.3533493,62.9430652 C40.7923493,62.4620652 41.5383493,62.4290652 42.0183493,62.8690652" id="Fill-269" fill="#F1BB00"></path>
                <path d="M77.8297493,79.6807652 C75.2047493,80.5427652 72.3787493,79.1117652 71.5187493,76.4867652 L65.5437493,58.2787652 C64.6827493,55.6537652 66.1127493,52.8277652 68.7377493,51.9667652 L86.9467493,45.9967652 C89.5707493,45.1357652 92.3987493,46.5657652 93.2597493,49.1907652 L99.2297493,67.3977652 C100.091749,70.0217652 98.6607493,72.8487652 96.0357493,73.7087652 L77.8297493,79.6807652 Z" id="Fill-270" fill="#F1BB00"></path>
                <path d="M71.7433493,77.0539652 C71.6583493,76.8719652 71.5823493,76.6829652 71.5183493,76.4869652 L65.5433493,58.2789652 C64.6823493,55.6539652 66.1123493,52.8269652 68.7373493,51.9669652 L85.6713493,46.4149652 C85.7563493,46.5969652 85.8323493,46.7859652 85.8963493,46.9819652 L91.8673493,65.1889652 C92.7293493,67.8129652 91.2973493,70.6399652 88.6723493,71.4999652 L71.7433493,77.0539652 Z" id="Fill-271" fill="#FAC500"></path>
                <path d="M82.6225493,52.0394652 C83.7295493,52.7254652 84.0715493,54.1784652 83.3855493,55.2854652 C82.6995493,56.3924652 81.2465493,56.7344652 80.1405493,56.0484652 C79.0325493,55.3624652 78.6915493,53.9094652 79.3765493,52.8034652 C80.0625493,51.6954652 81.5155493,51.3534652 82.6225493,52.0394652" id="Fill-272" fill="#F1BB00"></path>
                <path d="M75.8643493,53.9880652 C76.4183493,54.3310652 76.5893493,55.0570652 76.2463493,55.6110652 C75.9033493,56.1650652 75.1763493,56.3360652 74.6233493,55.9930652 C74.0693493,55.6500652 73.8983493,54.9230652 74.2413493,54.3700652 C74.5843493,53.8160652 75.3103493,53.6450652 75.8643493,53.9880652" id="Fill-273" fill="#F1BB00"></path>
                <path d="M87.9915493,61.8194652 C88.5455493,62.1624652 88.7155493,62.8884652 88.3725493,63.4424652 C88.0305493,63.9954652 87.3035493,64.1664652 86.7505493,63.8234652 C86.1965493,63.4814652 86.0255493,62.7544652 86.3685493,62.2004652 C86.7115493,61.6474652 87.4375493,61.4764652 87.9915493,61.8194652" id="Fill-274" fill="#F1BB00"></path>
                <path d="M107.116649,62.3300652 C107.116649,90.6170652 84.1856493,113.548065 55.8986493,113.548065 C27.6126493,113.548065 4.68164934,90.6170652 4.68164934,62.3300652 L107.116649,62.3300652 Z" id="Fill-275" fill="#D2005E"></path>
                <path d="M100.398649,87.6764652 C101.603649,85.5674652 102.658649,83.3664652 103.558649,81.0824652 L8.23964934,81.0824652 C9.13864934,83.3664652 10.1956493,85.5674652 11.3996493,87.6764652 L100.398649,87.6764652 Z" id="Fill-276" fill="#E51473"></path>
                <path d="M99.5008493,62.3300652 C96.0358493,87.2480652 74.6568493,106.435065 48.7848493,106.435065 C36.4538493,106.435065 25.1418493,102.074065 16.3018493,94.8140652 C25.6948493,106.250065 39.9438493,113.548065 55.8988493,113.548065 C84.1858493,113.548065 107.116849,90.6170652 107.116849,62.3300652 L99.5008493,62.3300652 Z" id="Fill-277" fill="#FF529F"></path>
                <path d="M109.845349,65.1459652 C109.845349,67.4059652 108.014349,69.2369652 105.754349,69.2369652 L6.04434934,69.2369652 C3.78534934,69.2369652 1.95334934,67.4059652 1.95334934,65.1459652 L1.95334934,59.5139652 C1.95334934,57.2549652 3.78534934,55.4239652 6.04434934,55.4239652 L105.754349,55.4239652 C108.014349,55.4239652 109.845349,57.2549652 109.845349,59.5139652 L109.845349,65.1459652 Z" id="Fill-278" fill="#E51473"></path>
                <path d="M83.2123493,14.6938652 L83.1713493,14.6848652 C83.7963493,11.5238652 79.7093493,7.97086519 74.0163493,6.73686519 C68.3503493,5.50786519 63.2213493,7.03686519 62.4933493,10.1538652 L62.4063493,10.1348652 L51.0503493,46.7148652 L84.4363493,46.7148652 L83.2123493,14.6938652 Z" id="Fill-279" fill="#FFE600"></path>
                <path d="M78.5716493,29.1124652 C78.7276493,29.8484652 78.8026493,30.5734652 78.8616493,31.2974652 C78.9176493,32.0204652 78.9386493,32.7394652 78.9406493,33.4554652 C78.9446493,34.8874652 78.8516493,36.3074652 78.6926493,37.7194652 C78.5316493,39.1314652 78.3006493,40.5334652 77.9776493,41.9244652 C77.6436493,43.3134652 77.2556493,44.6964652 76.6356493,46.0494652 C76.3396493,44.5804652 76.2736493,43.1394652 76.2626493,41.7064652 C76.2616493,40.2744652 76.3536493,38.8544652 76.5156493,37.4424652 C76.6786493,36.0314652 76.9086493,34.6284652 77.2346493,33.2384652 C77.3986493,32.5434652 77.5806493,31.8504652 77.7976493,31.1624652 C78.0176493,30.4744652 78.2546493,29.7884652 78.5716493,29.1124652" id="Fill-280" fill="#FFF9B3"></path>
                <path d="M64.0644493,15.9897652 C64.2764493,16.8827652 64.3174493,17.7267652 64.3174493,18.5597652 C64.3104493,19.3907652 64.2334493,20.2027652 64.1054493,20.9997652 C63.9764493,21.7967652 63.7954493,22.5787652 63.5444493,23.3417652 C63.2854493,24.1027652 62.9864493,24.8517652 62.5134493,25.5527652 C62.2984493,24.6597652 62.2574493,23.8147652 62.2574493,22.9817652 C62.2654493,22.1507652 62.3424493,21.3387652 62.4714493,20.5427652 C62.6024493,19.7457652 62.7844493,18.9637652 63.0354493,18.2007652 C63.2944493,17.4407652 63.5934493,16.6907652 64.0644493,15.9897652" id="Fill-281" fill="#FFF9B3"></path>
                <path d="M65.1618493,36.0554652 C65.3738493,36.9474652 65.4148493,37.7924652 65.4148493,38.6254652 C65.4078493,39.4564652 65.3308493,40.2684652 65.2028493,41.0654652 C65.0738493,41.8624652 64.8928493,42.6444652 64.6418493,43.4074652 C64.3828493,44.1684652 64.0838493,44.9174652 63.6108493,45.6184652 C63.3958493,44.7244652 63.3548493,43.8804652 63.3548493,43.0474652 C63.3628493,42.2164652 63.4398493,41.4044652 63.5688493,40.6084652 C63.6998493,39.8114652 63.8818493,39.0294652 64.1328493,38.2664652 C64.3918493,37.5064652 64.6908493,36.7564652 65.1618493,36.0554652" id="Fill-282" fill="#FFF9B3"></path>
                <path d="M72.6259493,14.7357652 C72.7179493,15.7567652 72.7309493,16.7657652 72.7259493,17.7717652 C72.7169493,18.7777652 72.6749493,19.7787652 72.6149493,20.7777652 C72.4869493,22.7737652 72.2729493,24.7567652 71.9869493,26.7297652 C71.7009493,28.7027652 71.3399493,30.6637652 70.8929493,32.6137652 C70.6669493,33.5877652 70.4219493,34.5597652 70.1419493,35.5257652 C69.8589493,36.4917652 69.5579493,37.4547652 69.1769493,38.4067652 C69.0839493,37.3857652 69.0709493,36.3767652 69.0749493,35.3707652 C69.0819493,34.3637652 69.1249493,33.3627652 69.1859493,32.3647652 C69.3139493,30.3687652 69.5269493,28.3857652 69.8159493,26.4127652 C70.1049493,24.4407652 70.4659493,22.4787652 70.9129493,20.5297652 C71.1399493,19.5557652 71.3849493,18.5837652 71.6639493,17.6177652 C71.9469493,16.6507652 72.2469493,15.6877652 72.6259493,14.7357652" id="Fill-283" fill="#FFF9B3"></path>
                <path d="M77.6516493,1.07156519 C77.5796493,1.50056519 76.3896493,1.73456519 74.9946493,1.59456519 C73.5996493,1.45356519 72.5276493,0.992565194 72.6006493,0.563565194 C72.6726493,0.134565194 73.8626493,-0.0994348056 75.2566493,0.0405651944 C76.6516493,0.180565194 77.7236493,0.642565194 77.6516493,1.07156519" id="Fill-284" fill="#B4620E"></path>
                <path d="M62.9654493,3.55146519 L68.2384493,1.45646519 C70.2124493,0.671465194 72.5004493,0.352465194 74.7544493,0.596465194 C74.7834493,0.599465194 74.8114493,0.603465194 74.8404493,0.606465194 C77.3954493,0.891465194 79.7234493,1.86446519 81.3924493,3.30046519 L85.2114493,6.58546519 L62.9654493,3.55146519 Z" id="Fill-285" fill="#09A2DC"></path>
                <path d="M75.3888493,3.17296519 C66.9648493,2.02896519 59.3468493,3.47396519 58.3718493,6.40096519 C57.8268493,8.03896519 59.4798493,9.79396519 62.5158493,11.2229652 C62.1138493,10.8569652 61.9438493,10.4939652 62.0568493,10.1519652 C62.5248493,8.74596519 67.5928493,8.24296519 73.3768493,9.02896519 C79.1608493,9.81496519 83.4698493,11.5919652 83.0018493,12.9979652 C82.8798493,13.3649652 82.4418493,13.6689652 81.7628493,13.9069652 C85.5808493,13.4099652 88.3198493,12.2209652 88.8778493,10.5449652 C89.8518493,7.61796519 83.8128493,4.31696519 75.3888493,3.17296519" id="Fill-286" fill="#FF7C00"></path>
                <path d="M75.3888493,3.17296519 C66.9648493,2.02896519 59.3468493,3.47396519 58.3718493,6.40096519 C58.2198493,6.85996519 58.2398493,7.32796519 58.4138493,7.79596519 C60.8918493,5.75896519 67.3988493,4.89096519 74.4768493,5.85296519 C81.5788493,6.81796519 86.9858493,9.31596519 87.9238493,11.8299652 C88.3948493,11.4419652 88.7218493,11.0129652 88.8778493,10.5449652 C89.8518493,7.61796519 83.8128493,4.31696519 75.3888493,3.17296519" id="Fill-287" fill="#FFC80B"></path>
                <path d="M83.0020493,12.9975652 C83.4700493,11.5915652 79.1610493,9.81456519 73.3770493,9.02856519 C67.5930493,8.24356519 62.5250493,8.74556519 62.0570493,10.1525652 C61.9440493,10.4935652 62.1140493,10.8565652 62.5160493,11.2225652 C64.9060493,12.3465652 68.1520493,13.2685652 71.8610493,13.7725652 C75.4610493,14.2615652 78.9120493,14.2765652 81.7620493,13.9065652 C82.4420493,13.6695652 82.8800493,13.3645652 83.0020493,12.9975652" id="Fill-288" fill="#B4620E"></path>
                <path d="M76.5595493,13.7858652 C76.4725493,14.5498652 74.7755493,14.9848652 72.7685493,14.7568652 C70.7615493,14.5298652 69.2045493,13.7258652 69.2905493,12.9628652 C69.3775493,12.1988652 71.0745493,11.7638652 73.0815493,11.9908652 C75.0885493,12.2188652 76.6465493,13.0218652 76.5595493,13.7858652" id="Fill-289" fill="#FF7C00"></path>
            </g>
        </g>
    </g>
</svg>