<?xml version="1.0" encoding="UTF-8"?>
<svg width="139px" height="269px" viewBox="0 0 139 269" version="1.1" xmlns="http://www.w3.org/2000/svg" xmlns:xlink="http://www.w3.org/1999/xlink">
    <!-- Generator: Sketch 53.1 (72631) - https://sketchapp.com -->
    <title>Group 59Balloons</title>
    <desc>Created with Sketch.</desc>
    <g id="Page-1" stroke="none" stroke-width="1" fill="none" fill-rule="evenodd">
        <g id="Desktop-HD" transform="translate(-188.000000, -2415.000000)">
            <g id="Group-59" transform="translate(188.000269, 2415.338190)">
                <path d="M78.9202309,115.82871 C78.9202309,115.82871 58.7982309,184.88071 61.1962309,263.05471" id="Stroke-161" stroke="#146875"></path>
                <path d="M62.5683309,59.1669103 C62.5683309,59.1669103 53.1963309,180.93691 64.0063309,262.12191" id="Stroke-163" stroke="#146875"></path>
                <path d="M82.0459309,43.1483103 C85.9959309,65.5953103 75.1919309,86.2503103 57.9239309,89.2923103 C40.6529309,92.3253103 23.4589309,76.5873103 19.5119309,54.1373103 C15.5709309,31.6883103 26.3689309,11.0303103 43.6379309,7.99331029 C60.9099309,4.95731029 78.0999309,20.6983103 82.0459309,43.1483103" id="Fill-165" fill="#F79E3C"></path>
                <path d="M82.0459309,43.1483103 C79.9619309,31.3013103 74.1879309,21.3223103 66.6629309,14.9893103 C66.8549309,32.0603103 64.0379309,75.3103103 30.9279309,78.4273103 C38.2799309,86.6523103 48.0879309,91.0163103 57.9239309,89.2923103 C75.1919309,86.2503103 85.9959309,65.5953103 82.0459309,43.1483103" id="Fill-167" fill="#414042" opacity="0.168480283"></path>
                <path d="M41.5151309,36.7916103 C38.4571309,42.9806103 33.8911309,46.6936103 29.2921309,44.4186103 C24.6791309,42.1406103 23.4261309,35.2826103 26.4851309,29.0976103 C29.5431309,22.9106103 35.7561309,19.7396103 40.3611309,22.0186103 C44.9661309,24.2956103 44.5721309,30.6066103 41.5151309,36.7916103" id="Fill-169" fill="#FFFFFF" opacity="0.209914435"></path>
                <path d="M96.0127309,12.9947103 C96.0127309,12.9947103 60.7907309,102.12071 61.7347309,180.34471 L62.8097309,262.12171" id="Stroke-171" stroke="#146875"></path>
                <path d="M99.2867309,0.160810293 C102.849731,1.57681029 104.444731,14.5998103 104.444731,14.5998103 C104.444731,14.5998103 115.532731,21.6168103 115.288731,25.4428103 C115.043731,29.2698103 103.148731,34.8138103 103.148731,34.8138103 C103.148731,34.8138103 99.9017309,47.5248103 96.1867309,48.4748103 C92.4737309,49.4258103 83.5247309,39.8268103 83.5247309,39.8268103 C83.5247309,39.8268103 70.4297309,40.6658103 68.3797309,37.4298103 C66.3307309,34.1878103 72.6937309,22.7108103 72.6937309,22.7108103 C72.6937309,22.7108103 67.8477309,10.5168103 70.2967309,7.56681029 C72.7427309,4.61481029 85.6227309,7.12281029 85.6227309,7.12281029 C85.6227309,7.12281029 95.7227309,-1.25318971 99.2867309,0.160810293" id="Fill-173" fill="#00B8C4"></path>
                <path d="M81.5117309,9.24981029 C87.5467309,11.4668103 95.3247309,13.2698103 104.206731,12.9508103 C103.989731,11.6028103 103.627731,9.59381029 103.111731,7.55781029 C98.0087309,7.65081029 92.8677309,6.96581029 87.7017309,5.50081029 C86.4457309,6.43981029 85.6227309,7.12281029 85.6227309,7.12281029 C85.6227309,7.12281029 79.0897309,5.85181029 74.4467309,6.18681029 C76.5867309,7.25881029 78.9477309,8.30881029 81.5117309,9.24981029" id="Fill-175" fill="#FFFFFF"></path>
                <path d="M80.8710309,17.4311103 C76.4940309,15.8391103 72.7250309,13.8891103 69.7290309,12.0761103 C70.0240309,14.4561103 70.8040309,17.2161103 71.4930309,19.3311103 C73.6930309,20.4451103 76.1320309,21.5331103 78.7890309,22.5111103 C87.1040309,25.5631103 98.7180309,27.8531103 111.980031,24.8561103 C112.971031,24.6331103 113.975031,24.3681103 114.984031,24.0841103 C114.345031,22.6531103 112.770031,21.0001103 111.023031,19.4821103 C101.128031,21.8011103 91.0360309,21.1241103 80.8710309,17.4311103" id="Fill-177" fill="#FFFFFF"></path>
                <path d="M101.787831,39.2874103 C102.635831,36.8154103 103.148831,34.8134103 103.148831,34.8134103 C103.148831,34.8134103 104.540831,34.1624103 106.380831,33.1584103 C97.1018309,34.9664103 87.6568309,34.1454103 78.1488309,30.6904103 C75.3088309,29.6584103 72.7258309,28.4764103 70.4438309,27.2774103 C69.7218309,28.9004103 68.9848309,30.7444103 68.5058309,32.4594103 C70.7758309,33.6204103 73.3038309,34.7554103 76.0668309,35.7704103 C82.7788309,38.2364103 91.6448309,40.1984103 101.787831,39.2874103" id="Fill-179" fill="#FFFFFF"></path>
                <path d="M115.289131,25.4431103 C115.421131,23.3841103 112.269131,20.4021103 109.330131,18.0821103 C103.026131,24.5831103 87.7291309,37.2171103 69.1161309,30.5591103 C68.1281309,33.3261103 67.5311309,36.0841103 68.3801309,37.4301103 C70.4301309,40.6651103 83.5251309,39.8271103 83.5251309,39.8271103 C83.5251309,39.8271103 92.4741309,49.4251103 96.1871309,48.4751103 C99.9011309,47.5251103 103.149131,34.8141103 103.149131,34.8141103 C103.149131,34.8141103 115.044131,29.2701103 115.289131,25.4431103" id="Fill-181" fill="#414042" opacity="0.168480283"></path>
                <path d="M88.1092309,20.2537103 C84.0612309,22.2337103 80.2222309,22.3347103 78.7482309,19.3187103 C77.2752309,16.3077103 79.3632309,12.2597103 83.4112309,10.2817103 C87.4582309,8.30371029 91.9342309,9.14471029 93.4052309,12.1577103 C94.8802309,15.1727103 92.1572309,18.2777103 88.1092309,20.2537103" id="Fill-183" fill="#FFFFFF" opacity="0.209914435"></path>
                <path d="M20.5327309,83.3072103 C20.5327309,83.3072103 54.5747309,116.29621 60.9977309,260.00521" id="Stroke-185" stroke="#146875"></path>
                <path d="M10.9278309,49.4620103 C14.1548309,47.3900103 25.6698309,53.6750103 25.6698309,53.6750103 C25.6698309,53.6750103 37.8338309,48.7460103 40.7998309,51.1750103 C43.7668309,53.6050103 41.3498309,66.4990103 41.3498309,66.4990103 C41.3498309,66.4990103 49.7958309,76.5400103 48.4018309,80.1150103 C47.0118309,83.6880103 33.9978309,85.3710103 33.9978309,85.3710103 C33.9978309,85.3710103 27.0568309,96.5060103 23.2318309,96.2870103 C19.4028309,96.0680103 13.7778309,84.2120103 13.7778309,84.2120103 C13.7778309,84.2120103 1.04483086,81.0520103 0.0698308583,77.3420103 C-0.904169142,73.6360103 8.63283086,64.6240103 8.63283086,64.6240103 C8.63283086,64.6240103 7.70283086,51.5340103 10.9278309,49.4620103" id="Fill-187" fill="#E23365"></path>
                <path d="M7.96763086,69.2050103 C13.2846309,65.5910103 19.2786309,60.3140103 24.1926309,52.9100103 C22.9706309,52.3000103 21.1256309,51.4230103 19.1706309,50.6590103 C16.2766309,54.8620103 12.7236309,58.6430103 8.52363086,61.9860103 C8.55663086,63.5580103 8.63263086,64.6240103 8.63263086,64.6240103 C8.63263086,64.6240103 3.79663086,69.1940103 1.36363086,73.1650103 C3.48463086,72.0490103 5.70963086,70.7400103 7.96763086,69.2050103" id="Fill-189" fill="#FFFFFF"></path>
                <path d="M14.2470309,74.4891103 C10.4050309,77.1251103 6.62403086,79.0491103 3.40503086,80.4291103 C5.51203086,81.5771103 8.21103086,82.5501103 10.3310309,83.2191103 C12.5180309,82.0801103 14.8230309,80.7301103 17.1630309,79.1391103 C24.4870309,74.1581103 33.1110309,66.0491103 38.3960309,53.5231103 C38.7910309,52.5831103 39.1620309,51.6141103 39.5180309,50.6291103 C37.9810309,50.3171103 35.7240309,50.6361103 33.4720309,51.1711103 C29.5950309,60.5631103 23.1680309,68.3751103 14.2470309,74.4891103" id="Fill-191" fill="#FFFFFF"></path>
                <path d="M44.1947309,70.2111103 C42.6787309,68.0811103 41.3497309,66.4981103 41.3497309,66.4981103 C41.3497309,66.4981103 41.6337309,64.9891103 41.8857309,62.9081103 C37.9527309,71.5031103 31.7857309,78.7051103 23.4417309,84.4251103 C20.9477309,86.1321103 18.4837309,87.5421103 16.1787309,88.6991103 C17.0767309,90.2311103 18.1497309,91.9041103 19.2637309,93.2901103 C21.5297309,92.1231103 23.9247309,90.7301103 26.3577309,89.0751103 C32.2717309,85.0511103 39.0287309,78.9881103 44.1947309,70.2111103" id="Fill-193" fill="#FFFFFF"></path>
                <path d="M40.8003309,51.1753103 C39.2033309,49.8663103 34.9443309,50.6933103 31.3483309,51.7343103 C32.9593309,60.6403103 34.3253309,80.4353103 18.0753309,91.6893103 C19.7493309,94.1033103 21.6433309,96.1953103 23.2313309,96.2873103 C27.0573309,96.5063103 33.9973309,85.3713103 33.9973309,85.3713103 C33.9973309,85.3713103 47.0123309,83.6873103 48.4013309,80.1153103 C49.7953309,76.5403103 41.3493309,66.4983103 41.3493309,66.4983103 C41.3493309,66.4983103 43.7673309,53.6043103 40.8003309,51.1753103" id="Fill-195" fill="#414042" opacity="0.168480283"></path>
                <path d="M20.7573309,70.2498103 C20.0083309,74.6928103 17.8553309,77.8728103 14.5463309,77.3158103 C11.2373309,76.7568103 9.16433086,72.7028103 9.91333086,68.2618103 C10.6613309,63.8198103 13.9503309,60.6688103 17.2563309,61.2298103 C20.5673309,61.7868103 21.5063309,65.8068103 20.7573309,70.2498103" id="Fill-197" fill="#FFFFFF" opacity="0.209914435"></path>
                <path d="M124.981231,92.0308103 C121.562231,114.56181 104.732231,130.68881 87.3962309,128.06181 C70.0602309,125.42481 58.7882309,105.01981 62.2102309,82.4878103 C65.6402309,59.9548103 82.4652309,43.8238103 99.8002309,46.4568103 C117.140231,49.0898103 128.407231,69.4948103 124.981231,92.0308103" id="Fill-199" fill="#E23365"></path>
                <path d="M124.981231,92.0308103 C126.787231,80.1368103 124.499231,68.8398103 119.390231,60.4338103 C114.124231,76.6708103 97.6532309,116.76081 65.2782309,109.15081 C69.6212309,119.29181 77.5242309,126.55781 87.3962309,128.06181 C104.732231,130.68881 121.562231,114.56181 124.981231,92.0308103" id="Fill-201" fill="#414042" opacity="0.168480283"></path>
                <path d="M88.5993309,73.0702103 C83.7273309,77.9612103 78.2143309,80.0202103 74.5813309,76.3982103 C70.9373309,72.7672103 71.9363309,65.8682103 76.8103309,60.9822103 C81.6823309,56.0962103 88.5823309,55.0752103 92.2193309,58.7032103 C95.8573309,62.3302103 93.4693309,68.1862103 88.5993309,73.0702103" id="Fill-203" fill="#FFFFFF" opacity="0.209914435"></path>
                <path d="M134.939831,62.6893103 C137.518831,65.5253103 133.229831,77.9263103 133.229831,77.9263103 C133.229831,77.9263103 140.107831,89.1033103 138.207831,92.4303103 C136.305831,95.7603103 123.184831,95.5133103 123.184831,95.5133103 C123.184831,95.5133103 114.682831,105.50731 110.928831,104.72931 C107.175831,103.94631 103.353831,91.3943103 103.353831,91.3943103 C103.353831,91.3943103 91.2218309,86.3963103 90.8028309,82.5873103 C90.3848309,78.7753103 101.143831,71.2623103 101.143831,71.2623103 C101.143831,71.2623103 102.147831,58.1793103 105.644831,56.6033103 C109.138831,55.0273103 119.606831,62.9383103 119.606831,62.9383103 C119.606831,62.9383103 132.359831,59.8513103 134.939831,62.6893103" id="Fill-205" fill="#F79E3C"></path>
                <path d="M114.979631,63.0439103 C119.426631,67.6869103 125.621631,72.7219103 133.738631,76.3379103 C134.138631,75.0329103 134.695631,73.0729103 135.126631,71.0149103 C130.502631,68.8549103 126.184631,65.9809103 122.188631,62.3949103 C120.647631,62.6889103 119.606631,62.9389103 119.606631,62.9389103 C119.606631,62.9389103 114.296631,58.9299103 109.979631,57.1879103 C111.429631,59.0909103 113.088631,61.0729103 114.979631,63.0439103" id="Fill-207" fill="#FFFFFF"></path>
                <path d="M110.809131,70.1122103 C107.576131,66.7582103 105.049131,63.3512103 103.153131,60.4042103 C102.371131,62.6722103 101.861131,65.4972103 101.550131,67.6982103 C103.038131,69.6672103 104.750131,71.7142103 106.707131,73.7602103 C112.835131,80.1552103 122.263131,87.3142103 135.493131,90.4482103 C136.481131,90.6852103 137.499131,90.8892103 138.531131,91.0742103 C138.585131,89.5092103 137.897131,87.3332103 136.994131,85.2012103 C127.086131,82.9372103 118.317131,77.8962103 110.809131,70.1122103" id="Fill-209" fill="#FFFFFF"></path>
                <path d="M119.994931,98.9336103 C121.843931,97.0866103 123.184931,95.5136103 123.184931,95.5136103 C123.184931,95.5136103 124.720931,95.5416103 126.815931,95.4466103 C117.685931,92.9956103 109.560931,88.1076103 102.536931,80.8266103 C100.439931,78.6536103 98.6409309,76.4556103 97.1169309,74.3726103 C95.7549309,75.5146103 94.2829309,76.8496103 93.0999309,78.1776103 C94.6279309,80.2186103 96.4009309,82.3506103 98.4349309,84.4746103 C103.381931,89.6406103 110.483931,95.2986103 119.994931,98.9336103" id="Fill-211" fill="#FFFFFF"></path>
                <path d="M138.207331,92.4307103 C139.230331,90.6377103 137.708331,86.5767103 136.086331,83.2017103 C127.570331,86.2697103 108.275331,90.8997103 94.4833309,76.7397103 C92.3793309,78.7927103 90.6303309,81.0067103 90.8023309,82.5867103 C91.2223309,86.3967103 103.354331,91.3947103 103.354331,91.3947103 C103.354331,91.3947103 107.176331,103.94671 110.928331,104.72971 C114.683331,105.50771 123.185331,95.5137103 123.185331,95.5137103 C123.185331,95.5137103 136.306331,95.7607103 138.207331,92.4307103" id="Fill-213" fill="#414042" opacity="0.168480283"></path>
                <path d="M116.071731,75.8283103 C111.565731,75.8283103 108.070731,74.2313103 108.072731,70.8753103 C108.073731,67.5213103 111.726731,64.8023103 116.232731,64.8043103 C120.737731,64.8063103 124.388731,67.5283103 124.386731,70.8813103 C124.384731,74.2373103 120.576731,75.8323103 116.071731,75.8283103" id="Fill-215" fill="#FFFFFF" opacity="0.209914435"></path>
                <path d="M93.3760309,127.05611 C93.6050309,149.84511 79.5700309,168.45811 62.0370309,168.63611 C44.5030309,168.80611 30.1130309,150.46711 29.8880309,127.67711 C29.6700309,104.88211 43.6990309,86.2721103 61.2310309,86.0971103 C78.7690309,85.9231103 93.1530309,104.26511 93.3760309,127.05611" id="Fill-217" fill="#00B8C4"></path>
                <path d="M93.3760309,127.05611 C93.2580309,115.02611 89.1930309,104.24111 82.8040309,96.7601103 C80.2020309,113.63311 70.3550309,155.84111 37.1800309,153.50411 C43.0890309,162.82111 52.0530309,168.72811 62.0370309,168.63611 C79.5700309,168.45811 93.6050309,149.84511 93.3760309,127.05611" id="Fill-219" fill="#414042" opacity="0.168480283"></path>
                <path d="M54.4316309,114.16001 C50.4026309,119.76601 45.2906309,122.68101 41.1246309,119.68701 C36.9476309,116.68401 36.8306309,109.71601 40.8606309,104.11201 C44.8876309,98.5080103 51.5356309,96.3990103 55.7066309,99.3980103 C59.8776309,102.39701 58.4556309,108.56001 54.4316309,114.16001" id="Fill-221" fill="#FFFFFF" opacity="0.209914435"></path>
                <path d="M85.2833309,268.01281 L43.4903309,268.01281 C40.4763309,268.01281 38.0103309,265.54681 38.0103309,262.53381 L38.0103309,262.53381 C38.0103309,259.51981 40.4763309,257.05381 43.4903309,257.05381 L85.2833309,257.05381 C88.2973309,257.05381 90.7623309,259.51981 90.7623309,262.53381 L90.7623309,262.53381 C90.7623309,265.54681 88.2973309,268.01281 85.2833309,268.01281" id="Fill-223" fill="#F4716E"></path>
            </g>
        </g>
    </g>
</svg>