<?xml version="1.0" encoding="UTF-8"?>
<svg width="135px" height="134px" viewBox="0 0 135 134" version="1.1" xmlns="http://www.w3.org/2000/svg" xmlns:xlink="http://www.w3.org/1999/xlink">
    <!-- Generator: Sketch 53.1 (72631) - https://sketchapp.com -->
    <title>Group 49PlantPot</title>
    <desc>Created with Sketch.</desc>
    <g id="Page-1" stroke="none" stroke-width="1" fill="none" fill-rule="evenodd">
        <g id="Desktop-HD" transform="translate(-1056.000000, -2611.000000)">
            <g id="Group-49" transform="translate(1056.000000, 2611.000000)">
                <path d="M61.8197,56.4537336 C62.0327,53.3317336 61.7917,48.7177336 62.0057,45.5957336 C62.1657,43.2527336 62.3677,40.7857336 63.6947,38.8487336 C65.0797,36.8297336 67.6207,35.4807336 68.0707,33.0737336 C68.2127,32.3157336 68.1227,31.5177336 68.3477,30.7797336 C68.8997,28.9767336 70.9977,28.2527336 72.4507,27.0527336 C73.5727,26.1257336 74.3777,24.7727336 74.4697,23.3207336 C74.5617,21.8697336 73.8707,20.3507336 72.6187,19.6117336 C71.9477,19.2157336 71.0107,18.8397336 71.0527,18.0627336 C71.0647,17.8297336 71.1757,17.6137336 71.3007,17.4167336 C71.8277,16.5857336 72.6387,15.9557336 73.1077,15.0907336 C73.5757,14.2257336 73.5247,12.9217336 72.6367,12.5007336 C72.1907,12.2897336 71.6647,12.3627336 71.1837,12.2517336 C68.9337,11.7317336 68.9767,7.85373362 66.7467,7.25173362 C65.3307,6.86873362 64.0227,8.11073362 63.1697,9.30473362 C62.3167,10.4977336 61.3597,11.8977336 59.8977,12.0207336 C59.3297,12.0687336 58.7537,11.9057336 58.1907,11.9917336 C57.1557,12.1507336 56.3707,13.2597336 56.5657,14.2877336 C56.7367,15.1917336 57.4997,15.8417336 58.0307,16.5937336 C58.5617,17.3447336 58.8037,18.5297336 58.0677,19.0817336 C56.4267,18.2357336 54.3667,19.8987336 54.1947,21.7377336 C54.0237,23.5767336 55.1317,25.2877336 56.3757,26.6517336 C57.5727,27.9647336 59.0587,29.6337336 58.3447,31.2587336 C58.1347,31.7367336 57.7497,32.1247336 57.5607,32.6107336 C57.1967,33.5497336 57.6517,34.6207336 58.3017,35.3897336 C58.9507,36.1587336 59.4837,37.0847336 59.7877,38.0437336 C61.5947,43.7547336 61.0677,109.520734 61.0677,109.520734 L61.7617,109.477734 L61.8197,56.4537336 Z" id="Fill-1185" fill="#F79E3C"></path>
                <path d="M66.2543,7.53473362 C66.0853,8.25973362 66.3573,8.96773362 66.6363,9.62473362 C66.9173,10.2877336 67.2643,10.9547336 67.3283,11.7307336 C67.3583,12.1187336 67.2773,12.5097336 67.1403,12.8717336 C67.0043,13.2367336 66.7833,13.5557336 66.5523,13.8517336 C66.0833,14.4447336 65.5243,14.9237336 65.0413,15.4467336 C64.5543,15.9647336 64.1353,16.5237336 63.9643,17.1677336 C63.7733,17.8077336 63.8393,18.5007336 64.0173,19.1707336 C64.3713,20.5237336 65.1073,21.8097336 65.4943,23.2737336 C65.5903,23.6387336 65.6553,24.0187336 65.6823,24.4047336 C65.6993,24.7897336 65.6943,25.1817336 65.6263,25.5607336 C65.5063,26.3227336 65.2333,27.0417336 64.8953,27.7067336 C64.2093,29.0367336 63.3203,30.1957336 62.6213,31.4437336 C62.2693,32.0647336 61.9753,32.7147336 61.7983,33.3957336 C61.6103,34.0817336 61.5003,34.7967336 61.4493,35.5087336 C61.4023,36.2237336 61.4333,36.9447336 61.5533,37.6567336 C61.6703,38.3687336 61.8683,39.0697336 62.0983,39.7597336 C60.8583,37.1347336 60.7483,33.8687336 62.1813,31.2077336 C62.8543,29.8887336 63.7373,28.7137336 64.3533,27.4367336 C64.6613,26.8017336 64.9093,26.1437336 65.0083,25.4667336 C65.1143,24.7897336 65.0573,24.1067336 64.8753,23.4317336 C64.5343,22.0717336 63.8023,20.7887336 63.4323,19.3167336 C63.2533,18.5857336 63.1853,17.7727336 63.4283,17.0117336 C63.5443,16.6347336 63.7173,16.2737336 63.9423,15.9587336 C64.1683,15.6477336 64.4193,15.3617336 64.6843,15.1007336 C65.2093,14.5767336 65.7703,14.1147336 66.2313,13.5857336 C66.7023,13.0677336 67.0233,12.4327336 67.0173,11.7437336 C67.0093,11.0527336 66.7203,10.3707336 66.4793,9.68573362 C66.3583,9.34173362 66.2423,8.98973362 66.1843,8.62473362 C66.1283,8.26073362 66.1393,7.88173362 66.2543,7.53473362" id="Fill-1186" fill="#F79E3C"></path>
                <path d="M35.7004,49.1936336 C35.9654,46.0756336 35.8004,41.4576336 36.0654,38.3396336 C36.2634,36.0006336 36.5064,33.5366336 37.8654,31.6226336 C39.2834,29.6256336 41.8464,28.3186336 42.3364,25.9196336 C42.4904,25.1636336 42.4134,24.3646336 42.6504,23.6306336 C43.2314,21.8366336 45.3414,21.1476336 46.8154,19.9716336 C47.9514,19.0636336 48.7784,17.7236336 48.8944,16.2736336 C49.0104,14.8236336 48.3444,13.2946336 47.1044,12.5346336 C46.4404,12.1276336 45.5094,11.7366336 45.5644,10.9606336 C45.5804,10.7276336 45.6954,10.5136336 45.8234,10.3186336 C46.3634,9.49663362 47.1854,8.87963362 47.6684,8.02263362 C48.1514,7.16563362 48.1214,5.86063362 47.2394,5.42463362 C46.7974,5.20563362 46.2704,5.27063362 45.7914,5.15163362 C43.5504,4.59463362 43.6574,0.718633622 41.4374,0.0796336219 C40.0274,-0.326366378 38.7004,0.893633622 37.8274,2.07263362 C36.9544,3.25263362 35.9744,4.63563362 34.5104,4.73563362 C33.9414,4.77363362 33.3694,4.60163362 32.8044,4.67863362 C31.7674,4.81963362 30.9644,5.91563362 31.1424,6.94663362 C31.2984,7.85363362 32.0504,8.51663362 32.5684,9.27663362 C33.0874,10.0366336 33.3104,11.2246336 32.5654,11.7646336 C30.9374,10.8926336 28.8504,12.5206336 28.6484,14.3566336 C28.4474,16.1926336 29.5274,17.9216336 30.7484,19.3066336 C31.9234,20.6376336 33.3814,22.3316336 32.6404,23.9446336 C32.4224,24.4186336 32.0314,24.8006336 31.8354,25.2836336 C31.4554,26.2166336 31.8924,27.2946336 32.5294,28.0746336 C33.1664,28.8536336 33.6834,29.7886336 33.9714,30.7526336 C35.6854,36.4926336 33.9424,110.231634 33.9424,110.231634 L34.6364,110.199634 L35.7004,49.1936336 Z" id="Fill-1187" fill="#F79E3C"></path>
                <path d="M40.9405,0.354233622 C40.7605,1.07723362 41.0195,1.78923362 41.2885,2.45023362 C41.5575,3.11823362 41.8945,3.79023362 41.9455,4.56823362 C41.9695,4.95523362 41.8815,5.34623362 41.7385,5.70523362 C41.5955,6.06823362 41.3705,6.38323362 41.1345,6.67523362 C40.6555,7.26023362 40.0895,7.73023362 39.5965,8.24523362 C39.1025,8.75523362 38.6735,9.30723362 38.4925,9.94823362 C38.2905,10.5852336 38.3455,11.2792336 38.5125,11.9522336 C38.8445,13.3112336 39.5585,14.6082336 39.9205,16.0782336 C40.0115,16.4452336 40.0695,16.8262336 40.0905,17.2122336 C40.1015,17.5972336 40.0895,17.9892336 40.0155,18.3672336 C39.8835,19.1272336 39.5975,19.8422336 39.2485,20.5012336 C38.5415,21.8202336 37.6335,22.9632336 36.9145,24.2002336 C36.5515,24.8152336 36.2475,25.4602336 36.0585,26.1382336 C35.8595,26.8212336 35.7375,27.5342336 35.6755,28.2452336 C35.6165,28.9592336 35.6355,29.6812336 35.7445,30.3952336 C35.8495,31.1092336 36.0355,31.8122336 36.2545,32.5072336 C35.0575,29.8612336 35.0015,26.5942336 36.4785,23.9572336 C37.1725,22.6492336 38.0745,21.4882336 38.7115,20.2222336 C39.0305,19.5922336 39.2885,18.9382336 39.3995,18.2632336 C39.5165,17.5872336 39.4705,16.9042336 39.2995,16.2262336 C38.9815,14.8612336 38.2695,13.5662336 37.9245,12.0882336 C37.7575,11.3552336 37.7035,10.5402336 37.9585,9.78323362 C38.0815,9.40823362 38.2595,9.05023362 38.4895,8.73923362 C38.7215,8.43123362 38.9765,8.15023362 39.2455,7.89423362 C39.7795,7.37823362 40.3475,6.92523362 40.8175,6.40423362 C41.2965,5.89323362 41.6285,5.26423362 41.6335,4.57523362 C41.6375,3.88423362 41.3605,3.19723362 41.1305,2.50823362 C41.0145,2.16223362 40.9045,1.80923362 40.8525,1.44323362 C40.8025,1.07823362 40.8195,0.699233622 40.9405,0.354233622" id="Fill-1188" fill="#F79E3C"></path>
                <path d="M41.8178,76.8772336 C42.0308,73.7552336 41.7898,69.1412336 42.0038,66.0192336 C42.1638,63.6762336 42.3658,61.2092336 43.6928,59.2722336 C45.0778,57.2532336 47.6188,55.9042336 48.0688,53.4972336 C48.2108,52.7392336 48.1208,51.9412336 48.3458,51.2032336 C48.8978,49.4002336 50.9958,48.6762336 52.4488,47.4762336 C53.5708,46.5492336 54.3758,45.1962336 54.4678,43.7442336 C54.5598,42.2932336 53.8688,40.7742336 52.6168,40.0352336 C51.9458,39.6392336 51.0088,39.2632336 51.0508,38.4862336 C51.0628,38.2532336 51.1738,38.0372336 51.2988,37.8402336 C51.8258,37.0092336 52.6368,36.3792336 53.1058,35.5142336 C53.5738,34.6492336 53.5228,33.3452336 52.6348,32.9242336 C52.1888,32.7132336 51.6628,32.7862336 51.1818,32.6752336 C48.9318,32.1552336 48.9748,28.2772336 46.7448,27.6752336 C45.3288,27.2922336 44.0208,28.5342336 43.1678,29.7282336 C42.3148,30.9212336 41.3578,32.3212336 39.8958,32.4442336 C39.3278,32.4922336 38.7518,32.3292336 38.1888,32.4152336 C37.1538,32.5742336 36.3688,33.6832336 36.5638,34.7112336 C36.7348,35.6152336 37.4978,36.2652336 38.0288,37.0172336 C38.5598,37.7682336 38.8018,38.9532336 38.0658,39.5052336 C36.4248,38.6592336 34.3648,40.3222336 34.1928,42.1612336 C34.0218,44.0002336 35.1298,45.7112336 36.3738,47.0752336 C37.5708,48.3882336 39.0568,50.0572336 38.3428,51.6822336 C38.1328,52.1602336 37.7478,52.5472336 37.5588,53.0342336 C37.1948,53.9732336 37.6498,55.0442336 38.2998,55.8132336 C38.9488,56.5822336 39.4818,57.5082336 39.7858,58.4672336 C41.5928,64.1782336 41.0658,107.888234 41.0658,107.888234 L41.7598,107.844234 L41.8178,76.8772336 Z" id="Fill-1189" fill="#F79E3C"></path>
                <path d="M46.2523,27.9582336 C46.0833,28.6832336 46.3553,29.3912336 46.6343,30.0482336 C46.9153,30.7112336 47.2623,31.3782336 47.3263,32.1542336 C47.3563,32.5422336 47.2753,32.9332336 47.1383,33.2952336 C47.0013,33.6602336 46.7813,33.9792336 46.5503,34.2752336 C46.0813,34.8682336 45.5223,35.3472336 45.0393,35.8702336 C44.5523,36.3882336 44.1333,36.9472336 43.9623,37.5912336 C43.7713,38.2312336 43.8373,38.9242336 44.0153,39.5942336 C44.3693,40.9472336 45.1053,42.2332336 45.4923,43.6972336 C45.5883,44.0622336 45.6533,44.4422336 45.6803,44.8282336 C45.6973,45.2132336 45.6923,45.6052336 45.6243,45.9842336 C45.5043,46.7462336 45.2313,47.4652336 44.8933,48.1302336 C44.2073,49.4602336 43.3183,50.6192336 42.6193,51.8672336 C42.2673,52.4882336 41.9733,53.1382336 41.7963,53.8192336 C41.6083,54.5052336 41.4983,55.2202336 41.4473,55.9322336 C41.4003,56.6472336 41.4313,57.3682336 41.5513,58.0802336 C41.6683,58.7922336 41.8663,59.4932336 42.0963,60.1832336 C40.8563,57.5582336 40.7463,54.2922336 42.1793,51.6312336 C42.8523,50.3122336 43.7353,49.1372336 44.3513,47.8602336 C44.6593,47.2252336 44.9073,46.5672336 45.0063,45.8902336 C45.1123,45.2132336 45.0553,44.5302336 44.8733,43.8552336 C44.5323,42.4952336 43.8003,41.2122336 43.4303,39.7402336 C43.2513,39.0092336 43.1833,38.1962336 43.4263,37.4352336 C43.5423,37.0582336 43.7153,36.6972336 43.9403,36.3822336 C44.1663,36.0712336 44.4173,35.7852336 44.6823,35.5242336 C45.2073,35.0002336 45.7683,34.5382336 46.2293,34.0092336 C46.7003,33.4912336 47.0213,32.8562336 47.0153,32.1672336 C47.0073,31.4762336 46.7183,30.7942336 46.4773,30.1092336 C46.3563,29.7652336 46.2403,29.4132336 46.1823,29.0482336 C46.1263,28.6842336 46.1373,28.3052336 46.2523,27.9582336" id="Fill-1190" fill="#F79E3C"></path>
                <path d="M57.3178,67.6451336 C59.5078,84.9291336 48.6798,99.8781336 54.3098,116.933134 C54.5018,117.516134 55.4288,117.266134 55.2338,116.678134 C52.3868,108.051134 54.0018,101.234134 55.8228,92.5761336 C57.5378,84.4191336 59.3368,76.0131336 58.2768,67.6451336 C58.1998,67.0411336 57.2408,67.0331336 57.3178,67.6451336" id="Fill-1191" fill="#B74168"></path>
                <path d="M57.7972,68.7213336 C60.3552,65.8133336 66.0342,60.1243336 68.5922,57.2163336 C69.5772,56.0963336 70.5842,54.9413336 71.0922,53.5393336 C71.2972,52.9723336 71.4052,52.3053336 71.0832,51.7963336 C70.7062,51.1983336 69.8542,51.0583336 69.1862,51.2883336 C68.5172,51.5183336 67.9902,52.0283336 67.4862,52.5243336 C65.8222,54.1603336 64.1592,55.7973336 62.4952,57.4333336 C64.0992,54.9153336 65.7022,52.3973336 67.3062,49.8783336 C68.2482,48.3973336 69.2282,46.6233336 68.6072,44.9813336 C68.5032,44.7073336 68.3412,44.4333336 68.0772,44.3053336 C67.5702,44.0603336 66.9972,44.4463336 66.5682,44.8103336 C64.9902,46.1483336 63.4122,47.4853336 61.8342,48.8233336 C63.2742,46.3843336 64.5032,43.8193336 65.5022,41.1683336 C66.3912,38.8103336 68.2842,34.8533336 65.7822,34.5483336 C64.3142,34.3693336 62.0892,38.8583336 61.0342,41.5003336 C60.7062,37.4653336 61.3192,29.2173336 58.3452,29.1143336 C56.0662,29.0353336 54.9712,32.9343336 55.1162,35.2103336 C55.2602,37.4863336 56.0372,39.7983336 55.4382,41.9993336 C54.5382,40.1723336 53.6382,38.3463336 52.7392,36.5203336 C52.2412,35.5093336 51.1902,34.3153336 50.2312,34.9073336 C49.6842,35.2453336 49.5842,35.9883336 49.5682,36.6323336 C49.4502,41.2233336 50.6942,45.8413336 53.1022,49.7523336 C51.5922,48.2693336 50.0822,46.7853336 48.5722,45.3013336 C48.3152,45.0493336 48.0392,44.7863336 47.6882,44.7093336 C47.0692,44.5723336 46.4562,45.0953336 46.2722,45.7013336 C46.0872,46.3083336 46.2202,46.9613336 46.3732,47.5763336 C47.3012,51.3073336 48.9442,54.8583336 51.1852,57.9813336 C49.7582,56.6833336 48.3302,55.3853336 46.9032,54.0873336 C46.5142,53.7343336 46.0742,53.3593336 45.5492,53.3533336 C44.2302,53.3383336 44.0752,55.3083336 44.5592,56.5353336 C45.7762,59.6153336 48.0692,62.2593336 50.9482,63.8973336 L57.7972,68.7213336 Z" id="Fill-1192" fill="#B74168"></path>
                <path d="M106.516,117.264434 C106.516,117.264434 104.478,111.620434 99.885,108.180434 C96.945,105.977434 91.279,106.014434 91.279,106.014434 C91.279,106.014434 91.182,100.472434 86.925,99.2784336 C82.667,98.0854336 80.64,99.2784336 80.64,99.2784336 C80.64,99.2784336 79.939,92.8064336 74.431,92.3944336 C68.923,91.9824336 66.478,96.6134336 66.478,96.6134336 C66.478,96.6134336 62.181,92.0714336 57.931,93.1574336 C53.681,94.2434336 53.042,97.7794336 53.042,97.7794336 C53.042,97.7794336 48.186,94.3424336 43.337,96.6134336 C38.488,98.8834336 38.811,103.228434 38.811,103.228434 C38.811,103.228434 30.223,103.966434 29.549,110.282434 C29.549,110.282434 20.841,112.091434 20.302,117.264434 L106.516,117.264434 Z" id="Fill-1193" fill="#595BD9"></path>
                <path d="M50.9843,116.944734 C50.9843,116.944734 0.0213,125.730734 4.1583,50.8607336 C4.1583,50.8607336 70.0273,57.5327336 50.9843,116.944734" id="Fill-1194" fill="#E23365"></path>
                <path d="M50.9845,117.264434 C50.8845,117.264434 50.7855,117.217434 50.7235,117.129434 L3.8975,51.0454336 C3.7955,50.9014336 3.8295,50.7014336 3.9735,50.5994336 C4.1175,50.4974336 4.3175,50.5314336 4.4195,50.6754336 L51.2455,116.760434 C51.3475,116.903434 51.3135,117.103434 51.1695,117.205434 C51.1125,117.245434 51.0485,117.264434 50.9845,117.264434" id="Fill-1195" fill="#FAF8EB"></path>
                <path d="M13.0285,63.6981336 C12.9985,63.6981336 12.9685,63.6941336 12.9395,63.6851336 L3.8385,61.0391336 C3.6695,60.9901336 3.5715,60.8121336 3.6205,60.6431336 C3.6705,60.4731336 3.8465,60.3761336 4.0175,60.4251336 L12.7135,62.9541336 L12.8225,52.5671336 C12.8245,52.3921336 12.9675,52.2511336 13.1425,52.2511336 L13.1455,52.2511336 C13.3225,52.2531336 13.4635,52.3981336 13.4615,52.5741336 L13.3485,63.3821336 C13.3475,63.4821336 13.2995,63.5751336 13.2195,63.6351336 C13.1635,63.6761336 13.0965,63.6981336 13.0285,63.6981336" id="Fill-1196" fill="#FAF8EB"></path>
                <path d="M19.3099,72.5630336 C19.2799,72.5630336 19.2509,72.5590336 19.2219,72.5510336 L4.1249,68.2160336 C3.9549,68.1680336 3.8569,67.9910336 3.9059,67.8210336 C3.9539,67.6510336 4.1309,67.5540336 4.3009,67.6020336 L18.9999,71.8220336 L19.4129,54.5070336 C19.4169,54.3310336 19.5689,54.1930336 19.7399,54.1950336 C19.9159,54.2000336 20.0559,54.3460336 20.0519,54.5220336 L19.6299,72.2510336 C19.6269,72.3500336 19.5789,72.4420336 19.4989,72.5010336 C19.4439,72.5420336 19.3769,72.5630336 19.3099,72.5630336" id="Fill-1197" fill="#FAF8EB"></path>
                <path d="M26.7777,83.1019336 C26.7477,83.1019336 26.7167,83.0979336 26.6867,83.0889336 L5.0737,76.7019336 C4.9037,76.6519336 4.8077,76.4739336 4.8577,76.3049336 C4.9077,76.1359336 5.0857,76.0379336 5.2547,76.0889336 L26.4617,82.3559336 L26.6697,57.4009336 C26.6717,57.2249336 26.8147,57.0839336 26.9897,57.0839336 L26.9917,57.0839336 C27.1687,57.0859336 27.3107,57.2299336 27.3097,57.4059336 L27.0977,82.7849336 C27.0967,82.8849336 27.0487,82.9789336 26.9677,83.0389336 C26.9127,83.0799336 26.8457,83.1019336 26.7777,83.1019336" id="Fill-1198" fill="#FAF8EB"></path>
                <path d="M34.0233,93.3277336 C33.9933,93.3277336 33.9623,93.3237336 33.9333,93.3147336 L6.9373,85.3697336 C6.7683,85.3197336 6.6713,85.1417336 6.7213,84.9727336 C6.7713,84.8027336 6.9493,84.7057336 7.1183,84.7557336 L33.7143,92.5837336 L34.5303,61.7047336 C34.5353,61.5277336 34.6793,61.3787336 34.8583,61.3937336 C35.0353,61.3977336 35.1743,61.5447336 35.1693,61.7217336 L34.3433,93.0167336 C34.3403,93.1157336 34.2913,93.2077336 34.2113,93.2667336 C34.1563,93.3067336 34.0903,93.3277336 34.0233,93.3277336" id="Fill-1199" fill="#FAF8EB"></path>
                <path d="M39.7282,101.378934 C39.7032,101.378934 39.6782,101.375934 39.6532,101.369934 L10.1612,94.2159336 C9.9892,94.1739336 9.8842,94.0009336 9.9262,93.8299336 C9.9672,93.6579336 10.1422,93.5529336 10.3122,93.5949336 L39.4192,100.654934 L40.3532,66.0929336 C40.3582,65.9169336 40.5052,65.7739336 40.6812,65.7819336 C40.8582,65.7869336 40.9972,65.9339336 40.9922,66.1109336 L40.0482,101.067934 C40.0452,101.164934 39.9992,101.254934 39.9222,101.312934 C39.8662,101.355934 39.7972,101.378934 39.7282,101.378934" id="Fill-1200" fill="#FAF8EB"></path>
                <path d="M46.2826,110.628934 C46.2596,110.628934 46.2356,110.626934 46.2136,110.620934 L16.1886,103.932934 C16.0166,103.893934 15.9086,103.722934 15.9466,103.550934 C15.9856,103.378934 16.1576,103.271934 16.3276,103.307934 L45.9786,109.913934 L47.3926,73.9759336 C47.3986,73.7999336 47.5476,73.6599336 47.7236,73.6689336 C47.9006,73.6759336 48.0376,73.8249336 48.0306,74.0009336 L46.6016,110.321934 C46.5986,110.416934 46.5526,110.504934 46.4776,110.562934 C46.4216,110.605934 46.3526,110.628934 46.2826,110.628934" id="Fill-1201" fill="#FAF8EB"></path>
                <path d="M93.7996,117.264434 C95.2846,112.726434 98.6976,109.685434 101.5216,106.802434 C104.3466,103.919434 107.1706,101.036434 109.9946,98.1544336 C111.8336,96.2764336 113.7456,94.2754336 114.3966,91.7284336 C115.0476,89.1824336 113.8906,85.9734336 111.3416,85.3304336 C109.9566,84.9814336 107.8946,84.9684336 107.8356,83.5414336 C107.8166,83.1054336 108.0426,82.7004336 108.2846,82.3374336 C109.8386,80.0154336 112.2816,78.4764336 114.5736,76.8794336 C116.8656,75.2824336 119.1716,73.4334336 120.1966,70.8344336 C121.2226,68.2354336 120.4346,64.7274336 117.8626,63.6364336 C115.5346,62.6484336 111.7446,63.1604336 111.4406,60.6494336 C111.3576,59.9614336 111.6466,59.2864336 111.9636,58.6704336 C113.6966,55.2974336 116.4156,52.5584336 118.7756,49.5894336 C121.1356,46.6214336 123.2286,43.1744336 123.3236,39.3834336 C123.4176,35.5934336 120.8526,31.5284336 117.0816,31.1314336 C112.8496,30.6864336 107.9636,34.5654336 104.8016,31.7164336 C103.5676,30.6034336 103.2136,28.8394336 102.9276,27.2034336 C102.4446,24.4334336 101.9606,21.6644336 101.4766,18.8954336 C100.9916,16.1164336 100.3916,13.1204336 98.3006,11.2274336 C95.4626,8.65743362 90.8986,9.15743362 87.5506,11.0134336 C81.7716,14.2154336 78.2616,21.0904336 79.0556,27.6494336 C79.2586,29.3244336 79.7156,31.0034336 79.4886,32.6754336 C79.2606,34.3474336 78.0736,36.0644336 76.3896,36.1704336 C75.8226,36.2054336 75.2616,36.0574336 74.6956,36.0104336 C71.5426,35.7504336 68.8826,38.8324336 68.5466,41.9794336 C68.2106,45.1254336 69.5946,48.1924336 71.1826,50.9294336 C72.7696,53.6664336 74.6246,56.3274336 75.3856,59.3984336 C75.6926,60.6394336 75.6506,62.2524336 74.5116,62.8314336 C73.8366,63.1734336 73.0276,63.0034336 72.2766,63.0894336 C70.2516,63.3214336 68.8876,65.4644336 68.8096,67.5004336 C68.7306,69.5364336 69.6066,71.4734336 70.4636,73.3224336 C72.4066,77.5124336 74.3486,81.7024336 76.2916,85.8924336 C73.8166,85.7934336 70.5736,86.2634336 70.1186,88.6984336 C69.9626,89.5324336 70.2186,90.3844336 70.5286,91.1734336 C71.6896,94.1264336 73.6576,96.7564336 76.1626,98.7024336 C78.3546,100.406434 80.9356,101.588434 83.0066,103.438434 C85.0776,105.287434 87.4946,109.645434 88.5456,117.264434 L93.7996,117.264434 Z" id="Fill-1202" fill="#E23365"></path>
                <path d="M92.2536,117.264434 C92.2536,117.264434 97.1996,95.9834336 112.5976,94.4024336 C120.9606,93.5434336 116.8916,100.506434 111.2406,101.862434 C100.1906,104.515434 93.7996,117.264434 93.7996,117.264434 L92.2536,117.264434 Z" id="Fill-1203" fill="#E23365"></path>
                <path d="M90.9316,117.264434 C90.9316,117.264434 89.9656,106.595434 92.5686,98.9014336 C94.9706,91.8024336 100.4446,85.8884336 106.0866,86.2754336 C111.7286,86.6634336 112.2986,90.5044336 106.0866,91.9124336 C100.0956,93.2714336 96.2196,99.5014336 94.9476,103.055434 C93.3416,107.539434 92.1756,117.264434 92.1756,117.264434 L90.9316,117.264434 Z" id="Fill-1204" fill="#E23365"></path>
                <path d="M94.7479,117.264434 C94.7479,117.264434 97.9869,106.480434 109.0989,107.049434 C114.6059,107.331434 113.5679,112.411434 108.1419,111.705434 C100.4959,110.710434 96.2899,117.264434 96.2899,117.264434 L94.7479,117.264434 Z" id="Fill-1205" fill="#E23365"></path>
                <path d="M43.954,117.264434 C43.549,111.381434 44.188,105.429434 45.831,99.7664336 C46.681,96.8374336 47.8,93.9744336 48.321,90.9684336 C49.562,83.7974336 47.088,76.0844336 41.907,70.9734336 C40.106,69.1984336 37.986,67.6974336 36.592,65.5874336 C32.593,59.5394336 35.787,50.6624336 31.675,44.6914336 C30.337,42.7484336 28.363,41.3514336 26.708,39.6704336 C24.467,37.3944336 22.801,34.5574336 21.904,31.4924336 C20.707,27.4034336 20.865,22.9664336 19.31,18.9994336 C16.715,12.3774336 9.041,8.18443362 2.067,9.57643362 L5.68434189e-14,10.0324336 L2.023,10.5244336 C5.28,10.7704336 7.709,13.9214336 8.259,17.1414336 C8.809,20.3614336 7.927,23.6344336 7.068,26.7854336 C6.209,29.9374336 5.359,33.2264336 5.974,36.4344336 C7.194,42.7964336 13.771,47.0764336 15.047,53.4274336 C16.081,58.5714336 13.432,64.2524336 15.679,68.9934336 C17.293,72.3964336 21.042,74.3414336 22.872,77.6334336 C25.474,82.3144336 23.699,88.7504336 26.992,92.9724336 C29.283,95.9084336 33.338,96.8194336 36.138,99.2744336 C40.033,102.691434 42.586,112.099434 42.164,117.264434 L43.954,117.264434 Z" id="Fill-1206" fill="#B74168"></path>
                <path d="M11.1035,13.5670336 C14.8955,16.3770336 15.8805,21.5660336 16.2975,26.2670336 C16.7155,30.9680336 16.9955,36.0610336 20.0265,39.6790336 C21.0955,40.9550336 22.4545,41.9670336 23.5135,43.2530336 C28.2695,49.0270336 25.6205,58.0850336 29.1445,64.6840336 C29.8975,66.0940336 30.9125,67.3440336 31.8895,68.6100336 C34.8355,72.4270336 37.5565,76.6220336 38.3875,81.3720336 C39.2475,86.2860336 38.0335,91.5220336 39.7165,96.2180336 C36.5645,89.6070336 37.1315,81.4600336 32.9675,75.4340336 C30.9275,72.4820336 27.8715,70.2540336 26.2775,67.0380336 C25.5145,65.4980336 25.1265,63.8020336 24.8405,62.1070336 C23.9725,56.9500336 23.9505,51.4860336 21.4945,46.8690336 C19.4155,42.9610336 15.6995,39.9040336 14.5575,35.6280336 C13.6815,32.3460336 14.4735,28.8820336 14.5215,25.4860336 C14.5745,21.6960336 13.6715,17.8970336 11.9195,14.5370336" id="Fill-1207" fill="#0E4361"></path>
                <path d="M117.4706,31.9165336 C116.6516,31.8725336 117.0606,29.4775336 117.8806,29.6505336 C118.6996,29.8245336 118.2896,31.9605336 117.4706,31.9165336 M115.5396,30.9365336 C115.3756,31.7575336 109.8736,32.8315336 109.8636,30.5265336 C109.8536,28.2215336 112.3216,29.0675336 113.2576,29.6505336 C114.1936,30.2335336 115.7736,29.7655336 115.5396,30.9365336 M108.7516,20.5785336 C108.8106,21.9245336 108.1666,23.8375336 107.1136,23.2025336 C106.0596,22.5685336 106.4696,17.0095336 108.7516,16.7165336 C109.5826,16.6105336 108.6936,19.2325336 108.7516,20.5785336 M106.8206,26.7225336 C106.0016,26.5475336 105.9426,24.3235336 106.8206,24.3825336 C107.6986,24.4405336 107.6396,26.8985336 106.8206,26.7225336 M101.4956,29.6485336 C99.0966,29.5315336 100.7936,25.3185336 101.8466,25.2595336 C102.9006,25.2015336 103.8946,29.7655336 101.4956,29.6485336 M96.8576,26.4885336 C96.6976,28.5955336 96.1706,31.9305336 94.1226,31.4625336 C92.0746,30.9945336 93.7996,20.1695336 96.8576,19.7595336 C98.9066,19.4855336 97.0176,24.3825336 96.8576,26.4885336 M87.6276,39.7135336 C85.5206,40.1815336 86.2816,35.5005336 87.6276,35.1495336 C88.7166,34.8655336 89.7346,39.2455336 87.6276,39.7135336 M116.0836,26.0085336 C116.6456,24.7715336 118.2996,24.5565336 119.6546,24.6595336 C121.0096,24.7625336 122.5486,24.9505336 123.5616,24.0455336 C122.2956,22.1865336 121.7956,19.8215336 122.1996,17.6095336 C120.2546,18.0775336 118.5456,14.9625336 118.5456,14.9625336 C117.7886,13.9405336 116.0426,14.3785336 115.3056,15.4165336 C114.5686,16.4535336 114.4946,17.8005336 114.2586,19.0505336 C114.0226,20.3005336 113.4646,21.6625336 112.2726,22.1095336 C111.6516,19.3735336 112.1366,16.4025336 113.5956,14.0045336 C111.9196,14.2455336 110.2346,13.1635336 108.5796,13.5175336 C106.7126,13.9165336 105.7036,15.9235336 105.1386,17.7475336 C104.5746,19.5715336 104.0716,21.6195336 102.4936,22.6935336 C102.4776,19.8185336 102.8676,16.9415336 103.6496,14.1745336 C101.4436,14.2655336 99.8166,16.3865336 97.6556,16.8395336 C96.5616,17.0685336 95.3996,16.8515336 94.3246,17.1565336 C92.1646,17.7715336 91.1266,20.1855336 90.5316,22.3515336 C89.8856,24.7025336 89.4196,27.1025336 89.1396,29.5235336 C88.9806,30.8915336 88.8066,32.4155336 87.7546,33.3025336 C86.9336,33.2215336 86.6376,32.1765336 86.6426,31.3515336 C86.6686,26.8315336 89.5876,22.6685336 89.4316,18.1515336 C88.0796,19.9525336 85.6506,20.6115336 84.1016,22.2465336 C82.1166,24.3425336 81.9796,27.5275336 81.9576,30.4135336 C81.9386,32.8845336 81.9206,35.3545336 81.9016,37.8245336 C79.8146,36.7325336 79.2316,34.0295336 79.1926,31.6745336 C79.1476,28.9265336 79.5246,26.1915336 79.8996,23.4685336 C78.2386,23.2775336 77.3936,25.3215336 76.6056,26.7965336 C75.5996,28.6795336 73.9126,30.0975336 72.6526,31.8215336 C70.8216,34.3275336 69.9326,37.5065336 70.2006,40.5995336 C70.3956,42.8615336 70.8456,46.6145336 72.4136,48.2565336 C73.9816,49.8985336 76.7916,51.0375336 79.6346,51.4375336 C79.6346,51.4375336 79.8466,56.0135336 80.6076,57.8245336 C81.2036,59.2395336 82.6546,60.1005336 84.1006,60.6185336 C88.1516,62.0685336 92.6246,61.5535336 96.8486,60.7305336 C98.8746,60.3365336 101.1856,59.6335336 101.9446,57.7145336 C100.5506,58.8105336 98.4566,58.3485336 96.9906,57.3515336 C95.5246,56.3545336 94.4036,54.9145336 92.9436,53.9095336 C92.4106,53.5425336 91.8176,53.2175336 91.4656,52.6755336 C91.1126,52.1345336 91.1276,51.2815336 91.6876,50.9595336 C94.4256,52.0715336 96.2216,54.8585336 98.9726,55.9355336 C102.4116,57.2815336 106.7776,55.1265336 107.8016,51.5785336 C103.3156,51.9725336 98.6966,50.5605336 95.1976,47.7255336 C95.4926,47.0075336 96.5266,47.0985336 97.2706,47.3175336 C99.8216,48.0655336 102.3726,48.8135336 104.9236,49.5615336 C106.0386,49.8885336 107.1806,50.2185336 108.3396,50.1505336 C110.0816,50.0495336 111.6726,49.0465336 112.8476,47.7565336 C114.0226,46.4665336 114.8436,44.9015336 115.6516,43.3545336 C110.3916,43.5165336 104.7296,43.5665336 100.3906,40.5885336 C103.8206,40.9715336 107.2506,41.3545336 110.6816,41.7375336 C112.1036,41.8955336 113.5946,42.0455336 114.9226,41.5125336 C117.4766,40.4875336 118.4426,37.4435336 119.0996,34.7705336 C116.0236,35.7395336 112.7416,36.0505336 109.5376,35.6775336 C109.1066,35.6275336 108.6536,35.5545336 108.3206,35.2775336 C107.9866,35.0005336 107.8446,34.4485336 108.1396,34.1295336 C111.1886,34.5785336 114.3896,34.7805336 117.2736,33.6935336 C120.1576,32.6075336 122.6366,29.9315336 122.6166,26.8495336 C120.4136,26.9135336 118.1996,26.6285336 116.0836,26.0085336" id="Fill-1208" fill="#00B8C4"></path>
                <path d="M114.3917,22.8636336 C109.1307,29.5836336 101.3247,33.3586336 94.5497,38.2836336 C90.8657,40.9606336 87.3837,43.9036336 83.9587,46.9016336 C80.9627,49.5256336 77.6987,52.1236336 75.5727,55.5486336 C73.4937,58.8976336 73.1297,62.8126336 72.8377,66.6556336 C72.6277,69.4186336 72.4717,72.1866336 72.3347,74.9546336 C71.9907,81.8776336 71.7677,88.8076336 71.6217,95.7366336 C71.4737,102.753634 71.3597,109.784634 71.5847,116.801634 C71.6047,117.417634 72.5637,117.419634 72.5437,116.801634 C72.1327,103.973634 72.5787,91.0796336 73.1397,78.2626336 C73.2667,75.3536336 73.4117,72.4456336 73.5967,69.5396336 C73.8247,65.9516336 73.8707,62.1776336 75.0817,58.7606336 C76.5297,54.6726336 79.8967,51.7606336 83.0557,48.9716336 C86.5567,45.8796336 90.0887,42.8116336 93.8247,40.0056336 C100.9687,34.6396336 109.4587,30.7086336 115.0697,23.5416336 C115.4457,23.0616336 114.7717,22.3776336 114.3917,22.8636336" id="Fill-1209" fill="#0E4361"></path>
                <path d="M107.3734,38.2261336 C106.5004,38.2261336 105.4394,38.1491336 104.2344,37.9111336 C100.9544,37.2661336 98.1354,36.8261336 98.1074,36.8221336 C97.8454,36.7811336 97.6664,36.5361336 97.7074,36.2741336 C97.7474,36.0121336 97.9944,35.8351336 98.2544,35.8741336 C98.2824,35.8781336 101.1204,36.3211336 104.4204,36.9701336 C107.5814,37.5931336 109.7164,37.0331336 109.7374,37.0271336 C109.9914,36.9571336 110.2564,37.1081336 110.3254,37.3631336 C110.3954,37.6191336 110.2454,37.8821336 109.9904,37.9521336 C109.9294,37.9691336 108.9644,38.2261336 107.3734,38.2261336" id="Fill-1210" fill="#0E4361"></path>
                <path d="M96.3125,51.0053336 C96.2555,51.0053336 96.1975,50.9953336 96.1415,50.9733336 C96.0825,50.9513336 94.6465,50.3973336 91.8595,48.7663336 C89.1345,47.1713336 86.1645,45.9433336 86.1355,45.9303336 C85.8905,45.8303336 85.7735,45.5493336 85.8745,45.3043336 C85.9745,45.0603336 86.2535,44.9433336 86.5005,45.0433336 C86.5305,45.0563336 89.5625,46.3103336 92.3435,47.9383336 C95.0625,49.5303336 96.4695,50.0723336 96.4835,50.0773336 C96.7305,50.1723336 96.8545,50.4493336 96.7605,50.6963336 C96.6875,50.8873336 96.5055,51.0053336 96.3125,51.0053336" id="Fill-1211" fill="#0E4361"></path>
                <path d="M91.3152,41.8220336 C91.1722,41.8220336 91.0312,41.7580336 90.9362,41.6370336 C90.7742,41.4280336 90.8112,41.1270336 91.0202,40.9640336 C91.0692,40.9250336 92.2842,39.9160336 91.5812,37.9040336 C90.7072,35.4020336 91.5362,32.3880336 91.5722,32.2610336 C91.6432,32.0070336 91.9092,31.8580336 92.1632,31.9290336 C92.4182,32.0010336 92.5662,32.2650336 92.4952,32.5200336 C92.4872,32.5490336 91.7132,35.3750336 92.4862,37.5870336 C93.4232,40.2690336 91.6842,41.6630336 91.6092,41.7210336 C91.5222,41.7890336 91.4182,41.8220336 91.3152,41.8220336" id="Fill-1212" fill="#0E4361"></path>
                <path d="M93.3315,114.760134 C95.6115,111.839134 95.9735,107.886134 95.9815,104.181134 C95.9905,100.475134 95.7565,96.6411336 97.1265,93.1991336 C99.3095,87.7161336 105.0905,84.3721336 107.5565,79.0111336 C109.3215,75.1721336 109.3705,70.3671336 112.4425,67.4661336 C114.2905,65.7201336 116.8725,65.0511336 119.1635,63.9491336 C123.7495,61.7441336 127.3415,57.5581336 128.8245,52.6901336 C130.3235,47.7731336 130.2875,41.4801336 134.7875,38.9961336 C130.6495,38.9361336 127.1775,42.1051336 124.7705,45.4721336 C122.3645,48.8401336 120.4575,52.6931336 117.1955,55.2401336 C111.6415,59.5761336 103.6185,59.0581336 97.5175,62.5821336 C94.8295,64.1341336 92.5935,66.4601336 91.1485,69.2071336 C89.9725,71.4411336 89.3245,73.9081336 88.3775,76.2491336 C86.0505,82.0051336 81.9665,86.8861336 79.3215,92.5031336 C76.6755,98.1201336 76.4215,104.487134 79.0955,111.746134 C81.9475,119.487134 91.0515,117.681134 93.3315,114.760134" id="Fill-1213" fill="#9B244B"></path>
                <path d="M87.5924,107.314034 C83.4074,102.246034 86.9394,95.4650336 89.9964,90.8600336 C91.6024,88.4400336 93.2914,86.0530336 94.4044,83.3520336 C95.4394,80.8400336 95.9264,78.1600336 96.6624,75.5550336 C97.4364,72.8130336 98.5634,70.2470336 100.6294,68.2320336 C102.2474,66.6550336 104.2204,65.5000336 106.2364,64.5090336 C110.3434,62.4900336 114.8444,61.1310336 118.5524,58.3740336 C120.5434,56.8940336 122.0644,55.0580336 123.3024,52.9150336 C124.8944,50.1580336 126.1114,47.1850336 128.4374,44.9320336 C128.8814,44.5020336 128.2024,43.8250336 127.7594,44.2540336 C123.7264,48.1600336 122.6824,54.0960336 118.0684,57.5460336 C114.1454,60.4800336 109.3194,61.8200336 105.0134,64.0530336 C100.5144,66.3860336 97.4534,69.6620336 95.9524,74.5610336 C95.0024,77.6640336 94.5164,80.9020336 93.1374,83.8650336 C91.8314,86.6730336 89.9234,89.1460336 88.2704,91.7500336 C85.2604,96.4940336 82.8694,103.094034 86.9144,107.992034 C87.3074,108.468034 87.9824,107.787034 87.5924,107.314034" id="Fill-1214" fill="#9B244B"></path>
                <path d="M63.0095,117.264434 C62.8325,117.264434 62.6895,117.121434 62.6895,116.944434 L62.6895,60.6024336 C62.6895,60.4264336 62.8325,60.2834336 63.0095,60.2834336 C63.1865,60.2834336 63.3295,60.4264336 63.3295,60.6024336 L63.3295,116.944434 C63.3295,117.121434 63.1865,117.264434 63.0095,117.264434" id="Fill-1215" fill="#F79E3C"></path>
                <path d="M63.0096,62.1720336 C63.0096,62.1720336 69.5726,61.3520336 68.3626,55.4020336 C67.3486,50.4150336 62.8396,48.0630336 62.8396,48.0630336 C62.8396,48.0630336 57.2236,50.7910336 56.8706,56.1420336 C56.4726,62.1720336 63.0096,62.1720336 63.0096,62.1720336" id="Fill-1216" fill="#E23365"></path>
                <polygon id="Fill-1217" fill="#F79E3C" points="62.8497 62.1739336 62.6797 48.0649336 62.9997 48.0609336 63.1697 62.1699336"></polygon>
                <polygon id="Fill-1218" fill="#F79E3C" points="62.8508 52.0858336 60.8448 49.3578336 61.1018 49.1678336 62.8288 51.5158336 64.3268 49.1028336 64.5988 49.2708336"></polygon>
                <polygon id="Fill-1219" fill="#F79E3C" points="62.9357 55.5598336 59.3467 50.6968336 59.6047 50.5068336 62.9177 54.9968336 65.7917 50.5158336 66.0607 50.6878336"></polygon>
                <polygon id="Fill-1220" fill="#F79E3C" points="62.9769 59.3731336 57.9109 52.5711336 58.1669 52.3801336 62.9679 58.8261336 67.2729 52.6431336 67.5349 52.8251336"></polygon>
                <polygon id="Fill-1221" fill="#F79E3C" points="63.0142 62.4321336 56.9462 54.9281336 57.1942 54.7271336 63.0052 61.9121336 68.1722 55.0221336 68.4282 55.2131336"></polygon>
                <path d="M67.1699,72.7353336 C67.1699,72.7353336 72.3629,76.8313336 75.7489,71.7923336 C78.5869,67.5683336 77.0949,62.7063336 77.0949,62.7063336 C77.0949,62.7063336 71.2099,60.6233336 67.1519,64.1303336 C62.5789,68.0813336 67.1699,72.7353336 67.1699,72.7353336" id="Fill-1222" fill="#E23365"></path>
                <polygon id="Fill-1223" fill="#F79E3C" points="67.2836 72.8477336 67.0566 72.6227336 76.9816 62.5937336 77.2086 62.8187336"></polygon>
                <polygon id="Fill-1224" fill="#F79E3C" points="74.2388 65.5391336 74.7718 62.1951336 75.0878 62.2451336 74.6288 65.1231336 77.3998 64.4941336 77.4698 64.8061336"></polygon>
                <polygon id="Fill-1225" fill="#F79E3C" points="71.8254 68.0393336 72.7674 62.0693336 73.0824 62.1193336 72.2134 67.6303336 77.4214 66.5293336 77.4884 66.8423336"></polygon>
                <polygon id="Fill-1226" fill="#F79E3C" points="69.1395 70.7465336 70.4235 62.3625336 70.7395 62.4115336 69.5225 70.3565336 76.9475 69.0775336 77.0015 69.3935336"></polygon>
                <polygon id="Fill-1227" fill="#F79E3C" points="66.9883 72.9214336 68.0683 63.3314336 68.3863 63.3674336 67.3513 72.5494336 75.8863 71.3894336 75.9293 71.7054336"></polygon>
                <path d="M59.1518,72.5450336 C59.1518,72.5450336 54.0228,76.7220336 50.5588,71.7350336 C47.6558,67.5560336 49.0718,62.6710336 49.0718,62.6710336 C49.0718,62.6710336 54.9248,60.4980336 59.0358,63.9400336 C63.6698,67.8200336 59.1518,72.5450336 59.1518,72.5450336" id="Fill-1228" fill="#E23365"></path>
                <polygon id="Fill-1229" fill="#F79E3C" points="59.0399 72.6592336 48.9599 62.7852336 49.1839 62.5572336 59.2639 72.4302336"></polygon>
                <polygon id="Fill-1230" fill="#F79E3C" points="51.9717 65.4595336 48.7297 64.7775336 48.7957 64.4645336 51.5757 65.0495336 51.0717 62.1795336 51.3867 62.1235336"></polygon>
                <polygon id="Fill-1231" fill="#F79E3C" points="54.4237 67.9216336 48.7437 66.8136336 48.8047 66.4996336 54.0297 67.5186336 53.0747 62.0216336 53.3897 61.9666336"></polygon>
                <polygon id="Fill-1232" fill="#F79E3C" points="57.1515 70.5873336 49.2695 69.3563336 49.3185 69.0403336 56.7625 70.2023336 55.4215 62.2773336 55.7375 62.2243336"></polygon>
                <polygon id="Fill-1233" fill="#F79E3C" points="59.3366 72.7281336 50.3776 71.6511336 50.4166 71.3341336 58.9676 72.3621336 57.7896 63.1971336 58.1076 63.1571336"></polygon>
                <path d="M63.0095,76.9100336 C62.9255,76.9100336 62.8405,76.8770336 62.7785,76.8110336 L58.9205,72.7660336 C58.7985,72.6380336 58.8035,72.4350336 58.9315,72.3140336 C59.0585,72.1920336 59.2615,72.1970336 59.3835,72.3240336 L63.0235,76.1420336 L66.9525,72.5010336 C67.0815,72.3800336 67.2845,72.3880336 67.4045,72.5180336 C67.5245,72.6480336 67.5165,72.8500336 67.3875,72.9700336 L63.2265,76.8250336 C63.1655,76.8820336 63.0875,76.9100336 63.0095,76.9100336" id="Fill-1234" fill="#F79E3C"></path>
                <path d="M74.056,117.264434 C74.056,117.264434 69.799,97.3774336 81.023,88.6134336 L74.056,117.264434 Z" id="Fill-1235" fill="#E23365"></path>
                <path d="M75.105,117.264434 C75.105,117.264434 77.745,99.9334336 88.933,92.9314336 C88.933,92.9314336 82.949,108.343434 75.105,117.264434" id="Fill-1236" fill="#E23365"></path>
                <path d="M76.7482,117.264434 C76.7482,117.264434 85.1012,101.851434 97.9992,99.0524336 C97.9992,99.0524336 87.1502,111.527434 76.7482,117.264434" id="Fill-1237" fill="#E23365"></path>
                <path d="M73.1155,117.264434 C73.1155,117.264434 74.1275,102.794434 66.9635,91.8324336 C66.9635,91.8324336 65.7945,107.547434 73.1155,117.264434" id="Fill-1238" fill="#E23365"></path>
                <path d="M71.2979,117.264434 C71.2979,117.264434 66.7399,103.494434 55.9499,96.0734336 C55.9499,96.0734336 60.8349,111.055434 71.2979,117.264434" id="Fill-1239" fill="#E23365"></path>
                <path d="M111.5942,133.291034 L18.2112,133.291034 L10.0802,120.018034 C8.2242,117.765034 10.6882,115.017034 14.5652,115.017034 L116.4012,115.017034 C119.6942,115.017034 121.9172,117.244034 120.6272,119.249034 L111.5942,133.291034 Z" id="Fill-1240" fill="#F79E3C"></path>
            </g>
        </g>
    </g>
</svg>