<?xml version="1.0" encoding="UTF-8"?>
<svg width="470px" height="82px" viewBox="0 0 470 82" version="1.1" xmlns="http://www.w3.org/2000/svg" xmlns:xlink="http://www.w3.org/1999/xlink">
    <!-- Generator: Sketch 53.1 (72631) - https://sketchapp.com -->
    <title>Group 44StarBanner</title>
    <desc>Created with Sketch.</desc>
    <g id="Page-1" stroke="none" stroke-width="1" fill="none" fill-rule="evenodd">
        <g id="Desktop-HD" transform="translate(-227.000000, -2218.000000)">
            <g id="Group-44" transform="translate(227.275700, 2219.028500)">
                <path d="M0,2.27373675e-13 C0,2.27373675e-13 117.25,69.624 234.009,2.27373675e-13 C234.009,2.27373675e-13 338.658,68.659 468.999,2.27373675e-13" id="Stroke-1034" stroke="#53ACD3"></path>
                <path d="M21.1661,39.4014 L21.1661,10.2394" id="Fill-1036" fill="#53D7D3"></path>
                <polygon id="Fill-1040" fill="#53D7D3" points="21.1661 26.4772 26.6221 37.5322 38.8221 39.3052 29.9941 47.9092 32.0781 60.0612 21.1661 54.3232 10.2541 60.0612 12.3381 47.9092 3.5101 39.3052 15.7101 37.5322"></polygon>
                <polygon id="Fill-1042" fill="#146875" points="32.078 60.0612 29.994 47.9092 38.822 39.3052 26.622 37.5322 21.166 26.4772 21.166 54.3232"></polygon>
                <path d="M50.2206,32.7054 L50.2206,20.6594" id="Fill-1044" fill="#53D7D3"></path>
                <polygon id="Fill-1048" fill="#53D7D3" points="50.3263 26.1698 53.3923 32.3818 60.2473 33.3778 55.2863 38.2128 56.4583 45.0408 50.3263 41.8168 44.1953 45.0408 45.3663 38.2128 40.4053 33.3778 47.2603 32.3818"></polygon>
                <polygon id="Fill-1050" fill="#146875" points="56.4579 45.0407 55.2869 38.2127 60.2469 33.3777 53.3919 32.3817 50.3259 26.1697 50.3259 41.8167"></polygon>
                <path d="M77.9033,56.099 L77.9033,26.937" id="Fill-1052" fill="#53D7D3"></path>
                <polygon id="Fill-1056" fill="#53D7D3" points="77.9033 43.1748 83.3593 54.2298 95.5593 56.0028 86.7313 64.6068 88.8153 76.7588 77.9033 71.0208 66.9913 76.7588 69.0753 64.6068 60.2473 56.0028 72.4473 54.2298"></polygon>
                <polygon id="Fill-1058" fill="#146875" points="88.8152 76.7588 86.7312 64.6068 95.5592 56.0028 83.3592 54.2298 77.9032 43.1748 77.9032 71.0208"></polygon>
                <path d="M106.9577,42.8532 L106.9577,30.8072" id="Fill-1060" fill="#53D7D3"></path>
                <polygon id="Fill-1064" fill="#53D7D3" points="107.0634 36.3177 110.1294 42.5297 116.9844 43.5257 112.0244 48.3607 113.1954 55.1887 107.0634 51.9647 100.9324 55.1887 102.1034 48.3607 97.1424 43.5257 103.9974 42.5297"></polygon>
                <polygon id="Fill-1066" fill="#146875" points="113.1951 55.1886 112.0241 48.3606 116.9841 43.5256 110.1291 42.5296 107.0631 36.3176 107.0631 51.9646"></polygon>
                <path d="M134.6404,59.6667 L134.6404,30.5057" id="Fill-1068" fill="#53D7D3"></path>
                <polygon id="Fill-1072" fill="#53D7D3" points="134.6404 46.7426 140.0964 57.7976 152.2964 59.5706 143.4684 68.1746 145.5524 80.3266 134.6404 74.5886 123.7284 80.3266 125.8124 68.1746 116.9844 59.5706 129.1844 57.7976"></polygon>
                <polygon id="Fill-1074" fill="#146875" points="145.5523 80.3265 143.4683 68.1745 152.2963 59.5705 140.0963 57.7985 134.6403 46.7425 134.6403 74.5885"></polygon>
                <path d="M163.6949,38.8727 L163.6949,26.8267" id="Fill-1076" fill="#53D7D3"></path>
                <polygon id="Fill-1080" fill="#53D7D3" points="163.8006 32.3371 166.8666 38.5491 173.7216 39.5451 168.7606 44.3801 169.9326 51.2081 163.8006 47.9841 157.6696 51.2081 158.8406 44.3801 153.8796 39.5451 160.7346 38.5491"></polygon>
                <polygon id="Fill-1082" fill="#146875" points="169.9322 51.208 168.7612 44.38 173.7212 39.545 166.8662 38.549 163.8002 32.337 163.8002 47.984"></polygon>
                <path d="M191.3776,48.6537 L191.3776,19.4927" id="Fill-1084" fill="#53D7D3"></path>
                <polygon id="Fill-1088" fill="#53D7D3" points="191.3776 35.7296 196.8336 46.7846 209.0336 48.5576 200.2056 57.1616 202.2896 69.3136 191.3776 63.5756 180.4656 69.3136 182.5496 57.1616 173.7216 48.5576 185.9216 46.7846"></polygon>
                <polygon id="Fill-1090" fill="#146875" points="202.2894 69.3135 200.2054 57.1615 209.0334 48.5575 196.8334 46.7855 191.3774 35.7295 191.3774 63.5755"></polygon>
                <path d="M220.432,20.1311 L220.432,8.0851" id="Fill-1092" fill="#53D7D3"></path>
                <polygon id="Fill-1096" fill="#53D7D3" points="220.5377 13.5956 223.6037 19.8076 230.4587 20.8036 225.4977 25.6386 226.6697 32.4666 220.5377 29.2426 214.4067 32.4666 215.5777 25.6386 210.6167 20.8036 217.4717 19.8076"></polygon>
                <polygon id="Fill-1098" fill="#53D7D3" points="226.6697 32.4665 225.4977 25.6385 230.4587 20.8035 223.6037 19.8075 220.5377 13.5955 220.5377 29.2425"></polygon>
                <path d="M252.8936,39.4014 L252.8936,10.2394" id="Fill-1100" fill="#53D7D3"></path>
                <polygon id="Fill-1104" fill="#53D7D3" points="252.8936 26.4772 258.3496 37.5322 270.5496 39.3052 261.7216 47.9092 263.8056 60.0612 252.8936 54.3232 241.9816 60.0612 244.0656 47.9092 235.2376 39.3052 247.4376 37.5322"></polygon>
                <polygon id="Fill-1106" fill="#146875" points="263.8055 60.0612 261.7215 47.9092 270.5495 39.3052 258.3495 37.5322 252.8935 26.4772 252.8935 54.3232"></polygon>
                <path d="M281.9477,32.7054 L281.9477,20.6594" id="Fill-1108" fill="#53D7D3"></path>
                <polygon id="Fill-1112" fill="#53D7D3" points="282.0537 26.1698 285.1197 32.3818 291.9747 33.3778 287.0137 38.2128 288.1857 45.0408 282.0537 41.8168 275.9227 45.0408 277.0937 38.2128 272.1327 33.3778 278.9877 32.3818"></polygon>
                <polygon id="Fill-1114" fill="#146875" points="288.1857 45.0407 287.0137 38.2127 291.9747 33.3777 285.1197 32.3817 282.0537 26.1697 282.0537 41.8167"></polygon>
                <path d="M309.6307,56.099 L309.6307,26.937" id="Fill-1116" fill="#53D7D3"></path>
                <polygon id="Fill-1120" fill="#53D7D3" points="309.6307 43.1748 315.0867 54.2298 327.2867 56.0028 318.4587 64.6068 320.5427 76.7588 309.6307 71.0208 298.7187 76.7588 300.8027 64.6068 291.9747 56.0028 304.1747 54.2298"></polygon>
                <polygon id="Fill-1122" fill="#146875" points="320.5426 76.7588 318.4586 64.6068 327.2866 56.0028 315.0866 54.2298 309.6306 43.1748 309.6306 71.0208"></polygon>
                <path d="M338.6848,42.8532 L338.6848,30.8072" id="Fill-1124" fill="#53D7D3"></path>
                <polygon id="Fill-1128" fill="#53D7D3" points="338.7909 36.3177 341.8569 42.5297 348.7119 43.5257 343.7509 48.3607 344.9229 55.1887 338.7909 51.9647 332.6599 55.1887 333.8309 48.3607 328.8699 43.5257 335.7249 42.5297"></polygon>
                <polygon id="Fill-1130" fill="#146875" points="344.9229 55.1886 343.7509 48.3606 348.7119 43.5256 341.8569 42.5296 338.7909 36.3176 338.7909 51.9646"></polygon>
                <path d="M366.3678,59.6667 L366.3678,30.5057" id="Fill-1132" fill="#53D7D3"></path>
                <polygon id="Fill-1136" fill="#53D7D3" points="366.3678 46.7426 371.8238 57.7976 384.0238 59.5706 375.1958 68.1746 377.2798 80.3266 366.3678 74.5886 355.4558 80.3266 357.5398 68.1746 348.7118 59.5706 360.9118 57.7976"></polygon>
                <polygon id="Fill-1138" fill="#146875" points="377.2798 80.3265 375.1958 68.1745 384.0238 59.5705 371.8238 57.7985 366.3678 46.7425 366.3678 74.5885"></polygon>
                <path d="M395.4219,38.8727 L395.4219,26.8267" id="Fill-1140" fill="#53D7D3"></path>
                <polygon id="Fill-1144" fill="#53D7D3" points="395.528 32.3371 398.594 38.5491 405.449 39.5451 400.488 44.3801 401.66 51.2081 395.528 47.9841 389.397 51.2081 390.568 44.3801 385.607 39.5451 392.462 38.5491"></polygon>
                <polygon id="Fill-1146" fill="#146875" points="401.66 51.208 400.488 44.38 405.449 39.545 398.594 38.549 395.528 32.337 395.528 47.984"></polygon>
                <path d="M423.1049,48.6537 L423.1049,19.4927" id="Fill-1148" fill="#53D7D3"></path>
                <polygon id="Fill-1152" fill="#53D7D3" points="423.1049 35.7296 428.5609 46.7846 440.7609 48.5576 431.9329 57.1616 434.0169 69.3136 423.1049 63.5756 412.1929 69.3136 414.2769 57.1616 405.4489 48.5576 417.6489 46.7846"></polygon>
                <polygon id="Fill-1154" fill="#146875" points="434.0169 69.3135 431.9329 57.1615 440.7609 48.5575 428.5609 46.7855 423.1049 35.7295 423.1049 63.5755"></polygon>
                <path d="M452.1591,20.1311 L452.1591,8.0851" id="Fill-1156" fill="#53D7D3"></path>
                <polygon id="Fill-1160" fill="#53D7D3" points="452.2652 13.5956 455.3312 19.8076 462.1862 20.8036 457.2252 25.6386 458.3972 32.4666 452.2652 29.2426 446.1342 32.4666 447.3052 25.6386 442.3442 20.8036 449.1992 19.8076"></polygon>
                <polygon id="Fill-1162" fill="#146875" points="458.3971 32.4665 457.2251 25.6385 462.1861 20.8035 455.3311 19.8075 452.2651 13.5955 452.2651 29.2425"></polygon>
            </g>
        </g>
    </g>
</svg>