<?xml version="1.0" encoding="UTF-8"?>
<svg width="55px" height="88px" viewBox="0 0 55 88" version="1.1" xmlns="http://www.w3.org/2000/svg" xmlns:xlink="http://www.w3.org/1999/xlink">
    <!-- Generator: Sketch 53.1 (72631) - https://sketchapp.com -->
    <title>Group 46c2</title>
    <desc>Created with Sketch.</desc>
    <defs>
        <polygon id="path-1" points="0.135548989 0.206 24.1657657 0.206 24.1657657 18.7597212 0.135548989 18.7597212"></polygon>
    </defs>
    <g id="Page-1" stroke="none" stroke-width="1" fill="none" fill-rule="evenodd">
        <g id="Artboard" transform="translate(-1888.000000, -584.000000)">
            <g id="Group-46" transform="translate(1888.878908, 583.794300)">
                <path d="M32.828392,69.3551 L32.356392,71.6421 L33.496392,72.2321 C33.496392,72.2321 34.520392,73.9991 35.042392,73.4771 C35.773392,72.6411 34.182392,71.4511 34.182392,71.4511 C34.466392,71.2841 35.434392,70.6101 36.404392,68.7091 C39.866392,61.0641 30.604392,59.7391 30.604392,59.7391 L32.125392,64.8691 C35.923392,66.5571 32.828392,69.3551 32.828392,69.3551" id="Fill-1" fill="#FEE2C5"></path>
                <path d="M19.920792,60.7255 C19.920792,60.7255 17.209792,65.7575 11.044792,61.3015 L9.76779196,62.7735 C9.76779196,62.7735 12.456792,69.5715 18.940792,66.2075" id="Fill-3" fill="#FEE2C5"></path>
                <path d="M32.794892,66.3398 L36.706892,62.5938 C36.706892,62.5938 34.522892,59.2698 29.551892,60.4858" id="Fill-5" fill="#F29101"></path>
                <path d="M18.909892,66.6761 L14.997892,62.9301 C14.997892,62.9301 17.181892,59.6061 22.152892,60.8221" id="Fill-7" fill="#F29101"></path>
                <path d="M21.652292,58.523 L25.493292,56.93 L29.334292,58.523 C29.334292,58.523 34.487292,64.05 32.613292,73.138 C30.833292,78.197 25.493292,76.885 25.493292,77.354 C25.493292,76.885 20.153292,78.197 18.373292,73.138 C16.499292,64.05 21.652292,58.523 21.652292,58.523" id="Fill-9" fill="#F8B033"></path>
                <polygon id="Fill-11" fill="#FEE2C5" points="33.023792 71.2211 29.744792 85.3991 31.866792 87.3281 26.079792 87.3281 26.079792 73.9221"></polygon>
                <polygon id="Fill-13" fill="#FEE2C5" points="17.963092 71.2211 21.242092 85.3991 19.120092 87.3281 24.907092 87.3281 24.907092 73.9221"></polygon>
                <path d="M1.59769196,39.1032 C1.59769196,51.5692 12.498692,61.6762 25.945692,61.6762 C39.392692,61.6762 50.293692,51.5692 50.293692,39.1032 C50.293692,26.6372 39.392692,16.5302 25.945692,16.5302 C12.498692,16.5302 1.59769196,26.6372 1.59769196,39.1032" id="Fill-15" fill="#FEE2C5"></path>
                <path d="M41.551692,45.1745 C41.551692,47.8495 39.382692,50.0185 36.707692,50.0185 C34.031692,50.0185 31.862692,47.8495 31.862692,45.1745 C31.862692,42.4995 34.031692,40.3305 36.707692,40.3305 C39.382692,40.3305 41.551692,42.4995 41.551692,45.1745" id="Fill-17" fill="#FFFFFF"></path>
                <path d="M39.958992,44.5912 C39.958992,46.7092 38.241992,48.4262 36.123992,48.4262 C34.005992,48.4262 32.288992,46.7092 32.288992,44.5912 C32.288992,42.4732 34.005992,40.7562 36.123992,40.7562 C38.241992,40.7562 39.958992,42.4732 39.958992,44.5912" id="Fill-19" fill="#432918"></path>
                <path d="M19.920792,45.1745 C19.920792,47.8495 17.751792,50.0185 15.076792,50.0185 C12.400792,50.0185 10.231792,47.8495 10.231792,45.1745 C10.231792,42.4995 12.400792,40.3305 15.076792,40.3305 C17.751792,40.3305 19.920792,42.4995 19.920792,45.1745" id="Fill-21" fill="#FFFFFF"></path>
                <path d="M18.328192,44.5912 C18.328192,46.7092 16.611192,48.4262 14.493192,48.4262 C12.375192,48.4262 10.658192,46.7092 10.658192,44.5912 C10.658192,42.4732 12.375192,40.7562 14.493192,40.7562 C16.611192,40.7562 18.328192,42.4732 18.328192,44.5912" id="Fill-23" fill="#432918"></path>
                <g id="Group-27" transform="translate(21.121092, 0.000000)">
                    <mask id="mask-2" fill="white">
                        <use xlink:href="#path-1"></use>
                    </mask>
                    <g id="Clip-26"></g>
                    <path d="M2.0066,12.749 C2.0066,12.749 -2.7194,4.647 2.8506,1.862 C8.4206,-0.923 9.1806,4.9 9.1806,4.9 C9.1806,4.9 11.8806,-2.263 18.1266,1.108 C24.3716,4.478 18.9706,10.808 18.9706,10.808 C18.9706,10.808 21.3336,9.12 23.1056,10.723 C24.8776,12.327 25.3846,19.163 16.7756,18.741 C8.1676,18.319 3.3366,15.851 2.0066,12.749" id="Fill-25" fill="#F8B033" mask="url(#mask-2)"></path>
                </g>
                <path d="M43.150292,18.5576 L44.065292,16.9456 C44.065292,16.9456 36.743292,10.0966 22.968292,12.4566 C22.968292,13.8456 23.373292,14.7146 23.373292,14.7146 C23.373292,14.7146 34.134292,13.2566 43.150292,18.5576" id="Fill-28" fill="#E95B0C"></path>
                <path d="M34.956592,77.4809 L35.226592,78.4319 C35.226592,78.4319 25.472592,81.4209 15.822592,78.4319 C15.800592,78.4429 15.888592,78.0649 16.040592,77.4669 C24.680592,80.0629 33.341592,77.9249 34.956592,77.4809" id="Fill-30" fill="#1F70B7"></path>
                <path d="M16.040492,77.467 C16.587492,75.314 17.995492,70.303 17.995492,70.303 C17.995492,70.303 24.736492,71.435 32.970492,70.464 L34.956492,77.481 C33.342492,77.925 24.680492,80.063 16.040492,77.467" id="Fill-32" fill="#38A8E0"></path>
                <path d="M16.674192,19.9527 C22.679192,17.5117 28.749192,17.6437 35.611192,22.9217 C40.344192,26.5617 44.984192,23.7707 47.409192,21.6857 C43.500192,17.4227 37.254192,14.0687 27.468192,13.5977 C26.973192,13.5797 26.478192,13.5797 25.983192,13.5997 L25.897192,13.6027 C19.148192,13.9397 14.091192,15.6527 10.322192,18.0877 C11.261192,19.7097 13.131192,21.3937 16.674192,19.9527" id="Fill-34" fill="#F8B033"></path>
                <path d="M16.146292,27.013 C9.82929196,29.797 5.13829196,28.97 2.15729196,27.625 C-0.836708044,34.315 -0.123708044,41.108 0.804291956,42.249 C2.69829196,44.578 4.77329196,42.855 5.78329196,40.632 C6.19029196,39.737 6.30029196,38.708 7.02129196,37.298 C13.776292,37.671 17.550292,31.94 17.550292,31.94 C17.550292,31.94 11.303292,42.485 22.036292,42.606 C31.661292,42.714 34.774292,34.835 35.760292,30.489 C28.401292,28.347 26.489292,22.455 16.146292,27.013" id="Fill-36" fill="#F8B033"></path>
                <path d="M50.635192,26.2719 C49.462192,27.9449 47.318192,30.0769 43.727192,30.8749 C46.509192,34.2319 47.026192,39.2209 47.667192,40.6319 C48.678192,42.8549 50.753192,44.5779 52.647192,42.2489 C53.637192,41.0309 54.383192,33.3719 50.635192,26.2719" id="Fill-38" fill="#F8B033"></path>
                <path d="M50.635192,26.2719 C49.799192,24.6889 48.738192,23.1359 47.409192,21.6859 C44.984192,23.7699 40.344192,26.5619 35.611192,22.9219 C28.749192,17.6429 22.679192,17.5109 16.674192,19.9529 C13.131192,21.3929 11.261192,19.7099 10.322192,18.0869 C6.27419196,20.7019 3.71419196,24.1479 2.15819196,27.6249 C5.13819196,28.9699 9.82919196,29.7969 16.146192,27.0129 C26.489192,22.4549 28.402192,28.3479 35.761192,30.4889 C36.135192,28.8389 36.204192,27.6959 36.204192,27.6959 C39.771192,27.5479 42.124192,28.9419 43.727192,30.8749 C47.318192,30.0769 49.462192,27.9449 50.635192,26.2719" id="Fill-40" fill="#F8B033"></path>
                <path d="M50.635192,26.2719 C49.799192,24.6889 48.738192,23.1359 47.409192,21.6859 C44.984192,23.7699 40.344192,26.5619 35.611192,22.9219 C28.749192,17.6429 22.679192,17.5109 16.674192,19.9529 C13.131192,21.3929 11.261192,19.7099 10.322192,18.0869 C6.27419196,20.7019 3.71419196,24.1479 2.15819196,27.6249 C5.13819196,28.9699 9.82919196,29.7969 16.146192,27.0129 C26.489192,22.4549 28.402192,28.3479 35.761192,30.4889 C36.135192,28.8389 36.204192,27.6959 36.204192,27.6959 C39.771192,27.5479 42.124192,28.9419 43.727192,30.8749 C47.318192,30.0769 49.462192,27.9449 50.635192,26.2719" id="Fill-42" fill="#FFC258"></path>
                <path d="M39.524592,50.5789 C39.422592,49.8229 40.367592,48.9599 41.636592,48.6509 C42.904592,48.3419 44.015592,48.7039 44.117592,49.4589 C44.220592,50.2149 43.274592,51.0779 42.006592,51.3869 C40.737592,51.6959 39.626592,51.3349 39.524592,50.5789" id="Fill-44" fill="#FDC6B7"></path>
                <path d="M12.259092,50.5789 C12.361092,49.8229 11.416092,48.9599 10.147092,48.6509 C8.87909196,48.3419 7.76809196,48.7039 7.66609196,49.4589 C7.56309196,50.2149 8.50909196,51.0779 9.77709196,51.3869 C11.046092,51.6959 12.157092,51.3349 12.259092,50.5789" id="Fill-46" fill="#FDC6B7"></path>
                <path d="M40.823792,36.935 C40.823792,36.935 38.338792,32.59 32.590792,34.796 C35.264792,31.186 40.500792,32.991 40.823792,36.935" id="Fill-48" fill="#F29101"></path>
                <path d="M10.959892,36.935 C10.959892,36.935 13.444892,32.59 19.192892,34.796 C16.518892,31.186 11.282892,32.991 10.959892,36.935" id="Fill-50" fill="#F29101"></path>
                <path d="M31.411892,80.8654 L30.477892,85.0294 C30.477892,85.0294 32.150892,85.3054 32.150892,87.3274 L26.106892,87.3274 L25.749892,80.8654 L31.411892,80.8654 Z" id="Fill-52" fill="#F8B033"></path>
                <path d="M19.691992,80.8654 L20.625992,85.0294 C20.625992,85.0294 18.952992,85.3054 18.952992,87.3274 L24.996992,87.3274 L25.353992,80.8654 L19.691992,80.8654 Z" id="Fill-54" fill="#F8B033"></path>
                <path d="M47.877192,42.6686 C47.877192,42.6686 51.093192,40.8106 52.236192,43.8836 C53.380192,46.9566 50.440192,50.4996 46.233192,50.2636 L47.877192,42.6686 Z" id="Fill-56" fill="#FEE2C5"></path>
                <path d="M26.424792,52.0415 C27.853792,52.0415 28.929792,51.2595 28.980792,51.2215 C29.083792,51.1465 29.104792,51.0015 29.028792,50.8995 C28.953792,50.7975 28.809792,50.7765 28.706792,50.8505 C28.693792,50.8605 27.383792,51.8075 25.829792,51.5275 C24.775792,51.3375 23.841792,50.6325 23.053792,49.4315 C22.983792,49.3255 22.840792,49.2945 22.734792,49.3645 C22.627792,49.4345 22.598792,49.5775 22.667792,49.6845 C23.529792,50.9975 24.567792,51.7705 25.753792,51.9825 C25.983792,52.0235 26.208792,52.0415 26.424792,52.0415" id="Fill-60" fill="#E09B60"></path>
                <path d="M25.493392,69.0782 C25.493392,69.0782 22.386392,67.9002 22.065392,65.7472 C21.745392,63.6022 24.045392,62.6372 25.508392,64.8992 C26.970392,62.6372 29.270392,63.6022 28.950392,65.7472 C28.630392,67.9002 25.523392,69.0782 25.523392,69.0782" id="Fill-62" fill="#E84E1B"></path>
                <polygon id="Fill-64" fill="#FFFFFF" points="33.564792 77.821 34.014792 77.719 32.161792 70.553 31.696792 70.599"></polygon>
                <polygon id="Fill-66" fill="#FFFFFF" points="17.578492 77.8808 19.355492 70.4888 18.894492 70.4298 17.130492 77.7698"></polygon>
                <polygon id="Fill-68" fill="#FFFFFF" points="25.474792 78.7303 25.753792 70.8523 25.292792 70.8523 25.013792 78.7303"></polygon>
                <path d="M31.955292,73.7001 C32.177292,73.7001 32.410292,73.6791 32.652292,73.6371 L32.574292,73.1831 C31.753292,73.3241 31.071292,73.1951 30.548292,72.7971 C29.618292,72.0891 29.498292,70.8941 29.479292,70.7651 L29.020292,70.7881 C29.026292,70.8511 29.181292,72.3361 30.269292,73.1641 C30.738292,73.5211 31.303292,73.7001 31.955292,73.7001" id="Fill-70" fill="#FFFFFF"></path>
                <path d="M19.075292,73.6992 C19.723292,73.6992 20.285292,73.5202 20.753292,73.1632 C21.859292,72.3202 22.008292,70.7882 22.015292,70.7242 L21.553292,70.6912 C21.552292,70.7052 21.417292,72.0792 20.471292,72.7982 C19.951292,73.1932 19.277292,73.3222 18.468292,73.1832 L18.389292,73.6372 C18.627292,73.6782 18.856292,73.6992 19.075292,73.6992" id="Fill-72" fill="#FFFFFF"></path>
                <polygon id="Fill-74" fill="#FEEF6A" points="26.079092 87.004 32.122092 87.004 32.122092 86.773 26.079092 86.773"></polygon>
                <polygon id="Fill-76" fill="#FEEF6A" points="26.946092 86.889 27.177092 86.889 27.177092 80.866 26.946092 80.866"></polygon>
                <polygon id="Fill-77" fill="#FEEF6A" points="18.953092 87.004 24.996092 87.004 24.996092 86.773 18.953092 86.773"></polygon>
                <polygon id="Fill-78" fill="#FEEF6A" points="23.993092 86.889 24.224092 86.889 24.224092 80.866 23.993092 80.866"></polygon>
                <path d="M11.044492,61.3018 C11.044492,61.3018 10.955492,58.8398 9.76749196,58.0238 C8.67649196,57.2088 8.31649196,58.2158 9.44449196,59.4388 C9.01249196,59.2708 8.64049196,59.8468 8.75449196,60.1348 C8.14849196,60.0388 8.19649196,60.8298 8.19649196,60.8298 C8.19649196,60.8298 7.74149196,60.9978 7.93349196,61.5258 C8.12449196,62.0538 9.13749196,62.9408 9.96249196,62.8208 C10.787492,62.7008 11.085492,61.7678 11.044492,61.3018" id="Fill-79" fill="#FEE2C5"></path>
                <path d="M48.683492,46.2079 C48.579492,45.9129 48.387492,45.8649 48.199492,45.9059 C48.320492,45.2109 48.364492,44.7769 48.364492,44.7769 C48.374492,44.7669 48.384492,44.7579 48.394492,44.7489 C49.341492,43.8379 50.896492,44.8549 50.490492,46.1039 C50.175492,47.0709 49.152492,47.6889 47.732492,48.0169 C47.831492,47.6489 47.915492,47.2989 47.987492,46.9719 C48.375492,46.8579 48.832492,46.6309 48.683492,46.2079" id="Fill-80" fill="#F6CDA9"></path>
                <path d="M11.405992,42.7954 C11.405992,41.8034 12.209992,40.9994 13.201992,40.9994 C14.193992,40.9994 14.997992,41.8034 14.997992,42.7954 C14.997992,43.7874 14.193992,44.5914 13.201992,44.5914 C12.209992,44.5914 11.405992,43.7874 11.405992,42.7954" id="Fill-82" fill="#FFFFFF"></path>
                <path d="M33.115692,42.7954 C33.115692,41.8034 33.919692,40.9994 34.911692,40.9994 C35.903692,40.9994 36.707692,41.8034 36.707692,42.7954 C36.707692,43.7874 35.903692,44.5914 34.911692,44.5914 C33.919692,44.5914 33.115692,43.7874 33.115692,42.7954" id="Fill-83" fill="#FFFFFF"></path>
            </g>
        </g>
    </g>
</svg>