<?xml version="1.0" encoding="UTF-8"?>
<svg width="57px" height="76px" viewBox="0 0 57 76" version="1.1" xmlns="http://www.w3.org/2000/svg" xmlns:xlink="http://www.w3.org/1999/xlink">
    <!-- Generator: Sketch 53.1 (72631) - https://sketchapp.com -->
    <title>Group 51c6</title>
    <desc>Created with Sketch.</desc>
    <g id="Page-1" stroke="none" stroke-width="1" fill="none" fill-rule="evenodd">
        <g id="Artboard" transform="translate(-2192.000000, -596.000000)">
            <g id="Group-51" transform="translate(2192.378556, 596.275146)">
                <path d="M29.9194443,0.135053876 C29.3214443,0.117053876 28.7254443,0.0930538763 28.1294443,0.0410538763 C24.6834443,-0.258946124 9.7854443,0.856053876 4.7604443,11.1690539 C-0.965555697,22.9220539 -0.943555697,38.3920539 1.7684443,51.2500539 C6.3894443,52.8570539 12.5174443,52.7390539 12.5174443,52.7390539 L13.4214443,48.0350539 L14.5284443,52.7390539 C14.5284443,52.7390539 28.5894443,54.4640539 44.2604443,52.0540539 C44.6624443,49.4420539 44.2604443,47.2320539 44.2604443,47.2320539 C44.2604443,47.2320539 45.3654443,49.2410539 45.5664443,51.7520539 C52.4974443,50.6470539 55.5114443,48.5380539 55.5114443,48.5380539 C55.5114443,48.5380539 62.4704443,1.12305388 29.9194443,0.135053876" id="Fill-188" fill="#29235C"></path>
                <path d="M31.9274443,46.7829539 L28.0864443,45.1899539 L24.2454443,46.7829539 C24.2454443,46.7829539 19.0924443,52.3099539 20.9664443,61.3979539 C22.7464443,66.4569539 28.0864443,65.1449539 28.0864443,65.6139539 C28.0864443,65.1449539 33.4264443,66.4569539 35.2064443,61.3979539 C37.0804443,52.3099539 31.9274443,46.7829539 31.9274443,46.7829539" id="Fill-189" fill="#FED185"></path>
                <polygon id="Fill-190" fill="#29235C" points="20.5559443 59.4810539 23.8349443 73.6590539 21.7129443 75.5880539 27.4999443 75.5880539 27.4999443 62.1820539"></polygon>
                <polygon id="Fill-191" fill="#29235C" points="35.6166443 59.4810539 32.3376443 73.6590539 34.4596443 75.5880539 28.6726443 75.5880539 28.6726443 62.1820539"></polygon>
                <polygon id="Fill-192" fill="#FED185" points="33.6732443 54.2546539 39.2462443 60.0036539 41.7572443 57.7026539 33.2382443 48.5056539"></polygon>
                <polygon id="Fill-193" fill="#FED185" points="22.2726443 54.5109539 16.9256443 60.0039539 14.4156443 57.7029539 22.9346443 48.5049539"></polygon>
                <path d="M23.3435443,47.9752539 C23.3435443,47.9752539 20.6925443,48.3942539 19.6795443,51.0202539 C19.9795443,52.5572539 20.5555443,57.3562539 20.5555443,57.3562539 L35.6165443,57.3562539 L36.4455443,51.0952539 C36.4455443,51.0952539 35.1695443,48.5052539 33.2385443,48.5052539 C31.3065443,48.5052539 23.3435443,47.9752539 23.3435443,47.9752539" id="Fill-194" fill="#FFFFFF"></path>
                <path d="M22.2796443,48.6358539 C22.2796443,48.6358539 22.0796443,50.1238539 24.7326443,50.7858539 C27.3856443,51.4468539 28.1026443,49.9238539 28.1026443,49.9238539 L28.1026443,49.5358539 L22.2796443,48.6358539 Z" id="Fill-195" fill="#ECECEC"></path>
                <path d="M33.8983443,48.6358539 C33.8983443,48.6358539 34.0983443,50.1238539 31.4453443,50.7858539 C28.7923443,51.4468539 28.0753443,49.9238539 28.0753443,49.9238539 L28.0753443,49.5358539 L33.8983443,48.6358539 Z" id="Fill-196" fill="#ECECEC"></path>
                <path d="M52.9961443,27.3769539 C52.9961443,39.7259539 42.1981443,49.7359539 28.8781443,49.7359539 C15.5581443,49.7359539 4.7601443,39.7259539 4.7601443,27.3769539 C4.7601443,15.0279539 15.5581443,5.01795388 28.8781443,5.01795388 C42.1981443,5.01795388 52.9961443,15.0279539 52.9961443,27.3769539" id="Fill-197" fill="#FED185"></path>
                <path d="M14.1980443,32.8733539 C13.1240443,28.9003539 18.3220443,26.6983539 21.2820443,29.7953539 C22.2850443,30.8453539 22.9210443,32.4633539 22.4980443,34.9573539 C22.3520443,36.0873539 18.3360443,37.7383539 15.5170443,35.0233539 C14.8120443,34.3443539 14.3970443,33.6083539 14.1980443,32.8733539" id="Fill-198" fill="#FFFFFF"></path>
                <path d="M15.6448443,30.7234539 C14.6768443,32.3444539 15.2068443,34.4434539 16.8278443,35.4114539 C18.4488443,36.3794539 20.5478443,35.8494539 21.5158443,34.2284539 C22.4838443,32.6074539 21.9538443,30.5084539 20.3328443,29.5404539 C18.7118443,28.5724539 16.6128443,29.1024539 15.6448443,30.7234539" id="Fill-199" fill="#432918"></path>
                <path d="M42.8774443,32.8733539 C43.9514443,28.9003539 38.7534443,26.6983539 35.7934443,29.7953539 C34.7904443,30.8453539 34.1544443,32.4633539 34.5774443,34.9573539 C34.7234443,36.0873539 38.7394443,37.7383539 41.5584443,35.0233539 C42.2634443,34.3443539 42.6784443,33.6083539 42.8774443,32.8733539" id="Fill-200" fill="#FFFFFF"></path>
                <path d="M41.4306443,30.7234539 C42.3986443,32.3444539 41.8686443,34.4434539 40.2476443,35.4114539 C38.6266443,36.3794539 36.5276443,35.8494539 35.5596443,34.2284539 C34.5916443,32.6074539 35.1216443,30.5084539 36.7426443,29.5404539 C38.3636443,28.5724539 40.4626443,29.1024539 41.4306443,30.7234539" id="Fill-201" fill="#432918"></path>
                <path d="M14.8494443,30.8444539 C14.8494443,29.8524539 15.6534443,29.0484539 16.6454443,29.0484539 C17.6374443,29.0484539 18.4414443,29.8524539 18.4414443,30.8444539 C18.4414443,31.8364539 17.6374443,32.6404539 16.6454443,32.6404539 C15.6534443,32.6404539 14.8494443,31.8364539 14.8494443,30.8444539" id="Fill-202" fill="#FFFFFF"></path>
                <path d="M35.0758443,31.6190539 C35.0758443,30.6270539 35.8798443,29.8230539 36.8718443,29.8230539 C37.8638443,29.8230539 38.6678443,30.6270539 38.6678443,31.6190539 C38.6678443,32.6110539 37.8638443,33.4150539 36.8718443,33.4150539 C35.8798443,33.4150539 35.0758443,32.6110539 35.0758443,31.6190539" id="Fill-203" fill="#FFFFFF"></path>
                <path d="M6.3794443,30.9086539 C6.3794443,30.9086539 3.1944443,29.0686539 2.0614443,32.1116539 C0.928444303,35.1556539 3.8404443,38.6656539 8.0074443,38.4316539 L6.3794443,30.9086539 Z" id="Fill-204" fill="#FED185"></path>
                <path d="M50.7981443,31.3817539 C50.7981443,31.3817539 53.9021443,29.5887539 55.0051443,32.5547539 C56.1091443,35.5197539 53.2721443,38.9397539 49.2121443,38.7117539 L50.7981443,31.3817539 Z" id="Fill-205" fill="#FED185"></path>
                <path d="M11.4146443,6.16125388 C11.4146443,6.16125388 19.4516443,36.8482539 53.8496443,30.8442539 C53.4926443,8.82025388 35.7016443,-3.24374612 11.4146443,6.16125388" id="Fill-206" fill="#29235C"></path>
                <path d="M15.3388443,37.9308539 C15.4408443,37.1748539 14.4958443,36.3118539 13.2268443,36.0028539 C11.9588443,35.6938539 10.8478443,36.0558539 10.7458443,36.8108539 C10.6438443,37.5668539 11.5888443,38.4298539 12.8568443,38.7388539 C14.1258443,39.0478539 15.2368443,38.6868539 15.3388443,37.9308539" id="Fill-207" fill="#FEA87F"></path>
                <path d="M42.6043443,37.9308539 C42.5023443,37.1748539 43.4473443,36.3118539 44.7163443,36.0028539 C45.9843443,35.6938539 47.0953443,36.0558539 47.1973443,36.8108539 C47.3003443,37.5668539 46.3543443,38.4298539 45.0863443,38.7388539 C43.8173443,39.0478539 42.7063443,38.6868539 42.6043443,37.9308539" id="Fill-208" fill="#FEA87F"></path>
                <path d="M20.5559443,57.3560539 L17.8419443,67.5340539 C17.8419443,67.5340539 21.2279443,68.9850539 28.0859443,68.9850539 C34.9449443,68.9850539 37.4979443,67.5340539 37.4979443,67.5340539 L35.6169443,57.3560539 L20.5559443,57.3560539 Z" id="Fill-209" fill="#672483"></path>
                <path d="M4.9731443,30.3572539 C4.9731443,30.3572539 4.7601443,17.0422539 17.7911443,12.8792539 C15.7021443,4.57625388 12.1841443,7.82825388 12.1841443,7.82825388 C12.1841443,7.82825388 1.1181443,14.7532539 4.9731443,30.3572539" id="Fill-210" fill="#29235C"></path>
                <polygon id="Fill-211" fill="#634E42" points="20.5559443 57.3560539 20.4939443 56.8440539 35.6839443 56.8440539 35.6169443 57.3560539"></polygon>
                <path d="M49.6102443,10.7251539 C48.9592443,10.9571539 48.2292443,11.2041539 47.4432443,11.4571539 C38.6882443,14.2781539 22.0662443,17.9101539 9.2022443,10.4781539 C8.2282443,9.91515388 7.2742443,9.29215388 6.3492443,8.59715388 C5.7562443,9.37815388 5.2252443,10.2241539 4.7762443,11.1471539 C4.6302443,11.4441539 4.4922443,11.7461539 4.3542443,12.0481539 C4.9412443,12.7191539 5.6692443,13.4591539 6.5592443,14.2271539 C7.6442443,15.1631539 8.9732443,16.1411539 10.5872443,17.0901539 C11.7682443,15.9511539 13.1932443,14.9031539 14.9252443,14.0401539 C16.2192443,16.2391539 17.9332443,18.6601539 20.1492443,20.9731539 C27.6682443,22.9711539 38.1512443,23.7851539 52.6592443,21.6431539 C53.1592443,21.5691539 53.6632443,21.4921539 54.1732443,21.4111539 C53.1802443,17.6251539 51.7202443,13.9411539 49.6102443,10.7251539" id="Fill-212" fill="#3E358B"></path>
                <path d="M14.0396443,24.2870539 C14.0396443,24.2870539 16.5246443,19.9420539 22.2726443,22.1480539 C19.5986443,18.5380539 14.3626443,20.3430539 14.0396443,24.2870539" id="Fill-213" fill="#2D2E83"></path>
                <path d="M20.5559443,49.5729539 L20.4939443,56.8439539 L19.6799443,51.0199539 C19.6799443,51.0199539 19.9489443,50.1489539 20.5559443,49.5729539" id="Fill-214" fill="#ECECEC"></path>
                <path d="M43.9035443,24.2870539 C43.9035443,24.2870539 41.4185443,19.9420539 35.6705443,22.1480539 C38.3445443,18.5380539 43.5805443,20.3430539 43.9035443,24.2870539" id="Fill-215" fill="#29235C"></path>
                <path d="M35.6843443,56.8443539 L35.5603443,49.7943539 C35.5603443,49.7943539 36.2693443,50.4213539 36.4453443,51.0953539 L35.6843443,56.8443539 Z" id="Fill-216" fill="#ECECEC"></path>
                <polygon id="Fill-217" fill="#ECECEC" points="27.8584443 56.8452539 27.8314443 49.7142539 28.2934443 49.7122539 28.3194443 56.8432539"></polygon>
                <polygon id="Fill-218" fill="#ECECEC" points="20.4934443 54.7411539 35.6404443 54.7411539 35.6404443 54.2801539 20.4934443 54.2801539"></polygon>
                <path d="M29.2144443,51.2845539 C29.2144443,51.0975539 29.0634443,50.9465539 28.8764443,50.9465539 C28.6894443,50.9465539 28.5374443,51.0975539 28.5374443,51.2845539 C28.5374443,51.4715539 28.6894443,51.6225539 28.8764443,51.6225539 C29.0634443,51.6225539 29.2144443,51.4715539 29.2144443,51.2845539" id="Fill-219" fill="#D9D9D9"></path>
                <path d="M29.2144443,53.5967539 C29.2144443,53.4097539 29.0634443,53.2587539 28.8764443,53.2587539 C28.6894443,53.2587539 28.5374443,53.4097539 28.5374443,53.5967539 C28.5374443,53.7837539 28.6894443,53.9347539 28.8764443,53.9347539 C29.0634443,53.9347539 29.2144443,53.7837539 29.2144443,53.5967539" id="Fill-220" fill="#D9D9D9"></path>
                <path d="M29.2144443,55.9090539 C29.2144443,55.7220539 29.0634443,55.5710539 28.8764443,55.5710539 C28.6894443,55.5710539 28.5374443,55.7220539 28.5374443,55.9090539 C28.5374443,56.0960539 28.6894443,56.2470539 28.8764443,56.2470539 C29.0634443,56.2470539 29.2144443,56.0960539 29.2144443,55.9090539" id="Fill-221" fill="#D9D9D9"></path>
                <polygon id="Fill-222" fill="#501B6D" points="21.9497443 57.3560539 19.6797443 68.3540539 21.9497443 68.5450539 23.4597443 57.3560539"></polygon>
                <polygon id="Fill-223" fill="#501B6D" points="25.0072443 57.3560539 23.9422443 68.9850539 26.3552443 68.9400539 27.0832443 57.3560539"></polygon>
                <polygon id="Fill-224" fill="#501B6D" points="34.1754443 57.3560539 36.4454443 68.3540539 34.1704443 68.5100539 32.6654443 57.3560539"></polygon>
                <polygon id="Fill-225" fill="#501B6D" points="31.1707443 57.3560539 32.2357443 68.9850539 29.8227443 68.9400539 29.0947443 57.3560539"></polygon>
                <path d="M23.8351443,73.6587539 L24.4891443,74.1017539 L24.0281443,74.4547539 L23.3481443,74.1017539 C21.9891443,74.1017539 21.7451443,74.9007539 21.7111443,75.3267539 L27.5001443,75.3267539 L27.5001443,73.6397539 L23.8351443,73.6587539 Z" id="Fill-226" fill="#1F70B7"></path>
                <path d="M21.7132443,75.5877539 L27.5002443,75.5877539 L27.5002443,75.3267539 L21.7112443,75.3267539 C21.6992443,75.4807539 21.7132443,75.5877539 21.7132443,75.5877539" id="Fill-227" fill="#2D2E83"></path>
                <path d="M32.8247443,74.1017539 L32.1447443,74.4547539 L31.6827443,74.1017539 L32.3377443,73.6587539 L28.6727443,73.6397539 L28.6727443,75.3267539 L34.4617443,75.3267539 C34.4277443,74.9017539 34.1837443,74.1017539 32.8247443,74.1017539" id="Fill-228" fill="#1F70B7"></path>
                <path d="M28.6724443,75.3270539 L28.6724443,75.5880539 L34.4594443,75.5880539 C34.4594443,75.5880539 34.4734443,75.4810539 34.4614443,75.3270539 L28.6724443,75.3270539 Z" id="Fill-229" fill="#2D2E83"></path>
                <polygon id="Fill-230" fill="#38A8E0" points="27.5000443 73.1063539 23.7070443 73.1063539 23.8350443 73.6583539 27.5000443 73.6393539"></polygon>
                <polygon id="Fill-231" fill="#38A8E0" points="32.4652443 73.1063539 28.6722443 73.1063539 28.6722443 73.6393539 32.3372443 73.6583539"></polygon>
                <path d="M4.4350443,37.6351539 C4.4350443,38.1401539 4.8440443,38.5491539 5.3490443,38.5491539 C5.8530443,38.5491539 6.2620443,38.1401539 6.2620443,37.6351539 C6.2620443,37.1301539 5.8530443,36.7221539 5.3490443,36.7221539 C4.8440443,36.7221539 4.4350443,37.1301539 4.4350443,37.6351539" id="Fill-232" fill="#FFFFFF"></path>
                <path d="M51.2624443,37.6351539 C51.2624443,38.1401539 51.6714443,38.5491539 52.1754443,38.5491539 C52.6804443,38.5491539 53.0894443,38.1401539 53.0894443,37.6351539 C53.0894443,37.1301539 52.6804443,36.7221539 52.1754443,36.7221539 C51.6714443,36.7221539 51.2624443,37.1301539 51.2624443,37.6351539" id="Fill-233" fill="#FFFFFF"></path>
                <path d="M32.4031443,37.6521539 C32.0521443,38.3471539 30.9671443,40.0991539 28.9431443,40.0991539 C27.1391443,40.0991539 26.0831443,38.8361539 25.6251443,38.1121539 C24.9941443,38.5021539 24.6491443,39.2421539 25.7861443,40.3201539 C25.8061443,40.3391539 25.8261443,40.3581539 25.8461443,40.3761539 C27.3421443,41.7481539 29.8291443,41.7521539 31.6411443,40.5101539 C32.3511443,40.0241539 33.0621443,39.3901539 33.0801443,38.7921539 C33.1021443,38.0801539 32.8161443,37.7491539 32.4031443,37.6521539" id="Fill-234" fill="#E84E1B"></path>
                <path d="M28.9428443,40.0989539 C30.9678443,40.0989539 32.0518443,38.3469539 32.4028443,37.6519539 C31.7548443,37.5009539 30.7888443,37.9319539 30.1828443,38.4129539 C29.1898443,39.2009539 27.7008443,38.0999539 27.0328443,37.8369539 C26.7438443,37.7239539 26.1028443,37.8179539 25.6248443,38.1129539 C26.0828443,38.8359539 27.1388443,40.0989539 28.9428443,40.0989539" id="Fill-235" fill="#FFFFFF"></path>
                <polygon id="Fill-236" fill="#D50B52" points="7.8752443 20.4545539 4.4352443 16.7705539 5.3482443 15.6175539 8.9542443 18.8935539"></polygon>
                <path d="M4.6040443,17.6543539 C4.6040443,17.6543539 3.4380443,15.5263539 4.8760443,14.7873539 C6.3130443,14.0483539 5.9290443,15.8453539 5.9290443,15.8453539 C5.9290443,15.8453539 6.8990443,15.1583539 7.1870443,16.0863539 C7.4750443,17.0143539 5.8360443,17.9303539 4.6040443,17.6543539" id="Fill-237" fill="#E61E73"></path>
                <path d="M16.8921443,58.7532539 C16.8921443,58.7532539 17.6811443,60.2082539 17.2951443,61.5382539 C16.9091443,62.8692539 16.1381443,61.9822539 16.4471443,60.3432539 C15.3481443,62.8302539 14.5381443,62.9272539 14.4031443,62.5802539 C14.2071443,62.0762539 14.9241443,60.7872539 14.9241443,60.7872539 C14.9241443,60.7872539 14.1911443,62.1172539 13.5351443,62.0782539 C12.8801443,62.0402539 14.0171443,60.2272539 14.0171443,60.2272539 C14.0171443,60.2272539 13.1691443,61.3262539 12.7261443,61.1722539 C12.2821443,61.0182539 13.5741443,59.3602539 13.5741443,59.3602539 C13.5741443,59.3602539 12.9841443,59.9572539 12.6331443,59.6302539 C12.2821443,59.3022539 13.9551443,57.3042539 15.6151443,57.2812539" id="Fill-238" fill="#FED185"></path>
                <path d="M39.2749443,58.7532539 C39.2749443,58.7532539 38.4859443,60.2082539 38.8719443,61.5382539 C39.2579443,62.8692539 40.0289443,61.9822539 39.7199443,60.3432539 C40.8189443,62.8302539 41.6289443,62.9272539 41.7639443,62.5802539 C41.9599443,62.0762539 41.2439443,60.7872539 41.2439443,60.7872539 C41.2439443,60.7872539 41.9759443,62.1172539 42.6319443,62.0782539 C43.2869443,62.0402539 42.1499443,60.2272539 42.1499443,60.2272539 C42.1499443,60.2272539 42.9979443,61.3262539 43.4419443,61.1722539 C43.8849443,61.0182539 42.5929443,59.3602539 42.5929443,59.3602539 C42.5929443,59.3602539 43.1829443,59.9572539 43.5339443,59.6302539 C43.8849443,59.3022539 42.2119443,57.3042539 40.5509443,57.2812539" id="Fill-239" fill="#FED185"></path>
                <path d="M5.5421443,34.4001539 C5.6491443,34.0971539 5.8461443,34.0471539 6.0391443,34.0901539 C5.9141443,33.3771539 5.8691443,32.9311539 5.8691443,32.9311539 C5.8591443,32.9221539 5.8491443,32.9121539 5.8391443,32.9021539 C4.8671443,31.9681539 3.2711443,33.0111539 3.6881443,34.2931539 C4.0111443,35.2861539 5.0611443,35.9201539 6.5181443,36.2561539 C6.4161443,35.8791539 6.3301443,35.5191539 6.2561443,35.1841539 C5.8581443,35.0671539 5.3891443,34.8341539 5.5421443,34.4001539" id="Fill-240" fill="#DFAC63"></path>
                <path d="M52.2144443,34.4001539 C52.1074443,34.0971539 51.9104443,34.0471539 51.7174443,34.0901539 C51.8424443,33.3771539 51.8874443,32.9311539 51.8874443,32.9311539 C51.8974443,32.9221539 51.9074443,32.9121539 51.9174443,32.9021539 C52.8894443,31.9681539 54.4854443,33.0111539 54.0684443,34.2931539 C53.7454443,35.2861539 52.6954443,35.9201539 51.2384443,36.2561539 C51.3404443,35.8791539 51.4264443,35.5191539 51.5004443,35.1841539 C51.8984443,35.0671539 52.3674443,34.8341539 52.2144443,34.4001539" id="Fill-241" fill="#DFAC63"></path>
                <path d="M19.6800443,51.0199539 C19.6800443,51.0199539 18.8980443,50.7379539 18.8080443,51.2769539 C18.7180443,51.8159539 19.3280443,51.7239539 19.3470443,52.0409539 C19.3670443,52.3569539 18.9650443,52.4109539 19.3470443,53.1129539 C19.7740443,53.5679539 19.7510443,53.8599539 19.5270443,54.3759539 C19.3020443,54.8929539 19.7070443,55.2159539 19.9310443,55.5709539 C20.1560443,55.9259539 19.7310443,56.7079539 20.4940443,56.8439539 L19.6800443,51.0199539 Z" id="Fill-242" fill="#FFFFFF"></path>
                <path d="M36.4452443,51.0949539 C36.4452443,51.0949539 37.2802443,50.7379539 37.3692443,51.2769539 C37.4592443,51.8159539 36.8502443,51.7239539 36.8312443,52.0409539 C36.8112443,52.3569539 37.2122443,52.4109539 36.8312443,53.1129539 C36.4042443,53.5679539 36.4262443,53.8599539 36.6512443,54.3759539 C36.8752443,54.8929539 36.4712443,55.2159539 36.2472443,55.5709539 C36.0222443,55.9259539 36.4472443,56.7079539 35.6842443,56.8439539 L36.4452443,51.0949539 Z" id="Fill-243" fill="#FFFFFF"></path>
            </g>
        </g>
    </g>
</svg>