<?xml version="1.0" encoding="UTF-8"?>
<svg width="120px" height="100px" viewBox="0 0 120 100" version="1.1" xmlns="http://www.w3.org/2000/svg" xmlns:xlink="http://www.w3.org/1999/xlink">
    <!-- Generator: Sketch 53.1 (72631) - https://sketchapp.com -->
    <title>Group 9912</title>
    <desc>Created with Sketch.</desc>
    <g id="Page-1" stroke="none" stroke-width="1" fill="none" fill-rule="evenodd">
        <g id="Group-99">
            <path d="M113.363811,68.3321841 C119.664811,59.1051841 120.593811,47.0081841 117.509811,36.4581841 C110.587811,12.7821841 86.0688108,1.12618411 62.9628108,0.0761841095 C38.8128108,-1.02081589 13.3768108,9.71818411 3.48881084,33.0091841 C-1.04818916,43.6981841 -1.24818916,55.4431841 3.40681084,66.1191841 C7.08781084,74.5621841 13.7618108,81.6641841 22.1508108,85.4041841 C31.1858108,91.5831841 41.9778108,95.3041841 52.8618108,94.5111841 C60.7178108,93.9391841 68.6538108,91.7241841 76.5628108,92.6721841 C80.9578108,93.1991841 101.826811,103.884184 99.7548108,98.4891841 C99.2838108,97.2631841 98.7198108,96.1231841 98.0818108,95.0561841 C94.4958108,85.3931841 108.686811,75.1811841 113.363811,68.3321841" id="Fill-13" fill="#FFFDFE"></path>
            <path d="M45.0025108,31.3370841 C45.0025108,30.5370841 45.4625108,30.1370841 46.3825108,30.1370841 C47.3025108,30.1370841 47.7625108,30.5210841 47.7625108,31.2890841 C47.7625108,32.3290841 47.7225108,33.0010841 47.6425108,33.3050841 L47.6425108,33.5680841 C47.1935108,34.9290841 46.9705108,36.4330841 46.9705108,38.0800841 L46.9705108,41.6800841 C46.9705108,43.7280841 46.7185108,46.8110841 46.2145108,50.9300841 C45.7105108,55.0500841 45.4585108,58.0220841 45.4585108,59.8450841 C45.4585108,63.1730841 44.8255108,64.8360841 43.5635108,64.8360841 C42.6185108,64.8360841 42.1475108,64.1360841 42.1475108,62.7360841 C42.1475108,61.3370841 42.0995108,59.9250841 42.0025108,58.5010841 C41.9065108,57.0770841 41.7505108,55.5100841 41.5345108,53.7980841 C41.3185108,52.0860841 41.1305108,50.6740841 40.9715108,49.5630841 C40.8115108,48.4500841 40.5705108,46.8580841 40.2505108,44.7870841 C39.9315108,42.7150841 39.7145108,41.3120841 39.6035108,40.5750841 C39.4905108,41.6630841 39.4355108,42.7590841 39.4355108,43.8630841 C39.4355108,44.9670841 39.3115108,47.0510841 39.0635108,50.1140841 C38.8155108,53.1780841 38.3835108,56.2930841 37.7675108,59.4610841 C37.1505108,62.6290841 36.4515108,64.2120841 35.6675108,64.2120841 C34.4035108,64.1960841 33.4515108,60.7650841 32.8125108,53.9180841 C32.5235108,50.9750841 32.2685108,48.0150841 32.0445108,45.0390841 C31.4685108,37.4240841 30.9645108,33.1290841 30.5325108,32.1520841 C30.8045108,31.5760841 31.2755108,31.2890841 31.9475108,31.2890841 C33.0045108,31.2890841 33.5315108,32.4770841 33.5315108,34.8530841 C33.5315108,37.2280841 33.8755108,40.8520841 34.5645108,45.7230841 C35.2515108,50.5940841 35.6355108,54.1490841 35.7155108,56.3900841 C37.1065108,46.9020841 37.8035108,39.6800841 37.8035108,34.7200841 L39.1235108,34.1450841 C39.5235108,34.1450841 39.8665108,34.2480841 40.1545108,34.4560841 C40.4425108,34.6640841 40.5865108,34.9600841 40.5865108,35.3440841 L40.5865108,35.7520841 C41.5145108,38.9040841 42.2505108,43.4710841 42.7945108,49.4540841 C43.0505108,52.1900841 43.2905108,54.3100841 43.5145108,55.8140841 C44.1225108,51.2710841 44.4265108,45.8550841 44.4265108,39.5670841 C44.4265108,38.7360841 44.5505108,37.5040841 44.7985108,35.8720841 C45.0465108,34.2400841 45.1705108,33.0090841 45.1705108,32.1770841 C45.0585108,31.8890841 45.0025108,31.6080841 45.0025108,31.3370841" id="Fill-15" fill="#FFFDFE"></path>
            <path d="M53.1617108,41.4395841 L52.9217108,45.9745841 C52.9217108,50.7255841 53.3067108,54.8705841 54.0737108,58.4055841 C54.8907108,60.4685841 55.6657108,61.6845841 56.4017108,62.0525841 C56.9937108,62.0525841 57.5287108,61.8125841 58.0097108,61.3335841 C58.4897108,60.8525841 58.8687108,60.2095841 59.1477108,59.4015841 C59.4297108,58.5935841 59.6657108,57.7415841 59.8567108,56.8455841 C60.0327108,55.9655841 60.1697108,55.0215841 60.2657108,54.0135841 C60.4257108,52.2705841 60.5057108,50.7825841 60.5057108,49.5495841 C60.5057108,48.3185841 60.3957108,46.4305841 60.1817108,43.8865841 C59.9647108,41.3435841 59.8567108,39.4475841 59.8567108,38.1995841 L59.8567108,37.3355841 C59.8237108,36.1355841 59.4327108,35.0685841 58.6817108,34.1315841 C57.9297108,33.1965841 56.9687108,32.7285841 55.8027108,32.7285841 C54.6817108,32.7285841 53.9367108,33.3605841 53.5697108,34.6245841 C53.2657108,35.6795841 53.1127108,36.9845841 53.1127108,38.5365841 L53.1617108,41.4395841 Z M50.2577108,48.1585841 L50.3067108,46.2875841 C50.3067108,46.1265841 50.2817108,46.0465841 50.2337108,46.0465841 L50.2337108,45.1595841 C50.2337108,40.0075841 50.5297108,36.3435841 51.1217108,34.1685841 C51.6177108,32.3295841 52.0977108,31.1925841 52.5607108,30.7605841 C53.0247108,30.3295841 53.4817108,30.1125841 53.9297108,30.1125841 C57.7357108,30.1125841 60.3607108,32.0325841 61.8007108,35.8725841 C62.6327108,38.0805841 63.0487108,40.7995841 63.0487108,44.0315841 L63.0487108,44.3905841 L63.1437108,49.9585841 C63.1437108,59.3805841 60.9607108,64.0925841 56.5937108,64.0925841 C54.7847108,64.0925841 53.4017108,63.0925841 52.4417108,61.0925841 C51.5297108,59.1725841 50.9697108,57.2855841 50.7617108,55.4295841 C50.4257108,52.6295841 50.2577108,50.2065841 50.2577108,48.1585841 L50.2577108,48.1585841 Z" id="Fill-17" fill="#FFFDFE"></path>
            <path d="M79.1744108,31.3370841 C79.1744108,30.5370841 79.6344108,30.1370841 80.5544108,30.1370841 C81.4744108,30.1370841 81.9344108,30.5210841 81.9344108,31.2890841 C81.9344108,32.3290841 81.8944108,33.0010841 81.8144108,33.3050841 L81.8144108,33.5680841 C81.3654108,34.9290841 81.1424108,36.4330841 81.1424108,38.0800841 L81.1424108,41.6800841 C81.1424108,43.7280841 80.8904108,46.8110841 80.3864108,50.9300841 C79.8824108,55.0500841 79.6304108,58.0220841 79.6304108,59.8450841 C79.6304108,63.1730841 78.9984108,64.8360841 77.7354108,64.8360841 C76.7904108,64.8360841 76.3194108,64.1360841 76.3194108,62.7360841 C76.3194108,61.3370841 76.2714108,59.9250841 76.1754108,58.5010841 C76.0784108,57.0770841 75.9234108,55.5100841 75.7064108,53.7980841 C75.4904108,52.0860841 75.3024108,50.6740841 75.1434108,49.5630841 C74.9834108,48.4500841 74.7424108,46.8580841 74.4234108,44.7870841 C74.1034108,42.7150841 73.8874108,41.3120841 73.7754108,40.5750841 C73.6624108,41.6630841 73.6074108,42.7590841 73.6074108,43.8630841 C73.6074108,44.9670841 73.4834108,47.0510841 73.2354108,50.1140841 C72.9874108,53.1780841 72.5554108,56.2930841 71.9394108,59.4610841 C71.3234108,62.6290841 70.6234108,64.2120841 69.8394108,64.2120841 C68.5754108,64.1960841 67.6234108,60.7650841 66.9844108,53.9180841 C66.6954108,50.9750841 66.4404108,48.0150841 66.2164108,45.0390841 C65.6404108,37.4240841 65.1364108,33.1290841 64.7044108,32.1520841 C64.9764108,31.5760841 65.4484108,31.2890841 66.1204108,31.2890841 C67.1764108,31.2890841 67.7034108,32.4770841 67.7034108,34.8530841 C67.7034108,37.2280841 68.0474108,40.8520841 68.7364108,45.7230841 C69.4234108,50.5940841 69.8074108,54.1490841 69.8874108,56.3900841 C71.2794108,46.9020841 71.9754108,39.6800841 71.9754108,34.7200841 L73.2954108,34.1450841 C73.6954108,34.1450841 74.0394108,34.2480841 74.3264108,34.4560841 C74.6144108,34.6640841 74.7594108,34.9600841 74.7594108,35.3440841 L74.7594108,35.7520841 C75.6874108,38.9040841 76.4224108,43.4710841 76.9664108,49.4540841 C77.2224108,52.1900841 77.4624108,54.3100841 77.6874108,55.8140841 C78.2944108,51.2710841 78.5984108,45.8550841 78.5984108,39.5670841 C78.5984108,38.7360841 78.7224108,37.5040841 78.9704108,35.8720841 C79.2184108,34.2400841 79.3424108,33.0090841 79.3424108,32.1770841 C79.2304108,31.8890841 79.1744108,31.6080841 79.1744108,31.3370841" id="Fill-19" fill="#FFFDFE"></path>
            <path d="M87.5728108,50.1504841 L87.6208108,52.4774841 C87.6208108,54.7174841 87.3168108,55.8374841 86.7098108,55.8374841 C86.3738108,55.8374841 86.0648108,55.4374841 85.7858108,54.6374841 C85.5058108,53.8384841 85.3658108,52.8304841 85.3658108,51.6144841 L85.5568108,43.4794841 L85.3168108,27.3534841 C85.3168108,26.8414841 85.5338108,26.3974841 85.9658108,26.0214841 C86.3968108,25.6454841 86.8288108,25.4574841 87.2608108,25.4574841 C87.6928108,25.4574841 88.0248108,25.5734841 88.2578108,25.8054841 C88.4888108,26.0374841 88.6048108,26.3214841 88.6048108,26.6574841 C88.6048108,29.2814841 88.4328108,33.2004841 88.0898108,38.4164841 C87.7448108,43.6304841 87.5728108,47.5434841 87.5728108,50.1504841 M88.2448108,62.5564841 C88.2448108,63.7084841 87.4368108,64.2844841 85.8208108,64.2844841 C85.4528108,64.2844841 85.0898108,64.1124841 84.7288108,63.7684841 C84.3698108,63.4234841 84.1888108,62.9684841 84.1888108,62.4004841 C84.1888108,61.8334841 84.3888108,61.3204841 84.7898108,60.8644841 C85.1888108,60.4094841 85.6848108,60.1804841 86.2768108,60.1804841 C86.8688108,60.1804841 87.3448108,60.4134841 87.7048108,60.8774841 C88.0648108,61.3404841 88.2448108,61.9004841 88.2448108,62.5564841" id="Fill-21" fill="#FFFDFE"></path>
            <path d="M108.453711,66.6578841 C114.178711,58.2738841 115.023711,47.2818841 112.221711,37.6958841 C105.930711,16.1818841 83.6517108,5.59188411 62.6567108,4.63688411 C40.7127108,3.63988411 17.5997108,13.3978841 8.61571084,34.5618841 C4.49171084,44.2738841 4.31071084,54.9468841 8.54071084,64.6468841 C11.8857108,72.3188841 17.9507108,78.7718841 25.5727108,82.1708841 C33.7827108,87.7848841 43.5887108,91.1658841 53.4777108,90.4458841 C60.6157108,89.9258841 67.8277108,87.9128841 75.0147108,88.7748841 C79.0077108,89.2528841 97.9707108,98.9628841 96.0877108,94.0598841 C95.6597108,92.9468841 95.1477108,91.9098841 94.5667108,90.9408841 C91.3087108,82.1598841 104.203711,72.8808841 108.453711,66.6578841" id="Fill-23" fill="#E34A3A"></path>
            <path d="M37.5279108,59.9268841 L37.4199108,60.2098841 C37.4769108,60.3848841 37.5069108,60.6138841 37.5069108,60.8978841 C37.5069108,61.1808841 37.3679108,61.4388841 37.0919108,61.6708841 C36.8159108,61.9038841 36.4519108,62.0198841 36.0019108,62.0198841 C35.1439108,62.0198841 34.7149108,61.0688841 34.7149108,59.1628841 C34.7149108,56.3288841 34.5659108,50.9728841 34.2679108,43.0938841 C33.9699108,35.2148841 33.6689108,31.0428841 33.3639108,30.5768841 C33.3779108,29.0368841 34.4319108,28.2148841 36.5249108,28.1138841 C36.8439108,28.0988841 37.2769108,28.0918841 37.8229108,28.0918841 C38.3679108,28.0918841 38.7969108,28.1938841 39.1089108,28.3968841 C39.4219108,28.6008841 39.5779108,29.0148841 39.5779108,29.6398841 C39.5779108,30.2648841 39.1639108,30.5768841 38.3349108,30.5768841 L37.2449108,30.5338841 C36.4159108,30.5338841 36.0019108,30.7008841 36.0019108,31.0348841 C36.0019108,32.4158841 36.1109108,34.4408841 36.3289108,37.1088841 C36.5469108,39.7758841 36.6629108,41.7488841 36.6769108,43.0288841 C36.8669108,42.9988841 37.1209108,42.9408841 37.4409108,42.8538841 C38.1969108,42.6508841 38.7569108,42.5478841 39.1199108,42.5478841 C39.4829108,42.5478841 39.7849108,42.6908841 40.0249108,42.9738841 C40.2639108,43.2568841 40.3839108,43.5728841 40.3839108,43.9218841 C40.3839108,44.8958841 39.1489108,45.3828841 36.6769108,45.3828841 C36.6769108,46.9958841 36.8199108,49.4168841 37.1029108,52.6438841 C37.3859108,55.8708841 37.5279108,58.2988841 37.5279108,59.9268841" id="Fill-25" fill="#FFFFFF"></path>
            <path d="M49.7720108,32.1583841 C49.4730108,31.3953841 49.1030108,30.8063841 48.6600108,30.3913841 C48.2160108,29.9773841 47.7770108,29.7703841 47.3400108,29.7703841 C46.9050108,29.7703841 46.5440108,29.9233841 46.2610108,30.2283841 C45.9780108,30.5343841 45.7380108,30.9673841 45.5420108,31.5263841 C45.3450108,32.0863841 45.1700108,32.6853841 45.0180108,33.3253841 C44.8660108,33.9653841 44.7500108,34.7023841 44.6690108,35.5383841 C44.5890108,36.3743841 44.5200108,37.1343841 44.4620108,37.8163841 C44.4180108,38.4853841 44.3820108,39.2263841 44.3530108,40.0413841 C44.3240108,41.3923841 44.3020108,42.4463841 44.2880108,43.2023841 L44.2880108,43.3983841 C44.2880108,45.3903841 44.4400108,47.5383841 44.7460108,49.8423841 C45.0510108,52.1463841 45.3670108,54.0323841 45.6940108,55.5003841 C46.0210108,56.9693841 46.4600108,58.2153841 47.0130108,59.2403841 C47.5660108,60.2643841 48.1830108,60.7773841 48.8670108,60.7773841 C49.4620108,60.7773841 49.9640108,60.2183841 50.3720108,59.0973841 C50.7780108,57.9643841 51.0690108,56.5683841 51.2440108,54.9113841 C51.5340108,51.9463841 51.6830108,49.8633841 51.6910108,48.6643841 C51.6980108,47.4653841 51.6980108,46.5903841 51.6910108,46.0373841 C51.6830108,45.4843841 51.6620108,44.6813841 51.6260108,43.6283841 C51.5880108,42.5743841 51.5270108,41.5853841 51.4400108,40.6623841 C51.3520108,39.7393841 51.2400108,38.7183841 51.1020108,37.5983841 C50.9630108,36.4793841 50.7820108,35.4833841 50.5560108,34.6113841 C50.3320108,33.7393841 50.0700108,32.9223841 49.7720108,32.1583841 L49.7720108,32.1583841 Z M53.7300108,48.5013841 L53.3370108,54.1483841 L53.3370108,54.3453841 C53.1480108,55.1733841 53.0540108,56.0673841 53.0540108,57.0263841 C53.0540108,57.9863841 52.8860108,58.9133841 52.5520108,59.8063841 C52.2170108,60.7013841 51.7090108,61.4933841 51.0260108,62.1833841 C50.3420108,62.8743841 49.5930108,63.2193841 48.7800108,63.2193841 C47.9650108,63.2193841 47.2240108,62.9433841 46.5550108,62.3903841 C45.8860108,61.8383841 45.3350108,61.1303841 44.8980108,60.2643841 C44.4620108,59.4003841 44.0770108,58.3673841 43.7430108,57.1683841 C43.4080108,55.9693841 43.1500108,54.7993841 42.9680108,53.6583841 C42.7870108,52.5163841 42.6380108,51.3133841 42.5220108,50.0493841 C42.3470108,48.1163841 42.2630108,46.6153841 42.2710108,45.5463841 C42.2780108,44.4773841 42.2740108,43.5623841 42.2600108,42.7993841 C42.2460108,42.0363841 42.2310108,41.3483841 42.2160108,40.7383841 L42.2160108,39.7243841 L42.2160108,38.5363841 C42.2310108,37.6793841 42.2560108,36.9083841 42.2930108,36.2243841 C42.3290108,35.5423841 42.3940108,34.8043841 42.4890108,34.0123841 C42.5840108,33.2203841 42.7040108,32.5213841 42.8480108,31.9183841 C42.9940108,31.3153841 43.1900108,30.7223841 43.4370108,30.1413841 C43.6990108,29.5453841 43.9900108,29.0583841 44.3090108,28.6803841 C45.0370108,27.8383841 45.8720108,27.4163841 46.8170108,27.4163841 C47.7620108,27.4163841 48.5690108,27.5873841 49.2380108,27.9283841 C49.9060108,28.2693841 50.4690108,28.8183841 50.9270108,29.5743841 C51.3850108,30.3303841 51.7850108,31.0643841 52.1260108,31.7763841 C52.4680108,32.4893841 52.7370108,33.4813841 52.9330108,34.7533841 C53.1300108,36.0253841 53.2870108,37.0543841 53.4020108,37.8383841 C53.5190108,38.6373841 53.5990108,39.7793841 53.6420108,41.2623841 C53.7010108,43.2543841 53.7300108,44.8083841 53.7300108,45.9283841 L53.7300108,48.5013841 Z" id="Fill-27" fill="#FFFFFF"></path>
            <path d="M63.9449108,32.1583841 C63.6469108,31.3953841 63.2769108,30.8063841 62.8339108,30.3913841 C62.3889108,29.9773841 61.9499108,29.7703841 61.5139108,29.7703841 C61.0779108,29.7703841 60.7179108,29.9233841 60.4349108,30.2283841 C60.1509108,30.5343841 59.9119108,30.9673841 59.7159108,31.5263841 C59.5189108,32.0863841 59.3439108,32.6853841 59.1919108,33.3253841 C59.0399108,33.9653841 58.9229108,34.7023841 58.8429108,35.5383841 C58.7629108,36.3743841 58.6939108,37.1343841 58.6359108,37.8163841 C58.5919108,38.4853841 58.5559108,39.2263841 58.5269108,40.0413841 C58.4979108,41.3923841 58.4759108,42.4463841 58.4619108,43.2023841 L58.4619108,43.3983841 C58.4619108,45.3903841 58.6139108,47.5383841 58.9199108,49.8423841 C59.2239108,52.1463841 59.5409108,54.0323841 59.8679108,55.5003841 C60.1949108,56.9693841 60.6339108,58.2153841 61.1869108,59.2403841 C61.7389108,60.2643841 62.3569108,60.7773841 63.0409108,60.7773841 C63.6359108,60.7773841 64.1379108,60.2183841 64.5449108,59.0973841 C64.9519108,57.9643841 65.2429108,56.5683841 65.4179108,54.9113841 C65.7079108,51.9463841 65.8569108,49.8633841 65.8639108,48.6643841 C65.8719108,47.4653841 65.8719108,46.5903841 65.8639108,46.0373841 C65.8569108,45.4843841 65.8349108,44.6813841 65.7989108,43.6283841 C65.7619108,42.5743841 65.7009108,41.5853841 65.6139108,40.6623841 C65.5259108,39.7393841 65.4139108,38.7183841 65.2749108,37.5983841 C65.1369108,36.4793841 64.9559108,35.4833841 64.7299108,34.6113841 C64.5049108,33.7393841 64.2429108,32.9223841 63.9449108,32.1583841 L63.9449108,32.1583841 Z M67.9029108,48.5013841 L67.5099108,54.1483841 L67.5099108,54.3453841 C67.3209108,55.1733841 67.2269108,56.0673841 67.2269108,57.0263841 C67.2269108,57.9863841 67.0599108,58.9133841 66.7249108,59.8063841 C66.3909108,60.7013841 65.8819108,61.4933841 65.1989108,62.1833841 C64.5149108,62.8743841 63.7669108,63.2193841 62.9529108,63.2193841 C62.1389108,63.2193841 61.3979108,62.9433841 60.7289108,62.3903841 C60.0599108,61.8383841 59.5079108,61.1303841 59.0719108,60.2643841 C58.6359108,59.4003841 58.2509108,58.3673841 57.9169108,57.1683841 C57.5819108,55.9693841 57.3239108,54.7993841 57.1419108,53.6583841 C56.9609108,52.5163841 56.8109108,51.3133841 56.6949108,50.0493841 C56.5209108,48.1163841 56.4369108,46.6153841 56.4449108,45.5463841 C56.4519108,44.4773841 56.4479108,43.5623841 56.4329108,42.7993841 C56.4189108,42.0363841 56.4039108,41.3483841 56.3899108,40.7383841 L56.3899108,39.7243841 L56.3899108,38.5363841 C56.4039108,37.6793841 56.4299108,36.9083841 56.4659108,36.2243841 C56.5029108,35.5423841 56.5679108,34.8043841 56.6629108,34.0123841 C56.7569108,33.2203841 56.8769108,32.5213841 57.0219108,31.9183841 C57.1679108,31.3153841 57.3639108,30.7223841 57.6109108,30.1413841 C57.8729108,29.5453841 58.1639108,29.0583841 58.4829108,28.6803841 C59.2099108,27.8383841 60.0459108,27.4163841 60.9909108,27.4163841 C61.9349108,27.4163841 62.7429108,27.5873841 63.4109108,27.9283841 C64.0799108,28.2693841 64.6429108,28.8183841 65.1009108,29.5743841 C65.5589108,30.3303841 65.9589108,31.0643841 66.2999108,31.7763841 C66.6409108,32.4893841 66.9109108,33.4813841 67.1069108,34.7533841 C67.3029108,36.0253841 67.4599108,37.0543841 67.5759108,37.8383841 C67.6919108,38.6373841 67.7719108,39.7793841 67.8159108,41.2623841 C67.8739108,43.2543841 67.9029108,44.8083841 67.9029108,45.9283841 L67.9029108,48.5013841 Z" id="Fill-29" fill="#FFFFFF"></path>
            <path d="M73.9859108,55.2168841 L73.9859108,59.4898841 C75.1049108,58.7638841 76.0799108,57.7498841 76.9079108,56.4488841 C77.7369108,55.1488841 78.3689108,53.7268841 78.8049108,52.1858841 C79.6189108,49.2358841 80.0259108,46.2908841 80.0259108,43.3558841 C80.0259108,39.9828841 79.6039108,37.3218841 78.7609108,35.3738841 C77.9039108,33.3678841 76.8419108,32.0458841 75.5779108,31.4058841 C74.7929108,30.9988841 73.9059108,30.8028841 72.9179108,30.8178841 L72.9179108,30.8608841 C72.9179108,33.5508841 73.0949108,37.5988841 73.4519108,43.0058841 C73.8079108,48.4138841 73.9859108,52.4848841 73.9859108,55.2168841 M82.2069108,45.5348841 L82.3159108,46.4728841 C82.3299108,48.5808841 81.7699108,51.0668841 80.6359108,53.9308841 C79.3569108,57.2008841 77.8449108,59.5198841 76.1009108,60.8858841 C75.1129108,61.6708841 74.0949108,62.0708841 73.0489108,62.0848841 C72.4959108,62.0848841 71.9949108,61.9578841 71.5439108,61.7038841 C71.0929108,61.4488841 70.8679108,61.0688841 70.8679108,60.5588841 C71.5219108,59.8758841 71.8489108,58.1238841 71.8489108,55.3038841 C71.8489108,53.6468841 71.7109108,51.1828841 71.4349108,47.9118841 C71.1589108,44.6418841 71.0209108,42.1928841 71.0209108,40.5648841 L71.1519108,35.6798841 C71.1519108,34.8948841 70.9879108,33.8368841 70.6609108,32.5068841 C70.3339108,31.1768841 70.1709108,30.2368841 70.1709108,29.6838841 C70.1709108,28.6518841 71.3109108,28.1348841 73.5929108,28.1348841 L74.2699108,28.1348841 C77.3069108,28.1348841 79.5099108,29.8358841 80.8769108,33.2378841 C81.8359108,35.6078841 82.3159108,38.8778841 82.3159108,43.0498841 L82.3159108,45.1208841 C82.2429108,45.2518841 82.2069108,45.3908841 82.2069108,45.5348841" id="Fill-31" fill="#FFFFFF"></path>
            <path d="M87.5923108,50.1368841 L87.6353108,52.2508841 C87.6353108,54.2868841 87.3593108,55.3038841 86.8073108,55.3038841 C86.5013108,55.3038841 86.2223108,54.9408841 85.9673108,54.2138841 C85.7133108,53.4878841 85.5863108,52.5718841 85.5863108,51.4668841 L85.7603108,44.0748841 L85.5423108,29.4218841 C85.5423108,28.9568841 85.7383108,28.5538841 86.1313108,28.2118841 C86.5243108,27.8698841 86.9163108,27.6998841 87.3083108,27.6998841 C87.7003108,27.6998841 88.0023108,27.8048841 88.2133108,28.0158841 C88.4243108,28.2268841 88.5293108,28.4848841 88.5293108,28.7888841 C88.5293108,31.1738841 88.3733108,34.7358841 88.0613108,39.4738841 C87.7483108,44.2128841 87.5923108,47.7668841 87.5923108,50.1368841 M88.2023108,61.4088841 C88.2023108,62.4558841 87.4683108,62.9798841 86.0003108,62.9798841 C85.6653108,62.9798841 85.3353108,62.8238841 85.0083108,62.5108841 C84.6813108,62.1988841 84.5173108,61.7838841 84.5173108,61.2678841 C84.5173108,60.7518841 84.6983108,60.2858841 85.0633108,59.8718841 C85.4263108,59.4578841 85.8763108,59.2508841 86.4143108,59.2508841 C86.9523108,59.2508841 87.3853108,59.4618841 87.7123108,59.8828841 C88.0383108,60.3048841 88.2023108,60.8138841 88.2023108,61.4088841" id="Fill-33" fill="#FFFFFF"></path>
            <path d="M40.7672108,13.1495841 C35.6312108,12.6655841 29.5822108,16.7185841 25.7152108,19.7345841 C20.6842108,23.6575841 16.6572108,28.9055841 14.0632108,34.7245841 C8.08421084,48.1425841 10.8802108,61.6595841 18.8582108,73.4895841 C18.9462108,73.6205841 19.2372108,73.5455841 19.1622108,73.3735841 C14.3712108,62.4095841 14.0102108,48.0295841 18.3602108,36.8545841 C20.4452108,31.4975841 23.7792108,26.7075841 27.9472108,22.7645841 C30.0572108,20.7675841 32.3542108,19.0205841 34.8642108,17.5545841 C36.9402108,16.3425841 39.3322108,15.6135841 41.1982108,14.1035841 C41.6512108,13.7365841 41.2092108,13.1915841 40.7672108,13.1495841" id="Fill-35" fill="#F45F53"></path>
            <path d="M108.456611,44.2833841 C108.292611,43.6883841 107.385611,43.7303841 107.201611,44.2833841 C105.611611,49.0673841 104.798611,54.0723841 102.965611,58.7723841 C101.172611,63.3703841 98.3226108,67.5553841 96.9356108,72.3113841 C96.7836108,72.8283841 97.4196108,73.1993841 97.8506108,72.9573841 C106.634611,68.0123841 111.037611,53.6413841 108.456611,44.2833841" id="Fill-37" fill="#F45F53"></path>
        </g>
    </g>
</svg>