<?xml version="1.0" encoding="UTF-8"?>
<svg width="111px" height="72px" viewBox="0 0 111 72" version="1.1" xmlns="http://www.w3.org/2000/svg" xmlns:xlink="http://www.w3.org/1999/xlink">
    <!-- Generator: Sketch 53.1 (72631) - https://sketchapp.com -->
    <title>Group 92sticker2</title>
    <desc>Created with Sketch.</desc>
    <g id="Page-1" stroke="none" stroke-width="1" fill="none" fill-rule="evenodd">
        <g id="Group-92">
            <path d="M108.723781,51.6631891 C109.304781,32.1581891 100.225781,13.0211891 81.8667813,4.75718914 C63.8587813,-3.34881086 40.6327813,-1.36481086 26.0977813,12.7861891 C22.2717813,16.5111891 19.2647813,20.9741891 17.2377813,25.9071891 C16.3287813,28.1141891 14.9477813,31.7931891 15.0477813,34.8931891 C13.8007813,36.0811891 12.9307813,37.3851891 12.3847813,38.7411891 C8.09578129,38.7581891 3.63578129,40.4681891 1.38378129,44.3051891 C-2.45521871,50.8441891 2.27978129,56.6331891 8.41078129,58.9661891 C8.05378129,62.7261891 8.84278129,66.4671891 11.8607813,69.2251891 C15.6197813,72.6621891 21.2167813,71.9841891 24.8887813,68.8441891 C26.8467813,70.8101891 29.4827813,72.0261891 32.3697813,71.8821891 C34.9247813,71.7541891 37.3817813,70.5391891 39.0047813,68.6201891 C41.7897813,70.1781891 44.9137813,70.9981891 48.2927813,70.6501891 C57.7027813,69.6801891 62.5417813,58.6211891 55.4747813,51.7401891 C55.3627813,51.6311891 55.2437813,51.5261891 55.1257813,51.4191891 C56.6827813,49.1761891 57.5867813,46.4881891 57.4517813,43.7571891 C57.2637813,39.9731891 55.0467813,36.8501891 51.9597813,34.7341891 C52.4287813,34.1331891 52.9517813,33.5591891 53.5717813,33.0321891 C56.2417813,30.7611891 59.7147813,29.7071891 63.2037813,30.1421891 C66.6067813,30.5671891 69.8607813,32.4071891 71.9337813,35.1401891 C73.4757813,37.1721891 74.3607813,39.4811891 75.1867813,41.8241891 C75.0097813,42.1141891 74.8437813,42.4121891 74.7027813,42.7231891 C71.7727813,42.6641891 68.9157813,43.6681891 66.9527813,46.1011891 C62.5737813,51.5301891 66.5777813,57.7171891 72.0857813,59.9581891 C72.4147813,63.3011891 74.4477813,66.5151891 77.7777813,67.5301891 C80.2907813,68.2961891 83.0097813,67.8271891 85.1627813,66.4291891 C86.7227813,67.5431891 88.5907813,68.1591891 90.7517813,67.9661891 C93.0707813,67.7601891 94.7467813,66.7101891 95.8437813,65.2221891 C99.9447813,66.7181891 104.619781,66.1461891 108.073781,62.4731891 C111.580781,58.7411891 111.121781,54.5431891 108.723781,51.6631891" id="Fill-156" fill="#FFFFFF"></path>
            <path d="M103.625181,60.3262891 C106.949181,58.1622891 106.669181,53.7372891 103.521181,51.6322891 C103.188181,51.4172891 103.318181,50.8762891 103.657181,50.8302891 C103.657181,50.8112891 103.651181,50.7982891 103.657181,50.7782891 C104.218181,46.7442891 101.260181,42.9972891 97.1141813,42.7682891 C93.4521813,42.5732891 90.3301813,44.9582891 88.4531813,47.8912891 C88.0951813,48.4452891 87.1231813,48.4122891 86.9671813,47.6962891 C86.4131813,45.1932891 84.9791813,43.3232891 82.3921813,42.9382891 C82.2621813,42.9182891 82.1311813,42.9122891 82.0011813,42.9062891 C81.7601813,43.6882891 80.6391813,43.7922891 80.3531813,43.1402891 C78.4491813,43.8382891 77.2631813,45.9162891 77.9931813,48.1262891 C78.2401813,48.8692891 77.1391813,49.1172891 76.8531813,48.4392891 C76.8391813,48.4062891 76.8331813,48.3732891 76.8191813,48.3412891 C76.7351813,48.3542891 76.6441813,48.3472891 76.5591813,48.2952891 C74.1471813,47.0122891 71.2931813,47.1292891 69.7681813,49.5792891 C67.7411813,52.8382891 71.1561813,56.0972891 74.4211813,54.9502891 C74.9811813,54.7472891 75.6141813,55.5102891 75.2361813,56.0052891 C73.6131813,58.1362891 73.7631813,61.1212891 75.8751813,62.8812891 C78.3961813,64.9932891 82.0661813,63.1612891 83.1031813,60.4172891 C83.3761813,59.7012891 84.4061813,59.8502891 84.5171813,60.4502891 C84.6341813,59.7922891 85.5921813,59.6092891 85.8591813,60.3652891 C86.5821813,62.4182891 88.1531813,63.7412891 90.3111813,63.5072891 C92.5531813,63.2592891 93.8111813,61.7602891 93.8821813,59.4922891 C93.9011813,58.7822891 94.7491813,58.4362891 95.2641813,58.9182891 C97.4921813,61.0042891 100.836181,62.1442891 103.625181,60.3262891 M105.065181,51.4562891 C108.005181,53.3662891 108.559181,57.5362891 106.121181,60.3462891 C103.162181,63.7612891 98.5871813,63.3832891 95.2571813,61.0042891 C93.7451813,66.3092891 85.6311813,67.0452891 84.5171813,60.7302891 C84.5101813,60.7112891 84.5171813,60.6982891 84.5171813,60.6722891 C84.5101813,60.7172891 84.4971813,60.7562891 84.4841813,60.8022891 C83.3051813,64.1392891 79.4591813,66.2632891 76.0631813,64.7192891 C72.9751813,63.3182891 72.0431813,59.6292891 73.2091813,56.7022891 C69.7091813,56.9892891 66.5881813,53.8682891 67.6371813,50.0612891 C68.7581813,45.9882891 73.3261813,44.8542891 76.5001813,47.0512891 C76.2201813,44.5552891 77.8431813,42.0842891 80.3191813,41.3352891 C80.0851813,24.5402891 55.8481813,21.1642891 46.1951813,32.6082891 L45.1261813,32.4262891 C48.9261813,25.0222891 59.2421813,23.1782891 66.7251813,24.5342891 C74.8131813,26.0002891 82.2091813,32.5822891 82.1381813,41.0942891 C84.0931813,41.1652891 85.7621813,42.2732891 86.9211813,43.8052891 C88.1411813,30.3792891 77.5891813,18.3292891 63.7271813,18.6742891 C52.0731813,18.9612891 40.4341813,26.0782891 35.6241813,36.7142891 L34.3791813,36.3432891 C38.4591813,24.1032891 53.7741813,16.1722891 66.0531813,16.9862891 C80.4561813,17.9382891 90.4991813,31.2202891 88.4791813,45.2062891 C90.3371813,43.1272891 92.8261813,41.5432891 95.5371813,41.1722891 C92.5331813,26.5212891 80.3461813,14.2302891 65.1801813,12.5552891 C57.5811813,11.7142891 49.8451813,13.6892891 43.3411813,17.6452891 C36.7061813,21.6852891 32.4431813,27.3682891 28.8331813,34.0492891 L27.8291813,33.6582891 C32.4181813,18.5902891 50.6341813,9.09428914 65.6361813,10.8992891 C81.1531813,12.7702891 94.7031813,25.6672891 97.2381813,41.1072891 C97.8701813,41.1462891 98.5031813,41.2432891 99.1421813,41.4262891 C99.1541813,41.4322891 99.1611813,41.4322891 99.1741813,41.4392891 C99.4861813,22.0962891 82.7831813,7.34728914 64.1761813,6.12228914 C46.7491813,4.97528914 24.1801813,14.6862891 21.8201813,33.9572891 L20.6351813,33.9312891 C21.0711813,13.6172891 46.9121813,3.27428914 64.1761813,4.38228914 C83.8521813,5.64028914 101.546181,21.3532891 100.868181,41.9092891 C100.868181,41.9872891 100.855181,42.0652891 100.836181,42.1302891 C104.036181,43.8702891 106.075181,47.5462891 105.183181,51.1952891 C105.156181,51.3062891 105.111181,51.3852891 105.065181,51.4562891" id="Fill-158" fill="#1C1C1B"></path>
            <path d="M83.1876813,54.0567891 C83.5656813,53.8877891 83.5326813,53.2817891 83.1876813,53.0987891 C81.6746813,52.3037891 80.1826813,51.4757891 78.6646813,50.7067891 C78.0576813,50.4007891 77.5306813,51.2867891 78.1296813,51.6257891 C79.2636813,52.2647891 80.4166813,52.8767891 81.5646813,53.4897891 C80.4236813,53.8417891 79.2446813,54.0047891 78.0386813,53.9787891 C77.3796813,53.9657891 77.3936813,54.9497891 78.0386813,54.9947891 C79.8366813,55.1257891 81.5446813,54.7927891 83.1876813,54.0567891 M88.8506813,56.5337891 C90.9426813,56.5267891 92.1676813,53.9847891 91.5296813,52.1737891 C91.2946813,51.5147891 90.2916813,51.7757891 90.4666813,52.4667891 C90.7406813,53.5487891 90.4206813,55.0537891 89.1826813,55.3927891 C88.0486813,55.7117891 86.8176813,54.2787891 87.3196813,53.2027891 C87.4756813,52.8577891 87.0256813,52.4147891 86.7456813,52.7597891 C85.5206813,54.3177891 86.9866813,56.5397891 88.8506813,56.5337891 M99.3236813,53.6197891 C99.8716813,53.5807891 99.8776813,52.7927891 99.3236813,52.7657891 C98.3336813,52.7137891 97.3356813,52.6947891 96.3386813,52.6747891 C97.0946813,52.0297891 97.8056813,51.3457891 98.4636813,50.5897891 C98.9526813,50.0157891 98.1306813,49.1887891 97.6356813,49.7557891 C96.6656813,50.8767891 95.5896813,51.8667891 94.3836813,52.7207891 C93.9476813,53.0397891 94.0576813,53.8347891 94.6836813,53.8157891 C96.2346813,53.7697891 97.7796813,53.7177891 99.3236813,53.6197891 M103.520681,51.6327891 C106.668681,53.7377891 106.949681,58.1627891 103.624681,60.3267891 C100.835681,62.1447891 97.4926813,61.0037891 95.2636813,58.9187891 C94.7496813,58.4357891 93.9016813,58.7817891 93.8816813,59.4927891 C93.8106813,61.7607891 92.5526813,63.2587891 90.3106813,63.5067891 C88.1536813,63.7417891 86.5826813,62.4187891 85.8596813,60.3657891 C85.5916813,59.6097891 84.6336813,59.7917891 84.5166813,60.4507891 C84.4066813,59.8507891 83.3756813,59.7007891 83.1026813,60.4177891 C82.0666813,63.1607891 78.3966813,64.9927891 75.8756813,62.8807891 C73.7626813,61.1217891 73.6136813,58.1367891 75.2366813,56.0057891 C75.6146813,55.5097891 74.9816813,54.7477891 74.4206813,54.9497891 C71.1566813,56.0967891 67.7416813,52.8377891 69.7676813,49.5797891 C71.2926813,47.1287891 74.1476813,47.0117891 76.5586813,48.2957891 C76.6436813,48.3477891 76.7356813,48.3537891 76.8196813,48.3407891 C76.8336813,48.3737891 76.8386813,48.4067891 76.8526813,48.4387891 C77.1386813,49.1167891 78.2406813,48.8697891 77.9936813,48.1257891 C77.2626813,45.9167891 78.4496813,43.8377891 80.3526813,43.1397891 C80.6386813,43.7917891 81.7596813,43.6877891 82.0006813,42.9057891 C82.1306813,42.9117891 82.2616813,42.9187891 82.3916813,42.9387891 C84.9796813,43.3227891 86.4136813,45.1937891 86.9666813,47.6957891 C87.1236813,48.4127891 88.0946813,48.4457891 88.4536813,47.8907891 C90.3306813,44.9587891 93.4526813,42.5737891 97.1146813,42.7687891 C101.259681,42.9967891 104.217681,46.7447891 103.657681,50.7787891 C103.651681,50.7977891 103.657681,50.8107891 103.657681,50.8307891 C103.318681,50.8767891 103.188681,51.4167891 103.520681,51.6327891" id="Fill-160" fill="#B1F0F2"></path>
            <path d="M99.3233813,52.7661891 C99.8783813,52.7921891 99.8713813,53.5811891 99.3233813,53.6201891 C97.7793813,53.7181891 96.2343813,53.7701891 94.6833813,53.8151891 C94.0573813,53.8351891 93.9473813,53.0401891 94.3843813,52.7211891 C95.5903813,51.8671891 96.6653813,50.8761891 97.6363813,49.7551891 C98.1313813,49.1881891 98.9523813,50.0161891 98.4643813,50.5891891 C97.8053813,51.3451891 97.0943813,52.0301891 96.3393813,52.6751891 C97.3363813,52.6941891 98.3333813,52.7141891 99.3233813,52.7661891" id="Fill-162" fill="#1C1C1B"></path>
            <path d="M64.1758813,6.12268914 C82.7828813,7.34768914 99.4868813,22.0966891 99.1738813,41.4396891 C99.1608813,41.4326891 99.1548813,41.4326891 99.1418813,41.4266891 C98.5028813,41.2436891 97.8698813,41.1456891 97.2388813,41.1066891 C94.7028813,25.6676891 81.1538813,12.7696891 65.6358813,10.8996891 C50.6338813,9.09468914 32.4178813,18.5896891 27.8288813,33.6576891 C26.2908813,33.1496891 24.6158813,33.0516891 22.9938813,33.5146891 C22.5828813,33.6316891 22.1978813,33.7816891 21.8208813,33.9576891 C24.1798813,14.6856891 46.7488813,4.97568914 64.1758813,6.12268914" id="Fill-164" fill="#DF51CD"></path>
            <path d="M95.5372813,41.1719891 C92.8262813,41.5439891 90.3372813,43.1279891 88.4792813,45.2059891 C90.4992813,31.2199891 80.4562813,17.9379891 66.0532813,16.9859891 C53.7742813,16.1719891 38.4592813,24.1039891 34.3792813,36.3429891 C34.0472813,37.3339891 33.7932813,38.3499891 33.6172813,39.3929891 C33.5842813,39.4449891 33.5582813,39.4969891 33.5322813,39.5489891 C32.9002813,37.0859891 31.0822813,35.1049891 28.8332813,34.0489891 C32.4432813,27.3689891 36.7062813,21.6859891 43.3412813,17.6449891 C49.8452813,13.6889891 57.5812813,11.7139891 65.1802813,12.5549891 C80.3462813,14.2299891 92.5332813,26.5219891 95.5372813,41.1719891" id="Fill-166" fill="#41387A"></path>
            <path d="M91.5294813,52.1734891 C92.1684813,53.9854891 90.9424813,56.5274891 88.8504813,56.5334891 C86.9864813,56.5394891 85.5204813,54.3174891 86.7454813,52.7594891 C87.0254813,52.4144891 87.4754813,52.8574891 87.3194813,53.2024891 C86.8174813,54.2784891 88.0494813,55.7124891 89.1824813,55.3924891 C90.4214813,55.0534891 90.7404813,53.5484891 90.4674813,52.4664891 C90.2914813,51.7764891 91.2954813,51.5154891 91.5294813,52.1734891" id="Fill-168" fill="#1C1C1B"></path>
            <path d="M63.7266813,18.6743891 C77.5886813,18.3293891 88.1406813,30.3793891 86.9206813,43.8053891 C85.7616813,42.2733891 84.0926813,41.1653891 82.1376813,41.0933891 C82.2086813,32.5823891 74.8126813,26.0003891 66.7246813,24.5333891 C59.2426813,23.1773891 48.9256813,25.0223891 45.1256813,32.4253891 C45.0286813,32.6143891 44.9376813,32.8103891 44.8456813,33.0123891 C41.4506813,33.0323891 38.0296813,34.3413891 35.6236813,36.7143891 C40.4336813,26.0783891 52.0736813,18.9613891 63.7266813,18.6743891" id="Fill-170" fill="#F8B033"></path>
            <path d="M83.1876813,53.0987891 C83.5326813,53.2817891 83.5656813,53.8877891 83.1876813,54.0567891 C81.5446813,54.7927891 79.8366813,55.1257891 78.0386813,54.9947891 C77.3936813,54.9497891 77.3796813,53.9657891 78.0386813,53.9787891 C79.2446813,54.0047891 80.4236813,53.8417891 81.5646813,53.4897891 C80.4166813,52.8767891 79.2636813,52.2647891 78.1296813,51.6257891 C77.5306813,51.2867891 78.0576813,50.4007891 78.6646813,50.7067891 C80.1826813,51.4757891 81.6746813,52.3037891 83.1876813,53.0987891" id="Fill-172" fill="#1C1C1B"></path>
            <path d="M49.9952813,50.5830891 C55.8072813,47.7810891 55.9712813,39.9400891 50.4322813,36.4340891 C45.0422813,33.0250891 37.6572813,35.6320891 34.7122813,40.9510891 C34.4382813,41.4520891 33.8002813,41.4330891 33.4152813,41.1460891 C33.0502813,41.4460891 32.4372813,41.4000891 32.2162813,40.7880891 C30.8922813,37.1970891 27.2502813,34.4330891 23.3262813,35.7100891 C20.0602813,36.7730891 18.3212813,40.4360891 18.9732813,43.6810891 C19.1292813,44.4570891 18.4832813,45.2520891 17.6492813,45.0040891 C13.1722813,43.6940891 6.00328129,43.8050891 4.86928129,49.7090891 C3.96328129,54.4410891 8.72128129,56.3120891 12.5272813,56.5460891 C12.5662813,56.5000891 12.6052813,56.4480891 12.6502813,56.4030891 C12.9572813,56.1030891 13.4202813,56.2920891 13.5572813,56.6110891 C14.2612813,56.7810891 14.3392813,57.8690891 13.5762813,58.0840891 C13.3542813,58.1490891 13.1272813,58.2020891 12.8982813,58.2410891 C11.2952813,61.9420891 12.8982813,66.2960891 17.0892813,67.5610891 C21.1372813,68.7860891 25.0592813,65.8460891 26.3702813,62.1310891 C26.6432813,61.3560891 27.8432813,61.2390891 28.0642813,62.1310891 C29.0222813,65.9830891 33.6232813,66.3030891 35.1752813,62.5490891 C35.5582813,61.6300891 37.0132813,61.9560891 36.7252813,62.9790891 C36.7062813,63.0500891 36.6742813,63.1090891 36.6542813,63.1740891 C39.8602813,66.8500891 45.0672813,68.2510891 49.1082813,64.7910891 C53.2472813,61.2510891 52.7382813,55.3990891 48.8602813,51.9190891 C48.0462813,51.1890891 49.1472813,50.0420891 49.9952813,50.5830891 M52.6672813,35.7690891 C57.7242813,40.1550891 57.5032813,49.1300891 51.0902813,51.6390891 C54.8692813,55.8360891 54.7712813,62.4380891 50.2102813,66.2110891 C45.8892813,69.7960891 39.2222813,69.0070891 36.0552813,64.5100891 C34.0152813,67.8470891 29.2832813,67.6580891 27.1902813,64.4780891 C24.8912813,68.4140891 20.2302813,70.8650891 15.6942813,68.8900891 C11.5502813,67.0910891 9.37928129,62.2490891 11.2432813,58.3840891 C6.87028129,58.3120891 2.45128129,54.8720891 2.74528129,50.2180891 C3.20728129,43.0680891 10.8852813,41.4850891 16.6982813,42.5730891 C16.6202813,39.4520891 18.0602813,36.3690891 20.6212813,34.6290891 C20.6212813,34.3940891 20.6212813,34.1600891 20.6352813,33.9320891 L21.8202813,33.9580891 C22.1982813,33.7820891 22.5832813,33.6320891 22.9942813,33.5140891 C24.6162813,33.0520891 26.2912813,33.1490891 27.8292813,33.6580891 L28.8332813,34.0490891 C31.0822813,35.1040891 32.9002813,37.0860891 33.5322813,39.5490891 C33.5582813,39.4970891 33.5842813,39.4450891 33.6172813,39.3930891 C33.7932813,38.3500891 34.0472813,37.3330891 34.3792813,36.3430891 L35.6242813,36.7140891 C38.0292813,34.3420891 41.4502813,33.0320891 44.8462813,33.0130891 C44.9372813,32.8110891 45.0282813,32.6150891 45.1262813,32.4260891 L46.1952813,32.6080891 C46.0712813,32.7520891 45.9542813,32.9020891 45.8372813,33.0520891 C48.3132813,33.2210891 50.7242813,34.0880891 52.6672813,35.7690891" id="Fill-174" fill="#1C1C1B"></path>
            <path d="M21.8272813,53.2095891 C22.8172813,52.0625891 22.5312813,50.2765891 21.0452813,49.7355891 C19.9182813,49.3185891 18.1782813,49.8465891 17.9752813,51.1825891 C17.9692813,51.2085891 17.9752813,51.2345891 17.9752813,51.2605891 C17.8252813,51.8865891 17.9242813,52.5775891 18.2632813,53.1185891 C19.0832813,54.4215891 20.8822813,54.3045891 21.8272813,53.2095891 M31.3232813,55.2035891 C33.3762813,54.9105891 34.6142813,52.8125891 34.2812813,50.8635891 C34.1392813,50.0485891 32.8872813,50.3945891 33.0302813,51.2085891 C33.2522813,52.4465891 32.3332813,53.8345891 31.0362813,53.9655891 C29.6152813,54.1085891 28.4422813,52.7665891 28.3702813,51.4435891 C28.3382813,50.8695891 27.5622813,50.8965891 27.4972813,51.4435891 C27.2562813,53.5615891 29.1722813,55.5095891 31.3232813,55.2035891 M42.6952813,53.3005891 C44.3502813,52.8515891 44.8522813,50.4915891 43.6462813,49.3385891 C42.4612813,48.2045891 39.9912813,48.7195891 39.5602813,50.3945891 C39.4432813,50.8435891 39.7042813,51.3265891 40.0952813,51.7305891 C40.4212813,52.7725891 41.5612813,53.6065891 42.6952813,53.3005891 M50.4312813,36.4345891 C55.9712813,39.9405891 55.8072813,47.7805891 49.9952813,50.5835891 C49.1472813,50.0425891 48.0462813,51.1885891 48.8602813,51.9185891 C52.7382813,55.3985891 53.2472813,61.2515891 49.1082813,64.7905891 C45.0672813,68.2515891 39.8602813,66.8505891 36.6542813,63.1745891 C36.6742813,63.1085891 36.7062813,63.0505891 36.7252813,62.9785891 C37.0132813,61.9555891 35.5582813,61.6295891 35.1752813,62.5485891 C33.6232813,66.3025891 29.0222813,65.9835891 28.0642813,62.1315891 C27.8432813,61.2385891 26.6432813,61.3555891 26.3702813,62.1315891 C25.0592813,65.8465891 21.1372813,68.7855891 17.0892813,67.5605891 C12.8982813,66.2955891 11.2952813,61.9425891 12.8982813,58.2405891 C13.1272813,58.2015891 13.3542813,58.1495891 13.5762813,58.0845891 C14.3392813,57.8695891 14.2612813,56.7805891 13.5562813,56.6115891 C13.4202813,56.2925891 12.9572813,56.1035891 12.6502813,56.4025891 C12.6052813,56.4485891 12.5662813,56.5005891 12.5272813,56.5465891 C8.72128129,56.3115891 3.96328129,54.4405891 4.86928129,49.7095891 C6.00328129,43.8055891 13.1722813,43.6945891 17.6492813,45.0045891 C18.4832813,45.2515891 19.1292813,44.4565891 18.9732813,43.6815891 C18.3212813,40.4355891 20.0602813,36.7725891 23.3262813,35.7105891 C27.2502813,34.4335891 30.8922813,37.1965891 32.2162813,40.7875891 C32.4372813,41.4005891 33.0502813,41.4455891 33.4152813,41.1465891 C33.8002813,41.4325891 34.4382813,41.4525891 34.7122813,40.9505891 C37.6572813,35.6325891 45.0422813,33.0255891 50.4312813,36.4345891" id="Fill-176" fill="#B1F0F2"></path>
            <path d="M43.6465813,49.3384891 C44.8525813,50.4914891 44.3505813,52.8514891 42.6955813,53.3004891 C41.5615813,53.6074891 40.4205813,52.7734891 40.0945813,51.7304891 C39.7045813,51.3264891 39.4435813,50.8434891 39.5605813,50.3944891 C39.9915813,48.7194891 42.4605813,48.2044891 43.6465813,49.3384891" id="Fill-178" fill="#1C1C1B"></path>
            <path d="M34.2813813,50.8633891 C34.6143813,52.8123891 33.3763813,54.9103891 31.3233813,55.2033891 C29.1723813,55.5093891 27.2563813,53.5613891 27.4973813,51.4433891 C27.5623813,50.8963891 28.3383813,50.8693891 28.3703813,51.4433891 C28.4423813,52.7663891 29.6153813,54.1093891 31.0363813,53.9653891 C32.3333813,53.8353891 33.2523813,52.4463891 33.0303813,51.2083891 C32.8863813,50.3943891 34.1383813,50.0483891 34.2813813,50.8633891" id="Fill-180" fill="#1C1C1B"></path>
            <path d="M21.0450813,49.7359891 C22.5310813,50.2769891 22.8170813,52.0629891 21.8270813,53.2099891 C20.8820813,54.3039891 19.0830813,54.4219891 18.2630813,53.1179891 C17.9240813,52.5769891 17.8250813,51.8859891 17.9760813,51.2609891 C17.9760813,51.2349891 17.9690813,51.2089891 17.9760813,51.1829891 C18.1780813,49.8469891 19.9180813,49.3189891 21.0450813,49.7359891" id="Fill-182" fill="#1C1C1B"></path>
        </g>
    </g>
</svg>