<?xml version="1.0" encoding="UTF-8"?>
<svg width="80px" height="72px" viewBox="0 0 80 72" version="1.1" xmlns="http://www.w3.org/2000/svg" xmlns:xlink="http://www.w3.org/1999/xlink">
    <!-- Generator: Sketch 53.1 (72631) - https://sketchapp.com -->
    <title>Group 85sticker12</title>
    <desc>Created with Sketch.</desc>
    <defs>
        <path d="M8.275,2.785 C9.671,4.846 9.132,7.649 7.071,9.045 C5.01,10.441 2.208,9.902 0.811,7.841 C-0.584,5.78 -0.045,2.977 2.015,1.581" id="path-1"></path>
        <path d="M9.02,2.919 C10.416,4.981 9.877,7.783 7.815,9.179 C5.754,10.575 2.952,10.036 1.555,7.975 C0.16,5.914 0.699,3.111 2.76,1.715" id="path-3"></path>
    </defs>
    <g id="Page-1" stroke="none" stroke-width="1" fill="none" fill-rule="evenodd">
        <g id="Group-85">
            <path d="M5.24764319,33.473 C5.12964319,38.081 6.18764319,42.414 8.01264319,44.775 C10.9666432,49.011 13.7216432,51.751 17.5846432,54.322 C21.0986432,56.658 24.9676432,58.219 29.0626432,59.872 L30.1146432,60.297 C36.8906432,63.044 44.1766432,65.156 51.7706432,66.575 C52.0626432,66.629 52.3386432,66.657 52.5896432,66.657 C53.3316432,66.657 54.0326432,66.445 55.0326432,65.411 C56.7206432,63.669 58.3966432,61.842 60.0186432,60.075 L60.7536432,59.275 C61.3106432,58.67 61.8376432,58.098 62.2336432,57.51 C66.6616432,50.931 69.8296432,45.341 72.1996432,39.916 C73.4346432,37.091 74.1336432,34.096 74.3366432,30.757 C74.5986432,26.445 74.0036432,22.246 72.5146432,17.922 C71.4356432,14.79 69.8876432,12.386 67.6386432,10.357 C67.1776432,9.941 66.7316432,9.509 66.2966432,9.069 C63.8896432,6.633 61.0006432,5.449 57.4646432,5.449 C56.4966432,5.449 55.4616432,5.539 54.3896432,5.717 C53.4426432,5.874 52.4706432,6.228 51.7226432,6.689 C47.6306432,9.209 44.9976432,11.974 43.4376432,15.393 C42.7306432,16.944 41.6516432,18.275 40.6986432,19.45 L40.5926432,19.581 C39.7126432,20.67 38.4816432,21.27 37.1296432,21.27 C36.5626432,21.27 35.9896432,21.163 35.4246432,20.953 C35.1106432,20.836 34.7946432,20.725 34.4786432,20.613 C33.6116432,20.305 32.7156432,19.986 31.8236432,19.565 C28.8526432,18.161 25.6316432,17.478 21.9736432,17.478 C21.6436432,17.478 21.3166432,17.484 20.9866432,17.495 C18.4326432,17.579 15.9796432,18.503 13.3826432,19.481 C12.8996432,19.662 12.4366432,19.99 11.9486432,20.335 C7.87164319,23.216 6.31464319,27.566 5.24564319,33.216 C5.24864319,33.312 5.24964319,33.393 5.24764319,33.473 M53.1716432,71.941 C52.7906432,71.941 52.4036432,71.909 52.0196432,71.846 C48.8406432,71.322 45.7166432,70.703 42.7316432,70.006 C39.8866432,69.342 37.6136432,68.681 35.5816432,67.926 L33.1126432,67.014 C28.8006432,65.424 24.3406432,63.781 20.0686432,61.813 C13.9056432,58.974 8.90464319,55.027 5.20764319,50.082 C1.88064319,45.634 0.183643192,41.042 0.0176431922,36.046 C-0.146356808,31.186 0.833643192,26.679 2.92964319,22.649 C5.29164319,18.105 8.70264319,15.112 13.0656432,13.753 C13.4266432,13.641 13.7866432,13.523 14.1466432,13.405 C15.1926432,13.061 16.2736432,12.706 17.4226432,12.468 C18.9536432,12.151 20.5306432,11.99 22.1096432,11.99 C25.6686432,11.99 29.3966432,12.794 33.5096432,14.448 C33.9706432,14.633 34.4416432,14.793 34.9126432,14.954 C35.5736432,15.181 36.2566432,15.415 36.9396432,15.714 L37.0766432,15.549 C37.5936432,14.911 38.0806432,14.307 38.3286432,13.741 C40.1706432,9.531 43.2016432,5.99 47.6006432,2.913 C50.3996432,0.953 53.7006432,-8.52651283e-14 57.6896432,-8.52651283e-14 C58.1466432,-8.52651283e-14 58.6076432,0.013 59.0716432,0.036 C65.1636432,0.351 69.1796432,4.022 72.4666432,7.437 C73.1276432,8.125 73.7226432,8.828 74.3516432,9.573 C74.6306432,9.902 74.9156432,10.24 75.2166432,10.586 L75.4366432,10.841 L75.8266432,11.755 C77.8236432,16.429 79.8906432,21.263 79.7306432,26.892 C79.6796432,28.722 79.5666432,30.563 79.4586432,32.344 L79.3516432,34.109 C79.1536432,37.553 77.7696432,40.44 76.4326432,43.232 C76.2316432,43.65 76.0306432,44.068 75.8366432,44.487 C72.3856432,51.878 68.8886432,57.61 64.8286432,62.523 C63.1846432,64.514 61.3836432,66.379 59.6426432,68.181 C59.1226432,68.719 58.6016432,69.257 58.0876432,69.798 C56.7716432,71.18 55.0256432,71.941 53.1716432,71.941" id="Fill-1" fill="#FFFFFF"></path>
            <path d="M8.64024319,45.5194 C11.8292432,50.0974 14.7492432,52.6724 18.0372432,54.8594 C21.7782432,57.3464 25.9412432,58.9434 30.0742432,60.6184 C36.7292432,63.3164 43.5802432,65.2624 50.6442432,66.5824 C52.7752432,66.9804 54.1772432,66.2784 55.4902432,64.9224 C57.2732432,63.0814 59.0012432,61.1854 60.7372432,59.2974 C61.3282432,58.6524 61.9372432,58.0054 62.4232432,57.2834 C66.0092432,51.9564 69.3082432,46.4694 71.8872432,40.5674 C73.1762432,37.6164 73.8462432,34.5544 74.0412432,31.3504 C74.3082432,26.9734 73.6742432,22.7864 72.2392432,18.6144 C71.1652432,15.4954 69.5492432,12.9014 67.1422432,10.7284 C66.7422432,10.3664 66.3532432,9.9904 65.9742432,9.6064 C62.3812432,5.9724 57.9682432,5.1124 53.1252432,5.9154 C52.0172432,6.0994 50.8702432,6.5044 49.9172432,7.0914 C46.2992432,9.3194 43.2432432,12.0924 41.4252432,16.0784 C40.8502432,17.3394 39.9222432,18.4614 39.0382432,19.5534 C38.4042432,20.3364 37.4772432,20.5904 36.4712432,20.2164 C35.4012432,19.8174 34.3022432,19.4754 33.2732432,18.9884 C29.7742432,17.3344 26.0772432,16.7414 22.2502432,16.8684 C19.5102432,16.9594 16.9692432,17.9264 14.4422432,18.8774 C13.8212432,19.1114 13.2532432,19.5164 12.7042432,19.9044 C8.08424319,23.1694 6.62124319,28.1064 5.65124319,33.2974 C5.62624319,33.4284 5.65024319,33.5674 5.64724319,33.7034 C5.52224319,38.5044 6.64124319,42.9324 8.64024319,45.5194 M71.3562432,13.7374 C73.2162432,18.1044 75.2162432,22.5444 75.0752432,27.5704 C75.0122432,29.7944 74.8522432,32.0164 74.7242432,34.2394 C74.5362432,37.5084 72.9662432,40.3214 71.6312432,43.1814 C68.9122432,49.0064 65.7502432,54.5924 61.6422432,59.5654 C59.7112432,61.9014 57.5442432,64.0434 55.4522432,66.2424 C54.4052432,67.3404 53.0212432,67.7954 51.5692432,67.5564 C48.7102432,67.0854 45.8622432,66.5254 43.0402432,65.8674 C40.8712432,65.3614 38.7022432,64.7764 36.6182432,64.0014 C31.8082432,62.2134 26.9512432,60.5044 22.2972432,58.3614 C17.1612432,55.9954 12.6392432,52.6324 9.20924319,48.0454 C6.57624319,44.5234 4.91824319,40.6194 4.76824319,36.0924 C4.63124319,32.0114 5.41924319,28.1314 7.25824319,24.5944 C9.02424319,21.1984 11.6822432,18.4864 15.5282432,17.2894 C16.8142432,16.8884 18.0862432,16.4124 19.4002432,16.1394 C24.2022432,15.1444 28.7792432,16.0864 33.2432432,17.8824 C34.3672432,18.3334 35.5532432,18.6444 36.6462432,19.1564 C37.5132432,19.5624 38.1012432,19.2694 38.5912432,18.6544 C39.2202432,17.8664 39.9172432,17.0764 40.3152432,16.1684 C42.0252432,12.2564 44.8672432,9.2944 48.2702432,6.9134 C51.0522432,4.9654 54.2712432,4.4134 57.7132432,4.5914 C62.5462432,4.8404 65.7792432,7.6754 68.8612432,10.8794 C69.7012432,11.7514 70.4582432,12.7044 71.3562432,13.7374" id="Fill-3" fill="#000000"></path>
            <path d="M44.1148432,45.1434 C44.3858432,46.8524 45.2988432,48.0854 46.4768432,49.0814 C48.8198432,51.0594 51.6928432,49.9814 52.2448432,46.9614 C52.3408432,46.4384 52.3558432,45.8874 52.3178432,45.3554 C52.1428432,42.8854 51.4358432,42.5004 49.3448432,43.7194 C49.0718432,43.8794 48.8438432,44.1174 48.5478432,44.3574 C48.8968432,45.1644 49.2068432,45.8804 49.6958432,47.0124 C47.8648432,47.0794 48.1028432,45.2344 47.0788432,44.7844 C46.1998432,44.8904 45.2118432,45.0104 44.1148432,45.1434 M37.6168432,43.1424 C38.4258432,43.1724 38.8678432,43.1664 39.3048432,43.2094 C41.1168432,43.3864 42.9288432,43.7534 44.7358432,43.7254 C48.0378432,43.6734 50.6808432,42.1554 52.6828432,39.5344 C52.9188432,39.2264 53.1048432,38.8824 53.3368432,38.5204 C54.0338432,39.5454 54.0338432,39.5454 52.4408432,41.7254 C52.7298432,42.6434 53.0988432,43.5754 53.3098432,44.5414 C53.6188432,45.9554 53.5428432,47.3544 52.8058432,48.6654 C51.1258432,51.6554 47.3998432,52.0644 45.1998432,49.4174 C44.4358432,48.4984 43.7608432,47.4374 43.3288432,46.3304 C42.8578432,45.1224 42.1208432,44.6824 40.9078432,44.6334 C40.1138432,44.6014 39.3098432,44.4264 38.5468432,44.1984 C38.2638432,44.1134 38.0828432,43.6914 37.6168432,43.1424" id="Fill-5" fill="#000000"></path>
            <path d="M64.6666432,29.8915 C65.8256432,31.2815 65.8706432,33.0875 64.8936432,34.3465 C64.4106432,34.9675 63.7326432,35.4615 63.0806432,35.9245 C60.9026432,37.4685 55.0886432,36.5575 53.9136432,33.4055 C54.4646432,32.7865 54.8486432,33.2355 55.2126432,33.6315 C56.5506432,35.0835 58.3246432,35.4995 60.1676432,35.5675 C61.7136432,35.6245 63.1826432,35.1295 63.9586432,33.6905 C64.3496432,32.9675 64.3096432,32.0125 64.4616432,31.1625 C64.5166432,30.8535 64.5626432,30.5435 64.6666432,29.8915" id="Fill-7" fill="#000000"></path>
            <path d="M33.7242432,39.5794 C35.0622432,41.0824 34.7372432,42.4614 34.2082432,43.4514 C33.0052432,45.7044 30.8272432,46.6554 28.3352432,46.8324 C26.0012432,46.9984 24.3912432,45.7534 23.1002432,43.9734 C23.0312432,43.8774 23.0502432,43.7174 22.9772432,43.2794 C23.4952432,43.5494 23.9332432,43.6534 24.1842432,43.9274 C26.4092432,46.3624 28.6082432,46.0364 31.5562432,44.7664 C32.7012432,44.2734 33.3692432,43.1934 33.4512432,41.8544 C33.4902432,41.2284 33.5982432,40.6074 33.7242432,39.5794" id="Fill-9" fill="#000000"></path>
            <path d="M29.7564432,60.4906 C29.8614432,60.5326 29.9684432,60.5756 30.0734432,60.6186 C36.7294432,63.3166 43.5804432,65.2626 50.6444432,66.5826 C52.7754432,66.9806 54.1774432,66.2786 55.4894432,64.9226 C57.2734432,63.0806 59.0014432,61.1856 60.7364432,59.2976 C61.3284432,58.6526 61.9374432,58.0056 62.4234432,57.2826 C66.0094432,51.9566 69.3084432,46.4696 71.8874432,40.5676 C72.9314432,38.1786 73.5524432,35.7126 73.8604432,33.1616 C69.5844432,42.0606 62.8884432,49.9336 55.2624432,55.0996 C47.4624432,60.3816 38.6264432,61.5436 29.7564432,60.4906" id="Fill-11" fill="#FF5622"></path>
            <path d="M72.2389432,18.6141 C71.1659432,15.4951 69.5499432,12.9011 67.1419432,10.7281 C66.7419432,10.3671 66.3529432,9.9901 65.9739432,9.6061 C62.3819432,5.9721 57.9679432,5.1131 53.1259432,5.9151 C52.0169432,6.0991 50.8709432,6.5051 49.9179432,7.0921 C46.2999432,9.3201 43.2429432,12.0921 41.4259432,16.0781 C40.8499432,17.3391 39.9229432,18.4621 39.0389432,19.5531 C38.4039432,20.3361 37.4769432,20.5901 36.4709432,20.2161 C35.4009432,19.8181 34.3019432,19.4751 33.2729432,18.9891 C29.7739432,17.3351 26.0769432,16.7411 22.2509432,16.8681 C19.5099432,16.9591 16.9689432,17.9261 14.4419432,18.8771 C13.8209432,19.1111 13.2539432,19.5161 12.7049432,19.9051 C8.08494319,23.1701 6.62194319,28.1061 5.65094319,33.2981 C5.62694319,33.4281 5.64994319,33.5681 5.64694319,33.7031 C5.52194319,38.5041 6.64094319,42.9321 8.63994319,45.5191 C11.8299432,50.0971 14.7499432,52.6731 18.0379432,54.8601 C21.6819432,57.2831 25.7279432,58.8611 29.7569432,60.4901 C38.6269432,61.5431 47.4629432,60.3821 55.2619432,55.0991 C62.8879432,49.9341 69.5849432,42.0611 73.8609432,33.1621 C73.9329432,32.5611 74.0049432,31.9611 74.0419432,31.3501 C74.3079432,26.9731 73.6749432,22.7861 72.2389432,18.6141" id="Fill-13" fill="#FF5622"></path>
            <path d="M44.1148432,45.1434 C44.3858432,46.8524 45.2988432,48.0854 46.4768432,49.0814 C48.8198432,51.0594 51.6928432,49.9814 52.2448432,46.9614 C52.3408432,46.4384 52.3558432,45.8874 52.3178432,45.3554 C52.1428432,42.8854 51.4358432,42.5004 49.3448432,43.7194 C49.0718432,43.8794 48.8438432,44.1174 48.5478432,44.3574 C48.8968432,45.1644 49.2068432,45.8804 49.6958432,47.0124 C47.8648432,47.0794 48.1028432,45.2344 47.0788432,44.7844 C46.1998432,44.8904 45.2118432,45.0104 44.1148432,45.1434 M37.6168432,43.1424 C38.4258432,43.1724 38.8678432,43.1664 39.3048432,43.2094 C41.1168432,43.3864 42.9288432,43.7534 44.7358432,43.7254 C48.0378432,43.6734 50.6808432,42.1554 52.6828432,39.5344 C52.9188432,39.2264 53.1048432,38.8824 53.3368432,38.5204 C54.0338432,39.5454 54.0338432,39.5454 52.4408432,41.7254 C52.7298432,42.6434 53.0988432,43.5754 53.3098432,44.5414 C53.6188432,45.9554 53.5428432,47.3544 52.8058432,48.6654 C51.1258432,51.6554 47.3998432,52.0644 45.1998432,49.4174 C44.4358432,48.4984 43.7608432,47.4374 43.3288432,46.3304 C42.8578432,45.1224 42.1208432,44.6824 40.9078432,44.6334 C40.1138432,44.6014 39.3098432,44.4264 38.5468432,44.1984 C38.2638432,44.1134 38.0828432,43.6914 37.6168432,43.1424" id="Fill-15" fill="#000000"></path>
            <path d="M44.1148432,45.1434 C44.3858432,46.8524 45.2988432,48.0854 46.4768432,49.0814 C48.8198432,51.0594 51.6928432,49.9814 52.2448432,46.9614 C52.3408432,46.4384 52.3558432,45.8874 52.3178432,45.3554 C52.1428432,42.8854 51.4358432,42.5004 49.3448432,43.7194 C49.0718432,43.8794 48.8438432,44.1174 48.5478432,44.3574 C48.8968432,45.1644 49.2068432,45.8804 49.6958432,47.0124 C47.8648432,47.0794 48.1028432,45.2344 47.0788432,44.7844 C46.1998432,44.8904 45.2118432,45.0104 44.1148432,45.1434" id="Fill-17" fill="#B1F0F2"></path>
            <path d="M64.6666432,29.8915 C65.8256432,31.2815 65.8706432,33.0875 64.8936432,34.3465 C64.4106432,34.9675 63.7326432,35.4615 63.0806432,35.9245 C60.9026432,37.4685 55.0886432,36.5575 53.9136432,33.4055 C54.4646432,32.7865 54.8486432,33.2355 55.2126432,33.6315 C56.5506432,35.0835 58.3246432,35.4995 60.1676432,35.5675 C61.7136432,35.6245 63.1826432,35.1295 63.9586432,33.6905 C64.3496432,32.9675 64.3096432,32.0125 64.4616432,31.1625 C64.5166432,30.8535 64.5626432,30.5435 64.6666432,29.8915" id="Fill-19" fill="#000000"></path>
            <path d="M33.7242432,39.5794 C35.0622432,41.0824 34.7372432,42.4614 34.2082432,43.4514 C33.0052432,45.7044 30.8272432,46.6554 28.3352432,46.8324 C26.0012432,46.9984 24.3912432,45.7534 23.1002432,43.9734 C23.0312432,43.8774 23.0502432,43.7174 22.9772432,43.2794 C23.4952432,43.5494 23.9332432,43.6534 24.1842432,43.9274 C26.4092432,46.3624 28.6082432,46.0364 31.5562432,44.7664 C32.7012432,44.2734 33.3692432,43.1934 33.4512432,41.8544 C33.4902432,41.2284 33.5982432,40.6074 33.7242432,39.5794" id="Fill-21" fill="#000000"></path>
            <g id="Group-25" transform="translate(26.747143, 45.758900)">
                <mask id="mask-2" fill="white">
                    <use xlink:href="#path-1"></use>
                </mask>
                <g id="Clip-24"></g>
                <path d="M8.275,2.785 C9.671,4.846 9.132,7.649 7.071,9.045 C5.01,10.441 2.208,9.902 0.811,7.841 C-0.584,5.78 -0.045,2.977 2.015,1.581 C4.077,0.185 6.879,0.724 8.275,2.785" id="Fill-23" mask="url(#mask-2)"></path>
            </g>
            <g id="Group-28" transform="translate(57.747143, 36.758900)">
                <mask id="mask-4" fill="white">
                    <use xlink:href="#path-3"></use>
                </mask>
                <g id="Clip-27"></g>
                <path d="M9.02,2.919 C10.416,4.981 9.877,7.783 7.815,9.179 C5.754,10.575 2.952,10.036 1.555,7.975 C0.16,5.914 0.699,3.111 2.76,1.715 C4.821,0.319 7.624,0.858 9.02,2.919" id="Fill-26" mask="url(#mask-4)"></path>
            </g>
        </g>
    </g>
</svg>