<?xml version="1.0" encoding="UTF-8"?>
<svg width="120px" height="100px" viewBox="0 0 120 100" version="1.1" xmlns="http://www.w3.org/2000/svg" xmlns:xlink="http://www.w3.org/1999/xlink">
    <!-- Generator: Sketch 53.1 (72631) - https://sketchapp.com -->
    <title>Group 88sticker5</title>
    <desc>Created with Sketch.</desc>
    <g id="Page-1" stroke="none" stroke-width="1" fill="none" fill-rule="evenodd">
        <g id="Group-88">
            <path d="M113.363811,68.3321841 C119.664811,59.1051841 120.593811,47.0081841 117.509811,36.4581841 C110.587811,12.7821841 86.0688108,1.12618411 62.9628108,0.0761841095 C38.8128108,-1.02081589 13.3768108,9.71818411 3.48881084,33.0091841 C-1.04818916,43.6981841 -1.24818916,55.4431841 3.40681084,66.1191841 C7.08781084,74.5621841 13.7618108,81.6641841 22.1508108,85.4041841 C31.1858108,91.5831841 41.9778108,95.3041841 52.8618108,94.5111841 C60.7178108,93.9391841 68.6538108,91.7241841 76.5628108,92.6721841 C80.9578108,93.1991841 101.826811,103.884184 99.7548108,98.4891841 C99.2838108,97.2631841 98.7198108,96.1231841 98.0818108,95.0561841 C94.4958108,85.3931841 108.686811,75.1811841 113.363811,68.3321841" id="Fill-272" fill="#FFFDFE"></path>
            <text id="wow!" font-family="Amatic-Bold, Amatic" font-size="49.1455" font-style="condensed" font-weight="bold" fill="#FFFDFE">
                <tspan x="29.7890108" y="59.1955919">w</tspan>
                <tspan x="49.0344654" y="59.1955919" letter-spacing="-0.70278065">o</tspan>
                <tspan x="63.2577107" y="59.1955919">w!</tspan>
            </text>
            <path d="M108.453611,66.6578841 C114.178611,58.2738841 115.023611,47.2818841 112.221611,37.6958841 C105.930611,16.1818841 83.6516108,5.59188411 62.6566108,4.63688411 C40.7126108,3.63988411 17.5996108,13.3978841 8.61561084,34.5618841 C4.49161084,44.2738841 4.31061084,54.9468841 8.54061084,64.6468841 C11.8856108,72.3188841 17.9506108,78.7718841 25.5726108,82.1708841 C33.7826108,87.7848841 43.5886108,91.1658841 53.4776108,90.4458841 C60.6156108,89.9258841 67.8276108,87.9128841 75.0146108,88.7748841 C79.0076108,89.2528841 97.9706108,98.9628841 96.0876108,94.0598841 C95.6596108,92.9468841 95.1476108,91.9098841 94.5666108,90.9408841 C91.3086108,82.1598841 104.203611,72.8808841 108.453611,66.6578841" id="Fill-274" fill="#E34A3A"></path>
            <text id="FOOD!" font-family="Amatic-Bold, Amatic" font-size="44.6563" font-style="condensed" font-weight="bold" fill="#FFFFFF">
                <tspan x="32.5136108" y="58.8314107">FOOD!</tspan>
            </text>
        </g>
    </g>
</svg>