<?xml version="1.0" encoding="UTF-8"?>
<svg width="134px" height="117px" viewBox="0 0 134 117" version="1.1" xmlns="http://www.w3.org/2000/svg" xmlns:xlink="http://www.w3.org/1999/xlink">
    <!-- Generator: Sketch 53.1 (72631) - https://sketchapp.com -->
    <title>Group 89sticker10</title>
    <desc>Created with Sketch.</desc>
    <g id="Page-1" stroke="none" stroke-width="1" fill="none" fill-rule="evenodd">
        <g id="Group-89" transform="translate(0.000000, 0.328000)">
            <g id="Group-286">
                <path d="M121.1675,60.4133 C131.9035,53.8563 137.1945,38.8153 130.8975,27.3533 C124.0965,14.9713 106.6165,11.7443 95.2135,19.2353 C89.7325,7.0193 76.3475,-1.1537 62.8265,0.6463 C49.6265,2.4033 39.0485,13.2933 36.5985,26.1103 C28.6285,21.2053 17.2375,24.0013 11.5385,31.4643 C4.3025,40.9393 7.8805,54.3653 15.6105,62.4573 C9.9475,64.9363 6.0305,71.1043 7.5815,77.5053 C8.8305,82.6633 13.4405,86.2573 18.4835,87.0963 C14.7955,91.1373 11.2865,94.8823 6.4525,97.8823 C3.0805,99.9753 -1.4005,103.0853 2.0035,107.1653 C2.5855,107.8633 3.5765,107.8903 4.3745,107.5713 C11.0105,107.3323 17.4175,105.6223 23.1845,102.6233 C26.4865,101.3713 29.6835,99.9233 32.6455,98.4743 C36.1815,103.5773 41.5295,107.1513 47.7785,108.0483 C52.2725,108.6923 59.1655,107.8823 62.8355,104.4433 C64.8965,113.3273 73.9015,116.9033 82.5995,116.5093 C85.0015,116.4003 87.4245,116.0173 89.7025,115.2503 C92.8955,114.7273 95.9265,113.4953 98.1345,111.0913 C100.1765,108.8683 101.2815,105.8413 101.0515,102.9223 C111.8755,105.5143 123.1055,96.6883 127.8075,87.1653 C130.7015,81.3013 131.8505,74.2503 128.8965,68.1723 C127.2435,64.7713 124.4935,61.9763 121.1675,60.4133" id="Fill-280" fill="#FFFDFE"></path>
                <path d="M117.317,60.238 C127.28,54.154 132.189,40.197 126.346,29.562 C120.035,18.072 103.816,15.078 93.235,22.03 C88.149,10.694 75.729,3.11 63.182,4.78 C50.934,6.411 41.119,16.515 38.845,28.409 C31.451,23.857 20.881,26.451 15.592,33.376 C8.879,42.169 12.198,54.626 19.371,62.134 C14.117,64.435 10.482,70.159 11.921,76.098 C13.209,81.414 18.342,84.95 23.603,85.169 C19.111,91.125 13.715,96.299 7.54,100.539 C6.095,101.531 6.514,104.067 8.482,104.018 C18.343,103.773 27.692,100.033 34.951,93.462 C39.761,104.544 54.23,107.991 63.419,100.135 C66.15,107.107 74.228,110.611 81.567,111.287 C86.516,111.744 92.383,111.139 95.945,107.262 C97.84,105.199 98.866,102.391 98.651,99.682 C108.696,102.087 119.116,93.898 123.478,85.061 C126.165,79.62 127.23,73.078 124.489,67.438 C122.956,64.282 120.404,61.689 117.317,60.238" id="Fill-282" fill="#7DA81E"></path>
                <path d="M117.317,60.238 C127.28,54.154 132.189,40.197 126.346,29.562 C120.035,18.072 103.816,15.078 93.235,22.03 C88.149,10.694 75.729,3.11 63.182,4.78 C50.934,6.411 41.119,16.515 38.845,28.409 C31.451,23.857 20.881,26.451 15.592,33.376 C8.879,42.169 12.198,54.626 19.371,62.134 C14.117,64.435 10.482,70.159 11.921,76.098 C13.209,81.414 18.342,84.95 23.603,85.169 C19.111,91.125 13.715,96.299 7.54,100.539 C6.095,101.531 6.514,104.067 8.482,104.018 C18.343,103.773 27.692,100.033 34.951,93.462 C39.761,104.544 54.23,107.991 63.419,100.135 C66.15,107.107 74.228,110.611 81.567,111.287 C86.516,111.744 92.383,111.139 95.945,107.262 C97.84,105.199 98.866,102.391 98.651,99.682 C108.696,102.087 119.116,93.898 123.478,85.061 C126.165,79.62 127.23,73.078 124.489,67.438 C122.956,64.282 120.404,61.689 117.317,60.238 Z" id="Stroke-284" stroke="#000000"></path>
            </g>
            <text id="Party!" font-family="Amatic-Bold, Amatic" font-size="55.2418" font-style="condensed" font-weight="bold" letter-spacing="-2.30910724" fill="#000000">
                <tspan x="35.3481" y="72.8985344">P</tspan>
                <tspan x="44.0981422" y="72.8985344">a</tspan>
                <tspan x="60.8487075" y="72.8985344" letter-spacing="-2.0715675">r</tspan>
                <tspan x="70.2948395" y="72.8985344">ty!</tspan>
            </text>
        </g>
    </g>
</svg>