<?xml version="1.0" encoding="UTF-8"?>
<svg width="101px" height="45px" viewBox="0 0 101 45" version="1.1" xmlns="http://www.w3.org/2000/svg" xmlns:xlink="http://www.w3.org/1999/xlink">
    <!-- Generator: Sketch 53.1 (72631) - https://sketchapp.com -->
    <title>Group 84sticker13</title>
    <desc>Created with Sketch.</desc>
    <g id="Page-1" stroke="none" stroke-width="1" fill="none" fill-rule="evenodd">
        <g id="Group-84">
            <path d="M51.7033781,8.70653842 C52.2553781,8.71253842 52.8123781,8.72353842 53.3673781,8.73153842 C52.5113781,8.79153842 51.6623781,8.86853842 50.8203781,8.95653842 C50.7713781,8.86953842 50.7163781,8.78653842 50.6603781,8.70253842 C51.0103781,8.70253842 51.3583781,8.70353842 51.7033781,8.70653842 M89.9343781,7.65253842 C81.3483781,1.85653842 70.4323781,1.01353842 60.3923781,0.330538418 C41.0953781,-0.981461582 18.5713781,1.10853842 4.32337811,15.8725384 C-2.94862189,23.4085384 -0.594621894,34.6665384 8.00537811,40.1345384 C11.8053781,42.5495384 16.2213781,43.5365384 20.8013781,43.7025384 C26.3633781,44.4445384 32.2663781,43.8645384 37.5863781,43.3065384 C48.8743781,42.1235384 60.1603781,40.9155384 71.4463781,39.7195384 C76.9693781,39.1355384 82.6193781,38.8295384 88.0833781,37.8205384 C92.4463781,37.0145384 96.9253781,34.8525384 99.2663781,30.8985384 C104.385378,22.2555384 96.9753781,12.4045384 89.9343781,7.65253842" id="Fill-120" fill="#F4F4F4"></path>
            <path d="M94.0344781,19.9740384 C94.0594781,19.8960384 94.0984781,19.8240384 94.1384781,19.7590384 C85.8034781,5.91003842 68.2194781,4.41703842 53.5744781,4.76303842 C38.4094781,5.12103842 22.8204781,7.39603842 11.8904781,18.7290384 C12.1184781,18.7620384 12.2814781,19.0550384 12.0734781,19.2440384 C9.06147811,22.0140384 12.1124781,25.5340384 15.3844781,25.6440384 C17.4104781,25.7090384 19.3334781,24.9730384 21.2424781,24.4250384 C24.4624781,23.4940384 27.2254781,23.1810384 30.3874781,24.4910384 C34.5704781,26.2240384 37.9464781,28.4730384 42.6514781,28.6360384 C47.3504781,28.7980384 51.0924781,27.1100384 55.1654781,25.0050384 C57.8834781,23.6040384 60.5944781,22.5550384 63.7024781,22.9780384 C67.0534781,23.4350384 69.9914781,25.2990384 73.2894781,25.9510384 C77.7214781,26.8300384 80.1334781,23.9950384 83.7104781,22.1570384 C84.7534781,21.6230384 85.8424781,21.2190384 87.0144781,21.1150384 C88.9704781,20.9520384 93.1284781,22.6980384 94.0344781,19.9740384 M91.9024781,32.3630384 C95.1484781,30.0110384 96.9014781,25.5530384 94.9274781,21.9620384 C92.8804781,24.3470384 88.8594781,22.2550384 85.9854781,23.1020384 C82.1204781,24.2430384 79.6244781,27.8920384 75.3224781,27.9580384 C70.8004781,28.0230384 67.0004781,24.8230384 62.5294781,24.6340384 C57.2054781,24.4060384 52.5064781,29.1110384 47.2794781,30.0500384 C42.8534781,30.8450384 38.2854781,30.2710384 34.2124781,28.3750384 C31.4944781,27.1170384 28.9914781,25.2010384 25.8504781,25.2530384 C23.0024781,25.2990384 20.3834781,26.7520384 17.5994781,27.1890384 C15.4884781,27.5150384 13.0244781,27.3580384 11.3164781,26.1070384 C9.65547811,35.9740384 23.1524781,37.0430384 30.1064781,37.5380384 C38.4554781,38.1380384 46.8434781,38.2940384 55.2114781,38.0200384 C64.0414781,37.7340384 72.9054781,37.0360384 81.6444781,35.7330384 C85.1834781,35.2050384 88.9374781,34.5080384 91.9024781,32.3630384 M96.2304781,19.3550384 C96.4914781,19.8180384 96.3474781,20.2610384 96.0414781,20.5410384 C100.740478,27.0910384 94.2884781,34.1030384 88.0834781,36.1180384 C83.4174781,37.6360384 78.2294781,37.9420384 73.3814781,38.4440384 C67.5484781,39.0430384 61.6954781,39.4410384 55.8364781,39.6300384 C44.7764781,39.9820384 33.3054781,39.9950384 22.3384781,38.3400384 C16.4594781,37.4600384 7.03547811,32.5260384 10.4044781,25.2460384 C10.1434781,24.9270384 9.92247811,24.5690384 9.73947811,24.1580384 C9.06847811,22.6660384 9.14647811,20.8480384 10.1244781,19.7130384 C9.91647811,19.5310384 9.81847811,19.2440384 10.0074781,18.9830384 C19.9984781,5.21303842 38.4484781,3.17903842 54.1614781,2.82703842 C69.5944781,2.48203842 87.7704781,4.50903842 96.2304781,19.3550384" id="Fill-122" fill="#1C1C1B"></path>
            <path d="M23.7063781,33.1064384 C24.0713781,31.9004384 23.4333781,30.5324384 22.1423781,30.2844384 C20.9563781,30.0494384 19.6853781,30.8444384 19.6333781,32.0374384 C19.6063781,32.1224384 19.5873781,32.2134384 19.5743781,32.3044384 C19.5353781,32.5854384 19.5743781,32.8844384 19.6593781,33.1584384 C19.8613781,33.7714384 20.2913781,34.2794384 20.8843781,34.5464384 C22.0833781,35.0814384 23.3413781,34.2994384 23.7063781,33.1064384 M58.6513781,33.9014384 C59.2193781,33.3994384 58.3783781,32.5524384 57.8103781,33.0674384 C55.1063781,35.5184384 51.1633781,35.5044384 48.2573781,33.4064384 C47.8653781,33.1264384 47.3903781,33.7514384 47.7423781,34.0704384 C50.8903781,36.8474384 55.5563781,36.6454384 58.6513781,33.9014384 M88.1433781,30.7794384 C89.5763781,31.6464384 91.6163781,30.5324384 91.3813781,28.7984384 C91.1593781,27.1894384 89.0673781,26.1524384 87.9013781,27.5214384 C87.8623781,27.5734384 87.8233781,27.6194384 87.7903781,27.6704384 C87.0023781,28.5644384 87.0023781,30.0884384 88.1433781,30.7794384 M94.9273781,21.9614384 C96.9013781,25.5524384 95.1483781,30.0104384 91.9023781,32.3634384 C88.9373781,34.5074384 85.1843781,35.2054384 81.6443781,35.7324384 C72.9053781,37.0364384 64.0413781,37.7334384 55.2113781,38.0204384 C46.8433781,38.2934384 38.4553781,38.1374384 30.1063781,37.5384384 C23.1523781,37.0434384 9.65537811,35.9744384 11.3163781,26.1064384 C13.0243781,27.3584384 15.4883781,27.5144384 17.6003781,27.1894384 C20.3833781,26.7524384 23.0023781,25.2984384 25.8513781,25.2524384 C28.9913781,25.2014384 31.4943781,27.1174384 34.2123781,28.3754384 C38.2853781,30.2714384 42.8533781,30.8444384 47.2793781,30.0494384 C52.5063781,29.1114384 57.2053781,24.4054384 62.5293781,24.6344384 C67.0003781,24.8234384 70.8003781,28.0234384 75.3223781,27.9584384 C79.6243781,27.8924384 82.1203781,24.2434384 85.9853781,23.1024384 C88.8593781,22.2554384 92.8803781,24.3474384 94.9273781,21.9614384" id="Fill-124" fill="#FFF8DC"></path>
            <path d="M28.3791781,16.0639384 C29.5261781,15.2559384 29.5851781,13.7829384 29.5591781,12.5119384 C29.5521781,12.3489384 29.4681781,12.2509384 29.3571781,12.1989384 C29.3631781,12.1929384 29.3761781,12.1929384 29.3901781,12.1859384 C29.6441781,12.1019384 29.6241781,11.6449384 29.3171781,11.6839384 C28.1251781,11.8209384 26.8091781,12.0169384 25.9871781,12.9939384 C25.3421781,13.7569384 25.2181781,14.9559384 25.8311781,15.7769384 C26.4501781,16.6049384 27.5771781,16.6309384 28.3791781,16.0639384 M33.9641781,13.9389384 C34.6361781,12.4469384 33.9711781,9.99693842 32.1011781,9.81393842 C31.7871781,9.78093842 31.6701781,10.0679384 31.7291781,10.3089384 C30.4511781,11.7039384 31.6771781,14.1999384 33.5611781,14.1679384 C33.7101781,14.1679384 33.8931781,14.0889384 33.9641781,13.9389384 M44.3921781,25.8459384 C45.1281781,24.8359384 43.9031781,23.6499384 43.1211781,23.1349384 C41.9741781,22.3919384 40.5861781,22.2029384 39.2701781,22.5159384 C39.1191781,22.5549384 39.0281781,22.6469384 38.9831781,22.7569384 C38.9171781,22.8159384 38.8781781,22.8999384 38.9041781,23.0109384 C39.1851781,24.2819384 40.0131781,25.3319384 41.1861781,25.9119384 C42.0131781,26.3149384 43.7211781,26.7649384 44.3921781,25.8459384 M59.7791781,12.8379384 C61.7801781,11.8209384 62.2361781,9.73593842 60.0601781,8.65393842 C56.4361781,6.84893842 51.4631781,7.70893842 47.9501781,9.26693842 C47.7621781,9.35093842 47.6631781,9.48093842 47.6311781,9.62493842 C46.2361781,10.1269384 46.3151781,12.1269384 47.5461781,13.0009384 C49.1171781,14.1219384 51.7891781,13.5939384 53.5811781,13.5739384 C55.5751781,13.5479384 57.9351781,13.7699384 59.7791781,12.8379384 M76.8741781,17.2109384 C77.1741781,15.9339384 76.3791781,14.7339384 75.6751781,13.7509384 C75.3881781,13.3459384 74.7301781,13.7179384 74.9781781,14.1279384 C74.8731781,14.1019384 74.7561781,14.1219384 74.6511781,14.2129384 C73.8051781,14.9369384 73.0091781,15.9399384 73.1521781,17.1329384 C73.2641781,18.0249384 73.9351781,18.8859384 74.8861781,18.9319384 C75.8701781,18.9769384 76.6591781,18.1169384 76.8741781,17.2109384 M81.6451781,13.3069384 C82.1721781,12.5639384 82.1401781,11.5609384 81.3181781,11.0329384 C80.3481781,10.4139384 78.7831781,11.2279384 78.0151781,10.3939384 C77.6371781,9.98293842 77.0301781,10.5959384 77.4011781,10.9999384 L77.2911781,11.0719384 C77.2781781,11.0589384 77.2721781,11.0389384 77.2591781,11.0259384 C76.9841781,10.6029384 76.3851781,10.9669384 76.5941781,11.4109384 C77.0891781,12.4799384 77.8061781,13.6199384 78.9271781,14.1089384 C79.9241781,14.5449384 81.0251781,14.1929384 81.6451781,13.3069384 M94.1381781,19.7589384 C94.0991781,19.8239384 94.0601781,19.8959384 94.0341781,19.9739384 C93.1281781,22.6979384 88.9701781,20.9519384 87.0151781,21.1149384 C85.8421781,21.2189384 84.7531781,21.6229384 83.7101781,22.1569384 C80.1331781,23.9949384 77.7211781,26.8309384 73.2891781,25.9509384 C69.9911781,25.2989384 67.0531781,23.4349384 63.7021781,22.9789384 C60.5941781,22.5549384 57.8831781,23.6049384 55.1651781,25.0049384 C51.0921781,27.1099384 47.3511781,28.7979384 42.6511781,28.6359384 C37.9461781,28.4729384 34.5701781,26.2239384 30.3871781,24.4909384 C27.2261781,23.1809384 24.4621781,23.4939384 21.2421781,24.4249384 C19.3331781,24.9729384 17.4101781,25.7099384 15.3841781,25.6439384 C12.1121781,25.5339384 9.06217811,22.0139384 12.0731781,19.2439384 C12.2811781,19.0549384 12.1181781,18.7619384 11.8911781,18.7299384 C22.8201781,7.39593842 38.4091781,5.12193842 53.5741781,4.76293842 C68.2191781,4.41793842 85.8031781,5.90993842 94.1381781,19.7589384" id="Fill-126" fill="#41387A"></path>
            <path d="M91.3811781,28.7983384 C91.6161781,30.5323384 89.5761781,31.6463384 88.1431781,30.7793384 C87.0021781,30.0893384 87.0021781,28.5643384 87.7901781,27.6713384 C87.8231781,27.6193384 87.8621781,27.5733384 87.9021781,27.5213384 C89.0681781,26.1523384 91.1591781,27.1893384 91.3811781,28.7983384" id="Fill-128" fill="#1C1C1B"></path>
            <path d="M81.3186781,11.0326384 C82.1396781,11.5606384 82.1726781,12.5636384 81.6446781,13.3066384 C81.0256781,14.1936384 79.9236781,14.5456384 78.9266781,14.1086384 C77.8056781,13.6196384 77.0896781,12.4796384 76.5936781,11.4106384 C76.3846781,10.9676384 76.9846781,10.6026384 77.2586781,11.0256384 C77.2716781,11.0386384 77.2786781,11.0586384 77.2916781,11.0716384 C77.7736781,11.8076384 78.2426781,12.6686384 79.0376781,13.1176384 C79.7286781,13.5026384 81.0456781,13.3136384 81.0716781,12.2836384 C81.0966781,11.3386384 79.4806781,11.6446384 78.8946781,11.6186384 C78.3146781,11.5866384 77.7986781,11.4436384 77.4016781,10.9996384 C77.0306781,10.5956384 77.6366781,9.98363842 78.0146781,10.3936384 C78.7836781,11.2276384 80.3476781,10.4136384 81.3186781,11.0326384" id="Fill-130" fill="#1C1C1B"></path>
            <path d="M78.8947781,11.6191384 C79.4807781,11.6451384 81.0967781,11.3391384 81.0717781,12.2841384 C81.0447781,13.3131384 79.7287781,13.5021384 79.0377781,13.1181384 C78.2427781,12.6681384 77.7737781,11.8081384 77.2907781,11.0721384 L77.4017781,11.0001384 C77.7987781,11.4431384 78.3147781,11.5861384 78.8947781,11.6191384" id="Fill-132" fill="#6BC5E0"></path>
            <path d="M75.2248781,17.9994384 C76.1378781,17.7384384 76.2218781,16.6114384 75.9748781,15.8554384 C75.8188781,15.3864384 75.5438781,14.9564384 75.2638781,14.5454384 C75.2508781,14.6034384 75.2248781,14.6684384 75.1658781,14.7284384 C74.6908781,15.2554384 74.1438781,15.8554384 74.0448781,16.5914384 C73.9478781,17.3024384 74.3518781,18.2534384 75.2248781,17.9994384 M75.6748781,13.7504384 C76.3788781,14.7344384 77.1738781,15.9334384 76.8738781,17.2104384 C76.6598781,18.1164384 75.8708781,18.9774384 74.8858781,18.9314384 C73.9348781,18.8854384 73.2638781,18.0254384 73.1528781,17.1324384 C73.0088781,15.9394384 73.8048781,14.9364384 74.6518781,14.2124384 C74.7558781,14.1214384 74.8728781,14.1024384 74.9778781,14.1284384 C74.7298781,13.7174384 75.3878781,13.3464384 75.6748781,13.7504384" id="Fill-134" fill="#1C1C1B"></path>
            <path d="M75.9748781,15.8554384 C76.2218781,16.6114384 76.1378781,17.7384384 75.2248781,17.9994384 C74.3518781,18.2534384 73.9478781,17.3024384 74.0448781,16.5914384 C74.1438781,15.8554384 74.6908781,15.2554384 75.1658781,14.7284384 C75.2248781,14.6684384 75.2508781,14.6044384 75.2638781,14.5454384 C75.5438781,14.9564384 75.8188781,15.3864384 75.9748781,15.8554384" id="Fill-136" fill="#6BC5E0"></path>
            <path d="M58.9260781,10.7650384 C59.3170781,9.18203842 58.8080781,9.44203842 57.5050781,9.21403842 C56.4300781,9.01803842 55.2890781,8.95303842 54.1880781,9.00603842 C52.2390781,9.11003842 50.3880781,9.61803842 48.6090781,10.3940384 C48.5300781,10.4260384 48.4520781,10.4390384 48.3740781,10.4390384 C48.6150781,11.8800384 49.3000781,12.5050384 50.4340781,12.3030384 C50.7850781,12.2970384 51.1310781,12.2900384 51.4830781,12.2840384 C52.3560781,12.2770384 53.2360781,12.2580384 54.1100781,12.2380384 C54.8980781,12.2250384 55.6930781,12.2440384 56.4750781,12.1930384 C57.9470781,12.0880384 58.5410781,12.3230384 58.9260781,10.7650384 M60.0600781,8.65403842 C62.2370781,9.73603842 61.7800781,11.8210384 59.7800781,12.8380384 C57.9350781,13.7690384 55.5750781,13.5480384 53.5810781,13.5740384 C51.7890781,13.5940384 49.1170781,14.1210384 47.5460781,13.0010384 C46.3150781,12.1270384 46.2370781,10.1260384 47.6310781,9.62503842 C47.6630781,9.48103842 47.7620781,9.35103842 47.9500781,9.26603842 C51.4630781,7.70903842 56.4360781,6.84803842 60.0600781,8.65403842" id="Fill-138" fill="#1C1C1B"></path>
            <path d="M57.8108781,33.0673384 C58.3778781,32.5523384 59.2188781,33.4003384 58.6518781,33.9013384 C55.5558781,36.6453384 50.8898781,36.8473384 47.7428781,34.0703384 C47.3898781,33.7513384 47.8658781,33.1263384 48.2568781,33.4063384 C51.1638781,35.5053384 55.1068781,35.5183384 57.8108781,33.0673384" id="Fill-140" fill="#1C1C1B"></path>
            <path d="M43.4143781,25.4682384 C44.3723781,24.9602384 42.6393781,23.8452384 42.1833781,23.6362384 C41.3743781,23.2592384 40.4943781,23.1942384 39.6413781,23.3832384 C39.9743781,24.0282384 40.4693781,24.5822384 41.1073781,24.9662384 C41.6293781,25.2792384 42.8143781,25.7942384 43.4143781,25.4682384 M43.1213781,23.1352384 C43.9033781,23.6502384 45.1283781,24.8362384 44.3923781,25.8462384 C43.7213781,26.7652384 42.0133781,26.3152384 41.1853781,25.9112384 C40.0133781,25.3312384 39.1853781,24.2822384 38.9043781,23.0112384 C38.8783781,22.9002384 38.9173781,22.8162384 38.9823781,22.7572384 C39.0283781,22.6462384 39.1193781,22.5552384 39.2693781,22.5162384 C40.5863781,22.2032384 41.9743781,22.3922384 43.1213781,23.1352384" id="Fill-142" fill="#1C1C1B"></path>
            <path d="M42.1828781,23.6366384 C42.6388781,23.8456384 44.3718781,24.9596384 43.4138781,25.4686384 C42.8148781,25.7936384 41.6288781,25.2796384 41.1078781,24.9666384 C40.4688781,24.5816384 39.9738781,24.0276384 39.6408781,23.3826384 C40.4948781,23.1936384 41.3738781,23.2586384 42.1828781,23.6366384" id="Fill-144" fill="#6BC5E0"></path>
            <path d="M33.2346781,13.1962384 C33.3586781,12.7142384 33.2996781,12.1862384 33.0846781,11.7302384 C32.8636781,11.2732384 32.5106781,11.0132384 32.1266781,10.7392384 C31.6376781,11.6322384 32.2446781,12.9742384 33.2346781,13.1962384 M32.1006781,9.81423842 C33.9706781,9.99623842 34.6356781,12.4462384 33.9636781,13.9392384 C33.8926781,14.0892384 33.7106781,14.1672384 33.5606781,14.1672384 C31.6766781,14.2002384 30.4516781,11.7042384 31.7286781,10.3092384 C31.6706781,10.0682384 31.7876781,9.78123842 32.1006781,9.81423842" id="Fill-146" fill="#1C1C1B"></path>
            <path d="M33.0842781,11.7299384 C33.3002781,12.1859384 33.3582781,12.7139384 33.2342781,13.1959384 C32.2442781,12.9749384 31.6382781,11.6319384 32.1262781,10.7389384 C32.5112781,11.0129384 32.8632781,11.2729384 33.0842781,11.7299384" id="Fill-148" fill="#6BC5E0"></path>
            <path d="M28.8156781,12.5116384 C28.8156781,12.4596384 28.8296781,12.4076384 28.8416781,12.3686384 C27.7016781,12.7656384 26.3526781,13.4176384 26.5546781,14.7926384 C26.6916781,15.7376384 27.6816781,15.6726384 28.2426781,15.1056384 C28.8876781,14.4406384 28.8296781,13.3716384 28.8156781,12.5116384 M29.5586781,12.5116384 C29.5856781,13.7826384 29.5266781,15.2556384 28.3786781,16.0636384 C27.5776781,16.6306384 26.4506781,16.6046384 25.8316781,15.7766384 C25.2176781,14.9556384 25.3416781,13.7566384 25.9876781,12.9936384 C26.8086781,12.0166384 28.1256781,11.8216384 29.3176781,11.6836384 C29.6246781,11.6446384 29.6436781,12.1016384 29.3896781,12.1856384 C29.3766781,12.1926384 29.3636781,12.1926384 29.3566781,12.1996384 C29.4676781,12.2516384 29.5516781,12.3486384 29.5586781,12.5116384" id="Fill-150" fill="#1C1C1B"></path>
            <path d="M28.8420781,12.3686384 C28.8290781,12.4076384 28.8160781,12.4596384 28.8160781,12.5116384 C28.8290781,13.3716384 28.8880781,14.4406384 28.2420781,15.1056384 C27.6820781,15.6726384 26.6920781,15.7376384 26.5550781,14.7926384 C26.3530781,13.4176384 27.7010781,12.7656384 28.8420781,12.3686384" id="Fill-152" fill="#6BC5E0"></path>
            <path d="M22.1418781,30.2846384 C23.4328781,30.5326384 24.0718781,31.9006384 23.7058781,33.1066384 C23.3408781,34.2996384 22.0828781,35.0806384 20.8838781,34.5466384 C20.2908781,34.2796384 19.8618781,33.7716384 19.6598781,33.1586384 C19.5748781,32.8846384 19.5358781,32.5846384 19.5748781,32.3046384 C19.5868781,32.2136384 19.6068781,32.1226384 19.6328781,32.0376384 C19.6848781,30.8446384 20.9558781,30.0496384 22.1418781,30.2846384" id="Fill-154" fill="#1C1C1B"></path>
        </g>
    </g>
</svg>