<?xml version="1.0" encoding="UTF-8"?>
<svg width="189px" height="141px" viewBox="0 0 189 141" version="1.1" xmlns="http://www.w3.org/2000/svg" xmlns:xlink="http://www.w3.org/1999/xlink">
    <!-- Generator: Sketch 53.1 (72631) - https://sketchapp.com -->
    <title>Group 93sticker3</title>
    <desc>Created with Sketch.</desc>
    <defs>
        <polygon id="path-1" points="0.386022541 0.671748234 188.136 0.671748234 188.136 141.532168 0.386022541 141.532168"></polygon>
    </defs>
    <g id="Page-1" stroke="none" stroke-width="1" fill="none" fill-rule="evenodd">
        <g id="Group-93" transform="translate(0.000000, -0.672000)">
            <g id="Group-31">
                <mask id="mask-2" fill="white">
                    <use xlink:href="#path-1"></use>
                </mask>
                <g id="Clip-30"></g>
                <path d="M98.0425,37.2805 C97.2095,38.5455 96.3765,39.8775 95.5375,41.2875 C95.0545,41.1965 94.5685,41.1385 94.0855,41.1395 C93.1485,38.6365 91.1405,36.7255 88.5015,35.8505 C88.4565,35.8375 88.3395,35.8005 88.2935,35.7865 C86.7965,35.3255 85.2745,35.2615 83.8095,35.5285 C83.7985,35.4715 83.7985,35.4165 83.7845,35.3625 C83.2895,33.0015 82.3835,30.8365 81.1225,28.9495 C81.8475,27.9165 82.5305,26.8425 83.1505,25.6935 C83.3525,25.3235 83.5115,24.9405 83.6515,24.5515 C85.9965,30.4715 93.6385,35.6605 98.0425,37.2805 M183.4545,103.5815 C184.1465,101.2685 184.7235,98.8275 185.2345,96.5625 C185.7645,94.2865 186.2515,91.8425 186.7385,89.0565 C187.2265,86.1835 187.5675,83.5815 187.7855,81.0935 C187.9905,78.7505 188.0965,76.2855 188.1335,73.0745 C188.1525,70.3855 188.0705,67.7625 187.8935,65.3025 C187.6975,62.4255 187.4475,60.0795 187.1035,57.9335 C187.0305,57.4325 186.9265,56.9185 186.8195,56.4105 C186.8195,56.4105 186.6935,55.8025 186.6705,55.7065 L186.5995,55.4165 C186.4735,54.8905 186.3565,54.4215 186.1675,53.8055 C186.1495,53.7455 186.1295,53.6855 186.1095,53.6235 C185.9275,53.0895 185.6795,52.3785 185.3755,51.6605 C185.3245,51.5355 185.2685,51.4135 185.2105,51.2975 L185.0195,50.9085 C184.8195,50.5025 184.6225,50.1015 184.4145,49.7135 C184.3975,49.6775 184.3775,49.6425 184.3575,49.6075 C183.0795,47.3255 181.3645,45.2895 179.2755,43.5675 C177.8145,42.3595 176.1845,41.3165 174.4195,40.4665 C173.6375,40.0925 172.8555,39.7705 172.0375,39.4845 C171.9125,39.3295 171.7865,39.1805 171.6605,39.0335 C170.8035,38.0205 169.8865,37.1175 168.8555,36.2785 C168.7975,36.2285 168.7385,36.1835 168.6795,36.1395 L167.9045,35.5525 C167.8315,35.4955 167.7495,35.4365 167.6745,35.3855 C167.6745,35.3855 166.8635,34.8255 166.8325,34.8045 C166.1835,34.3725 165.3725,33.8425 164.3515,33.2255 C163.7835,32.8795 163.1725,32.5165 162.5215,32.1445 C162.5655,31.6875 162.5905,31.2355 162.5955,30.7845 C162.6175,29.9305 162.5645,29.1415 162.4355,28.3815 C162.2945,27.3495 162.0075,26.5075 161.8015,25.9155 C161.2235,24.1905 160.3345,22.8235 159.6855,21.8195 C159.6545,21.7705 159.6205,21.7235 159.5875,21.6755 C159.2195,21.1395 158.8575,20.7185 158.5925,20.4105 C158.5215,20.3295 158.4515,20.2485 158.3845,20.1635 C158.1605,19.8715 157.9105,19.5995 157.6405,19.3515 L156.4485,18.2585 C156.2225,18.0485 155.9805,17.8585 155.7275,17.6805 C155.2235,17.3375 154.6965,16.9925 154.1595,16.6465 C154.0895,16.6015 154.0195,16.5585 153.9485,16.5155 C153.2855,16.1255 152.7015,15.8735 152.3135,15.7055 C152.2305,15.6705 152.1475,15.6365 152.0655,15.5975 C152.0135,15.5725 151.9625,15.5495 151.9105,15.5265 C151.9105,15.5265 151.3135,15.2635 151.2925,15.2535 C151.1395,15.1895 150.9825,15.1315 150.8245,15.0805 C150.8115,15.0745 150.7965,15.0695 150.7805,15.0635 C150.7805,15.0635 150.4675,14.9665 150.3695,14.9395 L149.4535,14.6875 C148.7795,14.4935 147.8985,14.2675 146.8815,14.1655 C145.1825,13.9245 143.4905,13.9315 141.8535,14.1915 C141.7955,14.2025 141.4345,14.2635 141.4345,14.2635 C140.8865,14.3555 140.0885,14.4875 139.1645,14.8245 L138.5745,15.0135 C138.2875,15.1055 138.0085,15.2175 137.7375,15.3455 L137.0905,15.6595 C135.4815,16.4165 134.0135,17.5415 132.7265,19.0035 C132.7055,19.0255 132.6855,19.0515 132.6665,19.0725 C132.3375,19.4575 132.0705,19.8235 131.8615,20.1255 C130.6595,19.9235 129.5015,19.7655 128.3435,19.6465 C126.7085,19.4935 125.1815,19.4435 123.7235,19.4815 C123.8605,18.1615 123.8675,16.9205 123.8665,15.8105 C123.8665,15.4325 123.8635,15.0595 123.8715,14.6825 C123.8935,13.3855 123.8415,12.1625 123.7915,10.9805 L123.7475,9.8395 C123.7275,8.7165 123.6675,5.7365 121.1785,3.3865 C119.8225,2.1085 118.9885,1.5515 117.8725,1.1825 C117.6765,1.1175 117.4795,1.0615 117.2825,1.0155 C115.4575,0.4675 113.5765,0.5845 111.8955,1.2965 C110.6855,1.7535 109.5355,2.6205 108.4515,3.8875 C108.0085,4.4065 107.6595,4.9335 107.3845,5.4575 C106.6455,4.8975 105.8305,4.4455 104.9415,4.1505 C104.1105,3.8755 103.2415,3.7335 102.3525,3.7285 C101.7015,3.7265 99.9745,3.7185 98.1225,4.7035 C95.2235,6.2475 93.4585,9.1675 93.3665,12.2095 C90.6505,11.5605 87.8375,12.3165 85.7215,14.3355 C84.5905,15.4105 83.7985,16.6965 83.3455,18.0995 C82.3495,16.0055 80.5105,14.3505 78.3145,13.6235 C78.0795,13.5455 77.8445,13.4775 77.6065,13.4235 C77.0925,10.2605 74.9225,7.6455 71.7805,6.6075 C69.2415,5.7665 66.4855,6.0835 64.2165,7.4695 C61.9965,8.8315 60.4935,11.1155 60.0915,13.7405 C59.7695,15.8425 59.6455,17.8765 59.6005,19.8685 C57.8575,20.1115 56.1725,20.7895 54.6155,21.8865 C53.6415,22.5775 52.7575,23.4115 51.9705,24.3385 C52.3545,20.7215 51.6775,16.6445 50.0035,13.1415 C48.1195,9.2025 45.1465,6.3905 41.6355,5.2275 C38.6825,4.2495 35.4995,4.4545 32.4275,5.8235 C27.3965,8.0605 19.6845,14.1515 21.2635,30.2605 C21.2405,30.2775 21.2175,30.2945 21.1955,30.3115 C18.8315,32.1035 17.6615,35.0155 18.1435,37.9135 C18.6375,40.8965 20.8175,43.4385 23.6915,44.3905 C23.9545,44.4805 24.2185,44.5525 24.4835,44.6115 C25.4095,47.3855 26.3135,49.6265 26.9005,50.9995 C27.7615,53.0095 29.4225,54.5505 31.4535,55.2215 C34.1965,56.1305 37.2925,55.3555 39.3455,53.2475 C40.3455,52.2205 41.0065,50.9725 41.3175,49.6455 C41.7745,49.6635 42.2265,49.6465 42.6675,49.5995 C42.3235,53.0225 43.2235,55.4265 44.4725,57.0885 C42.5405,59.4885 41.2375,62.2085 40.8045,64.9505 C40.6815,65.7425 40.6495,66.5215 40.6615,67.2975 C39.9155,67.5005 39.1915,67.7825 38.4985,68.1425 C37.4785,64.5975 35.3335,61.4675 32.2265,59.2025 C30.6085,58.0235 28.8375,57.1135 26.9595,56.4915 C21.3925,54.6475 15.2045,55.4255 9.9835,58.6235 C4.8255,61.7825 1.3625,66.8905 0.4795,72.6405 C-0.1115,76.5035 2.1495,80.1975 5.8575,81.4255 C6.9825,81.7975 8.1685,81.9115 9.3265,81.7685 C8.4915,86.2955 10.8685,90.4705 15.2675,92.2695 C16.6035,96.4335 19.6625,99.6255 23.6535,100.9465 C25.0735,101.4155 26.5845,101.6455 28.1465,101.6245 C35.3455,101.5245 39.9675,96.3185 41.8915,91.4805 C42.0035,91.1995 42.0985,90.9165 42.1965,90.6335 C42.8085,90.5695 43.4025,90.4495 43.9675,90.2595 C44.2575,90.3895 44.5575,90.5045 44.8635,90.6055 C46.2305,91.0585 47.7105,91.2235 49.2575,91.0965 C49.2905,91.0935 49.3225,91.0915 49.3555,91.0885 C45.7675,94.9595 43.7805,100.1235 44.0845,105.0555 C44.3875,109.9475 46.8705,114.1625 51.0865,116.9265 C52.0685,117.5705 53.0905,118.0705 54.1225,118.4125 L54.1245,118.4125 C56.9385,119.3435 59.8135,119.1355 62.4415,117.8125 C66.4035,115.8165 69.4315,111.4985 71.6955,104.6145 C72.2655,102.8855 72.6835,101.1025 72.9615,99.1885 C73.1565,99.1985 73.3415,99.2165 73.5185,99.2415 C73.6175,99.2575 73.7135,99.2595 73.8115,99.2715 C73.5095,101.2545 73.2795,103.4295 73.4185,105.8515 C73.4255,105.9745 73.4365,106.0975 73.4485,106.2185 L73.4655,106.3615 C73.5615,107.2605 73.7625,109.1345 75.0475,111.2095 C75.1245,111.3345 75.2065,111.4555 75.2925,111.5765 C75.3895,111.7085 75.4785,111.8425 75.5695,111.9765 C75.8315,112.3635 76.1585,112.8425 76.5965,113.3865 L76.9385,113.8205 C77.2885,114.2635 77.6425,114.7085 78.0145,115.1305 L79.2715,116.5465 C79.3165,116.5975 79.3635,116.6485 79.4115,116.6985 C83.1505,120.6495 87.2795,124.2505 91.6915,127.4035 C98.7375,132.4145 105.8905,136.1395 112.9515,138.4775 L112.9525,138.4795 C115.7895,139.4185 118.6605,140.1485 121.5015,140.6525 C131.2335,142.3505 141.5225,141.5805 151.3025,138.4275 C151.9015,138.3085 152.4825,138.1115 153.0315,137.8455 C153.1505,137.8025 153.4755,137.6875 153.5175,137.6725 C155.7125,136.8295 158.2625,135.8145 160.7385,134.4375 C162.9395,133.2175 165.5045,131.6605 167.8775,129.3175 C167.8775,129.3175 168.2855,128.9115 168.3295,128.8665 C168.6415,128.5355 168.8535,128.2685 169.0115,128.0565 C169.1515,127.8795 169.2815,127.6945 169.4035,127.5015 L169.6855,127.0555 C169.7645,126.9325 169.8375,126.8055 169.9065,126.6765 C169.9065,126.6765 170.1795,126.1775 170.2035,126.1255 C170.5535,125.4355 170.8755,124.7255 171.1465,124.0495 C171.7025,122.6765 172.1515,121.3555 172.4395,120.4835 C172.4815,120.3545 172.5235,120.2235 172.5645,120.0965 C172.5665,120.0935 172.5685,120.0935 172.5715,120.0925 C172.7755,119.9575 172.9715,119.8105 173.1575,119.6515 L173.5555,119.3235 C173.9295,119.0135 174.3265,118.6795 174.7355,118.3185 C174.8835,118.1885 175.0215,118.0525 175.1555,117.9115 C175.2665,117.7935 175.3885,117.6755 175.5085,117.5545 C175.8965,117.1715 176.4225,116.6495 176.9535,116.0025 C178.2335,114.4955 179.4645,112.6655 180.6115,110.5685 C180.6355,110.5255 180.6585,110.4865 180.6785,110.4465 C181.8585,108.1735 182.7995,105.8435 183.4545,103.5815" id="Fill-29" fill="#FFFFFF" mask="url(#mask-2)"></path>
            </g>
            <path d="M168.3638,46.1956 C168.3638,46.1956 176.6258,48.6746 179.0758,56.8166 C182.6188,68.5806 181.9808,107.6166 166.3278,116.0906 C167.3478,112.5466 168.4168,108.1206 169.3908,103.1866 C178.8238,91.0896 176.7848,60.2536 175.1518,57.2226 C173.8288,54.7626 171.8988,53.3956 170.8428,52.7866 C170.6618,52.1506 170.4678,51.5186 170.2488,50.9196 C169.6708,49.2406 168.9718,47.7036 168.1498,46.3276 L168.3638,46.1956 Z" id="Fill-32" fill="#DF51CD"></path>
            <path d="M148.7232,22.4211 C158.9592,25.5821 154.3042,35.7951 154.3042,35.7951 L154.1852,36.0371 C152.9382,35.4091 151.6192,34.7821 150.2612,34.1811 L150.4632,33.7321 C150.4632,33.7321 151.7592,28.0851 146.4142,26.2401 C141.2012,24.4521 139.2852,29.6061 139.2852,29.6061 L139.1892,29.9161 C138.2982,29.6351 137.4042,29.3711 136.5212,29.1321 L136.6182,28.7721 C136.6182,28.7721 138.4842,19.2561 148.7232,22.4211" id="Fill-34" fill="#DF51CD"></path>
            <path d="M168.15,46.3274 C168.972,47.7034 169.671,49.2404 170.249,50.9194 L170.19,50.9454 C168.171,50.0464 166.365,50.0524 164.746,50.7044 C156.636,53.9604 152.989,73.1014 149.544,73.3654 C145.403,73.6854 107.719,59.3554 102.957,55.6664 C98.819,52.4584 103.421,43.5854 104.691,41.3274 C104.705,41.2934 104.727,41.2624 104.747,41.2384 C109.064,34.8894 113.582,30.1614 117.958,28.4454 C122.815,26.5314 129.586,27.2324 136.521,29.1324 C137.404,29.3714 138.298,29.6354 139.189,29.9164 C142.996,31.1044 146.783,32.6054 150.261,34.1814 C151.619,34.7824 152.938,35.4094 154.185,36.0374 C158.374,38.1114 161.842,40.1554 163.951,41.6424 C165.611,42.8104 166.998,44.4064 168.15,46.3274" id="Fill-36" fill="#F8B033"></path>
            <path d="M166.3277,116.0901 C165.0537,120.5241 163.8707,123.5581 163.0767,124.4711 C161.1547,126.6631 156.4697,129.6091 150.0727,131.7771 C157.9807,126.3561 162.7767,94.0511 164.6797,79.2731 C167.3447,58.5591 164.7607,50.7411 164.7607,50.7411 L164.7457,50.7041 C166.3647,50.0521 168.1707,50.0461 170.1897,50.9451 L170.2487,50.9191 C170.4677,51.5191 170.6617,52.1511 170.8437,52.7861 C174.7207,66.2901 172.5527,87.3351 169.3907,103.1871 C168.4167,108.1201 167.3487,112.5461 166.3277,116.0901" id="Fill-38" fill="#476DA1"></path>
            <path d="M164.6793,79.2727 C162.7773,94.0507 157.9813,126.3557 150.0733,131.7767 C142.4593,134.3807 132.4283,135.8837 121.7383,133.7107 C102.0673,129.7147 84.8803,113.4537 80.9503,107.0947 C77.9333,102.1997 90.1803,62.6847 104.6913,41.3277 C103.4203,43.5857 98.8193,52.4587 102.9563,55.6667 C107.7193,59.3557 145.4033,73.6857 149.5433,73.3657 C152.9893,73.1017 156.6363,53.9607 164.7453,50.7047 L164.7603,50.7417 C164.7603,50.7417 167.3443,58.5587 164.6793,79.2727" id="Fill-40" fill="#41387A"></path>
            <path d="M142.147,96.1643 C143.95,104.6603 136.262,119.7023 134.956,121.1313 C132.911,123.3683 128.86,123.2293 128.609,123.2163 L128.601,123.1053 C129.213,123.0223 129.745,122.8703 130.172,122.6433 C133.293,120.9473 137.114,111.7003 138.966,103.4793 C140.158,98.1643 140.524,93.2743 139.342,91.1533 C140.452,92.3693 141.715,94.1263 142.147,96.1643" id="Fill-42" fill="#476DA1"></path>
            <path d="M139.3423,91.1535 C140.5243,93.2745 140.1573,98.1645 138.9663,103.4795 L138.7643,103.4365 C123.6513,101.7015 95.8623,86.6875 93.4803,85.3895 C95.2323,82.0085 97.3283,79.1675 99.5743,77.7565 C108.5423,72.1115 137.4323,87.7045 139.3423,91.1535" id="Fill-44" fill="#DF51CD"></path>
            <path d="M138.9664,103.4797 C137.1134,111.7007 133.2934,120.9477 130.1724,122.6427 C129.7444,122.8707 129.2134,123.0227 128.6014,123.1057 C119.3514,124.3367 90.4624,109.7607 88.8074,105.9917 C87.3794,102.7607 89.6174,92.7857 93.4804,85.3897 C95.8624,86.6877 123.6514,101.7017 138.7644,103.4367 L138.9664,103.4797 Z" id="Fill-46" fill="#F8B033"></path>
            <path d="M32.2427,19.4651 C33.5117,15.5201 38.5837,13.4231 41.0517,17.9561 C43.1197,21.7521 41.9327,25.1481 38.8827,27.7661 C36.6597,29.6731 33.9777,30.8591 31.3147,32.0731 C30.8677,27.6351 31.0327,23.2371 32.2427,19.4651 M26.8587,38.1561 C27.5457,37.8381 28.2967,37.5141 29.0797,37.1801 C30.1587,41.5151 31.6287,45.5281 32.8727,48.4411 C33.4637,49.8151 35.4457,48.8361 34.9507,47.4641 C33.7217,44.0691 32.5817,40.0881 31.8637,35.9961 C37.1857,33.7011 43.1777,30.7441 45.0347,25.7971 C47.1807,20.0811 42.9717,8.2461 35.0697,11.7601 C27.2507,15.2391 26.6457,24.5981 28.2877,33.5311 C27.1847,34.1091 26.1137,34.7391 25.1207,35.4921 C23.6347,36.6181 25.2497,38.9011 26.8587,38.1561" id="Fill-48" fill="#000000"></path>
            <path d="M39.2369,41.9524 C39.6679,42.9294 41.6649,43.4334 42.4729,43.0134 C44.1519,42.1444 44.5029,40.9564 44.7519,40.2384 C45.2879,42.2464 46.5489,43.8064 49.1609,43.5884 C52.0059,43.3564 53.8979,41.9514 55.2379,39.9274 C55.3369,40.0324 55.4319,40.1434 55.5439,40.2404 C57.4099,41.8704 60.0549,41.2974 62.0999,40.3904 C64.7319,39.2204 63.5259,36.1324 60.9919,37.4334 C60.3799,37.7484 58.2609,37.3914 57.8739,36.9694 C57.2909,36.3374 57.4509,35.0014 57.5259,34.2334 C57.8349,31.1234 59.6719,29.5544 62.1569,28.0874 C62.9899,27.5974 62.7499,26.4874 61.8169,26.3254 C57.5059,25.5754 54.4719,31.6384 53.9019,35.0094 C53.7879,35.6814 53.7819,36.3714 53.8819,37.0434 C52.7489,38.4914 51.4349,39.5224 50.0089,39.7574 C46.6459,40.3124 47.5019,36.8034 47.6739,35.0824 C47.8399,33.3974 46.0219,33.3154 45.1609,34.7714 C43.9989,36.7304 42.8439,40.0094 41.6949,39.5164 C40.3149,38.9264 42.2579,33.2554 46.3289,33.2684 C46.5619,33.2684 46.6309,32.9634 46.4109,32.8704 C40.5239,30.4114 37.2629,37.4864 39.2369,41.9524" id="Fill-50" fill="#000000"></path>
            <path d="M64.4429,38.9944 C64.1189,39.8854 65.2799,40.7224 65.9999,40.0674 C67.9689,38.2644 68.8849,35.6754 69.4379,33.0224 C71.3969,34.0624 72.3559,35.7764 73.1489,38.0734 C73.9949,40.5214 77.9479,39.1744 77.4259,36.6974 C76.7649,33.5574 75.0409,30.9984 72.4699,29.4384 C74.2899,27.2774 76.1029,25.0674 77.4349,22.6044 C78.5209,20.5944 75.6299,18.5104 74.4499,20.5314 C73.1509,22.0084 71.8549,23.4834 70.5549,24.9554 C70.8579,21.6704 71.0049,18.3564 71.2199,15.0774 C71.4189,12.0394 66.9669,11.7694 66.5129,14.7264 C65.2689,22.8474 67.3569,31.0154 64.4429,38.9944" id="Fill-52" fill="#000000"></path>
            <path d="M54.5142,60.6819 C53.9912,63.9779 52.9712,67.0429 50.7372,69.3119 C48.7492,66.2009 51.5562,62.7559 54.5142,60.6819 M49.6552,72.5029 C50.0952,72.9269 50.9582,72.9799 51.4382,72.5919 C58.3242,66.9639 57.6512,55.9689 57.9952,47.9309 C58.0592,46.4939 55.9822,46.0499 55.7152,47.5489 C55.3742,49.4569 54.6382,51.0589 53.0862,52.2609 C50.1342,54.5429 50.4652,49.4159 50.8162,47.9839 C50.9722,47.3489 49.8972,47.0089 49.6982,47.6399 C48.9322,50.0779 48.2962,53.5079 51.4502,54.3499 C52.9062,54.7399 54.1562,54.1179 55.1732,53.0839 C55.1022,54.3349 55.0352,55.6149 54.9382,56.8939 C49.0632,59.7449 43.8752,66.9679 49.6552,72.5029" id="Fill-54" fill="#000000"></path>
            <path d="M62.4117,50.8391 C63.2557,50.9631 64.0867,51.5971 64.4677,52.3331 C64.7237,52.8251 64.7577,53.2621 64.5127,53.7571 C64.3177,54.1521 63.5357,54.7791 63.0757,54.7501 C62.1917,54.6911 62.1357,52.7751 62.1587,52.1911 C62.1817,51.6791 62.2717,51.2421 62.4117,50.8391 M60.5327,52.6851 C60.2537,54.6311 61.0827,57.0831 63.3937,57.0731 C66.0577,57.0671 68.1437,54.3401 67.3477,51.7951 C66.5947,49.3831 64.2007,47.7081 61.7017,47.7501 C60.0417,47.7791 59.9857,49.9661 61.1707,50.6271 C60.8307,51.3351 60.6177,52.0971 60.5327,52.6851" id="Fill-56" fill="#000000"></path>
            <path d="M75.1519,46.4397 C74.9899,47.0437 75.1169,47.7467 75.1109,48.3727 C75.1099,48.6677 75.0409,49.2267 74.9789,49.6177 C74.9439,49.8337 74.8969,50.0477 74.8459,50.2617 C74.8299,50.3287 74.8129,50.3947 74.7939,50.4607 C74.7859,50.4827 74.7749,50.5137 74.7559,50.5687 C74.6959,50.7437 74.6239,50.9157 74.5459,51.0837 C74.5139,51.1497 74.3549,51.4337 74.3249,51.5007 C74.2079,51.6687 74.0789,51.8257 73.9399,51.9737 C73.8839,52.0237 73.7979,52.1027 73.7559,52.1347 C73.7109,52.1687 73.5849,52.2377 73.5059,52.2827 C73.4339,52.3107 73.3639,52.3417 73.2929,52.3657 C73.2879,52.3667 73.2869,52.3687 73.2809,52.3697 C73.2769,52.3727 73.2779,52.3717 73.2739,52.3717 C73.1699,52.3857 73.0609,52.3897 72.9559,52.3927 C72.9289,52.3877 72.9009,52.3817 72.8559,52.3767 C72.8349,52.3727 72.8059,52.3657 72.7749,52.3587 C72.7069,52.3317 72.6369,52.3027 72.5709,52.2697 C72.5679,52.2667 72.5679,52.2657 72.5629,52.2627 C72.5159,52.2287 72.4259,52.1397 72.3679,52.0837 C72.3209,52.0227 72.2729,51.9647 72.2309,51.9037 C72.2129,51.8767 72.2029,51.8607 72.1909,51.8447 C72.1869,51.8357 72.1859,51.8317 72.1799,51.8187 C72.1249,51.6987 72.0789,51.5707 72.0369,51.4407 C72.0319,51.4167 72.0279,51.4037 72.0219,51.3867 C72.0059,51.3117 71.9919,51.2367 71.9839,51.1607 C71.9599,51.0037 71.9519,50.8457 71.9449,50.6887 C71.9449,50.6267 71.9439,50.5937 71.9419,50.5797 C71.9469,50.5217 71.9489,50.4617 71.9529,50.4057 C71.9819,49.9647 72.0529,49.5357 72.1569,49.1047 C72.4029,48.0837 73.0549,47.2247 73.3359,46.2267 C73.5639,45.4087 72.4519,44.8307 71.8319,45.2837 C70.8499,46.0037 70.1349,47.3997 69.6649,48.5037 C69.2379,49.5047 69.0339,50.5667 69.1269,51.6537 C69.2809,53.4957 70.5039,55.0027 72.2699,55.5017 C73.9719,55.9807 75.7729,55.0237 76.7979,53.6927 C77.4909,52.7927 77.8849,51.7467 78.1549,50.6527 C78.2969,50.0747 78.3619,49.4827 78.3999,48.8897 C78.4569,48.0267 78.5579,46.9707 78.2099,46.1607 C77.5559,44.6407 75.5559,44.9197 75.1519,46.4397" id="Fill-58" fill="#000000"></path>
            <path d="M84.2515,46.7092 C83.7935,47.6332 82.9865,49.2402 82.0165,49.7312 C81.9395,49.7702 81.8735,49.8212 81.8055,49.8682 C82.3435,47.9722 83.0745,46.2042 84.6365,45.1682 C84.7395,45.1252 84.8485,45.0932 84.9525,45.0532 C84.8045,45.6292 84.5115,46.1872 84.2515,46.7092 M95.7015,50.1042 C96.2975,48.6702 94.5255,46.8522 93.1775,48.0062 C91.8025,49.1842 90.7905,50.4322 89.0285,51.0522 C87.8235,51.4772 86.5325,51.3232 85.3535,50.8822 C87.5755,48.0302 89.8675,43.0692 86.3875,41.9972 C83.8055,41.2052 81.7575,43.8832 80.9615,45.9162 C79.8605,48.7312 79.3255,52.3462 79.6475,55.3642 C79.6735,55.5992 79.9865,55.6402 80.0935,55.4402 C80.5805,54.5092 80.8985,53.3962 81.1935,52.2352 C81.2805,52.3592 81.3905,52.4742 81.5235,52.5822 C85.7645,55.9662 93.3315,55.7962 95.7015,50.1042" id="Fill-60" fill="#000000"></path>
            <path d="M20.9654,81.3977 C20.8954,82.0957 20.8454,82.7777 20.8164,83.4307 C20.2074,83.5427 19.7184,83.5687 19.3864,83.5057 C19.2994,83.4897 19.0884,83.4397 19.0434,83.3367 C19.0334,83.3137 18.8374,82.7777 20.9654,81.3977 M23.9634,85.9427 C27.0254,84.7167 29.6324,82.2217 31.2144,79.0117 C33.5554,80.6797 33.3104,84.7937 32.5244,87.2807 C31.8874,89.2927 29.4764,91.9377 27.1494,91.5047 C26.6104,91.4047 26.1044,91.1347 25.6434,90.7057 C24.6584,89.7857 24.1084,88.2227 23.9634,85.9427 M24.0164,82.2857 C24.0484,81.8037 24.0854,81.3407 24.1194,80.9107 L24.1894,80.0217 C24.2004,79.8727 24.2134,79.7217 24.2254,79.5737 C25.6744,78.8457 26.9334,78.4247 28.0404,78.3047 C27.1204,79.9447 25.7104,81.3357 24.0164,82.2857 M32.3474,75.8477 C33.4004,71.2807 31.9394,67.0467 28.3964,64.4657 C26.8504,63.3397 25.1214,62.5927 23.2584,62.2457 C19.6244,61.5687 15.7214,62.4727 12.5454,64.7267 C9.4604,66.9167 7.4594,70.0777 6.9144,73.6267 C6.7764,74.5427 7.4214,75.1697 8.1004,75.2957 C8.8284,75.4317 9.4774,75.0157 9.6764,74.2837 C10.8934,69.8077 13.6134,66.8267 17.5504,65.6667 C20.9194,64.6687 24.9774,65.4217 27.5154,67.5587 C30.0924,69.7247 30.0074,72.7147 29.4114,74.9677 C28.4494,74.8717 27.4384,74.9277 26.3924,75.1397 C25.8884,75.2417 25.3254,75.3907 24.7404,75.5807 C25.0764,73.1687 25.3714,70.5197 24.8484,68.1327 C24.7324,67.5937 24.0104,67.3847 23.5864,67.7317 C23.4094,67.8767 23.3084,68.0927 23.3074,68.3207 C23.2854,70.2067 22.7724,72.2327 22.2754,74.1937 C22.0534,75.0707 21.8234,75.9747 21.6444,76.8497 C19.6504,77.8587 16.4394,79.8927 15.7674,82.7667 C15.5694,83.6117 15.6764,84.3597 16.0854,84.9887 C16.7424,85.9937 17.9904,86.4117 18.9224,86.5847 C19.5534,86.7037 20.2264,86.7437 20.8594,86.7057 C20.9334,87.7167 21.0664,88.6387 21.2594,89.5147 C21.9064,92.4457 23.8974,94.4927 26.5834,94.9937 C27.0554,95.0817 27.5514,95.1217 28.0584,95.1157 C32.0484,95.0597 34.6944,91.9557 35.8424,89.0717 C37.9214,83.8527 36.3494,78.0197 32.3474,75.8477" id="Fill-62" fill="#000000"></path>
            <path d="M59.0152,106.2258 C57.1512,109.4568 55.4252,105.7958 55.2022,103.4568 C54.9292,100.5918 57.7982,98.2928 59.8722,96.8818 C60.5962,96.3898 61.3922,95.9138 62.2392,95.4738 C61.8932,99.1478 61.0192,102.7528 59.0152,106.2258 M75.5792,88.3238 C72.7882,87.8748 69.7602,88.0728 66.8002,88.7598 C66.5392,83.5468 65.9952,78.3308 66.8822,73.2398 C67.2532,72.1858 67.5122,71.0878 67.6572,69.9768 C67.6622,69.9558 67.6672,69.9358 67.6732,69.9158 C67.6702,69.9148 67.6682,69.9148 67.6652,69.9158 C67.6882,69.7348 67.7162,69.5538 67.7342,69.3718 C67.9552,66.9558 64.3462,66.8518 63.6762,68.9128 C63.2522,70.2268 62.9472,71.5498 62.7252,72.8808 C61.7452,75.0288 60.0372,76.7248 57.7652,77.5158 C55.9252,72.3218 61.9152,68.0868 66.0762,66.2008 C66.1302,66.1768 66.0942,66.1028 66.0452,66.0998 C60.3292,65.8938 54.7712,70.9268 54.5102,76.4978 C53.1772,78.7538 51.4762,80.4728 49.5752,80.7848 C46.2102,81.3388 47.0662,77.8318 47.2382,76.1108 C47.4052,74.4278 45.5882,74.3448 44.7252,75.7978 C43.5652,77.7608 42.4092,81.0358 41.2602,80.5448 C39.8802,79.9548 41.8222,74.2848 45.8932,74.2978 C46.1262,74.2968 46.1972,73.9938 45.9762,73.8978 C40.0882,71.4388 36.8282,78.5148 38.8022,82.9808 C39.2322,83.9588 41.2292,84.4638 42.0392,84.0418 C43.7172,83.1738 44.0682,81.9858 44.3152,81.2668 C44.8512,83.2778 46.1162,84.8338 48.7242,84.6218 C51.8702,84.3618 53.8532,82.6708 55.2102,80.2988 C55.5332,80.9108 56.0872,81.3238 56.8302,81.3088 C58.8922,81.2738 60.6862,80.6518 62.1982,79.6328 C62.1732,83.1298 62.4152,86.6498 62.4422,90.1388 C59.7832,91.2168 57.3172,92.6688 55.3012,94.3768 C50.2662,98.6448 48.0632,107.1728 54.6492,111.4928 C60.5662,115.3698 64.1022,106.9068 65.5252,102.5798 C66.5002,99.6168 66.8332,96.6088 66.8912,93.5848 C69.4432,92.8228 72.0992,92.4678 74.4552,92.8128 C77.3932,93.2408 78.5712,88.8028 75.5792,88.3238" id="Fill-64" fill="#000000"></path>
            <path d="M75.7437,68.3567 C74.6397,67.8527 73.5887,67.3707 72.7597,66.6747 C73.4877,66.0617 74.5417,66.0687 75.7407,66.6737 C75.7797,66.6917 75.8667,66.7227 75.9067,66.7297 C76.1957,66.7837 76.4857,66.6237 76.6087,66.3397 C76.7277,66.0647 76.6467,65.7537 76.4117,65.5837 C74.1477,63.9337 72.0697,64.0927 70.1337,66.0287 C69.8067,66.3547 69.7137,66.9527 69.9287,67.3327 C70.7417,68.7707 72.3487,69.7237 73.9017,70.6427 C76.0917,71.9407 78.1597,73.1687 77.8457,75.5817 C77.7127,76.5767 76.5807,77.0157 75.5837,77.0047 C74.1307,76.9867 72.7817,76.0867 72.0977,74.7017 C71.8557,74.2087 71.4247,73.8807 70.8827,73.7807 C70.1437,73.6427 69.3197,73.9507 68.8787,74.5277 C68.5157,75.0027 68.4647,75.5897 68.7327,76.1437 C69.7357,78.2137 71.9327,79.8417 74.3287,80.2897 C76.6387,80.7197 78.7297,79.9987 80.2147,78.2617 C82.0307,76.1437 81.2297,73.2137 79.9937,71.3497 C78.9997,69.8497 77.3437,69.0907 75.7437,68.3567" id="Fill-66" fill="#000000"></path>
            <path d="M124.7632,39.8049 C125.3722,40.0029 126.1322,39.3399 126.4612,38.3239 C126.7912,37.3089 126.5652,36.3249 125.9542,36.1259 C125.3472,35.9289 124.5832,36.5929 124.2552,37.6069 C123.9242,38.6239 124.1512,39.6069 124.7632,39.8049" id="Fill-68" fill="#000000"></path>
            <path d="M143.3248,45.7542 C143.9338,45.9512 144.6968,45.2912 145.0268,44.2742 C145.3558,43.2582 145.1308,42.2752 144.5208,42.0772 C143.9118,41.8782 143.1478,42.5402 142.8178,43.5582 C142.4908,44.5722 142.7178,45.5572 143.3248,45.7542" id="Fill-70" fill="#000000"></path>
            <path d="M131.1841,42.0959 C131.2611,42.4659 131.3691,42.8659 131.5801,43.2549 C131.7691,43.6519 132.0591,44.0409 132.4211,44.3709 C132.6011,44.5359 132.8141,44.6669 133.0171,44.8109 L133.3481,44.9719 L133.5151,45.0479 L133.5991,45.0839 L133.6421,45.1029 L133.6641,45.1119 L133.7661,45.1419 C133.9641,45.1839 134.1091,45.2319 134.3461,45.2699 C134.6271,45.2879 134.9541,45.3289 135.1941,45.2799 C135.7021,45.2169 136.1731,45.0319 136.5491,44.7909 C136.9441,44.5639 137.2371,44.2699 137.4991,43.9959 C137.7551,43.7179 137.9551,43.4319 138.1261,43.1669 C138.4591,42.6329 138.6511,42.1579 138.7721,41.8219 C138.8891,41.4859 138.9381,41.2739 138.9381,41.2739 C138.9811,41.0869 138.9111,40.8859 138.7451,40.7709 C138.5281,40.6179 138.2281,40.6699 138.0731,40.8879 L138.0541,40.9149 C138.0541,40.9149 137.9511,41.0599 137.7751,41.3119 C137.5921,41.5659 137.3221,41.9269 136.9741,42.3089 C136.6271,42.6839 136.1901,43.0849 135.7141,43.3119 C135.4831,43.4419 135.2391,43.4919 135.0041,43.5119 C134.8771,43.5419 134.8231,43.4949 134.7251,43.5189 C134.6041,43.5019 134.4201,43.4449 134.2571,43.4039 L134.2341,43.3919 L134.1901,43.3699 L134.0971,43.3279 L133.9111,43.2499 C133.8101,43.1689 133.6921,43.1159 133.5951,43.0289 C133.4091,42.8529 133.2181,42.6679 133.0841,42.4279 C132.9361,42.2049 132.8261,41.9419 132.7311,41.6839 C132.6391,41.4229 132.5711,41.1589 132.5151,40.9079 C132.4121,40.4069 132.3611,39.9609 132.3331,39.6499 C132.3221,39.4969 132.3111,39.3749 132.3041,39.2909 C132.3001,39.2089 132.2971,39.1649 132.2971,39.1649 L132.2951,39.1319 C132.2841,38.9359 132.1531,38.7599 131.9551,38.6979 C131.7021,38.6209 131.4321,38.7639 131.3541,39.0169 C131.3541,39.0169 131.3391,39.0679 131.3091,39.1609 C131.2851,39.2599 131.2411,39.3939 131.2071,39.5709 C131.1361,39.9219 131.0541,40.4309 131.0701,41.0629 C131.0751,41.3789 131.1021,41.7279 131.1841,42.0959" id="Fill-72" fill="#000000"></path>
            <path d="M101.7896,31.5315 C102.4736,31.5395 103.2556,30.7715 102.7936,30.0655 C101.0766,27.4275 98.3546,25.5025 96.2236,23.2025 C94.9926,21.8765 92.5936,16.7635 90.2016,19.0405 C86.2286,22.8235 98.3206,31.4795 101.7896,31.5315" id="Fill-74" fill="#000000"></path>
            <path d="M107.9781,27.0432 C108.7751,27.7472 109.8881,26.7992 109.7491,25.9092 C109.4001,23.6762 108.2901,21.6692 107.3861,19.6262 C106.2871,17.1482 105.1661,14.6862 104.4171,12.0752 C104.1471,11.1322 103.4021,10.2332 102.3261,10.2282 C101.9101,10.2242 101.5491,10.2412 101.1751,10.4392 C100.3321,10.8882 99.6211,11.9062 99.9181,12.9112 C101.3751,17.8472 104.0591,23.5792 107.9781,27.0432" id="Fill-76" fill="#000000"></path>
            <path d="M113.2691,14.3088 C113.4341,15.9018 113.6181,17.5138 113.9051,19.0918 C114.0591,19.9428 114.6591,21.7208 114.6761,21.9528 C114.7541,23.1048 116.5471,22.9278 116.6541,21.8428 C116.6491,21.8978 116.8001,21.5708 116.9021,21.1208 C117.0341,20.5308 117.1151,19.9278 117.2031,19.3318 C117.4311,17.7728 117.3481,16.1478 117.3741,14.5778 C117.3971,13.1358 117.3111,11.6928 117.2581,10.2518 C117.2311,9.5358 117.3001,8.6598 116.7211,8.1148 C116.2901,7.7068 115.2951,6.8788 116.1851,7.6988 C115.4071,6.9798 114.4501,6.9908 113.7411,7.8008 C114.4101,7.0358 113.8001,7.6298 113.3871,8.1148 C112.8511,8.7398 112.8751,9.4098 112.9351,10.1788 C113.0451,11.5548 113.1251,12.9358 113.2691,14.3088" id="Fill-78" fill="#000000"></path>
            <path d="M177.5181,94.7776 C177.0111,97.0366 176.2421,99.1406 175.4721,101.0956 C174.6871,103.0506 173.8201,104.8176 173.0021,106.4326 C172.5611,107.2166 172.1621,107.9886 171.6981,108.6616 C171.2821,109.3696 170.8141,109.9816 170.3781,110.5606 C169.9611,111.1586 169.4831,111.6336 169.0871,112.1216 C168.6521,112.5646 168.2311,112.9496 167.8601,113.3136 C167.8161,113.3486 167.7781,113.3806 167.7351,113.4156 C167.8471,113.0036 167.9661,112.5896 168.0761,112.1806 C168.9401,108.8766 169.6761,105.6236 170.3111,102.4316 C170.5241,102.1796 170.7631,101.8816 171.0161,101.5196 C171.4911,100.8936 171.9741,100.0796 172.4791,99.1236 C172.9771,98.1636 173.4751,97.0486 173.9081,95.8026 C174.3691,94.5626 174.7061,93.1746 174.9761,91.6996 C175.2481,90.2226 175.4471,88.6636 175.7131,87.0646 C175.9671,85.4646 176.2331,83.8096 176.5011,82.1296 C176.7431,80.4456 176.9771,78.7286 177.1081,77.0036 C177.3661,73.5536 177.3991,70.0926 177.2891,66.8466 C177.2451,65.2226 177.1921,63.6516 177.1121,62.1526 C177.0091,60.6516 176.8781,59.2396 176.5581,57.8886 C176.5151,57.7176 176.4721,57.5486 176.4301,57.3806 C176.3931,57.2186 176.3071,56.9736 176.2411,56.7836 C176.1641,56.5546 176.1001,56.4386 176.0381,56.3026 L175.9891,56.2016 C175.8931,56.0056 175.9571,56.1396 175.9341,56.0926 L175.9241,56.0786 L175.9081,56.0526 L175.8721,56.0026 L175.7341,55.7966 C175.3671,55.2526 175.0261,54.7366 174.6111,54.3246 C174.4141,54.1156 174.2291,53.9046 174.0391,53.7126 C173.8331,53.5396 173.6351,53.3726 173.4441,53.2116 C173.0791,52.8776 172.6821,52.6426 172.3451,52.4176 C171.8391,52.0966 171.3841,51.8826 171.0201,51.7246 C170.5011,50.0206 169.8961,48.5076 169.2481,47.2046 C169.6431,47.4356 170.0981,47.7206 170.6151,48.0716 C171.4691,48.6556 172.4661,49.4196 173.4691,50.4096 C174.4731,51.4006 175.4621,52.6346 176.2701,54.1266 C176.4541,54.5076 176.6401,54.8956 176.8321,55.2936 C177.0001,55.6996 177.1251,56.1316 177.3021,56.5536 C177.4361,56.9236 177.5961,57.5046 177.7231,57.9666 C177.8321,58.4416 177.9601,58.9006 178.0691,59.4126 C178.5211,61.4346 178.8391,63.6396 179.0471,65.9296 C179.4411,70.5206 179.4631,75.4656 179.2331,80.3946 C179.1131,82.8586 178.9541,85.3246 178.6971,87.7426 C178.4441,90.1626 178.0221,92.5206 177.5181,94.7776 L177.5181,94.7776 Z M163.5961,120.9946 C163.4081,121.4996 163.1981,121.9896 162.9741,122.4556 L162.8011,122.7956 L162.6481,123.0636 C162.5771,123.1536 162.4571,123.3376 162.4261,123.3526 L162.1551,123.6306 C160.7121,125.1376 158.8071,126.3486 156.8751,127.4436 C155.6921,128.1186 154.4461,128.6996 153.1761,129.2446 C153.8871,128.2926 154.6171,127.0906 155.3181,125.6726 C156.0391,124.1926 156.7431,122.4856 157.3871,120.5936 C158.0341,118.7026 158.6001,116.6196 159.0811,114.3966 C159.5801,112.1746 160.0071,109.8226 160.5301,107.4076 C161.0451,104.9936 161.5771,102.4976 162.1191,99.9636 C162.6561,97.4256 163.1801,94.8436 163.6331,92.2496 C164.0921,89.6566 164.4731,87.0506 164.8541,84.4896 C165.2101,81.9206 165.5891,79.4106 165.8331,76.9376 C166.0841,74.4716 166.4771,72.1056 166.6181,69.8266 C166.7041,68.6906 166.7871,67.5846 166.8681,66.5156 C166.9701,65.4466 166.9031,64.4006 166.9261,63.4046 C166.9311,62.4056 166.9191,61.4506 166.8861,60.5416 C166.8171,59.6296 166.7481,58.7656 166.6851,57.9546 C166.6491,57.5486 166.6151,57.1556 166.5801,56.7776 C166.5241,56.3986 166.4681,56.0346 166.4141,55.6836 C166.3001,54.9866 166.1961,54.3446 166.1031,53.7656 C165.8291,52.6046 165.6231,51.7216 165.4071,51.0836 C165.3901,51.0336 165.3771,50.9986 165.3631,50.9536 C165.5211,50.9006 165.6801,50.8346 165.8321,50.8016 C166.9721,50.5176 167.9331,50.7286 168.5721,50.8406 C168.9221,50.9456 169.1751,51.0196 169.3401,51.0666 C169.3841,51.1976 169.4291,51.3226 169.4721,51.4556 C169.3951,51.5046 169.3231,51.5646 169.2691,51.6456 C169.0631,51.9586 169.1491,52.3776 169.4601,52.5836 L169.4721,52.5906 C169.4721,52.5906 169.5171,52.6226 169.6041,52.6786 C169.6731,52.7306 169.7761,52.8106 169.9051,52.9096 C171.0161,57.0106 171.6261,62.2046 171.6971,68.1646 C171.7451,74.1476 171.3371,80.9146 170.4261,88.2446 C169.5471,95.5766 168.2191,103.4926 166.2911,111.7326 C166.0221,112.8446 165.7381,113.9636 165.4371,115.0836 C165.3051,115.1716 165.2331,115.2176 165.2331,115.2176 L165.1611,115.2656 C164.8891,115.4436 164.7831,115.7976 164.9211,116.1016 C164.9621,116.1886 165.0201,116.2596 165.0871,116.3196 C164.9341,116.8556 164.7941,117.3926 164.6301,117.9256 C164.3151,118.9606 163.9801,119.9906 163.5961,120.9946 L163.5961,120.9946 Z M122.8801,132.6116 C118.2031,131.7396 113.5771,130.1056 109.1961,128.0116 C104.8061,125.9096 100.6211,123.3326 96.6811,120.4326 C92.7551,117.5146 89.0381,114.2946 85.7341,110.7566 L84.5401,109.3986 C84.1471,108.9476 83.8121,108.4896 83.4441,108.0356 C83.0801,107.5896 82.7451,107.0376 82.3941,106.5446 C82.2721,106.3836 82.1381,105.8306 82.1111,105.3056 C81.9871,103.0976 82.4031,100.6536 82.8331,98.3196 C83.7621,93.6046 85.0771,88.9686 86.5021,84.4426 C87.9381,79.9146 89.5201,75.4896 91.2041,71.1896 C93.9021,64.3596 96.8661,57.8396 100.1121,51.8056 C100.1121,52.0066 100.1081,52.2056 100.1201,52.4146 C100.1851,53.6316 100.5721,55.1246 101.6831,56.2766 C101.8201,56.4136 101.9681,56.5406 102.1171,56.6716 L102.2271,56.7686 L102.2541,56.7926 L102.3291,56.8456 L102.3721,56.8786 L102.5541,57.0046 C102.7781,57.1706 103.0801,57.3536 103.3811,57.5336 C103.9801,57.8856 104.5111,58.1796 105.0991,58.4586 C105.7021,58.7536 106.3131,59.0386 106.9361,59.3216 C106.4591,60.7246 106.1981,62.0736 106.7331,62.5066 C107.9921,63.5166 110.4561,64.8536 110.9461,64.0506 C111.1401,63.7356 111.7211,62.7246 112.2861,61.5596 C113.6581,62.1116 115.0591,62.6666 116.4901,63.2296 C119.1971,64.3006 122.0021,65.3776 124.8691,66.4346 C127.7371,67.4826 130.6531,68.5426 133.5981,69.5206 C133.9571,69.6396 134.3191,69.7486 134.6791,69.8646 C134.1781,71.4586 133.8641,73.0646 134.4471,73.5336 C135.7041,74.5476 138.1681,75.8816 138.6621,75.0806 C138.8781,74.7286 139.5921,73.2296 140.2321,71.5796 C140.9781,71.7976 141.7241,72.0236 142.4661,72.2326 C143.9441,72.6506 145.4181,73.0186 146.9041,73.3666 C147.6651,73.5256 148.3661,73.6996 149.2821,73.7096 L149.4561,73.7096 C149.3561,73.7296 149.6381,73.6816 149.6201,73.6826 L149.6541,73.6726 L149.7191,73.6526 L149.9841,73.5746 C150.2291,73.4526 150.5491,73.2656 150.7101,73.1056 C151.0441,72.7966 151.2921,72.4716 151.5311,72.1536 C152.4071,70.8586 153.0101,69.5506 153.6401,68.2856 C154.2431,67.0226 154.8341,65.7876 155.4071,64.5826 C156.5561,62.1916 157.6411,59.9626 158.7311,57.9806 C159.8171,56.0066 160.9671,54.2946 162.2021,53.0616 C162.7711,52.4726 163.3561,52.0006 163.9351,51.6316 C164.0131,52.1926 164.0401,53.0196 164.1341,54.0236 C164.1391,55.1606 164.2761,56.5076 164.2441,58.0896 C164.2491,58.8766 164.2571,59.7136 164.2631,60.5936 C164.2471,61.4766 164.1991,62.4096 164.1961,63.3806 C164.1931,65.3176 164.0671,67.4246 163.9971,69.6576 C163.9731,70.7746 163.9401,71.9236 163.8181,73.0916 C163.7161,74.2636 163.6131,75.4616 163.5061,76.6786 C163.3041,79.1096 162.9511,81.6356 162.6371,84.1896 C162.2971,86.7426 161.9491,89.3376 161.6011,91.9316 C161.2451,94.5266 160.9011,97.1216 160.5151,99.6716 C160.1351,102.2196 159.6641,104.7136 159.1541,107.1106 C158.6401,109.5076 157.9641,111.7836 157.3031,113.9246 C156.6151,116.0486 155.9641,118.0546 155.3641,119.9086 C154.7501,121.7486 154.1181,123.4006 153.4961,124.8246 C152.8971,126.2606 152.2701,127.4526 151.6721,128.3536 C151.1081,129.2906 150.5421,129.8866 150.1571,130.2866 C150.0301,130.3936 149.9271,130.4806 149.8371,130.5546 C141.4291,133.4046 132.0451,134.3346 122.8801,132.6116 L122.8801,132.6116 Z M173.5811,57.3166 L173.6061,57.3816 C173.6591,57.5216 173.7241,57.6796 173.7241,57.7526 C173.7731,57.9856 173.8241,58.2246 173.8761,58.4706 C174.0911,59.6326 174.3041,60.9866 174.4991,62.4106 C174.7041,63.8406 174.8561,65.3666 174.9521,66.9496 C175.0431,68.5316 175.0821,70.1736 175.1011,71.8416 C175.1321,73.5096 175.0821,75.2046 175.0531,76.8976 C174.9731,80.2846 174.9021,83.6986 174.3271,86.8306 C174.0711,88.3986 173.6221,89.8736 173.1911,91.2556 C172.7281,92.6266 172.3111,93.9216 171.8921,95.0946 C171.7411,95.5766 171.5671,96.0246 171.3991,96.4596 C171.8451,93.7466 172.2231,91.0866 172.5371,88.4976 C173.3901,81.0756 173.7271,74.2096 173.4821,68.1216 C173.2891,63.0706 172.7431,58.5596 171.8421,54.7476 C171.8641,54.7726 171.8831,54.7926 171.9041,54.8186 C172.0361,54.9726 172.1731,55.1336 172.3161,55.3016 C172.4421,55.4816 172.5711,55.6676 172.7051,55.8586 C172.9981,56.2226 173.2041,56.6766 173.4661,57.1186 L173.5651,57.2876 L173.5811,57.3166 Z M109.5571,37.1976 C110.8021,35.6996 112.0831,34.2856 113.4471,33.0456 C114.8021,31.8296 116.2821,30.7346 117.7391,30.0416 C120.8161,28.6306 124.2741,28.4986 127.5201,28.7076 C130.7811,28.9676 133.8761,29.6066 136.7551,30.3336 C142.5131,31.8206 147.3921,33.7556 151.3311,35.4696 C155.2651,37.2206 158.2421,38.8406 160.2311,39.9916 C161.2291,40.5666 161.9661,41.0346 162.4581,41.3466 C162.9441,41.6686 163.1961,41.8366 163.2111,41.8446 C163.2141,41.8476 163.4451,42.0266 163.8921,42.3696 C164.3301,42.7306 164.9641,43.2936 165.6751,44.1466 C166.6691,45.2946 167.7511,47.0486 168.6971,49.3546 C167.9481,49.1456 166.8731,48.8756 165.5081,49.0906 C163.9691,49.3316 162.2721,50.2416 160.7931,51.6296 C159.3291,53.0396 158.0581,54.8786 156.8701,56.9396 C155.6981,59.0156 154.6811,61.3596 153.7201,63.8506 C153.2331,65.0856 152.7341,66.3556 152.2231,67.6486 C151.6961,68.9216 151.1221,70.2286 150.3801,71.3466 L150.0891,71.7326 C149.9871,71.8526 149.8801,71.9396 149.7801,72.0486 C149.6771,72.1376 149.6651,72.1236 149.6111,72.2086 L149.3451,72.2826 L149.3191,72.2896 L149.2391,72.2856 C148.6841,72.2706 147.9231,72.1096 147.2311,71.9416 C145.8091,71.6086 144.3811,71.1366 142.9431,70.6736 C142.2361,70.4376 141.5261,70.1796 140.8171,69.9326 C141.3201,68.3676 141.5881,66.9606 141.1241,66.5616 C140.0091,65.6046 137.5401,65.1046 136.0991,66.1876 C136.0991,66.1876 135.7521,66.9446 135.3511,67.9706 C134.9941,67.8406 134.6381,67.7106 134.2791,67.5796 C128.4861,65.4556 122.7161,63.2486 117.3661,61.0596 C115.9541,60.4726 114.5741,59.8816 113.2361,59.2866 C113.5851,58.2386 113.7161,57.3396 113.3161,56.9986 C112.2021,56.0426 110.0551,54.3356 108.6141,55.4196 C108.6141,55.4196 108.3161,55.9936 107.9441,56.8146 C107.3951,56.5476 106.8581,56.2806 106.3421,56.0076 C105.8151,55.7276 105.2571,55.4416 104.8131,55.1836 C104.5971,55.0586 104.3811,54.9406 104.1231,54.7576 L103.9411,54.6326 L103.9161,54.6156 L103.9131,54.6106 L103.8581,54.5626 L103.6411,54.3736 C103.1251,53.8336 102.8251,53.0716 102.7341,52.1976 C102.6521,51.3286 102.7071,50.4186 102.8501,49.5606 C103.1431,47.8396 103.6101,46.3026 104.0651,45.0716 C104.1031,44.9656 104.1391,44.8736 104.1761,44.7716 C105.8711,42.0706 107.6471,39.5126 109.5571,37.1976 L109.5571,37.1976 Z M145.7171,27.0606 L145.7301,27.0646 L145.7801,27.0816 L145.9831,27.1436 C146.2371,27.2336 146.5621,27.2986 146.7691,27.3796 C146.9711,27.4656 147.1891,27.5246 147.4031,27.6246 C147.6061,27.7466 147.8251,27.8596 148.0091,28.0086 C148.1791,28.1696 148.3561,28.3286 148.4931,28.5106 C148.7671,28.8846 148.8941,29.3296 148.9491,29.7486 C149.0021,30.1666 149.0601,30.5436 149.1251,30.8986 C149.1991,31.2506 149.2501,31.5856 149.2891,31.8846 C149.3401,32.1866 149.3721,32.4556 149.4031,32.6776 C149.4091,32.7116 149.4131,32.7366 149.4161,32.7666 C146.7731,31.5536 143.7731,30.2976 140.4031,29.1356 C140.7051,28.8766 141.1011,28.5406 141.5681,28.1426 C141.8251,27.9406 142.0711,27.7126 142.3491,27.4826 C142.6291,27.2656 142.9571,27.0456 143.3511,26.9706 C143.5421,26.9166 143.7471,26.8806 143.9601,26.8826 L144.2821,26.8596 L144.6161,26.8916 C144.8401,26.8976 145.0701,26.9336 145.3051,26.9916 L145.6601,27.0616 L145.7491,27.0786 L145.7711,27.0836 L145.7771,27.0846 C145.6471,27.0346 145.7461,27.0706 145.7171,27.0606 L145.7171,27.0606 Z M138.5381,26.5066 C138.7001,26.2866 138.8901,26.0726 139.0611,25.8276 C139.2571,25.6106 139.4641,25.3836 139.6791,25.1466 C140.1381,24.7166 140.5941,24.2166 141.1971,23.8376 C141.3441,23.7356 141.4941,23.6326 141.6441,23.5276 C141.8121,23.4526 141.9841,23.3756 142.1561,23.2986 C142.4941,23.1206 142.8801,23.0306 143.2771,22.9456 C144.0701,22.7906 144.9411,22.7636 145.8361,22.8666 C146.2831,22.8766 146.7351,22.9776 147.1911,23.0806 L147.8771,23.2256 L148.0491,23.2616 L148.0711,23.2656 L148.0811,23.2686 C148.0851,23.2686 148.0801,23.2666 148.0741,23.2646 L148.1561,23.2926 L148.5171,23.4056 C148.9851,23.5586 149.5081,23.6956 149.9291,23.8636 C150.3291,24.0466 150.7271,24.2286 151.1241,24.4086 C151.4811,24.6716 151.8721,24.9036 152.2131,25.1836 C152.5031,25.5076 152.8251,25.8126 153.0611,26.1656 C153.5271,26.8846 153.7611,27.6896 153.8401,28.4626 C153.8631,28.6536 153.8811,28.8416 153.9021,29.0266 C153.9141,29.2156 153.9031,29.4036 153.9151,29.5856 C153.9171,29.7646 153.9301,29.9436 153.9451,30.1186 C153.9401,30.2936 153.9281,30.4676 153.9341,30.6376 C153.9511,30.9796 153.9261,31.3076 153.8981,31.6236 C153.8921,31.9386 153.8551,32.2376 153.8171,32.5186 C153.7961,32.8056 153.7571,33.0706 153.7161,33.3156 C153.6861,33.5626 153.6511,33.7916 153.6091,33.9936 C153.5691,34.2886 153.5231,34.5166 153.4841,34.7156 C153.0101,34.4776 152.5241,34.2366 152.0191,33.9936 C151.6621,33.8216 151.2881,33.6416 150.9141,33.4666 C150.9791,33.3256 151.0651,33.1116 151.1391,32.8186 C151.2801,32.2856 151.3941,31.4856 151.2291,30.5226 C151.1551,30.0436 150.9651,29.5316 150.6571,29.0516 C150.3521,28.5666 149.9641,28.1236 149.6031,27.6486 C149.4211,27.4126 149.2011,27.2006 149.0091,26.9566 C148.7881,26.7396 148.5631,26.5186 148.3381,26.2956 C148.0941,26.0826 147.8131,25.8826 147.5361,25.6766 C147.2521,25.4786 147.0331,25.3776 146.7721,25.2376 L146.5831,25.1386 L146.5361,25.1146 L146.4451,25.0806 L146.4161,25.0696 L146.3001,25.0326 L145.8381,24.8826 C145.5381,24.7686 145.2161,24.7086 144.8841,24.6696 L144.3961,24.5976 L143.8971,24.5906 C143.5631,24.5786 143.2321,24.6096 142.9071,24.6736 C142.2541,24.7646 141.6271,24.9576 141.0581,25.1966 C140.7721,25.3136 140.5231,25.4776 140.2761,25.6316 C140.0501,25.8046 139.8371,25.9816 139.6591,26.1716 C138.9511,26.9436 138.6441,27.7406 138.5161,28.3066 C138.4991,28.3776 138.4931,28.4336 138.4811,28.4996 C138.1361,28.3876 137.7951,28.2776 137.4441,28.1686 C137.5271,28.0326 137.6231,27.8776 137.7311,27.6996 C137.9491,27.3546 138.2241,26.9506 138.5381,26.5066 L138.5381,26.5066 Z M180.3111,87.9686 C180.7231,85.5296 181.0671,83.0366 181.2851,80.5286 C181.5041,78.0246 181.5801,75.5066 181.6071,73.0306 C181.6231,70.5516 181.5511,68.1106 181.3791,65.7486 C181.2181,63.3846 180.9981,61.0966 180.6461,58.9146 C180.5701,58.3706 180.4321,57.8066 180.3251,57.2656 C180.1921,56.7226 180.1021,56.3066 179.9201,55.7206 C179.7441,55.2016 179.5641,54.6896 179.3561,54.1996 C179.1221,53.7246 178.8981,53.2496 178.6571,52.7996 C177.6571,51.0126 176.3611,49.6306 175.1101,48.5946 C173.8561,47.5546 172.6311,46.8486 171.5981,46.3486 C170.5611,45.8496 169.7061,45.5686 169.1181,45.3876 C168.8221,45.2996 168.5961,45.2486 168.4271,45.2106 C168.2701,45.1766 168.1901,45.1596 168.1901,45.1596 C168.1581,45.1526 168.1281,45.1576 168.0971,45.1556 C167.6331,44.4276 167.1661,43.7926 166.7111,43.2736 C165.9321,42.3456 165.2261,41.7256 164.7371,41.3266 C164.2341,40.9456 163.9751,40.7496 163.9751,40.7496 L163.9671,40.7436 C163.9671,40.7436 163.7131,40.5676 163.2201,40.2256 C162.7061,39.8846 161.9501,39.3856 160.9491,38.7816 C159.4581,37.8706 157.4121,36.7166 154.8431,35.4016 C154.9601,35.1786 155.1161,34.8836 155.2821,34.4866 C155.4601,34.0536 155.6471,33.5146 155.7941,32.8746 C155.9451,32.2326 156.0671,31.4916 156.0701,30.6616 C156.0831,30.2506 156.0721,29.8156 155.9821,29.3706 C155.9401,28.9216 155.7831,28.4696 155.6251,28.0146 C155.3261,27.0956 154.7791,26.2306 154.2191,25.3686 C153.9271,24.9436 153.5551,24.5696 153.2291,24.1466 C152.8381,23.7916 152.4421,23.4276 152.0421,23.0616 C151.5901,22.7526 151.1181,22.4426 150.6341,22.1346 C150.1621,21.8546 149.7121,21.7046 149.2481,21.4826 L148.9041,21.3296 L148.8181,21.2926 L148.7741,21.2746 L148.6791,21.2446 L148.6551,21.2366 L148.4601,21.1846 L147.6831,20.9776 C147.1661,20.8346 146.6491,20.6956 146.1031,20.6506 C145.0411,20.4816 143.9361,20.4716 142.8781,20.6396 C142.3491,20.7386 141.8161,20.7916 141.3191,20.9906 C141.0671,21.0716 140.8171,21.1516 140.5701,21.2316 C140.3351,21.3456 140.1041,21.4576 139.8741,21.5686 C138.9541,22.0156 138.2071,22.6596 137.6311,23.3206 C137.3461,23.6516 137.1261,24.0076 136.9051,24.3326 C136.7151,24.6736 136.5401,25.0006 136.4021,25.3156 C136.1311,25.9486 135.9691,26.5216 135.8741,26.9986 C135.8231,27.2636 135.7921,27.4896 135.7721,27.6936 C134.7931,27.4236 133.7951,27.1656 132.7601,26.9386 C131.1531,26.6096 129.4821,26.3286 127.7391,26.1486 C125.9951,25.9866 124.1761,25.9296 122.2951,26.0966 C120.4311,26.2516 118.4431,26.7146 116.6221,27.5486 C112.8821,29.3786 110.0371,32.2886 107.4301,35.4586 C104.8451,38.6536 102.5461,42.1836 100.3971,45.9136 C96.1091,53.3806 92.3941,61.6366 89.0261,70.3396 C87.3401,74.6946 85.7621,79.1706 84.3291,83.7586 C82.9071,88.3516 81.5941,93.0446 80.6591,97.9036 C80.4311,99.1196 80.2301,100.3476 80.0831,101.6006 C79.9451,102.8576 79.8321,104.1176 79.9341,105.4856 C80.0111,106.1716 80.0461,106.8866 80.5941,107.7686 C80.9571,108.2756 81.2641,108.7806 81.6741,109.2896 C82.0801,109.7936 82.4791,110.3266 82.8961,110.7986 L84.1531,112.2146 C87.6061,115.8646 91.3961,119.1726 95.4751,122.0886 C103.6211,127.8866 112.7901,132.4776 122.6221,134.2376 C131.8731,135.8956 141.3571,134.8936 149.8431,132.0506 C149.9641,132.0556 150.0881,132.0396 150.2021,131.9746 C150.2021,131.9746 150.2711,131.9336 150.3831,131.8646 C150.6501,131.7716 150.9191,131.6846 151.1831,131.5896 C153.3801,130.7446 155.5481,129.8676 157.5821,128.7356 C159.6181,127.6096 161.5781,126.3806 163.2821,124.6986 L163.5991,124.3816 C163.7671,124.2036 163.7911,124.1426 163.8961,124.0156 L164.1771,123.5726 L164.3931,123.1736 C164.6591,122.6436 164.8971,122.1206 165.1061,121.5936 C165.5341,120.5416 165.9031,119.4916 166.2481,118.4406 C166.5351,117.5736 166.7931,116.7096 167.0481,115.8436 C167.5641,115.5766 168.1931,115.1776 168.9551,114.6676 C169.3901,114.2986 169.8891,113.9026 170.4061,113.4416 C170.8731,112.9416 171.4441,112.4436 171.9401,111.8266 C172.9721,110.6176 173.9611,109.1296 174.8881,107.4356 C175.7771,105.7266 176.5961,103.8056 177.2071,101.7096 C177.8371,99.6196 178.3681,97.3936 178.8881,95.0936 C179.4191,92.7976 179.8851,90.4086 180.3111,87.9686 L180.3111,87.9686 Z" id="Fill-80" fill="#000000"></path>
            <path d="M140.0318,108.2532 C139.8658,108.8752 139.6758,109.4902 139.4808,110.1042 C139.2958,110.7192 139.1078,111.3312 138.8898,111.9282 C138.4878,113.1362 138.0108,114.2982 137.5138,115.4022 C137.0208,116.5112 136.4208,117.5242 135.8548,118.4722 C135.2518,119.4012 134.7808,120.3192 134.2018,120.8732 C133.6928,121.3762 133.0668,121.7062 132.4658,121.9432 C132.9788,121.3582 133.3958,120.7492 133.7918,120.1392 C134.8868,118.4102 135.7238,116.6682 136.4338,114.9612 C137.8258,111.5372 138.7748,108.3042 139.4218,105.3922 C140.0698,102.4812 140.4708,99.9042 140.6288,97.7522 C140.7218,96.6612 140.7528,95.6832 140.7328,94.8242 L140.8448,95.0452 L140.9518,95.4062 C141.0268,95.6492 141.0958,95.8992 141.1828,96.1472 L141.2468,96.3352 L141.2618,96.3842 L141.2638,96.3882 L141.2738,96.4442 L141.3318,96.8142 C141.3758,97.0632 141.4178,97.3152 141.4608,97.5712 C141.5998,98.6092 141.6268,99.7442 141.5268,100.9232 C141.4278,102.1002 141.2368,103.3182 140.9718,104.5462 C140.7238,105.7792 140.3888,107.0202 140.0318,108.2532 M122.2098,121.6472 C120.1208,121.1812 118.0128,120.5202 115.8888,119.7912 C111.6608,118.2762 107.3858,116.4012 103.1808,114.2452 C101.0758,113.1722 98.9808,112.0392 96.9268,110.8332 C94.8888,109.6202 92.8298,108.3492 91.0558,106.8992 C90.6178,106.5612 90.1828,106.0982 89.9898,105.8942 C89.9228,105.8212 89.8378,105.6502 89.7608,105.5362 L89.7588,105.5322 L89.7388,105.4782 L89.6868,105.3242 C89.6188,105.1142 89.5648,104.8692 89.5298,104.6152 C89.3868,103.5812 89.4398,102.4242 89.5628,101.2832 C89.8298,98.9912 90.3768,96.7002 91.0408,94.4742 C91.8668,91.7932 92.8698,89.1662 94.0868,86.7272 C94.2738,86.8642 94.4798,87.0112 94.7118,87.1762 C95.8258,87.9552 97.4618,88.9852 99.5008,90.0832 C101.5358,91.1892 104.0588,92.1752 106.6888,93.3762 C108.0098,93.9662 109.3578,94.6072 110.7568,95.1982 C112.1538,95.7962 113.5608,96.4272 115.0058,96.9762 C115.7288,97.2482 116.4458,97.5352 117.1708,97.7952 C117.8968,98.0472 118.6228,98.2952 119.3418,98.5432 C120.7718,99.0532 122.1928,99.5262 123.5458,100.0402 C124.8918,100.5652 126.1898,101.1042 127.4208,101.6232 C128.6378,102.1742 129.8568,102.5312 130.9748,102.8662 C132.0868,103.2132 133.1538,103.3972 134.0838,103.5932 C134.5518,103.6812 134.9888,103.7642 135.3948,103.8402 C135.8068,103.8932 136.1898,103.9212 136.5318,103.9572 C137.1058,104.0032 137.5718,104.0352 137.9258,104.0582 C137.8458,104.3572 137.7748,104.6472 137.6898,104.9532 C136.8768,107.7402 135.8728,110.8712 134.4748,114.1392 C133.7708,115.7632 133.0268,117.4622 132.0468,119.0422 C131.5628,119.8242 131.0158,120.6132 130.4248,121.2152 L130.2308,121.3992 C130.1768,121.4592 130.1028,121.5272 129.9848,121.6022 L129.6928,121.8022 L129.6668,121.8132 L129.5988,121.8402 L129.4698,121.8952 L129.2088,122.0142 C129.1128,122.0462 129.0018,122.0632 128.8988,122.0882 C128.6878,122.1322 128.4878,122.2022 128.2488,122.2092 C126.3978,122.4222 124.2868,122.0922 122.2098,121.6472 M96.7618,82.2302 C97.3878,81.3552 98.0828,80.5562 98.8278,79.8732 C99.2258,79.5122 99.4798,79.2902 99.9868,78.9532 L100.1588,78.8392 L100.2428,78.7812 C100.2998,78.7442 100.2168,78.7982 100.2378,78.7882 L100.2758,78.7682 L100.5758,78.6212 C100.7738,78.5252 100.9608,78.4082 101.1878,78.3522 C102.9178,77.7262 104.9728,77.7562 106.9148,77.9792 C108.8728,78.2092 110.7858,78.6442 112.6138,79.1572 C114.4438,79.6722 116.2098,80.2272 117.8778,80.8462 C121.2178,82.0762 124.2468,83.3352 126.9168,84.5012 C129.5858,85.6722 131.8588,86.8132 133.6848,87.8252 C135.5068,88.8432 136.8728,89.7502 137.7098,90.4342 C137.8538,90.5582 137.9728,90.6612 138.0928,90.7642 C138.1808,90.8702 138.2618,90.9672 138.3628,91.0862 C138.5168,91.2812 138.6918,91.4982 138.8748,91.7282 C138.8878,91.7602 138.8958,91.7742 138.9118,91.8122 C138.9698,91.9142 139.0098,92.0732 139.0628,92.2572 C139.1268,92.4352 139.1758,92.6572 139.2188,92.9142 C139.4268,93.9382 139.4608,95.5612 139.2268,97.6152 C139.0478,99.0752 138.7368,100.7642 138.2938,102.6172 C137.9498,102.5242 137.4558,102.3942 136.8298,102.2382 C136.5098,102.1642 136.1568,102.0812 135.7708,101.9922 C135.3868,101.8812 134.9728,101.7612 134.5308,101.6342 C133.6428,101.3802 132.6358,101.1602 131.5518,100.8082 C130.4668,100.4652 129.2598,100.2182 127.9928,99.8752 C126.7278,99.5322 125.3648,99.2462 124.0288,98.7232 C122.6838,98.2312 121.3098,97.6802 119.9468,97.0292 C118.5768,96.4072 117.1998,95.7402 115.8178,95.0842 C114.4308,94.4412 113.0448,93.7972 111.6788,93.1642 C110.3118,92.5372 108.9828,91.8782 107.6898,91.2612 C105.1148,89.9962 102.8158,88.6072 100.7388,87.6342 C98.6688,86.6472 96.8988,85.9082 95.6418,85.4232 C95.3738,85.3222 95.1358,85.2342 94.9158,85.1562 C95.4878,84.1362 96.0988,83.1542 96.7618,82.2302 M143.2018,97.3952 C143.1678,97.0962 143.1358,96.8042 143.1038,96.5132 L143.0498,96.0802 L143.0378,95.9742 L142.9898,95.8002 L142.9348,95.6082 C142.8668,95.3552 142.7828,95.1102 142.7058,94.8672 L142.5908,94.5102 L142.4088,94.1282 C141.9348,93.0802 141.3628,92.3202 140.8308,91.6722 C140.4598,91.2362 140.0938,90.8792 139.7558,90.5682 C139.7198,90.5182 139.6918,90.4772 139.6398,90.4042 C139.5188,90.2722 139.3668,90.1062 139.1858,89.9092 C139.0148,89.7542 138.8168,89.5732 138.5918,89.3692 C137.6858,88.6042 136.3208,87.6122 134.5318,86.4332 C132.7518,85.2432 130.5368,83.8932 127.9218,82.4632 C125.3168,81.0212 122.2758,79.5622 118.8208,78.2822 C115.3718,76.9962 111.5198,75.8002 107.1798,75.3622 C105.0218,75.1822 102.6818,75.1332 100.2978,76.0392 C100.0008,76.1312 99.7158,76.2992 99.4258,76.4502 L98.9968,76.6842 L98.9418,76.7142 C98.9308,76.7152 98.8228,76.7902 98.8478,76.7732 L98.7648,76.8332 L98.5978,76.9542 C98.1898,77.2292 97.5928,77.7242 97.1858,78.1262 C96.3138,78.9722 95.5548,79.8962 94.8638,80.8602 C92.1378,84.7472 90.2888,89.1932 88.8988,93.8402 C88.2278,96.1722 87.6778,98.5662 87.4148,101.0582 C87.2968,102.3072 87.2358,103.5772 87.4318,104.9382 C87.4828,105.2772 87.5578,105.6262 87.6798,105.9872 L87.7778,106.2612 L87.8278,106.3972 C87.8238,106.3962 87.9588,106.6482 87.9158,106.5632 L87.9458,106.6092 C88.0358,106.7462 88.0828,106.8512 88.2098,107.0082 C88.4768,107.3362 88.7868,107.6752 89.0168,107.8612 C89.2638,108.0892 89.5138,108.3012 89.7658,108.4892 C91.7828,110.0382 93.8918,111.2432 96.0168,112.4322 C98.1468,113.6002 100.3028,114.6852 102.4628,115.7092 C106.7908,117.7402 111.1188,119.5892 115.4158,121.1212 C117.5578,121.9072 119.7018,122.5952 121.8458,123.1552 C123.9968,123.7052 126.1388,124.1892 128.4398,124.0412 C128.7218,124.0412 129.0228,123.9682 129.3168,123.9142 C129.4648,123.8852 129.6098,123.8632 129.7588,123.8222 L130.0148,123.7282 C130.1528,123.7232 130.2978,123.7172 130.4518,123.7072 C131.0468,123.6572 131.7718,123.5632 132.5958,123.3272 C133.4048,123.0702 134.3378,122.6762 135.1718,121.9122 C136.0188,121.1102 136.4448,120.0522 136.9378,119.0462 C137.4138,118.0142 137.8658,116.9102 138.3668,115.7902 C138.8848,114.6732 139.3878,113.5092 139.9048,112.3202 C140.4198,111.1352 140.9258,109.9172 141.3388,108.6642 C141.5648,108.0442 141.7578,107.4122 141.9288,106.7762 C142.1088,106.1412 142.2938,105.5112 142.4248,104.8692 C142.7308,103.6002 142.9488,102.3202 143.0818,101.0702 C143.2238,99.8172 143.2708,98.5832 143.2018,97.3952" id="Fill-82" fill="#000000"></path>
        </g>
    </g>
</svg>