<?xml version="1.0" encoding="UTF-8"?>
<svg width="89px" height="118px" viewBox="0 0 89 118" version="1.1" xmlns="http://www.w3.org/2000/svg" xmlns:xlink="http://www.w3.org/1999/xlink">
    <!-- Generator: Sketch 53.1 (72631) - https://sketchapp.com -->
    <title>Group 90sticker8</title>
    <desc>Created with Sketch.</desc>
    <g id="Page-1" stroke="none" stroke-width="1" fill="none" fill-rule="evenodd">
        <g id="Group-90">
            <path d="M40.6529672,57.4470773 L40.9859672,57.8830773 C40.4289672,58.2780773 39.9489672,58.7930773 39.5899672,59.3840773 C39.9499672,58.7410773 40.3019672,58.0950773 40.6529672,57.4470773 M51.0459672,107.889077 C51.5889672,107.731077 52.1329672,107.533077 52.6749672,107.307077 C52.7309672,107.358077 52.7859672,107.410077 52.8419672,107.460077 C52.2079672,107.703077 51.5489672,107.902077 50.8749672,108.059077 C50.9309672,108.002077 50.9909672,107.948077 51.0459672,107.889077 M87.8779672,64.7740773 C89.0029672,57.8910773 84.8049672,51.6850773 79.8479672,47.3570773 C74.5939672,42.7700773 68.1639672,39.6970773 63.0919672,34.9050773 C58.3639672,30.4380773 54.8149672,24.6440773 48.4489672,22.5780773 C48.1559672,19.3380773 47.3199672,16.1050773 45.9459672,12.9330773 C45.0319672,10.8240773 41.7549672,10.1900773 39.9499672,11.3610773 C37.6599672,12.8460773 35.6739672,14.5870773 33.9009672,16.5040773 C32.1699672,11.5850773 30.1289672,6.77407726 27.7889672,2.08407726 C26.1859672,-1.12692274 20.5369672,-0.507922737 19.8679672,3.11907726 C18.5129672,10.4760773 17.7659672,17.9530773 17.4459672,25.4330773 C15.0049672,26.5790773 12.7349672,28.0530773 10.8189672,29.6580773 C6.87196724,32.9640773 2.30796724,41.5890773 8.44996724,44.7770773 C6.11496724,48.2810773 4.20996724,52.0920773 2.79996724,56.1630773 C0.0139672442,64.2100773 -2.52603276,77.7110773 4.76096724,84.1980773 C13.6949672,92.1500773 24.0689672,82.0150773 29.5659672,74.8410773 C28.6619672,80.8720773 26.8939672,86.7280773 26.0439672,92.7600773 C24.5129672,103.618077 29.2609672,113.408077 40.3079672,116.309077 C48.2939672,118.406077 58.7279672,116.597077 64.2389672,110.048077 C73.1949672,112.811077 82.5699672,105.579077 84.9629672,96.6160773 C87.1199672,88.5410773 85.3679672,79.9250773 81.3019672,72.6890773 C84.5919672,71.5610773 87.1879672,68.9950773 87.8779672,64.7740773" id="Fill-84" fill="#FFFFFF"></path>
            <path d="M74.6470672,53.6570773 C78.1790672,56.8110773 82.4550672,61.4060773 80.9040672,66.6070773 C79.6850672,70.6670773 76.3230672,70.7520773 73.2270672,69.5660773 C75.3050672,72.9930773 77.3060672,77.1970773 78.5840672,81.5310773 L76.7400672,82.0200773 C75.0780672,76.4020773 71.9950672,70.9800773 69.2180672,67.2000773 C68.4430672,66.1510773 70.1960672,65.1470773 70.9650672,66.1770773 C71.0500672,66.3010773 71.1410672,66.4240773 71.2320672,66.5480773 C74.2240672,68.2620773 79.3270672,69.5850773 79.1050672,64.2150773 C79.0070672,61.7250773 77.5150672,59.5620773 75.9120672,57.7820773 C73.1420672,54.7130773 69.7470672,52.2170773 66.8340672,49.2840773 C63.4180672,45.8490773 60.2310672,42.1930773 56.9200672,38.6610773 C53.5770672,35.1020773 49.8690672,30.9380773 44.6880672,30.5400773 L44.8110672,29.1910773 C51.0940672,29.2240773 55.4740672,34.3330773 59.4820672,38.5700773 C64.4160672,43.7830773 69.2910672,48.8800773 74.6470672,53.6570773" id="Fill-86" fill="#1C1C1B"></path>
            <path d="M79.1050672,64.2146773 C79.3270672,69.5856773 74.2240672,68.2616773 71.2320672,66.5476773 C71.1410672,66.4236773 71.0500672,66.3006773 70.9650672,66.1766773 C70.1960672,65.1466773 68.4430672,66.1506773 69.2180672,67.1996773 C71.9950672,70.9796773 75.0780672,76.4026773 76.7400672,82.0196773 C78.6880672,88.6216773 78.6680672,95.4786773 73.8390672,100.235677 C69.0940672,104.908677 62.5120672,103.467677 58.9480672,98.2216773 C55.1540672,92.6496773 56.1380672,85.4286773 56.9990672,79.1396773 C57.1810672,77.8356773 55.3560672,77.2296773 54.9650672,78.5786773 C54.2610672,80.9706773 51.1460672,80.8276773 49.5880672,79.4916773 C48.2650672,78.3636773 47.6720672,76.4936773 47.2620672,74.8706773 C46.4340672,71.5596773 46.1410672,68.0726773 46.1220672,64.6646773 C46.0880672,57.5086773 47.6330672,50.4506773 50.5270672,43.9136773 C50.9120672,43.0336773 49.7970672,41.8936773 49.0610672,42.7796773 C48.0310672,44.0176773 44.6030672,47.9996773 43.0720672,44.0506773 C42.4980672,42.5706773 43.2670672,40.2056773 43.4820672,38.7386773 C43.8670672,36.1256773 44.1470672,33.5056773 44.4200672,30.8726773 C44.4330672,30.7426773 44.4470672,30.6186773 44.4590672,30.4876773 C44.5110672,30.5076773 44.5570672,30.5266773 44.6160672,30.5336773 C44.6420672,30.5336773 44.6620672,30.5406773 44.6880672,30.5406773 C49.8690672,30.9376773 53.5770672,35.1026773 56.9200672,38.6606773 C60.2310672,42.1936773 63.4180672,45.8496773 66.8340672,49.2836773 C69.7470672,52.2166773 73.1420672,54.7126773 75.9120672,57.7826773 C77.5150672,59.5616773 79.0070672,61.7256773 79.1050672,64.2146773" id="Fill-88" fill="#DF51CD"></path>
            <path d="M78.5835672,81.5310773 C81.1775672,90.2900773 80.8255672,99.5770773 72.2885672,104.048077 C69.1015672,105.717077 65.7255672,105.599077 62.7795672,104.257077 C55.3505672,113.362077 39.4545672,115.199077 31.8355672,105.182077 C27.6385672,99.6690773 28.2765672,92.4080773 29.9715672,86.0870773 C31.9985672,78.5070773 35.6745672,71.2540773 34.8725672,63.3280773 L36.3645672,63.0740773 C39.3625672,74.7530773 29.2805672,85.8720773 31.2035672,97.7590773 C33.5495672,112.299077 52.5735672,112.273077 60.7275672,103.077077 C59.5795672,102.262077 58.5365672,101.246077 57.6445672,100.066077 C53.7145672,94.8590773 53.7985672,88.3020773 54.5155672,82.0720773 C53.3495672,82.6390773 51.9405672,82.7690773 50.5795672,82.4050773 C46.9625672,81.4400773 45.6005672,77.3540773 44.9545672,74.1010773 C43.1305672,64.9060773 44.1525672,55.3770773 47.3985672,46.6440773 C45.3395672,47.8700773 42.9795672,48.2090773 41.6505672,45.5040773 C40.8295672,43.8480773 41.2145672,41.8410773 41.4875672,40.1010773 C41.9895672,36.9600773 42.6285672,33.8640773 43.2865672,30.7550773 L44.4205672,30.8730773 C44.1465672,33.5060773 43.8665672,36.1260773 43.4815672,38.7390773 C43.2675672,40.2050773 42.4975672,42.5710773 43.0715672,44.0510773 C44.6035672,48.0000773 48.0305672,44.0180773 49.0615672,42.7800773 C49.7975672,41.8930773 50.9115672,43.0340773 50.5265672,43.9140773 C47.6335672,50.4500773 46.0885672,57.5090773 46.1215672,64.6640773 C46.1415672,68.0730773 46.4345672,71.5600773 47.2625672,74.8700773 C47.6725672,76.4930773 48.2655672,78.3640773 49.5885672,79.4910773 C51.1465672,80.8270773 54.2615672,80.9710773 54.9655672,78.5790773 C55.3555672,77.2300773 57.1815672,77.8360773 56.9985672,79.1390773 C56.1385672,85.4280773 55.1535672,92.6500773 58.9475672,98.2220773 C62.5125672,103.468077 69.0945672,104.908077 73.8395672,100.236077 C78.6685672,95.4780773 78.6875672,88.6220773 76.7395672,82.0200773 L78.5835672,81.5310773 Z" id="Fill-90" fill="#1C1C1B"></path>
            <path d="M8.84926724,72.6872773 C9.20226724,71.5532773 9.02526724,70.0352773 8.44526724,69.0112773 C7.94426724,68.1122773 6.66026724,68.7382773 6.84826724,69.6832773 C6.95326724,70.1912773 7.12826724,70.6732773 7.23326724,71.1822773 C7.33726724,71.6772773 7.33726724,72.1852773 7.41526724,72.6872773 C7.54526724,73.4502773 8.64726724,73.3322773 8.84926724,72.6872773 M15.2942672,73.6192773 C15.9082672,73.8342773 16.2592672,73.0332773 15.9012672,72.6092773 C15.8882672,72.5242773 15.8622672,72.4462773 15.8162672,72.3742773 C15.7772672,72.2962773 15.7122672,72.2312773 15.6732672,72.1522773 C15.5882672,71.9902773 15.5302672,71.8072773 15.5102672,71.6312773 C15.4522672,71.0902773 15.7712672,70.6732773 15.6402672,70.1192773 C15.4842672,69.4872773 14.7932672,69.3242773 14.2722672,69.5592773 C13.3982672,69.9632773 13.4172672,71.2402773 13.6722672,72.0162773 C13.7952672,72.4002773 14.0042672,72.7522773 14.2782672,73.0522773 C14.5842672,73.3972773 14.8842672,73.4762773 15.2942672,73.6192773 M24.2822672,55.4102773 C25.3192672,54.8232773 25.8782672,53.5072773 25.5072672,52.3662773 C25.2202672,51.4732773 24.3542672,50.8802773 23.4412672,50.8022773 C23.3242672,50.6522773 23.1622672,50.5412773 22.9532672,50.5162773 C21.8512672,50.4052773 20.8472672,51.2062773 20.4372672,52.1972773 C20.0132672,53.2332773 20.3392672,54.3672773 21.2002672,55.0712773 C22.0602672,55.7752773 23.2912672,55.9772773 24.2822672,55.4102773 M41.0512672,28.5912773 C42.0612672,26.2652773 42.1852672,23.5862773 41.6702672,21.1162773 C41.5662672,20.6402773 40.9402672,20.4062773 40.5422672,20.6602773 C38.4632672,21.9772773 36.8212672,24.4202773 37.3232672,26.9622773 C37.3292672,27.0142773 37.3562672,27.0532773 37.3752672,27.0862773 C37.6952672,28.1682773 38.8742672,29.0022773 39.9952672,28.8192773 C40.3472672,29.0542773 40.8492672,29.0672773 41.0512672,28.5912773 M57.6442672,100.066277 C58.5372672,101.246277 59.5792672,102.262277 60.7272672,103.077277 C52.5742672,112.273277 33.5492672,112.299277 31.2032672,97.7592773 C29.2812672,85.8722773 39.3632672,74.7532773 36.3652672,63.0742773 C36.2352672,62.5592773 36.0782672,62.0512773 35.8962672,61.5362773 C38.0532672,57.6322773 39.7282672,53.7412773 40.8622672,50.5812773 C41.3572672,49.1922773 39.2192672,48.6652773 38.6852672,49.9812773 C36.1692672,56.2182773 33.1132672,62.1162773 29.0462672,67.4932773 C24.9792672,72.8762773 19.2702672,78.2982773 11.9972672,77.8232773 C7.64426724,77.5362773 4.47626724,75.0722773 4.42426724,70.5882773 C4.38526724,67.3232773 4.92626724,63.9932773 5.74726724,60.8452773 C7.24026724,55.1042773 9.97726724,49.6872773 13.5552672,44.9372773 C14.0632672,44.2592773 14.5912672,43.6012773 15.1322672,42.9492773 C15.1972672,42.8712773 15.2362672,42.7862773 15.2622672,42.7012773 C15.3212672,42.6882773 15.3732672,42.6822773 15.4252672,42.6682773 C17.6022672,42.1272773 19.6422672,40.8052773 21.2582672,39.0842773 C21.2652672,39.3452773 21.2972672,39.6052773 21.3562672,39.8732773 C21.7142672,41.5482773 23.0632672,43.1512773 24.8292672,43.3792773 C27.8672672,43.7762773 29.9392672,39.9902773 30.5902672,36.7962773 C31.3602672,37.5142773 32.6242672,37.7542773 33.7062672,37.0962773 C36.5352672,35.3892773 35.4922672,31.3092773 35.0232672,28.5202773 C35.2772672,28.6042773 35.6032672,28.4742773 35.5702672,28.1552773 C35.5432672,27.8942773 35.5242672,27.6332773 35.5182672,27.3792773 C35.4922672,26.6692773 35.5502672,25.9842773 35.6812672,25.3202773 C36.2612672,22.2112773 38.2942672,19.5322773 40.4122672,17.1212773 C42.9532672,21.1232773 43.3452672,25.2152773 42.8432672,29.9992773 C42.7972672,30.3842773 43.0062672,30.6382773 43.2872672,30.7552773 C42.6282672,33.8642773 41.9902672,36.9592773 41.4882672,40.1012773 C41.2142672,41.8412773 40.8292672,43.8482773 41.6512672,45.5032773 C42.9802672,48.2082773 45.3392672,47.8702773 47.3992672,46.6442773 C44.1532672,55.3772773 43.1302672,64.9052773 44.9542672,74.1012773 C45.6002672,77.3542773 46.9622672,81.4392773 50.5792672,82.4042773 C51.9412672,82.7692773 53.3492672,82.6392773 54.5152672,82.0722773 C53.7982672,88.3022773 53.7142672,94.8592773 57.6442672,100.066277" id="Fill-92" fill="#FFF8DC"></path>
            <path d="M41.2984672,15.1789773 C44.2054672,19.0369773 45.8664672,24.3619773 44.8114672,29.1909773 L44.6884672,30.5399773 C44.6614672,30.5399773 44.6424672,30.5339773 44.6154672,30.5339773 C44.5574672,30.5269773 44.5114672,30.5079773 44.4594672,30.4879773 C44.4464672,30.6179773 44.4334672,30.7419773 44.4204672,30.8729773 L43.2864672,30.7549773 C43.0064672,30.6379773 42.7974672,30.3839773 42.8434672,29.9989773 C43.3454672,25.2159773 42.9534672,21.1229773 40.4124672,17.1209773 C38.2944672,19.5329773 36.2614672,22.2109773 35.6814672,25.3199773 L34.4094672,25.1829773 C34.6314672,21.3249773 37.2774672,17.9689773 39.8584672,14.9969773 C40.2884672,14.5079773 40.9734672,14.7489773 41.2984672,15.1789773" id="Fill-94" fill="#1C1C1B"></path>
            <path d="M39.7603672,27.5945773 C40.1843672,25.9325773 40.4183672,24.3685773 40.3153672,22.6995773 C39.1283672,23.7235773 38.5293672,25.0855773 38.0853672,26.6565773 C38.3993672,27.3015773 39.0573672,27.6395773 39.7603672,27.5945773 M41.6703672,21.1165773 C42.1853672,23.5865773 42.0613672,26.2645773 41.0513672,28.5915773 C40.8493672,29.0675773 40.3473672,29.0545773 39.9953672,28.8195773 C38.8743672,29.0025773 37.6953672,28.1685773 37.3753672,27.0865773 C37.3563672,27.0535773 37.3293672,27.0145773 37.3223672,26.9625773 C36.8213672,24.4205773 38.4633672,21.9765773 40.5423672,20.6595773 C40.9403672,20.4065773 41.5663672,20.6405773 41.6703672,21.1165773" id="Fill-96" fill="#1C1C1B"></path>
            <path d="M38.6851672,49.9812773 C39.2191672,48.6652773 41.3571672,49.1922773 40.8621672,50.5812773 C39.7281672,53.7412773 38.0531672,57.6322773 35.8961672,61.5362773 C36.0791672,62.0512773 36.2351672,62.5592773 36.3651672,63.0742773 L34.8721672,63.3282773 C28.8831672,73.4762773 19.7331672,83.0232773 8.66116724,79.4782773 C0.963167244,77.0212773 1.69416724,69.4482773 3.04216724,62.8662773 C4.50216724,55.7232773 7.74216724,49.2312773 12.5381672,43.8352773 L13.5551672,44.9372773 C9.97716724,49.6882773 7.24016724,55.1042773 5.74716724,60.8452773 C4.92616724,63.9932773 4.38516724,67.3232773 4.42416724,70.5882773 C4.47616724,75.0722773 7.64416724,77.5362773 11.9981672,77.8232773 C19.2701672,78.2982773 24.9791672,72.8762773 29.0461672,67.4932773 C33.1131672,62.1162773 36.1691672,56.2182773 38.6851672,49.9812773" id="Fill-98" fill="#1C1C1B"></path>
            <path d="M40.3150672,22.6999773 C40.4190672,24.3679773 40.1840672,25.9319773 39.7600672,27.5949773 C39.0570672,27.6399773 38.3990672,27.3009773 38.0860672,26.6559773 C38.5290672,25.0849773 39.1280672,23.7229773 40.3150672,22.6999773" id="Fill-100" fill="#FCCE00"></path>
            <path d="M28.0103672,14.9836773 C28.0553672,14.8206773 28.1593672,14.7096773 28.2903672,14.6446773 C27.3973672,12.5266773 26.4913672,10.4146773 25.5593672,8.30967726 C25.6443672,11.7636773 25.6773672,15.2446773 25.6183672,18.7116773 C26.1653672,18.3656773 26.6553672,17.9426773 27.0383672,17.4076773 C27.5733672,16.6586773 27.7623672,15.8436773 28.0103672,14.9836773 M34.4093672,25.1836773 L35.6813672,25.3196773 C35.5503672,25.9846773 35.4913672,26.6696773 35.5183672,27.3796773 L34.5533672,27.4056773 C34.5013672,27.1116773 34.4553672,26.8256773 34.4293672,26.5386773 C34.0453672,26.8316773 33.3413672,26.7666773 33.0933672,26.1806773 C32.5593672,24.8836773 32.0253672,23.5926773 31.4843672,22.3026773 C31.3793672,22.4846773 31.2753672,22.6676773 31.1573672,22.8496773 L29.9263672,22.5566773 C30.1873672,22.1716773 30.4143672,21.7676773 30.6233672,21.3376773 C30.7013672,21.1686773 30.8253672,21.0776773 30.9623672,21.0446773 C30.2903672,19.4286773 29.6193672,17.8126773 28.9423672,16.2026773 C28.4073672,17.7206773 27.0583672,18.9716773 25.5983672,19.5976773 C25.5463672,21.7616773 25.4553672,23.9186773 25.2983672,26.0696773 L24.0283672,26.1606773 C23.4543672,18.8676773 23.5843672,11.3926773 23.7613672,4.08667726 C23.7813672,3.31167726 24.9733672,2.84867726 25.3373672,3.65667726 C28.5253672,10.7546773 31.6723672,17.9036773 34.4093672,25.1836773" id="Fill-102" fill="#1C1C1B"></path>
            <path d="M33.8238672,34.4573773 C34.0248672,33.7923773 33.9798672,33.0753773 33.9218672,32.3913773 C33.7978672,31.0613773 33.5368672,29.7323773 33.3418672,28.4093773 C33.2298672,28.4803773 33.0938672,28.5203773 32.9298672,28.4873773 C25.6438672,27.0143773 20.2348672,29.2373773 14.9238672,34.3133773 C13.8608672,35.3243773 12.4468672,36.5753773 12.0758672,38.0413773 C11.1178672,41.8083773 15.3868672,41.4573773 17.4848672,40.3033773 C19.4718672,39.2083773 20.8668672,37.6893773 22.0078672,35.9103773 C22.2948672,35.3173773 22.6398672,34.7503773 22.9988672,34.2163773 C23.1408672,33.9553773 23.2788672,33.6883773 23.4088672,33.4213773 C23.5528672,33.1343773 23.8588672,33.1273773 24.0798672,33.2583773 C24.1588672,33.2903773 24.2228672,33.3493773 24.2688672,33.4343773 C24.2758672,33.4473773 24.2818672,33.4533773 24.2888672,33.4663773 C24.2958672,33.4793773 24.2958672,33.4923773 24.3018672,33.5053773 C24.3408672,33.5973773 24.3538672,33.6943773 24.3208672,33.8053773 C24.0348672,34.8353773 23.5788672,35.8523773 22.9918672,36.8163773 C22.8158672,37.3903773 22.6988672,37.9833773 22.6918672,38.5823773 C22.6728672,40.1863773 24.1588672,42.5773773 26.0678672,41.5743773 C27.2938672,40.9293773 28.1338672,38.8753773 28.5568672,37.6643773 C28.9688672,36.4773773 29.0528672,35.2523773 29.3918672,34.0593773 C29.5678672,33.4403773 30.6558672,33.3303773 30.7608672,34.0463773 C30.9698672,34.1573773 31.1258672,34.3793773 31.0528672,34.6333773 C31.9528672,36.1973773 32.7668672,36.3793773 33.4978672,35.1743773 C33.6078672,34.9333773 33.7128672,34.6913773 33.8238672,34.4573773 M35.5698672,28.1553773 C35.6028672,28.4743773 35.2768672,28.6043773 35.0228672,28.5203773 C35.4918672,31.3093773 36.5348672,35.3893773 33.7068672,37.0963773 C32.6248672,37.7543773 31.3598672,37.5143773 30.5908672,36.7963773 C29.9388672,39.9903773 27.8668672,43.7763773 24.8298672,43.3793773 C23.0628672,43.1513773 21.7148672,41.5483773 21.3558672,39.8733773 C21.2978672,39.6053773 21.2648672,39.3453773 21.2588672,39.0843773 C19.6418672,40.8053773 17.6018672,42.1273773 15.4258672,42.6683773 C15.3738672,42.6823773 15.3208672,42.6883773 15.2618672,42.7013773 C15.2358672,42.7863773 15.1968672,42.8713773 15.1328672,42.9493773 C14.5918672,43.6013773 14.0628672,44.2593773 13.5548672,44.9363773 L12.5378672,43.8353773 C12.8638672,43.4773773 13.1898672,43.1253773 13.5218672,42.7733773 C11.2608672,42.4543773 9.73586724,40.4333773 10.2188672,37.7873773 C10.9738672,33.6293773 16.2078672,29.9933773 19.6418672,28.1033773 C20.9658672,27.3733773 22.4768672,26.7603773 24.0408672,26.3563773 C24.0348672,26.2913773 24.0278672,26.2263773 24.0278672,26.1603773 L25.2988672,26.0693773 C27.2278672,25.3923773 28.8178672,24.2123773 29.9268672,22.5563773 L31.1578672,22.8503773 C30.3628672,24.0953773 29.2808672,25.1443773 28.0108672,25.8873773 C29.9068672,25.9393773 31.7508672,26.4213773 33.3218672,27.5553773 C33.3998672,27.6073773 33.4458672,27.6723773 33.4848672,27.7383773 C33.7318672,27.3993773 34.2148672,27.2553773 34.5528672,27.4053773 L35.5178672,27.3793773 C35.5238672,27.6333773 35.5438672,27.8943773 35.5698672,28.1553773" id="Fill-104" fill="#1C1C1B"></path>
            <path d="M34.4292672,26.5388773 C34.4552672,26.8258773 34.5012672,27.1118773 34.5532672,27.4058773 C34.2142672,27.2558773 33.7322672,27.3988773 33.4852672,27.7378773 C33.4462672,27.6728773 33.4002672,27.6078773 33.3222672,27.5558773 C31.7502672,26.4208773 29.9072672,25.9388773 28.0102672,25.8868773 C29.2812672,25.1438773 30.3632672,24.0948773 31.1582672,22.8498773 C31.2752672,22.6668773 31.3792672,22.4848773 31.4842672,22.3028773 C32.0252672,23.5928773 32.5592672,24.8838773 33.0932672,26.1808773 C33.3412672,26.7668773 34.0452672,26.8318773 34.4292672,26.5388773" id="Fill-106" fill="#FCCE00"></path>
            <path d="M33.9214672,32.3913773 C33.9804672,33.0753773 34.0254672,33.7923773 33.8234672,34.4573773 C33.7124672,34.6913773 33.6084672,34.9333773 33.4974672,35.1743773 C32.7674672,36.3793773 31.9524672,36.1973773 31.0534672,34.6333773 C31.1254672,34.3793773 30.9694672,34.1573773 30.7604672,34.0463773 C30.6554672,33.3293773 29.5674672,33.4403773 29.3924672,34.0593773 C29.0534672,35.2523773 28.9684672,36.4773773 28.5574672,37.6633773 C28.1334672,38.8753773 27.2934672,40.9293773 26.0674672,41.5743773 C24.1584672,42.5773773 22.6724672,40.1853773 22.6924672,38.5823773 C22.6984672,37.9833773 22.8164672,37.3903773 22.9914672,36.8163773 C23.5784672,35.8513773 24.0344672,34.8353773 24.3204672,33.8053773 C24.3544672,33.6943773 24.3404672,33.5973773 24.3014672,33.5053773 C24.2954672,33.4923773 24.2954672,33.4793773 24.2884672,33.4663773 C24.2814672,33.4533773 24.2754672,33.4473773 24.2694672,33.4333773 C24.2234672,33.3493773 24.1584672,33.2903773 24.0794672,33.2583773 C23.8584672,33.1273773 23.5524672,33.1343773 23.4084672,33.4213773 C23.2784672,33.6883773 23.1414672,33.9553773 22.9984672,34.2163773 C22.6404672,34.7503773 22.2944672,35.3173773 22.0074672,35.9103773 C20.8664672,37.6893773 19.4724672,39.2083773 17.4844672,40.3033773 C15.3864672,41.4563773 11.1174672,41.8083773 12.0754672,38.0413773 C12.4464672,36.5753773 13.8604672,35.3243773 14.9234672,34.3133773 C20.2344672,29.2373773 25.6444672,27.0143773 32.9304672,28.4873773 C33.0934672,28.5193773 33.2304672,28.4803773 33.3414672,28.4093773 C33.5364672,29.7323773 33.7974672,31.0613773 33.9214672,32.3913773" id="Fill-108" fill="#DF51CD"></path>
            <path d="M28.9419672,16.2024773 C29.6199672,17.8124773 30.2909672,19.4284773 30.9629672,21.0444773 C30.8259672,21.0774773 30.7019672,21.1684773 30.6239672,21.3384773 C30.4149672,21.7674773 30.1869672,22.1724773 29.9259672,22.5564773 C28.8179672,24.2124773 27.2279672,25.3914773 25.2979672,26.0694773 C25.4559672,23.9184773 25.5459672,21.7614773 25.5979672,19.5984773 C27.0579672,18.9724773 28.4079672,17.7214773 28.9419672,16.2024773" id="Fill-110" fill="#FCCE00"></path>
            <path d="M28.2906672,14.6448773 C28.1596672,14.7098773 28.0556672,14.8208773 28.0106672,14.9838773 C27.7626672,15.8438773 27.5736672,16.6588773 27.0386672,17.4078773 C26.6546672,17.9428773 26.1656672,18.3658773 25.6186672,18.7118773 C25.6776672,15.2448773 25.6446672,11.7638773 25.5596672,8.30987726 C26.4916672,10.4148773 27.3966672,12.5268773 28.2906672,14.6448773" id="Fill-112" fill="#FCCE00"></path>
            <path d="M25.5074672,52.3664773 C25.8784672,53.5074773 25.3194672,54.8234773 24.2814672,55.4094773 C23.2914672,55.9764773 22.0604672,55.7754773 21.1994672,55.0714773 C20.3394672,54.3674773 20.0134672,53.2334773 20.4374672,52.1974773 C20.8474672,51.2064773 21.8514672,50.4054773 22.9524672,50.5154773 C23.1614672,50.5414773 23.3234672,50.6524773 23.4414672,50.8024773 C24.3544672,50.8804773 25.2204672,51.4734773 25.5074672,52.3664773" id="Fill-114" fill="#1C1C1B"></path>
            <path d="M15.9009672,72.6091773 C16.2589672,73.0331773 15.9079672,73.8341773 15.2949672,73.6191773 C14.8839672,73.4761773 14.5849672,73.3981773 14.2779672,73.0521773 C14.0049672,72.7521773 13.7959672,72.4011773 13.6719672,72.0161773 C13.4179672,71.2401773 13.3979672,69.9631773 14.2719672,69.5591773 C14.7939672,69.3241773 15.4839672,69.4871773 15.6399672,70.1191773 C15.7709672,70.6731773 15.4519672,71.0901773 15.5099672,71.6311773 C15.5299672,71.8071773 15.5889672,71.9901773 15.6729672,72.1521773 C15.7129672,72.2311773 15.7769672,72.2961773 15.8159672,72.3741773 C15.8619672,72.4461773 15.8879672,72.5241773 15.9009672,72.6091773" id="Fill-116" fill="#1C1C1B"></path>
            <path d="M8.44496724,69.0115773 C9.02496724,70.0345773 9.20196724,71.5535773 8.84896724,72.6875773 C8.64696724,73.3325773 7.54596724,73.4495773 7.41596724,72.6875773 C7.33796724,72.1855773 7.33796724,71.6775773 7.23296724,71.1815773 C7.12896724,70.6735773 6.95296724,70.1915773 6.84796724,69.6825773 C6.65996724,68.7385773 7.94396724,68.1125773 8.44496724,69.0115773" id="Fill-118" fill="#1C1C1B"></path>
        </g>
    </g>
</svg>