<?xml version="1.0" encoding="UTF-8"?>
<svg width="89px" height="74px" viewBox="0 0 89 74" version="1.1" xmlns="http://www.w3.org/2000/svg" xmlns:xlink="http://www.w3.org/1999/xlink">
    <!-- Generator: Sketch 53.1 (72631) - https://sketchapp.com -->
    <title>Group 82sticker</title>
    <desc>Created with Sketch.</desc>
    <g id="Page-1" stroke="none" stroke-width="1" fill="none" fill-rule="evenodd">
        <g id="Group-82">
            <path d="M30.6248558,29.1585692 C30.7978558,29.3255692 30.9728558,29.4855692 31.1508558,29.6355692 C31.4258558,29.8645692 31.7158558,30.0465692 32.0108558,30.2055692 C31.9318558,30.5335692 31.8628558,30.8655692 31.8118558,31.2055692 C31.3358558,30.6065692 30.8408558,30.0215692 30.3218558,29.4555692 C30.4288558,29.3605692 30.5288558,29.2615692 30.6248558,29.1585692 M87.5628558,33.8335692 C87.2518558,29.5615692 86.9398558,25.2895692 86.6288558,21.0175692 C86.3118558,16.6665692 86.5288558,11.7465692 85.4728558,7.49756922 C83.2438558,-1.46543078 72.7468558,0.030569222 65.7018558,0.188569222 C47.7018558,0.592569222 29.6188558,1.56956922 11.7288558,3.65056922 C7.9238558,4.09356922 3.8988558,4.86356922 1.6158558,8.29756922 C-0.847144201,12.0005692 0.00685579879,16.3455692 0.909855799,20.4015692 C3.1258558,30.3565692 5.4238558,40.2945692 7.7368558,50.2265692 C7.8528558,50.7205692 8.0298558,51.1455692 8.2488558,51.5165692 C9.0758558,56.8425692 15.7028558,57.7225692 20.2028558,58.4855692 C24.0078558,59.1295692 28.8318558,60.0215692 33.1718558,59.8185692 C36.2308558,64.5165692 39.8868558,68.7735692 44.1958558,72.4275692 C46.2788558,74.1935692 49.5838558,74.1605692 51.0518558,71.5435692 C53.5038558,67.1715692 55.4558558,62.5695692 56.8878558,57.7735692 C58.3468558,57.7675692 59.8058558,57.7685692 61.2638558,57.7455692 C65.5788558,57.6795692 69.8958558,57.5535692 74.2078558,57.3315692 C77.5738558,57.1585692 81.0658558,56.9085692 84.0248558,55.1195692 C90.9948558,50.9045692 88.0448558,40.4325692 87.5628558,33.8335692" id="Fill-192" fill="#FFFFFF"></path>
            <path d="M79.9744558,46.9457692 C80.2484558,40.4877692 80.3394558,34.0287692 80.2154558,27.5637692 C80.1444558,24.1747692 80.0204558,20.7857692 79.8444558,17.3967692 C79.6944558,14.6267692 80.3714558,8.18776922 76.8464558,7.04076922 C75.3544558,6.55176922 73.0734558,7.11876922 71.5544558,7.26176922 C69.8534558,7.42476922 68.1524558,7.58176922 66.4514558,7.74476922 C63.0554558,8.06376922 59.6544558,8.38276922 56.2584558,8.70276922 L36.5044558,10.5597692 C29.9154558,11.1787692 23.3324558,11.7987692 16.7504558,12.4177692 C15.1214558,12.5737692 13.2254558,12.4957692 11.6484558,12.8997692 C8.9164558,13.5967692 8.5974558,14.4897692 8.6624558,17.1297692 C8.7474558,20.4467692 8.9434558,23.7707692 9.2494558,27.0747692 C9.5814558,30.6917692 10.0574558,34.2957692 10.6634558,37.8807692 C11.0804558,40.2987692 11.1914558,46.5347692 13.8644558,47.6427692 C15.2904558,48.2297692 17.5914558,47.9817692 19.1224558,48.0867692 C20.8184558,48.1967692 22.5124558,48.3077692 24.2064558,48.4317692 C27.5954558,48.6667692 30.9844558,48.9207692 34.3734558,49.2197692 C34.8694558,49.2587692 35.1814558,49.5787692 35.3124558,49.9497692 C37.7754558,51.7757692 39.5354558,54.7467692 41.4184558,57.1327692 C43.3224558,59.5367692 45.2314558,61.9417692 47.1474558,64.3337692 C49.3304558,59.2307692 51.6634558,53.6527692 55.1054558,49.4087692 C55.3854558,49.0637692 55.8344558,49.0577692 56.2004558,49.2337692 C56.3884558,49.0507692 56.6494558,48.9337692 56.9954558,48.9397692 C64.7314558,49.1157692 72.3954558,48.4577692 79.9744558,46.9457692 M82.5484558,27.5637692 C82.6794558,34.3477692 82.5754558,41.1327692 82.2754558,47.9107692 C82.2554558,48.3997692 81.9364558,48.9267692 81.4214558,49.0377692 C73.3664558,50.7127692 65.2124558,51.4687692 56.9954558,51.2797692 C56.7664558,51.2737692 56.5784558,51.2077692 56.4214558,51.1167692 C54.1404558,56.5777692 50.8164558,61.7007692 48.4444558,67.1557692 C48.1634558,67.8007692 47.0564558,67.9377692 46.6194558,67.3907692 C44.2024558,64.3727692 41.7894558,61.3357692 39.4174558,58.2787692 C37.7234558,56.0957692 35.5204558,53.8477692 34.3544558,51.2997692 C30.5474558,51.1237692 26.7424558,50.9017692 22.9354558,50.6607692 C19.8784558,50.4717692 16.1974558,50.7647692 13.2444558,49.8847692 C11.1654558,49.2657692 10.3904558,47.8317692 9.8624558,45.8317692 C8.9694558,42.4427692 8.4484558,38.8907692 7.9334558,35.4237692 C7.0344558,29.3627692 6.4864558,23.2557692 6.3294558,17.1297692 C6.2844558,15.2657692 5.8544558,12.8477692 7.5294558,11.5377692 C8.9164558,10.4557692 11.3024558,10.5987692 12.9254558,10.4487692 C26.0964558,9.21076922 39.2684558,7.96676922 52.4324558,6.72776922 C59.2304558,6.08976922 66.0284558,5.43076922 72.8254558,4.81176922 C77.1724558,4.41476922 80.5614558,5.05976922 81.5454558,9.81076922 C82.7254558,15.4807692 82.4314558,21.7957692 82.5484558,27.5637692" id="Fill-194" fill="#1C1C1B"></path>
            <path d="M43.3865558,34.7259692 C45.9025558,32.1059692 48.1245558,28.6129692 46.7495558,24.8589692 C44.5855558,18.9549692 34.5105558,20.6489692 32.8485558,25.9729692 C29.9035558,21.2089692 22.8765558,19.2539692 19.3245558,24.8459692 C14.6855558,32.1519692 26.8325558,39.0209692 31.8705558,41.5489692 C32.4315558,41.8299692 32.9075558,41.5489692 33.0825558,41.1319692 C33.1675558,41.5489692 33.4485558,41.9209692 33.8775558,42.0379692 C35.3315558,42.4159692 36.4195558,41.2819692 37.4495558,40.3759692 C39.4905558,38.5839692 41.5095558,36.6809692 43.3865558,34.7259692 M65.9695558,37.4369692 C66.3535558,32.0349692 65.6625558,26.3249692 65.3235558,20.9159692 C65.2655558,19.8799692 63.7985558,19.3129692 63.2515558,20.3549692 C61.8435558,23.0209692 59.7055558,24.8849692 57.9405558,27.2379692 C57.6205558,27.6679692 58.1555558,28.3589692 58.6575558,28.1629692 C60.4615558,27.4659692 61.9415558,26.0969692 63.1665558,24.5259692 C63.2325558,28.9319692 63.2835558,33.4349692 63.9745558,37.7049692 C64.1705558,38.8969692 65.8905558,38.5059692 65.9695558,37.4369692 M80.2155558,27.5629692 C80.3395558,34.0289692 80.2485558,40.4869692 79.9745558,46.9459692 C72.3955558,48.4579692 64.7315558,49.1159692 56.9945558,48.9399692 C56.6495558,48.9339692 56.3885558,49.0509692 56.1995558,49.2329692 C55.8345558,49.0579692 55.3855558,49.0639692 55.1055558,49.4089692 C51.6635558,53.6519692 49.3305558,59.2309692 47.1475558,64.3339692 C45.2315558,61.9419692 43.3225558,59.5369692 41.4185558,57.1319692 C39.5345558,54.7469692 37.7755558,51.7749692 35.3125558,49.9499692 C35.1815558,49.5789692 34.8685558,49.2589692 34.3735558,49.2199692 C30.9845558,48.9199692 27.5955558,48.6659692 24.2065558,48.4319692 C22.5125558,48.3079692 20.8185558,48.1969692 19.1225558,48.0859692 C17.5915558,47.9819692 15.2905558,48.2299692 13.8645558,47.6429692 C11.1915558,46.5349692 11.0805558,40.2979692 10.6635558,37.8799692 C10.0575558,34.2959692 9.5815558,30.6919692 9.2495558,27.0749692 C8.9435558,23.7699692 8.7475558,20.4469692 8.6625558,17.1289692 C8.5975558,14.4899692 8.9165558,13.5969692 11.6485558,12.8999692 C13.2255558,12.4959692 15.1215558,12.5739692 16.7505558,12.4169692 C23.3325558,11.7979692 29.9155558,11.1789692 36.5045558,10.5599692 L56.2585558,8.70296922 C59.6545558,8.38296922 63.0555558,8.06396922 66.4505558,7.74496922 C68.1525558,7.58096922 69.8535558,7.42496922 71.5545558,7.26196922 C73.0735558,7.11896922 75.3545558,6.55196922 76.8465558,7.03996922 C80.3715558,8.18796922 79.6945558,14.6269692 79.8445558,17.3959692 C80.0205558,20.7859692 80.1445558,24.1749692 80.2155558,27.5629692" id="Fill-196" fill="#ED1C24"></path>
            <path d="M65.3240558,20.9159692 C65.6630558,26.3249692 66.3530558,32.0349692 65.9700558,37.4369692 C65.8900558,38.5059692 64.1710558,38.8969692 63.9740558,37.7049692 C63.2840558,33.4359692 63.2320558,28.9319692 63.1670558,24.5259692 C61.9410558,26.0969692 60.4620558,27.4659692 58.6570558,28.1629692 C58.1550558,28.3589692 57.6210558,27.6679692 57.9400558,27.2379692 C59.7060558,24.8849692 61.8440558,23.0209692 63.2520558,20.3549692 C63.7990558,19.3129692 65.2650558,19.8799692 65.3240558,20.9159692" id="Fill-198" fill="#1C1C1B"></path>
            <path d="M44.4226558,29.4925692 C45.6876558,26.3115692 44.0776558,23.0665692 40.3756558,23.3205692 C37.6456558,23.5035692 34.6866558,25.2235692 34.2816558,28.0845692 C34.2366558,28.4435692 34.0086558,28.6255692 33.7406558,28.6785692 C33.4086558,29.4275692 32.1516558,29.7465692 31.7606558,28.8405692 C30.7236558,26.4165692 29.0946558,24.1875692 26.2726558,23.7965692 C22.7596558,23.3145692 19.7226558,26.5665692 21.1046558,29.9945692 C22.0756558,32.4055692 24.9626558,34.3285692 26.9496558,35.8405692 C28.8466558,37.2865692 30.8276558,38.6295692 32.7576558,40.0375692 C32.9136558,40.1485692 33.0116558,40.2845692 33.0766558,40.4225692 C33.1546558,40.1415692 33.3506558,39.8875692 33.5986558,39.7435692 C33.6696558,39.7045692 33.7406558,39.6655692 33.8136558,39.6205692 C34.1776558,39.4115692 34.6536558,39.4505692 34.9926558,39.6985692 C36.4456558,38.8705692 39.7766558,35.0975692 40.3566558,34.5435692 C41.9136558,33.0575692 43.6026558,31.5385692 44.4226558,29.4925692 M46.7496558,24.8585692 C48.1246558,28.6125692 45.9016558,32.1055692 43.3866558,34.7255692 C41.5096558,36.6805692 39.4896558,38.5845692 37.4496558,40.3765692 C36.4196558,41.2825692 35.3316558,42.4165692 33.8776558,42.0385692 C33.4476558,41.9205692 33.1676558,41.5495692 33.0826558,41.1325692 C32.9066558,41.5495692 32.4316558,41.8295692 31.8706558,41.5495692 C26.8326558,39.0205692 14.6856558,32.1515692 19.3246558,24.8455692 C22.8766558,19.2535692 29.9026558,21.2095692 32.8486558,25.9725692 C34.5106558,20.6485692 44.5856558,18.9545692 46.7496558,24.8585692" id="Fill-200" fill="#1C1C1B"></path>
            <path d="M40.3757558,23.3207692 C44.0777558,23.0667692 45.6877558,26.3117692 44.4227558,29.4927692 C43.6027558,31.5387692 41.9137558,33.0577692 40.3557558,34.5437692 C39.7757558,35.0977692 36.4457558,38.8707692 34.9927558,39.6987692 C34.6537558,39.4507692 34.1777558,39.4117692 33.8137558,39.6207692 C33.7407558,39.6657692 33.6697558,39.7047692 33.5987558,39.7437692 C33.3507558,39.8877692 33.1547558,40.1417692 33.0767558,40.4227692 C33.0117558,40.2847692 32.9137558,40.1487692 32.7577558,40.0377692 C30.8277558,38.6297692 28.8467558,37.2867692 26.9497558,35.8407692 C24.9627558,34.3287692 22.0757558,32.4057692 21.1047558,29.9947692 C19.7227558,26.5667692 22.7597558,23.3147692 26.2717558,23.7967692 C29.0947558,24.1877692 30.7237558,26.4167692 31.7607558,28.8407692 C32.1507558,29.7467692 33.4087558,29.4277692 33.7407558,28.6777692 C34.0087558,28.6257692 34.2367558,28.4437692 34.2817558,28.0847692 C34.6867558,25.2237692 37.6457558,23.5037692 40.3757558,23.3207692" id="Fill-202" fill="#F4F4F4"></path>
        </g>
    </g>
</svg>