<?xml version="1.0" encoding="UTF-8"?>
<svg width="174px" height="144px" viewBox="0 0 174 144" version="1.1" xmlns="http://www.w3.org/2000/svg" xmlns:xlink="http://www.w3.org/1999/xlink">
    <!-- Generator: Sketch 53.1 (72631) - https://sketchapp.com -->
    <title>Group 91sticker4</title>
    <desc>Created with Sketch.</desc>
    <defs>
        <polygon id="path-1" points="0.389141973 0.672 70.5171591 0.672 70.5171591 78.1916225 0.389141973 78.1916225"></polygon>
    </defs>
    <g id="Page-1" stroke="none" stroke-width="1" fill="none" fill-rule="evenodd">
        <g id="Group-91">
            <path d="M170.826723,73.4138 C170.325723,72.5038 169.462723,71.7588 168.226723,71.3628 C161.364723,69.1668 154.068723,71.1238 149.029723,75.8928 C147.339723,74.8918 145.510723,74.5168 143.646723,74.5268 C134.886723,66.6838 120.582723,71.0958 112.264723,77.6928 C107.616723,81.3788 105.511723,86.1238 105.333723,91.9908 C105.234723,95.2718 104.932723,97.2108 102.453723,99.5078 C100.401723,101.4078 98.1077234,102.9788 96.3407234,105.1728 C92.7837234,109.5878 91.2357234,116.1288 95.6407234,120.6058 C99.5457234,124.5718 105.725723,124.5298 110.626723,122.7688 C113.492723,121.7388 116.251723,120.0978 119.324723,119.7758 C122.640723,119.4298 125.956723,120.4738 129.158723,121.1728 C135.246723,122.5028 141.124723,122.7068 146.959723,120.2398 C153.055723,117.6628 158.316723,112.6628 160.354723,106.2598 C161.787723,101.7578 160.994723,96.7488 158.205723,93.1378 C159.016723,91.4158 159.319723,89.4358 159.054723,87.5008 C159.032723,87.3428 159.000723,87.1888 158.972723,87.0348 C159.091723,86.9828 159.212723,86.9348 159.330723,86.8828 C162.404723,85.6968 165.639723,85.1398 168.933723,85.0658 C170.738723,85.0248 172.791723,83.7448 173.159723,81.8488 C173.814723,78.4798 172.942723,75.5108 170.826723,73.4138" id="Fill-204" fill="#FFFFFF"></path>
            <path d="M150.149923,110.8162 C152.952923,107.9622 158.504923,99.6582 154.385923,95.9312 C153.929923,97.0842 153.264923,98.1332 152.411923,98.9412 C151.967923,99.3652 151.160923,99.2022 151.009923,98.5702 C150.475923,96.3352 147.803923,95.6242 146.539923,93.8652 C145.717923,92.7112 145.627923,91.4732 145.926923,90.2672 C142.570923,93.2332 138.014923,94.5952 133.485923,94.0082 C132.754923,93.9172 132.448923,93.2062 132.911923,92.6202 C135.329923,89.5112 138.300923,86.9892 141.794923,85.2552 C139.044923,84.4602 136.430923,82.6162 134.390923,80.8502 C133.817923,80.3482 134.319923,79.4752 134.977923,79.4362 C136.508923,79.3442 139.174923,79.0052 141.794923,79.0642 C133.152923,73.5762 120.959923,75.8182 116.070923,85.2552 C113.587923,90.0522 112.753923,95.5202 109.351923,99.8472 C105.982923,104.1362 98.5009234,108.9392 100.834923,115.4042 C103.460923,122.6972 113.920923,116.4862 118.834923,115.8802 C124.503923,115.1892 129.802923,118.1612 135.479923,117.7512 C140.999923,117.3592 146.291923,114.7532 150.149923,110.8162 M163.477923,81.3642 C163.751923,79.9892 163.880923,78.8102 163.463923,77.5062 C160.720923,77.5982 158.328923,77.3572 155.714923,78.5622 C153.140923,79.7482 151.426923,81.6772 149.771923,83.9132 C149.640923,84.0892 149.406923,84.1022 149.243923,84.0172 L149.243923,84.1482 C149.211923,84.6562 148.416923,84.8322 148.304923,84.2782 C147.470923,79.9702 141.377923,80.6082 137.186923,80.9612 C139.304923,82.4142 141.540923,83.2422 143.931923,84.3622 C144.048923,84.3692 144.153923,84.4282 144.238923,84.5062 C144.336923,84.5512 144.427923,84.5972 144.525923,84.6432 C145.027923,84.8842 144.779923,85.6862 144.251923,85.6662 C144.133923,85.6662 144.023923,85.6532 143.906923,85.6472 C140.549923,87.4642 137.610923,89.6682 135.114923,92.5032 C139.695923,92.6272 143.716923,90.6512 146.786923,87.1002 C147.360923,86.4412 148.520923,87.3412 147.999923,88.0322 C147.979923,88.0582 147.960923,88.0772 147.946923,88.1042 C147.314923,89.8112 146.636923,91.7992 148.096923,93.3042 C148.715923,93.9492 149.503923,94.4052 150.221923,94.9402 C150.963923,95.4942 151.609923,96.0742 152.065923,96.7972 C152.535923,96.1782 152.906923,95.5012 153.154923,94.7772 C153.095923,94.5042 153.186923,94.2102 153.369923,93.9952 C153.525923,93.2582 153.557923,92.4892 153.420923,91.7082 C153.049923,89.5962 151.687923,88.4682 150.319923,86.9832 C150.175923,86.8332 150.136923,86.6302 150.156923,86.4412 C150.149923,86.3772 150.149923,86.3172 150.169923,86.2462 C152.097923,81.0192 158.641923,79.9502 163.477923,81.3642 M164.109923,76.7762 C165.177923,78.2502 165.576923,80.3802 164.670923,82.0162 C164.501923,82.3162 164.226923,82.3812 163.979923,82.3162 C163.880923,82.4662 163.724923,82.5832 163.497923,82.5772 C158.961923,82.4792 154.040923,81.6512 151.277923,86.0052 C154.542923,87.4062 155.532923,90.9062 154.914923,94.1382 C158.426923,96.6412 157.670923,101.6532 156.131923,105.1982 C154.027923,110.0732 150.123923,114.1272 145.463923,116.6362 C141.325923,118.8582 136.547923,119.9792 131.855923,119.4902 C128.551923,119.1382 125.410923,117.8872 122.112923,117.5812 C118.716923,117.2682 115.653923,118.4152 112.473923,119.4062 C108.452923,120.6702 102.750923,121.6872 99.9799234,117.5162 C97.6279234,113.9902 99.0809234,109.2002 101.400923,106.0782 C103.186923,103.6732 105.526923,101.7642 107.461923,99.4892 C109.710923,96.8432 110.955923,93.7282 112.134923,90.4952 C113.855923,85.7962 115.679923,81.2472 119.831923,78.1842 C126.563923,73.2252 136.659923,72.9122 143.072923,78.5232 C143.267923,78.6992 143.280923,78.9402 143.189923,79.1422 C146.258923,79.4092 148.950923,80.4132 149.223923,83.2742 C151.087923,78.2232 158.426923,74.1562 163.594923,76.3272 C163.679923,76.3202 163.770923,76.3592 163.848923,76.4382 C164.004923,76.5162 164.083923,76.6402 164.109923,76.7762" id="Fill-206" fill="#1C1C1B"></path>
            <path d="M163.464323,77.5066 C163.881323,78.8096 163.751323,79.9896 163.478323,81.3646 C158.642323,79.9506 152.098323,81.0196 150.169323,86.2466 C150.150323,86.3176 150.150323,86.3766 150.156323,86.4416 C150.137323,86.6306 150.176323,86.8326 150.319323,86.9826 C151.688323,88.4686 153.050323,89.5956 153.421323,91.7076 C153.558323,92.4896 153.526323,93.2586 153.369323,93.9956 C153.187323,94.2106 153.096323,94.5036 153.154323,94.7776 C152.906323,95.5006 152.535323,96.1786 152.066323,96.7976 C151.610323,96.0736 150.964323,95.4936 150.222323,94.9406 C149.504323,94.4056 148.716323,93.9496 148.097323,93.3046 C146.637323,91.7986 147.315323,89.8116 147.946323,88.1036 C147.960323,88.0776 147.980323,88.0576 147.999323,88.0316 C148.521323,87.3406 147.360323,86.4416 146.786323,87.0996 C143.717323,90.6516 139.695323,92.6266 135.114323,92.5026 C137.610323,89.6676 140.550323,87.4646 143.906323,85.6466 C144.024323,85.6526 144.134323,85.6666 144.251323,85.6666 C144.779323,85.6856 145.027323,84.8836 144.526323,84.6426 C144.428323,84.5976 144.336323,84.5516 144.238323,84.5066 C144.153323,84.4276 144.049323,84.3696 143.932323,84.3626 C141.540323,83.2416 139.305323,82.4136 137.187323,80.9606 C141.377323,80.6086 147.471323,79.9696 148.305323,84.2776 C148.416323,84.8316 149.211323,84.6556 149.243323,84.1476 L149.243323,84.0176 C149.406323,84.1016 149.641323,84.0896 149.772323,83.9126 C151.427323,81.6776 153.141323,79.7486 155.715323,78.5626 C158.328323,77.3566 160.721323,77.5976 163.464323,77.5066" id="Fill-208" fill="#03963A"></path>
            <path d="M109.593323,116.2253 C110.322323,115.6913 109.710323,114.5963 108.876323,115.0003 C107.377323,115.7303 106.224323,116.0433 104.548323,115.7493 C103.864323,115.6323 103.636323,116.5183 104.269323,116.7793 C105.865323,117.4243 108.179323,117.2743 109.593323,116.2253 M112.786323,113.4293 C113.451323,113.1753 113.373323,112.2043 112.616323,112.1713 C111.619323,112.1203 110.610323,112.3993 109.632323,112.5823 C108.550323,112.7783 107.468323,112.9673 106.393323,113.2013 C105.735323,113.3513 105.865323,114.4723 106.556323,114.4003 C107.553323,114.2963 108.543323,114.1533 109.540323,114.0093 C110.616323,113.8593 111.777323,113.8203 112.786323,113.4293 M119.590323,87.9933 C120.125323,87.5753 119.447323,86.7803 118.893323,87.0863 C117.525323,87.8363 115.289323,89.7203 116.736323,91.4013 C117.140323,91.8703 117.981323,91.4923 117.954323,90.8923 C117.928323,90.2873 117.876323,89.8763 118.241323,89.3423 C118.600323,88.8133 119.095323,88.3773 119.590323,87.9933 M128.616323,84.7533 C129.405323,84.3233 128.832323,83.2613 128.043323,83.3923 C127.072323,83.5483 126.075323,84.1013 125.280323,84.6563 C124.498323,85.2033 123.546323,85.9073 123.129323,86.7873 C122.693323,87.7323 123.775323,88.6313 124.589323,87.9083 C125.235323,87.3343 125.691323,86.5913 126.381323,86.0443 C127.072323,85.4903 127.848323,85.1773 128.616323,84.7533 M128.708323,80.5503 C129.445323,80.5113 129.659323,79.4093 128.884323,79.2203 C127.033323,78.7513 124.524323,79.4553 123.312323,80.9863 C122.614323,81.8663 123.663323,82.9293 124.543323,82.2183 C125.893323,81.1233 126.948323,80.6413 128.708323,80.5503 M154.386323,95.9313 C158.505323,99.6583 152.952323,107.9613 150.150323,110.8163 C146.291323,114.7523 140.999323,117.3593 135.480323,117.7503 C129.803323,118.1613 124.504323,115.1893 118.834323,115.8803 C113.920323,116.4863 103.460323,122.6973 100.834323,115.4043 C98.5003234,108.9393 105.983323,104.1363 109.352323,99.8473 C112.754323,95.5203 113.588323,90.0523 116.071323,85.2553 C120.959323,75.8183 133.153323,73.5763 141.794323,79.0643 C139.175323,79.0053 136.509323,79.3443 134.978323,79.4353 C134.320323,79.4753 133.818323,80.3483 134.391323,80.8503 C136.431323,82.6163 139.044323,84.4603 141.794323,85.2553 C138.301323,86.9893 135.329323,89.5113 132.911323,92.6203 C132.448323,93.2063 132.755323,93.9163 133.486323,94.0083 C138.015323,94.5953 142.571323,93.2323 145.927323,90.2673 C145.627323,91.4733 145.718323,92.7113 146.539323,93.8653 C147.804323,95.6243 150.476323,96.3343 151.010323,98.5703 C151.160323,99.2023 151.968323,99.3653 152.411323,98.9413 C153.265323,98.1333 153.930323,97.0843 154.386323,95.9313" id="Fill-210" fill="#DF51CD"></path>
            <path d="M128.884323,79.2205 C129.659323,79.4095 129.445323,80.5115 128.708323,80.5505 C126.948323,80.6415 125.893323,81.1235 124.543323,82.2185 C123.663323,82.9285 122.614323,81.8665 123.312323,80.9865 C124.524323,79.4555 127.033323,78.7515 128.884323,79.2205" id="Fill-212" fill="#1C1C1B"></path>
            <path d="M128.043523,83.3918 C128.832523,83.2618 129.405523,84.3238 128.616523,84.7538 C127.848523,85.1778 127.072523,85.4898 126.381523,86.0438 C125.690523,86.5918 125.234523,87.3348 124.589523,87.9078 C123.774523,88.6318 122.692523,87.7318 123.129523,86.7878 C123.546523,85.9078 124.498523,85.2038 125.279523,84.6558 C126.075523,84.1018 127.072523,83.5478 128.043523,83.3918" id="Fill-214" fill="#1C1C1B"></path>
            <path d="M118.893123,87.0867 C119.448123,86.7807 120.125123,87.5757 119.590123,87.9927 C119.095123,88.3777 118.600123,88.8137 118.242123,89.3417 C117.876123,89.8767 117.928123,90.2867 117.955123,90.8927 C117.981123,91.4927 117.140123,91.8707 116.736123,91.4007 C115.289123,89.7197 117.525123,87.8367 118.893123,87.0867" id="Fill-216" fill="#1C1C1B"></path>
            <path d="M112.616723,112.1716 C113.373723,112.2046 113.451723,113.1756 112.786723,113.4296 C111.776723,113.8206 110.616723,113.8596 109.540723,114.0096 C108.543723,114.1526 107.553723,114.2966 106.555723,114.4006 C105.865723,114.4726 105.734723,113.3516 106.392723,113.2016 C107.468723,112.9666 108.550723,112.7776 109.632723,112.5826 C110.609723,112.3996 111.619723,112.1196 112.616723,112.1716" id="Fill-218" fill="#1C1C1B"></path>
            <path d="M108.876523,115.0002 C109.710523,114.5962 110.322523,115.6912 109.593523,116.2252 C108.179523,117.2742 105.865523,117.4242 104.269523,116.7792 C103.636523,116.5192 103.864523,115.6322 104.548523,115.7502 C106.224523,116.0432 107.377523,115.7302 108.876523,115.0002" id="Fill-220" fill="#1C1C1B"></path>
            <path d="M8.91552338,97.9949 C8.84252338,98.6719 8.77752338,99.3489 8.72252338,100.0279 C8.72152338,98.8979 8.76452338,97.7679 8.84452338,96.6399 C8.86852338,97.0919 8.89252338,97.5429 8.91552338,97.9949 M18.6385234,118.2239 C18.4195234,117.6599 18.2485234,117.0709 18.0975234,116.4739 C18.7455234,117.8279 19.3835234,119.1869 20.0095234,120.5509 C19.4025234,119.8179 18.9235234,118.9569 18.6385234,118.2239 M20.4485234,69.9679 C16.6355234,65.1239 9.31552338,63.8629 4.12252338,68.6459 C0.941523378,71.5759 -0.542476622,75.7949 0.179523378,80.0689 C0.487523378,81.8969 1.16352338,83.4319 2.10452338,84.7649 C-0.790476622,95.7409 -0.971476622,107.5459 3.39152338,118.1729 C8.10552338,129.6609 18.0535234,138.5429 30.1935234,141.4389 C35.0775234,142.6029 40.4085234,142.6179 45.3045234,141.2859 C48.3505234,143.7599 52.5245234,144.5749 56.3545234,142.5239 C61.7395234,139.6409 62.8155234,133.0849 60.1775234,128.0279 C60.7105234,126.7679 61.1685234,125.4529 61.5605234,124.0949 C65.4705234,110.5499 64.4575234,95.1229 56.2135234,83.3409 C48.2915234,72.0189 33.7065234,65.7639 20.4485234,69.9679" id="Fill-222" fill="#F4F4F4"></path>
            <path d="M16.4878234,72.2346 C31.2208234,71.8166 47.8218234,77.9686 55.9058234,90.8096 C62.6168234,101.4676 64.7608234,118.5066 57.0298234,129.3176 C58.4938234,132.0616 57.6618234,135.8766 54.8408234,137.4676 C52.2578234,138.9206 49.0868234,137.9786 47.3798234,135.7786 L48.1108234,135.1096 C49.5368234,136.6606 51.9128234,137.3786 53.9048234,136.4866 C56.7398234,135.2066 56.9808234,131.4066 55.3348234,129.1466 C54.9268234,128.5896 55.5188234,128.0276 56.0488234,128.1616 C58.6838234,121.8986 60.6038234,116.1566 60.1868234,109.1716 C59.8018234,102.7336 57.7638234,96.3266 54.1888234,90.9426 C50.2118234,84.9646 44.4438234,80.6496 37.8568234,77.8996 C31.3018234,75.1596 24.5278234,74.3826 17.6038234,73.3756 C17.9928234,73.8506 18.3218234,74.3756 18.5488234,74.9596 C18.8408234,75.7126 17.7208234,76.0986 17.3848234,75.3846 C16.0508234,72.5406 12.0778234,71.1406 9.56882338,73.4136 C7.24782338,75.5216 7.80982338,78.9766 9.61282338,81.1636 C9.92082338,81.5366 9.38382338,81.9296 9.03782338,81.7046 C8.65082338,81.4446 8.30782338,81.1456 8.01382338,80.8026 C5.86982338,78.3066 6.35982338,73.9036 9.10182338,71.9686 C11.3268234,70.3956 14.3218234,70.7246 16.4208234,72.2516 C16.4448234,72.2416 16.4648234,72.2346 16.4878234,72.2346" id="Fill-224" fill="#1C1C1B"></path>
            <path d="M19.8198234,117.2615 C20.4648234,116.6615 20.1358234,115.7015 19.2278234,115.6885 C17.4338234,115.6595 15.7398234,115.2315 13.9658234,115.0615 C13.1608234,114.9805 12.7528234,116.0995 13.5448234,116.4535 C14.6978234,116.9665 15.9958234,117.1985 17.2858234,117.3065 C17.0678234,117.5185 16.8458234,117.7345 16.6298234,117.9465 C16.0178234,118.5375 15.3318234,119.0785 14.9568234,119.8525 C14.7178234,120.3365 15.2578234,120.9205 15.7578234,120.7135 C16.5548234,120.3815 17.1438234,119.7265 17.7668234,119.1515 C18.4538234,118.5215 19.1408234,117.8925 19.8198234,117.2615 M13.7078234,98.8975 C14.0218234,98.6315 13.7748234,98.0305 13.3438234,98.2115 C12.2728234,98.6755 10.9048234,98.5025 10.3148234,97.3775 C10.1388234,97.0545 9.64082338,97.2115 9.76182338,97.5815 C10.2498234,99.1095 12.3998234,100.0045 13.7078234,98.8975 M10.5618234,90.5015 C10.7288234,90.0855 10.1548234,89.8555 9.93882338,90.2265 C9.24882338,91.4205 9.68282338,93.5475 11.2158234,93.8505 C11.6738234,93.9395 11.9028234,93.3425 11.5708234,93.0585 C11.1908234,92.7295 10.8138234,92.4955 10.5978234,92.0165 C10.3758234,91.5265 10.3548234,90.9955 10.5618234,90.5015 M15.1778234,92.5075 C15.9008234,90.8095 13.1168234,89.3335 12.0588234,90.7995 C11.7938234,91.1665 12.2858234,91.5515 12.5988234,91.2385 C13.2948234,90.5305 14.5518234,91.4005 14.4128234,92.2785 C14.3438234,92.7205 14.9958234,92.9355 15.1778234,92.5075 M35.7068234,111.7555 C38.6878234,109.7525 39.0838234,105.4735 37.0108234,102.7095 C36.5218234,102.0495 35.5098234,102.7755 35.9678234,103.4575 C37.4398234,105.6425 37.1168234,108.9705 34.7948234,110.4855 C32.4618234,112.0075 29.3118234,110.9055 27.8348234,108.7575 C27.4128234,108.1465 26.5948234,108.7965 26.9238234,109.4105 C28.5588234,112.4495 32.7368234,113.7425 35.7068234,111.7555 M54.3718234,118.3595 C54.2958234,117.1135 53.4318234,116.0325 52.2398234,115.6695 C51.9288234,115.5715 51.7138234,116.0075 52.0308234,116.1485 C52.9758234,116.5605 53.4838234,117.4245 53.4938234,118.4435 C53.5008234,119.0005 54.4038234,118.9295 54.3718234,118.3595 M53.9578234,112.8645 C54.3528234,112.4205 54.4828234,111.6845 53.9508234,111.2895 C53.4998234,110.9635 52.8368234,111.0455 52.6168234,111.5885 C52.4158234,112.1015 53.1728234,112.4415 53.3958234,111.9355 C53.2398234,112.2885 53.1468234,112.4275 52.7848234,112.5825 C52.5448234,112.6835 52.2798234,112.7285 52.0218234,112.7375 C51.4648234,112.7435 50.9278234,112.5435 50.4878234,112.2095 C50.1198234,111.9205 49.7248234,112.4445 50.0418234,112.7625 C51.0128234,113.7585 52.9618234,113.9805 53.9578234,112.8645 M55.0928234,108.5675 C55.3378234,108.4165 55.3698234,107.9685 55.1158234,107.8055 C53.6188234,106.8585 51.4678234,107.7755 51.1858234,109.5505 C51.1048234,110.0185 51.7808234,110.1105 51.8958234,109.6675 C52.1218234,108.8315 52.8968234,108.3795 53.6888234,108.3875 C53.5678234,108.4755 53.4458234,108.5625 53.3238234,108.6505 C52.8598234,108.9755 53.3588234,109.6595 53.8368234,109.3655 C54.2548234,109.0975 54.6758234,108.8355 55.0928234,108.5675 M50.0308234,93.4535 C50.2598234,93.1925 50.0298234,92.6925 49.6638234,92.7625 C48.4428234,92.9965 47.1838234,93.6115 45.9858234,94.2785 C46.4308234,93.1335 46.8378234,91.9675 47.0288234,90.8035 C47.1738234,89.9205 46.0338234,89.6965 45.6278234,90.3815 C44.6278234,92.0615 44.0968234,94.1505 43.4098234,95.9755 C43.0778234,96.8555 43.9858234,97.5275 44.7598234,97.0755 C46.4838234,96.0795 48.7158234,94.9745 50.0308234,93.4535 M37.8568234,77.8995 C44.4438234,80.6495 50.2118234,84.9655 54.1888234,90.9435 C57.7638234,96.3265 59.8018234,102.7335 60.1868234,109.1715 C60.6038234,116.1565 58.6838234,121.8985 56.0488234,128.1615 C55.5188234,128.0285 54.9268234,128.5895 55.3348234,129.1465 C56.9808234,131.4065 56.7398234,135.2065 53.9048234,136.4875 C51.9128234,137.3785 49.5368234,136.6605 48.1108234,135.1095 C47.7898234,134.7625 47.5168234,134.3725 47.3068234,133.9455 C47.0718234,133.4725 46.3208234,133.7225 46.5158234,134.2405 C46.6378234,134.5775 46.8048234,134.8995 46.9888234,135.2005 C46.9218234,135.1845 46.8498234,135.1635 46.7648234,135.1685 C33.7998234,135.4005 19.8968234,133.3535 11.7448234,122.0615 C3.02982338,109.9855 4.74382338,95.1265 7.91782338,81.5305 C7.96582338,81.3275 7.90582338,81.1455 7.77882338,81.0115 L8.01382338,80.8035 C8.30782338,81.1455 8.65082338,81.4455 9.03782338,81.7045 C9.38282338,81.9295 9.92082338,81.5365 9.61282338,81.1635 C7.80982338,78.9765 7.24782338,75.5215 9.56882338,73.4135 C12.0778234,71.1405 16.0498234,72.5405 17.3848234,75.3855 C17.7208234,76.0985 18.8408234,75.7125 18.5488234,74.9595 C18.3218234,74.3755 17.9928234,73.8505 17.6038234,73.3755 C24.5278234,74.3825 31.3018234,75.1595 37.8568234,77.8995" id="Fill-226" fill="#F8B033"></path>
            <path d="M49.6636234,92.7629 C50.0296234,92.6929 50.2606234,93.1929 50.0306234,93.4539 C48.7156234,94.9749 46.4836234,96.0789 44.7606234,97.0749 C43.9856234,97.5279 43.0776234,96.8549 43.4096234,95.9749 C44.0976234,94.1509 44.6276234,92.0609 45.6276234,90.3809 C46.0336234,89.6959 47.1746234,89.9209 47.0286234,90.8029 C46.8376234,91.9669 46.4316234,93.1329 45.9856234,94.2789 C47.1846234,93.6119 48.4426234,92.9969 49.6636234,92.7629" id="Fill-228" fill="#1C1C1B"></path>
            <path d="M55.1157234,107.8054 C55.3697234,107.9684 55.3377234,108.4164 55.0937234,108.5674 C54.6767234,108.8354 54.2547234,109.0974 53.8367234,109.3654 C53.3587234,109.6594 52.8597234,108.9754 53.3237234,108.6504 C53.4457234,108.5624 53.5677234,108.4754 53.6887234,108.3884 C52.8967234,108.3794 52.1217234,108.8314 51.8957234,109.6674 C51.7807234,110.1104 51.1047234,110.0184 51.1857234,109.5504 C51.4687234,107.7754 53.6187234,106.8584 55.1157234,107.8054" id="Fill-230" fill="#1C1C1B"></path>
            <path d="M53.9507234,111.2893 C54.4827234,111.6853 54.3527234,112.4203 53.9577234,112.8643 C52.9617234,113.9803 51.0127234,113.7583 50.0417234,112.7623 C49.7247234,112.4443 50.1197234,111.9203 50.4877234,112.2093 C50.9287234,112.5433 51.4647234,112.7443 52.0217234,112.7373 C52.2797234,112.7283 52.5447234,112.6833 52.7847234,112.5823 C53.1467234,112.4273 53.2397234,112.2883 53.3957234,111.9353 C53.1727234,112.4413 52.4157234,112.1013 52.6167234,111.5883 C52.8367234,111.0453 53.4997234,110.9633 53.9507234,111.2893" id="Fill-232" fill="#1C1C1B"></path>
            <path d="M52.2397234,115.6692 C53.4317234,116.0332 54.2957234,117.1132 54.3717234,118.3592 C54.4037234,118.9292 53.5007234,119.0002 53.4937234,118.4432 C53.4837234,117.4242 52.9757234,116.5612 52.0307234,116.1482 C51.7137234,116.0072 51.9287234,115.5712 52.2397234,115.6692" id="Fill-234" fill="#1C1C1B"></path>
            <path d="M37.0112234,102.7092 C39.0832234,105.4732 38.6882234,109.7522 35.7062234,111.7552 C32.7372234,113.7432 28.5592234,112.4492 26.9242234,109.4112 C26.5952234,108.7962 27.4122234,108.1462 27.8342234,108.7572 C29.3122234,110.9052 32.4612234,112.0072 34.7942234,110.4852 C37.1162234,108.9702 37.4402234,105.6422 35.9682234,103.4582 C35.5102234,102.7752 36.5222234,102.0492 37.0112234,102.7092" id="Fill-236" fill="#1C1C1B"></path>
            <path d="M46.5161234,134.2405 C46.3211234,133.7225 47.0721234,133.4725 47.3071234,133.9455 C47.5171234,134.3725 47.7891234,134.7625 48.1111234,135.1095 L47.3791234,135.7785 C47.3741234,136.0395 47.2211234,136.2845 46.8721234,136.3355 C33.9061234,138.1645 18.9141234,134.2755 10.8111234,123.4215 C1.85712338,111.4135 2.46012338,94.8395 6.62112338,81.1445 C6.78512338,80.6105 7.47212338,80.6625 7.77912338,81.0115 C7.90612338,81.1455 7.96512338,81.3275 7.91712338,81.5305 C4.74412338,95.1265 3.03012338,109.9855 11.7451234,122.0615 C19.8971234,133.3535 33.8001234,135.4005 46.7651234,135.1685 C46.8501234,135.1635 46.9211234,135.1845 46.9891234,135.2005 C46.8051234,134.8995 46.6381234,134.5775 46.5161234,134.2405" id="Fill-238" fill="#1C1C1B"></path>
            <path d="M12.0591234,90.7991 C13.1171234,89.3341 15.9011234,90.8091 15.1781234,92.5071 C14.9961234,92.9351 14.3441234,92.7201 14.4131234,92.2781 C14.5521234,91.4011 13.2941234,90.5301 12.5991234,91.2381 C12.2861234,91.5511 11.7931234,91.1661 12.0591234,90.7991" id="Fill-240" fill="#1C1C1B"></path>
            <path d="M9.93902338,90.2268 C10.1550234,89.8558 10.7290234,90.0848 10.5620234,90.5018 C10.3550234,90.9958 10.3760234,91.5268 10.5980234,92.0168 C10.8140234,92.4958 11.1910234,92.7298 11.5710234,93.0588 C11.9030234,93.3418 11.6730234,93.9398 11.2160234,93.8508 C9.68302338,93.5468 9.24902338,91.4208 9.93902338,90.2268" id="Fill-242" fill="#1C1C1B"></path>
            <path d="M13.3442234,98.2117 C13.7752234,98.0307 14.0222234,98.6317 13.7072234,98.8977 C12.4002234,100.0037 10.2492234,99.1087 9.76222338,97.5817 C9.64122338,97.2117 10.1392234,97.0547 10.3152234,97.3777 C10.9052234,98.5027 12.2732234,98.6757 13.3442234,98.2117" id="Fill-244" fill="#1C1C1B"></path>
            <path d="M19.2280234,115.6882 C20.1360234,115.7022 20.4640234,116.6622 19.8200234,117.2612 C19.1410234,117.8922 18.4540234,118.5212 17.7670234,119.1512 C17.1440234,119.7262 16.5550234,120.3812 15.7580234,120.7132 C15.2570234,120.9202 14.7180234,120.3362 14.9570234,119.8522 C15.3320234,119.0782 16.0180234,118.5372 16.6290234,117.9462 C16.8460234,117.7342 17.0680234,117.5192 17.2860234,117.3072 C15.9960234,117.1982 14.6980234,116.9662 13.5440234,116.4542 C12.7520234,116.1002 13.1610234,114.9802 13.9650234,115.0612 C15.7400234,115.2312 17.4340234,115.6592 19.2280234,115.6882" id="Fill-246" fill="#1C1C1B"></path>
            <g id="Group-250" transform="translate(47.213823, 0.000000)">
                <mask id="mask-2" fill="white">
                    <use xlink:href="#path-1"></use>
                </mask>
                <g id="Clip-249"></g>
                <path d="M56.0435,13.8811 C52.0255,12.3271 47.0845,11.5221 42.2635,11.8171 C42.7905,10.9921 43.1725,10.0571 43.2865,8.8861 C43.4775,6.9491 41.8065,5.3261 40.1405,4.7531 C40.0445,4.7201 39.9485,4.6871 39.8545,4.6541 C37.8065,3.9501 35.4825,5.4131 34.7705,7.3741 C34.5965,7.4391 34.3475,7.6761 34.0225,8.0921 C33.7715,8.3421 33.5265,8.5981 33.2895,8.8601 C29.0575,3.4351 22.3835,0.3641 15.2845,0.6961 C12.3775,0.8321 10.6185,3.7981 12.0145,6.3961 C13.6625,9.4621 15.7905,12.1251 18.2945,14.3581 C4.3545,19.6101 -1.5205,37.9041 0.9315,52.3891 C2.3405,60.7151 6.5535,68.6581 13.3035,73.8441 C19.3895,78.5201 27.5995,79.9211 33.5405,75.5671 C52.0605,86.7121 67.8055,53.2991 70.1705,38.7721 C71.9825,27.6411 66.6055,17.9671 56.0435,13.8811" id="Fill-248" fill="#F4F4F4" mask="url(#mask-2)"></path>
            </g>
            <path d="M69.5366234,11.3005 C71.8496234,14.9375 75.0046234,16.2475 78.7776234,16.4295 C74.8926234,12.9295 70.7946234,9.6975 66.5316234,6.6735 C67.6986234,8.0355 68.5196234,9.6975 69.5366234,11.3005 M78.9866234,15.0415 C76.7116234,10.1275 72.0576234,6.7905 66.7726234,6.0605 C71.1066234,8.6875 75.1806234,11.7045 78.9866234,15.0415 M80.9616234,20.1965 C80.9476234,19.3685 80.9936234,18.5285 81.1106234,17.7005 C79.5666234,18.0135 77.9436234,18.0655 76.3726234,17.8375 C78.0346234,18.2935 79.5866234,19.0555 80.9616234,20.1965 M109.043623,43.2355 C111.233623,35.2445 109.695623,26.7395 102.748623,21.5515 C97.5346234,17.6675 87.9796234,15.6675 82.9686234,20.8285 C82.9486234,22.0925 83.0656234,23.4035 83.3266234,24.7715 C83.3336234,24.8235 83.3266234,24.8635 83.3266234,24.9085 C84.1356234,24.9085 84.9626234,24.7265 85.7906234,24.3025 C86.1876234,24.1005 86.5146234,24.6605 86.1416234,24.9025 C83.3406234,26.7335 78.7976234,26.4665 77.0766234,23.2075 C76.7376234,22.5695 77.5586234,21.9045 78.0876234,22.4255 C79.1366234,23.4745 80.4006234,24.3155 81.7636234,24.6935 C81.4106234,23.7225 81.1826234,22.7055 81.0586234,21.6695 C75.0626234,17.2185 66.5056234,18.8475 60.5226234,22.5755 C53.6076234,26.8895 51.8676234,35.3165 52.2716234,42.9545 C52.6696234,50.6125 55.5626234,58.1135 60.4376234,64.0315 C65.0856234,69.6695 75.1346234,75.3455 80.7256234,67.5185 C81.3516234,66.6445 82.8116234,67.4855 82.1806234,68.3725 C82.0566234,68.5485 81.9196234,68.7175 81.7886234,68.8865 C81.8666234,68.9005 81.9516234,68.9255 82.0366234,68.9655 C88.9576234,72.5045 96.8176234,68.4115 101.027623,62.6235 C105.094623,57.0455 107.245623,49.8305 109.043623,43.2355 M101.953623,19.1015 C108.972623,23.2595 112.654623,31.4385 111.558623,39.4555 C110.842623,44.6885 108.932623,49.9935 107.010623,54.9015 C105.550623,58.6355 103.745623,62.2845 101.105623,65.3415 C96.2436234,70.9665 88.1036234,74.0155 81.1696234,70.4445 C80.9476234,70.3335 80.8306234,70.1715 80.7716234,69.9945 C75.6756234,74.8765 67.7116234,72.9995 62.5626234,68.5735 C55.6476234,62.6365 51.5816234,53.4865 50.7216234,44.5255 C49.8926234,35.8575 51.7766234,26.0165 59.6696234,21.1225 C63.8526234,18.5345 69.6006234,16.7365 74.7046234,17.4915 C73.5176234,17.1465 72.3846234,16.6185 71.3676234,15.8755 C67.7246234,13.2235 67.2236234,7.7745 63.0386234,5.8395 C62.3146234,5.5005 62.7516234,4.4965 63.4166234,4.4575 C71.2046234,3.9365 78.3146234,8.8175 80.7916234,16.1885 C80.8176234,16.2795 80.8246234,16.3585 80.8176234,16.4295 C80.9936234,16.4235 81.1766234,16.4095 81.3516234,16.3975 C82.0496234,13.3535 83.6266234,10.5055 85.9466234,8.4915 C86.9706234,7.6055 88.3326234,8.9605 87.4326234,9.9775 C85.0406234,12.6555 83.6266234,15.4915 83.1506234,18.6125 C87.5436234,14.2795 97.5346234,16.4815 101.953623,19.1015" id="Fill-251" fill="#1C1C1B"></path>
            <path d="M62.5044234,53.6628 C63.5214234,53.6558 63.7754234,52.3718 62.9994234,51.8378 C61.2534234,50.6518 59.5134234,49.2438 57.6164234,48.3118 C56.7624234,47.8948 55.7524234,48.9898 56.5404234,49.7008 C57.4594234,50.5208 58.4894234,51.2388 59.5454234,51.9228 C58.7894234,51.9808 58.0264234,52.0268 57.2774234,52.0918 C56.2934234,52.1768 56.2614234,53.6238 57.2774234,53.6368 C59.0174234,53.6688 60.7644234,53.6688 62.5044234,53.6628 M79.3774234,56.7848 C81.6514234,60.3298 88.0454234,58.5768 87.1854234,53.4668 C87.0344234,52.5938 85.5494234,52.7888 85.6274234,53.6828 C85.9534234,57.5078 80.9284234,58.3418 80.2834234,54.4768 C80.1404234,53.6238 78.9074234,53.7538 78.6874234,54.4768 C78.5434234,54.8618 78.4064234,55.2458 78.2634234,55.6308 C77.0834234,57.4488 76.2104234,57.5728 75.6434234,56.0088 C74.7824234,54.7378 75.1024234,54.4968 75.7674234,53.2388 C76.0214234,52.7498 75.3434234,52.1438 74.9584234,52.6138 C73.6154234,54.2558 72.4304234,56.9538 74.8674234,58.2568 C76.7504234,59.2608 78.3604234,58.2568 79.3774234,56.7848 M103.412423,49.3808 C104.416423,48.7938 103.536423,47.3278 102.513423,47.8358 C100.630423,48.7748 98.7464234,49.6478 96.7524234,50.3388 C95.9184234,50.6258 95.8534234,51.8448 96.7524234,52.1048 C98.5514234,52.6328 100.415423,53.2128 102.266423,53.5058 C102.983423,53.6168 103.621423,52.5608 102.813423,52.2088 C101.855423,51.7858 100.852423,51.4338 99.8414234,51.1148 C101.067423,50.6058 102.272423,50.0388 103.412423,49.3808 M102.748423,21.5518 C109.695423,26.7398 111.233423,35.2448 109.043423,43.2348 C107.245423,49.8298 105.094423,57.0448 101.027423,62.6238 C96.8174234,68.4118 88.9574234,72.5038 82.0364234,68.9648 C81.9514234,68.9258 81.8664234,68.8998 81.7884234,68.8868 C81.9194234,68.7178 82.0564234,68.5478 82.1804234,68.3718 C82.8124234,67.4858 81.3524234,66.6448 80.7264234,67.5178 C75.1344234,75.3458 65.0854234,69.6688 60.4384234,64.0318 C55.5634234,58.1138 52.6694234,50.6128 52.2724234,42.9548 C51.8674234,35.3168 53.6084234,26.8898 60.5234234,22.5758 C66.5054234,18.8478 75.0634234,17.2188 81.0594234,21.6698 C81.1834234,22.7058 81.4104234,23.7228 81.7634234,24.6938 C80.4004234,24.3158 79.1364234,23.4748 78.0874234,22.4258 C77.5594234,21.9038 76.7374234,22.5688 77.0764234,23.2078 C78.7974234,26.4658 83.3404234,26.7338 86.1424234,24.9018 C86.5144234,24.6608 86.1884234,24.1008 85.7904234,24.3028 C84.9624234,24.7258 84.1354234,24.9088 83.3264234,24.9088 C83.3264234,24.8628 83.3334234,24.8238 83.3264234,24.7718 C83.0664234,23.4028 82.9484234,22.0928 82.9684234,20.8288 C87.9804234,15.6668 97.5344234,17.6678 102.748423,21.5518" id="Fill-253" fill="#ED1C24"></path>
            <path d="M102.513223,47.8362 C103.536223,47.3282 104.416223,48.7942 103.412223,49.3802 C102.272223,50.0392 101.067223,50.6062 99.8412234,51.1142 C100.852223,51.4342 101.855223,51.7862 102.813223,52.2092 C103.621223,52.5612 102.983223,53.6172 102.266223,53.5062 C100.415223,53.2132 98.5512234,52.6332 96.7522234,52.1052 C95.8532234,51.8442 95.9182234,50.6262 96.7522234,50.3392 C98.7462234,49.6482 100.630223,48.7742 102.513223,47.8362" id="Fill-255" fill="#1C1C1B"></path>
            <path d="M87.1851234,53.467 C88.0451234,58.577 81.6521234,60.33 79.3771234,56.784 C78.3611234,58.257 76.7501234,59.261 74.8681234,58.257 C72.4301234,56.954 73.6161234,54.256 74.9581234,52.613 C75.3431234,52.144 76.0211234,52.75 75.7671234,53.239 C75.1021234,54.497 74.7831234,54.738 75.6431234,56.009 C76.2101234,57.573 77.0831234,57.449 78.2631234,55.631 C78.4071234,55.246 78.5431234,54.862 78.6871234,54.477 C78.9081234,53.754 80.1401234,53.624 80.2841234,54.477 C80.9281234,58.342 85.9541234,57.508 85.6271234,53.682 C85.5491234,52.789 87.0351234,52.594 87.1851234,53.467" id="Fill-257" fill="#1C1C1B"></path>
            <path d="M66.7729234,6.0608 C72.0579234,6.7908 76.7109234,10.1278 78.9869234,15.0418 C75.1799234,11.7048 71.1069234,8.6868 66.7729234,6.0608" id="Fill-259" fill="#03963A"></path>
            <path d="M78.7778234,16.4299 C75.0048234,16.2469 71.8498234,14.9369 69.5368234,11.3009 C68.5198234,9.6979 67.6988234,8.0349 66.5318234,6.6739 C70.7948234,9.6979 74.8928234,12.9299 78.7778234,16.4299" id="Fill-261" fill="#03963A"></path>
            <path d="M62.9995234,51.8376 C63.7745234,52.3726 63.5205234,53.6556 62.5045234,53.6626 C60.7645234,53.6696 59.0175234,53.6696 57.2775234,53.6366 C56.2615234,53.6236 56.2935234,52.1766 57.2775234,52.0916 C58.0265234,52.0266 58.7895234,51.9816 59.5455234,51.9226 C58.4895234,51.2386 57.4595234,50.5216 56.5405234,49.7006 C55.7525234,48.9896 56.7625234,47.8946 57.6165234,48.3126 C59.5135234,49.2436 61.2535234,50.6516 62.9995234,51.8376" id="Fill-263" fill="#1C1C1B"></path>
        </g>
    </g>
</svg>