<?xml version="1.0" encoding="UTF-8"?>
<svg width="92px" height="93px" viewBox="0 0 92 93" version="1.1" xmlns="http://www.w3.org/2000/svg" xmlns:xlink="http://www.w3.org/1999/xlink">
    <!-- Generator: Sketch 53.1 (72631) - https://sketchapp.com -->
    <title>Group 86sticker14</title>
    <desc>Created with Sketch.</desc>
    <g id="Page-1" stroke="none" stroke-width="1" fill="none" fill-rule="evenodd">
        <g id="Group-86">
            <g id="Group-293">
                <path d="M84.8287,14.2273 C83.3337,11.6853 81.5417,9.1563 79.3107,7.1613 C78.2447,6.1043 77.0547,5.1733 75.7087,4.4273 C72.0947,2.4233 67.9557,1.7583 63.8937,1.3623 C53.0907,0.3103 42.0827,0.8893 31.4327,2.9763 C23.5897,4.5123 15.5557,7.1963 9.4587,12.5573 C-4.0683,24.4523 0.3617,44.6963 8.9627,58.2033 C15.6457,73.7203 26.4507,89.8023 44.3807,92.5083 C52.0157,93.6603 60.0507,92.0753 66.2487,87.5603 C70.0157,87.8013 83.3437,89.2713 79.4707,85.2553 C77.5817,83.2953 76.0577,81.0173 74.3277,78.9163 C83.9787,67.7663 90.7547,54.0553 91.0467,39.0633 C91.2147,30.4633 89.2067,21.6693 84.8287,14.2273" id="Fill-287" fill="#FFFDFE"></path>
                <path d="M82.2789,16.3669 C80.8829,13.9919 79.2079,11.6289 77.1239,9.7639 C76.1279,8.7769 75.0149,7.9069 73.7579,7.2089 C70.3809,5.3369 66.5119,4.7159 62.7169,4.3459 C52.6229,3.3629 42.3359,3.9039 32.3849,5.8529 C25.0559,7.2889 17.5499,9.7969 11.8519,14.8059 C-0.7891,25.9219 3.3509,44.8389 11.3879,57.4599 C17.6329,71.9589 27.7299,86.9859 44.4839,89.5139 C51.6179,90.5909 59.1269,89.1099 64.9179,84.8909 C68.8019,85.1389 72.6989,85.2109 76.5969,85.0949 C76.8739,85.0859 76.9859,84.7139 76.7399,84.5689 C74.2599,83.1139 72.2689,81.0209 70.8889,78.5859 C80.7409,67.8649 87.8009,54.3879 88.0899,39.5749 C88.2459,31.5379 86.3709,23.3209 82.2789,16.3669" id="Fill-289" fill="#B1F0F2"></path>
                <path d="M82.2789,16.3669 C80.8829,13.9919 79.2079,11.6289 77.1239,9.7639 C76.1279,8.7769 75.0149,7.9069 73.7579,7.2089 C70.3809,5.3369 66.5119,4.7159 62.7169,4.3459 C52.6229,3.3629 42.3359,3.9039 32.3849,5.8529 C25.0559,7.2889 17.5499,9.7969 11.8519,14.8059 C-0.7891,25.9219 3.3509,44.8389 11.3879,57.4599 C17.6329,71.9589 27.7299,86.9859 44.4839,89.5139 C51.6179,90.5909 59.1269,89.1099 64.9179,84.8909 C68.8019,85.1389 72.6989,85.2109 76.5969,85.0949 C76.8739,85.0859 76.9859,84.7139 76.7399,84.5689 C74.2599,83.1139 72.2689,81.0209 70.8889,78.5859 C80.7409,67.8649 87.8009,54.3879 88.0899,39.5749 C88.2459,31.5379 86.3709,23.3209 82.2789,16.3669 Z" id="Stroke-291" stroke="#020202"></path>
            </g>
            <text id="FUN!-" font-family="Amatic-Bold, Amatic" font-size="40.588" font-style="condensed" font-weight="bold" fill="#000000">
                <tspan x="26.7969" y="55.6487625">FUN! </tspan>
            </text>
        </g>
    </g>
</svg>