<?xml version="1.0" encoding="UTF-8"?>
<svg width="90px" height="100px" viewBox="0 0 90 100" version="1.1" xmlns="http://www.w3.org/2000/svg" xmlns:xlink="http://www.w3.org/1999/xlink">
    <!-- Generator: Sketch 53.1 (72631) - https://sketchapp.com -->
    <title>Group 87sticker5</title>
    <desc>Created with Sketch.</desc>
    <g id="Page-1" stroke="none" stroke-width="1" fill="none" fill-rule="evenodd">
        <g id="Group-87">
            <path d="M65.0579328,76.0207023 C64.8979328,75.8587023 64.7169328,75.7227023 64.5239328,75.6067023 C64.8419328,75.4487023 65.1529328,75.2757023 65.4639328,75.1047023 C65.3239328,75.4077023 65.1929328,75.7147023 65.0579328,76.0207023 M84.1479328,12.9397023 C79.1309328,6.34170226 71.3159328,2.56670226 63.3099328,1.01270226 C45.5399328,-2.43729774 24.9819328,2.97470226 12.5879328,16.5277023 C8.1369328,21.3947023 4.7919328,27.1877023 2.8409328,33.3437023 C-2.1960672,43.9567023 0.0259328025,58.3857023 5.1289328,68.4407023 C8.8889328,75.8477023 14.2379328,82.9167023 22.8549328,84.5177023 C27.4459328,85.3697023 32.1069328,84.8467023 36.6839328,84.1627023 C38.3889328,83.9087023 40.1279328,83.6917023 41.7989328,83.3347023 C43.1129328,83.2927023 44.4199328,83.3547023 45.7199328,83.6207023 C51.0489328,84.7077023 55.0689328,89.4587023 55.9719328,94.5857023 C57.7499328,104.681702 64.5339328,96.5357023 64.9349328,95.8447023 C69.5859328,87.8487023 72.7449328,79.2237023 74.2859328,70.0997023 C74.4149328,69.3327023 87.2209328,47.9337023 89.0599328,38.0807023 C90.6689328,29.4577023 89.5699328,20.0727023 84.1479328,12.9397023" id="Fill-265" fill="#FFFDFE"></path>
            <path d="M80.5052328,16.2790023 C75.9592328,10.3000023 68.8772328,6.87900226 61.6212328,5.47000226 C45.5192328,2.34400226 26.8882328,7.24800226 15.6572328,19.5300023 C4.8462328,31.3530023 1.2232328,49.1960023 9.8762328,63.2780023 C14.1902328,70.2970023 21.0792328,75.6840023 29.1952328,77.4480023 C35.7682328,78.8770023 49.4632328,76.7300023 49.8562328,76.7520023 C56.8112328,77.1320023 58.0062328,85.4490023 58.7732328,90.8430023 C59.0702328,92.9420023 62.1582328,93.0170023 63.0942328,91.4080023 C67.3092328,84.1610023 70.1712328,76.3460023 71.5682328,68.0770023 C71.6862328,67.3820023 83.2902328,47.9910023 84.9562328,39.0620023 C86.4142328,31.2480023 85.4182328,22.7430023 80.5052328,16.2790023" id="Fill-267" fill="#DF51CD"></path>
            <path d="M80.5052328,16.2790023 C75.9592328,10.3000023 68.8772328,6.87900226 61.6212328,5.47000226 C45.5192328,2.34400226 26.8882328,7.24800226 15.6572328,19.5300023 C4.8462328,31.3530023 1.2232328,49.1960023 9.8762328,63.2780023 C14.1902328,70.2970023 21.0792328,75.6840023 29.1952328,77.4480023 C35.7682328,78.8770023 49.4632328,76.7300023 49.8562328,76.7520023 C56.8112328,77.1320023 58.0062328,85.4490023 58.7732328,90.8430023 C59.0702328,92.9420023 62.1582328,93.0170023 63.0942328,91.4080023 C67.3092328,84.1610023 70.1712328,76.3460023 71.5682328,68.0770023 C71.6862328,67.3820023 83.2902328,47.9910023 84.9562328,39.0620023 C86.4142328,31.2480023 85.4182328,22.7430023 80.5052328,16.2790023 Z" id="Stroke-269" stroke="#020202"></path>
            <text id="ok!" font-family="Amatic-Bold, Amatic" font-size="50.2525" font-style="condensed" font-weight="bold" fill="#020202">
                <tspan x="26.8425328" y="54.8532257">ok!</tspan>
            </text>
        </g>
    </g>
</svg>