<?xml version="1.0" encoding="UTF-8"?>
<svg width="91px" height="93px" viewBox="0 0 91 93" version="1.1" xmlns="http://www.w3.org/2000/svg" xmlns:xlink="http://www.w3.org/1999/xlink">
    <!-- Generator: Sketch 53.1 (72631) - https://sketchapp.com -->
    <title>Group 10116</title>
    <desc>Created with Sketch.</desc>
    <g id="Page-1" stroke="none" stroke-width="1" fill="none" fill-rule="evenodd">
        <g id="Group-101" transform="translate(0.000294, 0.451090)">
            <path d="M83.9804061,13.3781103 C82.4854061,10.8361103 80.6934061,8.30711029 78.4624061,6.31211029 C77.3964061,5.25511029 76.2064061,4.32411029 74.8604061,3.57811029 C71.2464061,1.57411029 67.1074061,0.909110286 63.0454061,0.513110286 C52.2424061,-0.538889714 41.2344061,0.0401102861 30.5844061,2.12711029 C22.7414061,3.66311029 14.7074061,6.34711029 8.61040613,11.7081103 C-4.91659387,23.6031103 -0.486593869,43.8471103 8.11440613,57.3541103 C14.7974061,72.8711103 25.6024061,88.9531103 43.5324061,91.6591103 C51.1674061,92.8111103 59.2024061,91.2261103 65.4004061,86.7111103 C69.1674061,86.9521103 82.4954061,88.4221103 78.6224061,84.4061103 C76.7334061,82.4461103 75.2094061,80.1681103 73.4794061,78.0671103 C83.1304061,66.9171103 89.9064061,53.2061103 90.1984061,38.2141103 C90.3664061,29.6141103 88.3584061,20.8201103 83.9804061,13.3781103" id="Fill-58" fill="#FFFDFE"></path>
            <path d="M81.4306061,15.5177103 C80.0346061,13.1427103 78.3596061,10.7797103 76.2756061,8.91471029 C75.2796061,7.92771029 74.1666061,7.05771029 72.9096061,6.35971029 C69.5326061,4.48771029 65.6636061,3.86671029 61.8686061,3.49671029 C51.7746061,2.51371029 41.4876061,3.05471029 31.5366061,5.00371029 C24.2076061,6.43971029 16.7006061,8.94771029 11.0036061,13.9567103 C-1.63739387,25.0727103 2.50260613,43.9897103 10.5396061,56.6107103 C16.7846061,71.1097103 26.8816061,86.1367103 43.6356061,88.6647103 C50.7696061,89.7417103 58.2786061,88.2607103 64.0696061,84.0417103 C67.9536061,84.2897103 71.8506061,84.3617103 75.7486061,84.2457103 C76.0256061,84.2367103 76.1376061,83.8647103 75.8916061,83.7197103 C73.4116061,82.2647103 71.4206061,80.1717103 70.0406061,77.7367103 C79.8926061,67.0157103 86.9526061,53.5387103 87.2416061,38.7257103 C87.3976061,30.6887103 85.5226061,22.4717103 81.4306061,15.5177103" id="Fill-60" fill="#B1F0F2"></path>
            <path d="M51.8984061,3.51331029 C45.1494061,3.51331029 38.3674061,4.17531029 31.6324061,5.49431029 C22.7614061,7.23231029 16.1214061,10.1233103 11.3344061,14.3323103 C2.67840613,21.9423103 -0.792593869,37.8833103 10.9614061,56.3423103 C19.1984061,75.4473103 30.2044061,86.1323103 43.7104061,88.1703103 C50.9974061,89.2723103 58.3084061,87.6193103 63.7754061,83.6383103 L63.9204061,83.5323103 L64.1014061,83.5433103 C67.7464061,83.7763103 71.4124061,83.8513103 75.0134061,83.7643103 C72.8014061,82.3263103 70.9414061,80.3393103 69.6064061,77.9833103 L69.4264061,77.6663103 L69.6724061,77.3983103 C77.2774061,69.1223103 86.4114061,55.6933103 86.7414061,38.7153103 C86.9014061,30.4843103 84.8624061,22.3353103 81.0004061,15.7713103 C79.3644061,12.9903103 77.7104061,10.8693103 75.9424061,9.28731029 C74.9094061,8.26431029 73.8134061,7.43231029 72.6674061,6.79731029 C69.3074061,4.93531029 65.4684061,4.34931029 61.8204061,3.99431029 C58.5294061,3.67331029 55.2164061,3.51331029 51.8984061,3.51331029 M48.1324061,89.5033103 C46.6174061,89.5033103 45.0884061,89.3903103 43.5614061,89.1593103 C29.6894061,87.0663103 18.4254061,76.1813103 10.0814061,56.8083103 C5.65040613,49.8633103 2.95140613,42.0043103 2.51840613,34.7493103 C1.99940613,26.0493103 4.81940613,18.7293103 10.6734061,13.5813103 C15.5974061,9.25231029 22.3904061,6.28631029 31.4414061,4.51331029 C41.5814061,2.52731029 51.8354061,2.01731029 61.9184061,2.99931029 C65.6724061,3.36531029 69.6324061,3.97231029 73.1514061,5.92231029 C74.3784061,6.60231029 75.5474061,7.49031029 76.6274061,8.56031029 C78.4554061,10.1943103 80.1724061,12.3923103 81.8614061,15.2643103 C85.8164061,21.9863103 87.9044061,30.3213103 87.7414061,38.7353103 C87.4084061,55.8403103 78.3284061,69.3793103 70.6584061,77.8033103 C72.0194061,80.0853103 73.9104061,81.9773103 76.1444061,83.2883103 C76.4454061,83.4653103 76.5884061,83.8113103 76.5034061,84.1503103 C76.4144061,84.4953103 76.1174061,84.7343103 75.7634061,84.7453103 C71.9614061,84.8573103 68.0784061,84.7943103 64.2164061,84.5523103 C59.7134061,87.7813103 54.0334061,89.5033103 48.1324061,89.5033103" id="Fill-62" fill="#020202"></path>
            <path d="M30.5068061,55.6960103 L30.4068061,55.9530103 C30.4598061,56.1120103 30.4858061,56.3200103 30.4858061,56.5780103 C30.4858061,56.8360103 30.3608061,57.0700103 30.1108061,57.2810103 C29.8598061,57.4930103 29.5278061,57.5980103 29.1188061,57.5980103 C28.3398061,57.5980103 27.9498061,56.7330103 27.9498061,55.0020103 C27.9498061,52.4260103 27.8148061,47.5570103 27.5438061,40.3960103 C27.2728061,33.2350103 26.9988061,29.4440103 26.7208061,29.0200103 C26.7348061,27.6200103 27.6928061,26.8740103 29.5948061,26.7810103 C29.8858061,26.7680103 30.2778061,26.7610103 30.7748061,26.7610103 C31.2698061,26.7610103 31.6588061,26.8540103 31.9438061,27.0390103 C32.2278061,27.2240103 32.3688061,27.6000103 32.3688061,28.1680103 C32.3688061,28.7370103 31.9928061,29.0200103 31.2388061,29.0200103 L30.2488061,28.9810103 C29.4958061,28.9810103 29.1188061,29.1330103 29.1188061,29.4370103 C29.1188061,30.6920103 29.2188061,32.5310103 29.4158061,34.9560103 C29.6138061,37.3810103 29.7208061,39.1740103 29.7338061,40.3370103 C29.9048061,40.3100103 30.1368061,40.2580103 30.4268061,40.1780103 C31.1138061,39.9930103 31.6228061,39.9010103 31.9528061,39.9010103 C32.2828061,39.9010103 32.5578061,40.0290103 32.7758061,40.2870103 C32.9938061,40.5450103 33.1028061,40.8320103 33.1028061,41.1490103 C33.1028061,42.0340103 31.9798061,42.4770103 29.7338061,42.4770103 C29.7338061,43.9440103 29.8618061,46.1430103 30.1198061,49.0760103 C30.3778061,52.0090103 30.5068061,54.2170103 30.5068061,55.6960103" id="Fill-64" fill="#000000"></path>
            <path d="M34.7275061,35.4611103 L34.7675061,29.1191103 C34.5695061,28.8951103 34.4695061,28.6171103 34.4695061,28.2871103 C34.4695061,27.9571103 34.5855061,27.6661103 34.8175061,27.4151103 C35.0475061,27.1641103 35.3225061,27.0391103 35.6395061,27.0391103 C36.6175061,27.0391103 37.1065061,28.0031103 37.1065061,29.9321103 L37.4825061,44.0431103 C37.6415061,44.3991103 37.7765061,45.1201103 37.8885061,46.2031103 C38.0005061,47.2861103 38.0575061,48.1281103 38.0575061,48.7301103 C38.0575061,49.3311103 38.1535061,50.0711103 38.3445061,50.9491103 C38.5365061,51.8281103 38.8005061,52.7161103 39.1375061,53.6151103 C39.4745061,54.5131103 39.9295061,55.2791103 40.5045061,55.9141103 C41.0805061,56.5481103 41.6245061,56.8651103 42.1395061,56.8651103 C42.6555061,56.8651103 43.0385061,56.7431103 43.2895061,56.4991103 C43.5405061,56.2541103 43.7115061,55.9071103 43.8045061,55.4581103 C43.9505061,54.7451103 44.0225061,53.9981103 44.0225061,53.2181103 L44.0225061,45.2911103 C44.0225061,44.4321103 43.9365061,43.1581103 43.7645061,41.4661103 C43.5925061,39.7751103 43.5075061,38.5001103 43.5075061,37.6411103 L43.5075061,37.3641103 L43.4275061,35.0051103 L43.1305061,28.0491103 C43.1305061,27.7191103 43.2955061,27.4521103 43.6255061,27.2471103 C43.9565061,27.0421103 44.2995061,26.9401103 44.6575061,26.9401103 L45.6475061,27.8911103 L45.6475061,28.5651103 L45.3505061,31.0421103 C45.3505061,33.3011103 45.4725061,36.7031103 45.7165061,41.2481103 C45.9605061,45.7941103 46.0835061,48.8681103 46.0835061,50.4741103 C46.0835061,52.0791103 46.0605061,53.1491103 46.0145061,53.6841103 C45.9675061,54.2191103 45.8665061,54.7911103 45.7065061,55.3981103 C45.5485061,56.0061103 45.3315061,56.5081103 45.0525061,56.9051103 C44.4055061,57.8291103 43.4155061,58.2921103 42.0805061,58.2921103 C40.4285061,58.3051103 39.1005061,57.5851103 38.0965061,56.1321103 C37.0405061,54.5991103 36.2995061,52.7631103 35.8765061,50.6221103 C35.3745061,48.0991103 35.0715061,45.8861103 34.9655061,43.9831103 C34.8065061,41.1161103 34.7275061,38.2751103 34.7275061,35.4611103" id="Fill-66" fill="#000000"></path>
            <path d="M48.8779061,36.2936103 L49.1549061,28.8416103 L49.1549061,28.5846103 C49.1549061,27.2366103 49.4519061,26.5626103 50.0469061,26.5626103 C50.5889061,26.5626103 51.3159061,27.8176103 52.2269061,30.3286103 C53.8919061,34.8866103 55.8869061,42.4106103 58.2119061,52.9016103 L58.2519061,53.0996103 L58.4099061,38.9496103 L58.4099061,26.9396103 C58.5679061,26.2656103 59.0119061,25.9286103 59.7379061,25.9286103 C60.4649061,25.9286103 60.8279061,26.4576103 60.8279061,27.5146103 L60.8279061,27.7516103 C60.6699061,28.0826103 60.5899061,28.4786103 60.5899061,28.9406103 L60.3329061,43.9436103 L60.3329061,56.3496103 C60.3329061,56.7596103 60.2209061,57.1626103 59.9959061,57.5586103 C59.7709061,57.9556103 59.4929061,58.1536103 59.1629061,58.1536103 C58.5949061,58.1536103 57.4849061,55.3686103 55.8339061,49.7996103 C54.1829061,44.2306103 52.5509061,38.2426103 50.9389061,31.8346103 L50.9389061,45.1526103 C50.9389061,46.4476103 51.0339061,48.3766103 51.2269061,50.9396103 C51.4169061,53.5026103 51.5139061,55.4316103 51.5139061,56.7266103 C51.5139061,56.9776103 51.3609061,57.1856103 51.0579061,57.3506103 C50.7539061,57.5156103 50.3669061,57.5986103 49.8989061,57.5986103 C49.4289061,57.5986103 49.1939061,57.3876103 49.1939061,56.9636103 L49.3929061,54.0506103 C49.3929061,52.6506103 49.3069061,50.3776103 49.1359061,47.2336103 C48.9639061,44.0886103 48.8779061,42.1666103 48.8779061,41.4666103 L48.8779061,36.2936103 Z" id="Fill-68" fill="#000000"></path>
            <path d="M65.7636061,46.7975103 L65.8026061,48.7195103 C65.8026061,50.5695103 65.5516061,51.4945103 65.0496061,51.4945103 C64.7726061,51.4945103 64.5176061,51.1645103 64.2866061,50.5035103 C64.0556061,49.8425103 63.9396061,49.0105103 63.9396061,48.0065103 L64.0986061,41.2875103 L63.9006061,27.9695103 C63.9006061,27.5475103 64.0786061,27.1805103 64.4356061,26.8705103 C64.7916061,26.5595103 65.1486061,26.4045103 65.5056061,26.4045103 C65.8626061,26.4045103 66.1366061,26.5005103 66.3276061,26.6915103 C66.5196061,26.8835103 66.6156061,27.1175103 66.6156061,27.3955103 C66.6156061,29.5625103 66.4736061,32.7985103 66.1896061,37.1065103 C65.9056061,41.4135103 65.7636061,44.6445103 65.7636061,46.7975103 M66.3186061,57.0435103 C66.3186061,57.9945103 65.6506061,58.4705103 64.3166061,58.4705103 C64.0126061,58.4705103 63.7116061,58.3285103 63.4146061,58.0445103 C63.1176061,57.7595103 62.9686061,57.3835103 62.9686061,56.9145103 C62.9686061,56.4455103 63.1336061,56.0225103 63.4636061,55.6465103 C63.7936061,55.2695103 64.2036061,55.0815103 64.6936061,55.0815103 C65.1816061,55.0815103 65.5756061,55.2735103 65.8716061,55.6565103 C66.1696061,56.0395103 66.3186061,56.5025103 66.3186061,57.0435103" id="Fill-70" fill="#000000"></path>
        </g>
    </g>
</svg>