<?xml version="1.0" encoding="UTF-8"?>
<svg width="104px" height="51px" viewBox="0 0 104 51" version="1.1" xmlns="http://www.w3.org/2000/svg" xmlns:xlink="http://www.w3.org/1999/xlink">
    <!-- Generator: Sketch 53.1 (72631) - https://sketchapp.com -->
    <title>Group 83sticker18</title>
    <desc>Created with Sketch.</desc>
    <g id="Page-1" stroke="none" stroke-width="1" fill="none" fill-rule="evenodd">
        <g id="Group-83">
            <path d="M14.0532961,39.3595668 C14.0122961,39.2245668 13.9822961,39.0845668 13.9432961,38.9485668 C15.3302961,39.2945668 16.8162961,39.3425668 18.2422961,39.4805668 L18.7612961,39.5295668 L15.9662961,39.4285668 C15.3282961,39.4055668 14.6912961,39.3825668 14.0532961,39.3595668 M95.7772961,7.47356676 C91.5442961,11.1815668 87.4162961,15.0005668 83.3822961,18.9155668 C82.0372961,13.6075668 80.3372961,8.40556676 78.2702961,3.31556676 C77.1992961,0.676566756 73.2082961,-1.53543324 70.9472961,1.38156676 C68.4062961,4.65856676 65.9702961,8.00256676 63.6282961,11.4125668 C62.5822961,8.93056676 61.5382961,6.44756676 60.4932961,3.96556676 C59.3682961,1.29256676 55.5092961,-0.836433244 53.1692961,2.03156676 C49.7212961,6.25756676 46.5572961,10.6685668 43.7092961,15.2915668 C41.1022961,11.4665668 38.3322961,7.75756676 35.4152961,4.14956676 C33.5292961,1.81656676 29.9822961,2.93656676 28.5672961,5.03156676 C25.5122961,9.55356676 22.4592961,14.0745668 19.4052961,18.5965668 C15.2712961,15.1335668 10.8242961,12.1995668 5.78529612,10.0175668 C3.29929612,8.94156676 1.12929612,10.3505668 0.546296118,12.2465668 C0.127296118,12.8075668 -0.0857038822,13.5625668 0.0322961178,14.5145668 C0.867296118,21.2785668 2.43029612,27.9135668 3.97029612,34.5475668 C5.25529612,40.0855668 5.57929612,47.2545668 12.5202961,48.0105668 C19.2112961,48.7395668 26.1382961,48.5295668 32.8652961,48.7745668 C39.7992961,49.0255668 46.7322961,49.2765668 53.6652961,49.5285668 C60.5982961,49.7805668 67.5322961,50.0315668 74.4642961,50.2835668 C77.9312961,50.4095668 81.3982961,50.5345668 84.8642961,50.6605668 C87.7362961,50.7645668 91.1192961,51.3535668 93.2192961,48.9255668 C95.0782961,46.7765668 95.5722961,43.2055668 96.3452961,40.5465668 C97.2652961,37.3865668 98.1282961,34.2115668 98.9342961,31.0225668 C100.547296,24.6415668 101.917296,18.2045668 103.086296,11.7285668 C103.865296,7.41556676 99.1802961,4.49056676 95.7772961,7.47356676" id="Fill-184" fill="#FFFFFF"></path>
            <path d="M93.7905961,13.0973668 C94.4415961,12.4523668 95.9155961,12.8763668 95.7775961,13.9253668 C94.4755961,24.0923668 92.0825961,34.0053668 88.5445961,43.6243668 C88.1865961,44.5823668 87.0195961,44.6013668 86.4845961,44.0613668 L86.3875961,42.7183668 C89.4175961,34.4283668 91.6335961,25.9043668 92.9765961,17.1903668 C89.0595961,21.0753668 85.1425961,24.9593668 81.2255961,28.8433668 C80.6445961,29.4163668 79.4395961,29.2143668 79.2765961,28.3283668 C78.1095961,21.9153668 76.4225961,15.6523668 74.2195961,9.52636676 C69.3375961,14.5633668 64.9785961,20.0323668 61.1785961,25.9433668 C60.6305961,26.7963668 59.3525961,26.6403668 59.0475961,25.6693668 C57.2875961,20.1363668 54.7385961,15.0263668 51.4355961,10.2953668 C48.2735961,15.4563668 45.6925961,20.8863668 43.7185961,26.6203668 C43.3935961,27.5723668 42.1475961,27.7743668 41.5875961,26.9013668 C38.1015961,21.4263668 34.6135961,15.9513668 31.1275961,10.4773668 C27.7185961,15.7303668 24.6875961,21.1923668 22.0425961,26.8753668 C21.7165961,27.5723668 20.7065961,27.5923668 20.2105961,27.1093668 C16.6915961,23.6753668 12.8855961,20.6383668 8.76659612,17.9793668 C10.0635961,26.3213668 12.2995961,34.4613668 15.2575961,42.3663668 L13.4725961,43.1223668 C9.73759612,34.3173668 7.35859612,25.1483668 6.09459612,15.6653668 C5.97059612,14.7593668 7.16359612,14.2513668 7.84159612,14.6613668 C12.4755961,17.4383668 16.7435961,20.6643668 20.6805961,24.3463668 C23.4365961,18.5853668 26.5845961,13.0523668 30.1365961,7.74636676 C30.6325961,7.01036676 31.6615961,6.98436676 32.1505961,7.74636676 C35.5325961,13.0583668 38.9225961,18.3763668 42.3045961,23.6883668 C44.4225961,18.0573668 47.0945961,12.6933668 50.3525961,7.61036676 C50.8615961,6.82136676 51.8455961,6.90636676 52.3665961,7.61036676 C55.8405961,12.2633668 58.5455961,17.3143668 60.5075961,22.7363668 C64.4305961,16.9233668 68.8755961,11.5203668 73.8535961,6.56036676 C74.5195961,5.90236676 75.5035961,6.28036676 75.8035961,7.07536676 C78.0905961,13.1303668 79.8625961,19.3213668 81.1275961,25.6493668 C85.3515961,21.4653668 89.5665961,17.2813668 93.7905961,13.0973668" id="Fill-186" fill="#1C1C1B"></path>
            <path d="M81.2251961,28.8429668 C85.1421961,24.9589668 89.0591961,21.0749668 92.9761961,17.1909668 C91.6331961,25.9039668 89.4171961,34.4279668 86.3871961,42.7179668 C86.2831961,42.6079668 86.1521961,42.5229668 85.9831961,42.4969668 C80.4561961,41.6169668 74.4731961,42.1579668 68.8811961,42.1189668 C63.0551961,42.0799668 57.2221961,42.0539668 51.3961961,42.0339668 C39.5991961,41.9949668 27.5371961,41.3239668 15.7731961,42.2039668 C15.5641961,42.2169668 15.4011961,42.2749668 15.2571961,42.3659668 C12.2991961,34.4609668 10.0641961,26.3209668 8.76619612,17.9789668 C12.8851961,20.6379668 16.6921961,23.6749668 20.2101961,27.1099668 C20.7061961,27.5919668 21.7161961,27.5719668 22.0421961,26.8749668 C24.6881961,21.1919668 27.7181961,15.7309668 31.1271961,10.4779668 C34.6141961,15.9519668 38.1011961,21.4259668 41.5871961,26.9009668 C42.1481961,27.7749668 43.3931961,27.5719668 43.7181961,26.6209668 C45.6931961,20.8859668 48.2741961,15.4569668 51.4351961,10.2949668 C54.7391961,15.0269668 57.2871961,20.1359668 59.0471961,25.6689668 C59.3531961,26.6399668 60.6301961,26.7969668 61.1781961,25.9429668 C64.9781961,20.0319668 69.3371961,14.5639668 74.2191961,9.52596676 C76.4221961,15.6529668 78.1101961,21.9149668 79.2771961,28.3279668 C79.4401961,29.2149668 80.6451961,29.4169668 81.2251961,28.8429668" id="Fill-188" fill="#FFDD00"></path>
            <path d="M86.3872961,42.7184668 L86.4852961,44.0614668 C86.3672961,44.2174668 86.2042961,44.3344668 85.9832961,44.3674668 C80.4372961,45.1364668 74.4872961,44.4974668 68.8812961,44.4584668 C63.0552961,44.4194668 57.2222961,44.3864668 51.3962961,44.3674668 C39.5862961,44.3344668 27.5492961,45.0194668 15.7732961,44.2374668 C15.4982961,44.2174668 15.2832961,44.1194668 15.1202961,43.9764668 C14.6712961,44.2894668 13.9742961,44.3014668 13.7192961,43.7154668 C13.6352961,43.5204668 13.5502961,43.3184668 13.4722961,43.1224668 L15.2572961,42.3664668 C15.4012961,42.2754668 15.5642961,42.2164668 15.7732961,42.2034668 C27.5362961,41.3234668 39.5992961,41.9944668 51.3962961,42.0334668 C57.2222961,42.0534668 63.0552961,42.0794668 68.8812961,42.1184668 C74.4732961,42.1574668 80.4562961,41.6164668 85.9832961,42.4964668 C86.1522961,42.5224668 86.2832961,42.6074668 86.3872961,42.7184668" id="Fill-190" fill="#1C1C1B"></path>
        </g>
    </g>
</svg>