<?xml version="1.0" encoding="UTF-8"?>
<svg width="246px" height="131px" viewBox="0 0 246 131" version="1.1" xmlns="http://www.w3.org/2000/svg" xmlns:xlink="http://www.w3.org/1999/xlink">
    <!-- Generator: Sketch 53.1 (72631) - https://sketchapp.com -->
    <title>Group 13Sofa</title>
    <desc>Created with Sketch.</desc>
    <defs>
        <polygon id="path-1" points="0.3034 0.987411356 245.951 0.987411356 245.951 130.698 0.3034 130.698"></polygon>
    </defs>
    <g id="Page-1" stroke="none" stroke-width="1" fill="none" fill-rule="evenodd">
        <g id="Desktop-HD" transform="translate(-1185.000000, -295.000000)">
            <g id="Group-13" transform="translate(1185.000000, 294.521000)">
                <g id="Group-234">
                    <mask id="mask-2" fill="white">
                        <use xlink:href="#path-1"></use>
                    </mask>
                    <g id="Clip-233"></g>
                    <path d="M119.5284,4.521 C148.1704,-0.403 177.9934,0.027 208.7124,4.521 C234.6994,44.506 245.8864,86.752 245.9514,130.698 L0.3034,130.698 C2.7914,107.366 9.9374,87.599 24.3984,73.432 C41.7744,68.307 62.3604,64.588 84.4804,61.541 C92.3064,41.114 104.3404,22.237 119.5284,4.521" id="Fill-232" fill="#0E4361" mask="url(#mask-2)"></path>
                </g>
                <path d="M24.3986,73.4321 C19.6416,78.0921 15.6916,83.3691 12.4226,89.1681 C12.7036,92.6721 14.3186,96.8281 20.3696,97.0971 C30.9306,97.5671 42.3136,84.3061 42.3136,84.3061 C65.0246,84.7761 86.7556,84.0171 107.0116,81.4121 C107.0116,81.4121 104.2736,99.3271 115.0696,99.0921 C125.8646,98.8571 139.5946,87.2401 139.5946,87.2401 C156.0676,88.0021 174.4186,88.9761 193.4576,85.9491 C211.1336,83.1391 222.2296,59.2061 220.0186,23.8811 C216.6046,17.3731 212.8686,10.9151 208.7126,4.5211 C177.9926,0.0271 148.1696,-0.4029 119.5286,4.5211 C104.3406,22.2371 92.3056,41.1141 84.4806,61.5411 C62.3606,64.5881 41.7746,68.3071 24.3986,73.4321" id="Fill-235" fill="#E23365"></path>
                <path d="M38.0892,123.5005 C39.2632,109.5365 40.3762,91.0285 35.7842,79.9465 C52.4922,77.9645 71.6412,73.3155 91.9062,68.2345 L96.5282,84.2285 L40.9052,123.5005 L38.0892,123.5005 Z" id="Fill-237" fill="#DB9A91"></path>
                <path d="M40.9055,123.5005 C52.5225,125.0125 73.0105,124.4955 95.5895,123.5005 C98.2745,106.8695 104.7335,91.8665 116.4775,79.1425 C134.5365,71.9965 160.0405,68.9995 190.1715,68.5825 C197.8345,48.1825 201.3105,26.8065 197.9165,8.5785 C169.9535,4.9895 143.8535,3.7155 120.9365,8.2645 C105.5285,26.4695 95.6715,49.1755 91.1305,71.8675 C73.8255,79.0815 58.4085,87.0485 45.9305,96.1875 C43.0855,104.4265 41.5695,113.6475 40.9055,123.5005" id="Fill-239" fill="#D8D8D8"></path>
                <path d="M172.1539,72.7986 L173.8209,76.8746 C179.9999,77.2246 185.9649,77.2546 191.6579,76.8746 L190.3279,72.5716 C184.9239,72.2086 178.7789,72.3576 172.1539,72.7986" id="Fill-241" fill="#701C78"></path>
                <path d="M207.9303,125.5346 L237.3453,125.5346 C237.9363,121.1736 238.0063,116.8406 237.3453,112.5476 L207.9303,112.5476 C208.3473,116.8766 208.3473,121.2056 207.9303,125.5346" id="Fill-243" fill="#00EBAA"></path>
                <path d="M207.9303,112.548 L205.2703,112.548 L205.2703,125.535 L207.9303,125.535 C208.3473,121.206 208.3473,116.877 207.9303,112.548" id="Fill-245" fill="#C77288"></path>
                <path d="M172.4641,73.5567 L173.8211,76.8747 C179.6211,77.2027 185.2241,77.2357 190.5991,76.9257 L189.5071,73.3927 C184.4161,73.0507 178.6511,73.1737 172.4641,73.5567" id="Fill-247" fill="#00EBAA"></path>
                <path d="M103.5911,97.8831 C106.8901,91.2061 111.1301,84.9361 116.4771,79.1431 C117.2821,78.8251 118.1191,78.5241 118.9531,78.2221 L91.1301,73.9801 C75.3111,80.4241 60.7211,88.1741 47.1251,96.9801 C65.9161,98.4851 84.7391,98.8241 103.5911,97.8831" id="Fill-249" fill="#B86053" opacity="0.454450335"></path>
                <path d="M146.5723,130.8128 L145.6813,130.5828 C148.2453,120.6308 152.0523,111.3738 156.9983,103.0688 L157.1323,102.8428 L157.3953,102.8448 C181.5033,102.9958 202.8693,101.1648 222.6843,97.2198 C229.2633,92.4558 234.3873,82.3108 238.5363,73.0058 L239.3763,73.3798 C235.1603,82.8358 229.9353,93.1568 223.1403,98.0238 L222.9623,98.1008 C203.1293,102.0598 181.7603,103.8978 157.6533,103.7658 C152.8183,111.9368 149.0903,121.0348 146.5723,130.8128" id="Fill-251" fill="#C26589"></path>
                <path d="M147.2961,130.6977 C149.8081,121.2737 153.4411,112.4867 158.1221,104.5757 C182.2291,104.7077 203.5991,102.8687 223.4311,98.9117 L223.6091,98.8337 C230.1801,94.1277 235.2791,84.3237 239.4211,75.1317 C239.3191,74.7117 239.2301,74.2887 239.1251,73.8697 L239.0051,73.8157 C234.8571,83.1197 229.7321,93.2657 223.1541,98.0297 C203.3381,101.9747 181.9731,103.8057 157.8641,103.6547 L157.6021,103.6527 L157.4671,103.8787 C152.6381,111.9887 148.9031,121.0117 146.3421,130.6977 L147.2961,130.6977 Z" id="Fill-253" fill="#E23365"></path>
            </g>
        </g>
    </g>
</svg>