<?xml version="1.0" encoding="UTF-8"?>
<svg width="41px" height="259px" viewBox="0 0 41 259" version="1.1" xmlns="http://www.w3.org/2000/svg" xmlns:xlink="http://www.w3.org/1999/xlink">
    <!-- Generator: Sketch 53.1 (72631) - https://sketchapp.com -->
    <title>Group 38lamppost</title>
    <desc>Created with Sketch.</desc>
    <g id="Page-1" stroke="none" stroke-width="1" fill="none" fill-rule="evenodd">
        <g id="Artboard" transform="translate(-1718.000000, -1381.000000)">
            <g id="Group-38" transform="translate(1718.000000, 1381.000000)">
                <polygon id="Fill-191" fill="#C5D5D4" points="16 224 22 224 22 61 16 61"></polygon>
                <polygon id="Fill-192" fill="#A3B6B6" points="22 224 25 224 25 61 22 61"></polygon>
                <path d="M30,140.500479 C30,142.433165 28.3397467,144 26.2915932,144 L14.7094223,144 C12.6592379,144 11,142.433165 11,140.500479 C11,138.567793 12.6592379,137 14.7094223,137 L26.2915932,137 C28.3397467,137 30,138.567793 30,140.500479" id="Fill-193" fill="#A3B6B6"></path>
                <path d="M41,13.5005251 C41,12.1184625 39.9429207,11 38.6369419,11 L2.3630581,11 C1.05707928,11 0,12.1184625 0,13.5005251 C0,14.8804873 1.05707928,16 2.3630581,16 L38.6369419,16 C39.9429207,16 41,14.8804873 41,13.5005251" id="Fill-194" fill="#A3B6B6"></path>
                <polygon id="Fill-195" fill="#F8B033" points="22 19 22 58 28.7976458 58 34 19"></polygon>
                <polygon id="Fill-196" fill="#F8B033" points="7 19 12.2045691 58 19 58 19 19"></polygon>
                <path d="M27.0908367,53.100936 C27.0172846,53.6646987 26.4899885,54.0628879 25.916075,53.9917827 C25.3421615,53.9196617 24.9350351,53.403641 25.0085872,52.8388625 L28.9089202,22.8984905 C28.9814363,22.333712 29.5076964,21.9355228 30.0816099,22.0086596 C30.6596672,22.0797648 31.0657577,22.5947697 30.9911696,23.1595482 L27.0908367,53.100936 Z" id="Fill-197" fill="#FFFFFF"></path>
                <polygon id="Fill-198" fill="#A3B6B6" points="3 11 19.9994958 0 37 11"></polygon>
                <polygon id="Fill-199" fill="#C5D5D4" points="38 251 2 251 2 256.46485 38 257"></polygon>
                <polygon id="Fill-200" fill="#A3B6B6" points="2 256 2 259 38 259 38 256.57154"></polygon>
                <path d="M26,160.414148 C24.8272852,159.530556 23.3858232,159 21.8182944,159 L18.0792886,159 C14.1712164,159 11,162.252541 11,166.265312 L11,249 L26,247.491575 L26,160.414148 Z" id="Fill-201" fill="#C5D5D4"></path>
                <path d="M26.0874836,160 L26.0874836,247.086129 L11,248.594705 L11,251 L29,251 L29,165.851748 C29,163.447456 27.8489515,161.32201 26.0874836,160" id="Fill-202" fill="#A3B6B6"></path>
                <polygon id="Fill-203" fill="#A3B6B6" points="37 16 27.5221789 16 27.3550286 18.99348 33.6370948 18.99348 28.6544233 58.0055117 25.1681453 58.0055117 25 61 31.250228 61"></polygon>
                <path d="M18.0726539,58.0055117 L11.4702321,58.0055117 L6.41170535,18.99348 L18.0726539,18.99348 L18.0726539,58.0055117 Z M21.5438951,58.0055117 L21.5438951,18.99348 L26.8304743,18.99348 L27,16 L3,16 L8.8345106,61 L24.4429869,61 L24.6125126,58.0055117 L21.5438951,58.0055117 Z" id="Fill-204" fill="#C5D5D4"></path>
            </g>
        </g>
    </g>
</svg>