<?xml version="1.0" encoding="UTF-8"?>
<svg width="104px" height="176px" viewBox="0 0 104 176" version="1.1" xmlns="http://www.w3.org/2000/svg" xmlns:xlink="http://www.w3.org/1999/xlink">
    <!-- Generator: Sketch 53.1 (72631) - https://sketchapp.com -->
    <title>Group 26Character_4</title>
    <desc>Created with Sketch.</desc>
    <defs>
        <path d="M9.148,25.008 C9.062,25.008 8.977,25.004 8.895,24.995 C7.281,24.823 4.969,22.498 3.144,19.211 C1.191,15.693 0.154,11.859 0.436,9.206 C0.984,4.066 5.289,0.19 10.45,0.19 C10.808,0.19 11.172,0.209 11.532,0.247 C14.21,0.533 16.617,1.844 18.31,3.94 C20.002,6.035 20.776,8.665 20.491,11.343" id="path-1"></path>
    </defs>
    <g id="Page-1" stroke="none" stroke-width="1" fill="none" fill-rule="evenodd">
        <g id="Desktop-HD" transform="translate(-636.000000, -1205.000000)">
            <g id="Group-26" transform="translate(636.110296, 1205.747600)">
                <path d="M43.8575044,161.555 C43.1955044,161.555 42.5535044,161.684 41.9595044,161.93 C41.3665044,162.176 40.8215044,162.539 40.3535044,163.006 C39.8855044,163.475 39.5225044,164.02 39.2765044,164.613 C39.0305044,165.207 38.9015044,165.849 38.9015044,166.511 C38.9015044,167.173 39.0305044,167.815 39.2765044,168.408 C39.5225044,169.002 39.8855044,169.547 40.3535044,170.015 C40.8215044,170.483 41.3665044,170.846 41.9605044,171.092 C42.5535044,171.338 43.1955044,171.466 43.8575044,171.466 C44.5195044,171.466 45.1615044,171.338 45.7545044,171.092 C46.3485044,170.846 46.8935044,170.483 47.3615044,170.015 C47.8295044,169.547 48.1925044,169.002 48.4385044,168.408 C48.6845044,167.815 48.8135044,167.173 48.8135044,166.511 C48.8135044,165.849 48.6845044,165.207 48.4385044,164.613 C48.1925044,164.019 47.8295044,163.474 47.3615044,163.006 C46.8935044,162.539 46.3485044,162.176 45.7555044,161.93 C45.1615044,161.684 44.5195044,161.555 43.8575044,161.555 M43.8575044,172.39 C43.0725044,172.39 42.3105044,172.237 41.6065044,171.945 C40.9025044,171.653 40.2555044,171.223 39.7005044,170.668 C39.1455044,170.113 38.7145044,169.466 38.4235044,168.762 C38.1315044,168.058 37.9785044,167.296 37.9785044,166.511 C37.9785044,165.726 38.1315044,164.964 38.4235044,164.26 C38.7145044,163.556 39.1455044,162.909 39.7005044,162.354 C40.2555044,161.798 40.9025044,161.368 41.6065044,161.076 C42.3105044,160.785 43.0725044,160.632 43.8575044,160.632 C44.6425044,160.632 45.4045044,160.785 46.1085044,161.076 C46.8125044,161.368 47.4595044,161.798 48.0145044,162.354 C48.5695044,162.909 49.0005044,163.555 49.2915044,164.259 C49.5835044,164.964 49.7365044,165.725 49.7365044,166.511 C49.7365044,167.296 49.5835044,168.058 49.2915044,168.762 C49.0005044,169.466 48.5695044,170.113 48.0145044,170.668 C47.4595044,171.223 46.8125044,171.653 46.1085044,171.945 C45.4045044,172.237 44.6425044,172.39 43.8575044,172.39" id="Fill-514" fill="#1D0C43"></path>
                <path d="M39.1752044,164.661 C38.6682044,164.661 38.1772044,164.76 37.7232044,164.948 C37.2682044,165.136 36.8512044,165.414 36.4932044,165.772 C36.1352044,166.13 35.8572044,166.547 35.6692044,167.001 C35.4812044,167.456 35.3822044,167.947 35.3822044,168.454 C35.3822044,168.96 35.4812044,169.452 35.6692044,169.906 C35.8572044,170.36 36.1352044,170.778 36.4932044,171.136 C36.8512044,171.494 37.2682044,171.772 37.7232044,171.96 C38.1772044,172.148 38.6682044,172.247 39.1752044,172.247 C39.6822044,172.247 40.1732044,172.148 40.6272044,171.96 C41.0822044,171.772 41.4992044,171.494 41.8572044,171.136 C42.2152044,170.777 42.4932044,170.36 42.6812044,169.906 C42.8692044,169.451 42.9682044,168.96 42.9682044,168.454 C42.9682044,167.947 42.8692044,167.456 42.6812044,167.002 C42.4932044,166.547 42.2152044,166.13 41.8572044,165.772 C41.4992044,165.414 41.0822044,165.136 40.6272044,164.948 C40.1732044,164.76 39.6822044,164.661 39.1752044,164.661 M39.1752044,173.17 C38.5452044,173.17 37.9342044,173.047 37.3692044,172.813 C36.8042044,172.579 36.2852044,172.234 35.8402044,171.788 C35.3952044,171.343 35.0492044,170.824 34.8152044,170.26 C34.5812044,169.695 34.4592044,169.084 34.4592044,168.454 C34.4592044,167.824 34.5812044,167.213 34.8152044,166.648 C35.0492044,166.083 35.3952044,165.564 35.8402044,165.119 C36.2862044,164.673 36.8042044,164.328 37.3692044,164.094 C37.9342044,163.86 38.5452044,163.738 39.1752044,163.738 C39.8052044,163.738 40.4162044,163.86 40.9812044,164.094 C41.5462044,164.328 42.0642044,164.673 42.5102044,165.119 C42.9552044,165.564 43.3002044,166.083 43.5342044,166.648 C43.7692044,167.213 43.8912044,167.824 43.8912044,168.454 C43.8912044,169.083 43.7692044,169.694 43.5342044,170.259 C43.3002044,170.824 42.9552044,171.343 42.5102044,171.788 C42.0652044,172.234 41.5462044,172.579 40.9812044,172.813 C40.4162044,173.047 39.8052044,173.17 39.1752044,173.17" id="Fill-516" fill="#1D0C43"></path>
                <path d="M49.0738044,24.9763 C47.8978044,24.9763 46.8308044,24.4973 46.0578044,23.7253 C45.2858044,22.9523 44.8068044,21.8863 44.8068044,20.7093 C44.8068044,19.5333 45.2858044,18.4663 46.0578044,17.6943 C46.8308044,16.9213 47.8978044,16.4433 49.0738044,16.4433 C50.2498044,16.4433 51.3168044,16.9213 52.0898044,17.6943 C52.8618044,18.4663 53.3408044,19.5333 53.3408044,20.7093 C53.3408044,21.8863 52.8618044,22.9523 52.0898044,23.7253 C51.3168044,24.4973 50.2498044,24.9763 49.0738044,24.9763" id="Fill-518" fill="#1D0C43"></path>
                <path d="M49.0740044,21.442 C48.8720044,21.442 48.6890044,21.36 48.5560044,21.228 C48.4240044,21.095 48.3420044,20.912 48.3420044,20.71 L48.3420044,14.584 L48.3420044,2.992 C48.3420044,2.79 48.4240044,2.606 48.5560044,2.474 C48.6890044,2.341 48.8720044,2.259 49.0740044,2.259 C49.2760044,2.259 49.4590044,2.341 49.5920044,2.474 C49.7240044,2.606 49.8060044,2.79 49.8060044,2.992 L49.8060044,14.584 L49.8060044,20.71 C49.8060044,20.912 49.7240044,21.095 49.5920044,21.228 C49.4590044,21.36 49.2760044,21.442 49.0740044,21.442" id="Fill-520" fill="#1D0C43"></path>
                <path d="M51.3589044,2.285 C51.3589044,2.916 51.1029044,3.487 50.6899044,3.901 C50.2759044,4.314 49.7049044,4.57 49.0739044,4.57 C48.4429044,4.57 47.8719044,4.314 47.4579044,3.901 C47.0439044,3.487 46.7889044,2.916 46.7889044,2.285 C46.7889044,1.654 47.0439044,1.083 47.4579044,0.669 C47.8719044,0.256 48.4429044,8.52651283e-14 49.0739044,8.52651283e-14 C49.7049044,8.52651283e-14 50.2759044,0.256 50.6899044,0.669 C51.1029044,1.083 51.3589044,1.654 51.3589044,2.285" id="Fill-522" fill="#1D0C43"></path>
                <polygon id="Fill-524" fill="#6689E3" points="37.7037044 141.3982 42.8977044 163.8562 51.2237044 163.8562 51.2237044 146.6562"></polygon>
                <polygon id="Fill-526" fill="#6689E3" points="66.4260044 141.3982 52.9060044 146.6562 52.9060044 163.8562 61.2320044 163.8562"></polygon>
                <polygon id="Fill-528" fill="#1D0C43" points="44.0882044 169.0018 39.9572044 172.7578 51.2242044 172.7578 51.2242044 163.8568 42.8982044 163.8568"></polygon>
                <polygon id="Fill-530" fill="#1D0C43" points="61.2316044 163.8563 52.9056044 163.8563 52.9056044 172.7573 64.1726044 172.7573 60.0416044 169.0013"></polygon>
                <path d="M59.5434044,116.6753 L52.0644044,113.5743 L44.5864044,116.6753 C44.5864044,116.6753 34.5544044,127.4373 38.2024044,145.1303 C41.6674044,154.9803 52.0644044,152.4263 52.0644044,153.3383 C52.0644044,152.4263 62.4614044,154.9803 65.9274044,145.1303 C69.5754044,127.4373 59.5434044,116.6753 59.5434044,116.6753" id="Fill-532" fill="#6689E3"></path>
                <path d="M6.19050442,91.6819 C6.19050442,91.6819 -5.92949558,71.6769 6.19050442,45.4759 C18.3105044,19.2749 63.7615044,9.6499 90.3185044,38.7029 C116.876504,67.7559 94.5465044,92.7509 94.5465044,92.7509" id="Fill-534" fill="#595BD9"></path>
                <path d="M7.16510442,79.7064 C7.16510442,102.0764 26.7261044,120.2114 50.8561044,120.2114 C74.9851044,120.2114 94.5461044,102.0764 94.5461044,79.7064 C94.5461044,57.3364 74.9851044,39.2014 50.8561044,39.2014 C26.7261044,39.2014 7.16510442,57.3364 7.16510442,79.7064" id="Fill-536" fill="#C89D67"></path>
                <path d="M8.26800442,80.4982 C8.26800442,80.4982 2.49700442,77.1642 0.446004419,82.6782 C-1.60599558,88.1922 3.66900442,94.5502 11.2170044,94.1272 L8.26800442,80.4982 Z" id="Fill-538" fill="#C89D67"></path>
                <path d="M92.6333044,80.4982 C92.6333044,80.4982 98.4043044,77.1642 100.455304,82.6782 C102.507304,88.1922 97.2323044,94.5502 89.6843044,94.1272 L92.6333044,80.4982 Z" id="Fill-540" fill="#C89D67"></path>
                <path d="M43.9274044,168.3069 C43.9274044,168.3069 38.6614044,168.1919 38.6614044,172.7579 L51.2234044,172.7579 L51.2234044,168.3069 L43.9274044,168.3069 Z" id="Fill-544" fill="#E4332A"></path>
                <path d="M60.2023044,168.3069 C60.2023044,168.3069 65.4673044,168.1919 65.4673044,172.7579 L52.9063044,172.7579 L52.9063044,168.3069 L60.2023044,168.3069 Z" id="Fill-546" fill="#E4332A"></path>
                <polygon id="Fill-548" fill="#4648B7" points="37.7413044 142.4164 66.3903044 142.4164 66.2983044 144.6454 37.8663044 144.6454"></polygon>
                <path d="M6.37550442,86.2214 C6.57750442,85.6474 6.95150442,85.5524 7.31850442,85.6334 C7.08150442,84.2804 6.99550442,83.4354 6.99550442,83.4354 C6.97650442,83.4164 6.95750442,83.3984 6.93950442,83.3804 C5.09450442,81.6074 2.06650442,83.5864 2.85850442,86.0194 C3.47050442,87.9024 5.46350442,89.1054 8.22650442,89.7434 C8.03450442,89.0264 7.87050442,88.3444 7.73050442,87.7084 C6.97450442,87.4864 6.08550442,87.0444 6.37550442,86.2214" id="Fill-550" fill="#B18352"></path>
                <path d="M94.9155044,86.2214 C94.7135044,85.6474 94.3395044,85.5524 93.9725044,85.6334 C94.2095044,84.2804 94.2955044,83.4354 94.2955044,83.4354 C94.3135044,83.4164 94.3325044,83.3984 94.3515044,83.3804 C96.1965044,81.6074 99.2245044,83.5864 98.4325044,86.0194 C97.8205044,87.9024 95.8275044,89.1054 93.0645044,89.7434 C93.2565044,89.0264 93.4205044,88.3444 93.5605044,87.7084 C94.3165044,87.4864 95.2055044,87.0444 94.9155044,86.2214" id="Fill-552" fill="#B18352"></path>
                <path d="M42.5655044,167.0568 C42.2065044,166.8668 41.9455044,167.1228 41.8505044,167.3028 C41.7525044,167.4868 41.6855044,167.8518 42.0515044,168.0488 C42.4395044,168.2568 42.9105044,168.2978 43.4585044,168.1648 C43.2525044,167.6318 42.9535044,167.2588 42.5655044,167.0568 M41.8395044,168.4438 C41.2765044,168.1418 41.2195044,167.5348 41.4535044,167.0928 C41.6855044,166.6558 42.2095044,166.3648 42.7745044,166.6588 C43.3215044,166.9458 43.7215044,167.4798 43.9625044,168.2498 L44.0295044,168.4638 L43.8155044,168.5308 C43.4765044,168.6368 43.1575044,168.6898 42.8575044,168.6898 C42.4855044,168.6898 42.1445044,168.6078 41.8395044,168.4438" id="Fill-554" fill="#BC1523"></path>
                <path d="M44.0491044,168.4495 C44.2541044,168.9825 44.5531044,169.3545 44.9401044,169.5575 C45.3041044,169.7475 45.5611044,169.4915 45.6561044,169.3105 C45.7531044,169.1265 45.8211044,168.7625 45.4551044,168.5655 C45.2161044,168.4375 44.9471044,168.3735 44.6481044,168.3735 C44.4591044,168.3735 44.2591044,168.3985 44.0491044,168.4495 M44.7331044,169.9555 L44.7321044,169.9555 C44.1851044,169.6685 43.7851044,169.1335 43.5451044,168.3645 L43.4771044,168.1505 L43.6911044,168.0835 C44.4531044,167.8445 45.1171044,167.8735 45.6671044,168.1705 C46.2291044,168.4725 46.2871044,169.0785 46.0531044,169.5205 C45.8871044,169.8355 45.5671044,170.0735 45.1911044,170.0735 C45.0451044,170.0735 44.8901044,170.0375 44.7331044,169.9555" id="Fill-556" fill="#BC1523"></path>
                <path d="M87.6223044,35.9259 C81.6153044,39.0049 75.5103044,38.8039 70.0823044,34.6279 C57.3973044,24.8709 45.6013044,23.8099 33.2113044,28.8469 C28.3753044,30.8139 25.1423044,29.7879 23.0103044,27.9119 C15.9043044,31.9609 10.1873044,37.6029 6.72630442,44.4649 C12.1483044,46.4709 17.8093044,46.5919 23.3443044,45.4549 C32.3863044,43.5989 37.8803044,38.6659 46.8503044,39.3819 C55.8413044,40.0989 60.7043044,46.8429 71.2273044,49.6029 C72.9203044,49.0069 74.6373044,48.0989 76.3463044,46.8069 C78.1223044,47.9909 79.7993044,49.2929 81.3613044,50.7039 C86.5383044,50.4379 91.5363044,48.7979 95.6123044,45.2959 C93.2873044,41.9209 90.4183044,38.5929 87.6223044,35.9259" id="Fill-558" fill="#FFFFFF" opacity="0.145112537"></path>
                <path d="M23.1587044,76.9014 C23.1587044,74.9704 24.7237044,73.4054 26.6547044,73.4054 C28.5857044,73.4054 30.1517044,74.9704 30.1517044,76.9014 C30.1517044,78.8324 28.5857044,80.3974 26.6547044,80.3974 C24.7237044,80.3974 23.1587044,78.8324 23.1587044,76.9014" id="Fill-560" fill="#FFFFFF"></path>
                <path d="M65.4270044,76.9014 C65.4270044,74.9704 66.9920044,73.4054 68.9230044,73.4054 C70.8540044,73.4054 72.4200044,74.9704 72.4200044,76.9014 C72.4200044,78.8324 70.8540044,80.3974 68.9230044,80.3974 C66.9920044,80.3974 65.4270044,78.8324 65.4270044,76.9014" id="Fill-562" fill="#FFFFFF"></path>
                <path d="M45.5015044,137.5075 C44.9525044,137.5075 44.4555044,137.2845 44.0945044,136.9235 C43.7345044,136.5635 43.5115044,136.0655 43.5115044,135.5175 L43.5115044,131.1115 L43.5115044,126.7055 C43.5115044,126.1565 43.7345044,125.6585 44.0945044,125.2985 C44.4555044,124.9385 44.9525044,124.7145 45.5015044,124.7145 L51.6775044,124.7145 L57.8535044,124.7145 C58.4025044,124.7145 58.9005044,124.9385 59.2605044,125.2985 C59.6205044,125.6585 59.8445044,126.1565 59.8445044,126.7055 L59.8445044,131.1115 L59.8445044,135.5175 C59.8445044,136.0655 59.6205044,136.5635 59.2605044,136.9235 C58.9005044,137.2845 58.4025044,137.5075 57.8535044,137.5075 L51.6775044,137.5075 L45.5015044,137.5075 Z" id="Fill-564" fill="#4648B7"></path>
                <path d="M57.8537044,136.4198 L51.6777044,136.4198 L45.5017044,136.4198 C45.2517044,136.4198 45.0267044,136.3188 44.8627044,136.1558 C44.6997044,135.9918 44.5987044,135.7668 44.5987044,135.5168 L44.5987044,131.1108 L44.5987044,126.7048 C44.5987044,126.4558 44.6997044,126.2298 44.8627044,126.0668 C45.0267044,125.9038 45.2517044,125.8028 45.5017044,125.8028 L51.6777044,125.8028 L57.8537044,125.8028 C58.1027044,125.8028 58.3287044,125.9038 58.4917044,126.0668 C58.6557044,126.2298 58.7567044,126.4558 58.7567044,126.7048 L58.7567044,131.1108 L58.7567044,135.5168 C58.7567044,135.7668 58.6557044,135.9918 58.4917044,136.1558 C58.3287044,136.3188 58.1027044,136.4198 57.8537044,136.4198" id="Fill-566" fill="#595BD9"></path>
                <path d="M56.7493044,136.4198 L51.4373044,136.4198 L46.1263044,136.4198 C45.8763044,136.4198 45.6513044,136.3188 45.4873044,136.1558 C45.3243044,135.9918 45.2233044,135.7668 45.2233044,135.5168 L45.2233044,131.1108 L45.2233044,126.7048 C45.2233044,126.4558 45.3243044,126.2298 45.4873044,126.0668 C45.6513044,125.9038 45.8763044,125.8028 46.1263044,125.8028 L51.4373044,125.8028 L56.7493044,125.8028 C56.9983044,125.8028 57.2243044,125.9038 57.3873044,126.0668 C57.5513044,126.2298 57.6523044,126.4558 57.6523044,126.7048 L57.6523044,131.1108 L57.6523044,135.5168 C57.6523044,135.7668 57.5513044,135.9918 57.3873044,136.1558 C57.2243044,136.3188 56.9983044,136.4198 56.7493044,136.4198" id="Fill-568" fill="#4CEEF3"></path>
                <path d="M47.4332044,125.8024 L46.5342044,125.8024 L45.6352044,125.8024 C45.3492044,125.8024 45.0902044,125.9184 44.9022044,126.1064 C44.7152044,126.2934 44.5992044,126.5534 44.5992044,126.8394 L44.5992044,131.1114 L44.5992044,135.3834 C44.5992044,135.6694 44.7152044,135.9284 44.9022044,136.1164 C45.0902044,136.3034 45.3492044,136.4194 45.6352044,136.4194 L46.5342044,136.4194 L47.4332044,136.4194 L47.4332044,131.1114 L47.4332044,125.8024 Z" id="Fill-570" fill="#00D5EE"></path>
                <path d="M53.8484044,128.0783 C53.4524044,128.0783 53.0854044,128.2013 52.7824044,128.4103 C52.4794044,128.6203 52.2414044,128.9163 52.1034044,129.2633 C51.9644044,128.9163 51.7264044,128.6203 51.4234044,128.4103 C51.1214044,128.2013 50.7534044,128.0783 50.3574044,128.0783 C49.8444044,128.0783 49.3794044,128.2843 49.0404044,128.6173 C48.7004044,128.9503 48.4874044,129.4113 48.4764044,129.9223 C48.4974044,130.9063 49.4034044,132.0633 50.3054044,132.9743 C51.2064044,133.8853 52.1034044,134.5503 52.1034044,134.5503 C52.1034044,134.5503 52.9994044,133.8853 53.9004044,132.9743 C54.8024044,132.0633 55.7084044,130.9063 55.7294044,129.9223 C55.7184044,129.4113 55.5054044,128.9503 55.1654044,128.6173 C54.8264044,128.2843 54.3614044,128.0783 53.8484044,128.0783" id="Fill-572" fill="#00D5EE"></path>
                <path d="M23.1604044,42.5879 C23.1604044,42.5879 22.6354044,62.7789 39.8694044,59.5709 C55.5004044,56.5409 50.6084044,44.7339 50.6084044,44.7339 C50.6084044,44.7339 65.1244044,57.6099 78.3144044,45.1329 C91.5044044,32.6569 52.8474044,18.6539 23.1604044,42.5879" id="Fill-542" fill="#1D0C43"></path>
                <path d="M44.5987044,128.3175 L51.1257044,128.3175 L57.6517044,128.3175 L57.6517044,128.1555 L57.6517044,127.9925 L51.1257044,127.9925 L44.5987044,127.9925 L44.5987044,128.1555 L44.5987044,128.3175 Z M44.5987044,126.8395 L44.5987044,127.0015 L44.5987044,127.1645 L51.1257044,127.1645 L57.6517044,127.1645 L57.6517044,127.0015 L57.6517044,126.8395 L51.1257044,126.8395 L44.5987044,126.8395 Z M44.5987044,129.4705 L51.1257044,129.4705 L57.6517044,129.4705 L57.6517044,129.3085 L57.6517044,129.1465 L51.1257044,129.1465 L44.5987044,129.1465 L44.5987044,129.3085 L44.5987044,129.4705 Z M44.5987044,130.6245 L51.1257044,130.6245 L57.6517044,130.6245 L57.6517044,130.4625 L57.6517044,130.2995 L51.1257044,130.2995 L44.5987044,130.2995 L44.5987044,130.4625 L44.5987044,130.6245 Z M44.5987044,135.2385 L51.1257044,135.2385 L57.6517044,135.2385 L57.6517044,135.0755 L57.6517044,134.9135 L51.1257044,134.9135 L44.5987044,134.9135 L44.5987044,135.0755 L44.5987044,135.2385 Z M44.5987044,131.7775 L51.1257044,131.7775 L57.6517044,131.7775 L57.6517044,131.6155 L57.6517044,131.4535 L51.1257044,131.4535 L44.5987044,131.4535 L44.5987044,131.6155 L44.5987044,131.7775 Z M44.5987044,134.0845 L51.1257044,134.0845 L57.6517044,134.0845 L57.6517044,133.9225 L57.6517044,133.7605 L51.1257044,133.7605 L44.5987044,133.7605 L44.5987044,133.9225 L44.5987044,134.0845 Z M44.5987044,132.9315 L51.1257044,132.9315 L57.6517044,132.9315 L57.6517044,132.7695 L57.6517044,132.6065 L51.1257044,132.6065 L44.5987044,132.6065 L44.5987044,132.7695 L44.5987044,132.9315 Z" id="Fill-574" fill="#000000"></path>
                <path d="M27.1871044,146.8416 C26.5071044,147.3376 25.8271044,147.8326 25.1471044,148.3286 C24.4671044,148.8236 23.7871044,149.3196 23.1071044,149.8146 C19.2171044,144.4766 19.4541044,138.3386 22.1081044,133.6166 C24.7621044,128.8946 29.8331044,125.5886 35.6141044,125.9166 C36.5511044,125.9696 37.3061044,126.2966 37.8071044,126.8196 C38.3081044,127.3426 38.5551044,128.0606 38.4761044,128.8966 L38.4761044,128.8966 C38.3411044,129.4816 38.0641044,130.0106 37.5861044,130.3896 C37.1081044,130.7686 36.4281044,130.9986 35.4851044,130.9866 C31.6461044,130.8426 28.2811044,133.0356 26.5211044,136.1496 C24.7611044,139.2646 24.6061044,143.2996 27.1871044,146.8416" id="Fill-576" fill="#1D0C43"></path>
                <path d="M31.6985044,126.1386 C31.7295044,126.1696 31.7575044,126.2056 31.7805044,126.2446 C31.8035044,126.2836 31.8215044,126.3266 31.8335044,126.3726 L32.4695044,128.7306 L33.1055044,131.0896 C33.1435044,131.2296 33.1205044,131.3706 33.0535044,131.4866 C32.9865044,131.6036 32.8755044,131.6936 32.7365044,131.7316 C32.5965044,131.7696 32.4545044,131.7466 32.3385044,131.6796 C32.2225044,131.6126 32.1315044,131.5016 32.0945044,131.3626 L31.4585044,129.0036 L30.8225044,126.6446 C30.7845044,126.5056 30.8075044,126.3636 30.8745044,126.2476 C30.9405044,126.1316 31.0515044,126.0406 31.1915044,126.0026 C31.2855044,125.9776 31.3805044,125.9796 31.4675044,126.0036 C31.5545044,126.0276 31.6345044,126.0746 31.6985044,126.1386" id="Fill-578" fill="#4CEEF3"></path>
                <path d="M27.4254044,128.1064 C27.4384044,128.1194 27.4504044,128.1324 27.4614044,128.1464 C27.4724044,128.1604 27.4834044,128.1754 27.4934044,128.1904 L28.8264044,130.2284 L30.1584044,132.2664 C30.2374044,132.3874 30.2604044,132.5284 30.2324044,132.6604 C30.2054044,132.7914 30.1274044,132.9114 30.0064044,132.9914 C29.8854044,133.0704 29.7434044,133.0924 29.6124044,133.0644 C29.4814044,133.0374 29.3604044,132.9594 29.2814044,132.8394 L27.9494044,130.8014 L26.6174044,128.7634 C26.5384044,128.6424 26.5154044,128.5004 26.5424044,128.3694 C26.5704044,128.2384 26.6474044,128.1174 26.7684044,128.0384 C26.8744044,127.9694 26.9954044,127.9434 27.1124044,127.9564 C27.2284044,127.9694 27.3394044,128.0204 27.4254044,128.1064" id="Fill-580" fill="#4CEEF3"></path>
                <path d="M27.7743044,134.3115 C27.8673044,134.4045 27.9193044,134.5265 27.9263044,134.6515 C27.9333044,134.7765 27.8963044,134.9045 27.8113044,135.0095 C27.7203044,135.1225 27.5933044,135.1875 27.4593044,135.2015 C27.3263044,135.2165 27.1883044,135.1795 27.0753044,135.0895 L25.1823044,133.5655 L23.2903044,132.0425 C23.1803044,131.9535 23.1143044,131.8265 23.0993044,131.6925 C23.0843044,131.5585 23.1203044,131.4195 23.2103044,131.3065 C23.3013044,131.1935 23.4293044,131.1285 23.5623044,131.1145 C23.6953044,131.0995 23.8343044,131.1365 23.9473044,131.2275 L25.8393044,132.7505 L27.7323044,134.2735 C27.7393044,134.2795 27.7463044,134.2855 27.7533044,134.2915 C27.7603044,134.2985 27.7673044,134.3045 27.7743044,134.3115" id="Fill-582" fill="#4CEEF3"></path>
                <path d="M26.1901044,137.0288 C26.2611044,137.0998 26.3091044,137.1888 26.3311044,137.2858 C26.3531044,137.3818 26.3471044,137.4858 26.3091044,137.5858 C26.2581044,137.7208 26.1571044,137.8228 26.0341044,137.8768 C25.9121044,137.9318 25.7691044,137.9398 25.6341044,137.8888 L23.3581044,137.0228 L21.0831044,136.1568 C20.9481044,136.1068 20.8471044,136.0048 20.7921044,135.8828 C20.7371044,135.7608 20.7291044,135.6168 20.7801044,135.4818 C20.8311044,135.3468 20.9331044,135.2448 21.0551044,135.1898 C21.1771044,135.1348 21.3201044,135.1268 21.4561044,135.1788 L23.7311044,136.0448 L26.0061044,136.9098 C26.0421044,136.9238 26.0751044,136.9408 26.1061044,136.9608 C26.1371044,136.9808 26.1651044,137.0038 26.1901044,137.0288" id="Fill-584" fill="#4CEEF3"></path>
                <path d="M25.5097044,140.1249 C25.5597044,140.1749 25.5997044,140.2359 25.6267044,140.3029 C25.6527044,140.3699 25.6657044,140.4439 25.6627044,140.5199 C25.6557044,140.6649 25.5907044,140.7929 25.4917044,140.8829 C25.3927044,140.9729 25.2587044,141.0249 25.1147044,141.0179 L22.6747044,140.9009 L20.2347044,140.7829 C20.0897044,140.7769 19.9617044,140.7119 19.8717044,140.6129 C19.7817044,140.5139 19.7297044,140.3799 19.7367044,140.2349 C19.7437044,140.0909 19.8077044,139.9629 19.9077044,139.8729 C20.0067044,139.7829 20.1397044,139.7299 20.2847044,139.7369 L22.7247044,139.8549 L25.1647044,139.9719 C25.2317044,139.9749 25.2967044,139.9909 25.3547044,140.0179 C25.4127044,140.0439 25.4657044,140.0809 25.5097044,140.1249" id="Fill-586" fill="#4CEEF3"></path>
                <path d="M25.9014044,143.3861 C25.9314044,143.4161 25.9584044,143.4511 25.9814044,143.4891 C26.0034044,143.5261 26.0214044,143.5681 26.0344044,143.6121 C26.0744044,143.7511 26.0534044,143.8931 25.9884044,144.0101 C25.9234044,144.1271 25.8144044,144.2201 25.6754044,144.2601 L23.3294044,144.9311 L20.9844044,145.6021 C20.8454044,145.6411 20.7024044,145.6211 20.5854044,145.5561 C20.4684044,145.4911 20.3764044,145.3811 20.3364044,145.2421 C20.2964044,145.1031 20.3174044,144.9611 20.3824044,144.8441 C20.4474044,144.7271 20.5574044,144.6341 20.6954044,144.5951 L23.0414044,143.9231 L25.3864044,143.2521 C25.4814044,143.2251 25.5774044,143.2261 25.6664044,143.2501 C25.7554044,143.2741 25.8364044,143.3211 25.9014044,143.3861" id="Fill-588" fill="#4CEEF3"></path>
                <path d="M23.1882044,155.4488 C23.1572044,157.4548 23.9452044,159.2868 25.2422044,160.6248 C26.5392044,161.9638 28.3462044,162.8078 30.3522044,162.8388 C30.7152044,162.8448 31.0452044,162.7028 31.2872044,162.4688 C31.5282044,162.2348 31.6802044,161.9088 31.6862044,161.5458 C31.6922044,161.1838 31.5502044,160.8528 31.3162044,160.6118 C31.0822044,160.3708 30.7562044,160.2178 30.3932044,160.2128 C29.1112044,160.1928 27.9562044,159.6528 27.1272044,158.7978 C26.2982044,157.9428 25.7952044,156.7718 25.8142044,155.4898 C25.8242044,154.8668 25.9572044,154.2738 26.1892044,153.7348 C26.4222044,153.1958 26.7532044,152.7088 27.1602044,152.2968 C27.0082044,151.8548 26.8532044,151.4148 26.6962044,150.9768 C26.5382044,150.5378 26.3782044,150.1018 26.2142044,149.6678 C25.3152044,150.3178 24.5682044,151.1668 24.0412044,152.1518 C23.5142044,153.1368 23.2062044,154.2568 23.1882044,155.4488" id="Fill-590" fill="#1D0C43"></path>
                <path d="M27.1603044,152.2971 C27.5903044,151.8611 28.1053044,151.5101 28.6773044,151.2701 C29.2493044,151.0291 29.8783044,150.9011 30.5373044,150.9111 C31.8203044,150.9311 32.9743044,151.4701 33.8033044,152.3261 C34.6323044,153.1811 35.1363044,154.3521 35.1163044,155.6341 C35.1103044,155.9961 35.2523044,156.3271 35.4863044,156.5681 C35.7203044,156.8101 36.0463044,156.9621 36.4093044,156.9671 C36.7713044,156.9731 37.1023044,156.8311 37.3433044,156.5971 C37.5853044,156.3631 37.7373044,156.0371 37.7423044,155.6751 C37.7743044,153.6681 36.9863044,151.8361 35.6883044,150.4981 C34.3913044,149.1601 32.5843044,148.3161 30.5783044,148.2841 C29.7643044,148.2721 28.9803044,148.3961 28.2463044,148.6341 C27.5123044,148.8721 26.8283044,149.2241 26.2143044,149.6681 C26.3783044,150.1021 26.5383044,150.5381 26.6953044,150.9761 C26.8533044,151.4151 27.0083044,151.8551 27.1603044,152.2971" id="Fill-592" fill="#1D0C43"></path>
                <path d="M31.9240044,151.0094 L31.9240044,151.0094 C31.9120044,151.7554 31.7500044,152.4634 31.4670044,153.1054 C31.1840044,153.7474 30.7790044,154.3224 30.2830044,154.8034 C29.7870044,155.2844 29.1990044,155.6714 28.5480044,155.9344 C27.8980044,156.1974 27.1850044,156.3384 26.4390044,156.3264 L26.4390044,156.3264 C25.6940044,156.3144 24.9860044,156.1524 24.3440044,155.8694 C23.7020044,155.5864 23.1260044,155.1814 22.6450044,154.6854 C22.1640044,154.1894 21.7770044,153.6014 21.5140044,152.9504 C21.2510044,152.3004 21.1110044,151.5874 21.1220044,150.8414 L21.1220044,150.8414 C21.1340044,150.0964 21.2960044,149.3884 21.5790044,148.7464 C21.8630044,148.1044 22.2670044,147.5284 22.7640044,147.0474 C23.2600044,146.5664 23.8480044,146.1794 24.4980044,145.9164 C25.1490044,145.6534 25.8610044,145.5134 26.6070044,145.5244 C27.3530044,145.5364 28.0610044,145.6984 28.7030044,145.9814 C29.3450044,146.2654 29.9200044,146.6694 30.4010044,147.1654 C30.8830044,147.6624 31.2690044,148.2504 31.5320044,148.9004 C31.7950044,149.5514 31.9360044,150.2634 31.9240044,151.0094" id="Fill-594" fill="#4CEEF3"></path>
                <path d="M29.1215044,150.9659 C29.1105044,151.6819 28.8085044,152.3269 28.3315044,152.7909 C27.8535044,153.2539 27.1995044,153.5349 26.4825044,153.5239 C25.7665044,153.5129 25.1215044,153.2109 24.6585044,152.7339 C24.1945044,152.2559 23.9135044,151.6019 23.9245044,150.8849 C23.9355044,150.1689 24.2375044,149.5239 24.7155044,149.0609 C25.1935044,148.5979 25.8475044,148.3159 26.5635044,148.3269 C27.2795044,148.3379 27.9245044,148.6399 28.3885044,149.1179 C28.8515044,149.5959 29.1325044,150.2499 29.1215044,150.9659" id="Fill-596" fill="#1D0C43"></path>
                <path d="M35.5926044,130.3458 C34.8566044,129.6098 34.4886044,128.6458 34.4886044,127.6808 C34.4886044,126.7158 34.8566044,125.7518 35.5926044,125.0158 C36.3286044,124.2798 37.2926044,123.9118 38.2576044,123.9118 C39.2226044,123.9118 40.1866044,124.2798 40.9226044,125.0158 C41.6586044,125.7518 42.0266044,126.7158 42.0266044,127.6808 C42.0266044,128.6458 41.6586044,129.6098 40.9226044,130.3458 C40.1866044,131.0818 39.2226044,131.4498 38.2576044,131.4498 C37.2926044,131.4498 36.3286044,131.0818 35.5926044,130.3458" id="Fill-598" fill="#595BD9"></path>
                <path d="M59.4860044,170.8629 L55.3790044,170.8629 L51.2710044,170.8629 L47.1640044,170.8629 L43.0560044,170.8629 C42.5980044,170.8629 42.1610044,170.7699 41.7640044,170.6019 C41.3660044,170.4339 41.0090044,170.1909 40.7080044,169.8899 C40.4080044,169.5899 40.1650044,169.2319 39.9960044,168.8349 C39.8280044,168.4379 39.7360044,168.0009 39.7360044,167.5419 L39.7360044,167.5329 L39.7360044,167.5239 L39.7360044,167.5139 L39.7360044,167.5049 C39.7360044,167.0469 39.8280044,166.6099 39.9960044,166.2129 C40.1650044,165.8149 40.4080044,165.4579 40.7080044,165.1569 C41.0090044,164.8569 41.3660044,164.6129 41.7640044,164.4449 C42.1610044,164.2769 42.5980044,164.1849 43.0560044,164.1849 L47.1640044,164.1849 L51.2710044,164.1849 L55.3790044,164.1849 L59.4860044,164.1849 C59.9440044,164.1849 60.3810044,164.2769 60.7790044,164.4449 C61.1760044,164.6129 61.5340044,164.8569 61.8340044,165.1569 C62.1340044,165.4579 62.3780044,165.8149 62.5460044,166.2129 C62.7140044,166.6099 62.8070044,167.0469 62.8070044,167.5049 L62.8070044,167.5139 L62.8070044,167.5239 L62.8070044,167.5329 L62.8070044,167.5419 C62.8070044,168.0009 62.7140044,168.4379 62.5460044,168.8349 C62.3780044,169.2319 62.1340044,169.5899 61.8340044,169.8899 C61.5340044,170.1909 61.1760044,170.4339 60.7790044,170.6019 C60.3810044,170.7699 59.9440044,170.8629 59.4860044,170.8629" id="Fill-600" fill="#1D0C43"></path>
                <path d="M42.9230044,170.8629 L42.9230044,170.8629 L42.9230044,170.8629 C42.4830044,170.8629 42.0640044,170.7739 41.6820044,170.6119 C41.3010044,170.4509 40.9580044,170.2179 40.6690044,169.9289 C40.3810044,169.6409 40.1470044,169.2979 39.9860044,168.9159 C39.8250044,168.5349 39.7360044,168.1159 39.7360044,167.6759 L39.7360044,167.5999 L39.7360044,167.5239 L39.7360044,167.4479 L39.7360044,167.3719 C39.7360044,166.9319 39.8250044,166.5129 39.9860044,166.1309 C40.1470044,165.7499 40.3810044,165.4069 40.6690044,165.1179 C40.9580044,164.8299 41.3010044,164.5959 41.6820044,164.4349 C42.0640044,164.2739 42.4830044,164.1849 42.9230044,164.1849 L42.9230044,164.1849 C43.3630044,164.1849 43.7820044,164.2739 44.1640044,164.4349 C44.5450044,164.5959 44.8880044,164.8299 45.1770044,165.1179 C45.4650044,165.4069 45.6990044,165.7499 45.8600044,166.1309 C46.0210044,166.5129 46.1100044,166.9319 46.1100044,167.3719 L46.1100044,167.4479 L46.1100044,167.5239 L46.1100044,167.5999 L46.1100044,167.6759 C46.1100044,168.1159 46.0210044,168.5349 45.8600044,168.9159 C45.6990044,169.2979 45.4650044,169.6409 45.1770044,169.9289 C44.8880044,170.2179 44.5450044,170.4509 44.1640044,170.6119 C43.7820044,170.7739 43.3630044,170.8629 42.9230044,170.8629" id="Fill-602" fill="#4648B7"></path>
                <path d="M75.2049044,174.5984 L61.4469044,174.5984 L47.6889044,174.5984 C46.6309044,174.5984 45.6739044,174.1694 44.9799044,173.4764 C44.2869044,172.7834 43.8579044,171.8254 43.8579044,170.7674 C43.8579044,169.7094 44.2869044,168.7524 44.9799044,168.0584 C45.6739044,167.3654 46.6309044,166.9364 47.6889044,166.9364 L61.4469044,166.9364 L75.2049044,166.9364 C76.2629044,166.9364 77.2209044,167.3654 77.9139044,168.0584 C78.6069044,168.7524 79.0359044,169.7094 79.0359044,170.7674 C79.0359044,171.8254 78.6069044,172.7834 77.9139044,173.4764 C77.2209044,174.1694 76.2629044,174.5984 75.2049044,174.5984" id="Fill-604" fill="#4648B7"></path>
                <path d="M67.5909044,166.9367 L66.4149044,166.9367 L65.2379044,166.9367 C66.2959044,166.9367 67.2539044,167.3657 67.9469044,168.0587 C68.6399044,168.7517 69.0689044,169.7097 69.0689044,170.7677 C69.0689044,171.8257 68.6399044,172.7827 67.9469044,173.4767 C67.2539044,174.1697 66.2959044,174.5987 65.2379044,174.5987 L66.4149044,174.5987 L67.5909044,174.5987 C68.6489044,174.5987 69.6069044,174.1697 70.2999044,173.4767 C70.9929044,172.7827 71.4219044,171.8257 71.4219044,170.7677 C71.4219044,169.7097 70.9929044,168.7517 70.2999044,168.0587 C69.6069044,167.3657 68.6489044,166.9367 67.5909044,166.9367 M72.7889044,166.9367 L71.6129044,166.9367 L70.4359044,166.9367 C71.4939044,166.9367 72.4519044,167.3657 73.1449044,168.0587 C73.8379044,168.7517 74.2669044,169.7097 74.2669044,170.7677 C74.2669044,171.8257 73.8379044,172.7827 73.1449044,173.4767 C72.4519044,174.1697 71.4939044,174.5987 70.4359044,174.5987 L71.6129044,174.5987 L72.7889044,174.5987 C73.8469044,174.5987 74.8039044,174.1697 75.4979044,173.4767 C76.1909044,172.7827 76.6199044,171.8257 76.6199044,170.7677 C76.6199044,169.7097 76.1909044,168.7517 75.4979044,168.0587 C74.8039044,167.3657 73.8469044,166.9367 72.7889044,166.9367 M57.1949044,166.9367 L56.0189044,166.9367 L54.8429044,166.9367 C55.9009044,166.9367 56.8579044,167.3657 57.5519044,168.0587 C58.2449044,168.7517 58.6739044,169.7097 58.6739044,170.7677 C58.6739044,171.8257 58.2449044,172.7827 57.5519044,173.4767 C56.8579044,174.1697 55.9009044,174.5987 54.8429044,174.5987 L56.0189044,174.5987 L57.1949044,174.5987 C58.2529044,174.5987 59.2109044,174.1697 59.9039044,173.4767 C60.5969044,172.7827 61.0259044,171.8257 61.0259044,170.7677 C61.0259044,169.7097 60.5969044,168.7517 59.9039044,168.0587 C59.2109044,167.3657 58.2529044,166.9367 57.1949044,166.9367 M62.3929044,166.9367 L61.2169044,166.9367 L60.0409044,166.9367 C61.0979044,166.9367 62.0559044,167.3657 62.7489044,168.0587 C63.4429044,168.7517 63.8709044,169.7097 63.8709044,170.7677 C63.8709044,171.8257 63.4429044,172.7827 62.7489044,173.4767 C62.0559044,174.1697 61.0979044,174.5987 60.0409044,174.5987 L61.2169044,174.5987 L62.3929044,174.5987 C63.4509044,174.5987 64.4089044,174.1697 65.1019044,173.4767 C65.7949044,172.7827 66.2239044,171.8257 66.2239044,170.7677 C66.2239044,169.7097 65.7949044,168.7517 65.1019044,168.0587 C64.4089044,167.3657 63.4509044,166.9367 62.3929044,166.9367" id="Fill-606" fill="#1D0C43"></path>
                <path d="M51.5476044,174.5984 L40.2746044,174.5984 L29.0006044,174.5984 C27.9436044,174.5984 26.9856044,174.1694 26.2926044,173.4764 C25.5986044,172.7834 25.1706044,171.8254 25.1706044,170.7674 C25.1706044,169.7094 25.5986044,168.7524 26.2926044,168.0584 C26.9856044,167.3654 27.9436044,166.9364 29.0006044,166.9364 L40.2746044,166.9364 L51.5476044,166.9364 C52.6056044,166.9364 53.5636044,167.3654 54.2566044,168.0584 C54.9496044,168.7524 55.3786044,169.7094 55.3786044,170.7674 C55.3786044,171.8254 54.9496044,172.7834 54.2566044,173.4764 C53.5636044,174.1694 52.6056044,174.5984 51.5476044,174.5984" id="Fill-608" fill="#595BD9"></path>
                <path d="M29.0011044,172.691 C28.4711044,172.691 27.9901044,172.475 27.6421044,172.127 C27.2931044,171.779 27.0781044,171.298 27.0781044,170.767 C27.0781044,170.237 27.2931044,169.756 27.6421044,169.408 C27.9901044,169.06 28.4711044,168.844 29.0011044,168.844 L40.2741044,168.844 L51.5481044,168.844 C52.0781044,168.844 52.5581044,169.06 52.9071044,169.408 C53.2551044,169.756 53.4711044,170.237 53.4711044,170.767 C53.4711044,171.298 53.2551044,171.779 52.9071044,172.127 C52.5581044,172.475 52.0781044,172.691 51.5481044,172.691 L40.2741044,172.691 L29.0011044,172.691 Z" id="Fill-610" fill="#1D0C43"></path>
                <path d="M30.8769044,170.7675 C30.8769044,171.2985 30.6619044,171.7795 30.3139044,172.1275 C29.9659044,172.4755 29.4849044,172.6915 28.9539044,172.6915 C28.4219044,172.6915 27.9409044,172.4755 27.5929044,172.1275 C27.2449044,171.7795 27.0299044,171.2985 27.0299044,170.7675 C27.0299044,170.2365 27.2449044,169.7555 27.5929044,169.4075 C27.9409044,169.0595 28.4219044,168.8445 28.9539044,168.8445 C29.4849044,168.8445 29.9659044,169.0595 30.3139044,169.4075 C30.6619044,169.7555 30.8769044,170.2365 30.8769044,170.7675" id="Fill-612" fill="#4CEEF3"></path>
                <path d="M28.9534044,171.928 C28.6334044,171.928 28.3434044,171.798 28.1334044,171.588 C27.9234044,171.378 27.7924044,171.088 27.7924044,170.767 C27.7924044,170.447 27.9234044,170.157 28.1334044,169.947 C28.3434044,169.737 28.6334044,169.607 28.9534044,169.607 C29.2734044,169.607 29.5634044,169.737 29.7734044,169.947 C29.9834044,170.157 30.1134044,170.447 30.1134044,170.767 C30.1134044,171.088 29.9834044,171.378 29.7734044,171.588 C29.5634044,171.798 29.2734044,171.928 28.9534044,171.928" id="Fill-614" fill="#00D5EE"></path>
                <path d="M38.4082044,170.7675 C38.4082044,171.2985 38.1932044,171.7795 37.8452044,172.1275 C37.4972044,172.4755 37.0162044,172.6915 36.4842044,172.6915 C35.9532044,172.6915 35.4722044,172.4755 35.1242044,172.1275 C34.7762044,171.7795 34.5612044,171.2985 34.5612044,170.7675 C34.5612044,170.2365 34.7762044,169.7555 35.1242044,169.4075 C35.4722044,169.0595 35.9532044,168.8445 36.4842044,168.8445 C37.0162044,168.8445 37.4972044,169.0595 37.8452044,169.4075 C38.1932044,169.7555 38.4082044,170.2365 38.4082044,170.7675" id="Fill-616" fill="#4CEEF3"></path>
                <path d="M36.4847044,171.928 C36.1647044,171.928 35.8747044,171.798 35.6647044,171.588 C35.4547044,171.378 35.3247044,171.088 35.3247044,170.767 C35.3247044,170.447 35.4547044,170.157 35.6647044,169.947 C35.8747044,169.737 36.1647044,169.607 36.4847044,169.607 C36.8047044,169.607 37.0947044,169.737 37.3047044,169.947 C37.5147044,170.157 37.6457044,170.447 37.6457044,170.767 C37.6457044,171.088 37.5147044,171.378 37.3047044,171.588 C37.0947044,171.798 36.8047044,171.928 36.4847044,171.928" id="Fill-618" fill="#00D5EE"></path>
                <path d="M45.9395044,170.7675 C45.9395044,171.2985 45.7245044,171.7795 45.3765044,172.1275 C45.0285044,172.4755 44.5475044,172.6915 44.0155044,172.6915 C43.4845044,172.6915 43.0035044,172.4755 42.6555044,172.1275 C42.3075044,171.7795 42.0925044,171.2985 42.0925044,170.7675 C42.0925044,170.2365 42.3075044,169.7555 42.6555044,169.4075 C43.0035044,169.0595 43.4845044,168.8445 44.0155044,168.8445 C44.5475044,168.8445 45.0285044,169.0595 45.3765044,169.4075 C45.7245044,169.7555 45.9395044,170.2365 45.9395044,170.7675" id="Fill-620" fill="#4CEEF3"></path>
                <path d="M44.0161044,171.928 C43.6961044,171.928 43.4061044,171.798 43.1961044,171.588 C42.9861044,171.378 42.8561044,171.088 42.8561044,170.767 C42.8561044,170.447 42.9861044,170.157 43.1961044,169.947 C43.4061044,169.737 43.6961044,169.607 44.0161044,169.607 C44.3361044,169.607 44.6261044,169.737 44.8361044,169.947 C45.0461044,170.157 45.1771044,170.447 45.1771044,170.767 C45.1771044,171.088 45.0461044,171.378 44.8361044,171.588 C44.6261044,171.798 44.3361044,171.928 44.0161044,171.928" id="Fill-622" fill="#00D5EE"></path>
                <path d="M53.4708044,170.7675 C53.4708044,171.2985 53.2558044,171.7795 52.9078044,172.1275 C52.5598044,172.4755 52.0788044,172.6915 51.5468044,172.6915 C51.0158044,172.6915 50.5348044,172.4755 50.1868044,172.1275 C49.8388044,171.7795 49.6238044,171.2985 49.6238044,170.7675 C49.6238044,170.2365 49.8388044,169.7555 50.1868044,169.4075 C50.5348044,169.0595 51.0158044,168.8445 51.5468044,168.8445 C52.0788044,168.8445 52.5598044,169.0595 52.9078044,169.4075 C53.2558044,169.7555 53.4708044,170.2365 53.4708044,170.7675" id="Fill-624" fill="#4CEEF3"></path>
                <path d="M51.5473044,171.928 C51.2273044,171.928 50.9373044,171.798 50.7273044,171.588 C50.5173044,171.378 50.3863044,171.088 50.3863044,170.767 C50.3863044,170.447 50.5173044,170.157 50.7273044,169.947 C50.9373044,169.737 51.2273044,169.607 51.5473044,169.607 C51.8673044,169.607 52.1573044,169.737 52.3673044,169.947 C52.5773044,170.157 52.7083044,170.447 52.7083044,170.767 C52.7083044,171.088 52.5773044,171.378 52.3673044,171.588 C52.1573044,171.798 51.8673044,171.928 51.5473044,171.928" id="Fill-626" fill="#00D5EE"></path>
                <path d="M61.3618044,147.6746 L58.1538044,147.6746 L54.9448044,147.6746 C54.8428044,147.6746 54.7488044,147.6326 54.6818044,147.5656 C54.6148044,147.4986 54.5728044,147.4046 54.5728044,147.3026 C54.5728044,147.1996 54.6148044,147.1066 54.6818044,147.0386 C54.7488044,146.9716 54.8428044,146.9296 54.9448044,146.9296 L58.1538044,146.9296 L61.3618044,146.9296 C61.4648044,146.9296 61.5578044,146.9716 61.6248044,147.0386 C61.6928044,147.1066 61.7338044,147.1996 61.7338044,147.3026 C61.7338044,147.4046 61.6928044,147.4986 61.6248044,147.5656 C61.5578044,147.6326 61.4648044,147.6746 61.3618044,147.6746" id="Fill-628" fill="#595BD9"></path>
                <path d="M61.3618044,149.4863 L58.1538044,149.4863 L54.9448044,149.4863 C54.8428044,149.4863 54.7488044,149.4443 54.6818044,149.3773 C54.6148044,149.3103 54.5728044,149.2163 54.5728044,149.1143 C54.5728044,149.0113 54.6148044,148.9183 54.6818044,148.8503 C54.7488044,148.7833 54.8428044,148.7413 54.9448044,148.7413 L58.1538044,148.7413 L61.3618044,148.7413 C61.4648044,148.7413 61.5578044,148.7833 61.6248044,148.8503 C61.6928044,148.9183 61.7338044,149.0113 61.7338044,149.1143 C61.7338044,149.2163 61.6928044,149.3103 61.6248044,149.3773 C61.5578044,149.4443 61.4648044,149.4863 61.3618044,149.4863" id="Fill-630" fill="#595BD9"></path>
                <path d="M61.3618044,151.298 L58.1538044,151.298 L54.9448044,151.298 C54.8428044,151.298 54.7488044,151.256 54.6818044,151.189 C54.6148044,151.122 54.5728044,151.028 54.5728044,150.926 C54.5728044,150.823 54.6148044,150.73 54.6818044,150.662 C54.7488044,150.595 54.8428044,150.553 54.9448044,150.553 L58.1538044,150.553 L61.3618044,150.553 C61.4648044,150.553 61.5578044,150.595 61.6248044,150.662 C61.6928044,150.73 61.7338044,150.823 61.7338044,150.926 C61.7338044,151.028 61.6928044,151.122 61.6248044,151.189 C61.5578044,151.256 61.4648044,151.298 61.3618044,151.298" id="Fill-632" fill="#595BD9"></path>
                <path d="M61.3618044,153.1097 L58.1538044,153.1097 L54.9448044,153.1097 C54.8428044,153.1097 54.7488044,153.0677 54.6818044,153.0007 C54.6148044,152.9337 54.5728044,152.8397 54.5728044,152.7377 C54.5728044,152.6347 54.6148044,152.5417 54.6818044,152.4737 C54.7488044,152.4067 54.8428044,152.3647 54.9448044,152.3647 L58.1538044,152.3647 L61.3618044,152.3647 C61.4648044,152.3647 61.5578044,152.4067 61.6248044,152.4737 C61.6928044,152.5417 61.7338044,152.6347 61.7338044,152.7377 C61.7338044,152.8397 61.6928044,152.9337 61.6248044,153.0007 C61.5578044,153.0677 61.4648044,153.1097 61.3618044,153.1097" id="Fill-634" fill="#595BD9"></path>
                <path d="M61.3618044,154.9214 L58.1538044,154.9214 L54.9448044,154.9214 C54.8428044,154.9214 54.7488044,154.8794 54.6818044,154.8124 C54.6148044,154.7454 54.5728044,154.6514 54.5728044,154.5494 C54.5728044,154.4464 54.6148044,154.3534 54.6818044,154.2854 C54.7488044,154.2184 54.8428044,154.1764 54.9448044,154.1764 L58.1538044,154.1764 L61.3618044,154.1764 C61.4648044,154.1764 61.5578044,154.2184 61.6248044,154.2854 C61.6928044,154.3534 61.7338044,154.4464 61.7338044,154.5494 C61.7338044,154.6514 61.6928044,154.7454 61.6248044,154.8124 C61.5578044,154.8794 61.4648044,154.9214 61.3618044,154.9214" id="Fill-636" fill="#595BD9"></path>
                <path d="M59.1122044,148.2027 L57.0202044,148.2027 L54.9272044,148.2027 C54.8292044,148.2027 54.7412044,148.1627 54.6762044,148.0987 C54.6122044,148.0347 54.5732044,147.9457 54.5732044,147.8477 C54.5732044,147.7507 54.6122044,147.6617 54.6762044,147.5977 C54.7412044,147.5337 54.8292044,147.4937 54.9272044,147.4937 L57.0202044,147.4937 L59.1122044,147.4937 C59.2102044,147.4937 59.2992044,147.5337 59.3632044,147.5977 C59.4272044,147.6617 59.4672044,147.7507 59.4672044,147.8477 C59.4672044,147.9457 59.4272044,148.0347 59.3632044,148.0987 C59.2992044,148.1627 59.2102044,148.2027 59.1122044,148.2027" id="Fill-638" fill="#1D0C43"></path>
                <path d="M59.1122044,149.9277 L57.0202044,149.9277 L54.9272044,149.9277 C54.8292044,149.9277 54.7412044,149.8877 54.6762044,149.8237 C54.6122044,149.7597 54.5732044,149.6707 54.5732044,149.5727 C54.5732044,149.4757 54.6122044,149.3867 54.6762044,149.3227 C54.7412044,149.2587 54.8292044,149.2187 54.9272044,149.2187 L57.0202044,149.2187 L59.1122044,149.2187 C59.2102044,149.2187 59.2992044,149.2587 59.3632044,149.3227 C59.4272044,149.3867 59.4672044,149.4757 59.4672044,149.5727 C59.4672044,149.6707 59.4272044,149.7597 59.3632044,149.8237 C59.2992044,149.8877 59.2102044,149.9277 59.1122044,149.9277" id="Fill-640" fill="#1D0C43"></path>
                <path d="M59.1122044,151.6526 L57.0202044,151.6526 L54.9272044,151.6526 C54.8292044,151.6526 54.7412044,151.6126 54.6762044,151.5486 C54.6122044,151.4846 54.5732044,151.3956 54.5732044,151.2976 C54.5732044,151.2006 54.6122044,151.1116 54.6762044,151.0476 C54.7412044,150.9836 54.8292044,150.9436 54.9272044,150.9436 L57.0202044,150.9436 L59.1122044,150.9436 C59.2102044,150.9436 59.2992044,150.9836 59.3632044,151.0476 C59.4272044,151.1116 59.4672044,151.2006 59.4672044,151.2976 C59.4672044,151.3956 59.4272044,151.4846 59.3632044,151.5486 C59.2992044,151.6126 59.2102044,151.6526 59.1122044,151.6526" id="Fill-642" fill="#1D0C43"></path>
                <path d="M59.1122044,153.3775 L57.0202044,153.3775 L54.9272044,153.3775 C54.8292044,153.3775 54.7412044,153.3375 54.6762044,153.2735 C54.6122044,153.2095 54.5732044,153.1205 54.5732044,153.0225 C54.5732044,152.9255 54.6122044,152.8365 54.6762044,152.7725 C54.7412044,152.7085 54.8292044,152.6685 54.9272044,152.6685 L57.0202044,152.6685 L59.1122044,152.6685 C59.2102044,152.6685 59.2992044,152.7085 59.3632044,152.7725 C59.4272044,152.8365 59.4672044,152.9255 59.4672044,153.0225 C59.4672044,153.1205 59.4272044,153.2095 59.3632044,153.2735 C59.2992044,153.3375 59.2102044,153.3775 59.1122044,153.3775" id="Fill-644" fill="#1D0C43"></path>
                <path d="M59.1122044,155.1024 L57.0202044,155.1024 L54.9272044,155.1024 C54.8292044,155.1024 54.7412044,155.0624 54.6762044,154.9984 C54.6122044,154.9344 54.5732044,154.8454 54.5732044,154.7474 C54.5732044,154.6504 54.6122044,154.5614 54.6762044,154.4974 C54.7412044,154.4334 54.8292044,154.3934 54.9272044,154.3934 L57.0202044,154.3934 L59.1122044,154.3934 C59.2102044,154.3934 59.2992044,154.4334 59.3632044,154.4974 C59.4272044,154.5614 59.4672044,154.6504 59.4672044,154.7474 C59.4672044,154.8454 59.4272044,154.9344 59.3632044,154.9984 C59.2992044,155.0624 59.2102044,155.1024 59.1122044,155.1024" id="Fill-646" fill="#1D0C43"></path>
                <path d="M88.7208044,93.5587 L51.6898044,93.5587 L14.6588044,93.5587 C12.5658044,93.5587 10.6708044,92.5507 9.29980442,90.9207 C7.92880442,89.2907 7.08080442,87.0397 7.08080442,84.5527 L7.08080442,80.8007 L7.08080442,77.0487 C7.08080442,74.5617 7.92880442,72.3097 9.29980442,70.6797 C10.6708044,69.0507 12.5658044,68.0427 14.6588044,68.0427 L51.6898044,68.0427 L88.7208044,68.0427 C90.8138044,68.0427 92.7078044,69.0507 94.0798044,70.6797 C95.4508044,72.3097 96.2988044,74.5617 96.2988044,77.0487 L96.2988044,80.8007 L96.2988044,84.5527 C96.2988044,87.0397 95.4508044,89.2907 94.0798044,90.9207 C92.7078044,92.5507 90.8138044,93.5587 88.7208044,93.5587" id="Fill-648" fill="#4648B7"></path>
                <path d="M62.3459044,81.5933 C62.3459044,86.8023 66.5689044,91.0253 71.7779044,91.0253 C76.9869044,91.0253 81.2099044,86.8023 81.2099044,81.5933 C81.2099044,76.3843 76.9869044,72.1613 71.7779044,72.1613 C66.5689044,72.1613 62.3459044,76.3843 62.3459044,81.5933" id="Fill-650" fill="#FFFFFF"></path>
                <path d="M63.0918044,81.5933 C63.0918044,85.7173 66.4348044,89.0603 70.5588044,89.0603 C74.6828044,89.0603 78.0258044,85.7173 78.0258044,81.5933 C78.0258044,77.4693 74.6828044,74.1263 70.5588044,74.1263 C66.4348044,74.1263 63.0918044,77.4693 63.0918044,81.5933" id="Fill-652" fill="#4CEEF3"></path>
                <path d="M20.2312044,81.5933 C20.2312044,86.8023 24.4542044,91.0253 29.6632044,91.0253 C34.8722044,91.0253 39.0952044,86.8023 39.0952044,81.5933 C39.0952044,76.3843 34.8722044,72.1613 29.6632044,72.1613 C24.4542044,72.1613 20.2312044,76.3843 20.2312044,81.5933" id="Fill-654" fill="#FFFFFF"></path>
                <path d="M20.9772044,81.5933 C20.9772044,85.7173 24.3202044,89.0603 28.4442044,89.0603 C32.5682044,89.0603 35.9112044,85.7173 35.9112044,81.5933 C35.9112044,77.4693 32.5682044,74.1263 28.4442044,74.1263 C24.3202044,74.1263 20.9772044,77.4693 20.9772044,81.5933" id="Fill-656" fill="#4CEEF3"></path>
                <path d="M77.2631044,92.1154 C77.0641044,90.6444 78.9051044,88.9634 81.3751044,88.3614 C83.8441044,87.7594 86.0081044,88.4644 86.2061044,89.9354 C86.4051044,91.4064 84.5641044,93.0864 82.0941044,93.6884 C79.6251044,94.2904 77.4621044,93.5864 77.2631044,92.1154" id="Fill-658" fill="#FE7B5C"></path>
                <path d="M24.1778044,92.1154 C24.3768044,90.6444 22.5358044,88.9634 20.0658044,88.3614 C17.5968044,87.7594 15.4328044,88.4644 15.2348044,89.9354 C15.0358044,91.4064 16.8768044,93.0864 19.3468044,93.6884 C21.8158044,94.2904 23.9788044,93.5864 24.1778044,92.1154" id="Fill-660" fill="#FE7B5C"></path>
                <path d="M23.0638044,70.7751 C23.0638044,70.7751 27.2638044,61.9821 38.7418044,65.4381 C33.0318044,58.8141 23.1238044,63.0711 23.0638044,70.7751" id="Fill-662" fill="#1D0C43"></path>
                <path d="M80.8923044,70.1942 C80.8923044,70.1942 76.0553044,61.7352 64.8623044,66.0292 C70.0683044,59.0022 80.2633044,62.5162 80.8923044,70.1942" id="Fill-664" fill="#1D0C43"></path>
                <path d="M51.3407044,101.9027 C51.0597044,101.9027 50.7797044,101.8877 50.5007044,101.8587 C45.7957044,101.3727 43.0847044,96.9847 42.9717044,96.7977 C42.8427044,96.5867 42.9107044,96.3107 43.1227044,96.1827 C43.3347044,96.0527 43.6107044,96.1217 43.7387044,96.3327 C43.7647044,96.3747 46.3417044,100.5307 50.5997044,100.9667 C53.6047044,101.2667 56.7537044,99.6917 59.9567044,96.2597 C60.1267044,96.0797 60.4107044,96.0687 60.5917044,96.2377 C60.7727044,96.4067 60.7817044,96.6907 60.6137044,96.8717 C57.4947044,100.2137 54.3797044,101.9027 51.3407044,101.9027" id="Fill-666" fill="#1D0C43"></path>
                <path d="M86.4796044,121.3293 C87.2916044,121.4563 88.1046044,121.5843 88.9166044,121.7113 C89.7286044,121.8393 90.5416044,121.9663 91.3536044,122.0943 C90.3526044,128.4713 85.9476044,132.5493 80.8506044,133.9783 C75.7536044,135.4083 69.9646044,134.1873 66.1966044,129.9663 C65.5856044,129.2823 65.2896044,128.5343 65.3046044,127.8263 C65.3196044,127.1193 65.6456044,126.4513 66.2776044,125.9293 C66.7756044,125.6183 67.3316044,125.4433 67.9246044,125.5123 C68.5166044,125.5803 69.1456044,125.8913 69.7886044,126.5523 C72.3416044,129.3043 76.1826044,130.1143 79.5516044,129.1773 C82.9196044,128.2413 85.8156044,125.5603 86.4796044,121.3293" id="Fill-668" fill="#1D0C43"></path>
                <path d="M69.0552044,132.5184 C69.0552044,132.4754 69.0602044,132.4314 69.0722044,132.3884 C69.0832044,132.3454 69.1002044,132.3034 69.1232044,132.2634 L70.3142044,130.1944 L71.5042044,128.1244 C71.5752044,128.0024 71.6882044,127.9204 71.8152044,127.8864 C71.9412044,127.8514 72.0802044,127.8654 72.2032044,127.9364 C72.3262044,128.0064 72.4082044,128.1204 72.4422044,128.2464 C72.4762044,128.3734 72.4622044,128.5124 72.3912044,128.6354 L71.2012044,130.7044 L70.0102044,132.7744 C69.9402044,132.8964 69.8272044,132.9784 69.7002044,133.0124 C69.5742044,133.0464 69.4342044,133.0324 69.3122044,132.9624 C69.2292044,132.9154 69.1652044,132.8484 69.1222044,132.7714 C69.0782044,132.6944 69.0552044,132.6074 69.0552044,132.5184" id="Fill-670" fill="#4CEEF3"></path>
                <path d="M73.3680044,134.1115 C73.3680044,134.0945 73.3690044,134.0765 73.3710044,134.0595 C73.3720044,134.0415 73.3750044,134.0245 73.3790044,134.0065 L73.8670044,131.6775 L74.3540044,129.3485 C74.3830044,129.2095 74.4650044,129.0965 74.5750044,129.0245 C74.6840044,128.9535 74.8210044,128.9235 74.9600044,128.9525 C75.0980044,128.9815 75.2120044,129.0645 75.2830044,129.1735 C75.3550044,129.2835 75.3840044,129.4205 75.3560044,129.5585 L74.8680044,131.8875 L74.3810044,134.2165 C74.3520044,134.3545 74.2690044,134.4675 74.1600044,134.5395 C74.0500044,134.6115 73.9130044,134.6415 73.7750044,134.6125 C73.6540044,134.5865 73.5530044,134.5205 73.4810044,134.4315 C73.4090044,134.3425 73.3680044,134.2305 73.3680044,134.1115" id="Fill-672" fill="#4CEEF3"></path>
                <path d="M77.4148044,129.5824 C77.4148044,129.4534 77.4638044,129.3334 77.5448044,129.2424 C77.6258044,129.1514 77.7408044,129.0884 77.8718044,129.0744 C78.0118044,129.0594 78.1458044,129.1024 78.2478044,129.1844 C78.3498044,129.2664 78.4198044,129.3874 78.4358044,129.5284 L78.6908044,131.8884 L78.9458044,134.2494 C78.9608044,134.3864 78.9178044,134.5204 78.8348044,134.6224 C78.7538044,134.7254 78.6328044,134.7974 78.4918044,134.8124 C78.3518044,134.8274 78.2178044,134.7844 78.1158044,134.7024 C78.0138044,134.6204 77.9438044,134.4994 77.9278044,134.3584 L77.6728044,131.9984 L77.4178044,129.6384 C77.4168044,129.6284 77.4158044,129.6194 77.4158044,129.6104 C77.4148044,129.6004 77.4148044,129.5914 77.4148044,129.5824" id="Fill-674" fill="#4CEEF3"></path>
                <path d="M80.3876044,128.7994 C80.3876044,128.7014 80.4156044,128.6064 80.4676044,128.5244 C80.5196044,128.4424 80.5946044,128.3744 80.6896044,128.3324 C80.8186044,128.2744 80.9586044,128.2744 81.0816044,128.3204 C81.2036044,128.3674 81.3086044,128.4604 81.3666044,128.5894 L82.3406044,130.7604 L83.3146044,132.9314 C83.3726044,133.0594 83.3726044,133.1994 83.3256044,133.3214 C83.2796044,133.4444 83.1856044,133.5494 83.0566044,133.6074 C82.9286044,133.6654 82.7876044,133.6654 82.6656044,133.6184 C82.5436044,133.5724 82.4386044,133.4784 82.3806044,133.3494 L81.4066044,131.1794 L80.4326044,129.0084 C80.4176044,128.9744 80.4056044,128.9394 80.3986044,128.9044 C80.3916044,128.8694 80.3876044,128.8344 80.3876044,128.7994" id="Fill-676" fill="#4CEEF3"></path>
                <path d="M82.9972044,127.13 C82.9972044,127.06 83.0112044,126.991 83.0392044,126.926 C83.0672044,126.862 83.1092044,126.802 83.1652044,126.751 C83.2692044,126.656 83.4032044,126.613 83.5332044,126.619 C83.6642044,126.625 83.7932044,126.681 83.8882044,126.786 L85.4932044,128.553 L87.0982044,130.321 C87.1932044,130.425 87.2362044,130.558 87.2302044,130.689 C87.2242044,130.82 87.1682044,130.948 87.0632044,131.043 C86.9582044,131.138 86.8252044,131.182 86.6942044,131.176 C86.5632044,131.169 86.4352044,131.113 86.3402044,131.009 L84.7352044,129.241 L83.1302044,127.474 C83.0852044,127.425 83.0522044,127.37 83.0302044,127.311 C83.0082044,127.253 82.9972044,127.191 82.9972044,127.13" id="Fill-678" fill="#4CEEF3"></path>
                <path d="M84.9802044,124.6057 C84.9802044,124.5637 84.9852044,124.5217 84.9962044,124.4797 C85.0062044,124.4377 85.0232044,124.3967 85.0442044,124.3577 C85.1132044,124.2337 85.2252044,124.1497 85.3512044,124.1137 C85.4772044,124.0777 85.6172044,124.0897 85.7402044,124.1587 L87.8252044,125.3157 L89.9092044,126.4727 C90.0332044,126.5417 90.1172044,126.6537 90.1532044,126.7797 C90.1892044,126.9057 90.1772044,127.0457 90.1082044,127.1687 C90.0402044,127.2917 89.9272044,127.3767 89.8022044,127.4127 C89.6762044,127.4487 89.5362044,127.4367 89.4122044,127.3677 L87.3282044,126.2107 L85.2432044,125.0537 C85.1592044,125.0067 85.0932044,124.9397 85.0492044,124.8617 C85.0042044,124.7837 84.9802044,124.6957 84.9802044,124.6057" id="Fill-680" fill="#4CEEF3"></path>
                <path d="M94.9150044,117.1076 C96.0440044,115.5036 96.4150044,113.5906 96.1020044,111.7956 C95.7900044,110.0016 94.7950044,108.3256 93.1910044,107.1976 C92.9020044,106.9936 92.5560044,106.9266 92.2330044,106.9826 C91.9090044,107.0386 91.6070044,107.2186 91.4030044,107.5086 C91.1990044,107.7986 91.1320044,108.1436 91.1880044,108.4666 C91.2450044,108.7906 91.4240044,109.0926 91.7140044,109.2966 C92.7390044,110.0176 93.3750044,111.0886 93.5750044,112.2356 C93.7740044,113.3826 93.5370044,114.6056 92.8160044,115.6306 C92.4650044,116.1286 92.0320044,116.5336 91.5480044,116.8416 C91.0630044,117.1496 90.5280044,117.3606 89.9730044,117.4696 C89.8530044,117.9106 89.7360044,118.3506 89.6220044,118.7916 C89.5080044,119.2326 89.3980044,119.6726 89.2910044,120.1136 C90.3750044,120.0826 91.4460044,119.8076 92.4130044,119.3026 C93.3800044,118.7966 94.2440044,118.0606 94.9150044,117.1076" id="Fill-682" fill="#1D0C43"></path>
                <path d="M90.9921044,117.4951 C90.4161044,117.3321 89.8721044,117.0581 89.3971044,116.6821 C88.9211044,116.3061 88.5141044,115.8281 88.2121044,115.2591 C87.6231044,114.1521 87.5401044,112.9101 87.8811044,111.7961 C88.2211044,110.6831 88.9861044,109.7001 90.0931044,109.1121 C90.4051044,108.9451 90.6211044,108.6681 90.7181044,108.3541 C90.8141044,108.0401 90.7901044,107.6891 90.6241044,107.3761 C90.4571044,107.0631 90.1801044,106.8471 89.8661044,106.7511 C89.5521044,106.6551 89.2011044,106.6781 88.8881044,106.8451 C87.1561044,107.7651 85.9601044,109.3041 85.4271044,111.0461 C84.8941044,112.7881 85.0251044,114.7321 85.9451044,116.4641 C86.3181044,117.1661 86.7941044,117.7791 87.3441044,118.2951 C87.8951044,118.8111 88.5191044,119.2301 89.1881044,119.5451 C89.4831044,119.2011 89.7801044,118.8571 90.0811044,118.5161 C90.3821044,118.1741 90.6861044,117.8341 90.9921044,117.4951" id="Fill-684" fill="#1D0C43"></path>
                <path d="M86.0864044,115.1756 L86.0864044,115.1756 C86.6094044,114.6686 87.2114044,114.2906 87.8504044,114.0436 C88.4894044,113.7956 89.1674044,113.6776 89.8424044,113.6876 C90.5184044,113.6976 91.1914044,113.8376 91.8224044,114.1046 C92.4544044,114.3726 93.0434044,114.7686 93.5504044,115.2916 C94.0584044,115.8146 94.4354044,116.4166 94.6834044,117.0556 C94.9314044,117.6946 95.0494044,118.3726 95.0384044,119.0476 C95.0284044,119.7236 94.8894044,120.3966 94.6214044,121.0276 C94.3544044,121.6596 93.9584044,122.2486 93.4354044,122.7556 L93.4354044,122.7556 C92.9114044,123.2636 92.3104044,123.6406 91.6714044,123.8886 C91.0314044,124.1356 90.3544044,124.2546 89.6784044,124.2436 C89.0034044,124.2336 88.3304044,124.0946 87.6984044,123.8266 C87.0674044,123.5586 86.4774044,123.1636 85.9704044,122.6396 C85.4634044,122.1166 85.0864044,121.5156 84.8384044,120.8756 C84.5904044,120.2366 84.4724044,119.5596 84.4824044,118.8836 C84.4934044,118.2086 84.6324044,117.5346 84.8994044,116.9036 C85.1674044,116.2726 85.5634044,115.6826 86.0864044,115.1756" id="Fill-686" fill="#4CEEF3"></path>
                <path d="M87.9930044,117.1424 C88.4960044,116.6554 89.1500044,116.4174 89.8000044,116.4274 C90.4500044,116.4374 91.0970044,116.6954 91.5840044,117.1984 C92.0720044,117.7004 92.3090044,118.3554 92.2990044,119.0054 C92.2890044,119.6554 92.0310044,120.3024 91.5280044,120.7894 C91.0260044,121.2764 90.3720044,121.5144 89.7210044,121.5044 C89.0710044,121.4944 88.4250044,121.2364 87.9370044,120.7334 C87.4500044,120.2304 87.2120044,119.5764 87.2230044,118.9264 C87.2330044,118.2764 87.4900044,117.6294 87.9930044,117.1424" id="Fill-688" fill="#1D0C43"></path>
                <path d="M69.3535044,126.9201 C69.3535044,128.0381 68.9005044,129.0511 68.1675044,129.7831 C67.4345044,130.5161 66.4225044,130.9701 65.3035044,130.9701 C64.1855044,130.9701 63.1735044,130.5161 62.4405044,129.7831 C61.7075044,129.0511 61.2545044,128.0381 61.2545044,126.9201 C61.2545044,125.8021 61.7075044,124.7891 62.4405044,124.0571 C63.1735044,123.3241 64.1855044,122.8701 65.3035044,122.8701 C66.4225044,122.8701 67.4345044,123.3241 68.1675044,124.0571 C68.9005044,124.7891 69.3535044,125.8021 69.3535044,126.9201" id="Fill-690" fill="#595BD9"></path>
                <path d="M81.8382044,72.5624 C80.3812044,79.5284 81.1842044,86.9494 84.0962044,93.4434 C85.8852044,97.4294 88.4242044,101.0354 90.3482044,104.9574 C92.2722044,108.8804 94.1132044,113.3364 93.1952044,117.6084 C92.2772044,121.8804 88.2232044,125.9894 83.9132044,125.3644 C80.9192044,124.9314 81.3322044,122.7854 83.6432044,122.4064 C92.0112044,121.0354 93.9122044,135.2184 81.3322044,135.2184" id="Stroke-692" stroke="#1D0C43" stroke-width="0.25" stroke-linecap="round" stroke-linejoin="round"></path>
                <path d="M94.9290044,59.7074 C94.2480044,66.1004 86.4730044,75.3684 81.6080044,74.8504 C76.9930044,74.3584 71.0960044,63.6344 71.7770044,57.2404 C72.4580044,50.8474 78.1930044,46.2174 84.5860044,46.8984 C90.9800044,47.5794 95.6100044,53.3144 94.9290044,59.7074" id="Fill-694" fill="#4CEEF3"></path>
                <path d="M80.9931044,66.7223 C74.6391044,63.3333 74.2031044,55.0453 76.9821044,48.7313 C74.1621044,50.5783 72.1621044,53.6273 71.7771044,57.2413 C71.0961044,63.6343 76.9931044,74.3583 81.6081044,74.8503 C84.6731044,75.1763 88.8911044,71.6183 91.7651044,67.3433 C88.4681044,68.7053 84.5491044,68.6273 80.9931044,66.7223" id="Fill-696"></path>
                <path d="M79.8523044,76.0587 L81.2243044,74.9507 C81.3993044,74.8097 81.6543044,74.8367 81.7953044,75.0117 L82.9033044,76.3837 C83.1303044,76.6647 82.9043044,77.0797 82.5453044,77.0417 L80.0643044,76.7777 C79.7053044,76.7387 79.5713044,76.2857 79.8523044,76.0587" id="Fill-698" fill="#37DBF2"></path>
                <path d="M80.8987044,74.8604 C80.8987044,74.8604 81.4867044,75.2164 82.1607044,75.0874" id="Stroke-700" stroke="#1D0C43" stroke-width="0.25" stroke-linecap="round" stroke-linejoin="round"></path>
                <g id="Group-704" transform="translate(72.889704, 48.252400)">
                    <mask id="mask-2" fill="white">
                        <use xlink:href="#path-1"></use>
                    </mask>
                    <g id="Clip-703"></g>
                    <path d="M9.148,25.008 C9.062,25.008 8.977,25.004 8.895,24.995 C7.281,24.823 4.969,22.498 3.144,19.211 C1.191,15.693 0.154,11.859 0.436,9.206 C0.984,4.066 5.289,0.19 10.45,0.19 C10.808,0.19 11.172,0.209 11.532,0.247 C14.21,0.533 16.617,1.844 18.31,3.94 C20.002,6.035 20.776,8.665 20.491,11.343 C19.906,16.835 13.122,25.008 9.148,25.008" id="Fill-702" mask="url(#mask-2)"></path>
                </g>
            </g>
        </g>
    </g>
</svg>