<?xml version="1.0" encoding="UTF-8"?>
<svg width="26px" height="25px" viewBox="0 0 26 25" version="1.1" xmlns="http://www.w3.org/2000/svg" xmlns:xlink="http://www.w3.org/1999/xlink">
    <!-- Generator: Sketch 53.1 (72631) - https://sketchapp.com -->
    <title>Group 3Exit</title>
    <desc>Created with Sketch.</desc>
    <g id="Page-1" stroke="none" stroke-width="1" fill="none" fill-rule="evenodd">
        <g id="Desktop-HD" transform="translate(-110.000000, -643.000000)" fill="#FFFFFF">
            <g id="Group-3" transform="translate(110.590450, 643.237700)">
                <path d="M13.14505,1.77635684e-14 C10.58805,1.77635684e-14 8.14605,0.792 6.08105,2.289 C5.84505,2.461 5.78005,2.786 5.93405,3.035 L7.87305,6.18 C7.95405,6.312 8.08705,6.405 8.24005,6.435 C8.39205,6.465 8.55005,6.43 8.67605,6.339 C9.88305,5.464 11.31105,5.001 12.80605,5.001 C16.68905,5.001 19.84705,8.16 19.84705,12.042 C19.84705,15.925 16.68905,19.084 12.80605,19.084 C11.31105,19.084 9.88305,18.621 8.67605,17.745 C8.55005,17.654 8.39205,17.619 8.24005,17.65 C8.08705,17.68 7.95405,17.772 7.87305,17.904 L5.93405,21.05 C5.78005,21.299 5.84505,21.624 6.08105,21.795 C8.14605,23.293 10.58805,24.085 13.14505,24.085 C19.78505,24.085 25.18705,18.682 25.18705,12.042 C25.18705,5.402 19.78505,1.77635684e-14 13.14505,1.77635684e-14" id="Fill-49"></path>
                <path d="M7.66675,16.5588 C7.76375,16.3768 7.75375,16.1568 7.63875,15.9858 L6.32775,14.0188 L14.26275,14.0188 C15.35275,14.0188 16.23875,13.1318 16.23875,12.0428 C16.23875,10.9528 15.35275,10.0658 14.26275,10.0658 L6.32775,10.0658 L7.63875,8.0988 C7.75375,7.9278 7.76375,7.7078 7.66675,7.5258 C7.56975,7.3438 7.38075,7.2308 7.17475,7.2308 L3.39375,7.2308 C3.20775,7.2308 3.03275,7.3238 2.92975,7.4798 L0.09375,11.7328 C-0.03125,11.9198 -0.03125,12.1648 0.09375,12.3518 L2.92975,16.6048 C3.03275,16.7608 3.20775,16.8538 3.39375,16.8538 L7.17475,16.8538 C7.38075,16.8538 7.56975,16.7408 7.66675,16.5588" id="Fill-50"></path>
            </g>
        </g>
    </g>
</svg>