<?xml version="1.0" encoding="UTF-8"?>
<svg width="15px" height="23px" viewBox="0 0 15 23" version="1.1" xmlns="http://www.w3.org/2000/svg" xmlns:xlink="http://www.w3.org/1999/xlink">
    <!-- Generator: Sketch 53.1 (72631) - https://sketchapp.com -->
    <title>Fill 1Forward@1x</title>
    <desc>Created with Sketch.</desc>
    <g id="Page-1" stroke="none" stroke-width="1" fill="none" fill-rule="evenodd">
        <g id="Desktop-HD" transform="translate(-577.000000, -1091.000000)" fill="#FFFFFF">
            <path d="M580.0713,1113.23 C579.7143,1113.577 579.2863,1113.75 578.7883,1113.75 C578.2893,1113.75 577.8663,1113.577 577.5203,1113.23 C577.1733,1112.884 577.0003,1112.461 577.0003,1111.962 L577.0003,1092.788 C577.0003,1092.289 577.1733,1091.867 577.5203,1091.52 C577.8663,1091.174 578.2893,1091 578.7883,1091 L589.4153,1091 C589.8913,1091 590.3083,1091.179 590.6663,1091.536 C591.0233,1091.894 591.2023,1092.316 591.2023,1092.804 C591.2023,1093.291 591.0233,1093.714 590.6663,1094.071 C590.3083,1094.429 589.8913,1094.607 589.4153,1094.607 L580.6073,1094.607 L580.6073,1100.555 L588.1793,1100.555 C588.6563,1100.555 589.0743,1100.734 589.4313,1101.091 C589.7893,1101.449 589.9673,1101.871 589.9673,1102.359 C589.9673,1102.846 589.7943,1103.269 589.4473,1103.626 C589.1003,1103.984 588.6783,1104.163 588.1793,1104.163 L580.6073,1104.163 L580.6073,1111.962 C580.6073,1112.461 580.4283,1112.884 580.0713,1113.23" id="Fill-1"></path>
        </g>
    </g>
</svg>