<svg width="25" height="26" viewBox="0 0 25 26" fill="none" xmlns="http://www.w3.org/2000/svg">
<path fill-rule="evenodd" clip-rule="evenodd" d="M22.0457 10.7745C21.2167 10.7745 20.4687 10.2765 20.1477 9.51249C18.8247 6.35949 15.7127 4.13649 12.0837 4.13649C10.0847 4.13649 8.25169 4.82249 6.78169 5.95949L7.9337 6.13749C8.3267 6.19849 8.6327 6.51049 8.6867 6.90549C8.7397 7.29949 8.5277 7.68249 8.1647 7.84549L1.8297 10.6955C1.5517 10.8195 1.2297 10.7955 0.973698 10.6315C0.718698 10.4665 0.563698 10.1835 0.561698 9.87949L0.528698 2.89949C0.526698 2.50249 0.785698 2.15149 1.1647 2.03549C1.5447 1.91949 1.9557 2.06649 2.1757 2.39749L3.0487 3.70949C5.3767 1.41749 8.5667 0.000488281 12.0837 0.000488281C17.4177 0.000488281 22.0027 3.25749 23.9587 7.88649C24.2297 8.52849 24.1617 9.26349 23.7767 9.84349C23.3927 10.4245 22.7427 10.7745 22.0457 10.7745Z" fill="white"/>
<path fill-rule="evenodd" clip-rule="evenodd" d="M0.391114 15.9349C0.776114 15.3539 1.42612 15.0039 2.12212 15.0039C2.95112 15.0039 3.70012 15.5019 4.02012 16.2659C5.34412 19.4199 8.45612 21.6419 12.0841 21.6419C14.0841 21.6419 15.9171 20.9559 17.3871 19.8199L16.2351 19.6409C15.8411 19.5799 15.5351 19.2679 15.4821 18.8739C15.4281 18.4789 15.6411 18.0969 16.0041 17.9339L22.3391 15.0829C22.6171 14.9589 22.9381 14.9829 23.1941 15.1469C23.4501 15.3119 23.6051 15.5949 23.6071 15.8989L23.6401 22.8789C23.6421 23.2759 23.3831 23.6279 23.0031 23.7429C22.6231 23.8589 22.2131 23.7119 21.9931 23.3809L21.1201 22.0689C18.7921 24.3609 15.6011 25.7779 12.0841 25.7779C6.75112 25.7779 2.16512 22.5209 0.210112 17.8919C-0.0618878 17.2499 0.00611389 16.5159 0.391114 15.9349Z" fill="white"/>
</svg>
