<?xml version="1.0" encoding="UTF-8"?>
<svg width="26px" height="26px" viewBox="0 0 26 26" version="1.1" xmlns="http://www.w3.org/2000/svg" xmlns:xlink="http://www.w3.org/1999/xlink">
    <!-- Generator: Sketch 53.1 (72631) - https://sketchapp.com -->
    <title>Fill 48SaveGame</title>
    <desc>Created with Sketch.</desc>
    <g id="Page-1" stroke="none" stroke-width="1" fill="none" fill-rule="evenodd">
        <g id="Desktop-HD" transform="translate(-268.000000, -642.000000)" fill="#FFFFFF">
            <path d="M271.39,651.1574 L285.133,651.1574 L285.133,645.6604 L271.39,645.6604 L271.39,651.1574 Z M281.01,664.9004 C278.673,664.9004 276.887,663.1134 276.887,660.7774 C276.887,658.4414 278.673,656.6544 281.01,656.6544 C283.346,656.6544 285.133,658.4414 285.133,660.7774 C285.133,663.1134 283.346,664.9004 281.01,664.9004 L281.01,664.9004 Z M287.881,642.9114 L271.389,642.9114 C269.878,642.9114 268.641,644.1484 268.641,645.6594 L268.641,664.9004 C268.641,666.4124 269.878,667.6494 271.389,667.6494 L290.63,667.6494 C292.142,667.6494 293.379,666.4124 293.379,664.9004 L293.379,648.4084 L287.881,642.9114 Z" id="Fill-48"></path>
        </g>
    </g>
</svg>