<?xml version="1.0" encoding="UTF-8"?>
<svg width="28px" height="28px" viewBox="0 0 28 28" version="1.1" xmlns="http://www.w3.org/2000/svg" xmlns:xlink="http://www.w3.org/1999/xlink">
    <!-- Generator: Sketch 53.1 (72631) - https://sketchapp.com -->
    <title>Group 6zoomOut@1x</title>
    <desc>Created with Sketch.</desc>
    <defs>
        <polygon id="path-1" points="2.48386405e-05 0.704045942 11.2603538 0.704045942 11.2603538 12 2.48386405e-05 12"></polygon>
    </defs>
    <g id="Page-1" stroke="none" stroke-width="1" fill="none" fill-rule="evenodd">
        <g id="Desktop-HD" transform="translate(-338.000000, -903.000000)">
            <g id="Group-6" transform="translate(338.000000, 903.000000)">
                <g id="Group-3" transform="translate(0.000000, 15.186100)">
                    <mask id="mask-2" fill="white">
                        <use xlink:href="#path-1"></use>
                    </mask>
                    <g id="Clip-2"></g>
                    <path d="M11.0249,0.9366 C10.8389,0.7506 10.5739,0.6696 10.3159,0.7176 L3.1089,2.0676 C2.7829,2.1296 2.5189,2.3646 2.4209,2.6816 C2.3229,2.9976 2.4089,3.3426 2.6429,3.5756 L3.7839,4.7176 L0.2179,8.2826 C-0.0731,8.5726 -0.0721,9.0426 0.2179,9.3326 L2.6709,11.7826 C2.9609,12.0726 3.4309,12.0726 3.7209,11.7826 L7.2859,8.2176 L8.4279,9.3596 C8.6619,9.5946 9.0079,9.6786 9.3249,9.5796 C9.6419,9.4806 9.8769,9.2146 9.9359,8.8876 L11.2479,1.6446 C11.2939,1.3856 11.2109,1.1216 11.0249,0.9366" id="Fill-1" fill="#FFFFFF" mask="url(#mask-2)"></path>
                </g>
                <path d="M20.097,3.782 L18.955,2.641 C18.72,2.406 18.374,2.321 18.058,2.42 C17.741,2.52 17.506,2.786 17.447,3.112 L16.135,10.356 C16.088,10.614 16.171,10.879 16.358,11.063 C16.543,11.249 16.809,11.33 17.066,11.282 L24.273,9.932 C24.599,9.871 24.863,9.635 24.961,9.318 C25.059,9.003 24.974,8.658 24.74,8.424 L23.598,7.283 L27.169,3.723 C27.459,3.433 27.46,2.962 27.169,2.672 L24.711,0.217 C24.421,-0.072 23.951,-0.072 23.661,0.218 L20.097,3.782 Z" id="Fill-4" fill="#FFFFFF"></path>
            </g>
        </g>
    </g>
</svg>