<?xml version="1.0" encoding="UTF-8"?>
<svg width="26px" height="26px" viewBox="0 0 26 26" version="1.1" xmlns="http://www.w3.org/2000/svg" xmlns:xlink="http://www.w3.org/1999/xlink">
    <!-- Generator: Sketch 53.1 (72631) - https://sketchapp.com -->
    <title>Group 8Scale</title>
    <desc>Created with Sketch.</desc>
    <g id="Page-1" stroke="none" stroke-width="1" fill="none" fill-rule="evenodd">
        <g id="Desktop-HD" transform="translate(-461.000000, -903.000000)" fill="#FFFFFF">
            <g id="Group-8" transform="translate(461.014598, 903.156046)">
                <g id="Group-5">
                    <path d="M24.9632021,0.232554058 C24.7772021,0.0465540582 24.5122021,-0.0344459418 24.2542021,0.0135540582 L17.0472021,1.36355406 C16.7212021,1.42555406 16.4572021,1.66055406 16.3592021,1.97755406 C16.2612021,2.29355406 16.3472021,2.63855406 16.5812021,2.87155406 L17.7222021,4.01355406 L14.1562021,7.57855406 C13.8652021,7.86855406 13.8662021,8.33855406 14.1562021,8.62855406 L16.6092021,11.0785541 C16.8992021,11.3685541 17.3692021,11.3685541 17.6592021,11.0785541 L21.2242021,7.51355406 L22.3662021,8.65555406 C22.6002021,8.89055406 22.9462021,8.97455406 23.2632021,8.87555406 C23.5802021,8.77655406 23.8152021,8.51055406 23.8742021,8.18355406 L25.1862021,0.940554058 C25.2322021,0.681554058 25.1492021,0.417554058 24.9632021,0.232554058" id="Fill-13"></path>
                    <path d="M3.97490214,17.9521541 L2.83290214,16.8111541 C2.59790214,16.5761541 2.25190214,16.4911541 1.93590214,16.5901541 C1.61890214,16.6901541 1.38390214,16.9561541 1.32490214,17.2821541 L0.0129021368,24.5261541 C-0.0340978632,24.7841541 0.0489021368,25.0491541 0.235902137,25.2331541 C0.420902137,25.4191541 0.686902137,25.5001541 0.943902137,25.4521541 L8.15090214,24.1021541 C8.47690214,24.0411541 8.74090214,23.8051541 8.83890214,23.4891541 C8.93690214,23.1731541 8.85190214,22.8281541 8.61790214,22.5941541 L7.47590214,21.4531541 L11.0469021,17.8931541 C11.3369021,17.6031541 11.3379021,17.1321541 11.0469021,16.8421541 L8.58890214,14.3871541 C8.29890214,14.0981541 7.82890214,14.0981541 7.53890214,14.3881541 L3.97490214,17.9521541 Z" id="Fill-15"></path>
                </g>
            </g>
        </g>
    </g>
</svg>