<?xml version="1.0" encoding="UTF-8"?>
<svg width="112px" height="143px" viewBox="0 0 112 143" version="1.1" xmlns="http://www.w3.org/2000/svg" xmlns:xlink="http://www.w3.org/1999/xlink">
    <!-- Generator: Sketch 53.1 (72631) - https://sketchapp.com -->
    <title>Group 22Character1</title>
    <desc>Created with Sketch.</desc>
    <g id="Page-1" stroke="none" stroke-width="1" fill="none" fill-rule="evenodd">
        <g id="Desktop-HD" transform="translate(-1267.000000, -1194.000000)">
            <g id="Group-22" transform="translate(1267.902900, 1194.857076)">
                <path d="M28.5877,138.666024 L22.5567,141.908024 L34.7637,141.825024 C34.9497,134.492024 34.3927,129.431024 38.5647,123.441024 C44.6377,124.887024 64.4467,124.887024 70.5197,123.441024 C74.6917,129.431024 74.1347,134.492024 74.3207,141.825024 L86.5277,141.908024 L80.4967,138.666024 C187.4537,-46.3769756 -76.0143,-46.0669756 28.5877,138.666024" id="Fill-1" fill="#F9A626"></path>
                <path d="M96.8355,22.3896244 C64.1985,-27.5583756 -36.0245,6.15162436 20.5115,123.233624 C64.1785,121.477624 99.0455,85.5156244 99.0455,41.4136244 C99.0455,34.8646244 98.2815,28.5026244 96.8355,22.3896244" id="Fill-3" fill="#FCB735"></path>
                <path d="M83.6778,72.3362244 C83.9668,74.0312244 84.1318,75.7862244 84.1318,77.5622244 C84.1318,93.6332244 71.1188,106.647224 55.0478,106.647224 C38.9778,106.647224 25.9648,93.6332244 25.9648,77.5622244 C25.9648,75.8062244 26.1098,74.0922244 26.4188,72.4182244 C35.0118,73.1822244 44.5558,73.6172244 54.6348,73.6172244 C65.0458,73.6172244 74.8788,73.1632244 83.6778,72.3362244" id="Fill-5" fill="#EF5553"></path>
                <path d="M69.508,73.2867244 C73.04,73.1407244 76.468,72.9357244 79.774,72.6657244 C79.588,77.3147244 77.357,80.9917244 74.63,80.9917244 C72.007,80.9917244 69.838,77.6437244 69.508,73.2867244 M56.143,73.6177244 C59.613,73.5957244 63.021,73.5347244 66.347,73.4107244 C65.976,77.7067244 63.827,80.9917244 61.245,80.9917244 C58.684,80.9917244 56.577,77.7887244 56.143,73.6177244 M42.758,73.4107244 C46.084,73.5137244 49.491,73.5957244 52.963,73.6177244 C52.528,77.7887244 50.421,80.9917244 47.86,80.9917244 C45.278,80.9917244 43.13,77.6867244 42.758,73.4107244 M29.332,72.6657244 C32.637,72.9147244 36.065,73.1207244 39.598,73.2867244 C39.267,77.6247244 37.098,80.9917244 34.495,80.9917244 C31.748,80.9917244 29.497,77.3147244 29.332,72.6657244" id="Fill-7" fill="#FFFFFF"></path>
                <path d="M71.2221,101.729724 C66.5951,104.849724 61.0381,106.646724 55.0481,106.646724 C49.0581,106.646724 43.5011,104.849724 38.8741,101.729724 C42.4691,98.0337244 48.3761,95.6157244 55.0481,95.6157244 C61.7411,95.6157244 67.6481,98.0337244 71.2221,101.729724" id="Fill-9" fill="#F48470"></path>
                <path d="M16.0912,51.2873244 C18.3212,51.2873244 20.1402,53.1053244 20.1402,55.3343244 C20.1402,57.5673244 18.3212,59.3843244 16.0912,59.3843244 C13.8392,59.3843244 12.0212,57.5673244 12.0212,55.3343244 C12.0212,53.1053244 13.8392,51.2873244 16.0912,51.2873244" id="Fill-11" fill="#F3971E"></path>
                <path d="M12.6415,45.1940244 C13.9835,45.1940244 15.0795,46.2880244 15.0795,47.6310244 C15.0795,48.9740244 13.9835,50.0690244 12.6415,50.0690244 C11.2985,50.0690244 10.2035,48.9740244 10.2035,47.6310244 C10.2035,46.2880244 11.2985,45.1940244 12.6415,45.1940244" id="Fill-13" fill="#F3971E"></path>
                <path d="M22.2671,49.0556244 C23.2181,49.0556244 23.9821,49.8206244 23.9821,50.7706244 C23.9821,51.7216244 23.2181,52.5066244 22.2671,52.5066244 C21.3171,52.5066244 20.5531,51.7216244 20.5531,50.7706244 C20.5531,49.8206244 21.3171,49.0556244 22.2671,49.0556244" id="Fill-15" fill="#F3971E"></path>
                <path d="M25.82,106.811324 C28.051,106.811324 29.868,108.629324 29.868,110.881324 C29.868,113.112324 28.051,114.929324 25.82,114.929324 C23.569,114.929324 21.75,113.112324 21.75,110.881324 C21.75,108.629324 23.569,106.811324 25.82,106.811324" id="Fill-17" fill="#F3971E"></path>
                <path d="M22.3704,100.738824 C23.7124,100.738824 24.8084,101.833824 24.8084,103.176824 C24.8084,104.519824 23.7124,105.613824 22.3704,105.613824 C21.0284,105.613824 19.9324,104.519824 19.9324,103.176824 C19.9324,101.833824 21.0284,100.738824 22.3704,100.738824" id="Fill-19" fill="#F3971E"></path>
                <path d="M31.9964,104.602224 C32.9464,104.602224 33.7104,105.366224 33.7104,106.316224 C33.7104,107.266224 32.9464,108.031224 31.9964,108.031224 C31.0454,108.031224 30.2814,107.266224 30.2814,106.316224 C30.2814,105.366224 31.0454,104.602224 31.9964,104.602224" id="Fill-21" fill="#F3971E"></path>
                <path d="M80.455,114.082524 C82.025,112.493524 84.587,112.493524 86.177,114.062524 C87.788,115.632524 87.788,118.194524 86.218,119.805524 C84.648,121.395524 82.066,121.395524 80.476,119.825524 C78.885,118.255524 78.885,115.674524 80.455,114.082524" id="Fill-23" fill="#FCB735"></path>
                <path d="M73.7005,112.265024 C74.6515,111.315024 76.2005,111.295024 77.1505,112.245024 C78.1005,113.196024 78.1215,114.723024 77.1705,115.694024 C76.2205,116.645024 74.6715,116.645024 73.7215,115.694024 C72.7715,114.765024 72.7715,113.215024 73.7005,112.265024" id="Fill-25" fill="#FCB735"></path>
                <path d="M83.2227,108.134824 C83.8847,107.451824 84.9787,107.451824 85.6607,108.113824 C86.3217,108.795824 86.3427,109.868824 85.6607,110.550824 C84.9997,111.232824 83.9047,111.232824 83.2227,110.572824 C82.5617,109.890824 82.5407,108.795824 83.2227,108.134824" id="Fill-27" fill="#FCB735"></path>
                <path d="M86.5906,58.9708244 C87.2716,56.8438244 89.5436,55.6448244 91.6716,56.3268244 C93.8196,57.0088244 94.9976,59.2818244 94.3156,61.4088244 C93.6546,63.5568244 91.3616,64.7348244 89.2336,64.0538244 C87.1066,63.3918244 85.9296,61.0988244 86.5906,58.9708244" id="Fill-29" fill="#F3971E"></path>
                <path d="M79.7525,60.4164244 C80.1665,59.1374244 81.5295,58.4344244 82.8095,58.8474244 C84.0905,59.2394244 84.7935,60.6044244 84.4005,61.8824244 C83.9875,63.1644244 82.6245,63.8884244 81.3435,63.4744244 C80.0625,63.0824244 79.3605,61.6974244 79.7525,60.4164244" id="Fill-31" fill="#F3971E"></path>
                <path d="M86.322,52.4032244 C86.61,51.4942244 87.582,50.9972244 88.49,51.2872244 C89.4,51.5762244 89.895,52.5472244 89.626,53.4352244 C89.337,54.3452244 88.366,54.8612244 87.458,54.5722244 C86.549,54.2832244 86.053,53.3112244 86.322,52.4032244" id="Fill-33" fill="#F3971E"></path>
                <path d="M51.2888,21.5829244 C61.1418,21.5829244 69.1358,29.5769244 69.1358,39.4319244 C69.1358,49.2829244 61.1418,57.2569244 51.2888,57.2569244 C41.4558,57.2569244 33.4628,49.2829244 33.4628,39.4319244 C33.4628,29.5769244 41.4558,21.5829244 51.2888,21.5829244" id="Fill-35" fill="#F3971E"></path>
                <path d="M51.2888,23.4003244 C60.1498,23.4003244 67.3378,30.5693244 67.3378,39.4313244 C67.3378,48.2713244 60.1498,55.4593244 51.2888,55.4593244 C42.4478,55.4593244 35.2598,48.2713244 35.2598,39.4313244 C35.2598,30.5693244 42.4478,23.4003244 51.2888,23.4003244" id="Fill-37" fill="#FFFFFF"></path>
                <path d="M51.2888,26.5611244 C58.4148,26.5611244 64.1788,32.3251244 64.1788,39.4311244 C64.1788,46.5361244 58.4148,52.3011244 51.2888,52.3011244 C44.1838,52.3011244 38.4208,46.5361244 38.4208,39.4311244 C38.4208,32.3251244 44.1838,26.5611244 51.2888,26.5611244" id="Fill-39" fill="#432918"></path>
                <path d="M51.2888,30.3822244 C56.2878,30.3822244 60.3358,34.4312244 60.3358,39.4312244 C60.3358,44.4092244 56.2878,48.4572244 51.2888,48.4572244 C46.3118,48.4572244 42.2618,44.4092244 42.2618,39.4312244 C42.2618,34.4312244 46.3118,30.3822244 51.2888,30.3822244" id="Fill-41" fill="#432918"></path>
                <path d="M48.7066,31.9950244 C50.8756,31.9950244 52.6316,33.7500244 52.6316,35.9180244 C52.6316,38.0880244 50.8756,39.8630244 48.7066,39.8630244 C46.5386,39.8630244 44.7616,38.0880244 44.7616,35.9180244 C44.7616,33.7500244 46.5386,31.9950244 48.7066,31.9950244" id="Fill-43" fill="#FFFFFF"></path>
                <polygon id="Fill-45" fill="#DB7C27" points="12.373 89.6682244 8.262 114.827224 0.433 117.760224 -1.13686838e-13 129.452224 3.078 120.073224 3.924 131.724224 7.457 120.755224 8.221 127.778224 11.195 120.404224 10.865 115.178224 16.401 90.4512244"></polygon>
                <polygon id="Fill-47" fill="#BA6128" points="7.8285 124.163124 8.2215 127.778124 11.1955 120.404124 10.8645 115.178124 16.4015 90.4511244 14.1075 89.9981244 9.3155 115.344124 9.1085 122.077124"></polygon>
                <path d="M20.8624,88.8820244 L20.8624,88.9040244 C20.6354,90.3890244 17.8054,91.1750244 14.5414,90.6580244 C11.2784,90.1640244 8.8204,88.5520244 9.0474,87.0860244 C9.0684,86.9810244 9.0884,86.8780244 9.1304,86.7760244 C10.7824,87.6220244 12.9514,88.3240244 15.3684,88.6970244 C17.3514,89.0060244 19.2514,89.0480244 20.8624,88.8820244" id="Fill-49" fill="#F9A626"></path>
                <polygon id="Fill-51" fill="#DB7C27" points="98.3018 89.6682244 102.4328 114.827224 110.2628 117.760224 110.6748 129.452224 107.6188 120.073224 106.7718 131.724224 103.2388 120.755224 102.4748 127.778224 99.4998 120.404224 99.8308 115.178224 94.2948 90.4512244"></polygon>
                <polygon id="Fill-53" fill="#BA6128" points="102.8668 124.163124 102.4748 127.778124 99.5008 120.404124 99.8308 115.178124 94.2948 90.4511244 96.5878 89.9981244 101.3598 115.344124 101.5858 122.077124"></polygon>
                <path d="M89.8129,88.8820244 L89.8129,88.9040244 C90.0599,90.3890244 92.8909,91.1750244 96.1539,90.6580244 C99.4169,90.1640244 101.8759,88.5520244 101.6489,87.0860244 C101.6279,86.9810244 101.5859,86.8780244 101.5449,86.7760244 C99.9139,87.6220244 97.7439,88.3240244 95.3279,88.6970244 C93.3239,89.0060244 91.4439,89.0480244 89.8129,88.8820244" id="Fill-55" fill="#FCB735"></path>
            </g>
        </g>
    </g>
</svg>