<?xml version="1.0" encoding="UTF-8"?>
<svg width="124px" height="164px" viewBox="0 0 124 164" version="1.1" xmlns="http://www.w3.org/2000/svg" xmlns:xlink="http://www.w3.org/1999/xlink">
    <!-- Generator: Sketch 53.1 (72631) - https://sketchapp.com -->
    <title>Group 217CHARACTER_5</title>
    <desc>Created with Sketch.</desc>
    <defs>
        <path d="M0.114,13.488 C0.114,20.488 3.931,26.163 8.64,26.163 L8.64,26.163 C13.349,26.163 17.166,20.488 17.166,13.488 L17.166,13.488 C17.166,6.487 13.349,0.812 8.64,0.812 L8.64,0.812 C3.931,0.812 0.114,6.487 0.114,13.488" id="path-1"></path>
        <path d="M0.714,1.813 C0.352,2.885 0.931,4.059 2.01,4.433 L2.01,4.433 C3.089,4.809 4.258,4.243 4.621,3.169 L4.621,3.169 C4.69,2.966 4.725,2.759 4.729,2.555 L4.729,2.555 L4.729,2.472 C4.712,1.629 4.173,0.842 3.326,0.548 L3.326,0.548 C3.1,0.47 2.871,0.433 2.646,0.433 L2.646,0.433 C1.793,0.433 1.002,0.964 0.714,1.813" id="path-3"></path>
        <path d="M0.714,1.813 C0.352,2.885 0.931,4.059 2.01,4.433 L2.01,4.433 C3.089,4.809 4.258,4.243 4.621,3.169 L4.621,3.169 C4.69,2.966 4.725,2.759 4.729,2.555 L4.729,2.555 L4.729,2.472 C4.712,1.629 4.173,0.842 3.326,0.548 L3.326,0.548 C3.1,0.47 2.871,0.433 2.646,0.433 L2.646,0.433 C1.793,0.433 1.002,0.964 0.714,1.813" id="path-5"></path>
        <path d="M0.714,1.813 C0.352,2.885 0.931,4.059 2.01,4.433 L2.01,4.433 C3.089,4.809 4.258,4.243 4.621,3.169 L4.621,3.169 C4.69,2.966 4.725,2.759 4.729,2.555 L4.729,2.555 L4.729,2.472 C4.712,1.629 4.173,0.842 3.326,0.548 L3.326,0.548 C3.1,0.47 2.871,0.433 2.646,0.433 L2.646,0.433 C1.793,0.433 1.002,0.964 0.714,1.813" id="path-7"></path>
        <path d="M0.527,0.588 C-0.137,1.139 -0.164,2.113 0.467,2.764 L0.467,2.764 C1.098,3.413 2.147,3.494 2.812,2.943 L2.812,2.943 C3.477,2.391 3.504,1.417 2.873,0.767 L2.873,0.767 C2.523,0.407 2.046,0.222 1.576,0.222 L1.576,0.222 C1.197,0.222 0.824,0.342 0.527,0.588" id="path-9"></path>
        <path d="M0.527,0.588 C-0.137,1.139 -0.164,2.113 0.467,2.764 L0.467,2.764 C1.098,3.413 2.147,3.494 2.812,2.943 L2.812,2.943 C3.477,2.391 3.504,1.417 2.873,0.767 L2.873,0.767 C2.523,0.407 2.046,0.222 1.576,0.222 L1.576,0.222 C1.197,0.222 0.824,0.342 0.527,0.588" id="path-11"></path>
        <path d="M0.527,0.588 C-0.137,1.139 -0.164,2.113 0.467,2.764 L0.467,2.764 C1.098,3.413 2.147,3.494 2.812,2.943 L2.812,2.943 C3.477,2.391 3.504,1.417 2.873,0.767 L2.873,0.767 C2.523,0.407 2.046,0.222 1.576,0.222 L1.576,0.222 C1.197,0.222 0.824,0.342 0.527,0.588" id="path-13"></path>
        <polygon id="path-15" points="0.575428086 0.5621 12.013155 0.5621 12.013155 14 0.575428086 14"></polygon>
        <polygon id="path-17" points="0.1151 0.5621 10.013155 0.5621 10.013155 14 0.1151 14"></polygon>
        <path d="M0.864,0.862 C-0.984,1.505 1.122,3.732 2.75,7.008 L2.75,7.008 C4.378,10.285 6.798,13.297 8.057,12 L8.057,12 C8.632,11.406 6.554,9.33 4.723,6.163 L4.723,6.163 C3.085,3.33 1.776,0.842 0.981,0.842 L0.981,0.842 C0.941,0.842 0.902,0.848 0.864,0.862" id="path-19"></path>
        <polygon id="path-21" points="0.0305280857 0.5621 11.468255 0.5621 11.468255 14 0.0305280857 14"></polygon>
        <polygon id="path-23" points="0.0617472515 0.4371 11.468255 0.4371 11.468255 14 0.0617472515 14"></polygon>
    </defs>
    <g id="Page-1" stroke="none" stroke-width="1" fill="none" fill-rule="evenodd">
        <g id="Desktop-HD" transform="translate(-405.000000, -1187.000000)">
            <g id="Group-217" transform="translate(405.000000, 1186.000000)">
                <g id="Group-216">
                    <g id="Group-63" transform="translate(7.000000, 10.061000)">
                        <path d="M87.8761,85.5008 L78.8911,113.6858 C76.3171,121.7628 68.5501,127.3938 59.5871,127.6768 C48.1841,128.0358 34.4861,128.2878 34.6861,127.4158 C34.8921,126.5128 30.9801,101.9848 27.8691,82.8238 C25.9391,70.9348 35.7271,60.2238 48.5201,60.2238 L67.8661,60.2238 C81.8561,60.2238 91.8921,72.9008 87.8761,85.5008" id="Fill-1" fill="#991047"></path>
                        <path d="M25.2324,86.1491 C24.3934,84.9131 23.9414,83.7321 23.2234,83.7381 C21.1604,83.7561 17.6824,86.3521 16.1424,89.1211 C14.4034,92.2491 14.4514,97.8431 19.4944,100.9571 C23.1564,103.2171 23.4784,103.5201 26.0204,104.1101 C26.7514,103.3291 28.5214,100.8721 29.2834,99.2231 C25.7694,97.8951 23.1914,96.5791 22.2554,94.5561 C21.1934,92.2611 24.7484,90.7391 26.7384,89.0531 C26.7384,89.0531 26.7554,88.3911 25.2324,86.1491" id="Fill-3" fill="#808080"></path>
                        <path d="M19.4852,85.6571 C20.3422,86.4771 21.1042,87.3751 21.8202,88.3121 C22.1722,88.7851 22.5172,89.2651 22.8262,89.7701 C23.1312,90.2731 23.4412,90.7981 23.5762,91.3821 C23.2962,90.8631 22.9112,90.4211 22.5642,89.9511 L21.4952,88.5581 C20.7942,87.6181 20.0912,86.6771 19.4852,85.6571" id="Fill-5" fill="#2B0C4C"></path>
                        <path d="M15.9505,89.475 C16.9355,90.241 17.8405,91.074 18.8395,91.77 C19.8295,92.48 20.9005,93.047 22.0725,93.473 C20.8245,93.363 19.6265,92.827 18.6045,92.103 C17.5775,91.37 16.7055,90.464 15.9505,89.475" id="Fill-7" fill="#2B0C4C"></path>
                        <path d="M15.8422,96.8612 C16.1182,97.0172 16.4242,97.0802 16.7272,97.1242 C17.0302,97.1702 17.3372,97.1872 17.6432,97.1852 C18.2552,97.1812 18.8652,97.1132 19.4592,96.9742 C20.0522,96.8392 20.6332,96.6442 21.1832,96.3732 C21.7302,96.0982 22.2502,95.7652 22.7482,95.3722 C22.3652,95.8742 21.8852,96.3152 21.3362,96.6522 C20.7892,96.9952 20.1752,97.2222 19.5492,97.3712 C18.9192,97.5102 18.2702,97.5642 17.6282,97.5022 C16.9982,97.4342 16.3242,97.2932 15.8422,96.8612" id="Fill-9" fill="#2B0C4C"></path>
                        <path d="M19.884,101.1976 C20.495,101.1166 21.094,101.0106 21.669,100.8506 C22.241,100.6856 22.794,100.4616 23.259,100.1216 C23.728,99.7876 24.084,99.3206 24.297,98.7816 C24.508,98.2396 24.584,97.6366 24.597,97.0196 C24.741,97.6156 24.778,98.2626 24.598,98.8836 C24.428,99.5046 24.025,100.0706 23.499,100.4506 C22.97,100.8276 22.357,101.0506 21.74,101.1596 C21.123,101.2736 20.495,101.2746 19.884,101.1976" id="Fill-11" fill="#2B0C4C"></path>
                        <path d="M24.4037,103.6732 C24.9887,103.5722 25.5067,103.3082 25.9757,102.9932 C26.4407,102.6702 26.8487,102.2702 27.1537,101.8062 C27.4647,101.3462 27.6617,100.8142 27.7217,100.2572 C27.7797,99.6982 27.7107,99.1242 27.5787,98.5442 C27.8577,99.0642 28.0467,99.6572 28.0387,100.2772 C28.0407,100.8952 27.8357,101.5142 27.4927,102.0302 C27.1457,102.5452 26.6787,102.9712 26.1427,103.2632 C25.6127,103.5562 24.9977,103.7322 24.4037,103.6732" id="Fill-13" fill="#2B0C4C"></path>
                        <path d="M68.8023,116.5132 L68.6423,116.6952 L68.6033,116.6222 C68.6033,116.6222 68.6783,116.5862 68.8023,116.5132 M65.6713,111.6662 L64.5793,116.9552 L67.2163,118.3202 C67.2163,118.3202 69.5833,122.4042 70.7913,121.1972 C72.4803,119.2662 68.8023,116.5132 68.8023,116.5132 C69.4593,116.1272 71.6973,114.5672 73.9413,110.1732 C81.9463,92.4942 60.5273,89.4302 60.5273,89.4302 L64.0453,101.2922 C72.8293,105.1972 65.6713,111.6662 65.6713,111.6662" id="Fill-15" fill="#B3B3B3"></path>
                        <path d="M35.8234,91.711 C35.8234,91.711 29.5544,103.347 15.2974,93.044 L12.3454,96.448 C12.3454,96.448 18.5644,112.166 33.5574,104.388" id="Fill-17" fill="#B3B3B3"></path>
                        <path d="M65.5938,104.6937 L74.6408,96.0317 C74.6408,96.0317 69.5888,88.3447 58.0938,91.1577" id="Fill-19" fill="#B3B3B3"></path>
                        <path d="M33.4856,105.4713 L24.4386,96.8093 C24.4386,96.8093 29.4906,89.1223 40.9856,91.9353" id="Fill-21" fill="#B3B3B3"></path>
                        <path d="M39.8273,86.4331 L48.7093,82.9351 L57.5923,86.4331 C57.5923,86.4331 69.5073,98.5741 65.1743,118.5351 C61.0583,129.6471 48.7093,126.7661 48.7093,127.7951 C48.7093,126.7661 36.3613,129.6471 32.2453,118.5351 C27.9123,98.5741 39.8273,86.4331 39.8273,86.4331" id="Fill-23" fill="#B3B3B3"></path>
                        <path d="M35.2944,125.76 C30.4074,122.397 31.3714,113.858 31.3714,113.858 C31.3714,113.858 46.9604,115.134 66.0004,114.04 L62.3964,125.76 C59.4894,125.76 48.3864,125.76 35.2944,125.76" id="Fill-25" fill="#B7B7B7"></path>
                        <polygon id="Fill-27" fill="#FFFFFF" points="67.3743 131.2432 68.4143 131.0072 64.1293 114.4372 63.0553 114.5432"></polygon>
                        <path d="M15.2974,93.0437 C15.2974,93.0437 15.0914,87.3497 12.3454,85.4637 C9.8214,83.5777 8.9894,85.9077 11.5964,88.7357 C10.5984,88.3477 9.7394,89.6787 10.0024,90.3447 C8.6014,90.1227 8.7124,91.9527 8.7124,91.9527 C8.7124,91.9527 7.6584,92.3417 8.1024,93.5617 C8.5464,94.7817 10.8874,96.8337 12.7954,96.5567 C14.7024,96.2787 15.3914,94.1207 15.2974,93.0437" id="Fill-29" fill="#808080"></path>
                        <polygon id="Fill-31" fill="#991047" points="35.0027 97.6162 41.1107 110.6782 49.8097 111.1362 56.3897 98.1592"></polygon>
                        <polygon id="Fill-33" fill="#2B0C4C" points="37.5876 98.7595 41.7966 109.9935 49.0736 109.9935 53.3736 98.7595"></polygon>
                        <path d="M66.7311,113.7279 C60.2831,114.8239 55.9261,115.1859 49.5251,126.3409 C50.7451,129.6869 53.2411,134.0959 54.8861,139.4619 L56.6961,145.3649 L64.4831,145.8029 C64.4831,145.8029 72.2681,125.8589 66.7311,113.7279" id="Fill-35" fill="#B3B3B3"></path>
                        <path d="M66.7311,113.7279 C60.2831,114.8239 55.9261,115.1859 49.5251,126.3409 C50.7451,129.6869 53.2411,134.0959 54.8861,139.4619 L56.6961,145.3649 L53.2431,132.4769 C51.7341,126.8449 54.4401,123.1249 58.1281,118.8989 C59.4001,117.4419 61.7251,115.4969 66.7311,113.7279" id="Fill-37" fill="#808080"></path>
                        <path d="M66.7311,113.7279 C64.9181,114.0359 63.1041,114.2869 61.5491,114.7359 C60.3411,115.0849 69.8291,121.4809 60.2951,142.2229 C61.5141,145.5689 58.2791,144.6799 54.8861,139.4619 L56.6961,145.3649 L60.2951,145.5669 L64.4831,145.8029 C64.4831,145.8029 72.2681,125.8589 66.7311,113.7279" id="Fill-39" fill="#8E8E8E"></path>
                        <path d="M31.5737,113.927 C37.2877,117.418 37.4677,123.801 46.5417,126.536 C46.5417,130.925 46.2027,131.971 44.9397,137.458 C44.0197,141.456 43.8957,145.589 43.8957,145.589 L35.9117,146.028 C35.9117,146.028 26.0757,126.058 31.5737,113.927" id="Fill-41" fill="#B3B3B3"></path>
                        <path d="M31.5737,113.927 C37.2877,117.418 37.4677,123.801 46.5417,126.536 C46.5417,130.925 46.2027,131.971 44.9397,137.458 C44.0197,141.456 43.8957,145.589 43.8957,145.589 L43.7027,141.5 C43.3727,134.496 41.5827,129.002 39.7427,125.898 C38.3147,123.489 33.9997,118.822 31.5737,113.927" id="Fill-43" fill="#808080"></path>
                        <path d="M98.7772,50.0285 C98.7772,77.2745 76.6892,99.3625 49.4432,99.3625 C22.1972,99.3625 0.1092,77.2745 0.1092,50.0285 C0.1092,22.7825 22.1972,0.6945 49.4432,0.6945 C76.6892,0.6945 98.7772,22.7825 98.7772,50.0285" id="Fill-45" fill="#B7B7B7"></path>
                        <path d="M85.0229,54.6808 C85.0229,77.2718 66.7089,95.5848 44.1189,95.5848 C21.5279,95.5848 3.2139,77.2718 3.2139,54.6808 C3.2139,32.0898 21.5279,13.7768 44.1189,13.7768 C66.7089,13.7768 85.0229,32.0898 85.0229,54.6808" id="Fill-47" fill="#323232"></path>
                        <path d="M50.8298,100.5096 C50.8298,101.0126 50.4218,101.4196 49.9198,101.4196 C49.4168,101.4196 49.0098,101.0126 49.0098,100.5096 C49.0098,100.0066 49.4168,99.5996 49.9198,99.5996 C50.4218,99.5996 50.8298,100.0066 50.8298,100.5096" id="Fill-49" fill="#B3B3B3"></path>
                        <path d="M47.5052,100.6151 C47.5052,101.1181 47.0972,101.5251 46.5952,101.5251 C46.0922,101.5251 45.6852,101.1181 45.6852,100.6151 C45.6852,100.1121 46.0922,99.7051 46.5952,99.7051 C47.0972,99.7051 47.5052,100.1121 47.5052,100.6151" id="Fill-51" fill="#B3B3B3"></path>
                        <path d="M44.7193,100.6151 C44.7193,101.1181 44.3123,101.5251 43.8093,101.5251 C43.3063,101.5251 42.8993,101.1181 42.8993,100.6151 C42.8993,100.1121 43.3063,99.7051 43.8093,99.7051 C44.3123,99.7051 44.7193,100.1121 44.7193,100.6151" id="Fill-53" fill="#B3B3B3"></path>
                        <path d="M41.9516,100.4082 C41.9516,100.9112 41.5446,101.3182 41.0416,101.3182 C40.5386,101.3182 40.1316,100.9112 40.1316,100.4082 C40.1316,99.9052 40.5386,99.4982 41.0416,99.4982 C41.5446,99.4982 41.9516,99.9052 41.9516,100.4082" id="Fill-55" fill="#B3B3B3"></path>
                        <path d="M57.8154,129.8481 C57.3144,129.9931 56.8174,130.1981 56.4024,130.5191 C55.9804,130.8341 55.6864,131.2811 55.5384,131.7561 C55.3844,132.2331 55.3534,132.7481 55.3434,133.2741 C55.3294,133.8011 55.3804,134.3491 55.4314,134.8951 L55.5324,135.7201 C55.5844,135.9731 55.6134,136.2391 55.6744,136.4861 C55.7464,136.7251 55.7974,136.9831 55.9064,137.1951 C55.9874,137.4321 56.1184,137.6201 56.2384,137.8231 C56.7724,138.5601 57.6774,138.9271 58.6684,138.8551 C59.1574,138.8151 59.6564,138.6871 60.1184,138.4581 C60.3514,138.3531 60.5724,138.2031 60.7784,138.0561 C60.9684,137.9171 61.1064,137.6891 61.2064,137.4471 C61.4104,136.9571 61.4554,136.3861 61.4404,135.8381 C61.4234,135.2851 61.3374,134.7381 61.2334,134.2041 C61.0144,133.1411 60.7484,132.1031 60.2864,131.1661 C60.0464,130.7121 59.7354,130.2671 59.2904,130.0171 C58.8544,129.7561 58.3114,129.7041 57.8154,129.8481 M57.7894,129.7341 C58.3044,129.5921 58.8524,129.5741 59.3914,129.7351 C59.9284,129.8991 60.4224,130.2591 60.8234,130.7061 C61.6304,131.6181 62.0204,132.8551 62.1124,134.0651 C62.1554,134.6741 62.1274,135.2881 62.0274,135.8871 C61.9734,136.1861 61.9214,136.4841 61.8314,136.7731 C61.7534,137.0641 61.6534,137.3511 61.5134,137.6201 C61.3794,137.8901 61.2104,138.1531 60.9684,138.3471 C60.7434,138.5241 60.5154,138.6721 60.2784,138.8171 C59.8024,139.0961 59.3024,139.3391 58.7614,139.4921 C58.2234,139.6441 57.6334,139.6981 57.0464,139.5531 C56.4594,139.4151 55.8994,139.0511 55.4764,138.5551 C54.6534,137.5371 54.3774,136.1741 54.2984,135.0241 C54.2614,134.4211 54.2344,133.8111 54.3134,133.1851 C54.3904,132.5641 54.5704,131.9221 54.9164,131.3811 C55.2604,130.8341 55.7634,130.4631 56.2634,130.2361 C56.7704,130.0131 57.2804,129.8741 57.7894,129.7341" id="Fill-57" fill="#808080"></path>
                        <path d="M91.496,54.6808 C91.496,54.6808 86.449,10.3938 44.844,10.3938 C4.499,10.3938 1.769,52.4338 1.769,52.4338 C1.769,52.4338 6.342,15.0718 44.844,15.4308 C83.346,15.7888 91.496,54.6808 91.496,54.6808" id="Fill-59" fill="#E23365"></path>
                        <path d="M34.9487,130.7556 C34.5437,130.7576 34.1327,130.9016 33.8507,131.1966 C33.5617,131.4836 33.4197,131.8826 33.3497,132.2776 C33.2807,132.6776 33.2667,133.0866 33.2657,133.5036 C33.2607,133.9196 33.2907,134.3456 33.3307,134.7736 C33.3717,135.2026 33.4227,135.6356 33.4837,136.0716 C33.5507,136.5206 33.6147,136.9116 33.7447,137.2866 C33.8697,137.6596 34.0467,137.9916 34.2777,138.2606 C34.5057,138.5326 34.8097,138.7286 35.1637,138.7896 C35.5167,138.8466 35.9057,138.7536 36.2317,138.5286 C36.5537,138.3026 36.8247,137.9636 36.9677,137.5656 C37.1207,137.1716 37.1567,136.7336 37.1107,136.3206 C37.0637,135.8896 36.9917,135.4336 36.9297,135.0026 C36.7957,134.1336 36.6977,133.2866 36.5037,132.4526 C36.3997,132.0406 36.2547,131.6266 35.9937,131.2986 C35.7427,130.9646 35.3527,130.7506 34.9487,130.7556 M34.9487,130.6376 C35.8207,130.6296 36.6037,131.3206 37.0987,132.1416 C37.6057,132.9766 37.8167,133.9616 37.8367,134.9136 C37.8437,135.3956 37.8097,135.8576 37.7437,136.3436 C37.6727,136.8456 37.5197,137.3226 37.2957,137.7476 C36.8557,138.5846 36.1207,139.2836 35.1547,139.3866 C34.6787,139.4256 34.1657,139.2796 33.7587,138.9606 C33.3477,138.6456 33.0477,138.1976 32.8427,137.7316 C32.6327,137.2676 32.5037,136.7606 32.4077,136.3116 C32.3047,135.8496 32.2267,135.3756 32.1917,134.8906 C32.1257,133.9336 32.1697,132.8786 32.6697,131.9646 C32.9117,131.5146 33.2757,131.1346 33.6837,130.9176 C34.0957,130.7016 34.5277,130.6346 34.9487,130.6376" id="Fill-61" fill="#808080"></path>
                    </g>
                    <g id="Group-66" transform="translate(90.000000, 50.061000)">
                        <mask id="mask-2" fill="white">
                            <use xlink:href="#path-1"></use>
                        </mask>
                        <g id="Clip-65"></g>
                        <path d="M0.114,13.488 C0.114,20.488 3.931,26.163 8.64,26.163 L8.64,26.163 C13.349,26.163 17.166,20.488 17.166,13.488 L17.166,13.488 C17.166,6.487 13.349,0.812 8.64,0.812 L8.64,0.812 C3.931,0.812 0.114,6.487 0.114,13.488" id="Fill-64" mask="url(#mask-2)"></path>
                    </g>
                    <g id="Group-75" transform="translate(91.000000, 39.061000)">
                        <path d="M16.5884,24.4877 C16.5884,31.4877 12.9514,37.1637 8.4654,37.1637 C3.9784,37.1637 0.3414,31.4877 0.3414,24.4877 C0.3414,17.4867 3.9784,11.8117 8.4654,11.8117 C12.9514,11.8117 16.5884,17.4867 16.5884,24.4877" id="Fill-67" fill="#B3B3B3"></path>
                        <polygon id="Fill-69" fill="#991047" points="31.3369 2.0685 31.1699 1.9035 8.8149 22.0455 11.3079 24.4875"></polygon>
                        <polygon id="Fill-71" fill="#991047" points="31.3369 2.0685 31.1699 1.9035 10.4179 23.6155 11.3079 24.4875"></polygon>
                        <path d="M32.6212,3.1692 C32.2572,4.2422 31.0882,4.8082 30.0102,4.4342 C28.9312,4.0592 28.3512,2.8862 28.7152,1.8132 C29.0782,0.7402 30.2472,0.1732 31.3262,0.5482 C32.4052,0.9232 32.9842,2.0962 32.6212,3.1692" id="Fill-73" fill="#991047"></path>
                    </g>
                    <g id="Group-85" transform="translate(119.000000, 39.061000)">
                        <g id="Group-78">
                            <mask id="mask-4" fill="white">
                                <use xlink:href="#path-3"></use>
                            </mask>
                            <g id="Clip-77"></g>
                            <path d="M4.3991,3.1944 C4.0531,4.2174 2.9391,4.7564 1.9111,4.3994 C0.8831,4.0424 0.3301,2.9244 0.6771,1.9014 C1.0231,0.8794 2.1371,0.3394 3.1651,0.6964 C4.1931,1.0534 4.7451,2.1724 4.3991,3.1944" id="Fill-76" fill="#991047" mask="url(#mask-4)"></path>
                        </g>
                        <g id="Group-81">
                            <mask id="mask-6" fill="white">
                                <use xlink:href="#path-5"></use>
                            </mask>
                            <g id="Clip-80"></g>
                            <path d="M4.4663,2.1862 C4.4783,3.0672 3.6003,3.7832 2.5063,3.7862 C1.4123,3.7882 0.5163,3.0762 0.5043,2.1952 C0.4933,1.3142 1.3703,0.5982 2.4643,0.5952 C3.5583,0.5932 4.4543,1.3052 4.4663,2.1862" id="Fill-79" fill="#991047" mask="url(#mask-6)"></path>
                        </g>
                        <g id="Group-84">
                            <mask id="mask-8" fill="white">
                                <use xlink:href="#path-7"></use>
                            </mask>
                            <g id="Clip-83"></g>
                            <path d="M3.444,1.1515 C3.693,1.7265 3.307,2.4415 2.582,2.7475 C1.857,3.0545 1.067,2.8365 0.818,2.2605 C0.569,1.6855 0.955,0.9715 1.68,0.6645 C2.405,0.3585 3.195,0.5765 3.444,1.1515" id="Fill-82" fill="#991047" mask="url(#mask-8)"></path>
                        </g>
                    </g>
                    <g id="Group-90" transform="translate(0.000000, 41.061000)" fill="#991047">
                        <polygon id="Fill-86" points="1.6151 1.1699 1.4361 1.2139 7.5551 23.4449 10.2141 22.7809"></polygon>
                        <path d="M2.8727,0.767 C3.5037,1.417 3.4767,2.391 2.8117,2.942 C2.1477,3.494 1.0977,3.414 0.4667,2.763 C-0.1643,2.113 -0.1363,1.139 0.5277,0.588 C1.1917,0.037 2.2417,0.117 2.8727,0.767" id="Fill-88"></path>
                    </g>
                    <g id="Group-100" transform="translate(0.000000, 41.061000)">
                        <g id="Group-93">
                            <mask id="mask-10" fill="white">
                                <use xlink:href="#path-9"></use>
                            </mask>
                            <g id="Clip-92"></g>
                            <path d="M2.8089,0.9202 C3.4099,1.5402 3.3839,2.4682 2.7509,2.9932 C2.1179,3.5182 1.1179,3.4422 0.5169,2.8222 C-0.0851,2.2032 -0.0591,1.2752 0.5739,0.7492 C1.2069,0.2242 2.2079,0.3002 2.8089,0.9202" id="Fill-91" fill="#991047" mask="url(#mask-10)"></path>
                        </g>
                        <g id="Group-96">
                            <mask id="mask-12" fill="white">
                                <use xlink:href="#path-11"></use>
                            </mask>
                            <g id="Clip-95"></g>
                            <path d="M2.1151,0.4864 C2.7471,0.8204 2.9341,1.6634 2.5331,2.3714 C2.1321,3.0784 1.2941,3.3814 0.6621,3.0474 C0.0301,2.7134 -0.1569,1.8694 0.2441,1.1624 C0.6451,0.4554 1.4831,0.1524 2.1151,0.4864" id="Fill-94" fill="#991047" mask="url(#mask-12)"></path>
                        </g>
                        <g id="Group-99">
                            <mask id="mask-14" fill="white">
                                <use xlink:href="#path-13"></use>
                            </mask>
                            <g id="Clip-98"></g>
                            <path d="M1.001,0.7455 C1.503,0.8075 1.87,1.3335 1.821,1.9205 C1.773,2.5065 1.326,2.9325 0.825,2.8705 C0.323,2.8085 -0.044,2.2825 0.004,1.6955 C0.053,1.1085 0.499,0.6835 1.001,0.7455" id="Fill-97" fill="#991047" mask="url(#mask-14)"></path>
                        </g>
                    </g>
                    <g id="Group-131" transform="translate(6.000000, 53.061000)">
                        <path d="M4.773,11.5925 C5.019,17.1675 4.321,21.7265 3.214,21.7755 C2.107,21.8245 1.011,17.3445 0.766,11.7695 C0.52,6.1935 1.218,1.6345 2.325,1.5865 C3.431,1.5375 4.528,6.0175 4.773,11.5925" id="Fill-101" fill="#B3B3B3"></path>
                        <path d="M50.5227,83.3016 C49.9957,83.3876 49.6537,83.4156 49.2067,83.4536 C48.7587,83.4906 48.3867,83.5356 47.7537,83.5216 C47.3027,83.4976 46.8377,83.4636 46.3867,83.3676 C45.9347,83.2796 45.5827,83.2486 45.1427,83.0196 L45.5907,82.7026 C45.5647,84.4686 45.2747,86.2296 45.1527,87.9796 C45.0307,89.7316 44.9627,91.5096 44.7807,93.2406 C44.6457,94.9826 44.5487,96.7256 44.4217,98.4706 C44.2997,100.2166 44.1907,101.9656 44.0547,103.7236 L43.9837,103.7266 C43.8737,102.8486 43.8157,101.9676 43.7777,101.0856 C43.7327,100.2036 43.7267,99.3206 43.7337,98.4366 C43.7487,96.6706 43.8897,94.9066 44.1157,93.1556 C44.3187,91.3966 44.7177,89.6976 44.9277,87.9526 C45.0287,87.0826 45.0827,86.2056 45.0587,85.3296 C45.0477,84.4536 45.0577,83.9106 45.0427,83.0336 L45.0087,82.5536 L45.5907,82.7026 C45.9747,82.8276 46.2477,82.8566 46.6197,82.9346 C47.1047,83.0226 47.5527,83.0756 47.9867,83.1316 C48.9207,83.2176 49.6347,83.2146 50.5227,83.3016" id="Fill-103" fill="#808080"></path>
                        <g id="Group-107" transform="translate(55.000000, 98.000000)">
                            <mask id="mask-16" fill="white">
                                <use xlink:href="#path-15"></use>
                            </mask>
                            <g id="Clip-106"></g>
                            <path d="M11.8631,0.5621 L1.5301,0.5621 L2.1151,6.1211 C0.5521,8.0311 -0.3759,12.2821 2.1151,13.4171 C4.9561,14.7111 8.7351,13.6771 10.9311,12.0181 C11.8041,11.3591 12.0171,10.9331 12.0131,9.7641 C12.0101,8.6831 12.0071,7.2111 12.0071,5.4991 L11.8631,0.5621 Z" id="Fill-105" fill="#808080" mask="url(#mask-16)"></path>
                        </g>
                        <g id="Group-110" transform="translate(57.000000, 98.000000)">
                            <mask id="mask-18" fill="white">
                                <use xlink:href="#path-17"></use>
                            </mask>
                            <g id="Clip-109"></g>
                            <path d="M9.8631,0.5621 L6.5361,0.8251 L7.3691,7.6411 C7.3691,8.7451 6.1321,14.0001 0.1151,13.4171 C2.9561,14.7111 6.7351,13.6771 8.9311,12.0181 C9.8041,11.3591 10.0171,10.9331 10.0131,9.7641 C10.0101,8.6831 10.0071,7.2111 10.0071,5.4991 L9.8631,0.5621 Z" id="Fill-108" fill="#8E8E8E" mask="url(#mask-18)"></path>
                        </g>
                        <path d="M64.3691,105.6412 C62.1341,106.1882 57.4341,106.7962 57.0611,104.3642 C55.6261,106.2972 55.8591,107.4282 58.1071,108.0782 C60.3511,108.7272 63.9061,107.1882 64.3691,105.6412" id="Fill-111" fill="#B3B3B3"></path>
                        <path d="M56.5304,98.5621 C57.4044,98.5231 58.2614,98.5041 59.1194,98.4881 L61.6914,98.4361 C62.5494,98.4331 63.4074,98.4191 64.2684,98.4371 C65.1294,98.4501 65.9914,98.4781 66.8634,98.5621 C66.0154,98.8051 65.1564,98.9481 64.2944,99.0511 C63.4324,99.1571 62.5664,99.2051 61.6994,99.2221 C60.8314,99.2221 59.9634,99.2001 59.0974,99.0991 C58.2324,98.9991 57.3674,98.8461 56.5304,98.5621" id="Fill-113" fill="#2B0C4C"></path>
                        <path d="M59.247,99.0987 C59.265,99.6857 59.273,100.2597 59.281,100.8357 L59.304,102.5617 C59.305,103.1367 59.312,103.7127 59.303,104.2897 C59.298,104.8677 59.285,105.4467 59.247,106.0307 C59.137,105.4627 59.073,104.8857 59.026,104.3077 C58.978,103.7287 58.956,103.1487 58.949,102.5667 C58.949,101.9847 58.959,101.4017 59.005,100.8207 C59.05,100.2407 59.119,99.6597 59.247,99.0987" id="Fill-115" fill="#2B0C4C"></path>
                        <path d="M67.008,105.1853 C66.734,105.4693 66.577,105.7553 66.443,106.0713 C66.309,106.3823 66.206,106.7043 66.117,107.0353 C66.03,107.3673 65.951,107.7073 65.89,108.0623 C65.823,108.4193 65.773,108.7853 65.685,109.1903 C65.48,108.8433 65.375,108.4453 65.331,108.0383 C65.29,107.6303 65.329,107.2113 65.435,106.8113 C65.543,106.4123 65.725,106.0283 65.989,105.7143 C66.246,105.4053 66.626,105.1543 67.008,105.1853" id="Fill-117" fill="#2B0C4C"></path>
                        <path d="M67.008,108.0782 C66.839,108.6592 66.482,109.1712 66.06,109.5862 C65.628,109.9892 65.141,110.3162 64.634,110.5722 C63.621,111.0902 62.553,111.4302 61.448,111.6302 C60.344,111.7992 59.209,111.8222 58.104,111.5512 C57.83,111.4762 57.554,111.4022 57.288,111.2752 C57.022,111.1542 56.757,110.9842 56.541,110.7802 C56.104,110.3662 55.775,109.8302 55.626,109.2442 C55.916,109.7552 56.3,110.1812 56.743,110.4692 C57.176,110.7702 57.681,110.8682 58.2,110.9502 C59.239,111.0812 60.301,111.0282 61.342,110.8532 C61.864,110.7692 62.381,110.6462 62.895,110.5012 C63.414,110.3652 63.921,110.1882 64.422,110.0022 C65.409,109.6092 66.384,109.0932 67.008,108.0782" id="Fill-119" fill="#2B0C4C"></path>
                        <path d="M100.5688,10.4877 C100.5688,15.7937 97.5288,20.0957 93.7788,20.0957 C90.0298,20.0957 86.9898,15.7937 86.9898,10.4877 C86.9898,5.1817 90.0298,0.8797 93.7788,0.8797 C97.5288,0.8797 100.5688,5.1817 100.5688,10.4877" id="Fill-121" fill="#323232"></path>
                        <path d="M100.5688,10.4877 C100.5688,15.7937 97.7898,20.0957 94.3608,20.0957 C90.9328,20.0957 88.1528,15.7937 88.1528,10.4877 C88.1528,5.1817 90.9328,0.8797 94.3608,0.8797 C97.7898,0.8797 100.5688,5.1817 100.5688,10.4877" id="Fill-123" fill="#991047"></path>
                        <path d="M3.7935,11.5881 C4.1955,16.8791 3.8545,21.2191 3.0325,21.2811 C2.2095,21.3441 1.2175,17.1061 0.8145,11.8141 C0.4125,6.5231 0.7535,2.1841 1.5755,2.1211 C2.3985,2.0591 3.3915,6.2971 3.7935,11.5881" id="Fill-125" fill="#991047"></path>
                        <path d="M90.4568,34.7798 C88.8438,38.0638 85.6548,39.8018 83.3348,38.6618 C81.0138,37.5218 80.4398,33.9358 82.0528,30.6518 C83.6658,27.3688 86.8548,25.6298 89.1748,26.7698 C91.4958,27.9098 92.0698,31.4958 90.4568,34.7798" id="Fill-127" fill="#991047"></path>
                        <path d="M88.4216,37.1914 C85.5606,38.2194 82.6516,37.4144 81.9256,35.3924 C81.1986,33.3704 82.9286,30.8974 85.7906,29.8694 C88.6516,28.8414 91.5596,29.6464 92.2866,31.6684 C93.0136,33.6904 91.2826,36.1634 88.4216,37.1914" id="Fill-129" fill="#B3B3B3"></path>
                    </g>
                    <g id="Group-134" transform="translate(12.000000, 81.061000)">
                        <mask id="mask-20" fill="white">
                            <use xlink:href="#path-19"></use>
                        </mask>
                        <g id="Clip-133"></g>
                        <path d="M0.864,0.862 C-0.984,1.505 1.122,3.732 2.75,7.008 L2.75,7.008 C4.378,10.285 6.798,13.297 8.057,12 L8.057,12 C8.632,11.406 6.554,9.33 4.723,6.163 L4.723,6.163 C3.085,3.33 1.776,0.842 0.981,0.842 L0.981,0.842 C0.941,0.842 0.902,0.848 0.864,0.862" id="Fill-132" mask="url(#mask-20)"></path>
                    </g>
                    <g id="Group-215" transform="translate(8.000000, 0.061000)">
                        <g id="Group-137" transform="translate(32.000000, 151.000000)">
                            <mask id="mask-22" fill="white">
                                <use xlink:href="#path-21"></use>
                            </mask>
                            <g id="Clip-136"></g>
                            <path d="M11.3182,0.5621 L0.9852,0.5621 L1.5702,6.1211 C0.0072,8.0311 -0.9208,12.2821 1.5702,13.4171 C4.4112,14.7111 8.1902,13.6771 10.3862,12.0181 C11.2592,11.3591 11.4722,10.9331 11.4682,9.7641 C11.4652,8.6831 11.4622,7.2111 11.4622,5.4991 L11.3182,0.5621 Z" id="Fill-135" fill="#808080" mask="url(#mask-22)"></path>
                        </g>
                        <g id="Group-140" transform="translate(32.000000, 151.000000)">
                            <mask id="mask-24" fill="white">
                                <use xlink:href="#path-23"></use>
                            </mask>
                            <g id="Clip-139"></g>
                            <path d="M11.3182,0.5621 L8.6892,0.4371 L8.8242,7.6411 C4.1292,8.9211 -3.0968,7.5201 1.5702,13.4171 C4.4112,14.7111 8.1902,13.6771 10.3862,12.0181 C11.2592,11.3591 11.4722,10.9331 11.4682,9.7641 C11.4652,8.6831 11.4622,7.2111 11.4622,5.4991 L11.3182,0.5621 Z" id="Fill-138" fill="#8E8E8E" mask="url(#mask-24)"></path>
                        </g>
                        <path d="M40.8241,158.6412 C38.5891,159.1882 33.8891,159.7962 33.5161,157.3642 C32.0811,159.2972 32.3141,160.4282 34.5621,161.0782 C36.8061,161.7272 40.3611,160.1882 40.8241,158.6412" id="Fill-141" fill="#B3B3B3"></path>
                        <path d="M43.4629,158.1853 C43.1899,158.4693 43.0329,158.7553 42.8979,159.0713 C42.7649,159.3823 42.6609,159.7043 42.5719,160.0353 C42.4849,160.3673 42.4059,160.7073 42.3449,161.0623 C42.2779,161.4193 42.2279,161.7853 42.1399,162.1903 C41.9349,161.8433 41.8299,161.4453 41.7859,161.0383 C41.7449,160.6303 41.7839,160.2113 41.8909,159.8113 C41.9989,159.4123 42.1799,159.0283 42.4439,158.7143 C42.7009,158.4053 43.0809,158.1543 43.4629,158.1853" id="Fill-143" fill="#2B0C4C"></path>
                        <path d="M43.4629,161.0782 C43.2939,161.6592 42.9369,162.1712 42.5149,162.5862 C42.0829,162.9892 41.5959,163.3162 41.0889,163.5722 C40.0759,164.0902 39.0079,164.4302 37.9029,164.6302 C36.7989,164.7992 35.6639,164.8222 34.5589,164.5512 C34.2849,164.4762 34.0089,164.4022 33.7439,164.2752 C33.4769,164.1542 33.2119,163.9842 32.9959,163.7802 C32.5589,163.3662 32.2299,162.8302 32.0809,162.2442 C32.3709,162.7552 32.7549,163.1812 33.1979,163.4692 C33.6309,163.7702 34.1359,163.8682 34.6559,163.9502 C35.6939,164.0812 36.7559,164.0282 37.7969,163.8532 C38.3199,163.7692 38.8359,163.6462 39.3499,163.5012 C39.8699,163.3652 40.3759,163.1882 40.8769,163.0022 C41.8639,162.6092 42.8389,162.0932 43.4629,161.0782" id="Fill-145" fill="#2B0C4C"></path>
                        <path d="M32.9998,151.5621 C33.8688,151.5231 34.7198,151.5041 35.5728,151.4881 L38.1278,151.4361 C38.9808,151.4331 39.8338,151.4191 40.6888,151.4371 C41.5448,151.4501 42.4018,151.4781 43.2678,151.5621 C42.4258,151.8051 41.5718,151.9481 40.7148,152.0511 C39.8588,152.1571 38.9978,152.2051 38.1358,152.2221 C37.2738,152.2221 36.4108,152.2001 35.5508,152.0991 C34.6908,151.9991 33.8308,151.8461 32.9998,151.5621" id="Fill-147" fill="#2B0C4C"></path>
                        <path d="M35.0266,151.9511 C35.0446,152.5381 35.0526,153.1121 35.0606,153.6881 L35.0836,155.4141 C35.0846,155.9891 35.0916,156.5651 35.0826,157.1421 C35.0776,157.7201 35.0646,158.2991 35.0266,158.8831 C34.9166,158.3151 34.8526,157.7381 34.8056,157.1601 C34.7576,156.5811 34.7356,156.0011 34.7286,155.4191 C34.7286,154.8371 34.7386,154.2541 34.7846,153.6731 C34.8296,153.0931 34.8986,152.5121 35.0266,151.9511" id="Fill-149" fill="#2B0C4C"></path>
                        <path d="M86.1502,83.0788 C90.0892,83.8608 90.9762,88.1508 91.5512,90.5878 C92.4492,94.4008 96.2042,95.6248 95.8232,101.1518 C95.3722,107.6918 89.2732,108.9528 81.7512,106.8468 C78.7612,106.0098 74.9082,106.2148 76.7812,103.4528 C78.6542,100.6908 78.2312,101.1998 81.2712,101.2058 C84.3112,101.2108 90.0062,104.7118 90.1722,100.7308 C90.3122,97.3918 86.2262,97.5558 85.4952,91.0308 C85.1942,88.3418 83.5172,89.6318 82.3212,86.9398 C81.6762,85.4878 83.8792,82.6278 86.1502,83.0788" id="Fill-151" fill="#808080"></path>
                        <path d="M88.9552,84.596 C88.6052,84.323 88.2422,84.073 87.8482,83.885 C87.4632,83.684 87.0552,83.533 86.6372,83.455 C85.8012,83.289 84.9352,83.442 84.2292,83.901 C83.8712,84.117 83.5512,84.414 83.2522,84.717 C82.9572,85.024 82.7062,85.37 82.5422,85.753 C82.1902,86.52 82.4332,87.466 83.0502,88.105 C82.6902,87.842 82.4112,87.463 82.2512,87.03 C82.0992,86.59 82.1142,86.093 82.2642,85.65 C82.4082,85.2 82.6802,84.811 82.9812,84.468 C83.2902,84.131 83.6262,83.821 84.0212,83.57 C84.4132,83.321 84.8602,83.147 85.3222,83.073 C85.7862,83.008 86.2622,83.031 86.7052,83.157 C87.5952,83.401 88.3722,83.926 88.9552,84.596" id="Fill-153" fill="#2B0C4C"></path>
                        <path d="M90.6943,87.5221 C90.2323,87.0091 89.5823,86.7791 88.9443,86.7141 C88.3003,86.6571 87.6423,86.7611 87.0593,87.0221 C86.4733,87.2761 85.9653,87.7021 85.6603,88.2621 C85.3533,88.8241 85.2703,89.4981 85.3163,90.1801 C85.1203,89.5331 85.0873,88.7891 85.3843,88.1281 C85.6693,87.4631 86.2483,86.9501 86.8993,86.6631 C87.5553,86.3781 88.2893,86.2841 88.9873,86.4121 C89.6793,86.5291 90.3603,86.9141 90.6943,87.5221" id="Fill-155" fill="#2B0C4C"></path>
                        <path d="M91.4955,91.3072 C90.4475,91.2972 89.4235,91.4012 88.5055,91.7992 C88.0475,91.9922 87.6245,92.2632 87.2455,92.5922 C86.8695,92.9252 86.5335,93.3132 86.2225,93.7392 C86.3965,93.2442 86.6635,92.7692 87.0315,92.3732 C87.3935,91.9712 87.8525,91.6552 88.3505,91.4382 C89.3555,91.0122 90.4945,90.9892 91.4955,91.3072" id="Fill-157" fill="#2B0C4C"></path>
                        <path d="M93.4325,94.3766 C92.8405,95.1136 92.1155,95.7286 91.3335,96.2546 C90.5455,96.7696 89.6925,97.1996 88.7765,97.4376 C89.5635,96.9156 90.3495,96.4416 91.1165,95.9266 C91.8895,95.4226 92.6345,94.8816 93.4325,94.3766" id="Fill-159" fill="#2B0C4C"></path>
                        <path d="M95.6735,99.1208 C95.3545,99.5238 95.0295,99.9238 94.6385,100.2708 C94.2515,100.6208 93.8015,100.9158 93.3065,101.1168 C92.8095,101.3118 92.2715,101.4078 91.7425,101.3808 C91.2125,101.3558 90.7025,101.2108 90.2315,101.0048 C90.7455,101.0638 91.2465,101.0998 91.7395,101.0748 C92.2315,101.0378 92.7105,100.9348 93.1615,100.7518 C93.6155,100.5758 94.0385,100.3198 94.4475,100.0328 C94.8525,99.7408 95.2485,99.4148 95.6735,99.1208" id="Fill-161" fill="#2B0C4C"></path>
                        <path d="M94.4934,105.0887 C93.9944,105.3017 93.4594,105.4597 92.8954,105.4737 C92.3354,105.4957 91.7444,105.3587 91.2604,105.0467 C90.7754,104.7377 90.3904,104.3127 90.0864,103.8527 C89.7794,103.3917 89.5624,102.8857 89.3854,102.3717 C89.6994,102.8177 90.0004,103.2607 90.3334,103.6707 C90.6714,104.0727 91.0374,104.4467 91.4684,104.7127 C91.8914,104.9937 92.3874,105.1257 92.9014,105.1687 C93.4174,105.2057 93.9534,105.1557 94.4934,105.0887" id="Fill-163" fill="#2B0C4C"></path>
                        <path d="M88.7639,107.7697 C88.3159,107.5547 87.9349,107.2077 87.6229,106.8147 C87.3079,106.4217 87.0689,105.9667 86.9149,105.4787 C86.7709,104.9907 86.7129,104.4547 86.8489,103.9457 C86.9729,103.4347 87.3319,102.9947 87.7759,102.7767 C87.4289,103.1317 87.2069,103.5567 87.1489,104.0087 C87.0899,104.4587 87.1539,104.9217 87.2909,105.3637 C87.4229,105.8087 87.6269,106.2357 87.8729,106.6397 C88.1229,107.0427 88.4129,107.4227 88.7639,107.7697" id="Fill-165" fill="#2B0C4C"></path>
                        <path d="M84.4128,107.5075 C83.9448,107.2175 83.6038,106.7365 83.3848,106.2255 C83.1608,105.7125 83.0508,105.1475 83.0628,104.5795 C83.0818,104.0135 83.2378,103.4355 83.5688,102.9665 C83.8928,102.4915 84.3848,102.1625 84.9008,101.9955 C84.4478,102.3035 84.0748,102.6825 83.8298,103.1285 C83.5868,103.5755 83.4678,104.0805 83.4558,104.5915 C83.4368,105.1025 83.5198,105.6215 83.6708,106.1195 C83.8318,106.6135 84.0468,107.1015 84.4128,107.5075" id="Fill-167" fill="#2B0C4C"></path>
                        <path d="M70.3032,105.4806 C69.9352,105.6906 69.5962,105.9866 69.4622,106.3716 C69.3142,106.7466 69.3382,107.1566 69.4022,107.5516 C69.4682,107.9506 69.5642,108.3436 69.6632,108.7466 C69.7512,109.1476 69.8532,109.5536 69.9552,109.9606 C70.1682,110.7886 70.3302,111.5866 70.6522,112.2876 C70.8212,112.6206 71.0182,112.9306 71.2512,113.1326 C71.4812,113.3296 71.7562,113.4386 72.1062,113.3686 C72.4482,113.2926 72.7992,113.0556 73.0532,112.7446 L73.1522,112.6276 L73.2162,112.5166 C73.2492,112.4306 73.2822,112.3426 73.3022,112.2436 C73.3472,112.0496 73.3582,111.8396 73.3502,111.6316 C73.3182,110.7876 72.9742,109.9756 72.6952,109.1916 C72.4082,108.4046 72.1722,107.6206 71.9242,106.8296 C71.7932,106.4386 71.6412,106.0406 71.3732,105.7356 C71.2442,105.5826 71.0792,105.4506 70.8862,105.4026 C70.6942,105.3486 70.4862,105.3856 70.3032,105.4806 M70.2442,105.3736 C70.4462,105.2676 70.6812,105.2116 70.9172,105.2406 C71.1562,105.2636 71.3712,105.3756 71.5732,105.4956 C71.9692,105.7526 72.3122,106.0866 72.6022,106.4506 C73.1912,107.1806 73.5322,108.0486 73.6802,108.9376 C73.8232,109.8336 73.7862,110.7446 73.7432,111.6386 C73.7302,111.8626 73.7072,112.0886 73.6662,112.3186 C73.6472,112.4346 73.6112,112.5516 73.5692,112.6686 L73.4802,112.8446 L73.3862,112.9906 C73.1252,113.3696 72.8152,113.7466 72.3462,113.9916 C71.8862,114.2396 71.2072,114.2496 70.7182,113.9536 C70.2222,113.6746 69.9092,113.2536 69.6432,112.8436 C69.1472,112.0086 68.8682,111.1096 68.6862,110.2526 C68.5092,109.3806 68.3832,108.4596 68.5922,107.5136 C68.6922,107.0466 68.8842,106.5776 69.1762,106.2016 C69.4712,105.8226 69.8642,105.5856 70.2442,105.3736" id="Fill-169" fill="#808080"></path>
                        <path d="M1.9623,66.7054 C1.9623,89.2394 20.9893,107.5074 44.4603,107.5074 C67.9313,107.5074 86.9583,89.2394 86.9583,66.7054 C86.9583,44.1714 67.9313,25.9034 44.4603,25.9034 C20.9893,25.9034 1.9623,44.1714 1.9623,66.7054" id="Fill-171" fill="#FEE2C5"></path>
                        <path d="M70.0342,75.9335 C70.0342,80.3955 66.4172,84.0125 61.9552,84.0125 C57.4932,84.0125 53.8762,80.3955 53.8762,75.9335 C53.8762,71.4715 57.4932,67.8545 61.9552,67.8545 C66.4172,67.8545 70.0342,71.4715 70.0342,75.9335" id="Fill-173" fill="#FFFFFF"></path>
                        <path d="M67.3782,74.9605 C67.3782,78.4925 64.5142,81.3565 60.9822,81.3565 C57.4502,81.3565 54.5862,78.4925 54.5862,74.9605 C54.5862,71.4285 57.4502,68.5645 60.9822,68.5645 C64.5142,68.5645 67.3782,71.4285 67.3782,74.9605" id="Fill-175" fill="#432918"></path>
                        <path d="M33.9606,75.9335 C33.9606,80.3955 30.3436,84.0125 25.8816,84.0125 C21.4196,84.0125 17.8026,80.3955 17.8026,75.9335 C17.8026,71.4715 21.4196,67.8545 25.8816,67.8545 C30.3436,67.8545 33.9606,71.4715 33.9606,75.9335" id="Fill-177" fill="#FFFFFF"></path>
                        <path d="M31.3046,74.9605 C31.3046,78.4925 28.4416,81.3565 24.9086,81.3565 C21.3766,81.3565 18.5126,78.4925 18.5126,74.9605 C18.5126,71.4285 21.3766,68.5645 24.9086,68.5645 C28.4416,68.5645 31.3046,71.4285 31.3046,74.9605" id="Fill-179" fill="#432918"></path>
                        <path d="M39.3087,21.8577 C39.3087,21.8577 31.4267,8.3457 40.7157,3.7017 C50.0057,-0.9433 51.2727,8.7687 51.2727,8.7687 C51.2727,8.7687 55.7757,-3.1783 66.1917,2.4437 C76.6067,8.0647 67.5987,18.6207 67.5987,18.6207 C67.5987,18.6207 71.5397,15.8057 74.4957,18.4797 C77.4517,21.1537 78.2957,32.5547 63.9397,31.8507 C49.5837,31.1467 41.5257,27.0307 39.3087,21.8577" id="Fill-181" fill="#E23365"></path>
                        <path d="M72.7002,31.5446 L74.2262,28.8566 C74.2262,28.8566 62.0152,17.4336 39.0422,21.3706 C39.0422,23.6866 39.7182,25.1366 39.7182,25.1366 C39.7182,25.1366 57.6642,22.7036 72.7002,31.5446" id="Fill-183" fill="#991047"></path>
                        <path d="M28.5462,33.8712 C38.5602,29.8002 48.6832,30.0202 60.1282,38.8232 C68.0192,44.8932 75.7582,40.2372 79.8032,36.7622 C73.2832,29.6512 62.8672,24.0582 46.5472,23.2732 C45.7222,23.2432 44.8952,23.2442 44.0702,23.2762 L43.9272,23.2812 C32.6722,23.8432 24.2382,26.7012 17.9532,30.7602 C19.5192,33.4662 22.6382,36.2732 28.5462,33.8712" id="Fill-185" fill="#E23365"></path>
                        <path d="M27.6659,45.6456 C17.1319,50.2876 9.3069,48.9086 4.3369,46.6656 C-0.6571,57.8236 0.5329,69.1506 2.0799,71.0546 C5.2389,74.9386 8.6989,72.0656 10.3839,68.3576 C11.0629,66.8646 11.2459,65.1486 12.4479,62.7976 C23.7139,63.4206 30.0069,53.8626 30.0069,53.8626 C30.0069,53.8626 19.5889,71.4486 37.4879,71.6496 C53.5399,71.8296 58.7329,58.6906 60.3769,51.4426 C48.1039,47.8716 44.9149,38.0446 27.6659,45.6456" id="Fill-187" fill="#E23365"></path>
                        <path d="M85.1827,44.4096 C83.2267,47.2006 79.6517,50.7546 73.6617,52.0866 C78.3027,57.6846 79.1637,66.0046 80.2337,68.3576 C81.9187,72.0656 85.3787,74.9386 88.5377,71.0546 C90.1897,69.0226 91.4337,56.2506 85.1827,44.4096" id="Fill-189" fill="#E23365"></path>
                        <path d="M85.1827,44.4096 C83.7897,41.7706 82.0197,39.1796 79.8027,36.7616 C75.7577,40.2376 68.0197,44.8936 60.1277,38.8226 C48.6837,30.0196 38.5597,29.7996 28.5467,33.8716 C22.6377,36.2736 19.5187,33.4656 17.9537,30.7596 C11.2017,35.1206 6.9317,40.8686 4.3377,46.6656 C9.3067,48.9086 17.1317,50.2876 27.6657,45.6456 C44.9147,38.0446 48.1037,47.8706 60.3767,51.4426 C61.0007,48.6906 61.1167,46.7836 61.1167,46.7836 C67.0657,46.5376 70.9887,48.8616 73.6617,52.0866 C79.6517,50.7546 83.2267,47.2006 85.1827,44.4096" id="Fill-191" fill="#E23365"></path>
                        <path d="M85.1827,44.4096 C83.7897,41.7706 82.0197,39.1796 79.8027,36.7616 C75.7577,40.2376 68.0197,44.8936 60.1277,38.8226 C48.6837,30.0196 38.5597,29.7996 28.5467,33.8716 C22.6377,36.2736 19.5187,33.4656 17.9537,30.7596 C11.2017,35.1206 6.9317,40.8686 4.3377,46.6656 C9.3067,48.9086 17.1317,50.2876 27.6657,45.6456 C44.9147,38.0446 48.1037,47.8706 60.3767,51.4426 C61.0007,48.6906 61.1167,46.7836 61.1167,46.7836 C67.0657,46.5376 70.9887,48.8616 73.6617,52.0866 C79.6517,50.7546 83.2267,47.2006 85.1827,44.4096" id="Fill-193" fill="#E23365"></path>
                        <path d="M66.6537,84.9462 C66.4837,83.6862 68.0607,82.2472 70.1757,81.7312 C72.2907,81.2152 74.1437,81.8182 74.3137,83.0782 C74.4847,84.3382 72.9077,85.7782 70.7917,86.2942 C68.6767,86.8092 66.8237,86.2062 66.6537,84.9462" id="Fill-195" fill="#FDC6B7"></path>
                        <path d="M21.1833,84.9462 C21.3533,83.6862 19.7763,82.2472 17.6613,81.7312 C15.5463,81.2152 13.6933,81.8182 13.5233,83.0782 C13.3523,84.3382 14.9293,85.7782 17.0453,86.2942 C19.1603,86.8092 21.0133,86.2062 21.1833,84.9462" id="Fill-197" fill="#FDC6B7"></path>
                        <path d="M68.8204,62.1924 C68.8204,62.1924 64.6774,54.9464 55.0904,58.6254 C59.5494,52.6054 68.2824,55.6154 68.8204,62.1924" id="Fill-199" fill="#991047"></path>
                        <path d="M19.0166,62.1924 C19.0166,62.1924 23.1596,54.9464 32.7466,58.6254 C28.2876,52.6054 19.5546,55.6154 19.0166,62.1924" id="Fill-201" fill="#991047"></path>
                        <path d="M45.5852,94.3942 C48.8562,93.7812 51.0762,92.0392 51.1832,91.9542 C51.3932,91.7872 51.3982,91.5412 51.1942,91.4062 C50.9902,91.2702 50.6542,91.2972 50.4422,91.4642 C50.4152,91.4852 47.7062,93.5992 44.0662,93.8072 C41.5962,93.9482 39.2412,93.1922 37.0702,91.5602 C36.8772,91.4172 36.5412,91.4282 36.3192,91.5892 C36.0972,91.7492 36.0732,91.9962 36.2652,92.1402 C38.6392,93.9242 41.2522,94.7472 44.0322,94.5852 C44.5712,94.5542 45.0902,94.4872 45.5852,94.3942" id="Fill-203" fill="#991047"></path>
                        <path d="M19.7605,71.9658 C19.7605,70.3118 21.1015,68.9708 22.7555,68.9708 C24.4095,68.9708 25.7505,70.3118 25.7505,71.9658 C25.7505,73.6198 24.4095,74.9608 22.7555,74.9608 C21.1015,74.9608 19.7605,73.6198 19.7605,71.9658" id="Fill-205" fill="#FFFFFF"></path>
                        <path d="M55.9656,71.9658 C55.9656,70.3118 57.3066,68.9708 58.9606,68.9708 C60.6146,68.9708 61.9556,70.3118 61.9556,71.9658 C61.9556,73.6198 60.6146,74.9608 58.9606,74.9608 C57.3066,74.9608 55.9656,73.6198 55.9656,71.9658" id="Fill-207" fill="#FFFFFF"></path>
                        <path d="M30.2946,120.37 C35.0576,120.775 53.9386,121.111 65.1446,120.341 L64.7956,121.044 C57.8056,121.23 52.1696,122.055 30.6516,121.182 L30.2946,120.37 Z" id="Fill-209" fill="#FFFFFF"></path>
                        <path d="M30.6941,124.6661 C35.0281,125.0711 52.2051,125.4071 62.4001,124.6371 L62.0831,125.3401 C55.7231,125.5261 50.5951,126.3511 31.0191,125.4781 L30.6941,124.6661 Z" id="Fill-211" fill="#FFFFFF"></path>
                        <path d="M45.2041,122.5361 C45.2041,122.5361 45.3291,124.9301 45.6361,128.0901 C46.2741,134.6741 48.8351,136.4911 48.8351,136.4911 L46.4201,136.4091 C46.4201,136.4091 44.8161,133.8231 43.8981,129.7771 C42.9541,125.6171 42.7451,123.2061 42.8091,122.5731 C43.6901,122.4671 45.2041,122.5361 45.2041,122.5361" id="Fill-213" fill="#991047"></path>
                    </g>
                </g>
            </g>
        </g>
    </g>
</svg>