<?xml version="1.0" encoding="UTF-8"?>
<svg width="61px" height="61px" viewBox="0 0 61 61" version="1.1" xmlns="http://www.w3.org/2000/svg" xmlns:xlink="http://www.w3.org/1999/xlink">
    <!-- Generator: Sketch 53.1 (72631) - https://sketchapp.com -->
    <title>Group 679PartyHat</title>
    <desc>Created with Sketch.</desc>
    <defs>
        <path d="M0.418,60.409 L60.282,60.409 C60.282,60.409 34.182,3.435 29.996,0.401 L29.996,0.401 C29.897,0.329 29.788,0.294 29.666,0.294 L29.666,0.294 C24.629,0.301 0.418,60.409 0.418,60.409 L0.418,60.409 Z" id="path-1"></path>
        <path d="M0.418,60.409 L60.282,60.409 C60.282,60.409 34.182,3.435 29.996,0.401 L29.996,0.401 C29.897,0.329 29.788,0.294 29.666,0.294 L29.666,0.294 C24.629,0.301 0.418,60.409 0.418,60.409" id="path-3"></path>
        <path d="M0.418,60.409 L60.282,60.409 C60.282,60.409 34.182,3.435 29.996,0.401 L29.996,0.401 C29.897,0.329 29.788,0.294 29.666,0.294 L29.666,0.294 C24.629,0.301 0.418,60.409 0.418,60.409" id="path-5"></path>
        <path d="M0.418,60.409 L60.282,60.409 C60.282,60.409 34.182,3.435 29.996,0.401 L29.996,0.401 C29.897,0.329 29.788,0.294 29.666,0.294 L29.666,0.294 C24.629,0.301 0.418,60.409 0.418,60.409" id="path-7"></path>
        <path d="M0.418,60.409 L60.282,60.409 C60.282,60.409 34.182,3.435 29.996,0.401 L29.996,0.401 C29.897,0.329 29.788,0.294 29.666,0.294 L29.666,0.294 C24.629,0.301 0.418,60.409 0.418,60.409" id="path-9"></path>
        <path d="M0.418,60.409 L60.282,60.409 C60.282,60.409 34.182,3.435 29.996,0.401 L29.996,0.401 C29.897,0.329 29.788,0.294 29.666,0.294 L29.666,0.294 C24.629,0.301 0.418,60.409 0.418,60.409" id="path-11"></path>
    </defs>
    <g id="Page-1" stroke="none" stroke-width="1" fill="none" fill-rule="evenodd">
        <g id="Desktop-HD" transform="translate(-1154.000000, -2426.000000)">
            <g id="Group-679" transform="translate(1154.000000, 2426.431000)">
                <g id="Group-678">
                    <g id="Group-662">
                        <mask id="mask-2" fill="white">
                            <use xlink:href="#path-1"></use>
                        </mask>
                        <g id="Clip-661"></g>
                        <path d="M0.4178,60.4086 C0.4178,60.4086 25.8108,-2.6344 29.9958,0.4006 C34.1818,3.4356 60.2818,60.4086 60.2818,60.4086 L0.4178,60.4086 Z" id="Fill-660" fill="#595BD9" mask="url(#mask-2)"></path>
                    </g>
                    <g id="Group-665">
                        <mask id="mask-4" fill="white">
                            <use xlink:href="#path-3"></use>
                        </mask>
                        <g id="Clip-664"></g>
                        <path d="M11.7898,21.8 L14.5568,25.032 C14.6088,25.092 14.6868,25.123 14.7658,25.115 L18.9968,24.668 C19.1958,24.647 19.3318,24.863 19.2278,25.033 L17.0088,28.664 C16.9678,28.731 16.9618,28.815 16.9948,28.887 L18.7278,32.773 C18.8088,32.956 18.6458,33.152 18.4508,33.106 L14.3128,32.118 C14.2358,32.099 14.1548,32.12 14.0958,32.173 L10.9348,35.022 C10.7868,35.156 10.5488,35.061 10.5338,34.862 L10.1948,30.621 C10.1878,30.542 10.1428,30.471 10.0748,30.431 L6.3888,28.306 C6.2158,28.206 6.2318,27.951 6.4168,27.875 L10.3458,26.242 C10.4188,26.211 10.4718,26.147 10.4888,26.069 L11.3708,21.907 C11.4118,21.711 11.6598,21.648 11.7898,21.8" id="Fill-663" fill="#F79E3C" mask="url(#mask-4)"></path>
                    </g>
                    <g id="Group-668">
                        <mask id="mask-6" fill="white">
                            <use xlink:href="#path-5"></use>
                        </mask>
                        <g id="Clip-667"></g>
                        <path d="M34.3167,25.8279 L35.5737,29.8929 C35.5977,29.9689 35.6567,30.0279 35.7327,30.0519 L39.7937,31.3199 C39.9847,31.3799 40.0237,31.6319 39.8607,31.7469 L36.3837,34.1989 C36.3187,34.2449 36.2807,34.3199 36.2817,34.3989 L36.3297,38.6529 C36.3317,38.8529 36.1037,38.9689 35.9447,38.8489 L32.5377,36.2999 C32.4747,36.2519 32.3917,36.2389 32.3167,36.2639 L28.2847,37.6249 C28.0957,37.6889 27.9157,37.5079 27.9797,37.3189 L29.3517,33.2909 C29.3777,33.2159 29.3647,33.1329 29.3167,33.0699 L26.7767,29.6559 C26.6577,29.4959 26.7747,29.2689 26.9737,29.2709 L31.2287,29.3319 C31.3077,29.3329 31.3827,29.2949 31.4287,29.2299 L33.8897,25.7599 C34.0057,25.5969 34.2577,25.6369 34.3167,25.8279" id="Fill-666" fill="#F79E3C" mask="url(#mask-6)"></path>
                    </g>
                    <g id="Group-671">
                        <mask id="mask-8" fill="white">
                            <use xlink:href="#path-7"></use>
                        </mask>
                        <g id="Clip-670"></g>
                        <path d="M33.9611,4.5598 L35.5201,8.5188 C35.5491,8.5928 35.6121,8.6478 35.6901,8.6658 L39.8341,9.6258 C40.0291,9.6708 40.0881,9.9198 39.9331,10.0468 L36.6501,12.7528 C36.5881,12.8028 36.5561,12.8808 36.5631,12.9598 L36.9301,17.1988 C36.9471,17.3968 36.7291,17.5298 36.5601,17.4228 L32.9721,15.1358 C32.9051,15.0928 32.8221,15.0858 32.7491,15.1168 L28.8311,16.7758 C28.6471,16.8538 28.4531,16.6868 28.5031,16.4938 L29.5701,12.3748 C29.5901,12.2978 29.5701,12.2158 29.5181,12.1558 L26.7301,8.9428 C26.5991,8.7918 26.6981,8.5568 26.8971,8.5438 L31.1441,8.2858 C31.2231,8.2808 31.2951,8.2368 31.3361,8.1688 L33.5301,4.5238 C33.6331,4.3528 33.8881,4.3738 33.9611,4.5598" id="Fill-669" fill="#F79E3C" mask="url(#mask-8)"></path>
                    </g>
                    <g id="Group-674">
                        <mask id="mask-10" fill="white">
                            <use xlink:href="#path-9"></use>
                        </mask>
                        <g id="Clip-673"></g>
                        <path d="M19.1375,44.2075 L21.4115,47.8035 C21.4545,47.8705 21.5265,47.9125 21.6065,47.9155 L25.8575,48.0805 C26.0575,48.0885 26.1615,48.3215 26.0335,48.4755 L23.3165,51.7495 C23.2655,51.8105 23.2485,51.8925 23.2705,51.9695 L24.4265,56.0635 C24.4815,56.2555 24.2915,56.4265 24.1055,56.3535 L20.1525,54.7805 C20.0785,54.7515 19.9955,54.7605 19.9295,54.8045 L16.3925,57.1695 C16.2265,57.2805 16.0055,57.1535 16.0175,56.9535 L16.2915,52.7075 C16.2965,52.6285 16.2625,52.5525 16.2005,52.5025 L12.8575,49.8705 C12.7005,49.7465 12.7535,49.4965 12.9475,49.4475 L17.0705,48.3955 C17.1475,48.3765 17.2095,48.3195 17.2365,48.2455 L18.7075,44.2535 C18.7765,44.0655 19.0305,44.0385 19.1375,44.2075" id="Fill-672" fill="#F79E3C" mask="url(#mask-10)"></path>
                    </g>
                    <g id="Group-677">
                        <mask id="mask-12" fill="white">
                            <use xlink:href="#path-11"></use>
                        </mask>
                        <g id="Clip-676"></g>
                        <path d="M49.6741,41.2516 L51.9481,44.8476 C51.9911,44.9146 52.0631,44.9566 52.1421,44.9596 L56.3941,45.1246 C56.5941,45.1326 56.6981,45.3656 56.5701,45.5196 L53.8531,48.7936 C53.8021,48.8546 53.7851,48.9366 53.8071,49.0136 L54.9631,53.1076 C55.0181,53.2996 54.8281,53.4706 54.6421,53.3976 L50.6891,51.8246 C50.6151,51.7956 50.5311,51.8046 50.4661,51.8486 L46.9291,54.2136 C46.7631,54.3246 46.5411,54.1976 46.5541,53.9976 L46.8281,49.7516 C46.8331,49.6726 46.7991,49.5966 46.7371,49.5466 L43.3941,46.9146 C43.2371,46.7906 43.2901,46.5406 43.4841,46.4916 L47.6061,45.4396 C47.6831,45.4206 47.7461,45.3636 47.7731,45.2896 L49.2441,41.2976 C49.3131,41.1096 49.5671,41.0826 49.6741,41.2516" id="Fill-675" fill="#F79E3C" mask="url(#mask-12)"></path>
                    </g>
                </g>
            </g>
        </g>
    </g>
</svg>