<?xml version="1.0" encoding="UTF-8"?>
<svg width="99px" height="216px" viewBox="0 0 99 216" version="1.1" xmlns="http://www.w3.org/2000/svg" xmlns:xlink="http://www.w3.org/1999/xlink">
    <!-- Generator: Sketch 53.1 (72631) - https://sketchapp.com -->
    <title>Group 52SpacePlants</title>
    <desc>Created with Sketch.</desc>
    <g id="Page-1" stroke="none" stroke-width="1" fill="none" fill-rule="evenodd">
        <g id="Desktop-HD" transform="translate(-375.000000, -2571.000000)">
            <g id="Group-52" transform="translate(375.888400, 2571.840245)">
                <path d="M64.33,58.9404552 C61.847,56.7174552 60.822,48.8754552 61.716,45.6654552 C62.61,42.4554552 64.546,39.6574552 66.17,36.7474552 C67.793,33.8364552 69.156,30.5674552 68.728,27.2624552 C68.396,24.6974552 67.023,22.4024552 65.68,20.1914552 C64.712,18.5984552 63.516,16.8464552 61.674,16.5644552 C59.727,16.2654552 57.879,17.8914552 57.322,19.7814552 C56.765,21.6704552 57.209,23.7074552 57.851,25.5694552 C58.492,27.4324552 59.335,29.2504552 59.595,31.2024552 C60.332,36.7394552 56.305,41.8884552 56.169,47.4734552 C56.016,53.7624552 58.454,59.6794552 61.801,64.8914552 C64.953,69.8024552 69.391,73.7804552 72.499,78.6414552 C74.617,81.9544552 75.956,86.0204552 75.09,89.9534552 C74.714,91.6644552 74.663,93.4774552 74.104,95.1524552 C73.972,95.5484552 71.019,102.483455 70.638,102.110455 C68.77,100.283455 68.602,94.9324552 68.256,92.3424552 C67.91,89.7524552 68.062,87.1254552 67.977,84.5144552 C67.918,82.6874552 67.733,80.8264552 66.988,79.1574552 C66.243,77.4884552 64.854,76.0234552 63.08,75.5854552 C60.162,74.8664552 57.142,77.2544552 56.325,80.1464552 C55.508,83.0384552 56.418,86.1584552 57.831,88.8114552 C61.152,95.0484552 66.499,101.234455 63.465,108.846455 C62.21,111.992455 59.584,114.381455 58.483,117.604455 C57.249,121.213455 57.522,125.289455 58.432,128.932455 C59.499,133.205455 61.448,137.195455 63.116,141.271455 C65.052,145.998455 66.682,150.968455 67.867,155.937455 L75.971,155.937455 C76.031,150.252455 77.906,144.599455 81.257,140.005455 C81.971,139.026455 82.776,138.036455 82.966,136.840455 C83.155,135.643455 82.415,134.200455 81.205,134.147455 C80.385,134.111455 79.678,134.698455 79.124,135.302455 C77.217,137.381455 76.034,140.112455 75.824,142.925455 C75.648,145.265455 75.967,148.027455 74.181,149.549455 C71.317,145.360455 71.219,139.617455 73.378,135.024455 C74.76,132.083455 76.943,129.608455 79.066,127.147455 C81.188,124.686455 83.312,122.142455 84.535,119.132455 C85.759,116.122455 85.963,112.523455 84.3,109.731455 C83.415,108.247455 81.8,106.993455 80.092,107.256455 C78.549,107.493455 77.413,108.912455 76.972,110.411455 C76.53,111.909455 76.63,113.504455 76.621,115.066455 C76.58,122.136455 74.15,129.171455 69.819,134.759455 C70.104,134.392455 67.453,130.485455 67.182,129.931455 C66.389,128.312455 65.847,126.609455 65.666,124.809455 C65.08,119.012455 68.345,115.397455 71.837,111.319455 C75.467,107.079455 79.144,101.855455 79.349,96.0974552 C79.435,93.7004552 79.173,91.2994552 79.276,88.9024552 C79.591,81.5344552 84.515,76.2784552 86.081,69.3194552 C86.812,66.0674552 86.763,62.7124552 85.243,59.7404552 C83.785,56.8874552 81.384,53.6154552 82.285,50.2344552 C82.812,48.2544552 84.39,46.7614552 85.497,45.0384552 C86.604,43.3154552 87.164,40.8294552 85.737,39.3594552 C84.766,38.3594552 83.141,38.2144552 81.844,38.7264552 C80.547,39.2384552 79.538,40.2934552 78.732,41.4314552 C75.595,45.8634552 75.153,52.0554552 77.629,56.8874552 C78.857,59.2844552 80.731,61.3484552 81.636,63.8854552 C82.541,66.4224552 82.053,69.8164552 79.615,70.9624552 C74.684,66.7594552 69.184,62.1334552 68.458,55.2594552 C67.481,46.0124552 75.224,41.5074552 79.135,34.2494552 C81.971,28.9864552 82.206,22.7024552 81.591,16.7564552 C81.269,13.6444552 80.721,10.5174552 79.442,7.66345525 C78.162,4.80945525 76.086,2.22645525 73.296,0.812455249 C71.421,-0.137544751 68.94,-0.445544751 67.365,0.946455249 C66.199,1.97745525 65.851,3.67345525 65.954,5.22745525 C66.24,9.56045525 69.339,13.0964552 71.37,16.9344552 C73.608,21.1634552 74.541,26.1064552 73.935,30.8574552 C73.291,35.9054552 70.609,39.5774552 67.908,43.7234552 C65.384,47.5984552 62.967,54.2444552 64.33,58.9404552" id="Fill-145" fill="#595BD9"></path>
                <path d="M44.6114,214.328955 L97.9954,214.328955 C97.6044,194.143955 95.3984,174.287955 90.9754,157.636955 C90.2314,154.832955 87.6914,152.881955 84.7894,152.881955 L58.0194,152.881955 C55.0254,152.881955 52.4394,154.958955 51.7764,157.878955 C47.9024,174.938955 45.7194,194.732955 44.6114,214.328955" id="Fill-147" fill="#BD5174"></path>
                <path d="M51.7763,157.878755 C52.4393,154.958755 55.0253,152.881755 58.0193,152.881755 L84.7893,152.881755 C87.6913,152.881755 90.2313,154.832755 90.9763,157.637755 C92.8083,164.535755 94.2543,171.989755 95.3543,179.782755 L91.6433,179.782755 C89.2993,179.782755 87.3223,181.489755 86.9343,183.801755 C86.3243,187.442755 85.4983,190.938755 84.4053,194.250755 C83.7943,196.098755 82.1173,197.367755 80.1773,197.520755 C74.2953,197.982755 68.4123,197.985755 62.5303,197.527755 C60.5433,197.373755 58.8503,196.037755 58.2663,194.131755 C57.2163,190.707755 56.3763,187.229755 55.7283,183.703755 C55.3123,181.434755 53.3453,179.782755 51.0393,179.782755 L47.8713,179.782755 C48.9263,172.166755 50.2063,164.791755 51.7763,157.878755" id="Fill-149" fill="#F79E3C"></path>
                <polygon id="Fill-151" fill="#00EBAA" points="55.1245 207.626755 67.7705 207.626755 68.8395 202.698755 54.0555 202.698755"></polygon>
                <path d="M12.0644,119.519755 C10.5454,118.159755 9.9184,113.361755 10.4654,111.397755 C11.0124,109.433755 12.1964,107.721755 13.1894,105.940755 C14.1834,104.160755 15.0164,102.160755 14.7554,100.138755 C14.5524,98.5687552 13.7114,97.1647552 12.8904,95.8117552 C12.2984,94.8377552 11.5664,93.7657552 10.4394,93.5927552 C9.2484,93.4097552 8.1174,94.4047552 7.7764,95.5607552 C7.4364,96.7167552 7.7074,97.9627552 8.1004,99.1027552 C8.4924,100.241755 9.0084,101.354755 9.1674,102.548755 C9.6184,105.936755 7.1544,109.086755 7.0714,112.503755 C6.9774,116.351755 8.4694,119.971755 10.5174,123.160755 C12.4454,126.164755 15.1604,128.598755 17.0624,131.573755 C18.3584,133.600755 19.1774,136.087755 18.6474,138.493755 C18.4174,139.540755 18.3864,140.649755 18.0444,141.674755 C17.9634,141.917755 16.1574,146.160755 15.9234,145.932755 C14.7804,144.814755 14.6784,141.540755 14.4664,139.955755 C14.2544,138.371755 14.3474,136.763755 14.2954,135.166755 C14.2594,134.048755 14.1464,132.909755 13.6904,131.888755 C13.2354,130.867755 12.3854,129.971755 11.2994,129.703755 C9.5144,129.263755 7.6664,130.724755 7.1664,132.494755 C6.6674,134.263755 7.2234,136.172755 8.0884,137.795755 C10.1204,141.611755 13.3914,145.396755 11.5344,150.053755 C10.7674,151.978755 9.1604,153.440755 8.4864,155.411755 C7.7324,157.620755 7.8994,160.113755 8.4554,162.342755 C9.1084,164.956755 10.3014,167.398755 11.3224,169.891755 C12.5064,172.784755 13.5034,175.825755 14.2284,178.864755 L19.1864,178.864755 C19.2234,175.386755 20.3704,171.927755 22.4204,169.117755 C22.8574,168.518755 23.3504,167.912755 23.4664,167.180755 C23.5824,166.448755 23.1294,165.565755 22.3884,165.533755 C21.8874,165.511755 21.4554,165.870755 21.1154,166.240755 C19.9484,167.511755 19.2254,169.182755 19.0964,170.903755 C18.9894,172.335755 19.1844,174.025755 18.0914,174.956755 C16.3394,172.393755 16.2794,168.879755 17.6004,166.069755 C18.4454,164.270755 19.7814,162.755755 21.0804,161.250755 C22.3784,159.744755 23.6774,158.188755 24.4264,156.346755 C25.1754,154.504755 25.3004,152.303755 24.2824,150.595755 C23.7414,149.686755 22.7534,148.919755 21.7084,149.080755 C20.7634,149.225755 20.0694,150.094755 19.7984,151.010755 C19.5284,151.927755 19.5894,152.903755 19.5844,153.858755 C19.5594,158.184755 18.0724,162.488755 15.4224,165.907755 C15.5974,165.682755 13.9754,163.292755 13.8094,162.953755 C13.3244,161.963755 12.9924,160.921755 12.8814,159.819755 C12.5234,156.273755 14.5214,154.061755 16.6574,151.566755 C18.8784,148.971755 21.1284,145.776755 21.2534,142.253755 C21.3064,140.786755 21.1454,139.317755 21.2084,137.851755 C21.4014,133.343755 24.4144,130.127755 25.3724,125.869755 C25.8194,123.880755 25.7894,121.827755 24.8594,120.008755 C23.9674,118.263755 22.4984,116.261755 23.0494,114.192755 C23.3724,112.981755 24.3374,112.068755 25.0144,111.013755 C25.6924,109.959755 26.0344,108.438755 25.1624,107.539755 C24.5684,106.927755 23.5734,106.839755 22.7804,107.152755 C21.9864,107.465755 21.3684,108.111755 20.8764,108.807755 C18.9564,111.518755 18.6864,115.306755 20.2014,118.263755 C20.9524,119.729755 22.0994,120.992755 22.6524,122.545755 C23.2064,124.097755 22.9074,126.173755 21.4164,126.874755 C18.3994,124.303755 15.0344,121.473755 14.5904,117.267755 C13.9924,111.609755 18.7294,108.853755 21.1224,104.412755 C22.8574,101.192755 23.0014,97.3487552 22.6254,93.7097552 C22.4284,91.8067552 22.0934,89.8927552 21.3104,88.1467552 C20.5274,86.4007552 19.2574,84.8207552 17.5504,83.9557552 C16.4034,83.3747552 14.8844,83.1857552 13.9214,84.0377552 C13.2074,84.6677552 12.9944,85.7057552 13.0574,86.6567552 C13.2334,89.3077552 15.1294,91.4707552 16.3714,93.8197552 C17.7404,96.4067552 18.3114,99.4307552 17.9404,102.337755 C17.5464,105.425755 15.9064,107.672755 14.2534,110.209755 C12.7094,112.580755 11.2304,116.646755 12.0644,119.519755" id="Fill-153" fill="#E23365"></path>
                <path d="M1.42108547e-14,214.590755 L32.662,214.590755 C32.423,202.240755 31.073,190.092755 28.367,179.904755 C27.911,178.188755 26.358,176.995755 24.582,176.995755 L8.203,176.995755 C6.372,176.995755 4.789,178.266755 4.384,180.052755 C2.014,190.490755 0.678,202.600755 1.42108547e-14,214.590755" id="Fill-155" fill="#BD5174"></path>
                <path d="M4.3837,180.052955 C4.7897,178.266955 6.3717,176.995955 8.2037,176.995955 L24.5817,176.995955 C26.3577,176.995955 27.9117,178.188955 28.3667,179.904955 C29.4877,184.125955 30.3727,188.685955 31.0457,193.454955 L28.7757,193.454955 C27.3417,193.454955 26.1317,194.498955 25.8947,195.912955 C25.5207,198.140955 25.0157,200.279955 24.3467,202.306955 C23.9737,203.436955 22.9477,204.212955 21.7597,204.306955 C18.1617,204.589955 14.5627,204.590955 10.9637,204.311955 C9.7477,204.216955 8.7117,203.398955 8.3547,202.233955 C7.7117,200.138955 7.1977,198.010955 6.8017,195.852955 C6.5467,194.464955 5.3437,193.454955 3.9327,193.454955 L1.9947,193.454955 C2.6407,188.794955 3.4237,184.282955 4.3837,180.052955" id="Fill-157" fill="#F79E3C"></path>
                <polygon id="Fill-159" fill="#00EBAA" points="6.4322 210.490155 14.1692 210.490155 14.8232 207.475155 5.7782 207.475155"></polygon>
            </g>
        </g>
    </g>
</svg>