<?xml version="1.0" encoding="UTF-8"?>
<svg width="27px" height="40px" viewBox="0 0 27 40" version="1.1" xmlns="http://www.w3.org/2000/svg" xmlns:xlink="http://www.w3.org/1999/xlink">
    <!-- Generator: Sketch 53.1 (72631) - https://sketchapp.com -->
    <title>Group 39</title>
    <desc>Created with Sketch.</desc>
    <g id="Page-1" stroke="none" stroke-width="1" fill="none" fill-rule="evenodd">
        <g id="Group-39" transform="translate(0.697640, 0.101648)">
            <path d="M0.237959558,15.400652 C0.237959558,15.400652 11.2509596,9.78365199 24.5309596,13.967652 C18.4949596,17.181652 7.31595956,18.129652 0.237959558,15.400652" id="Fill-772" fill="#F4AE5B"></path>
            <path d="M25.4430596,27.456352 C25.5640596,25.179352 25.3710596,22.878352 25.1620596,20.612352 C24.9590596,18.408352 24.8660596,16.154352 24.5310596,13.968352 C23.2270596,14.628352 21.8610596,15.162352 20.4610596,15.579352 C17.2910596,16.524352 13.9300596,16.864352 10.6360596,16.864352 C7.12305956,16.865352 3.59205956,16.485352 0.238059558,15.400352 C-0.0669404418,16.733352 0.0660595582,18.093352 0.0240595582,19.443352 C-0.0299404418,21.161352 0.0170595582,22.909352 0.0660595582,24.614352 C0.116059558,26.388352 0.339059558,28.184352 0.783059558,29.902352 C1.61505956,33.122352 3.44305956,36.226352 6.33605956,37.866352 C7.74205956,38.664352 9.33705956,39.083352 10.9400596,39.295352 C13.5470596,39.641352 16.2620596,39.444352 18.6960596,38.444352 C21.1290596,37.445352 23.2570596,35.598352 24.3370596,33.199352 C25.1410596,31.411352 25.3390596,29.414352 25.4430596,27.456352" id="Fill-774" fill="#F6A821"></path>
            <path d="M22.4996596,30.552052 C21.4356596,29.578052 20.3616596,28.613052 19.2826596,27.655052 C19.9516596,26.403052 20.6286596,25.156052 21.3146596,23.913052 C22.3946596,24.875052 23.4676596,25.843052 24.5326596,26.819052 C23.8466596,28.058052 23.1706596,29.303052 22.4996596,30.552052 M20.3986596,34.529052 C20.3626596,34.597052 20.3286596,34.666052 20.2936596,34.735052 C19.2286596,33.765052 18.1596596,32.802052 17.0816596,31.848052 C17.1716596,31.673052 17.2606596,31.496052 17.3516596,31.321052 C17.9146596,30.230052 18.4876596,29.145052 19.0646596,28.062052 C20.1436596,29.021052 21.2156596,29.987052 22.2806596,30.960052 C21.6466596,32.146052 21.0186596,33.334052 20.3986596,34.529052 M16.7346596,31.540052 C15.6596596,30.592052 14.5766596,29.654052 13.4886596,28.720052 C13.6316596,28.443052 13.7716596,28.163052 13.9156596,27.886052 C14.4286596,26.894052 14.9476596,25.906052 15.4726596,24.920052 C16.5626596,25.858052 17.6456596,26.802052 18.7226596,27.756052 C18.1296596,28.865052 17.5416596,29.977052 16.9636596,31.094052 C16.8866596,31.242052 16.8116596,31.392052 16.7346596,31.540052 M14.5876596,35.786052 C13.5126596,34.841052 12.4306596,33.903052 11.3436596,32.972052 C11.9786596,31.687052 12.6266596,30.407052 13.2786596,29.130052 C14.3666596,30.064052 15.4496596,31.003052 16.5236596,31.952052 C15.8686596,33.226052 15.2236596,34.503052 14.5876596,35.786052 M10.9916596,32.671052 C10.8296596,32.532052 10.6696596,32.392052 10.5076596,32.255052 C9.58365956,31.469052 8.65365956,30.691052 7.72065956,29.917052 C8.35465956,28.629052 9.00165956,27.346052 9.65365956,26.066052 C10.5386596,26.802052 11.4216596,27.541052 12.2986596,28.287052 C12.5096596,28.467052 12.7186596,28.649052 12.9286596,28.829052 C12.2746596,30.105052 11.6276596,31.385052 10.9916596,32.671052 M8.90765956,36.975052 C8.81365956,36.895052 8.72165956,36.814052 8.62765956,36.735052 C7.63865956,35.892052 6.64065956,35.059052 5.63965956,34.231052 C6.25665956,32.927052 6.88165956,31.628052 7.51765956,30.334052 C8.48865956,31.139052 9.45665956,31.949052 10.4186596,32.767052 C10.5426596,32.872052 10.6646596,32.979052 10.7886596,33.085052 C10.1516596,34.377052 9.52665956,35.674052 8.90765956,36.975052 M5.28265956,33.936052 C4.18965956,33.034052 3.09365956,32.137052 1.98765956,31.251052 C2.60365956,29.944052 3.22865956,28.643052 3.86365956,27.346052 C4.96965956,28.236052 6.06765956,29.135052 7.16265956,30.040052 C6.52665956,31.335052 5.90065956,32.634052 5.28265956,33.936052 M0.376659558,24.016052 C1.00965956,22.720052 1.64865956,21.427052 2.30065956,20.140052 C3.41765956,21.013052 4.53065956,21.892052 5.63665956,22.781052 C4.98465956,24.063052 4.34265956,25.351052 3.70865956,26.643052 C2.60365956,25.759052 1.49265956,24.885052 0.376659558,24.016052 M5.99365956,23.070052 C7.10265956,23.963052 8.20365956,24.865052 9.29965956,25.773052 C8.64565956,27.052052 8.00065956,28.335052 7.36565956,29.624052 C6.27065956,28.719052 5.17265956,27.821052 4.06565956,26.931052 C4.69965956,25.640052 5.34265956,24.353052 5.99365956,23.070052 M7.04365956,21.017052 C7.41965956,20.289052 7.80065956,19.565052 8.18265956,18.841052 C9.29165956,19.737052 10.3956596,20.641052 11.4926596,21.553052 C11.0216596,22.441052 10.5546596,23.332052 10.0916596,24.225052 C9.89565956,24.603052 9.70365956,24.983052 9.50965956,25.362052 C8.41365956,24.454052 7.31165956,23.553052 6.20365956,22.660052 C6.48265956,22.112052 6.76165956,21.563052 7.04365956,21.017052 M11.8446596,21.844052 C12.6256596,22.494052 13.4026596,23.149052 14.1776596,23.807052 C14.4946596,24.077052 14.8096596,24.350052 15.1256596,24.621052 C14.5876596,25.632052 14.0536596,26.643052 13.5266596,27.659052 C13.3956596,27.912052 13.2686596,28.166052 13.1386596,28.420052 C12.8876596,28.205052 12.6386596,27.989052 12.3866596,27.775052 C11.5506596,27.063052 10.7086596,26.358052 9.86365956,25.655052 C10.0686596,25.254052 10.2726596,24.852052 10.4786596,24.451052 C10.9306596,23.580052 11.3856596,22.710052 11.8446596,21.844052 M14.0976596,17.677052 C14.7526596,18.224052 15.4056596,18.774052 16.0576596,19.327052 C16.4996596,19.704052 16.9386596,20.084052 17.3796596,20.464052 C16.6906596,21.710052 16.0126596,22.962052 15.3416596,24.218052 C14.9826596,23.910052 14.6256596,23.601052 14.2666596,23.295052 C13.5346596,22.672052 12.7996596,22.053052 12.0616596,21.438052 C12.7306596,20.179052 13.4096596,18.926052 14.0976596,17.677052 M17.7256596,20.760052 C18.8146596,21.702052 19.8976596,22.652052 20.9746596,23.609052 C20.2866596,24.850052 19.6096596,26.098052 18.9396596,27.349052 C17.8626596,26.397052 16.7776596,25.453052 15.6886596,24.515052 C16.3586596,23.259052 17.0366596,22.008052 17.7256596,20.760052 M20.0346596,16.651052 C21.1256596,17.596052 22.2066596,18.552052 23.2836596,19.513052 C22.5806596,20.739052 21.8836596,21.970052 21.1966596,23.206052 C20.1196596,22.250052 19.0356596,21.301052 17.9446596,20.359052 C18.6326596,19.118052 19.3306596,17.883052 20.0346596,16.651052 M25.0956596,26.727052 C25.2216596,26.501052 25.3516596,26.278052 25.4786596,26.052052 C25.4786596,25.756052 25.4756596,25.459052 25.4676596,25.163052 C25.2316596,25.581052 24.9916596,25.997052 24.7586596,26.417052 C23.6926596,25.439052 22.6176596,24.472052 21.5376596,23.510052 C22.2246596,22.274052 22.9216596,21.044052 23.6246596,19.817052 C24.1586596,20.296052 24.6886596,20.780052 25.2206596,21.261052 C25.2016596,21.045052 25.1826596,20.828052 25.1616596,20.613052 C25.1616596,20.609052 25.1616596,20.606052 25.1606596,20.602052 C24.7246596,20.208052 24.2916596,19.811052 23.8536596,19.419052 C24.2046596,18.808052 24.5646596,18.204052 24.9206596,17.596052 C24.8996596,17.337052 24.8786596,17.078052 24.8556596,16.819052 C24.4066596,17.584052 23.9536596,18.346052 23.5126596,19.114052 C22.4346596,18.155052 21.3536596,17.200052 20.2626596,16.255052 C20.4066596,16.003052 20.5576596,15.753052 20.7026596,15.501052 C20.6216596,15.526052 20.5416596,15.555052 20.4606596,15.579052 C20.3336596,15.617052 20.2036596,15.648052 20.0756596,15.684052 C20.0226596,15.776052 19.9696596,15.867052 19.9166596,15.959052 C19.8496596,15.900052 19.7796596,15.842052 19.7126596,15.783052 C19.5376596,15.830052 19.3636596,15.880052 19.1876596,15.923052 C19.3546596,16.067052 19.5226596,16.210052 19.6896596,16.354052 C18.9846596,17.586052 18.2866596,18.821052 17.5996596,20.063052 C17.1146596,19.646052 16.6326596,19.229052 16.1456596,18.815052 C15.5386596,18.299052 14.9286596,17.786052 14.3166596,17.275052 C14.4286596,17.074052 14.5426596,16.876052 14.6536596,16.676052 C14.4746596,16.693052 14.2946596,16.710052 14.1136596,16.724052 C14.0656596,16.810052 14.0176596,16.896052 13.9696596,16.982052 C13.8776596,16.906052 13.7836596,16.831052 13.6916596,16.755052 C13.4746596,16.770052 13.2556596,16.788052 13.0366596,16.800052 C13.2726596,16.995052 13.5136596,17.187052 13.7486596,17.384052 C13.0616596,18.634052 12.3806596,19.888052 11.7106596,21.148052 C10.6116596,20.235052 9.50665956,19.331052 8.39565956,18.434052 C8.67765956,17.901052 8.96765956,17.374052 9.25365956,16.844052 C9.08865956,16.839052 8.92365956,16.829052 8.75765956,16.822052 C8.52065956,17.264052 8.27665956,17.704052 8.04165956,18.147052 C7.40465956,17.635052 6.76265956,17.131052 6.12165956,16.624052 C5.83865956,16.593052 5.55565956,16.562052 5.27165956,16.524052 C6.12665956,17.197052 6.98065956,17.871052 7.82765956,18.553052 C7.43565956,19.298052 7.04265956,20.043052 6.65565956,20.790052 C6.38365956,21.316052 6.11565956,21.844052 5.84665956,22.371052 C4.73965956,21.484052 3.62665956,20.605052 2.50865956,19.733052 C2.87265956,19.015052 3.23765956,18.297052 3.60765956,17.582052 C3.81765956,17.176052 4.03065956,16.771052 4.24365956,16.366052 C4.08965956,16.341052 3.93665956,16.312052 3.78165956,16.283052 C3.59465956,16.640052 3.40565956,16.997052 3.22065956,17.355052 C2.85865956,18.052052 2.50265956,18.752052 2.14665956,19.451052 C1.44565956,18.906052 0.735659558,18.370052 0.0296595582,17.831052 C0.0296595582,18.019052 0.0306595582,18.208052 0.0316595582,18.397052 C0.667659558,18.884052 1.30765956,19.366052 1.93865956,19.858052 C1.29665956,21.129052 0.665659558,22.405052 0.0406595582,23.684052 C0.0496595582,23.995052 0.0576595582,24.306052 0.0656595582,24.615052 C0.0656595582,24.627052 0.0666595582,24.640052 0.0666595582,24.653052 L0.175659558,24.428052 C1.29065956,25.299052 2.40165956,26.174052 3.50565956,27.058052 C2.87165956,28.356052 2.24365956,29.657052 1.62765956,30.964052 C1.39465956,30.777052 1.15765956,30.595052 0.924659558,30.409052 C0.999659558,30.667052 1.08065956,30.923052 1.16865956,31.177052 C1.25565956,31.246052 1.34465956,31.314052 1.43165956,31.384052 C1.39565956,31.459052 1.36165956,31.535052 1.32665956,31.612052 C1.39865956,31.802052 1.47665956,31.991052 1.55565956,32.179052 C1.63465956,32.010052 1.71065956,31.838052 1.78965956,31.669052 C2.89565956,32.556052 3.99065956,33.453052 5.08365956,34.355052 C5.05465956,34.416052 5.02465956,34.477052 4.99665956,34.538052 C4.73165956,35.099052 4.47465956,35.666052 4.21965956,36.234052 C4.32965956,36.345052 4.44365956,36.454052 4.55965956,36.560052 C4.78865956,36.051052 5.01965956,35.543052 5.25565956,35.038052 C5.31665956,34.908052 5.37965956,34.780052 5.43965956,34.650052 C6.47865956,35.510052 7.51265956,36.374052 8.53865956,37.247052 C8.59665956,37.295052 8.65165956,37.344052 8.70865956,37.393052 C8.61665956,37.586052 8.52365956,37.779052 8.43265956,37.972052 C8.32565956,38.199052 8.22265956,38.427052 8.11765956,38.655052 C8.25965956,38.703052 8.40065956,38.751052 8.54465956,38.794052 C8.59365956,38.687052 8.64165956,38.579052 8.69165956,38.473052 C8.81265956,38.213052 8.93765956,37.955052 9.06165956,37.696052 C9.67765956,38.222052 10.2866596,38.757052 10.8976596,39.289052 C10.9126596,39.291052 10.9266596,39.294052 10.9396596,39.295052 C11.1866596,39.328052 11.4356596,39.354052 11.6846596,39.377052 C10.8786596,38.675052 10.0726596,37.972052 9.26065956,37.277052 C9.87765956,35.976052 10.5026596,34.678052 11.1396596,33.386052 C12.2266596,34.317052 13.3076596,35.255052 14.3806596,36.201052 C13.8486596,37.278052 13.3276596,38.362052 12.8086596,39.445052 C12.9736596,39.449052 13.1386596,39.452052 13.3036596,39.452052 C13.7746596,38.469052 14.2456596,37.485052 14.7286596,36.507052 C15.6226596,37.297052 16.5066596,38.096052 17.3906596,38.897052 C17.5586596,38.848052 17.7256596,38.797052 17.8906596,38.741052 C16.9106596,37.853052 15.9286596,36.967052 14.9376596,36.092052 C15.5726596,34.810052 16.2176596,33.533052 16.8706596,32.260052 C17.9476596,33.216052 19.0176596,34.179052 20.0816596,35.149052 C19.4946596,36.288052 18.9176596,37.433052 18.3456596,38.580052 C18.4626596,38.536052 18.5796596,38.492052 18.6956596,38.445052 C18.7916596,38.406052 18.8856596,38.363052 18.9806596,38.321052 C19.4596596,37.366052 19.9376596,36.411052 20.4256596,35.462052 C20.5676596,35.592052 20.7126596,35.721052 20.8546596,35.851052 C21.1366596,36.110052 21.4156596,36.372052 21.6936596,36.634052 C21.8096596,36.537052 21.9226596,36.439052 22.0336596,36.338052 C21.7476596,36.068052 21.4616596,35.799052 21.1726596,35.533052 C20.9946596,35.371052 20.8146596,35.210052 20.6376596,35.047052 C20.6876596,34.950052 20.7366596,34.852052 20.7866596,34.755052 C21.3906596,33.589052 22.0036596,32.428052 22.6216596,31.270052 C22.6586596,31.304052 22.6966596,31.338052 22.7336596,31.371052 C23.3056596,31.895052 23.8686596,32.429052 24.4306596,32.967052 C24.4916596,32.819052 24.5566596,32.671052 24.6106596,32.520052 C24.0946596,32.026052 23.5756596,31.535052 23.0516596,31.054052 C22.9816596,30.989052 22.9106596,30.926052 22.8406596,30.862052 C23.5096596,29.614052 24.1846596,28.369052 24.8706596,27.131052 C25.0586596,27.305052 25.2436596,27.482052 25.4316596,27.657052 C25.4356596,27.590052 25.4396596,27.523052 25.4426596,27.456052 C25.4496596,27.326052 25.4526596,27.196052 25.4576596,27.066052 C25.3366596,26.953052 25.2176596,26.839052 25.0956596,26.727052" id="Fill-776" fill="#CA850E"></path>
            <path d="M15.7799596,14.379152 C15.7559596,14.088152 14.8359596,13.915152 13.5599596,13.921152 L13.2439596,15.259152 C14.7239596,15.063152 15.8059596,14.701152 15.7799596,14.379152" id="Fill-778" fill="#C1842D"></path>
            <path d="M8.98895956,14.943652 C9.01195956,15.224652 9.87395956,15.395652 11.0839596,15.401652 C10.9499596,15.000652 10.8119596,14.601652 10.6769596,14.201652 C9.64995956,14.404652 8.96795956,14.686652 8.98895956,14.943652" id="Fill-780" fill="#C1842D"></path>
            <path d="M10.9967596,14.143352 C11.1377596,14.561352 11.2807596,14.979352 11.4217596,15.398352 C11.5747596,15.395352 11.7317596,15.390352 11.8937596,15.382352 L12.2257596,13.985352 C11.7887596,14.024352 11.3747596,14.079352 10.9967596,14.143352" id="Fill-782" fill="#C1842D"></path>
            <path d="M23.9576596,2.14085199 L16.2186596,0.0228519874 C16.0506596,-0.0231480126 15.8706596,0.000851987351 15.7216596,0.0898519874 C15.5716596,0.178851987 15.4646596,0.324851987 15.4246596,0.493851987 L12.2256596,13.985852 L11.8946596,15.381852 C12.0726596,15.372852 12.2546596,15.361852 12.4406596,15.346852 C12.7186596,15.323852 12.9856596,15.293852 13.2436596,15.259852 L13.5606596,13.920852 L16.5206596,1.43685199 L23.6186596,3.37885199 C23.9606596,3.47385199 24.3136596,3.27185199 24.4076596,2.92985199 C24.5016596,2.58785199 24.3006596,2.23485199 23.9576596,2.14085199" id="Fill-784" fill="#1D9AB8"></path>
            <path d="M10.9967596,14.143352 C9.47575956,9.62735199 7.91275956,5.12635199 6.29975956,0.643351987 C6.22975956,0.449351987 5.91975956,0.533351987 5.98975956,0.728351987 C7.60075956,5.20335199 9.15975956,9.69535199 10.6777596,14.201352 C10.8117596,14.601352 10.9497596,15.000352 11.0837596,15.401352 C11.1927596,15.401352 11.3067596,15.400352 11.4217596,15.398352 C11.2807596,14.979352 11.1377596,14.561352 10.9967596,14.143352" id="Fill-786" fill="#7A2B43"></path>
            <path d="M6.25655956,0.992451987 C5.13655956,3.51245199 4.35555956,5.95245199 3.23555956,8.47245199 C4.31555956,8.17045199 5.17055956,8.37645199 6.16255956,8.90045199 C6.98255956,7.78745199 8.52455956,7.26645199 9.85055956,7.65545199 C10.1945596,6.58545199 11.3405596,5.83445199 12.4585596,5.94645199 C12.6225596,5.20245199 13.3515596,4.24145199 13.9455596,3.76645199 C11.5035596,2.82045199 8.69855956,1.93845199 6.25655956,0.992451987" id="Fill-788" fill="#EF4379"></path>
            <polygon id="Fill-790" fill="#7A2B43" points="6.17835956 8.90015199 6.14635956 8.90015199 6.24035956 0.946151987 9.86435956 7.64715199 9.83535956 7.66215199 6.27135956 1.07015199"></polygon>
            <polygon id="Fill-792" fill="#7A2B43" points="12.3727596 5.95335199 6.24575956 1.02035199 6.26675956 0.995351987 12.3927596 5.92835199"></polygon>
        </g>
    </g>
</svg>