<?xml version="1.0" encoding="UTF-8"?>
<svg width="39px" height="43px" viewBox="0 0 39 43" version="1.1" xmlns="http://www.w3.org/2000/svg" xmlns:xlink="http://www.w3.org/1999/xlink">
    <!-- Generator: Sketch 53.1 (72631) - https://sketchapp.com -->
    <title>Group 44</title>
    <desc>Created with Sketch.</desc>
    <g id="Page-1" stroke="none" stroke-width="1" fill="none" fill-rule="evenodd">
        <g id="Group-44" transform="translate(0.833200, 0.444500)">
            <path d="M12.535,18.0949 C12.003,17.5439 11.375,17.0859 10.68,16.7439 C9.788,16.3049 8.783,16.0519 7.723,16.0519 C4.014,16.0519 1.012,19.0529 1.012,22.7629 C1.012,24.0059 1.354,25.1629 1.942,26.1599 C2.409,26.9559 3.039,27.6439 3.78,28.1849 C8.275,26.7619 12.583,22.9659 12.535,18.0949" id="Fill-832" fill="#FFCE36"></path>
            <path d="M12.535,18.0949 C12.583,22.9659 8.275,26.7619 3.78,28.1849 C4.886,28.9949 6.244,29.4729 7.723,29.4729 C11.429,29.4729 14.434,26.4709 14.434,22.7629 C14.434,20.9459 13.711,19.3029 12.535,18.0949" id="Fill-834" fill="#E8BD3B"></path>
            <path d="M33.4237,18.402 C32.5307,17.962 31.5277,17.709 30.4677,17.709 C26.7587,17.709 23.7537,20.713 23.7537,24.421 C23.7537,25.662 24.0987,26.819 24.6847,27.816 C29.0967,26.313 33.0357,23.245 33.4237,18.402" id="Fill-836" fill="#FFCE36"></path>
            <path d="M33.4237,18.402 C33.0357,23.245 29.0967,26.313 24.6847,27.816 C25.8507,29.798 27.9997,31.131 30.4677,31.131 C34.1717,31.131 37.1777,28.127 37.1777,24.421 C37.1777,21.776 35.6467,19.498 33.4237,18.402" id="Fill-838" fill="#EFC237"></path>
            <path d="M15.2684,17.3957 C17.7164,15.5607 20.1644,11.7247 18.8724,8.2897 C18.6524,8.1457 18.4254,8.0087 18.1854,7.8917 C17.2924,7.4517 16.2904,7.1967 15.2274,7.1967 C11.5224,7.1967 8.5174,10.2037 8.5174,13.9097 C8.5174,15.1517 8.8604,16.3107 9.4484,17.3087 C9.8014,17.9097 10.2474,18.4487 10.7674,18.9127 C12.5224,19.0367 14.1324,18.5317 15.2684,17.3957" id="Fill-840" fill="#FFCE36"></path>
            <path d="M20.0399,9.2414 C19.6929,8.8814 19.2989,8.5644 18.8729,8.2894 C20.1649,11.7244 17.7169,15.5604 15.2689,17.3954 C14.1329,18.5324 12.5219,19.0364 10.7679,18.9124 C10.9339,19.0594 11.1069,19.2024 11.2869,19.3334 C12.3939,20.1414 13.7539,20.6224 15.2279,20.6224 C18.9359,20.6224 21.9389,17.6174 21.9389,13.9094 C21.9389,12.0944 21.2179,10.4494 20.0399,9.2414" id="Fill-842" fill="#E7BC36"></path>
            <path d="M21.5702,10.319 C19.0652,10.548 16.7202,9.507 14.8612,7.863 C14.9872,8.207 15.1412,8.537 15.3222,8.847 C15.7342,9.545 16.2862,10.147 16.9332,10.621 C17.9012,11.328 19.0912,11.75 20.3842,11.75 C23.1092,11.75 25.3952,9.89 26.0592,7.372 C24.8742,8.933 23.3782,10.094 21.5702,10.319" id="Fill-844" fill="#EFC237"></path>
            <path d="M21.5702,10.319 C23.3782,10.094 24.8742,8.933 26.0592,7.372 C26.1822,6.893 26.2582,6.394 26.2582,5.873 C26.2582,4.284 25.6252,2.843 24.5972,1.789 C24.1312,1.308 23.5812,0.907 22.9712,0.606 C22.1892,0.221 21.3142,1.10134124e-13 20.3842,1.10134124e-13 C17.1392,1.10134124e-13 14.5092,2.629 14.5092,5.873 C14.5092,6.573 14.6362,7.242 14.8612,7.863 C16.7202,9.507 19.0652,10.548 21.5702,10.319" id="Fill-846" fill="#FFCE36"></path>
            <path d="M37.9647,24.4948 L31.7197,24.4948 C29.4017,32.0518 24.5467,39.1758 16.8907,41.9698 L23.9277,41.9698 C31.7537,39.8638 37.5807,32.8928 37.9647,24.4948" id="Fill-848" fill="#E6E7E8"></path>
            <path d="M30.7528,13.9094 C30.5138,12.8914 30.0058,11.9764 29.3018,11.2504 C28.8498,10.7874 28.3168,10.3984 27.7298,10.1074 C26.9738,9.7354 26.1258,9.5224 25.2278,9.5224 C22.0908,9.5224 19.5488,12.0654 19.5488,15.2004 C19.5488,16.2514 19.8388,17.2314 20.3358,18.0754 C20.7308,18.7494 21.2638,19.3314 21.8928,19.7914 C21.9888,19.8634 22.0908,19.9284 22.1928,19.9944 C25.9358,19.4884 29.7518,17.4244 30.7528,13.9094" id="Fill-850" fill="#FFCE36"></path>
            <path d="M22.1932,19.9943 C23.0712,20.5533 24.1092,20.8793 25.2272,20.8793 C28.3632,20.8793 30.9072,18.3383 30.9072,15.2003 C30.9072,14.7563 30.8502,14.3253 30.7532,13.9093 C29.7522,17.4243 25.9352,19.4883 22.1932,19.9943" id="Fill-852" fill="#EFC237"></path>
            <path d="M23.1737,19.8264 C21.7087,20.1294 20.2167,20.1974 18.8727,20.0194 C20.2167,20.1974 21.7087,20.1294 23.1737,19.8264 C23.1417,19.6894 23.1167,19.5544 23.0777,19.4204 C22.3617,18.8774 21.5277,18.4644 20.5967,18.2404 C16.9917,17.3744 13.3677,19.5984 12.5057,23.2034 C12.2167,24.4094 12.2807,25.6174 12.6187,26.7244 C12.8887,27.6074 13.3417,28.4224 13.9357,29.1214 C14.0897,29.3054 14.2607,29.4774 14.4347,29.6414 C15.8727,29.6884 17.2607,29.3634 18.5787,28.7434 C22.3137,27.5664 24.0097,23.4954 23.1737,19.8264" id="Fill-854" fill="#FFCE36"></path>
            <path d="M24.8036,21.3488 C24.4506,20.7558 24.0016,20.2208 23.4796,19.7568 C23.3776,19.7818 23.2766,19.8028 23.1736,19.8268 C24.0096,23.4958 22.3136,27.5668 18.5786,28.7438 C17.2606,29.3638 15.8726,29.6878 14.4346,29.6418 C15.2576,30.4248 16.2856,31.0098 17.4676,31.2938 C21.0746,32.1578 24.6976,29.9358 25.5596,26.3298 C25.9836,24.5638 25.6646,22.7958 24.8036,21.3488" id="Fill-856" fill="#EFC237"></path>
            <path d="M23.3114,19.6042 C23.2344,19.5402 23.1564,19.4802 23.0784,19.4202 C23.1174,19.5542 23.1414,19.6892 23.1734,19.8262 C23.2764,19.8032 23.3774,19.7822 23.4794,19.7572 C23.4244,19.7052 23.3704,19.6522 23.3114,19.6042" id="Fill-858" fill="#E7BC36"></path>
            <path d="M18.9227,20.0236 C18.9077,20.0216 18.8907,20.0216 18.8727,20.0196 C18.8907,20.0216 18.9077,20.0216 18.9227,20.0236 C18.6307,19.7836 18.2647,19.6356 17.8557,19.6356 C16.9217,19.6356 16.1627,20.3926 16.1627,21.3256 C16.1627,22.2606 16.9217,23.0186 17.8557,23.0186 C18.7897,23.0186 19.5487,22.2606 19.5487,21.3256 C19.5487,20.7996 19.3027,20.3326 18.9227,20.0236" id="Fill-860" fill="#EBC039"></path>
            <polygon id="Fill-862" fill="#AB8C23" points="17.1805 21.5349 17.0225 20.9429 17.3885 20.4509 18.0015 20.4269 18.3995 20.8909 18.2845 21.4939 17.7435 21.7819"></polygon>
            <path d="M17.8866,20.9919 C17.8256,21.1329 17.6626,21.1969 17.5216,21.1349 C17.3796,21.0729 17.3156,20.9099 17.3756,20.7709 C17.4396,20.6279 17.6026,20.5639 17.7436,20.6249 C17.8836,20.6879 17.9486,20.8499 17.8866,20.9919" id="Fill-864" fill="#6C5810"></path>
            <path d="M14.038,41.9694 L16.891,41.9694 C24.547,39.1754 29.402,32.0514 31.72,24.4944 L1.42108547e-14,24.4944 C0.382,32.8934 6.212,39.8644 14.038,41.9694" id="Fill-866" fill="#FFFFFF"></path>
            <path d="M9.5692,10.9953 C9.0132,12.1163 8.9502,13.2153 9.4232,13.4513 C9.8982,13.6833 10.7332,12.9623 11.2862,11.8393 C11.8372,10.7173 11.9022,9.6183 11.4282,9.3843 C10.9552,9.1513 10.1222,9.8723 9.5692,10.9953" id="Fill-868" fill="#EBC039"></path>
            <polygon id="Fill-870" fill="#AB8C23" points="9.7977 11.6862 9.7957 11.2362 10.0627 10.7922 10.3937 10.6862 10.5427 11.0012 10.3967 11.4982 10.0667 11.8042"></polygon>
            <path d="M10.2538,11.155 C10.1998,11.276 10.1058,11.349 10.0368,11.319 C9.9708,11.292 9.9588,11.17 10.0118,11.048 C10.0638,10.927 10.1598,10.853 10.2288,10.882 C10.2958,10.91 10.3068,11.034 10.2538,11.155" id="Fill-872" fill="#6C5810"></path>
        </g>
    </g>
</svg>