<?xml version="1.0" encoding="UTF-8"?>
<svg width="114px" height="167px" viewBox="0 0 114 167" version="1.1" xmlns="http://www.w3.org/2000/svg" xmlns:xlink="http://www.w3.org/1999/xlink">
    <!-- Generator: Sketch 53.1 (72631) - https://sketchapp.com -->
    <title>Group 11Chair</title>
    <desc>Created with Sketch.</desc>
    <defs>
        <polygon id="path-1" points="0.146 0.915 3.395 5.15 14.648 5.29 15.2 0.832"></polygon>
        <linearGradient x1="49.9959732%" y1="133.844206%" x2="49.9959732%" y2="-12.6913279%" id="linearGradient-3">
            <stop stop-color="#00EBAA" offset="0%"></stop>
            <stop stop-color="#14A1E8" offset="100%"></stop>
        </linearGradient>
        <polygon id="path-4" points="0.34 0.251 9.94 0.251 9.716 2.567 1.086 2.567"></polygon>
    </defs>
    <g id="Page-1" stroke="none" stroke-width="1" fill="none" fill-rule="evenodd">
        <g id="Desktop-HD" transform="translate(-847.000000, -284.000000)">
            <g id="Group-11" transform="translate(847.000000, 284.000000)">
                <polygon id="Fill-185" fill="#00EBAA" points="111.73506 76.3751912 78.3310598 76.3751912 75.4800598 70.8381912 113.69806 70.8381912"></polygon>
                <polygon id="Fill-187" fill="#00EBAA" points="111.73506 76.3751912 106.22406 76.3751912 103.21906 70.8381912 113.69806 70.8381912"></polygon>
                <polygon id="Fill-189" fill="#0E4361" points="71.9352598 76.3751912 103.60426 76.3751912 103.21926 79.0721912 72.1902598 80.2281912"></polygon>
                <path d="M99.4807598,99.6754912 C97.5817598,106.935491 94.0927598,112.687491 89.4957598,118.618491 L17.4707598,118.618491 C16.7457598,118.594491 15.9337598,118.559491 15.5937598,118.290491 C-8.82724024,85.2984912 -0.0612402377,25.2804912 11.5227598,2.38849123 C23.9287598,-0.746508766 36.8947598,-0.782508766 49.3377598,2.20449123 C65.5677598,26.3884912 74.1127598,55.2854912 73.2847598,84.3994912 C82.2437598,88.5764912 91.0117598,94.5784912 99.4807598,99.6754912" id="Fill-191" fill="#E23365"></path>
                <path d="M72.1826598,84.5093912 C54.3046598,83.6223912 36.5606598,83.3613912 18.8276598,85.7953912 C14.2436598,59.0533912 16.4976598,29.7313912 24.1956598,3.71439123 C32.0676598,2.17139123 40.3796598,1.69239123 48.0816598,3.93439123 C64.5386598,28.2193912 71.3036598,56.2163912 72.1826598,84.5093912" id="Fill-193" fill="#D8D8D8"></path>
                <path d="M30.0781598,73.2554912 C28.1381598,69.3864912 27.8761598,64.5124912 27.5731598,60.2674912 C27.1181598,53.8934912 26.7671598,47.4954912 26.4681598,41.1114912 C25.8921598,28.7924912 27.1481598,16.6794912 27.2251598,4.39849123 C26.5391598,4.50449123 25.8471598,4.61749123 25.1361598,4.75049123 C17.5371598,30.8214912 15.6551598,59.0464912 19.8141598,84.4564912 C28.6671598,83.2994912 38.1691598,82.7234912 48.7711598,82.6884912 C40.9521598,82.0794912 33.4671598,80.0134912 30.0781598,73.2554912" id="Fill-195" fill="#B86053" opacity="0.454450335"></path>
                <path d="M96.8138598,98.9947912 C88.9678598,93.4477912 76.8348598,86.6027912 72.1828598,84.5097912 C54.6928598,80.8217912 36.5858598,81.6227912 18.8078598,85.8067912 C25.4648598,90.3037912 46.0008598,97.1997912 53.4818598,98.6097912 L96.8138598,98.9947912 Z" id="Fill-197" fill="#D8D8D8"></path>
                <path d="M54.0798598,99.2906912 C54.8748598,105.572691 57.0678598,112.042691 60.0558598,118.618691 L89.4958598,118.618691 C94.3628598,112.667691 97.6378598,106.340691 99.4808598,99.6756912 L54.0798598,99.2906912 Z" id="Fill-199" fill="#C96576"></path>
                <path d="M13.0188598,89.5611912 L3.04485976,89.5611912 L2.84285976,88.6641912 L11.9678598,88.6641912 C9.70885976,74.3631912 8.65885976,59.0461912 8.84485976,43.1181912 L0.966859762,43.1181912 L1.07885976,42.1141912 L9.75285976,42.2221912 L9.74685976,42.6761912 C9.53385976,58.9071912 10.6068598,74.5071912 12.9358598,89.0421912 L13.0188598,89.5611912 Z" id="Fill-201" fill="#FFF7CC"></path>
                <path d="M2.74785976,89.0191912 L14.3758598,89.0191912 L14.2278598,88.0901912 C11.9028598,73.5791912 10.8338598,57.9991912 11.0448598,41.7841912 L11.0548598,40.9721912 L1.11885976,40.9721912 L1.11885976,42.5761912 L9.42985976,42.5761912 C9.26685976,58.2451912 10.2988598,73.3201912 12.4988598,87.4151912 L2.74785976,87.4151912 L2.74785976,89.0191912 Z" id="Fill-203" fill="#AB1535"></path>
                <polygon id="Fill-205" fill="#0E4361" points="60.2509598 147.905291 42.5289598 147.905291 42.0509598 137.072291 60.7289598 137.072291"></polygon>
                <path d="M62.2735598,138.641291 L40.5055598,138.641291 C38.6255598,132.154291 35.6835598,125.495291 31.9155598,118.619291 L70.8645598,118.619291 C67.0825598,125.495291 64.1635598,132.181291 62.2735598,138.641291" id="Fill-207" fill="#0E4361"></path>
                <path d="M62.2735598,146.060491 L40.5055598,146.060491 C38.6255598,152.547491 34.2805598,160.232491 28.8895598,166.082491 L73.8895598,166.082491 C68.9465598,161.129491 64.1635598,152.520491 62.2735598,146.060491" id="Fill-209" fill="#0E4361"></path>
                <polygon id="Fill-211" fill="#0E4361" points="68.9030598 122.322291 49.8100598 124.360291 48.8500598 138.641291 43.0720598 138.641291 39.0870598 123.898291 34.2350598 123.037291 31.9150598 118.619291 70.8640598 118.619291"></polygon>
                <polygon id="Fill-213" fill="#0E4361" points="44.5163598 146.060491 40.3323598 163.744491 35.2523598 166.082491 56.0213598 166.082491 52.2863598 164.864491 49.1483598 146.060491"></polygon>
                <polygon id="Fill-215" fill="#0E4361" points="60.6594598 138.641291 60.5344598 141.479291 48.8994598 142.489291 48.4014598 146.060291 45.6364598 146.060291 45.2634598 142.028291 42.2254598 141.036291 42.1204598 138.641291"></polygon>
                <g id="Group-220" transform="translate(10.097360, 103.965391)">
                    <mask id="mask-2" fill="white">
                        <use xlink:href="#path-1"></use>
                    </mask>
                    <g id="Clip-219"></g>
                    <polygon id="Fill-218" fill="url(#linearGradient-3)" mask="url(#mask-2)" points="0.146 0.915 3.395 5.15 14.648 5.29 15.2 0.832"></polygon>
                </g>
                <polygon id="Fill-221" fill="#A85A8D" points="10.2427598 104.880191 13.4927598 109.115191 11.8207598 105.632191 25.1997598 105.584191 25.2967598 104.797191"></polygon>
                <g id="Group-225" transform="translate(13.097360, 105.965391)">
                    <mask id="mask-5" fill="white">
                        <use xlink:href="#path-4"></use>
                    </mask>
                    <g id="Clip-224"></g>
                    <polygon id="Fill-223" mask="url(#mask-5)" points="0.34 0.251 1.086 2.567 9.716 2.567 9.94 0.251"></polygon>
                </g>
                <polygon id="Fill-226" fill="#00EBAA" points="46.7928598 76.3751912 13.3888598 76.3751912 10.5378598 70.8381912 48.7558598 70.8381912"></polygon>
                <polygon id="Fill-228" fill="#00EBAA" points="46.7928598 76.3751912 41.2818598 76.3751912 38.2768598 70.8381912 48.7558598 70.8381912"></polygon>
                <polygon id="Fill-230" fill="#0E4361" points="6.99305976 76.3751912 38.6620598 76.3751912 38.2770598 79.0721912 7.24805976 80.2281912"></polygon>
            </g>
        </g>
    </g>
</svg>