<?xml version="1.0" encoding="UTF-8"?>
<svg width="331px" height="70px" viewBox="0 0 331 70" version="1.1" xmlns="http://www.w3.org/2000/svg" xmlns:xlink="http://www.w3.org/1999/xlink">
    <!-- Generator: Sketch 53.1 (72631) - https://sketchapp.com -->
    <title>Group 18Table</title>
    <desc>Created with Sketch.</desc>
    <defs>
        <polygon id="path-1" points="0 0.5852 330.7058 0.5852 330.7058 25.7952 0 25.7952"></polygon>
    </defs>
    <g id="Page-1" stroke="none" stroke-width="1" fill="none" fill-rule="evenodd">
        <g id="Desktop-HD" transform="translate(-409.000000, -781.000000)">
            <g id="Group-18" transform="translate(409.000000, 780.413000)">
                <path d="M121.4152,70.4165 L79.6172,70.4165 L92.0922,64.3375 C94.7762,55.3985 96.7162,46.3965 95.9162,37.3105 L88.6262,19.4605 L112.4062,19.4605 L105.1162,37.3105 C104.4442,45.8445 106.5142,54.9015 108.9402,64.3375 L121.4152,70.4165 Z" id="Fill-96" fill="#0E4361"></path>
                <path d="M249.4224,70.4165 L207.6244,70.4165 L220.0994,64.3375 C222.7834,55.3985 224.7234,46.3965 223.9234,37.3105 L216.6334,19.4605 L240.4134,19.4605 L233.1234,37.3105 C232.4514,45.8445 234.5214,54.9015 236.9474,64.3375 L249.4224,70.4165 Z" id="Fill-98" fill="#0E4361"></path>
                <g id="Group-102">
                    <mask id="mask-2" fill="white">
                        <use xlink:href="#path-1"></use>
                    </mask>
                    <g id="Clip-101"></g>
                    <path d="M166.2078,0.5852 L164.4978,0.5852 L-0.0002,0.5852 C-0.0002,0.5852 6.8958,25.7952 63.4168,25.7952 L164.4978,25.7952 L166.2078,25.7952 L267.2888,25.7952 C323.8098,25.7952 330.7058,0.5852 330.7058,0.5852 L166.2078,0.5852 Z" id="Fill-100" fill="#EE7D61" mask="url(#mask-2)"></path>
                </g>
                <path d="M327.2281,6.6234 L298.2331,6.4594 C294.8251,9.0684 289.7851,11.5354 283.6651,13.9094 C262.4301,14.7444 240.0741,14.6624 216.8991,13.9094 C211.4571,11.9424 207.6581,8.9644 205.6171,6.4594 L3.0521,6.0764 C0.9441,4.2474 0.9281,2.4544 0.0001,0.5854 L330.7871,0.6784 C329.9551,3.1104 329.5321,4.7694 327.2281,6.6234" id="Fill-103" fill="#330A32"></path>
                <polygon id="Fill-105" fill="#00EBAA" points="217.4523 10.4524 286.4193 10.4524 289.1723 7.3534 214.6993 7.3534"></polygon>
            </g>
        </g>
    </g>
</svg>