<?xml version="1.0" encoding="UTF-8"?>
<svg width="376px" height="64px" viewBox="0 0 376 64" version="1.1" xmlns="http://www.w3.org/2000/svg" xmlns:xlink="http://www.w3.org/1999/xlink">
    <!-- Generator: Sketch 53.1 (72631) - https://sketchapp.com -->
    <title>Group 17Floor</title>
    <desc>Created with Sketch.</desc>
    <g id="Page-1" stroke="none" stroke-width="1" fill="none" fill-rule="evenodd">
        <g id="Desktop-HD" transform="translate(-1019.000000, -1043.000000)">
            <g id="Group-17" transform="translate(1019.000000, 1043.000000)">
                <polygon id="Fill-107" fill="#9E3F61" points="0 63.969 375.972 63.969 375.972 2.48689958e-14 0 2.48689958e-14"></polygon>
                <path d="M112.183,16.693 C112.183,22.979 144.758,28.075 184.94,28.075 C225.123,28.075 257.698,22.979 257.698,16.693 C257.698,10.407 225.123,5.311 184.94,5.311 C144.758,5.311 112.183,10.407 112.183,16.693 M184.94,4.887 C226.602,4.887 260.375,10.447 260.375,17.305 C260.375,24.163 226.602,29.723 184.94,29.723 C143.279,29.723 109.505,24.163 109.505,17.305 C109.505,10.447 143.279,4.887 184.94,4.887" id="Fill-109" fill="#823353"></path>
                <polygon id="Fill-110" fill="#823353" points="259.2794 17.9881 374.7124 32.9091 374.7124 35.7061 257.8674 18.2411"></polygon>
                <polygon id="Fill-111" fill="#823353" points="232.6124 26.0338 269.4234 40.9478 207.0864 46.4418 226.2374 63.5538 230.4304 63.5538 213.9514 48.4828 276.0034 41.8898 233.6984 25.7988"></polygon>
                <polygon id="Fill-112" fill="#823353" points="148.9915 28.0747 92.5715 43.3807 61.2025 23.9537 0.7655 25.7197 0.7655 28.7557 61.5205 24.9807 93.0115 46.1287 150.8295 28.3837"></polygon>
                <polygon id="Fill-114" fill="#823353" points="261.4851 1.3447 240.6571 8.9337 239.9881 8.9337 259.8051 1.3777"></polygon>
            </g>
        </g>
    </g>
</svg>