<?xml version="1.0" encoding="UTF-8"?>
<svg width="322px" height="52px" viewBox="0 0 322 52" version="1.1" xmlns="http://www.w3.org/2000/svg" xmlns:xlink="http://www.w3.org/1999/xlink">
    <!-- Generator: Sketch 53.1 (72631) - https://sketchapp.com -->
    <title>Group 15Rug</title>
    <desc>Created with Sketch.</desc>
    <g id="Page-1" stroke="none" stroke-width="1" fill="none" fill-rule="evenodd">
        <g id="Desktop-HD" transform="translate(-815.000000, -781.000000)">
            <g id="Group-15" transform="translate(815.751200, 781.849200)">
                <path d="M320.811,25.295 C320.811,39.265 248.995,50.59 160.405,50.59 C71.816,50.59 -2.84217094e-14,39.265 -2.84217094e-14,25.295 C-2.84217094e-14,11.325 71.816,-5.68434189e-14 160.405,-5.68434189e-14 C248.995,-5.68434189e-14 320.811,11.325 320.811,25.295" id="Fill-6" fill="#0E4361"></path>
                <path d="M293.6521,20.7362 C293.6521,29.5872 233.9951,36.7632 160.4051,36.7632 C86.8151,36.7632 27.1581,29.5872 27.1581,20.7362 C27.1581,11.8852 86.8151,4.7092 160.4051,4.7092 C233.9951,4.7092 293.6521,11.8852 293.6521,20.7362" id="Fill-8" fill="#146875"></path>
                <path d="M286.1799,22.0267 C286.1799,27.5037 229.8689,31.9437 160.4049,31.9437 C90.9419,31.9437 34.6309,27.5037 34.6309,22.0267 C34.6309,16.5497 90.9419,12.1097 160.4049,12.1097 C229.8689,12.1097 286.1799,16.5497 286.1799,22.0267" id="Fill-10" fill="#6CB7D8"></path>
            </g>
        </g>
    </g>
</svg>