<?xml version="1.0" encoding="UTF-8"?>
<svg width="166px" height="160px" viewBox="0 0 166 160" version="1.1" xmlns="http://www.w3.org/2000/svg" xmlns:xlink="http://www.w3.org/1999/xlink">
    <!-- Generator: Sketch 53.1 (72631) - https://sketchapp.com -->
    <title>Group 58Shelf</title>
    <desc>Created with Sketch.</desc>
    <defs>
        <polygon id="path-1" points="0 0.5426 161.95369 0.5426 161.95369 159.9996 0 159.9996"></polygon>
    </defs>
    <g id="Page-1" stroke="none" stroke-width="1" fill="none" fill-rule="evenodd">
        <g id="Desktop-HD" transform="translate(-329.000000, -140.000000)">
            <g id="Group-58" transform="translate(329.000000, 139.000000)">
                <path d="M164.614,6.1136 C162.782,2.9116 159.484,1.0006 155.795,1.0006 L51.194,1.0006 C48.092,1.0006 45.204,2.3766 43.27,4.7756 C28.669,22.8766 19.767,42.1316 16.055,63.6376 L14.179,70.0706 C11.213,70.0706 8.402,71.3606 6.469,73.6116 C4.526,75.8716 3.668,78.8596 4.116,81.8116 C6.043,94.5156 11.912,106.6826 21.56,117.9756 C23.481,120.2256 26.297,121.5156 29.285,121.5156 L47.23,121.5156 L55.741,121.5156 C56.352,123.2186 56.981,124.9266 57.659,126.6446 C59.175,130.4866 62.978,133.0686 67.125,133.0686 L74.919,133.0686 L76.159,141.0116 L77.995,153.4656 C78.579,157.4516 82.058,160.4576 86.088,160.4576 L105.133,160.4576 C109.158,160.4576 112.639,157.4546 113.226,153.4696 L115.061,141.0116 L116.629,133.0686 L117.673,133.0686 C122.693,133.0686 126.914,129.4626 127.708,124.4966 C129.92,110.6776 132.853,96.6526 136.425,82.8146 L141.173,68.3666 C146.522,51.1246 154.387,33.6176 164.551,16.3326 C166.399,13.1916 166.422,9.2746 164.614,6.1136" id="Fill-1" fill="#330A32"></path>
                <g id="Group-5" transform="translate(0.000000, 0.458000)">
                    <mask id="mask-2" fill="white">
                        <use xlink:href="#path-1"></use>
                    </mask>
                    <g id="Clip-4"></g>
                    <path d="M160.614,5.6556 C158.782,2.4536 155.484,0.5426 151.795,0.5426 L47.194,0.5426 C44.092,0.5426 41.204,1.9186 39.27,4.3176 C24.669,22.4186 15.767,41.6736 12.055,63.1796 L10.179,69.6126 C7.213,69.6126 4.402,70.9026 2.469,73.1536 C0.526,75.4136 -0.332,78.4016 0.116,81.3536 C2.043,94.0576 7.912,106.2246 17.56,117.5176 C19.481,119.7676 22.297,121.0576 25.285,121.0576 L43.23,121.0576 L51.741,121.0576 C52.352,122.7606 52.981,124.4686 53.659,126.1866 C55.175,130.0286 58.978,132.6106 63.125,132.6106 L70.919,132.6106 L72.159,140.5536 L73.995,153.0076 C74.579,156.9936 78.058,159.9996 82.088,159.9996 L101.133,159.9996 C105.158,159.9996 108.639,156.9966 109.226,153.0116 L111.061,140.5536 L112.629,132.6106 L113.673,132.6106 C118.693,132.6106 122.914,129.0046 123.708,124.0386 C125.921,110.2196 128.853,96.1946 132.425,82.3566 L137.173,67.9086 C142.522,50.6666 150.387,33.1596 160.551,15.8746 C162.399,12.7336 162.422,8.8166 160.614,5.6556" id="Fill-3" fill="#595BD9" mask="url(#mask-2)"></path>
                </g>
                <path d="M122.4741,75.668 L52.4001,75.668 C49.7101,75.668 47.5951,77.973 47.8281,80.653 C49.0571,94.783 52.7631,109.39 58.7541,124.59 C59.4411,126.332 61.1421,127.471 63.0141,127.471 L113.5621,127.471 C115.8131,127.471 117.7161,125.833 118.0711,123.611 C120.3231,109.545 123.2641,95.479 126.8951,81.414 C127.6451,78.506 125.4771,75.668 122.4741,75.668 M36.9321,75.668 L10.0681,75.668 C7.2501,75.668 5.1161,78.187 5.5391,80.972 C7.2871,92.494 12.5551,103.63 21.7051,114.341 C22.5671,115.351 23.8471,115.919 25.1741,115.919 L43.1191,115.919 C46.2291,115.919 48.4051,112.889 47.4621,109.926 C44.2121,99.702 42.3261,89.623 41.4831,79.827 C41.2801,77.469 39.2991,75.668 36.9321,75.668 M127.3491,69.952 L21.9831,69.952 C19.1441,69.952 16.9771,67.388 17.4601,64.59 C21.0941,43.531 29.8591,25.22 43.5151,8.29 C44.3821,7.215 45.7021,6.598 47.0821,6.598 L151.6831,6.598 C155.2241,6.598 157.4091,10.445 155.6141,13.497 C145.1841,31.235 137.2181,48.972 131.7171,66.71 C131.1201,68.633 129.3631,69.952 127.3491,69.952" id="Fill-6" fill="#00B8C4"></path>
                <path d="M155.6102,13.5046 C145.1822,31.2396 137.2172,48.9746 131.7172,66.7096 C131.1202,68.6336 129.3632,69.9516 127.3492,69.9516 L29.6592,69.9516 C33.4502,49.5436 42.1032,31.7096 55.4222,15.1966 C56.2892,14.1226 57.6092,13.5046 58.9892,13.5046 L155.6102,13.5046 Z" id="Fill-8" fill="#04A6AA"></path>
                <path d="M64.3071,82.5751 C61.6171,82.5751 59.5021,84.8801 59.7351,87.5601 C60.8551,100.4361 64.0541,113.7141 69.1431,127.4711 L113.5621,127.4711 C115.8131,127.4711 117.7161,125.8331 118.0711,123.6101 C120.2611,109.9321 123.1161,96.2531 126.6091,82.5751 L64.3071,82.5751 Z M43.1191,115.9191 C46.2291,115.9191 48.4051,112.8891 47.4631,109.9251 C44.5151,100.6541 42.6991,91.5051 41.7551,82.5751 L21.9751,82.5751 C19.1571,82.5751 17.0231,85.0941 17.4461,87.8791 C18.9061,97.5031 22.8321,106.8571 29.4151,115.9191 L43.1191,115.9191 Z" id="Fill-10" fill="#04A6AA"></path>
                <polygon id="Fill-12" fill="#FFFFEB" points="86.2309 144.0363 78.1249 143.8533 79.0139 149.8893 86.5979 149.8893"></polygon>
                <polygon id="Fill-14" fill="#FFFFEB" points="96.481 144.2673 97.036 137.2363 85.804 137.2363 86.231 144.0363"></polygon>
                <polygon id="Fill-16" fill="#00B8C4" points="86.598 149.8889 96.037 149.8889 96.481 144.2669 86.231 144.0359"></polygon>
                <path d="M104.7859,144.4544 L105.4129,140.1964 C105.6429,138.6364 104.4339,137.2364 102.8569,137.2364 L97.0359,137.2364 L96.4809,144.2674 L104.7859,144.4544 Z" id="Fill-18" fill="#CDF7E6"></path>
                <path d="M85.8044,137.236 L80.1414,137.236 C78.5644,137.236 77.3554,138.636 77.5854,140.196 L78.1244,143.854 L86.2304,144.036 L85.8044,137.236 Z" id="Fill-20" fill="#00B8C4"></path>
                <path d="M95.6444,154.8608 L101.0214,154.8608 C102.3034,154.8608 103.3914,153.9218 103.5774,152.6538 L103.9854,149.8888 L96.0374,149.8888 L95.6444,154.8608 Z" id="Fill-22" fill="#FFFFEB"></path>
                <polygon id="Fill-24" fill="#04A6AA" points="96.481 144.2673 96.037 149.8893 103.985 149.8893 104.786 144.4543"></polygon>
                <path d="M79.0139,149.8889 L79.4209,152.6539 C79.6079,153.9219 80.6959,154.8609 81.9779,154.8609 L86.9099,154.8609 L86.5979,149.8889 L79.0139,149.8889 Z" id="Fill-26" fill="#00B8C4"></path>
                <polygon id="Fill-28" fill="#CDF7E6" points="86.598 149.8889 86.91 154.8609 95.644 154.8609 96.037 149.8889"></polygon>
                <polygon id="Fill-30" fill="#B55B73" points="34.1906 34.1012 43.5996 38.0422 52.5346 34.1012 65.8806 38.0422 65.8806 40.4782 71.5036 43.3732 76.6496 69.7802 30.1406 69.5902 32.3326 36.4232"></polygon>
                <polygon id="Fill-32" fill="#FEAA0F" points="28.2639 34.1012 27.6249 69.8102 33.6049 69.8102 34.1909 34.1012"></polygon>
                <polygon id="Fill-34" fill="#FEAA0F" points="52.5344 34.1012 43.4634 34.1012 44.6974 69.8102 51.6964 69.8102"></polygon>
                <polygon id="Fill-36" fill="#E7855F" points="34.0802 40.8348 33.6052 69.8108 44.6982 69.8108 43.6902 40.6538"></polygon>
                <polygon id="Fill-38" fill="#E7855F" points="52.4016 39.7622 59.8796 69.8102 64.1246 68.7732 58.3476 38.3052"></polygon>
                <polygon id="Fill-40" fill="#00EBAA" points="28.0981 43.3736 34.0391 43.3736 34.0391 46.8616 28.0361 46.8616"></polygon>
                <polygon id="Fill-42" fill="#00EBAA" points="27.7443 63.1464 33.6053 63.1464 33.6053 64.9894 27.7033 64.7264"></polygon>
                <polygon id="Fill-44" fill="#00EBAA" points="28.174 39.1296 34.104 39.3926 34.053 41.8276 28.126 41.8276"></polygon>
                <polygon id="Fill-46" fill="#00EBAA" points="34.1039 47.1589 43.8139 47.1589 43.9569 48.8729 33.9649 48.6719"></polygon>
                <polygon id="Fill-48" fill="#00EBAA" points="33.7633 60.1564 44.3643 60.1564 44.5483 61.5384 33.6993 61.3484"></polygon>
                <polygon id="Fill-50" fill="#00EBAA" points="43.5996 38.0424 52.4416 38.0424 52.3716 41.0524 43.5996 40.2154"></polygon>
                <polygon id="Fill-52" fill="#00EBAA" points="43.7611 42.7155 52.3321 42.7155 52.2761 45.1175 43.8441 45.1175"></polygon>
                <polygon id="Fill-54" fill="#00EBAA" points="53.7343 45.1173 59.3973 43.8433 59.9183 46.5903 54.2313 47.1143"></polygon>
                <polygon id="Fill-56" fill="#00EBAA" points="58.0546 62.4755 62.7156 61.3425 63.1366 63.5615 58.6066 64.6935"></polygon>
            </g>
        </g>
    </g>
</svg>