<?xml version="1.0" encoding="UTF-8"?>
<svg width="156px" height="91px" viewBox="0 0 156 91" version="1.1" xmlns="http://www.w3.org/2000/svg" xmlns:xlink="http://www.w3.org/1999/xlink">
    <!-- Generator: Sketch 53.1 (72631) - https://sketchapp.com -->
    <title>Group 31Burgers</title>
    <desc>Created with Sketch.</desc>
    <g id="Page-1" stroke="none" stroke-width="1" fill="none" fill-rule="evenodd">
        <g id="Desktop-HD" transform="translate(-363.000000, -1574.000000)">
            <g id="Group-31" transform="translate(363.733000, 1574.756400)">
                <path d="M108.3065,18.791 C108.3545,18.362 108.3855,17.933 108.3855,17.496 C108.3855,7.832 96.6795,-2.84217094e-14 82.2395,-2.84217094e-14 C67.7985,-2.84217094e-14 56.0915,7.832 56.0915,17.496 C56.0915,17.933 56.1245,18.362 56.1705,18.792 L108.3065,18.791 Z" id="Fill-197" fill="#F79E3C"></path>
                <path d="M56.1662,34.9502 C56.1222,35.2882 56.0912,35.6322 56.0912,35.9832 C56.0912,39.8842 58.8642,43.0432 62.2832,43.0432 L102.1942,43.0432 C105.6142,43.0432 108.3852,39.8842 108.3852,35.9832 C108.3852,35.6322 108.3562,35.2882 108.3122,34.9502 L56.1662,34.9502 Z" id="Fill-199" fill="#F79E3C"></path>
                <path d="M109.848,28.3078 C109.848,31.0438 107.804,33.2648 105.283,33.2648 L59.488,33.2648 C56.967,33.2648 54.923,31.0438 54.923,28.3078 C54.923,25.5698 56.967,23.3508 59.488,23.3508 L105.283,23.3508 C107.804,23.3508 109.848,25.5698 109.848,28.3078" id="Fill-201" fill="#330A32"></path>
                <polygon id="Fill-203" fill="#E20030" points="57.357 22.0836 107.023 22.0836 107.023 18.7916 57.357 18.7916"></polygon>
                <polygon id="Fill-205" fill="#F1BB00" points="108.3435 33.4004 56.1385 33.4004 56.1385 35.1454 64.5835 35.1454 71.1875 38.9744 75.6365 35.1454 108.3435 35.1454"></polygon>
                <path d="M107.0351,21.8204 L56.7591,21.8204 L56.7591,23.5644 L80.6151,23.5644 C80.5401,23.8314 80.4951,24.1044 80.4951,24.3914 C80.4951,26.3674 82.4081,27.9694 84.7671,27.9694 C85.9251,27.9694 86.9731,27.5824 87.7421,26.9584 C88.9091,28.8164 91.0781,30.0684 93.5661,30.0684 C97.2871,30.0684 100.3041,27.2764 100.3041,23.8314 C100.3041,23.7414 100.2941,23.6524 100.2891,23.5644 L107.0351,23.5644 L107.0351,21.8204 Z" id="Fill-206" fill="#00EBAA"></path>
                <path d="M71.1131,10.6693 C71.1131,11.3723 69.8431,11.9453 68.2741,11.9453 C66.7051,11.9453 65.4341,11.3723 65.4341,10.6693 C65.4341,9.9653 66.7051,9.3973 68.2741,9.3973 C69.8431,9.3963 71.1131,9.9653 71.1131,10.6693" id="Fill-207" fill="#D8822E"></path>
                <path d="M78.6531,6.8109 C78.6531,7.5139 77.3821,8.0849 75.8121,8.0849 C74.2441,8.0849 72.9731,7.5139 72.9731,6.8109 C72.9731,6.1069 74.2441,5.5379 75.8121,5.5379 C77.3821,5.5379 78.6531,6.1069 78.6531,6.8109" id="Fill-208" fill="#D8822E"></path>
                <path d="M85.4165,10.3475 C85.4165,11.0505 84.1455,11.6225 82.5765,11.6225 C81.0075,11.6225 79.7365,11.0505 79.7365,10.3475 C79.7365,9.6435 81.0075,9.0745 82.5765,9.0745 C84.1455,9.0745 85.4165,9.6435 85.4165,10.3475" id="Fill-209" fill="#D8822E"></path>
                <path d="M92.6098,7.2512 C92.6098,7.9542 91.3388,8.5262 89.7698,8.5262 C88.2008,8.5252 86.9298,7.9542 86.9298,7.2512 C86.9298,6.5482 88.2008,5.9762 89.7698,5.9762 C91.3388,5.9762 92.6098,6.5482 92.6098,7.2512" id="Fill-210" fill="#D8822E"></path>
                <path d="M98.0874,11.622 C98.0874,12.325 96.8154,12.895 95.2474,12.895 C93.6774,12.895 92.4074,12.325 92.4074,11.622 C92.4074,10.918 93.6774,10.347 95.2474,10.347 C96.8154,10.347 98.0874,10.918 98.0874,11.622" id="Fill-211" fill="#D8822E"></path>
                <path d="M59.8851,24.7573 L63.1101,24.7573 C63.8881,24.7573 64.5241,25.3933 64.5241,26.1723 L64.5241,26.1723 C64.5241,26.9503 63.8881,27.5863 63.1101,27.5863 L59.8851,27.5863 C59.1071,27.5863 58.4701,26.9503 58.4701,26.1723 L58.4701,26.1723 C58.4701,25.3933 59.1071,24.7573 59.8851,24.7573" id="Fill-212" fill="#DBDCDC"></path>
                <path d="M66.9264,24.7573 L74.9294,24.7573 C75.7074,24.7573 76.3444,25.3933 76.3444,26.1723 L76.3444,26.1723 C76.3444,26.9503 75.7074,27.5863 74.9294,27.5863 L66.9264,27.5863 C66.1484,27.5863 65.5114,26.9503 65.5114,26.1723 L65.5114,26.1723 C65.5114,25.3933 66.1484,24.7573 66.9264,24.7573" id="Fill-213" fill="#DBDCDC"></path>
                <path d="M106.1873,24.7573 L106.3853,24.7573 C107.1633,24.7573 107.8003,25.3933 107.8003,26.1723 L107.8003,26.1723 C107.8003,26.9503 107.1633,27.5863 106.3853,27.5863 L106.1873,27.5863 C105.4093,27.5863 104.7723,26.9503 104.7723,26.1723 L104.7723,26.1723 C104.7723,25.3933 105.4093,24.7573 106.1873,24.7573" id="Fill-214" fill="#DBDCDC"></path>
                <path d="M75.453,54.9465 C75.505,54.4745 75.54,54.0025 75.54,53.5225 C75.54,42.8925 62.663,34.2765 46.779,34.2765 C30.894,34.2765 18.017,42.8925 18.017,53.5225 C18.017,54.0025 18.052,54.4745 18.104,54.9475 L75.453,54.9465 Z" id="Fill-215" fill="#F79E3C"></path>
                <path d="M18.0988,72.7215 C18.0498,73.0935 18.0168,73.4715 18.0168,73.8575 C18.0168,78.1495 21.0668,81.6245 24.8278,81.6245 L68.7298,81.6245 C72.4918,81.6245 75.5398,78.1495 75.5398,73.8575 C75.5398,73.4715 75.5078,73.0935 75.4598,72.7215 L18.0988,72.7215 Z" id="Fill-216" fill="#F79E3C"></path>
                <path d="M77.1487,65.4149 C77.1487,68.4249 74.9007,70.8679 72.1277,70.8679 L21.7527,70.8679 C18.9797,70.8679 16.7317,68.4249 16.7317,65.4149 C16.7317,62.4029 18.9797,59.9629 21.7527,59.9629 L72.1277,59.9629 C74.9007,59.9629 77.1487,62.4029 77.1487,65.4149" id="Fill-217" fill="#330A32"></path>
                <polygon id="Fill-218" fill="#E20030" points="19.408 58.5676 74.041 58.5676 74.041 54.9466 19.408 54.9466"></polygon>
                <polygon id="Fill-219" fill="#F1BB00" points="75.4937 71.0168 18.0687 71.0168 18.0687 72.9368 27.3577 72.9368 34.6227 77.1478 39.5157 72.9368 75.4937 72.9368"></polygon>
                <path d="M74.0545,58.2788 L18.7505,58.2788 L18.7505,60.1968 L44.9925,60.1968 C44.9095,60.4908 44.8605,60.7918 44.8605,61.1068 C44.8605,63.2808 46.9645,65.0428 49.5595,65.0428 C50.8335,65.0428 51.9865,64.6168 52.8325,63.9308 C54.1155,65.9748 56.5015,67.3518 59.2395,67.3518 C63.3325,67.3518 66.6505,64.2808 66.6505,60.4908 C66.6505,60.3918 66.6395,60.2938 66.6345,60.1968 L74.0545,60.1968 L74.0545,58.2788 Z" id="Fill-220" fill="#00EBAA"></path>
                <path d="M34.5403,46.0126 C34.5403,46.7856 33.1433,47.4166 31.4173,47.4166 C29.6913,47.4166 28.2933,46.7856 28.2933,46.0126 C28.2933,45.2376 29.6913,44.6126 31.4173,44.6126 C33.1433,44.6126 34.5403,45.2376 34.5403,46.0126" id="Fill-221" fill="#D8822E"></path>
                <path d="M42.8343,41.7683 C42.8343,42.5413 41.4363,43.1703 39.7093,43.1703 C37.9843,43.1703 36.5863,42.5413 36.5863,41.7683 C36.5863,40.9933 37.9843,40.3683 39.7093,40.3683 C41.4363,40.3683 42.8343,40.9933 42.8343,41.7683" id="Fill-222" fill="#D8822E"></path>
                <path d="M50.2741,45.6586 C50.2741,46.4316 48.8761,47.0606 47.1501,47.0606 C45.4241,47.0606 44.0261,46.4316 44.0261,45.6586 C44.0261,44.8836 45.4241,44.2586 47.1501,44.2586 C48.8761,44.2586 50.2741,44.8836 50.2741,45.6586" id="Fill-223" fill="#D8822E"></path>
                <path d="M58.1866,42.2527 C58.1866,43.0257 56.7886,43.6547 55.0626,43.6547 C53.3376,43.6547 51.9386,43.0257 51.9386,42.2527 C51.9386,41.4797 53.3376,40.8507 55.0626,40.8507 C56.7886,40.8507 58.1866,41.4797 58.1866,42.2527" id="Fill-224" fill="#D8822E"></path>
                <path d="M64.2121,47.0605 C64.2121,47.8335 62.8131,48.4605 61.0881,48.4605 C59.3611,48.4605 57.9631,47.8335 57.9631,47.0605 C57.9641,46.2855 59.3611,45.6585 61.0881,45.6585 C62.8131,45.6585 64.2121,46.2855 64.2121,47.0605" id="Fill-225" fill="#D8822E"></path>
                <path d="M22.1895,61.5094 L25.7365,61.5094 C26.5925,61.5094 27.2925,62.2094 27.2925,63.0654 L27.2925,63.0654 C27.2925,63.9214 26.5925,64.6214 25.7365,64.6214 L22.1895,64.6214 C21.3335,64.6214 20.6335,63.9214 20.6335,63.0654 L20.6335,63.0654 C20.6335,62.2094 21.3335,61.5094 22.1895,61.5094" id="Fill-226" fill="#DBDCDC"></path>
                <path d="M29.935,61.5094 L38.738,61.5094 C39.594,61.5094 40.294,62.2094 40.294,63.0654 L40.294,63.0654 C40.294,63.9214 39.594,64.6214 38.738,64.6214 L29.935,64.6214 C29.079,64.6214 28.379,63.9214 28.379,63.0654 L28.379,63.0654 C28.379,62.2094 29.079,61.5094 29.935,61.5094" id="Fill-227" fill="#DBDCDC"></path>
                <path d="M73.1219,61.5094 L73.3389,61.5094 C74.1949,61.5094 74.8959,62.2094 74.8959,63.0654 L74.8959,63.0654 C74.8959,63.9214 74.1949,64.6214 73.3389,64.6214 L73.1219,64.6214 C72.2659,64.6214 71.5659,63.9214 71.5659,63.0654 L71.5659,63.0654 C71.5659,62.2094 72.2659,61.5094 73.1219,61.5094" id="Fill-228" fill="#DBDCDC"></path>
                <path d="M25.6186,76.8974 C26.1466,76.8974 26.5776,76.4664 26.5776,75.9384 C26.5776,75.4104 26.1466,74.9794 25.6186,74.9794 C25.0906,74.9794 24.6596,75.4104 24.6596,75.9384 C24.6596,76.4664 25.0906,76.8974 25.6186,76.8974" id="Fill-229" fill="#D8822E"></path>
                <path d="M27.5097,77.2955 C27.8537,77.2955 28.1337,77.0145 28.1337,76.6715 C28.1337,76.3275 27.8537,76.0465 27.5097,76.0465 C27.1657,76.0465 26.8857,76.3275 26.8857,76.6715 C26.8857,77.0145 27.1657,77.2955 27.5097,77.2955" id="Fill-230" fill="#D8822E"></path>
                <path d="M42.8196,75.9295 C43.1636,75.9295 43.4436,75.6485 43.4436,75.3055 C43.4436,74.9615 43.1636,74.6805 42.8196,74.6805 C42.4756,74.6805 42.1956,74.9615 42.1956,75.3055 C42.1956,75.6485 42.4756,75.9295 42.8196,75.9295" id="Fill-231" fill="#D8822E"></path>
                <path d="M51.7233,77.8837 C52.0673,77.8837 52.3473,77.6037 52.3473,77.2597 C52.3473,76.9157 52.0673,76.6347 51.7233,76.6347 C51.3793,76.6347 51.0993,76.9157 51.0993,77.2597 C51.0993,77.6037 51.3793,77.8837 51.7233,77.8837" id="Fill-232" fill="#D8822E"></path>
                <path d="M69.7432,77.9111 C70.3142,77.9111 70.7792,77.4451 70.7792,76.8751 C70.7792,76.3041 70.3142,75.8391 69.7432,75.8391 C69.1722,75.8391 68.7072,76.3041 68.7072,76.8751 C68.7072,77.4451 69.1722,77.9111 69.7432,77.9111" id="Fill-233" fill="#D8822E"></path>
                <path d="M66.7165,77.1417 C67.0605,77.1417 67.3405,76.8617 67.3405,76.5177 C67.3405,76.1737 67.0605,75.8927 66.7165,75.8927 C66.3725,75.8927 66.0925,76.1737 66.0925,76.5177 C66.0925,76.8617 66.3725,77.1417 66.7165,77.1417" id="Fill-234" fill="#D8822E"></path>
                <path d="M71.2769,51.2406 C71.8479,51.2406 72.3129,50.7746 72.3129,50.2046 C72.3129,49.6336 71.8479,49.1686 71.2769,49.1686 C70.7059,49.1686 70.2409,49.6336 70.2409,50.2046 C70.2409,50.7746 70.7059,51.2406 71.2769,51.2406" id="Fill-235" fill="#D8822E"></path>
                <path d="M68.2502,50.4712 C68.5942,50.4712 68.8742,50.1902 68.8742,49.8472 C68.8742,49.5032 68.5942,49.2222 68.2502,49.2222 C67.9062,49.2222 67.6262,49.5032 67.6262,49.8472 C67.6262,50.1902 67.9062,50.4712 68.2502,50.4712" id="Fill-236" fill="#D8822E"></path>
                <path d="M29.871,41.7802 C30.215,41.7802 30.495,41.5002 30.495,41.1562 C30.495,40.8122 30.215,40.5312 29.871,40.5312 C29.527,40.5312 29.247,40.8122 29.247,41.1562 C29.247,41.5002 29.527,41.7802 29.871,41.7802" id="Fill-237" fill="#D8822E"></path>
                <path d="M20.9674,51.842 C21.3114,51.842 21.5914,51.562 21.5914,51.218 C21.5914,50.874 21.3114,50.593 20.9674,50.593 C20.6234,50.593 20.3434,50.874 20.3434,51.218 C20.3434,51.562 20.6234,51.842 20.9674,51.842" id="Fill-238" fill="#D8822E"></path>
                <path d="M46.0137,43.3727 C46.3577,43.3727 46.6377,43.0927 46.6377,42.7487 C46.6377,42.4047 46.3577,42.1237 46.0137,42.1237 C45.6697,42.1237 45.3887,42.4047 45.3887,42.7487 C45.3887,43.0927 45.6697,43.3727 46.0137,43.3727" id="Fill-239" fill="#D8822E"></path>
                <path d="M23.9353,51.3353 C24.5063,51.3353 24.9713,50.8703 24.9713,50.2993 C24.9713,49.7283 24.5063,49.2633 23.9353,49.2633 C23.3643,49.2633 22.8993,49.7283 22.8993,50.2993 C22.8993,50.8703 23.3643,51.3353 23.9353,51.3353" id="Fill-240" fill="#D8822E"></path>
                <path d="M56.0029,38.5001 C56.5739,38.5001 57.0389,38.0351 57.0389,37.4641 C57.0389,36.8931 56.5739,36.4281 56.0029,36.4281 C55.4319,36.4281 54.9669,36.8931 54.9669,37.4641 C54.9669,38.0351 55.4319,38.5001 56.0029,38.5001" id="Fill-241" fill="#D8822E"></path>
                <path d="M139.1472,54.9465 C139.1992,54.4745 139.2342,54.0025 139.2342,53.5225 C139.2342,42.8925 126.3572,34.2765 110.4732,34.2765 C94.5882,34.2765 81.7112,42.8925 81.7112,53.5225 C81.7112,54.0025 81.7462,54.4745 81.7982,54.9475 L139.1472,54.9465 Z" id="Fill-242" fill="#F79E3C"></path>
                <path d="M81.793,72.7215 C81.744,73.0935 81.711,73.4715 81.711,73.8575 C81.711,78.1495 84.761,81.6245 88.522,81.6245 L132.424,81.6245 C136.186,81.6245 139.234,78.1495 139.234,73.8575 C139.234,73.4715 139.202,73.0935 139.154,72.7215 L81.793,72.7215 Z" id="Fill-243" fill="#F79E3C"></path>
                <path d="M140.8429,65.4149 C140.8429,68.4249 138.5949,70.8679 135.8219,70.8679 L85.4469,70.8679 C82.6739,70.8679 80.4259,68.4249 80.4259,65.4149 C80.4259,62.4029 82.6739,59.9629 85.4469,59.9629 L135.8219,59.9629 C138.5949,59.9629 140.8429,62.4029 140.8429,65.4149" id="Fill-244" fill="#330A32"></path>
                <polygon id="Fill-245" fill="#E20030" points="83.102 58.5676 137.735 58.5676 137.735 54.9466 83.102 54.9466"></polygon>
                <polygon id="Fill-246" fill="#F1BB00" points="139.1879 71.0168 81.7629 71.0168 81.7629 72.9368 91.0519 72.9368 98.3169 77.1478 103.2099 72.9368 139.1879 72.9368"></polygon>
                <path d="M137.7487,58.2788 L82.4447,58.2788 L82.4447,60.1968 L108.6867,60.1968 C108.6037,60.4908 108.5547,60.7918 108.5547,61.1068 C108.5547,63.2808 110.6587,65.0428 113.2537,65.0428 C114.5277,65.0428 115.6807,64.6168 116.5267,63.9308 C117.8097,65.9748 120.1957,67.3518 122.9337,67.3518 C127.0267,67.3518 130.3447,64.2808 130.3447,60.4908 C130.3447,60.3918 130.3337,60.2938 130.3287,60.1968 L137.7487,60.1968 L137.7487,58.2788 Z" id="Fill-247" fill="#00EBAA"></path>
                <path d="M98.2345,46.0126 C98.2345,46.7856 96.8375,47.4166 95.1115,47.4166 C93.3855,47.4166 91.9875,46.7856 91.9875,46.0126 C91.9875,45.2376 93.3855,44.6126 95.1115,44.6126 C96.8375,44.6126 98.2345,45.2376 98.2345,46.0126" id="Fill-248" fill="#D8822E"></path>
                <path d="M106.5285,41.7683 C106.5285,42.5413 105.1305,43.1703 103.4035,43.1703 C101.6785,43.1703 100.2805,42.5413 100.2805,41.7683 C100.2805,40.9933 101.6785,40.3683 103.4035,40.3683 C105.1305,40.3683 106.5285,40.9933 106.5285,41.7683" id="Fill-249" fill="#D8822E"></path>
                <path d="M113.9683,45.6586 C113.9683,46.4316 112.5703,47.0606 110.8443,47.0606 C109.1183,47.0606 107.7203,46.4316 107.7203,45.6586 C107.7203,44.8836 109.1183,44.2586 110.8443,44.2586 C112.5703,44.2586 113.9683,44.8836 113.9683,45.6586" id="Fill-250" fill="#D8822E"></path>
                <path d="M121.8809,42.2527 C121.8809,43.0257 120.4829,43.6547 118.7569,43.6547 C117.0319,43.6547 115.6329,43.0257 115.6329,42.2527 C115.6329,41.4797 117.0319,40.8507 118.7569,40.8507 C120.4829,40.8507 121.8809,41.4797 121.8809,42.2527" id="Fill-251" fill="#D8822E"></path>
                <path d="M127.9063,47.0605 C127.9063,47.8335 126.5073,48.4605 124.7823,48.4605 C123.0553,48.4605 121.6573,47.8335 121.6573,47.0605 C121.6583,46.2855 123.0553,45.6585 124.7823,45.6585 C126.5073,45.6585 127.9063,46.2855 127.9063,47.0605" id="Fill-252" fill="#D8822E"></path>
                <path d="M85.8837,61.5094 L89.4307,61.5094 C90.2867,61.5094 90.9867,62.2094 90.9867,63.0654 L90.9867,63.0654 C90.9867,63.9214 90.2867,64.6214 89.4307,64.6214 L85.8837,64.6214 C85.0277,64.6214 84.3277,63.9214 84.3277,63.0654 L84.3277,63.0654 C84.3277,62.2094 85.0277,61.5094 85.8837,61.5094" id="Fill-253" fill="#DBDCDC"></path>
                <path d="M93.6292,61.5094 L102.4322,61.5094 C103.2882,61.5094 103.9882,62.2094 103.9882,63.0654 L103.9882,63.0654 C103.9882,63.9214 103.2882,64.6214 102.4322,64.6214 L93.6292,64.6214 C92.7732,64.6214 92.0732,63.9214 92.0732,63.0654 L92.0732,63.0654 C92.0732,62.2094 92.7732,61.5094 93.6292,61.5094" id="Fill-254" fill="#DBDCDC"></path>
                <path d="M136.8161,61.5094 L137.0331,61.5094 C137.8891,61.5094 138.5901,62.2094 138.5901,63.0654 L138.5901,63.0654 C138.5901,63.9214 137.8891,64.6214 137.0331,64.6214 L136.8161,64.6214 C135.9601,64.6214 135.2601,63.9214 135.2601,63.0654 L135.2601,63.0654 C135.2601,62.2094 135.9601,61.5094 136.8161,61.5094" id="Fill-255" fill="#DBDCDC"></path>
                <polygon id="Fill-256" fill="#EE7D61" points="2.84217094e-14 89.9926 155.065 89.9926 155.065 82.1336 2.84217094e-14 82.1336"></polygon>
            </g>
        </g>
    </g>
</svg>