<?xml version="1.0" encoding="UTF-8"?>
<svg width="218px" height="45px" viewBox="0 0 218 45" version="1.1" xmlns="http://www.w3.org/2000/svg" xmlns:xlink="http://www.w3.org/1999/xlink">
    <!-- Generator: Sketch 53.1 (72631) - https://sketchapp.com -->
    <title>Group 5Bunting</title>
    <desc>Created with Sketch.</desc>
    <g id="Page-1" stroke="none" stroke-width="1" fill="none" fill-rule="evenodd">
        <g id="Artboard" transform="translate(-761.000000, -374.000000)">
            <g id="Group-5" transform="translate(761.518900, 375.214800)">
                <polygon id="Fill-137" fill="#DF51CD" points="152.7019 17.7036 166.0339 38.8786 171.4009 14.4396"></polygon>
                <polygon id="Fill-138" fill="#DF51CD" points="110.5344 20.326 120.5174 43.235 129.4874 19.909"></polygon>
                <polygon id="Fill-139" fill="#DF51CD" points="68.834 17.5517 75.432 41.6497 87.646 19.8527"></polygon>
                <polygon id="Fill-140" fill="#DF51CD" points="193.5755 7.8277 209.6295 26.9727 211.6315 2.0687"></polygon>
                <polygon id="Fill-141" fill="#DF51CD" points="27.5185 9.7314 31.2075 34.4614 45.9385 14.2574"></polygon>
                <polygon id="Fill-142" fill="#41387A" points="173.6434 13.4501 188.8304 33.3371 191.9704 8.5121"></polygon>
                <polygon id="Fill-143" fill="#41387A" points="131.7384 19.5925 143.1064 41.8635 150.6414 18.0225"></polygon>
                <polygon id="Fill-144" fill="#41387A" points="89.7258 19.9653 98.5728 43.3323 108.6718 20.4783"></polygon>
                <polygon id="Fill-145" fill="#41387A" points="47.9505 14.1868 53.3055 38.5988 66.6255 17.4528"></polygon>
                <polygon id="Fill-146" fill="#41387A" points="7.8691 3.5165 9.8831 28.4585 25.9541 9.2785"></polygon>
                <path d="M0,0.184 C0,0.184 105.864,45.323 216.786,0" id="Stroke-147" stroke="#41387A"></path>
            </g>
        </g>
    </g>
</svg>