<?xml version="1.0" encoding="UTF-8"?>
<svg width="64px" height="38px" viewBox="0 0 64 38" version="1.1" xmlns="http://www.w3.org/2000/svg" xmlns:xlink="http://www.w3.org/1999/xlink">
    <!-- Generator: Sketch 53.1 (72631) - https://sketchapp.com -->
    <title>Group 4flowerbed</title>
    <desc>Created with Sketch.</desc>
    <g id="Page-1" stroke="none" stroke-width="1" fill="none" fill-rule="evenodd">
        <g id="Artboard" transform="translate(-1103.000000, -383.000000)">
            <g id="Group-4" transform="translate(1103.747800, 383.672800)">
                <path d="M59.387,37.0289 L3.134,37.0289 C1.403,37.0289 -1.13686838e-13,35.6259 -1.13686838e-13,33.8949 C-1.13686838e-13,32.1649 1.403,30.7619 3.134,30.7619 L59.387,30.7619 C61.118,30.7619 62.521,32.1649 62.521,33.8949 C62.521,35.6259 61.118,37.0289 59.387,37.0289" id="Fill-126" fill="#C99D66"></path>
                <polygon id="Fill-127" fill="#608B06" points="10.3282 33.8952 12.8352 33.8952 12.8352 10.6772 10.3282 10.6772"></polygon>
                <path d="M14.7942,3.026 L11.9012,0.132 C11.7252,-0.044 11.4392,-0.044 11.2632,0.132 L8.3702,3.026 L5.9282,0.584 C5.6442,0.3 5.1582,0.501 5.1582,0.903 L5.1582,8.453 C5.1582,11.99 7.9262,15.024 11.4622,15.089 C15.0652,15.154 18.0062,12.254 18.0062,8.666 L18.0062,0.903 C18.0062,0.501 17.5202,0.3 17.2362,0.584 L14.7942,3.026 Z" id="Fill-128" fill="#DF51CD"></path>
                <polygon id="Fill-129" fill="#608B06" points="30.6802 33.8952 33.1872 33.8952 33.1872 10.6772 30.6802 10.6772"></polygon>
                <path d="M35.1453,3.026 L32.2523,0.132 C32.0763,-0.044 31.7903,-0.044 31.6143,0.132 L28.7213,3.026 L26.2793,0.584 C25.9953,0.3 25.5093,0.501 25.5093,0.903 L25.5093,8.453 C25.5093,11.99 28.2773,15.024 31.8133,15.089 C35.4163,15.154 38.3573,12.254 38.3573,8.666 L38.3573,0.903 C38.3573,0.501 37.8713,0.3 37.5873,0.584 L35.1453,3.026 Z" id="Fill-130" fill="#DF51CD"></path>
                <polygon id="Fill-131" fill="#608B06" points="51.0312 33.8952 53.5382 33.8952 53.5382 10.6772 51.0312 10.6772"></polygon>
                <path d="M55.4964,3.026 L52.6034,0.132 C52.4274,-0.044 52.1414,-0.044 51.9654,0.132 L49.0724,3.026 L46.6304,0.584 C46.3464,0.3 45.8604,0.501 45.8604,0.903 L45.8604,8.453 C45.8604,11.99 48.6284,15.024 52.1644,15.089 C55.7674,15.154 58.7084,12.254 58.7084,8.666 L58.7084,0.903 C58.7084,0.501 58.2224,0.3 57.9384,0.584 L55.4964,3.026 Z" id="Fill-132" fill="#DF51CD"></path>
            </g>
        </g>
    </g>
</svg>