<?xml version="1.0" encoding="UTF-8"?>
<svg width="166px" height="55px" viewBox="0 0 166 55" version="1.1" xmlns="http://www.w3.org/2000/svg" xmlns:xlink="http://www.w3.org/1999/xlink">
    <!-- Generator: Sketch 53.1 (72631) - https://sketchapp.com -->
    <title>Group 2grass</title>
    <desc>Created with Sketch.</desc>
    <g id="Page-1" stroke="none" stroke-width="1" fill="none" fill-rule="evenodd">
        <g id="Artboard" transform="translate(-1137.000000, -510.000000)">
            <g id="Group-2" transform="translate(1136.934800, 510.288313)">
                <path d="M57.8322,9.37628749 C72.3922,8.92628749 83.3222,17.3562875 95.8572,17.1412875 C108.3922,16.9262875 128.1102,17.0392875 128.1102,17.0392875 C128.1102,17.0392875 143.5042,12.9662875 150.9482,14.2792875 C158.3922,15.5922875 167.9312,13.8262875 165.1612,9.37628749 C162.3922,4.92628749 143.9952,5.35328749 126.5272,4.47328749 C109.0582,3.59228749 94.6582,6.50428749 77.7252,4.47328749 C60.7922,2.44128749 35.3762,-3.35371251 28.5272,2.64728749 C21.6782,8.64928749 16.2262,15.0722875 28.5272,13.4622875 C40.8292,11.8532875 43.2722,9.82628749 57.8322,9.37628749" id="Fill-133" fill="#5D5D5D" opacity="0.147274926"></path>
                <path d="M113.2687,19.5619875 C113.2687,19.5619875 112.9217,13.0459875 109.9887,9.25298749 C109.9887,9.25298749 119.7797,11.2499875 120.3597,16.5139875 C120.3597,16.5139875 122.0177,7.60898749 121.7407,4.77098749 C121.7407,4.77098749 128.5897,12.6669875 128.1097,18.0389875 C128.1097,18.0389875 133.5157,11.3419875 137.9887,9.65498749 C137.9887,9.65498749 136.3157,16.1099875 136.4577,18.1429875 C136.5997,20.1749875 124.3717,24.1549875 124.3717,24.1549875 L113.2687,19.5619875 Z" id="Fill-134" fill="#B5D42C"></path>
                <path d="M26.089,49.8499875 C26.089,49.8499875 25.742,43.3339875 22.809,39.5399875 C22.809,39.5399875 32.6,41.5379875 33.18,46.8019875 C33.18,46.8019875 34.838,37.8959875 34.561,35.0589875 C34.561,35.0589875 41.41,42.9539875 40.93,48.3269875 C40.93,48.3269875 46.336,41.6299875 50.809,39.9419875 C50.809,39.9419875 49.136,46.3979875 49.278,48.4309875 C49.42,50.4629875 37.192,54.4429875 37.192,54.4429875 L26.089,49.8499875 Z" id="Fill-135" fill="#B5D42C"></path>
                <path d="M3.28,23.8869875 C3.28,23.8869875 2.933,17.3709875 0,13.5779875 C0,13.5779875 9.791,15.5749875 10.371,20.8389875 C10.371,20.8389875 12.029,11.9339875 11.752,9.09598749 C11.752,9.09598749 18.601,16.9919875 18.121,22.3639875 C18.121,22.3639875 23.527,15.6669875 28,13.9789875 C28,13.9789875 26.327,20.4349875 26.469,22.4679875 C26.611,24.4999875 14.383,28.4799875 14.383,28.4799875 L3.28,23.8869875 Z" id="Fill-136" fill="#B5D42C"></path>
            </g>
        </g>
    </g>
</svg>