<?xml version="1.0" encoding="UTF-8"?>
<svg width="660px" height="207px" viewBox="0 0 660 207" version="1.1" xmlns="http://www.w3.org/2000/svg" xmlns:xlink="http://www.w3.org/1999/xlink">
    <!-- Generator: Sketch 53.1 (72631) - https://sketchapp.com -->
    <title>GroupBanner</title>
    <desc>Created with Sketch.</desc>
    <g id="Page-1" stroke="none" stroke-width="1" fill="none" fill-rule="evenodd">
        <g id="Artboard" transform="translate(-396.000000, -511.000000)">
            <g id="Group" transform="translate(396.003000, 511.237000)">
                <polygon id="Fill-31" fill="#8B5E3C" points="534.841 206.493 537.078 206.493 537.078 58.76 534.841 58.76"></polygon>
                <polygon id="Fill-33" fill="#8B5E3C" points="-1.42108547e-14 206.489 2.237 206.489 2.237 161.477 -1.42108547e-14 161.477"></polygon>
                <polygon id="Fill-34" fill="#8B5E3C" points="657.395 206.489 659.632 206.489 659.632 133.396 657.395 133.396"></polygon>
                <polygon id="Fill-35" fill="#8B5E3C" points="280.457 206.493 282.694 206.493 282.694 0.079 280.457 0.079"></polygon>
                <path d="M2.3012,162.603 C1.6802,162.603 1.1582,162.119 1.1202,161.49 C1.0812,160.837 1.5782,160.276 2.2312,160.237 C35.0292,158.266 70.0622,148.647 106.3592,131.647 C135.4292,118.031 165.3672,99.679 195.3392,77.1 C246.3892,38.642 280.2432,0.775 280.5792,0.397 C280.8042,0.144 281.1262,2.84217094e-14 281.4642,2.84217094e-14 L281.4652,2.84217094e-14 C281.8022,2.84217094e-14 282.1252,0.145 282.3492,0.398 C282.4732,0.537 294.9832,14.527 316.5472,30.06 C336.4232,44.378 368.2832,62.977 407.1872,70.271 C478.1522,83.576 534.5702,57.946 535.1322,57.685 C535.6412,57.448 536.2482,57.603 536.5822,58.055 C536.7252,58.247 551.1112,77.54 573.2712,96.092 C593.6402,113.144 624.9552,133.045 658.3772,131.032 C659.0102,130.99 659.5902,131.49 659.6302,132.143 C659.6692,132.796 659.1722,133.357 658.5192,133.396 C624.2702,135.459 592.4182,115.217 571.7112,97.874 C551.8392,81.231 538.1582,63.992 535.2532,60.22 C531.8102,61.707 518.4142,67.173 498.6172,71.332 C477.3992,75.789 444.2352,79.627 406.7502,72.599 C367.3912,65.219 335.1902,46.416 315.1072,31.942 C296.6192,18.616 284.7102,6.397 281.4712,2.939 C275.8262,9.121 243.4432,43.826 196.7642,78.991 C166.6602,101.669 136.5822,120.106 107.3632,133.791 C70.7952,150.918 35.4722,160.611 2.3742,162.601 C2.3492,162.602 2.3252,162.603 2.3012,162.603" id="Fill-36" fill="#A97C50"></path>
                <polygon id="Fill-37" fill="#F75338" points="301.9874 16.9708 290.1464 38.2828 300.4084 37.4938 302.7764 46.9658 315.4054 26.4428"></polygon>
                <polygon id="Fill-38" fill="#F8B033" points="324.0882 34.3363 320.1422 58.0163 339.0862 43.0183"></polygon>
                <polygon id="Fill-39" fill="#FFFFFF" points="352.5036 50.1228 344.6106 70.6458 355.6626 67.4878 359.6086 76.9608 369.0806 58.0158"></polygon>
                <polygon id="Fill-40" fill="#DA1C5C" points="380.9207 61.9631 384.8667 88.0111 400.6537 67.4881"></polygon>
                <polygon id="Fill-41" fill="#7DA81E" points="412.4938 69.8563 414.0728 93.5363 421.9658 86.4323 427.4918 94.3253 432.2268 71.4353"></polygon>
                <polygon id="Fill-42" fill="#ED1C24" points="442.4889 73.0139 455.1179 95.1149 463.7999 72.2239"></polygon>
                <polygon id="Fill-43" fill="#41387A" points="476.4303 70.6456 482.7453 93.5366 489.8483 84.0646 499.3213 91.1686 494.5843 68.2776"></polygon>
                <polygon id="Fill-44" fill="#9E1F63" points="507.2142 65.9096 525.3692 60.3846 523.7902 81.6966"></polygon>
                <polygon id="Fill-45" fill="#17CCBA" points="235.9838 40.2673 251.6928 58.9123 241.4708 60.1063 240.9648 69.8563 224.6308 52.1383"></polygon>
                <polygon id="Fill-46" fill="#FFFFFF" points="207.5124 65.1204 216.2744 87.4704 194.6374 76.7194"></polygon>
                <polygon id="Fill-47" fill="#43C7DD" points="178.0799 88.7781 189.3059 107.6851 177.8809 106.4271 175.5809 116.4271 163.0639 99.3411"></polygon>
                <polygon id="Fill-48" fill="#DF51CD" points="146.0868 110.1124 148.7058 136.3274 128.3328 120.3464"></polygon>
                <polygon id="Fill-49" fill="#ED1C24" points="260.3728 17.7602 268.4208 42.8462 245.1548 31.4842"></polygon>
                <polygon id="Fill-50" fill="#7DA81E" points="112.3006 128.4975 119.1726 151.2135 109.2816 147.3485 106.8936 156.6835 94.3916 136.9315"></polygon>
                <polygon id="Fill-51" fill="#F19400" points="601.1449 117.2164 591.9329 137.2184 602.0959 135.5954 605.2279 144.8434 616.1429 123.3604"></polygon>
                <polygon id="Fill-52" fill="#27AAE1" points="625.8611 126.8573 630.7131 150.3683 642.9801 129.5523"></polygon>
                <polygon id="Fill-53" fill="#ED1C24" points="575.3239 100.0358 570.8819 126.0028 592.3209 111.4848"></polygon>
                <polygon id="Fill-54" fill="#4ABFEA" points="556.1464 80.1152 542.2904 99.3832 552.9014 98.9282 552.1394 108.5342 570.3614 93.8932"></polygon>
                <polygon id="Fill-55" fill="#ED1C24" points="79.0928 143.3885 75.0668 168.5235 58.8708 150.1625"></polygon>
                <polygon id="Fill-56" fill="#41387A" points="38.8074 152.2992 40.9684 175.9462 30.9814 169.5872 24.6214 179.5742 20.9834 156.4832"></polygon>
            </g>
        </g>
    </g>
</svg>