<?xml version="1.0" encoding="UTF-8"?>
<svg width="61px" height="62px" viewBox="0 0 61 62" version="1.1" xmlns="http://www.w3.org/2000/svg" xmlns:xlink="http://www.w3.org/1999/xlink">
    <!-- Generator: Sketch 53.1 (72631) - https://sketchapp.com -->
    <title>Group 3music</title>
    <desc>Created with Sketch.</desc>
    <g id="Page-1" stroke="none" stroke-width="1" fill="none" fill-rule="evenodd">
        <g id="Artboard" transform="translate(-1263.000000, -360.000000)">
            <g id="Group-3" transform="translate(1263.730000, 360.908228)">
                <path d="M24.7551,30.182772 L24.7551,30.182772 L40.1491,30.182772 L40.1491,23.419772 C40.1491,23.296772 40.0481,23.196772 39.9261,23.196772 L24.9771,23.196772 C24.8551,23.196772 24.7551,23.296772 24.7551,23.419772 L24.7551,30.182772 Z M44.5991,34.634772 L20.3031,34.634772 L20.3031,23.419772 C20.3031,20.842772 22.4011,18.745772 24.9771,18.745772 L39.9261,18.745772 C42.5031,18.745772 44.5991,20.842772 44.5991,23.419772 L44.5991,34.634772 Z" id="Fill-106" fill="#312871"></path>
                <polygon id="Fill-107" fill="#F8B033" points="0.001 61.041772 59.8 61.041772 59.8 26.690772 0.001 26.690772"></polygon>
                <polygon id="Fill-108" fill="#C99238" points="0 61.041772 4.645 61.041772 4.645 26.690772 0 26.690772"></polygon>
                <polygon id="Fill-109" fill="#29235C" points="0.001 41.383772 59.8 41.383772 59.8 26.690772 0.001 26.690772 0.001 32.9325923"></polygon>
                <polygon id="Fill-110" fill="#000000" points="0 41.496772 4.645 41.496772 4.645 26.690772 0 26.690772"></polygon>
                <polygon id="Fill-111" fill="#000000" points="0.001 42.372772 59.8 42.372772 59.8 41.383772 0.001 41.383772"></polygon>
                <polygon id="Fill-112" fill="#FFF8DC" opacity="0.639671689" points="8.384 31.611772 10.672 31.611772 10.672 26.690772 8.384 26.690772"></polygon>
                <polygon id="Fill-113" fill="#FFF8DC" opacity="0.639671689" points="14.935 31.611772 17.221 31.611772 17.221 26.690772 14.935 26.690772"></polygon>
                <polygon id="Fill-114" fill="#FFF8DC" opacity="0.639671689" points="21.483 31.611772 23.771 31.611772 23.771 26.690772 21.483 26.690772"></polygon>
                <polygon id="Fill-115" fill="#FFF8DC" opacity="0.639671689" points="28.033 31.611772 30.321 31.611772 30.321 26.690772 28.033 26.690772"></polygon>
                <polygon id="Fill-116" fill="#FFF8DC" opacity="0.639671689" points="34.582 31.611772 36.87 31.611772 36.87 26.690772 34.582 26.690772"></polygon>
                <polygon id="Fill-117" fill="#FFF8DC" opacity="0.639671689" points="41.131 31.611772 43.42 31.611772 43.42 26.690772 41.131 26.690772"></polygon>
                <polygon id="Fill-118" fill="#FFF8DC" opacity="0.639671689" points="47.68 31.611772 49.969 31.611772 49.969 26.690772 47.68 26.690772"></polygon>
                <polygon id="Fill-119" fill="#FFF8DC" opacity="0.639671689" points="54.231 31.611772 56.518 31.611772 56.518 26.690772 54.231 26.690772"></polygon>
                <path d="M19.1101,54.044372 C23.8411,54.044372 27.6971,50.186372 27.6971,45.457372 C27.6971,40.728372 23.8411,36.870372 19.1101,36.870372 C14.3811,36.870372 10.5241,40.728372 10.5241,45.457372 C10.5241,50.186372 14.3811,54.044372 19.1101,54.044372" id="Fill-120" fill="#C99238"></path>
                <path d="M43.8869,54.044372 C48.6139,54.044372 52.4719,50.186372 52.4719,45.457372 C52.4719,40.728372 48.6139,36.870372 43.8869,36.870372 C39.1599,36.870372 35.3009,40.728372 35.3009,45.457372 C35.3009,50.186372 39.1599,54.044372 43.8869,54.044372" id="Fill-121" fill="#C99238"></path>
                <path d="M17.9399,54.044372 C22.6709,54.044372 26.5259,50.186372 26.5259,45.457372 C26.5259,40.728372 22.6709,36.870372 17.9399,36.870372 C13.2099,36.870372 9.3529,40.728372 9.3529,45.457372 C9.3529,50.186372 13.2099,54.044372 17.9399,54.044372" id="Fill-122" fill="#312871"></path>
                <path d="M42.7186,54.044372 C47.4456,54.044372 51.3036,50.186372 51.3036,45.457372 C51.3036,40.728372 47.4456,36.870372 42.7186,36.870372 C37.9896,36.870372 34.1296,40.728372 34.1296,45.457372 C34.1296,50.186372 37.9896,54.044372 42.7186,54.044372" id="Fill-123" fill="#312871"></path>
                <path d="M14.3675,12.009972 C11.6375,11.494972 17.2115,14.887972 13.4215,9.61997199 C15.5495,9.45497199 17.1475,7.71397199 17.7025,7.75997199 C16.1375,11.174972 19.6345,11.757972 19.2265,10.502972 C19.1765,10.349972 18.3265,9.97697199 18.1215,10.784972" id="Stroke-124" stroke="#312871" stroke-width="0.5"></path>
                <path d="M40.9187,4.25097199 C43.6477,3.73397199 38.0757,7.12697199 41.8647,1.86297199 C39.7347,1.69797199 38.1407,-0.0470280061 37.5857,0.000971993909 C39.1477,3.41797199 35.6527,3.99797199 36.0607,2.74197199 C36.1107,2.59197199 36.9597,2.21997199 37.1657,3.02397199" id="Stroke-125" stroke="#312871" stroke-width="0.5"></path>
            </g>
        </g>
    </g>
</svg>