<?xml version="1.0" encoding="UTF-8"?>
<svg width="33px" height="34px" viewBox="0 0 33 34" version="1.1" xmlns="http://www.w3.org/2000/svg" xmlns:xlink="http://www.w3.org/1999/xlink">
    <!-- Generator: Sketch 53.1 (72631) - https://sketchapp.com -->
    <title>Group 168Party Hat</title>
    <desc>Created with Sketch.</desc>
    <defs>
        <path d="M0.147,33.38 L32.962,33.38 C32.962,33.38 18.654,2.15 16.36,0.487 L16.36,0.487 C16.306,0.448 16.246,0.429 16.179,0.429 L16.179,0.429 C13.418,0.432 0.147,33.38 0.147,33.38 L0.147,33.38 Z" id="path-1"></path>
        <path d="M0.147,33.38 L32.962,33.38 C32.962,33.38 18.654,2.15 16.36,0.487 L16.36,0.487 C16.306,0.448 16.246,0.429 16.179,0.429 L16.179,0.429 C13.418,0.432 0.147,33.38 0.147,33.38" id="path-3"></path>
        <path d="M0.147,33.38 L32.962,33.38 C32.962,33.38 18.654,2.15 16.36,0.487 L16.36,0.487 C16.306,0.448 16.246,0.429 16.179,0.429 L16.179,0.429 C13.418,0.432 0.147,33.38 0.147,33.38" id="path-5"></path>
        <path d="M0.147,33.38 L32.962,33.38 C32.962,33.38 18.654,2.15 16.36,0.487 L16.36,0.487 C16.306,0.448 16.246,0.429 16.179,0.429 L16.179,0.429 C13.418,0.432 0.147,33.38 0.147,33.38" id="path-7"></path>
        <path d="M0.147,33.38 L32.962,33.38 C32.962,33.38 18.654,2.15 16.36,0.487 L16.36,0.487 C16.306,0.448 16.246,0.429 16.179,0.429 L16.179,0.429 C13.418,0.432 0.147,33.38 0.147,33.38" id="path-9"></path>
        <path d="M32.962,33.38 C32.962,33.38 18.654,2.15 16.36,0.487 C16.306,0.448 16.246,0.429 16.179,0.429 C13.418,0.432 0.147,33.38 0.147,33.38 L32.962,33.38 Z" id="path-11"></path>
    </defs>
    <g id="Page-1" stroke="none" stroke-width="1" fill="none" fill-rule="evenodd">
        <g id="Artboard" transform="translate(-302.000000, -680.000000)">
            <g id="Group-168" transform="translate(302.000000, 679.730000)">
                <g id="Group-167">
                    <g id="Group-151">
                        <mask id="mask-2" fill="white">
                            <use xlink:href="#path-1"></use>
                        </mask>
                        <g id="Clip-150"></g>
                        <path d="M0.147,33.3799 C0.147,33.3799 14.066,-1.1771 16.36,0.4869 C18.655,2.1499 32.961,33.3799 32.961,33.3799 L0.147,33.3799 Z" id="Fill-149" fill="#F8B033" mask="url(#mask-2)"></path>
                    </g>
                    <g id="Group-154">
                        <mask id="mask-4" fill="white">
                            <use xlink:href="#path-3"></use>
                        </mask>
                        <g id="Clip-153"></g>
                        <path d="M7.8975,13.9886 C7.9255,14.0216 7.9685,14.0386 8.0115,14.0336 L10.3305,13.7886 C10.4395,13.7766 10.5145,13.8956 10.4575,13.9886 L9.2415,15.9786 C9.2185,16.0156 9.2155,16.0616 9.2335,16.1016 L10.1835,18.2316 C10.2275,18.3316 10.1385,18.4396 10.0315,18.4136 L7.7635,17.8726 C7.7215,17.8626 7.6765,17.8736 7.6445,17.9026 L5.9115,19.4646 C5.8305,19.5376 5.7005,19.4856 5.6915,19.3766 L5.5055,17.0516 C5.5025,17.0086 5.4775,16.9696 5.4405,16.9476 L3.4195,15.7826 C3.3245,15.7286 3.3335,15.5886 3.4355,15.5466 L5.5885,14.6516 C5.6285,14.6346 5.6585,14.5996 5.6675,14.5566 L6.1505,12.2746 C6.1735,12.1676 6.3095,12.1336 6.3805,12.2166 L7.8975,13.9886 Z" id="Fill-152" fill="#ED1C24" mask="url(#mask-4)"></path>
                    </g>
                    <g id="Group-157">
                        <mask id="mask-6" fill="white">
                            <use xlink:href="#path-5"></use>
                        </mask>
                        <g id="Clip-156"></g>
                        <path d="M19.4176,16.6525 C19.4306,16.6945 19.4636,16.7265 19.5046,16.7395 L21.7306,17.4355 C21.8356,17.4675 21.8566,17.6065 21.7676,17.6695 L19.8616,19.0135 C19.8256,19.0385 19.8046,19.0795 19.8056,19.1225 L19.8316,21.4545 C19.8336,21.5645 19.7086,21.6275 19.6206,21.5615 L17.7536,20.1645 C17.7186,20.1385 17.6736,20.1315 17.6316,20.1455 L15.4226,20.8915 C15.3186,20.9265 15.2196,20.8265 15.2546,20.7235 L16.0066,18.5155 C16.0206,18.4745 16.0136,18.4285 15.9876,18.3945 L14.5956,16.5225 C14.5306,16.4355 14.5946,16.3105 14.7036,16.3115 L17.0356,16.3455 C17.0796,16.3455 17.1206,16.3245 17.1456,16.2895 L18.4946,14.3875 C18.5576,14.2975 18.6966,14.3195 18.7286,14.4245 L19.4176,16.6525 Z" id="Fill-155" fill="#ED1C24" mask="url(#mask-6)"></path>
                    </g>
                    <g id="Group-160">
                        <mask id="mask-8" fill="white">
                            <use xlink:href="#path-7"></use>
                        </mask>
                        <g id="Clip-159"></g>
                        <path d="M19.3877,4.9364 C19.4037,4.9774 19.4387,5.0074 19.4807,5.0164 L21.7537,5.5434 C21.8597,5.5684 21.8917,5.7044 21.8077,5.7744 L20.0077,7.2574 C19.9737,7.2854 19.9557,7.3274 19.9597,7.3704 L20.1617,9.6944 C20.1707,9.8034 20.0507,9.8754 19.9587,9.8174 L17.9917,8.5634 C17.9547,8.5404 17.9097,8.5364 17.8697,8.5534 L15.7217,9.4624 C15.6207,9.5054 15.5147,9.4144 15.5417,9.3074 L16.1267,7.0504 C16.1377,7.0084 16.1267,6.9634 16.0987,6.9304 L14.5697,5.1684 C14.4977,5.0864 14.5527,4.9574 14.6617,4.9504 L16.9897,4.8084 C17.0327,4.8054 17.0727,4.7824 17.0947,4.7444 L18.2977,2.7464 C18.3537,2.6524 18.4937,2.6644 18.5337,2.7664 L19.3877,4.9364 Z" id="Fill-158" fill="#ED1C24" mask="url(#mask-8)"></path>
                    </g>
                    <g id="Group-163">
                        <mask id="mask-10" fill="white">
                            <use xlink:href="#path-9"></use>
                        </mask>
                        <g id="Clip-162"></g>
                        <path d="M11.6552,26.4703 C11.6782,26.5073 11.7182,26.5303 11.7612,26.5323 L14.0922,26.6223 C14.2012,26.6263 14.2582,26.7543 14.1882,26.8393 L12.6992,28.6333 C12.6712,28.6673 12.6612,28.7123 12.6732,28.7543 L13.3072,30.9983 C13.3372,31.1033 13.2332,31.1973 13.1312,31.1573 L10.9642,30.2953 C10.9242,30.2793 10.8782,30.2843 10.8422,30.3083 L8.9032,31.6043 C8.8122,31.6653 8.6912,31.5953 8.6982,31.4863 L8.8482,29.1593 C8.8512,29.1153 8.8322,29.0733 8.7982,29.0463 L6.9662,27.6033 C6.8802,27.5353 6.9092,27.3983 7.0152,27.3713 L9.2752,26.7953 C9.3172,26.7843 9.3512,26.7533 9.3662,26.7123 L10.1722,24.5243 C10.2102,24.4213 10.3492,24.4073 10.4082,24.4993 L11.6552,26.4703 Z" id="Fill-161" fill="#ED1C24" mask="url(#mask-10)"></path>
                    </g>
                    <g id="Group-166">
                        <mask id="mask-12" fill="white">
                            <use xlink:href="#path-11"></use>
                        </mask>
                        <g id="Clip-165"></g>
                        <path d="M27.1467,22.879 L28.3937,24.85 C28.4167,24.887 28.4567,24.91 28.4997,24.912 L30.8307,25.002 C30.9397,25.006 30.9967,25.134 30.9267,25.219 L29.4377,27.013 C29.4097,27.047 29.3997,27.092 29.4117,27.134 L30.0457,29.378 C30.0757,29.483 29.9717,29.577 29.8697,29.537 L27.7027,28.675 C27.6627,28.659 27.6167,28.663 27.5807,28.688 L25.6417,29.984 C25.5507,30.045 25.4297,29.975 25.4367,29.866 L25.5867,27.539 C25.5897,27.495 25.5707,27.453 25.5367,27.426 L23.7047,25.983 C23.6187,25.915 23.6477,25.778 23.7537,25.751 L26.0137,25.175 C26.0557,25.164 26.0897,25.133 26.1047,25.092 L26.9107,22.904 C26.9487,22.801 27.0877,22.787 27.1467,22.879" id="Fill-164" fill="#ED1C24" mask="url(#mask-12)"></path>
                    </g>
                </g>
            </g>
        </g>
    </g>
</svg>