<?xml version="1.0" encoding="UTF-8"?>
<svg width="146px" height="44px" viewBox="0 0 146 44" version="1.1" xmlns="http://www.w3.org/2000/svg" xmlns:xlink="http://www.w3.org/1999/xlink">
    <!-- Generator: Sketch 53.1 (72631) - https://sketchapp.com -->
    <title>Group 181Sand bucket</title>
    <desc>Created with Sketch.</desc>
    <defs>
        <path d="M0.843,24.035 L0.843,0.869 C0.843,0.869 8.077,5.235 20.053,4.46" id="path-1"></path>
        <linearGradient x1="-128.379976%" y1="35.6686191%" x2="187.690516%" y2="67.1235755%" id="linearGradient-3">
            <stop stop-color="#FFFFFF" offset="0%"></stop>
            <stop stop-color="#FFFFFF" offset="100%"></stop>
        </linearGradient>
    </defs>
    <g id="Page-1" stroke="none" stroke-width="1" fill="none" fill-rule="evenodd">
        <g id="Artboard" transform="translate(-1157.000000, -666.000000)">
            <g id="Group-181" transform="translate(1157.000000, 665.730000)">
                <path d="M92.3788,34.9649 C92.3788,34.9649 92.2228,7.7929 92.4998,6.1829 C92.7768,4.5759 106.5318,2.4059 118.3708,3.3709 C130.2048,4.3309 139.0578,9.1589 139.0578,10.9259 C139.0578,12.6929 131.0578,41.5359 131.0578,41.5359 C131.0578,41.5359 125.0018,40.1859 117.2458,43.7399 C117.2458,43.7399 108.8088,44.3029 92.3788,34.9649" id="Fill-168" fill="#82BB25"></path>
                <path d="M92.5001,6.1832 C92.5001,6.1832 94.4271,9.9252 115.6991,12.0192 C136.9681,14.1222 139.7001,11.1042 138.7171,10.2132 C137.7351,9.3162 132.5201,3.9712 112.7851,3.1322 C95.1841,2.3882 92.5481,5.5552 92.5001,6.1832" id="Fill-170" fill="#2C9432"></path>
                <path d="M117.5135,19.7016 C117.5135,21.3606 115.8995,22.7096 113.9115,22.7096 C111.9275,22.7096 110.3135,21.3606 110.3135,19.7016 C110.3135,18.0416 111.9275,16.6926 113.9115,16.6926 C115.8995,16.6926 117.5135,18.0416 117.5135,19.7016" id="Fill-172" fill="#2C9432"></path>
                <path d="M143.1779,23.485 C141.3909,20.53 138.5209,17.327 137.8019,16.473 C137.6249,17.164 137.4979,17.682 137.3309,18.328 C141.1249,22.986 145.9369,30.502 143.4239,32.819 C141.9089,34.221 131.9159,30.89 114.4509,19.139 C114.0819,18.892 113.5419,18.941 113.2419,19.251 C112.9469,19.561 113.0029,20.012 113.3749,20.261 C113.4389,20.302 119.9749,24.692 126.9419,28.548 C135.4899,33.279 139.8629,34.592 142.2489,34.592 C143.5269,34.592 144.2329,34.218 144.6979,33.785 C146.6979,31.945 146.1869,28.479 143.1779,23.485" id="Fill-174" fill="#53697F"></path>
                <g id="Group-178" transform="translate(93.000000, 9.000000)">
                    <mask id="mask-2" fill="white">
                        <use xlink:href="#path-1"></use>
                    </mask>
                    <g id="Clip-177"></g>
                    <path d="M0.843,24.035 L0.843,0.869 C0.843,0.869 8.077,5.235 20.053,4.46 C20.053,4.46 2.994,4.46 0.843,24.035" id="Fill-176" fill="url(#linearGradient-3)" mask="url(#mask-2)"></path>
                </g>
                <path d="M2.1105,8.1494 C1.1185,4.9604 -0.1815,1.4884 2.1105,0.9074 C4.4015,0.3254 7.7865,1.9904 8.9835,5.3224 C10.1765,8.6464 13.8645,20.1304 14.4645,20.0464 C15.0605,19.9674 19.5435,17.1344 21.9335,22.1284 C24.3225,27.1234 25.3935,28.9244 26.1165,30.6124 C27.1105,32.9464 25.0265,35.3364 22.5285,31.6154 C20.0375,27.8984 16.3305,22.5294 17.1505,25.2424 C17.9755,27.9514 21.6385,35.6614 18.9475,36.5204 C16.2535,37.3784 12.0705,26.7064 10.0805,27.2084 C8.0875,27.7054 14.7485,38.8064 12.2885,39.7884 C9.8205,40.7764 8.1855,39.6904 5.4945,31.3654 C2.8085,23.0454 8.9835,23.7114 8.1855,21.6304 C7.3905,19.5484 3.1625,11.5334 2.1105,8.1494" id="Fill-179" fill="#D94E95"></path>
            </g>
        </g>
    </g>
</svg>