<?xml version="1.0" encoding="UTF-8"?>
<svg width="107px" height="187px" viewBox="0 0 107 187" version="1.1" xmlns="http://www.w3.org/2000/svg" xmlns:xlink="http://www.w3.org/1999/xlink">
    <!-- Generator: Sketch 53.1 (72631) - https://sketchapp.com -->
    <title>Group 8tree</title>
    <desc>Created with Sketch.</desc>
    <g id="Page-1" stroke="none" stroke-width="1" fill="none" fill-rule="evenodd">
        <g id="Artboard" transform="translate(-275.000000, -427.000000)">
            <g id="Group-8" transform="translate(275.000100, 427.351400)">
                <path d="M85.78,74.0471 C84.644,73.9971 83.545,74.1191 82.485,74.3461 L82.194,74.3331 C78.785,66.2031 70.945,60.3231 61.552,59.9131 C52.161,59.5031 43.846,64.6791 39.742,72.4811 L37.04,72.3631 C30.069,72.0581 24.173,77.4611 23.869,84.4321 C23.86,84.6511 23.872,84.8641 23.874,85.0811 C23.852,85.2961 23.822,85.5071 23.813,85.7251 L23.878,85.7281 C24.022,88.2021 24.888,90.4911 26.267,92.3931 C28.452,95.4031 35.781,101.1621 39.785,101.3371 L85.089,99.7491 C89.674,99.9491 93.787,97.6731 96.157,94.1131 C97.164,92.6001 97.864,90.8591 98.139,88.9691 C98.2,88.5451 98.242,88.1151 98.261,87.6791 C98.261,87.6771 98.261,87.6751 98.261,87.6731 C98.261,87.6711 98.261,87.6691 98.262,87.6671 C98.576,80.4591 92.987,74.3621 85.78,74.0471" id="Fill-1" fill="#587526"></path>
                <path d="M58.5367,27.0027 C57.6787,26.9657 56.8487,27.0567 56.0487,27.2287 L55.8287,27.2187 C53.2537,21.0787 47.3317,16.6367 40.2367,16.3267 C33.1437,16.0177 26.8637,19.9267 23.7637,25.8197 L21.7227,25.7307 C16.4577,25.5007 12.0037,29.5817 11.7747,34.8467 C11.7667,35.0117 11.7767,35.1727 11.7777,35.3367 C11.7617,35.4987 11.7387,35.6577 11.7317,35.8227 L11.7807,35.8247 C11.8897,37.6937 12.5437,39.4227 13.5857,40.8587 C15.2357,43.1327 20.7717,47.4827 23.7957,47.6147 L58.0147,46.4157 C61.4787,46.5667 64.5847,44.8477 66.3747,42.1587 C67.1347,41.0157 67.6637,39.7007 67.8717,38.2727 C67.9177,37.9537 67.9497,37.6287 67.9637,37.2987 C67.9637,37.2977 67.9637,37.2967 67.9637,37.2947 C67.9637,37.2927 67.9637,37.2917 67.9647,37.2897 C68.2017,31.8457 63.9807,27.2407 58.5367,27.0027" id="Fill-3" fill="#587526"></path>
                <path d="M70.5498,82.975 L70.5498,80.605 C75.7108,80.605 78.2678,80.151 79.3738,79.038 C80.4648,77.941 80.4508,75.684 80.4318,72.268 C80.4288,71.779 80.4258,71.266 80.4258,70.73 L82.7958,70.73 C82.7958,71.261 82.7988,71.769 82.8008,72.254 C82.8248,76.264 82.8408,78.913 81.0548,80.709 C79.4128,82.361 76.5658,82.975 70.5498,82.975" id="Fill-5" fill="#D36C39"></path>
                <path d="M75.1234,19.1132 C74.4824,19.1132 73.8674,19.2082 73.2764,19.3622 L73.1124,19.3622 C70.9934,14.8702 66.4354,11.7522 61.1384,11.7532 C55.8424,11.7532 51.2894,14.8702 49.1704,19.3632 L47.6464,19.3632 C43.7154,19.3632 40.5294,22.5492 40.5294,26.4802 C40.5294,26.6042 40.5414,26.7242 40.5474,26.8462 C40.5404,26.9672 40.5294,27.0872 40.5294,27.2102 L40.5654,27.2102 C40.7074,28.5992 41.2514,29.8662 42.0744,30.9032 C43.3784,32.5432 45.3884,33.5982 47.6464,33.5982 L75.3664,33.5982 C77.9514,33.5972 80.2104,32.2162 81.4574,30.1532 C81.9874,29.2772 82.3384,28.2792 82.4464,27.2092 C82.4704,26.9692 82.4834,26.7262 82.4834,26.4792 L82.4834,26.4762 L82.4834,26.4732 C82.4834,22.4082 79.1884,19.1132 75.1234,19.1132" id="Fill-7" fill="#587526"></path>
                <path d="M39.9833,128.3742 C31.1473,128.3742 26.7983,128.2242 23.9983,126.7192 C20.1703,124.6622 20.1353,120.7552 20.0813,114.8412 C20.0703,113.6142 20.0583,112.2232 20.0173,110.7002 L24.7003,110.5722 C24.7433,112.1372 24.7563,113.5512 24.7673,114.7992 C24.8173,120.4212 24.9663,121.9202 26.2163,122.5922 C28.3023,123.7132 33.9403,123.7022 43.2753,123.6842 C44.5773,123.6822 45.9603,123.6792 47.4313,123.6792 L47.4313,128.3652 C45.9643,128.3652 44.5833,128.3672 43.2833,128.3702 C42.1193,128.3722 41.0193,128.3742 39.9833,128.3742" id="Fill-9" fill="#965238"></path>
                <path d="M39.2784,84.9321 C29.0654,84.9321 24.0684,84.7431 20.7984,82.6741 C16.6374,80.0411 16.5064,75.2301 16.2874,67.2581 L20.9704,67.1301 C21.1794,74.7501 21.4214,77.5231 23.3034,78.7141 C25.7684,80.2741 31.7794,80.2621 42.6904,80.2421 C44.0024,80.2401 45.3874,80.2371 46.8494,80.2371 L46.8494,84.9231 C45.3904,84.9231 44.0084,84.9251 42.6994,84.9281 C41.4984,84.9301 40.3584,84.9321 39.2784,84.9321" id="Fill-11" fill="#965238"></path>
                <path d="M56.3294,93.6131 L56.3294,88.9281 C62.0384,88.9281 65.4664,88.1481 67.1174,86.4731 C69.1284,84.4351 69.0694,80.2511 68.9894,74.4601 C68.9584,72.2811 68.9244,69.8111 68.9984,67.1301 L73.6814,67.2581 C73.6114,69.8421 73.6444,72.2611 73.6744,74.3951 C73.7664,81.0631 73.8394,86.3301 70.4534,89.7631 C67.8284,92.4261 63.4724,93.6131 56.3294,93.6131" id="Fill-13" fill="#965238"></path>
                <path d="M46.8278,57.2719 L46.8278,52.5869 C53.2038,52.5869 56.6858,51.9379 58.1198,50.4829 C59.6108,48.9699 59.5618,45.6549 59.4878,40.6359 C59.4568,38.5299 59.4218,36.1429 59.4968,33.4409 L64.1798,33.5689 C64.1088,36.1729 64.1428,38.5069 64.1728,40.5669 C64.2608,46.5439 64.3238,50.8619 61.4568,53.7719 C58.9748,56.2909 54.8728,57.2719 46.8278,57.2719" id="Fill-15" fill="#D36C39"></path>
                <path d="M48.4294,35.5538 C41.5074,35.5538 37.3184,34.4368 34.8484,31.9318 C31.6854,28.7248 31.7534,23.8528 31.8474,17.1088 C31.8764,14.9678 31.9104,12.5408 31.8394,9.9408 L34.9984,9.8538 C35.0714,12.5188 35.0374,14.9808 35.0074,17.1528 C34.9244,23.1288 34.8644,27.4468 37.0974,29.7128 C38.9024,31.5418 42.5024,32.3938 48.4294,32.3938 L48.4294,35.5538 Z" id="Fill-17" fill="#D36C39"></path>
                <path d="M50.3527,86.9046 L43.8207,86.9046 L43.8207,184.6106 C43.8207,184.6106 44.1817,185.7406 49.2367,185.7406 C50.6917,185.7406 50.3527,184.6106 50.3527,184.6106 L50.3527,86.9046 Z" id="Fill-19" fill="#965238"></path>
                <path d="M96.0577,54.2013 L91.4257,54.2013 C90.4897,48.9043 87.3457,44.3793 82.9897,41.5773 C80.0457,39.6843 76.5517,38.5723 72.7887,38.5723 C69.1397,38.5723 65.7437,39.6213 62.8527,41.4093 C58.9847,34.2743 51.4297,29.4293 42.7427,29.4293 C32.1547,29.4293 23.2777,36.6403 20.6807,46.4103 L15.5307,46.4103 C7.8317,46.4103 1.5937,52.6503 1.5937,60.3503 C1.5937,64.9393 3.8217,68.9983 7.2457,71.5393 C9.5627,73.2583 12.4227,74.2883 15.5307,74.2883 L56.9437,74.2883 L69.8177,74.2883 L96.0577,74.2883 C101.6037,74.2883 106.1007,69.7913 106.1007,64.2453 C106.1007,58.6983 101.6037,54.2013 96.0577,54.2013" id="Fill-21" fill="#7DA81E"></path>
                <path d="M53.4595,8.981 L49.3365,8.981 C49.1335,7.394 48.5685,5.92 47.7295,4.644 C45.8915,1.847 42.7305,0 39.1335,0 C35.1955,0 31.7855,2.216 30.0535,5.461 L29.0335,5.461 C28.5935,5.39 28.1455,5.342 27.6845,5.342 C27.2125,5.342 26.7535,5.389 26.3015,5.461 L25.7195,5.461 C21.5355,5.461 18.1455,8.851 18.1455,13.033 C18.1455,15.804 19.6385,18.221 21.8605,19.541 C22.9915,20.212 24.3075,20.605 25.7195,20.605 L30.8255,20.605 L34.8435,20.605 L53.4595,20.605 C56.6685,20.605 59.2705,18.003 59.2705,14.793 C59.2705,11.582 56.6685,8.981 53.4595,8.981" id="Fill-23" fill="#7DA81E"></path>
                <path d="M61.967,91.9654 C60.831,91.9154 59.732,92.0374 58.672,92.2644 L58.381,92.2514 C54.972,84.1214 47.132,78.2414 37.739,77.8314 C28.348,77.4214 20.033,82.5974 15.929,90.3994 L13.227,90.2814 C6.256,89.9764 0.361,95.3794 0.056,102.3504 C0.047,102.5694 0.059,102.7824 0.061,102.9994 C0.039,103.2144 0.009,103.4254 2.84217094e-14,103.6434 L0.065,103.6464 C0.209,106.1204 1.852,117.6674 15.972,117.6674 L61.277,117.6674 C65.862,117.8674 69.974,115.5914 72.344,112.0314 C73.351,110.5184 74.051,108.7774 74.326,106.8874 C74.387,106.4634 74.429,106.0334 74.448,105.5974 C74.448,105.5954 74.448,105.5934 74.448,105.5914 C74.448,105.5894 74.449,105.5874 74.449,105.5854 C74.763,98.3774 69.175,92.2794 61.967,91.9654" id="Fill-25" fill="#7DA81E"></path>
            </g>
        </g>
    </g>
</svg>