<?xml version="1.0" encoding="UTF-8"?>
<svg width="145px" height="80px" viewBox="0 0 145 80" version="1.1" xmlns="http://www.w3.org/2000/svg" xmlns:xlink="http://www.w3.org/1999/xlink">
    <!-- Generator: Sketch 53.1 (72631) - https://sketchapp.com -->
    <title>Group 941</title>
    <desc>Created with Sketch.</desc>
    <defs>
        <polygon id="path-1" points="0 0.314224257 144.624968 0.314224257 144.624968 79.3294885 0 79.3294885"></polygon>
    </defs>
    <g id="Page-1" stroke="none" stroke-width="1" fill="none" fill-rule="evenodd">
        <g id="Group-94">
            <g id="Group-38">
                <mask id="mask-2" fill="white">
                    <use xlink:href="#path-1"></use>
                </mask>
                <g id="Clip-37"></g>
                <path d="M141.9058,22.8903 C137.5658,24.5523 134.0828,27.5913 129.5248,28.9533 C126.3228,29.9103 122.9138,30.3273 119.5708,30.0713 C105.6008,16.8073 86.4968,10.2573 68.0808,5.4133 C47.6808,0.0483 18.4718,-5.9747 4.5808,15.3143 C-6.7122,32.6223 4.5608,55.1653 20.0908,65.3193 C29.7248,71.6193 41.0728,74.7503 52.3138,76.6633 C64.1188,78.6723 76.4568,80.1953 88.4088,78.7733 C99.7838,77.4203 110.6598,72.9563 117.7858,63.6873 C120.2488,60.4843 122.5758,50.9233 123.7248,47.1573 C134.6528,42.6253 141.5108,31.7163 143.4098,27.2383 C143.7518,26.8103 144.0748,26.3733 144.3558,25.9163 C145.2858,24.4093 143.6438,22.2243 141.9058,22.8903" id="Fill-36" fill="#FFFDFE" mask="url(#mask-2)"></path>
            </g>
            <path d="M55.147,60.8263 C54.28,60.8263 53.846,60.2593 53.846,59.1263 C53.846,52.6263 53.696,46.6103 53.397,41.0763 C52.479,40.9103 51.622,40.8263 50.821,40.8263 C50.022,40.8263 49.305,40.9603 48.672,41.2263 C48.672,43.1263 48.813,46.0013 49.096,49.8513 C49.379,53.7013 49.522,56.6103 49.522,58.5763 C49.522,58.9093 49.422,59.2183 49.221,59.5013 C49.022,59.7843 48.754,59.9263 48.422,59.9263 C47.489,59.9433 46.805,57.0183 46.372,51.1513 C45.788,43.2013 45.497,33.5853 45.497,22.3023 C45.497,21.6853 45.788,21.3763 46.372,21.3763 C46.688,21.3763 47.03,21.4643 47.397,21.6393 C47.762,21.8143 48.022,22.0013 48.172,22.2013 C48.055,23.4183 47.997,24.7013 47.997,26.0523 L48.346,36.5763 L48.297,38.5013 C48.297,38.9853 48.331,39.4263 48.397,39.8263 L53.372,39.4513 L53.172,22.6523 L53.172,21.3023 C54.471,21.3023 55.247,21.8853 55.497,23.0523 C55.612,23.6183 55.67,25.0603 55.67,27.3763 C55.67,29.6933 55.834,34.6063 56.159,42.1143 C56.483,49.6223 56.647,55.2433 56.647,58.9763 C56.647,59.4263 56.504,59.8473 56.221,60.2393 C55.938,60.6303 55.579,60.8263 55.147,60.8263" id="Fill-39" fill="#FFFDFE"></path>
            <path d="M65.6724,24.0016 L64.7724,23.9766 C64.4384,23.9766 64.1924,24.0476 64.0334,24.1886 C63.8754,24.3316 63.7974,24.6106 63.7974,25.0266 C63.7974,28.3606 64.0044,33.3516 64.4224,40.0016 C64.8384,46.6516 65.0474,51.6436 65.0474,54.9766 L65.0474,56.9516 C65.3974,56.9016 65.7464,56.8766 66.0964,56.8766 C67.5124,56.8766 68.2214,57.4766 68.2214,58.6766 L68.2214,58.9766 L66.9454,59.8516 L63.4714,59.9766 C60.5224,59.9766 59.0474,59.4686 59.0474,58.4516 C59.0474,57.6346 59.5634,57.2266 60.5964,57.2266 L61.6724,57.3016 C62.1724,57.3016 62.4224,56.9016 62.4224,56.1016 C62.4224,53.4686 62.2624,49.5226 61.9454,44.2646 C61.6294,39.0056 61.4714,35.0606 61.4714,32.4266 L61.5704,27.2016 C61.5704,26.1016 61.5294,25.1516 61.4454,24.3516 C60.9964,24.5016 60.5964,24.5766 60.2464,24.5766 C59.4454,24.5766 59.0474,24.1686 59.0474,23.3516 C59.0474,22.9356 59.3054,22.5726 59.8204,22.2646 C60.3384,21.9566 60.9794,21.7356 61.7464,21.6016 C63.1804,21.3516 64.2424,21.2266 64.9344,21.2266 C65.6254,21.2266 66.1214,21.3646 66.4224,21.6396 C66.7214,21.9146 66.8714,22.2396 66.8714,22.6146 C66.8714,22.9896 66.7584,23.3146 66.5334,23.5896 C66.3094,23.8646 66.0224,24.0016 65.6724,24.0016" id="Fill-41" fill="#FFFDFE"></path>
            <path d="M73.4966,46.4767 L73.5456,48.9017 C73.5456,51.2347 73.2286,52.4017 72.5966,52.4017 C72.2466,52.4017 71.9246,51.9847 71.6336,51.1517 C71.3426,50.3187 71.1956,49.2687 71.1956,48.0017 L71.3966,39.5267 L71.1466,22.7267 C71.1466,22.1937 71.3716,21.7307 71.8206,21.3397 C72.2716,20.9477 72.7216,20.7517 73.1706,20.7517 C73.6216,20.7517 73.9676,20.8727 74.2096,21.1147 C74.4496,21.3557 74.5706,21.6517 74.5706,22.0017 C74.5706,24.7357 74.3916,28.8187 74.0336,34.2517 C73.6746,39.6847 73.4966,43.7607 73.4966,46.4767 M74.1956,59.4017 C74.1956,60.6017 73.3536,61.2017 71.6706,61.2017 C71.2876,61.2017 70.9086,61.0217 70.5336,60.6637 C70.1586,60.3057 69.9716,59.8307 69.9716,59.2387 C69.9716,58.6477 70.1806,58.1137 70.5966,57.6387 C71.0126,57.1637 71.5296,56.9267 72.1466,56.9267 C72.7626,56.9267 73.2586,57.1677 73.6336,57.6517 C74.0086,58.1347 74.1956,58.7187 74.1956,59.4017" id="Fill-43" fill="#FFFDFE"></path>
            <path d="M136.7164,26.7291 C127.8204,32.4021 127.2084,32.6311 116.3224,32.3521 C103.6124,19.4671 85.6944,13.2991 68.4594,8.7661 C50.0484,3.9231 23.6864,-1.5129 11.1484,17.7031 C0.9554,33.3241 11.1304,53.6701 25.1474,62.8351 C33.8424,68.5211 44.0844,71.3461 54.2304,73.0731 C64.8844,74.8861 76.0204,76.2611 86.8074,74.9781 C97.0734,73.7561 106.8904,69.7281 113.3214,61.3621 C115.5444,58.4701 117.6454,49.8411 118.6824,46.4421 C131.6454,41.0671 138.2724,25.7371 136.7164,26.7291" id="Fill-45" fill="#00EBAA"></path>
            <path d="M39.8834,5.1998 C28.4764,5.1998 18.3684,8.4668 11.9864,18.2488 C2.4694,32.8348 11.3914,52.6458 25.6944,61.9978 C33.0344,66.7978 42.1544,70.0038 54.3984,72.0878 C64.2134,73.7578 75.7264,75.2908 86.6894,73.9848 C94.5554,73.0488 105.4244,69.9938 112.5294,60.7528 C114.2094,58.5668 115.9654,52.3398 117.0144,48.6188 C117.2864,47.6548 117.5264,46.8058 117.7264,46.1508 L117.8634,45.6998 L118.2994,45.5188 C127.4154,41.7388 133.1494,32.9858 135.1474,28.9068 C127.8894,33.4498 126.3934,33.6108 116.2974,33.3508 L115.8944,33.3408 L115.6114,33.0538 C102.8724,20.1408 84.4984,14.0188 68.2054,9.7338 C58.7574,7.2478 48.9124,5.1998 39.8834,5.1998 M77.9694,76.4748 C69.6484,76.4748 61.3864,75.3048 54.0624,74.0588 C41.5394,71.9278 32.1774,68.6268 24.6004,63.6718 C9.4884,53.7918 0.1414,32.7418 10.3104,17.1568 C22.4414,-1.4352 46.6394,1.9928 68.7134,7.7988 C85.1494,12.1218 103.6864,18.3028 116.7494,31.3628 C126.9814,31.6188 127.4524,31.4498 136.1784,25.8858 C136.5734,25.6348 137.0284,25.6178 137.3934,25.8348 C137.5734,25.9428 137.9874,26.2728 137.9354,27.0048 C137.7794,29.1598 131.1454,42.0998 119.5054,47.1788 C119.3384,47.7458 119.1494,48.4188 118.9394,49.1618 C117.7114,53.5158 116.0294,59.4798 114.1144,61.9708 C108.1544,69.7228 98.7534,74.5638 86.9254,75.9708 C83.9594,76.3238 80.9604,76.4748 77.9694,76.4748" id="Fill-49" fill="#000000"></path>
            <path d="M56.2505,57.1803 C55.5645,57.1803 55.2215,56.7313 55.2215,55.8343 C55.2215,50.6873 55.1045,45.9243 54.8655,41.5433 C54.1395,41.4113 53.4595,41.3453 52.8265,41.3453 C52.1935,41.3453 51.6255,41.4513 51.1255,41.6613 C51.1255,43.1663 51.2365,45.4423 51.4615,48.4903 C51.6865,51.5383 51.7975,53.8423 51.7975,55.3983 C51.7975,55.6623 51.7195,55.9073 51.5615,56.1313 C51.4005,56.3553 51.1895,56.4673 50.9265,56.4673 C50.1885,56.4813 49.6465,54.1653 49.3035,49.5193 C48.8425,43.2253 48.6115,35.6113 48.6115,26.6783 C48.6115,26.1893 48.8425,25.9453 49.3035,25.9453 C49.5535,25.9453 49.8245,26.0143 50.1155,26.1533 C50.4045,26.2913 50.6095,26.4403 50.7295,26.5983 C50.6375,27.5613 50.5905,28.5773 50.5905,29.6463 L50.8675,37.9803 L50.8285,39.5043 C50.8285,39.8873 50.8545,40.2363 50.9065,40.5533 L54.8465,40.2563 L54.6885,26.9543 L54.6885,25.8863 C55.7175,25.8863 56.3305,26.3473 56.5275,27.2713 C56.6215,27.7203 56.6665,28.8623 56.6665,30.6963 C56.6665,32.5303 56.7955,36.4193 57.0535,42.3643 C57.3115,48.3093 57.4395,52.7593 57.4395,55.7153 C57.4395,56.0723 57.3265,56.4053 57.1025,56.7153 C56.8775,57.0253 56.5945,57.1803 56.2505,57.1803" id="Fill-51" fill="#020202"></path>
            <path d="M64.5845,28.0236 L63.8715,28.0036 C63.6075,28.0036 63.4145,28.0606 63.2875,28.1716 C63.1625,28.2846 63.1005,28.5056 63.1005,28.8356 C63.1005,31.4746 63.2665,35.4266 63.5965,40.6916 C63.9245,45.9576 64.0905,49.9096 64.0905,52.5486 L64.0905,54.1116 C64.3675,54.0726 64.6455,54.0526 64.9225,54.0526 C66.0435,54.0526 66.6045,54.5276 66.6045,55.4776 L66.6045,55.7156 L65.5945,56.4086 L62.8425,56.5066 C60.5085,56.5066 59.3405,56.1046 59.3405,55.2996 C59.3405,54.6536 59.7485,54.3296 60.5665,54.3296 L61.4185,54.3896 C61.8135,54.3896 62.0125,54.0726 62.0125,53.4396 C62.0125,51.3546 61.8855,48.2306 61.6355,44.0666 C61.3855,39.9036 61.2605,36.7796 61.2605,34.6936 L61.3385,30.5576 C61.3385,29.6866 61.3055,28.9346 61.2405,28.3006 C60.8835,28.4196 60.5665,28.4786 60.2895,28.4786 C59.6565,28.4786 59.3405,28.1556 59.3405,27.5086 C59.3405,27.1796 59.5435,26.8926 59.9535,26.6486 C60.3615,26.4036 60.8695,26.2296 61.4775,26.1236 C62.6115,25.9256 63.4535,25.8266 64.0005,25.8266 C64.5495,25.8266 64.9415,25.9356 65.1785,26.1526 C65.4165,26.3706 65.5355,26.6276 65.5355,26.9246 C65.5355,27.2216 65.4455,27.4796 65.2685,27.6966 C65.0905,27.9146 64.8615,28.0236 64.5845,28.0236" id="Fill-53" fill="#020202"></path>
            <path d="M70.7798,45.8185 L70.8208,47.7385 C70.8208,49.5865 70.5688,50.5095 70.0668,50.5095 C69.7918,50.5095 69.5358,50.1795 69.3048,49.5195 C69.0748,48.8605 68.9598,48.0285 68.9598,47.0265 L69.1178,40.3155 L68.9208,27.0145 C68.9208,26.5915 69.0978,26.2255 69.4538,25.9155 C69.8108,25.6055 70.1668,25.4505 70.5218,25.4505 C70.8798,25.4505 71.1528,25.5465 71.3438,25.7375 C71.5358,25.9285 71.6318,26.1635 71.6318,26.4405 C71.6318,28.6045 71.4888,31.8375 71.2058,36.1395 C70.9228,40.4415 70.7798,43.6675 70.7798,45.8185 M71.3348,56.0515 C71.3348,57.0025 70.6688,57.4775 69.3348,57.4775 C69.0318,57.4775 68.7308,57.3355 68.4338,57.0515 C68.1368,56.7675 67.9888,56.3915 67.9888,55.9235 C67.9888,55.4555 68.1548,55.0325 68.4848,54.6565 C68.8128,54.2805 69.2228,54.0925 69.7118,54.0925 C70.1998,54.0925 70.5928,54.2835 70.8888,54.6665 C71.1858,55.0495 71.3348,55.5105 71.3348,56.0515" id="Fill-55" fill="#020202"></path>
        </g>
    </g>
</svg>