<?xml version="1.0" encoding="UTF-8"?>
<svg width="111px" height="132px" viewBox="0 0 111 132" version="1.1" xmlns="http://www.w3.org/2000/svg" xmlns:xlink="http://www.w3.org/1999/xlink">
    <!-- Generator: Sketch 53.1 (72631) - https://sketchapp.com -->
    <title>Group 63Sticker11</title>
    <desc>Created with Sketch.</desc>
    <g id="Page-1" stroke="none" stroke-width="1" fill="none" fill-rule="evenodd">
        <g id="Group-63" transform="translate(0.450322, 0.509900)">
            <path d="M90.9125784,56.412 C90.9405784,56.397 90.9825784,56.375 91.0195784,56.355 C91.5635784,56.074 92.1015784,55.778 92.6245784,55.472 C92.6565784,55.454 92.6895784,55.434 92.7225784,55.414 C100.010578,51.12 105.476578,44.319 108.971578,35.196 C111.281578,29.164 108.253578,22.377 102.221578,20.066 C101.419578,19.76 100.570578,19.541 99.6955784,19.415 C99.6685784,19.411 99.6415784,19.407 99.6135784,19.404 C99.0955784,19.333 98.5675784,19.297 98.0445784,19.297 C97.3065784,19.297 96.5605784,19.369 95.8315784,19.509 L95.7245784,19.528 C95.1245784,19.65 94.5355784,19.817 93.9695784,20.027 C93.9355784,20.039 93.8735784,20.063 93.8105784,20.088 C93.2165784,20.318 92.6775784,20.574 92.1645784,20.87 C92.1275784,20.891 92.0915784,20.913 92.0555784,20.936 C91.5825784,21.217 91.1315784,21.531 90.6985784,21.878 C90.6285784,21.932 90.5605784,21.986 90.4945784,22.042 C90.0985784,22.372 89.6765784,22.783 89.2745784,23.235 C89.2035784,23.315 89.1325784,23.395 89.0625784,23.479 C88.6925784,23.918 88.3485784,24.395 88.0485784,24.884 C87.9905784,24.979 87.9455784,25.057 87.9025784,25.135 C87.5695784,25.711 87.3045784,26.26 87.0915784,26.814 C86.9015784,27.309 86.6865784,27.818 86.4135784,28.417 C86.3585784,28.537 86.2975784,28.662 86.2355784,28.788 L86.1975784,28.866 C86.0315784,29.211 85.8565784,29.551 85.6745784,29.886 L85.5895784,30.04 C85.5395784,30.132 85.4905784,30.224 85.4385784,30.311 C85.1775784,30.763 84.9415784,31.14 84.7115784,31.475 L84.6505784,31.555 L84.4935784,31.766 C84.2795784,32.063 84.0895784,32.311 83.9045784,32.536 C83.7925784,32.671 83.6725784,32.806 83.5525784,32.939 C83.3915784,33.119 83.2305784,33.288 83.0665784,33.453 L82.9505784,33.569 C82.8655784,33.655 82.7805784,33.743 82.6915784,33.824 C82.4485784,34.048 82.1985784,34.259 81.9485784,34.454 C81.9115784,34.482 81.8625784,34.522 81.8165784,34.56 C81.1305784,35.077 80.3945784,35.51 79.6315784,35.848 C77.8235784,36.647 75.6545784,37.053 73.1845784,37.053 C70.4875784,37.053 67.8195784,36.581 65.5315784,35.989 C66.6585784,33 67.2445784,29.815 67.2445784,26.601 C67.2445784,11.933 55.3115784,2.84217094e-14 40.6435784,2.84217094e-14 C36.6545784,2.84217094e-14 32.8145784,0.864 29.2315784,2.568 C29.2145784,2.577 29.1955784,2.585 29.1785784,2.594 C28.6925784,2.826 28.1955784,3.085 27.6605784,3.386 C27.5835784,3.429 27.4965784,3.478 27.4095784,3.529 L27.3615784,3.557 C26.9275784,3.808 26.5015784,4.069 26.0995784,4.332 L25.9095784,4.454 C25.4515784,4.76 24.9895784,5.089 24.5395784,5.433 C24.4865784,5.473 24.4165784,5.528 24.3465784,5.584 L24.3035784,5.618 C23.9345784,5.904 23.5635784,6.21 23.2035784,6.524 L23.1475784,6.571 L22.9565784,6.738 C22.5245784,7.123 22.1195784,7.506 21.7465784,7.882 C21.6935784,7.936 21.6445784,7.988 21.5975784,8.039 C21.2655784,8.38 20.9325784,8.741 20.6055784,9.116 C20.5235784,9.209 20.4335784,9.312 20.3455784,9.417 C19.9645784,9.866 19.6235784,10.291 19.3125784,10.706 C19.3005784,10.724 19.2865784,10.742 19.2725784,10.761 C18.9815784,11.153 18.6855784,11.58 18.3695784,12.064 C18.2965784,12.177 18.2205784,12.296 18.1445784,12.415 C17.8745784,12.844 17.6185784,13.273 17.3885784,13.687 C17.3615784,13.73 17.3235784,13.798 17.2865784,13.866 C17.0435784,14.311 16.7995784,14.795 16.5485784,15.33 C16.5015784,15.43 16.4585784,15.527 16.4145784,15.624 L16.3795784,15.702 C16.1895784,16.123 16.0115784,16.551 15.8465784,16.974 L15.8165784,17.048 C15.7835784,17.132 15.7505784,17.216 15.7185784,17.301 C15.5255784,17.816 15.3475784,18.347 15.1865784,18.876 C15.1575784,18.973 15.1315784,19.065 15.1055784,19.158 L15.0835784,19.239 C14.9605784,19.663 14.8435784,20.115 14.7375784,20.57 L14.7155784,20.665 C14.6895784,20.773 14.6655784,20.88 14.6415784,20.988 C14.5175784,21.562 14.4185784,22.108 14.3375784,22.647 C14.3255784,22.727 14.3145784,22.81 14.3055784,22.894 C14.2365784,23.39 14.1825784,23.886 14.1415784,24.39 C14.1285784,24.544 14.1165784,24.693 14.1055784,24.843 C14.0625784,25.507 14.0435784,26.063 14.0435784,26.601 C14.0435784,28.128 14.1775784,29.663 14.4425784,31.182 C12.7825784,35.687 12.9615784,40.678 14.9735784,45.051 L15.5745784,46.357 C13.2825784,47.866 11.2195784,49.59 9.41157839,51.51 C2.07057839,59.306 -1.00042161,69.825 0.284578395,82.774 C0.544578395,85.393 1.64257839,87.785 3.45957839,89.692 C3.53457839,89.772 3.62157839,89.857 3.70857839,89.941 C3.92157839,90.15 4.13457839,90.348 4.35557839,90.536 C4.43257839,90.602 4.54257839,90.692 4.65557839,90.782 C4.87757839,90.959 5.11657839,91.135 5.36557839,91.303 C5.46457839,91.372 5.53957839,91.424 5.61557839,91.474 C6.33957839,91.934 7.06957839,92.299 7.82557839,92.583 C7.94957839,92.629 8.05357839,92.664 8.15657839,92.698 C8.45357839,92.8 8.73857839,92.886 9.01657839,92.956 C9.13457839,92.988 9.28257839,93.023 9.43357839,93.056 C9.68757839,93.112 9.97057839,93.163 10.2815784,93.207 C10.4355784,93.232 10.5585784,93.249 10.6825784,93.262 C11.1115784,93.309 11.5265784,93.333 11.9335784,93.333 C12.3085784,93.333 12.6975784,93.314 13.0925784,93.275 C16.2125784,92.967 19.0195784,91.464 21.0045784,89.042 C22.9875784,86.621 23.9095784,83.574 23.5995784,80.461 C23.0665784,75.086 23.7665784,71.139 25.7415784,68.447 L29.1155784,75.777 C30.5575784,78.908 32.8475784,81.552 35.7385784,83.423 C37.1795784,84.355 38.7425784,85.079 40.3865784,85.575 C40.4135784,85.583 40.4395784,85.591 40.4635784,85.598 C40.8005784,85.698 41.1545784,85.791 41.5455784,85.881 C41.5945784,85.894 41.6405784,85.905 41.6865784,85.916 C42.0485784,85.995 42.3825784,86.058 42.7745784,86.12 C42.8635784,86.137 42.9495784,86.151 43.0345784,86.163 C43.3045784,86.202 43.5745784,86.232 43.8455784,86.258 C43.4625784,91.653 42.0255784,95.797 39.4935784,98.85 C35.2785784,103.933 27.3375784,106.797 15.8885784,107.361 C12.7635784,107.515 9.88557839,108.877 7.78357839,111.196 C5.68357839,113.515 4.61057839,116.513 4.76557839,119.639 C4.78557839,120.059 4.83357839,120.495 4.91057839,120.968 C4.93057839,121.087 4.95157839,121.197 4.97457839,121.308 C4.97557839,121.313 4.98457839,121.353 4.98557839,121.359 C5.04957839,121.676 5.12357839,121.984 5.20657839,122.277 C5.24857839,122.422 5.28757839,122.556 5.33057839,122.686 C5.42457839,122.975 5.53857839,123.281 5.66557839,123.586 C5.71057839,123.699 5.75257839,123.8 5.79757839,123.899 C5.97057839,124.282 6.16657839,124.661 6.37457839,125.014 C6.38357839,125.028 6.39157839,125.042 6.39957839,125.057 C8.50457839,128.585 12.3585784,130.778 16.4585784,130.778 C16.6495784,130.778 16.8415784,130.772 17.0325784,130.764 C35.3235784,129.862 48.9455784,124.157 57.5285784,113.806 C63.8765784,106.153 67.1815784,96.208 67.3735784,84.213 C67.7265784,84.023 68.0765784,83.819 68.4215784,83.603 C72.6055784,85.046 76.0275784,87.095 78.6105784,89.709 C83.1005784,94.253 85.2495784,100.952 84.9975784,109.619 C84.8115784,116.076 89.9125784,121.482 96.3685784,121.669 C96.4525784,121.673 96.5825784,121.675 96.7125784,121.675 C97.1075784,121.675 97.5165784,121.654 97.9235784,121.612 C98.0675784,121.596 98.1785784,121.579 98.2875784,121.561 C98.5195784,121.53 98.8045784,121.488 99.1155784,121.423 C99.2275784,121.399 99.3315784,121.374 99.4345784,121.347 C99.4405784,121.346 99.4475784,121.344 99.4535784,121.343 C99.7345784,121.274 100.014578,121.2 100.286578,121.112 C100.387578,121.079 100.472578,121.049 100.557578,121.018 C100.855578,120.914 101.135578,120.806 101.401578,120.689 C101.484578,120.653 101.558578,120.618 101.631578,120.582 C101.921578,120.449 102.207578,120.302 102.481578,120.146 C102.513578,120.129 102.574578,120.093 102.640578,120.053 C102.940578,119.876 103.231578,119.687 103.508578,119.49 C103.515578,119.484 103.547578,119.461 103.555578,119.455 C106.538578,117.304 108.311578,113.966 108.418578,110.3 C108.862578,94.983 104.440578,82.515 95.2775784,73.241 C90.0315784,67.933 83.4335784,63.922 75.6415784,61.3 C75.5445784,61.059 75.4415784,60.822 75.3345784,60.588 L75.2655784,60.438 C80.2315784,60.207 84.8795784,59.145 89.1095784,57.274 C89.6885784,57.018 90.2785784,56.736 90.9125784,56.412" id="Fill-178" fill="#FFFFFF"></path>
            <path d="M45.6253784,82.0785 C40.3683784,82.0785 35.3383784,79.0795 32.9963784,73.9905 L18.8543784,43.2655 C15.6463784,36.2945 18.6973784,28.0435 25.6673784,24.8365 C32.6363784,21.6305 40.8893784,24.6775 44.0963784,31.6475 L58.2373784,62.3735 C61.4453784,69.3445 58.3963784,77.5965 51.4253784,80.8035 C49.5443784,81.6695 47.5683784,82.0785 45.6253784,82.0785" id="Fill-180" fill="#D3C59F"></path>
            <path d="M45.6253784,82.0785 C40.3683784,82.0785 35.3383784,79.0795 32.9963784,73.9905 L18.8543784,43.2655 C15.6463784,36.2945 18.6973784,28.0435 25.6673784,24.8365 C32.6363784,21.6305 40.8893784,24.6775 44.0963784,31.6475 L58.2373784,62.3735 C61.4453784,69.3445 58.3963784,77.5965 51.4253784,80.8035 C49.5443784,81.6695 47.5683784,82.0785 45.6253784,82.0785 Z" id="Stroke-182" stroke="#020202"></path>
            <g id="Group-188" transform="translate(18.549678, 23.490100)">
                <path d="M39.688,38.8833 L25.546,8.1573 C22.339,1.1873 14.086,-1.8597 7.118,1.3463 C3.928,2.8133 1.573,5.3413 0.249,8.3143 C2.385,9.6963 4.173,11.6693 5.315,14.1523 L19.458,44.8783 C21.199,48.6623 21.083,52.8183 19.51,56.3453 C21.752,57.7973 24.382,58.5883 27.076,58.5883 C29.019,58.5883 30.995,58.1793 32.876,57.3133 C39.846,54.1063 42.896,45.8543 39.688,38.8833" id="Fill-184" fill="#000000"></path>
                <path d="M39.688,38.8833 L25.546,8.1573 C22.339,1.1873 14.086,-1.8597 7.118,1.3463 C3.928,2.8133 1.573,5.3413 0.249,8.3143 C2.385,9.6963 4.173,11.6693 5.315,14.1523 L19.458,44.8783 C21.199,48.6623 21.083,52.8183 19.51,56.3453 C21.752,57.7973 24.382,58.5883 27.076,58.5883 C29.019,58.5883 30.995,58.1793 32.876,57.3133 C39.846,54.1063 42.896,45.8543 39.688,38.8833 Z" id="Stroke-186" stroke="#020202"></path>
            </g>
            <path d="M11.9339784,89.0614 C8.15397839,89.0614 4.91697839,86.1934 4.53697839,82.3524 C3.37797839,70.6874 6.06497839,61.2964 12.5219784,54.4384 C24.2259784,42.0064 44.3529784,42.7774 50.9689784,43.0384 C55.0769784,43.1954 58.2779784,46.6544 58.1199784,50.7604 C57.9609784,54.8684 54.4819784,58.0704 50.3959784,57.9114 C45.4549784,57.7214 30.4209784,57.1414 23.3609784,64.6414 C19.9369784,68.2764 18.6239784,73.5904 19.3489784,80.8834 C19.7549784,84.9714 16.7679784,88.6184 12.6769784,89.0234 C12.4279784,89.0474 12.1789784,89.0614 11.9339784,89.0614" id="Fill-189" fill="#FFF4CF"></path>
            <path d="M11.9339784,89.0614 C8.15397839,89.0614 4.91697839,86.1934 4.53697839,82.3524 C3.37797839,70.6874 6.06497839,61.2964 12.5219784,54.4384 C24.2259784,42.0064 44.3529784,42.7774 50.9689784,43.0384 C55.0769784,43.1954 58.2779784,46.6544 58.1199784,50.7604 C57.9609784,54.8684 54.4819784,58.0704 50.3959784,57.9114 C45.4549784,57.7214 30.4209784,57.1414 23.3609784,64.6414 C19.9369784,68.2764 18.6239784,73.5904 19.3489784,80.8834 C19.7549784,84.9714 16.7679784,88.6184 12.6769784,89.0234 C12.4279784,89.0474 12.1789784,89.0614 11.9339784,89.0614 Z" id="Stroke-191" stroke="#020202"></path>
            <path d="M53.9271784,43.7797 C54.9561784,45.1117 55.5431784,46.7977 55.4731784,48.6117 C55.3151784,52.7177 51.8351784,55.9187 47.7481784,55.7607 C42.8091784,55.5717 27.7751784,54.9897 20.7131784,62.4917 C17.2901784,66.1257 15.9791784,71.4407 16.7021784,78.7317 C17.1081784,82.8217 14.1201784,86.4677 10.0311784,86.8737 C9.78117839,86.8977 9.53217839,86.9107 9.28717839,86.9107 C8.13417839,86.9107 7.03217839,86.6407 6.04517839,86.1607 C7.41917839,87.9397 9.57017839,89.0617 11.9341784,89.0617 C12.1791784,89.0617 12.4281784,89.0477 12.6771784,89.0237 C16.7681784,88.6187 19.7551784,84.9717 19.3491784,80.8837 C18.6241784,73.5907 19.9371784,68.2767 23.3611784,64.6417 C30.4211784,57.1417 45.4551784,57.7207 50.3961784,57.9107 C54.4821784,58.0707 57.9611784,54.8687 58.1191784,50.7607 C58.2371784,47.7157 56.5051784,45.0297 53.9271784,43.7797" id="Fill-193" fill="#000000"></path>
            <path d="M73.1732784,56.2147 C65.4192784,56.2147 58.3452784,54.0667 53.8942784,52.3297 C50.0652784,50.8367 48.1722784,46.5197 49.6652784,42.6897 C51.1592784,38.8607 55.4742784,36.9667 59.3052784,38.4617 C63.2952784,40.0187 73.4342784,43.2607 81.3602784,39.7547 C85.6942784,37.8377 88.8742784,34.1047 91.0802784,28.3437 C92.5512784,24.5057 96.8572784,22.5887 100.693278,24.0557 C104.531278,25.5257 106.451278,29.8297 104.982278,33.6687 C101.336278,43.1857 95.4152784,49.8137 87.3812784,53.3677 C82.6802784,55.4467 77.8052784,56.2147 73.1732784,56.2147" id="Fill-195" fill="#FFF4CF"></path>
            <path d="M73.1732784,56.2147 C65.4192784,56.2147 58.3452784,54.0667 53.8942784,52.3297 C50.0652784,50.8367 48.1722784,46.5197 49.6652784,42.6897 C51.1592784,38.8607 55.4742784,36.9667 59.3052784,38.4617 C63.2952784,40.0187 73.4342784,43.2607 81.3602784,39.7547 C85.6942784,37.8377 88.8742784,34.1047 91.0802784,28.3437 C92.5512784,24.5057 96.8572784,22.5887 100.693278,24.0557 C104.531278,25.5257 106.451278,29.8297 104.982278,33.6687 C101.336278,43.1857 95.4152784,49.8137 87.3812784,53.3677 C82.6802784,55.4467 77.8052784,56.2147 73.1732784,56.2147 Z" id="Stroke-197" stroke="#020202"></path>
            <g id="Group-203" transform="translate(48.549678, 23.490100)" fill="#000000">
                <path d="M39.9214,13.2139 C44.2574,11.2969 47.4374,7.5639 49.6434,1.8029 C49.8724,1.2019 50.1794,0.6549 50.5364,0.1529 C47.1724,-0.3301 43.7984,1.5459 42.5304,4.8539 C40.8954,9.1259 38.7204,12.2759 35.9404,14.4039 C37.3004,14.1549 38.6414,13.7809 39.9214,13.2139" id="Fill-199"></path>
                <path d="M31.7359,29.6734 C23.9819,29.6734 16.9079,27.5264 12.4569,25.7884 C8.6279,24.2944 6.7339,19.9774 8.2289,16.1494 C8.4569,15.5654 8.7569,15.0314 9.1039,14.5434 C5.7569,14.0614 2.3979,15.9144 1.1159,19.1994 C-0.3771,23.0294 1.5149,27.3464 5.3439,28.8404 C9.7959,30.5764 16.8699,32.7244 24.6239,32.7244 C29.2559,32.7244 34.1309,31.9574 38.8319,29.8774 C39.9159,29.3984 40.9579,28.8574 41.9649,28.2674 C38.5319,29.2654 35.0709,29.6734 31.7359,29.6734" id="Fill-201"></path>
            </g>
            <path d="M16.4593784,126.5058 C12.5173784,126.5058 9.22737839,123.4088 9.03137839,119.4278 C8.82937839,115.3218 11.9933784,111.8308 16.0993784,111.6288 C28.7923784,111.0028 37.7703784,107.6228 42.7823784,101.5778 C50.1593784,92.6798 48.2383784,78.7308 47.2063784,71.2368 C46.9303784,69.2308 46.7113784,67.6458 46.6603784,66.2758 C46.5063784,62.1688 49.7103784,58.7138 53.8183784,58.5578 C57.8973784,58.4278 61.3813784,61.6088 61.5353784,65.7158 C61.5593784,66.3488 61.7593784,67.7998 61.9523784,69.2068 C63.2013784,78.2718 65.8003784,97.1398 54.2403784,111.0788 C46.4533784,120.4708 33.8663784,125.6568 16.8313784,126.4958 C16.7073784,126.5018 16.5823784,126.5058 16.4593784,126.5058" id="Fill-204" fill="#FFF4CF"></path>
            <path d="M16.4593784,126.5058 C12.5173784,126.5058 9.22737839,123.4088 9.03137839,119.4278 C8.82937839,115.3218 11.9933784,111.8308 16.0993784,111.6288 C28.7923784,111.0028 37.7703784,107.6228 42.7823784,101.5778 C50.1593784,92.6798 48.2383784,78.7308 47.2063784,71.2368 C46.9303784,69.2308 46.7113784,67.6458 46.6603784,66.2758 C46.5063784,62.1688 49.7103784,58.7138 53.8183784,58.5578 C57.8973784,58.4278 61.3813784,61.6088 61.5353784,65.7158 C61.5593784,66.3488 61.7593784,67.7998 61.9523784,69.2068 C63.2013784,78.2718 65.8003784,97.1398 54.2403784,111.0788 C46.4533784,120.4708 33.8663784,125.6568 16.8313784,126.4958 C16.7073784,126.5018 16.5823784,126.5058 16.4593784,126.5058 Z" id="Stroke-206" stroke="#020202"></path>
            <path d="M17.0912784,116.2597 C29.7842784,115.6337 38.7622784,112.2527 43.7752784,106.2097 C51.1522784,97.3117 49.2312784,83.3627 48.1982784,75.8687 C47.9232784,73.8627 47.7032784,72.2787 47.6532784,70.9077 C47.4982784,66.7997 50.7032784,63.3447 54.8112784,63.1897 C57.7612784,63.0937 60.3932784,64.7367 61.6852784,67.2037 C61.6062784,66.5717 61.5482784,66.0377 61.5352784,65.7157 C61.3812784,61.6087 57.8982784,58.4277 53.8192784,58.5577 C49.7102784,58.7137 46.5062784,62.1687 46.6602784,66.2757 C46.7112784,67.6457 46.9302784,69.2307 47.2062784,71.2367 C48.2382784,78.7307 50.1592784,92.6797 42.7822784,101.5777 C37.7702784,107.6227 28.7922784,111.0027 16.0992784,111.6287 C11.9932784,111.8307 8.82927839,115.3227 9.03127839,119.4277 C9.09427839,120.6877 9.46527839,121.8567 10.0702784,122.8687 C10.4642784,119.2997 13.3912784,116.4417 17.0912784,116.2597" id="Fill-208" fill="#000000"></path>
            <path d="M96.7123784,117.4027 C96.6393784,117.4027 96.5663784,117.4017 96.4923784,117.3987 C92.3833784,117.2797 89.1503784,113.8527 89.2683784,109.7427 C89.5553784,99.8647 86.9913784,92.1117 81.6493784,86.7057 C72.4453784,77.3917 57.3333784,76.9097 52.9223784,76.9877 C48.8223784,77.0577 45.4243784,73.7817 45.3543784,69.6727 C45.2843784,65.5637 48.5593784,62.1737 52.6693784,62.1037 C60.2353784,61.9757 79.2453784,63.0957 92.2383784,76.2427 C100.550378,84.6547 104.557378,96.0717 104.149378,110.1757 C104.030378,114.2097 100.723378,117.4027 96.7123784,117.4027" id="Fill-210" fill="#FFF4CF"></path>
            <path d="M96.7123784,117.4027 C96.6393784,117.4027 96.5663784,117.4017 96.4923784,117.3987 C92.3833784,117.2797 89.1503784,113.8527 89.2683784,109.7427 C89.5553784,99.8647 86.9913784,92.1117 81.6493784,86.7057 C72.4453784,77.3917 57.3333784,76.9097 52.9223784,76.9877 C48.8223784,77.0577 45.4243784,73.7817 45.3543784,69.6727 C45.2843784,65.5637 48.5593784,62.1737 52.6693784,62.1037 C60.2353784,61.9757 79.2453784,63.0957 92.2383784,76.2427 C100.550378,84.6547 104.557378,96.0717 104.149378,110.1757 C104.030378,114.2097 100.723378,117.4027 96.7123784,117.4027 Z" id="Stroke-212" stroke="#020202"></path>
            <path d="M101.178178,115.0873 C101.105178,115.0873 101.032178,115.0853 100.958178,115.0833 C96.8491784,114.9643 93.6161784,111.5373 93.7351784,107.4273 C94.0211784,97.5483 91.4561784,89.7963 86.1151784,84.3903 C76.9111784,75.0753 61.7991784,74.5943 57.3881784,74.6713 C53.2881784,74.7443 49.8891784,71.4663 49.8191784,67.3573 C49.7851784,65.3573 50.5471784,63.5323 51.8091784,62.1713 C48.1131784,62.6613 45.2891784,65.8543 45.3541784,69.6723 C45.4241784,73.7823 48.8231784,77.0573 52.9221784,76.9873 C57.3331784,76.9103 72.4461784,77.3923 81.6501784,86.7063 C86.9911784,92.1123 89.5551784,99.8643 89.2681784,109.7423 C89.1501784,113.8533 92.3831784,117.2793 96.4921784,117.3993 C96.5671784,117.4013 96.6391784,117.4023 96.7121784,117.4023 C98.8591784,117.4023 100.798178,116.4833 102.159178,115.0133 C101.837178,115.0573 101.511178,115.0873 101.178178,115.0873" id="Fill-214" fill="#000000"></path>
            <path d="M58.8412784,82.0785 C53.5832784,82.0785 48.5542784,79.0795 46.2112784,73.9905 L32.0702784,43.2655 C28.8622784,36.2945 31.9122784,28.0435 38.8822784,24.8365 C45.8522784,21.6305 54.1042784,24.6775 57.3122784,31.6475 L71.4522784,62.3735 C74.6602784,69.3445 71.6112784,77.5965 64.6412784,80.8035 C62.7592784,81.6695 60.7842784,82.0785 58.8412784,82.0785" id="Fill-216" fill="#FFF4CF"></path>
            <path d="M58.8412784,82.0785 C53.5832784,82.0785 48.5542784,79.0795 46.2112784,73.9905 L32.0702784,43.2655 C28.8622784,36.2945 31.9122784,28.0435 38.8822784,24.8365 C45.8522784,21.6305 54.1042784,24.6775 57.3122784,31.6475 L71.4522784,62.3735 C74.6602784,69.3445 71.6112784,77.5965 64.6412784,80.8035 C62.7592784,81.6695 60.7842784,82.0785 58.8412784,82.0785 Z" id="Stroke-218" stroke="#020202"></path>
            <path d="M51.3890784,43.7797 L58.2540784,59.7847" id="Stroke-220" stroke="#232744" stroke-width="1.997" stroke-linecap="round"></path>
            <path d="M62.9720784,26.601 C62.9720784,38.932 52.9760784,48.93 40.6440784,48.93 C28.3130784,48.93 18.3160784,38.932 18.3160784,26.601 C18.3160784,14.268 28.3130784,4.272 40.6440784,4.272 C52.9760784,4.272 62.9720784,14.268 62.9720784,26.601" id="Fill-222" fill="#FFF4CF"></path>
            <path d="M62.9720784,26.601 C62.9720784,38.932 52.9760784,48.93 40.6440784,48.93 C28.3130784,48.93 18.3160784,38.932 18.3160784,26.601 C18.3160784,14.268 28.3130784,4.272 40.6440784,4.272 C52.9760784,4.272 62.9720784,14.268 62.9720784,26.601 Z" id="Stroke-224" stroke="#020202"></path>
            <g id="Group-230" transform="translate(17.549678, 5.490100)">
                <path d="M27.8033,40.4063 C15.4713,40.4063 5.4743,30.4083 5.4743,18.0783 C5.4743,11.2003 8.5863,5.0513 13.4763,0.9553 C5.9593,4.5493 0.7663,12.2223 0.7663,21.1113 C0.7663,33.4423 10.7633,43.4393 23.0943,43.4393 C28.5483,43.4393 33.5423,41.4823 37.4203,38.2323 C34.5083,39.6263 31.2463,40.4063 27.8033,40.4063" id="Fill-226" fill="#000000"></path>
                <path d="M27.8033,40.4063 C15.4713,40.4063 5.4743,30.4083 5.4743,18.0783 C5.4743,11.2003 8.5863,5.0513 13.4763,0.9553 C5.9593,4.5493 0.7663,12.2223 0.7663,21.1113 C0.7663,33.4423 10.7633,43.4393 23.0943,43.4393 C28.5483,43.4393 33.5423,41.4823 37.4203,38.2323 C34.5083,39.6263 31.2463,40.4063 27.8033,40.4063 Z" id="Stroke-228" stroke="#020202"></path>
            </g>
            <path d="M58.7875784,25.0082 C58.7875784,32.7942 52.4755784,39.1042 44.6905784,39.1042 C36.9055784,39.1042 30.5945784,32.7942 30.5945784,25.0082 C30.5945784,17.2232 36.9055784,10.9112 44.6905784,10.9112 C52.4755784,10.9112 58.7875784,17.2232 58.7875784,25.0082" id="Fill-231" fill="#232744"></path>
            <path d="M58.7875784,25.0082 C58.7875784,32.7942 52.4755784,39.1042 44.6905784,39.1042 C36.9055784,39.1042 30.5945784,32.7942 30.5945784,25.0082 C30.5945784,17.2232 36.9055784,10.9112 44.6905784,10.9112 C52.4755784,10.9112 58.7875784,17.2232 58.7875784,25.0082 Z" id="Stroke-233" stroke="#020202"></path>
            <g id="Group-239" transform="translate(30.549678, 13.490100)">
                <path d="M17.6978,21.48 C9.9118,21.48 3.5998,15.17 3.5998,7.383 C3.5998,4.859 4.2718,2.495 5.4338,0.445 C2.1558,3.026 0.0448,7.022 0.0448,11.518 C0.0448,19.304 6.3558,25.614 14.1408,25.614 C19.4018,25.614 23.9818,22.728 26.4038,18.457 C24.0058,20.345 20.9858,21.48 17.6978,21.48" id="Fill-235" fill="#000000"></path>
                <path d="M17.6978,21.48 C9.9118,21.48 3.5998,15.17 3.5998,7.383 C3.5998,4.859 4.2718,2.495 5.4338,0.445 C2.1558,3.026 0.0448,7.022 0.0448,11.518 C0.0448,19.304 6.3558,25.614 14.1408,25.614 C19.4018,25.614 23.9818,22.728 26.4038,18.457 C24.0058,20.345 20.9858,21.48 17.6978,21.48 Z" id="Stroke-237" stroke="#020202"></path>
            </g>
            <path d="M50.6449784,17.0756 C50.6449784,18.9726 49.1059784,20.5116 47.2089784,20.5116 C45.3109784,20.5116 43.7729784,18.9726 43.7729784,17.0756 C43.7729784,15.1786 45.3109784,13.6396 47.2089784,13.6396 C49.1059784,13.6396 50.6449784,15.1786 50.6449784,17.0756" id="Fill-240" fill="#FFFFFF"></path>
            <path d="M50.6449784,17.0756 C50.6449784,18.9726 49.1059784,20.5116 47.2089784,20.5116 C45.3109784,20.5116 43.7729784,18.9726 43.7729784,17.0756 C43.7729784,15.1786 45.3109784,13.6396 47.2089784,13.6396 C49.1059784,13.6396 50.6449784,15.1786 50.6449784,17.0756 Z" id="Stroke-242" stroke="#020202"></path>
            <path d="M50.1800784,53.5014 C50.1800784,55.2364 48.7730784,56.6424 47.0370784,56.6424 C45.3010784,56.6424 43.8950784,55.2364 43.8950784,53.5014 C43.8950784,51.7654 45.3010784,50.3584 47.0370784,50.3584 C48.7730784,50.3584 50.1800784,51.7654 50.1800784,53.5014" id="Fill-244" fill="#E82121"></path>
            <path d="M48.0609784,55.5585 C46.3249784,55.5585 44.9179784,54.1515 44.9179784,52.4155 C44.9179784,51.8475 45.0809784,51.3195 45.3459784,50.8595 C44.4749784,51.4185 43.8949784,52.3905 43.8949784,53.5015 C43.8949784,55.2365 45.3009784,56.6425 47.0379784,56.6425 C48.2049784,56.6425 49.2099784,56.0005 49.7519784,55.0565 C49.2639784,55.3715 48.6849784,55.5585 48.0609784,55.5585" id="Fill-246" fill="#000000"></path>
            <path d="M51.0355784,58.7118 C51.0355784,59.4198 50.4605784,59.9938 49.7525784,59.9938 C49.0445784,59.9938 48.4715784,59.4198 48.4715784,58.7118 C48.4715784,58.0038 49.0445784,57.4298 49.7525784,57.4298 C50.4605784,57.4298 51.0355784,58.0038 51.0355784,58.7118" id="Fill-248" fill="#1A1A1A"></path>
            <path d="M50.1703784,59.5512 C49.4623784,59.5512 48.8883784,58.9772 48.8883784,58.2702 C48.8883784,58.0362 48.9553784,57.8222 49.0633784,57.6342 C48.7083784,57.8642 48.4713784,58.2592 48.4713784,58.7122 C48.4713784,59.4192 49.0443784,59.9932 49.7523784,59.9932 C50.2293784,59.9932 50.6393784,59.7312 50.8603784,59.3462 C50.6613784,59.4752 50.4253784,59.5512 50.1703784,59.5512" id="Fill-250" fill="#000000"></path>
        </g>
    </g>
</svg>