<?xml version="1.0" encoding="UTF-8"?>
<svg width="140px" height="125px" viewBox="0 0 140 125" version="1.1" xmlns="http://www.w3.org/2000/svg" xmlns:xlink="http://www.w3.org/1999/xlink">
    <!-- Generator: Sketch 53.1 (72631) - https://sketchapp.com -->
    <title>Group 60Sticker6</title>
    <desc>Created with Sketch.</desc>
    <g id="Page-1" stroke="none" stroke-width="1" fill="none" fill-rule="evenodd">
        <g id="Group-60" transform="translate(0.652853, 0.276100)">
            <path d="M138.693347,23.032 C137.531347,18.87 133.701347,15.962 129.380347,15.962 C128.500347,15.962 127.622347,16.083 126.770347,16.321 L121.341347,17.838 C116.768347,16.031 107.642347,13.642 102.172347,13.281 C95.058347,4.928 83.707347,0.001 71.341347,1.42108547e-14 C67.872347,1.42108547e-14 64.364347,0.387 60.914347,1.153 C60.784347,1.18 60.636347,1.214 60.489347,1.248 C59.671347,1.437 58.954347,1.617 58.295347,1.802 C41.550347,6.479 29.135347,19.396 26.732347,34.351 C25.887347,34.948 24.954347,35.694 23.919347,36.599 C23.913347,36.604 23.906347,36.61 23.900347,36.615 C23.833347,36.672 23.763347,36.734 23.694347,36.797 C22.966347,37.442 22.225347,38.133 21.478347,38.862 L21.426347,38.913 L21.206347,39.128 C20.982347,39.348 20.759347,39.57 20.535347,39.797 L20.338347,39.998 L20.224347,40.113 C19.864347,40.482 19.519347,40.84 19.177347,41.203 L19.095347,41.29 C18.975347,41.417 18.855347,41.544 18.737347,41.672 C18.578347,41.843 18.412347,42.024 18.245347,42.208 C18.083347,42.385 17.914347,42.573 17.747347,42.76 C17.602347,42.921 17.458347,43.084 17.315347,43.246 C17.037347,43.563 16.755347,43.889 16.483347,44.21 L16.352347,44.368 L16.269347,44.469 C16.043347,44.74 15.822347,45.009 15.610347,45.273 L15.356347,45.591 C15.127347,45.883 14.919347,46.153 14.721347,46.418 L14.684347,46.467 L14.593347,46.586 C14.324347,46.949 14.096347,47.273 13.886347,47.582 L13.754347,47.783 C13.722347,47.832 13.691347,47.88 13.660347,47.927 L7.07034703,49.768 C1.92534703,51.216 -1.07965297,56.567 0.360347027,61.698 C1.51934703,65.856 5.34834703,68.764 9.67034703,68.764 C10.548347,68.764 11.426347,68.643 12.277347,68.405 L16.435347,67.242 C21.832347,70.326 32.780347,73.886 37.567347,73.886 C37.878347,73.886 38.177347,73.874 38.460347,73.849 C38.722347,73.826 38.982347,73.779 39.235347,73.708 L56.518347,68.879 L57.947347,120.277 C57.983347,121.582 58.614347,122.8 59.661347,123.581 C60.407347,124.139 61.306347,124.431 62.217347,124.431 C62.585347,124.431 62.954347,124.384 63.316347,124.287 L91.576347,116.77 L119.836347,109.254 C121.097347,108.918 122.136347,108.023 122.657347,106.825 C123.176347,105.627 123.120347,104.257 122.503347,103.106 L97.946347,57.303 L111.208347,53.598 C111.509347,53.514 111.800347,53.397 112.076347,53.249 C116.752347,50.743 125.008347,41.053 128.343347,35.968 L131.981347,34.951 C134.468347,34.257 136.539347,32.635 137.806347,30.383 C139.074347,28.132 139.388347,25.521 138.693347,23.032" id="Fill-110" fill="#FFFFFF"></path>
            <polygon id="Fill-112" fill="#4CEEF3" points="85.086847 42.3597 72.662847 45.6627 60.239847 48.9667 62.217847 120.1587 90.477847 112.6407 118.736847 105.1247"></polygon>
            <polygon id="Stroke-114" stroke="#020202" points="85.086847 42.3597 72.662847 45.6627 60.239847 48.9667 62.217847 120.1587 90.477847 112.6407 118.736847 105.1247"></polygon>
            <path d="M59.445247,5.9168 C43.235247,10.4448 31.998247,23.2298 30.709247,36.9288 L100.100247,17.5348 C91.896247,6.4908 75.662247,1.3838 59.445247,5.9168" id="Fill-116" fill="#53ACD3"></path>
            <path d="M59.445247,5.9168 C43.235247,10.4448 31.998247,23.2298 30.709247,36.9288 L100.100247,17.5348 C91.896247,6.4908 75.662247,1.3838 59.445247,5.9168 Z" id="Stroke-118" stroke="#020202"></path>
            <path d="M63.808547,4.929 C62.357547,5.183 60.902547,5.51 59.445547,5.917 C43.235547,10.445 31.997547,23.23 30.708547,36.929 L39.269547,34.536 C40.445547,22.056 49.880547,10.339 63.808547,4.929" id="Fill-120" fill="#000000"></path>
            <path d="M134.578147,24.1824 C135.382147,27.0564 133.705147,30.0354 130.831147,30.8364 L11.126147,64.2904 C8.25514703,65.0944 5.27414703,63.4134 4.47414703,60.5434 C3.66814703,57.6744 5.34614703,54.6924 8.22014703,53.8834 L127.921147,20.4354 C130.793147,19.6324 133.775147,21.3074 134.578147,24.1824" id="Fill-122" fill="#B3B3B3"></path>
            <path d="M134.578147,24.1824 C135.382147,27.0564 133.705147,30.0354 130.831147,30.8364 L11.126147,64.2904 C8.25514703,65.0944 5.27414703,63.4134 4.47414703,60.5434 C3.66814703,57.6744 5.34614703,54.6924 8.22014703,53.8834 L127.921147,20.4354 C130.793147,19.6324 133.775147,21.3074 134.578147,24.1824 Z" id="Stroke-124" stroke="#020202"></path>
            <path d="M16.494147,51.5745 C17.979147,48.1865 26.999147,38.6405 30.709147,36.9285 L100.100147,17.5345 C104.576147,17.1625 117.330147,20.4885 121.030147,22.3615 C118.147147,23.1665 16.494147,51.5745 16.494147,51.5745" id="Fill-126" fill="#595BD9"></path>
            <path d="M16.494147,51.5745 C17.979147,48.1865 26.999147,38.6405 30.709147,36.9285 L100.100147,17.5345 C104.576147,17.1625 117.330147,20.4885 121.030147,22.3615 C118.147147,23.1665 16.494147,51.5745 16.494147,51.5745 Z" id="Stroke-128" stroke="#020202"></path>
            <path d="M17.145447,62.6087 C20.410447,65.2737 33.846447,69.9657 38.085447,69.5927 L110.058447,49.4827 C114.188447,47.2697 123.416447,36.4037 125.565447,32.3097 C122.574447,33.1457 17.145447,62.6087 17.145447,62.6087" id="Fill-130" fill="#330A32"></path>
            <path d="M17.145447,62.6087 C20.410447,65.2737 33.846447,69.9657 38.085447,69.5927 L110.058447,49.4827 C114.188447,47.2697 123.416447,36.4037 125.565447,32.3097 C122.574447,33.1457 17.145447,62.6087 17.145447,62.6087 Z" id="Stroke-132" stroke="#020202"></path>
            <path d="M11.125947,64.2903 L130.830947,30.8363 C133.704947,30.0353 135.381947,27.0563 134.577947,24.1823 L4.47394703,60.5433 C5.27394703,63.4143 8.25494703,65.0943 11.125947,64.2903" id="Fill-134" fill="#000000"></path>
            <path d="M79.923847,10.2493 C80.572847,12.5693 79.217847,14.9773 76.896847,15.6233 C74.572847,16.2743 72.166847,14.9203 71.518847,12.5963 C70.868847,10.2753 72.225847,7.8673 74.547847,7.2213 C76.865847,6.5713 79.277847,7.9283 79.923847,10.2493" id="Fill-136" fill="#FFFFFF"></path>
            <path d="M41.663047,39.202 C42.032047,40.524 41.261047,41.896 39.938047,42.267 C38.614047,42.636 37.243047,41.861 36.875047,40.54 C36.505047,39.218 37.275047,37.845 38.600047,37.477 C39.921047,37.106 41.293047,37.88 41.663047,39.202" id="Fill-138" fill="#1E1D1D"></path>
            <path d="M56.278347,35.1199 C56.649347,36.4419 55.877347,37.8149 54.553347,38.1859 C53.232347,38.5539 51.859347,37.7789 51.493347,36.4589 C51.119347,35.1339 51.893347,33.7649 53.215347,33.3909 C54.538347,33.0259 55.911347,33.7989 56.278347,35.1199" id="Fill-140" fill="#1E1D1D"></path>
            <path d="M70.459947,31.1546 C70.830947,32.4796 70.059947,33.8516 68.734947,34.2206 C67.410947,34.5896 66.041947,33.8176 65.671947,32.4936 C65.302947,31.1736 66.072947,29.8006 67.397947,29.4316 C68.720947,29.0596 70.089947,29.8336 70.459947,31.1546" id="Fill-142" fill="#1E1D1D"></path>
            <path d="M84.758747,27.1609 C85.128747,28.4809 84.355747,29.8549 83.031747,30.2249 C81.709747,30.5949 80.338747,29.8219 79.967747,28.4989 C79.599747,27.1749 80.372747,25.8049 81.692747,25.4369 C83.015747,25.0669 84.386747,25.8379 84.758747,27.1609" id="Fill-144" fill="#1E1D1D"></path>
            <path d="M98.209947,23.4012 C98.575947,24.7252 97.802947,26.0992 96.480947,26.4682 C95.158947,26.8382 93.788947,26.0622 93.418947,24.7422 C93.048947,23.4182 93.821947,22.0482 95.142947,21.6792 C96.467947,21.3072 97.835947,22.0802 98.209947,23.4012" id="Fill-146" fill="#1E1D1D"></path>
            <path d="M107.622047,37.324 C76.781047,45.946 17.145047,62.609 17.145047,62.609 C20.410047,65.273 33.847047,69.966 38.086047,69.593 L92.376047,54.424 C84.027047,49.765 96.485047,42.606 107.622047,37.324" id="Fill-148" fill="#000000"></path>
            <path d="M26.665047,39.8714 C22.570047,43.4724 17.564047,49.1274 16.494047,51.5744 C16.494047,51.5744 30.561047,47.6444 48.374047,42.6634 C34.949047,45.9494 26.966047,41.9474 26.665047,39.8714" id="Fill-150" fill="#000000"></path>
            <path d="M94.473647,106.4988 C94.328647,106.1388 94.323647,105.7058 94.313647,105.1048 C94.301647,104.3338 94.286647,103.3728 93.970647,102.0828 C93.220647,99.1648 91.115647,97.7788 89.737647,97.0768 C89.531647,95.6118 89.103647,94.1908 88.638647,92.9168 C90.473647,92.0738 92.739647,90.2798 93.135647,86.5028 C93.200647,85.9048 92.765647,85.3668 92.164647,85.3048 C91.576647,85.2408 91.028647,85.6758 90.965647,86.2748 C90.692647,88.8618 89.306647,90.1998 87.839647,90.8938 C87.799647,90.7958 87.756647,90.6918 87.717647,90.5978 C87.656647,90.4498 87.599647,90.3118 87.542647,90.1758 C88.190647,89.4968 88.593647,88.5828 88.593647,87.5718 C88.593647,85.4858 86.902647,83.7958 84.818647,83.7958 C82.732647,83.7958 81.040647,85.4858 81.040647,87.5718 C81.040647,89.5388 82.548647,91.1338 84.467647,91.3118 C84.539647,91.4858 84.615647,91.6658 84.695647,91.8568 C84.703647,91.8788 84.714647,91.9058 84.723647,91.9288 C82.961647,92.0858 80.827647,91.6128 79.309647,89.0868 C78.997647,88.5688 78.328647,88.4028 77.811647,88.7118 C77.293647,89.0218 77.125647,89.6918 77.436647,90.2108 C78.970647,92.7648 81.356647,94.1398 84.148647,94.1398 C84.603647,94.1398 85.071647,94.0918 85.544647,94.0188 C85.967647,95.1718 86.356647,96.4228 86.515647,97.6528 C86.520647,97.6978 86.546647,97.7338 86.555647,97.7768 C86.522647,99.0538 86.269647,100.8068 84.893647,102.4688 C83.417647,104.2948 82.455647,105.7028 82.536647,108.5058 C82.553647,109.0988 83.037647,109.5678 83.627647,109.5678 L83.658647,109.5678 C84.261647,109.5488 84.736647,109.0478 84.720647,108.4448 C84.662647,106.4358 85.216647,105.5418 86.584647,103.8498 C87.730647,102.4648 88.406647,100.8638 88.643647,98.9988 C88.656647,98.9958 88.668647,98.9928 88.681647,98.9878 C89.765647,99.5378 91.321647,100.5468 91.852647,102.6148 C92.107647,103.6538 92.119647,104.4428 92.129647,105.1388 C92.141647,105.8768 92.152647,106.5758 92.445647,107.3098 C92.617647,107.7368 93.026647,107.9958 93.458647,107.9958 C93.594647,107.9958 93.733647,107.9718 93.864647,107.9178 C94.424647,107.6938 94.697647,107.0578 94.473647,106.4988" id="Fill-152" fill="#1A1A1A"></path>
        </g>
    </g>
</svg>