<?xml version="1.0" encoding="UTF-8"?>
<svg width="155px" height="130px" viewBox="0 0 155 130" version="1.1" xmlns="http://www.w3.org/2000/svg" xmlns:xlink="http://www.w3.org/1999/xlink">
    <!-- Generator: Sketch 53.1 (72631) - https://sketchapp.com -->
    <title>Group 952</title>
    <desc>Created with Sketch.</desc>
    <g id="Page-1" stroke="none" stroke-width="1" fill="none" fill-rule="evenodd">
        <g id="Group-95">
            <path d="M154.216251,65.1522805 C153.355251,53.5262805 145.106251,43.2942805 133.620251,41.7192805 C138.851251,31.8672805 139.117251,18.3322805 130.411251,10.4012805 C123.259251,3.88528046 111.158251,2.82328046 103.742251,9.14728046 C100.448251,4.15028046 92.7582514,3.37728046 87.1802514,4.77728046 C81.2842514,6.25728046 76.2982514,9.90928046 72.9382514,14.7902805 C71.0552514,11.9552805 68.7932514,9.41328046 66.2662514,7.08928046 C64.7372514,5.68128046 62.6562514,3.42928046 60.4462514,2.02628046 C59.8632514,1.51128046 59.2732514,1.00328046 58.6662514,0.511280457 C57.7722514,-0.213719543 56.7182514,-0.093719543 55.9512514,0.411280457 C55.7032514,0.519280457 55.4832514,0.661280457 55.2882514,0.835280457 C54.7012514,1.09328046 54.2852514,1.62928046 54.3062514,2.44428046 C54.0582514,3.17628046 53.9232514,4.02128046 53.8422514,4.88028046 C53.2772514,10.8902805 53.1462514,17.0272805 53.0292514,23.0812805 C41.1772514,17.4952805 24.2542514,17.7182805 14.1662514,26.2172805 C9.40725137,30.2252805 6.71225137,35.9252805 6.25025137,42.0962805 C6.20825137,42.6502805 6.19025137,43.2302805 6.18725137,43.8202805 C5.75125137,48.1632805 6.70225137,52.5662805 9.38225137,56.2192805 C2.36825137,59.7812805 -1.24574863,68.3812805 0.389251371,76.1502805 C2.21425137,84.8202805 9.78625137,90.4462805 17.9362514,92.7722805 C13.5732514,97.8522805 12.5832514,105.28428 15.1672514,111.66128 C18.7462514,120.49028 27.6712514,126.24728 36.6162514,128.53528 C50.5972514,132.11028 64.7232514,127.53628 74.1812514,117.82128 C76.1772514,116.13428 78.0442514,114.25028 79.4742514,112.24828 C81.8092514,116.10028 86.2962514,119.62728 89.0252514,121.23828 C92.4872514,123.28228 96.3062514,124.46428 100.198251,124.80528 C103.799251,125.59728 107.554251,125.71628 111.205251,125.02228 C124.005251,122.59028 132.666251,111.40028 135.830251,99.1792805 C136.890251,96.2662805 137.534251,93.2022805 137.265251,90.4422805 C149.032251,90.1222805 154.979251,75.4402805 154.216251,65.1522805" id="Fill-79" fill="#FFFDFE"></path>
            <path d="M149.136151,65.1341805 C148.332151,54.2741805 140.626151,44.7161805 129.899151,43.2451805 C134.783151,34.0421805 135.033151,21.3991805 126.901151,13.9901805 C120.220151,7.90518046 108.917151,6.91218046 101.990151,12.8201805 C98.9121514,8.15218046 91.7291514,7.42918046 86.5181514,8.73818046 C80.4541514,10.2591805 75.4141514,14.2371805 72.3051514,19.5021805 C69.1321514,13.8491805 64.9561514,8.86618046 59.8841514,4.75318046 C58.8861514,3.94418046 57.6701514,4.25418046 56.9611514,4.96818046 C56.2401514,5.18018046 55.6971514,5.77918046 55.8221514,6.78118046 C56.6341514,13.2831805 56.2251514,19.6961805 54.5831514,26.0001805 C42.1301514,24.1361805 28.2521514,22.9211805 17.9951514,31.6221805 C10.7661514,37.7531805 8.18115137,49.0641805 13.8481514,56.7901805 C7.29615137,60.1171805 3.92015137,68.1491805 5.44815137,75.4061805 C7.15215137,83.5061805 14.2261514,88.7601805 21.8381514,90.9341805 C17.7631514,95.6781805 16.8371514,102.62118 19.2511514,108.57718 C22.5951514,116.82518 30.9321514,122.20218 39.2871514,124.33918 C55.8101514,128.56518 72.5581514,120.61118 80.4061514,106.15218 C84.7231514,116.88818 97.4141514,123.25218 108.961151,121.05818 C123.740151,118.24918 132.617151,102.94018 133.183151,88.7631805 C144.255151,88.5621805 149.851151,74.7781805 149.136151,65.1341805" id="Fill-81" fill="#0E4361"></path>
            <path d="M39.9613514,25.6746805 C32.2613514,25.6746805 24.7373514,27.2146805 18.6423514,32.3846805 C11.3493514,38.5706805 9.56035137,49.2526805 14.6543514,56.1986805 L15.3513514,57.1486805 L14.3013514,57.6816805 C8.34635137,60.7056805 4.96035137,68.2376805 6.42635137,75.2006805 C7.86835137,82.0576805 13.7323514,87.5796805 22.1123514,89.9726805 L23.6143514,90.4016805 L22.5973514,91.5856805 C18.8183514,95.9836805 17.8693514,102.50668 20.1783514,108.20168 C23.0713514,115.33968 30.3083514,121.00968 39.5353514,123.37068 C55.2413514,127.38868 71.6903514,120.11268 79.5263514,105.67468 L80.5403514,103.80768 L81.3333514,105.77868 C85.4203514,115.94368 97.4803514,122.22168 108.774351,120.07568 C119.870351,117.96668 131.474351,106.52068 132.184351,88.7236805 L132.221351,87.7806805 L133.164351,87.7636805 C136.610351,87.7006805 139.666351,86.2346805 142.246351,83.4046805 C146.189351,79.0806805 148.612351,71.5976805 148.139351,65.2076805 C147.339351,54.4056805 139.611351,45.5856805 129.763351,44.2356805 L128.344351,44.0416805 L129.016351,42.7766805 C135.285351,30.9636805 131.965351,19.9566805 126.227351,14.7296805 C119.691351,8.77668046 108.891351,8.24968046 102.638351,13.5806805 L101.777351,14.3146805 L101.154351,13.3696805 C98.4523514,9.27168046 91.8693514,8.42668046 86.7613514,9.70768046 C81.0753514,11.1346805 76.2473514,14.7936805 73.1663514,20.0106805 L72.2823514,21.5066805 L71.4333514,19.9916805 C68.2983514,14.4066805 64.2003514,9.54068046 59.2543514,5.52968046 C58.6243514,5.01868046 57.9613514,5.37868046 57.6713514,5.67268046 L57.4893514,5.85468046 L57.2433514,5.92768046 C56.8923514,6.03068046 56.7633514,6.24968046 56.8143514,6.65768046 C57.6403514,13.2686805 57.2153514,19.8616805 55.5513514,26.2526805 L55.3243514,27.1226805 L54.4353514,26.9886805 C49.7513514,26.2876805 44.8203514,25.6746805 39.9613514,25.6746805 M48.2303514,126.46768 C45.1813514,126.46768 42.0973514,126.09068 39.0393514,125.30768 C29.1993514,122.79168 21.4553514,116.67668 18.3243514,108.95268 C15.9363514,103.05868 16.6753514,96.3576805 20.1583514,91.4596805 C11.8033514,88.6556805 5.98335137,82.8116805 4.46935137,75.6126805 C2.87935137,68.0566805 6.19335137,60.1916805 12.4053514,56.4466805 C7.50035137,48.6806805 9.58835137,37.4406805 17.3493514,30.8596805 C27.6773514,22.0966805 41.5173514,23.0796805 53.8333514,24.8786805 C55.2513514,19.0066805 55.5863514,12.9646805 54.8293514,6.90468046 C54.6683514,5.61568046 55.2933514,4.53768046 56.4363514,4.09168046 C57.4783514,3.18968046 59.1483514,2.86968046 60.5143514,3.97568046 C65.2303514,7.79968046 69.2033514,12.3706805 72.3433514,17.5786805 C75.7033514,12.6516805 80.5953514,9.19368046 86.2743514,7.76768046 C91.5483514,6.44268046 98.5563514,7.07668046 102.173351,11.3946805 C109.331351,6.05468046 120.487351,6.79668046 127.574351,13.2516805 C133.663351,18.7976805 137.313351,30.1956805 131.402351,42.4876805 C141.520351,44.5546805 149.302351,53.8246805 150.133351,65.0606805 C150.565351,70.8896805 148.751351,79.2386805 143.724351,84.7526805 C141.031351,87.7046805 137.732351,89.4076805 134.135351,89.7156805 C133.680351,96.8846805 131.242351,103.96468 127.223351,109.74468 C122.579351,116.42468 116.328351,120.67568 109.148351,122.04068 C97.6233514,124.23068 85.3643514,118.27968 80.3013514,108.33568 C73.3393514,119.73968 61.1013514,126.46768 48.2303514,126.46768" id="Fill-83" fill="#020202"></path>
            <path d="M63.7103514,64.3968805 C63.7103514,63.6708805 64.0143514,63.3078805 64.6203514,63.3078805 C64.9253514,63.3078805 65.3233514,63.4108805 65.8183514,63.6148805 C66.3143514,63.8198805 66.7413514,63.9218805 67.1053514,63.9218805 C67.4683514,63.9218805 67.8603514,63.6908805 68.2823514,63.2288805 C68.7043514,62.7678805 69.0343514,62.1928805 69.2723514,61.5068805 C69.7613514,60.1078805 70.0053514,58.8448805 70.0053514,57.7158805 C70.0053514,56.5878805 69.8073514,55.3778805 69.4113514,54.0838805 C69.0153514,52.7908805 68.5333514,51.5768805 67.9663514,50.4418805 C67.3983514,49.3078805 66.8243514,48.1728805 66.2433514,47.0378805 C64.8713514,44.3328805 64.1923514,41.8648805 64.2053514,39.6348805 C64.1923514,37.5228805 64.8583514,35.8668805 66.2043514,34.6668805 C66.9173514,34.0328805 67.7553514,33.7158805 68.7183514,33.7158805 C69.2063514,33.7158805 69.6813514,33.8518805 70.1443514,34.1218805 C70.6053514,34.3928805 70.9293514,34.7458805 71.1133514,35.1808805 L70.4213514,36.0518805 C69.7473514,36.0518805 69.2203514,35.9198805 68.8373514,35.6558805 C68.3353514,35.7088805 67.8993514,35.9468805 67.5303514,36.3688805 C66.8573514,37.1468805 66.5213514,38.1068805 66.5213514,39.2488805 C66.5213514,40.3898805 66.6663514,41.5018805 66.9563514,42.5838805 C67.2473514,43.6658805 67.6093514,44.6358805 68.0453514,45.4938805 C68.4813514,46.3518805 68.9483514,47.2818805 69.4503514,48.2848805 C69.9653514,49.2878805 70.4403514,50.2508805 70.8763514,51.1748805 C71.8923514,53.3128805 72.3993514,55.6218805 72.3993514,58.1028805 C72.4133514,59.8438805 71.9713514,61.5208805 71.0733514,63.1298805 C70.6513514,63.8958805 70.0703514,64.5258805 69.3313514,65.0208805 C68.5933514,65.5148805 67.7693514,65.7628805 66.8573514,65.7628805 C65.8813514,65.7628805 65.1123514,65.6178805 64.5523514,65.3268805 C63.9903514,65.0368805 63.7103514,64.7268805 63.7103514,64.3968805" id="Fill-85" fill="#FFFFFF"></path>
            <path d="M75.0130514,44.4051805 L74.7940514,40.9811805 C74.7940514,39.0671805 75.3630514,38.1111805 76.4970514,38.1111805 C77.2230514,38.1111805 78.2120514,38.2791805 79.4660514,38.6151805 C80.7200514,38.9511805 81.3470514,39.3841805 81.3470514,39.9111805 C81.3470514,40.4661805 80.9500514,40.8881805 80.1590514,41.1781805 C78.9060514,40.7561805 77.8820514,40.4991805 77.0910514,40.4061805 C77.1300514,40.9871805 77.1500514,41.5681805 77.1500514,42.1481805 L76.9720514,47.9681805 C76.9720514,47.9941805 77.0120514,48.2051805 77.0910514,48.6011805 L78.5360514,48.5421805 C79.8430514,48.5421805 80.4950514,48.9111805 80.4950514,49.6501805 C80.4950514,49.9411805 80.3760514,50.1951805 80.1400514,50.4121805 C79.9020514,50.6301805 79.6010514,50.7391805 79.2390514,50.7391805 C78.8760514,50.7391805 78.4840514,50.7131805 78.0610514,50.6601805 L77.0320514,50.6601805 C77.1110514,51.6891805 77.1500514,52.7121805 77.1500514,53.7281805 L76.9720514,61.0721805 C76.9720514,62.5891805 76.9980514,63.3481805 77.0520514,63.3481805 L80.0400514,63.2491805 C81.0700514,63.2491805 81.5840514,63.5791805 81.5840514,64.2381805 C81.5840514,64.6481805 81.4060514,64.9441805 81.0500514,65.1291805 C80.6940514,65.3141805 80.2900514,65.4061805 79.8430514,65.4061805 L76.4170514,65.4061805 C76.0620514,65.4061805 75.7380514,65.2841805 75.4490514,65.0401805 C75.1580514,64.7961805 75.0050514,64.5031805 74.9930514,64.1591805 L74.9930514,63.0911805 L74.7360514,56.2411805 L75.0130514,44.4051805 Z" id="Fill-87" fill="#FFFFFF"></path>
            <path d="M84.0189514,44.4051805 L83.8009514,40.9811805 C83.8009514,39.0671805 84.3689514,38.1111805 85.5029514,38.1111805 C86.2299514,38.1111805 87.2189514,38.2791805 88.4719514,38.6151805 C89.7259514,38.9511805 90.3529514,39.3841805 90.3529514,39.9111805 C90.3529514,40.4661805 89.9569514,40.8881805 89.1649514,41.1781805 C87.9119514,40.7561805 86.8889514,40.4991805 86.0969514,40.4061805 C86.1369514,40.9871805 86.1569514,41.5681805 86.1569514,42.1481805 L85.9789514,47.9681805 C85.9789514,47.9941805 86.0189514,48.2051805 86.0969514,48.6011805 L87.5419514,48.5421805 C88.8489514,48.5421805 89.5009514,48.9111805 89.5009514,49.6501805 C89.5009514,49.9411805 89.3829514,50.1951805 89.1459514,50.4121805 C88.9079514,50.6301805 88.6079514,50.7391805 88.2459514,50.7391805 C87.8819514,50.7391805 87.4899514,50.7131805 87.0679514,50.6601805 L86.0389514,50.6601805 C86.1169514,51.6891805 86.1569514,52.7121805 86.1569514,53.7281805 L85.9789514,61.0721805 C85.9789514,62.5891805 86.0049514,63.3481805 86.0579514,63.3481805 L89.0459514,63.2491805 C90.0759514,63.2491805 90.5909514,63.5791805 90.5909514,64.2381805 C90.5909514,64.6481805 90.4129514,64.9441805 90.0559514,65.1291805 C89.7009514,65.3141805 89.2969514,65.4061805 88.8489514,65.4061805 L85.4239514,65.4061805 C85.0679514,65.4061805 84.7449514,65.2841805 84.4549514,65.0401805 C84.1639514,64.7961805 84.0119514,64.5031805 83.9989514,64.1591805 L83.9989514,63.0911805 L83.7419514,56.2411805 L84.0189514,44.4051805 Z" id="Fill-89" fill="#FFFFFF"></path>
            <path d="M63.4730514,96.4959805 C63.4730514,98.3039805 63.0310514,99.2079805 62.1470514,99.2079805 C61.6590514,99.2079805 61.2830514,98.9109805 61.0190514,98.3169805 C61.3220514,97.7239805 61.4740514,95.4339805 61.4740514,91.4489805 C61.4740514,90.7229805 61.4020514,89.6939805 61.2560514,88.3609805 C61.1110514,87.0279805 61.0250514,86.0779805 60.9990514,85.5109805 L60.9990514,84.4609805 C60.9460514,84.3429805 60.5240514,83.2739805 59.7320514,81.2549805 C57.9370514,76.7289805 57.0400514,74.0299805 57.0400514,73.1589805 L57.0400514,72.9409805 L57.9510514,72.2679805 C58.7820514,72.2819805 59.7710514,74.3729805 60.9190514,78.5429805 C61.4210514,80.3639805 61.6710514,81.2819805 61.6710514,81.2939805 C61.7770514,80.9909805 61.9890514,79.9809805 62.3050514,78.2659805 C63.1100514,73.8849805 63.9540514,71.6939805 64.8390514,71.6939805 C65.0890514,71.6939805 65.3170514,71.7729805 65.5220514,71.9319805 C65.7260514,72.0899805 65.8280514,72.2949805 65.8280514,72.5449805 C65.8280514,73.8919805 65.4430514,75.8479805 64.6710514,78.4139805 C63.8990514,80.9809805 63.4990514,82.9369805 63.4730514,84.2829805 L63.4730514,96.4959805 Z" id="Fill-91" fill="#FFFFFF"></path>
            <path d="M70.0052514,80.7200805 L69.8072514,84.4610805 C69.8072514,88.3810805 70.1242514,91.7990805 70.7572514,94.7150805 C71.4302514,96.4170805 72.0692514,97.4200805 72.6772514,97.7230805 C73.1652514,97.7230805 73.6072514,97.5250805 74.0032514,97.1300805 C74.4002514,96.7340805 74.7122514,96.2020805 74.9432514,95.5360805 C75.1742514,94.8700805 75.3682514,94.1670805 75.5272514,93.4280805 C75.6732514,92.7020805 75.7842514,91.9240805 75.8642514,91.0920805 C75.9952514,89.6540805 76.0622514,88.4270805 76.0622514,87.4100805 C76.0622514,86.3950805 75.9732514,84.8370805 75.7942514,82.7390805 C75.6162514,80.6410805 75.5272514,79.0770805 75.5272514,78.0480805 L75.5272514,77.3350805 C75.5012514,76.3460805 75.1772514,75.4650805 74.5582514,74.6930805 C73.9372514,73.9210805 73.1462514,73.5350805 72.1832514,73.5350805 C71.2592514,73.5350805 70.6452514,74.0560805 70.3412514,75.0990805 C70.0912514,75.9700805 69.9652514,77.0450805 69.9652514,78.3250805 L70.0052514,80.7200805 Z M67.6092514,86.2620805 L67.6502514,84.7190805 C67.6502514,84.5870805 67.6302514,84.5210805 67.5902514,84.5210805 L67.5902514,83.7880805 C67.5902514,79.5390805 67.8342514,76.5170805 68.3222514,74.7220805 C68.7322514,73.2050805 69.1272514,72.2680805 69.5102514,71.9120805 C69.8932514,71.5550805 70.2692514,71.3780805 70.6382514,71.3780805 C73.7782514,71.3780805 75.9422514,72.9610805 77.1302514,76.1280805 C77.8172514,77.9490805 78.1592514,80.1930805 78.1592514,82.8580805 L78.1592514,83.1550805 L78.2392514,87.7470805 C78.2392514,95.5200805 76.4382514,99.4060805 72.8352514,99.4060805 C71.3442514,99.4060805 70.2022514,98.5810805 69.4112514,96.9310805 C68.6592514,95.3480805 68.1962514,93.7910805 68.0262514,92.2600805 C67.7482514,89.9510805 67.6092514,87.9520805 67.6092514,86.2620805 L67.6092514,86.2620805 Z" id="Fill-93" fill="#FFFFFF"></path>
            <path d="M90.5707514,80.5819805 L90.6107514,81.2749805 C90.6107514,93.2699805 88.8687514,99.2679805 85.3837514,99.2679805 C84.0387514,99.2799805 83.0427514,98.7329805 82.3957514,97.6239805 C81.7227514,96.4899805 81.3137514,95.3609805 81.1697514,94.2399805 C80.9447514,92.5109805 80.8157514,90.5279805 80.7827514,88.2909805 C80.7497514,86.0549805 80.7337514,82.8249805 80.7337514,78.6029805 L80.5547514,72.8029805 C80.8057514,72.2359805 81.0927514,71.9519805 81.4157514,71.9519805 C81.7397514,71.9519805 82.0267514,72.1989805 82.2767514,72.6939805 C82.5277514,73.1889805 82.6537514,73.7129805 82.6537514,74.2679805 L82.6537514,85.2929805 C82.6537514,86.2559805 82.7497514,87.6879805 82.9407514,89.5879805 C83.1317514,91.4879805 83.2277514,92.9199805 83.2277514,93.8829805 C83.2277514,95.8629805 84.0857514,96.8529805 85.7997514,96.8529805 C87.7267514,96.8529805 88.6907514,89.5879805 88.6907514,75.0599805 L88.6907514,72.7829805 L88.6717514,72.1099805 C88.6717514,71.7929805 88.7437514,71.5559805 88.8877514,71.3969805 C89.0337514,71.2389805 89.2877514,71.1599805 89.6497514,71.1599805 C90.0127514,71.1599805 90.2867514,71.2189805 90.4717514,71.3379805 C90.6437514,71.4439805 90.7687514,71.6019805 90.8477514,71.8129805 C90.9537514,72.1429805 91.0127514,72.5789805 91.0267514,73.1199805 L90.7497514,77.1969805 L90.5707514,80.5819805 Z" id="Fill-95" fill="#FFFFFF"></path>
            <path d="M95.7767514,87.9056805 L95.8157514,89.8256805 C95.8157514,91.6736805 95.5657514,92.5966805 95.0637514,92.5966805 C94.7867514,92.5966805 94.5327514,92.2666805 94.3017514,91.6066805 C94.0717514,90.9476805 93.9557514,90.1156805 93.9557514,89.1136805 L94.1147514,82.4026805 L93.9157514,69.1016805 C93.9157514,68.6786805 94.0937514,68.3126805 94.4507514,68.0026805 C94.8067514,67.6926805 95.1637514,67.5376805 95.5187514,67.5376805 C95.8767514,67.5376805 96.1497514,67.6336805 96.3407514,67.8246805 C96.5327514,68.0156805 96.6287514,68.2506805 96.6287514,68.5276805 C96.6287514,70.6916805 96.4857514,73.9246805 96.2027514,78.2266805 C95.9187514,82.5286805 95.7767514,85.7546805 95.7767514,87.9056805 M96.3317514,98.1386805 C96.3317514,99.0896805 95.6647514,99.5646805 94.3317514,99.5646805 C94.0287514,99.5646805 93.7277514,99.4226805 93.4307514,99.1386805 C93.1337514,98.8546805 92.9857514,98.4786805 92.9857514,98.0106805 C92.9857514,97.5426805 93.1507514,97.1196805 93.4807514,96.7436805 C93.8097514,96.3676805 94.2197514,96.1796805 94.7087514,96.1796805 C95.1957514,96.1796805 95.5897514,96.3706805 95.8857514,96.7536805 C96.1827514,97.1366805 96.3317514,97.5976805 96.3317514,98.1386805" id="Fill-97" fill="#FFFFFF"></path>
        </g>
    </g>
</svg>