<?xml version="1.0" encoding="UTF-8"?>
<svg width="141px" height="112px" viewBox="0 0 141 112" version="1.1" xmlns="http://www.w3.org/2000/svg" xmlns:xlink="http://www.w3.org/1999/xlink">
    <!-- Generator: Sketch 53.1 (72631) - https://sketchapp.com -->
    <title>Group 963</title>
    <desc>Created with Sketch.</desc>
    <defs>
        <polygon id="path-1" points="0.191420313 0.731 140.539272 0.731 140.539272 111.161605 0.191420313 111.161605"></polygon>
    </defs>
    <g id="Page-1" stroke="none" stroke-width="1" fill="none" fill-rule="evenodd">
        <g id="Group-96">
            <g id="Group-137">
                <mask id="mask-2" fill="white">
                    <use xlink:href="#path-1"></use>
                </mask>
                <g id="Clip-136"></g>
                <path d="M137.3882,23.2462 C129.4832,8.1132 111.6072,2.8862 95.8102,1.2882 C77.2002,-0.5938 58.0302,2.4782 40.1512,7.6322 C26.2012,11.6532 10.9332,18.6182 4.7612,32.7212 C3.8262,34.8552 0.3262,41.1482 0.1942,50.2742 C-0.0288,65.6932 13.2032,73.7222 26.4012,77.2662 C36.1312,79.8792 57.4312,83.2732 57.7432,83.4562 C62.9822,86.5182 66.8652,89.9662 67.8092,96.2772 C68.4442,100.5242 67.7572,105.6622 70.4632,109.2882 C71.1422,110.1982 72.0832,110.7422 73.1742,110.6922 C74.3852,111.5162 76.3892,111.2532 77.3492,109.9202 C83.6432,101.1832 88.2072,91.4802 90.9872,81.0792 C103.6432,78.4302 115.5452,73.1872 125.5942,64.3652 C137.3332,54.0592 145.2402,38.2762 137.3882,23.2462" id="Fill-135" fill="#FFFDFE" mask="url(#mask-2)"></path>
            </g>
            <path d="M131.0152,26.3556 C123.8612,12.6616 107.6852,7.9306 93.3902,6.4856 C76.5492,4.7826 59.2022,7.5626 43.0242,12.2266 C30.4012,15.8656 16.5832,22.1676 10.9982,34.9296 C10.1542,36.8616 7.2392,42.4116 6.8652,50.8136 C6.2452,64.7546 18.6382,72.0326 30.5812,75.2396 C39.9602,77.7586 61.2412,81.1366 62.0642,81.1116 C71.2792,80.8336 72.3982,97.2696 72.0142,103.5236 C71.8482,106.2316 75.3642,106.6226 76.6852,104.7886 C82.3802,96.8816 86.5102,88.1016 89.0262,78.6896 C100.4792,76.2926 111.2482,71.5486 120.3432,63.5646 C130.9662,54.2396 138.1192,39.9566 131.0152,26.3556" id="Fill-138" fill="#E23365"></path>
            <path d="M62.3267,80.1085 C64.4687,80.1085 66.3707,80.9355 67.9547,82.5675 C72.6767,87.4395 73.3277,98.4455 73.0127,103.5855 C72.9737,104.2115 73.2267,104.6255 73.7647,104.8165 C74.4127,105.0495 75.3837,104.8845 75.8737,104.2045 C81.4627,96.4445 85.5627,87.7745 88.0597,78.4315 L88.2187,77.8375 L88.8207,77.7115 C100.9257,75.1765 111.3087,70.1645 119.6827,62.8135 C129.3777,54.3035 137.2127,40.3785 130.1287,26.8185 C124.4147,15.8805 112.0197,9.3745 93.2897,7.4805 C78.4547,5.9805 61.6377,7.9005 43.3017,13.1875 C26.5947,18.0035 16.3277,25.2465 11.9147,35.3305 C11.8307,35.5225 11.7267,35.7485 11.6077,36.0095 C10.4997,38.4295 8.1927,43.4655 7.8637,50.8585 C7.2057,65.6865 21.9767,71.8935 30.8417,74.2735 C40.0667,76.7515 60.8487,80.0615 62.0687,80.1125 C62.1547,80.1095 62.2407,80.1085 62.3267,80.1085 M74.3777,106.9205 C73.9447,106.9205 73.5097,106.8495 73.0927,106.7005 C71.7197,106.2115 70.9237,104.9705 71.0157,103.4625 C71.3607,97.8445 70.4477,88.0135 66.5177,83.9605 C65.2627,82.6655 63.8557,82.0595 62.0947,82.1115 L62.0797,82.1115 C60.8877,82.1115 39.6787,78.7175 30.3217,76.2055 C20.8797,73.6695 5.1447,66.9935 5.8657,50.7695 C6.2127,42.9875 8.7187,37.5145 9.7897,35.1765 C9.9027,34.9275 10.0027,34.7125 10.0827,34.5285 C14.7487,23.8665 25.4327,16.2565 42.7467,11.2655 C61.3307,5.9075 78.4007,3.9655 93.4907,5.4905 C112.9317,7.4565 125.8557,14.3205 131.9017,25.8925 C139.5207,40.4795 131.2677,55.3055 121.0037,64.3165 C112.5057,71.7755 102.0207,76.8965 89.8317,79.5405 C87.2577,88.8925 83.1097,97.5805 77.4967,105.3735 C76.7867,106.3585 75.5937,106.9205 74.3777,106.9205" id="Fill-140" fill="#050505"></path>
            <path d="M37.9371,60.1881 C37.9371,59.3861 38.2731,58.9851 38.9441,58.9851 C39.2791,58.9851 39.7201,59.0981 40.2681,59.3241 C40.8151,59.5501 41.2891,59.6631 41.6901,59.6631 C42.0911,59.6631 42.5251,59.4081 42.9921,58.8971 C43.4581,58.3861 43.8231,57.7521 44.0851,56.9941 C44.6251,55.4481 44.8951,54.0501 44.8951,52.8031 C44.8951,51.5561 44.6761,50.2181 44.2391,48.7891 C43.8011,47.3591 43.2691,46.0171 42.6421,44.7621 C42.0141,43.5081 41.3791,42.2531 40.7381,41.0001 C39.2211,38.0091 38.4691,35.2821 38.4851,32.8161 C38.4691,30.4821 39.2071,28.6521 40.6941,27.3241 C41.4821,26.6241 42.4081,26.2741 43.4731,26.2741 C44.0121,26.2741 44.5381,26.4231 45.0481,26.7221 C45.5591,27.0221 45.9161,27.4121 46.1211,27.8931 L45.3551,28.8561 C44.6111,28.8561 44.0271,28.7101 43.6041,28.4181 C43.0501,28.4771 42.5691,28.7391 42.1611,29.2061 C41.4161,30.0671 41.0441,31.1271 41.0441,32.3891 C41.0441,33.6511 41.2051,34.8801 41.5261,36.0761 C41.8461,37.2721 42.2481,38.3441 42.7291,39.2921 C43.2101,40.2411 43.7281,41.2691 44.2831,42.3771 C44.8511,43.4871 45.3761,44.5511 45.8581,45.5721 C46.9811,47.9351 47.5421,50.4881 47.5421,53.2301 C47.5571,55.1561 47.0691,57.0081 46.0771,58.7881 C45.6101,59.6341 44.9681,60.3311 44.1511,60.8771 C43.3341,61.4241 42.4221,61.6981 41.4161,61.6981 C40.3361,61.6981 39.4871,61.5371 38.8681,61.2161 C38.2481,60.8951 37.9371,60.5531 37.9371,60.1881" id="Fill-142" fill="#020202"></path>
            <path d="M52.5318,42.9684 C54.8068,40.8384 55.9448,38.3084 55.9448,35.3764 L55.9448,35.3544 C55.9448,33.6774 55.7408,32.5024 55.3328,31.8314 C55.1278,31.5114 54.9638,31.2594 54.8398,31.0764 C54.7158,30.8944 54.4648,30.6504 54.0858,30.3434 C53.6328,29.9794 52.9398,29.4614 52.0068,28.7904 C52.0068,30.3654 52.0948,32.7284 52.2688,35.8794 C52.4438,39.0304 52.5318,41.3934 52.5318,42.9684 M50.4308,59.4444 L50.6498,43.4494 C50.6498,36.4194 50.2628,31.0874 49.4898,27.4554 C49.9568,26.7844 50.5328,26.4484 51.2188,26.4484 C52.3268,26.4484 53.3378,26.6974 54.2498,27.1934 C55.1608,27.6894 55.9008,28.3454 56.4698,29.1614 C57.6518,30.8684 58.2428,32.8164 58.2428,35.0044 C58.2428,37.1924 57.7678,39.1804 56.8198,40.9664 C55.8718,42.7534 54.4788,44.1434 52.6408,45.1344 L52.9908,59.0944 C52.9908,60.3344 52.4948,60.9534 51.5038,60.9534 C51.1378,60.9534 50.8688,60.7974 50.6938,60.4834 C50.5178,60.1694 50.4308,59.8234 50.4308,59.4444" id="Fill-144" fill="#020202"></path>
            <path d="M66.732,46.0641 C66.469,43.4171 66.232,40.8931 66.021,38.4941 C65.809,36.0941 65.704,34.6431 65.704,34.1401 C65.704,33.6361 65.711,33.3491 65.725,33.2761 C65.258,33.7571 64.584,36.4341 63.702,41.3051 C62.819,46.1771 62.348,49.2621 62.29,50.5611 C63.53,50.8971 64.569,51.0641 65.408,51.0641 C66.247,51.0641 66.841,51.0201 67.191,50.9331 C67.147,50.3351 66.995,48.7111 66.732,46.0641 M68.614,60.6911 C67.695,60.6911 67.235,60.3051 67.235,59.5321 L67.235,53.6901 C66.812,53.3981 66.049,53.1501 64.949,52.9461 C63.847,52.7421 62.866,52.6101 62.005,52.5521 C61.699,53.0771 61.448,53.8351 61.251,54.8281 C61.054,55.8201 60.849,56.8191 60.638,57.8251 C60.426,58.8321 60.146,59.6271 59.795,60.2101 C58.628,60.2101 57.972,59.9111 57.827,59.3131 C58.235,58.7301 58.899,55.7471 59.818,50.3641 C60.737,44.9811 61.492,40.7691 62.083,37.7281 C62.673,34.6871 63.311,32.1301 63.997,30.0591 C64.682,27.9881 65.338,26.9531 65.966,26.9531 C66.593,26.9531 67.074,27.0841 67.41,27.3461 C67.41,28.4111 67.702,31.2921 68.285,35.9891 C68.869,40.6861 69.161,43.7231 69.161,45.1021 C69.161,46.4801 69.317,48.7701 69.63,51.9721 C69.944,55.1741 70.101,57.5771 70.101,59.1811 C70.101,60.1881 69.605,60.6911 68.614,60.6911" id="Fill-146" fill="#020202"></path>
            <path d="M75.2867,38.8551 L74.8927,41.9841 L74.8927,43.0561 C74.8927,46.5281 74.9697,48.8251 75.1227,49.9481 C75.2757,51.0721 75.4327,52.0781 75.5937,52.9671 C75.7537,53.8581 75.9617,54.6161 76.2177,55.2431 C76.4727,55.8711 76.7747,56.4611 77.1247,57.0151 C77.8247,58.1251 78.7947,58.6781 80.0347,58.6781 C80.5457,58.6781 81.1807,58.4131 81.9377,57.8791 C82.6967,57.3471 83.2727,57.0811 83.6677,57.0811 C84.0607,57.0811 84.4837,57.3071 84.9357,57.7591 C84.9357,59.2621 84.0827,60.3341 82.3767,60.9761 C81.5297,61.2821 80.6107,61.4351 79.6197,61.4351 C78.6277,61.4351 77.7817,61.2351 77.0817,60.8341 C76.3817,60.4321 75.7977,59.9151 75.3307,59.2801 C74.8637,58.6451 74.4557,57.8331 74.1047,56.8401 C73.7557,55.8481 73.4777,54.8641 73.2737,53.8861 C73.0987,52.8951 72.9527,51.7571 72.8367,50.4731 C72.6617,48.3151 72.5657,45.9521 72.5527,43.3841 L72.5957,38.0241 C72.5957,36.3171 72.6977,34.9381 72.9017,33.8881 C72.8147,33.4071 72.7707,32.9401 72.7707,32.4881 C72.7707,30.6501 73.4567,29.1881 74.8277,28.1011 C76.1987,27.0141 77.8907,26.4711 79.9037,26.4711 C80.6177,26.4711 81.3177,26.6711 82.0047,27.0731 C82.6897,27.4741 83.0327,28.0021 83.0327,28.6591 C83.0327,28.9801 82.9087,29.2281 82.6607,29.4031 C82.4127,29.5781 81.9937,29.6661 81.4027,29.6661 C80.8117,29.6661 80.4067,29.4831 80.1877,29.1191 L80.1877,29.1401 L79.5757,29.1401 L79.5757,29.0311 C77.8397,29.0311 76.6577,29.5711 76.0307,30.6501 C75.4477,31.6421 75.1557,33.3491 75.1557,35.7701 L75.2867,38.8551 Z" id="Fill-148" fill="#020202"></path>
            <path d="M92.0474,44.3033 L90.9314,44.2593 C90.4934,44.2593 90.1874,44.3683 90.0124,44.5873 L90.0124,58.4153 C91.5434,58.3283 92.3754,58.2843 92.5064,58.2843 C94.2134,58.2843 95.0674,58.6783 95.0674,59.4663 L95.0674,59.6183 C94.8614,60.0283 94.5124,60.3413 94.0164,60.5603 C93.5204,60.7793 93.0824,60.9033 92.7034,60.9323 C92.3234,60.9613 91.8354,60.9763 91.2374,60.9763 L89.8374,60.9763 C88.7284,60.9763 88.0434,60.7573 87.7804,60.3193 C87.6634,60.1153 87.6054,59.8453 87.6054,59.5093 L87.6054,33.4723 C87.6054,32.9623 87.5034,32.2033 87.2994,31.1973 C87.0944,30.1903 86.9924,29.4243 86.9924,28.9003 L86.9924,28.7463 C87.4884,27.9293 87.8604,27.4053 88.1094,27.1713 L91.4344,26.7773 C91.8864,26.7773 92.3424,26.9123 92.8024,27.1823 C93.2614,27.4513 93.4904,27.8053 93.4904,28.2423 C93.4904,29.1333 92.8134,29.5773 91.4564,29.5773 L90.1654,29.5333 C89.9464,29.5333 89.7854,29.5413 89.6844,29.5563 L90.0334,36.9513 C90.0334,37.5493 89.9974,38.4213 89.9244,39.5663 C89.8524,40.7113 89.8154,41.5463 89.8154,42.0723 C89.9764,42.0423 90.1944,41.9913 90.4724,41.9183 C91.0844,41.7573 91.5624,41.6773 91.9044,41.6773 C92.2474,41.6773 92.5544,41.8013 92.8234,42.0493 C93.0934,42.2973 93.2294,42.5963 93.2294,42.9473 C93.2294,43.2963 93.1194,43.6113 92.9014,43.8873 C92.6814,44.1643 92.3974,44.3033 92.0474,44.3033" id="Fill-150" fill="#020202"></path>
            <path d="M99.6177,48.8326 L99.6617,50.9546 C99.6617,52.9966 99.3847,54.0186 98.8297,54.0186 C98.5227,54.0186 98.2427,53.6536 97.9877,52.9236 C97.7317,52.1946 97.6037,51.2756 97.6037,50.1666 L97.7797,42.7496 L97.5607,28.0466 C97.5607,27.5796 97.7577,27.1746 98.1517,26.8316 C98.5457,26.4896 98.9387,26.3176 99.3327,26.3176 C99.7267,26.3176 100.0297,26.4236 100.2407,26.6356 C100.4527,26.8466 100.5577,27.1046 100.5577,27.4116 C100.5577,29.8046 100.4007,33.3776 100.0877,38.1336 C99.7737,42.8886 99.6177,46.4546 99.6177,48.8326 M100.2297,60.1446 C100.2297,61.1946 99.4937,61.7196 98.0197,61.7196 C97.6837,61.7196 97.3527,61.5626 97.0247,61.2496 C96.6967,60.9356 96.5327,60.5206 96.5327,60.0026 C96.5327,59.4846 96.7147,59.0176 97.0797,58.6026 C97.4437,58.1866 97.8957,57.9786 98.4357,57.9786 C98.9747,57.9786 99.4097,58.1896 99.7377,58.6126 C100.0657,59.0356 100.2297,59.5466 100.2297,60.1446" id="Fill-152" fill="#020202"></path>
        </g>
    </g>
</svg>