<?xml version="1.0" encoding="UTF-8"?>
<svg width="157px" height="134px" viewBox="0 0 157 134" version="1.1" xmlns="http://www.w3.org/2000/svg" xmlns:xlink="http://www.w3.org/1999/xlink">
    <!-- Generator: Sketch 53.1 (72631) - https://sketchapp.com -->
    <title>Group 53Sticker1</title>
    <desc>Created with Sketch.</desc>
    <g id="Page-1" stroke="none" stroke-width="1" fill="none" fill-rule="evenodd">
        <g id="Group-53" transform="translate(0.790509, 0.627600)">
            <path d="M33.6904911,133.204 L22.3404911,133.204 L22.3404911,128.204 C22.3404911,122.858 27.3134911,118.611 33.8444911,118.193 C34.0724911,114.085 34.5064911,110.207 35.1464911,106.595 C35.0974911,106.559 35.0494911,106.524 35.0024911,106.488 C34.8154911,106.35 34.6284911,106.204 34.4434911,106.059 L34.2094911,105.877 C33.7184911,105.5 33.2644911,105.15 32.8214911,104.791 C32.5864911,104.601 32.3594911,104.408 32.1314911,104.214 L31.9104911,104.026 C31.5054911,103.685 31.1044911,103.344 30.7134911,102.996 C30.4104911,102.727 30.1044911,102.444 29.7984911,102.161 C29.4304911,101.819 29.0634911,101.475 28.7054911,101.124 C28.4134911,100.84 28.1154911,100.545 27.8214911,100.247 C27.4684911,99.888 27.1284911,99.531 26.7924911,99.171 C26.5094911,98.871 26.2254911,98.566 25.9484911,98.257 C25.6164911,97.886 25.2924911,97.508 24.9684911,97.128 L24.7744911,96.9 C24.5774911,96.668 24.3784911,96.437 24.1874911,96.201 C23.8664911,95.807 23.5564911,95.404 23.2474911,95.001 L23.0104911,94.696 C22.8474911,94.488 22.6864911,94.28 22.5314911,94.069 C22.0234911,93.38 21.5284911,92.674 21.0524911,91.957 C20.9134911,91.748 20.7774911,91.532 20.6424911,91.315 C20.6424911,91.315 20.3954911,90.923 20.3944911,90.921 C18.9174911,94.156 16.0474911,96.305 12.6804911,96.305 C7.75549113,96.305 3.89749113,91.708 3.89749113,85.84 C3.89749113,83.836 4.35249113,81.925 5.20249113,80.285 C5.17249113,75.737 6.03149113,68.497 10.1814911,59.461 L10.0504911,58.9 L10.3164911,59.168 C11.5584911,56.498 13.0874911,53.674 14.9664911,50.717 C16.9714911,44.423 20.2984911,38.486 24.7644911,33.175 C24.6944911,33.211 24.6234911,33.247 24.5514911,33.283 C22.1824911,34.463 19.6424911,35.061 17.0034911,35.061 C10.5064911,35.061 4.67449113,31.455 1.78549113,25.651 C-0.234508868,21.596 -0.551508868,16.992 0.890491132,12.688 C2.33349113,8.384 5.36149113,4.902 9.41749113,2.882 C11.7874911,1.702 14.3274911,1.103 16.9654911,1.103 C23.4624911,1.103 29.2944911,4.709 32.1844911,10.514 C33.4724911,13.099 34.0654911,15.926 33.9444911,18.759 L38.6414911,21.077 C50.2394911,13.626 64.5334911,9.551 79.2414911,9.551 C93.1524911,9.551 106.352491,13.052 117.609491,19.701 L121.753491,17.655 C121.632491,14.823 122.226491,11.995 123.513491,9.41 C126.403491,3.606 132.235491,-1.42108547e-14 138.733491,-1.42108547e-14 C141.371491,-1.42108547e-14 143.911491,0.599 146.282491,1.779 C154.663491,5.953 158.086491,16.167 153.913491,24.547 C151.023491,30.352 145.191491,33.958 138.694491,33.958 C137.035491,33.958 135.372491,33.707 133.778491,33.224 C138.930491,39.35 142.525491,46.289 144.365491,53.746 C145.616491,55.805 146.697491,57.794 147.630491,59.71 L148.431491,58.9 L148.043491,60.57 C152.422491,69.885 153.308491,77.334 153.280491,81.939 C154.129491,83.58 154.585491,85.492 154.585491,87.495 C154.585491,93.363 150.726491,97.96 145.801491,97.96 C142.094491,97.96 138.991491,95.355 137.683491,91.564 C137.599491,91.699 137.513491,91.832 137.424491,91.965 C136.951491,92.677 136.458491,93.381 135.946491,94.076 C135.795491,94.281 135.634491,94.488 135.471491,94.696 L135.290491,94.93 C134.926491,95.403 134.617491,95.807 134.294491,96.202 C134.100491,96.44 133.898491,96.678 133.695491,96.915 L133.515491,97.125 C133.191491,97.506 132.868491,97.885 132.534491,98.257 C132.267491,98.554 131.997491,98.844 131.726491,99.134 C131.349491,99.536 131.009491,99.891 130.665491,100.243 C130.370491,100.542 130.073491,100.837 129.771491,101.13 C129.409491,101.482 129.047491,101.824 128.681491,102.163 C128.333491,102.486 128.048491,102.747 127.758491,103.004 C127.372491,103.349 126.973491,103.688 126.572491,104.026 L126.431491,104.145 C126.178491,104.361 125.924491,104.576 125.665491,104.787 C125.206491,105.16 124.740491,105.519 124.273491,105.877 L124.039491,106.059 C123.853491,106.204 123.667491,106.35 123.476491,106.491 C122.947491,106.884 122.408491,107.273 121.860491,107.654 C122.401491,110.961 122.776491,114.484 122.981491,118.193 C129.512491,118.611 134.486491,122.858 134.486491,128.204 L134.486491,133.204 L122.836491,133.204 L122.826491,133.355 L115.979491,133.204 L109.353491,133.204 L109.353491,133.058 L108.824491,133.046 L108.934491,128.046 C109.039491,123.333 108.887491,118.927 108.484491,114.878 L108.238491,114.979 C107.973491,115.088 107.708491,115.197 107.439491,115.302 C106.828491,115.54 106.206491,115.767 105.583491,115.991 C105.583491,115.991 104.883491,116.248 104.684491,116.317 C103.749491,116.639 102.812491,116.944 101.862491,117.229 C101.760491,117.26 101.642491,117.293 101.523491,117.326 C100.628491,117.589 99.8074911,117.818 98.9804911,118.032 C98.7454911,118.092 97.9554911,118.281 97.9554911,118.281 C97.3184911,118.436 96.6774911,118.588 96.0324911,118.728 C95.7334911,118.793 95.4274911,118.854 95.1224911,118.915 L94.8554911,118.968 C94.2444911,119.091 93.6334911,119.208 93.0204911,119.315 C92.6094911,119.388 92.1984911,119.454 91.7854911,119.52 C91.1744911,119.618 90.5604911,119.707 89.9444911,119.79 C89.5304911,119.846 89.1144911,119.901 88.6934911,119.951 C88.0604911,120.026 87.4224911,120.09 86.7854911,120.15 L86.5304911,120.174 C86.2124911,120.204 85.8944911,120.235 85.5744911,120.26 C84.8754911,120.315 84.1694911,120.355 83.4614911,120.392 L83.1164911,120.412 C82.8854911,120.426 82.6544911,120.44 82.4214911,120.449 C81.3684911,120.49 80.3084911,120.515 79.2414911,120.515 C78.1734911,120.515 77.1144911,120.49 76.0594911,120.449 C75.8274911,120.44 75.5974911,120.426 75.3674911,120.412 L75.0264911,120.393 C74.3134911,120.355 73.6074911,120.315 72.9064911,120.26 C72.5874911,120.235 72.2694911,120.204 71.9514911,120.174 L71.6954911,120.15 C71.0584911,120.09 70.4214911,120.026 69.7884911,119.951 C69.3684911,119.901 68.9524911,119.846 68.5344911,119.789 C67.9214911,119.707 67.3084911,119.618 66.6974911,119.52 C66.2834911,119.454 65.8734911,119.388 65.4624911,119.316 C64.8484911,119.208 64.2394911,119.09 63.6304911,118.969 L63.3614911,118.915 C63.0564911,118.854 62.7524911,118.794 62.4504911,118.728 C61.8024911,118.588 61.1634911,118.436 60.5254911,118.28 L60.2224911,118.207 C59.9814911,118.151 59.7414911,118.094 59.5024911,118.032 C58.6744911,117.818 57.8544911,117.588 57.0394911,117.348 C56.8434911,117.294 56.7264911,117.262 56.6114911,117.227 C55.6694911,116.944 54.7324911,116.639 53.8044911,116.319 C53.5934911,116.246 52.8984911,115.99 52.8984911,115.99 C52.2764911,115.767 51.6544911,115.54 51.0424911,115.301 C50.7664911,115.194 50.4924911,115.081 50.2164911,114.968 L49.9634911,114.864 C49.4454911,114.652 48.9224911,114.435 48.4074911,114.21 C47.9544911,118.435 47.7814911,123.064 47.8924911,128.046 L48.0034911,133.046 L47.4734911,133.058 L47.4734911,133.204 L40.8474911,133.204 L33.6904911,133.362 L33.6904911,133.204 Z" id="Fill-288" fill="#F4F4F4"></path>
            <path d="M139.686591,55.681 C137.227591,44.914 130.610591,35.357 121.247591,28.168 L129.204591,24.242 C130.280591,25.656 131.677591,26.859 133.373591,27.703 C139.286591,30.647 146.493591,28.232 149.437591,22.319 C152.381591,16.406 149.965591,9.199 144.052591,6.255 C138.139591,3.31 130.933591,5.726 127.989591,11.639 C126.563591,14.502 126.404591,17.665 127.280591,20.504 L117.335591,25.411 C106.857591,18.617 93.6315911,14.551 79.2415911,14.551 C63.8645911,14.551 49.8165911,19.191 39.0325911,26.845 L28.4175911,21.607 C29.2935911,18.768 29.1345911,15.605 27.7085911,12.743 C24.7645911,6.829 17.5585911,4.414 11.6445911,7.358 C5.73159113,10.303 3.31659113,17.509 6.25959113,23.422 C9.20559113,29.335 16.4115911,31.751 22.3245911,28.806 C24.0195911,27.962 25.4165911,26.76 26.4935911,25.345 L35.3195911,29.701 C27.7645911,36.025 22.2225911,43.97 19.5405911,52.846 C10.7585911,66.418 9.96359113,76.798 10.2465911,81.66 C9.42159113,82.663 8.89759113,84.162 8.89759113,85.84 C8.89759113,88.858 10.5905911,91.305 12.6805911,91.305 C14.7695911,91.305 16.4635911,88.858 16.4635911,85.84 C16.4635911,83.742 15.6435911,81.922 14.4425911,81.006 C14.3375911,77.975 14.7465911,72.459 17.7305911,65.211 C17.7455911,68.562 18.1575911,71.836 18.9305911,75.003 C18.9285911,75.001 18.9275911,74.999 18.9255911,74.996 C18.9305911,75.018 18.9375911,75.038 18.9425911,75.059 C19.0255911,75.396 19.1235911,75.727 19.2145911,76.06 C19.3325911,76.495 19.4495911,76.93 19.5805911,77.36 C19.6905911,77.719 19.8125911,78.073 19.9315911,78.428 C20.0655911,78.827 20.1995911,79.227 20.3445911,79.622 C20.4765911,79.981 20.6175911,80.337 20.7575911,80.693 C20.9125911,81.079 21.0695911,81.464 21.2335911,81.846 C21.3845911,82.198 21.5405911,82.549 21.7015911,82.897 C21.8765911,83.278 22.0595911,83.654 22.2465911,84.03 C22.4155911,84.371 22.5835911,84.713 22.7615911,85.05 C22.9625911,85.432 23.1745911,85.808 23.3865911,86.185 C23.5685911,86.506 23.7455911,86.829 23.9335911,87.147 C24.1785911,87.559 24.4395911,87.965 24.6975911,88.37 C24.8715911,88.644 25.0375911,88.921 25.2165911,89.191 C25.6485911,89.84 26.0965911,90.479 26.5615911,91.11 C26.7525911,91.37 26.9575911,91.624 27.1565911,91.881 C27.4555911,92.271 27.7525911,92.661 28.0645911,93.044 C28.2945911,93.328 28.5375911,93.605 28.7745911,93.885 C29.0705911,94.232 29.3665911,94.579 29.6715911,94.92 C29.9245911,95.202 30.1845911,95.479 30.4445911,95.757 C30.7525911,96.086 31.0645911,96.414 31.3825911,96.737 C31.6515911,97.009 31.9225911,97.279 32.1975911,97.547 C32.5265911,97.867 32.8615911,98.182 33.2005911,98.496 C33.4775911,98.753 33.7555911,99.01 34.0395911,99.263 C34.3985911,99.581 34.7655911,99.894 35.1345911,100.205 C35.4125911,100.44 35.6865911,100.677 35.9705911,100.907 C36.3905911,101.248 36.8225911,101.58 37.2545911,101.912 C37.4985911,102.099 37.7375911,102.291 37.9855911,102.475 C38.6595911,102.976 39.3465911,103.465 40.0465911,103.941 C40.2535911,104.081 40.4685911,104.214 40.6765911,104.351 C40.6805911,104.354 40.6845911,104.357 40.6885911,104.359 C39.5235911,109.587 38.7435911,115.986 38.6655911,123.829 C37.5565911,123.406 36.2765911,123.16 34.9075911,123.16 C30.7285911,123.16 27.3405911,125.418 27.3405911,128.203 L38.6905911,128.203 L38.6905911,128.25 L40.7915911,128.203 L42.4735911,128.203 C42.4735911,128.191 42.4705911,128.179 42.4705911,128.166 L42.8935911,128.157 C42.6975911,119.324 43.3705911,112.285 44.4935911,106.687 C44.4985911,106.69 44.5045911,106.693 44.5105911,106.697 C44.8345911,106.879 45.1645911,107.055 45.4925911,107.232 C45.9475911,107.478 46.4035911,107.72 46.8665911,107.955 C47.2065911,108.128 47.5465911,108.297 47.8905911,108.464 C48.3605911,108.693 48.8325911,108.916 49.3105911,109.135 C49.6545911,109.292 49.9985911,109.449 50.3455911,109.601 C50.8445911,109.819 51.3505911,110.029 51.8585911,110.236 C52.1915911,110.373 52.5235911,110.512 52.8605911,110.643 C53.4305911,110.866 54.0105911,111.077 54.5905911,111.285 C54.8735911,111.387 55.1505911,111.494 55.4345911,111.592 C56.2995911,111.89 57.1725911,112.174 58.0575911,112.441 C58.1885911,112.48 58.3225911,112.514 58.4535911,112.552 C59.2135911,112.776 59.9795911,112.991 60.7535911,113.191 C61.0705911,113.273 61.3925911,113.345 61.7115911,113.423 C62.3075911,113.568 62.9045911,113.711 63.5075911,113.841 C63.8735911,113.92 64.2425911,113.992 64.6105911,114.066 C65.1795911,114.18 65.7495911,114.289 66.3255911,114.39 C66.7085911,114.458 67.0945911,114.521 67.4815911,114.582 C68.0535911,114.673 68.6275911,114.757 69.2055911,114.835 C69.5935911,114.887 69.9835911,114.939 70.3755911,114.985 C70.9685911,115.056 71.5665911,115.116 72.1655911,115.172 C72.5425911,115.207 72.9185911,115.245 73.2985911,115.275 C73.9565911,115.327 74.6185911,115.365 75.2815911,115.399 C75.6055911,115.416 75.9275911,115.44 76.2535911,115.452 C77.2445911,115.491 78.2395911,115.514 79.2415911,115.514 C80.2435911,115.514 81.2385911,115.491 82.2275911,115.452 C82.5535911,115.44 82.8755911,115.416 83.2015911,115.399 C83.8645911,115.365 84.5265911,115.327 85.1835911,115.275 C85.5625911,115.245 85.9395911,115.207 86.3165911,115.172 C86.9155911,115.116 87.5125911,115.056 88.1065911,114.985 C88.4985911,114.939 88.8875911,114.887 89.2775911,114.835 C89.8545911,114.757 90.4285911,114.673 90.9995911,114.582 C91.3865911,114.521 91.7725911,114.458 92.1575911,114.39 C92.7315911,114.29 93.3015911,114.18 93.8705911,114.066 C94.2395911,113.992 94.6085911,113.92 94.9745911,113.841 C95.5775911,113.711 96.1735911,113.568 96.7695911,113.423 C97.0885911,113.345 97.4115911,113.273 97.7285911,113.191 C98.5005911,112.991 99.2655911,112.777 100.024591,112.553 C100.157591,112.514 100.292591,112.48 100.424591,112.44 C101.309591,112.174 102.182591,111.89 103.046591,111.592 C103.331591,111.494 103.608591,111.387 103.890591,111.286 C104.471591,111.077 105.050591,110.866 105.622591,110.643 C105.958591,110.512 106.290591,110.373 106.623591,110.237 C107.130591,110.029 107.636591,109.82 108.135591,109.601 C108.484591,109.449 108.828591,109.292 109.171591,109.134 C109.648591,108.916 110.122591,108.693 110.590591,108.465 C110.934591,108.297 111.276591,108.128 111.616591,107.955 C111.907591,107.807 112.198591,107.659 112.486591,107.507 C113.513591,112.971 114.120591,119.744 113.933591,128.157 L114.356591,128.166 C114.355591,128.179 114.353591,128.191 114.353591,128.203 L116.035591,128.203 L118.135591,128.25 C118.136591,128.235 118.136591,128.22 118.136591,128.203 L129.486591,128.203 C129.486591,125.418 126.098591,123.16 121.919591,123.16 C120.550591,123.16 119.269591,123.406 118.161591,123.829 C118.087591,116.45 117.391591,110.352 116.339591,105.301 C116.834591,104.993 117.319591,104.673 117.802591,104.353 C118.012591,104.215 118.227591,104.082 118.434591,103.941 C119.135591,103.465 119.822591,102.976 120.497591,102.475 C120.745591,102.291 120.982591,102.099 121.226591,101.912 C121.659591,101.58 122.090591,101.248 122.511591,100.907 C122.795591,100.676 123.070591,100.439 123.348591,100.204 C123.716591,99.893 124.082591,99.582 124.441591,99.264 C124.726591,99.01 125.004591,98.753 125.283591,98.494 C125.621591,98.182 125.955591,97.867 126.283591,97.547 C126.558591,97.28 126.831591,97.009 127.099591,96.737 C127.416591,96.414 127.728591,96.087 128.037591,95.757 C128.297591,95.479 128.557591,95.202 128.811591,94.919 C129.116591,94.579 129.411591,94.233 129.706591,93.887 C129.944591,93.606 130.186591,93.328 130.417591,93.044 C130.729591,92.661 131.027591,92.271 131.326591,91.881 C131.523591,91.624 131.728591,91.37 131.920591,91.11 C132.384591,90.479 132.832591,89.84 133.264591,89.191 C133.445591,88.92 133.611591,88.642 133.786591,88.368 C134.043591,87.963 134.302591,87.559 134.547591,87.148 C134.737591,86.829 134.914591,86.506 135.095591,86.183 C135.307591,85.807 135.519591,85.431 135.719591,85.051 C135.898591,84.712 136.067591,84.37 136.237591,84.028 C136.422591,83.654 136.604591,83.278 136.779591,82.899 C136.940591,82.55 137.096591,82.199 137.248591,81.846 C137.413591,81.464 137.570591,81.079 137.723591,80.693 C137.865591,80.337 138.005591,79.981 138.137591,79.622 C138.282591,79.227 138.416591,78.827 138.550591,78.428 C138.669591,78.073 138.791591,77.719 138.901591,77.36 C139.033591,76.93 139.149591,76.495 139.266591,76.06 C139.357591,75.727 139.456591,75.396 139.539591,75.059 C139.543591,75.038 139.550591,75.018 139.556591,74.996 C139.554591,74.999 139.552591,75.001 139.551591,75.003 C140.206591,72.324 140.588591,69.565 140.704591,66.749 C143.732591,74.056 144.144591,79.614 144.039591,82.661 C142.837591,83.577 142.018591,85.397 142.018591,87.495 C142.018591,90.513 143.711591,92.96 145.801591,92.96 C147.890591,92.96 149.583591,90.513 149.583591,87.495 C149.583591,85.817 149.059591,84.318 148.236591,83.315 C148.509591,78.596 147.762591,68.672 139.686591,55.681" id="Fill-290" fill="#ED8A6B"></path>
            <path d="M14.4424911,81.0062 C14.2844911,76.4432 15.2544911,66.2742 24.4944911,52.9912 L21.0444911,50.5912 C10.8334911,65.2692 9.94849113,76.5312 10.2464911,81.6602 C9.42149113,82.6632 8.89749113,84.1622 8.89749113,85.8392 C8.89749113,88.8582 10.5904911,91.3042 12.6804911,91.3042 C14.7694911,91.3042 16.4634911,88.8582 16.4634911,85.8392 C16.4634911,83.7412 15.6434911,81.9222 14.4424911,81.0062" id="Fill-292" fill="#41A2C9"></path>
            <path d="M14.4424911,81.0062 C14.2844911,76.4432 15.2544911,66.2742 24.4944911,52.9912 L21.0444911,50.5912 C10.8334911,65.2692 9.94849113,76.5312 10.2464911,81.6602 C9.42149113,82.6632 8.89749113,84.1622 8.89749113,85.8392 C8.89749113,88.8582 10.5904911,91.3042 12.6804911,91.3042 C14.7694911,91.3042 16.4634911,88.8582 16.4634911,85.8392 C16.4634911,83.7412 15.6434911,81.9222 14.4424911,81.0062 Z" id="Stroke-294" stroke="#000000" stroke-width="2"></path>
            <path d="M148.236391,83.3153 C148.533391,78.1873 147.649391,66.9243 137.438391,52.2463 L133.987391,54.6473 C143.227391,67.9293 144.197391,78.0983 144.039391,82.6613 C142.838391,83.5773 142.018391,85.3973 142.018391,87.4953 C142.018391,90.5133 143.712391,92.9603 145.801391,92.9603 C147.890391,92.9603 149.584391,90.5133 149.584391,87.4953 C149.584391,85.8173 149.059391,84.3173 148.236391,83.3153" id="Fill-296" fill="#41A2C9"></path>
            <path d="M148.236391,83.3153 C148.533391,78.1873 147.649391,66.9243 137.438391,52.2463 L133.987391,54.6473 C143.227391,67.9293 144.197391,78.0983 144.039391,82.6613 C142.838391,83.5773 142.018391,85.3973 142.018391,87.4953 C142.018391,90.5133 143.712391,92.9603 145.801391,92.9603 C147.890391,92.9603 149.584391,90.5133 149.584391,87.4953 C149.584391,85.8173 149.059391,84.3173 148.236391,83.3153 Z" id="Stroke-298" stroke="#000000" stroke-width="2"></path>
            <path d="M55.5185911,85.9867 L54.6645911,84.0667 L53.8355911,82.1347 C53.2065911,82.4037 39.0145911,88.9087 38.6645911,123.8297 C37.5565911,123.4057 36.2765911,123.1597 34.9075911,123.1597 C30.7285911,123.1597 27.3405911,125.4177 27.3405911,128.2037 L38.6905911,128.2037 L38.6905911,128.2507 L40.7915911,128.2037 L42.4735911,128.2037 C42.4735911,128.1907 42.4705911,128.1787 42.4705911,128.1667 L42.8935911,128.1567 C42.1035911,92.5987 55.3835911,86.0487 55.5185911,85.9867" id="Fill-300" fill="#41A2C9"></path>
            <path d="M55.5185911,85.9867 L54.6645911,84.0667 L53.8355911,82.1347 C53.2065911,82.4037 39.0145911,88.9087 38.6645911,123.8297 C37.5565911,123.4057 36.2765911,123.1597 34.9075911,123.1597 C30.7285911,123.1597 27.3405911,125.4177 27.3405911,128.2037 L38.6905911,128.2037 L38.6905911,128.2507 L40.7915911,128.2037 L42.4735911,128.2037 C42.4735911,128.1907 42.4705911,128.1787 42.4705911,128.1667 L42.8935911,128.1567 C42.1035911,92.5987 55.3835911,86.0487 55.5185911,85.9867 Z" id="Stroke-302" stroke="#000000" stroke-width="2"></path>
            <path d="M101.308691,85.9867 L102.162691,84.0667 L102.991691,82.1347 C103.619691,82.4037 117.812691,88.9087 118.162691,123.8297 C119.269691,123.4057 120.550691,123.1597 121.919691,123.1597 C126.098691,123.1597 129.486691,125.4177 129.486691,128.2037 L118.136691,128.2037 C118.136691,128.2197 118.136691,128.2347 118.135691,128.2507 L116.035691,128.2037 L114.353691,128.2037 C114.353691,128.1907 114.355691,128.1787 114.356691,128.1667 L113.933691,128.1567 C114.723691,92.5987 101.443691,86.0487 101.308691,85.9867" id="Fill-304" fill="#41A2C9"></path>
            <path d="M101.308691,85.9867 L102.162691,84.0667 L102.991691,82.1347 C103.619691,82.4037 117.812691,88.9087 118.162691,123.8297 C119.269691,123.4057 120.550691,123.1597 121.919691,123.1597 C126.098691,123.1597 129.486691,125.4177 129.486691,128.2037 L118.136691,128.2037 C118.136691,128.2197 118.136691,128.2347 118.135691,128.2507 L116.035691,128.2037 L114.353691,128.2037 C114.353691,128.1907 114.355691,128.1787 114.356691,128.1667 L113.933691,128.1567 C114.723691,92.5987 101.443691,86.0487 101.308691,85.9867 Z" id="Stroke-306" stroke="#000000" stroke-width="2"></path>
            <polygon id="Fill-308" fill="#50BDF5" points="113.346791 32.0668 135.135791 21.3158 133.275791 17.5458 111.486791 28.2968"></polygon>
            <polygon id="Stroke-310" stroke="#000000" stroke-width="2" points="113.346791 32.0668 135.135791 21.3158 133.275791 17.5458 111.486791 28.2968"></polygon>
            <path d="M148.120191,21.663 C145.533191,26.858 139.224191,28.973 134.029191,26.386 C128.833191,23.799 126.719191,17.49 129.306191,12.295 C131.892191,7.1 138.201191,4.985 143.397191,7.572 C148.593191,10.159 150.707191,16.468 148.120191,21.663" id="Fill-312" fill="#FFFFFF"></path>
            <path d="M148.120191,21.663 C145.533191,26.858 139.224191,28.973 134.029191,26.386 C128.833191,23.799 126.719191,17.49 129.306191,12.295 C131.892191,7.1 138.201191,4.985 143.397191,7.572 C148.593191,10.159 150.707191,16.468 148.120191,21.663 Z" id="Stroke-314" stroke="#000000" stroke-width="2"></path>
            <path d="M142.741291,8.8885 C138.280291,6.6675 132.844291,8.4895 130.623291,12.9505 C128.401291,17.4115 130.223291,22.8475 134.684291,25.0695 C139.145291,27.2905 144.582291,25.4685 146.803291,21.0075 C149.024291,16.5465 147.202291,11.1105 142.741291,8.8885 M133.373291,27.7025 C127.460291,24.7585 125.045291,17.5525 127.989291,11.6385 C130.933291,5.7255 138.139291,3.3105 144.053291,6.2545 C149.966291,9.1995 152.382291,16.4055 149.437291,22.3185 C146.493291,28.2325 139.286291,30.6475 133.373291,27.7025" id="Fill-316" fill="#50BDF5"></path>
            <path d="M142.741291,8.8885 C138.280291,6.6675 132.844291,8.4895 130.623291,12.9505 C128.401291,17.4115 130.223291,22.8475 134.684291,25.0695 C139.145291,27.2905 144.582291,25.4685 146.803291,21.0075 C149.024291,16.5465 147.202291,11.1105 142.741291,8.8885 Z M133.373291,27.7025 C127.460291,24.7585 125.045291,17.5525 127.989291,11.6385 C130.933291,5.7255 138.139291,3.3105 144.053291,6.2545 C149.966291,9.1995 152.382291,16.4055 149.437291,22.3185 C146.493291,28.2325 139.286291,30.6475 133.373291,27.7025 Z" id="Stroke-318" stroke="#000000" stroke-width="2"></path>
            <polygon id="Fill-320" fill="#50BDF5" points="42.3506911 33.1698 20.5626911 22.4188 22.4216911 18.6488 44.2106911 29.3998"></polygon>
            <polygon id="Stroke-322" stroke="#000000" stroke-width="2" points="42.3506911 33.1698 20.5626911 22.4188 22.4216911 18.6488 44.2106911 29.3998"></polygon>
            <path d="M7.57719113,22.7665 C10.1641911,27.9615 16.4731911,30.0765 21.6691911,27.4895 C26.8641911,24.9025 28.9781911,18.5935 26.3911911,13.3985 C23.8051911,8.2035 17.4961911,6.0885 12.3011911,8.6755 C7.10519113,11.2625 4.99019113,17.5715 7.57719113,22.7665" id="Fill-324" fill="#FFFFFF"></path>
            <path d="M7.57719113,22.7665 C10.1641911,27.9615 16.4731911,30.0765 21.6691911,27.4895 C26.8641911,24.9025 28.9781911,18.5935 26.3911911,13.3985 C23.8051911,8.2035 17.4961911,6.0885 12.3011911,8.6755 C7.10519113,11.2625 4.99019113,17.5715 7.57719113,22.7665 Z" id="Stroke-326" stroke="#000000" stroke-width="2"></path>
            <path d="M8.89459113,22.1107 C11.1155911,26.5717 16.5515911,28.3937 21.0125911,26.1727 C25.4735911,23.9517 27.2955911,18.5147 25.0745911,14.0537 C22.8535911,9.5927 17.4165911,7.7707 12.9565911,9.9917 C8.49559113,12.2137 6.67259113,17.6497 8.89459113,22.1107 M6.25959113,23.4227 C3.31659113,17.5087 5.73159113,10.3027 11.6445911,7.3587 C17.5585911,4.4137 24.7645911,6.8287 27.7085911,12.7427 C30.6535911,18.6557 28.2375911,25.8617 22.3245911,28.8067 C16.4115911,31.7507 9.20559113,29.3357 6.25959113,23.4227" id="Fill-328" fill="#50BDF5"></path>
            <path d="M8.89459113,22.1107 C11.1155911,26.5717 16.5515911,28.3937 21.0125911,26.1727 C25.4735911,23.9517 27.2955911,18.5147 25.0745911,14.0537 C22.8535911,9.5927 17.4165911,7.7707 12.9565911,9.9917 C8.49559113,12.2137 6.67259113,17.6497 8.89459113,22.1107 Z M6.25959113,23.4227 C3.31659113,17.5087 5.73159113,10.3027 11.6445911,7.3587 C17.5585911,4.4137 24.7645911,6.8287 27.7085911,12.7427 C30.6535911,18.6557 28.2375911,25.8617 22.3245911,28.8067 C16.4115911,31.7507 9.20559113,29.3357 6.25959113,23.4227 Z" id="Stroke-330" stroke="#000000" stroke-width="2"></path>
            <path d="M141.678791,15.5892 C142.329791,16.8992 142.063791,18.4962 140.908791,19.4212 C139.748791,20.3402 137.995791,20.4442 136.744791,19.6432 C135.714791,18.9852 135.226791,17.6162 135.453791,16.4362 C135.636791,15.4912 136.477791,14.3382 137.546791,14.5922 C137.729791,14.4422 137.917791,14.3122 138.132791,14.2202 C139.501791,13.5882 141.032791,14.2662 141.678791,15.5892" id="Fill-332" fill="#1C1C1B"></path>
            <path d="M20.1338911,17.4364 C20.1928911,20.2974 16.4388911,21.9004 14.3258911,20.0434 C12.3448911,18.3034 13.4598911,14.6344 16.0858911,14.3534 C16.1448911,14.3474 16.1968911,14.3604 16.2488911,14.3734 C16.6338911,14.2624 17.0378911,14.2234 17.4358911,14.2694 C18.9988911,14.4574 20.0938911,15.8984 20.1338911,17.4364" id="Fill-334" fill="#1C1C1B"></path>
            <path d="M140.365291,65.349 C140.365291,93.229 112.823291,115.831 78.8482911,115.831 C44.8742911,115.831 17.3332911,93.229 17.3332911,65.349 C17.3332911,37.469 44.8742911,14.867 78.8482911,14.867 C112.823291,14.867 140.365291,37.469 140.365291,65.349" id="Fill-336" fill="#53ACD3"></path>
            <path d="M140.365291,65.349 C140.365291,93.229 112.823291,115.831 78.8482911,115.831 C44.8742911,115.831 17.3332911,93.229 17.3332911,65.349 C17.3332911,37.469 44.8742911,14.867 78.8482911,14.867 C112.823291,14.867 140.365291,37.469 140.365291,65.349 Z" id="Stroke-338" stroke="#000000" stroke-width="2"></path>
            <path d="M88.8379911,44.4681 C88.7579911,42.8251 91.4959911,42.6881 91.7119911,44.2841 C92.4159911,49.6831 93.4499911,55.9941 90.2569911,60.8321 C87.5609911,64.9191 82.6109911,66.8811 77.9259911,67.5091 C67.8769911,68.8721 56.1239911,63.6321 58.5319911,51.6961 C58.7999911,50.3801 60.7659911,50.4091 60.6869911,51.8421 C60.0499911,62.7021 70.3869911,66.0741 79.3119911,64.0461 C84.2099911,62.9381 88.3469911,60.1221 89.1259911,54.8121 C89.6139911,51.4241 89.0019911,47.8701 88.8379911,44.4681" id="Fill-340" fill="#1C1C1B"></path>
        </g>
    </g>
</svg>