<?xml version="1.0" encoding="UTF-8"?>
<svg width="81px" height="131px" viewBox="0 0 81 131" version="1.1" xmlns="http://www.w3.org/2000/svg" xmlns:xlink="http://www.w3.org/1999/xlink">
    <!-- Generator: Sketch 53.1 (72631) - https://sketchapp.com -->
    <title>Groupchild7</title>
    <desc>Created with Sketch.</desc>
    <defs>
        <polygon id="path-1" points="0.951497153 0.411832985 11.0039 0.411832985 11.0039 24 0.951497153 24"></polygon>
        <polygon id="path-3" points="0.6141 0.3365 15.054 0.3365 15.054 25.7100637 0.6141 25.7100637"></polygon>
        <path d="M4.223,5.422 C4.223,5.422 -1.816,11.436 0.967,24.929 L0.967,24.929 C3.609,32.441 19.469,32.441 22.112,24.929 L22.112,24.929 C24.894,11.436 17.243,3.227 17.243,3.227 L17.243,3.227 L11.539,0.862 L4.223,5.422 Z" id="path-5"></path>
    </defs>
    <g id="Page-1" stroke="none" stroke-width="1" fill="none" fill-rule="evenodd">
        <g id="Group" transform="translate(0.000000, 0.101000)">
            <g id="Group-103">
                <path d="M51.4415,106.4244 L51.3385,106.5414 L51.3145,106.4944 C51.3145,106.4944 51.3625,106.4714 51.4415,106.4244 M49.4315,103.3124 L48.7305,106.7084 L50.4235,107.5844 C50.4235,107.5844 51.9435,110.2074 52.7185,109.4324 C53.8035,108.1924 51.4415,106.4244 51.4415,106.4244 C51.8635,106.1764 53.3005,105.1744 54.7415,102.3534 C59.8815,91.0004 46.1285,89.0324 46.1285,89.0324 L48.3865,96.6504 C54.0275,99.1574 49.4315,103.3124 49.4315,103.3124" id="Fill-1" fill="#FEE2C5"></path>
                <path d="M30.2647,90.4976 C30.2647,90.4976 26.2387,97.9696 17.0837,91.3536 L15.1887,93.5396 C15.1887,93.5396 19.1817,103.6326 28.8097,98.6386" id="Fill-3" fill="#FEE2C5"></path>
                <path d="M31.2227,89.422 L38.5387,84.862 L44.2437,87.227 C44.2437,87.227 51.8947,95.435 49.1127,108.929 C46.4687,116.442 30.6097,116.442 27.9667,108.929 C25.1837,95.435 31.2227,89.422 31.2227,89.422" id="Fill-5" fill="#F6A821"></path>
                <path d="M49.7217,106.0826 L44.8517,127.1356 L46.7797,128.8886 C47.2117,129.2816 46.9337,129.9996 46.3497,129.9996 L39.4097,129.9996 L39.4097,110.0926 L49.7217,106.0826 Z" id="Fill-7" fill="#FEE2C5"></path>
                <g id="Group-11" transform="translate(27.000000, 106.000000)">
                    <mask id="mask-2" fill="white">
                        <use xlink:href="#path-1"></use>
                    </mask>
                    <g id="Clip-10"></g>
                    <path d="M0.9669,2.9293 L5.4829,20.8213 C5.5309,21.0143 5.4699,21.2193 5.3219,21.3533 L3.4449,23.0603 C3.0789,23.3923 3.3149,24.0003 3.8089,24.0003 L10.4639,24.0003 C10.7619,24.0003 11.0039,23.7583 11.0039,23.4593 L11.0039,4.4623 C11.0039,4.2403 10.8669,4.0393 10.6589,3.9593 L1.5539,0.4183 C1.1879,0.2753 0.8779,2.5473 0.9669,2.9293" id="Fill-9" fill="#FEE2C5" mask="url(#mask-2)"></path>
                </g>
                <path d="M3.0557,58.3902 C3.0557,76.9022 19.2427,91.9092 39.2107,91.9092 C59.1787,91.9092 75.3657,76.9022 75.3657,58.3902 C75.3657,39.8782 59.1787,24.8712 39.2107,24.8712 C19.2427,24.8712 3.0557,39.8782 3.0557,58.3902" id="Fill-12" fill="#FEE2C5"></path>
                <path d="M62.3848,67.4058 C62.3848,71.3788 59.1638,74.5988 55.1918,74.5988 C51.2178,74.5988 47.9968,71.3788 47.9968,67.4058 C47.9968,63.4328 51.2178,60.2118 55.1918,60.2118 C59.1638,60.2118 62.3848,63.4328 62.3848,67.4058" id="Fill-14" fill="#FFFFFF"></path>
                <path d="M60.0196,66.5391 C60.0196,69.6851 57.4696,72.2341 54.3246,72.2341 C51.1796,72.2341 48.6296,69.6851 48.6296,66.5391 C48.6296,63.3941 51.1796,60.8441 54.3246,60.8441 C57.4696,60.8441 60.0196,63.3941 60.0196,66.5391" id="Fill-16" fill="#432918"></path>
                <path d="M30.2647,67.4058 C30.2647,71.3788 27.0437,74.5988 23.0707,74.5988 C19.0977,74.5988 15.8767,71.3788 15.8767,67.4058 C15.8767,63.4328 19.0977,60.2118 23.0707,60.2118 C27.0437,60.2118 30.2647,63.4328 30.2647,67.4058" id="Fill-18" fill="#FFFFFF"></path>
                <path d="M27.8995,66.5391 C27.8995,69.6851 25.3495,72.2341 22.2045,72.2341 C19.0595,72.2341 16.5095,69.6851 16.5095,66.5391 C16.5095,63.3941 19.0595,60.8441 22.2045,60.8441 C25.3495,60.8441 27.8995,63.3941 27.8995,66.5391" id="Fill-20" fill="#432918"></path>
                <path d="M35.0264,19.2559 C35.0264,19.2559 28.0074,7.2249 36.2794,3.0889 C44.5504,-1.0461 45.6784,7.6009 45.6784,7.6009 C45.6784,7.6009 49.6894,-3.0361 58.9634,1.9689 C68.2364,6.9749 60.2154,16.3739 60.2154,16.3739 C60.2154,16.3739 63.7244,13.8669 66.3564,16.2479 C68.9884,18.6299 69.7404,28.7809 56.9584,28.1539 C44.1744,27.5269 37.0014,23.8619 35.0264,19.2559" id="Fill-22" fill="#F8B033"></path>
                <path d="M64.7589,27.8814 L66.1169,25.4874 C66.1169,25.4874 55.2449,15.3174 34.7889,18.8224 C34.7889,20.8844 35.3909,22.1754 35.3909,22.1754 C35.3909,22.1754 51.3699,20.0094 64.7589,27.8814" id="Fill-24" fill="#E95B0C"></path>
                <path d="M25.4434,29.9532 C34.3594,26.3282 43.3744,26.5232 53.5634,34.3622 C60.5904,39.7672 67.4814,35.6212 71.0834,32.5272 C65.2774,26.1962 56.0034,21.2152 41.4714,20.5162 C40.7364,20.4892 40.0014,20.4902 39.2654,20.5182 L39.1384,20.5242 C29.1174,21.0242 21.6074,23.5682 16.0114,27.1822 C17.4054,29.5922 20.1824,32.0922 25.4434,29.9532" id="Fill-26" fill="#F8B033"></path>
                <path d="M24.6592,40.4371 C15.2792,44.5701 8.3122,43.3431 3.8882,41.3451 C-0.5598,51.2801 0.5002,61.3661 1.8782,63.0611 C4.6902,66.5201 7.7712,63.9611 9.2712,60.6601 C9.8762,59.3311 10.0382,57.8031 11.1082,55.7091 C21.1402,56.2641 26.7442,47.7531 26.7442,47.7531 C26.7442,47.7531 17.4682,63.4121 33.4052,63.5911 C47.6972,63.7511 52.3212,52.0531 53.7852,45.5991 C42.8572,42.4181 40.0182,33.6681 24.6592,40.4371" id="Fill-28" fill="#F8B033"></path>
                <g id="Group-32" transform="translate(65.000000, 39.000000)">
                    <mask id="mask-4" fill="white">
                        <use xlink:href="#path-3"></use>
                    </mask>
                    <g id="Clip-31"></g>
                    <path d="M10.8731,0.3365 C9.1311,2.8215 5.9481,5.9865 0.6141,7.1725 C4.7461,12.1565 5.5141,19.5655 6.4661,21.6595 C7.9671,24.9615 11.0481,27.5205 13.8591,24.0615 C15.3311,22.2525 16.4381,10.8795 10.8731,0.3365" id="Fill-30" fill="#F8B033" mask="url(#mask-4)"></path>
                </g>
                <path d="M75.8731,39.3365 C74.6321,36.9865 73.0571,34.6795 71.0831,32.5265 C67.4811,35.6215 60.5911,39.7675 53.5631,34.3625 C43.3741,26.5235 34.3591,26.3275 25.4431,29.9535 C20.1831,32.0915 17.4051,29.5925 16.0121,27.1825 C10.0001,31.0655 6.1981,36.1835 3.8881,41.3455 C8.3121,43.3425 15.2791,44.5705 24.6591,40.4375 C40.0191,33.6685 42.8571,42.4185 53.7851,45.5995 C54.3411,43.1485 54.4441,41.4505 54.4441,41.4505 C59.7411,41.2315 63.2341,43.3005 65.6141,46.1725 C70.9481,44.9865 74.1311,41.8215 75.8731,39.3365" id="Fill-33" fill="#F8B033"></path>
                <path d="M75.8731,39.3365 C74.6321,36.9865 73.0571,34.6795 71.0831,32.5265 C67.4811,35.6215 60.5911,39.7675 53.5631,34.3625 C43.3741,26.5235 34.3591,26.3275 25.4431,29.9535 C20.1831,32.0915 17.4051,29.5925 16.0121,27.1825 C10.0001,31.0655 6.1981,36.1835 3.8881,41.3455 C8.3121,43.3425 15.2791,44.5705 24.6591,40.4375 C40.0191,33.6685 42.8571,42.4185 53.7851,45.5995 C54.3411,43.1485 54.4441,41.4505 54.4441,41.4505 C59.7411,41.2315 63.2341,43.3005 65.6141,46.1725 C70.9481,44.9865 74.1311,41.8215 75.8731,39.3365" id="Fill-35" fill="#FFFFFF" opacity="0.205171131"></path>
                <path d="M59.3741,75.4307 C59.2231,74.3087 60.6271,73.0267 62.5111,72.5677 C64.3941,72.1087 66.0441,72.6457 66.1951,73.7677 C66.3471,74.8897 64.9431,76.1717 63.0601,76.6307 C61.1761,77.0897 59.5261,76.5527 59.3741,75.4307" id="Fill-37" fill="#FDC6B7"></path>
                <path d="M18.8878,75.4307 C19.0388,74.3087 17.6348,73.0267 15.7508,72.5677 C13.8678,72.1087 12.2178,72.6457 12.0668,73.7677 C11.9148,74.8897 13.3188,76.1717 15.2018,76.6307 C17.0858,77.0897 18.7358,76.5527 18.8878,75.4307" id="Fill-39" fill="#FDC6B7"></path>
                <path d="M71.7774,63.6846 C71.7774,63.6846 76.5524,60.9256 78.2514,65.4886 C79.9484,70.0516 75.5834,75.3126 69.3374,74.9626 L71.7774,63.6846 Z" id="Fill-41" fill="#FEE2C5"></path>
                <path d="M7.1592,63.6846 C7.1592,63.6846 2.3842,60.9256 0.6862,65.4886 C-1.0118,70.0516 3.3532,75.3126 9.6002,74.9626 L7.1592,63.6846 Z" id="Fill-43" fill="#FEE2C5"></path>
                <path d="M40.1251,81.2501 C42.1331,80.5631 43.2701,78.9491 43.3231,78.8701 C43.4311,78.7151 43.3921,78.5021 43.2361,78.3951 C43.0811,78.2871 42.8681,78.3261 42.7601,78.4811 C42.7461,78.5001 41.3591,80.4601 39.0421,80.8131 C37.4701,81.0531 35.8181,80.5111 34.1351,79.2011 C33.9851,79.0861 33.7701,79.1121 33.6541,79.2611 C33.5381,79.4101 33.5651,79.6251 33.7141,79.7421 C35.5551,81.1731 37.3861,81.7611 39.1531,81.4891 C39.4971,81.4371 39.8201,81.3541 40.1251,81.2501" id="Fill-45" fill="#E09B60"></path>
                <path d="M17.084,91.3536 C17.084,91.3536 16.951,87.6966 15.188,86.4856 C13.567,85.2746 13.033,86.7706 14.707,88.5876 C14.066,88.3376 13.515,89.1926 13.684,89.6206 C12.784,89.4776 12.855,90.6526 12.855,90.6526 C12.855,90.6526 12.179,90.9026 12.463,91.6866 C12.748,92.4696 14.252,93.7876 15.477,93.6086 C16.701,93.4316 17.145,92.0456 17.084,91.3536" id="Fill-47" fill="#FEE2C5"></path>
                <path d="M72.9747,68.94 C72.8207,68.503 72.5357,68.43 72.2557,68.491 C72.4367,67.46 72.5017,66.815 72.5017,66.815 C72.5157,66.801 72.5307,66.787 72.5447,66.773 C73.9517,65.421 76.2617,66.931 75.6577,68.786 C75.1907,70.222 73.6707,71.14 71.5627,71.626 C71.7097,71.08 71.8337,70.56 71.9417,70.075 C72.5177,69.905 73.1967,69.568 72.9747,68.94" id="Fill-49" fill="#F6CDA9"></path>
                <path d="M5.4464,68.94 C5.6004,68.503 5.8864,68.43 6.1664,68.491 C5.9854,67.46 5.9204,66.815 5.9204,66.815 C5.9054,66.801 5.8904,66.787 5.8774,66.773 C4.4694,65.421 2.1604,66.931 2.7634,68.786 C3.2314,70.222 4.7514,71.14 6.8584,71.626 C6.7124,71.08 6.5874,70.56 6.4794,70.075 C5.9044,69.905 5.2254,69.568 5.4464,68.94" id="Fill-51" fill="#F6CDA9"></path>
                <path d="M17.6202,63.8726 C17.6202,62.3996 18.8142,61.2056 20.2872,61.2056 C21.7602,61.2056 22.9532,62.3996 22.9532,63.8726 C22.9532,65.3456 21.7602,66.5396 20.2872,66.5396 C18.8142,66.5396 17.6202,65.3456 17.6202,63.8726" id="Fill-53" fill="#FFFFFF"></path>
                <path d="M49.8575,63.8726 C49.8575,62.3996 51.0515,61.2056 52.5245,61.2056 C53.9975,61.2056 55.1915,62.3996 55.1915,63.8726 C55.1915,65.3456 53.9975,66.5396 52.5245,66.5396 C51.0515,66.5396 49.8575,65.3456 49.8575,63.8726" id="Fill-55" fill="#FFFFFF"></path>
                <path d="M38.8126,107.9884 L27.7426,105.3604 L27.7536,105.6094 C27.8046,106.7264 27.7296,107.8374 27.9666,108.9294 L28.2106,109.8994 C28.2106,109.8994 36.9636,112.0544 38.0076,114.9914 C38.3246,115.0624 38.6316,115.1874 38.9596,115.1404 C39.1796,115.1094 39.1836,115.0894 39.4006,115.0404 C40.6756,112.0644 49.1126,108.9294 49.1126,108.9294 L49.4756,107.1434 L49.5946,105.7224 L38.8126,107.9884 Z" id="Fill-57" fill="#F6A821"></path>
                <path d="M43.6661,91.564 C43.6661,93.39 41.3431,94.87 38.4781,94.87 C35.6111,94.87 33.2891,93.39 33.2891,91.564 C33.2891,89.738 35.6111,88.258 38.4781,88.258 C41.3431,88.258 43.6661,89.738 43.6661,91.564" id="Fill-59" fill="#FEE2C5"></path>
                <path d="M43.8506,18.0342 C41.6956,16.1792 42.1276,15.2672 43.0476,14.4752 C43.9676,13.6832 45.0276,13.3112 47.1826,15.1662 C49.3376,17.0212 50.8526,21.1932 50.8526,21.1932 C50.8526,21.1932 46.0056,19.8892 43.8506,18.0342" id="Fill-61" fill="#F97000"></path>
                <path d="M47.7842,15.5909 C47.4882,12.9799 48.4952,12.5119 49.7902,12.4029 C51.0852,12.2939 52.1792,12.5859 52.4732,15.1969 C52.7692,17.8079 50.8612,21.8579 50.8612,21.8579 C50.8612,21.8579 48.0802,18.2019 47.7842,15.5909" id="Fill-63" fill="#F97000"></path>
                <path d="M53.2774,15.1426 C55.2724,13.1596 56.3604,13.4656 57.3434,14.1986 C58.3284,14.9316 58.8354,15.8146 56.8404,17.7976 C54.8444,19.7806 50.1194,21.3806 50.1194,21.3806 C50.1194,21.3806 51.2824,17.1256 53.2774,15.1426" id="Fill-65" fill="#F97000"></path>
                <path d="M58.1241,20.3023 C60.8021,21.5553 60.6871,22.5353 60.0661,23.5193 C59.4441,24.5033 58.5511,25.1183 55.8731,23.8653 C53.1961,22.6123 50.3701,18.9813 50.3701,18.9813 C50.3701,18.9813 55.4471,19.0493 58.1241,20.3023" id="Fill-67" fill="#AD5818"></path>
                <path d="M54.0674,24.3546 C54.3634,26.9656 53.3564,27.4336 52.0614,27.5426 C50.7664,27.6516 49.6734,27.3596 49.3784,24.7486 C49.0824,22.1376 50.9904,18.0876 50.9904,18.0876 C50.9904,18.0876 53.7724,21.7436 54.0674,24.3546" id="Fill-69" fill="#AD5818"></path>
                <path d="M47.3897,24.191 C44.6767,25.387 43.8017,24.753 43.2087,23.755 C42.6157,22.759 42.5307,21.776 45.2427,20.581 C47.9547,19.385 53.0337,19.426 53.0337,19.426 C53.0337,19.426 50.1027,22.996 47.3897,24.191" id="Fill-71" fill="#AD5818"></path>
                <path d="M57.4493,19.7208 C60.1263,20.9738 60.0123,21.9538 59.3903,22.9378 C58.7683,23.9218 57.8753,24.5368 55.1973,23.2838 C52.5203,22.0308 49.6943,18.3998 49.6943,18.3998 C49.6943,18.3998 54.7713,18.4678 57.4493,19.7208" id="Fill-73" fill="#F97000"></path>
                <path d="M53.3917,23.773 C53.6877,26.384 52.6817,26.852 51.3857,26.961 C50.0907,27.07 48.9977,26.778 48.7027,24.167 C48.4067,21.556 50.3147,17.505 50.3147,17.505 C50.3147,17.505 53.0967,21.162 53.3917,23.773" id="Fill-75" fill="#F97000"></path>
                <path d="M46.7139,23.6094 C44.0019,24.8054 43.1259,24.1714 42.5329,23.1734 C41.9409,22.1774 41.8549,21.1944 44.5669,19.9994 C47.2789,18.8034 52.3579,18.8444 52.3579,18.8444 C52.3579,18.8444 49.4269,22.4134 46.7139,23.6094" id="Fill-77" fill="#F97000"></path>
                <path d="M52.8477,20.2901 C52.8477,21.3681 51.8317,22.2431 50.5787,22.2431 C49.3267,22.2431 48.3107,21.3681 48.3107,20.2901 C48.3107,19.2111 49.3267,18.3371 50.5787,18.3371 C51.8317,18.3371 52.8477,19.2111 52.8477,20.2901" id="Fill-79" fill="#FFA25C"></path>
                <path d="M25.0421,73.5323 C20.6601,74.9133 15.9861,72.4793 14.6051,68.0963 C13.2251,63.7133 15.6581,59.0403 20.0401,57.6603 C24.4241,56.2783 29.0971,58.7113 30.4791,63.0943 C31.8591,67.4773 29.4271,72.1513 25.0421,73.5323 M19.2771,55.2403 C13.5581,57.0423 10.3831,63.1393 12.1861,68.8593 C13.9881,74.5803 20.0861,77.7553 25.8061,75.9533 C31.5251,74.1503 34.7021,68.0523 32.8981,62.3323 C31.0961,56.6123 24.9981,53.4363 19.2771,55.2403" id="Fill-81" fill="#F97000"></path>
                <path d="M30.4786,63.0938 C31.8596,67.4768 29.4266,72.1508 25.0416,73.5318 C20.6606,74.9138 15.9866,72.4788 14.6056,68.0958 C13.2246,63.7138 15.6586,59.0408 20.0406,57.6598 C24.4236,56.2778 29.0966,58.7108 30.4786,63.0938" id="Fill-83" fill="#F48C78" opacity="0.58203125"></path>
                <path d="M16.0743,60.3653 C14.9413,61.7693 14.2833,63.5223 14.2313,65.3573 L22.7813,73.9073 C23.5323,73.8863 24.2923,73.7693 25.0423,73.5323 C25.8753,73.2713 26.6363,72.8873 27.3143,72.4133 L27.7183,72.0093 L16.0743,60.3653 Z" id="Fill-85" fill="#F48C78" opacity="0.467261905"></path>
                <path d="M16.9092,59.4805 L28.6572,71.2295 C29.0182,70.8375 29.3392,70.4135 29.6182,69.9605 L18.1792,58.5205 C17.7212,58.8025 17.2972,59.1245 16.9092,59.4805" id="Fill-87" fill="#F48C78" opacity="0.365559896"></path>
                <path d="M55.9669,73.0396 C51.5839,74.4206 46.9099,71.9866 45.5289,67.6036 C44.1479,63.2216 46.5819,58.5476 50.9629,57.1676 C55.3479,55.7856 60.0189,58.2186 61.4019,62.6016 C62.7819,66.9846 60.3509,71.6586 55.9669,73.0396 M50.2009,54.7476 C44.4819,56.5496 41.3069,62.6466 43.1089,68.3666 C44.9099,74.0876 51.0089,77.2626 56.7299,75.4616 C62.4489,73.6576 65.6249,67.5596 63.8219,61.8396 C62.0189,56.1196 55.9219,52.9436 50.2009,54.7476" id="Fill-89" fill="#F97000"></path>
                <path d="M61.4014,62.6011 C62.7824,66.9851 60.3504,71.6591 55.9664,73.0391 C51.5844,74.4211 46.9104,71.9871 45.5294,67.6041 C44.1474,63.2211 46.5824,58.5481 50.9634,57.1681 C55.3474,55.7861 60.0184,58.2181 61.4014,62.6011" id="Fill-91" fill="#F48C78" opacity="0.631394159"></path>
                <path d="M46.9971,59.8726 C45.8651,61.2766 45.2071,63.0296 45.1541,64.8656 L53.7041,73.4146 C54.4551,73.3936 55.2151,73.2766 55.9671,73.0396 C56.7981,72.7786 57.5591,72.3956 58.2371,71.9206 L58.6401,71.5176 L46.9971,59.8726 Z" id="Fill-93" fill="#F48C78" opacity="0.452450707"></path>
                <path d="M47.8331,58.9883 L59.5801,70.7373 C59.9411,70.3443 60.2621,69.9213 60.5411,69.4673 L49.1021,58.0283 C48.6441,58.3103 48.2201,58.6323 47.8331,58.9883" id="Fill-95" fill="#F48C78" opacity="0.58203125"></path>
                <path d="M32.2276,67.6041 C32.2276,67.6041 38.2726,57.1211 44.2016,67.6041" id="Stroke-97" stroke="#FB5C32" stroke-linecap="round" stroke-linejoin="round"></path>
                <polygon id="Fill-99" fill="#F97000" points="14.7413 63.8297 3.8873 59.9187 1.8783 63.0607 13.1633 64.7097"></polygon>
                <polygon id="Fill-101" fill="#F97000" points="62.9053 63.8297 73.7593 59.9187 75.7683 63.0607 64.4833 64.7097"></polygon>
            </g>
            <g id="Group-110" transform="translate(27.000000, 84.000000)">
                <mask id="mask-6" fill="white">
                    <use xlink:href="#path-5"></use>
                </mask>
                <g id="Clip-105"></g>
                <polygon id="Fill-104" fill="#F97000" mask="url(#mask-6)" points="-0.969 13.128 26.572 13.128 26.572 11.515 -0.969 11.515"></polygon>
                <polygon id="Fill-106" fill="#F97000" mask="url(#mask-6)" points="-0.969 15.543 26.572 15.543 26.572 13.931 -0.969 13.931"></polygon>
                <polygon id="Fill-107" fill="#F97000" mask="url(#mask-6)" points="-0.969 17.959 26.572 17.959 26.572 16.347 -0.969 16.347"></polygon>
                <polygon id="Fill-108" fill="#F97000" mask="url(#mask-6)" points="-0.969 20.375 26.572 20.375 26.572 18.763 -0.969 18.763"></polygon>
                <polygon id="Fill-109" fill="#F97000" mask="url(#mask-6)" points="-0.969 22.79 26.572 22.79 26.572 21.178 -0.969 21.178"></polygon>
            </g>
        </g>
    </g>
</svg>