<?xml version="1.0" encoding="UTF-8"?>
<svg width="81px" height="129px" viewBox="0 0 81 129" version="1.1" xmlns="http://www.w3.org/2000/svg" xmlns:xlink="http://www.w3.org/1999/xlink">
    <!-- Generator: Sketch 53.1 (72631) - https://sketchapp.com -->
    <title>Group 71SpaceTeddy</title>
    <desc>Created with Sketch.</desc>
    <g id="Page-1" stroke="none" stroke-width="1" fill="none" fill-rule="evenodd">
        <g id="Desktop-HD" transform="translate(-984.000000, -3190.000000)">
            <g id="Group-71" transform="translate(984.010135, 3190.490703)">
                <path d="M72.2153649,33.5511968 C74.7663649,50.6021968 62.0833649,66.6311968 43.8863649,69.3531968 C25.6903649,72.0751968 8.87136493,60.4601968 6.32036493,43.4091968 C3.76936493,26.3581968 16.4523649,10.3291968 34.6493649,7.6071968 C52.8453649,4.8851968 69.6643649,16.5001968 72.2153649,33.5511968" id="Fill-591" fill="#009DA9"></path>
                <path d="M61.3279649,72.7527968 C67.5639649,78.5367968 73.0789649,82.7297968 77.0499649,78.4487968 C80.5889649,74.6337968 76.4259649,68.9837968 70.1899649,63.1987968 C63.9539649,57.4147968 56.9149649,54.8647968 54.4679649,57.5027968 C52.0209649,60.1407968 55.0919649,66.9687968 61.3279649,72.7527968" id="Fill-593" fill="#F79E3C"></path>
                <path d="M54.1851649,108.302597 C57.1301649,118.549597 60.3321649,126.621597 67.3661649,124.600597 C73.6361649,122.798597 72.8291649,114.037597 69.8841649,103.790597 C66.9391649,93.5445968 61.0381649,86.2475968 56.7031649,87.4935968 C52.3671649,88.7395968 51.2401649,98.0555968 54.1851649,108.302597" id="Fill-595" fill="#F79E3C"></path>
                <path d="M41.7857649,109.370997 C40.6377649,119.969997 38.8627649,128.471997 31.5867649,127.682997 C25.1017649,126.980997 24.3977649,118.210997 25.5467649,107.611997 C26.6947649,97.0119968 31.2607649,88.8129968 35.7457649,89.2989968 C40.2297649,89.7849968 42.9337649,98.7709968 41.7857649,109.370997" id="Fill-597" fill="#F79E3C"></path>
                <path d="M21.9300649,76.1478968 C16.7760649,82.9138968 12.0590649,87.9878968 7.41506493,84.4498968 C3.27506493,81.2958968 6.41006493,75.0168968 11.5640649,68.2508968 C16.7190649,61.4858968 23.2170649,57.7688968 26.0800649,59.9488968 C28.9420649,62.1298968 27.0840649,69.3818968 21.9300649,76.1478968" id="Fill-599" fill="#F79E3C"></path>
                <path d="M52.3623649,34.5529968 C52.8043649,39.6809968 57.3193649,43.4799968 62.4483649,43.0379968 C67.5763649,42.5959968 71.3753649,38.0809968 70.9333649,32.9529968 C70.4913649,27.8239968 65.9763649,24.0249968 60.8473649,24.4669968 C55.7193649,24.9089968 51.9203649,29.4249968 52.3623649,34.5529968" id="Fill-601" fill="#F79E3C"></path>
                <path d="M4.34016493,39.7895968 C4.78216493,44.9175968 9.29716493,48.7165968 14.4261649,48.2745968 C19.5541649,47.8325968 23.3531649,43.3175968 22.9111649,38.1895968 C22.4691649,33.0605968 17.9541649,29.2615968 12.8251649,29.7035968 C7.69716493,30.1455968 3.89816493,34.6615968 4.34016493,39.7895968" id="Fill-603" fill="#F79E3C"></path>
                <path d="M67.6589649,80.4808968 C69.0259649,96.3408968 58.9209649,110.163897 45.0909649,111.355897 C31.2599649,112.547897 18.9399649,100.656897 17.5729649,84.7968968 C16.2059649,68.9368968 26.3109649,55.1138968 40.1409649,53.9218968 C53.9719649,52.7308968 66.2919649,64.6208968 67.6589649,80.4808968" id="Fill-605" fill="#F79E3C"></path>
                <path d="M42.6735649,69.3545968 C48.9125649,68.5115968 54.7125649,65.6985968 59.0135649,61.2725968 C53.9805649,56.1855968 47.2685649,53.3085968 40.1415649,53.9225968 C33.3735649,54.5055968 27.5105649,58.1255968 23.4345649,63.5165968 C27.3505649,69.0005968 36.7205649,70.1585968 42.6735649,69.3545968" id="Fill-607" fill="#4B2309"></path>
                <path d="M61.8021649,43.7672968 C62.7591649,54.8782968 53.5201649,64.7492968 41.1661649,65.8132968 C28.8111649,66.8782968 18.0201649,58.7342968 17.0621649,47.6222968 C16.1051649,36.5112968 25.3441649,26.6412968 37.6981649,25.5762968 C50.0531649,24.5112968 60.8451649,32.6562968 61.8021649,43.7672968" id="Fill-609" fill="#F79E3C"></path>
                <path d="M55.0027649,45.4566968 C55.0827649,46.3886968 54.3927649,47.2096968 53.4597649,47.2906968 C52.5277649,47.3706968 51.7067649,46.6796968 51.6257649,45.7476968 C51.5457649,44.8156968 52.2367649,43.9946968 53.1687649,43.9136968 C54.1017649,43.8336968 54.9227649,44.5246968 55.0027649,45.4566968" id="Fill-611" fill="#000000"></path>
                <path d="M28.3028649,48.6383968 C28.3828649,49.5703968 27.6928649,50.3913968 26.7598649,50.4723968 C25.8278649,50.5523968 25.0068649,49.8613968 24.9258649,48.9293968 C24.8458649,47.9963968 25.5368649,47.1763968 26.4688649,47.0953968 C27.4018649,47.0153968 28.2228649,47.7063968 28.3028649,48.6383968" id="Fill-613" fill="#000000"></path>
                <path d="M39.2432649,25.4430968 C39.2432649,25.4430968 39.7772649,27.9200968 40.4202649,31.6660968 C40.7282649,33.5410968 41.0892649,35.7290968 41.4002649,38.0850968 C41.7052649,40.4410968 42.0162649,42.9570968 42.2572649,45.4810968 C42.4922649,48.0060968 42.6552649,50.5380968 42.7532649,52.9140968 C42.8272649,54.1010968 42.8082649,55.2520968 42.8222649,56.3420968 C42.8472649,57.4320968 42.7822649,58.4640968 42.7642649,59.4140968 C42.7592649,60.3660968 42.6532649,61.2350968 42.5892649,62.0050968 C42.5322649,62.7760968 42.4562649,63.4460968 42.3562649,63.9930968 C42.1862649,65.0880968 42.0892649,65.7140968 42.0892649,65.7140968 C42.0892649,65.7140968 42.1522649,65.0840968 42.2622649,63.9820968 C42.3322649,63.4330968 42.3702649,62.7620968 42.3862649,61.9910968 C42.4052649,61.2210968 42.4632649,60.3550968 42.4472649,59.4070968 C42.4352649,58.4590968 42.4702649,57.4330968 42.4102649,56.3480968 C42.3642649,55.2630968 42.3412649,54.1190968 42.2642649,52.9360968 C42.1432649,50.5710968 41.9532649,48.0490968 41.6962649,45.5340968 C41.4812649,43.0150968 41.1962649,40.5010968 40.9152649,38.1460968 C40.6262649,35.7930968 40.3692649,33.5930968 40.1072649,31.7130968 C39.8542649,29.8320968 39.6422649,28.2640968 39.4942649,27.1660968 C39.3342649,26.0690968 39.2432649,25.4430968 39.2432649,25.4430968" id="Fill-615" fill="#000000"></path>
                <path d="M42.7090649,65.6605968 C42.7090649,65.6605968 42.8560649,66.3615968 43.1130649,67.5875968 C43.3600649,68.8165968 43.7320649,70.5685968 44.1060649,72.6835968 C44.4830649,74.7985968 44.9170649,77.2685968 45.3200649,79.9235968 C45.7090649,82.5815968 46.1080649,85.4195968 46.4450649,88.2665968 C46.7570649,91.1155968 47.0390649,93.9685968 47.2060649,96.6525968 C47.3130649,97.9925968 47.3640649,99.2915968 47.3890649,100.524597 C47.4410649,101.755597 47.4410649,102.921597 47.4230649,103.998597 C47.4170649,104.535597 47.4120649,105.051597 47.4070649,105.541597 C47.3730649,106.031597 47.3410649,106.495597 47.3110649,106.931597 C47.2460649,107.803597 47.2170649,108.565597 47.1050649,109.184597 C46.9260649,110.425597 46.8240649,111.134597 46.8240649,111.134597 C46.8240649,111.134597 46.8920649,110.422597 47.0100649,109.175597 C47.0930649,108.555597 47.0840649,107.792597 47.1070649,106.922597 C47.1160649,106.487597 47.1260649,106.024597 47.1360649,105.536597 C47.1260649,105.048597 47.1160649,104.534597 47.1050649,103.998597 C47.0940649,102.927597 47.0630649,101.767597 46.9780649,100.541597 C46.9190649,99.3145968 46.8260649,98.0235968 46.7170649,96.6875968 C46.5270649,94.0145968 46.2200649,91.1705968 45.8860649,88.3305968 C45.5740649,85.4875968 45.2020649,82.6515968 44.8360649,79.9935968 C44.4550649,77.3385968 44.0990649,74.8595968 43.7940649,72.7355968 C43.1680649,68.4875968 42.7090649,65.6605968 42.7090649,65.6605968" id="Fill-617" fill="#000000"></path>
                <path d="M41.9932649,52.0468968 C41.9932649,52.0468968 37.3522649,50.1658968 38.5942649,48.1858968 C39.8372649,46.2058968 42.1512649,49.2498968 42.1512649,49.2498968 C42.1512649,49.2498968 44.5812649,46.2588968 45.7542649,47.5118968 C46.9262649,48.7648968 44.3962649,51.5358968 41.9932649,52.0468968" id="Fill-619" fill="#AC083B"></path>
                <path d="M73.3113649,33.4299968 C74.9523649,52.4799968 60.9603649,69.2439968 42.0593649,70.8719968 C23.1573649,72.5009968 6.50336493,58.3779968 4.86236493,39.3279968 C3.22036493,20.2779968 17.2123649,3.5149968 36.1143649,1.8859968 C55.0163649,0.256996799 71.6693649,14.3799968 73.3113649,33.4299968" id="Fill-621" fill="#FFFFFF" opacity="0.177850632"></path>
                <path d="M46.0555649,27.4155968 C47.0405649,38.8525968 38.6405649,48.9165968 27.2925649,49.8945968 C15.9445649,50.8725968 5.94656493,42.3935968 4.96056493,30.9565968 C3.97556493,19.5195968 12.3755649,9.4555968 23.7235649,8.4775968 C35.0715649,7.4995968 45.0695649,15.9785968 46.0555649,27.4155968" id="Fill-623" fill="#FFFFFF" opacity="0.484351749"></path>
                <path d="M26.8022649,22.3619968 C27.1432649,26.3139968 24.2402649,29.7919968 20.3182649,30.1299968 C16.3962649,30.4679968 12.9412649,27.5379968 12.6002649,23.5859968 C12.2602649,19.6329968 15.1632649,16.1549968 19.0842649,15.8169968 C23.0062649,15.4789968 26.4612649,18.4099968 26.8022649,22.3619968" id="Fill-625" fill="#FFFFFF" opacity="0.515904018"></path>
                <path d="M42.2212649,68.3328968 C24.3202649,69.8758968 8.75726493,58.9218968 7.21526493,41.0208968 C5.67226493,23.1208968 19.1892649,10.3258968 37.0892649,8.7828968 C54.9902649,7.2398968 70.4972649,17.5348968 72.0392649,35.4348968 C73.5822649,53.3358968 60.1222649,66.7908968 42.2212649,68.3328968 M36.3442649,0.137896799 C16.1192649,1.8798968 1.13526493,19.6898968 2.87826493,39.9158968 C4.62126493,60.1418968 22.4302649,75.1248968 42.6562649,73.3818968 C62.8822649,71.6388968 77.8662649,53.8298968 76.1232649,33.6038968 C74.3802649,13.3778968 56.5702649,-1.6051032 36.3442649,0.137896799" id="Fill-627" fill="#E2E2E2"></path>
                <path d="M19.1674649,9.7375968 C22.8064649,8.8065968 26.1694649,6.9035968 29.8374649,6.1115968 C36.4634649,4.6825968 44.0104649,5.4405968 50.4894649,7.2195968 C56.9754649,8.9985968 63.0424649,12.1155968 68.3804649,16.1935968 C69.4784649,17.0325968 70.5444649,17.9105968 71.5774649,18.8215968 C64.7374649,6.6035968 51.1844649,-1.1414032 36.3274649,0.138596799 C27.7434649,0.878596799 20.1044649,4.5135968 14.2864649,9.9975968 C15.7794649,10.5565968 17.7794649,10.0925968 19.1674649,9.7375968" id="Fill-629" fill="#F4F2F1"></path>
                <path d="M80.8929649,35.8725968 C81.2729649,40.2815968 79.5479649,44.0315968 77.0399649,44.2475968 C74.5319649,44.4635968 72.1909649,41.0645968 71.8109649,36.6555968 C71.4309649,32.2455968 73.1559649,28.4955968 75.6639649,28.2795968 C78.1719649,28.0635968 80.5129649,31.4635968 80.8929649,35.8725968" id="Fill-631" fill="#E23365"></path>
                <path d="M80.6807649,35.5738968 C80.9807649,39.0528968 79.6197649,42.0108968 77.6407649,42.1808968 C75.6627649,42.3518968 73.8157649,39.6698968 73.5157649,36.1908968 C73.2167649,32.7128968 74.5767649,29.7548968 76.5557649,29.5838968 C78.5337649,29.4138968 80.3807649,32.0948968 80.6807649,35.5738968" id="Fill-633" fill="#DF3830"></path>
                <path d="M80.3414649,35.9201968 C80.5674649,38.5401968 79.5424649,40.7671968 78.0524649,40.8961968 C76.5624649,41.0241968 75.1714649,39.0041968 74.9464649,36.3851968 C74.7204649,33.7651968 75.7454649,31.5381968 77.2354649,31.4091968 C78.7244649,31.2811968 80.1154649,33.3001968 80.3414649,35.9201968" id="Fill-635" fill="#E23365"></path>
                <path d="M0.0524649284,43.5466968 C0.432464928,47.9556968 2.77346493,51.3556968 5.28146493,51.1396968 C7.78946493,50.9236968 9.51446493,47.1736968 9.13446493,42.7636968 C8.75446493,38.3546968 6.41346493,34.9556968 3.90546493,35.1716968 C1.39746493,35.3876968 -0.327535072,39.1376968 0.0524649284,43.5466968" id="Fill-637" fill="#E23365"></path>
                <path d="M0.210664928,43.2159968 C0.510664928,46.6949968 2.35766493,49.3759968 4.33566493,49.2059968 C6.31366493,49.0349968 7.67466493,46.0769968 7.37566493,42.5989968 C7.07566493,39.1199968 5.22866493,36.4379968 3.24966493,36.6089968 C1.27166493,36.7789968 -0.0893350716,39.7369968 0.210664928,43.2159968" id="Fill-639" fill="#DF3830"></path>
                <path d="M0.604164928,43.4990968 C0.830164928,46.1190968 2.22016493,48.1380968 3.71016493,48.0100968 C5.20016493,47.8810968 6.22516493,45.6540968 5.99916493,43.0340968 C5.77416493,40.4140968 4.38316493,38.3950968 2.89316493,38.5230968 C1.40316493,38.6520968 0.378164928,40.8790968 0.604164928,43.4990968" id="Fill-641" fill="#E23365"></path>
            </g>
        </g>
    </g>
</svg>