<?xml version="1.0" encoding="UTF-8"?>
<svg width="71px" height="106px" viewBox="0 0 71 106" version="1.1" xmlns="http://www.w3.org/2000/svg" xmlns:xlink="http://www.w3.org/1999/xlink">
    <!-- Generator: Sketch 53.1 (72631) - https://sketchapp.com -->
    <title>Group 74Gift</title>
    <desc>Created with Sketch.</desc>
    <defs>
        <polygon id="path-1" points="3.352 2.059 0.059 79.143 62.546 80.896 64.797 0.66"></polygon>
        <polygon id="path-3" points="3.352 2.059 0.059 79.143 62.546 80.896 64.797 0.66"></polygon>
        <polyline id="path-5" points="3.352 2.059 0.059 79.143 62.546 80.896 64.797 0.66"></polyline>
        <polyline id="path-7" points="3.352 2.059 0.059 79.143 62.546 80.896 64.797 0.66"></polyline>
        <polyline id="path-9" points="3.352 2.059 0.059 79.143 62.546 80.896 64.797 0.66"></polyline>
        <polyline id="path-11" points="3.352 2.059 0.059 79.143 62.546 80.896 64.797 0.66"></polyline>
        <polyline id="path-13" points="3.352 2.059 0.059 79.143 62.546 80.896 64.797 0.66"></polyline>
        <polyline id="path-15" points="3.352 2.059 0.059 79.143 62.546 80.896 64.797 0.66"></polyline>
        <polyline id="path-17" points="3.352 2.059 0.059 79.143 62.546 80.896 64.797 0.66"></polyline>
        <polyline id="path-19" points="3.352 2.059 0.059 79.143 62.546 80.896 64.797 0.66"></polyline>
        <polyline id="path-21" points="3.352 2.059 0.059 79.143 62.546 80.896 64.797 0.66"></polyline>
        <polyline id="path-23" points="3.352 2.059 0.059 79.143 62.546 80.896 64.797 0.66"></polyline>
        <polyline id="path-25" points="3.352 2.059 0.059 79.143 62.546 80.896 64.797 0.66"></polyline>
        <polyline id="path-27" points="3.352 2.059 0.059 79.143 62.546 80.896 64.797 0.66"></polyline>
        <polyline id="path-29" points="3.352 2.059 0.059 79.143 62.546 80.896 64.797 0.66"></polyline>
    </defs>
    <g id="Page-1" stroke="none" stroke-width="1" fill="none" fill-rule="evenodd">
        <g id="Desktop-HD" transform="translate(-572.000000, -3395.000000)">
            <g id="Group-74" transform="translate(572.000000, 3395.020000)">
                <polygon id="Fill-643" fill="#F79E3C" points="4.3522 27.0585 1.0592 104.1435 63.5462 105.8955 65.7972 25.6595"></polygon>
                <g id="Group-691" transform="translate(1.000000, 25.000000)">
                    <g id="Group-648">
                        <mask id="mask-2" fill="white">
                            <use xlink:href="#path-1"></use>
                        </mask>
                        <g id="Clip-647"></g>
                        <polygon id="Fill-646" fill="#F79E3C" mask="url(#mask-2)" points="3.3522 2.0585 0.0592 79.1435 62.5462 80.8955 64.7972 0.6595"></polygon>
                    </g>
                    <g id="Group-651">
                        <mask id="mask-4" fill="white">
                            <use xlink:href="#path-3"></use>
                        </mask>
                        <g id="Clip-650"></g>
                        <polygon id="Fill-649" fill="#F79E3C" mask="url(#mask-4)" points="53.5647 -2.1065 49.1157 80.5195 62.5467 80.8955 64.3317 17.2555 68.4817 17.3715 69.0377 -2.4675"></polygon>
                    </g>
                    <g id="Group-654">
                        <mask id="mask-6" fill="white">
                            <use xlink:href="#path-5"></use>
                        </mask>
                        <g id="Clip-653"></g>
                        <path d="M3.5378,24.7482 C2.4168,39.6002 1.1658,54.4912 1.1308,69.4012 C1.1268,71.2482 3.8578,71.3162 3.9918,69.4822 C5.0738,54.6152 4.9428,39.6772 4.9378,24.7872 C4.9368,23.8832 3.6058,23.8502 3.5378,24.7482" id="Fill-652" fill="#F79E3C" mask="url(#mask-6)"></path>
                    </g>
                    <g id="Group-657">
                        <mask id="mask-8" fill="white">
                            <use xlink:href="#path-7"></use>
                        </mask>
                        <g id="Clip-656"></g>
                        <path d="M43.3768,36.784 L44.3558,39.37 C44.3748,39.419 44.4148,39.455 44.4648,39.467 L47.1508,40.126 C47.2768,40.158 47.3128,40.32 47.2118,40.401 L45.0548,42.131 C45.0138,42.164 44.9928,42.214 44.9968,42.265 L45.1988,45.023 C45.2088,45.153 45.0658,45.237 44.9568,45.166 L42.6448,43.649 C42.6008,43.621 42.5468,43.616 42.4988,43.635 L39.9388,44.68 C39.8188,44.729 39.6938,44.619 39.7278,44.494 L40.4558,41.826 C40.4698,41.776 40.4578,41.723 40.4248,41.683 L38.6398,39.571 C38.5558,39.472 38.6218,39.32 38.7518,39.313 L41.5138,39.181 C41.5658,39.179 41.6128,39.151 41.6398,39.107 L43.0968,36.757 C43.1658,36.646 43.3308,36.662 43.3768,36.784" id="Fill-655" fill="#F79E3C" mask="url(#mask-8)"></path>
                    </g>
                    <g id="Group-660">
                        <mask id="mask-10" fill="white">
                            <use xlink:href="#path-9"></use>
                        </mask>
                        <g id="Clip-659"></g>
                        <path d="M50.621,65.5184 L51.6,68.1044 C51.619,68.1534 51.659,68.1894 51.71,68.2014 L54.395,68.8604 C54.521,68.8924 54.557,69.0544 54.456,69.1354 L52.299,70.8654 C52.259,70.8984 52.237,70.9484 52.241,70.9994 L52.443,73.7574 C52.453,73.8874 52.31,73.9714 52.201,73.9004 L49.889,72.3834 C49.845,72.3554 49.791,72.3494 49.743,72.3694 L47.183,73.4144 C47.063,73.4634 46.938,73.3534 46.973,73.2284 L47.7,70.5604 C47.714,70.5104 47.702,70.4574 47.669,70.4174 L45.884,68.3054 C45.8,68.2064 45.866,68.0544 45.996,68.0474 L48.758,67.9154 C48.81,67.9134 48.857,67.8854 48.884,67.8414 L50.341,65.4914 C50.41,65.3814 50.575,65.3964 50.621,65.5184" id="Fill-658" fill="#F79E3C" mask="url(#mask-10)"></path>
                    </g>
                    <g id="Group-663">
                        <mask id="mask-12" fill="white">
                            <use xlink:href="#path-11"></use>
                        </mask>
                        <g id="Clip-662"></g>
                        <path d="M31.4718,23.387 L32.4508,25.973 C32.4698,26.022 32.5098,26.058 32.5608,26.07 L35.2458,26.73 C35.3718,26.761 35.4078,26.923 35.3068,27.004 L33.1498,28.735 C33.1098,28.767 33.0878,28.817 33.0918,28.868 L33.2938,31.626 C33.3038,31.756 33.1608,31.84 33.0518,31.769 L30.7398,30.252 C30.6958,30.224 30.6418,30.218 30.5938,30.238 L28.0338,31.283 C27.9138,31.332 27.7888,31.222 27.8238,31.097 L28.5518,28.429 C28.5648,28.379 28.5528,28.326 28.5198,28.286 L26.7348,26.174 C26.6508,26.075 26.7168,25.923 26.8468,25.917 L29.6088,25.784 C29.6608,25.782 29.7078,25.754 29.7348,25.71 L31.1918,23.36 C31.2608,23.25 31.4258,23.266 31.4718,23.387" id="Fill-661" fill="#F79E3C" mask="url(#mask-12)"></path>
                    </g>
                    <g id="Group-666">
                        <mask id="mask-14" fill="white">
                            <use xlink:href="#path-13"></use>
                        </mask>
                        <g id="Clip-665"></g>
                        <path d="M64.7263,35.4591 L65.7053,38.0451 C65.7243,38.0941 65.7643,38.1301 65.8143,38.1421 L68.5003,38.8011 C68.6263,38.8331 68.6623,38.9951 68.5613,39.0761 L66.4043,40.8061 C66.3633,40.8391 66.3423,40.8891 66.3453,40.9401 L66.5483,43.6981 C66.5583,43.8281 66.4153,43.9121 66.3063,43.8411 L63.9943,42.3241 C63.9503,42.2961 63.8963,42.2911 63.8483,42.3101 L61.2883,43.3551 C61.1683,43.4041 61.0433,43.2941 61.0773,43.1691 L61.8053,40.5011 C61.8193,40.4511 61.8073,40.3981 61.7743,40.3581 L59.9893,38.2461 C59.9053,38.1471 59.9713,37.9951 60.1013,37.9881 L62.8633,37.8561 C62.9153,37.8541 62.9623,37.8261 62.9893,37.7821 L64.4463,35.4321 C64.5153,35.3221 64.6803,35.3371 64.7263,35.4591" id="Fill-664" fill="#F79E3C" mask="url(#mask-14)"></path>
                    </g>
                    <g id="Group-669">
                        <mask id="mask-16" fill="white">
                            <use xlink:href="#path-15"></use>
                        </mask>
                        <g id="Clip-668"></g>
                        <path d="M35.8848,58.9657 L36.8638,61.5517 C36.8828,61.6007 36.9228,61.6367 36.9728,61.6487 L39.6588,62.3087 C39.7848,62.3397 39.8208,62.5017 39.7198,62.5827 L37.5628,64.3137 C37.5218,64.3457 37.5008,64.3957 37.5038,64.4467 L37.7068,67.2047 C37.7168,67.3347 37.5738,67.4187 37.4648,67.3477 L35.1528,65.8307 C35.1088,65.8027 35.0548,65.7967 35.0068,65.8167 L32.4468,66.8617 C32.3268,66.9107 32.2018,66.8007 32.2358,66.6757 L32.9638,64.0077 C32.9778,63.9577 32.9658,63.9047 32.9328,63.8647 L31.1478,61.7527 C31.0638,61.6537 31.1298,61.5017 31.2598,61.4957 L34.0218,61.3627 C34.0738,61.3607 34.1208,61.3327 34.1478,61.2887 L35.6048,58.9387 C35.6738,58.8287 35.8388,58.8447 35.8848,58.9657" id="Fill-667" fill="#F79E3C" mask="url(#mask-16)"></path>
                    </g>
                    <g id="Group-672">
                        <mask id="mask-18" fill="white">
                            <use xlink:href="#path-17"></use>
                        </mask>
                        <g id="Clip-671"></g>
                        <path d="M53.89,48.7558 L54.869,51.3418 C54.888,51.3908 54.928,51.4268 54.978,51.4388 L57.664,52.0988 C57.79,52.1298 57.826,52.2918 57.725,52.3728 L55.568,54.1028 C55.527,54.1358 55.506,54.1858 55.51,54.2368 L55.712,56.9948 C55.722,57.1248 55.579,57.2088 55.47,57.1378 L53.158,55.6208 C53.114,55.5928 53.06,55.5878 53.012,55.6068 L50.452,56.6518 C50.332,56.7008 50.207,56.5908 50.241,56.4658 L50.969,53.7978 C50.983,53.7478 50.971,53.6948 50.938,53.6548 L49.153,51.5428 C49.069,51.4438 49.135,51.2918 49.265,51.2848 L52.027,51.1528 C52.079,51.1508 52.126,51.1228 52.153,51.0788 L53.61,48.7288 C53.679,48.6188 53.844,48.6348 53.89,48.7558" id="Fill-670" fill="#F79E3C" mask="url(#mask-18)"></path>
                    </g>
                    <g id="Group-675">
                        <mask id="mask-20" fill="white">
                            <use xlink:href="#path-19"></use>
                        </mask>
                        <g id="Clip-674"></g>
                        <path d="M64.3006,63.4601 L65.2796,66.0461 C65.2986,66.0951 65.3386,66.1311 65.3886,66.1431 L68.0746,66.8031 C68.2006,66.8341 68.2366,66.9961 68.1356,67.0771 L65.9786,68.8081 C65.9376,68.8401 65.9166,68.8901 65.9196,68.9411 L66.1226,71.6991 C66.1326,71.8291 65.9896,71.9131 65.8806,71.8421 L63.5686,70.3251 C63.5246,70.2971 63.4706,70.2921 63.4226,70.3111 L60.8626,71.3561 C60.7426,71.4051 60.6176,71.2951 60.6516,71.1701 L61.3796,68.5021 C61.3936,68.4521 61.3816,68.3991 61.3486,68.3591 L59.5636,66.2471 C59.4796,66.1481 59.5456,65.9961 59.6756,65.9901 L62.4376,65.8571 C62.4896,65.8551 62.5366,65.8271 62.5636,65.7841 L64.0206,63.4331 C64.0896,63.3231 64.2546,63.3391 64.3006,63.4601" id="Fill-673" fill="#F79E3C" mask="url(#mask-20)"></path>
                    </g>
                    <g id="Group-678">
                        <mask id="mask-22" fill="white">
                            <use xlink:href="#path-21"></use>
                        </mask>
                        <g id="Clip-677"></g>
                        <path d="M41.5065,76.0859 L42.4855,78.6719 C42.5045,78.7209 42.5445,78.7569 42.5945,78.7689 L45.2805,79.4289 C45.4065,79.4599 45.4425,79.6219 45.3415,79.7029 L43.1845,81.4339 C43.1435,81.4659 43.1225,81.5159 43.1265,81.5669 L43.3285,84.3249 C43.3385,84.4549 43.1955,84.5389 43.0865,84.4679 L40.7735,82.9509 C40.7305,82.9229 40.6765,82.9179 40.6285,82.9369 L38.0685,83.9819 C37.9485,84.0309 37.8235,83.9209 37.8575,83.7959 L38.5855,81.1279 C38.5995,81.0779 38.5875,81.0249 38.5545,80.9849 L36.7695,78.8729 C36.6855,78.7739 36.7515,78.6219 36.8815,78.6159 L39.6435,78.4829 C39.6955,78.4809 39.7425,78.4529 39.7695,78.4089 L41.2265,76.0589 C41.2955,75.9489 41.4605,75.9649 41.5065,76.0859" id="Fill-676" fill="#F79E3C" mask="url(#mask-22)"></path>
                    </g>
                    <g id="Group-681">
                        <mask id="mask-24" fill="white">
                            <use xlink:href="#path-23"></use>
                        </mask>
                        <g id="Clip-680"></g>
                        <path d="M11.5425,39.8372 L13.3105,41.9642 C13.3435,42.0042 13.3935,42.0242 13.4445,42.0202 L16.1995,41.7692 C16.3285,41.7582 16.4155,41.8992 16.3455,42.0092 L14.8695,44.3472 C14.8415,44.3912 14.8375,44.4462 14.8575,44.4932 L15.9465,47.0352 C15.9975,47.1542 15.8905,47.2802 15.7645,47.2482 L13.0835,46.5672 C13.0345,46.5542 12.9805,46.5672 12.9425,46.6012 L10.8615,48.4222 C10.7635,48.5082 10.6105,48.4442 10.6015,48.3142 L10.4215,45.5552 C10.4185,45.5032 10.3895,45.4572 10.3455,45.4302 L7.9705,44.0142 C7.8585,43.9472 7.8715,43.7822 7.9925,43.7342 L10.5615,42.7102 C10.6095,42.6912 10.6445,42.6492 10.6565,42.5992 L11.2695,39.9022 C11.2975,39.7762 11.4595,39.7372 11.5425,39.8372" id="Fill-679" fill="#F79E3C" mask="url(#mask-24)"></path>
                    </g>
                    <g id="Group-684">
                        <mask id="mask-26" fill="white">
                            <use xlink:href="#path-25"></use>
                        </mask>
                        <g id="Clip-683"></g>
                        <path d="M5.5077,72.0232 L7.2757,74.1502 C7.3087,74.1902 7.3587,74.2102 7.4097,74.2062 L10.1647,73.9552 C10.2937,73.9442 10.3807,74.0852 10.3107,74.1952 L8.8347,76.5332 C8.8067,76.5772 8.8027,76.6322 8.8227,76.6792 L9.9117,79.2212 C9.9627,79.3402 9.8557,79.4662 9.7297,79.4342 L7.0487,78.7532 C6.9997,78.7402 6.9457,78.7532 6.9077,78.7872 L4.8267,80.6082 C4.7287,80.6942 4.5757,80.6302 4.5667,80.5002 L4.3867,77.7412 C4.3837,77.6892 4.3547,77.6432 4.3107,77.6162 L1.9357,76.2002 C1.8237,76.1332 1.8367,75.9682 1.9577,75.9202 L4.5267,74.8962 C4.5747,74.8772 4.6097,74.8352 4.6217,74.7852 L5.2347,72.0882 C5.2637,71.9622 5.4247,71.9232 5.5077,72.0232" id="Fill-682" fill="#F79E3C" mask="url(#mask-26)"></path>
                    </g>
                    <g id="Group-687">
                        <mask id="mask-28" fill="white">
                            <use xlink:href="#path-27"></use>
                        </mask>
                        <g id="Clip-686"></g>
                        <path d="M14.1505,58.1441 L15.9185,60.2711 C15.9515,60.3111 16.0015,60.3321 16.0525,60.3271 L18.8065,60.0771 C18.9365,60.0651 19.0235,60.2061 18.9535,60.3161 L17.4775,62.6541 C17.4495,62.6981 17.4455,62.7531 17.4655,62.8001 L18.5545,65.3421 C18.6055,65.4611 18.4975,65.5871 18.3725,65.5551 L15.6915,64.8741 C15.6415,64.8611 15.5885,64.8741 15.5505,64.9081 L13.4695,66.7291 C13.3715,66.8151 13.2185,66.7511 13.2095,66.6211 L13.0295,63.8621 C13.0265,63.8101 12.9975,63.7641 12.9535,63.7371 L10.5785,62.3211 C10.4665,62.2551 10.4795,62.0891 10.6005,62.0411 L13.1695,61.0171 C13.2175,60.9981 13.2525,60.9561 13.2645,60.9061 L13.8775,58.2091 C13.9055,58.0831 14.0675,58.0441 14.1505,58.1441" id="Fill-685" fill="#F79E3C" mask="url(#mask-28)"></path>
                    </g>
                    <g id="Group-690">
                        <mask id="mask-30" fill="white">
                            <use xlink:href="#path-29"></use>
                        </mask>
                        <g id="Clip-689"></g>
                        <path d="M-0.4776,49.9757 L1.2904,52.1027 C1.3234,52.1427 1.3734,52.1627 1.4244,52.1587 L4.1794,51.9077 C4.3084,51.8967 4.3954,52.0377 4.3254,52.1477 L2.8494,54.4857 C2.8214,54.5297 2.8174,54.5837 2.8374,54.6317 L3.9264,57.1737 C3.9784,57.2927 3.8704,57.4187 3.7444,57.3867 L1.0634,56.7057 C1.0144,56.6927 0.9604,56.7057 0.9224,56.7397 L-1.1586,58.5607 C-1.2566,58.6467 -1.4096,58.5827 -1.4186,58.4527 L-1.5986,55.6937 C-1.6016,55.6417 -1.6306,55.5957 -1.6746,55.5687 L-4.0496,54.1527 C-4.1616,54.0857 -4.1486,53.9207 -4.0276,53.8727 L-1.4586,52.8487 C-1.4106,52.8297 -1.3756,52.7877 -1.3636,52.7377 L-0.7506,50.0407 C-0.7216,49.9147 -0.5606,49.8757 -0.4776,49.9757" id="Fill-688" fill="#F79E3C" mask="url(#mask-30)"></path>
                    </g>
                </g>
                <g id="Group-708">
                    <path d="M30.2925,23.8132 C30.2925,23.8132 43.9965,-5.8368 51.3475,1.9882 C58.6985,9.8132 55.4565,23.2252 55.4565,23.2252 L30.2925,23.8132 Z" id="Fill-692" fill="#E23365"></path>
                    <path d="M30.2994,23.5677 C30.2994,23.5677 26.7304,2.4897 17.1494,0.6587 C7.5674,-1.1723 11.8284,24.5057 12.8444,24.1747 C13.8604,23.8437 30.2994,23.5677 30.2994,23.5677" id="Fill-694" fill="#E23365"></path>
                    <polygon id="Fill-696" fill="#F79E3C" points="0.9795 40.4502 69.4815 42.3712 70.0385 22.5322 1.4375 24.1342"></polygon>
                    <polygon id="Fill-698" fill="#A26624" points="3.7767 40.5287 65.3317 42.2547 65.1927 47.1907 3.6387 45.4647"></polygon>
                    <path d="M25.7852,23.2472 C25.7852,23.2472 24.5042,17.8372 28.2202,16.8652 C31.9372,15.8932 34.6962,17.1412 34.0692,23.4792 L25.7852,23.2472 Z" id="Fill-700" fill="#82175B"></path>
                    <path d="M28.4688,20.4904 C28.6538,20.2594 28.8908,20.0274 29.1258,19.8574 C29.4858,19.5974 29.9268,19.4744 30.2398,19.1504 C31.0158,18.3444 30.3368,16.8074 29.1488,17.1484 C28.1378,17.4384 27.3378,18.6014 26.8838,19.5034 C26.3348,20.5924 27.7238,21.4244 28.4688,20.4904" id="Fill-702" fill="#FFC2F0"></path>
                    <path d="M2.4621,27.7948 C2.4041,30.6918 2.1321,33.6208 2.2041,36.5138 C2.2541,38.4708 5.3601,38.5218 5.2271,36.5988 C5.0201,33.6008 4.4631,30.6048 4.1221,27.6178 C4.0131,26.6618 2.4811,26.8668 2.4621,27.7948" id="Fill-704" fill="#FFF7FD"></path>
                    <polygon id="Fill-706" fill="#E23365" points="21.6555 23.3848 17.4425 104.6028 33.4455 105.0518 34.0735 22.9708"></polygon>
                </g>
            </g>
        </g>
    </g>
</svg>