<?xml version="1.0" encoding="UTF-8"?>
<svg width="163px" height="184px" viewBox="0 0 163 184" version="1.1" xmlns="http://www.w3.org/2000/svg" xmlns:xlink="http://www.w3.org/1999/xlink">
    <!-- Generator: Sketch 53.1 (72631) - https://sketchapp.com -->
    <title>Group 29cake</title>
    <desc>Created with Sketch.</desc>
    <defs>
        <path d="M4.842,7.711 C1.722,7.711 2.97,19.723 0.138,16.447 L0.138,2.022 C0.138,2.022 107.733,-0.669 110.259,2.022 L110.259,24.771 C109.756,25.582 109.113,26.138 108.271,26.249 C103.294,26.908 108.315,15.651 102.807,14.107 C95.64,12.097 99.833,24.196 93.905,24.508 C87.977,24.82 92.325,10.59 83.646,11.05 C76.842,11.41 83.783,31.868 73.687,31.764 C63.816,31.662 72.262,12.631 65.749,12.733 C61.913,12.793 68.119,25.241 59.643,25.658 C53.435,25.963 57.853,12.207 54.147,12.326 C47.838,12.53 53.944,29.932 47.428,30.486 C42.452,30.91 41.189,23.467 41.657,13.795 C42.124,4.123 31.078,5.716 32.921,14.263 C34.302,20.671 33.285,27.417 28.196,27.49 C21.072,27.592 28.603,11.003 20.753,10.831 C15.374,10.713 22.157,33.762 11.393,32.358" id="path-1"></path>
        <linearGradient x1="50.0001538%" y1="100.00076%" x2="50.0001538%" y2="-0.000602969533%" id="linearGradient-3">
            <stop stop-color="#B66B3B" offset="0%"></stop>
            <stop stop-color="#F2C680" offset="100%"></stop>
        </linearGradient>
        <path d="M15.753,0.25 C20.077,0.345 19.735,5.418 19.746,9.941 C19.723,6.115 19.383,2.524 15.753,2.444 C10.374,2.326 17.157,25.376 6.393,23.972 C0.916,23.257 0.126,16.887 0.259,10.803 C0.386,16.141 1.574,21.149 6.393,21.777" id="path-4"></path>
        <linearGradient x1="50.0000977%" y1="99.9983185%" x2="50.0000977%" y2="2.16958714e-05%" id="linearGradient-6">
            <stop stop-color="#6B2F2F" offset="0%"></stop>
            <stop stop-color="#4F1F23" offset="100%"></stop>
        </linearGradient>
        <path d="M7.657,4.024 C7.583,2.964 7.356,2.324 6.842,2.324 C3.722,2.324 4.97,14.336 2.138,11.06 C1.028,9.776 0.79,7.283 0.908,4.727 C1.004,6.441 1.352,7.957 2.138,8.866 C4.97,12.142 3.722,0.13 6.842,0.13" id="path-7"></path>
        <linearGradient x1="50.0002906%" y1="99.9997851%" x2="50.0002906%" y2="0.000598464202%" id="linearGradient-9">
            <stop stop-color="#6B2F2F" offset="0%"></stop>
            <stop stop-color="#4F1F23" offset="100%"></stop>
        </linearGradient>
        <path d="M4.196,7.909 C7.637,7.86 9.211,4.757 9.446,0.774 C9.712,5.754 8.248,10.045 4.196,10.103 C0.472,10.156 0.752,5.65 0.747,1.311" id="path-10"></path>
        <linearGradient x1="50.0020861%" y1="100.000563%" x2="50.0020861%" y2="0.00237312693%" id="linearGradient-12">
            <stop stop-color="#6B2F2F" offset="0%"></stop>
            <stop stop-color="#4F1F23" offset="100%"></stop>
        </linearGradient>
        <path d="M1.749,0.152 C4.46,0.11 4.579,3.383 4.506,7.225 C4.428,4.413 3.922,2.312 1.749,2.346 C0.798,2.361 0.465,3.138 0.372,4.303" id="path-13"></path>
        <linearGradient x1="49.9952668%" y1="100.000086%" x2="49.9952668%" y2="0.00386512677%" id="linearGradient-15">
            <stop stop-color="#6B2F2F" offset="0%"></stop>
            <stop stop-color="#4F1F23" offset="100%"></stop>
        </linearGradient>
        <path d="M40.271,15.668 C43.939,15.183 43.98,6.588 44.007,2.925 C44.016,3.583 44.015,4.191 44.01,4.702 C43.978,8.091 44.081,17.359 40.271,17.862 C35.294,18.521 40.315,7.265 34.807,5.72 C27.64,3.71 31.833,15.809 25.905,16.121 C19.977,16.433 24.325,2.204 15.646,2.663 C8.842,3.023 15.783,23.481 5.687,23.377 C0.629,23.325 0.381,18.303 0.465,13.432 C0.565,17.509 1.391,21.139 5.687,21.183 C15.783,21.287 8.842,0.829 15.646,0.469 C24.325,0.01 19.977,14.239 25.905,13.927 C31.833,13.615 27.64,1.516 34.807,3.526" id="path-16"></path>
        <linearGradient x1="49.9997444%" y1="100.0016%" x2="49.9997444%" y2="0.000149639997%" id="linearGradient-18">
            <stop stop-color="#6B2F2F" offset="0%"></stop>
            <stop stop-color="#4F1F23" offset="100%"></stop>
        </linearGradient>
        <path d="M9.657,7.214 C9.645,7.46 9.639,7.698 9.629,7.942 C9.05,1.013 1.65,1.471 0.795,6.96" id="path-19"></path>
        <linearGradient x1="49.9996736%" y1="99.9960718%" x2="49.9996736%" y2="-0.000756000555%" id="linearGradient-21">
            <stop stop-color="#6B2F2F" offset="0%"></stop>
            <stop stop-color="#4F1F23" offset="100%"></stop>
        </linearGradient>
        <path d="M18.643,14.077 C22.402,13.892 23.272,11.341 23.412,8.553 C23.531,12.041 23.384,16.038 18.643,16.271 C12.435,16.577 16.853,2.82 13.147,2.939 C6.838,3.143 12.944,20.546 6.428,21.1 C1.875,21.487 0.435,15.28 0.581,6.813 C0.716,14.132 2.278,19.258 6.428,18.905 C12.944,18.351 6.838,0.949 13.147,0.745" id="path-22"></path>
        <linearGradient x1="49.999844%" y1="99.9984071%" x2="49.999844%" y2="0.000982563726%" id="linearGradient-24">
            <stop stop-color="#6B2F2F" offset="0%"></stop>
            <stop stop-color="#4F1F23" offset="100%"></stop>
        </linearGradient>
        <path d="M4.653,5.972 C2.128,5.972 3.138,15.69 0.847,13.04 L0.847,1.368 C0.847,1.368 87.225,0.143 89.948,1.368 L89.948,24.918 C89.65,25.036 89.331,25.128 88.966,25.157 C84.17,25.535 88.93,12.999 83.918,11.147 C77.395,8.735 81.511,19.31 76.715,19.562 C71.919,19.815 75.437,8.301 68.414,8.673 C62.909,8.965 68.525,25.518 60.357,25.433 C52.369,25.351 59.204,9.953 53.934,10.035 C50.83,10.084 55.851,20.155 48.993,20.493 C43.97,20.74 47.545,9.609 44.547,9.706 C39.441,9.87 44.382,23.951 39.11,24.399 C35.084,24.742 34.062,18.72 34.44,10.894 C34.819,3.069 25.881,4.358 27.372,11.273 C28.49,16.458 27.667,21.916 23.549,21.975 C17.785,22.057 23.879,8.635 17.527,8.496 C13.175,8.4 18.663,27.05 9.954,25.914" id="path-25"></path>
        <linearGradient x1="49.9998277%" y1="8.18850585%" x2="49.9998277%" y2="126.905707%" id="linearGradient-27">
            <stop stop-color="#B66B3B" offset="0%"></stop>
            <stop stop-color="#F2C680" offset="100%"></stop>
        </linearGradient>
        <path d="M3.549,6.548 C6.315,6.508 7.589,4.03 7.792,0.838 C8.039,4.921 6.862,8.464 3.549,8.511 C0.474,8.555 0.774,4.756 0.758,1.18" id="path-28"></path>
        <linearGradient x1="50.0009621%" y1="100.002842%" x2="50.0009621%" y2="-0.0027171864%" id="linearGradient-30">
            <stop stop-color="#6B2F2F" offset="0%"></stop>
            <stop stop-color="#4F1F23" offset="100%"></stop>
        </linearGradient>
        <path d="M13.527,0.069 C17.095,0.147 16.736,4.417 16.758,8.13 C16.742,5.022 16.474,2.097 13.527,2.032 C9.175,1.937 14.663,20.586 5.954,19.45 C1.497,18.869 0.877,13.662 0.993,8.714 C1.108,12.993 2.087,16.983 5.954,17.487" id="path-31"></path>
        <linearGradient x1="49.9983555%" y1="100.00176%" x2="49.9983555%" y2="6.6619754e-05%" id="linearGradient-33">
            <stop stop-color="#6B2F2F" offset="0%"></stop>
            <stop stop-color="#4F1F23" offset="100%"></stop>
        </linearGradient>
        <path d="M6.308,3.8 C6.242,2.99 6.056,2.508 5.653,2.508 C3.128,2.508 4.138,12.227 1.847,9.576 C0.933,8.518 0.749,6.447 0.857,4.338 C0.94,5.695 1.223,6.891 1.847,7.613 C4.138,10.263 3.128,0.545 5.653,0.545" id="path-34"></path>
        <linearGradient x1="50.0001498%" y1="99.999392%" x2="50.0001498%" y2="-0.00296443964%" id="linearGradient-36">
            <stop stop-color="#6B2F2F" offset="0%"></stop>
            <stop stop-color="#4F1F23" offset="100%"></stop>
        </linearGradient>
        <path d="M32.966,16.73 C35.76,16.509 36.494,13.423 36.623,10.882 C36.752,13.39 36.556,18.41 32.966,18.693 C28.17,19.072 32.93,6.536 27.918,4.683 C21.395,2.271 25.511,12.846 20.715,13.098 C15.919,13.351 19.437,1.838 12.414,2.21 C6.909,2.501 12.525,19.054 4.357,18.97 C0.22,18.927 0.06,14.776 0.134,10.795 C0.221,14.069 0.902,16.971 4.357,17.006 C12.525,17.091 6.909,0.538 12.414,0.246 C19.437,-0.125 15.919,11.388 20.715,11.135 C25.511,10.883 21.395,0.308 27.918,2.72" id="path-37"></path>
        <linearGradient x1="49.9999023%" y1="99.9981428%" x2="49.9999023%" y2="0.00145272254%" id="linearGradient-39">
            <stop stop-color="#6B2F2F" offset="0%"></stop>
            <stop stop-color="#4F1F23" offset="100%"></stop>
        </linearGradient>
        <path d="M1.934,0.608 C4.155,0.573 4.225,3.29 4.162,6.449 C4.092,4.209 3.674,2.544 1.934,2.571 C1.179,2.583 0.906,3.191 0.825,4.105" id="path-40"></path>
        <linearGradient x1="50.0008115%" y1="100.003222%" x2="50.0008115%" y2="0.00305143448%" id="linearGradient-42">
            <stop stop-color="#6B2F2F" offset="0%"></stop>
            <stop stop-color="#4F1F23" offset="100%"></stop>
        </linearGradient>
        <path d="M14.993,11.066 C17.996,10.918 18.721,8.905 18.848,6.683 C18.951,9.529 18.875,12.838 14.993,13.029 C9.97,13.276 13.545,2.145 10.547,2.242 C5.441,2.407 10.382,16.487 5.11,16.936 C1.409,17.25 0.25,12.181 0.381,5.282 C0.501,11.154 1.77,15.257 5.11,14.973 C10.382,14.524 5.441,0.443 10.547,0.279" id="path-43"></path>
        <linearGradient x1="49.9991915%" y1="99.9987339%" x2="49.9991915%" y2="-0.00109690662%" id="linearGradient-45">
            <stop stop-color="#6B2F2F" offset="0%"></stop>
            <stop stop-color="#4F1F23" offset="100%"></stop>
        </linearGradient>
    </defs>
    <g id="Page-1" stroke="none" stroke-width="1" fill="none" fill-rule="evenodd">
        <g id="Desktop-HD" transform="translate(-177.000000, -1478.000000)">
            <g id="Group-29" transform="translate(176.999715, 1478.000000)">
                <path d="M108.189785,85.7089 C108.818785,85.7089 109.407785,85.3189 109.631785,84.6929 C119.267785,57.7089 144.940785,61.6949 146.025785,61.8799 C146.863785,62.0179 147.648785,61.4589 147.789785,60.6259 C147.930785,59.7939 147.371785,59.0039 146.539785,58.8619 C146.246785,58.8119 117.261785,54.2259 106.747785,83.6629 C106.463785,84.4589 106.879785,85.3349 107.674785,85.6189 C107.844785,85.6799 108.019785,85.7089 108.189785,85.7089" id="Fill-429" fill="#D2005E"></path>
                <polygon id="Fill-430" fill="#DB79CF" points="153.424585 59.3498 162.267585 69.5528 151.383585 68.1928 147.642585 79.4168 143.561585 65.8118 128.596585 67.1728 139.139585 58.6698 130.977585 48.1258 145.942585 53.5678 157.845585 43.3648"></polygon>
                <path d="M7.97068522,44.4288 C6.19068522,44.4288 4.79768522,45.0298 3.93968522,46.1978 C2.73268522,47.8408 2.70868522,50.4558 3.88168522,52.4148 C4.54868522,53.5278 6.16968522,55.3228 9.46768522,54.8518 C13.0906852,54.3328 16.0506852,52.1078 18.3206852,49.2168 C15.7956852,46.9888 13.0276852,45.3778 10.3346852,44.7318 C9.48868522,44.5288 8.69768522,44.4288 7.97068522,44.4288 M24.5686852,67.3768 C21.1326852,67.3768 18.8726852,68.4278 18.3006852,70.3298 C17.7456852,72.1758 18.8196852,74.6248 20.6456852,75.6788 C22.2866852,76.6268 24.0286852,76.1918 25.6886852,74.4288 C27.4846852,72.5208 27.9916852,70.0328 27.9396852,67.7078 C27.2366852,67.5588 26.4856852,67.4598 25.6896852,67.4108 C25.3036852,67.3878 24.9296852,67.3768 24.5686852,67.3768 M37.3546852,90.0538 C37.2416852,90.0538 37.1276852,90.0408 37.0126852,90.0148 C36.2006852,89.8268 35.6956852,89.0158 35.8826852,88.2048 C35.9076852,88.0958 38.3236852,77.3378 33.8576852,71.3608 C33.0566852,70.2898 32.0916852,69.4388 30.9476852,68.8038 C30.7946852,71.8708 29.7656852,74.5018 27.8866852,76.4978 C25.2716852,79.2758 22.0016852,79.9448 19.1356852,78.2928 C16.0866852,76.5328 14.4506852,72.6528 15.4096852,69.4618 C15.9156852,67.7778 17.9496852,63.9148 25.8716852,64.3978 C26.4546852,64.4338 27.0196852,64.4928 27.5666852,64.5748 C27.4316852,63.9228 27.2736852,63.3248 27.1196852,62.8068 C25.8656852,58.6088 23.4276852,54.5428 20.4496852,51.3068 C17.7316852,54.6608 14.1856852,57.2268 9.89468522,57.8388 C6.21668522,58.3688 3.08168522,56.9538 1.29168522,53.9658 C-0.507314783,50.9618 -0.419314783,47.0328 1.50668522,44.4108 C2.64868522,42.8538 5.40768522,40.4398 11.0396852,41.7968 C14.3016852,42.5798 17.3586852,44.3538 20.0476852,46.6838 C22.7376852,42.1468 24.0056852,36.8478 23.7726852,33.8208 C23.7086852,32.9898 24.3306852,32.2638 25.1626852,32.1998 C25.9976852,32.1418 26.7186852,32.7588 26.7826852,33.5888 C27.0856852,37.5268 25.4986852,43.6628 22.2486852,48.7948 C25.9376852,52.6968 28.7046852,57.5638 30.0116852,61.9428 C30.3676852,63.1338 30.6236852,64.2918 30.7796852,65.4098 C33.0196852,66.2698 34.8616852,67.6588 36.2816852,69.5628 C41.5836852,76.6698 38.9376852,88.3918 38.8226852,88.8868 C38.6606852,89.5828 38.0406852,90.0538 37.3546852,90.0538" id="Fill-431" fill="#D2005E"></path>
                <path d="M76.7721852,36.7619 C75.6051852,36.7619 74.5261852,37.1169 73.5781852,37.8339 C71.0681852,39.7279 69.9781852,43.7539 71.1491852,46.8059 C72.2791852,49.7559 75.2331852,51.1839 79.4861852,50.8159 C82.7081852,50.5409 85.2301852,49.2419 87.2021852,47.3439 C86.4631852,43.8999 84.8751852,40.9209 82.2301852,38.9369 C80.3041852,37.4919 78.4461852,36.7619 76.7721852,36.7619 M64.9041852,65.2949 C64.6051852,65.2949 64.3061852,65.3359 64.0071852,65.4199 C61.6991852,66.0619 59.8761852,68.9569 59.9441852,71.8739 C59.9911852,73.9209 61.0201852,77.5709 67.3721852,79.0229 C68.5741852,79.2989 69.7371852,79.3579 70.8621852,79.2359 C71.7811852,76.0119 71.6931852,72.5689 69.7511852,69.1689 C68.3041852,66.6369 66.6111852,65.2949 64.9041852,65.2949 M58.9881852,98.1039 C58.5121852,98.1039 58.0441852,97.8799 57.7501852,97.4599 C57.2721852,96.7779 57.4381852,95.8369 58.1201852,95.3579 C58.2431852,95.2719 66.0861852,89.6839 69.6721852,82.3089 C68.6851852,82.3059 67.6931852,82.1929 66.7001852,81.9669 C60.6941852,80.5939 57.0401852,76.8469 56.9261852,71.9449 C56.8261852,67.6599 59.5821852,63.5169 63.1991852,62.5109 C64.8161852,62.0639 68.9411852,61.6679 72.3711852,67.6709 C74.4521852,71.3119 74.8531852,74.9149 74.2521852,78.2939 C78.6591852,76.3049 82.1911852,71.6369 84.3851852,66.9049 C86.6451852,62.0289 87.9391852,56.2129 87.6691852,50.9729 C85.5331852,52.5139 82.9261852,53.5509 79.7431852,53.8249 C74.1251852,54.3069 69.9611852,52.1419 68.3301852,47.8869 C66.6841852,43.5929 68.1911852,38.1189 71.7591852,35.4239 C75.1851852,32.8379 79.6621852,33.2359 84.0421852,36.5219 C86.6951852,38.5129 88.4711852,41.2979 89.5111852,44.5089 C94.8401852,36.2629 94.2171852,22.9069 94.2071852,22.7169 C94.1621852,21.8839 94.8011852,21.1729 95.6331852,21.1289 C96.4861852,21.0969 97.1771852,21.7219 97.2211852,22.5549 C97.2701852,23.4649 98.0191852,39.7339 90.4031852,48.4629 C91.2921852,54.8509 89.9031852,62.1789 87.1241852,68.1749 C83.6961852,75.5679 78.6931852,80.3779 73.2471852,81.8389 C69.8011852,90.7569 60.4351852,97.4229 59.8511852,97.8309 C59.5881852,98.0149 59.2871852,98.1039 58.9881852,98.1039" id="Fill-432" fill="#D2005E"></path>
                <path d="M94.8676852,40.7079 C94.8676852,40.7079 92.9366852,41.0109 92.1786852,38.6489 C91.4196852,36.2879 94.5916852,33.7439 94.7296852,30.7769 C94.7296852,30.7769 95.8326852,33.0779 97.0746852,35.0159 C98.3156852,36.9539 98.9366852,40.2839 94.8676852,40.7079" id="Fill-433" fill="#FBF5D4"></path>
                <path d="M95.0056852,35.0158 C95.0056852,35.0158 92.6606852,38.8308 95.1436852,40.5268 C95.1436852,40.5268 97.6946852,38.6488 95.0056852,35.0158" id="Fill-434" fill="#EFBA78"></path>
                <path d="M94.8676852,37.1958 C94.8676852,37.1958 95.6956852,40.1028 94.7296852,44.4628" id="Stroke-435" stroke="#464646" stroke-width="0.459" stroke-linecap="round"></path>
                <path d="M92.6849852,85.3124 L92.9459852,44.4814 C92.9459852,44.4814 92.8149852,42.7654 94.7689852,42.6514 C96.7229852,42.5364 96.5929852,44.5954 96.5929852,44.5954 L98.9369852,85.1984 L92.6849852,85.3124 Z" id="Fill-436" fill="#DB79CF"></path>
                <path d="M22.1381852,130.2612 L22.1381852,173.5512 C22.1381852,175.9762 46.7901852,177.9422 77.1991852,177.9422 C107.608185,177.9422 132.260185,175.9762 132.260185,173.5512 L132.260185,130.2612 L22.1381852,130.2612 Z" id="Fill-437" fill="#F79E3C"></path>
                <g id="Group-440" transform="translate(22.000285, 130.626000)">
                    <mask id="mask-2" fill="white">
                        <use xlink:href="#path-1"></use>
                    </mask>
                    <g id="Clip-439"></g>
                    <path d="M4.842,7.711 C7.961,7.711 0.63,30.954 11.393,32.358 C22.157,33.762 15.374,10.713 20.753,10.831 C28.603,11.003 21.072,27.592 28.196,27.49 C33.285,27.417 34.302,20.671 32.921,14.263 C31.078,5.716 42.124,4.123 41.657,13.795 C41.189,23.467 42.452,30.91 47.428,30.486 C53.944,29.932 47.838,12.53 54.147,12.326 C57.853,12.207 53.435,25.963 59.643,25.658 C68.119,25.241 61.913,12.793 65.749,12.733 C72.262,12.631 63.816,31.662 73.687,31.764 C83.783,31.868 76.842,11.41 83.646,11.05 C92.325,10.59 87.977,24.82 93.905,24.508 C99.833,24.196 95.64,12.097 102.807,14.107 C108.315,15.651 103.294,26.908 108.271,26.249 C109.113,26.138 109.756,25.582 110.259,24.771 L110.259,2.022 C107.733,-0.669 0.138,2.022 0.138,2.022 L0.138,16.447 C2.97,19.723 1.722,7.711 4.842,7.711" id="Fill-438" fill="url(#linearGradient-3)" mask="url(#mask-2)"></path>
                </g>
                <path d="M22.1381852,130.2612 C22.1381852,130.2612 19.3061852,141.4102 22.1381852,144.6862 C24.9701852,147.9622 23.7221852,135.9502 26.8421852,135.9502 C29.9621852,135.9502 22.6301852,159.1932 33.3931852,160.5972 C44.1571852,162.0012 37.3741852,138.9522 42.7531852,139.0702 C50.6031852,139.2422 43.0721852,155.8312 50.1961852,155.7292 C55.2851852,155.6562 56.3031852,148.9102 54.9211852,142.5022 C53.0781852,133.9562 64.1251852,132.3622 63.6571852,142.0342 C63.1891852,151.7062 64.4521852,159.1492 69.4281852,158.7252 C75.9441852,158.1712 69.8381852,140.7692 76.1481852,140.5652 C79.8541852,140.4462 75.4351852,154.2022 81.6431852,153.8972 C90.1191852,153.4802 83.9131852,141.0322 87.7491852,140.9722 C94.2631852,140.8712 85.8161852,159.9012 95.6871852,160.0032 C105.783185,160.1072 98.8421852,139.6492 105.646185,139.2892 C114.325185,138.8302 109.977185,153.0592 115.905185,152.7472 C121.833185,152.4352 117.640185,140.3362 124.807185,142.3462 C130.315185,143.8912 125.294185,155.1472 130.271185,154.4882 C134.081185,153.9842 133.978185,144.7172 134.010185,141.3282 C134.038185,138.3022 133.956185,132.0682 132.260185,130.2612 C129.733185,127.5702 22.1381852,130.2612 22.1381852,130.2612" id="Fill-441" fill="#D2005E"></path>
                <g id="Group-463" transform="translate(20.000285, 132.626000)">
                    <g id="Group-444" transform="translate(7.000000, 4.000000)">
                        <mask id="mask-5" fill="white">
                            <use xlink:href="#path-4"></use>
                        </mask>
                        <g id="Clip-443"></g>
                        <path d="M15.753,0.25 C10.374,0.132 17.157,23.181 6.393,21.777 C1.574,21.149 0.386,16.141 0.259,10.803 C0.126,16.887 0.916,23.257 6.393,23.972 C17.157,25.376 10.374,2.326 15.753,2.444 C19.383,2.524 19.723,6.115 19.746,9.941 C19.735,5.418 20.077,0.345 15.753,0.25" id="Fill-442" fill="url(#linearGradient-6)" mask="url(#mask-5)"></path>
                    </g>
                    <g id="Group-447" transform="translate(0.000000, 1.000000)">
                        <mask id="mask-8" fill="white">
                            <use xlink:href="#path-7"></use>
                        </mask>
                        <g id="Clip-446"></g>
                        <path d="M7.657,4.024 C7.755,1.693 7.649,0.13 6.842,0.13 C3.722,0.13 4.97,12.142 2.138,8.866 C1.352,7.957 1.004,6.441 0.908,4.727 C0.79,7.283 1.028,9.776 2.138,11.06 C4.97,14.336 3.722,2.324 6.842,2.324 C7.356,2.324 7.583,2.964 7.657,4.024" id="Fill-445" fill="url(#linearGradient-9)" mask="url(#mask-8)"></path>
                    </g>
                    <g id="Group-450" transform="translate(26.000000, 13.000000)">
                        <mask id="mask-11" fill="white">
                            <use xlink:href="#path-10"></use>
                        </mask>
                        <g id="Clip-449"></g>
                        <path d="M4.196,7.909 C1.103,7.953 0.773,4.85 0.747,1.311 C0.752,5.65 0.472,10.156 4.196,10.103 C8.248,10.045 9.712,5.754 9.446,0.774 C9.211,4.757 7.637,7.86 4.196,7.909" id="Fill-448" fill="url(#linearGradient-12)" mask="url(#mask-11)"></path>
                    </g>
                    <g id="Group-453" transform="translate(66.000000, 6.000000)">
                        <mask id="mask-14" fill="white">
                            <use xlink:href="#path-13"></use>
                        </mask>
                        <g id="Clip-452"></g>
                        <path d="M1.749,0.152 C0.28,0.175 0.284,2.017 0.372,4.303 C0.465,3.138 0.798,2.361 1.749,2.346 C3.922,2.312 4.428,4.413 4.506,7.225 C4.579,3.383 4.46,0.11 1.749,0.152" id="Fill-451" fill="url(#linearGradient-15)" mask="url(#mask-14)"></path>
                    </g>
                    <g id="Group-456" transform="translate(70.000000, 4.000000)">
                        <mask id="mask-17" fill="white">
                            <use xlink:href="#path-16"></use>
                        </mask>
                        <g id="Clip-455"></g>
                        <path d="M40.271,15.668 C35.294,16.327 40.315,5.07 34.807,3.526 C27.64,1.516 31.833,13.615 25.905,13.927 C19.977,14.239 24.325,0.01 15.646,0.469 C8.842,0.829 15.783,21.287 5.687,21.183 C1.391,21.139 0.565,17.509 0.465,13.432 C0.381,18.303 0.629,23.325 5.687,23.377 C15.783,23.481 8.842,3.023 15.646,2.663 C24.325,2.204 19.977,16.433 25.905,16.121 C31.833,15.809 27.64,3.71 34.807,5.72 C40.315,7.265 35.294,18.521 40.271,17.862 C44.081,17.359 43.978,8.091 44.01,4.702 C44.015,4.191 44.016,3.583 44.007,2.925 C43.98,6.588 43.939,15.183 40.271,15.668" id="Fill-454" fill="url(#linearGradient-18)" mask="url(#mask-17)"></path>
                    </g>
                    <g id="Group-459" transform="translate(34.000000, 0.000000)">
                        <mask id="mask-20" fill="white">
                            <use xlink:href="#path-19"></use>
                        </mask>
                        <g id="Clip-458"></g>
                        <path d="M9.657,7.214 C10.111,-2.178 -0.291,-0.946 0.795,6.96 C1.65,1.471 9.05,1.013 9.629,7.942 C9.639,7.698 9.645,7.46 9.657,7.214" id="Fill-457" fill="url(#linearGradient-21)" mask="url(#mask-20)"></path>
                    </g>
                    <g id="Group-462" transform="translate(43.000000, 5.000000)">
                        <mask id="mask-23" fill="white">
                            <use xlink:href="#path-22"></use>
                        </mask>
                        <g id="Clip-461"></g>
                        <path d="M18.643,14.077 C12.435,14.382 16.853,0.626 13.147,0.745 C6.838,0.949 12.944,18.351 6.428,18.905 C2.278,19.258 0.716,14.132 0.581,6.813 C0.435,15.28 1.875,21.487 6.428,21.1 C12.944,20.546 6.838,3.143 13.147,2.939 C16.853,2.82 12.435,16.577 18.643,16.271 C23.384,16.038 23.531,12.041 23.412,8.553 C23.272,11.341 22.402,13.892 18.643,14.077" id="Fill-460" fill="url(#linearGradient-24)" mask="url(#mask-23)"></path>
                    </g>
                </g>
                <path d="M132.259685,130.2612 C132.259685,132.6862 107.607685,134.6522 77.1986852,134.6522 C46.7896852,134.6522 22.1376852,132.6862 22.1376852,130.2612 C22.1376852,127.8362 46.7896852,125.8702 77.1986852,125.8702 C107.607685,125.8702 132.259685,127.8362 132.259685,130.2612" id="Fill-464" fill="#D2005E"></path>
                <path d="M32.8471852,93.4893 L32.8471852,128.5153 C32.8471852,130.4773 52.7931852,132.0683 77.3971852,132.0683 C102.002185,132.0683 121.948185,130.4773 121.948185,128.5153 L121.948185,93.4893 L32.8471852,93.4893 Z" id="Fill-465" fill="#F79E3C"></path>
                <path d="M32.8471852,86.5307 L32.8471852,121.5567 C32.8471852,123.5197 52.7931852,125.1097 77.3971852,125.1097 C102.002185,125.1097 121.948185,123.5197 121.948185,121.5567 L121.948185,86.5307 L32.8471852,86.5307 Z" id="Fill-466" fill="#F79E3C"></path>
                <g id="Group-469" transform="translate(32.000285, 87.626000)">
                    <mask id="mask-26" fill="white">
                        <use xlink:href="#path-25"></use>
                    </mask>
                    <g id="Clip-468"></g>
                    <path d="M4.653,5.972 C7.177,5.972 1.245,24.778 9.954,25.914 C18.663,27.05 13.175,8.4 17.527,8.496 C23.879,8.635 17.785,22.057 23.549,21.975 C27.667,21.916 28.49,16.458 27.372,11.273 C25.881,4.358 34.819,3.069 34.44,10.894 C34.062,18.72 35.084,24.742 39.11,24.399 C44.382,23.951 39.441,9.87 44.547,9.706 C47.545,9.609 43.97,20.74 48.993,20.493 C55.851,20.155 50.83,10.084 53.934,10.035 C59.204,9.953 52.369,25.351 60.357,25.433 C68.525,25.518 62.909,8.965 68.414,8.673 C75.437,8.301 71.919,19.815 76.715,19.562 C81.511,19.31 77.395,8.735 83.918,11.147 C88.93,12.999 84.17,25.535 88.966,25.157 C89.331,25.128 89.65,25.036 89.948,24.918 L89.948,1.368 C87.225,0.143 0.847,1.368 0.847,1.368 L0.847,13.04 C3.138,15.69 2.128,5.972 4.653,5.972" id="Fill-467" fill="url(#linearGradient-27)" mask="url(#mask-26)"></path>
                </g>
                <path d="M32.8471852,86.5307 C32.8471852,86.5307 30.5561852,95.5517 32.8471852,98.2017 C35.1381852,100.8527 34.1291852,91.1337 36.6531852,91.1337 C39.1771852,91.1337 33.2451852,109.9407 41.9541852,111.0767 C50.6631852,112.2127 45.1751852,93.5627 49.5271852,93.6587 C55.8791852,93.7977 49.7851852,107.2197 55.5491852,107.1367 C59.6671852,107.0787 60.4901852,101.6197 59.3721852,96.4347 C57.8811852,89.5197 66.8191852,88.2307 66.4401852,96.0567 C66.0621852,103.8817 67.0841852,109.9037 71.1101852,109.5617 C76.3821852,109.1137 71.4421852,95.0327 76.5471852,94.8677 C79.5461852,94.7717 75.9711852,105.9017 80.9931852,105.6547 C87.8511852,105.3177 82.8301852,95.2457 85.9341852,95.1977 C91.2041852,95.1147 84.3691852,110.5137 92.3571852,110.5957 C100.525185,110.6797 94.9091852,94.1267 100.414185,93.8357 C107.437185,93.4637 103.919185,104.9767 108.715185,104.7247 C113.512185,104.4717 109.395185,93.8977 115.918185,96.3087 C120.930185,98.1617 116.170185,110.6977 120.967185,110.3187 C125.763185,109.9407 124.501185,101.1047 124.501185,101.1047 C124.501185,101.1047 124.671185,87.7567 121.948185,86.5307 C119.225185,85.3047 32.8471852,86.5307 32.8471852,86.5307" id="Fill-470" fill="#D2005E"></path>
                <g id="Group-489" transform="translate(31.000285, 88.626000)">
                    <g id="Group-473" transform="translate(21.000000, 10.000000)">
                        <mask id="mask-29" fill="white">
                            <use xlink:href="#path-28"></use>
                        </mask>
                        <g id="Clip-472"></g>
                        <path d="M3.549,6.548 C1.038,6.584 0.778,4.056 0.758,1.18 C0.774,4.756 0.474,8.555 3.549,8.511 C6.862,8.464 8.039,4.921 7.792,0.838 C7.589,4.03 6.315,6.508 3.549,6.548" id="Fill-471" fill="url(#linearGradient-30)" mask="url(#mask-29)"></path>
                    </g>
                    <g id="Group-476" transform="translate(5.000000, 3.000000)">
                        <mask id="mask-32" fill="white">
                            <use xlink:href="#path-31"></use>
                        </mask>
                        <g id="Clip-475"></g>
                        <path d="M13.527,0.069 C9.175,-0.026 14.663,18.623 5.954,17.487 C2.087,16.983 1.108,12.993 0.993,8.714 C0.877,13.662 1.497,18.869 5.954,19.45 C14.663,20.586 9.175,1.937 13.527,2.032 C16.474,2.097 16.742,5.022 16.758,8.13 C16.736,4.417 17.095,0.147 13.527,0.069" id="Fill-474" fill="url(#linearGradient-33)" mask="url(#mask-32)"></path>
                    </g>
                    <g id="Group-479">
                        <mask id="mask-35" fill="white">
                            <use xlink:href="#path-34"></use>
                        </mask>
                        <g id="Clip-478"></g>
                        <path d="M6.308,3.8 C6.394,1.856 6.318,0.545 5.653,0.545 C3.128,0.545 4.138,10.263 1.847,7.613 C1.223,6.891 0.94,5.695 0.857,4.338 C0.749,6.447 0.933,8.518 1.847,9.576 C4.138,12.227 3.128,2.508 5.653,2.508 C6.056,2.508 6.242,2.99 6.308,3.8" id="Fill-477" fill="url(#linearGradient-36)" mask="url(#mask-35)"></path>
                    </g>
                    <g id="Group-482" transform="translate(57.000000, 3.000000)">
                        <mask id="mask-38" fill="white">
                            <use xlink:href="#path-37"></use>
                        </mask>
                        <g id="Clip-481"></g>
                        <path d="M32.966,16.73 C28.17,17.108 32.93,4.573 27.918,2.72 C21.395,0.308 25.511,10.883 20.715,11.135 C15.919,11.388 19.437,-0.125 12.414,0.246 C6.909,0.538 12.525,17.091 4.357,17.006 C0.902,16.971 0.221,14.069 0.134,10.795 C0.06,14.776 0.22,18.927 4.357,18.97 C12.525,19.054 6.909,2.501 12.414,2.21 C19.437,1.838 15.919,13.351 20.715,13.098 C25.511,12.846 21.395,2.271 27.918,4.683 C32.93,6.536 28.17,19.072 32.966,18.693 C36.556,18.41 36.752,13.39 36.623,10.882 C36.494,13.423 35.76,16.509 32.966,16.73" id="Fill-480" fill="url(#linearGradient-39)" mask="url(#mask-38)"></path>
                    </g>
                    <g id="Group-485" transform="translate(53.000000, 4.000000)">
                        <mask id="mask-41" fill="white">
                            <use xlink:href="#path-40"></use>
                        </mask>
                        <g id="Clip-484"></g>
                        <path d="M1.934,0.608 C0.716,0.627 0.749,2.192 0.825,4.105 C0.906,3.191 1.179,2.583 1.934,2.571 C3.674,2.544 4.092,4.209 4.162,6.449 C4.225,3.29 4.155,0.573 1.934,0.608" id="Fill-483" fill="url(#linearGradient-42)" mask="url(#mask-41)"></path>
                    </g>
                    <g id="Group-488" transform="translate(35.000000, 4.000000)">
                        <mask id="mask-44" fill="white">
                            <use xlink:href="#path-43"></use>
                        </mask>
                        <g id="Clip-487"></g>
                        <path d="M14.993,11.066 C9.97,11.313 13.545,0.182 10.547,0.279 C5.441,0.443 10.382,14.524 5.11,14.973 C1.77,15.257 0.501,11.154 0.381,5.282 C0.25,12.181 1.409,17.25 5.11,16.936 C10.382,16.487 5.441,2.407 10.547,2.242 C13.545,2.145 9.97,13.276 14.993,13.029 C18.875,12.838 18.951,9.529 18.848,6.683 C18.721,8.905 17.996,10.918 14.993,11.066" id="Fill-486" fill="url(#linearGradient-45)" mask="url(#mask-44)"></path>
                    </g>
                </g>
                <path d="M121.948085,86.5307 C121.948085,88.4927 102.002085,90.0837 77.3980852,90.0837 C52.7930852,90.0837 32.8470852,88.4927 32.8470852,86.5307 C32.8470852,84.5687 52.7930852,82.9777 77.3980852,82.9777 C102.002085,82.9777 121.948085,84.5687 121.948085,86.5307" id="Fill-490" fill="#D2005E"></path>
                <path d="M64.8895852,120.8222 C64.8895852,122.4892 63.3125852,123.8412 61.3675852,123.8412 C59.4225852,123.8412 57.8455852,122.4892 57.8455852,120.8222 C57.8455852,119.1552 59.4225852,117.8032 61.3675852,117.8032 C63.3125852,117.8032 64.8895852,119.1552 64.8895852,120.8222" id="Fill-491" fill="#FFFBFD"></path>
                <path d="M57.8817852,170.8037 C57.8817852,171.8237 56.9177852,172.6497 55.7277852,172.6497 C54.5387852,172.6497 53.5747852,171.8237 53.5747852,170.8037 C53.5747852,169.7837 54.5387852,168.9577 55.7277852,168.9577 C56.9177852,168.9577 57.8817852,169.7837 57.8817852,170.8037" id="Fill-492" fill="#FFFBFD"></path>
                <path d="M85.9574852,163.5675 C85.9574852,164.5875 84.9934852,165.4135 83.8034852,165.4135 C82.6144852,165.4135 81.6494852,164.5875 81.6494852,163.5675 C81.6494852,162.5475 82.6144852,161.7215 83.8034852,161.7215 C84.9934852,161.7215 85.9574852,162.5475 85.9574852,163.5675" id="Fill-493" fill="#FFFBFD"></path>
                <path d="M102.802785,170.1884 C102.802785,171.2084 101.838785,172.0344 100.648785,172.0344 C99.4597852,172.0344 98.4957852,171.2084 98.4957852,170.1884 C98.4957852,169.1684 99.4597852,168.3424 100.648785,168.3424 C101.838785,168.3424 102.802785,169.1684 102.802785,170.1884" id="Fill-494" fill="#FFFBFD"></path>
                <path d="M119.095985,170.1884 C119.095985,171.2084 118.131985,172.0344 116.941985,172.0344 C115.752985,172.0344 114.788985,171.2084 114.788985,170.1884 C114.788985,169.1684 115.752985,168.3424 116.941985,168.3424 C118.131985,168.3424 119.095985,169.1684 119.095985,170.1884" id="Fill-495" fill="#FFFBFD"></path>
                <path d="M85.9839852,120.8222 C85.9839852,122.4892 84.4069852,123.8412 82.4619852,123.8412 C80.5169852,123.8412 78.9399852,122.4892 78.9399852,120.8222 C78.9399852,119.1552 80.5169852,117.8032 82.4619852,117.8032 C84.4069852,117.8032 85.9839852,119.1552 85.9839852,120.8222" id="Fill-496" fill="#FFC92C"></path>
                <path d="M71.4196852,171.4191 C71.4196852,172.4391 70.4556852,173.2651 69.2656852,173.2651 C68.0766852,173.2651 67.1126852,172.4391 67.1126852,171.4191 C67.1126852,170.3991 68.0766852,169.5731 69.2656852,169.5731 C70.4556852,169.5731 71.4196852,170.3991 71.4196852,171.4191" id="Fill-497" fill="#FD7474"></path>
                <path d="M30.0972852,166.3185 C30.0972852,167.3385 29.1332852,168.1645 27.9432852,168.1645 C26.7542852,168.1645 25.7902852,167.3385 25.7902852,166.3185 C25.7902852,165.2985 26.7542852,164.4725 27.9432852,164.4725 C29.1332852,164.4725 30.0972852,165.2985 30.0972852,166.3185" id="Fill-498" fill="#FD7474"></path>
                <path d="M108.230185,164.4725 C108.230185,165.4925 107.266185,166.3185 106.076185,166.3185 C104.887185,166.3185 103.922185,165.4925 103.922185,164.4725 C103.922185,163.4525 104.887185,162.6265 106.076185,162.6265 C107.266185,162.6265 108.230185,163.4525 108.230185,164.4725" id="Fill-499" fill="#FD7474"></path>
                <path d="M124.029985,160.6592 C124.029985,161.6792 123.065985,162.5052 121.875985,162.5052 C120.686985,162.5052 119.721985,161.6792 119.721985,160.6592 C119.721985,159.6392 120.686985,158.8132 121.875985,158.8132 C123.065985,158.8132 124.029985,159.6392 124.029985,160.6592" id="Fill-500" fill="#FD7474"></path>
                <path d="M67.0906852,112.779 C67.0906852,113.821 66.1046852,114.666 64.8896852,114.666 C63.6736852,114.666 62.6886852,113.821 62.6886852,112.779 C62.6886852,111.737 63.6736852,110.892 64.8896852,110.892 C66.1046852,110.892 67.0906852,111.737 67.0906852,112.779" id="Fill-501" fill="#FFC92C"></path>
                <path d="M99.7137852,117.4441 C99.7137852,118.4711 98.7427852,119.3041 97.5437852,119.3041 C96.3457852,119.3041 95.3747852,118.4711 95.3747852,117.4441 C95.3747852,116.4171 96.3457852,115.5841 97.5437852,115.5841 C98.7427852,115.5841 99.7137852,116.4171 99.7137852,117.4441" id="Fill-502" fill="#DB79CF"></path>
                <path d="M53.9287852,117.8035 C53.9287852,118.8305 52.9577852,119.6635 51.7587852,119.6635 C50.5607852,119.6635 49.5897852,118.8305 49.5897852,117.8035 C49.5897852,116.7765 50.5607852,115.9435 51.7587852,115.9435 C52.9577852,115.9435 53.9287852,116.7765 53.9287852,117.8035" id="Fill-503" fill="#DB79CF"></path>
                <path d="M108.828285,119.3039 C108.828285,120.3309 107.857285,121.1639 106.658285,121.1639 C105.460285,121.1639 104.489285,120.3309 104.489285,119.3039 C104.489285,118.2769 105.460285,117.4439 106.658285,117.4439 C107.857285,117.4439 108.828285,118.2769 108.828285,119.3039" id="Fill-504" fill="#DB79CF"></path>
                <path d="M39.5066852,117.4441 C39.5066852,118.4711 38.5356852,119.3041 37.3366852,119.3041 C36.1386852,119.3041 35.1676852,118.4711 35.1676852,117.4441 C35.1676852,116.4171 36.1386852,115.5841 37.3366852,115.5841 C38.5356852,115.5841 39.5066852,116.4171 39.5066852,117.4441" id="Fill-505" fill="#00CDC1"></path>
                <path d="M104.918785,102.1619 C104.918785,103.7699 103.398785,105.0729 101.522785,105.0729 C99.6467852,105.0729 98.1267852,103.7699 98.1267852,102.1619 C98.1267852,100.5539 99.6467852,99.2509 101.522785,99.2509 C103.398785,99.2509 104.918785,100.5539 104.918785,102.1619" id="Fill-506" fill="#00CDC1"></path>
                <path d="M45.4977852,168.6499 C45.4977852,169.6329 44.5677852,170.4299 43.4207852,170.4299 C42.2737852,170.4299 41.3437852,169.6329 41.3437852,168.6499 C41.3437852,167.6669 42.2737852,166.8699 43.4207852,166.8699 C44.5677852,166.8699 45.4977852,167.6669 45.4977852,168.6499" id="Fill-507" fill="#00CDC1"></path>
                <path d="M87.9572852,174.1882 C87.9572852,175.1712 87.0272852,175.9682 85.8802852,175.9682 C84.7332852,175.9682 83.8032852,175.1712 83.8032852,174.1882 C83.8032852,173.2052 84.7332852,172.4082 85.8802852,172.4082 C87.0272852,172.4082 87.9572852,173.2052 87.9572852,174.1882" id="Fill-508" fill="#00CDC1"></path>
                <path d="M59.9585852,162.7018 C59.9585852,163.6848 59.0285852,164.4818 57.8815852,164.4818 C56.7345852,164.4818 55.8045852,163.6848 55.8045852,162.7018 C55.8045852,161.7188 56.7345852,160.9218 57.8815852,160.9218 C59.0285852,160.9218 59.9585852,161.7188 59.9585852,162.7018" id="Fill-509" fill="#00CDC1"></path>
                <path d="M119.143385,113.7517 C119.143385,114.7937 118.158385,115.6387 116.942385,115.6387 C115.726385,115.6387 114.741385,114.7937 114.741385,113.7517 C114.741385,112.7097 115.726385,111.8647 116.942385,111.8647 C118.158385,111.8647 119.143385,112.7097 119.143385,113.7517" id="Fill-510" fill="#FFC92C"></path>
                <path d="M50.3889852,41.1204 C50.3889852,41.1204 48.4579852,41.4234 47.6999852,39.0614 C46.9409852,36.6994 50.1129852,34.1564 50.2509852,31.1894 C50.2509852,31.1894 51.3539852,33.4904 52.5959852,35.4284 C53.8369852,37.3664 54.4579852,40.6964 50.3889852,41.1204" id="Fill-511" fill="#FBF5D4"></path>
                <path d="M50.5269852,35.4282 C50.5269852,35.4282 48.1819852,39.2432 50.6649852,40.9382 C50.6649852,40.9382 53.2159852,39.0612 50.5269852,35.4282" id="Fill-512" fill="#EFBA78"></path>
                <path d="M50.3889852,37.6082 C50.3889852,37.6082 51.2169852,40.5152 50.2509852,44.8752" id="Stroke-513" stroke="#464646" stroke-width="0.459" stroke-linecap="round"></path>
                <path d="M48.2062852,85.7247 L48.4672852,44.8937 C48.4672852,44.8937 48.3362852,43.1777 50.2902852,43.0637 C52.2442852,42.9487 52.1142852,45.0077 52.1142852,45.0077 L54.4582852,85.6107 L48.2062852,85.7247 Z" id="Fill-514" fill="#6689E3"></path>
                <polygon id="Fill-515" fill="#6689E3" points="22.1393852 26.9979 17.2373852 39.6109 27.1333852 32.6609 35.8153852 42.7089 33.5213852 28.7319 49.8063852 25.8379 34.3043852 20.4459 36.4843852 4.3659 26.1773852 18.6689 11.4053852 14.4059"></polygon>
                <polygon id="Fill-516" fill="#FD7474" points="89.7010852 -8.52651283e-14 88.2970852 14.874 69.8250852 16.108 84.5440852 23.878 80.4790852 40.892 95.3340852 26.493 111.346085 35.443 102.857085 20.584 110.408085 10.011 97.1880852 12.633"></polygon>
                <path d="M71.7093852,40.7079 C71.7093852,40.7079 69.7783852,41.0109 69.0203852,38.6489 C68.2613852,36.2879 71.4333852,33.7439 71.5713852,30.7769 C71.5713852,30.7769 72.6743852,33.0779 73.9163852,35.0159 C75.1573852,36.9539 75.7783852,40.2839 71.7093852,40.7079" id="Fill-517" fill="#FBF5D4"></path>
                <path d="M71.8473852,35.0158 C71.8473852,35.0158 69.5023852,38.8308 71.9853852,40.5268 C71.9853852,40.5268 74.5363852,38.6488 71.8473852,35.0158" id="Fill-518" fill="#EFBA78"></path>
                <path d="M71.7093852,37.1958 C71.7093852,37.1958 72.5373852,40.1028 71.5713852,44.4628" id="Stroke-519" stroke="#464646" stroke-width="0.459" stroke-linecap="round"></path>
                <path d="M69.5265852,85.3124 L69.7875852,44.4814 C69.7875852,44.4814 69.6565852,42.7654 71.6105852,42.6514 C73.5645852,42.5364 73.4345852,44.5954 73.4345852,44.5954 L75.7785852,85.1984 L69.5265852,85.3124 Z" id="Fill-520" fill="#FD7474"></path>
                <polygon id="Fill-521" fill="#D2005E" points="16.6592852 183.779 137.865285 183.779 137.865285 174.411 16.6592852 174.411"></polygon>
            </g>
        </g>
    </g>
</svg>