<?xml version="1.0" encoding="UTF-8"?>
<svg width="148px" height="115px" viewBox="0 0 148 115" version="1.1" xmlns="http://www.w3.org/2000/svg" xmlns:xlink="http://www.w3.org/1999/xlink">
    <!-- Generator: Sketch 53.1 (72631) - https://sketchapp.com -->
    <title>Group 32Milkshake</title>
    <desc>Created with Sketch.</desc>
    <g id="Page-1" stroke="none" stroke-width="1" fill="none" fill-rule="evenodd">
        <g id="Desktop-HD" transform="translate(-574.000000, -1547.000000)">
            <g id="Group-32" transform="translate(574.453282, 1547.837257)">
                <path d="M30.1702179,37.8042428 C30.3022179,44.8772428 24.6772179,50.7182428 17.6022179,50.8502428 C10.5242179,50.9812428 4.68521788,45.3542428 4.55221788,38.2792428 C4.42121788,31.2052428 10.0512179,25.3642428 17.1252179,25.2312428 C24.1992179,25.1012428 30.0392179,30.7292428 30.1702179,37.8042428" id="Fill-290" fill="#BCEDED"></path>
                <path d="M54.9529179,30.4952428 C55.1329179,40.0262428 47.5479179,47.8992428 38.0199179,48.0752428 C28.4869179,48.2512428 20.6189179,40.6692428 20.4379179,31.1382428 C20.2579179,21.6052428 27.8429179,13.7342428 37.3749179,13.5592428 C46.9029179,13.3822428 54.7779179,20.9622428 54.9529179,30.4952428" id="Fill-291" fill="#BCEDED"></path>
                <path d="M66.6869179,35.5026428 C66.8079179,41.9286428 61.6949179,47.2366428 55.2659179,47.3556428 C48.8449179,47.4746428 43.5369179,42.3636428 43.4199179,35.9356428 C43.2979179,29.5096428 48.4059179,24.2016428 54.8319179,24.0836428 C61.2619179,23.9636428 66.5699179,29.0756428 66.6859179,35.5026428 L66.6869179,35.5026428 Z" id="Fill-292" fill="#BCEDED"></path>
                <polygon id="Fill-293" fill="#D2005E" points="58.4709179 113.146543 14.0029179 113.975543 2.68991788 41.9485428 65.9839179 40.7715428"></polygon>
                <polygon id="Fill-294" fill="#E51473" points="13.9564179 113.680743 2.68941788 41.9487428 50.0924179 41.0667428 42.6104179 113.146743"></polygon>
                <path d="M70.2227179,45.9683428 C70.2767179,49.0233428 67.5827179,51.5583428 64.1877179,51.6203428 L6.34371788,52.6963428 C2.95771788,52.7613428 0.161717876,50.3313428 0.109717876,47.2753428 L0.00171787624,41.6143428 C-0.0562821238,38.5563428 2.64071788,36.0243428 6.03071788,35.9593428 L63.8807179,34.8823428 C67.2667179,34.8213428 70.0567179,37.2483428 70.1147179,40.3073428 L70.2227179,45.9683428 Z" id="Fill-295" fill="#0ACC90"></path>
                <path d="M4.36491788,52.4406428 C1.93191788,51.7446428 0.150917876,49.7086428 0.108917876,47.2756428 L0.000917876239,41.6146428 C-0.0570821238,38.5566428 2.64091788,36.0236428 6.03091788,35.9586428 L50.1409179,35.1376428 C52.5749179,35.8336428 54.3559179,37.8696428 54.4019179,40.3066428 L54.5099179,45.9686428 C54.5639179,49.0236428 51.8699179,51.5576428 48.4749179,51.6206428 L4.36491788,52.4406428 Z" id="Fill-296" fill="#00EBAA"></path>
                <path d="M47.6553179,18.0825428 C46.2543179,22.5585428 35.8443179,17.3785428 32.4443179,16.3175428 C29.0493179,15.2545428 35.1553179,14.8685428 36.5563179,10.3955428 C37.9563179,5.92154279 34.1213179,-0.950457208 37.5173179,0.109542792 C40.9123179,1.17454279 50.2363179,9.82354279 47.6543179,18.0825428 L47.6553179,18.0825428 Z" id="Fill-297" fill="#BCEDED"></path>
                <path d="M137.477518,80.4756428 C137.726518,80.6096428 137.860518,80.7886428 137.835518,81.0226428 C137.671518,82.5206428 136.273518,88.7736428 134.547518,89.9276428 C134.397518,90.0276428 133.960518,90.1166428 133.283518,90.2016428 C126.000518,91.1116428 90.7575179,91.1666428 83.6035179,89.9426428 C82.9715179,89.8326428 82.5595179,89.7186428 82.4045179,89.5896428 C80.7835179,88.2616428 80.5545179,82.2866428 80.5545179,82.2866428 L80.5495179,82.2116428 C81.3205179,82.1666428 82.1265179,81.8886428 82.8425179,81.3416428 C82.8425179,81.3416428 95.4145179,82.5896428 103.358518,81.8786428 C111.303518,81.1716428 118.379518,80.6846428 118.379518,80.6846428 C118.379518,80.6846428 118.388518,82.4656428 120.473518,82.5746428 C122.557518,82.6846428 123.468518,80.1376428 124.423518,80.2966428 C126.701518,80.6746428 126.791518,83.5346428 129.552518,82.9526428 C131.313518,82.5796428 131.537518,80.2516428 131.537518,80.2516428 C131.537518,80.2516428 136.134518,79.7346428 137.477518,80.4756428" id="Fill-298" fill="#9ED8E5"></path>
                <path d="M133.283918,90.2013428 L133.317918,90.4553428 C133.317918,90.4553428 129.681918,109.225343 127.308918,111.598343 C124.502918,114.403343 91.4149179,113.961343 89.2009179,111.304343 C86.6489179,108.240343 83.5889179,90.0323428 83.5889179,90.0323428 L83.6039179,89.9423428 C90.7579179,91.1663428 125.999918,91.1113428 133.283918,90.2013428" id="Fill-299" fill="#BCEDED"></path>
                <path d="M119.028318,82.7269428 C121.018318,84.2189428 123.008318,83.7219428 124.500318,81.7319428 C125.495318,81.2349428 126.490318,82.2299428 126.988318,82.7269428 C129.702318,84.2779428 131.508318,82.5049428 131.703318,80.2339428 C131.601318,80.2449428 131.537318,80.2519428 131.537318,80.2519428 C131.537318,80.2519428 131.314318,82.5799428 129.552318,82.9529428 C126.791318,83.5349428 126.702318,80.6749428 124.423318,80.2959428 C123.468318,80.1369428 122.557318,82.6849428 120.473318,82.5749428 C119.715318,82.5349428 119.233318,82.2729428 118.925318,81.9569428 C118.869318,82.2509428 118.829318,82.5289428 119.028318,82.7269428" id="Fill-300" fill="#650E81"></path>
                <path d="M87.0513179,89.4026428 C85.7083179,87.6946428 84.3503179,85.6146428 83.7063179,83.4586428 C84.2933179,85.7406428 85.3453179,87.9126428 87.0513179,89.4026428" id="Fill-301" fill="#650E81"></path>
                <path d="M83.3269179,81.3868428 C83.3149179,81.3858428 83.3059179,81.3848428 83.2949179,81.3838428 C83.3179179,81.5468428 83.3439179,81.7098428 83.3719179,81.8728428 C83.3529179,81.7108428 83.3359179,81.5488428 83.3269179,81.3868428" id="Fill-302" fill="#650E81"></path>
                <path d="M83.3717179,81.8726428 C83.4327179,82.4026428 83.5487179,82.9326428 83.7057179,83.4586428 C83.5707179,82.9326428 83.4607179,82.4026428 83.3717179,81.8726428" id="Fill-303" fill="#650E81"></path>
                <path d="M87.9104179,90.3696428 C88.1054179,90.3826428 88.3054179,90.3946428 88.5094179,90.4066428 C88.2904179,90.2906428 88.0784179,90.1646428 87.8754179,90.0296428 C87.8874179,90.1436428 87.8984179,90.2566428 87.9104179,90.3696428" id="Fill-304" fill="#650E81"></path>
                <path d="M87.0513179,89.4026428 C87.2643179,89.6736428 87.4773179,89.9376428 87.6873179,90.1896428 C87.4773179,89.9376428 87.2643179,89.6736428 87.0513179,89.4026428 C85.3453179,87.9126428 84.2933179,85.7406428 83.7063179,83.4586428 C83.5483179,82.9326428 83.4333179,82.4026428 83.3713179,81.8726428 C83.3443179,81.7096428 83.3183179,81.5466428 83.2943179,81.3836428 C83.0073179,81.3576428 82.8423179,81.3416428 82.8423179,81.3416428 C82.1263179,81.8886428 81.3203179,82.1666428 80.5493179,82.2116428 L80.5543179,82.2866428 C80.5543179,82.2866428 80.7833179,88.2616428 82.4053179,89.5896428 C82.5593179,89.7186428 82.9723179,89.8326428 83.6043179,89.9426428 C84.5713179,90.1076428 86.0553179,90.2496428 87.9103179,90.3696428 C87.8983179,90.2566428 87.8873179,90.1436428 87.8753179,90.0296428 C87.5853179,89.8376428 87.3103179,89.6286428 87.0513179,89.4026428" id="Fill-305" fill="#650E81"></path>
                <path d="M133.283918,90.2013428 C126.984918,90.9883428 99.7789179,91.1353428 87.9109179,90.3693428 C86.0549179,90.2503428 84.5709179,90.1083428 83.6039179,89.9423428 L83.5889179,90.0323428 C83.5889179,90.0323428 83.6319179,90.2873428 83.7089179,90.7273428 C84.2949179,94.0713428 86.9449179,108.596343 89.2009179,111.304343 C89.6399179,111.832343 91.2989179,112.271343 93.6939179,112.616343 C90.3869179,106.033343 88.8619179,98.6073428 87.9929179,91.0873428 C102.918918,92.3843428 118.573918,93.9993428 133.306918,90.5113428 C133.314918,90.4743428 133.317918,90.4553428 133.317918,90.4553428 L133.283918,90.2013428 Z" id="Fill-306" fill="#650E81"></path>
                <path d="M147.272618,41.2838428 C147.282618,41.5028428 147.103618,42.1838428 146.790618,43.2238428 L146.735618,43.2088428 C145.257618,43.3578428 139.646618,43.3578428 139.646618,43.3578428 L139.512618,43.3038428 C140.760618,40.2288428 141.695618,38.1698428 141.979618,38.0848428 C143.148618,37.7418428 147.207618,39.5128428 147.272618,41.2838428" id="Fill-307" fill="#F79E3C"></path>
                <path d="M145.477018,46.6815428 L145.651018,46.7415428 C145.253018,47.9255428 144.795018,49.2535428 144.303018,50.6665428 L144.298018,50.6665428 C142.532018,51.0245428 137.254018,50.2935428 136.796018,50.2285428 C137.229018,49.0845428 137.662018,47.9695428 138.075018,46.9105428 L138.244018,46.9745428 C138.244018,46.9745428 143.487018,47.1985428 145.477018,46.6815428" id="Fill-308" fill="#F79E3C"></path>
                <path d="M142.969718,54.2135428 L143.043718,54.2435428 C142.576718,55.5765428 142.088718,56.9445428 141.596718,58.3125428 L141.492718,58.2725428 C139.496718,58.8645428 133.885718,58.2725428 133.885718,58.2725428 L133.781718,58.2325428 C134.263718,56.9245428 134.765718,55.5865428 135.263718,54.2535428 L135.362718,54.2885428 C135.362718,54.2885428 140.675718,54.8055428 142.969718,54.2135428" id="Fill-309" fill="#F79E3C"></path>
                <path d="M140.457518,61.3772428 L140.487518,61.3872428 C140.064518,62.5762428 139.636518,63.7502428 139.223518,64.8842428 L139.129518,64.8492428 C136.910518,65.8792428 131.074518,65.6602428 131.074518,65.6602428 L131.045518,65.6502428 C131.477518,64.4662428 131.950518,63.1732428 132.453518,61.8102428 L132.482518,61.8202428 C132.482518,61.8202428 137.726518,62.4122428 140.457518,61.3772428" id="Fill-310" fill="#F79E3C"></path>
                <path d="M128.711718,72.0830428 C128.711718,72.0830428 129.119718,70.9490428 129.791718,69.0980428 L129.895718,69.1330428 C129.895718,69.1330428 134.109718,70.0780428 137.855718,68.6500428 C136.377718,72.7000428 135.288718,75.6550428 135.158718,76.0030428 C133.631718,75.7400428 132.084718,76.1470428 132.084718,76.1470428 C132.084718,76.1470428 132.676718,73.3910428 130.512718,72.4060428 C129.935718,72.1480428 129.333718,72.1380428 128.761718,72.2720428 L128.711718,72.0830428 Z" id="Fill-311" fill="#F79E3C"></path>
                <path d="M146.735818,43.2091428 L146.789818,43.2241428 C146.511818,44.1441428 146.118818,45.3431428 145.650818,46.7411428 L145.476818,46.6811428 C143.486818,47.1991428 138.243818,46.9751428 138.243818,46.9751428 L138.074818,46.9101428 C138.581818,45.6121428 139.063818,44.3931428 139.511818,43.3031428 L139.646818,43.3581428 C139.646818,43.3581428 145.257818,43.3581428 146.735818,43.2091428" id="Fill-312" fill="#330A32"></path>
                <path d="M144.302818,50.6662428 C143.904818,51.8102428 143.481818,53.0092428 143.043818,54.2432428 L142.969818,54.2132428 C140.675818,54.8052428 135.362818,54.2882428 135.362818,54.2882428 L135.263818,54.2532428 C135.775818,52.8902428 136.288818,51.5422428 136.795818,50.2282428 C137.253818,50.2932428 142.531818,51.0242428 144.297818,50.6662428 L144.302818,50.6662428 Z" id="Fill-313" fill="#330A32"></path>
                <path d="M133.885818,58.2727428 C133.885818,58.2727428 139.496818,58.8647428 141.492818,58.2727428 L141.596818,58.3127428 C141.228818,59.3427428 140.859818,60.3727428 140.486818,61.3867428 L140.457818,61.3767428 C137.725818,62.4117428 132.482818,61.8197428 132.482818,61.8197428 L132.452818,61.8097428 C132.815818,60.8197428 133.199818,59.7947428 133.586818,58.7507428 C133.651818,58.5817428 133.715818,58.4067428 133.781818,58.2327428 L133.885818,58.2727428 Z" id="Fill-314" fill="#330A32"></path>
                <path d="M139.129318,64.8496428 L139.223318,64.8846428 C138.746318,66.2076428 138.283318,67.4766428 137.855318,68.6506428 C134.109318,70.0776428 129.895318,69.1326428 129.895318,69.1326428 L129.791318,69.0986428 C130.144318,68.1276428 130.567318,66.9586428 131.045318,65.6506428 L131.074318,65.6606428 C131.074318,65.6606428 136.910318,65.8796428 139.129318,64.8496428" id="Fill-315" fill="#330A32"></path>
                <path d="M142.174918,38.0538428 C141.793918,39.8448428 141.334918,41.6098428 140.811918,43.3548428 C142.537918,43.3458428 145.683918,43.3148428 146.735918,43.2088428 L146.789918,43.2238428 C147.103918,42.1838428 147.282918,41.5028428 147.272918,41.2838428 C147.210918,39.5988428 143.538918,37.9178428 142.174918,38.0538428" id="Fill-316" fill="#F79E3C"></path>
                <path d="M145.477018,46.6815428 C144.138018,47.0295428 141.327018,47.0415428 139.631018,47.0135428 C139.235018,48.1575428 138.822018,49.2965428 138.394018,50.4325428 C140.221018,50.6445428 143.086018,50.9125428 144.298018,50.6665428 L144.303018,50.6665428 C144.795018,49.2535428 145.253018,47.9255428 145.651018,46.7415428 L145.477018,46.6815428 Z" id="Fill-317" fill="#F79E3C"></path>
                <path d="M142.969718,54.2135428 C141.449718,54.6055428 138.604718,54.5105428 136.857718,54.4025428 C136.331718,55.7325428 135.800718,57.0625428 135.272718,58.3935428 C137.067718,58.5285428 140.126718,58.6775428 141.492718,58.2725428 L141.596718,58.3125428 C142.088718,56.9445428 142.576718,55.5765428 143.043718,54.2435428 L142.969718,54.2135428 Z" id="Fill-318" fill="#F79E3C"></path>
                <path d="M133.893618,61.9322428 C133.419618,63.1742428 132.961618,64.4232428 132.520618,65.6792428 C134.396618,65.6742428 137.610618,65.5542428 139.129618,64.8492428 L139.223618,64.8842428 C139.636618,63.7502428 140.064618,62.5762428 140.487618,61.3872428 L140.457618,61.3772428 C138.618618,62.0742428 135.643618,62.0332428 133.893618,61.9322428" id="Fill-319" fill="#F79E3C"></path>
                <path d="M131.307018,69.3435428 C130.999018,70.3485428 130.714018,71.3635428 130.446018,72.3835428 C130.468018,72.3925428 130.491018,72.3965428 130.513018,72.4065428 C132.037018,73.1005428 132.193018,74.6685428 132.153018,75.5375428 C133.297018,75.1725428 134.489018,74.8455428 135.625018,74.7385428 C136.101018,73.4465428 136.895018,71.2825428 137.855018,68.6505428 C135.451018,69.5665428 132.859018,69.5055428 131.307018,69.3435428" id="Fill-320" fill="#F79E3C"></path>
                <path d="M146.735818,43.2091428 C145.683818,43.3151428 142.537818,43.3461428 140.811818,43.3541428 C140.443818,44.5821428 140.049818,45.8021428 139.630818,47.0131428 C141.326818,47.0421428 144.137818,47.0291428 145.476818,46.6811428 L145.650818,46.7411428 C146.118818,45.3431428 146.511818,44.1441428 146.789818,43.2241428 L146.735818,43.2091428 Z" id="Fill-321" fill="#330A32"></path>
                <path d="M144.297918,50.6662428 C143.085918,50.9122428 140.220918,50.6452428 138.393918,50.4322428 C137.894918,51.7592428 137.379918,53.0812428 136.857918,54.4022428 C138.604918,54.5112428 141.449918,54.6062428 142.969918,54.2132428 L143.043918,54.2432428 C143.481918,53.0092428 143.904918,51.8102428 144.302918,50.6662428 L144.297918,50.6662428 Z" id="Fill-322" fill="#330A32"></path>
                <path d="M135.272818,58.3937428 C134.806818,59.5697428 134.345818,60.7487428 133.893818,61.9317428 C135.643818,62.0327428 138.618818,62.0737428 140.457818,61.3767428 L140.486818,61.3867428 C140.859818,60.3727428 141.228818,59.3427428 141.596818,58.3127428 L141.492818,58.2727428 C140.126818,58.6777428 137.067818,58.5287428 135.272818,58.3937428" id="Fill-323" fill="#330A32"></path>
                <g id="Group-326" transform="translate(128.546718, 37.788743)" fill="#650E81">
                    <path d="M13.4329,0.2962 C13.1489,0.3812 12.2139,2.4402 10.9649,5.5152 C10.5179,6.6042 10.0349,7.8232 9.5279,9.1212 C9.1149,10.1812 8.6819,11.2962 8.2489,12.4402 C7.7419,13.7532 7.2289,15.1012 6.7169,16.4642 C6.2189,17.7972 5.7169,19.1362 5.2349,20.4442 C5.1699,20.6182 5.1049,20.7922 5.0399,20.9612 C4.6529,22.0062 4.2689,23.0312 3.9069,24.0212 C3.4039,25.3842 2.9309,26.6782 2.4989,27.8622 C2.0209,29.1702 1.5979,30.3392 1.2449,31.3092 C0.5729,33.1602 0.1649,34.2942 0.1649,34.2942 L0.2149,34.4832 C0.7649,34.3542 1.3429,34.3642 1.8999,34.5952 C2.1669,33.5742 2.4519,32.5602 2.7599,31.5552 C3.1389,30.3232 3.5479,29.1042 3.9739,27.8912 C4.4149,26.6352 4.8729,25.3862 5.3469,24.1432 C5.7989,22.9602 6.2599,21.7812 6.7259,20.6052 C7.2539,19.2732 7.7849,17.9432 8.3109,16.6132 C8.8339,15.2932 9.3479,13.9702 9.8479,12.6432 C10.2749,11.5082 10.6889,10.3692 11.0839,9.2242 C11.5029,8.0132 11.8969,6.7932 12.2649,5.5662 C12.7879,3.8212 13.2469,2.0562 13.6279,0.2652 C13.5589,0.2722 13.4899,0.2792 13.4329,0.2962" id="Fill-324"></path>
                    <path d="M3.5381,38.3587 C3.5381,38.3587 5.0851,37.9507 6.6121,38.2147 C6.6571,38.0927 6.8231,37.6457 7.0791,36.9497 C5.9421,37.0567 4.7501,37.3837 3.6061,37.7497 C3.5891,38.1147 3.5381,38.3587 3.5381,38.3587" id="Fill-325"></path>
                </g>
                <path d="M132.520618,65.6796428 C132.094618,66.8926428 131.685618,68.1126428 131.306618,69.3436428 C132.858618,69.5046428 135.450618,69.5666428 137.855618,68.6506428 C138.283618,67.4766428 138.745618,66.2076428 139.223618,64.8846428 L139.129618,64.8496428 C137.610618,65.5546428 134.396618,65.6746428 132.520618,65.6796428" id="Fill-327" fill="#330A32"></path>
                <path d="M128.761418,72.2720428 C129.333418,72.1380428 129.935418,72.1480428 130.512418,72.4060428 C132.676418,73.3910428 132.084418,76.1470428 132.084418,76.1470428 C132.084418,76.1470428 133.631418,75.7400428 135.159418,76.0030428 C136.005418,76.1420428 136.840418,76.4960428 137.402418,77.2320428 C138.979418,79.2970428 137.502418,80.4310428 137.502418,80.4310428 L137.477418,80.4760428 C136.134418,79.7340428 131.537418,80.2520428 131.537418,80.2520428 C131.537418,80.2520428 131.313418,82.5800428 129.552418,82.9530428 C126.791418,83.5350428 126.702418,80.6750428 124.423418,80.2960428 C123.468418,80.1370428 122.557418,82.6840428 120.473418,82.5750428 C118.389418,82.4660428 118.379418,80.6840428 118.379418,80.6840428 C118.379418,80.6840428 111.303418,81.1720428 103.358418,81.8780428 C95.4144179,82.5900428 82.8424179,81.3410428 82.8424179,81.3410428 C82.1264179,81.8880428 81.3204179,82.1670428 80.5494179,82.2120428 C78.4944179,82.3410428 76.7084179,80.7690428 77.6584179,78.0970428 C78.9624179,74.4210428 81.6784179,74.9190428 81.6784179,74.9190428 C81.6784179,74.9190428 79.5294179,57.8650428 92.4044179,47.2690428 C103.787418,37.9010428 121.239418,41.7020428 127.517418,48.8010428 C131.557418,53.3680428 133.318418,58.6410428 133.318418,58.6410428 L133.587418,58.7500428 C133.199418,59.7950428 132.816418,60.8200428 132.453418,61.8100428 C131.950418,63.1730428 131.477418,64.4670428 131.045418,65.6500428 C130.567418,66.9590428 130.144418,68.1280428 129.791418,69.0980428 C129.120418,70.9490428 128.711418,72.0830428 128.711418,72.0830428 L128.761418,72.2720428 Z" id="Fill-328" fill="#E51473"></path>
                <path d="M120.023318,79.7420428 C120.520318,78.2500428 116.951318,79.0080428 116.454318,78.5110428 C115.629318,79.4930428 108.083318,82.2290428 104.601318,80.2390428 C99.1293179,77.2550428 93.6563179,82.2290428 90.1743179,79.7420428 C86.6923179,77.2550428 84.7023179,79.2450428 80.7223179,79.2450428 C78.9893179,78.8980428 78.9483179,77.1030428 79.4183179,75.5410428 C78.7773179,76.0010428 78.1273179,76.7770428 77.6593179,78.0970428 C76.7083179,80.7690428 78.4943179,82.3410428 80.5493179,82.2120428 C81.3203179,82.1670428 82.1263179,81.8880428 82.8423179,81.3410428 C82.8423179,81.3410428 95.4143179,82.5900428 103.359318,81.8780428 C111.303318,81.1720428 118.379318,80.6840428 118.379318,80.6840428 C118.379318,80.6840428 118.380318,80.7820428 118.407318,80.9290428 C119.010318,80.5980428 119.712318,80.3650428 120.023318,79.7420428" id="Fill-329" fill="#650E81"></path>
                <path d="M127.485518,81.2345428 C126.490518,80.2395428 124.718518,79.3375428 124.003518,79.7425428 C123.287518,80.1465428 122.978518,80.9595428 122.946518,81.1725428 C123.070518,81.2345428 123.940518,80.2705428 124.314518,80.2705428 C126.165518,80.2705428 126.791518,83.5355428 129.552518,82.9535428 C130.244518,82.8065428 130.696518,82.3575428 130.993518,81.8675428 C129.860518,81.9535428 128.673518,81.7095428 127.485518,81.2345428" id="Fill-330" fill="#650E81"></path>
                <path d="M130.470518,77.2546428 C131.106518,76.8306428 131.742518,76.4956428 132.302518,76.0976428 C132.165518,76.1266428 132.084518,76.1476428 132.084518,76.1476428 C132.084518,76.1476428 132.676518,73.3916428 130.512518,72.4066428 C130.418518,72.3636428 130.322518,72.3386428 130.227518,72.3086428 C131.040518,73.6606428 130.470518,75.7436428 130.470518,77.2546428" id="Fill-331" fill="#650E81"></path>
                <path d="M128.740918,72.0026428 C128.781918,71.8886428 128.866918,71.6506428 128.996918,71.2936428 C128.989918,71.2906428 128.984918,71.2876428 128.977918,71.2846428 C128.984918,71.2876428 128.989918,71.2906428 128.996918,71.2936428 C129.182918,70.7786428 129.452918,70.0296428 129.790918,69.0976428 C130.144918,68.1276428 130.567918,66.9586428 131.044918,65.6506428 C131.477918,64.4666428 131.949918,63.1726428 132.452918,61.8096428 C132.815918,60.8196428 133.198918,59.7946428 133.586918,58.7506428 L133.317918,58.6406428 C133.317918,58.6406428 133.004918,57.7056428 132.342918,56.2846428 C130.865918,61.6156428 128.964918,66.9476428 128.480918,72.2796428 C128.572918,72.1876428 128.652918,72.0946428 128.740918,72.0026428" id="Fill-332" fill="#650E81"></path>
                <path d="M137.402718,77.2320428 C137.285718,77.0780428 137.153718,76.9450428 137.015718,76.8230428 C137.026718,77.3120428 136.937718,77.8260428 136.937718,78.2500428 C136.724718,79.1040428 136.235718,79.6820428 135.628718,80.1040428 C136.393718,80.1490428 137.079718,80.2560428 137.477718,80.4760428 L137.502718,80.4310428 C137.502718,80.4310428 138.979718,79.2970428 137.402718,77.2320428" id="Fill-333" fill="#650E81"></path>
                <path d="M125.410018,73.7089428 C125.964018,73.0119428 126.614018,72.4579428 127.393018,71.9699428 C127.783018,71.7419428 128.235018,71.5449428 128.695018,71.4189428 C128.966018,71.3539428 129.205018,71.3199428 129.477018,71.3099428 C129.743018,71.2999428 130.017018,71.3219428 130.287018,71.3759428 C130.564018,71.4399428 130.807018,71.5009428 131.086018,71.6579428 L131.364018,71.8029428 C131.493018,71.8879428 131.620018,71.9779428 131.744018,72.0709428 C131.972018,72.2639428 132.170018,72.4449428 132.333018,72.6729428 C132.508018,72.8899428 132.644018,73.1289428 132.757018,73.3729428 C132.980018,73.8639428 133.090018,74.3699428 133.134018,74.8609428 C133.152018,75.1069428 133.160018,75.3509428 133.150018,75.5929428 C133.141018,75.8459428 133.116018,76.0529428 133.058018,76.3559428 L131.831018,75.1839428 C132.084018,75.1229428 132.274018,75.0909428 132.493018,75.0549428 C132.704018,75.0229428 132.917018,74.9959428 133.130018,74.9769428 C133.556018,74.9349428 133.990018,74.9269428 134.429018,74.9589428 C134.648018,74.9739428 134.869018,74.9979428 135.091018,75.0339428 C135.323018,75.0719428 135.506018,75.1079428 135.755018,75.1739428 C136.205018,75.2929428 136.651018,75.4889428 137.064018,75.7609428 C137.270018,75.8969428 137.466018,76.0539428 137.645018,76.2299428 C137.829018,76.4109428 137.973018,76.5899428 138.126018,76.8269428 C138.227018,76.9969428 138.322018,77.1339428 138.442018,77.3849428 C138.563018,77.6109428 138.640018,77.8369428 138.710018,78.0689428 C138.837018,78.5419428 138.869018,79.0859428 138.715018,79.5919428 C138.644018,79.8449428 138.526018,80.0799428 138.383018,80.2909428 C138.226018,80.5059428 138.078018,80.6639428 137.823018,80.8489428 C137.595018,81.0149428 137.274018,80.9649428 137.108018,80.7359428 C136.981018,80.5629428 136.980018,80.3359428 137.087018,80.1639428 L137.181018,80.0129428 C137.222018,79.9479428 137.322018,79.8029428 137.359018,79.6839428 C137.405018,79.5579428 137.445018,79.4359428 137.452018,79.3089428 C137.477018,79.0599428 137.415018,78.8049428 137.293018,78.5489428 C137.220018,78.4229428 137.160018,78.2859428 137.079018,78.1809428 C137.027018,78.0849428 136.885018,77.9139428 136.768018,77.7649428 C136.699018,77.6869428 136.584018,77.5749428 136.484018,77.4949428 C136.377018,77.4099428 136.263018,77.3349428 136.139018,77.2699428 C135.893018,77.1369428 135.610018,77.0499428 135.309018,76.9859428 C135.183018,76.9589428 134.985018,76.9289428 134.834018,76.9149428 C134.673018,76.8969428 134.509018,76.8889428 134.342018,76.8869428 C134.009018,76.8849428 133.668018,76.9009428 133.325018,76.9379428 C133.154018,76.9559428 132.983018,76.9809428 132.813018,77.0099428 C132.651018,77.0389428 132.461018,77.0779428 132.339018,77.1099428 C131.808018,77.2509428 131.264018,76.9349428 131.123018,76.4039428 C131.086018,76.2629428 131.080018,76.1219428 131.103018,75.9869428 L131.111018,75.9379428 C131.127018,75.8449428 131.147018,75.6489428 131.155018,75.4989428 C131.165018,75.3379428 131.162018,75.1779428 131.154018,75.0199428 C131.133018,74.7069428 131.070018,74.4119428 130.962018,74.1649428 C130.903018,74.0449428 130.854018,73.9209428 130.778018,73.8209428 C130.719018,73.7119428 130.612018,73.6159428 130.543018,73.5409428 C130.507018,73.5119428 130.473018,73.4799428 130.442018,73.4419428 C130.376018,73.3969428 130.273018,73.3419428 130.191018,73.2919428 C130.124018,73.2369428 129.976018,73.1769428 129.864018,73.1389428 C129.741018,73.1009428 129.612018,73.0739428 129.473018,73.0649428 C129.341018,73.0529428 129.177018,73.0639428 129.052018,73.0759428 C128.722018,73.1209428 128.411018,73.2059428 128.081018,73.3419428 C127.418018,73.5859428 126.762018,74.0139428 126.163018,74.4469428 L126.135018,74.4679428 C125.897018,74.6389428 125.566018,74.5859428 125.395018,74.3489428 C125.253018,74.1519428 125.266018,73.8899428 125.410018,73.7089428" id="Fill-334" fill="#D1789C"></path>
                <path d="M101.523418,77.5121428 C101.209418,76.4081428 100.486418,75.4781428 99.5774179,74.8251428 C98.9104179,74.1371428 98.1254179,73.5911428 97.1054179,73.3321428 C95.9814179,73.0461428 94.7064179,73.4701428 93.8534179,74.2631428 C93.1714179,72.8971428 92.0344179,71.8651428 90.4354179,71.5521428 C88.3184179,71.1371428 86.4044179,73.3651428 85.0264179,74.5941428 C84.8184179,74.7791428 85.0914179,75.1311428 85.3234179,74.9781428 C86.2554179,74.3671428 87.1374179,73.6861428 88.0744179,73.0811428 C88.6114179,72.7341428 89.1234179,72.5621428 89.6054179,72.5171428 C89.5744179,72.7941428 89.7044179,73.0981428 90.0174179,73.1831428 C91.6384179,73.6201428 91.9834179,75.7601428 93.3564179,76.6071428 C93.6314179,76.7771428 94.0114179,76.6701428 94.1704179,76.3941428 C94.1784179,76.3801428 94.1884179,76.3711428 94.1964179,76.3571428 C94.2884179,76.3461428 94.3864179,76.3131428 94.4854179,76.2461428 C94.9834179,75.9111428 95.4754179,75.6051428 96.0024179,75.3261428 C96.4874179,75.1341428 97.0034179,75.0591428 97.5434179,75.2421428 C97.6854179,75.2911428 97.8134179,75.2891428 97.9234179,75.2551428 C98.0334179,75.3001428 98.1414179,75.3501428 98.2484179,75.4041428 C99.1904179,76.2251428 100.021418,77.3061428 100.442418,77.9681428 C100.797418,78.5241428 101.711418,78.1731428 101.523418,77.5121428" id="Fill-335" fill="#650E81"></path>
                <path d="M116.019218,76.1550428 C115.858218,75.7810428 115.653218,75.4340428 115.088218,75.3050428 C114.120218,75.0840428 113.193218,75.1580428 112.281218,75.4350428 C112.147218,74.7700428 111.697218,74.2610428 110.802218,74.2150428 C109.806218,74.1640428 107.841218,74.3800428 107.269218,75.3420428 C107.214218,75.4360428 107.264218,75.5740428 107.374218,75.5990428 C107.788218,75.6920428 108.711218,75.4340428 109.542218,75.3100428 C109.613218,75.3760428 109.700218,75.4300428 109.826218,75.4480428 C109.884218,75.4470428 109.938218,75.4530428 109.992218,75.4590428 C109.992218,75.4630428 109.991218,75.4670428 109.991218,75.4700428 C110.024218,75.4690428 110.053218,75.4720428 110.085218,75.4720428 C110.554218,75.5580428 110.876218,75.9020428 111.048218,76.5080428 C111.048218,76.6250428 111.086218,76.7200428 111.137218,76.8040428 C111.241218,77.0990428 111.593218,77.2710428 111.899218,77.1970428 C113.796218,76.7350428 114.839218,77.3240428 116.101218,78.6900428 C116.469218,79.0890428 117.175218,78.7810428 117.163218,78.2500428 C117.142218,77.2880428 116.686218,76.6080428 116.019218,76.1550428" id="Fill-336" fill="#650E81"></path>
                <path d="M84.9105179,74.6239428 C85.1925179,74.2129428 85.5045179,73.8629428 85.8585179,73.5279428 C86.2085179,73.1949428 86.5945179,72.8809428 87.0365179,72.6229428 C87.4755179,72.3649428 87.9705179,72.1449428 88.5255179,72.0479428 C89.0725179,71.9369428 89.6845179,71.9539428 90.2485179,72.1269428 C90.3985179,72.1759428 90.5125179,72.1999428 90.6885179,72.2799428 L90.9925179,72.4189428 C91.1905179,72.5099428 91.4725179,72.6719428 91.6855179,72.8039428 C92.1215179,73.0769428 92.5175179,73.4029428 92.8785179,73.7589428 C93.2405179,74.1139428 93.5585179,74.5039428 93.8485179,74.9139428 C93.9945179,75.1169428 94.1245179,75.3319428 94.2485179,75.5519428 C94.3735179,75.7819428 94.4785179,75.9789428 94.6005179,76.2719428 L92.9945179,75.9259428 C93.1805179,75.7539428 93.3275179,75.6369428 93.4975179,75.4999428 C93.6635179,75.3709428 93.8345179,75.2479428 94.0085179,75.1289428 C94.3605179,74.8939428 94.7385179,74.6869428 95.1395179,74.5049428 C95.5485179,74.3309428 95.9885179,74.1839428 96.4715179,74.1129428 C96.7225179,74.0969428 96.9655179,74.0659428 97.2305179,74.1019428 C97.4895179,74.1109428 97.7525179,74.1899428 98.0095179,74.2659428 C98.1345179,74.3139428 98.2555179,74.3779428 98.3755179,74.4369428 C98.4455179,74.4739428 98.4735179,74.4829428 98.5765179,74.5449428 L98.6925179,74.6259428 C98.8355179,74.7239428 99.0145179,74.8629428 99.1975179,75.0139428 C99.5295179,75.3039428 99.8275179,75.5979428 100.083518,75.9329428 C100.339518,76.2649428 100.566518,76.6119428 100.764518,76.9709428 C100.968518,77.3349428 101.124518,77.6909428 101.261518,78.1179428 C101.349518,78.3959428 101.196518,78.6929428 100.918518,78.7809428 C100.681518,78.8559428 100.431518,78.7559428 100.307518,78.5529428 L100.281518,78.5099428 C100.119518,78.2439428 99.9025179,77.9409428 99.6935179,77.6739428 C99.4775179,77.4039428 99.2425179,77.1519428 98.9935179,76.9229428 C98.7435179,76.6989428 98.4815179,76.4839428 98.2195179,76.3099428 C98.0995179,76.2349428 97.9735179,76.1539428 97.7915179,76.0589428 L97.6675179,75.9899428 C97.6875179,76.0069428 97.6285179,75.9809428 97.6125179,75.9779428 L97.4615179,75.9219428 C97.3515179,75.9119428 97.2515179,75.8789428 97.1295179,75.8919428 C97.0185179,75.8809428 96.8865179,75.9189428 96.7625179,75.9329428 C96.5015179,75.9949428 96.2235179,76.0939428 95.9455179,76.2319428 C95.6675179,76.3769428 95.3925179,76.5509428 95.1225179,76.7429428 C94.9875179,76.8389428 94.8545179,76.9399428 94.7235179,77.0439428 C94.6005179,77.1459428 94.4575179,77.2669428 94.3685179,77.3539428 C93.9775179,77.7339428 93.3525179,77.7249428 92.9735179,77.3339428 C92.8905179,77.2489428 92.8265179,77.1529428 92.7805179,77.0509428 L92.7615179,77.0079428 C92.7095179,76.8919428 92.6075179,76.6939428 92.5155179,76.5359428 L92.2055179,76.0449428 C91.9865179,75.7249428 91.7465179,75.4169428 91.4775179,75.1449428 C91.2065179,74.8759428 90.9255179,74.6189428 90.6185179,74.3999428 C90.4575179,74.2919428 90.3625179,74.2159428 90.1635179,74.1079428 L89.8685179,73.9529428 C89.8435179,73.9379428 89.7395179,73.9069428 89.6815179,73.8779428 C89.4055179,73.7579428 89.1025179,73.7129428 88.7725179,73.7479428 C88.4455179,73.7659428 88.0915179,73.8549428 87.7415179,74.0079428 C87.0315179,74.2799428 86.3305179,74.7839428 85.7125179,75.3079428 L85.6895179,75.3279428 C85.4665179,75.5169428 85.1325179,75.4889428 84.9435179,75.2659428 C84.7855179,75.0799428 84.7785179,74.8159428 84.9105179,74.6239428" id="Fill-337" fill="#D1789C"></path>
                <path d="M107.061418,75.3058428 C107.452418,75.0098428 107.865418,74.8008428 108.334418,74.6378428 C108.568418,74.5558428 108.819418,74.5048428 109.081418,74.4648428 C109.348418,74.4268428 109.630418,74.4318428 109.927418,74.4718428 C110.225418,74.5268428 110.537418,74.6078428 110.825418,74.7858428 C110.977418,74.8568428 111.097418,74.9758428 111.226418,75.0828428 C111.360418,75.1898428 111.468418,75.3108428 111.558418,75.4428428 C111.646418,75.5708428 111.764418,75.7038428 111.817418,75.8378428 L111.993418,76.2468428 C112.059418,76.3868428 112.068418,76.5118428 112.106418,76.6458428 L112.195418,77.0438428 L110.947418,76.2208428 C111.253418,76.1338428 111.495418,76.0998428 111.769418,76.0568428 C112.036418,76.0198428 112.304418,75.9918428 112.576418,75.9758428 C113.118418,75.9568428 113.674418,75.9748428 114.236418,76.0998428 C114.375418,76.1248428 114.516418,76.1628428 114.656418,76.2088428 C114.797418,76.2558428 114.935418,76.2848428 115.075418,76.3528428 C115.351418,76.4668428 115.618418,76.6198428 115.872418,76.7978428 C115.998418,76.8838428 116.109418,77.0058428 116.223418,77.1088428 C116.340418,77.2098428 116.436418,77.3358428 116.524418,77.4658428 C116.723418,77.7088428 116.822418,78.0068428 116.928418,78.2808428 C117.031418,78.5458428 116.899418,78.8438428 116.635418,78.9468428 C116.451418,79.0178428 116.250418,78.9768428 116.111418,78.8558428 L115.979418,78.7408428 C115.824418,78.6058428 115.712418,78.4568428 115.549418,78.3648428 C115.475418,78.3138428 115.412418,78.2558428 115.323418,78.2238428 C115.238418,78.1878428 115.170418,78.1388428 115.081418,78.1118428 C114.913418,78.0468428 114.741418,77.9928428 114.550418,77.9628428 C114.364418,77.9288428 114.174418,77.8938428 113.970418,77.8908428 C113.571418,77.8678428 113.147418,77.8758428 112.720418,77.9318428 C112.507418,77.9518428 112.292418,77.9808428 112.078418,78.0178428 L111.471418,78.1418428 C110.899418,78.2598428 110.340418,77.8918428 110.223418,77.3198428 L110.223418,77.3188428 L110.177418,77.0988428 C110.159418,77.0308428 110.162418,76.9378428 110.130418,76.8898428 L110.064418,76.7138428 C110.051418,76.6448428 110.012418,76.6248428 109.994418,76.5728428 C109.975418,76.5218428 109.949418,76.4808428 109.916418,76.4568428 C109.885418,76.4278428 109.869418,76.3768428 109.825418,76.3618428 C109.782418,76.3438428 109.762418,76.2968428 109.710418,76.2768428 C109.659418,76.2578428 109.617418,76.2248428 109.559418,76.2028428 C109.441418,76.1628428 109.304418,76.1368428 109.147418,76.1148428 C108.989418,76.0998428 108.821418,76.0968428 108.642418,76.1048428 C108.288418,76.1178428 107.897418,76.1828428 107.528418,76.2508428 L107.482418,76.2598428 C107.191418,76.3138428 106.912418,76.1208428 106.858418,75.8298428 C106.820418,75.6248428 106.905418,75.4248428 107.061418,75.3058428" id="Fill-338" fill="#D1789C"></path>
            </g>
        </g>
    </g>
</svg>