<?xml version="1.0" encoding="UTF-8"?>
<svg width="1440px" height="749px" viewBox="0 0 1440 749" version="1.1" xmlns="http://www.w3.org/2000/svg" xmlns:xlink="http://www.w3.org/1999/xlink">
    <!-- Generator: Sketch 53.1 (72631) - https://sketchapp.com -->
    <title>Group 138space_invitation_bg</title>
    <desc>Created with Sketch.</desc>
    <defs>
        <polygon id="path-1" points="0.291797363 0.671212483 1439.29249 0.671212483 1439.29249 749.183837 0.291797363 749.183837"></polygon>
    </defs>
    <g id="Page-1" stroke="none" stroke-width="1" fill="none" fill-rule="evenodd">
        <g id="Group-138" transform="translate(0.000000, -1.000000)">
            <g id="Group-137">
                <g id="Group-13" transform="translate(57.959750, 489.131386)">
                    <path d="M50.4915364,26.0122264 C50.4915364,27.1641587 50.4105926,28.2991361 50.2507037,29.4031959 C49.993882,31.418828 49.481238,33.3536753 48.7607384,35.1937749 C45.0902873,44.5668134 35.9386426,51.2051348 25.2480666,51.2051348 C15.6637224,51.2051348 7.33050937,45.8783207 3.05048161,38.0252344 C2.16909368,36.4095372 1.46358362,34.6821375 0.966928522,32.8739529 C0.646151284,31.7708904 0.406317835,30.6189582 0.246428869,29.4510684 C0.0855405968,28.3320485 0.00559611381,27.1801162 0.00559611381,26.0122264 C0.00559611381,24.7007191 0.101529493,23.4211268 0.294395559,22.1734495 C0.823028452,18.7505651 2.04118251,15.5510857 3.80395836,12.7196262 C8.25886468,5.56966733 16.1933546,0.819318061 25.2480666,0.819318061 C32.0273588,0.819318061 38.1820847,3.49020518 42.7179348,7.82466202 C44.1439445,9.18404183 45.3940763,10.703994 46.4683303,12.3675637 C48.3590173,15.2628533 49.641127,18.5899927 50.202737,22.1415345 C50.3946037,23.4051693 50.4915364,24.7007191 50.4915364,26.0122264" id="Fill-1" fill="#99B88E"></path>
                    <path d="M50.2505038,29.4030961 C49.9936822,31.4187283 49.4810382,33.3535756 48.7605385,35.1936752 C45.0900874,44.567711 35.9384427,51.2050351 25.2478668,51.2050351 C15.6645219,51.2050351 7.33030951,45.8792183 3.05128105,38.0251347 C2.16889382,36.4094375 1.46438307,34.6820377 0.967727967,32.8738531 C0.645951423,31.7707907 0.406117974,30.6188584 0.246229008,29.4509687 C0.246229008,29.3073511 0.278206801,29.1786938 0.294195697,29.0350762 C0.822828591,25.6121918 2.04098265,22.4127124 3.8037585,19.5822502 C8.25866482,12.431294 16.1931548,7.68094475 25.2478668,7.68094475 C32.0281582,7.68094475 38.1818848,10.3518319 42.7177349,14.6872861 C44.1447439,16.0466659 45.3948758,17.5666181 46.4681305,19.2301878 C48.3588175,22.1254773 49.6419264,25.4526167 50.2025371,29.0031612 C50.218526,29.1318186 50.2345149,29.2594786 50.2505038,29.4030961" id="Fill-3" fill="#89A480"></path>
                    <path d="M48.7603387,35.1938746 C45.0898876,44.5669131 35.9382429,51.2052345 25.2486662,51.2052345 C15.664322,51.2052345 7.33010965,45.8784205 3.05108119,38.0253341 C4.89380153,36.9053169 6.91339903,36.073532 9.04491881,35.6257246 C10.3270285,35.3534497 11.6730937,35.2098321 12.9392144,35.5778521 C15.2156336,36.2500619 16.7215878,38.3933541 18.789152,39.5283315 C22.5395475,41.6077936 27.2352866,40.0080539 30.9856822,37.9285918 C34.7200888,35.8341695 38.5024622,33.2101575 42.7824899,33.2739875 C44.9779653,33.3059025 46.9815739,34.0419424 48.7603387,35.1938746" id="Fill-5" fill="#62614D"></path>
                    <path d="M42.717635,7.82486149 C42.0291131,7.82486149 41.3076142,7.77698898 40.6510701,7.72911647 C28.1977183,6.92924661 15.599467,8.65664635 3.80465788,12.7198256 C8.25956419,5.5698668 16.1930548,0.81951753 25.2487661,0.81951753 C32.0280583,0.81951753 38.1817849,3.49040465 42.717635,7.82486149" id="Fill-7" fill="#7F7E64"></path>
                    <path d="M50.2026371,22.1412353 C43.3114226,21.6934279 36.3712422,21.9337878 29.4630396,22.8772752 C26.2892436,23.3091251 23.4372241,23.8367201 20.7291048,24.5089299 C13.7559473,26.2363296 7.05759889,29.0827493 0.966828591,32.874651 C0.341263012,30.6994438 0.00549618321,28.3955793 0.00549618321,26.0119272 C0.00549618321,24.7004199 0.101429563,23.4208276 0.294295628,22.1731503 C6.01532269,19.1023283 12.1220819,16.7505912 18.4207078,15.1997214 C21.4655933,14.447724 24.6553782,13.8393442 28.1809299,13.3755793 C34.2717002,12.5437944 40.3774601,12.2076895 46.4682304,12.3682619 C48.3589174,15.2635514 49.6410271,18.5896935 50.2026371,22.1412353" id="Fill-9" fill="#62614D"></path>
                    <path d="M383.379464,214.961732 L304.248416,214.961732 C300.759839,214.961732 297.930804,212.138251 297.930804,208.656524 C297.930804,205.174796 300.759839,202.351315 304.248416,202.351315 L383.379464,202.351315 C386.868042,202.351315 389.696078,205.174796 389.696078,208.656524 C389.696078,212.138251 386.868042,214.961732 383.379464,214.961732" id="Fill-11" fill="#CF5434"></path>
                </g>
                <g id="Group-131" transform="translate(0.000000, 0.432847)">
                    <mask id="mask-2" fill="white">
                        <use xlink:href="#path-1"></use>
                    </mask>
                    <g id="Clip-15"></g>
                    <polygon id="Fill-14" fill="#0E4361" mask="url(#mask-2)" points="-4.35997224 749.231709 1440.46368 749.231709 1440.46368 -2.3527344 -4.35997224 -2.3527344"></polygon>
                    <g id="Group-43" mask="url(#mask-2)" fill="#4CEEF3">
                        <g transform="translate(1090.242887, 27.925631)">
                            <path d="M228.118185,508.375138 C224.291842,508.375138 224.291842,514.295372 228.118185,514.295372 C231.945527,514.295372 231.945527,508.375138 228.118185,508.375138" id="Fill-16"></path>
                            <path d="M130.353077,496.523899 C127.736894,496.523899 127.736894,500.570124 130.353077,500.570124 C132.96926,500.570124 132.96926,496.523899 130.353077,496.523899" id="Fill-17"></path>
                            <path d="M27.7788092,452.576935 C24.1453324,452.576935 24.1453324,458.196968 27.7788092,458.196968 C31.4122859,458.196968 31.4122859,452.576935 27.7788092,452.576935" id="Fill-18"></path>
                            <path d="M32.2658931,334.58167 L30.9847828,334.510859 C29.5727634,334.434063 28.3925829,335.745571 28.3925829,337.095974 C28.3925829,338.446378 29.5727634,339.758883 30.9847828,339.68109 L32.2658931,339.611276 C33.6379403,339.535478 34.7871423,338.524171 34.7871423,337.095974 C34.7871423,335.668775 33.6379403,334.657468 32.2658931,334.58167" id="Fill-19"></path>
                            <path d="M58.2303622,251.200624 C54.6448522,251.200624 54.6448522,256.745856 58.2303622,256.745856 C61.8158723,256.745856 61.8158723,251.200624 58.2303622,251.200624" id="Fill-20"></path>
                            <path d="M133.557851,279.524594 C129.391745,279.524594 129.391745,285.968433 133.557851,285.968433 C137.724958,285.968433 137.724958,279.524594 133.557851,279.524594" id="Fill-21"></path>
                            <path d="M235.165091,182.604503 C234.682426,182.154701 234.197763,181.703901 233.715098,181.254099 C232.368033,180.001435 230.27049,179.921648 228.933418,181.254099 C227.597346,182.586551 227.677291,184.679976 228.933418,186.022401 C229.385105,186.505115 229.835792,186.98783 230.287478,187.469547 C231.569588,188.840895 233.87099,188.761107 235.165091,187.469547 C236.460192,186.177986 236.540136,183.884095 235.165091,182.604503" id="Fill-22"></path>
                            <path d="M63.0385232,8.52559535 C59.8417432,8.52559535 59.8417432,13.4704267 63.0385232,13.4704267 C66.2363026,13.4704267 66.2363026,8.52559535 63.0385232,8.52559535" id="Fill-23"></path>
                            <path d="M189.653696,0.158278486 C185.971253,0.158278486 185.971253,5.85311248 189.653696,5.85311248 C193.336139,5.85311248 193.336139,0.158278486 189.653696,0.158278486" id="Fill-24"></path>
                            <path d="M286.711295,20.7318886 C286.195653,19.8542259 285.233321,19.3026947 284.214029,19.3026947 C283.44956,19.3026947 282.708075,19.6098766 282.16845,20.1484424 C281.366007,20.9483122 281.278068,21.8967863 281.424966,22.9549683 C281.501913,23.5154756 281.623828,23.9822325 281.943606,24.4699337 C283.054834,26.1574397 285.372225,26.1574397 286.482454,24.4699337 C286.80423,23.9822325 286.925146,23.5154756 287.003092,22.9549683 C287.114015,22.1461223 287.143994,21.4679284 286.711295,20.7318886" id="Fill-25"></path>
                            <path d="M245.223506,23.0494167 C244.971681,21.7000104 244.081299,20.3146996 242.542368,20.3146996 C241.004436,20.3146996 240.115053,21.7000104 239.863228,23.0494167 C239.536455,24.798758 240.621702,26.5590701 242.542368,26.5590701 C244.465033,26.5590701 245.550279,24.798758 245.223506,23.0494167" id="Fill-26"></path>
                            <path d="M196.064244,213.860166 C189.669685,213.860166 189.669685,223.750826 196.064244,223.750826 C202.458804,223.750826 202.458804,213.860166 196.064244,213.860166" id="Fill-27"></path>
                            <path d="M27.7788092,221.640745 C23.1770049,221.640745 23.1770049,228.758789 27.7788092,228.758789 C32.3806135,228.758789 32.3806135,221.640745 27.7788092,221.640745" id="Fill-28"></path>
                            <path d="M74.2572325,314.879739 C70.3329577,314.879739 70.3329577,320.948577 74.2572325,320.948577 C78.1825066,320.948577 78.1825066,314.879739 74.2572325,314.879739" id="Fill-29"></path>
                            <path d="M18.1623872,415.998548 C14.7707425,415.998548 14.7707425,421.24358 18.1623872,421.24358 C21.5540319,421.24358 21.5540319,415.998548 18.1623872,415.998548" id="Fill-30"></path>
                            <path d="M87.7791423,496.265288 C86.2152283,494.954778 84.3035559,494.658567 82.4928133,495.713757 C80.9099126,496.6363 80.3263178,498.197143 80.1894129,499.927535 C80.0545066,501.632993 81.4345482,502.957466 82.9025288,503.482069 C82.9415017,503.496032 82.9794754,503.509995 83.017449,503.523957 C84.7332575,504.137324 86.5100236,503.052214 87.2355198,501.515307 C87.4283858,501.389641 87.6142568,501.252008 87.7791423,501.086449 C89.0102873,499.858718 89.2081499,497.462101 87.7791423,496.265288" id="Fill-31"></path>
                            <path d="M155.996369,593.059314 C152.120061,593.059314 152.120061,599.054349 155.996369,599.054349 C159.871678,599.054349 159.871678,593.059314 155.996369,593.059314" id="Fill-32"></path>
                            <path d="M231.323958,455.886521 C229.944916,455.886521 228.492924,457.116246 228.619836,458.584337 C228.655811,459.010203 228.692786,459.437066 228.728761,459.862932 C228.849677,461.268189 229.818004,462.451039 231.323958,462.451039 C232.829913,462.451039 233.79824,461.268189 233.919156,459.862932 C233.955131,459.437066 233.992105,459.010203 234.02908,458.584337 C234.154992,457.116246 232.703001,455.886521 231.323958,455.886521" id="Fill-33"></path>
                            <path d="M284.214029,75.5136983 C280.822384,75.5136983 280.822384,80.7587301 284.214029,80.7587301 C287.605674,80.7587301 287.605674,75.5136983 284.214029,75.5136983" id="Fill-34"></path>
                            <path d="M207.283053,44.954481 C205.847051,44.954481 204.335101,46.236068 204.46601,47.7639989 C204.502984,48.1908622 204.538959,48.616728 204.575933,49.0435912 C204.701846,50.5086895 205.712144,51.7434013 207.283053,51.7434013 C208.853963,51.7434013 209.864261,50.5086895 209.991173,49.0435912 C210.027148,48.616728 210.064122,48.1908622 210.100097,47.7639989 C210.232006,46.236068 208.719056,44.954481 207.283053,44.954481" id="Fill-35"></path>
                            <path d="M316.26787,553.883344 C313.409854,553.883344 313.409854,558.30457 316.26787,558.30457 C319.125885,558.30457 319.125885,553.883344 316.26787,553.883344" id="Fill-36"></path>
                            <path d="M178.433988,554.807184 C174.704577,554.807184 174.704577,560.576819 178.433988,560.576819 C182.164397,560.576819 182.164397,554.807184 178.433988,554.807184" id="Fill-37"></path>
                            <path d="M7.23157807,589.66256 C7.00973213,587.776583 5.80956558,586.177841 3.73800416,586.177841 C1.66644275,586.177841 0.465276891,587.776583 0.244430257,589.66256 L0.0935350451,590.941155 C-0.13730465,592.912904 1.92726162,594.575477 3.73800416,594.575477 C5.5487467,594.575477 7.61331298,592.912904 7.38147398,590.941155 L7.23157807,589.66256 Z" id="Fill-38"></path>
                            <path d="M14.2813824,441.123537 C13.7597446,440.234903 12.7854212,439.676391 11.7521388,439.676391 C10.9776766,439.676391 10.2261985,439.986565 9.68057738,440.532112 C8.86714226,441.342953 8.77820402,442.303395 8.92710062,443.37554 C9.0050465,443.939039 9.12796114,444.409785 9.44973768,444.899481 C10.5769549,446.610923 12.9273227,446.610923 14.0525413,444.899481 C14.3763164,444.409785 14.4992311,443.939039 14.577177,443.37554 C14.6900985,442.55672 14.7190784,441.86955 14.2813824,441.123537" id="Fill-39"></path>
                            <path d="M5.34129077,276.440108 C1.32008328,276.440108 1.32008328,282.659545 5.34129077,282.659545 C9.36149896,282.659545 9.36149896,276.440108 5.34129077,276.440108" id="Fill-40"></path>
                            <path d="M14.8239056,121.349233 C14.7669452,120.359868 14.1913449,119.372497 13.3599223,118.886791 C11.8879445,118.02708 10.2760638,118.640447 9.35070645,119.934999 C8.745127,120.783739 8.60922137,122.043384 8.95997779,123.016792 C9.20680638,123.705957 9.48761138,124.137807 9.97827065,124.687343 C10.4129688,125.175044 10.9665843,125.384487 11.5521777,125.45829 C11.9309146,125.57099 12.3046551,125.645791 12.7163692,125.656761 C13.9105399,125.688676 15.0067786,124.812011 15.3175628,123.680026 C15.5633921,122.7884 15.3335517,121.97357 14.8239056,121.349233" id="Fill-41"></path>
                            <path d="M10.1494518,12.3221846 C7.72613463,12.3221846 7.72613463,16.0682085 10.1494518,16.0682085 C12.5717696,16.0682085 12.5717696,12.3221846 10.1494518,12.3221846" id="Fill-42"></path>
                        </g>
                    </g>
                    <path d="M1449.45653,1.01190518 C1449.45653,99.3051389 1369.56601,178.98594 1271.01545,178.98594 C1172.46389,178.98594 1092.57237,99.3051389 1092.57237,1.01190518 C1092.57237,-97.2803312 1172.46389,-176.962129 1271.01545,-176.962129 C1369.56601,-176.962129 1449.45653,-97.2803312 1449.45653,1.01190518" id="Fill-44" fill="#FDEDBD" opacity="0.426943824" mask="url(#mask-2)"></path>
                    <path d="M1363.50842,1.01190518 C1363.50842,51.9612212 1322.09818,93.2642266 1271.01465,93.2642266 C1219.93113,93.2642266 1178.52088,51.9612212 1178.52088,1.01190518 C1178.52088,-49.9374109 1219.93113,-91.2404162 1271.01465,-91.2404162 C1322.09818,-91.2404162 1363.50842,-49.9374109 1363.50842,1.01190518" id="Fill-45" fill="#F79E3C" opacity="0.371512277" mask="url(#mask-2)"></path>
                    <path d="M1319.53606,1.01190518 C1319.53606,27.7397259 1297.81314,49.406026 1271.01475,49.406026 C1244.21736,49.406026 1222.49345,27.7397259 1222.49345,1.01190518 C1222.49345,-25.7149182 1244.21736,-47.3822157 1271.01475,-47.3822157 C1297.81314,-47.3822157 1319.53606,-25.7149182 1319.53606,1.01190518" id="Fill-46" fill="#F79E3C" mask="url(#mask-2)"></path>
                    <path d="M1305.11147,1.01190518 C1305.11147,19.7938866 1289.84607,35.0193394 1271.01515,35.0193394 C1252.18323,35.0193394 1236.91783,19.7938866 1236.91783,1.01190518 C1236.91783,-17.7700762 1252.18323,-32.9955291 1271.01515,-32.9955291 C1289.84607,-32.9955291 1305.11147,-17.7700762 1305.11147,1.01190518" id="Fill-47" fill="#C1401E" mask="url(#mask-2)"></path>
                    <path d="M1275.82321,18.8623673 C1275.82321,20.1868401 1274.74696,21.2599822 1273.41888,21.2599822 C1272.0918,21.2599822 1271.01455,20.1868401 1271.01455,18.8623673 C1271.01455,17.5378946 1272.0918,16.4647525 1273.41888,16.4647525 C1274.74696,16.4647525 1275.82321,17.5378946 1275.82321,18.8623673" id="Fill-48" fill="#F79E3C" mask="url(#mask-2)"></path>
                    <path d="M1260.09194,9.27120969 C1260.09194,13.2436307 1256.86318,16.4640543 1252.87895,16.4640543 C1248.89671,16.4640543 1245.66695,13.2436307 1245.66695,9.27120969 C1245.66695,5.29878871 1248.89671,2.07836507 1252.87895,2.07836507 C1256.86318,2.07836507 1260.09194,5.29878871 1260.09194,9.27120969" id="Fill-49" fill="#F79E3C" mask="url(#mask-2)"></path>
                    <path d="M1294.01568,16.3310086 C1294.01568,17.7292849 1292.87947,18.8622676 1291.47844,18.8622676 C1290.07741,18.8622676 1288.9412,17.7292849 1288.9412,16.3310086 C1288.9412,14.9337297 1290.07741,13.7997497 1291.47844,13.7997497 C1292.87947,13.7997497 1294.01568,14.9337297 1294.01568,16.3310086" id="Fill-50" fill="#F79E3C" mask="url(#mask-2)"></path>
                    <path d="M1280.09664,0.212833201 C1280.09664,2.71417185 1278.06406,4.74177211 1275.5558,4.74177211 C1273.04754,4.74177211 1271.01495,2.71417185 1271.01495,0.212833201 C1271.01495,-2.28850544 1273.04754,-4.31610571 1275.5558,-4.31610571 C1278.06406,-4.31610571 1280.09664,-2.28850544 1280.09664,0.212833201" id="Fill-51" fill="#F79E3C" mask="url(#mask-2)"></path>
                    <path d="M1270.77692,25.2564392 C1270.77692,27.4635614 1268.98316,29.2527964 1266.7697,29.2527964 C1264.55624,29.2527964 1262.76248,27.4635614 1262.76248,25.2564392 C1262.76248,23.049317 1264.55624,21.2600819 1266.7697,21.2600819 C1268.98316,21.2600819 1270.77692,23.049317 1270.77692,25.2564392" id="Fill-52" fill="#F79E3C" mask="url(#mask-2)"></path>
                    <polygon id="Fill-53" fill="#FD8163" mask="url(#mask-2)" points="-5.53215822 751.997344 1725.79253 751.997344 1725.79253 665.372037 -5.53215822 665.372037"></polygon>
                    <polygon id="Fill-54" fill="#FC714D" mask="url(#mask-2)" points="-5.53215822 751.997344 1725.79253 751.997344 1725.79253 710.821999 -5.53215822 710.821999"></polygon>
                    <path d="M1413.6475,738.224922 L1426.58352,738.224922 C1430.214,738.224922 1433.15595,741.162099 1433.15595,744.78545 L1433.15595,749.183737 L1407.07407,749.183737 L1407.07407,744.78545 C1407.07407,741.162099 1410.01602,738.224922 1413.6475,738.224922" id="Fill-55" fill="#B64A2E" mask="url(#mask-2)"></path>
                    <path d="M1421.93365,738.224922 L1434.86966,738.224922 C1438.50014,738.224922 1441.4431,741.162099 1441.4431,744.78545 L1441.4431,749.183737 L1415.36021,749.183737 L1415.36021,744.78545 C1415.36021,741.162099 1418.30317,738.224922 1421.93365,738.224922" id="Fill-56" fill="#CF5434" mask="url(#mask-2)"></path>
                    <path d="M1209.05708,665.370142 C1209.73361,673.649094 1216.68178,680.142801 1225.1579,680.142801 L1410.35329,680.142801 C1411.72933,680.142801 1412.98146,680.704306 1413.89483,681.602912 C1414.7972,682.502517 1415.35981,683.751191 1415.35981,685.137499 C1415.35981,687.89715 1413.11937,690.132198 1410.35329,690.132198 L1374.25735,690.132198 C1372.76739,690.132198 1371.40334,690.74357 1370.42602,691.717975 C1369.4367,692.69238 1368.83712,694.052757 1368.83712,695.551765 C1368.83712,698.535818 1366.40781,700.958367 1363.41588,700.958367 L1257.82221,700.958367 C1254.47953,700.958367 1251.44964,702.306776 1249.25816,704.491956 C1247.06768,706.677137 1245.71562,709.699089 1245.71562,713.03321 C1245.71562,719.701452 1251.13685,725.096085 1257.82221,725.096085 L1690.17197,725.096085 C1693.97833,725.096085 1697.42094,723.560175 1699.91221,721.075792 C1702.40348,718.59041 1703.94341,715.155558 1703.94341,711.359667 C1703.94341,703.78085 1697.78368,697.624246 1690.17197,697.624246 L1624.83035,697.624246 C1622.99062,697.624246 1621.31279,696.888206 1620.11062,695.676433 C1618.90946,694.477626 1618.15798,692.817048 1618.15798,690.96897 C1618.15798,687.284781 1621.13691,684.312696 1624.83035,684.312696 L1642.93477,684.312696 C1651.19704,684.312696 1657.88339,677.632486 1657.88339,669.403401 L1657.88339,665.370142 L1209.05708,665.370142 Z" id="Fill-57" fill="#F06743" mask="url(#mask-2)"></path>
                    <path d="M920.135717,683.064221 C920.135717,685.024999 920.924169,686.785311 922.213274,688.058919 C923.503378,689.345493 925.281144,690.1314 927.234787,690.1314 L1008.1506,690.1314 C1012.58252,690.1314 1016.18801,693.727822 1016.18801,698.149048 C1016.18801,700.359162 1017.08939,702.36881 1018.54238,703.829919 C1019.99437,705.27906 1022.00997,706.177667 1024.22643,706.177667 L1136.52944,706.177667 C1141.97566,706.177667 1146.39559,701.770404 1146.39559,696.337872 C1146.39559,693.61612 1147.49783,691.155672 1149.28758,689.370427 C1151.06535,687.597149 1153.53164,686.498076 1156.26074,686.498076 L1162.39648,686.498076 C1167.85469,686.498076 1172.26163,682.089816 1172.26163,676.658281 L1172.26163,665.370342 L973.19487,665.370342 C971.65494,671.464113 966.121782,675.984076 959.536355,675.984076 L927.234787,675.984076 C923.315509,675.984076 920.135717,679.15563 920.135717,683.064221" id="Fill-58" fill="#F06743" mask="url(#mask-2)"></path>
                    <path d="M1432.13856,673.486727 L1512.16698,673.486727 L1512.16698,538.681728 L1484.42225,538.681728 C1455.5473,538.681728 1432.13856,562.04451 1432.13856,590.862764 L1432.13856,673.486727 Z" id="Fill-59" fill="#CF5434" mask="url(#mask-2)"></path>
                    <path d="M1355.66716,673.486727 L1406.94456,673.486727 L1406.94456,597.806273 L1387.60499,597.806273 C1369.96623,597.806273 1355.66716,612.078265 1355.66716,629.682383 L1355.66716,673.486727 Z" id="Fill-60" fill="#CF5434" mask="url(#mask-2)"></path>
                    <path d="M1372.36657,622.939141 L1372.36657,673.486527 L1422.75957,673.486527 L1422.75957,622.939141 C1422.75957,622.314804 1422.73459,621.690466 1422.68462,621.066129 C1422.49676,618.431146 1421.89517,615.920831 1420.94383,613.573084 C1417.22641,604.332692 1408.16171,597.802084 1397.57007,597.802084 C1383.64773,597.802084 1372.36657,609.053121 1372.36657,622.939141" id="Fill-61" fill="#B64A2E" mask="url(#mask-2)"></path>
                    <path d="M1381.74476,622.939141 L1381.74476,673.486527 L1432.13676,673.486527 L1432.13676,622.939141 C1432.13676,622.314804 1432.11178,621.690466 1432.06181,621.066129 C1431.87394,618.431146 1431.27336,615.920831 1430.32102,613.573084 C1426.6036,604.332692 1417.5389,597.802084 1406.94725,597.802084 C1393.02492,597.802084 1381.74476,609.053121 1381.74476,622.939141" id="Fill-62" fill="#FC714D" mask="url(#mask-2)"></path>
                    <path d="M1413.45713,617.319906 C1413.45713,618.356146 1413.88384,619.292652 1414.55937,619.966856 C1415.2349,620.641061 1416.17425,621.065929 1417.21352,621.065929 L1432.06121,621.065929 C1431.87434,618.430947 1431.27276,615.921629 1430.32142,613.573882 L1417.21352,613.573882 C1415.13497,613.573882 1413.45713,615.259393 1413.45713,617.319906" id="Fill-63" fill="#CF5434" mask="url(#mask-2)"></path>
                    <path d="M1394.26446,644.141975 C1394.26446,645.178216 1394.67717,646.114722 1395.3667,646.788926 C1396.04223,647.464128 1396.98157,647.887999 1398.02085,647.887999 L1432.13616,647.887999 L1432.13616,640.395951 L1398.02085,640.395951 C1395.9423,640.395951 1394.26446,642.069495 1394.26446,644.141975" id="Fill-64" fill="#CF5434" mask="url(#mask-2)"></path>
                    <path d="M1034.90362,624.78682 L1034.90362,624.78682 C1034.90362,619.269514 1039.3875,614.797423 1044.91866,614.797423 L1059.94423,614.797423 C1075.50142,614.797423 1088.11367,627.376923 1088.11367,642.8936 L1088.11367,673.487126 L1005.48205,673.487126 L1005.48205,654.131672 C1005.48205,643.442139 1014.17002,634.777215 1024.88857,634.777215 C1030.41973,634.777215 1034.90362,630.304127 1034.90362,624.78682" id="Fill-65" fill="#CF5434" mask="url(#mask-2)"></path>
                    <path d="M1047.06607,624.78682 L1047.06607,624.78682 C1047.06607,619.269514 1051.55096,614.797423 1057.08212,614.797423 L1072.10668,614.797423 C1087.66388,614.797423 1100.27612,627.376923 1100.27612,642.8936 L1100.27612,673.487126 L1017.6455,673.487126 L1017.6455,654.131672 C1017.6455,643.442139 1026.33347,634.777215 1037.05103,634.777215 C1042.58218,634.777215 1047.06607,630.304127 1047.06607,624.78682" id="Fill-66" fill="#B64A2E" mask="url(#mask-2)"></path>
                    <path d="M1027.24294,654.131472 L1027.24294,673.486926 L1109.87455,673.486926 L1109.87455,642.8934 C1109.87455,640.670321 1109.61174,638.510074 1109.12407,636.437593 C1108.38459,633.278007 1107.10748,630.330856 1105.39267,627.696871 C1100.38414,619.929556 1091.64521,614.797224 1081.70512,614.797224 L1066.68155,614.797224 C1061.14739,614.797224 1056.66451,619.267319 1056.66451,624.786621 C1056.66451,627.546272 1055.53829,630.044618 1053.73554,631.854797 C1051.9198,633.653009 1049.41554,634.777015 1046.64946,634.777015 C1036.57046,634.777015 1028.28222,642.443598 1027.33088,652.25846 C1027.26792,652.870829 1027.24294,653.495167 1027.24294,654.131472" id="Fill-67" fill="#FC714D" mask="url(#mask-2)"></path>
                    <path d="M1072.9407,632.067232 C1072.9407,633.278007 1073.42936,634.37708 1074.23081,635.163985 C1075.01926,635.950889 1076.12149,636.437593 1077.32366,636.437593 L1109.12358,636.437593 C1108.38509,633.278007 1107.10698,630.330856 1105.39317,627.696871 L1077.32366,627.696871 C1074.90734,627.696871 1072.9407,629.656651 1072.9407,632.067232" id="Fill-68" fill="#CF5434" mask="url(#mask-2)"></path>
                    <path d="M1027.24294,654.131472 L1027.24294,660.999183 L1050.6187,660.999183 C1053.03503,660.999183 1054.99966,659.039402 1054.99966,656.628821 C1054.99966,655.430014 1054.512,654.331938 1053.71056,653.545034 C1052.9211,652.745164 1051.83186,652.25846 1050.6187,652.25846 L1027.33088,652.25846 C1027.26792,652.870829 1027.24294,653.495167 1027.24294,654.131472" id="Fill-69" fill="#CF5434" mask="url(#mask-2)"></path>
                    <path d="M1363.30056,260.922334 C1363.1027,261.267415 1362.90484,261.612496 1362.69698,261.951593 C1361.99047,263.088565 1361.24799,264.179659 1360.43455,265.216897 C1359.00655,267.098885 1357.40566,268.818306 1355.68985,270.358205 C1352.28821,273.429027 1348.40591,275.829634 1344.2468,277.511156 C1338.48779,279.81901 1332.21315,280.7615 1325.97249,280.157109 C1320.65918,279.650458 1315.36885,278.036756 1310.43228,275.212278 C1294.48735,266.086581 1287.51219,247.361448 1292.62664,230.525284 C1292.9714,229.372355 1293.38412,228.233388 1293.85579,227.1024 C1294.48235,225.525599 1295.24083,223.9857 1296.11122,222.471732 C1297.18548,220.603707 1298.39164,218.862344 1299.72072,217.240663 C1302.41984,213.946436 1305.58964,211.18878 1309.06822,209.002602 C1320.80707,201.649185 1336.12843,200.828371 1348.9895,208.187772 C1358.81568,213.811794 1365.23322,223.074128 1367.52363,233.298898 C1369.54523,242.388691 1368.31108,252.214524 1363.30056,260.922334" id="Fill-70" fill="#E23365" mask="url(#mask-2)"></path>
                    <path d="M1360.43445,265.216597 C1359.00645,267.099583 1357.40556,268.818007 1355.68975,270.357906 C1352.28911,273.428728 1348.40581,275.829335 1344.2467,277.510856 C1338.48769,279.819708 1332.21305,280.7612 1325.97239,280.15681 C1320.65908,279.651157 1315.36875,278.036457 1310.43218,275.211979 C1294.48725,266.087279 1287.51209,247.362146 1292.62754,230.524985 C1292.9713,229.373053 1293.38402,228.233089 1293.85569,227.103098 C1294.09752,226.769985 1294.34435,226.45283 1294.60017,226.140661 C1297.2993,222.846434 1300.47509,220.079802 1303.95368,217.893624 C1315.69252,210.53921 1331.00789,209.728369 1343.86996,217.088767 C1353.69613,222.711793 1360.11368,231.974126 1362.40309,242.198896 C1364.07892,249.715878 1363.52431,257.738512 1360.43445,265.216597" id="Fill-71" fill="#E23365" mask="url(#mask-2)"></path>
                    <path d="M1367.51544,233.300095 L1346.15727,221.077645 C1344.25459,219.988545 1341.82128,220.645795 1340.72904,222.542743 C1340.18342,223.492214 1339.30303,224.130514 1338.31971,224.395808 C1337.33739,224.661101 1336.25315,224.553388 1335.30181,224.009836 L1309.07302,208.999809 C1320.81187,201.646392 1336.13023,200.834554 1348.9853,208.190963 C1358.80848,213.811994 1365.23202,223.077319 1367.51544,233.300095" id="Fill-72" fill="#AD1E4D" mask="url(#mask-2)"></path>
                    <path d="M1362.69069,261.952789 C1360.72605,265.148279 1358.3557,267.961787 1355.68755,270.361396 L1338.50348,260.526588 C1336.64278,259.461424 1334.27142,260.106706 1333.20316,261.96376 C1332.66754,262.894282 1331.81213,263.516625 1330.8518,263.770947 C1329.88747,264.031254 1328.8282,263.921546 1327.90085,263.390959 L1311.47126,253.988998 C1308.83209,252.478022 1307.91872,249.11797 1309.43367,246.484982 C1310.19115,245.168488 1310.34104,243.66948 1309.97729,242.311097 C1309.60355,240.953712 1308.71517,239.735955 1307.39609,238.980966 L1292.62534,230.528476 C1293.45976,227.772815 1294.61896,225.07101 1296.11292,222.472929 C1297.18817,220.604904 1298.39634,218.860549 1299.72042,217.245849 L1327.11439,232.923099 C1328.92314,233.957344 1329.5467,236.25323 1328.50942,238.056428 C1327.98978,238.958027 1327.89185,239.981302 1328.13968,240.910827 C1328.3935,241.844341 1329.00508,242.675128 1329.90246,243.189758 L1362.69069,261.952789 Z" id="Fill-73" fill="#AD1E4D" mask="url(#mask-2)"></path>
                    <path d="M1344.2396,277.510956 C1338.49059,279.824794 1332.21495,280.759305 1325.97628,280.159902 L1318.18669,275.702772 C1317.58511,275.358688 1317.17839,274.803167 1317.00451,274.183817 C1316.84163,273.561474 1316.91058,272.876299 1317.25534,272.276895 C1317.94586,271.079085 1317.52915,269.549159 1316.32199,268.858 L1311.03566,265.833056 C1310.27519,265.397216 1309.75655,264.691097 1309.54369,263.906187 C1309.33084,263.122275 1309.42078,262.251594 1309.85748,261.492615 C1310.73087,259.974657 1312.67752,259.449057 1314.20546,260.323728 L1344.2396,277.510956 Z" id="Fill-74" fill="#AD1E4D" mask="url(#mask-2)"></path>
                    <path d="M1368.11852,246.666798 C1367.96962,247.880565 1367.75177,249.079373 1367.46597,250.265215 C1384.47316,263.156883 1392.58952,273.328794 1390.70583,276.605069 C1387.89978,281.481083 1360.77462,275.01231 1322.98686,253.387899 C1285.1991,231.763487 1265.91149,211.670996 1268.71555,206.794981 C1270.60124,203.518706 1283.49129,205.368779 1303.22458,213.503116 C1304.12596,212.66834 1305.05431,211.875451 1306.02864,211.135422 C1286.16743,202.735791 1269.41606,198.918956 1265.83555,205.145374 C1260.39533,214.601192 1290.36551,238.540439 1321.33401,256.262244 C1352.3015,273.984049 1388.14761,287.709496 1393.58683,278.253678 C1397.16934,272.02726 1385.41151,259.529543 1368.11852,246.666798" id="Fill-75" fill="#FDD4EC" mask="url(#mask-2)"></path>
                    <path d="M1389.82904,523.908471 C1389.82904,524.244576 1389.55623,524.517848 1389.21846,524.517848 C1388.8807,524.517848 1388.60689,524.244576 1388.60689,523.908471 C1388.60689,523.572366 1388.8807,523.299094 1389.21846,523.299094 C1389.55623,523.299094 1389.82904,523.572366 1389.82904,523.908471" id="Fill-76" fill="#FFFFFF" mask="url(#mask-2)"></path>
                    <path d="M1139.00712,354.203216 C1139.00712,354.203216 1099.52054,445.837184 1221.01317,447.786991 C1342.50381,449.736799 1292.47954,530.937552 1292.47954,530.937552" id="Stroke-77" stroke="#FFFFFF" mask="url(#mask-2)"></path>
                    <path d="M1163.67549,346.721141 L1123.82217,325.457768 C1122.43313,324.716742 1121.9105,322.992334 1122.65298,321.606026 L1144.95949,280.018778 C1145.70297,278.633467 1147.42778,278.111856 1148.81581,278.851885 L1188.67013,300.116256 C1190.05717,300.857282 1190.58181,302.58169 1189.83832,303.967001 L1167.53181,345.555246 C1166.78933,346.93956 1165.06353,347.461171 1163.67549,346.721141" id="Fill-78" fill="#808080" mask="url(#mask-2)"></path>
                    <path d="M1163.00216,343.643438 L1126.76233,324.30793 C1125.5012,323.634723 1125.02453,322.066899 1125.70006,320.807253 L1145.98398,282.989965 C1146.65951,281.731317 1148.22842,281.256581 1149.49054,281.929788 L1185.72838,301.265296 C1186.9915,301.9395 1187.46717,303.507325 1186.79164,304.76697 L1166.50872,342.583261 C1165.83319,343.841909 1164.26428,344.316645 1163.00216,343.643438" id="Fill-79" fill="#474747" mask="url(#mask-2)"></path>
                    <path d="M1183.76704,306.346264 L1166.99369,337.619979 L1129.57068,317.652156 L1146.34403,286.379438 C1146.62183,285.86082 1147.01156,285.437946 1147.46625,285.123782 C1148.55149,284.361812 1150.02147,284.222183 1151.27261,284.889407 L1182.26808,301.427364 C1183.52521,302.098576 1184.22572,303.396121 1184.19274,304.718599 C1184.18275,305.27013 1184.04485,305.827646 1183.76704,306.346264" id="Fill-80" fill="#C5C5C5" mask="url(#mask-2)"></path>
                    <path d="M1183.76704,306.346264 L1169.80873,332.370958 L1137.8879,315.340312 L1153.56401,286.11215 L1182.26808,301.427364 C1183.52521,302.098576 1184.22572,303.396121 1184.19274,304.718599 C1184.18275,305.27013 1184.04485,305.827646 1183.76704,306.346264" id="Fill-81" fill="#DFDFDF" mask="url(#mask-2)"></path>
                    <path d="M1166.99359,337.619879 L1148.49943,372.101052 C1148.34654,372.386292 1148.17666,372.661559 1147.99178,372.922863 C1147.61105,373.482373 1147.16536,373.984037 1146.6697,374.415887 C1146.42887,374.631313 1146.17405,374.832777 1145.90323,375.010304 C1143.39897,376.774606 1139.99833,377.085777 1137.10734,375.543883 C1133.90756,373.83643 1132.26471,370.365673 1132.74037,366.98368 C1132.82532,366.332414 1132.9962,365.684141 1133.25102,365.057809 C1133.36794,364.759603 1133.50285,364.466384 1133.65574,364.181143 L1147.17735,338.97128 C1147.35223,338.646146 1147.47714,338.317023 1147.55908,337.972939 C1147.76294,337.195011 1147.73296,336.387162 1147.51012,335.638157 C1147.18035,334.568007 1146.44686,333.619533 1145.3786,333.049052 C1143.24108,331.909088 1140.58393,332.712947 1139.44172,334.843274 L1125.91911,360.054134 C1125.76722,360.338377 1125.59634,360.614641 1125.41346,360.874948 C1125.03273,361.434458 1124.58604,361.93712 1124.09038,362.367972 C1123.84955,362.584396 1123.59473,362.785859 1123.32291,362.963386 C1120.81865,364.727688 1117.41901,365.038859 1114.52802,363.495968 C1111.32824,361.788515 1109.68439,358.317758 1110.16105,354.936762 C1110.246,354.285497 1110.41788,353.637223 1110.6727,353.010891 C1110.78762,352.712685 1110.92353,352.418469 1111.07642,352.134226 L1129.57058,317.652056 L1166.99359,337.619879 Z" id="Fill-82" fill="#C5C5C5" mask="url(#mask-2)"></path>
                    <path d="M1166.99359,337.619879 L1148.49943,372.101052 C1148.34654,372.386292 1148.17666,372.661559 1147.99178,372.922863 C1147.61105,373.482373 1147.16536,373.984037 1146.6697,374.415887 C1146.42887,374.631313 1146.17405,374.832777 1145.90323,375.010304 C1144.89793,374.884639 1143.89063,374.582444 1142.93729,374.072801 C1139.73752,372.366345 1138.09366,368.894591 1138.57033,365.513595 C1138.65527,364.862329 1138.82615,364.214056 1139.08097,363.587724 C1139.19689,363.289518 1139.3318,362.996299 1139.48569,362.711058 L1149.53171,343.979942 C1150.10432,342.914778 1150.18926,341.713976 1149.86448,340.646818 C1149.53771,339.571681 1148.80522,338.62221 1147.73596,338.052726 C1147.679,338.021809 1147.62204,337.991888 1147.55908,337.972939 C1147.76294,337.195011 1147.73296,336.387162 1147.51012,335.638157 C1147.18035,334.568007 1146.44686,333.619533 1145.3786,333.049052 C1143.24108,331.909088 1140.58393,332.712947 1139.44172,334.843274 L1125.91911,360.054134 C1125.76722,360.338377 1125.59634,360.614641 1125.41346,360.874948 C1125.03273,361.434458 1124.58604,361.93712 1124.09038,362.367972 C1123.84955,362.584396 1123.59473,362.785859 1123.32291,362.963386 C1122.31761,362.837721 1121.31131,362.534529 1120.35697,362.025883 C1117.1582,360.31843 1115.51434,356.847673 1115.99101,353.46568 C1116.07495,352.814414 1116.24683,352.166141 1116.50265,351.539809 C1116.61757,351.2426 1116.75348,350.948384 1116.90637,350.664141 L1133.49085,319.743486 L1166.99359,337.619879 Z" id="Fill-83" fill="#DFDFDF" mask="url(#mask-2)"></path>
                    <path d="M1125.41306,360.875347 C1125.03233,361.434857 1124.58664,361.936521 1124.09098,362.368371 L1110.16066,354.936164 C1110.2456,354.285896 1110.41748,353.636625 1110.6723,353.010293 L1125.41306,360.875347 Z" id="Fill-84" fill="#407C97" mask="url(#mask-2)"></path>
                    <polygon id="Fill-85" fill="#407C97" mask="url(#mask-2)" points="1128.82669 354.634667 1127.90933 356.344114 1113.06664 348.424206 1113.983 346.714758"></polygon>
                    <polygon id="Fill-86" fill="#407C97" mask="url(#mask-2)" points="1132.18866 348.366161 1131.27129 350.075608 1116.4286 342.1557 1117.34497 340.446252"></polygon>
                    <polygon id="Fill-87" fill="#407C97" mask="url(#mask-2)" points="1135.55052 342.097754 1134.63316 343.807202 1119.79047 335.887293 1120.70683 334.177846"></polygon>
                    <polygon id="Fill-88" fill="#407C97" mask="url(#mask-2)" points="1138.91249 335.829746 1137.99612 337.539194 1123.15243 329.619286 1124.0688 327.909838"></polygon>
                    <path d="M1150.82901,285.429767 L1146.97269,289.34534 L1145.60664,290.727659 L1141.97416,294.417831 L1140.61311,295.803142 L1136.97863,299.485336 L1135.61758,300.869649 L1131.9851,304.560819 L1130.61905,305.942141 L1127.6661,308.941154 C1127.44026,309.17154 1127.19642,309.392951 1126.9446,309.58843 C1126.42496,310.022275 1125.85236,310.377329 1125.25577,310.652596 C1122.16092,312.108718 1118.34257,311.581123 1115.76336,309.046872 C1114.46227,307.773264 1113.66282,306.181503 1113.37003,304.52292 C1113.07923,302.872316 1113.28009,301.15489 1113.9866,299.60402 C1114.25541,299.007608 1114.60217,298.430146 1115.02188,297.90654 C1115.21774,297.652218 1115.4296,297.405874 1115.65744,297.175487 L1118.61339,294.171487 L1119.97544,292.795153 L1123.60892,289.10498 L1124.96897,287.719669 L1124.97497,287.722661 L1127.02654,285.637215 C1127.56017,285.093663 1128.13078,284.591999 1128.71437,284.13322 C1129.23901,283.731291 1129.78163,283.362273 1130.33924,283.021182 C1131.99909,282.023838 1133.79584,281.332678 1135.64056,280.961667 C1136.451,280.793115 1137.27243,280.688394 1138.09586,280.644511 C1140.4742,280.512862 1142.87853,280.879884 1145.12997,281.751563 C1147.19754,282.554425 1149.14119,283.782155 1150.82901,285.429767" id="Fill-89" fill="#C5C5C5" mask="url(#mask-2)"></path>
                    <path d="M1145.12977,281.751663 L1143.19212,283.722414 L1141.82507,285.103736 L1138.19259,288.794906 L1136.83253,290.180216 L1133.19706,293.861413 L1131.836,295.246724 L1128.20452,298.936896 L1126.83747,300.319215 L1123.88452,303.317231 C1123.65868,303.547618 1123.41485,303.770025 1123.16303,303.965505 C1122.64339,304.399349 1122.07178,304.753406 1121.4752,305.028673 C1118.89899,306.242441 1115.81413,306.075884 1113.36983,304.52302 C1113.07903,302.872416 1113.27989,301.154989 1113.9864,299.60412 C1114.25521,299.007708 1114.60197,298.430246 1115.02168,297.90664 C1115.21754,297.652317 1115.4294,297.405973 1115.65724,297.175587 L1118.61319,294.171587 L1119.97524,292.795252 L1123.60872,289.10508 L1124.96877,287.719769 L1124.97477,287.722761 L1127.02634,285.637315 C1127.55997,285.093762 1128.13058,284.592098 1128.71417,284.13332 C1129.23881,283.73139 1129.78243,283.362373 1130.33904,283.021282 C1131.99889,282.023938 1133.79564,281.332778 1135.64036,280.961766 C1136.4508,280.793215 1137.27223,280.688494 1138.09566,280.644611 C1140.474,280.512961 1142.87833,280.879984 1145.12977,281.751663" id="Fill-90" fill="#DFDFDF" mask="url(#mask-2)"></path>
                    <path d="M1126.9471,309.587134 C1126.42446,310.016989 1125.85486,310.374038 1125.25727,310.648308 L1113.9881,299.605715 C1114.25391,299.005314 1114.60167,298.430844 1115.02238,297.901254 L1126.9471,309.587134 Z" id="Fill-91" fill="#407C97" mask="url(#mask-2)"></path>
                    <polygon id="Fill-92" fill="#407C97" mask="url(#mask-2)" points="1131.9847 304.557129 1130.62265 305.940445 1118.61398 294.172784 1119.97604 292.789468"></polygon>
                    <polygon id="Fill-93" fill="#407C97" mask="url(#mask-2)" points="1136.97923 299.486134 1135.61718 300.86945 1123.60952 289.101788 1124.97157 287.71947"></polygon>
                    <path d="M1141.97476,294.416136 L1140.61471,295.801446 L1128.71497,284.131525 C1129.23961,283.729595 1129.78423,283.360578 1130.34084,283.019486 L1141.97476,294.416136 Z" id="Fill-94" fill="#407C97" mask="url(#mask-2)"></path>
                    <path d="M1146.97329,289.343744 L1145.60824,290.726063 L1135.64216,280.959073 C1136.4526,280.790522 1137.27303,280.685801 1138.09745,280.641918 L1146.97329,289.343744 Z" id="Fill-95" fill="#407C97" mask="url(#mask-2)"></path>
                    <path d="M1191.79756,341.120856 C1191.37985,341.792068 1190.86721,342.390475 1190.28761,342.909093 C1188.36695,344.640482 1185.67182,345.460299 1182.93672,344.886826 C1179.39118,344.153779 1176.83196,341.278436 1176.3293,337.902427 C1176.22837,337.25515 1176.20539,336.583938 1176.28034,335.911728 C1176.30232,335.594573 1176.35229,335.269439 1176.41824,334.953281 L1177.28164,330.839237 L1177.67537,328.939297 L1178.73763,323.876779 L1179.13735,321.97983 L1180.19062,316.919307 L1180.59035,315.022359 L1181.65261,309.959841 L1182.04733,308.059901 L1183.17255,302.687209 C1185.24811,303.120056 1187.15579,303.918929 1188.84261,304.994065 C1191.07307,306.425254 1192.90979,308.358107 1194.23087,310.595149 C1194.65158,311.304261 1195.02032,312.042295 1195.32911,312.808255 C1196.04361,314.545629 1196.46432,316.418641 1196.55326,318.349498 C1196.57824,319.000764 1196.57125,319.657016 1196.52728,320.315263 C1196.46932,321.053298 1196.36739,321.805295 1196.2105,322.550311 L1195.60892,325.410694 L1195.61491,325.413686 L1195.21519,327.310634 L1194.15293,332.373152 L1193.7622,334.267108 L1192.8978,338.387136 C1192.82985,338.703294 1192.74291,339.01646 1192.63898,339.319652 C1192.43612,339.95895 1192.14732,340.566332 1191.79756,341.120856" id="Fill-96" fill="#C5C5C5" mask="url(#mask-2)"></path>
                    <path d="M1191.79756,341.120856 C1191.37985,341.792068 1190.86721,342.390475 1190.28761,342.909093 C1190.03878,342.879173 1189.78196,342.838282 1189.53114,342.784425 C1185.9866,342.051378 1183.42738,339.176035 1182.92373,335.800026 C1182.82379,335.152749 1182.80081,334.48054 1182.87476,333.809327 C1182.89774,333.492172 1182.94771,333.16604 1183.01466,332.85088 L1183.87606,328.736836 L1184.27079,326.835898 L1185.33205,321.774378 L1185.73277,319.876432 L1186.78504,314.816906 L1187.18577,312.919958 L1188.24703,307.85744 L1188.64275,305.9575 L1188.84261,304.994065 C1191.07307,306.425254 1192.90979,308.358107 1194.23087,310.595149 C1194.65158,311.304261 1195.02032,312.042295 1195.32911,312.808255 C1196.04361,314.545629 1196.46432,316.418641 1196.55326,318.349498 C1196.57824,319.000764 1196.57125,319.657016 1196.52728,320.315263 C1196.46932,321.053298 1196.36739,321.805295 1196.2105,322.550311 L1195.60892,325.410694 L1195.61491,325.413686 L1195.21519,327.310634 L1194.15293,332.373152 L1193.7622,334.267108 L1192.8978,338.387136 C1192.82985,338.703294 1192.74291,339.01646 1192.63898,339.319652 C1192.43612,339.95895 1192.14732,340.566332 1191.79756,341.120856" id="Fill-97" fill="#DFDFDF" mask="url(#mask-2)"></path>
                    <path d="M1176.28104,335.909135 C1176.21309,336.581345 1176.23107,337.252557 1176.334,337.900831 L1191.79726,341.121255 C1192.15202,340.567729 1192.43782,339.960346 1192.64467,339.317059 L1176.28104,335.909135 Z" id="Fill-98" fill="#407C97" mask="url(#mask-2)"></path>
                    <polygon id="Fill-99" fill="#407C97" mask="url(#mask-2)" points="1177.68047 328.938 1177.28374 330.835946 1193.7623 334.267806 1194.15902 332.369861"></polygon>
                    <polygon id="Fill-100" fill="#407C97" mask="url(#mask-2)" points="1179.13745 321.979431 1178.74073 323.877377 1195.21829 327.309238 1195.61501 325.411292"></polygon>
                    <path d="M1180.59344,315.020963 L1180.19372,316.917911 L1196.52938,320.313867 C1196.57435,319.65562 1196.58134,319.000365 1196.55536,318.348102 L1180.59344,315.020963 Z" id="Fill-101" fill="#407C97" mask="url(#mask-2)"></path>
                    <path d="M1182.04953,308.058505 L1181.65481,309.958445 L1195.33131,312.806859 C1195.02152,312.040899 1194.65378,311.301867 1194.23307,310.593753 L1182.04953,308.058505 Z" id="Fill-102" fill="#407C97" mask="url(#mask-2)"></path>
                    <path d="M1147.99208,372.922863 C1147.61135,373.482373 1147.16566,373.984037 1146.67,374.415887 L1132.73968,366.98368 C1132.82462,366.332414 1132.9965,365.684141 1133.25132,365.057809 L1147.99208,372.922863 Z" id="Fill-103" fill="#407C97" mask="url(#mask-2)"></path>
                    <polygon id="Fill-104" fill="#407C97" mask="url(#mask-2)" points="1151.40571 366.682183 1150.48935 368.39163 1135.64566 360.471722 1136.56202 358.762275"></polygon>
                    <polygon id="Fill-105" fill="#407C97" mask="url(#mask-2)" points="1154.76768 360.413677 1153.85131 362.123124 1139.00762 354.203216 1139.92399 352.493768"></polygon>
                    <polygon id="Fill-106" fill="#407C97" mask="url(#mask-2)" points="1158.13054 354.14527 1157.21318 355.854718 1142.37049 347.934809 1143.28685 346.225362"></polygon>
                    <polygon id="Fill-107" fill="#407C97" mask="url(#mask-2)" points="1161.49251 347.876764 1160.57515 349.586211 1145.73245 341.666303 1146.64882 339.956856"></polygon>
                    <path d="M1155.40983,309.099732 L1154.88819,310.074137 C1154.77727,310.27959 1154.64736,310.46709 1154.49747,310.635641 C1153.57211,311.702799 1152.0012,312.029928 1150.6981,311.334779 L1146.41308,309.048867 C1144.90413,308.24401 1144.34252,306.374988 1145.14596,304.876977 L1145.6686,303.902572 C1146.35012,302.630959 1147.80511,302.02956 1149.15118,302.36766 C1149.39101,302.428498 1149.62285,302.516264 1149.85169,302.63794 L1154.13772,304.923852 C1155.64467,305.728709 1156.21427,307.600724 1155.40983,309.099732" id="Fill-108" fill="#264A5C" mask="url(#mask-2)"></path>
                    <path d="M1155.40983,309.099732 L1154.88819,310.074137 C1154.77727,310.27959 1154.64736,310.46709 1154.49747,310.635641 C1154.25563,310.57979 1154.0168,310.490029 1153.78896,310.367356 L1149.50393,308.081443 C1147.99598,307.276587 1147.43337,305.407564 1148.23981,303.90357 L1148.75945,302.934151 C1148.86937,302.729696 1149.00228,302.536211 1149.15118,302.36766 C1149.39101,302.428498 1149.62285,302.516264 1149.85169,302.63794 L1154.13772,304.923852 C1155.64467,305.728709 1156.21427,307.600724 1155.40983,309.099732" id="Fill-109" fill="#407C97" mask="url(#mask-2)"></path>
                    <path d="M1169.26541,317.122267 C1169.05056,317.521204 1168.77175,317.863293 1168.45397,318.140555 C1167.34574,319.110971 1165.70688,319.343352 1164.33583,318.611301 C1162.55907,317.663824 1161.88953,315.459694 1162.83687,313.693398 C1163.45245,312.54745 1164.58966,311.864269 1165.79482,311.782487 C1166.45936,311.733617 1167.14089,311.862275 1167.77544,312.200374 C1169.54522,313.145856 1170.21575,315.349986 1169.26541,317.122267" id="Fill-110" fill="#264A5C" mask="url(#mask-2)"></path>
                    <path d="M1169.26541,317.122267 C1169.05056,317.521204 1168.77175,317.863293 1168.45397,318.140555 C1167.79443,318.192417 1167.10891,318.060767 1166.48034,317.724662 C1164.70358,316.777186 1164.03404,314.573056 1164.98438,312.800775 C1165.19823,312.401838 1165.47704,312.059749 1165.79482,311.782487 C1166.45936,311.733617 1167.14089,311.862275 1167.77544,312.200374 C1169.54522,313.145856 1170.21575,315.349986 1169.26541,317.122267" id="Fill-111" fill="#407C97" mask="url(#mask-2)"></path>
                    <path d="M1162.62252,326.396867 C1162.45364,326.710033 1162.2218,326.967348 1161.943,327.155846 C1161.29944,327.603654 1160.42405,327.686433 1159.68157,327.290488 C1158.6183,326.723996 1158.22358,325.405507 1158.78819,324.351315 C1159.27685,323.439742 1160.33611,323.014874 1161.29644,323.293133 C1161.44234,323.334024 1161.58924,323.390873 1161.73214,323.466671 C1162.78941,324.03017 1163.18713,325.342675 1162.62252,326.396867" id="Fill-112" fill="#264A5C" mask="url(#mask-2)"></path>
                    <path d="M1162.62252,326.396867 C1162.45364,326.710033 1162.2218,326.967348 1161.943,327.155846 C1161.7971,327.114955 1161.6502,327.058106 1161.51329,326.9853 C1160.45003,326.417812 1160.05531,325.10032 1160.61991,324.046128 C1160.7888,323.732962 1161.01864,323.481631 1161.29644,323.293133 C1161.44234,323.334024 1161.58924,323.390873 1161.73214,323.466671 C1162.78941,324.03017 1163.18713,325.342675 1162.62252,326.396867" id="Fill-113" fill="#407C97" mask="url(#mask-2)"></path>
                    <path d="M1184.19254,304.718799 C1176.97755,306.989751 1168.89217,306.472129 1161.69317,302.631358 C1154.49417,298.790586 1149.57558,292.369686 1147.46605,285.123982 C1148.55129,284.361014 1150.02227,284.222383 1151.2734,284.889606 L1182.26788,301.427563 C1183.52501,302.098776 1184.22552,303.395323 1184.19254,304.718799" id="Fill-114" fill="#C5C5C5" mask="url(#mask-2)"></path>
                    <path d="M1203.75516,288.9473 L1200.28857,295.409091 C1200.14866,295.671393 1199.98977,295.924718 1199.8129,296.159094 C1198.06111,298.522799 1194.78139,299.308706 1192.10725,297.881507 L1188.48476,295.949652 L1197.6544,278.853182 L1201.27588,280.786034 C1204.21884,282.356851 1205.32907,286.012117 1203.75516,288.9473" id="Fill-115" fill="#808080" mask="url(#mask-2)"></path>
                    <path d="M1161.56766,259.599656 L1152.39802,276.695129 L1148.77554,274.762276 C1145.83358,273.192457 1144.72335,269.536194 1146.29726,266.602008 L1149.76285,260.140216 C1150.8511,258.110622 1152.94065,256.953703 1155.09515,256.952705 C1156.05748,256.952705 1157.0368,257.182094 1157.94517,257.667801 L1161.56766,259.599656 Z" id="Fill-116" fill="#808080" mask="url(#mask-2)"></path>
                    <path d="M1203.75516,288.9473 L1200.28857,295.409091 C1200.14866,295.671393 1199.98977,295.924718 1199.8129,296.159094 C1198.84157,296.161089 1197.86325,295.9317 1196.94789,295.444996 L1193.3314,293.515135 L1200.40748,280.323267 L1201.27588,280.786034 C1204.21884,282.356851 1205.32907,286.012117 1203.75516,288.9473" id="Fill-117" fill="#A6A6A6" mask="url(#mask-2)"></path>
                    <path d="M1161.56766,259.599656 L1154.49157,272.791525 L1153.62417,272.328757 C1150.67622,270.755946 1149.56999,267.101677 1151.14389,264.167491 L1154.61049,257.7057 C1154.75439,257.437414 1154.91228,257.185086 1155.09515,256.952705 C1156.05748,256.952705 1157.0368,257.182094 1157.94517,257.667801 L1161.56766,259.599656 Z" id="Fill-118" fill="#A6A6A6" mask="url(#mask-2)"></path>
                    <path d="M1198.19842,289.141084 C1195.16652,294.794029 1190.32588,298.859203 1184.76475,300.993519 C1178.00144,303.614539 1170.16988,303.379166 1163.26768,299.695975 C1150.6984,292.989834 1145.96069,277.394367 1152.68502,264.857753 C1157.79148,255.335113 1168.03636,250.320468 1178.18232,251.394607 C1181.39309,251.737693 1184.59287,252.690157 1187.61477,254.301865 C1200.18504,261.009003 1204.92275,276.60447 1198.19842,289.141084" id="Fill-119" fill="#A6A6A6" mask="url(#mask-2)"></path>
                    <path d="M1198.19842,289.141084 C1195.16652,294.794029 1190.32588,298.859203 1184.76475,300.993519 C1181.55997,300.653425 1178.36419,299.703954 1175.34229,298.091248 C1162.77302,291.385108 1158.03031,275.785651 1164.75364,263.250035 C1167.78554,257.597089 1172.62618,253.531915 1178.18232,251.394607 C1181.39309,251.737693 1184.59287,252.690157 1187.61477,254.301865 C1200.18504,261.009003 1204.92275,276.60447 1198.19842,289.141084" id="Fill-120" fill="#DFDFDF" mask="url(#mask-2)"></path>
                    <path d="M1181.63082,256.238008 C1181.44695,256.818463 1180.83038,257.191469 1180.25778,257.052839 C1179.68717,256.914208 1179.31743,256.300841 1179.43135,255.687475 C1179.54627,255.074108 1180.16284,254.701101 1180.80839,254.858682 C1181.45295,255.015265 1181.82269,255.626637 1181.63082,256.238008" id="Fill-121" fill="#407C97" mask="url(#mask-2)"></path>
                    <path d="M1185.67981,257.909856 C1185.37902,258.457398 1184.70249,258.70075 1184.16986,258.450417 C1183.63723,258.199086 1183.3954,257.524881 1183.62824,256.944427 C1183.86207,256.36497 1184.5376,256.122616 1185.13819,256.404864 C1185.73877,256.687112 1185.9806,257.362314 1185.67981,257.909856" id="Fill-122" fill="#407C97" mask="url(#mask-2)"></path>
                    <path d="M1189.32178,260.341879 C1188.92006,260.820605 1188.21155,260.925326 1187.73988,260.573263 C1187.27121,260.219206 1187.16528,259.511092 1187.49705,259.000452 C1187.84581,258.462883 1188.55631,258.354173 1189.08695,258.754108 C1189.61858,259.151051 1189.7225,259.862157 1189.32178,260.341879" id="Fill-123" fill="#407C97" mask="url(#mask-2)"></path>
                    <path d="M1197.58654,290.281148 C1196.15953,292.942061 1193.98404,295.013545 1191.30191,296.462686 C1184.59456,300.103988 1174.7584,299.824732 1165.77064,295.029502 C1153.20137,288.323361 1147.06962,275.324978 1152.07315,265.99682 C1155.36486,259.860162 1162.6588,256.839207 1170.84911,257.406696 C1175.09716,257.693931 1179.59304,258.956569 1183.88905,261.249462 C1196.45933,267.955603 1202.59007,280.951992 1197.58654,290.281148" id="Fill-124" fill="#303030" mask="url(#mask-2)"></path>
                    <path d="M1197.58654,290.281148 C1196.15953,292.942061 1193.98404,295.013545 1191.30191,296.462686 C1187.05785,296.170464 1182.56797,294.910818 1178.27695,292.620917 C1165.70768,285.914776 1159.56994,272.9134 1164.57347,263.585242 C1166.00148,260.924328 1168.17697,258.853842 1170.84911,257.406696 C1175.09716,257.693931 1179.59304,258.956569 1183.88905,261.249462 C1196.45933,267.955603 1202.59007,280.951992 1197.58654,290.281148" id="Fill-125" fill="#424242" mask="url(#mask-2)"></path>
                    <path d="M1157.26394,275.845492 L1157.26394,275.845492 C1157.0421,275.116433 1157.45481,274.346484 1158.1863,274.125073 L1176.75741,268.513019 C1177.4879,268.292606 1178.26136,268.704509 1178.48221,269.433567 C1178.70406,270.163623 1178.29034,270.933573 1177.55985,271.153986 L1158.98975,276.76604 C1158.25725,276.98745 1157.48579,276.57455 1157.26394,275.845492" id="Fill-126" fill="#DFDFDF" mask="url(#mask-2)"></path>
                    <path d="M1172.66735,284.064304 L1172.66735,284.064304 C1172.4465,283.335245 1172.85921,282.565296 1173.59071,282.343886 L1192.16181,276.731831 C1192.8923,276.511418 1193.66477,276.923321 1193.88561,277.65238 C1194.10746,278.382435 1193.69475,279.152385 1192.96425,279.372798 L1174.39315,284.984852 C1173.66166,285.206263 1172.89019,284.793362 1172.66735,284.064304" id="Fill-127" fill="#DFDFDF" mask="url(#mask-2)"></path>
                    <path d="M1169.88898,322.393429 L1169.88898,322.393429 C1169.39632,322.13013 1169.20945,321.519756 1169.47327,321.028065 L1174.33289,311.968193 C1174.59671,311.476502 1175.20928,311.291993 1175.70194,311.554295 C1176.1946,311.817594 1176.38047,312.427968 1176.11665,312.919659 L1171.25703,321.979531 C1170.99321,322.471222 1170.38064,322.65573 1169.88898,322.393429" id="Fill-128" fill="#FFFFFF" mask="url(#mask-2)"></path>
                    <path d="M1191.3106,333.046658 L1191.3106,333.046658 C1190.77098,332.904038 1190.4492,332.351509 1190.5911,331.812944 L1193.22827,321.880395 C1193.37117,321.341829 1193.92479,321.020685 1194.46441,321.163305 C1195.00404,321.305925 1195.32681,321.858454 1195.18291,322.397019 L1192.54674,332.329568 C1192.40484,332.868134 1191.85023,333.189278 1191.3106,333.046658" id="Fill-129" fill="#FFFFFF" mask="url(#mask-2)"></path>
                    <path d="M1153.33897,354.964887 L1153.33897,354.964887 C1152.84631,354.701589 1152.66044,354.091214 1152.92426,353.599524 L1157.78388,344.539651 C1158.0477,344.04796 1158.66027,343.863452 1159.15193,344.125753 C1159.64559,344.389052 1159.83046,344.999427 1159.56665,345.491117 L1154.70802,354.55099 C1154.4442,355.04268 1153.83163,355.227189 1153.33897,354.964887" id="Fill-130" fill="#FFFFFF" mask="url(#mask-2)"></path>
                </g>
                <g id="Group-136" transform="translate(25.981957, 39.329262)">
                    <path d="M1005.27189,662.461389 L33.9304372,662.461389 C15.4352811,662.461389 0.440693963,647.49724 0.440693963,629.036403 L0.440693963,34.0259849 C0.440693963,15.5661456 15.4352811,0.600999469 33.9304372,0.600999469 L1005.27189,0.600999469 C1023.76805,0.600999469 1038.76264,15.5661456 1038.76264,34.0259849 L1038.76264,629.036403 C1038.76264,647.49724 1023.76805,662.461389 1005.27189,662.461389" id="Fill-132" fill="#330A32"></path>
                    <path d="M1005.27189,662.461389 L33.9304372,662.461389 C15.4352811,662.461389 0.440693963,647.49724 0.440693963,629.036403 L0.440693963,34.0259849 C0.440693963,15.5661456 15.4352811,0.600999469 33.9304372,0.600999469 L1005.27189,0.600999469 C1023.76805,0.600999469 1038.76264,15.5661456 1038.76264,34.0259849 L1038.76264,629.036403 C1038.76264,647.49724 1023.76805,662.461389 1005.27189,662.461389 Z" id="Stroke-134" stroke="#4CEEF3" stroke-width="4"></path>
                </g>
            </g>
        </g>
    </g>
</svg>