<?xml version="1.0" encoding="UTF-8"?>
<svg width="107px" height="107px" viewBox="0 0 107 107" version="1.1" xmlns="http://www.w3.org/2000/svg" xmlns:xlink="http://www.w3.org/1999/xlink">
    <!-- Generator: Sketch 53.1 (72631) - https://sketchapp.com -->
    <title>Group 36Space_invite_button</title>
    <desc>Created with Sketch.</desc>
    <g id="Page-1" stroke="none" stroke-width="1" fill="none" fill-rule="evenodd">
        <g id="Group-36" transform="translate(1.000000, 1.000000)">
            <path d="M104.4209,52.6826 C104.4209,81.2586 81.2559,104.4236 52.6799,104.4236 C24.1039,104.4236 0.9389,81.2586 0.9389,52.6826 C0.9389,24.1066 24.1039,0.9416 52.6799,0.9416 C81.2559,0.9416 104.4209,24.1066 104.4209,52.6826" id="Fill-2" fill="#F79E3C"></path>
            <path d="M104.4209,52.6826 C104.4209,81.2586 81.2559,104.4236 52.6799,104.4236 C24.1039,104.4236 0.9389,81.2586 0.9389,52.6826 C0.9389,24.1066 24.1039,0.9416 52.6799,0.9416 C81.2559,0.9416 104.4209,24.1066 104.4209,52.6826 Z" id="Stroke-4" stroke="#FFFFFF" stroke-width="3"></path>
            <path d="M82.0195,45.0474 C78.6335,43.9654 74.4065,45.3244 71.0215,47.2214 C69.7275,47.9464 68.8295,49.2174 68.5645,50.6774 L68.2405,52.4564 C68.0785,53.3474 68.1595,54.2664 68.4795,55.1134 C70.3925,60.1594 74.3705,61.3384 77.2295,61.5944 C77.9905,65.6804 80.7305,66.9374 83.1155,67.2124 C85.1345,72.3524 88.8505,75.0894 90.2585,72.1844 C94.8355,62.7364 86.8535,46.5924 82.0195,45.0474" id="Fill-6" fill="#F5EEF3"></path>
            <path d="M84.2568,64.4873 C81.8718,64.2123 79.1318,62.9553 78.3708,58.8703 C75.5118,58.6133 71.5338,57.4353 69.6218,52.3883 C69.3008,51.5423 69.2208,50.6223 69.3818,49.7323 L69.6258,48.3903 C69.0888,49.0423 68.7188,49.8263 68.5648,50.6773 L68.2398,52.4563 C68.0778,53.3473 68.1588,54.2663 68.4798,55.1133 C70.3928,60.1593 74.3698,61.3383 77.2298,61.5943 C77.9898,65.6803 80.7298,66.9373 83.1148,67.2123 C85.1338,72.3523 88.8508,75.0893 90.2578,72.1843 C90.5978,71.4843 90.8658,70.7473 91.0728,69.9813 C89.4838,71.9703 86.1358,69.2713 84.2568,64.4873" id="Fill-8" fill="#BED0E9"></path>
            <path d="M16.1602,39.1943 C14.9432,42.1843 19.4642,43.1143 24.6362,41.1753 C26.4352,42.7633 29.2032,43.9593 32.7472,41.7903 C34.8522,43.7443 38.3892,45.9113 43.4202,43.9553 C44.2632,43.6273 45.0002,43.0723 45.5542,42.3563 L46.6592,40.9243 C47.5662,39.7503 47.9102,38.2333 47.5842,36.7863 C46.7282,33.0013 44.9092,28.9503 41.8402,27.1583 C37.4572,24.5993 20.1182,29.4703 16.1602,39.1943" id="Fill-10" fill="#F5EEF3"></path>
            <path d="M46.084,41.5161 C41.054,43.4721 37.517,41.3041 35.412,39.3511 C31.867,41.5191 29.1,40.3241 27.3,38.7351 C22.128,40.6751 17.607,39.7451 18.824,36.7551 C19.427,35.2761 20.339,33.9091 21.469,32.6641 C19.107,34.4861 17.185,36.6771 16.16,39.1941 C14.943,42.1841 19.464,43.1151 24.636,41.1751 C26.436,42.7631 29.203,43.9591 32.748,41.7901 C34.853,43.7441 38.39,45.9111 43.42,43.9551 C44.263,43.6271 45,43.0721 45.554,42.3561 L46.262,41.4401 C46.202,41.4651 46.144,41.4931 46.084,41.5161" id="Fill-12" fill="#BED0E9"></path>
            <path d="M41.1514,37.8174 C36.5774,43.8414 33.5824,50.5684 32.1664,57.9994 C31.9804,58.9714 32.4224,59.9584 33.2704,60.4674 C42.6404,66.0914 52.5504,70.5034 63.0004,73.7044 C63.9474,73.9934 64.9754,73.6614 65.5744,72.8734 C70.1484,66.8494 73.1424,60.1224 74.5594,52.6924 C74.7444,51.7194 74.3034,50.7324 73.4544,50.2234 C64.0844,44.5994 54.1734,40.1874 43.7244,36.9864 C42.7774,36.6974 41.7504,37.0294 41.1514,37.8174" id="Fill-14" fill="#0E4361"></path>
            <path d="M73.4541,50.2236 C68.4731,47.2336 63.3371,44.5896 58.0491,42.2846 C62.2111,44.1806 66.2561,46.3386 70.1811,48.7656 C70.9391,49.2356 71.3081,50.1896 71.1011,51.1526 C69.5271,58.5126 66.5321,65.2396 62.1161,71.3336 C61.5381,72.1316 60.5831,72.4966 59.7261,72.2466 C55.2961,70.9536 50.9851,69.3916 46.7921,67.5676 C52.0431,69.9546 57.4441,72.0026 63.0001,73.7036 C63.9471,73.9946 64.9751,73.6616 65.5731,72.8736 C70.1471,66.8486 73.1421,60.1216 74.5591,52.6926 C74.7441,51.7196 74.3041,50.7326 73.4541,50.2236" id="Fill-16" fill="#2C7493"></path>
            <path d="M74.373,53.6138 C74.277,53.5248 74.174,53.4408 74.062,53.3668 C64.933,47.3608 55.213,42.5418 44.905,38.9118 C44.481,38.7618 44.035,38.7418 43.615,38.8338 L52.748,55.7498 C53.363,56.8908 54.632,57.5198 55.912,57.3188 L74.187,54.4598 C74.252,54.1778 74.313,53.8968 74.373,53.6138" id="Fill-18" fill="#2C7493"></path>
            <path d="M55.4834,54.9233 L74.3374,51.1683 C74.1394,50.7853 73.8394,50.4553 73.4544,50.2233 C64.0844,44.5993 54.1734,40.1883 43.7244,36.9863 C43.2944,36.8553 42.8474,36.8533 42.4314,36.9623 L52.2564,53.4863 C52.9204,54.6003 54.2124,55.1753 55.4834,54.9233" id="Fill-20" fill="#0E4361"></path>
            <path d="M64.8223,73.5176 L61.4943,66.2356 C61.2313,65.6626 60.5543,65.4096 59.9803,65.6716 C59.4073,65.9336 59.1553,66.6116 59.4173,67.1846 L62.2953,73.4826 C62.5303,73.5556 62.7643,73.6316 63.0003,73.7046 C63.6213,73.8936 64.2753,73.8156 64.8223,73.5176" id="Fill-22" fill="#2C7493"></path>
            <path d="M63.2734,73.7681 C63.3274,73.7781 63.3804,73.7861 63.4354,73.7921 C63.4544,73.7941 63.4734,73.7961 63.4934,73.7981 C63.6394,73.8101 63.7874,73.8091 63.9314,73.7941 C63.9384,73.7931 63.9454,73.7921 63.9534,73.7911 C64.0214,73.7841 64.0894,73.7731 64.1564,73.7591 C64.1644,73.7581 64.1714,73.7561 64.1784,73.7551 C64.4034,73.7071 64.6204,73.6271 64.8224,73.5181 L63.1474,69.8541 C62.8114,70.3511 62.4694,70.8451 62.1164,71.3331 C61.9584,71.5521 61.7704,71.7371 61.5654,71.8871 L62.2944,73.4821 C62.5304,73.5551 62.7634,73.6321 63.0004,73.7041 C63.0704,73.7261 63.1414,73.7431 63.2124,73.7581 C63.2324,73.7621 63.2524,73.7651 63.2734,73.7681" id="Fill-24" fill="#2C7493"></path>
            <path d="M41.2598,57.3369 C41.0718,56.7349 40.4298,56.3999 39.8278,56.5889 L32.1898,58.9889 C32.3348,59.5939 32.7138,60.1339 33.2708,60.4669 C33.4818,60.5939 33.6958,60.7169 33.9068,60.8429 L40.5128,58.7689 C41.1138,58.5789 41.4488,57.9389 41.2598,57.3369" id="Fill-26" fill="#2C7493"></path>
            <path d="M61.0498,50.7085 C59.5488,49.5045 57.1588,49.4005 55.6318,50.5825 C55.5328,50.6595 55.3918,50.5965 55.3828,50.4715 C55.2388,48.5465 53.5638,46.8395 51.6638,46.5295 C48.3958,45.9975 45.8538,49.2465 46.0138,52.2835 C46.1878,55.6005 49.5228,61.0375 50.1768,62.0765 C50.2438,62.1835 50.3678,62.2375 50.4918,62.2165 C51.7018,62.0085 57.9738,60.8475 60.5558,58.7585 C62.9188,56.8445 63.6318,52.7825 61.0498,50.7085" id="Fill-28" fill="#E23365"></path>
            <path d="M27.7832,53.0156 L22.6352,53.0156 C22.0042,53.0156 21.4932,52.5046 21.4932,51.8736 C21.4932,51.2436 22.0052,50.7316 22.6352,50.7316 L27.7832,50.7316 C28.4132,50.7316 28.9252,51.2436 28.9252,51.8736 C28.9252,52.5046 28.4132,53.0156 27.7832,53.0156" id="Fill-30" fill="#BED0E9"></path>
            <path d="M27.7832,61.2588 L19.8002,61.2588 C19.1702,61.2588 18.6592,60.7478 18.6592,60.1168 C18.6592,59.4868 19.1702,58.9758 19.8002,58.9758 L27.7832,58.9758 C28.4132,58.9758 28.9252,59.4868 28.9252,60.1168 C28.9252,60.7478 28.4132,61.2588 27.7832,61.2588" id="Fill-32" fill="#BED0E9"></path>
            <path d="M27.7832,69.5024 L17.3962,69.5024 C16.7652,69.5024 16.2542,68.9914 16.2542,68.3604 C16.2542,67.7304 16.7652,67.2184 17.3962,67.2184 L27.7832,67.2184 C28.4132,67.2184 28.9252,67.7304 28.9252,68.3604 C28.9252,68.9914 28.4132,69.5024 27.7832,69.5024" id="Fill-34" fill="#BED0E9"></path>
        </g>
    </g>
</svg>