<?xml version="1.0" encoding="UTF-8"?>
<svg width="227px" height="163px" viewBox="0 0 227 163" version="1.1" xmlns="http://www.w3.org/2000/svg" xmlns:xlink="http://www.w3.org/1999/xlink">
    <!-- Generator: Sketch 53.1 (72631) - https://sketchapp.com -->
    <title>Group 47car</title>
    <desc>Created with Sketch.</desc>
    <g id="Page-1" stroke="none" stroke-width="1" fill="none" fill-rule="evenodd">
        <g id="Group-47">
            <path d="M225.4046,159.5267 C225.4046,161.0637 183.0496,162.3087 130.8006,162.3087 C78.5526,162.3087 36.1986,161.0637 36.1986,159.5267 C36.1986,157.9897 78.5526,156.7437 130.8006,156.7437 C183.0496,156.7437 225.4046,157.9897 225.4046,159.5267" id="Fill-222" fill="#7A3389" opacity="0.256208147"></path>
            <polygon id="Fill-223" fill="#3A2920" points="45.0513 142.326 215.5393 142.326 215.5393 118.549 45.0513 118.549"></polygon>
            <path d="M37.5892,138.5316 C37.5892,138.5316 34.9332,133.0936 35.3132,126.5166 C35.6932,119.9396 45.6842,89.5856 45.6842,89.5856 C45.6842,89.5856 46.3162,85.4126 52.3872,83.1356 C52.3872,83.1356 58.3312,80.9856 60.3552,77.3176 C62.3782,73.6506 70.4732,51.1376 70.4732,51.1376 C70.4732,51.1376 70.7682,45.2776 65.8772,43.8436 C65.8772,43.8436 64.9502,42.8326 66.0462,42.2416 C67.1422,41.6526 72.0322,39.7976 76.5862,39.6286 C76.5862,39.6286 80.9702,36.9296 84.9332,36.0876 C88.8962,35.2436 158.6252,36.0876 158.6252,36.0876 C158.6252,36.0876 164.5692,36.7196 167.3532,41.0196 L161.3452,43.4856 C161.3452,43.4856 158.1192,44.1816 159.3212,48.4186 C160.5232,52.6556 168.6172,79.4686 168.6172,79.4686 C168.6172,79.4686 172.4112,84.5276 181.7712,83.0096 L220.5992,101.3476 C220.5992,101.3476 223.7602,102.6126 223.7602,106.7866 L223.7602,137.0136 C223.7602,137.0136 224.5192,143.4646 212.1242,144.8556 C212.1242,144.8556 210.3962,122.2586 193.9122,122.2586 C172.6222,122.2586 172.1582,144.8556 172.1582,144.8556 L88.8122,144.8556 C88.8122,144.8556 88.3062,122.2166 69.4612,122.2166 C50.6162,122.2166 48.5932,144.8556 48.5932,144.8556 C48.5932,144.8556 44.4192,145.9936 37.5892,138.5316" id="Fill-224" fill="#F6A821"></path>
            <polygon id="Fill-225" fill="#FFF474" points="200.9524 95.0243 56.8134 95.0243 58.7534 88.1943 186.1974 88.1943"></polygon>
            <path d="M66.4583,44.0482 L50.1773,84.1702 C50.1773,84.1702 58.4253,81.2202 60.0613,77.7962 C61.6953,74.3722 70.4733,51.1372 70.4733,51.1372 C70.4733,51.1372 70.7923,45.3062 66.4583,44.0482" id="Fill-226" fill="#D7F2FF"></path>
            <path d="M74.1409,81.3651 L102.5969,81.3651 C102.5969,81.3651 105.6959,81.1761 105.7589,77.8231 C105.8229,74.4721 104.2419,47.2171 104.2419,47.2171 C104.2419,47.2171 104.1779,45.0671 101.7759,45.0671 L85.7129,45.0671 C85.7129,45.0671 80.4639,45.1301 77.6189,52.8451 C74.7729,60.5601 69.6509,77.0651 69.6509,77.0651 C69.6509,77.0651 68.1329,81.3651 74.1409,81.3651" id="Fill-227" fill="#D7F2FF"></path>
            <path d="M108.9212,47.0902 L112.2092,78.3932 C112.2092,78.3932 112.2092,81.3652 116.0672,81.3652 L163.6852,81.3652 L151.7962,45.0672 L110.6922,45.0672 C110.6922,45.0672 108.7592,45.5492 108.9212,47.0902" id="Fill-228" fill="#D7F2FF"></path>
            <path d="M167.3528,41.0194 L181.7708,83.0094 C181.7708,83.0094 173.3598,85.0964 168.6178,79.4684 L159.3218,48.4184 C159.3218,48.4184 158.1288,45.7114 160.2108,44.0614 C162.2928,42.4114 167.3528,41.0194 167.3528,41.0194" id="Fill-229" fill="#D7F2FF"></path>
            <path d="M45.6839,89.5858 C45.6839,89.5858 42.6909,89.1228 41.7629,91.1458 C40.8349,93.1688 36.0299,109.6108 36.0299,109.6108 C36.0299,109.6108 35.7509,112.1018 38.7149,112.1018 C41.6789,112.1018 42.5219,110.1168 42.5219,110.1168 L48.2549,91.6518 C48.2549,91.6518 48.3279,89.2638 45.6839,89.5858" id="Fill-230" fill="#A54143"></path>
            <path d="M211.5149,144.3773 C211.5149,144.3773 214.1059,137.9413 219.6709,137.5203 C225.2359,137.0983 226.4999,139.3753 226.4999,139.3753 C226.4999,139.3753 226.3319,146.3733 223.7599,148.3973 C221.1889,150.4203 209.6819,150.1383 211.5149,144.3773" id="Fill-231" fill="#739191"></path>
            <path d="M35.2708,128.5824 C35.2708,128.5824 31.7298,129.2144 31.4768,132.6294 C31.2228,136.0444 31.7298,139.9654 31.7298,139.9654 C31.7298,139.9654 31.7298,142.1154 35.1438,142.2414 C38.5588,142.3684 42.2268,142.4944 42.2268,142.4944 C42.2268,142.4944 46.2738,141.8624 46.6538,138.5744 C47.0328,135.2854 46.0208,132.2504 46.0208,132.2504 L35.5238,131.4914 L35.2708,128.5824 Z" id="Fill-232" fill="#739191"></path>
            <path d="M57.1927,98.3128 L203.1447,98.3128" id="Stroke-233" stroke="#BD6539"></path>
            <path d="M109.554,98.4813 L108.71,141.4823 C108.71,141.4823 169.249,142.3263 169.249,141.4823 L169.249,98.1443 L166.383,81.2803 L153.398,42.3263 L106.181,42.3263 L109.554,98.4813 Z" id="Stroke-234" stroke="#BD6539"></path>
            <path d="M157.1077,79.763 C157.1077,84.606 155.8247,88.532 154.2417,88.532 C152.6587,88.532 151.3747,84.606 151.3747,79.763 C151.3747,74.92 152.6587,70.994 154.2417,70.994 C155.8247,70.994 157.1077,74.92 157.1077,79.763" id="Fill-235" fill="#739191"></path>
            <path d="M86.2825,143.5907 C86.2825,153.0907 78.5815,160.7917 69.0815,160.7917 C59.5825,160.7917 51.8815,153.0907 51.8815,143.5907 C51.8815,134.0907 59.5825,126.3897 69.0815,126.3897 C78.5815,126.3897 86.2825,134.0907 86.2825,143.5907" id="Fill-236" fill="#3F3832"></path>
            <path d="M81.097,143.5907 C81.097,150.2267 75.717,155.6057 69.081,155.6057 C62.446,155.6057 57.067,150.2267 57.067,143.5907 C57.067,136.9547 62.446,131.5757 69.081,131.5757 C75.717,131.5757 81.097,136.9547 81.097,143.5907" id="Fill-237" fill="#D7C8CB"></path>
            <path d="M76.1643,143.5907 C76.1643,147.5027 72.9933,150.6737 69.0813,150.6737 C65.1703,150.6737 61.9993,147.5027 61.9993,143.5907 C61.9993,139.6787 65.1703,136.5077 69.0813,136.5077 C72.9933,136.5077 76.1643,139.6787 76.1643,143.5907" id="Fill-238" fill="#739191"></path>
            <path d="M209.469,143.5907 C209.469,153.0907 201.768,160.7917 192.268,160.7917 C182.769,160.7917 175.068,153.0907 175.068,143.5907 C175.068,134.0907 182.769,126.3897 192.268,126.3897 C201.768,126.3897 209.469,134.0907 209.469,143.5907" id="Fill-239" fill="#3F3832"></path>
            <path d="M204.5364,143.5907 C204.5364,150.2267 199.1564,155.6057 192.5204,155.6057 C185.8854,155.6057 180.5064,150.2267 180.5064,143.5907 C180.5064,136.9547 185.8854,131.5757 192.5204,131.5757 C199.1564,131.5757 204.5364,136.9547 204.5364,143.5907" id="Fill-240" fill="#D7C8CB"></path>
            <path d="M199.6038,143.5907 C199.6038,147.5027 196.4328,150.6737 192.5208,150.6737 C188.6098,150.6737 185.4388,147.5027 185.4388,143.5907 C185.4388,139.6787 188.6098,136.5077 192.5208,136.5077 C196.4328,136.5077 199.6038,139.6787 199.6038,143.5907" id="Fill-241" fill="#739191"></path>
            <path d="M35.053,130.2479 C35.026,130.0909 34.995,129.9269 34.897,129.8019 C34.727,129.5869 34.399,129.5549 34.146,129.6599 C33.893,129.7649 33.702,129.9769 33.532,130.1899 C32.487,131.4939 31.869,133.1339 31.796,134.8029 C31.786,135.0319 31.788,135.2699 31.889,135.4749 C32.027,135.7579 32.322,135.9239 32.604,136.0639 C35.886,137.6889 39.694,138.0679 43.323,137.5759 C44.249,137.4499 45.277,137.1989 45.765,136.4009 C46.105,135.8449 46.097,135.1499 46.052,134.4999 C46.031,134.1919 46,133.8749 45.854,133.6039 C45.496,132.9419 44.625,132.8029 43.877,132.7389 C41.247,132.5159 38.617,132.2919 35.988,132.0679 C35.754,132.0479 35.487,132.0079 35.364,131.8099 C35.313,131.7269 35.295,131.6299 35.279,131.5359 L35.053,130.2479 Z" id="Fill-242" fill="#EDEBEB"></path>
            <path d="M224.7063,140.1825 C224.9023,140.0785 225.1193,139.9495 225.1693,139.7335 C225.2453,139.3985 224.8833,139.1395 224.5673,139.0035 C221.9843,137.8935 218.8623,138.1395 216.4853,139.6405 C214.1083,141.1415 212.5443,143.8545 212.4353,146.6635 C216.5253,144.5035 220.6163,142.3425 224.7063,140.1825" id="Fill-243" fill="#EDEBEB"></path>
            <path d="M197.93,140.9637 C197.202,139.7137 196.033,138.7127 194.659,138.2617 C193.284,137.8107 191.716,137.9357 190.468,138.6667 C189.88,139.0107 189.371,139.4777 188.906,139.9767 C187.677,141.2887 186.685,142.9307 186.603,144.7267 C187.3,144.3107 188.184,144.3627 188.967,144.5767 C189.749,144.7917 190.49,145.1537 191.282,145.3297 C192.873,145.6837 194.527,145.2627 196.083,144.7767 C196.967,144.5007 197.943,144.1157 198.299,143.2617 C198.61,142.5197 198.335,141.6587 197.93,140.9637" id="Fill-244" fill="#EDEBEB"></path>
            <path d="M69.9476,138.1136 C68.0986,138.0186 66.2286,138.7966 64.9716,140.1556 C63.7146,141.5146 63.0846,143.4256 63.2596,145.2686 C64.0006,144.1176 65.5976,143.8506 66.9456,144.0916 C68.2936,144.3326 69.5506,144.9596 70.9016,145.1766 C72.2536,145.3956 73.8526,145.0666 74.5336,143.8796 C74.9496,143.1536 74.9316,142.2396 74.6686,141.4466 C74.0236,139.5036 71.9916,138.2186 69.9476,138.1136" id="Fill-245" fill="#EDEBEB"></path>
            <polygon id="Fill-246" fill="#FFFFFB" points="10.677 23.1659 0.213 24.9849 -4.61852778e-14 26.1489 10.337 27.0309"></polygon>
            <polygon id="Fill-247" fill="#C90E32" points="7.8675 22.4276 146.2305 3.7096 147.2435 8.2626 153.3135 7.2506 154.0725 11.8036 157.3605 11.8036 157.6135 20.1516 152.0495 21.1626 152.0495 26.2216 8.3735 27.9926"></polygon>
            <polygon id="Fill-248" fill="#FFFFFF" points="8.3733 26.4749 152.0493 21.1629 152.0493 26.2219"></polygon>
            <polygon id="Fill-249" fill="#FFFFFF" points="8.0364 24.4515 153.3134 7.2505 154.0724 11.8045"></polygon>
            <path d="M53.9026,28.2703 C52.8946,28.2863 52.6006,29.6553 53.5156,30.0783 C58.5466,32.4013 69.2086,36.2043 84.9326,36.0873 C106.4056,35.9273 179.6466,35.6143 194.6976,27.3363 C195.3456,26.9803 195.0776,25.9933 194.3386,26.0053 L53.9026,28.2703 Z" id="Fill-250" fill="#08AAEB"></path>
            <path d="M171.2737,26.6878 C171.2737,26.6878 174.5577,19.3558 179.3087,17.5378 C179.3087,17.5378 176.7277,20.7048 175.9067,26.9808 L171.2737,26.6878 Z" id="Fill-251" fill="#08AAEB"></path>
            <polygon id="Fill-252" fill="#4C2030" points="89.3173 27.487 146.4843 27.487 146.4843 12.985 89.3173 12.985"></polygon>
            <polygon id="Fill-253" fill="#B7873E" points="99.2663 13.659 139.5703 13.659 139.5703 -5.68434189e-14 99.2663 -5.68434189e-14"></polygon>
            <polygon id="Fill-254" fill="#FFFFFB" points="157.6136 16.1038 222.8756 17.1158 222.6226 19.3928 157.1076 18.1278"></polygon>
            <path d="M99.4358,6.8714 L139.5598,6.8714" id="Stroke-255" stroke="#AA4B22" stroke-width="0.994" stroke-linejoin="round"></path>
            <polygon id="Fill-256" fill="#FCC1A7" points="106.0533 8.178 110.4803 8.178 110.4803 5.649 106.0533 5.649"></polygon>
            <polygon id="Fill-257" fill="#FCC1A7" points="127.3013 8.178 131.7283 8.178 131.7283 5.649 127.3013 5.649"></polygon>
            <path d="M113.3059,6.9979 C113.3059,6.9979 113.1789,9.4849 114.3599,9.4849 L123.6759,9.4849 C123.6759,9.4849 124.8569,9.4849 124.8569,6.8719 L122.7489,6.8719 C122.7489,6.8719 122.7069,8.5159 122.0749,8.5579 C121.4419,8.5999 115.6659,8.5579 115.6659,8.5579 C115.6659,8.5579 114.9079,8.4739 114.9079,6.9979 L113.3059,6.9979 Z" id="Fill-258" fill="#FCC1A7"></path>
            <polygon id="Fill-259" fill="#7A3954" points="89.3183 27.487 99.5623 27.487 99.5623 12.985 89.3183 12.985"></polygon>
            <path d="M89.4436,20.5306 L146.3576,20.5306" id="Stroke-260" stroke="#36755B"></path>
            <polygon id="Fill-261" fill="#36755B" points="106.8343 21.859 114.6123 21.859 114.6123 19.14 106.8343 19.14"></polygon>
            <polygon id="Fill-262" fill="#36755B" points="132.6353 21.859 140.4133 21.859 140.4133 19.14 132.6353 19.14"></polygon>
            <path d="M117.5423,20.3412 C117.5423,20.3412 117.4163,22.8282 118.5963,22.8282 L127.9133,22.8282 C127.9133,22.8282 129.0943,22.8282 129.0943,20.2152 L126.9853,20.2152 C126.9853,20.2152 126.9433,21.8592 126.3123,21.9012 C125.6793,21.9432 119.9033,21.9012 119.9033,21.9012 C119.9033,21.9012 119.1453,21.8172 119.1453,20.3412 L117.5423,20.3412 Z" id="Fill-263" fill="#89CEB2"></path>
            <path d="M177.9339,26.8968 C177.9339,26.8968 182.6559,16.3568 189.4859,13.7428 C189.4859,13.7428 185.7759,18.2958 184.5949,27.3178 L177.9339,26.8968 Z" id="Fill-264" fill="#08AAEB"></path>
        </g>
    </g>
</svg>