<?xml version="1.0" encoding="UTF-8"?>
<svg width="68px" height="81px" viewBox="0 0 68 81" version="1.1" xmlns="http://www.w3.org/2000/svg" xmlns:xlink="http://www.w3.org/1999/xlink">
    <!-- Generator: Sketch 53.1 (72631) - https://sketchapp.com -->
    <title>Group 13chair</title>
    <desc>Created with Sketch.</desc>
    <g id="Page-1" stroke="none" stroke-width="1" fill="none" fill-rule="evenodd">
        <g id="Group-13" transform="translate(0.560000, 0.344732)">
            <path d="M36.7007,45.6798682 L41.2197,45.6798682 L44.2277,0.223868214 C42.2247,0.145868214 40.2217,0.0648682143 38.2177,0.0318682143 L36.7007,45.6798682 Z" id="Fill-108" fill="#C90E32"></path>
            <path d="M32.1119,45.6798682 L35.8669,45.6798682 L37.3839,0.0448682143 C35.1329,0.0138682143 32.8809,-0.0151317857 30.6289,0.00886821429 L32.1119,45.6798682 Z" id="Fill-109" fill="#C90E32"></path>
            <path d="M42.0552,45.6798682 L46.8592,45.6798682 L50.4992,1.78886821 C49.0542,0.906868214 47.3032,0.376868214 45.3822,0.294868214 C45.2752,0.290868214 45.1682,0.248868214 45.0612,0.243868214 L42.0552,45.6798682 Z" id="Fill-110" fill="#C90E32"></path>
            <path d="M51.2916,2.32636821 L47.6956,45.6803682 L51.6256,45.6803682 C52.5886,33.5623682 53.5516,21.2283682 54.5146,8.99036821 C54.7366,6.38636821 53.4606,3.96736821 51.2916,2.32636821" id="Fill-111" fill="#C90E32"></path>
            <path d="M26.7847,45.6798682 L31.2777,45.6798682 L29.7957,0.0448682143 C27.7887,0.0728682143 25.7817,0.0978682143 23.7747,0.169868214 L26.7847,45.6798682 Z" id="Fill-112" fill="#C90E32"></path>
            <path d="M16.5982,1.86936821 C14.0322,3.49136821 12.4692,6.13136821 12.7132,8.99036821 C13.6762,21.2283682 14.6392,33.5623682 15.6032,45.6803682 L20.2322,45.6803682 L16.5982,1.86936821 Z" id="Fill-113" fill="#C90E32"></path>
            <path d="M21.0679,45.6798682 L25.9499,45.6798682 L22.9419,0.225868214 C22.5769,0.239868214 22.2109,0.279868214 21.8449,0.294868214 C20.2129,0.364868214 18.7009,0.738868214 17.3969,1.40286821 L21.0679,45.6798682 Z" id="Fill-114" fill="#C90E32"></path>
            <polygon id="Fill-115" fill="#A00D3E" points="12.688 49.8562682 54.54 49.8562682 54.54 45.8982682 12.688 45.8982682"></polygon>
            <polygon id="Fill-116" fill="#A00D3E" points="12.688 54.4162682 54.54 54.4162682 54.54 50.4582682 12.688 50.4582682"></polygon>
            <polygon id="Fill-117" fill="#A00D3E" points="12.688 58.9762682 54.54 58.9762682 54.54 55.0182682 12.688 55.0182682"></polygon>
            <polygon id="Fill-118" fill="#C90E32" points="54.539 80.1272682 57.094 80.1272682 57.094 43.2372682 54.539 43.2372682"></polygon>
            <polygon id="Fill-119" fill="#C90E32" points="10.133 80.1272682 12.688 80.1272682 12.688 43.2372682 10.133 43.2372682"></polygon>
            <polygon id="Fill-120" fill="#C90E32" points="54.539 43.0322682 67.227 43.0322682 67.227 40.6572682 54.539 40.6572682"></polygon>
            <polygon id="Fill-121" fill="#C90E32" points="0 43.0322682 12.688 43.0322682 12.688 40.6572682 0 40.6572682"></polygon>
            <path d="M57.5796,43.4581682 L67.1156,43.4581682 C67.1156,43.4581682 65.4566,49.4641682 57.5796,50.9251682 L57.5796,43.4581682 Z" id="Fill-122" fill="#A02744"></path>
            <path d="M9.5142,43.4581682 L0.0022,43.4581682 C0.0022,43.4581682 1.4352,49.4641682 9.5142,50.9251682 L9.5142,43.4581682 Z" id="Fill-123" fill="#A02744"></path>
            <polygon id="Fill-124" fill="#8F0B32" points="53.3384 67.2291682 53.3384 60.0191682 13.9564 60.0191682 13.9564 67.2401682 13.9564 76.1751682 16.3804 76.1751682 16.3804 67.2891682 50.7134 67.2891682 50.7134 76.1751682 53.3384 76.1751682"></polygon>
        </g>
    </g>
</svg>