<?xml version="1.0" encoding="UTF-8"?>
<svg width="77px" height="40px" viewBox="0 0 77 40" version="1.1" xmlns="http://www.w3.org/2000/svg" xmlns:xlink="http://www.w3.org/1999/xlink">
    <!-- Generator: Sketch 53.1 (72631) - https://sketchapp.com -->
    <title>Group 9chair</title>
    <desc>Created with Sketch.</desc>
    <g id="Page-1" stroke="none" stroke-width="1" fill="none" fill-rule="evenodd">
        <g id="Group-9">
            <polygon id="Fill-178" fill="#85632D" points="13.5512 6.6557 13.5512 9.3087 17.1492 9.3517 17.1492 6.6557"></polygon>
            <polygon id="Fill-179" fill="#A97F3B" points="13.5512 20.2353 17.1492 20.2353 17.1492 9.3513 13.5512 9.3093"></polygon>
            <polygon id="Fill-180" fill="#85632D" points="27.2583 6.6557 23.6603 6.6557 23.6603 9.4307 27.2583 9.4747"></polygon>
            <polygon id="Fill-181" fill="#A97F3B" points="23.6606 9.4311 23.6606 20.2351 27.2586 20.2351 27.2586 9.4741"></polygon>
            <polygon id="Fill-182" fill="#85632D" points="3.4399 6.6557 3.4399 9.1867 7.0389 9.2307 7.0389 6.6557"></polygon>
            <polygon id="Fill-183" fill="#A97F3B" points="3.4399 20.2353 7.0389 20.2353 7.0389 9.2303 3.4399 9.1863"></polygon>
            <polygon id="Fill-184" fill="#85632D" points="13.5512 21.7895 17.1492 21.8225 17.1492 20.2355 13.5512 20.2355"></polygon>
            <polygon id="Fill-185" fill="#85632D" points="23.6606 20.2353 23.6606 21.8833 27.2586 21.9163 27.2586 20.2353"></polygon>
            <polygon id="Fill-186" fill="#85632D" points="3.4399 21.6958 7.0389 21.7298 7.0389 20.2358 3.4399 20.2358"></polygon>
            <polygon id="Fill-187" fill="#A97F3B" points="13.5512 39.332 17.1492 39.332 17.1492 21.822 13.5512 21.79"></polygon>
            <polygon id="Fill-188" fill="#A97F3B" points="23.6606 21.8833 23.6606 39.3323 27.2586 39.3323 27.2586 21.9163"></polygon>
            <polygon id="Fill-189" fill="#A97F3B" points="3.4399 39.332 7.0389 39.332 7.0389 21.73 3.4399 21.696"></polygon>
            <path d="M0.0002,4.437 C0.0002,1.987 1.9872,7.10542736e-15 4.4372,7.10542736e-15 L26.2612,7.10542736e-15 C28.7132,7.10542736e-15 30.6982,1.987 30.6982,4.437 C30.698,6.887 28.713,8.874 26.261,8.874 L4.437,8.874 C1.987,8.874 0,6.887 0,4.437 Z" id="Combined-Shape" fill="#E9AB50"></path>
            <path d="M28.2104,19.6631 C28.2104,19.4331 28.0224,19.2461 27.7924,19.2461 L2.9044,19.2461 C2.6764,19.2461 2.4874,19.4331 2.4874,19.6631 L2.4874,20.7751 L28.2104,20.7751 L28.2104,19.6631 Z" id="Fill-192" fill="#DEA34C"></path>
            <path d="M2.4877,20.7749 L2.4877,20.8069 C2.4877,21.0369 2.6757,21.2249 2.9047,21.2249 L27.7927,21.2249 C28.0217,21.2249 28.2107,21.0369 28.2107,20.8069 L28.2107,20.7749 L2.4877,20.7749 Z" id="Fill-193" fill="#B7873E"></path>
            <path d="M7.2036,38.6767 L3.2766,38.6767 C3.0176,38.6767 2.8076,38.8867 2.8076,39.1457 C2.8076,39.2117 2.8226,39.2757 2.8476,39.3317 L7.6326,39.3317 C7.6576,39.2757 7.6716,39.2117 7.6716,39.1457 C7.6716,38.8867 7.4616,38.6767 7.2036,38.6767" id="Fill-194" fill="#DEA34C"></path>
            <path d="M3.2768,39.6147 L7.2038,39.6147 C7.3958,39.6147 7.5598,39.4987 7.6318,39.3317 L2.8468,39.3317 C2.9218,39.4987 3.0858,39.6147 3.2768,39.6147" id="Fill-195" fill="#C28F42"></path>
            <path d="M17.312,38.6767 L13.386,38.6767 C13.127,38.6767 12.917,38.8867 12.917,39.1457 C12.917,39.2117 12.932,39.2757 12.957,39.3317 L17.742,39.3317 C17.766,39.2757 17.781,39.2117 17.781,39.1457 C17.781,38.8867 17.571,38.6767 17.312,38.6767" id="Fill-196" fill="#DEA34C"></path>
            <path d="M13.3862,39.6147 L17.3122,39.6147 C17.5032,39.6147 17.6682,39.4987 17.7412,39.3317 L12.9562,39.3317 C13.0292,39.4987 13.1932,39.6147 13.3862,39.6147" id="Fill-197" fill="#C28F42"></path>
            <path d="M23.0678,39.332 C23.1378,39.499 23.3028,39.615 23.4968,39.615 L27.4218,39.615 C27.6138,39.615 27.7768,39.499 27.8518,39.332 L23.0678,39.332 Z" id="Fill-198" fill="#C28F42"></path>
            <path d="M27.8901,39.146 C27.8901,38.887 27.6801,38.677 27.4221,38.677 L23.4961,38.677 C23.2381,38.677 23.0271,38.887 23.0271,39.146 C23.0271,39.212 23.0421,39.276 23.0681,39.332 L27.8521,39.332 C27.8761,39.276 27.8901,39.212 27.8901,39.146" id="Fill-199" fill="#DEA34C"></path>
            <polygon id="Fill-200" fill="#85632D" points="59.7153 6.6557 59.7153 9.3087 63.3133 9.3517 63.3133 6.6557"></polygon>
            <polygon id="Fill-201" fill="#A97F3B" points="59.7153 20.2353 63.3133 20.2353 63.3133 9.3513 59.7153 9.3093"></polygon>
            <polygon id="Fill-202" fill="#85632D" points="73.4223 6.6557 69.8243 6.6557 69.8243 9.4307 73.4223 9.4747"></polygon>
            <polygon id="Fill-203" fill="#A97F3B" points="69.8247 9.4311 69.8247 20.2351 73.4227 20.2351 73.4227 9.4741"></polygon>
            <polygon id="Fill-204" fill="#85632D" points="49.604 6.6557 49.604 9.1867 53.203 9.2307 53.203 6.6557"></polygon>
            <polygon id="Fill-205" fill="#A97F3B" points="49.604 20.2353 53.203 20.2353 53.203 9.2303 49.604 9.1863"></polygon>
            <polygon id="Fill-206" fill="#85632D" points="59.7153 21.7895 63.3133 21.8225 63.3133 20.2355 59.7153 20.2355"></polygon>
            <polygon id="Fill-207" fill="#85632D" points="69.8247 20.2353 69.8247 21.8833 73.4227 21.9163 73.4227 20.2353"></polygon>
            <polygon id="Fill-208" fill="#85632D" points="49.604 21.6958 53.203 21.7298 53.203 20.2358 49.604 20.2358"></polygon>
            <polygon id="Fill-209" fill="#A97F3B" points="59.7153 39.332 63.3133 39.332 63.3133 21.822 59.7153 21.79"></polygon>
            <polygon id="Fill-210" fill="#A97F3B" points="69.8247 21.8833 69.8247 39.3323 73.4227 39.3323 73.4227 21.9163"></polygon>
            <polygon id="Fill-211" fill="#A97F3B" points="49.604 39.332 53.203 39.332 53.203 21.73 49.604 21.696"></polygon>
            <path d="M46.1642,4.437 C46.1642,1.987 48.1512,7.10542736e-15 50.6012,7.10542736e-15 L72.4252,7.10542736e-15 C74.8772,7.10542736e-15 76.8622,1.987 76.8622,4.437 C76.862,6.887 74.877,8.874 72.425,8.874 L50.601,8.874 C48.151,8.874 46.164,6.887 46.164,4.437 Z" id="Combined-Shape" fill="#E9AB50"></path>
            <path d="M74.3745,19.6631 C74.3745,19.4331 74.1865,19.2461 73.9565,19.2461 L49.0685,19.2461 C48.8405,19.2461 48.6515,19.4331 48.6515,19.6631 L48.6515,20.7751 L74.3745,20.7751 L74.3745,19.6631 Z" id="Fill-214" fill="#DEA34C"></path>
            <path d="M48.6518,20.7749 L48.6518,20.8069 C48.6518,21.0369 48.8398,21.2249 49.0688,21.2249 L73.9568,21.2249 C74.1858,21.2249 74.3748,21.0369 74.3748,20.8069 L74.3748,20.7749 L48.6518,20.7749 Z" id="Fill-215" fill="#B7873E"></path>
            <path d="M53.3676,38.6767 L49.4406,38.6767 C49.1816,38.6767 48.9716,38.8867 48.9716,39.1457 C48.9716,39.2117 48.9866,39.2757 49.0116,39.3317 L53.7966,39.3317 C53.8216,39.2757 53.8356,39.2117 53.8356,39.1457 C53.8356,38.8867 53.6256,38.6767 53.3676,38.6767" id="Fill-216" fill="#DEA34C"></path>
            <path d="M49.4409,39.6147 L53.3679,39.6147 C53.5599,39.6147 53.7239,39.4987 53.7959,39.3317 L49.0109,39.3317 C49.0859,39.4987 49.2499,39.6147 49.4409,39.6147" id="Fill-217" fill="#C28F42"></path>
            <path d="M63.476,38.6767 L59.55,38.6767 C59.291,38.6767 59.081,38.8867 59.081,39.1457 C59.081,39.2117 59.096,39.2757 59.121,39.3317 L63.906,39.3317 C63.93,39.2757 63.945,39.2117 63.945,39.1457 C63.945,38.8867 63.735,38.6767 63.476,38.6767" id="Fill-218" fill="#DEA34C"></path>
            <path d="M59.5502,39.6147 L63.4762,39.6147 C63.6672,39.6147 63.8322,39.4987 63.9052,39.3317 L59.1202,39.3317 C59.1932,39.4987 59.3572,39.6147 59.5502,39.6147" id="Fill-219" fill="#C28F42"></path>
            <path d="M69.2319,39.332 C69.3019,39.499 69.4669,39.615 69.6609,39.615 L73.5859,39.615 C73.7779,39.615 73.9409,39.499 74.0159,39.332 L69.2319,39.332 Z" id="Fill-220" fill="#C28F42"></path>
            <path d="M74.0542,39.146 C74.0542,38.887 73.8442,38.677 73.5862,38.677 L69.6602,38.677 C69.4022,38.677 69.1912,38.887 69.1912,39.146 C69.1912,39.212 69.2062,39.276 69.2322,39.332 L74.0162,39.332 C74.0402,39.276 74.0542,39.212 74.0542,39.146" id="Fill-221" fill="#DEA34C"></path>
        </g>
    </g>
</svg>