<?xml version="1.0" encoding="UTF-8"?>
<svg width="222px" height="188px" viewBox="0 0 222 188" version="1.1" xmlns="http://www.w3.org/2000/svg" xmlns:xlink="http://www.w3.org/1999/xlink">
    <!-- Generator: Sketch 53.1 (72631) - https://sketchapp.com -->
    <title>Group 8tikished</title>
    <desc>Created with Sketch.</desc>
    <g id="Page-1" stroke="none" stroke-width="1" fill="none" fill-rule="evenodd">
        <g id="Group-8">
            <polygon id="Fill-125" fill="#A97F3B" points="192.9253 61.7156 188.7693 63.4986 188.7693 129.8746 197.0833 129.8746 197.0833 68.9746"></polygon>
            <polygon id="Fill-126" fill="#936F30" points="197.0835 68.9749 197.0835 40.5979 188.7695 40.5979 188.7695 63.4979 192.9255 61.7159"></polygon>
            <polygon id="Fill-127" fill="#A97F3B" points="27.1665 58.1243 27.1665 129.8743 35.4825 129.8743 35.4825 65.8133"></polygon>
            <polygon id="Fill-128" fill="#936F30" points="35.4829 40.5974 27.1669 40.5974 27.1669 58.1244 35.4829 65.8134"></polygon>
            <path d="M19.0116,132.3081 C19.011654,129.620146 21.1896333,127.4402 23.8786,127.4402 L201.3306,127.4402 C204.0196,127.4402 206.1966,129.6202 206.1966,132.3082 C206.196346,134.997154 204.020367,137.1761 201.3304,137.1761 L23.8784,137.1761 C21.1904,137.1761 19.0114,134.9971 19.0114,132.3081 Z" id="Combined-Shape" fill="#E9AB50"></path>
            <polygon id="Fill-131" fill="#9D7533" points="196.52 136.9993 28.69 136.9993 29.021 139.8363 196.13 140.3053"></polygon>
            <path d="M193.644543,160.803318 L192.5235,170.574252 C192.5235,179.938238 185.1195,187.5293 175.9885,187.5293 L49.2205,187.5293 C40.0895,187.5293 32.6845,179.938238 32.6845,170.574252 L31.1698518,157.361108 C31.1382129,157.339846 31.1065956,157.318543 31.075,157.2972 L29.021,139.8362 L196.13,140.3052 L193.727,160.7602 C193.699525,160.77459 193.67204,160.788963 193.644543,160.803318 Z" id="Combined-Shape" fill="#B7873E"></path>
            <path d="M135.9536,17.2078 C141.5036,17.8738 165.9436,18.8558 176.6276,17.5498 L176.6276,16.1648 L175.1286,14.9098 L176.6276,13.6228 L176.6276,11.4898 C166.3486,12.2258 135.9376,12.7758 129.9986,12.7758 C122.9176,12.7758 105.2856,14.3398 99.1096,14.8618 C92.9326,15.3828 74.9136,11.5728 69.4676,10.9508 C62.8006,10.1878 54.5686,12.9478 50.0676,14.2718 L50.0676,17.3318 C53.1626,17.0368 57.5366,16.6868 60.8636,16.6868 C66.5996,16.6868 129.4346,16.4258 135.9536,17.2078" id="Fill-134" fill="#B7873E"></path>
            <path d="M176.6274,4.804 L176.6274,-1.42108547e-14 L50.0674,-1.42108547e-14 L50.0674,1.304 L52.3244,2.409 L50.0674,4.359 C57.3754,3.82 72.0834,2.798 80.9884,2.607 C92.3014,2.366 161.9714,5.035 176.6274,4.804" id="Fill-135" fill="#B7873E"></path>
            <path d="M124.0806,18.2698 C115.6166,18.7718 80.9396,20.8578 74.6826,20.5978 C70.0476,20.4038 56.6886,20.5098 50.0676,20.5768 L50.0676,21.9008 L176.6276,21.9008 L176.6276,19.4358 C171.5576,19.7708 165.5986,20.5978 159.9406,20.5978 C152.6406,20.5978 132.5456,17.7678 124.0806,18.2698" id="Fill-136" fill="#B7873E"></path>
            <path d="M70.2495,8.6038 C76.6885,9.7398 94.7585,11.7328 100.2335,10.9508 C105.7095,10.1678 123.7835,8.6568 129.9985,9.0208 C135.2205,9.3278 166.2245,9.0458 176.6275,9.0098 L176.6275,7.0368 C163.9025,7.0128 104.3825,6.7948 94.8075,4.8158 C86.3075,3.0578 60.4595,5.4778 50.0675,6.5618 L50.0675,10.3708 C54.9415,9.3268 63.3055,7.3788 70.2495,8.6038" id="Fill-137" fill="#B7873E"></path>
            <path d="M94.8071,4.8157 C104.3821,6.7947 163.9031,7.0127 176.6271,7.0367 L176.6271,4.8037 C161.9711,5.0347 92.3011,2.3657 80.9891,2.6077 C72.0831,2.7977 57.3751,3.8197 50.0681,4.3587 L50.0681,6.5617 C60.4591,5.4777 86.3071,3.0577 94.8071,4.8157" id="Fill-138" fill="#E9AB50"></path>
            <path d="M69.4673,10.9505 C74.9133,11.5735 92.9333,15.3835 99.1103,14.8615 C105.2853,14.3405 122.9173,12.7755 129.9983,12.7755 C135.9383,12.7755 166.3483,12.2255 176.6273,11.4905 L176.6273,9.0095 C166.2243,9.0455 135.2203,9.3275 129.9983,9.0215 C123.7833,8.6565 105.7093,10.1685 100.2343,10.9505 C94.7583,11.7325 76.6893,9.7395 70.2493,8.6035 C63.3053,7.3785 54.9423,9.3265 50.0683,10.3705 L50.0683,14.2715 C54.5693,12.9475 62.8003,10.1885 69.4673,10.9505" id="Fill-139" fill="#E9AB50"></path>
            <path d="M135.9536,17.2078 C129.4346,16.4258 66.5996,16.6868 60.8636,16.6868 C57.5366,16.6868 53.1626,17.0368 50.0676,17.3318 L50.0676,20.5768 C56.6886,20.5098 70.0476,20.4038 74.6826,20.5978 C80.9396,20.8578 115.6166,18.7718 124.0806,18.2698 C132.5456,17.7678 152.6406,20.5978 159.9406,20.5978 C165.5986,20.5978 171.5576,19.7708 176.6276,19.4358 L176.6276,17.5498 C165.9436,18.8558 141.5036,17.8738 135.9536,17.2078" id="Fill-140" fill="#E9AB50"></path>
            <path d="M90.8648,13.2864 C90.8648,13.2864 59.1858,10.3904 42.1088,51.4724 C31.0778,78.0074 28.2898,81.1954 28.2898,81.1954 C28.2898,81.1954 58.4038,71.8094 70.5278,57.7294 C82.6518,43.6504 90.8648,13.2864 90.8648,13.2864" id="Fill-141" fill="#036633"></path>
            <path d="M132.9097,13.2864 C132.9097,13.2864 133.6907,13.2154 135.0737,13.2534 C142.4977,13.4614 167.2697,16.8404 181.6667,51.4724 C192.6967,78.0074 195.4847,81.1954 195.4847,81.1954 C195.4847,81.1954 165.3707,71.8094 153.2467,57.7294 C141.1227,43.6504 132.9097,13.2864 132.9097,13.2864" id="Fill-142" fill="#036633"></path>
            <path d="M83.646,14.5052 C79.581,11.9032 70.167,9.4072 49.018,15.1712 C20.347,22.9842 0,77.1032 0,77.1032 C3.732,76.9522 7.19,76.2532 11.277,75.0392 C17.48,73.1972 17.926,68.3912 17.926,68.3912 C17.926,68.3912 20.077,70.9332 16.752,76.0172 C19.408,75.5752 23.86,75.3442 25.813,73.8662 C32.788,68.5862 30.836,64.5112 30.836,64.5112 C30.836,64.5112 35.459,66.8262 36.633,69.6942 C40.072,67.6172 43.4,65.2952 46.595,62.8162 C46.067,57.2522 44.846,52.2252 44.846,52.2252 C44.846,52.2252 49.54,53.5292 52.584,57.8652 C54.493,55.0932 51.922,42.4842 49.213,37.6902 C51.951,38.0812 58.6,45.8322 59.838,51.0522 C61.726,49.2432 63.509,47.4402 65.2,45.6582 C65.191,35.0082 67.265,14.0812 83.646,14.5052" id="Fill-143" fill="#AEBC4A"></path>
            <path d="M83.646,14.5052 C67.265,14.0812 65.191,35.0082 65.199971,45.6582 C79.342,30.7622 86.563,17.5482 86.563,17.5482 C86.563,17.5482 85.996,16.0092 83.646,14.5052" id="Fill-144" fill="#7C8229"></path>
            <path d="M0.0005,77.1033 C0.0005,77.1033 15.6235,59.2493 21.6415,50.7913 C35.5505,31.2443 60.7505,16.7663 72.7445,14.6803 C69.7455,14.0753 46.0845,14.5853 21.3805,46.2283 C12.5685,57.5153 3.9535,71.2203 0.0005,77.1033" id="Fill-145" fill="#7C8229"></path>
            <path d="M172.603,13.8963 C153.836,8.7823 144.304,10.1713 139.554,12.3673 C143.69,13.7003 149.938,17.0283 155.095,25.3993 C158.998,31.7333 159.7,40.1503 159.229,47.2693 C160.061,48.1033 160.909,48.9393 161.784,49.7773 C163.022,44.5573 169.67,36.8063 172.408,36.4153 C169.699,41.2103 167.128,53.8183 169.038,56.5903 C172.082,52.2543 176.775,50.9513 176.775,50.9513 C176.775,50.9513 175.555,55.9783 175.027,61.5423 C178.221,64.0203 181.549,66.3423 184.988,68.4193 C186.162,65.5513 190.785,63.2373 190.785,63.2373 C190.785,63.2373 188.833,67.3123 195.808,72.5913 C197.761,74.0703 202.213,74.3013 204.869,74.7423 C201.544,69.6583 203.696,67.1163 203.696,67.1163 C203.696,67.1163 204.141,71.9223 210.344,73.7653 C214.431,74.9793 217.889,75.6773 221.621,75.8293 C221.621,75.8293 201.275,21.7093 172.603,13.8963" id="Fill-146" fill="#AEBC4A"></path>
            <path d="M155.0952,25.3997 C149.9382,17.0277 143.6902,13.7007 139.5542,12.3677 C135.8582,14.0767 135.0582,16.2737 135.0582,16.2737 C135.0582,16.2737 143.2352,31.2367 159.2292,47.2687 C159.6992,40.1497 158.9972,31.7327 155.0952,25.3997" id="Fill-147" fill="#7C8229"></path>
            <path d="M221.6206,75.8289 C221.6206,75.8289 205.9986,57.9749 199.9796,49.5169 C186.0706,29.9699 160.8706,15.4919 148.8776,13.4059 C151.8756,12.8009 175.5366,13.3109 200.2406,44.9539 C209.0526,56.2409 217.6676,69.9449 221.6206,75.8289" id="Fill-148" fill="#7C8229"></path>
            <path d="M90.8648,10.3904 C90.8648,10.3904 76.5718,15.1124 73.0198,33.4824 C69.4688,51.8514 77.0468,71.5484 77.0468,71.5484 C77.0468,71.5484 80.9688,71.5484 84.3388,68.1454 C88.1978,64.2474 88.1978,58.2514 88.1978,58.2514 C88.1978,58.2514 90.8648,61.1194 91.1048,63.4404 C93.3238,61.5854 95.5268,59.3714 97.4798,56.7594 C99.2088,51.9944 97.1228,45.9964 97.1228,45.9964 C97.1228,45.9964 100.2518,47.2194 101.6438,49.5284 C104.0538,43.8124 105.1298,36.7954 103.6408,28.2674 C100.0668,7.7974 90.8648,10.3904 90.8648,10.3904" id="Fill-149" fill="#AEBC4A"></path>
            <path d="M92.9507,13.2425 C92.9507,13.2425 74.9607,30.8745 79.3927,65.2905 C82.5587,52.2565 80.9577,45.0025 83.8247,34.5255 C86.6927,24.0475 92.9507,13.2425 92.9507,13.2425" id="Fill-150" fill="#7C8229"></path>
            <path d="M132.9614,10.7713 C132.9614,10.7713 147.6324,14.1423 152.8784,32.1023 C158.1244,50.0603 152.4134,70.3773 152.4134,70.3773 C152.4134,70.3773 148.5094,70.7423 144.8364,67.6673 C140.6304,64.1463 140.0724,58.1763 140.0724,58.1763 C140.0724,58.1763 137.6844,61.2803 137.6604,63.6133 C135.2794,61.9723 132.8794,59.9743 130.6904,57.5553 C128.5274,52.9703 130.0464,46.8063 130.0464,46.8063 C130.0464,46.8063 127.0444,48.3133 125.8724,50.7423 C122.9414,45.2753 121.2174,38.3893 121.9054,29.7603 C123.5594,9.0453 132.9614,10.7713 132.9614,10.7713" id="Fill-151" fill="#AEBC4A"></path>
            <path d="M131.1509,13.805 C131.1509,13.805 150.7049,29.686 149.4949,64.366 C145.1289,51.682 146.0479,44.311 142.2169,34.146 C138.3859,23.98 131.1509,13.805 131.1509,13.805" id="Fill-152" fill="#7C8229"></path>
            <path d="M103.1196,13.805 C103.1196,13.805 98.1156,20.09 97.1656,30.569 C99.4696,29.818 102.7936,29.818 102.7936,29.818 C102.7936,29.818 98.2956,32.309 97.0946,36.533 C97.2576,39.044 97.6736,41.726 98.4266,44.558 C100.6626,52.971 103.5416,59.487 106.1026,64.187 C107.2906,62.326 108.4646,62.423 109.6376,62.814 C106.3126,68.974 112.3756,73.504 112.3756,73.504 C112.3756,73.504 116.8446,69.915 121.2286,63.761 C121.7546,61.934 121.7546,57.339 120.9786,55.481 C123.8146,56.165 123.6216,57.936 124.2366,59.031 C127.0666,53.99 129.3486,47.839 129.5836,40.916 C129.9406,30.33 124.8186,22.039 121.7546,14.97 C117.4596,5.062 108.4906,4.58 103.1196,13.805" id="Fill-153" fill="#036633"></path>
            <path d="M111.7232,10.2845 C111.7232,10.2845 109.5042,26.8305 109.3762,33.2215 C109.0952,47.2685 114.2002,53.4275 113.3472,61.9875 C112.9882,65.6005 113.3472,71.0275 113.3472,71.0275 C113.3472,71.0275 116.6772,60.8585 115.6342,55.1225 C114.5912,49.3865 111.2022,40.3515 112.4662,28.8045 C113.2102,22.0015 113.8092,16.8095 111.7232,10.2845" id="Fill-154" fill="#088742"></path>
        </g>
    </g>
</svg>