<?xml version="1.0" encoding="UTF-8"?>
<svg width="122px" height="165px" viewBox="0 0 122 165" version="1.1" xmlns="http://www.w3.org/2000/svg" xmlns:xlink="http://www.w3.org/1999/xlink">
    <!-- Generator: Sketch 53.1 (72631) - https://sketchapp.com -->
    <title>Group 10lifeguard</title>
    <desc>Created with Sketch.</desc>
    <g id="Page-1" stroke="none" stroke-width="1" fill="none" fill-rule="evenodd">
        <g id="Group-10" transform="translate(0.028000, 0.987000)">
            <polygon id="Fill-1" fill="#E9AB50" points="42.127 158.498 50.4 158.498 50.4 115.755 42.127 115.755"></polygon>
            <polygon id="Fill-2" fill="#E9AB50" points="76.597 158.498 84.869 158.498 84.869 115.755 76.597 115.755"></polygon>
            <polygon id="Fill-3" fill="#E9AB50" points="50.4 122.343 76.597 122.343 76.597 118.973 50.4 118.973"></polygon>
            <polygon id="Fill-4" fill="#E9AB50" points="50.4 130.386 76.597 130.386 76.597 127.015 50.4 127.015"></polygon>
            <polygon id="Fill-5" fill="#E9AB50" points="50.4 138.429 76.597 138.429 76.597 135.058 50.4 135.058"></polygon>
            <polygon id="Fill-6" fill="#E9AB50" points="50.4 146.472 76.597 146.472 76.597 143.101 50.4 143.101"></polygon>
            <polygon id="Fill-7" fill="#E9AB50" points="50.4 154.515 76.597 154.515 76.597 151.144 50.4 151.144"></polygon>
            <path d="M121.518,110.498 L121.518,115.755 L0,115.755 L0,110.498 L0,105.105 L121.518,105.105 L121.518,110.498 Z" id="Combined-Shape" fill="#9E7032"></path>
            <path d="M114.621,156.61 L119.74,156.61 L119.74,163.07 L96.584,163.07 L96.584,156.61 L101.701,156.61 L101.701,115.755 L114.621,115.755 L114.621,156.61 Z M6.897,156.61 L6.897,115.755 L19.817,115.755 L19.817,156.61 L24.935,156.61 L24.935,163.07 L1.779,163.07 L1.779,156.61 L6.897,156.61 Z" id="Combined-Shape" fill="#B7873E"></path>
            <polygon id="Fill-14" fill="#895E2B" points="60.7591 131.9053 19.8171 115.7553 19.8171 122.7393 101.7011 154.7223 101.7011 147.7173"></polygon>
            <polygon id="Fill-15" fill="#9E7032" points="60.7591 131.9053 101.7011 115.7553 101.7011 122.7393 19.8171 154.7223 19.8171 147.7173"></polygon>
            <path d="M113.4669,15.9144 L113.4669,19.015 L7.6829,27.686 L7.6829,24.5854 L7.6829,21.2144 L113.4669,12.5434 L113.4669,15.9144 Z M7.6829,30.1021 L7.6829,27.6861 L113.4669,19.0151 L113.4669,21.9731 L7.6829,30.1021 Z" id="Combined-Shape" fill="#9E7032"></path>
            <path d="M93.0296,23.544 L104.3546,22.673 L104.3546,105.105 L93.0296,105.105 L93.0296,23.544 Z M16.0023,29.4629 L93.0293,23.5439 L93.0293,105.1049 L16.0023,105.1049 L16.0023,29.4629 Z" id="Combined-Shape" fill="#BD6539"></path>
            <polygon id="Fill-21" fill="#4C2030" points="14.295 42.535 106.062 42.535 106.062 34.731 14.295 34.731"></polygon>
            <polygon id="Fill-22" fill="#4C2030" points="14.295 60.744 106.062 60.744 106.062 52.94 14.295 52.94"></polygon>
            <polygon id="Fill-23" fill="#4C2030" points="14.295 78.953 106.062 78.953 106.062 71.149 14.295 71.149"></polygon>
            <polygon id="Fill-24" fill="#4C2030" points="14.295 97.161 106.062 97.161 106.062 89.357 14.295 89.357"></polygon>
            <path d="M116.0072,59.3418 C116.0072,59.3418 93.5572,79.2218 99.6752,105.1048 L109.9842,105.1048 C109.9842,105.1048 123.9952,85.3368 116.0072,59.3418" id="Fill-25" fill="#036633"></path>
            <path d="M112.2865,71.1489 C112.3715,72.6609 112.3145,74.1399 112.2295,75.6119 C112.1395,77.0829 111.9845,78.5389 111.8045,79.9879 C111.4295,82.8849 110.8905,85.7429 110.2325,88.5739 C109.5725,91.4029 108.7895,94.2049 107.8435,96.9679 C106.8805,99.7269 105.8195,102.4629 104.3545,105.1049 C104.2115,102.0869 104.4735,99.1649 104.8315,96.2639 C105.2075,93.3679 105.7465,90.5099 106.4075,87.6799 C107.0725,84.8519 107.8555,82.0499 108.8035,79.2869 C109.2825,77.9069 109.7905,76.5339 110.3595,75.1749 C110.9345,73.8169 111.5405,72.4659 112.2865,71.1489" id="Fill-27" fill="#AEBC4A"></path>
            <polygon id="Fill-29" fill="#9E7032" points="0.0003 85.0269 0.0003 88.1699 3.7543 88.1699 3.7543 105.1049 9.2313 105.1049 9.2313 88.1699 21.8433 88.1699 21.8433 105.1049 27.3203 105.1049 27.3203 88.1699 39.9323 88.1699 39.9323 105.1049 45.4093 105.1049 45.4093 88.1699 58.0203 88.1699 58.0203 105.1049 63.4983 105.1049 63.4983 88.1699 76.1083 88.1699 76.1083 105.1049 81.5873 105.1049 81.5873 88.1699 94.1973 88.1699 94.1973 105.1049 99.6753 105.1049 99.6753 88.1699 112.2863 88.1699 112.2863 105.1049 117.7643 105.1049 117.7643 88.1699 121.5183 88.1699 121.5183 85.0269"></polygon>
            <polygon id="Fill-31" fill="#9E7032" points="4.608 85.027 7.683 85.027 7.683 2.13162821e-14 4.608 2.13162821e-14"></polygon>
            <path d="M22.6519,5.92433768 L26.4257,6.6353 L26.4257,10.2913 L22.6517,11.0033 L7.6829,13.824 L7.6829,8.463 L7.6829,3.103 L22.6519,5.924 Z M26.4261,6.6357 L36.1271,8.4637 L26.4261,10.2917 L26.4261,6.6357 Z" id="Combined-Shape" fill="#4C2030"></path>
            <path d="M48.1146,46.3579 L48.1146,73.0099 L30.5836,73.0099 L24.1386,73.0099 L24.1386,40.6729 L48.1146,40.6729 L48.1146,46.3579 Z M22.6256,38.6329 L22.6256,75.0509 L29.8846,75.0509 L49.6286,75.0509 L49.6286,45.0349 L49.6286,38.6329 L22.6256,38.6329 Z" id="Fill-36" fill="#4C2030"></path>
            <polygon id="Fill-37" fill="#99D9D9" points="48.1146 46.3579 48.1146 40.6729 24.1386 40.6729 24.1386 50.6609 48.1146 50.6609"></polygon>
            <polygon id="Fill-38" fill="#99D9D9" points="24.139 73.0103 30.583 73.0103 48.115 73.0103 48.115 63.0233 24.139 63.0233"></polygon>
            <polygon id="Fill-39" fill="#99D9D9" points="24.139 63.023 48.115 63.023 48.115 50.661 24.139 50.661"></polygon>
        </g>
    </g>
</svg>