<?xml version="1.0" encoding="UTF-8"?>
<svg width="215px" height="71px" viewBox="0 0 215 71" version="1.1" xmlns="http://www.w3.org/2000/svg" xmlns:xlink="http://www.w3.org/1999/xlink">
    <!-- Generator: Sketch 53.1 (72631) - https://sketchapp.com -->
    <title>Group 12rug</title>
    <desc>Created with Sketch.</desc>
    <g id="Page-1" stroke="none" stroke-width="1" fill="none" fill-rule="evenodd">
        <g id="Group-12" transform="translate(1.499000, 0.059200)">
            <polygon id="Fill-40" fill="#99D9D9" points="114.6524 16.4566 55.9024 39.0256 68.8164 42.8056 127.0914 19.7696"></polygon>
            <polygon id="Fill-41" fill="#08AAEB" points="102.1514 13.127 42.9144 35.224 55.9024 39.025 114.6524 16.457"></polygon>
            <polygon id="Fill-42" fill="#99D9D9" points="89.584 9.7794 29.847 31.3994 42.914 35.2244 102.151 13.1274"></polygon>
            <polygon id="Fill-43" fill="#99D9D9" points="68.6055 4.192 6.0385 24.431 16.6985 27.551 76.9485 6.414"></polygon>
            <polygon id="Fill-44" fill="#08AAEB" points="76.9483 6.4136 16.6983 27.5516 29.8463 31.3996 89.5843 9.7796"></polygon>
            <polygon id="Fill-45" fill="#08AAEB" points="176.2832 32.8717 119.7952 57.7267 132.3852 61.4117 188.4512 36.1127"></polygon>
            <polygon id="Fill-46" fill="#99D9D9" points="164.0645 29.6173 107.1455 54.0243 119.7945 57.7263 176.2835 32.8713"></polygon>
            <polygon id="Fill-47" fill="#99D9D9" points="132.3848 61.4112 148.7348 66.1972 205.2138 40.5782 188.4508 36.1132"></polygon>
            <polygon id="Fill-48" fill="#08AAEB" points="127.0918 19.7701 68.8168 42.8061 81.6598 46.5651 139.4718 23.0671"></polygon>
            <polygon id="Fill-49" fill="#99D9D9" points="139.4717 23.067 81.6597 46.565 94.4347 50.304 151.7947 26.349"></polygon>
            <polygon id="Fill-50" fill="#08AAEB" points="151.7949 26.3492 94.4349 50.3042 107.1459 54.0242 164.0649 29.6172"></polygon>
            <path d="M148.9629,66.2227 C149.6049,68.0877 152.1579,66.7267 153.3379,67.6297 C153.6829,67.8937 153.8259,68.4417 154.1639,68.6627 C154.6739,68.9957 154.8499,68.6987 155.3489,68.8337 C156.1599,69.0537 156.8089,69.8577 157.2089,70.5457" id="Stroke-51" stroke="#99D9D9" stroke-linecap="round" stroke-linejoin="round"></path>
            <path d="M152.4785,64.6246 C153.1165,66.4786 155.6585,65.1246 156.8315,66.0236 C157.1745,66.2866 157.3185,66.8316 157.6545,67.0526 C158.1615,67.3846 158.3355,67.0876 158.8325,67.2226 C159.6415,67.4406 160.2855,68.2416 160.6835,68.9266" id="Stroke-52" stroke="#99D9D9" stroke-linecap="round" stroke-linejoin="round"></path>
            <path d="M155.9942,63.025 C156.6292,64.872 159.1582,63.525 160.3252,64.419 C160.6682,64.68 160.8092,65.222 161.1442,65.442 C161.6482,65.772 161.8232,65.477 162.3162,65.61 C163.1212,65.828 163.7632,66.625 164.1592,67.307" id="Stroke-53" stroke="#99D9D9" stroke-linecap="round" stroke-linejoin="round"></path>
            <path d="M159.5108,61.4268 C160.1418,63.2638 162.6578,61.9228 163.8198,62.8128 C164.1598,63.0728 164.3008,63.6138 164.6358,63.8308 C165.1368,64.1588 165.3108,63.8668 165.8008,63.9988 C166.6018,64.2158 167.2398,65.0078 167.6338,65.6868" id="Stroke-54" stroke="#99D9D9" stroke-linecap="round" stroke-linejoin="round"></path>
            <path d="M163.0264,59.8282 C163.6544,61.6552 166.1584,60.3212 167.3134,61.2072 C167.6524,61.4662 167.7934,62.0032 168.1254,62.2212 C168.6244,62.5472 168.7974,62.2552 169.2864,62.3872 C170.0824,62.6032 170.7164,63.3912 171.1094,64.0662" id="Stroke-55" stroke="#99D9D9" stroke-linecap="round" stroke-linejoin="round"></path>
            <path d="M166.542,58.2296 C167.166,60.0476 169.657,58.7206 170.809,59.6016 C171.145,59.8596 171.285,60.3946 171.615,60.6096 C172.111,60.9346 172.283,60.6446 172.771,60.7766 C173.563,60.9906 174.194,61.7756 174.584,62.4466" id="Stroke-56" stroke="#99D9D9" stroke-linecap="round" stroke-linejoin="round"></path>
            <path d="M170.0576,56.6304 C170.6786,58.4404 173.1576,57.1194 174.3026,57.9964 C174.6376,58.2524 174.7766,58.7844 175.1046,58.9994 C175.5996,59.3224 175.7706,59.0344 176.2546,59.1644 C177.0426,59.3774 177.6716,60.1584 178.0596,60.8264" id="Stroke-57" stroke="#99D9D9" stroke-linecap="round" stroke-linejoin="round"></path>
            <path d="M173.5733,55.0318 C174.1913,56.8328 176.6573,55.5188 177.7973,56.3898 C178.1303,56.6458 178.2683,57.1748 178.5953,57.3888 C179.0873,57.7098 179.2573,57.4228 179.7383,57.5528 C180.5223,57.7648 181.1483,58.5418 181.5353,59.2078" id="Stroke-58" stroke="#99D9D9" stroke-linecap="round" stroke-linejoin="round"></path>
            <path d="M177.0889,53.4332 C177.7039,55.2242 180.1569,53.9172 181.2909,54.7852 C181.6229,55.0382 181.7609,55.5652 182.0859,55.7782 C182.5739,56.0982 182.7429,55.8122 183.2229,55.9412 C184.0039,56.1522 184.6259,56.9262 185.0099,57.5872" id="Stroke-59" stroke="#99D9D9" stroke-linecap="round" stroke-linejoin="round"></path>
            <path d="M180.6045,51.8345 C181.2165,53.6165 183.6575,52.3155 184.7855,53.1795 C185.1155,53.4315 185.2525,53.9555 185.5755,54.1675 C186.0625,54.4855 186.2305,54.2015 186.7075,54.3305 C187.4835,54.5405 188.1025,55.3085 188.4855,55.9675" id="Stroke-60" stroke="#99D9D9" stroke-linecap="round" stroke-linejoin="round"></path>
            <path d="M184.1201,50.2359 C184.7291,52.0089 187.1571,50.7149 188.2791,51.5729 C188.6071,51.8249 188.7441,52.3459 189.0651,52.5559 C189.5511,52.8729 189.7181,52.5899 190.1911,52.7179 C190.9651,52.9269 191.5801,53.6929 191.9611,54.3469" id="Stroke-61" stroke="#99D9D9" stroke-linecap="round" stroke-linejoin="round"></path>
            <path d="M187.6358,48.6368 C188.2418,50.4018 190.6568,49.1138 191.7738,49.9678 C192.0998,50.2188 192.2368,50.7358 192.5568,50.9458 C193.0378,51.2618 193.2038,50.9798 193.6758,51.1078 C194.4448,51.3148 195.0568,52.0758 195.4358,52.7268" id="Stroke-62" stroke="#99D9D9" stroke-linecap="round" stroke-linejoin="round"></path>
            <path d="M191.1514,47.0382 C191.7544,48.7932 194.1584,47.5122 195.2684,48.3622 C195.5924,48.6112 195.7284,49.1262 196.0464,49.3352 C196.5254,49.6482 196.6914,49.3692 197.1604,49.4952 C197.9244,49.7022 198.5354,50.4602 198.9114,51.1072" id="Stroke-63" stroke="#99D9D9" stroke-linecap="round" stroke-linejoin="round"></path>
            <path d="M194.667,45.44 C195.267,47.185 197.658,45.912 198.762,46.757 C199.085,47.004 199.219,47.518 199.536,47.724 C200.014,48.037 200.178,47.758 200.645,47.884 C201.405,48.089 202.012,48.843 202.386,49.488" id="Stroke-64" stroke="#99D9D9" stroke-linecap="round" stroke-linejoin="round"></path>
            <path d="M198.1826,43.8414 C198.7796,45.5774 201.1586,44.3104 202.2566,45.1514 C202.5786,45.3974 202.7106,45.9074 203.0266,46.1134 C203.5006,46.4244 203.6636,46.1474 204.1286,46.2724 C204.8856,46.4774 205.4896,47.2264 205.8616,47.8684" id="Stroke-65" stroke="#99D9D9" stroke-linecap="round" stroke-linejoin="round"></path>
            <path d="M201.6983,42.2427 C202.2923,43.9697 204.6583,42.7097 205.7503,43.5457 C206.0703,43.7907 206.2033,44.2987 206.5163,44.5037 C206.9883,44.8117 207.1513,44.5357 207.6133,44.6607 C208.3663,44.8647 208.9663,45.6107 209.3363,46.2477" id="Stroke-66" stroke="#99D9D9" stroke-linecap="round" stroke-linejoin="round"></path>
            <path d="M205.2139,40.6436 C205.8049,42.3616 208.1579,41.1076 209.2439,41.9396 C209.5639,42.1836 209.6949,42.6886 210.0069,42.8926 C210.4759,43.1996 210.6379,42.9256 211.0979,43.0496 C211.8459,43.2516 212.4429,43.9936 212.8119,44.6276" id="Stroke-67" stroke="#99D9D9" stroke-linecap="round" stroke-linejoin="round"></path>
            <path d="M66.0401,5.316 C65.6381,3.386 62.9341,4.419 61.8761,3.376 C61.5661,3.071 61.4921,2.509 61.1851,2.247 C60.7211,1.853 60.5091,2.126 60.0311,1.931 C59.2521,1.611 58.7091,0.732 58.3981,1.42108547e-14" id="Stroke-68" stroke="#99D9D9" stroke-linecap="round" stroke-linejoin="round"></path>
            <path d="M62.3526,6.4649 C61.9516,4.5439 59.2616,5.5709 58.2086,4.5339 C57.9016,4.2299 57.8276,3.6719 57.5206,3.4109 C57.0586,3.0179 56.8486,3.2909 56.3736,3.0949 C55.5986,2.7779 55.0586,1.9029 54.7486,1.1729" id="Stroke-69" stroke="#99D9D9" stroke-linecap="round" stroke-linejoin="round"></path>
            <path d="M58.666,7.6129 C58.267,5.7029 55.589,6.7239 54.543,5.6919 C54.236,5.3889 54.162,4.8329 53.857,4.5739 C53.398,4.1839 53.188,4.4539 52.715,4.2599 C51.944,3.9449 51.407,3.0739 51.099,2.3479" id="Stroke-70" stroke="#99D9D9" stroke-linecap="round" stroke-linejoin="round"></path>
            <path d="M54.9785,8.7608 C54.5815,6.8608 51.9165,7.8778 50.8745,6.8488 C50.5705,6.5488 50.4975,5.9948 50.1935,5.7378 C49.7365,5.3488 49.5285,5.6188 49.0575,5.4258 C48.2905,5.1118 47.7545,4.2458 47.4485,3.5228" id="Stroke-71" stroke="#99D9D9" stroke-linecap="round" stroke-linejoin="round"></path>
            <path d="M51.291,9.9097 C50.895,8.0177 48.245,9.0297 47.208,8.0077 C46.904,7.7087 46.832,7.1577 46.53,6.9007 C46.075,6.5137 45.868,6.7827 45.398,6.5907 C44.636,6.2777 44.104,5.4157 43.799,4.6977" id="Stroke-72" stroke="#99D9D9" stroke-linecap="round" stroke-linejoin="round"></path>
            <path d="M47.6045,11.0582 C47.2095,9.1762 44.5735,10.1832 43.5415,9.1652 C43.2395,8.8682 43.1675,8.3192 42.8665,8.0642 C42.4145,7.6802 42.2085,7.9462 41.7415,7.7562 C40.9815,7.4452 40.4525,6.5872 40.1495,5.8722" id="Stroke-73" stroke="#99D9D9" stroke-linecap="round" stroke-linejoin="round"></path>
            <path d="M43.917,12.2061 C43.524,10.3331 40.901,11.3351 39.874,10.3231 C39.573,10.0271 39.502,9.4811 39.203,9.2271 C38.753,8.8451 38.548,9.1111 38.083,8.9201 C37.328,8.6111 36.801,7.7581 36.499,7.0461" id="Stroke-74" stroke="#99D9D9" stroke-linecap="round" stroke-linejoin="round"></path>
            <path d="M40.2295,13.3551 C39.8395,11.4911 37.2295,12.4881 36.2085,11.4811 C35.9085,11.1861 35.8365,10.6441 35.5395,10.3911 C35.0915,10.0111 34.8875,10.2741 34.4255,10.0851 C33.6735,9.7771 33.1495,8.9281 32.8495,8.2211" id="Stroke-75" stroke="#99D9D9" stroke-linecap="round" stroke-linejoin="round"></path>
            <path d="M36.542,14.5035 C36.154,12.6495 33.557,13.6415 32.54,12.6385 C32.243,12.3455 32.172,11.8065 31.876,11.5545 C31.431,11.1755 31.227,11.4395 30.768,11.2505 C30.02,10.9435 29.498,10.0995 29.199,9.3955" id="Stroke-76" stroke="#99D9D9" stroke-linecap="round" stroke-linejoin="round"></path>
            <path d="M32.8545,15.6514 C32.4685,13.8074 29.8845,14.7934 28.8735,13.7974 C28.5785,13.5054 28.5065,12.9684 28.2115,12.7174 C27.7695,12.3414 27.5665,12.6024 27.1095,12.4164 C26.3655,12.1104 25.8465,11.2704 25.5495,10.5694" id="Stroke-77" stroke="#99D9D9" stroke-linecap="round" stroke-linejoin="round"></path>
            <path d="M29.167,16.8004 C28.783,14.9654 26.213,15.9464 25.207,14.9554 C24.912,14.6644 24.842,14.1304 24.549,13.8824 C24.107,13.5074 23.907,13.7674 23.452,13.5804 C22.711,13.2774 22.195,12.4414 21.899,11.7444" id="Stroke-78" stroke="#99D9D9" stroke-linecap="round" stroke-linejoin="round"></path>
            <path d="M25.4795,17.9483 C25.0975,16.1233 22.5405,17.0993 21.5395,16.1133 C21.2475,15.8233 21.1765,15.2933 20.8855,15.0453 C20.4465,14.6723 20.2465,14.9303 19.7935,14.7453 C19.0565,14.4443 18.5435,13.6123 18.2505,12.9193" id="Stroke-79" stroke="#99D9D9" stroke-linecap="round" stroke-linejoin="round"></path>
            <path d="M21.792,19.0968 C21.413,17.2808 18.868,18.2518 17.873,17.2708 C17.582,16.9838 17.512,16.4548 17.222,16.2088 C16.785,15.8378 16.586,16.0958 16.137,15.9108 C15.403,15.6108 14.893,14.7838 14.601,14.0928" id="Stroke-80" stroke="#99D9D9" stroke-linecap="round" stroke-linejoin="round"></path>
            <path d="M18.1045,20.2457 C17.7265,18.4387 15.1965,19.4047 14.2065,18.4287 C13.9165,18.1427 13.8465,17.6177 13.5575,17.3717 C13.1245,17.0037 12.9255,17.2587 12.4775,17.0757 C11.7495,16.7777 11.2415,15.9537 10.9495,15.2677" id="Stroke-81" stroke="#99D9D9" stroke-linecap="round" stroke-linejoin="round"></path>
            <path d="M14.417,21.3936 C14.042,19.5966 11.523,20.5586 10.539,19.5866 C10.25,19.3026 10.182,18.7796 9.895,18.5356 C9.462,18.1686 9.266,18.4236 8.82,18.2406 C8.095,17.9436 7.59,17.1246 7.3,16.4426" id="Stroke-82" stroke="#99D9D9" stroke-linecap="round" stroke-linejoin="round"></path>
            <path d="M10.7295,22.5426 C10.3565,20.7546 7.8515,21.7106 6.8725,20.7446 C6.5845,20.4616 6.5165,19.9416 6.2315,19.6986 C5.8015,19.3336 5.6055,19.5866 5.1625,19.4056 C4.4405,19.1096 3.9385,18.2956 3.6505,17.6166" id="Stroke-83" stroke="#99D9D9" stroke-linecap="round" stroke-linejoin="round"></path>
            <path d="M7.043,23.6905 C6.671,21.9125 4.18,22.8635 3.205,21.9025 C2.919,21.6215 2.852,21.1045 2.567,20.8625 C2.14,20.4995 1.945,20.7515 1.505,20.5705 C0.786,20.2765 0.286,19.4665 0,18.7915" id="Stroke-84" stroke="#99D9D9" stroke-linecap="round" stroke-linejoin="round"></path>
            <polygon id="Fill-85" fill="#099CC9" points="6.0381 24.4307 6.1651 25.2257 148.9631 67.3067 205.2141 41.6417 205.2141 40.5777 148.7341 66.1967"></polygon>
        </g>
    </g>
</svg>