<?xml version="1.0" encoding="UTF-8"?>
<svg width="141px" height="87px" viewBox="0 0 141 87" version="1.1" xmlns="http://www.w3.org/2000/svg" xmlns:xlink="http://www.w3.org/1999/xlink">
    <!-- Generator: Sketch 53.1 (72631) - https://sketchapp.com -->
    <title>Group 16</title>
    <desc>Created with Sketch.</desc>
    <g id="Page-1" stroke="none" stroke-width="1" fill="none" fill-rule="evenodd">
        <g id="Group-16" transform="translate(0.361200, 0.879100)">
            <path d="M108.337,77.8603 C108.337,82.2983 84.085,85.8973 54.169,85.8973 C24.252,85.8973 0,82.2983 0,77.8603 C0,73.4223 24.252,69.8233 54.169,69.8233 C84.085,69.8233 108.337,73.4223 108.337,77.8603" id="Fill-86" fill="#C8C4BF" opacity="0.312244234"></path>
            <path d="M46.8165,52.998 L46.8165,55.438 C46.8165,55.873 46.4635,56.225 46.0295,56.225 C45.5945,56.225 45.2425,55.873 45.2425,55.438 L45.2425,52.998 C45.2425,52.563 44.8905,52.211 44.4555,52.211 L41.8465,52.211 C41.4125,52.211 41.0595,52.563 41.0595,52.998 L41.0595,55.438 C41.0595,55.873 40.7075,56.225 40.2725,56.225 C39.8375,56.225 39.4855,55.873 39.4855,55.438 L39.4855,52.998 C39.4855,52.563 39.1335,52.211 38.6995,52.211 L36.0895,52.211 C35.6555,52.211 35.3025,52.563 35.3025,52.998 L35.3025,55.438 C35.3025,55.873 34.9505,56.225 34.5155,56.225 C34.0815,56.225 33.7295,55.873 33.7295,55.438 L33.7295,52.998 C33.7295,52.563 33.3775,52.211 32.9425,52.211 L30.3335,52.211 C29.8985,52.211 29.5455,52.563 29.5455,52.998 L29.5455,56.225 L29.5455,80.896 L50.9995,80.896 L50.9995,56.225 L50.9995,52.998 C50.9995,52.563 50.6465,52.211 50.2125,52.211 L47.6035,52.211 C47.1695,52.211 46.8165,52.563 46.8165,52.998" id="Fill-87" fill="#E69D2F"></path>
            <path d="M68.2697,38.6558 L68.2697,41.0958 C68.2697,41.5308 67.9167,41.8828 67.4827,41.8828 C67.0477,41.8828 66.6957,41.5308 66.6957,41.0958 L66.6957,38.6558 C66.6957,38.2208 66.3427,37.8688 65.9087,37.8688 L63.2997,37.8688 C62.8657,37.8688 62.5127,38.2208 62.5127,38.6558 L62.5127,41.0958 C62.5127,41.5308 62.1607,41.8828 61.7257,41.8828 C61.2907,41.8828 60.9387,41.5308 60.9387,41.0958 L60.9387,38.6558 C60.9387,38.2208 60.5857,37.8688 60.1517,37.8688 L57.5427,37.8688 C57.1087,37.8688 56.7557,38.2208 56.7557,38.6558 L56.7557,41.0958 C56.7557,41.5308 56.4037,41.8828 55.9687,41.8828 C55.5347,41.8828 55.1817,41.5308 55.1817,41.0958 L55.1817,38.6558 C55.1817,38.2208 54.8307,37.8688 54.3957,37.8688 L51.7867,37.8688 C51.3517,37.8688 50.9987,38.2208 50.9987,38.6558 L50.9987,41.8828 L50.9987,80.8958 L72.4527,80.8958 L72.4527,41.8828 L72.4527,38.6558 C72.4527,38.2208 72.0997,37.8688 71.6657,37.8688 L69.0567,37.8688 C68.6227,37.8688 68.2697,38.2208 68.2697,38.6558" id="Fill-88" fill="#E69D2F"></path>
            <path d="M123.0695,52.998 L123.0695,55.438 C123.0695,55.873 123.4225,56.225 123.8565,56.225 C124.2915,56.225 124.6435,55.873 124.6435,55.438 L124.6435,52.998 C124.6435,52.563 124.9965,52.211 125.4305,52.211 L128.0395,52.211 C128.4735,52.211 128.8265,52.563 128.8265,52.998 L128.8265,55.438 C128.8265,55.873 129.1785,56.225 129.6135,56.225 C130.0485,56.225 130.4005,55.873 130.4005,55.438 L130.4005,52.998 C130.4005,52.563 130.7525,52.211 131.1865,52.211 L133.7965,52.211 C134.2305,52.211 134.5835,52.563 134.5835,52.998 L134.5835,55.438 C134.5835,55.873 134.9355,56.225 135.3705,56.225 C135.8045,56.225 136.1565,55.873 136.1565,55.438 L136.1565,52.998 C136.1565,52.563 136.5085,52.211 136.9435,52.211 L139.5525,52.211 C139.9875,52.211 140.3405,52.563 140.3405,52.998 L140.3405,56.225 L140.3405,80.896 L118.8865,80.896 L118.8865,56.225 L118.8865,52.998 C118.8865,52.563 119.2395,52.211 119.6735,52.211 L122.2825,52.211 C122.7165,52.211 123.0695,52.563 123.0695,52.998" id="Fill-89" fill="#E69D2F"></path>
            <path d="M101.6163,38.6558 L101.6163,41.0958 C101.6163,41.5308 101.9693,41.8828 102.4033,41.8828 C102.8383,41.8828 103.1903,41.5308 103.1903,41.0958 L103.1903,38.6558 C103.1903,38.2208 103.5433,37.8688 103.9773,37.8688 L106.5863,37.8688 C107.0203,37.8688 107.3733,38.2208 107.3733,38.6558 L107.3733,41.0958 C107.3733,41.5308 107.7253,41.8828 108.1603,41.8828 C108.5953,41.8828 108.9473,41.5308 108.9473,41.0958 L108.9473,38.6558 C108.9473,38.2208 109.3003,37.8688 109.7343,37.8688 L112.3433,37.8688 C112.7773,37.8688 113.1303,38.2208 113.1303,38.6558 L113.1303,41.0958 C113.1303,41.5308 113.4823,41.8828 113.9173,41.8828 C114.3513,41.8828 114.7043,41.5308 114.7043,41.0958 L114.7043,38.6558 C114.7043,38.2208 115.0553,37.8688 115.4903,37.8688 L118.0993,37.8688 C118.5343,37.8688 118.8873,38.2208 118.8873,38.6558 L118.8873,41.8828 L118.8873,80.8958 L97.4333,80.8958 L97.4333,41.8828 L97.4333,38.6558 C97.4333,38.2208 97.7863,37.8688 98.2203,37.8688 L100.8293,37.8688 C101.2643,37.8688 101.6163,38.2208 101.6163,38.6558" id="Fill-90" fill="#E69D2F"></path>
            <polygon id="Fill-91" fill="#E69D2F" points="72.4528 80.8959 97.4338 80.8959 97.4338 20.5099 72.4528 20.5099"></polygon>
            <polygon id="Fill-92" fill="#E69D2F" points="86.1564 22.521 65.7484 22.521 75.9524 11.261 86.1564 -2.13162821e-14 96.3604 11.261 106.5654 22.521"></polygon>
            <path d="M88.1886,50.7026 L82.2456,50.7026 C80.4946,50.7026 79.0746,52.1226 79.0746,53.8736 L79.0746,80.8956 L91.3606,80.8956 L91.3606,53.8736 C91.3606,52.1226 89.9406,50.7026 88.1886,50.7026" id="Fill-93" fill="#C47D10"></path>
            <polygon id="Fill-94" fill="#C47D10" points="35.4758 73.2329 45.0708 73.2329 45.0708 63.6379 35.4758 63.6379"></polygon>
            <polygon id="Fill-95" fill="#C47D10" points="56.9288 57.0079 66.5228 57.0079 66.5228 47.4139 56.9288 47.4139"></polygon>
            <polygon id="Fill-96" fill="#C47D10" points="56.9288 73.2329 66.5228 73.2329 66.5228 63.6379 56.9288 63.6379"></polygon>
            <polygon id="Fill-97" fill="#C47D10" points="124.8158 76.5469 134.4108 76.5469 134.4108 66.9529 124.8158 66.9529"></polygon>
            <polygon id="Fill-98" fill="#C47D10" points="103.3638 60.3229 112.9578 60.3229 112.9578 50.7289 103.3638 50.7289"></polygon>
            <polygon id="Fill-99" fill="#C47D10" points="103.3638 76.5469 112.9578 76.5469 112.9578 66.9529 103.3638 66.9529"></polygon>
            <polygon id="Fill-100" fill="#C47D10" points="80.4198 40.4479 90.0148 40.4479 90.0148 30.8539 80.4198 30.8539"></polygon>
            <path d="M140.34,80.896 L118.887,80.896 L97.434,80.896 L72.452,80.896 L50.999,80.896 L29.546,80.896 L29.546,56.225 L29.546,52.998 C29.546,52.563 29.899,52.211 30.333,52.211 L32.943,52.211 C33.377,52.211 33.73,52.563 33.73,52.998 L33.73,55.438 C33.73,55.873 34.081,56.225 34.516,56.225 C34.95,56.225 35.303,55.873 35.303,55.438 L35.303,52.998 C35.303,52.563 35.655,52.211 36.09,52.211 L38.699,52.211 C39.134,52.211 39.486,52.563 39.486,52.998 L39.486,55.438 C39.486,55.873 39.838,56.225 40.273,56.225 C40.707,56.225 41.06,55.873 41.06,55.438 L41.06,52.998 C41.06,52.563 41.412,52.211 41.847,52.211 L44.455,52.211 C44.891,52.211 45.242,52.563 45.242,52.998 L45.242,55.438 C45.242,55.873 45.595,56.225 46.029,56.225 C46.464,56.225 46.817,55.873 46.817,55.438 L46.817,52.998 C46.817,52.563 47.169,52.211 47.604,52.211 L50.212,52.211 C50.647,52.211 50.999,52.563 50.999,52.998 L50.999,41.883 L50.999,38.656 C50.999,38.221 51.352,37.869 51.786,37.869 L54.396,37.869 C54.83,37.869 55.182,38.221 55.182,38.656 L55.182,41.096 C55.182,41.53 55.534,41.883 55.969,41.883 C56.403,41.883 56.756,41.53 56.756,41.096 L56.756,38.656 C56.756,38.221 57.109,37.869 57.543,37.869 L60.152,37.869 C60.586,37.869 60.939,38.221 60.939,38.656 L60.939,41.096 C60.939,41.53 61.291,41.883 61.726,41.883 C62.16,41.883 62.513,41.53 62.513,41.096 L62.513,38.656 C62.513,38.221 62.865,37.869 63.3,37.869 L65.908,37.869 C66.343,37.869 66.695,38.221 66.695,38.656 L66.695,41.096 C66.695,41.53 67.048,41.883 67.483,41.883 C67.917,41.883 68.27,41.53 68.27,41.096 L68.27,38.656 C68.27,38.221 68.621,37.869 69.057,37.869 L71.665,37.869 C72.1,37.869 72.452,38.221 72.452,38.656 L72.452,20.51 L140.34,80.896 Z" id="Fill-101" fill="#C8C4BF" opacity="0.334402902"></path>
            <path d="M88.5734,4.3809 L99.1494,18.6719 C99.1494,18.6719 90.2064,14.0179 88.5734,4.3809" id="Fill-102" fill="#F6C17D"></path>
        </g>
    </g>
</svg>