<?xml version="1.0" encoding="UTF-8"?>
<svg width="49px" height="33px" viewBox="0 0 49 33" version="1.1" xmlns="http://www.w3.org/2000/svg" xmlns:xlink="http://www.w3.org/1999/xlink">
    <!-- Generator: Sketch 53.1 (72631) - https://sketchapp.com -->
    <title>Group 14sidetable</title>
    <desc>Created with Sketch.</desc>
    <g id="Page-1" stroke="none" stroke-width="1" fill="none" fill-rule="evenodd">
        <g id="Group-14" transform="translate(0.793600, 0.061300)">
            <path d="M47.516,5.1982 C47.516,7.7962 36.879,11.3852 23.758,11.3852 C10.637,11.3852 0,7.7962 0,5.1982 C0,2.6002 10.637,1.9772 23.758,1.9772 C36.879,1.9772 47.516,2.6002 47.516,5.1982" id="Fill-103" fill="#770A2E"></path>
            <polygon id="Fill-104" fill="#770A2E" points="1.0914 32.0717 3.2644 32.0717 3.2644 6.1157 1.0914 6.1157"></polygon>
            <polygon id="Fill-105" fill="#770A2E" points="22.6724 27.3957 24.8454 27.3957 24.8454 1.4397 22.6724 1.4397"></polygon>
            <polygon id="Fill-106" fill="#770A2E" points="44.9234 32.0717 47.0964 32.0717 47.0964 6.1157 44.9234 6.1157"></polygon>
            <path d="M47.516,4.704 C47.516,7.302 36.879,9.408 23.758,9.408 C10.637,9.408 0,7.302 0,4.704 C0,2.106 10.637,-4.97379915e-14 23.758,-4.97379915e-14 C36.879,-4.97379915e-14 47.516,2.106 47.516,4.704" id="Fill-107" fill="#8F0B32"></path>
        </g>
    </g>
</svg>