<?xml version="1.0" encoding="UTF-8"?>
<svg width="139px" height="165px" viewBox="0 0 139 165" version="1.1" xmlns="http://www.w3.org/2000/svg" xmlns:xlink="http://www.w3.org/1999/xlink">
    <!-- Generator: Sketch 53.1 (72631) - https://sketchapp.com -->
    <title>Group 48umbrella</title>
    <desc>Created with Sketch.</desc>
    <g id="Page-1" stroke="none" stroke-width="1" fill="none" fill-rule="evenodd">
        <g id="Group-48" transform="translate(0.155900, 0.257586)">
            <path d="M114.012,149.202614 C114.012,157.587614 88.49,164.385614 57.007,164.385614 C25.523,164.385614 0,157.587614 0,149.202614 C0,140.818614 25.523,134.020614 57.007,134.020614 C88.49,134.020614 114.012,140.818614 114.012,149.202614" id="Fill-166" fill="#7A3389" opacity="0.256208147"></path>
            <path d="M22.7259,38.8686143 C21.6529,42.6166143 19.4939,56.3796143 18.9319,60.7546143 C14.1259,59.9476143 11.2689,58.6166143 10.9749,56.7696143 C10.5979,54.4046143 15.7999,41.8186143 22.7259,38.8686143" id="Fill-167" fill="#AC1B2E"></path>
            <path d="M49.3665,30.6625143 C38.4615,33.2395143 29.2485,36.0905143 22.7255,38.8685143 C21.6525,42.6165143 19.4935,56.3795143 18.9315,60.7545143 C18.9315,60.7545143 32.6375,58.8015143 45.5645,61.2625143 C45.9845,53.2975143 48.1755,36.6525143 49.3665,30.6625143" id="Fill-169" fill="#D68A1D"></path>
            <path d="M123.4945,22.0336143 C117.0365,21.7286143 108.9515,21.9436143 99.8285,22.6856143 C102.9545,27.9426143 104.8305,43.8736143 107.9835,51.2026143 C107.9835,51.2026143 118.8545,44.2826143 131.0405,43.2166143 C128.0685,38.9676143 126.4205,25.4386143 123.4945,22.0336143" id="Fill-170" fill="#D68A1D"></path>
            <path d="M74.1419,25.8134143 C65.2979,27.2204143 56.9289,28.8764143 49.3669,30.6624143 C48.1749,36.6524143 45.9849,53.2974143 45.5649,61.2624143 C45.5649,61.2624143 60.6089,56.2154143 76.0099,53.9094143 C91.4219,51.6014143 107.9839,51.2024143 107.9839,51.2024143 C104.8299,43.8734143 102.9539,27.9424143 99.8289,22.6864143 C91.9139,23.3304143 83.2279,24.3684143 74.1419,25.8134143" id="Fill-171" fill="#AC1B2E"></path>
            <path d="M87.9466,143.538014 C88.1156,143.561014 88.2906,143.561014 88.4676,143.535014 C89.4786,143.383014 90.1766,142.442014 90.0256,141.430014 L69.1876,1.57901432 C69.0376,0.567014318 68.0966,-0.131985682 67.0846,0.0210143183 C66.0726,0.171014318 65.3746,1.11301432 65.5256,2.12501432 L86.3636,141.976014 C86.4866,142.810014 87.1506,143.431014 87.9466,143.538014" id="Fill-172" fill="#83808E"></path>
            <path d="M67.7249,3.43551432 C67.7249,3.43551432 15.7729,19.0105143 14.9439,51.8675143 C12.1649,53.6275143 10.7409,55.2965143 10.9749,56.7695143 C7.1779,32.9035143 32.5859,9.02551432 67.7249,3.43551432" id="Fill-173" fill="#C90E32"></path>
            <path d="M138.224,36.5277143 C137.928,34.6657143 135.022,33.3277143 130.139,32.5237143 C114.386,-1.22228568 67.725,3.43571432 67.725,3.43571432 C102.865,-2.15428568 134.428,12.6617143 138.224,36.5277143" id="Fill-174" fill="#C90E32"></path>
            <path d="M67.7249,3.43551432 C66.8019,3.32651432 65.0379,4.61651432 64.3139,5.04051432 C61.3909,6.75451432 58.8139,9.04051432 56.6099,11.6035143 C49.6179,19.7365143 46.4009,30.5435143 45.1539,41.0175143 C45.3779,39.1245143 49.1979,38.5815143 50.6409,38.1035143 C53.0459,37.3075143 55.4749,36.5775143 57.9209,35.9175143 C62.8159,34.5955143 67.7839,33.5505143 72.7949,32.7875143 C78.7349,31.8835143 84.7269,31.3765143 90.7159,30.9055143 C94.4559,30.6105143 98.9759,30.4025143 102.4629,32.0665143 C96.9789,20.5895143 87.9589,10.8525143 76.1059,5.90151432 C73.4609,4.79651432 70.5929,3.77451432 67.7249,3.43551432" id="Fill-175" fill="#C90E32"></path>
            <path d="M130.139,32.5238143 C114.386,-1.22218568 67.725,3.43581432 67.725,3.43581432 C67.725,3.43581432 90.143,6.06381432 102.483,32.1118143 C102.483,32.1118143 106.619,30.2168143 115.796,30.2658143 C124.974,30.3148143 130.139,32.5238143 130.139,32.5238143" id="Fill-176" fill="#F6A821"></path>
            <path d="M67.7249,3.43551432 C67.7249,3.43551432 15.7729,19.0105143 14.9439,51.8675143 C14.9439,51.8675143 20.4899,46.6665143 30.3099,43.3645143 C40.1309,40.0605143 45.1449,41.0875143 45.1449,41.0875143 C48.9969,8.93251432 67.7249,3.43551432 67.7249,3.43551432" id="Fill-177" fill="#F6A821"></path>
        </g>
    </g>
</svg>