<?xml version="1.0" encoding="UTF-8"?>
<svg width="110px" height="53px" viewBox="0 0 110 53" version="1.1" xmlns="http://www.w3.org/2000/svg" xmlns:xlink="http://www.w3.org/1999/xlink">
    <!-- Generator: Sketch 53.1 (72631) - https://sketchapp.com -->
    <title>Group 15</title>
    <desc>Created with Sketch.</desc>
    <g id="Page-1" stroke="none" stroke-width="1" fill="none" fill-rule="evenodd">
        <g id="Group-15" transform="translate(0.329019, 0.559768)">
            <path d="M16.1260806,21.4145315 C16.1260806,21.4145315 9.85508057,26.0445315 3.95708057,32.0465315 C-1.63391943,37.7345315 6.77208057,38.4205315 14.9690806,39.3935315 C28.3240806,40.9775315 59.0010806,41.5655315 73.7830806,38.6795315 C84.0570806,36.6735315 107.694081,34.8445315 107.694081,34.8445315 C107.694081,34.8445315 103.689081,28.0655315 96.8990806,24.8235315 C90.1100806,21.5805315 93.0980806,22.2775315 87.9380806,24.5345315 C82.7770806,26.7915315 70.3490806,31.6215315 62.8480806,27.5125315 C55.3470806,23.4045315 45.0520806,19.0845315 40.9650806,18.1175315 C36.8780806,17.1505315 20.2650806,19.8495315 16.1260806,21.4145315" id="Fill-155" fill="#C6C6C6"></path>
            <path d="M32.0508806,6.54933153 C25.5388806,10.8243315 16.4998806,19.2653315 15.2778806,23.1283315 C14.0538806,26.9913315 16.4088806,25.3923315 23.4388806,22.5993315 C28.4508806,20.6083315 45.0268806,17.6363315 46.9948806,14.5883315 C48.2298806,12.6743315 45.6708806,6.25633153 43.8298806,8.61733153 C40.5468806,12.8273315 38.0258806,10.2213315 38.8718806,8.25633153 C40.5858806,4.27833153 42.3158806,-0.189668472 32.0508806,6.54933153" id="Fill-156" fill="#444143"></path>
            <path d="M43.4814806,0.246531528 C40.6274806,-0.681468472 39.8144806,1.22353153 41.8564806,2.42853153 C42.6024806,2.86953153 43.8664806,3.29753153 45.8244806,4.20353153 C45.6704806,6.04453153 43.9394806,9.57853153 41.6984806,10.8645315 C39.4584806,12.1495315 47.3684806,13.4725315 47.3684806,13.4725315 C47.3684806,13.4725315 49.4284806,6.97853153 50.6104806,5.57153153 C52.4774806,5.93353153 55.3414806,6.27353153 57.1064806,6.32153153 C58.8724806,6.37053153 59.5854806,3.99953153 56.8744806,3.71653153 C54.1634806,3.43353153 46.3164806,1.16853153 43.4814806,0.246531528" id="Fill-157" fill="#444143"></path>
            <path d="M96.8994806,19.6933315 C96.8994806,19.6933315 101.266481,20.4673315 104.378481,21.4143315 C107.491481,22.3613315 99.9854806,27.6633315 94.7874806,28.6093315 C88.2094806,29.8063315 82.4064806,28.6353315 82.4064806,28.6353315 L96.8994806,19.6933315 Z" id="Fill-158" fill="#444143"></path>
            <path d="M20.4131806,24.1103315 C20.4131806,24.1103315 19.7551806,22.4853315 26.2191806,20.7663315 C29.0461806,20.0133315 34.6711806,17.2993315 36.8061806,14.8313315 C42.2841806,8.49733153 47.1991806,10.3353315 50.1861806,12.5703315 C53.1741806,14.8053315 53.9991806,18.4143315 58.2651806,21.4143315 C62.5301806,24.4143315 69.3841806,23.9203315 75.9011806,20.9383315 C82.4201806,17.9553315 92.0961806,15.5953315 98.7531806,17.6533315 C103.423181,19.0973315 100.657181,20.6563315 94.7871806,24.8233315 C86.8511806,30.4563315 81.6251806,31.3573315 76.5411806,32.2323315 C66.9131806,33.8883315 61.4021806,37.7353315 61.4021806,37.7353315 L54.8061806,37.8783315 C54.8061806,37.8783315 52.5001806,25.3243315 39.6241806,22.5993315 C29.9331806,20.5483315 21.8391806,26.2373315 20.4131806,24.1103315" id="Fill-159" fill="#C90E32"></path>
            <path d="M1.48638057,35.1294315 C1.48638057,35.1294315 3.47238057,47.1154315 20.3943806,50.2424315 C38.1233806,53.5184315 64.8443806,51.5754315 81.1243806,48.5584315 C100.159381,45.0304315 105.810381,39.0344315 107.507381,33.8884315 C97.4433806,33.8884315 90.9613806,34.4784315 81.1243806,36.0734315 C75.5953806,36.9704315 67.3263806,38.8934315 58.0563806,39.6524315 C39.4143806,41.1794315 14.5573806,40.0134315 1.48638057,35.1294315" id="Fill-160" fill="#444143"></path>
            <path d="M4.55768057,31.4423315 C4.55768057,31.4423315 0.960680571,33.7613315 11.0956806,35.1293315 C22.4236806,36.6583315 55.5066806,39.3373315 70.3176806,36.8883315 C88.2816806,33.9193315 102.353681,31.7203315 107.078681,32.8413315 C110.546681,33.6643315 108.776681,35.3043315 107.695681,35.3243315 C104.172681,35.3903315 90.6326806,35.9993315 84.4316806,36.9813315 C78.2306806,37.9633315 63.4046806,40.5963315 49.6976806,40.6513315 C34.3666806,40.7133315 14.2006806,40.9783315 4.96568057,37.7343315 C-1.41531943,35.4943315 -1.74831943,31.5903315 4.55768057,31.4423315" id="Fill-161" fill="#9E9E9E"></path>
            <path d="M19.9268806,22.4541315 C19.9268806,22.4541315 34.9898806,11.0951315 42.7658806,9.77713153 C50.5398806,8.45813153 54.2828806,12.7331315 47.3198806,16.3131315 C40.3558806,19.8931315 30.9128806,23.0011315 22.5478806,25.0751315 C18.5388806,26.0681315 14.9628806,26.1211315 19.9268806,22.4541315" id="Fill-162" fill="#8F0B32"></path>
            <path d="M28.0869806,11.3803315 C28.0869806,11.3803315 30.7849806,8.55533153 36.3649806,4.87533153 C37.9139806,3.85433153 40.3559806,3.76733153 37.8549806,5.69533153 C35.3529806,7.62433153 29.3969806,10.7293315 28.0869806,11.3803315" id="Fill-163" fill="#9E9E9E"></path>
            <path d="M33.5078806,16.0815315 C33.5078806,16.0815315 41.1828806,11.5665315 43.6918806,11.0195315 C46.1328806,10.4855315 46.7968806,10.9985315 46.7998806,11.3805315 C46.8128806,12.5975315 43.6748806,13.0195315 42.3808806,13.4725315 C40.1538806,14.2495315 33.5078806,16.0815315 33.5078806,16.0815315" id="Fill-164" fill="#FFFFFF"></path>
            <path d="M43.4824806,27.1294315 C43.4824806,27.1294315 37.7644806,27.1294315 31.1444806,30.4354315 C27.7674806,32.1214315 25.6594806,33.6514315 25.6594806,33.6514315 C25.6594806,33.6514315 40.7044806,29.6914315 46.1184806,33.8884315 C49.5574806,36.5544315 50.3854806,37.8534315 50.3854806,37.8534315 L53.8004806,37.8784315 C53.8004806,37.8784315 50.7184806,29.8994315 43.4824806,27.1294315" id="Fill-165" fill="#444143"></path>
        </g>
    </g>
</svg>