<?xml version="1.0" encoding="UTF-8"?>
<svg width="1440px" height="751px" viewBox="0 0 1440 751" version="1.1" xmlns="http://www.w3.org/2000/svg" xmlns:xlink="http://www.w3.org/1999/xlink">
    <!-- Generator: Sketch 53.1 (72631) - https://sketchapp.com -->
    <title>Group 22bg</title>
    <desc>Created with Sketch.</desc>
    <defs>
        <polygon id="path-1" points="0 0.261605317 1436.9126 0.261605317 1436.9126 166.3765 0 166.3765"></polygon>
    </defs>
    <g id="Page-1" stroke="none" stroke-width="1" fill="none" fill-rule="evenodd">
        <g id="Artboard" transform="translate(-650.000000, -2022.000000)">
            <g id="Group-22" transform="translate(650.000000, 2022.000000)">
                <polygon id="Fill-1" fill="#B1F0F2" points="0 0.0004 0 428.6584 1440 434.3764 1440 0.0004"></polygon>
                <polygon id="Fill-2" fill="#7DA81E" points="0 580.1242 1438.138 580.1242 1440 433.7922 0 422.4752"></polygon>
                <polygon id="Fill-3" fill="#7DA81E" points="0 529.0384 0 751.0004 1438.138 751.0004 1438.138 522.2814"></polygon>
                <g id="Group-21" transform="translate(0.000000, 62.000000)">
                    <g id="Group-6" transform="translate(0.000000, 206.000000)">
                        <mask id="mask-2" fill="white">
                            <use xlink:href="#path-1"></use>
                        </mask>
                        <g id="Clip-5"></g>
                        <path d="M0.5136,3.0475 C0.5136,3.0475 21.5256,-5.1955 43.0516,6.6765 C64.5776,18.5485 57.0756,64.0635 57.0756,64.0635 C57.0756,64.0635 116.4406,43.6235 133.1026,57.3625 C149.7646,71.1025 157.8556,100.1255 157.8556,100.1255 C157.8556,100.1255 189.8316,97.7755 208.4736,114.5995 C227.1156,131.4245 229.6086,149.4475 229.6086,149.4475 C229.6086,149.4475 240.5786,125.1625 261.8816,128.6345 C283.1856,132.1065 280.8806,154.1675 280.8806,154.1675 C280.8806,154.1675 312.0886,127.5555 339.5936,127.5555 C363.9176,127.5555 355.1766,154.1675 355.1766,154.1675 C355.1766,154.1675 366.9176,139.2955 382.0856,137.4485 C396.8516,135.6505 397.1886,147.3825 397.1886,147.3825 C397.1886,147.3825 386.5096,108.8505 412.5496,100.1255 C438.5886,91.3995 456.9756,116.4275 456.9756,116.4275 C456.9756,116.4275 475.3696,78.8315 510.8966,82.0805 C546.4236,85.3285 555.4856,140.5065 555.4856,140.5065 C555.4856,140.5065 567.1826,127.2185 577.7406,130.9285 C590.9876,135.5845 578.2396,152.5445 578.2396,152.5445 C578.2396,152.5445 597.6506,144.7285 622.1616,148.4185 C646.6716,152.1095 652.0536,158.8725 652.0536,158.8725 C652.0536,158.8725 647.3956,116.8665 676.2746,100.8935 C705.1536,84.9205 749.2186,103.7415 749.2186,103.7415 C749.2186,103.7415 746.1126,82.0805 757.2326,82.0805 C768.3526,82.0805 776.4486,103.7415 776.4486,103.7415 C776.4486,103.7415 793.4806,55.1545 845.7926,51.4225 C898.1056,47.6895 908.4116,120.4505 908.4116,120.4505 C908.4116,120.4505 946.3716,107.4105 976.6426,120.4505 C1006.9126,133.4915 1017.9386,155.0635 1017.9386,155.0635 C1017.9386,155.0635 1025.4416,127.2455 1049.6706,127.2455 C1073.8996,127.2455 1062.4896,155.3585 1062.4896,155.3585 C1062.4896,155.3585 1128.7606,118.3005 1184.1446,127.2455 C1239.5286,136.1895 1264.6426,159.3275 1264.6426,159.3275 C1264.6426,159.3275 1274.6196,137.6485 1291.3626,137.6485 C1308.1046,137.6485 1294.5346,162.6995 1294.5346,162.6995 C1294.5346,162.6995 1343.6176,138.0665 1372.8696,133.7235 C1410.2406,128.1755 1421.9006,159.3275 1421.9006,159.3275 C1421.9006,159.3275 1416.6466,130.9275 1436.9126,123.5755 L1436.9126,166.3765 L-0.0004,160.6585 L0.5136,3.0475 Z" id="Fill-4" fill="#006838" mask="url(#mask-2)"></path>
                    </g>
                    <path d="M105.0115,562.9876 C105.0115,564.0296 89.7945,564.8746 71.0225,564.8746 C52.2505,564.8746 37.0335,564.0296 37.0335,562.9876 C37.0335,561.9456 52.2505,561.1006 71.0225,561.1006 C89.7945,561.1006 105.0115,561.9456 105.0115,562.9876" id="Fill-7" fill="#598198"></path>
                    <polygon id="Fill-9" fill="#FFF2B8" points="42.7857 562.86 50.4877 551.014 69.3027 551.014 85.4927 563.751"></polygon>
                    <polygon id="Fill-11" fill="#CFB1A4" points="50.4881 551.0136 62.4961 554.5276 71.0221 563.4496 42.7861 562.8596"></polygon>
                    <polygon id="Fill-13" fill="#F1D678" points="69.3022 551.0136 62.4962 554.5276 50.4882 551.0136"></polygon>
                    <path d="M146.1739,34.3117 C146.1739,53.1807 130.8959,68.4767 112.0509,68.4767 C93.2049,68.4767 77.9279,53.1807 77.9279,34.3117 C77.9279,15.4427 93.2049,0.1467 112.0509,0.1467 C130.8959,0.1467 146.1739,15.4427 146.1739,34.3117" id="Fill-15" fill="#FFDD00"></path>
                    <path d="M179.8703,103.3541 C178.5943,103.3541 177.3723,103.5831 176.2403,103.9951 C174.0093,98.0471 168.2803,93.8131 161.5603,93.8131 C155.3613,93.8131 150.0043,97.4161 147.4593,102.6451 C145.0453,100.3641 141.7943,98.9621 138.2123,98.9621 C132.9073,98.9621 128.3283,102.0321 126.1253,106.4901 C123.9533,104.9911 121.3243,104.1101 118.4883,104.1101 C114.9163,104.1101 111.6703,105.5001 109.2573,107.7691 C108.5943,108.3921 109.0513,109.5111 109.9613,109.5111 L187.7813,109.5111 C188.6113,109.5111 189.0753,108.5761 188.5983,107.8971 C186.6653,105.1511 183.4803,103.3541 179.8703,103.3541" id="Fill-17" fill="#FFFFFF"></path>
                    <path d="M363.4171,45.3765 C362.4421,45.3765 361.9381,44.1765 362.6471,43.5055 C364.7631,41.5015 367.6171,40.2705 370.7611,40.2705 C374.2061,40.2705 377.2981,41.7555 379.4581,44.1095 C381.7221,38.3745 387.2971,34.3115 393.8301,34.3115 C400.2651,34.3115 405.7751,38.2515 408.1011,43.8505 C408.4031,44.5755 407.8791,45.3765 407.0941,45.3765 L363.4171,45.3765 Z" id="Fill-19" fill="#FFFFFF"></path>
                </g>
            </g>
        </g>
    </g>
</svg>