<?xml version="1.0" encoding="utf-8"?>
<svg id="master-artboard" viewBox="0 0 947.2159423828125 948.1929321289062" version="1.1" xmlns="http://www.w3.org/2000/svg" x="0px" y="0px" style="enable-background:new 0 0 336 235.2;" width="947.2159423828125px" height="948.1929321289062px"><defs><style id="ee-google-fonts">@import url(https://fonts.googleapis.com/css?family=Montserrat:400,700);</style></defs><rect id="ee-background" x="0" y="0" width="947.2159423828125" height="948.1929321289062" style="fill: white; fill-opacity: 0; pointer-events: none;"/><g transform="matrix(9.240738868713379, 0, 0, 9.240738868713379, -5551.353515625, -412.079065322876)"><g id="g-1" transform="matrix(1, 0, 0, 1, 0, 0)">
	<g id="g-2">
		<path class="st0" d="M652,46c27.6,0,50,22.4,50,50s-22.4,50-50,50s-50-22.4-50-50S624.4,46,652,46z" style="fill: rgb(70, 171, 159);"/>
	</g>
</g></g><path d="M 15.369999885559082 3.1199989318847656 C 15.369999885559082 3.1199989318847656 16.1200008392334 3.1199989318847656 17.6200008392334 3.1199989318847656 C 19.1200008392334 3.1199989318847656 20.933332443237305 4.156665802001953 23.059999465942383 6.229999542236328 C 25.18666648864746 8.303333282470703 26.25 11.059999465942383 26.25 14.499999046325684 C 26.25 17.946666717529297 25.19333267211914 20.746665954589844 23.079999923706055 22.899999618530273 C 20.96666717529297 25.059999465942383 18.503334045410156 26.139999389648438 15.6899995803833 26.139999389648438 C 12.876667022705078 26.139999389648438 10.350000381469727 24.906665802001953 8.109999656677246 22.439998626708984 L 8.109999656677246 33.94999694824219 L 3.4000000953674316 33.94999694824219 L 3.4000000953674316 3.4599990844726562 L 8.109999656677246 3.4599990844726562 L 8.109999656677246 7.35999870300293 C 9.956666946411133 4.533332824707031 12.376667022705078 3.1199989318847656 15.369999885559082 3.1199989318847656 M 8.020000457763672 14.669999122619629 C 8.020000457763672 14.669999122619629 8.020000457763672 15.203332901000977 8.020000457763672 16.270000457763672 C 8.020000457763672 17.329998016357422 8.66333293914795 18.53999900817871 9.949999809265137 19.899999618530273 C 11.243332862854004 21.259998321533203 12.813333511352539 21.939998626708984 14.65999984741211 21.939998626708984 C 16.50666618347168 21.939998626708984 18.116666793823242 21.266666412353516 19.489999771118164 19.919998168945312 C 20.863332748413086 18.573333740234375 21.549999237060547 16.829998016357422 21.549999237060547 14.6899995803833 C 21.549999237060547 12.549999237060547 20.876667022705078 10.773332595825195 19.530000686645508 9.35999870300293 C 18.183332443237305 7.946666717529297 16.573333740234375 7.239999771118164 14.699999809265137 7.239999771118164 C 12.826666831970215 7.239999771118164 11.243332862854004 7.946666717529297 9.949999809265137 9.35999870300293 C 8.66333293914795 10.773332595825195 8.020000457763672 12.54333209991455 8.020000457763672 14.669999122619629 Z" transform="matrix(15.175671577453613, 0, 0, 15.175671577453613, 186.3026123046875, 69.5637435913086)" style="fill: rgb(255, 255, 255); white-space: pre; color: rgb(51, 51, 51);"/><path d="M 12.520000457763672 26.139999389648438 C 9.686666488647461 26.139999389648438 7.21999979019165 25.073331832885742 5.119999885559082 22.939998626708984 C 3.0199999809265137 20.813331604003906 1.9700000286102295 18.01333236694336 1.9700000286102295 14.539999008178711 C 1.9700000286102295 11.073332786560059 3.049999952316284 8.303333282470703 5.210000038146973 6.229999542236328 C 7.363333225250244 4.156665802001953 9.933333396911621 3.1199989318847656 12.920000076293945 3.1199989318847656 C 15.899999618530273 3.1199989318847656 18.299999237060547 4.379999160766602 20.1200008392334 6.899999618530273 L 20.1200008392334 -5.3600006103515625 L 24.81999969482422 -5.3600006103515625 L 24.81999969482422 25.799999237060547 L 20.1200008392334 25.799999237060547 L 20.1200008392334 22.439998626708984 C 18.3799991607666 24.906665802001953 15.84666633605957 26.139999389648438 12.520000457763672 26.139999389648438 M 6.679999828338623 14.729999542236328 C 6.679999828338623 14.729999542236328 6.679999828338623 15.2666654586792 6.679999828338623 16.34000015258789 C 6.679999828338623 17.413333892822266 7.366666793823242 18.619998931884766 8.739999771118164 19.959999084472656 C 10.106666564941406 21.306665420532227 11.716666221618652 21.979999542236328 13.569999694824219 21.979999542236328 C 15.416666984558105 21.979999542236328 16.983333587646484 21.299999237060547 18.270000457763672 19.939998626708984 C 19.55666732788086 18.579999923706055 20.200000762939453 16.836666107177734 20.200000762939453 14.709999084472656 C 20.200000762939453 12.583333015441895 19.55666732788086 10.806666374206543 18.270000457763672 9.379999160766602 C 16.983333587646484 7.953332901000977 15.399999618530273 7.239999771118164 13.520000457763672 7.239999771118164 C 11.646666526794434 7.239999771118164 10.036666870117188 7.953332901000977 8.6899995803833 9.379999160766602 C 7.349999904632568 10.806666374206543 6.679999828338623 12.589999198913574 6.679999828338623 14.729999542236328 Z" transform="matrix(15.26606273651123, 0, 0, 15.26606273651123, 331.4354248046875, 431.2645568847656)" style="fill: rgb(255, 255, 255); white-space: pre; color: rgb(51, 51, 51);"/></svg>