<?xml version="1.0" encoding="UTF-8"?>
<svg width="148px" height="192px" viewBox="0 0 148 192" version="1.1" xmlns="http://www.w3.org/2000/svg" xmlns:xlink="http://www.w3.org/1999/xlink">
    <!-- Generator: Sketch 53.1 (72631) - https://sketchapp.com -->
    <title>Group 72sticker7</title>
    <desc>Created with Sketch.</desc>
    <g id="Page-1" stroke="none" stroke-width="1" fill="none" fill-rule="evenodd">
        <g id="Group-72" transform="translate(0.301600, 0.429371)">
            <path d="M70.9942998,179.013729 C63.5382998,179.013729 56.4902998,176.605729 50.5992998,172.047729 C50.5642998,172.024729 50.5292998,171.989729 50.4832998,171.966729 C42.3252998,165.596729 37.6502998,156.024729 37.6502998,145.680729 C37.6502998,140.129729 38.9942998,134.800729 41.5652998,130.008729 C39.6252998,130.464729 38.4332998,130.616729 38.3052998,130.639729 C37.0552998,130.791729 35.8042998,130.440729 34.8222998,129.669729 C33.8282998,128.886729 33.2092998,127.741729 33.0682998,126.490729 C33.0342998,126.162729 32.2512998,118.355729 34.9622998,108.316729 C35.2652998,107.171729 36.0022998,106.177729 37.0082998,105.558729 L38.2812998,104.775729 C37.3352998,103.454729 37.1242998,101.701729 37.8022998,100.158729 C39.2862998,96.757729 41.1092998,93.508729 43.2142998,90.539729 C44.0082998,89.406729 45.2472998,88.693729 46.6142998,88.576729 C46.4512998,87.208729 46.9062998,85.829729 47.8652998,84.813729 C49.2212998,83.364729 50.6462998,81.984729 52.1782998,80.663729 C47.1992998,80.196729 42.4072998,79.203729 37.8482998,77.707729 C37.6032998,77.625729 37.3702998,77.520729 37.1362998,77.403729 C35.9322998,76.772729 35.0442998,75.638729 34.7402998,74.317729 L34.7282998,74.317729 L34.4362998,74.458729 C33.1032998,75.194729 31.4912998,75.252729 30.1122998,74.575729 C26.3952998,72.763729 22.8072998,70.531729 19.4652998,67.959729 C17.9332998,66.779729 17.3032998,64.804729 17.8162998,62.981729 L15.3272998,62.864729 C14.1352998,62.805729 13.0022998,62.291729 12.1722998,61.426729 C4.41129977,53.339729 0.893299772,45.625729 0.414299772,44.538729 C0.00529977241,43.626729 -0.110700228,42.598729 0.110299772,41.604729 C0.437299772,40.085729 1.50129977,38.823729 2.95029977,38.250729 C3.28929977,38.110729 11.5532998,34.896729 23.3682998,34.779729 C24.5602998,34.779729 25.7062998,35.211729 26.5822998,36.018729 L28.4292998,37.724729 C29.3642998,36.065729 31.2222998,35.118729 33.1392998,35.398729 C37.3232998,35.983729 41.4262998,36.976729 45.3292998,38.367729 C46.8132998,38.893729 47.9352998,40.132729 48.3092998,41.663729 L48.3672998,41.838729 C49.8512998,40.938729 51.6862998,40.950729 53.1472998,41.791729 C53.6392998,42.049729 54.1402998,42.317729 54.6322998,42.586729 C54.6432998,42.563729 54.6672998,42.528729 54.6792998,42.504729 C53.4982998,41.850729 52.6222998,40.716729 52.3522998,39.326729 C51.6282998,35.725729 51.2772998,32.033729 51.2892998,28.339729 C51.2892998,26.656729 52.1892998,25.149729 53.5922998,24.330729 L52.7382998,23.092729 C52.0722998,22.110729 51.7922998,20.906729 51.9782998,19.737729 C53.5802998,9.45272901 57.4362998,2.63872901 57.6002998,2.34672901 C58.2202998,1.26072901 59.2612998,0.465729011 60.4752998,0.149729011 C61.6912998,-0.165270989 62.9882998,0.0217290113 64.0632998,0.663729011 C64.3442998,0.839729011 71.0412998,4.91872901 77.4342998,13.122729 C78.1592998,14.069729 78.5102998,15.249729 78.3922998,16.430729 L78.2642998,17.914729 C79.8772998,17.949729 81.3962998,18.837729 82.2252998,20.298729 C84.0372998,23.524729 85.5212998,26.937729 86.6432998,30.431729 C87.0642998,31.740729 86.8892998,33.166729 86.1642998,34.323729 C87.3802998,35.048729 88.2222998,36.286729 88.4202998,37.689729 C88.8292998,40.015729 89.0862998,42.376729 89.1912998,44.784729 C91.4242998,42.107729 93.8192998,39.629729 96.3792998,37.409729 C96.6602998,37.163729 96.9522998,36.953729 97.2792998,36.789729 C98.3542998,36.228729 99.6292998,36.088729 100.7853,36.427729 L100.8203,35.994729 C100.9373,34.557729 101.7213,33.248729 102.9243,32.453729 C106.3483,30.221729 110.0183,28.316729 113.8513,26.785729 C115.6173,26.083729 117.5923,26.528729 118.9013,27.837729 L120.1983,25.885729 C120.8523,24.891729 121.8693,24.179729 123.0383,23.909729 C134.3403,21.292729 142.9763,22.460729 143.3503,22.507729 C144.5903,22.682729 145.7123,23.349729 146.4603,24.354729 C147.2083,25.370729 147.5123,26.633729 147.3123,27.883729 C147.2553,28.234729 145.8173,36.847729 139.9843,46.864729 C139.3773,47.892729 138.4073,48.663729 137.2733,49.002729 L135.0063,49.669729 C135.8943,51.293729 135.7193,53.327729 134.5393,54.800729 C131.9323,58.049729 129.0343,61.006729 125.9013,63.588729 C124.8033,64.500729 123.2833,64.862729 121.8923,64.547729 L121.4733,64.453729 C121.4493,65.669729 120.9583,66.825729 120.1043,67.691729 C119.8483,67.936729 119.5563,68.181729 119.2513,68.368729 C116.8793,69.841729 114.3903,71.162729 111.7833,72.330729 C112.7653,72.740729 113.7353,73.184729 114.6933,73.639729 C115.0913,73.838729 115.4653,74.084729 115.7923,74.388729 C116.4703,75.007729 116.9493,75.802729 117.1823,76.678729 C118.4923,76.304729 119.9303,76.503729 121.0873,77.286729 C124.1253,79.320729 126.9883,81.680729 129.5953,84.298729 C130.7753,85.491729 131.2083,87.185729 130.7993,88.751729 L132.2833,89.032729 C133.4523,89.242729 134.5043,89.909729 135.2053,90.867729 C141.3413,99.270729 143.4323,106.820729 143.5153,107.136729 C143.8423,108.351729 143.6673,109.648729 143.0353,110.735729 C142.3923,111.810729 141.3523,112.594729 140.1253,112.897729 C139.8093,112.979729 132.1893,114.826729 121.8813,113.540729 C120.7003,113.388729 119.6143,112.804729 118.8543,111.881729 L117.9073,110.735729 C117.1473,111.460729 116.1543,111.916729 115.1143,112.009729 C116.7623,115.679729 118.2693,119.407729 119.6023,123.124729 C122.4193,130.919729 124.5223,138.785729 125.8553,146.510729 C126.3223,149.245729 126.7083,151.910729 126.9883,154.423729 C127.6543,160.442729 127.8653,166.344729 127.6203,171.954729 L127.6203,172.047729 C127.1873,181.958729 125.5043,187.779729 125.4343,188.024729 C124.8493,190.011729 123.0153,191.378729 120.9463,191.378729 L86.9242998,191.378729 C85.4172998,191.378729 84.0022998,190.654729 83.1262998,189.427729 C82.2492998,188.211729 82.0152998,186.633729 82.4952998,185.207729 C83.1612998,183.244729 83.7102998,181.479729 84.2012998,179.808729 C84.5872998,178.487729 84.9612998,177.131729 85.3112998,175.776729 C80.8822998,177.879729 75.9962998,179.013729 70.9942998,179.013729" id="Fill-686" fill="#FFFFFF"></path>
            <path d="M123.2804,60.083129 L123.2744,60.075129 L117.1084,58.696129 L117.1604,64.476129 L117.1444,64.488129 C111.9034,67.748129 105.6294,70.465129 98.1233998,72.189129 L96.7063998,67.541129 L91.5313998,73.399129 L91.5153998,73.411129 C87.7463998,73.931129 83.7133998,74.210129 79.3963998,74.226129 L143.0554,27.230129 C143.0554,27.230129 141.7674,35.220129 136.2984,44.604129 L127.7014,47.158129 L131.2544,51.970129 C129.0184,54.752129 126.3864,57.503129 123.2804,60.083129" id="Fill-688" fill="#036633"></path>
            <path d="M123.2804,60.083129 L123.2744,60.075129 L117.1084,58.696129 L117.1604,64.476129 L117.1444,64.488129 C111.9034,67.748129 105.6294,70.465129 98.1233998,72.189129 L96.7063998,67.541129 L91.5313998,73.399129 L91.5153998,73.411129 C87.7463998,73.931129 83.7133998,74.210129 79.3963998,74.226129 L143.0554,27.230129 C143.0554,27.230129 141.7674,35.220129 136.2984,44.604129 L127.7014,47.158129 L131.2544,51.970129 C129.0184,54.752129 126.3864,57.503129 123.2804,60.083129 Z" id="Stroke-690" stroke="#050505"></path>
            <path d="M143.0558,27.230529 L79.3967998,74.225529 C80.6827998,70.105529 82.1377998,66.333529 83.7437998,62.884529 L83.7607998,62.872529 L90.8837998,59.653529 L86.8587998,56.929529 C90.7167998,50.264529 95.1607998,45.068529 99.8197998,41.020529 L99.8357998,41.008529 L105.3448,42.760529 L105.8428,36.462529 L105.8368,36.454529 C109.2168,34.245529 112.6208,32.540529 115.9378,31.222529 L119.4918,36.035529 L124.4568,28.564529 C135.0418,26.109529 143.0558,27.230529 143.0558,27.230529" id="Fill-692" fill="#036633"></path>
            <path d="M143.0558,27.230529 L79.3967998,74.225529 C80.6827998,70.105529 82.1377998,66.333529 83.7437998,62.884529 L83.7607998,62.872529 L90.8837998,59.653529 L86.8587998,56.929529 C90.7167998,50.264529 95.1607998,45.068529 99.8197998,41.020529 L99.8357998,41.008529 L105.3448,42.760529 L105.8428,36.462529 L105.8368,36.454529 C109.2168,34.245529 112.6208,32.540529 115.9378,31.222529 L119.4918,36.035529 L124.4568,28.564529 C135.0418,26.109529 143.0558,27.230529 143.0558,27.230529 Z" id="Stroke-694" stroke="#050505"></path>
            <path d="M105.6222,103.759829 L105.6272,103.751829 L104.6012,98.232829 L99.8961998,100.292829 L99.8821998,100.283829 C95.3891998,97.139829 90.9781998,92.960829 86.9501998,87.429829 L90.2541998,84.649829 L83.6601998,82.466829 L83.6441998,82.457829 C81.9041998,79.558829 80.2681998,76.360829 78.7491998,72.839829 L139.3682,108.451829 C139.3682,108.451829 132.3912,110.186829 122.8142,108.993829 L117.7262,102.861829 L115.0342,107.443829 C111.9812,106.588829 108.8142,105.397829 105.6222,103.759829" id="Fill-696" fill="#036633"></path>
            <path d="M105.6222,103.759829 L105.6272,103.751829 L104.6012,98.232829 L99.8961998,100.292829 L99.8821998,100.283829 C95.3891998,97.139829 90.9781998,92.960829 86.9501998,87.429829 L90.2541998,84.649829 L83.6601998,82.466829 L83.6441998,82.457829 C81.9041998,79.558829 80.2681998,76.360829 78.7491998,72.839829 L139.3682,108.451829 C139.3682,108.451829 132.3912,110.186829 122.8142,108.993829 L117.7262,102.861829 L115.0342,107.443829 C111.9812,106.588829 108.8142,105.397829 105.6222,103.759829 Z" id="Stroke-698" stroke="#050505"></path>
            <path d="M139.3683,108.451729 L78.7492998,72.839729 C82.5642998,72.451729 86.1542998,72.324729 89.5342998,72.433729 L89.5492998,72.442729 L94.6662998,77.139729 L95.4862998,72.899729 C102.2793,73.725729 108.0763,75.543729 113.0103,77.936729 L113.0253,77.945729 L113.5163,83.058729 L118.8373,81.266729 L118.8413,81.259729 C121.8263,83.249729 124.4073,85.436729 126.6413,87.687729 L123.9493,92.269729 L131.7873,93.720729 C137.4873,101.512729 139.3683,108.451729 139.3683,108.451729" id="Fill-700" fill="#036633"></path>
            <path d="M139.3683,108.451729 L78.7492998,72.839729 C82.5642998,72.451729 86.1542998,72.324729 89.5342998,72.433729 L89.5492998,72.442729 L94.6662998,77.139729 L95.4862998,72.899729 C102.2793,73.725729 108.0763,75.543729 113.0103,77.936729 L113.0253,77.945729 L113.5163,83.058729 L118.8373,81.266729 L118.8413,81.259729 C121.8263,83.249729 124.4073,85.436729 126.6413,87.687729 L123.9493,92.269729 L131.7873,93.720729 C137.4873,101.512729 139.3683,108.451729 139.3683,108.451729 Z" id="Stroke-702" stroke="#050505"></path>
            <path d="M44.1182998,42.862829 L44.1142998,42.871829 L46.1242998,48.990829 L51.1582998,45.928829 L51.1772998,45.937829 C56.7642998,48.825829 62.4182998,52.902829 67.8442998,58.575829 L64.5132998,62.241829 L72.3432998,63.715829 L72.3612998,63.723829 C74.7832998,66.753829 77.1322998,70.139829 79.3962998,73.910829 L5.03429977,42.684829 C5.03429977,42.684829 12.7022998,39.645829 23.7722998,39.538829 L30.4942998,45.734829 L32.8542998,40.112829 C36.4572998,40.618829 40.2392998,41.487829 44.1182998,42.862829" id="Fill-704" fill="#036633"></path>
            <path d="M44.1182998,42.862829 L44.1142998,42.871829 L46.1242998,48.990829 L51.1582998,45.928829 L51.1772998,45.937829 C56.7642998,48.825829 62.4182998,52.902829 67.8442998,58.575829 L64.5132998,62.241829 L72.3432998,63.715829 L72.3612998,63.723829 C74.7832998,66.753829 77.1322998,70.139829 79.3962998,73.910829 L5.03429977,42.684829 C5.03429977,42.684829 12.7022998,39.645829 23.7722998,39.538829 L30.4942998,45.734829 L32.8542998,40.112829 C36.4572998,40.618829 40.2392998,41.487829 44.1182998,42.862829 Z" id="Stroke-706" stroke="#050505"></path>
            <path d="M5.03429977,42.685129 L79.3962998,73.911129 C75.1182998,74.934129 71.0562998,75.628129 67.1982998,76.020129 L67.1792998,76.013129 L60.6432998,71.455129 L60.3592998,76.400129 C52.5102998,76.499129 45.6402998,75.318129 39.6662998,73.351129 L39.6472998,73.343129 L38.3072998,67.605129 L32.5322998,70.455129 L32.5282998,70.464129 C28.8312998,68.657129 25.5612998,66.566129 22.6782998,64.349129 L25.0382998,58.727129 L15.9052998,58.275129 C8.23329977,50.288129 5.03429977,42.685129 5.03429977,42.685129" id="Fill-708" fill="#036633"></path>
            <path d="M5.03429977,42.685129 L79.3962998,73.911129 C75.1182998,74.934129 71.0562998,75.628129 67.1982998,76.020129 L67.1792998,76.013129 L60.6432998,71.455129 L60.3592998,76.400129 C52.5102998,76.499129 45.6402998,75.318129 39.6662998,73.351129 L39.6472998,73.343129 L38.3072998,67.605129 L32.5322998,70.455129 L32.5282998,70.464129 C28.8312998,68.657129 25.5612998,66.566129 22.6782998,64.349129 L25.0382998,58.727129 L15.9052998,58.275129 C8.23329977,50.288129 5.03429977,42.685129 5.03429977,42.685129 Z" id="Stroke-710" stroke="#050505"></path>
            <path d="M82.5567998,31.942929 L82.5477998,31.944929 L79.3697998,36.572929 L84.1547998,38.442929 L84.1587998,38.460929 C85.1117998,43.859929 85.2757998,49.933929 84.2127998,56.692929 L79.9107998,56.323929 L83.0297998,62.528929 L83.0347998,62.546929 C82.2147998,65.826929 81.1107998,69.244929 79.6957998,72.808929 L62.0127998,4.76292901 C62.0127998,4.76292901 68.1737998,8.46992901 74.1017998,16.085929 L73.3627998,24.019929 L78.5067998,22.682929 C80.0607998,25.446929 81.4577998,28.527929 82.5567998,31.942929" id="Fill-712" fill="#036633"></path>
            <path d="M82.5567998,31.942929 L82.5477998,31.944929 L79.3697998,36.572929 L84.1547998,38.442929 L84.1587998,38.460929 C85.1117998,43.859929 85.2757998,49.933929 84.2127998,56.692929 L79.9107998,56.323929 L83.0297998,62.528929 L83.0347998,62.546929 C82.2147998,65.826929 81.1107998,69.244929 79.6957998,72.808929 L62.0127998,4.76292901 C62.0127998,4.76292901 68.1737998,8.46992901 74.1017998,16.085929 L73.3627998,24.019929 L78.5067998,22.682929 C80.0607998,25.446929 81.4577998,28.527929 82.5567998,31.942929 Z" id="Stroke-714" stroke="#050505"></path>
            <path d="M62.0128998,4.76322901 L79.6958998,72.809229 C76.7238998,70.385229 74.0948998,67.937229 71.7828998,65.471229 L71.7778998,65.453229 L71.4808998,58.514229 L67.9028998,60.932229 C63.6838998,55.545229 60.8698998,50.159229 59.0738998,44.979229 L59.0698998,44.961229 L62.3368998,40.999229 L57.3088998,38.504229 L57.2998998,38.506229 C56.5968998,34.988229 56.3178998,31.617229 56.3288998,28.446229 L61.4738998,27.109229 L56.9568998,20.541229 C58.4358998,11.001229 62.0128998,4.76322901 62.0128998,4.76322901" id="Fill-716" fill="#036633"></path>
            <path d="M62.0128998,4.76322901 L79.6958998,72.809229 C76.7238998,70.385229 74.0948998,67.937229 71.7828998,65.471229 L71.7778998,65.453229 L71.4808998,58.514229 L67.9028998,60.932229 C63.6838998,55.545229 60.8698998,50.159229 59.0738998,44.979229 L59.0698998,44.961229 L62.3368998,40.999229 L57.3088998,38.504229 L57.2998998,38.506229 C56.5968998,34.988229 56.3178998,31.617229 56.3288998,28.446229 L61.4738998,27.109229 L56.9568998,20.541229 C58.4358998,11.001229 62.0128998,4.76322901 62.0128998,4.76322901 Z" id="Stroke-718" stroke="#050505"></path>
            <path d="M47.3936998,93.318429 L47.4006998,93.324429 L53.0086998,93.072429 L51.6196998,88.127429 L51.6296998,88.113429 C55.3656998,84.099429 60.1146998,80.308429 66.1496998,77.084429 L68.4466998,80.740429 L71.5206998,74.512429 L71.5316998,74.498429 C74.6426998,73.175429 78.0366998,71.997429 81.7336998,70.980429 L38.0796998,126.091429 C38.0796998,126.091429 37.3266998,118.940429 39.8316998,109.621429 L46.6096998,105.430429 L42.4436998,102.130429 C43.7126998,99.224429 45.3306998,96.253429 47.3936998,93.318429" id="Fill-720" fill="#036633"></path>
            <path d="M47.3936998,93.318429 L47.4006998,93.324429 L53.0086998,93.072429 L51.6196998,88.127429 L51.6296998,88.113429 C55.3656998,84.099429 60.1146998,80.308429 66.1496998,77.084429 L68.4466998,80.740429 L71.5206998,74.512429 L71.5316998,74.498429 C74.6426998,73.175429 78.0366998,71.997429 81.7336998,70.980429 L38.0796998,126.091429 C38.0796998,126.091429 37.3266998,118.940429 39.8316998,109.621429 L46.6096998,105.430429 L42.4436998,102.130429 C43.7126998,99.224429 45.3306998,96.253429 47.3936998,93.318429 Z" id="Stroke-722" stroke="#050505"></path>
            <path d="M38.0792998,126.091429 L81.7332998,70.980429 C81.5902998,74.812429 81.2202998,78.385429 80.6442998,81.717429 L80.6332998,81.731429 L75.2742998,86.149429 L79.3592998,87.548429 C77.6012998,94.161429 74.9992998,99.651429 71.9462998,104.206429 L71.9352998,104.220429 L66.8042998,103.999429 L67.8432998,109.516429 L67.8502998,109.522429 C65.4652998,112.202429 62.9422998,114.456429 60.4042998,116.358429 L56.2382998,113.058429 L53.7182998,120.620429 C45.2132998,125.188429 38.0792998,126.091429 38.0792998,126.091429" id="Fill-724" fill="#036633"></path>
            <path d="M38.0792998,126.091429 L81.7332998,70.980429 C81.5902998,74.812429 81.2202998,78.385429 80.6442998,81.717429 L80.6332998,81.731429 L75.2742998,86.149429 L79.3592998,87.548429 C77.6012998,94.161429 74.9992998,99.651429 71.9462998,104.206429 L71.9352998,104.220429 L66.8042998,103.999429 L67.8432998,109.516429 L67.8502998,109.522429 C65.4652998,112.202429 62.9422998,114.456429 60.4042998,116.358429 L56.2382998,113.058429 L53.7182998,120.620429 C45.2132998,125.188429 38.0792998,126.091429 38.0792998,126.091429 Z" id="Stroke-726" stroke="#050505"></path>
            <path d="M122.6984,155.031329 C123.4254,161.543329 123.5154,167.218329 123.3034,171.912329 L91.1873998,172.841329 C92.9643998,164.744329 93.8433998,156.899329 94.0453998,149.407329 L122.6984,155.031329 Z" id="Fill-728" fill="#BD6539"></path>
            <path d="M122.6984,155.031329 C123.4254,161.543329 123.5154,167.218329 123.3034,171.912329 L91.1873998,172.841329 C92.9643998,164.744329 93.8433998,156.899329 94.0453998,149.407329 L122.6984,155.031329 Z" id="Stroke-730" stroke="#020202"></path>
            <path d="M123.299,171.912729 C123.302,171.930729 123.301,171.924729 123.304,171.942729 L89.0469998,181.210729 C89.8749998,178.393729 90.5819998,175.607729 91.1779998,172.841729 L91.1879998,172.841729 L123.299,171.912729 Z" id="Fill-732" fill="#B7873E"></path>
            <path d="M123.299,171.912729 C123.302,171.930729 123.301,171.924729 123.304,171.942729 L89.0469998,181.210729 C89.8749998,178.393729 90.5819998,175.607729 91.1779998,172.841729 L91.1879998,172.841729 L123.299,171.912729 Z" id="Stroke-734" stroke="#050505"></path>
            <path d="M89.0469998,181.211029 L123.304,171.943029 C122.9,181.393029 121.305,186.794029 121.305,186.794029 L87.2799998,186.794029 C87.9159998,184.926029 88.5119998,183.059029 89.0469998,181.211029" id="Fill-736" fill="#BD6539"></path>
            <path d="M89.0469998,181.211029 L123.304,171.943029 C122.9,181.393029 121.305,186.794029 121.305,186.794029 L87.2799998,186.794029 C87.9159998,184.926029 88.5119998,183.059029 89.0469998,181.211029 Z" id="Stroke-738" stroke="#020202"></path>
            <path d="M122.6984,155.031329 L94.0453998,149.407329 L121.6074,147.399329 C122.0724,150.054329 122.4354,152.598329 122.6984,155.031329" id="Fill-740" fill="#B7873E"></path>
            <path d="M122.6984,155.031329 L94.0453998,149.407329 L121.6074,147.399329 C122.0724,150.054329 122.4354,152.598329 122.6984,155.031329 Z" id="Stroke-742" stroke="#050505"></path>
            <path d="M121.6076,147.399029 L94.0455998,149.408029 C94.2065998,143.885029 93.9945998,138.545029 93.4995998,133.446029 L115.5706,124.793029 C118.4986,132.941029 120.4166,140.523029 121.6076,147.399029" id="Fill-744" fill="#BD6539"></path>
            <path d="M121.6076,147.399029 L94.0455998,149.408029 C94.2065998,143.885029 93.9945998,138.545029 93.4995998,133.446029 L115.5706,124.793029 C118.4986,132.941029 120.4166,140.523029 121.6076,147.399029 Z" id="Stroke-746" stroke="#020202"></path>
            <path d="M115.5705,124.793029 L93.4994998,133.446029 C93.3174998,131.457029 93.0864998,129.508029 92.8124998,127.600029 L115.5705,124.793029 Z" id="Fill-748" fill="#B7873E"></path>
            <path d="M115.5705,124.793029 L92.8124998,127.600029 C92.0864998,122.350029 91.0764998,117.373029 89.9054998,112.718029 L110.6235,112.718029 C112.5315,116.857029 114.1665,120.886029 115.5705,124.793029" id="Fill-750" fill="#BD6539"></path>
            <path d="M115.5705,124.793029 L92.8124998,127.600029 C92.0864998,122.350029 91.0764998,117.373029 89.9054998,112.718029 L110.6235,112.718029 C112.5315,116.857029 114.1665,120.886029 115.5705,124.793029 Z" id="Stroke-752" stroke="#020202"></path>
            <path d="M91.6036998,112.468329 L107.8597,107.575329 C108.6467,109.121329 109.4247,110.727329 110.2327,112.468329 L91.6036998,112.468329 Z" id="Fill-754" fill="#B7873E"></path>
            <path d="M107.9875,107.275929 L89.9054998,112.717929 L110.6225,112.717929 C109.7955,110.920929 108.9265,109.113929 107.9875,107.275929 M107.7315,107.875929 C108.4345,109.262929 109.1305,110.692929 109.8405,112.217929 L93.3014998,112.217929 L107.7315,107.875929" id="Fill-756" fill="#050505"></path>
            <path d="M107.9875,107.276429 L89.9054998,112.718429 C89.1984998,109.901429 88.4214998,107.215429 87.6234998,104.651429 L102.2935,96.917429 C104.3835,100.431429 106.2815,103.883429 107.9875,107.276429" id="Fill-758" fill="#BD6539"></path>
            <path d="M107.9875,107.276429 L89.9054998,112.718429 C89.1984998,109.901429 88.4214998,107.215429 87.6234998,104.651429 L102.2935,96.917429 C104.3835,100.431429 106.2815,103.883429 107.9875,107.276429 Z" id="Stroke-760" stroke="#020202"></path>
            <path d="M102.2931,96.917529 L87.6230998,104.651529 L87.6130998,104.651529 C87.1990998,103.328529 86.7750998,102.036529 86.3410998,100.784529 L102.2931,96.917529 Z" id="Fill-762" fill="#B7873E"></path>
            <path d="M102.2931,96.917529 L86.3410998,100.784529 C84.7160998,96.059529 82.9890998,91.849529 81.3440998,88.214529 L94.9130998,85.498529 C97.6080998,89.365529 100.0621,93.181529 102.2931,96.917529" id="Fill-764" fill="#BD6539"></path>
            <path d="M102.2931,96.917529 L86.3410998,100.784529 C84.7160998,96.059529 82.9890998,91.849529 81.3440998,88.214529 L94.9130998,85.498529 C97.6080998,89.365529 100.0621,93.181529 102.2931,96.917529 Z" id="Stroke-766" stroke="#020202"></path>
            <path d="M94.9131998,85.498629 L81.3441998,88.214629 L91.2991998,80.490629 C92.5511998,82.176629 93.7521998,83.842629 94.9131998,85.498629" id="Fill-768" fill="#B7873E"></path>
            <path d="M91.2989998,80.490829 L81.3439998,88.214829 C79.9899998,85.235829 78.6979998,82.651829 77.5469998,80.490829 L84.3719998,71.686829 C86.8259998,74.644829 89.1379998,77.582829 91.2989998,80.490829" id="Fill-770" fill="#BD6539"></path>
            <path d="M91.2989998,80.490829 L81.3439998,88.214829 C79.9899998,85.235829 78.6979998,82.651829 77.5469998,80.490829 L84.3719998,71.686829 C86.8259998,74.644829 89.1379998,77.582829 91.2989998,80.490829 Z" id="Stroke-772" stroke="#020202"></path>
            <path d="M84.3721998,71.687129 L77.5471998,80.491129 C76.6081998,78.724129 75.7611998,77.250129 75.0741998,76.089129 L84.3621998,71.687129 L84.3721998,71.687129 Z" id="Fill-774" fill="#B7873E"></path>
            <path d="M84.3624998,71.687129 L75.0744998,76.089129 C75.0614998,76.069129 75.0494998,76.049129 75.0384998,76.029129 C74.0074998,74.293129 74.4514998,72.062129 76.0754998,70.862129 L76.3124998,70.687129 C78.8164998,68.836129 82.3474998,69.240129 84.3274998,71.644129 L84.3624998,71.687129 Z" id="Fill-776" fill="#BD6539"></path>
            <path d="M84.3624998,71.687129 L75.0744998,76.089129 C75.0614998,76.069129 75.0494998,76.049129 75.0384998,76.029129 C74.0074998,74.293129 74.4514998,72.062129 76.0754998,70.862129 L76.3124998,70.687129 C78.8164998,68.836129 82.3474998,69.240129 84.3274998,71.644129 L84.3624998,71.687129 Z" id="Stroke-778" stroke="#020202"></path>
            <path d="M96.4024998,131.860929 C98.7044998,135.979929 100.0065,140.724929 100.0065,145.773929 C100.0065,152.275929 97.8364998,158.282929 94.1804998,163.088929 L64.5484998,139.361929 C67.2044998,135.394929 67.0114998,130.426929 63.9124998,127.771929 C63.9124998,127.771929 79.1874998,121.067929 96.4024998,131.860929" id="Fill-780" fill="#C90E32"></path>
            <path d="M96.4024998,131.860929 C98.7044998,135.979929 100.0065,140.724929 100.0065,145.773929 C100.0065,152.275929 97.8364998,158.282929 94.1804998,163.088929 L64.5484998,139.361929 C67.2044998,135.394929 67.0114998,130.426929 63.9124998,127.771929 C63.9124998,127.771929 79.1874998,121.067929 96.4024998,131.860929 Z" id="Stroke-782" stroke="#050505"></path>
            <path d="M64.5489998,139.362429 L94.1809998,163.088429 C88.9509998,169.974429 80.6719998,174.426429 71.3539998,174.426429 C64.7499998,174.426429 58.6729998,172.195429 53.8259998,168.439429 C53.8259998,168.439429 53.8259998,168.429429 53.8169998,168.429429 C46.3749998,157.132429 51.2009998,142.613429 51.2009998,142.613429 C54.6039998,145.521429 60.1969998,144.562429 63.7099998,140.463429 C64.0139998,140.109429 64.2959998,139.736429 64.5489998,139.362429" id="Fill-784" fill="#F97000"></path>
            <path d="M64.5489998,139.362429 L94.1809998,163.088429 C88.9509998,169.974429 80.6719998,174.426429 71.3539998,174.426429 C64.7499998,174.426429 58.6729998,172.195429 53.8259998,168.439429 C53.8259998,168.439429 53.8259998,168.429429 53.8169998,168.429429 C46.3749998,157.132429 51.2009998,142.613429 51.2009998,142.613429 C54.6039998,145.521429 60.1969998,144.562429 63.7099998,140.463429 C64.0139998,140.109429 64.2959998,139.736429 64.5489998,139.362429 Z" id="Stroke-786" stroke="#050505"></path>
            <path d="M71.3536998,117.120229 C82.1256998,117.120229 91.5156998,123.067229 96.4026998,131.861229 C79.1876998,121.068229 63.9126998,127.772229 63.9126998,127.772229 C60.5096998,124.864229 54.9166998,125.823229 51.4036998,129.922229 L48.7786998,128.135229 C54.0076998,121.432229 62.1756998,117.120229 71.3536998,117.120229" id="Fill-788" fill="#F97000"></path>
            <path d="M71.3536998,117.120229 C82.1256998,117.120229 91.5156998,123.067229 96.4026998,131.861229 C79.1876998,121.068229 63.9126998,127.772229 63.9126998,127.772229 C60.5096998,124.864229 54.9166998,125.823229 51.4036998,129.922229 L48.7786998,128.135229 C54.0076998,121.432229 62.1756998,117.120229 71.3536998,117.120229 Z" id="Stroke-790" stroke="#050505"></path>
            <path d="M64.5489998,139.362429 C64.2959998,139.736429 64.0139998,140.109429 63.7099998,140.463429 C60.1969998,144.562429 54.6039998,145.521429 51.2009998,142.613429 C47.8089998,139.695429 47.8999998,134.021429 51.4029998,129.922429 C54.9169998,125.823429 60.5099998,124.864429 63.9119998,127.772429 C67.0119998,130.427429 67.2039998,135.394429 64.5489998,139.362429" id="Fill-792" fill="#FFFFFF"></path>
            <path d="M64.5489998,139.362429 C64.2959998,139.736429 64.0139998,140.109429 63.7099998,140.463429 C60.1969998,144.562429 54.6039998,145.521429 51.2009998,142.613429 C47.8089998,139.695429 47.8999998,134.021429 51.4029998,129.922429 C54.9169998,125.823429 60.5099998,124.864429 63.9119998,127.772429 C67.0119998,130.427429 67.2039998,135.394429 64.5489998,139.362429 Z" id="Stroke-794" stroke="#050505"></path>
            <path d="M53.8165998,168.429729 C47.0425998,163.199729 42.6905998,155.001729 42.6905998,145.773729 C42.6905998,139.119729 44.9625998,133.001729 48.7785998,128.135729 L51.4035998,129.922729 C47.8995998,134.021729 47.8085998,139.695729 51.2015998,142.613729 C51.2015998,142.613729 46.3755998,157.131729 53.8165998,168.429729" id="Fill-796" fill="#08AAEB"></path>
            <path d="M53.8165998,168.429729 C47.0425998,163.199729 42.6905998,155.001729 42.6905998,145.773729 C42.6905998,139.119729 44.9625998,133.001729 48.7785998,128.135729 L51.4035998,129.922729 C47.8995998,134.021729 47.8085998,139.695729 51.2015998,142.613729 C51.2015998,142.613729 46.3755998,157.131729 53.8165998,168.429729 Z" id="Stroke-798" stroke="#050505"></path>
        </g>
    </g>
</svg>