<?xml version="1.0" encoding="UTF-8"?>
<svg width="140px" height="137px" viewBox="0 0 140 137" version="1.1" xmlns="http://www.w3.org/2000/svg" xmlns:xlink="http://www.w3.org/1999/xlink">
    <!-- Generator: Sketch 53.1 (72631) - https://sketchapp.com -->
    <title>Group 71sticker6</title>
    <desc>Created with Sketch.</desc>
    <g id="Page-1" stroke="none" stroke-width="1" fill="none" fill-rule="evenodd">
        <g id="Group-71" transform="translate(0.502138, 0.642734)">
            <path d="M67.1980618,107.891166 C67.7740618,107.594166 68.2970618,107.187166 68.7190618,106.704166 C69.1530618,107.100166 69.5870618,107.499166 70.0240618,107.893166 C69.0820618,107.906166 68.1390618,107.906166 67.1980618,107.891166 M136.531062,75.6831656 C134.280062,74.5401656 132.073062,73.3281656 129.904062,72.0491656 C131.927062,70.5611656 133.834062,68.9131656 135.610062,67.1121656 C137.993062,64.6971656 136.798062,60.7851656 133.677062,59.7881656 C132.017062,59.2591656 130.424062,58.6341656 128.869062,57.9211656 C130.654062,55.1421656 132.170062,52.2351656 133.483062,49.0901656 C134.671062,46.2461656 131.749062,43.7351656 129.258062,43.5431656 C127.636062,43.4191656 126.050062,43.1881656 124.482062,42.8671656 C125.490062,40.5121656 126.552062,38.1821656 127.677062,35.8751656 C128.971062,33.2201656 127.480062,28.8881656 123.893062,29.2821656 L117.149062,30.0211656 C116.174062,30.1291656 115.198062,30.2361656 114.222062,30.3431656 C114.110062,30.2201656 113.992062,30.1011656 113.866062,29.9861656 C114.603062,26.9461656 115.340062,23.9061656 116.077062,20.8661656 C116.901062,17.4671656 113.977062,14.8601656 110.706062,15.4951656 C108.576062,15.9081656 106.506062,16.4881656 104.489062,17.2161656 C104.251062,14.7511656 103.911062,12.2961656 103.476062,9.84816559 C102.961062,6.93816559 99.3350618,6.02516559 97.0570618,7.23616559 C93.7430618,8.99616559 90.5840618,10.9661656 87.5430618,13.1181656 C86.6280618,10.0821656 85.8290618,7.01316559 85.1780618,3.89716559 C84.6030618,1.13816559 81.0500618,-0.114834405 78.7530618,1.28316559 C76.1560618,2.86216559 73.8340618,4.69216559 71.7080618,6.73816559 C71.3490618,6.82216559 71.0090618,6.95016559 70.6900618,7.12016559 C69.2800618,5.13416559 67.8170618,3.18716559 66.2840618,1.28316559 C64.5830618,-0.827834405 60.5530618,-0.195834405 59.4060618,2.16916559 L56.8070618,7.53116559 C56.2560618,6.61916559 55.7060618,5.70716559 55.1520618,4.79616559 C53.4940618,2.06816559 49.1960618,1.84516559 47.5920618,4.79616559 C45.5750618,8.50616559 43.8320618,12.3471656 42.3590618,16.2941656 C38.4190618,14.1011656 34.3160618,12.1701656 30.0720618,10.6851656 C27.2790618,9.70816559 24.8370618,12.2281656 24.6630618,14.8051656 C24.4060618,18.6131656 24.7910618,22.4151656 26.1140618,25.8811656 C23.1210618,25.7921656 20.1200618,25.8261656 17.2630618,25.7221656 C14.0400618,25.6041656 11.9210618,29.4441656 13.5750618,32.1491656 C15.5480618,35.3761656 17.4580618,38.6191656 19.2530618,41.9301656 C16.1290618,41.8821656 13.0050618,41.8341656 9.88106181,41.7871656 C6.13806181,41.7301656 4.07206181,46.6251656 6.79506181,49.2371656 C8.96806181,51.3201656 11.0290618,53.5051656 12.9800618,55.7881656 C9.72406181,57.0891656 6.44106181,58.3211656 3.13306181,59.4831656 C-0.470938188,60.7491656 -1.15993819,65.3611656 2.08706181,67.4921656 L8.36506181,71.6141656 C9.18406181,72.1521656 10.0030618,72.6891656 10.8210618,73.2271656 C10.2310618,73.7081656 9.64106181,74.1901656 9.05206181,74.6721656 C7.11006181,76.2581656 5.16806181,77.8431656 3.22606181,79.4291656 C0.606061812,81.5681656 2.21106181,85.9571656 5.16006181,86.7531656 C8.61606181,87.6841656 12.0940618,88.4401656 15.6010618,89.0581656 C13.1030618,92.0951656 10.9520618,95.4341656 9.05406181,98.8811656 C7.16206181,102.319166 10.2690618,105.751166 13.8440618,105.110166 C16.6450618,104.608166 19.4340618,104.016166 22.2190618,103.397166 C21.2210618,105.071166 20.1300618,106.691166 18.9490618,108.258166 C17.8010618,109.783166 18.3760618,112.304166 19.6340618,113.561166 C21.1200618,115.047166 23.1260618,115.025166 24.9360618,114.245166 C26.2180618,113.694166 27.5200618,113.201166 28.8370618,112.751166 C28.4690618,113.641166 28.0940618,114.528166 27.7110618,115.412166 C26.2940618,118.683166 28.6500618,123.042166 32.6590618,121.849166 C34.9390618,121.170166 37.1830618,120.414166 39.4050618,119.597166 L38.9590618,127.087166 C38.7450618,130.668166 44.0640618,133.159166 46.4390618,130.186166 C47.3510618,129.045166 48.2850618,127.925166 49.2330618,126.818166 C49.1860618,127.841166 49.1400618,128.864166 49.0940618,129.888166 C48.8810618,134.592166 54.9270618,135.358166 57.2600618,132.099166 C59.2010618,129.387166 61.3250618,126.840166 63.6010618,124.425166 C66.0220618,127.880166 68.6350618,131.196166 71.4320618,134.365166 C73.7350618,136.973166 77.7890618,135.365166 78.7570618,132.431166 C79.8700618,129.056166 81.1430618,125.762166 82.5530618,122.519166 C84.7800618,124.776166 87.0070618,127.033166 89.2340618,129.289166 C91.7090618,131.796166 95.4440618,130.351166 96.5580618,127.355166 C97.3930618,125.108166 98.0340618,122.829166 98.5060618,120.514166 C100.029062,121.332166 101.573062,122.113166 103.151062,122.841166 C106.094062,124.201166 109.725062,122.616166 109.744062,119.058166 C109.755062,117.085166 109.765062,115.113166 109.776062,113.141166 C113.178062,113.792166 117.181062,113.663166 119.571062,113.804166 C122.717062,113.989166 124.969062,110.027166 123.241062,107.409166 C121.745062,105.142166 120.390062,102.887166 119.229062,100.525166 C122.102062,100.445166 124.963062,100.145166 127.838062,99.6541656 C130.496062,99.1991656 131.974062,95.3981656 130.450062,93.2311656 C129.049062,91.2391656 127.641062,89.2521656 126.235062,87.2641656 L135.484062,83.6921656 C138.696062,82.4521656 140.198062,77.5451656 136.531062,75.6831656" id="Fill-339" fill="#F4F4F4"></path>
            <path d="M131.913862,63.7266656 C132.513862,63.9806656 132.513862,64.8666656 132.115862,65.2706656 C129.378862,68.0146656 126.328862,70.2566656 122.899862,72.0226656 C125.259862,74.8516656 127.937862,77.1716656 131.040862,79.2306656 C131.574862,79.5826656 131.665862,80.4426656 131.040862,80.7756656 C127.638862,82.5876656 124.001862,84.1186656 120.182862,84.7446656 L119.778862,83.5716656 C122.887862,82.4966656 125.904862,81.4406656 128.817862,79.9416656 C125.728862,77.8816656 123.057862,75.3136656 120.756862,72.3816656 C120.410862,71.9376656 120.339862,71.1826656 120.944862,70.8886656 C124.184862,69.3116656 127.071862,67.3366656 129.678862,64.9056656 C126.992862,63.7856656 124.301862,62.6776656 121.668862,61.4586656 C121.427862,61.3476656 121.290862,61.1646656 121.238862,60.9506656 C120.919862,60.7226656 120.736862,60.3046656 120.990862,59.8616656 C123.108862,56.2386656 125.220862,52.6146656 127.338862,48.9906656 C123.832862,48.0656656 120.332862,47.1336656 116.826862,46.2076656 C116.415862,46.0976656 116.069862,45.5886656 116.232862,45.1586656 C117.595862,41.5936656 118.950862,38.0226656 120.312862,34.4576656 C117.119862,34.6076656 113.926862,34.7636656 110.732862,34.9136656 C110.139862,34.9466656 109.794862,34.3466656 109.904862,33.8256656 C110.641862,30.2216656 110.960862,26.6306656 110.889862,22.9746656 C107.695862,23.6066656 104.573862,24.4466656 101.504862,25.5416656 C101.106862,25.6846656 100.493862,25.3786656 100.434862,24.9356656 C99.9398618,21.3116656 99.2688618,17.7406656 98.4348618,14.1886656 C94.7198618,16.3136656 91.0118618,18.4376656 87.2968618,20.5696656 C86.8138618,20.8426656 86.1698618,20.5956656 86.0258618,20.0476656 C84.9958618,16.2226656 84.1428618,12.3636656 83.4378618,8.46666559 C80.4668618,10.7936656 77.4878618,13.1396656 74.3668618,15.2646656 L73.6368618,14.1886656 C76.7658618,11.4126656 80.1148618,8.86466559 83.4188618,6.28966559 C83.8758618,5.93766559 84.7488618,5.95766559 84.8728618,6.67466559 C85.5508618,10.6566656 86.4038618,14.5926656 87.4208618,18.5036656 C91.1358618,16.3716656 94.8568618,14.2416656 98.5778618,12.1166656 C99.0478618,11.8426656 99.7118618,12.0836656 99.8428618,12.6316656 C100.728862,16.2416656 101.432862,19.8786656 101.967862,23.5546656 C105.088862,22.4916656 108.256862,21.6506656 111.508862,21.0586656 C112.081862,20.9536656 112.602862,21.2926656 112.622862,21.9056656 C112.766862,25.7046656 112.478862,29.4266656 111.788862,33.1416656 C115.047862,32.9976656 118.305862,32.8476656 121.563862,32.6976656 C122.072862,32.6786656 122.574862,33.2646656 122.379862,33.7726656 C120.977862,37.4486656 119.576862,41.1306656 118.182862,44.8076656 C121.739862,45.7516656 125.298862,46.6906656 128.863862,47.6356656 C129.391862,47.7786656 129.645862,48.4176656 129.371862,48.8866656 C127.221862,52.5686656 125.070862,56.2576656 122.919862,59.9396656 C125.950862,61.1256656 128.928862,62.4496656 131.913862,63.7266656" id="Fill-341" fill="#1C1C1B"></path>
            <path d="M109.938262,84.5879656 C116.703262,69.0899656 113.059262,49.8509656 101.380262,37.6709656 C89.4482618,25.2229656 69.7922618,21.6309656 53.9672618,28.1809656 C36.3652618,35.4679656 23.7992618,54.6539656 26.5882618,73.7829656 C29.6132618,94.5459656 48.6562618,110.213966 69.4072618,110.806966 C69.7922618,110.819966 69.9942618,110.591966 70.0452618,110.317966 C86.8212618,110.350966 103.172262,100.072966 109.938262,84.5879656 M127.338262,48.9909656 C125.220262,52.6139656 123.109262,56.2379656 120.991262,59.8619656 C120.737262,60.3049656 120.919262,60.7219656 121.239262,60.9499656 C121.291262,61.1649656 121.427262,61.3479656 121.668262,61.4589656 C124.301262,62.6769656 126.993262,63.7849656 129.678262,64.9059656 C127.072262,67.3369656 124.184262,69.3119656 120.945262,70.8889656 C120.339262,71.1819656 120.411262,71.9379656 120.756262,72.3809656 C123.057262,75.3139656 125.729262,77.8819656 128.818262,79.9419656 C125.905262,81.4409656 122.887262,82.4959656 119.779262,83.5709656 C119.603262,83.6299656 119.433262,83.6889656 119.257262,83.7479656 C119.062262,83.8129656 118.944262,83.9759656 118.892262,84.1509656 C118.384262,84.3269656 118.026262,84.8559656 118.423262,85.4159656 C120.443262,88.2569656 122.105262,91.2229656 123.402262,94.4419656 C120.254262,94.8849656 117.178262,94.8659656 114.011262,94.3249656 C113.548262,94.2399656 112.935262,94.4419656 112.844262,94.9829656 C112.160262,99.0169656 114.989262,102.581966 114.584262,106.465966 C111.136262,106.387966 107.682262,106.290966 104.235262,106.257966 C103.792262,106.251966 103.355262,106.244966 102.912262,106.244966 C102.241262,106.244966 102.071262,106.954966 102.377262,107.372966 C102.319262,107.502966 102.280262,107.652966 102.287262,107.828966 C102.397262,110.689966 102.567262,113.550966 102.729262,116.404966 C99.3472618,115.492966 96.0882618,114.306966 92.9152618,112.787966 C92.4712618,112.579966 91.7812618,112.625966 91.5522618,113.146966 C91.0052618,114.403966 90.5162618,115.649966 90.2162618,116.991966 C90.0472618,117.747966 90.0922618,118.953966 90.0412618,119.995966 C90.0082618,120.628966 89.9432618,121.201966 89.7732618,121.579966 C88.9982618,123.378966 86.9182618,120.888966 85.7582618,119.969966 C84.0642618,118.640966 82.3632618,117.310966 80.6682618,115.974966 C80.2002618,115.603966 79.4302618,115.550966 79.1042618,116.176966 C77.2992618,119.663966 75.4942618,123.143966 73.7092618,126.630966 C70.4432618,123.241966 67.3152618,119.722966 64.1222618,116.268966 C64.0242618,116.163966 63.9322618,116.066966 63.8342618,115.961966 C63.8282618,115.603966 63.4632618,115.310966 63.1112618,115.355966 C62.7522618,115.303966 62.3682618,115.609966 62.3752618,115.968966 C60.2372618,118.295966 58.2232618,120.738966 56.2492618,123.202966 C56.1572618,120.380966 56.0922618,117.551966 56.0852618,114.723966 C56.0852618,113.804966 55.0032618,113.439966 54.3592618,114.006966 C51.6542618,116.411966 48.9232618,118.790966 46.1992618,121.169966 C46.0882618,117.884966 46.2452618,114.619966 46.6742618,111.340966 C46.7662618,110.676966 45.9252618,110.096966 45.3332618,110.311966 C41.9822618,111.536966 38.5862618,112.383966 35.0812618,112.853966 C36.1882618,110.956966 37.2962618,109.060966 38.3982618,107.163966 C38.7822618,106.504966 38.4042618,105.886966 37.8642618,105.651966 C37.7982618,105.521966 37.6742618,105.410966 37.4722618,105.364966 C37.1402618,105.293966 36.8012618,105.221966 36.4622618,105.162966 C33.0012618,104.510966 29.3912618,104.335966 25.8522618,104.152966 C27.4172618,102.027966 28.6092618,99.7279656 29.4692618,97.1729656 C29.7102618,96.4629656 29.0842618,95.8699656 28.4392618,95.8169656 C25.1942618,95.5499656 21.9552618,95.4129656 18.7092618,95.4009656 L23.8512618,88.3619656 C24.2882618,87.7619656 23.9172618,87.1819656 23.3692618,86.9739656 C23.3102618,86.9539656 23.2582618,86.9409656 23.2002618,86.9279656 C23.4152618,86.5369656 23.3172618,85.9499656 22.7502618,85.7349656 C18.8272618,84.2489656 14.9562618,82.7239656 11.1492618,80.9639656 C14.1472618,78.7809656 17.0602618,76.2269656 19.0812618,73.1639656 C19.2952618,72.8309656 19.2632618,72.4919656 19.0932618,72.2179656 C19.0872618,72.0819656 19.0352618,71.9449656 18.9122618,71.8339656 C15.9392618,69.0709656 12.6672618,66.6139656 9.44226181,64.1439656 C12.7922618,62.9579656 16.1872618,61.5109656 19.0612618,59.5039656 C19.4002618,59.2619656 19.5172618,58.9429656 19.4982618,58.6369656 C19.9542618,58.5849656 20.3582618,58.0829656 20.0512618,57.6069656 C17.7642618,54.1069656 15.0532618,50.8219656 12.4402618,47.5309656 C16.1672618,47.3159656 20.0002618,47.2249656 23.6292618,46.5139656 C24.4242618,46.3639656 24.3792618,45.3869656 23.8442618,45.0029656 C23.7472618,44.7679656 23.6432618,44.5399656 23.5442618,44.3119656 C22.7442618,42.4349656 22.0002618,40.6099656 21.3752618,38.7589656 C20.6772618,36.6729656 20.1172618,34.5549656 19.7782618,32.2939656 C22.2422618,32.3979656 24.7052618,32.4959656 27.1682618,32.5939656 C28.5832618,32.6519656 31.2352618,33.3239656 32.4152618,32.2219656 C33.5422618,31.1789656 32.8452618,29.2309656 32.6172618,27.9989656 C32.1412618,25.4249656 31.5612618,22.8699656 30.9102618,20.3349656 C35.1662618,21.0119656 39.1802618,22.2569656 43.1952618,23.8989656 C43.7292618,24.1149656 44.1782618,23.7429656 44.3482618,23.2679656 C44.6552618,23.4429656 45.1112618,23.3719656 45.2802618,22.9219656 C45.9382618,21.1489656 46.5842618,19.3829656 47.1642618,17.5849656 C47.6262618,16.1379656 48.0372618,12.7229656 49.0012618,11.5819656 C49.6472618,10.8189656 49.3662618,10.8979656 50.3502618,11.5099656 C51.2242618,12.0509656 51.9662618,12.9899656 52.7292618,13.6869656 C54.3192618,15.1409656 55.9032618,16.5939656 57.4872618,18.0409656 C58.0802618,18.5819656 58.9342618,18.3269656 59.1942618,17.5909656 C60.4132618,14.1889656 61.8142618,10.8779656 63.3912618,7.62596559 C66.5652618,10.0499656 69.3612618,12.7619656 72.2882618,15.4919656 C72.4962618,15.6879656 72.7172618,15.7659656 72.9322618,15.7659656 C73.1022618,15.9029656 73.3362618,15.9549656 73.5652618,15.8049656 C73.8322618,15.6289656 74.0992618,15.4469656 74.3672618,15.2639656 C77.4882618,13.1399656 80.4662618,10.7939656 83.4382618,8.46696559 C84.1422618,12.3639656 84.9962618,16.2219656 86.0262618,20.0479656 C86.1692618,20.5949656 86.8142618,20.8429656 87.2962618,20.5689656 C91.0112618,18.4379656 94.7192618,16.3139656 98.4352618,14.1889656 C99.2692618,17.7409656 99.9402618,21.3119656 100.435262,24.9359656 C100.494262,25.3789656 101.107262,25.6849656 101.504262,25.5419656 C104.574262,24.4469656 107.696262,23.6069656 110.889262,22.9739656 C110.960262,26.6299656 110.641262,30.2209656 109.905262,33.8249656 C109.794262,34.3469656 110.139262,34.9459656 110.733262,34.9139656 C113.926262,34.7639656 117.120262,34.6079656 120.313262,34.4579656 C118.951262,38.0229656 117.595262,41.5939656 116.233262,45.1589656 C116.070262,45.5889656 116.416262,46.0969656 116.827262,46.2079656 C120.333262,47.1329656 123.833262,48.0659656 127.338262,48.9909656" id="Fill-343" fill="#F97000"></path>
            <path d="M125.578962,94.9312656 C125.741962,95.3682656 125.390962,95.9932656 124.927962,96.0712656 C121.446962,96.6782656 118.070962,96.7292656 114.603962,96.3002656 C114.453962,100.210266 117.321962,103.651266 116.324962,107.704266 C116.226962,108.089266 115.808962,108.428266 115.398962,108.402266 C111.671962,108.193266 107.942962,108.011266 104.215962,107.757266 L104.234962,106.258266 C107.682962,106.290266 111.136962,106.388266 114.584962,106.466266 C114.988962,102.582266 112.159962,99.0172656 112.844962,94.9832656 C112.934962,94.4422656 113.548962,94.2402656 114.011962,94.3252656 C117.178962,94.8662656 120.254962,94.8852656 123.401962,94.4422656 C122.104962,91.2232656 120.442962,88.2572656 118.423962,85.4162656 C118.025962,84.8552656 118.384962,84.3272656 118.891962,84.1512656 C118.943962,83.9752656 119.061962,83.8122656 119.257962,83.7472656 C119.432962,83.6882656 119.602962,83.6302656 119.778962,83.5712656 L120.182962,84.7442656 C122.463962,87.8992656 124.217962,91.2872656 125.578962,94.9312656" id="Fill-345" fill="#1C1C1B"></path>
            <path d="M36.3845618,73.2222656 C38.4955618,75.0792656 42.2495618,73.4762656 42.1915618,70.6152656 C42.1525618,69.0772656 41.0575618,67.6372656 39.4925618,67.4482656 C39.0955618,67.4022656 38.6915618,67.4412656 38.3065618,67.5522656 C38.2545618,67.5392656 38.2025618,67.5262656 38.1435618,67.5332656 C35.5175618,67.8122656 34.4035618,71.4822656 36.3845618,73.2222656 M81.4835618,66.4512656 C81.5555618,65.3492656 79.6975618,65.0692656 79.5285618,66.1832656 C79.1765618,68.4912656 79.1045618,70.9602656 78.3165618,73.1702656 C77.0715618,76.6302656 73.9105618,77.9602656 70.4695618,78.0382656 C64.1995618,78.1882656 57.7145618,74.5192656 59.6175618,67.3112656 C59.8655618,66.3592656 58.5495618,66.0732656 58.1915618,66.9202656 C54.9515618,74.6102656 62.1335618,79.7262656 69.0685618,80.1762656 C72.3005618,80.3912656 75.8915618,79.7452656 78.2575618,77.3672656 C81.0605618,74.5522656 81.2225618,70.1722656 81.4835618,66.4512656 M105.434562,72.1922656 C106.587562,71.2672656 106.855562,69.6702656 106.202562,68.3602656 C105.558562,67.0372656 104.027562,66.3592656 102.657562,66.9922656 C102.443562,67.0832656 102.253562,67.2132656 102.071562,67.3632656 C101.002562,67.1092656 100.161562,68.2622656 99.9795618,69.2072656 C99.7515618,70.3872656 100.239562,71.7562656 101.270562,72.4142656 C102.521562,73.2152656 104.274562,73.1112656 105.434562,72.1922656 M96.8125618,35.6302656 C109.149562,45.7002656 114.526562,63.3882656 110.367562,78.6962656 C105.388562,97.0492656 86.8995618,109.516266 68.1495618,108.611266 C67.7195618,108.584266 67.4585618,108.851266 67.3805618,109.171266 C50.2265618,106.773266 34.6375618,96.7752656 29.4105618,79.4662656 C23.7995618,60.8982656 33.3405618,41.7302656 49.6725618,32.0782656 C64.1085618,23.5412656 83.8105618,25.0202656 96.8125618,35.6302656" id="Fill-347" fill="#F6A821"></path>
            <path d="M110.367962,78.6963656 C114.525962,63.3873656 109.148962,45.6993656 96.8119618,35.6303656 C83.8099618,25.0203656 64.1079618,23.5413656 49.6729618,32.0783656 C33.3409618,41.7303656 23.7999618,60.8983656 29.4109618,79.4663656 C34.6379618,96.7753656 50.2259618,106.773366 67.3809618,109.171366 C67.4589618,108.851366 67.7199618,108.584366 68.1489618,108.611366 C86.8989618,109.516366 105.388962,97.0493656 110.367962,78.6963656 M101.380962,37.6703656 C113.058962,49.8513656 116.702962,69.0903656 109.937962,84.5883656 C103.172962,100.073366 86.8209618,110.350366 70.0459618,110.318366 C69.9939618,110.592366 69.7919618,110.820366 69.4069618,110.807366 C48.6559618,110.214366 29.6129618,94.5463656 26.5889618,73.7823656 C23.7999618,54.6543656 36.3649618,35.4673656 53.9679618,28.1813656 C69.7919618,21.6313656 89.4479618,25.2223656 101.380962,37.6703656" id="Fill-349" fill="#1C1C1B"></path>
            <path d="M104.783062,117.708566 C104.822062,118.367566 104.125062,118.810566 103.525062,118.660566 C99.8620618,117.767566 96.3490618,116.535566 92.9280618,114.978566 C92.3080618,116.581566 91.8980618,118.210566 91.7810618,119.950566 C91.7810618,119.983566 91.7740618,120.022566 91.7740618,120.055566 L90.0410618,119.996566 C90.0930618,118.953566 90.0480618,117.747566 90.2170618,116.991566 C90.5160618,115.649566 91.0060618,114.404566 91.5530618,113.146566 C91.7810618,112.625566 92.4710618,112.579566 92.9150618,112.788566 C96.0890618,114.306566 99.3470618,115.492566 102.729062,116.405566 C102.567062,113.550566 102.397062,110.689566 102.287062,107.828566 C102.280062,107.652566 102.319062,107.502566 102.378062,107.372566 C102.071062,106.955566 102.241062,106.245566 102.912062,106.245566 C103.355062,106.245566 103.792062,106.251566 104.235062,106.257566 L104.216062,107.756566 C104.222062,107.783566 104.228062,107.802566 104.228062,107.828566 C104.457062,111.119566 104.606062,114.417566 104.783062,117.708566" id="Fill-351" fill="#1C1C1B"></path>
            <path d="M91.7742618,120.055266 C91.7282618,121.013266 91.9442618,122.062266 91.7422618,122.994266 C91.5332618,123.959266 91.2202618,124.845266 90.1972618,125.086266 C88.7302618,125.431266 87.3942618,123.770266 86.3842618,122.981266 C84.3572618,121.391266 82.3312618,119.794266 80.2972618,118.204266 C78.4722618,121.742266 76.6542618,125.288266 74.8032618,128.821266 C74.5102618,129.374266 73.6752618,129.466266 73.2522618,129.016266 C69.6682618,125.262266 66.1812618,121.391266 63.1302618,117.180266 L64.1222618,116.268266 C67.3152618,119.722266 70.4432618,123.242266 73.7092618,126.631266 C75.4942618,123.144266 77.2992618,119.664266 79.1042618,116.177266 C79.4302618,115.551266 80.2002618,115.603266 80.6692618,115.975266 C82.3632618,117.311266 84.0642618,118.640266 85.7582618,119.970266 C86.9192618,120.889266 88.9982618,123.379266 89.7732618,121.580266 C89.9432618,121.202266 90.0082618,120.628266 90.0412618,119.996266 L91.7742618,120.055266 Z" id="Fill-353" fill="#1C1C1B"></path>
            <path d="M73.6365618,14.1890656 L74.3665618,15.2640656 C74.0995618,15.4470656 73.8315618,15.6290656 73.5655618,15.8050656 C73.3365618,15.9550656 73.1025618,15.9030656 72.9325618,15.7660656 C72.7175618,15.7660656 72.4955618,15.6880656 72.2875618,15.4920656 C69.3615618,12.7620656 66.5655618,10.0500656 63.3915618,7.62606559 C61.8145618,10.8780656 60.4125618,14.1890656 59.1945618,17.5910656 C58.9345618,18.3270656 58.0795618,18.5820656 57.4875618,18.0410656 C55.9035618,16.5940656 54.3195618,15.1410656 52.7295618,13.6870656 C51.9665618,12.9900656 51.2245618,12.0510656 50.3505618,11.5100656 C49.3655618,10.8970656 49.6475618,10.8190656 49.0015618,11.5820656 C48.0365618,12.7230656 47.6265618,16.1380656 47.1635618,17.5850656 C46.5835618,19.3830656 45.9385618,21.1490656 45.2805618,22.9220656 C45.1115618,23.3720656 44.6555618,23.4430656 44.3485618,23.2680656 L44.1395618,22.2380656 C44.8435618,19.0840656 45.6775618,15.9750656 46.5575618,12.8590656 C46.8965618,11.6670656 47.0595618,9.50906559 48.3635618,8.83806559 C49.5035618,8.24506559 50.4425618,9.00106559 51.3225618,9.62706559 C53.6355618,11.2690656 55.7145618,13.5040656 57.7995618,15.5250656 C59.0765618,12.1290656 60.5105618,8.81906559 62.1405618,5.57306559 C62.3675618,5.11706559 63.1055618,4.89606559 63.5285618,5.20806559 C67.1395618,7.84106559 70.7425618,10.7220656 73.6165618,14.1630656 C73.6235618,14.1690656 73.6305618,14.1820656 73.6365618,14.1890656" id="Fill-355" fill="#1C1C1B"></path>
            <path d="M64.1218618,116.268666 L63.1308618,117.180666 C60.9088618,120.478666 58.4718618,123.626666 56.0398618,126.767666 C55.4398618,127.536666 54.3128618,126.826666 54.2678618,126.037666 C54.0988618,123.020666 54.0258618,119.996666 54.0398618,116.972666 C51.3538618,119.337666 48.6828618,121.710666 45.9968618,124.082666 C45.3068618,124.695666 44.3028618,124.258666 44.2308618,123.352666 C43.9758618,119.846666 44.0218618,116.379666 44.3738618,112.898666 C40.6848618,114.124666 36.9318618,114.893666 33.0478618,115.264666 C32.1998618,115.342666 31.7248618,114.287666 32.1088618,113.622666 C33.4648618,111.302666 34.8268618,108.982666 36.1878618,106.662666 L36.4628618,105.163666 C36.8018618,105.221666 37.1408618,105.293666 37.4728618,105.365666 C37.6748618,105.410666 37.7988618,105.521666 37.8638618,105.651666 C38.4038618,105.886666 38.7818618,106.505666 38.3978618,107.163666 C37.2968618,109.060666 36.1878618,110.956666 35.0808618,112.853666 C38.5868618,112.384666 41.9818618,111.537666 45.3328618,110.311666 C45.9258618,110.096666 46.7668618,110.676666 46.6748618,111.341666 C46.2448618,114.619666 46.0888618,117.884666 46.1988618,121.169666 C48.9238618,118.790666 51.6538618,116.411666 54.3588618,114.006666 C55.0038618,113.439666 56.0858618,113.804666 56.0858618,114.723666 C56.0928618,117.552666 56.1568618,120.380666 56.2488618,123.202666 C58.2238618,120.739666 60.2368618,118.295666 62.3748618,115.968666 C62.3678618,115.610666 62.7528618,115.303666 63.1108618,115.355666 C63.4638618,115.310666 63.8278618,115.603666 63.8348618,115.961666 C63.9328618,116.066666 64.0238618,116.164666 64.1218618,116.268666" id="Fill-357" fill="#1C1C1B"></path>
            <path d="M44.1394618,22.2378656 L44.3484618,23.2678656 C44.1784618,23.7428656 43.7294618,24.1148656 43.1954618,23.8998656 C39.1804618,22.2578656 35.1654618,21.0118656 30.9104618,20.3348656 C31.5614618,22.8698656 32.1414618,25.4248656 32.6174618,27.9988656 C32.8454618,29.2308656 33.5424618,31.1788656 32.4144618,32.2218656 C31.2354618,33.3238656 28.5824618,32.6528656 27.1684618,32.5938656 C24.7044618,32.4958656 22.2424618,32.3978656 19.7784618,32.2938656 C20.1174618,34.5548656 20.6774618,36.6738656 21.3744618,38.7588656 C22.0004618,40.6098656 22.7434618,42.4348656 23.5444618,44.3118656 L22.3714618,44.8138656 C19.5954618,40.8578656 18.2074618,36.0288656 17.6474618,31.2578656 C17.5814618,30.7428656 18.1494618,30.2468656 18.6374618,30.2668656 C20.6644618,30.3518656 22.6984618,30.4298656 24.7314618,30.5078656 C25.9104618,30.5538656 28.5574618,31.1788656 29.6064618,30.7038656 C32.2394618,29.5108656 29.1114618,21.3968656 28.5704618,19.3898656 C28.4134618,18.8158656 28.8764618,18.0208656 29.5474618,18.1058656 C34.5394618,18.7318656 39.3684618,19.9888656 43.9444618,22.1138656 C44.0224618,22.1468656 44.0804618,22.1918656 44.1394618,22.2378656" id="Fill-359" fill="#1C1C1B"></path>
            <path d="M106.202962,68.3604656 C106.854962,69.6704656 106.587962,71.2674656 105.433962,72.1924656 C104.273962,73.1114656 102.520962,73.2154656 101.269962,72.4144656 C100.239962,71.7564656 99.7519618,70.3874656 99.9789618,69.2074656 C100.161962,68.2624656 101.002962,67.1094656 102.070962,67.3624656 C102.253962,67.2134656 102.442962,67.0834656 102.657962,66.9914656 C104.026962,66.3594656 105.557962,67.0374656 106.202962,68.3604656" id="Fill-361" fill="#1C1C1B"></path>
            <path d="M79.5281618,66.1836656 C79.6981618,65.0686656 81.5551618,65.3496656 81.4831618,66.4506656 C81.2221618,70.1716656 81.0601618,74.5516656 78.2571618,77.3676656 C75.8911618,79.7456656 72.3001618,80.3916656 69.0681618,80.1756656 C62.1331618,79.7256656 54.9521618,74.6106656 58.1911618,66.9196656 C58.5491618,66.0726656 59.8661618,66.3596656 59.6181618,67.3106656 C57.7151618,74.5186656 64.2001618,78.1876656 70.4691618,78.0376656 C73.9111618,77.9596656 77.0711618,76.6306656 78.3161618,73.1696656 C79.1041618,70.9606656 79.1761618,68.4906656 79.5281618,66.1836656" id="Fill-363" fill="#1C1C1B"></path>
            <path d="M42.1912618,70.6153656 C42.2502618,73.4763656 38.4962618,75.0793656 36.3842618,73.2223656 C34.4032618,71.4823656 35.5172618,67.8123656 38.1432618,67.5323656 C38.2032618,67.5263656 38.2542618,67.5393656 38.3062618,67.5523656 C38.6912618,67.4413656 39.0952618,67.4023656 39.4932618,67.4483656 C41.0572618,67.6363656 42.1522618,69.0773656 42.1912618,70.6153656" id="Fill-365" fill="#1C1C1B"></path>
            <path d="M36.4626618,105.163166 L36.1886618,106.662166 C32.0566618,106.903166 27.7876618,106.473166 23.6886618,106.219166 C22.7176618,106.154166 22.2746618,105.078166 22.9126618,104.349166 C24.6596618,102.354166 25.9626618,100.243166 26.9346618,97.8441656 C23.5126618,97.5831656 20.0906618,97.4591656 16.6556618,97.4861656 C15.9266618,97.4921656 15.2756618,96.5731656 15.7566618,95.9151656 C17.8686618,93.0541656 19.9866618,90.2001656 22.1056618,87.3381656 C22.1306618,87.2991656 22.1566618,87.2731656 22.1896618,87.2471656 L23.3686618,86.9741656 C23.9166618,87.1821656 24.2876618,87.7621656 23.8516618,88.3621656 L18.7096618,95.4001656 C21.9546618,95.4131656 25.1936618,95.5501656 28.4396618,95.8171656 C29.0846618,95.8701656 29.7106618,96.4621656 29.4696618,97.1731656 C28.6086618,99.7271656 27.4166618,102.028166 25.8526618,104.153166 C29.3916618,104.335166 33.0016618,104.511166 36.4626618,105.163166" id="Fill-367" fill="#1C1C1B"></path>
            <path d="M23.8445618,45.0025656 C24.3795618,45.3865656 24.4245618,46.3645656 23.6295618,46.5145656 C19.9995618,47.2245656 16.1675618,47.3155656 12.4405618,47.5315656 C15.0535618,50.8225656 17.7645618,54.1065656 20.0515618,57.6065656 C20.3585618,58.0825656 19.9535618,58.5845656 19.4975618,58.6365656 L18.1105618,57.8675656 C18.1885618,57.8355656 18.2665618,57.8085656 18.3375618,57.7895656 C15.2945618,54.5045656 12.5765618,50.8485656 9.77456181,47.3685656 C9.22056181,46.6835656 9.56556181,45.7195656 10.4785618,45.6545656 C14.3885618,45.3675656 18.4355618,44.7675656 22.3715618,44.8135656 L23.5445618,44.3115656 C23.6435618,44.5395656 23.7465618,44.7675656 23.8445618,45.0025656" id="Fill-369" fill="#1C1C1B"></path>
            <path d="M23.3689618,86.9737656 L22.1889618,87.2467656 C17.4649618,86.0417656 12.8629618,84.1977656 8.48396181,82.0857656 C7.70196181,81.7077656 7.87796181,80.6517656 8.48396181,80.2277656 C11.8529618,77.9207656 14.4209618,75.1317656 17.2429618,72.2767656 C13.6199618,69.9507656 10.2109618,67.2517656 6.76896181,64.6847656 C6.05296181,64.1497656 6.10496181,63.0807656 7.01696181,62.7817656 C10.9279618,61.4977656 14.4209618,59.6407656 18.1099618,57.8677656 L19.4979618,58.6367656 C19.5169618,58.9427656 19.3999618,59.2627656 19.0609618,59.5037656 C16.1869618,61.5107656 12.7919618,62.9577656 9.44196181,64.1437656 C12.6679618,66.6137656 15.9389618,69.0707656 18.9119618,71.8337656 C19.0349618,71.9447656 19.0879618,72.0817656 19.0939618,72.2187656 C19.2639618,72.4927656 19.2959618,72.8307656 19.0809618,73.1637656 C17.0599618,76.2267656 14.1469618,78.7817656 11.1489618,80.9647656 C14.9559618,82.7237656 18.8269618,84.2487656 22.7499618,85.7347656 C23.3169618,85.9507656 23.4149618,86.5367656 23.1999618,86.9277656 C23.2589618,86.9407656 23.3099618,86.9537656 23.3689618,86.9737656" id="Fill-371" fill="#1C1C1B"></path>
        </g>
    </g>
</svg>