<?xml version="1.0" encoding="UTF-8"?>
<svg width="125px" height="155px" viewBox="0 0 125 155" version="1.1" xmlns="http://www.w3.org/2000/svg" xmlns:xlink="http://www.w3.org/1999/xlink">
    <!-- Generator: Sketch 53.1 (72631) - https://sketchapp.com -->
    <title>Group 73sticker8</title>
    <desc>Created with Sketch.</desc>
    <g id="Page-1" stroke="none" stroke-width="1" fill="none" fill-rule="evenodd">
        <g id="Group-73" transform="translate(0.308871, 0.706277)">
            <path d="M123.429429,27.9629226 C123.363429,27.7869226 123.283429,27.6089226 123.199429,27.4389226 C123.105429,27.2429226 122.911429,26.8409226 122.570429,26.3219226 L122.368429,26.0129226 C122.267429,25.8599226 122.161429,25.7149226 122.046429,25.5709226 L121.900429,25.3879226 C121.447429,24.8079226 121.023429,24.3779226 120.574429,23.9349226 C119.197429,22.6059226 117.798429,21.5969226 116.452429,20.6769226 C114.009429,19.0349226 111.409429,17.5749226 108.523429,16.2219226 C106.896429,15.4519226 105.478429,14.8709226 104.070429,14.3959226 C103.031429,14.0439226 102.130429,13.7979226 101.242429,13.6239226 C101.183429,13.6139226 100.911429,13.5679226 100.911429,13.5679226 C100.263429,13.4579226 99.1774292,13.2769226 97.8314292,13.4009226 C97.2404292,13.4559226 96.6464292,13.5639226 96.0644292,13.7259226 C95.8354292,13.7879226 95.6134292,13.8649226 95.3944292,13.9539226 C95.0704292,14.0869226 94.7344292,14.2469226 94.3274292,14.4699226 L94.2304292,14.5249226 C93.9584292,14.6769226 93.7024292,14.8509226 93.4564292,15.0419226 C93.4564292,15.0419226 93.0664292,15.3619226 93.0384292,15.3849226 C92.7794292,15.5949226 92.4474292,15.8839226 92.1134292,16.2649226 C91.8554292,16.5499226 91.5934292,16.8519226 91.3684292,17.1469226 C91.2634292,17.2819226 91.1654292,17.4249226 91.0724292,17.5709226 L90.7514292,18.0769226 C90.6874292,18.1769226 90.6264292,18.2759226 90.5704292,18.3799226 C90.0384292,19.3389226 89.6244292,20.3739226 89.3044292,21.5689226 C88.0404292,21.7509226 86.7694292,21.9319226 85.4784292,22.1029226 L82.4544292,22.5199226 C82.2164292,20.7239226 81.8864292,18.5319226 81.4174292,16.0579226 C81.3454292,15.6499226 81.2534292,15.2339226 81.1594292,14.8119226 L81.0954292,14.5129226 C80.9664292,13.8869226 80.7674292,13.1159226 80.5624292,12.4539226 C80.4784292,12.1649226 80.3944292,11.9409226 80.3244292,11.7629226 C80.3124292,11.7289226 80.2184292,11.4869226 80.2184292,11.4869226 C80.1714292,11.3619226 80.1204292,11.2369226 80.0644292,11.1159226 C80.0644292,11.1159226 80.0014292,10.9839226 79.9704292,10.9149226 C79.8374292,10.6329226 79.6584292,10.3259226 79.4824292,10.0689226 C79.4664292,10.0439226 79.2064292,9.68292256 79.2064292,9.68292256 C78.7264292,9.02992256 78.1954292,8.47792256 77.6224292,8.03792256 C77.3824292,7.84692256 77.1344292,7.65592256 76.9024292,7.49892256 C76.8574292,7.46692256 76.8104292,7.43792256 76.7634292,7.40692256 C75.9974292,6.91892256 75.1974292,6.50192256 74.3394292,6.13992256 C73.1994292,5.65492256 71.9804292,5.23392256 70.4954292,4.80892256 L67.2084292,3.86992256 C64.8614292,3.20992256 62.4964292,2.59092256 60.1794292,2.02492256 C57.2404292,1.30592256 54.7724292,0.818922555 52.4844292,0.503922555 C51.2064292,0.308922555 49.8634292,0.172922555 48.2464292,0.078922555 C47.1594292,0.014922555 45.5044292,-0.057077445 43.7184292,0.070922555 C43.5234292,0.084922555 43.3294292,0.101922555 43.1344292,0.119922555 C42.4064292,0.186922555 41.7374292,0.280922555 41.0934292,0.412922555 C40.5254292,0.512922555 40.0544292,0.654922555 39.7284292,0.751922555 C39.7284292,0.751922555 39.4894292,0.820922555 39.4544292,0.832922555 C38.5494292,1.10692256 37.5704292,1.59092256 37.0074292,1.92192256 C36.9194292,1.97392256 36.8354292,2.02792256 36.7514292,2.08292256 L36.4414292,2.28792256 C35.2944292,3.02092256 34.5214292,4.00192256 34.0704292,4.71292256 C33.9804292,4.85392256 33.8964292,4.99692256 33.8184292,5.14692256 C33.6734292,5.42192256 33.4634292,5.85692256 33.2844292,6.34292256 C33.2624292,6.40892256 33.2404292,6.47492256 33.2184292,6.53992256 C32.8984292,7.53292256 32.8064292,8.28892256 32.7424292,8.80492256 C32.7384292,8.84592256 32.7344292,8.88392256 32.7304292,8.92492256 C32.6304292,9.86392256 32.6204292,10.6549226 32.6164292,11.4129226 C32.6204292,13.6869226 32.7334292,15.7359226 32.8424292,17.7199226 L32.8814292,18.4599226 C33.0534292,21.0669226 33.2404292,23.0109226 33.4844292,24.7469226 C33.8054292,27.0789226 34.1614292,29.1219226 34.4904292,30.8059226 C33.1574292,31.0989226 31.8594292,31.3879226 30.6114292,31.6679226 C29.0684292,32.0049226 27.5384292,32.3799226 26.0604292,32.7409226 L25.4894292,32.8879226 C24.8394292,33.0559226 24.1034292,33.2439226 23.2894292,33.4989226 L23.0644292,33.5669226 C22.7294292,33.6699226 22.2774292,33.8069226 21.7414292,34.0249226 L21.2074292,34.2339226 C20.9724292,34.3269226 20.7454292,34.4329226 20.5274292,34.5539226 C20.1464292,34.7629226 19.7684292,34.9889226 19.3804292,35.2429226 C18.9394292,35.5359226 18.4984292,35.9329226 18.1464292,36.3359226 C17.7684292,36.7319226 17.3244292,37.2469226 16.8744292,38.0379226 C16.7244292,38.2899226 16.4454292,38.7569226 16.2104292,39.3759226 C16.2104292,39.3759226 16.0034292,39.9299226 15.9844292,39.9839226 C15.5804292,41.1569226 15.4234292,42.2099226 15.3334292,42.9949226 C15.3294292,43.0309226 15.3254292,43.0669226 15.3224292,43.1029226 C15.1614292,44.7429226 15.2244292,46.2219226 15.3044292,47.4539226 C15.3064292,47.4889226 15.3084292,47.5239226 15.3124292,47.5579226 C15.4994292,49.8369226 15.8874292,52.2389226 16.4934292,54.9029226 C17.0154292,57.1849226 17.6734292,59.4599226 18.5184292,61.8799226 C19.1984292,63.7979226 20.1654292,66.3339226 21.6274292,68.9339226 C21.6464292,68.9659226 21.8574292,69.3269226 21.9494292,69.4799226 C21.8194292,69.5599226 21.6904292,69.6359226 21.5614292,69.7149226 C20.3044292,70.4759226 18.9994292,71.2919226 17.5964292,72.1929226 C14.8204292,73.9529226 12.1204292,75.8479226 9.78842922,77.4979226 C8.73042922,78.2559226 7.33142922,79.2659226 5.92942922,80.3489226 C5.16942922,80.9349226 4.49542922,81.4799226 3.80742922,82.0669226 C3.44742922,82.3819226 2.99742922,82.7759226 2.47042922,83.3289226 C2.41142922,83.3919226 2.35342922,83.4539226 2.29742922,83.5209226 C1.65842922,84.1849226 1.18542922,84.9069226 0.689429224,85.9519226 C0.583429224,86.1729226 0.472429224,86.4659226 0.396429224,86.6979226 C0.372429224,86.7689226 0.332429224,86.9029226 0.310429224,86.9739226 C0.271429224,87.1119226 0.236429224,87.2529226 0.206429224,87.3939226 C0.206429224,87.3939226 0.150429224,87.6649226 0.141429224,87.7039226 C0.0794292239,88.0249226 -0.0785707761,89.0069226 0.0474292239,90.1089226 C0.120429224,90.8209226 0.257429224,91.3189226 0.340429224,91.6159226 C0.362429224,91.6979226 0.384429224,91.7779226 0.411429224,91.8589226 C0.758429224,92.9499226 1.15142922,93.6829226 1.41142922,94.1689226 C1.42342922,94.1889226 1.47042922,94.2799226 1.48242922,94.2999226 C1.78142922,94.8409226 2.07242922,95.3039226 2.35342922,95.7389226 C2.82042922,96.4559226 3.31942922,97.1689226 3.92742922,97.9849226 C4.82242922,99.1909226 5.79742922,100.422923 6.99642922,101.867923 C8.80342922,104.035923 10.8594292,106.297923 13.4764292,108.996923 C14.7114292,110.264923 15.8574292,111.385923 16.9944292,112.438923 C18.2924292,113.635923 19.5914292,114.799923 21.2384292,115.981923 C21.7144292,116.315923 22.3084292,116.715923 23.0954292,117.115923 C23.1794292,117.158923 23.3164292,117.225923 23.4024292,117.266923 C23.9354292,117.514923 24.5524292,117.774923 25.4564292,117.971923 C25.5354292,117.990923 25.6504292,118.012923 25.7284292,118.029923 C26.2654292,118.119923 27.0034292,118.219923 27.9584292,118.133923 C28.1974292,118.113923 28.4394292,118.078923 28.6804292,118.035923 C29.4044292,117.926923 30.0814292,117.703923 30.6914292,117.391923 C31.3464292,117.102923 31.9354292,116.733923 32.3764292,116.422923 C32.9374292,116.041923 33.3044292,115.688923 33.4514292,115.547923 L33.7434292,115.268923 C33.8234292,115.195923 33.8994292,115.117923 33.9744292,115.037923 C34.5304292,114.445923 35.0384292,113.795923 35.5244292,113.043923 C35.5484292,113.000923 35.5744292,112.961923 35.5994292,112.922923 L48.5774292,114.582923 C48.8224292,116.426923 49.1054292,118.350923 49.4334292,120.397923 L49.6144292,121.504923 C49.8104292,122.699923 50.0094292,123.897923 50.2164292,125.041923 C50.5114292,126.760923 50.8024292,128.313923 51.1004292,129.795923 C51.3754292,131.156923 51.6884292,132.520923 51.9994292,133.879923 L53.1654292,138.988923 C53.8594292,142.185923 54.4124292,145.413923 54.8144292,147.860923 C55.3444292,151.112923 58.1164292,153.526923 61.4624292,153.607923 C63.8704292,153.659923 66.2384292,153.788923 69.0604292,153.944923 C70.1304292,154.011923 71.2004292,154.052923 72.2734292,154.095923 L73.1054292,154.130923 C74.4084292,154.183923 75.8164292,154.232923 77.2534292,154.235923 C79.7694292,154.251923 82.7104292,154.245923 85.7714292,153.987923 L85.8124292,153.982923 C85.8244292,153.983923 85.8334292,153.980923 85.8434292,153.980923 C87.4094292,153.827923 89.0934292,153.634923 90.9294292,153.130923 C91.5584292,152.966923 92.1204292,152.763923 92.5914292,152.585923 C92.7184292,152.536923 92.8454292,152.482923 92.9684292,152.423923 L93.5384292,152.161923 C93.6874292,152.095923 93.8294292,152.021923 93.9704292,151.941923 C94.3844292,151.708923 94.8244292,151.427923 95.2024292,151.155923 C95.3184292,151.071923 95.4314292,150.982923 95.5424292,150.890923 L95.8844292,150.605923 C96.5584292,150.026923 96.9644292,149.482923 97.2554292,149.050923 C97.3704292,148.888923 97.4784292,148.718923 97.5754292,148.540923 C98.1594292,147.482923 98.3804292,146.665923 98.5074292,146.048923 C98.5334292,145.939923 98.5544292,145.827923 98.5754292,145.714923 C98.7104292,144.946923 98.7534292,144.327923 98.7814292,143.786923 C98.8574292,142.113923 98.8244292,140.615923 98.7754292,139.178923 L98.5994292,135.190923 C98.5424292,134.035923 98.4544292,132.885923 98.3674292,131.734923 L98.3184292,131.090923 C98.2204292,129.811923 98.0854292,128.447923 97.9044292,126.922923 C97.6324292,124.617923 97.2924292,122.227923 96.8674292,119.611923 C96.9724292,119.621923 97.3844292,119.639923 97.3844292,119.639923 C99.2964292,119.727923 101.275429,119.815923 103.443429,119.707923 C103.650429,119.697923 103.861429,119.682923 104.077429,119.664923 L104.558429,119.611923 C104.638429,119.604923 104.716429,119.596923 104.796429,119.582923 L105.206429,119.522923 C105.382429,119.496923 105.607429,119.449923 105.779429,119.408923 C106.077429,119.338923 106.361429,119.266923 106.726429,119.143923 C106.818429,119.113923 106.908429,119.078923 106.999429,119.045923 C107.300429,118.926923 107.597429,118.791923 107.884429,118.647923 L107.884429,118.645923 C108.654429,118.254923 109.257429,117.746923 109.691429,117.305923 C110.138429,116.846923 110.529429,116.340923 110.851429,115.783923 C110.949429,115.615923 111.036429,115.445923 111.115429,115.272923 C111.148429,115.205923 111.177429,115.135923 111.204429,115.066923 C111.265429,114.924923 111.335429,114.744923 111.388429,114.600923 L111.486429,114.318923 C111.525429,114.205923 111.558429,114.092923 111.591429,113.977923 C111.741429,113.436923 111.855429,112.943923 111.927429,112.516923 C112.144429,111.277923 112.255429,110.147923 112.349429,109.182923 C112.704429,105.123923 112.827429,101.059923 112.917429,97.5419226 C113.003429,93.2859226 112.939429,89.4459226 112.720429,85.7449226 C112.628429,84.4269226 112.515429,83.3859226 112.341429,82.2899226 C112.245429,81.7349226 112.103429,80.8979226 111.783429,79.9269226 C111.769429,79.8859226 111.740429,79.8039226 111.740429,79.8039226 C111.685429,79.6379226 111.574429,79.2929226 111.374429,78.8699226 C111.355429,78.8279226 111.335429,78.7869226 111.316429,78.7439226 C111.187429,78.4859226 111.050429,78.2289226 110.908429,77.9829226 C110.757429,77.7149226 110.585429,77.4629226 110.396429,77.2249226 C110.148429,76.9139226 109.880429,76.6189226 109.595429,76.3489226 C109.548429,76.3019226 109.300429,76.0779226 109.300429,76.0779226 C109.056429,75.8589226 108.798429,75.6639226 108.525429,75.4889226 C108.288429,75.3359226 108.033429,75.1889226 107.755429,75.0499226 C107.499429,74.9239226 107.195429,74.8039226 106.923429,74.7149226 L106.591429,74.6059226 C106.439429,74.5549226 106.284429,74.5119226 106.128429,74.4749226 C105.716429,74.3759226 105.255429,74.2899226 104.775429,74.2129226 C104.431429,74.1579226 104.173429,74.1299226 103.913429,74.1069226 L103.771429,74.0919226 C103.240429,74.0309226 102.716429,73.9889226 102.152429,73.9499226 C101.306429,73.8759226 100.466429,73.8219226 99.6264292,73.7709226 L99.2064292,73.7429226 C96.0704292,73.5629226 92.9454292,73.4359226 89.9784292,73.3319226 C89.5314292,71.4939226 89.0564292,69.8259226 88.6654292,68.5189226 C88.5444292,68.1139226 88.3904292,67.7319226 88.1994292,67.3699226 L87.8044292,64.7149226 C87.8354292,64.5189226 87.8574292,64.3189226 87.8684292,64.1169226 C87.9504292,62.7859226 87.8514292,61.5729226 87.6674292,60.4009226 L98.4004292,57.1299226 C98.9524292,57.7369226 99.4824292,58.2629226 100.040429,58.7569226 C100.353429,59.0399226 100.687429,59.3059226 100.992429,59.5249226 L101.251429,59.7139226 C101.415429,59.8339226 101.585429,59.9419226 101.761429,60.0429226 L101.988429,60.1759226 C102.663429,60.5889226 103.454429,60.9149226 104.400429,61.1649226 C104.708429,61.2449226 105.021429,61.3019226 105.339429,61.3329226 C105.726429,61.3719226 106.046429,61.4009226 106.462429,61.3819226 L106.497429,61.3819226 C106.679429,61.3809226 106.859429,61.3719226 107.034429,61.3549226 C107.476429,61.3169226 107.976429,61.2279226 108.421429,61.1109226 C108.966429,60.9719226 109.759429,60.7159226 110.501429,60.2819226 C110.533429,60.2659226 110.894429,60.0449226 110.894429,60.0449226 C111.521429,59.6749226 111.952429,59.3019226 112.179429,59.1049226 C112.218429,59.0729226 112.255429,59.0419226 112.292429,59.0089226 C112.962429,58.4289226 113.443429,57.8829226 113.745429,57.5209226 C114.464429,56.6819226 114.995429,55.8779226 115.468429,55.1639226 C115.488429,55.1399226 115.503429,55.1119226 115.519429,55.0889226 C116.320429,53.8409226 117.066429,52.4939226 117.876429,50.8419226 C119.095429,48.3449226 120.212429,45.6939226 121.300429,42.7199226 C121.843429,41.2219226 122.302429,39.8419226 122.706429,38.4869226 C123.107429,37.1399226 123.552429,35.5169226 123.851429,33.7019226 C123.861429,33.6479226 123.890429,33.4249226 123.890429,33.4249226 C123.947429,33.0189226 124.023429,32.4659226 124.044429,31.7859226 C124.042429,31.7729226 124.046429,31.6959226 124.046429,31.6819226 C124.074429,30.6999226 124.023429,29.4909226 123.429429,27.9629226" id="Fill-113" fill="#FFFFFF"></path>
            <path d="M84.0778292,80.3467226 C95.2578292,80.4837226 103.993829,80.7427226 104.772829,81.2427226 C107.059829,82.7057226 105.975829,109.826723 104.774829,112.325723 C104.409829,113.084723 97.5738292,112.700723 88.1908292,111.799723 C78.2228292,110.834723 65.3748292,109.287723 54.3828292,107.897723 C41.3478292,106.241723 30.8998292,104.801723 30.8998292,104.801723 C30.8998292,104.801723 29.7018292,109.926723 27.3768292,110.619723 C25.0408292,111.321723 6.67682922,91.0127226 7.68482922,89.0067226 C8.69382922,86.9927226 29.3668292,72.6577226 30.6028292,73.0197226 C31.8318292,73.3827226 31.7578292,80.3267226 31.7578292,80.3267226 C31.7578292,80.3267226 39.2668292,80.2667226 49.4708292,80.2467226 C59.9008292,80.2137226 73.1518292,80.2197226 84.0778292,80.3467226" id="Fill-115" fill="#A37436"></path>
            <path d="M80.3298292,54.9111226 C69.4468292,58.1731226 56.3588292,62.0511226 46.4708292,64.8411226 C38.7458292,67.0301226 32.9748292,68.5611226 31.7428292,68.6161226 C27.2568292,68.8231226 18.9668292,44.5291226 23.2298292,40.8181226 C24.3118292,39.8841226 32.3608292,38.1401226 42.7228292,36.2371226 C53.2338292,34.3041226 66.1268292,32.1851226 76.5368292,30.5241226 C87.3868292,28.8071226 95.5388292,27.5871226 95.5388292,27.5871226 C95.5388292,27.5871226 95.0798292,22.2181226 97.6538292,20.4451226 C100.220829,18.6641226 115.600829,27.0731226 116.919829,30.6201226 C117.974829,33.4401226 109.579829,54.7351226 106.177829,54.0951226 C104.518829,53.7781226 101.052829,48.6631226 101.052829,48.6631226 C101.052829,48.6631226 91.9488292,51.4311226 80.3298292,54.9111226" id="Fill-117" fill="#A37436"></path>
            <path d="M80.3298292,54.9111226 C81.4178292,62.1541226 82.9448292,72.4221226 84.0778292,80.3471226 C73.1518292,80.2201226 59.9008292,80.2141226 49.4708292,80.2471226 C48.4318292,74.1641226 47.4408292,70.6571226 46.4708292,64.8411226 C56.3588292,62.0511226 69.4468292,58.1731226 80.3298292,54.9111226" id="Fill-119" fill="#B7873E"></path>
            <path d="M88.1911292,111.799823 C90.3631292,129.412823 91.6011292,142.575823 90.6731292,143.527823 C87.7571292,146.507823 70.4231292,145.232823 61.1771292,145.288823 C61.1771292,145.288823 58.1821292,129.467823 54.4371292,108.574823 L54.3821292,107.897823 C65.3751292,109.287823 78.2221292,110.834823 88.1911292,111.799823" id="Fill-121" fill="#B7873E"></path>
            <path d="M76.3356292,29.2803226 L76.5366292,30.5243226 C66.1266292,32.1853226 53.2336292,34.3033226 42.7226292,36.2373226 L42.6236292,35.7173226 C40.7616292,22.0243226 39.2886292,9.47332256 40.4276292,8.50732256 C44.8676292,4.74332256 71.7376292,10.8733226 73.4646292,14.0693226 C73.8236292,14.7253226 74.8866292,20.4973226 76.3356292,29.2803226" id="Fill-123" fill="#B7873E"></path>
            <path d="M46.1462292,13.2608226 C46.0812292,13.0098226 45.7102292,12.9948226 45.5672292,13.1728226 C44.5702292,14.4038226 44.8532292,16.3888226 44.8592292,17.8778226 C44.8692292,20.4538226 44.9592292,22.9968226 45.5642292,25.5028226 C45.6742292,25.9518226 46.4332292,25.9538226 46.5742292,25.5308226 C47.2962292,23.3548226 47.0152292,21.3268226 46.7682292,19.0828226 C46.5602292,17.1988226 46.6092292,15.0868226 46.1462292,13.2608226" id="Fill-125" fill="#672381" opacity="0.150692894"></path>
            <path d="M50.1774292,25.7061226 C49.8864292,24.0611226 49.8504292,22.2601226 49.1914292,20.7181226 C49.1484292,20.6201226 48.9954292,20.6041226 48.9514292,20.7121226 C48.3844292,22.1031226 48.4454292,23.6801226 48.4004292,25.1661226 C48.3504292,26.9051226 48.1134292,28.7921226 48.7654292,30.4361226 C49.1114292,31.3131226 50.4024292,31.1551226 50.5794292,30.2511226 C50.8764292,28.7351226 50.4414292,27.2061226 50.1774292,25.7061226" id="Fill-127" fill="#672381" opacity="0.150692894"></path>
            <path d="M58.3122292,13.3926226 C57.8502292,13.0096226 57.0292292,13.0496226 56.6672292,13.5616226 C54.4232292,16.7376226 54.9022292,20.3956226 57.1232292,23.4636226 C58.0002292,24.6776226 59.9102292,23.3156226 59.0222292,22.0906226 C57.7362292,20.3196226 57.0912292,18.2606226 57.8102292,16.2906226 C58.9212292,17.8706226 59.5422292,20.0946226 59.9142292,21.7786226 C60.3002292,23.5386226 59.7922292,28.8326226 57.4632292,25.5206226 C55.1512292,22.2326226 54.1332292,16.2976226 54.2442292,12.3176226 C54.2612292,11.6986226 53.2362292,11.6886226 53.1602292,12.2846226 C52.5972292,16.5906226 52.7832292,27.8936226 58.4532292,29.0246226 C61.9282292,29.7156226 62.6722292,25.1576226 62.4532292,22.8016226 C62.1622292,19.7096226 60.7892292,15.4496226 58.3122292,13.3926226" id="Fill-129" fill="#672381" opacity="0.150692894"></path>
            <path d="M62.9431292,12.8330226 C62.7281292,12.3820226 62.0101292,12.6400226 62.1991292,13.1200226 C63.7891292,17.1330226 64.0701292,21.3580226 64.3201292,25.6220226 C64.3821292,26.6870226 66.1191292,26.5150226 65.9841292,25.4530226 C65.4331292,21.1150226 64.8411292,16.8170226 62.9431292,12.8330226" id="Fill-131" fill="#672381" opacity="0.150692894"></path>
            <path d="M54.6052292,64.0518226 C54.5932292,63.9198226 54.3752292,63.9078226 54.3692292,64.0438226 C54.1362292,68.6068226 56.7072292,72.6558226 56.8502292,77.2188226 C56.8842292,78.2968226 58.5162292,78.1018226 58.5162292,77.0498226 C58.5072292,72.4108226 54.9992292,68.6708226 54.6052292,64.0518226" id="Fill-133" fill="#672381" opacity="0.167271205"></path>
            <path d="M62.1188292,71.7588226 C60.8958292,69.0848226 59.5398292,66.7338226 58.6188292,63.9188226 C58.5718292,63.7708226 58.3698292,63.7898226 58.3058292,63.9108226 C57.2948292,65.8428226 57.9638292,68.0288226 58.7138292,69.9448226 C59.2488292,71.3118226 59.9218292,72.6038226 60.3898292,73.9988226 C60.8418292,75.3418226 60.4878292,76.6038226 61.3938292,77.7228226 C61.6138292,77.9898226 62.0938292,78.1408226 62.3838292,77.8728226 C64.1168292,76.2568226 62.9778292,73.6448226 62.1188292,71.7588226" id="Fill-135" fill="#672381" opacity="0.167271205"></path>
            <path d="M63.5554292,65.7324226 C63.2614292,64.8484226 63.1384292,63.8964226 63.1694292,62.9674226 C63.2004292,62.0484226 61.6614292,62.0264226 61.5514292,62.9194226 C61.4274292,63.9114226 61.4924292,64.8874226 61.6504292,65.8704226 C61.8054292,66.8384226 61.9374292,67.5144226 62.8204292,68.0494226 C63.0894292,68.2134226 63.4474292,68.0214226 63.5714292,67.7704226 C63.9314292,67.0464226 63.8004292,66.4674226 63.5554292,65.7324226" id="Fill-137" fill="#672381" opacity="0.167271205"></path>
            <path d="M71.9743292,68.3897226 C70.8103292,65.5307226 68.3693292,63.4527226 67.2553292,60.5247226 C67.1133292,60.1497226 66.5783292,60.3727226 66.6813292,60.7457226 C67.3083292,63.0197226 68.4103292,65.0397226 69.5403292,67.0947226 C71.1263292,69.9697226 70.8433292,72.3557226 69.2793292,75.2027226 C68.5543292,76.5177226 70.7553292,77.5157226 71.4173292,76.1617226 C72.6713292,73.5847226 73.0743292,71.0807226 71.9743292,68.3897226" id="Fill-139" fill="#672381" opacity="0.167271205"></path>
            <path d="M79.1638292,60.0547226 C78.8398292,59.8427226 78.4778292,59.8017226 78.1428292,60.0287226 C77.0018292,60.8087226 77.3398292,62.4467226 76.7678292,63.5677226 C76.6148292,63.8677226 76.5918292,63.8157226 76.3198292,63.9057226 C76.4408292,63.8647226 76.3358292,63.8817226 76.2378292,63.8697226 C75.9878292,63.8387226 75.8668292,63.7827226 75.7208292,63.7217226 C73.5798292,62.8307226 72.8828292,59.8497226 72.7728292,57.8237226 C72.7678292,57.7277226 72.6428292,57.7277226 72.6018292,57.7957226 C70.9258292,60.6517226 71.9688292,64.6507226 74.9018292,66.2337226 C76.2438292,66.9537226 77.8318292,66.4717226 78.8098292,65.4087226 C79.8748292,64.2507226 80.7358292,61.0807226 79.1638292,60.0547226" id="Fill-141" fill="#672381" opacity="0.167271205"></path>
            <path d="M79.0427292,69.1709226 C75.3047292,70.1859226 72.1557292,76.2749226 74.6597292,79.6199226 C75.0307292,80.1159226 75.7827292,79.9029226 75.9117292,79.3259226 C76.2577292,77.7759226 76.1427292,76.2249226 76.4427292,74.6679226 C76.8277292,72.6819226 78.2187292,71.2099226 79.4057292,69.6629226 C79.6127292,69.3949226 79.3397292,69.0889226 79.0427292,69.1709226" id="Fill-143" fill="#672381" opacity="0.167271205"></path>
            <path d="M64.2907292,124.530323 C64.4217292,120.155323 64.3327292,113.993323 59.8727292,111.673323 C59.6487292,111.559323 59.4157292,111.805323 59.4947292,112.024323 C60.5527292,114.915323 61.7297292,117.301323 61.9557292,120.456323 C62.1817292,123.600323 61.6597292,126.856323 61.3957292,129.989323 C61.0207292,134.395323 60.5597292,140.499323 64.5157292,143.484323 C65.0117292,143.859323 65.6457292,143.375323 65.4667292,142.802323 C64.5717292,139.952323 63.7417292,137.421323 63.6697292,134.395323 C63.5917292,131.096323 64.1897292,127.823323 64.2907292,124.530323" id="Fill-145" fill="#672381" opacity="0.167271205"></path>
            <path d="M72.8239292,123.426823 C72.5449292,123.067823 71.9569292,123.018823 71.6659292,123.397823 C68.9369292,126.961823 69.4369292,131.844823 71.0879292,135.774823 C71.3279292,136.348823 72.2219292,136.145823 72.1639292,135.518823 C71.8469292,132.250823 70.6679292,128.313823 72.2379292,125.227823 C73.5939292,127.738823 73.6829292,131.069823 73.6809292,133.795823 C73.6809292,135.430823 73.5489292,137.104823 72.9719292,138.643823 C71.8119292,141.754823 69.0349292,138.119823 68.4079292,136.619823 C66.7339292,132.619823 67.2629292,127.420823 67.1559292,123.176823 C67.0799292,120.237823 67.1499292,116.055823 65.1269292,113.645823 C65.0599292,113.567823 64.9219292,113.608823 64.9309292,113.721823 C65.4309292,119.725823 64.9719292,125.729823 65.3529292,131.744823 C65.5989292,135.658823 66.7219292,141.321823 71.4289292,141.979823 C78.7599292,143.007823 75.0449292,126.295823 72.8239292,123.426823" id="Fill-147" fill="#672381" opacity="0.167271205"></path>
            <path d="M78.3220292,125.167023 C77.6500292,122.815023 76.2950292,120.899023 74.5720292,119.212023 C71.9880292,116.687023 70.0840292,115.444023 69.7670292,111.565023 C69.7610292,111.489023 69.6560292,111.462023 69.6090292,111.521023 C66.6680292,115.015023 70.7010292,118.577023 73.2380292,120.835023 C79.6970292,126.585023 76.2580292,135.851023 78.5760292,143.053023 C78.7480292,143.588023 79.5800292,143.473023 79.6640292,142.939023 C80.5470292,137.341023 79.8790292,130.593023 78.3220292,125.167023" id="Fill-149" fill="#672381" opacity="0.167271205"></path>
            <path d="M80.7595292,113.575223 C80.5835292,113.204223 79.9435292,113.304223 80.0115292,113.757223 C80.9685292,119.968223 81.2065292,126.411223 82.6915292,132.522223 C82.9255292,133.489223 84.6075292,133.087223 84.4175292,132.106223 C83.2555292,126.050223 83.4525292,119.221223 80.7595292,113.575223" id="Fill-151" fill="#672381" opacity="0.167271205"></path>
            <path d="M86.0661292,124.852523 C86.0431292,124.745523 85.8791292,124.756523 85.8881292,124.872523 C86.2691292,129.870523 86.7071292,134.840523 87.5191292,139.799523 C87.6601292,140.659523 89.0041292,140.536523 88.8841292,139.659523 C88.2161292,134.659523 87.1581292,129.768523 86.0661292,124.852523" id="Fill-153" fill="#672381" opacity="0.167271205"></path>
            <path d="M46.0427292,96.8213226 C43.2977292,96.3073226 40.4627292,96.5923226 37.6797292,96.4363226 C34.7827292,96.2703226 31.8747292,95.4893226 28.9807292,95.8743226 C28.8537292,95.8913226 28.8457292,96.0403226 28.9427292,96.0983226 C31.4467292,97.6243226 34.4897292,97.9423226 37.3467292,98.3833226 C40.2727292,98.8373226 43.3457292,99.2353226 46.1887292,98.2553226 C46.9197292,98.0053226 46.7537292,96.9523226 46.0427292,96.8213226" id="Fill-155" fill="#672381" opacity="0.167271205"></path>
            <path d="M53.0417292,101.036123 C51.0937292,100.786123 49.1147292,100.546123 47.1637292,100.349123 C46.5547292,100.288123 46.3347292,101.044123 46.8557292,101.341123 C48.6857292,102.376123 50.8717292,103.057123 52.9747292,103.046123 C54.1387292,103.040123 54.1737292,101.179123 53.0417292,101.036123" id="Fill-157" fill="#672381" opacity="0.167271205"></path>
            <path d="M86.4411292,102.571323 C75.5931292,100.622323 64.5501292,100.008323 53.6731292,98.1983226 C53.5841292,98.1843226 53.5621292,98.3133226 53.6481292,98.3333226 C64.3751292,100.745323 75.2481292,102.815323 86.1231292,104.436323 C87.3371292,104.618323 87.6541292,102.790323 86.4411292,102.571323" id="Fill-159" fill="#672381" opacity="0.167271205"></path>
            <path d="M95.8278292,86.3643226 C87.6228292,84.7943226 79.1848292,85.4343226 70.8918292,84.9013226 C63.5118292,84.4283226 56.7988292,82.0833226 49.4388292,84.1693226 C49.1368292,84.2573226 49.2618292,84.7573226 49.5678292,84.7023226 C57.2228292,83.2783226 64.4318292,86.3913226 71.9778292,87.0813226 C79.8048292,87.7903226 87.6248292,87.5613226 95.4138292,88.7723226 C96.9838292,89.0163226 97.3888292,86.6633226 95.8278292,86.3643226" id="Fill-161" fill="#672381" opacity="0.167271205"></path>
            <path d="M93.7106292,90.5186226 C90.9156292,90.3236226 88.1226292,90.0816226 85.3296292,89.8566226 C85.2166292,89.8466226 85.1836292,90.0126226 85.3006292,90.0286226 C88.0676292,90.3976226 90.8236292,90.8406226 93.5876292,91.2396226 C94.0626292,91.3076226 94.1796292,90.5556226 93.7106292,90.5186226" id="Fill-163" fill="#672381" opacity="0.167271205"></path>
            <path d="M57.1452292,55.3291226 C49.4582292,57.8931226 41.6482292,60.8841226 33.4262292,60.8261226 C33.3592292,60.8251226 33.3562292,60.9401226 33.4212292,60.9421226 C41.7352292,61.3951226 49.8832292,59.4301226 57.7572292,56.8901226 C58.7942292,56.5541226 58.1732292,54.9851226 57.1452292,55.3291226" id="Fill-165" fill="#672381" opacity="0.150692894"></path>
            <path d="M90.9391292,43.3838226 C83.6581292,45.8428226 76.4371292,48.0828226 69.0001292,50.0408226 C62.6441292,51.7158226 54.7991292,52.7138226 49.1731292,56.2378226 C49.1031292,56.2818226 49.1541292,56.3838226 49.2261292,56.3798226 C52.5851292,56.1728226 55.9061292,54.9948226 59.1871292,54.2768226 C63.1131292,53.4208226 67.0391292,52.5478226 70.9641292,51.6898226 C77.9531292,50.1558226 85.2361292,48.4628226 91.7751292,45.5148226 C93.1281292,44.9018226 92.3491292,42.9088226 90.9391292,43.3838226" id="Fill-167" fill="#672381" opacity="0.150692894"></path>
            <path d="M84.5973292,50.3701226 C79.2023292,51.8451226 74.0603292,54.5461226 68.4433292,55.0361226 C68.3653292,55.0431226 68.3783292,55.1571226 68.4523292,55.1541226 C74.2143292,54.8891226 79.5743292,53.1061226 85.1093292,51.6741226 C85.9863292,51.4461226 85.4683292,50.1321226 84.5973292,50.3701226" id="Fill-169" fill="#672381" opacity="0.150692894"></path>
            <path d="M110.171629,32.4111226 C108.784629,36.2571226 108.607629,41.5011226 105.968629,44.8201226 C102.778629,40.6701226 97.1166292,39.2821226 95.1366292,45.6311226 C95.0216292,45.9931226 95.4746292,46.3491226 95.7396292,46.0011226 C96.8706292,44.5161226 98.1776292,42.8331226 100.269629,43.0341226 C102.280629,43.2251226 103.812629,45.7041226 104.622629,47.2681226 C104.972629,47.9381226 105.860629,48.3761226 106.534629,47.8191226 C110.716629,44.3681226 110.786629,38.2141226 112.511629,33.4601226 C113.069629,31.9151226 110.728629,30.8741226 110.171629,32.4111226" id="Fill-171" fill="#672381" opacity="0.150692894"></path>
            <path d="M37.5661292,41.0322226 C34.7121292,41.4272226 31.8041292,42.1772226 29.1371292,43.2682226 C28.7341292,43.4332226 28.8671292,44.1162226 29.3231292,44.0272226 C32.1361292,43.4852226 34.8311292,42.6432226 37.7101292,42.4212226 C38.6171292,42.3522226 38.4681292,40.9072226 37.5661292,41.0322226" id="Fill-173" fill="#672381" opacity="0.150692894"></path>
            <path d="M44.5290292,42.8320226 C40.3290292,43.8800226 35.8320292,44.6900226 31.7760292,46.1920226 C31.7240292,46.2120226 31.7270292,46.3030226 31.7870292,46.3080226 C36.0950292,46.4950226 40.8290292,45.8020226 45.0640292,45.0320226 C46.7130292,44.7350226 46.1590292,42.4270226 44.5290292,42.8320226" id="Fill-175" fill="#672381" opacity="0.150692894"></path>
            <path d="M96.4001292,30.2393226 C94.5991292,29.3843226 92.3791292,30.5933226 90.5701292,30.9823226 C89.1891292,31.2803226 86.8841292,31.0793226 85.8451292,32.0703226 C85.6711292,32.2383226 85.7091292,32.5383226 85.8301292,32.7203226 C86.6951292,34.0013226 89.4861292,33.6333226 90.8341292,33.5403226 C92.8001292,33.4073226 95.8301292,33.2893226 96.7791292,31.2433226 C96.9591292,30.8623226 96.7731292,30.4173226 96.4001292,30.2393226" id="Fill-177" fill="#672381" opacity="0.150692894"></path>
            <path d="M35.8093292,83.5928226 C35.4453292,83.6338226 35.0403292,83.6768226 34.7183292,83.4598226 C34.6323292,83.4068226 34.5333292,83.5228226 34.6183292,83.5828226 C34.9693292,83.8468226 35.4123292,83.8368226 35.8323292,83.8098226 C35.9743292,83.7998226 35.9513292,83.5768226 35.8093292,83.5928226" id="Fill-179" fill="#672381"></path>
            <path d="M27.3298292,77.6113226 C25.0628292,77.1333226 22.6098292,79.4693226 20.9628292,80.7533226 C20.2138292,81.3353226 16.7868292,83.2063226 17.5488292,84.5033226 C18.3508292,85.8683226 20.8928292,84.0203226 21.6948292,83.5223226 C22.7668292,82.8543226 23.8278292,82.1673226 24.9098292,81.5143226 C25.9998292,80.8583226 27.1988292,80.5363226 28.0798292,79.5853226 C28.7428292,78.8723226 28.1788292,77.7893226 27.3298292,77.6113226" id="Fill-181" fill="#672381" opacity="0.167271205"></path>
            <path d="M89.3747292,112.094723 C89.7087292,113.369723 89.9687292,114.657723 90.2557292,115.944723 C90.5197292,117.229723 90.7597292,118.522723 90.9877292,119.813723 C91.4257292,122.401723 91.8177292,124.996723 92.1267292,127.604723 C92.2827292,128.906723 92.4197292,130.215723 92.5177292,131.526723 C92.6127292,132.836723 92.7207292,134.151723 92.7807292,135.467723 L92.9487292,139.434723 C92.9937292,140.772723 93.0177292,142.090723 92.9527292,143.521723 C92.9337292,143.882723 92.9037292,144.251723 92.8257292,144.706723 C92.7597292,144.962723 92.7807292,145.148723 92.4647292,145.720723 C92.3477292,145.888723 92.2807292,146.007723 92.0837292,146.173723 L91.9897292,146.251723 L91.8027292,146.411723 C91.5937292,146.558723 91.3337292,146.728723 91.0997292,146.857723 L90.5207292,147.124723 C90.1477292,147.267723 89.7747292,147.398723 89.4197292,147.491723 C87.9817292,147.888723 86.6307292,148.036723 85.2767292,148.165723 C82.5777292,148.396723 79.9317292,148.407723 77.2907292,148.390723 C75.9727292,148.386723 74.6577292,148.339723 73.3457292,148.282723 C72.0307292,148.226723 70.7207292,148.181723 69.4157292,148.097723 C66.8007292,147.943723 64.1887292,147.792723 61.5997292,147.728723 L61.5437292,147.726723 C61.0717292,147.714723 60.6887292,147.366723 60.6167292,146.917723 C60.1137292,143.845723 59.5757292,140.781723 58.9077292,137.740723 L57.8537292,133.188723 C57.5027292,131.674723 57.1417292,130.158723 56.8317292,128.631723 C56.5217292,127.108723 56.2407292,125.576723 55.9777292,124.043723 C55.6997292,122.512723 55.4567292,120.975723 55.2057292,119.440723 C54.7207292,116.367723 54.2947292,113.281723 53.9667292,110.180723 C53.9137292,109.684723 54.2727292,109.239723 54.7697292,109.188723 C55.2187292,109.139723 55.6257292,109.430723 55.7357292,109.854723 L55.7397292,109.862723 C56.5347292,112.877723 57.2317292,115.910723 57.8707292,118.957723 C58.1807292,120.481723 58.5007292,122.002723 58.7847292,123.530723 C59.0817292,125.057723 59.3627292,126.586723 59.6147292,128.119723 C59.8667292,129.653723 60.0687292,131.196723 60.2777292,132.739723 L60.9097292,137.365723 C61.3647292,140.444723 61.9487292,143.499723 62.5717292,146.546723 L61.5877292,145.736723 C64.2297292,145.650723 66.8517292,145.640723 69.4687292,145.597723 L77.2867292,145.519723 C79.8767292,145.482723 82.4707292,145.406723 84.9817292,145.144723 C86.2267292,145.005723 87.4857292,144.835723 88.5677292,144.513723 C88.8457292,144.441723 89.0857292,144.345723 89.3237292,144.253723 L89.6347292,144.105723 C89.6797292,144.066723 89.7007292,144.066723 89.7677292,144.038723 L89.9507292,143.876723 L90.0447292,143.798723 C89.9177292,143.919723 89.8767292,143.950723 89.8107292,144.054723 C89.6577292,144.343723 89.7437292,144.202723 89.7377292,144.138723 C89.7677292,143.948723 89.7927292,143.663723 89.8007292,143.372723 C89.8397292,142.189723 89.7417292,140.887723 89.6537292,139.614723 C89.5617292,138.330723 89.4197292,137.041723 89.2767292,135.752723 L88.8457292,131.877723 C88.6927292,130.584723 88.5657292,129.287723 88.4507292,127.990723 C88.2107292,125.393723 88.0197292,122.787723 87.8537292,120.180723 C87.7787292,118.875723 87.7087292,117.565723 87.6597292,116.256723 C87.6327292,114.944723 87.5737292,113.635723 87.5897292,112.313723 C87.5937292,111.813723 88.0037292,111.410723 88.5057292,111.416723 C88.9237292,111.420723 89.2727292,111.707723 89.3747292,112.094723" id="Fill-183" fill="#000000"></path>
            <path d="M41.7302292,35.8428226 C41.7302292,35.8428226 41.3472292,34.6768226 40.8552292,32.6038226 C40.3592292,30.5318226 39.7502292,27.5578226 39.2482292,23.9478226 C38.9902292,22.1458226 38.8262292,20.1748226 38.6932292,18.0798226 C38.5852292,15.9778226 38.4552292,13.7808226 38.4552292,11.4068226 C38.4592292,10.8058226 38.4652292,10.2038226 38.5352292,9.52682256 C38.5792292,9.17682256 38.6122292,8.83382256 38.7752292,8.32882256 C38.8302292,8.18082256 38.9102292,8.00682256 38.9902292,7.85482256 C39.0642292,7.73382256 39.1642292,7.60082256 39.2692292,7.48682256 L39.3492292,7.40182256 C39.4312292,7.33282256 39.2822292,7.44182256 39.5562292,7.22782256 L39.6022292,7.19782256 L39.9662292,6.95582256 C40.2552292,6.78582256 40.8082292,6.52482256 41.1402292,6.42482256 C41.4822292,6.32882256 41.8382292,6.20582256 42.1642292,6.15582256 C42.8352292,6.01482256 43.4822292,5.94482256 44.1252292,5.89982256 C45.4092292,5.80982256 46.6582292,5.84082256 47.9042292,5.91482256 C49.1482292,5.98882256 50.3802292,6.09682256 51.6022292,6.28582256 C54.0462292,6.63082256 56.4472292,7.14982256 58.7852292,7.72782256 C61.1252292,8.30582256 63.4102292,8.91282256 65.6212292,9.53282256 C67.8302292,10.1768226 69.9862292,10.6768226 72.0502292,11.5358226 C72.5682292,11.7508226 73.0872292,12.0078226 73.6212292,12.3468226 C73.7572292,12.4388226 73.9042292,12.5618226 74.0432292,12.6708226 C74.1712292,12.7598226 74.3412292,12.9448226 74.4902292,13.1478226 L74.5992292,13.2938226 L74.6522292,13.3698226 L74.6772292,13.4058226 L74.7532292,13.5718226 L74.8202292,13.7428226 C74.8632292,13.8658226 74.9082292,13.9568226 74.9512292,14.1028226 C75.1302292,14.6788226 75.2872292,15.2838226 75.3732292,15.7138226 C75.4742292,16.1868226 75.5872292,16.6478226 75.6622292,17.0968226 C76.3492292,20.6938226 76.7162292,23.6948226 76.9452292,25.8068226 C77.0412292,26.8638226 77.1152292,27.6958226 77.1662292,28.2628226 C77.2032292,28.8308226 77.2222292,29.1348226 77.2222292,29.1348226 C77.2552292,29.6328226 76.8762292,30.0638226 76.3762292,30.0948226 C75.9412292,30.1238226 75.5562292,29.8328226 75.4452292,29.4268226 C75.4452292,29.4268226 75.3652292,29.1338226 75.2162292,28.5848226 C75.0822292,28.0338226 74.8822292,27.2258226 74.6302292,26.1968226 C74.3882292,25.1668226 74.1192292,23.9108226 73.8102292,22.4758226 C73.5212292,21.0398226 73.1952292,19.4188226 72.8392292,17.6518226 C72.6812292,16.8018226 72.4472292,15.7728226 72.3452292,15.1188226 C72.3342292,15.0278226 72.2812292,14.8918226 72.2502292,14.7798226 L72.1972292,14.6018226 C72.2242292,14.6568226 72.1232292,14.4448226 72.2552292,14.7218226 L72.2532292,14.7228226 L72.2502292,14.7238226 L72.2462292,14.7238226 C72.3002292,14.7428226 72.1302292,14.5838226 72.0392292,14.4878226 C71.7462292,14.2468226 71.3752292,13.9908226 70.9552292,13.7568226 C69.2732292,12.8128226 67.2402292,11.9658226 65.0992292,11.3528226 C60.8042292,10.0828226 56.0042292,9.46082256 51.2902292,9.03882256 C48.9392292,8.85082256 46.5622292,8.68782256 44.3692292,8.89882256 C43.8282292,8.95182256 43.2942292,9.02382256 42.8132292,9.13582256 C42.5562292,9.17682256 42.3592292,9.26482256 42.1352292,9.32482256 C41.9142292,9.41382256 41.9272292,9.39582256 41.7082292,9.50182256 L41.3492292,9.74882256 L41.3042292,9.78082256 L41.4772292,9.64782256 L41.5232292,9.60582256 C41.5822292,9.54882256 41.6362292,9.47182256 41.6682292,9.40882256 C41.6912292,9.38982256 41.7072292,9.34482256 41.7092292,9.33082256 C41.6962292,9.38082256 41.6542292,9.61382256 41.6362292,9.83682256 C41.5962292,10.3038226 41.5962292,10.8468226 41.6052292,11.3778226 C41.6732292,13.5388226 41.9372292,15.7098226 42.2122292,17.7438226 C42.4762292,19.7858226 42.7502292,21.7198226 42.9172292,23.5178226 C43.2652292,27.1108226 43.4452292,30.1298226 43.5032292,32.2518226 C43.5702292,34.3728226 43.5132292,35.6008226 43.5132292,35.6008226 C43.4922292,36.1068226 43.0632292,36.4968226 42.5582292,36.4748226 C42.1692292,36.4558226 41.8452292,36.1928226 41.7302292,35.8428226" id="Fill-185" fill="#000000"></path>
            <path d="M22.6442292,40.1416226 C22.8732292,39.9896226 23.1112292,39.8446226 23.3532292,39.7126226 L23.9432292,39.4816226 C24.3412292,39.3156226 24.7112292,39.2216226 25.0932292,39.0986226 C25.8532292,38.8626226 26.6022292,38.6766226 27.3552292,38.4816226 C28.8612292,38.1126226 30.3592292,37.7436226 31.8622292,37.4146226 C34.8672292,36.7386226 37.8672292,36.0686226 40.8762292,35.4476226 C46.8912292,34.1906226 52.9102292,32.9696226 58.9642292,31.9486226 C61.9862292,31.4116226 65.0212292,30.9716226 68.0522292,30.4896226 C71.0822292,30.0006226 74.1232292,29.5926226 77.1622292,29.1666226 L86.2812292,27.9186226 C89.3262292,27.5246226 92.3552292,27.0516226 95.3942292,26.6266226 L94.5722292,27.6706226 C94.4962292,26.1976226 94.5832292,24.8136226 94.9142292,23.3686226 C95.0832292,22.6516226 95.3242292,21.9306226 95.7122292,21.2336226 L96.0372292,20.7196226 C96.1712292,20.5436226 96.3332292,20.3626226 96.4902292,20.1906226 C96.6562292,20.0006226 96.7572292,19.9526226 96.8942292,19.8256226 L96.9902292,19.7456226 L97.1052292,19.6516226 L97.2072292,19.5946226 C97.3412292,19.5216226 97.4842292,19.4506226 97.6232292,19.3936226 C98.6522292,19.1106226 99.3822292,19.2766226 100.117229,19.3946226 C100.841229,19.5356226 101.519229,19.7376226 102.181229,19.9606226 C103.505229,20.4096226 104.771229,20.9496226 106.009229,21.5356226 C108.494229,22.6966226 110.886229,24.0116226 113.179229,25.5476226 C114.322229,26.3286226 115.443229,27.1376226 116.499229,28.1556226 C116.765229,28.4166226 117.025229,28.6766226 117.277229,28.9966226 L117.464229,29.2336226 L117.671229,29.5496226 C117.832229,29.7906226 117.880229,29.9186226 117.957229,30.0716226 C118.228229,30.7726226 118.189229,31.2176226 118.181229,31.6146226 C118.169229,32.0266226 118.115229,32.3836226 118.064229,32.7506226 C117.832229,34.1806226 117.476229,35.5076226 117.087229,36.8286226 C116.695229,38.1436226 116.259229,39.4386226 115.794229,40.7216226 C114.859229,43.2846226 113.822229,45.8036226 112.621229,48.2786226 C112.013229,49.5156226 111.365229,50.7356226 110.597229,51.9326226 C110.201229,52.5326226 109.812229,53.1256226 109.306229,53.7136226 C109.060229,54.0086226 108.796229,54.3036226 108.458229,54.5946226 C108.283229,54.7416226 108.142229,54.8836226 107.896229,55.0286226 L107.556229,55.2346226 C107.435229,55.3056226 107.158229,55.4036226 106.951229,55.4526226 C106.740229,55.5106226 106.445229,55.5486226 106.421229,55.5376226 L106.296229,55.5396226 L106.234229,55.5396226 L106.203229,55.5396226 L106.187229,55.5416226 C106.062229,55.5306226 106.447229,55.5676226 105.902229,55.5146226 C105.585229,55.4326226 105.197229,55.3006226 105.019229,55.1776226 L104.687229,54.9866226 L104.423229,54.7926226 C104.242229,54.6646226 104.082229,54.5346226 103.941229,54.4036226 C103.349229,53.8836226 102.855229,53.3586226 102.390229,52.8196226 C101.458229,51.7396226 100.636229,50.6596226 99.8262292,49.4956226 L101.486229,50.0816226 L76.8352292,57.5996226 L64.5132292,61.3686226 L52.1732292,65.0986226 L45.9822292,66.9146226 L39.7492292,68.6176226 L36.6102292,69.4326226 C35.5162292,69.7006226 34.3452292,69.9656226 33.2552292,70.1766226 L32.4602292,70.2996226 L32.0622292,70.3606226 C31.7072292,70.4226226 31.4402292,70.3566226 31.1252292,70.3236226 C30.7962292,70.2836226 30.6092292,70.1766226 30.3692292,70.0846226 L30.0312292,69.9306226 L29.7712292,69.7626226 C29.6032292,69.6496226 29.4232292,69.5326226 29.2772292,69.4116226 L28.8842292,69.0476226 C27.9022292,68.0706226 27.2962292,67.0786226 26.7102292,66.0776226 C25.5862292,64.0696226 24.7622292,62.0136226 24.0312292,59.9306226 C23.3112292,57.8476226 22.6952292,55.7436226 22.2122292,53.6006226 C21.7292292,51.4596226 21.3512292,49.2916226 21.1692292,47.0716226 C21.0982292,45.9576226 21.0612292,44.8336226 21.1752292,43.6726226 C21.2432292,43.0906226 21.3392292,42.4996226 21.5462292,41.8966226 L21.7162292,41.4446226 C21.7732292,41.2936226 21.8962292,41.1026226 21.9922292,40.9406226 C22.2162292,40.5456226 22.3812292,40.4356226 22.5662292,40.2166226 L22.6442292,40.1416226 Z M23.9022292,41.4246226 C23.7422292,41.6156226 23.4892292,41.8626226 23.4932292,41.9656226 C23.4662292,42.0406226 23.4272292,42.0716226 23.3922292,42.1726226 L23.2892292,42.4776226 C23.1552292,42.8906226 23.0852292,43.3686226 23.0402292,43.8526226 C22.9602292,44.8296226 23.0212292,45.8596226 23.1442292,46.8816226 C23.3882292,48.9346226 23.8922292,50.9846226 24.5072292,52.9926226 C25.1172292,55.0016226 25.8492292,56.9796226 26.6792292,58.8986226 C27.5092292,60.8136226 28.4562292,62.6886226 29.5402292,64.3646226 C30.0722292,65.1876226 30.6752292,66.0006226 31.2532292,66.5006226 C32.1052292,67.0446226 31.1992292,66.8216226 32.7922292,66.6186226 C33.8012292,66.3876226 34.7122292,66.1196226 35.7062292,65.8856226 L38.7932292,65.0606226 L51.1712292,61.6186226 L63.5622292,58.1406226 C67.6892292,56.9636226 71.8262292,55.8156226 75.9372292,54.5866226 L100.621229,47.2466226 C101.255229,47.0556226 101.923229,47.3156226 102.281229,47.8326226 C102.996229,48.8816226 103.790229,49.9486226 104.607229,50.9056226 C105.015229,51.3886226 105.443229,51.8426226 105.855229,52.2116226 C105.962229,52.3116226 106.060229,52.3936226 106.154229,52.4576226 L106.294229,52.5676226 L106.398229,52.6256226 C106.498229,52.6976226 106.449229,52.6326226 106.445229,52.6686226 C105.910229,52.6186226 106.304229,52.6556226 106.189229,52.6436226 L106.207229,52.6446226 L106.238229,52.6436226 L106.300229,52.6436226 L106.425229,52.6426226 C106.576229,52.6546226 106.435229,52.6096226 106.382229,52.6186226 C106.332229,52.6076226 106.224229,52.6706226 106.248229,52.6576226 C106.277229,52.6356226 106.304229,52.6166226 106.335229,52.5986226 C106.386229,52.5846226 106.484229,52.4856226 106.568229,52.4186226 C106.740229,52.2766226 106.935229,52.0716226 107.117229,51.8546226 C107.494229,51.4266226 107.849229,50.8996226 108.197229,50.3816226 C108.886229,49.3236226 109.517229,48.1776226 110.126229,47.0206226 C111.332229,44.6946226 112.404229,42.2666226 113.371229,39.8086226 C113.851229,38.5786226 114.304229,37.3366226 114.710229,36.0886226 C115.113229,34.8446226 115.478229,33.5796226 115.708229,32.3626226 C115.755229,32.0666226 115.808229,31.7586226 115.820229,31.5006226 C115.861229,31.2296226 115.792229,30.9876226 115.837229,31.0576226 C115.769229,30.9086226 115.689229,30.7256226 115.648229,30.6946226 C115.624229,30.6616226 115.603229,30.6256226 115.582229,30.5886226 L115.460229,30.4286226 C115.304229,30.2136226 115.093229,29.9916226 114.884229,29.7766226 C114.031229,28.9066226 112.990229,28.1046226 111.933229,27.3466226 C109.802229,25.8386226 107.507229,24.4986226 105.154229,23.3296226 C103.970229,22.7586226 102.765229,22.2336226 101.550229,21.8116226 C100.943229,21.6006226 100.332229,21.4136226 99.7382292,21.2946226 C99.1642292,21.1666226 98.5212292,21.1276226 98.2462292,21.2096226 C98.2322292,21.2236226 98.2242292,21.2306226 98.2082292,21.2306226 L98.1972292,21.2296226 C98.3302292,21.1286226 98.2262292,21.2076226 98.2532292,21.1866226 L98.2402292,21.1976226 L98.2162292,21.2176226 L98.1212292,21.2976226 C98.0092292,21.3976226 97.8162292,21.5266226 97.7772292,21.6046226 C97.7162292,21.6886226 97.6502292,21.7566226 97.5782292,21.8426226 L97.3632292,22.1786226 C97.0932292,22.6556226 96.8942292,23.2136226 96.7492292,23.7996226 C96.4822292,24.9746226 96.4252292,26.3016226 96.5052292,27.5056226 L96.5052292,27.5126226 C96.5402292,28.0226226 96.1772292,28.4666226 95.6832292,28.5476226 C92.6602292,29.0376226 89.6262292,29.4956226 86.6112292,30.0396226 L77.5542292,31.6396226 C74.5372292,32.1766226 71.5212292,32.7366226 68.4992292,33.2346226 C65.4762292,33.7366226 62.4622292,34.2916226 59.4372292,34.7726226 C53.3942292,35.7806226 47.3282292,36.6536226 41.2862292,37.6416226 L36.7612292,38.4116226 C35.2552292,38.6806226 33.7482292,38.9326226 32.2532292,39.2466226 C30.7572292,39.5506226 29.2652292,39.8606226 27.7932292,40.2266226 C27.0642292,40.4156226 26.3222292,40.6006226 25.6192292,40.8196226 C25.2732292,40.9326226 24.8972292,41.0306226 24.5892292,41.1626226 L24.1072292,41.3476226 C24.0172292,41.4096226 23.9272292,41.4576226 23.8262292,41.4996226 L23.9022292,41.4246226 Z" id="Fill-187" fill="#000000"></path>
            <path d="M32.6804292,79.3984226 C36.0954292,79.2674226 39.5104292,79.1774226 42.9254292,79.0864226 L54.1074292,78.8904226 L65.2924292,78.8264226 C69.0214292,78.8144226 72.7494292,78.7954226 76.4784292,78.8654226 C80.2064292,78.9124226 83.9374292,78.9704226 87.6674292,79.1134226 C91.4004292,79.2414226 95.1284292,79.3854226 98.8684292,79.6064226 C99.8044292,79.6674226 100.738429,79.7214226 101.683429,79.8054226 C102.154429,79.8384226 102.622429,79.8744226 103.105429,79.9284226 C103.363429,79.9604226 103.548429,79.9654226 103.861429,80.0164226 C104.165429,80.0654226 104.486429,80.1244226 104.769429,80.1924226 L105.101429,80.2994226 L105.142429,80.3134226 C105.472429,80.4794226 105.279429,80.3954226 105.372429,80.4504226 L105.525429,80.5864226 C105.624429,80.6824226 105.718429,80.7844226 105.800429,80.8894226 C105.888429,81.0424226 105.972429,81.2004226 106.048429,81.3564226 C106.122429,81.5084226 106.150429,81.6314226 106.202429,81.7724226 C106.380429,82.3094226 106.464429,82.7944226 106.548429,83.2824226 C106.702429,84.2564226 106.788429,85.2064226 106.855429,86.1534226 C107.077429,89.9364226 107.115429,93.6724226 107.038429,97.4204226 C106.945429,101.169423 106.827429,104.903423 106.499429,108.669423 C106.408429,109.614423 106.314429,110.549423 106.138429,111.540423 C106.105429,111.760423 106.025429,112.094423 105.939429,112.403423 L105.880429,112.577423 L105.849429,112.657423 L105.835429,112.700423 C105.812429,112.754423 105.868429,112.633423 105.777429,112.833423 C105.706429,112.958423 105.613429,113.083423 105.505429,113.192423 C105.409429,113.290423 105.240429,113.419423 105.210429,113.420423 C105.095429,113.481423 104.974429,113.536423 104.853429,113.583423 C104.654429,113.651423 104.515429,113.676423 104.343429,113.717423 L103.929429,113.780423 C103.665429,113.809423 103.406429,113.835423 103.158429,113.848423 C101.185429,113.948423 99.3264292,113.858423 97.4414292,113.776423 C93.6894292,113.583423 89.9644292,113.282423 86.2434292,112.960423 C82.5194292,112.639423 78.8084292,112.270423 75.0994292,111.856423 C67.6814292,111.040423 60.2744292,110.167423 52.8724292,109.245423 L30.6774292,106.411423 L32.4874292,105.170423 C32.0684292,106.825423 31.5764292,108.307423 30.6244292,109.881423 C30.3724292,110.270423 30.0894292,110.661423 29.7304292,111.044423 L29.4334292,111.327423 C29.3374292,111.417423 29.2404292,111.510423 29.0654292,111.626423 C28.7634292,111.842423 28.3724292,112.059423 28.2654292,112.088423 L28.1364292,112.145423 L28.0724292,112.174423 L28.0384292,112.188423 C28.0794292,112.174423 27.6904292,112.313423 27.8134292,112.264423 L27.7304292,112.284423 C27.2384292,112.387423 26.9464292,112.325423 26.7124292,112.284423 C26.2454292,112.178423 26.0254292,112.053423 25.7614292,111.936423 C25.2944292,111.696423 24.9314292,111.454423 24.5814292,111.210423 C23.2164292,110.235423 22.0784292,109.202423 20.9354292,108.153423 C19.8024292,107.102423 18.7104292,106.026423 17.6404292,104.932423 C15.5084292,102.733423 13.4294292,100.501423 11.4664292,98.1434226 C10.4864292,96.9634226 9.52342922,95.7664226 8.59342922,94.5144226 C8.12842922,93.8894226 7.67242922,93.2474226 7.23042922,92.5674226 C7.00742922,92.2234226 6.78942922,91.8764226 6.57642922,91.4894226 C6.36542922,91.0924226 6.15242922,90.7154226 5.95442922,90.0944226 C5.90642922,89.9174226 5.85942922,89.7514226 5.82942922,89.4754226 C5.81642922,89.4204226 5.80242922,89.0674226 5.85742922,88.7944226 L5.90242922,88.5864226 L5.91942922,88.5244226 L5.94342922,88.4564226 C6.38642922,87.5164226 6.49442922,87.6004226 6.68342922,87.3444226 C7.03242922,86.9774226 7.33442922,86.7134226 7.64442922,86.4424226 C8.26042922,85.9174226 8.86842922,85.4324226 9.48242922,84.9614226 C10.7054292,84.0204226 11.9374292,83.1244226 13.1774292,82.2394226 C15.6654292,80.4834226 18.1504292,78.7484226 20.7224292,77.1264226 C22.0014292,76.3084226 23.2904292,75.5024226 24.5944292,74.7124226 C25.9084292,73.9274226 27.2044292,73.1494226 28.6264292,72.4314226 L29.1874292,72.1694226 L29.5004292,72.0404226 C29.6084292,72.0024226 29.6714292,71.9584226 29.9784292,71.8774226 C30.2214292,71.8144226 30.5464292,71.7904226 30.5704292,71.7984226 L30.6424292,71.7974226 C31.2574292,71.8994226 30.8494292,71.8394226 31.0034292,71.8694226 L31.0684292,71.8944226 L31.1954292,71.9534226 C31.3804292,72.0414226 31.4804292,72.1284226 31.5854292,72.2244226 C31.9674292,72.5994226 32.0664292,72.8874226 32.1764292,73.1424226 C32.5184292,74.1174226 32.5604292,74.8784226 32.6384292,75.6834226 C32.7324292,76.9474226 32.7244292,78.1694226 32.6804292,79.3984226 L32.6804292,79.3984226 Z M30.8524292,80.3194226 C30.7754292,78.8534226 30.6584292,77.3514226 30.4484292,75.9344226 C30.3394292,75.2484226 30.1854292,74.4964226 29.9784292,74.0634226 C29.9394292,73.9724226 29.8614292,73.9174226 29.9664292,74.0344226 C30.0014292,74.0664226 30.0344292,74.0884226 30.1264292,74.1454226 L30.1914292,74.1714226 L30.2234292,74.1834226 C30.3674292,74.2094226 29.9494292,74.1404226 30.5524292,74.2404226 L30.4824292,74.2484226 C30.3164292,74.2424226 30.4644292,74.2994226 30.5264292,74.2894226 C30.6504292,74.2594226 30.5424292,74.2974226 30.4784292,74.3354226 L30.2774292,74.4384226 L29.8294292,74.6924226 C28.5974292,75.4084226 27.3454292,76.2464226 26.1154292,77.0824226 C24.8804292,77.9214226 23.6564292,78.7874226 22.4394292,79.6614226 C20.0154292,81.4264226 17.5634292,83.1574226 15.1864292,84.9734226 C13.9974292,85.8764226 12.8164292,86.7924226 11.6764292,87.7254226 C11.1074292,88.1904226 10.5504292,88.6654226 10.0314292,89.1334226 C9.78042922,89.3644226 9.52542922,89.6104226 9.36042922,89.7954226 L9.25342922,89.9174226 C9.26942922,89.9074226 9.28142922,89.8914226 9.29042922,89.8744226 L9.30342922,89.8504226 L9.30842922,89.8334226 L9.30942922,89.8274226 C9.28742922,89.8764226 9.50942922,89.3444226 9.41342922,89.5794226 L9.39242922,89.6474226 C9.39442922,89.6454226 9.37442922,89.7004226 9.39442922,89.6514226 C9.41042922,89.6064226 9.42542922,89.5614226 9.43742922,89.5144226 C9.48942922,89.3354226 9.46342922,89.0774226 9.46842922,89.1164226 C9.45542922,89.0284226 9.45842922,89.0424226 9.45842922,89.0474226 C9.48942922,89.1474226 9.62542922,89.4444226 9.77742922,89.7064226 C9.92942922,89.9794226 10.1134292,90.2704226 10.3034292,90.5594226 C10.6864292,91.1414226 11.1074292,91.7294226 11.5464292,92.3094226 C12.4234292,93.4734226 13.3574292,94.6244226 14.3124292,95.7584226 C16.2324292,98.0204226 18.1934292,100.272423 20.2424292,102.426423 C21.2674292,103.502423 22.3044292,104.565423 23.3614292,105.586423 C24.4154292,106.598423 25.5094292,107.612423 26.5854292,108.413423 C26.8494292,108.608423 27.1174292,108.784423 27.3184292,108.893423 C27.3964292,108.932423 27.5154292,108.979423 27.4194292,108.950423 C27.3704292,108.950423 27.2694292,108.907423 26.9624292,108.969423 L26.9134292,108.985423 C27.0494292,108.934423 26.6714292,109.073423 26.7224292,109.053423 L26.7544292,109.040423 L26.8204292,109.012423 L26.9514292,108.958423 C27.2054292,108.866423 27.1154292,108.848423 27.1244292,108.854423 C27.1144292,108.872423 27.1544292,108.836423 27.1944292,108.797423 L27.3104292,108.694423 C27.4704292,108.528423 27.6404292,108.315423 27.8034292,108.073423 C28.4514292,107.083423 28.9764292,105.682423 29.3144292,104.424423 L29.3324292,104.356423 C29.5474292,103.559423 30.3264292,103.063423 31.1224292,103.184423 C38.4864292,104.280423 45.8784292,105.229423 53.2594292,106.208423 C60.6454292,107.169423 68.0314292,108.120423 75.4254292,108.993423 L86.5114292,110.280423 C90.2044292,110.690423 93.9044292,111.077423 97.5894292,111.354423 C99.4234292,111.481423 101.290429,111.608423 103.042429,111.559423 C103.261429,111.555423 103.466429,111.538423 103.665429,111.522423 L103.943429,111.489423 L104.109429,111.454423 C104.095429,111.456423 104.081429,111.461423 104.074429,111.475423 C104.105429,111.465423 103.964429,111.536423 103.913429,111.598423 C103.845429,111.665423 103.794429,111.751423 103.763429,111.833423 C103.689429,112.010423 103.751429,111.858423 103.740429,111.887423 L103.755429,111.846423 L103.784429,111.762423 C103.804429,111.715423 103.831429,111.649423 103.843429,111.608423 C103.868429,111.467423 103.911429,111.348423 103.956429,111.108423 C104.126429,110.270423 104.245429,109.352423 104.353429,108.444423 C104.759429,104.794423 104.986429,101.077423 105.083429,97.3744226 C105.167429,93.6724226 105.236429,89.9524226 104.941429,86.2954226 C104.865429,85.3874226 104.765429,84.4814226 104.617429,83.6144226 C104.538429,83.1884226 104.447429,82.7544226 104.326429,82.4094226 C104.294429,82.3334226 104.269429,82.2254226 104.238429,82.1704226 C104.206429,82.1224226 104.181429,82.0714226 104.159429,82.0204226 C104.161429,82.0404226 104.175429,82.0614226 104.191429,82.0714226 C104.202429,82.0774226 104.212429,82.0814226 104.224429,82.0814226 C104.294429,82.1204226 104.089429,82.0044226 104.388429,82.1654226 L104.347429,82.1494226 L104.013429,82.0454226 L102.906429,81.9424226 C102.462429,81.8994226 102.003429,81.8744226 101.544429,81.8464226 C100.630429,81.7974226 99.7024292,81.7764226 98.7774292,81.7524226 C95.0704292,81.6724226 91.3474292,81.6674226 87.6264292,81.6764226 L76.4584292,81.6904226 C72.7344292,81.7084226 69.0114292,81.6654226 65.2864292,81.6374226 L54.1114292,81.5734226 L42.9374292,81.4424226 C39.2104292,81.3764226 35.4844292,81.3274226 31.7594292,81.2274226 C31.2714292,81.2154226 30.8804292,80.8274226 30.8534292,80.3464226 L30.8524292,80.3194226 Z" id="Fill-189" fill="#000000"></path>
            <path d="M47.4938292,65.9082226 C47.3608292,64.9722226 46.0508292,65.1422226 46.0488292,66.0552226 C46.0308292,70.9132226 47.0838292,76.7732226 48.9898292,81.2682226 C49.2188292,81.8042226 49.9138292,81.5652226 49.9318292,81.0422226 C50.0868292,76.1052226 48.1948292,70.8142226 47.4938292,65.9082226" id="Fill-191" fill="#000000"></path>
            <path d="M81.4411292,59.4981226 C81.1601292,58.1881226 80.9921292,56.8311226 80.5291292,55.5681226 C80.4661292,55.3991226 80.2481292,55.4541226 80.2051292,55.6011226 C79.8671292,56.7511226 80.0271292,57.8731226 80.1701292,59.0481226 C80.3571292,60.5991226 80.5021292,62.1611226 80.7111292,63.7121226 C80.8001292,64.3681226 81.8901292,64.4621226 81.9331292,63.7491226 C82.0231292,62.3001226 81.7441292,60.9101226 81.4411292,59.4981226" id="Fill-193" fill="#000000"></path>
            <path d="M82.9645292,70.2119226 C82.8535292,69.8349226 82.2125292,69.8969226 82.1815292,70.2899226 C81.9415292,73.3989226 82.7925292,76.6079226 82.9955292,79.7139226 C83.0875292,81.1009226 85.3595292,80.8659226 85.1555292,79.4929226 C84.7005292,76.3999226 83.8535292,73.2059226 82.9645292,70.2119226" id="Fill-195" fill="#000000"></path>
        </g>
    </g>
</svg>