<?xml version="1.0" encoding="UTF-8"?>
<svg width="141px" height="155px" viewBox="0 0 141 155" version="1.1" xmlns="http://www.w3.org/2000/svg" xmlns:xlink="http://www.w3.org/1999/xlink">
    <!-- Generator: Sketch 53.1 (72631) - https://sketchapp.com -->
    <title>Group 81sticker18</title>
    <desc>Created with Sketch.</desc>
    <g id="Page-1" stroke="none" stroke-width="1" fill="none" fill-rule="evenodd">
        <g id="Group-81" transform="translate(0.098065, 0.502700)">
            <path d="M53.3882355,107.02 C53.1912355,107.755 53.0122355,108.519 52.8322355,109.294 L52.7222355,109.767 C52.5942355,110.316 52.4172355,110.909 52.2262355,111.518 C50.6612355,110.929 49.0642355,110.398 47.4522355,109.925 C47.3862355,109.903 47.3172355,109.886 47.2492355,109.87 L46.5072355,109.684 C45.3272355,109.386 44.1072355,109.077 42.8332355,108.871 C42.6282355,108.834 42.4292355,108.796 42.2322355,108.759 C41.7402355,108.666 41.2502355,108.574 40.6932355,108.492 C40.6482355,108.488 38.1562355,108.187 38.1562355,108.187 C37.8572355,108.147 37.5612355,108.114 37.2592355,108.089 C37.2202355,108.086 36.1162355,108.024 36.1162355,108.024 C35.3862355,107.984 34.6582355,107.945 33.9272355,107.921 C33.8692355,107.919 33.8122355,107.917 33.7562355,107.917 C33.7322355,107.917 30.5802355,107.963 30.5802355,107.963 C30.4952355,107.965 30.4092355,107.968 30.3272355,107.974 L27.2322355,108.176 C27.1572355,108.183 27.0802355,108.189 27.0042355,108.197 L24.9922355,108.42 C24.1282355,108.507 23.3032355,108.632 22.6622355,108.736 C22.4502355,108.77 22.2362355,108.801 22.0232355,108.834 C21.9362355,108.847 21.8482355,108.864 21.7612355,108.876 C22.2812355,107.583 22.3692355,106.109 21.9062355,104.675 C21.8982355,104.652 21.8922355,104.63 21.8842355,104.608 C21.7012355,104.054 21.1892355,102.515 20.3742355,100.22 C20.3742355,100.22 18.5572355,95.095 18.5152355,94.978 C18.7322355,94.966 18.9552355,94.946 19.1842355,94.917 C21.2072355,94.659 22.7572355,93.857 23.7732355,93.261 C24.3182355,92.939 24.8272355,92.591 25.3282355,92.205 C25.8352355,91.824 26.1752355,91.543 26.6752355,91.093 C26.7282355,91.043 26.7812355,90.996 26.8332355,90.948 C27.2102355,91.759 27.4962355,92.601 27.6992355,93.241 C28.0472355,94.337 28.2782355,95.253 28.4452355,95.968 L28.6252355,96.761 L28.6832355,97.036 C29.2682355,99.867 31.7922355,101.923 34.6862355,101.923 C34.7322355,101.923 34.8042355,101.923 34.8532355,101.921 C35.8132355,101.896 36.7162355,101.641 37.5172355,101.22 C38.0032355,101.74 38.5192355,102.236 39.1012355,102.714 C40.7172355,104.026 42.5942355,104.975 44.4822355,105.455 C45.7402355,105.787 47.0612355,105.957 48.4062355,105.957 C48.9842355,105.957 49.5702355,105.925 50.2032355,105.858 C51.4862355,105.708 52.7532355,105.423 54.0202355,105.019 C53.8152355,105.623 53.6102355,106.254 53.4152355,106.922 C53.4062355,106.956 53.3972355,106.987 53.3882355,107.02 M17.1712355,76.363 L17.1692355,76.365 C16.9292355,76.486 16.6842355,76.614 16.4702355,76.736 C16.3982355,76.777 16.3292355,76.82 16.2592355,76.863 C16.2592355,76.863 15.6672355,77.239 15.5772355,77.294 C16.1302355,76.804 16.6862355,76.472 17.1712355,76.363 M140.422235,61.384 C140.041235,59.558 139.575235,57.884 139.170235,56.491 C138.768235,55.097 138.290235,53.611 137.651235,51.781 C137.000235,49.957 136.463235,48.553 135.916235,47.242 C135.617235,46.493 135.285235,45.719 134.928235,44.943 C134.619235,44.245 134.282235,43.519 133.895235,42.728 C133.541235,41.976 133.166235,41.222 132.805235,40.539 C132.469235,39.883 132.075235,39.116 131.631235,38.333 C130.922235,37.027 130.136235,35.682 129.155235,34.106 C129.133235,34.07 127.809235,32.056 127.809235,32.056 C127.776235,32.006 127.742235,31.957 127.709235,31.908 L126.364235,30.009 C126.338235,29.975 126.133235,29.699 126.133235,29.699 C125.237235,28.498 124.307235,27.254 123.262235,26.031 C122.147235,24.656 120.938235,23.367 119.959235,22.326 C119.916235,22.281 119.873235,22.236 119.830235,22.193 L119.446235,21.812 C118.442235,20.819 117.405235,19.791 116.254235,18.794 C115.719235,18.308 115.018235,17.685 114.274235,17.106 C114.074235,16.947 113.873235,16.785 113.674235,16.623 C113.239235,16.266 112.797235,15.912 112.348235,15.573 C112.325235,15.556 111.787235,15.164 111.787235,15.164 C110.666235,14.346 109.508235,13.502 108.223235,12.711 C107.149235,11.988 106.094235,11.4 105.071235,10.828 C104.709235,10.628 104.353235,10.429 103.994235,10.222 C103.901235,10.169 103.807235,10.119 103.711235,10.071 L100.575235,8.525 C100.487235,8.482 100.397235,8.443 100.307235,8.406 L98.5042355,7.646 C98.0002355,7.431 97.4942355,7.218 96.9872355,7.017 C96.9782355,7.014 96.9672355,7.009 96.9552355,7.005 C96.9822355,6.244 96.9362355,5.675 96.9202355,5.511 C96.7642355,3.872 95.9362355,2.345 94.6492355,1.323 C93.5762355,0.47 92.2322355,2.84217094e-14 90.8642355,2.84217094e-14 C88.9942355,2.84217094e-14 87.2582355,0.841 86.0962355,2.304 C85.9962355,2.428 85.6432355,2.884 85.2522355,3.533 C85.2152355,3.591 85.1772355,3.658 85.1312355,3.732 C84.8212355,3.677 84.5112355,3.623 84.2012355,3.572 C82.5782355,3.318 80.6822355,3.033 78.7952355,2.87 C77.9192355,2.785 77.0082355,2.695 76.0572355,2.64 C75.0162355,2.562 74.1272355,2.517 73.2782355,2.501 C72.5692355,2.474 71.8582355,2.453 71.1472355,2.453 C70.9092355,2.453 70.6702355,2.455 70.4732355,2.459 L69.7992355,2.464 C69.1392355,2.468 68.3912355,2.472 67.6512355,2.525 C67.3752355,2.541 67.0982355,2.552 66.8212355,2.564 C66.2282355,2.591 65.5582355,2.62 64.8742355,2.689 L62.2842355,2.94 C62.2012355,2.948 62.1172355,2.958 62.0342355,2.97 L59.4702355,3.347 C58.6932355,3.458 57.9602355,3.613 57.3152355,3.75 C57.0862355,3.8 56.8572355,3.847 56.6972355,3.881 C55.6282355,4.081 54.6282355,4.359 53.7202355,4.611 L53.1862355,4.757 C52.4732355,4.949 51.6692355,5.166 50.8142355,5.492 C50.5632355,5.58 50.3112355,5.667 50.0582355,5.757 C49.4502355,5.965 48.8452355,6.177 48.2492355,6.411 C48.1972355,6.431 48.1472355,6.452 48.0952355,6.472 L45.4882355,7.595 C45.2452355,7.699 45.0052355,7.804 44.7192355,7.957 L42.9622355,8.867 C42.7522355,8.978 42.5442355,9.084 42.3362355,9.191 C41.7732355,9.478 41.1402355,9.802 40.4602355,10.22 L38.2552355,11.519 C37.6322355,11.88 37.0702355,12.255 36.5742355,12.585 C36.3452355,12.739 36.1142355,12.891 35.9252355,13.013 C34.6362355,13.818 33.4762355,14.676 32.3512355,15.507 C32.0312355,15.742 31.7102355,15.978 31.3902355,16.211 C31.3242355,16.26 31.2592355,16.31 31.1992355,16.36 C30.8642355,16.626 30.5292355,16.892 30.1932355,17.158 C29.1592355,17.976 28.0912355,18.823 27.0362355,19.758 C25.6872355,20.894 24.4322355,22.07 23.2152355,23.209 L23.0422355,23.373 C23.0112355,23.402 21.1052355,25.275 21.1052355,25.275 C21.0742355,25.306 19.1632355,27.288 19.1632355,27.288 C17.8902355,28.646 16.6732355,30.009 15.5322355,31.354 C14.5822355,32.482 13.3332355,33.998 12.0582355,35.752 C11.4702355,36.568 11.0812355,37.521 10.9332355,38.499 C10.6732355,40.175 11.0822355,41.855 12.0872355,43.223 C13.0912355,44.59 14.5682355,45.487 16.1792355,45.734 C16.2002355,45.738 16.2302355,45.744 16.2512355,45.746 C16.8612355,45.839 17.5092355,45.957 18.1382355,46.079 C18.7902355,46.206 19.4442355,46.341 20.1052355,46.489 C21.3582355,46.764 22.6572355,47.091 23.9722355,47.462 C26.6542355,48.216 29.1512355,49.085 31.3782355,50.038 C32.0802355,50.341 32.6072355,50.58 33.1372355,50.839 C33.5912355,51.055 34.0832355,51.308 34.7282355,51.657 L35.0002355,51.813 C35.4392355,52.061 35.8532355,52.294 36.1862355,52.515 C36.2342355,52.548 36.2852355,52.58 36.3372355,52.611 C36.7052355,52.837 37.1152355,53.13 37.5482355,53.44 L37.6652355,53.525 C38.0972355,53.863 38.5032355,54.183 38.8162355,54.476 C38.8842355,54.541 38.9442355,54.592 39.0152355,54.652 C39.1012355,54.728 39.1742355,54.812 39.2552355,54.892 C39.2552355,54.892 39.4392355,55.081 39.4602355,55.101 C39.6202355,55.259 39.6912355,55.341 39.7202355,55.374 C39.7792355,55.451 39.8422355,55.524 39.9052355,55.597 C40.0942355,55.807 40.2902355,56.078 40.5442355,56.46 C40.5962355,56.55 40.7752355,56.848 40.8072355,56.91 C40.8072355,56.91 41.1752355,57.716 41.1772355,57.72 C42.1912355,59.945 44.4272355,61.38 46.8702355,61.38 C47.0312355,61.38 47.1932355,61.374 47.3532355,61.363 C48.2012355,61.296 49.1672355,61.255 50.4992355,61.23 C50.8942355,61.222 51.2872355,61.22 51.6822355,61.22 C52.3822355,61.22 53.0812355,61.23 53.7422355,61.24 C55.9452355,61.294 58.1532355,61.429 60.3172355,61.638 C61.2532355,61.729 62.2632355,61.845 63.5402355,62.013 C64.7862355,62.189 65.8132355,62.351 66.7422355,62.521 C66.7422355,62.521 67.0222355,62.572 67.0492355,62.577 C67.0242355,62.757 67.0042355,62.917 66.9892355,63.064 C66.2172355,63.521 65.6332355,64.041 65.3312355,64.34 L65.3262355,64.337 C63.9392355,65.746 63.2342355,67.115 62.7192355,68.115 C62.7192355,68.115 62.5252355,68.489 62.5042355,68.531 C61.3732355,70.847 60.6462355,73.056 60.0792355,74.927 C59.7122355,76.16 59.3922355,77.388 59.1192355,78.61 C58.4892355,77.268 57.5742355,76.067 56.4362355,75.115 C56.3902355,75.08 56.3462355,75.043 56.3022355,75.007 C55.8242355,74.635 55.3632355,74.335 55.0152355,74.113 C54.9192355,74.052 54.8242355,73.996 54.7242355,73.941 C54.1862355,73.648 53.6972355,73.456 53.3402355,73.314 L53.1732355,73.249 C52.4652355,72.971 51.8442355,72.859 51.4742355,72.794 C51.4742355,72.794 50.8352355,72.682 50.8252355,72.68 C50.7172355,72.664 50.6112355,72.65 50.5012355,72.64 L50.5012355,72.642 C50.4132355,72.631 50.3252355,72.623 50.2352355,72.617 C50.1672355,72.611 50.1012355,72.607 50.0342355,72.605 L49.6262355,72.589 C49.5992355,72.589 49.2752355,72.586 49.2752355,72.586 C45.9082355,72.586 42.7342355,73.76 39.8072355,76.103 C38.5472355,77.126 37.4252355,78.328 36.4702355,79.663 C36.2032355,79.628 35.9322355,79.609 35.6562355,79.609 C35.4872355,79.609 35.3202355,79.619 35.1532355,79.632 L34.7622355,79.225 C34.7082355,79.173 34.6562355,79.118 34.5992355,79.066 C34.0342355,78.529 33.4452355,78.039 32.8322355,77.59 C32.8052355,74.635 32.0252355,71.833 30.5762355,69.483 C30.5092355,69.373 30.4362355,69.265 30.3592355,69.16 C30.3112355,69.093 30.2662355,69.023 30.2212355,68.953 C29.9722355,68.573 29.6002355,68.007 29.0352355,67.425 L28.5412355,66.89 C28.1512355,66.474 27.7672355,66.174 27.5152355,65.975 L26.9242355,65.515 C26.7282355,65.366 26.4212355,65.132 26.0172355,64.91 L25.4232355,64.564 C25.4232355,64.564 25.1552355,64.412 25.0862355,64.376 C25.0002355,64.332 24.8962355,64.278 24.7692355,64.218 C24.7152355,64.193 24.2162355,63.978 24.2162355,63.978 L23.5482355,63.701 C23.4752355,63.669 23.4002355,63.641 23.3262355,63.615 C21.4692355,62.944 19.5572355,62.603 17.6442355,62.603 C16.7452355,62.603 15.8532355,62.679 14.9902355,62.834 C12.3472355,63.271 9.79223549,64.374 7.62823549,66.002 C5.82223549,67.342 4.24223549,68.978 2.79623549,71.01 C2.77123549,71.044 1.97423549,72.23 1.97423549,72.23 C1.90023549,72.345 1.82923549,72.462 1.76223549,72.583 C1.75923549,72.589 1.66123549,72.772 1.66123549,72.772 L1.36623549,73.348 C1.06123549,73.921 0.897235486,74.423 0.807235486,74.699 L0.775235486,74.794 C0.222235486,76.418 0.109235486,77.848 0.0342354856,78.792 C0.0292354856,78.853 0.0262354856,78.915 0.0232354856,78.974 C-0.0777645144,81.304 0.169235486,83.298 0.403235486,84.816 C0.869235486,87.719 1.64923549,90.667 2.79823549,93.847 C3.65923549,96.194 4.63423549,98.5 5.68623549,100.681 C6.50123549,102.394 7.36123549,104.046 8.31723549,105.726 C8.94523549,106.836 9.57523549,107.88 10.2442355,108.916 C10.2612355,108.943 10.9822355,110.017 10.9822355,110.017 C11.2632355,110.435 11.5942355,110.81 11.9542355,111.138 C8.73923549,112.109 6.14323549,113.041 3.74423549,114.091 C3.72023549,114.099 3.52023549,114.193 3.46023549,114.222 C2.08823549,114.901 1.06223549,116.074 0.574235486,117.526 C0.0832354856,118.978 0.189235486,120.535 0.870235486,121.908 C2.58523549,125.369 4.85723549,128.054 6.85023549,130.228 C6.88023549,130.259 6.90923549,130.292 6.94123549,130.322 C7.09223549,130.478 7.23923549,130.641 7.38823549,130.802 C7.75523549,131.199 8.17123549,131.647 8.70023549,132.135 L11.1402355,134.351 C11.2242355,134.427 11.3112355,134.499 11.3992355,134.568 L12.2732355,135.259 C12.2732355,135.259 14.0812355,136.678 14.1232355,136.709 C17.1502355,138.938 19.5992355,140.517 22.0522355,141.824 L23.9112355,142.867 C24.0152355,142.925 24.1202355,142.98 24.2292355,143.033 L26.2212355,143.974 L28.2022355,144.9 C28.2232355,144.91 28.5862355,145.076 28.7422355,145.15 C29.2922355,145.408 29.9122355,145.699 30.6402355,145.952 C31.2992355,146.198 31.9582355,146.453 32.6172355,146.707 C34.7242355,147.521 36.9002355,148.362 39.2662355,148.969 L39.4822355,149.032 C40.8122355,149.408 42.1892355,149.801 43.6032355,150.141 C43.6912355,150.16 43.7782355,150.18 43.8642355,150.197 L48.1612355,150.994 C48.1612355,150.994 51.4702355,151.594 51.5212355,151.602 C51.8072355,151.643 52.0962355,151.676 52.3862355,151.711 L53.0322355,151.789 C54.3312355,151.951 55.6302355,152.115 56.9362355,152.307 L59.0252355,152.609 L60.0972355,152.775 C60.1932355,152.793 60.2862355,152.805 60.3802355,152.814 L61.4652355,152.922 L65.7842355,153.34 C66.4322355,153.396 67.0652355,153.465 67.7012355,153.533 C68.4892355,153.617 69.2802355,153.703 70.1102355,153.771 C70.1782355,153.777 70.2482355,153.781 70.3212355,153.785 L74.6552355,153.963 L76.8282355,154.061 C76.8642355,154.061 77.2092355,154.066 77.3482355,154.066 C77.7782355,154.066 78.2052355,154.051 78.6362355,154.037 C78.8622355,154.029 79.0882355,154.021 79.3792355,154.014 L83.7332355,153.881 C83.7912355,153.879 83.8502355,153.877 83.9092355,153.871 C84.9552355,153.801 85.9632355,153.695 86.9382355,153.59 C87.4242355,153.535 87.9102355,153.484 88.4362355,153.434 L90.6082355,153.209 C90.6772355,153.201 90.7442355,153.193 90.8152355,153.184 C91.3282355,153.107 91.8422355,153.018 92.3572355,152.928 C92.3572355,152.928 93.1212355,152.797 93.1472355,152.793 C93.6272355,152.705 94.1122355,152.627 94.5922355,152.545 C95.5692355,152.383 96.5762355,152.213 97.6212355,151.982 C97.6662355,151.975 97.7072355,151.965 97.7502355,151.951 C99.1602355,151.605 100.617235,151.246 102.086235,150.84 C103.405235,150.494 104.636235,150.037 105.721235,149.635 C106.011235,149.527 106.303235,149.417 106.594235,149.312 C107.992235,148.83 109.280235,148.222 110.415235,147.681 L111.047235,147.383 L113.022235,146.464 C113.088235,146.433 113.157235,146.4 113.223235,146.365 L113.840235,146.043 C114.244235,145.829 114.649235,145.614 115.059235,145.414 C115.088235,145.398 115.116235,145.384 115.145235,145.37 C115.636235,145.115 116.133235,144.874 116.629235,144.636 C116.629235,144.636 117.022235,144.445 117.045235,144.435 C117.478235,144.215 117.903235,143.988 118.328235,143.761 L120.967235,142.371 C121.024235,142.339 121.080235,142.31 121.139235,142.277 L122.961235,141.225 C124.215235,140.542 125.377235,139.814 126.500235,139.109 C126.500235,139.109 126.959235,138.824 126.985235,138.806 C129.340235,137.269 132.075235,135.432 134.713235,133.051 C135.075235,132.72 135.395235,132.35 135.660235,131.96 C136.614235,130.566 136.965235,128.886 136.655235,127.227 C136.344235,125.57 135.407235,124.132 133.971235,123.15 C131.082235,121.175 128.225235,119.808 125.785235,118.724 C123.094235,117.544 120.262235,116.523 117.353235,115.677 C114.136235,114.759 111.371235,114.141 108.665235,113.732 L107.692235,113.561 C107.625235,113.55 107.561235,113.539 107.494235,113.532 L104.469235,113.124 C104.391235,113.115 104.313235,113.107 104.233235,113.1 L101.780235,112.887 C101.485235,112.86 101.192235,112.835 100.897235,112.818 C100.857235,112.818 99.7762355,112.787 99.7762355,112.787 C99.3242355,112.764 98.8712355,112.755 98.4162355,112.755 C97.4122355,112.755 96.4492355,112.802 95.5162355,112.845 L95.1172355,112.865 C95.0282355,112.869 94.9422355,112.876 94.8532355,112.884 C93.4422355,113.025 91.7682355,113.223 90.1072355,113.595 C87.2012355,114.21 84.1822355,115.224 81.1692355,116.593 C80.6032355,116.843 80.0442355,117.098 79.4892355,117.351 C77.6922355,118.168 75.9982355,118.943 74.3892355,119.431 C74.3602355,119.441 74.3282355,119.45 74.2992355,119.462 C74.1592355,119.506 73.9302355,119.554 73.6662355,119.611 C73.4982355,119.646 73.3262355,119.685 73.1552355,119.723 L72.2132355,119.83 L71.3642355,119.83 C71.1692355,119.796 70.9712355,119.769 70.7782355,119.749 C70.7502355,119.744 70.7252355,119.742 70.7002355,119.74 C70.5492355,119.728 70.1492355,119.624 69.8572355,119.55 L69.6392355,119.496 C67.8442355,119.011 65.9162355,118.031 63.8782355,116.992 L63.8142355,116.958 C63.9292355,116.531 64.0442355,116.105 64.1652355,115.685 C64.4032355,114.876 64.6242355,114.112 64.8732355,113.445 L65.0422355,112.996 C65.3242355,112.25 65.5982355,111.518 65.8422355,110.796 C65.8532355,110.765 65.8642355,110.734 65.8732355,110.701 C66.3362355,109.227 66.6702355,107.863 66.9652355,106.66 L67.1772355,105.804 C67.2502355,105.486 67.3212355,105.181 67.3872355,104.885 C68.3382355,105.132 69.3092355,105.257 70.2852355,105.257 C71.2212355,105.257 72.1432355,105.15 73.1902355,104.919 C73.2212355,104.913 73.2542355,104.906 73.2852355,104.898 C73.6162355,104.819 73.9322355,104.729 74.2322355,104.637 C75.9382355,106.14 78.0572355,107.146 80.6862355,107.703 C81.7702355,107.919 82.8912355,108.031 84.0162355,108.031 C85.2952355,108.031 86.6002355,107.888 87.8662355,107.615 C89.2662355,107.319 90.6452355,106.845 91.9502355,106.218 C92.0742355,106.275 92.2012355,106.33 92.3282355,106.384 C93.3262355,106.814 94.4382355,107.123 95.7902355,107.345 C97.0372355,107.565 98.1142355,107.603 99.0692355,107.609 C101.125235,107.601 103.174235,107.26 105.151235,106.611 C106.938235,106.023 108.647235,105.195 110.268235,104.132 C110.282235,104.147 110.299235,104.16 110.315235,104.171 C111.582235,105.249 112.934235,106.048 114.211235,106.772 C114.282235,106.814 114.354235,106.853 114.427235,106.888 L114.867235,107.115 C115.877235,107.625 116.919235,108.156 118.041235,108.62 C118.201235,108.689 118.360235,108.759 118.512235,108.839 C118.594235,108.878 118.672235,108.916 118.754235,108.954 C118.924235,109.029 119.094235,109.097 119.264235,109.166 C119.326235,109.193 119.389235,109.216 119.409235,109.224 C120.011235,109.515 120.649235,109.78 121.412235,110.055 C122.264235,110.392 123.045235,110.571 123.766235,110.71 C124.729235,110.921 125.576235,110.949 126.217235,110.951 C126.366235,110.955 126.514235,110.958 126.660235,110.958 C127.672235,110.958 128.545235,110.826 129.182235,110.732 C129.334235,110.708 129.483235,110.683 129.625235,110.667 C129.854235,110.636 130.078235,110.591 130.302235,110.533 L130.563235,110.462 C131.340235,110.253 132.075235,110.058 132.813235,109.761 C132.848235,109.749 132.886235,109.732 132.919235,109.715 C134.192235,109.175 134.944235,108.736 135.174235,108.593 C136.951235,107.494 138.045235,105.595 138.100235,103.512 C138.141235,101.869 137.541235,100.306 136.409235,99.115 C135.274235,97.921 133.746235,97.242 132.110235,97.201 L131.772235,97.195 C131.434235,97.195 130.739235,97.21 129.809235,97.313 C129.674235,97.323 129.532235,97.329 129.377235,97.335 C129.044235,97.353 128.678235,97.372 128.295235,97.405 L127.449235,97.417 C127.332235,97.419 127.241235,97.421 127.125235,97.431 C127.012235,97.431 126.893235,97.425 126.774235,97.421 L126.549235,97.412 C126.512235,97.412 126.137235,97.408 126.137235,97.408 C125.909235,97.405 125.677235,97.406 125.436235,97.392 C125.369235,97.388 125.302235,97.385 125.237235,97.384 L124.982235,97.38 C124.982235,97.38 124.228235,97.388 124.199235,97.387 C124.112235,97.378 124.028235,97.374 123.942235,97.372 C123.942235,97.372 123.440235,97.357 123.409235,97.355 C123.303235,97.333 123.213235,97.316 123.110235,97.3 C123.061235,97.292 123.012235,97.282 122.965235,97.271 C122.895235,97.246 122.821235,97.217 122.741235,97.185 C122.496235,97.089 122.076235,96.867 121.442235,96.362 C120.819235,95.798 120.184235,95.164 119.559235,94.473 C119.555235,94.471 119.553235,94.468 119.552235,94.466 C120.487235,93.089 121.328235,91.656 122.065235,90.19 C122.674235,88.974 123.199235,87.744 123.623235,86.531 C123.770235,86.113 123.875235,85.771 123.950235,85.521 C123.955235,85.504 124.044235,85.195 124.044235,85.195 C124.044235,85.195 124.116235,84.955 124.136235,84.878 C124.201235,84.617 124.250235,84.353 124.285235,84.087 C124.348235,83.578 124.332235,83.33 124.332235,83.33 C124.332235,79.949 121.584235,77.199 118.203235,77.199 C115.713235,77.199 113.563235,78.693 112.604235,80.833 L112.276235,81.445 C112.149235,81.669 112.006235,81.927 111.836235,82.214 C111.580235,81.829 111.319235,81.443 111.049235,81.065 C110.756235,80.652 110.451235,80.251 110.119235,79.843 C110.092235,79.806 109.700235,79.349 109.700235,79.349 C108.596235,78.079 107.002235,77.3 105.321235,77.216 C105.237235,77.211 105.094235,77.208 105.012235,77.208 C102.287235,77.208 99.9592355,78.964 99.1312355,81.427 C98.6102355,80.943 97.5282355,80.065 95.8242355,79.595 C95.2192355,79.436 94.5882355,79.355 93.9512355,79.355 C93.3862355,79.355 92.8262355,79.418 92.3382355,79.535 C91.9442355,79.623 91.5572355,79.745 91.1822355,79.898 C89.9732355,79.054 88.5302355,78.468 87.0202355,78.201 C86.3242355,78.072 85.5862355,78.007 84.8342355,78.007 C84.1002355,78.007 83.3252355,78.07 82.5022355,78.198 C82.5022355,78.198 82.1252355,78.259 82.1122355,78.261 C81.9552355,78.289 81.8032355,78.322 81.6512355,78.363 C81.6512355,78.363 81.3262355,78.435 81.2762355,78.449 C80.7172355,78.594 79.9822355,78.867 79.4302355,79.136 C78.4362355,79.597 77.6602355,80.144 77.0302355,80.619 C76.9792355,80.657 76.9282355,80.697 76.8772355,80.736 C75.3532355,81.978 74.0452355,83.488 72.9652355,85.253 C73.0882355,84.988 73.2112355,84.716 73.3342355,84.436 C74.1922355,82.509 75.0162355,80.386 75.8692355,77.909 C76.2682355,76.721 76.6032355,75.599 76.9102355,74.433 C77.2282355,73.177 77.5322355,71.787 77.6142355,70.075 C77.6332355,69.564 77.6072355,69.093 77.5572355,68.626 C77.9572355,68.236 78.3112355,67.791 78.5982355,67.294 C78.6532355,67.203 78.9302355,66.714 79.2612355,66.005 C79.2682355,65.988 79.2762355,65.97 79.2842355,65.953 C80.2252355,66.332 81.1432355,66.707 82.0062355,67.121 C82.0552355,67.144 82.1072355,67.166 82.1552355,67.188 C82.5352355,67.357 82.9342355,67.55 83.3752355,67.785 C83.5802355,67.892 83.7912355,67.999 84.0002355,68.104 C84.2422355,68.226 84.4852355,68.346 84.7412355,68.496 L86.2252355,69.348 C86.4652355,69.486 86.6962355,69.64 86.9272355,69.792 C87.1252355,69.92 88.0782355,70.536 88.0782355,70.536 L88.6192355,70.926 C88.8052355,71.062 88.9922355,71.2 89.1802355,71.335 C89.4092355,71.498 89.6372355,71.659 89.8212355,71.806 L90.1272355,72.053 C90.8502355,72.642 91.5342355,73.197 92.1032355,73.749 C92.1692355,73.812 92.2372355,73.876 92.3072355,73.937 C92.7212355,74.296 93.1692355,74.772 93.6452355,75.275 C93.9032355,75.552 94.1662355,75.83 94.4242355,76.091 C94.4442355,76.113 94.4632355,76.132 94.4832355,76.155 C94.8662355,76.539 95.3022355,76.869 95.7742355,77.138 C96.6592355,77.637 97.6662355,77.902 98.6822355,77.902 C100.815235,77.902 102.790235,76.748 103.832235,74.896 C104.053235,74.507 104.391235,74.007 104.776235,73.501 C105.192235,72.96 105.617235,72.457 106.022235,72.023 C106.559235,71.455 107.000235,71.025 107.434235,70.649 C107.982235,70.171 108.473235,69.781 108.938235,69.453 C108.959235,69.439 108.979235,69.423 109.000235,69.41 C109.516235,69.034 110.052235,68.687 110.592235,68.378 C110.637235,68.353 110.680235,68.328 110.725235,68.301 C110.934235,68.173 111.205235,68.033 111.442235,67.914 C111.485235,67.892 111.526235,67.871 111.567235,67.847 C111.791235,67.726 112.024235,67.616 112.254235,67.517 C112.311235,67.493 112.364235,67.468 112.420235,67.443 C112.969235,67.183 113.590235,66.957 114.137235,66.767 L115.103235,66.464 L116.047235,66.224 L116.326235,66.166 C116.877235,66.051 117.395235,65.945 117.795235,65.908 C117.886235,65.9 117.973235,65.888 118.063235,65.876 C118.557235,65.803 119.153235,65.771 119.782235,65.736 L119.953235,65.727 C119.953235,65.727 120.735235,65.717 120.989235,65.717 C121.295235,65.717 121.604235,65.721 121.930235,65.744 L123.096235,65.818 C123.274235,65.832 123.450235,65.855 123.627235,65.878 C123.799235,65.902 124.194235,65.949 124.217235,65.95 C124.672235,65.994 125.211235,66.093 125.782235,66.2 L126.319235,66.298 C126.665235,66.355 127.094235,66.464 127.549235,66.582 C127.799235,66.646 128.049235,66.708 128.302235,66.769 C128.732235,66.89 129.160235,67.025 129.590235,67.158 C129.844235,67.236 130.096235,67.314 130.348235,67.392 L132.576235,68.201 C133.229235,68.435 133.907235,68.553 134.596235,68.553 C135.004235,68.553 135.415235,68.511 135.815235,68.427 C137.373235,68.103 138.705235,67.189 139.576235,65.859 C140.450235,64.527 140.746235,62.937 140.422235,61.384" id="Fill-49" fill="#FFFFFF"></path>
            <path d="M6.01133549,119.3608 C6.01133549,119.3608 23.3653355,112.1298 39.9943355,114.6608 C56.6243355,117.1918 63.8553355,126.2298 72.5323355,125.8668 C81.2093355,125.5058 87.3543355,118.2768 103.623335,119.7228 C119.893335,121.1698 130.375335,128.3998 130.375335,128.3998 C130.375335,128.3998 108.321335,150.0918 70.3623355,147.5578 C18.1383355,144.0778 6.01133549,119.3608 6.01133549,119.3608" id="Fill-51" fill="#B7873E"></path>
            <path d="M98.4400355,70.5542 C107.600035,26.9332 90.7330355,11.9862 90.7330355,11.9862 L91.0140355,11.0622 C126.110035,21.7782 134.592035,62.6012 134.592035,62.6012 C109.045035,52.9622 98.6840355,71.9992 98.6840355,71.9992 C98.2660355,71.5232 97.8400355,71.0612 97.3970355,70.6052 L98.4400355,70.5542 Z" id="Fill-53" fill="#F6A821"></path>
            <path d="M90.7330355,11.9858 C90.7330355,11.9858 107.600035,26.9328 98.4400355,70.5538 L97.3970355,70.6048 C79.6840355,52.3768 46.8640355,55.1318 46.8640355,55.1318 C46.8640355,55.1318 55.5430355,20.9028 86.1490355,10.3018 L86.2410355,9.8398 C87.0300355,9.9918 87.7250355,10.1498 88.3170355,10.3018 C89.2350355,10.5338 90.1310355,10.7868 91.0140355,11.0618 L90.7330355,11.9858 Z" id="Fill-55" fill="#08AAEB"></path>
            <path d="M86.2408355,9.8403 L86.1488355,10.3023 C55.5428355,20.9033 46.8638355,55.1323 46.8638355,55.1323 C42.2888355,43.3163 17.2198355,39.4623 17.2198355,39.4623 C17.2198355,39.4623 29.1868355,22.7103 47.8258355,13.6723 C62.2648355,6.6723 78.5568355,8.2703 86.2408355,9.8403" id="Fill-57" fill="#C90E32"></path>
            <path d="M21.7068355,85.6358 C21.4918355,85.8538 21.1128355,86.1938 20.8738355,86.3778 C20.6148355,86.5928 20.3088355,86.8038 20.0168355,86.9828 C19.4358355,87.3318 18.8138355,87.6278 18.2868355,87.6658 C17.7388355,87.7218 17.4318355,87.5718 17.3348355,87.3548 C17.2188355,87.1358 17.1868355,86.6828 17.4198355,86.2198 C17.6198355,85.7588 17.9948355,85.3078 18.4358355,84.9348 C18.6598355,84.7468 18.9038355,84.5768 19.1578355,84.4178 L19.4958355,84.2258 L19.9778355,83.9878 C21.2458355,83.3678 22.4858355,83.0698 23.6528355,83.0538 C23.1448355,84.0058 22.4988355,84.8898 21.7068355,85.6358 L21.7068355,85.6358 Z M7.55083549,92.1028 C8.43183549,94.5088 9.35883549,96.6478 10.2558355,98.5058 C11.1398355,100.3668 11.9918355,101.9478 12.7198355,103.2328 C13.4488355,104.5208 14.0648355,105.5058 14.4958355,106.1738 C14.9428355,106.8348 15.1788355,107.1888 15.1788355,107.1888 C15.4428355,107.5778 15.9388355,107.7628 16.4058355,107.6128 C16.9698355,107.4268 17.2808355,106.8218 17.0968355,106.2568 L17.0888355,106.2268 C17.0878355,106.2268 16.5738355,104.6438 15.6048355,101.9148 C15.1238355,100.5518 14.5348355,98.9018 13.8638355,97.0068 C13.1968355,95.1158 12.4548355,92.9878 11.6948355,90.6718 C10.9488355,88.3578 10.1328355,85.8558 9.52183549,83.2338 C9.23383549,81.9288 9.00183549,80.5808 8.98983549,79.3038 C8.99983549,78.6848 9.03683549,78.0538 9.19083549,77.5818 C9.22783549,77.4628 9.24983549,77.3198 9.30383549,77.2388 L9.37083549,77.0928 L9.40383549,77.0168 L9.41783549,76.9778 L9.42383549,76.9608 C9.62883549,76.6438 9.83483549,76.3248 10.0418355,76.0058 C11.5608355,73.7848 13.8238355,71.7798 16.4538355,71.3488 C17.7598355,71.0838 19.1288355,71.2398 20.4468355,71.6508 L20.9318355,71.8378 L21.1758355,71.9308 C21.1658355,71.9258 21.1698355,71.9268 21.1758355,71.9298 L21.1868355,71.9368 L21.3238355,72.0118 L21.8738355,72.3078 C21.9828355,72.3608 22.0198355,72.4018 22.0678355,72.4448 L22.2168355,72.5658 C22.3178355,72.6558 22.4198355,72.6988 22.5308355,72.8148 L22.8668355,73.1578 C23.1168355,73.3608 23.2708355,73.6678 23.4878355,73.9138 C24.5758355,75.5228 24.9948355,77.6548 24.7298355,79.7248 C24.1698355,79.6808 23.6008355,79.6738 23.0328355,79.7498 C22.6328355,79.8048 22.2258355,79.8508 21.8378355,79.9668 C21.4408355,80.0578 21.0518355,80.1768 20.6788355,80.3318 L20.1118355,80.5538 L19.5428355,80.8368 C19.3548355,80.9298 19.1558355,81.0308 18.9838355,81.1278 L18.5348355,81.4168 C17.1758355,82.2428 15.7518355,83.4808 15.0938355,85.3718 C14.7868355,86.2908 14.6748355,87.5268 15.3968355,88.6228 C15.7538355,89.1528 16.3118355,89.5678 16.8858355,89.7558 C17.4668355,89.9548 18.0328355,89.9598 18.5428355,89.8968 C19.5738355,89.7638 20.4158355,89.3638 21.1868355,88.9118 C21.5758355,88.6798 21.9258355,88.4358 22.2908355,88.1568 C22.6878355,87.8568 22.9138355,87.6688 23.2838355,87.3348 C24.4548355,86.2768 25.4858355,85.0018 26.2628355,83.5488 C26.2858355,83.5568 26.3108355,83.5638 26.3318355,83.5738 C27.2608355,83.9508 28.0988355,84.5268 28.8238355,85.1838 C29.0038355,85.3538 29.1818355,85.5208 29.3528355,85.6868 L29.5968355,85.9528 L29.7198355,86.0848 L29.7808355,86.1488 L29.8118355,86.1808 C29.7928355,86.1558 29.7848355,86.1458 29.7778355,86.1358 C29.7778355,86.1358 29.7788355,86.1398 29.7778355,86.1358 L29.7928355,86.1558 C29.9588355,86.3688 30.1208355,86.5778 30.2828355,86.7858 C30.3928355,86.9548 30.5018355,87.1248 30.6088355,87.2898 C31.5218355,88.7688 32.1068355,90.3958 32.5228355,91.7048 C32.9428355,93.0308 33.2088355,94.1128 33.3808355,94.8468 C33.4628355,95.2148 33.5288355,95.4958 33.5698355,95.6848 C33.6078355,95.8668 33.6288355,95.9608 33.6288355,95.9608 L33.6378355,96.0088 C33.7418355,96.5078 34.1878355,96.8748 34.7138355,96.8608 C35.3068355,96.8468 35.7708355,96.3528 35.7558355,95.7628 C35.7558355,95.7628 35.7538355,95.6508 35.7458355,95.4288 C35.7368355,95.2198 35.7188355,94.9078 35.7008355,94.5018 C35.6408355,93.6928 35.5188355,92.5108 35.2198355,91.0128 C34.9028355,89.5108 34.4588355,87.7068 33.3698355,85.6478 C33.2118355,85.3838 33.0448355,85.0948 32.8788355,84.8398 C32.7278355,84.6268 32.5738355,84.4088 32.4168355,84.1888 L32.3348355,84.0858 L32.2988355,84.0418 L32.2258355,83.9538 L32.0778355,83.7788 L31.7758355,83.4238 C31.5568355,83.1968 31.3378355,82.9678 31.1128355,82.7358 C30.1738355,81.8428 29.0278355,81.0128 27.6498355,80.4248 C27.5918355,80.3988 27.5248355,80.3818 27.4658355,80.3588 C27.6598355,79.4938 27.7718355,78.6028 27.7708355,77.6988 C27.7628355,75.8088 27.3238355,73.8508 26.2668355,72.1388 C25.9708355,71.7318 25.7358355,71.2828 25.3708355,70.9158 L24.8478355,70.3508 C24.6728355,70.1658 24.4198355,69.9858 24.2028355,69.8058 L23.8598355,69.5448 C23.7458355,69.4568 23.6238355,69.3628 23.5428355,69.3248 L23.0058355,69.0108 L22.8698355,68.9348 L22.8018355,68.8938 L22.7688355,68.8768 C22.5148355,68.7438 22.6738355,68.8278 22.6068355,68.7948 L22.2748355,68.6518 L21.6068355,68.3748 C19.7908355,67.7178 17.7688355,67.4758 15.8448355,67.8228 C13.9158355,68.1378 12.1168355,68.9608 10.6408355,70.0698 C9.15483549,71.1718 7.95283549,72.4968 6.91983549,73.9438 C6.70283549,74.2678 6.48383549,74.5898 6.26883549,74.9118 L6.21283549,74.9978 L6.18683549,75.0428 L6.13783549,75.1348 L6.04083549,75.3198 L5.85083549,75.6908 C5.71183549,75.9438 5.64983549,76.1828 5.56483549,76.4268 C5.23183549,77.4108 5.14883549,78.3138 5.08083549,79.1908 C5.00583549,80.9238 5.16983549,82.5058 5.39883549,84.0118 C5.88083549,87.0138 6.67983549,89.6948 7.55083549,92.1028 L7.55083549,92.1028 Z" id="Fill-59" fill="#000000"></path>
            <path d="M92.1031355,93.2925 C92.2641355,91.9505 92.7281355,90.6245 93.3791355,89.3965 C93.5081355,89.1575 93.6491355,88.9275 93.7941355,88.6985 C93.8361355,88.9065 93.8721355,89.1225 93.8891355,89.3395 C93.9461355,89.9545 93.9111355,90.5995 93.8021355,91.2295 C93.5861355,92.5045 93.0741355,93.7025 92.2951355,94.7865 C92.2291355,94.8825 92.1551355,94.9685 92.0861355,95.0625 C92.0281355,94.4815 92.0261355,93.8885 92.1031355,93.2925 L92.1031355,93.2925 Z M69.3151355,71.7665 C69.5841355,71.0715 69.9441355,70.3685 70.3091355,69.8585 C70.2881355,70.7045 70.0671355,71.6775 69.8191355,72.6225 C69.5631355,73.5895 69.2431355,74.5625 68.8861355,75.5285 C68.4561355,76.7075 67.9561355,77.8765 67.4221355,79.0365 C67.5341355,78.3965 67.6451355,77.7565 67.7761355,77.1055 C68.1661355,75.3255 68.6331355,73.4905 69.3151355,71.7665 L69.3151355,71.7665 Z M45.5801355,83.3385 C46.1891355,82.8985 46.8261355,82.5465 47.4571355,82.3215 C48.0911355,82.0915 48.7171355,82.0075 49.2221355,82.0365 L49.5421355,82.0575 C49.5011355,82.0545 49.5801355,82.0635 49.5501355,82.0615 L49.5691355,82.0675 L49.6421355,82.0885 C49.7301355,82.1265 49.8551355,82.1065 49.9231355,82.1525 C49.9931355,82.1955 50.0781355,82.2105 50.1451355,82.2435 C50.1931355,82.2945 50.2531355,82.3275 50.3141355,82.3565 C50.5011355,82.5195 50.6301355,82.7495 50.6751355,83.0935 C50.7191355,83.4375 50.6311355,83.8535 50.4781355,84.2845 C50.2511355,84.7025 50.0151355,85.1495 49.6051355,85.5155 C49.4361355,85.7185 49.2121355,85.8885 48.9901355,86.0565 C48.7781355,86.2455 48.5571355,86.3685 48.3471355,86.5005 L48.0371355,86.7105 C47.9031355,86.7825 47.7281355,86.8555 47.5771355,86.9275 L47.1111355,87.1425 L46.8811355,87.2495 L46.8671355,87.2555 L46.7781355,87.2845 C45.7551355,87.6875 44.7531355,87.8475 43.8071355,87.8875 C43.2901355,87.9025 42.7941355,87.8565 42.3201355,87.7815 C42.4101355,87.5135 42.5051355,87.2495 42.6211355,86.9915 C43.2781355,85.5035 44.3671355,84.2265 45.5801355,83.3385 L45.5801355,83.3385 Z M131.973135,102.2595 L131.857135,102.2575 C131.857135,102.2575 131.256135,102.2415 130.291135,102.3515 C129.805135,102.3915 129.217135,102.3995 128.563135,102.4635 C128.237135,102.4675 127.887135,102.4725 127.520135,102.4795 C127.155135,102.5085 126.774135,102.4835 126.377135,102.4705 C125.979135,102.4665 125.567135,102.4705 125.141135,102.4445 C124.709135,102.4365 124.258135,102.4675 123.794135,102.4325 C123.327135,102.4175 122.834135,102.4095 122.350135,102.3045 C122.104135,102.2685 121.860135,102.2085 121.610135,102.1565 C121.366135,102.0795 121.125135,101.9895 120.886135,101.8925 C119.920135,101.5135 119.011135,100.9075 118.161135,100.2185 C117.338135,99.4835 116.555135,98.6965 115.807135,97.8725 C115.040135,97.0735 114.331135,96.2085 113.631135,95.3625 C113.440135,95.1135 113.258135,94.8645 113.074135,94.6165 C113.188135,94.4785 113.305135,94.3375 113.416135,94.2015 C113.581135,93.9975 113.745135,93.7945 113.905135,93.5955 C114.219135,93.2145 114.545135,92.7555 114.853135,92.3555 C116.026135,90.7225 116.895135,89.2065 117.540135,87.9235 C118.182135,86.6385 118.592135,85.5835 118.850135,84.8515 C118.978135,84.4855 119.061135,84.1965 119.122135,83.9995 C119.151135,83.8995 119.172135,83.8215 119.186135,83.7705 C119.204135,83.7195 119.215135,83.6715 119.229135,83.6335 C119.247135,83.5665 119.256135,83.5095 119.261135,83.4645 C119.274135,83.3715 119.274135,83.3295 119.274135,83.3295 C119.274135,82.7375 118.795135,82.2615 118.204135,82.2615 C117.614135,82.2615 117.136135,82.7375 117.136135,83.3295 C117.136135,83.3295 117.131135,83.2955 117.136135,83.2265 C117.136135,83.1925 117.141135,83.1495 117.151135,83.1015 C117.157135,83.0775 117.165135,83.0515 117.172135,83.0245 C117.182135,82.9995 117.172135,83.0245 117.172135,83.0225 C117.151135,83.0625 117.120135,83.1205 117.081135,83.1985 C116.995135,83.3565 116.868135,83.5935 116.700135,83.9015 C116.358135,84.5195 115.838135,85.4295 115.110135,86.5385 C114.383135,87.6495 113.457135,88.9745 112.295135,90.3945 C112.000135,90.7435 111.739135,91.0835 111.386135,91.4745 C111.319135,91.5485 111.247135,91.6285 111.180135,91.7045 C110.872135,91.1315 110.588135,90.5565 110.332135,89.9975 C109.946135,89.0995 109.545135,88.2745 109.136135,87.5285 C108.321135,86.0385 107.518135,84.8345 106.920135,83.9935 C106.622135,83.5715 106.366135,83.2475 106.188135,83.0285 C106.004135,82.8135 105.907135,82.7005 105.907135,82.7005 L105.875135,82.6635 C105.678135,82.4375 105.391135,82.2865 105.069135,82.2715 C104.440135,82.2395 103.903135,82.7265 103.872135,83.3545 C103.872135,83.3545 103.870135,83.3945 103.866135,83.4725 C103.866135,83.5545 103.858135,83.6855 103.862135,83.8335 C103.866135,84.1405 103.887135,84.5835 103.961135,85.1325 C104.107135,86.2285 104.446135,87.7635 105.202135,89.4665 C105.569135,90.3215 106.081135,91.1935 106.688135,92.0755 C107.268135,92.8805 107.881135,93.7265 108.511135,94.5985 C108.377135,94.7325 108.250135,94.8675 108.116135,95.0015 C106.520135,96.5485 104.758135,98.1615 102.559135,99.2485 C100.387135,100.3455 97.6201355,100.6465 95.1901355,99.6455 C94.6591355,99.4125 94.1741355,99.0875 93.7541355,98.6965 C94.3051355,98.1105 94.8131355,97.4835 95.2581355,96.8215 C96.2641355,95.3685 97.0111355,93.6125 97.2821355,91.7785 C97.4151355,90.8595 97.4381355,89.9165 97.3271355,88.9685 C97.2001355,88.0115 96.9911355,87.0645 96.4091355,86.0465 C96.2541355,85.7905 96.0751355,85.5265 95.8051355,85.2515 C95.5411355,84.9865 95.1701355,84.6645 94.5281355,84.4895 C94.2091355,84.4045 93.8131355,84.3865 93.4491355,84.4725 C93.0821355,84.5565 92.7721355,84.7265 92.5491355,84.8985 C92.3211355,85.0735 92.1511355,85.2615 92.0281355,85.4275 L91.9421355,85.5465 L91.9011355,85.6065 L91.8191355,85.7305 C91.6141355,86.0305 91.3531355,86.4545 91.1311355,86.8375 C90.9161355,87.2185 90.7231355,87.6115 90.5411355,88.0085 C89.8171355,89.6035 89.3811355,91.3315 89.3151355,93.0895 C89.2661355,94.4745 89.4631355,95.8925 89.9711355,97.2085 C88.7911355,98.1035 87.4541355,98.7245 86.0631355,98.9835 C84.8601355,99.2025 83.6291355,99.1755 82.5551355,98.8785 C82.0281355,98.7315 81.5111355,98.5225 81.1161355,98.2805 C80.6491355,98.0015 80.4161355,97.7665 80.1961355,97.4685 C79.3321355,96.3255 79.4491355,94.0545 80.0201355,92.1735 C80.3031355,91.2185 80.6741355,90.3045 81.1271355,89.5135 C81.5531355,88.7025 82.0571355,88.0115 82.5591355,87.4815 C82.8091355,87.2245 83.0591355,86.9825 83.2941355,86.8305 C83.4461355,86.7335 83.3861355,86.7355 83.5711355,86.6445 L83.8701355,86.5215 C83.8321355,86.5295 83.9781355,86.4875 83.7911355,86.5415 L83.8051355,86.5345 L83.8361355,86.5255 L83.9011355,86.5055 L84.0241355,86.4665 C84.6861355,86.2545 85.2781355,86.1675 85.7661355,86.1655 C86.7451355,86.1555 87.3211355,86.5255 87.6841355,86.8845 C88.0451355,87.2455 88.1411355,87.5165 88.1291355,87.4545 C88.2801355,88.0265 88.8621355,88.3665 89.4321355,88.2185 C90.0041355,88.0685 90.3441355,87.4835 90.1991355,86.9135 C90.1721355,86.8645 90.1221355,86.3215 89.6271355,85.4725 C89.3721355,85.0545 88.9791355,84.5565 88.3811355,84.1175 C87.7881355,83.6785 86.9891355,83.3355 86.1081355,83.1795 C85.2251355,83.0175 84.2721355,83.0465 83.3111355,83.1925 L83.1291355,83.2245 L83.0381355,83.2375 L82.9911355,83.2465 L82.9691355,83.2485 L82.8531355,83.2795 L82.5381355,83.3515 C82.3211355,83.4075 81.8501355,83.5825 81.6121355,83.7045 C81.0441355,83.9625 80.5551355,84.2995 80.0741355,84.6635 C78.2171355,86.1695 76.8291355,88.2595 75.8891355,90.8275 C75.4461355,92.1215 75.1221355,93.5525 75.1471355,95.1535 C75.1511355,95.3785 75.1661355,95.6105 75.1861355,95.8475 C74.7821355,96.0875 74.2761355,96.3675 73.6661355,96.6245 C73.0521355,96.8945 72.3271355,97.1365 71.5491355,97.2465 C71.3531355,97.2905 71.1591355,97.3005 70.9611355,97.3065 C70.8621355,97.3135 70.7641355,97.3195 70.6631355,97.3245 L70.3701355,97.3005 L70.0741355,97.2775 C69.9781355,97.2645 69.8861355,97.2285 69.7881355,97.2085 L69.5001355,97.1405 C69.4111355,97.1125 69.3581355,97.0715 69.2841355,97.0445 C69.2131355,97.0155 69.1391355,96.9905 69.0631355,96.9705 C68.9711355,96.9295 68.8251355,96.8215 68.7061355,96.7485 L68.3751355,96.5365 C68.3681355,96.5305 68.3601355,96.5245 68.3751355,96.5345 L68.3641355,96.5225 L68.3131355,96.4705 L68.2091355,96.3675 C67.9241355,96.1175 67.6821355,95.7055 67.4491355,95.2575 C67.0021355,94.3105 66.7191355,93.0625 66.5791355,91.7005 C66.4271355,90.3335 66.3991355,88.8395 66.4751355,87.2735 C66.4791355,87.1815 66.4891355,87.0815 66.4951355,86.9875 C67.2941355,85.4685 68.0201355,83.9235 68.7111355,82.3825 C69.6031355,80.3745 70.3681355,78.3395 71.0711355,76.2975 C71.4161355,75.2725 71.7281355,74.2415 72.0021355,73.1925 C72.2681355,72.1365 72.4991355,71.0875 72.5551355,69.8865 C72.5691355,69.5815 72.5631355,69.2635 72.5021355,68.8945 C72.4201355,68.5365 72.3601355,68.0755 71.8361355,67.5665 C71.5841355,67.3225 71.1921355,67.1595 70.8721355,67.1265 C70.7041355,67.1055 70.5551355,67.1065 70.4271355,67.1235 L70.3241355,67.1355 C70.3211355,67.1285 69.9161355,67.2395 70.0691355,67.2025 L69.9791355,67.2335 C69.8751355,67.2245 69.1451355,67.6405 68.9321355,67.8905 C67.9791355,68.8565 67.5441355,69.8105 67.0531355,70.7515 C66.1311355,72.6385 65.4921355,74.5215 64.9271355,76.3765 C63.8371355,80.0365 63.2221355,83.6085 63.0741355,86.9895 C61.9581355,88.7005 60.7841355,90.3605 59.4381355,91.8045 C58.1151355,93.1815 56.4251355,94.4625 54.6831355,95.4325 C52.9371355,96.4135 51.0571355,97.1055 49.2621355,97.2775 C47.4691355,97.4305 45.8451355,97.0135 44.5981355,95.9445 C44.0241355,95.4805 43.3901355,94.7305 42.9621355,94.0225 C42.5191355,93.2995 42.2081355,92.5305 42.0391355,91.7355 C41.9951355,91.5405 41.9611355,91.3435 41.9371355,91.1465 C42.4721355,91.2835 43.0371355,91.3945 43.6421355,91.4385 C44.9971355,91.5435 46.5151355,91.4585 48.0191355,90.9895 L48.1641355,90.9515 L48.2361355,90.9335 L48.3961355,90.8725 L48.6321355,90.7855 C48.7911355,90.7265 48.9521355,90.6675 49.1151355,90.6045 C49.2801355,90.5425 49.4301355,90.4945 49.6091355,90.4175 C49.8121355,90.3175 50.0151355,90.2165 50.2201355,90.1135 C50.6361355,89.9095 51.0451355,89.6865 51.4031355,89.4175 C51.7761355,89.1645 52.1481355,88.8965 52.4951355,88.5545 C53.2251355,87.9385 53.8491355,87.0875 54.3741355,86.1315 C54.8471355,85.1285 55.1481355,83.9405 55.0371355,82.6425 C54.9391355,81.3595 54.3241355,79.9445 53.1911355,79.0015 C52.9081355,78.7805 52.6071355,78.5775 52.3001355,78.3855 C51.9901355,78.2165 51.6601355,78.0955 51.3331355,77.9645 C51.0011355,77.8345 50.6771355,77.7985 50.3411355,77.7305 L50.0911355,77.6885 L50.0291355,77.6815 C49.9621355,77.6735 50.0911355,77.6815 49.8611355,77.6635 L49.7791355,77.6595 L49.4491355,77.6485 C46.9141355,77.6015 44.7611355,78.6205 43.0031355,80.0265 C41.2531355,81.4525 39.8901355,83.3175 39.0071355,85.4685 C38.8721355,85.8005 38.7531355,86.1465 38.6461355,86.4945 C38.2421355,86.2725 37.8761355,86.0555 37.5901355,85.8625 C37.1951355,85.6055 36.9101355,85.3885 36.7201355,85.2415 C36.5481355,85.1105 36.4571355,85.0305 36.4501355,85.0225 C36.0541355,84.5855 35.3801355,84.5505 34.9411355,84.9445 C34.5031355,85.3395 34.4671355,86.0155 34.8631355,86.4535 C34.8551355,86.4445 34.9471355,86.5715 35.1511355,86.8145 C35.3401355,87.0385 35.6171355,87.3745 36.0211355,87.7615 C36.5191355,88.2475 37.2001355,88.8565 38.1281355,89.4625 C38.0801355,90.4855 38.1551355,91.5265 38.3911355,92.5535 C38.6651355,93.7635 39.1601355,94.9295 39.8201355,95.9745 C40.4961355,97.0265 41.2261355,97.9095 42.2861355,98.7825 C43.2891355,99.5935 44.4951355,100.2365 45.7741355,100.5625 C47.0521355,100.8995 48.3701355,100.9645 49.6151355,100.8295 C52.1171355,100.5385 54.3671355,99.6095 56.3941355,98.4315 C57.4101355,97.8375 58.3811355,97.1815 59.3001355,96.4485 C60.2251355,95.7185 61.0901355,94.9275 61.9031355,93.9795 C62.3861355,93.4045 62.8331355,92.8135 63.2691355,92.2185 C63.4861355,93.7825 63.8841355,95.2885 64.5901355,96.7145 C64.9991355,97.4275 65.4621355,98.1245 66.1311355,98.6815 L66.3791355,98.8885 L66.5001355,98.9875 L66.5321355,99.0135 C66.5921355,99.0565 66.4361355,98.9545 66.6771355,99.1145 L66.7251355,99.1435 C66.8601355,99.2185 66.9911355,99.2925 67.1241355,99.3675 C67.2621355,99.4435 67.3581355,99.5135 67.5301355,99.5915 C67.7321355,99.6765 67.9321355,99.7555 68.1311355,99.8285 C69.6861355,100.3645 70.9911355,100.2205 72.1031355,99.9775 C73.2061355,99.7105 74.0771355,99.2915 74.7911355,98.8945 C75.1571355,98.6945 75.4821355,98.4935 75.7721355,98.3025 C76.0381355,98.9435 76.4031355,99.5715 76.8951355,100.1515 C78.2581355,101.7165 79.9931355,102.3825 81.6801355,102.7385 C83.3811355,103.0805 85.1271355,103.0285 86.8171355,102.6625 C88.5111355,102.3045 90.1511355,101.5935 91.5941355,100.5835 C91.7391355,100.4825 91.8741355,100.3645 92.0141355,100.2595 C92.6941355,100.8845 93.4751355,101.3855 94.3021355,101.7225 C95.0691355,102.0605 95.9671355,102.2455 96.6571355,102.3605 C97.4911355,102.5055 98.2541355,102.5405 99.0471355,102.5485 C100.614135,102.5405 102.155135,102.2685 103.574135,101.8005 C106.428135,100.8635 108.745135,99.1875 110.511135,97.4375 C110.549135,97.3995 110.581135,97.3625 110.618135,97.3255 C110.706135,97.4335 110.790135,97.5405 110.879135,97.6465 C111.699135,98.5725 112.569135,99.4835 113.557135,100.2835 C114.516135,101.1065 115.629135,101.7605 116.711135,102.3735 C117.831135,102.9385 118.909135,103.5035 120.008135,103.9545 C120.282135,104.0715 120.549135,104.1945 120.811135,104.3275 C121.079135,104.4465 121.354135,104.5455 121.618135,104.6685 C122.141135,104.9255 122.677135,105.1325 123.207135,105.3215 C123.735135,105.5365 124.272135,105.6535 124.794135,105.7535 C125.317135,105.8745 125.831135,105.8915 126.325135,105.8875 C127.313135,105.9405 128.200135,105.7455 128.983135,105.6455 C129.747135,105.4385 130.413135,105.2695 130.932135,105.0605 C131.969135,104.6205 132.514135,104.2885 132.514135,104.2885 C132.817135,104.1015 133.028135,103.7655 133.041135,103.3825 C133.055135,102.7765 132.577135,102.2745 131.973135,102.2595 L131.973135,102.2595 Z" id="Fill-61" fill="#000000"></path>
            <path d="M123.011335,132.7778 C121.850335,133.5818 120.698335,134.3978 119.485335,135.1238 L117.670335,136.2188 L115.797335,137.2158 C115.170335,137.5408 114.559335,137.8988 113.912335,138.1868 C113.266335,138.4738 112.621335,138.7648 111.969335,139.0368 C111.319335,139.3138 110.666335,139.5838 110.004335,139.8318 L107.992335,140.4998 L105.979335,141.1558 C105.313335,141.3838 104.621335,141.5348 103.949335,141.7378 C103.270335,141.9218 102.600335,142.1338 101.927335,142.3338 C101.252335,142.5308 100.592335,142.7708 99.9053355,142.9218 C98.5413355,143.2558 97.1883355,143.6288 95.8323355,144.0028 C94.4713355,144.3448 93.0883355,144.5928 91.7153355,144.8938 C91.0263355,145.0358 90.3383355,145.1918 89.6473355,145.3218 L87.5553355,145.6008 C86.1583355,145.7788 84.7683355,146.0038 83.3653355,146.1368 L79.1453355,146.3958 C78.4423355,146.4288 77.7373355,146.5008 77.0333355,146.5068 L74.9153355,146.4758 L70.6783355,146.4068 C69.3263355,146.3238 67.8483355,146.1848 66.4403355,146.0538 L62.1653355,145.6538 C60.7283355,145.5598 59.3623355,145.2488 57.9603355,145.0308 C56.5653355,144.7998 55.1773355,144.5348 53.7903355,144.2718 C53.4453355,144.2008 53.0963355,144.1398 52.7513355,144.0608 L51.7243355,143.7898 L49.6703355,143.2438 L45.5703355,142.1748 C44.2253355,141.7498 42.8843355,141.3188 41.5323355,140.9208 C38.8083355,140.1898 36.1893355,139.1778 33.5353355,138.2418 C32.8633355,138.0238 32.2353355,137.7128 31.5903355,137.4368 L29.6613355,136.5988 L27.7263355,135.7658 L25.8613355,134.7988 C23.3493355,133.5468 20.9333355,132.1208 18.6013355,130.5698 C16.2923355,128.9908 14.0643355,127.2768 12.0323355,125.3568 C10.1953355,123.6588 8.46633549,121.7498 7.07833549,119.7228 C9.32933549,118.9578 11.6343355,118.2788 13.9493355,117.7098 C16.5443355,117.0618 19.1613355,116.5228 21.8003355,116.1268 C24.4363355,115.7518 27.0803355,115.4018 29.7353355,115.3358 L30.7293355,115.2848 L31.7223355,115.2888 L33.7063355,115.2928 L35.6873355,115.3998 L36.6773355,115.4478 C37.0043355,115.4698 37.3283355,115.5168 37.6573355,115.5518 L39.6203355,115.7748 C40.2153355,115.8548 40.9323355,116.0008 41.5793355,116.1108 C42.9393355,116.3138 44.1633355,116.6788 45.4503355,116.9508 C48.0053355,117.6288 50.5233355,118.4688 52.9823355,119.4858 C53.5493355,119.7188 54.1143355,119.9648 54.6743355,120.2178 C54.3613355,121.2588 54.0903355,122.2478 53.8573355,123.1368 C53.1503355,125.7918 52.8493355,127.6108 52.8493355,127.6108 C52.7733355,128.0738 53.0113355,128.5488 53.4583355,128.7508 C53.9913355,128.9928 54.6203355,128.7568 54.8633355,128.2218 C54.8633355,128.2218 55.6203355,126.5408 56.5093355,123.9408 C56.7693355,123.1848 57.0453355,122.3488 57.3223355,121.4598 C58.3023355,121.9348 59.2793355,122.4198 60.2613355,122.9058 C62.6893355,124.1008 65.1303355,125.3818 67.8643355,126.1718 C68.5523355,126.3568 69.2333355,126.5528 69.9553355,126.6338 C70.3133355,126.6808 70.6653355,126.7638 71.0283355,126.7768 L72.1193355,126.8218 C72.3173355,126.8268 72.4443355,126.8508 72.7033355,126.8338 L73.2093355,126.7958 L74.2193355,126.7298 C74.9323355,126.6188 75.6963355,126.5528 76.3753355,126.3858 C79.1583355,125.8428 81.7723355,124.8938 84.3133355,124.1028 C86.8653355,123.3138 89.3543355,122.5888 91.8833355,122.1068 C94.4103355,121.6208 96.9693355,121.2968 99.5713355,121.2588 L100.545335,121.2258 C100.871335,121.2218 101.199335,121.2378 101.524335,121.2468 L103.446335,121.2998 L105.465335,121.4888 L106.471335,121.5828 L107.440335,121.7198 C110.011335,122.0708 112.623335,122.6578 115.160335,123.3478 C117.707335,124.0508 120.215335,124.9068 122.647335,125.9328 C123.858335,126.4568 125.065335,126.9938 126.235335,127.5968 C126.891335,127.9278 127.557335,128.2748 128.203335,128.6298 C126.576335,130.0818 124.807335,131.4838 123.011335,132.7778 L123.011335,132.7778 Z M131.114335,127.3298 C128.729335,125.6978 126.294335,124.4898 123.752335,123.3588 C121.221335,122.2508 118.614335,121.3138 115.959335,120.5478 C113.295335,119.7838 110.633335,119.1428 107.850335,118.7278 L106.817335,118.5468 L105.811335,118.4108 L103.802335,118.1418 L101.677335,117.9608 C101.328335,117.9308 100.982335,117.8928 100.631335,117.8728 L99.5783355,117.8448 C98.1743355,117.7718 96.7663355,117.8548 95.3543355,117.9208 C93.9493355,118.0618 92.5403355,118.2358 91.1583355,118.5468 C88.3893355,119.1318 85.7173355,120.0868 83.2213355,121.2198 C80.7113355,122.3358 78.3323355,123.5208 75.8623355,124.2748 C75.2393355,124.4768 74.6533355,124.5598 74.0413355,124.7158 L73.0333355,124.8318 L72.5303355,124.8878 C72.4533355,124.9018 72.2403355,124.8898 72.1043355,124.8918 L71.1663355,124.8898 C70.8573355,124.8898 70.5443355,124.8128 70.2323355,124.7788 C69.6043355,124.7208 68.9853355,124.5488 68.3643355,124.3918 C65.8773355,123.7298 63.4953355,122.4738 61.0993355,121.2568 C60.0323355,120.6998 58.9603355,120.1378 57.8783355,119.5858 C57.8903355,119.5468 57.9033355,119.5068 57.9133355,119.4648 C58.3673355,117.8098 58.8033355,116.0298 59.3043355,114.2688 C59.5623355,113.3898 59.8173355,112.5108 60.1363355,111.6668 C60.4523355,110.8218 60.7733355,109.9928 61.0453355,109.1788 C61.5613355,107.5428 61.9173355,105.9768 62.2493355,104.6438 C62.8813355,101.9658 63.1653355,100.1398 63.1653355,100.1398 C63.2223355,99.7708 63.0323355,99.3918 62.6753355,99.2258 C62.2443355,99.0248 61.7303355,99.2138 61.5303355,99.6448 C61.5303355,99.6448 60.7533355,101.3218 59.7903355,103.8978 C59.3273355,105.1928 58.7553355,106.6928 58.2753355,108.3398 C58.0503355,109.1688 57.8553355,110.0368 57.6513355,110.9158 C57.4473355,111.7938 57.1713355,112.6658 56.8973355,113.5408 C56.3733355,115.1698 55.7973355,116.7748 55.2813355,118.3098 C54.7843355,118.0768 54.2863355,117.8428 53.7833355,117.6228 C51.2753355,116.5058 48.6843355,115.5578 46.0323355,114.7848 C44.6863355,114.4508 43.3053355,114.0718 41.9903355,113.8618 C41.3073355,113.7408 40.7023355,113.6088 39.9563355,113.5008 L37.8933355,113.2528 C37.5503355,113.2128 37.2063355,113.1628 36.8633355,113.1348 L35.8273355,113.0798 C35.1363355,113.0398 34.4473355,113.0018 33.7563355,112.9788 L31.6883355,113.0078 L30.6563355,113.0248 L29.6243355,113.0908 L27.5663355,113.2268 L25.5193355,113.4568 C24.8363355,113.5208 24.1573355,113.6218 23.4803355,113.7298 C22.8043355,113.8408 22.1233355,113.9218 21.4523355,114.0578 C18.7573355,114.5628 16.1013355,115.2128 13.4743355,115.9668 C10.8573355,116.7538 8.27833549,117.6288 5.75533549,118.7338 L5.73433549,118.7448 C5.72533549,118.7498 5.71733549,118.7538 5.70733549,118.7568 C5.37433549,118.9218 5.23933549,119.3248 5.40333549,119.6588 C6.75533549,122.3838 8.59433549,124.6418 10.5793355,126.8018 C11.0873355,127.3298 11.5633355,127.8928 12.1003355,128.3898 L13.7263355,129.8628 L14.5383355,130.5988 L15.3993355,131.2798 L17.1243355,132.6338 C19.4733355,134.3668 21.9033355,136.0148 24.4803355,137.3818 L26.3903355,138.4548 L28.3663355,139.3878 L30.3473355,140.3178 C31.0133355,140.6158 31.6633355,140.9518 32.3513355,141.1888 C35.0783355,142.1998 37.7623355,143.3668 40.5833355,144.0798 C41.9823355,144.4778 43.3793355,144.8818 44.7903355,145.2188 L49.0683355,146.0138 L51.2033355,146.3998 L52.2693355,146.5968 C52.6283355,146.6478 52.9903355,146.6818 53.3513355,146.7278 C54.7923355,146.9078 56.2283355,147.0858 57.6623355,147.2958 L59.8123355,147.6088 L60.8823355,147.7748 L61.9513355,147.8818 L66.2253355,148.2948 C67.6653355,148.4228 69.0323355,148.6008 70.5303355,148.7268 L74.8733355,148.9058 L77.0473355,149.0008 C77.7723355,149.0168 78.4963355,148.9658 79.2213355,148.9548 L83.5743355,148.8208 C85.0263355,148.7248 86.4693355,148.5348 87.9153355,148.3978 L90.0863355,148.1738 C90.8053355,148.0678 91.5203355,147.9318 92.2393355,147.8128 C93.6693355,147.5498 95.1153355,147.3488 96.5403355,147.0388 C97.9513355,146.6908 99.3673355,146.3398 100.772335,145.9498 C102.182335,145.5868 103.540335,145.0328 104.908335,144.5388 C106.285335,144.0678 107.592335,143.4098 108.910335,142.7968 L110.887335,141.8768 C111.530335,141.5408 112.169335,141.1938 112.817335,140.8748 C113.461335,140.5408 114.115335,140.2298 114.768335,139.9148 C115.412335,139.5898 116.045335,139.2388 116.688335,138.9048 L118.610335,137.8918 L120.490335,136.8058 C121.766335,136.1168 122.989335,135.3368 124.219335,134.5658 C126.665335,132.9718 129.035335,131.3568 131.287335,129.3268 C131.358335,129.2608 131.428335,129.1848 131.482335,129.1008 C131.875335,128.5288 131.728335,127.7478 131.155335,127.3568 L131.114335,127.3298 Z" id="Fill-63" fill="#000000"></path>
            <path d="M68.4361355,31.6304 C67.5691355,31.6304 66.8701355,32.3314 66.8701355,33.1964 C66.8701355,34.0624 67.5691355,34.7634 68.4361355,34.7634 C69.2991355,34.7634 70.0001355,34.0624 70.0001355,33.1964 C70.0001355,32.3314 69.2991355,31.6304 68.4361355,31.6304" id="Fill-65" fill="#000000"></path>
            <path d="M87.4751355,35.2456 C86.6101355,35.2456 85.9091355,35.9466 85.9091355,36.8116 C85.9091355,37.6776 86.6101355,38.3806 87.4751355,38.3806 C88.3401355,38.3806 89.0441355,37.6776 89.0441355,36.8116 C89.0441355,35.9466 88.3401355,35.2456 87.4751355,35.2456" id="Fill-67" fill="#000000"></path>
            <path d="M81.6548355,34.2612 L81.5088355,34.4682 C81.5088355,34.4682 81.4158355,34.5982 81.2508355,34.8232 C81.0768355,35.0562 80.8168355,35.3802 80.4788355,35.6932 C80.3088355,35.8452 80.1158355,35.9902 79.9158355,36.1172 C79.7098355,36.2402 79.4908355,36.3412 79.2618355,36.4072 C79.0498355,36.4902 78.7638355,36.5042 78.5868355,36.5052 C78.5238355,36.5302 78.3018355,36.4982 78.1258355,36.4822 L77.9868355,36.4682 L77.9848355,36.4682 L77.9438355,36.4562 L77.7408355,36.4062 C77.6028355,36.3782 77.4678355,36.3422 77.3438355,36.2892 C77.2098355,36.2522 77.0848355,36.1982 76.9678355,36.1312 C76.8428355,36.0772 76.7288355,36.0072 76.6178355,35.9312 C76.4988355,35.8662 76.3908355,35.7852 76.2918355,35.6972 C76.1798355,35.6192 76.0848355,35.5222 75.9908355,35.4292 C75.8888355,35.3432 75.7978355,35.2412 75.7118355,35.1442 C75.5378355,34.9482 75.3818355,34.7412 75.2428355,34.5422 C74.9708355,34.1422 74.7618355,33.7712 74.6258355,33.5072 C74.4888355,33.2362 74.4228355,33.1102 74.4208355,33.0972 C74.3658355,32.7862 74.0688355,32.5782 73.7588355,32.6342 C73.4488355,32.6882 73.2408355,32.9862 73.2958355,33.2962 C73.2958355,33.2822 73.2878355,33.5252 73.3268355,33.8762 C73.3678355,34.2352 73.4598355,34.7452 73.6918355,35.3362 C73.8028355,35.6312 73.9518355,35.9482 74.1548355,36.2652 C74.3478355,36.5832 74.5888355,36.9152 74.8968355,37.2092 C75.0448355,37.3652 75.2058355,37.5102 75.3888355,37.6422 C75.5588355,37.7882 75.7508355,37.9072 75.9558355,38.0132 C76.1528355,38.1322 76.3618355,38.2292 76.5828355,38.3062 C76.7978355,38.3972 77.0158355,38.4762 77.2428355,38.5112 L77.5808355,38.5812 L77.6668355,38.5972 L77.7778355,38.6112 L77.8128355,38.6132 L77.9498355,38.6222 C78.1428355,38.6312 78.2838355,38.6572 78.5848355,38.6342 C78.8528355,38.6252 79.1158355,38.5912 79.3348355,38.5272 C79.5668355,38.4762 79.7858355,38.4042 79.9968355,38.3062 C80.4228355,38.1402 80.7738355,37.8722 81.0788355,37.6152 C81.3818355,37.3532 81.6118355,37.0642 81.7998355,36.7942 C82.1728355,36.2482 82.3568355,35.7512 82.4638355,35.4012 C82.5648355,35.0482 82.5908355,34.8332 82.5978355,34.8182 C82.7078355,34.5832 82.6388355,34.2942 82.4228355,34.1382 C82.1768355,33.9602 81.8328355,34.0172 81.6548355,34.2612" id="Fill-69" fill="#000000"></path>
            <path d="M129.982035,60.271 C129.137035,60.097 128.307035,59.869 127.456035,59.731 C126.607035,59.585 125.761035,59.422 124.899035,59.345 C124.469035,59.302 124.045035,59.24 123.612035,59.21 L122.317035,59.142 C121.458035,59.093 120.588035,59.125 119.725035,59.142 C118.862035,59.2 117.997035,59.248 117.139035,59.38 C116.278035,59.476 115.428035,59.658 114.577035,59.83 L113.315035,60.142 L112.069035,60.525 C111.247035,60.804 110.428035,61.103 109.639035,61.466 C109.241035,61.636 108.848035,61.824 108.463035,62.027 C108.077035,62.22 107.688035,62.419 107.317035,62.644 C106.559035,63.071 105.825035,63.541 105.120035,64.046 C104.407035,64.542 103.728035,65.086 103.071035,65.655 C102.411035,66.22 101.782035,66.817 101.177035,67.443 C100.588035,68.05 100.034035,68.691 99.5040355,69.353 C99.5980355,68.997 99.7040355,68.581 99.8290355,68.098 C100.030035,67.267 100.264035,66.252 100.516035,65.084 C100.637035,64.5 100.764035,63.877 100.901035,63.22 C101.032035,62.566 101.088035,61.86 101.194035,61.132 C101.378035,59.673 101.512035,58.083 101.600035,56.401 C101.674035,55.563 101.643035,54.691 101.645035,53.806 C101.647035,52.921 101.677035,52.02 101.719035,51.103 C101.754035,50.187 101.862035,49.257 101.866035,48.312 C101.870035,47.369 101.913035,46.412 101.936035,45.445 C101.952035,44.48 102.022035,43.504 102.018035,42.525 C101.975035,41.544 101.936035,40.562 101.893035,39.58 C101.874035,39.085 101.850035,38.593 101.815035,38.102 C101.791035,37.611 101.756035,37.119 101.677035,36.634 C101.547035,35.66 101.420035,34.688 101.291035,33.722 C101.223035,33.242 101.157035,32.761 101.092035,32.284 C100.993035,31.811 100.897035,31.341 100.797035,30.874 C100.600035,29.939 100.407035,29.015 100.215035,28.105 C99.9780355,27.205 99.7450355,26.32 99.5140355,25.454 C99.4010355,25.019 99.2880355,24.589 99.1770355,24.164 C99.0650355,23.74 98.9110355,23.333 98.7800355,22.923 C98.5010355,22.111 98.2290355,21.32 97.9650355,20.555 C97.6450355,19.812 97.3190355,19.099 96.9910355,18.42 C96.6900355,17.732 96.3070355,17.113 95.9560355,16.521 C95.6040355,15.929 95.2880355,15.362 94.9130355,14.868 C94.5610355,14.363 94.2170355,13.902 93.8990355,13.476 C93.6040355,13.119 93.3250355,12.8 93.0650355,12.505 L94.6100355,13.056 C95.3070355,13.342 95.9930355,13.655 96.6860355,13.955 L97.7210355,14.406 L98.7320355,14.919 L100.735035,15.962 C102.020035,16.751 103.340035,17.476 104.563035,18.359 C105.827035,19.179 107.006035,20.117 108.200035,21.033 C108.791035,21.501 109.346035,22.007 109.920035,22.493 C110.501035,22.972 111.049035,23.486 111.588035,24.009 C112.700035,25.025 113.725035,26.126 114.762035,27.214 C115.751035,28.352 116.772035,29.455 117.700035,30.64 C118.667035,31.792 119.545035,33.017 120.432035,34.233 L121.715035,36.091 L122.932035,37.996 C123.728035,39.274 124.518035,40.556 125.249035,41.876 C125.626035,42.529 125.979035,43.195 126.329035,43.864 C126.686035,44.527 127.032035,45.2 127.357035,45.88 C128.034035,47.23 128.653035,48.607 129.264035,49.988 C129.881035,51.366 130.446035,52.769 130.989035,54.179 C131.524035,55.591 132.036035,57.013 132.493035,58.454 C132.786035,59.375 133.059035,60.306 133.315035,61.234 L132.467035,60.951 C131.639035,60.725 130.815035,60.478 129.982035,60.271 M96.8330355,68.847 C95.9830355,67.998 95.0590355,67.236 94.1410355,66.464 C93.6800355,66.083 93.1880355,65.74 92.7130355,65.375 L91.9950355,64.836 L91.2490355,64.337 C90.7490355,64.009 90.2620355,63.658 89.7490355,63.351 L88.2100355,62.431 C87.6990355,62.121 87.1630355,61.86 86.6370355,61.572 C86.1140355,61.283 85.5830355,61.011 85.0410355,60.761 C83.9690355,60.229 82.8740355,59.759 81.7740355,59.296 C80.6660355,58.862 79.5570355,58.41 78.4270355,58.041 C77.3030355,57.64 76.1610355,57.304 75.0240355,56.958 C73.8760355,56.646 72.7290355,56.324 71.5670355,56.062 C70.4160355,55.773 69.2450355,55.548 68.0790355,55.325 C66.9110355,55.107 65.7370355,54.919 64.5620355,54.747 C63.3860355,54.585 62.2100355,54.434 61.0280355,54.314 C58.6690355,54.07 56.2980355,53.915 53.9250355,53.841 C52.7390355,53.816 51.5500355,53.793 50.3630355,53.81 C49.6480355,53.82 48.9390355,53.839 48.2240355,53.869 C48.9190355,52.375 50.1070355,49.814 51.6080355,46.587 C52.2120355,45.282 52.8700355,43.867 53.5620355,42.371 C54.2680355,40.878 55.0440355,39.317 55.9600355,37.763 C56.8650355,36.205 57.8710355,34.637 58.9360355,33.074 C60.0080355,31.515 61.1440355,29.966 62.3440355,28.464 C63.5230355,26.947 64.7590355,25.472 66.0280355,24.058 C66.6700355,23.363 67.3290355,22.687 67.9870355,22.031 C68.6690355,21.398 69.3570355,20.789 70.0410355,20.198 C70.7510355,19.64 71.4560355,19.099 72.1670355,18.599 C72.8990355,18.134 73.6140355,17.676 74.3110355,17.23 C75.7390355,16.408 77.0830355,15.628 78.3270355,14.91 C78.9360355,14.529 79.5450355,14.21 80.1240355,13.91 C80.7000355,13.603 81.2390355,13.292 81.7580355,13.031 C82.8090355,12.526 83.7100355,12.045 84.4710355,11.688 C85.2330355,11.333 85.8330355,11.052 86.2430355,10.861 C86.4050355,10.781 86.5280355,10.719 86.6260355,10.669 C87.1360355,10.773 87.6410355,10.869 88.1570355,10.994 L88.1470355,10.992 L88.4580355,11.08 C88.4670355,11.091 88.4730355,11.105 88.4830355,11.116 C88.8810355,11.541 89.4490355,11.71 89.9790355,11.623 C90.0470355,11.718 90.1410355,11.856 90.2510355,12.029 C90.4820355,12.369 90.8310355,12.937 91.2490355,13.632 C91.4560355,13.989 91.6780355,14.384 91.9340355,14.803 C92.1660355,15.245 92.4110355,15.722 92.6840355,16.219 C92.9750355,16.708 93.2060355,17.281 93.4970355,17.849 C93.7780355,18.424 94.0850355,19.022 94.3530355,19.676 C94.6280355,20.327 94.9340355,20.992 95.2580355,21.679 C95.5450355,22.385 95.8420355,23.117 96.1490355,23.869 C96.4820355,24.611 96.7620355,25.398 97.0120355,26.217 C97.2660355,27.035 97.5740355,27.857 97.8020355,28.719 C98.0010355,29.589 98.2020355,30.474 98.4110355,31.371 C98.5120355,31.817 98.6160355,32.267 98.7190355,32.72 C98.7950355,33.181 98.8680355,33.643 98.9400355,34.106 C99.0900355,35.035 99.2410355,35.97 99.3910355,36.91 C99.5690355,37.847 99.5770355,38.81 99.7080355,39.76 C99.8170355,40.714 99.9220355,41.667 100.028035,42.617 C100.114035,43.57 100.149035,44.523 100.199035,45.47 C100.239035,46.416 100.299035,47.357 100.321035,48.287 C100.348035,48.75 100.327035,49.212 100.299035,49.671 C100.274035,50.13 100.251035,50.585 100.225035,51.037 C100.100035,52.839 99.9400355,54.581 99.6490355,56.216 C99.3380355,57.849 99.0980355,59.392 98.9380355,60.828 C98.8030355,62.265 98.5860355,63.571 98.4050355,64.732 C98.2390355,65.894 98.1030355,66.914 98.0060355,67.752 C97.9170355,68.595 97.8460355,69.258 97.8020355,69.71 C97.7970355,69.748 97.7950355,69.775 97.7920355,69.81 C97.4820355,69.48 97.1690355,69.151 96.8330355,68.847 M45.5150355,50.669 C45.2710355,50.363 45.0050355,50.082 44.7340355,49.81 C44.4630355,49.535 44.1970355,49.251 43.9080355,49.003 C43.3470355,48.476 42.7520355,48.003 42.1540355,47.535 C41.5410355,47.091 40.9300355,46.644 40.2910355,46.248 C39.6660355,45.832 39.0110355,45.466 38.3630355,45.095 C37.7070355,44.736 37.0490355,44.388 36.3790355,44.064 C35.7110355,43.736 35.0370355,43.43 34.3580355,43.133 C31.6380355,41.957 28.8490355,40.998 26.0250355,40.191 C24.6110355,39.787 23.1870355,39.42 21.7590355,39.08 C21.0450355,38.91 20.3280355,38.75 19.6090355,38.601 C19.5900355,38.597 19.5720355,38.593 19.5520355,38.589 C20.1640355,37.834 20.7910355,37.08 21.4270355,36.345 C22.5290355,35.08 23.6690355,33.845 24.8360355,32.634 L26.6080355,30.845 L28.4280355,29.103 C29.6710355,27.974 30.9060355,26.835 32.2010355,25.771 C33.4670355,24.669 34.8130355,23.667 36.1290355,22.632 C37.4990355,21.669 38.8260355,20.646 40.2350355,19.75 C40.9360355,19.296 41.6210355,18.802 42.3310355,18.385 L44.4590355,17.119 C45.1460355,16.682 45.9370355,16.31 46.6820355,15.908 L47.8150355,15.316 L48.3790355,15.019 C48.4960355,14.955 48.7360355,14.859 48.9100355,14.778 L51.1640355,13.754 C51.9270355,13.438 52.7090355,13.169 53.4820355,12.874 C54.2500355,12.564 55.0460355,12.333 55.8400355,12.087 C56.6280355,11.837 57.4190355,11.584 58.2340355,11.404 C59.0440355,11.218 59.8400355,10.97 60.6600355,10.816 L63.1170355,10.33 L65.5940355,9.964 C66.4220355,9.84 67.2610355,9.788 68.0920355,9.697 C68.9270355,9.597 69.7660355,9.576 70.6030355,9.521 C71.4420355,9.461 72.2800355,9.451 73.1220355,9.439 C73.9630355,9.416 74.8030355,9.423 75.6450355,9.449 C76.4870355,9.457 77.3270355,9.49 78.1670355,9.551 C79.8500355,9.65 81.5260355,9.828 83.1960355,10.056 C83.2700355,10.068 83.3420355,10.083 83.4170355,10.093 C82.6690355,10.359 81.8170355,10.71 80.8400355,11.097 C79.7490355,11.621 78.4870355,12.169 77.2000355,12.931 C76.5590355,13.317 75.8700355,13.681 75.2110355,14.149 C74.5470355,14.606 73.8830355,15.109 73.1990355,15.619 C72.5360355,16.161 71.8580355,16.716 71.1670355,17.285 C70.4930355,17.875 69.7970355,18.465 69.0790355,19.048 C68.3780355,19.656 67.6660355,20.271 66.9420355,20.894 C66.2490355,21.548 65.5020355,22.165 64.7940355,22.833 C63.3780355,24.172 61.9550355,25.561 60.6600355,27.064 C59.9870355,27.796 59.3740355,28.574 58.7640355,29.352 C58.1400355,30.119 57.5710355,30.922 56.9880355,31.705 C55.8510355,33.292 54.7880355,34.892 53.8200355,36.48 C52.8300355,38.054 51.9290355,39.609 51.0770355,41.088 C50.2550355,42.584 49.5070355,44.017 48.9370355,45.394 C47.7730355,48.134 47.0660355,50.523 46.6700355,52.219 C46.3140355,51.679 45.9370355,51.15 45.5150355,50.669 M135.469035,62.419 C135.141035,60.863 134.741035,59.389 134.311035,57.897 C133.879035,56.411 133.393035,54.945 132.886035,53.484 C132.366035,52.029 131.827035,50.58 131.229035,49.152 C130.944035,48.433 130.636035,47.724 130.313035,47.021 C130.001035,46.312 129.672035,45.613 129.333035,44.917 C129.003035,44.216 128.657035,43.525 128.297035,42.839 C127.946035,42.15 127.590035,41.462 127.208035,40.789 C126.467035,39.428 125.677035,38.095 124.858035,36.779 L123.581035,34.834 L122.235035,32.936 C121.305035,31.695 120.381035,30.447 119.370035,29.268 C118.397035,28.059 117.333035,26.923 116.270035,25.792 C115.167035,24.701 114.074035,23.597 112.895035,22.582 C112.321035,22.06 111.739035,21.546 111.126035,21.07 C110.518035,20.585 109.927035,20.083 109.307035,19.617 C108.049035,18.705 106.805035,17.777 105.482035,16.966 C104.199035,16.094 102.813035,15.382 101.471035,14.609 L99.3860355,13.582 L98.3420355,13.07 L97.2740355,12.619 C96.5570355,12.321 95.8460355,12.009 95.1280355,11.725 L92.9400355,10.949 C92.5740355,10.822 92.2110355,10.681 91.8420355,10.567 L91.3440355,10.423 C91.4340355,10.207 91.5200355,9.953 91.5690355,9.666 C91.6200355,9.358 91.6880355,9.035 91.7320355,8.703 C91.8330355,8.044 91.8790355,7.369 91.8970355,6.858 C91.9160355,6.345 91.8830355,5.992 91.8830355,5.992 C91.8580355,5.725 91.7250355,5.466 91.4990355,5.285 C91.0570355,4.933 90.4130355,5.006 90.0590355,5.451 C90.0590355,5.451 89.8400355,5.729 89.5750355,6.166 C89.3070355,6.602 88.9790355,7.195 88.7040355,7.8 C88.5570355,8.101 88.4400355,8.41 88.3130355,8.697 C88.1880355,8.981 88.1180355,9.261 88.0770355,9.507 L88.0770355,9.514 C87.6470355,9.408 87.2110355,9.313 86.7740355,9.218 C86.7320355,9.207 86.6920355,9.194 86.6470355,9.189 C85.5740355,8.96 84.4910355,8.75 83.4220355,8.572 C81.7210355,8.308 80.0160355,8.056 78.2990355,7.908 C77.4420355,7.824 76.5850355,7.738 75.7230355,7.692 C74.8640355,7.625 74.0040355,7.576 73.1410355,7.56 C72.2780355,7.53 71.4160355,7.5 70.5490355,7.521 C69.6860355,7.533 68.8190355,7.515 67.9560355,7.576 C67.0920355,7.628 66.2250355,7.64 65.3650355,7.726 L62.7720355,7.978 L60.1910355,8.358 C59.3290355,8.481 58.4800355,8.685 57.6250355,8.857 C56.7680355,9.017 55.9270355,9.251 55.0830355,9.486 C54.2450355,9.72 53.3890355,9.922 52.5710355,10.238 C51.7490355,10.533 50.9120355,10.802 50.0950355,11.123 L47.6750355,12.162 C47.4610355,12.261 47.3040355,12.315 47.0430355,12.453 L46.4760355,12.746 L45.3410355,13.333 C44.5860355,13.736 43.8320355,14.086 43.0740355,14.554 L40.8030355,15.891 C40.0430355,16.333 39.3420355,16.833 38.6100355,17.303 C37.1380355,18.224 35.7680355,19.287 34.3650355,20.306 C33.0170355,21.39 31.6380355,22.441 30.3470355,23.589 C29.0210355,24.701 27.7610355,25.886 26.5020355,27.068 L24.6560355,28.884 L22.8570355,30.748 C21.6770355,32.007 20.5250355,33.294 19.4060355,34.613 C18.2880355,35.941 17.2190355,37.265 16.1660355,38.709 C16.0520355,38.871 15.9670355,39.064 15.9360355,39.272 C15.8260355,39.976 16.3080355,40.633 17.0120355,40.742 L17.0230355,40.744 C17.6940355,40.846 18.4100355,40.976 19.1030355,41.111 C19.8000355,41.246 20.5000355,41.392 21.1940355,41.546 C22.5870355,41.852 23.9700355,42.204 25.3410355,42.59 C28.0840355,43.361 30.7830355,44.279 33.3830355,45.391 C34.0320355,45.669 34.6750355,45.958 35.3070355,46.267 C35.9450355,46.57 36.5660355,46.896 37.1830355,47.23 C37.7890355,47.577 38.4040355,47.914 38.9830355,48.296 C39.5760355,48.661 40.1340355,49.068 40.6990355,49.469 C41.2380355,49.894 41.7780355,50.316 42.2750355,50.781 C42.5370355,51 42.7670355,51.248 43.0050355,51.488 C43.2470355,51.725 43.4780355,51.969 43.6860355,52.23 C44.1310355,52.732 44.5120355,53.273 44.8700355,53.825 C45.0280355,54.109 45.2070355,54.386 45.3530355,54.675 L45.7550355,55.56 L45.7810355,55.62 C45.9840355,56.064 46.4490355,56.356 46.9650355,56.317 C48.0720355,56.23 49.2490355,56.193 50.3960355,56.17 C51.5500355,56.148 52.7090355,56.162 53.8660355,56.179 C56.1820355,56.236 58.4950355,56.375 60.7990355,56.6 C61.9520355,56.71 63.1000355,56.851 64.2490355,57.001 C65.3940355,57.164 66.5380355,57.339 67.6740355,57.544 C68.8110355,57.757 69.9490355,57.968 71.0750355,58.224 C71.8020355,58.375 72.5200355,58.552 73.2410355,58.734 C73.2190355,58.786 73.2020355,58.832 73.1820355,58.888 C72.9930355,59.449 72.7410355,60.195 72.5490355,60.959 C72.3460355,61.72 72.1840355,62.496 72.0920355,63.085 C72.0010355,63.675 71.9750355,64.08 71.9750355,64.08 C71.9490355,64.52 72.1660355,64.961 72.5740355,65.199 C73.1470355,65.531 73.8860355,65.334 74.2170355,64.759 C74.2170355,64.759 74.4200355,64.41 74.6720355,63.868 C74.9240355,63.326 75.2170355,62.591 75.4710355,61.845 C75.7370355,61.103 75.9420355,60.341 76.0940355,59.771 C76.1160355,59.683 76.1330355,59.609 76.1530355,59.529 C76.6900355,59.689 77.2250355,59.853 77.7580355,60.033 C78.8600355,60.372 79.9340355,60.791 81.0140355,61.192 C82.0830355,61.622 83.1490355,62.058 84.1880355,62.554 C84.7150355,62.785 85.2320355,63.039 85.7390355,63.308 C86.2470355,63.576 86.7700355,63.82 87.2660355,64.108 L88.7610355,64.966 C89.2580355,65.255 89.7290355,65.583 90.2130355,65.888 L90.9360355,66.357 L91.6330355,66.861 C92.0940355,67.203 92.5710355,67.523 93.0180355,67.882 C93.9070355,68.605 94.8070355,69.318 95.6290355,70.119 C96.4950355,70.873 97.2450355,71.741 98.0470355,72.56 L98.0750355,72.587 C98.1290355,72.642 98.1920355,72.689 98.2620355,72.73 C98.6720355,72.96 99.1940355,72.816 99.4270355,72.406 C99.7920355,71.757 100.274035,71.058 100.761035,70.417 C101.258035,69.773 101.784035,69.146 102.342035,68.548 C102.903035,67.955 103.483035,67.375 104.103035,66.839 C104.719035,66.3 105.357035,65.785 106.026035,65.314 C106.688035,64.833 107.376035,64.386 108.085035,63.982 C108.436035,63.769 108.799035,63.578 109.161035,63.394 C109.522035,63.201 109.891035,63.022 110.268035,62.862 C111.006035,62.515 111.776035,62.228 112.547035,61.96 L113.719035,61.593 L114.913035,61.291 C115.713035,61.127 116.514035,60.943 117.333035,60.867 C118.145035,60.749 118.965035,60.714 119.786035,60.667 C120.608035,60.66 121.430035,60.636 122.251035,60.693 L123.485035,60.771 C123.893035,60.802 124.303035,60.867 124.711035,60.914 C125.532035,60.992 126.342035,61.16 127.155035,61.306 C127.967035,61.442 128.764035,61.678 129.569035,61.869 C130.364035,62.089 131.153035,62.347 131.944035,62.585 L134.282035,63.435 L134.295035,63.441 C134.444035,63.494 134.612035,63.508 134.778035,63.474 C135.261035,63.373 135.569035,62.9 135.469035,62.419" id="Fill-71" fill="#000000"></path>
            <path d="M55.9292355,12.7436 C53.3792355,13.3886 49.9652355,14.8356 48.2782355,16.9216 C47.6442355,17.7016 48.0132355,19.0296 49.1672355,18.9856 C51.8862355,18.8846 54.4192355,17.1846 56.9942355,16.4206 C59.3862355,15.7106 58.3352355,12.1356 55.9292355,12.7436" id="Fill-73" fill="#FFFFFF"></path>
            <path d="M61.1382355,13.5737 C61.7572355,13.7317 62.1972355,13.5617 62.7722355,13.3547 C63.0902355,13.2417 63.5402355,13.0557 63.8732355,13.0467 C64.7612355,13.0217 65.4332355,11.6797 64.4472355,11.2177 C63.8822355,10.9507 63.3672355,10.7497 62.7322355,10.7867 C61.9252355,10.8317 60.8742355,11.0587 60.4952355,11.8527 C60.1892355,12.4937 60.3422355,13.3707 61.1382355,13.5737" id="Fill-75" fill="#FFFFFF"></path>
            <path d="M21.1910355,126.9517 C20.4050355,126.9517 20.4180355,128.1597 21.2040355,128.1597 C21.9900355,128.1597 21.9780355,126.9517 21.1910355,126.9517" id="Fill-77" fill="#C49B67"></path>
            <path d="M27.6949355,126.2847 C26.3509355,126.2847 26.3739355,128.3437 27.7159355,128.3437 C29.0579355,128.3437 29.0359355,126.2847 27.6949355,126.2847" id="Fill-79" fill="#C49B67"></path>
            <path d="M26.2037355,122.8452 C26.1827355,122.6592 26.1717355,122.5052 26.0617355,122.3462 C25.8317355,122.0082 25.4587355,121.8142 25.0417355,121.8432 C24.0797355,121.9112 23.5007355,123.0562 24.2537355,123.7842 C24.5457355,124.0682 24.9777355,124.1742 25.3667355,124.0642 C25.8997355,123.9132 26.1387355,123.4782 26.1957355,122.9642 C26.1297355,123.5542 26.2217355,122.9662 26.2037355,122.8452" id="Fill-81" fill="#C49B67"></path>
            <path d="M31.5523355,122.8101 C30.3933355,122.8101 30.4113355,124.5871 31.5703355,124.5871 C32.7283355,124.5871 32.7083355,122.8101 31.5523355,122.8101" id="Fill-83" fill="#C49B67"></path>
            <path d="M56.3746355,129.936 C56.1536355,128.652 54.4036355,127.699 53.2746355,127.292 C51.8546355,126.781 50.5466355,126.851 49.2486355,127.63 C48.4666355,128.097 49.0306355,129.16 49.8476355,129.003 C50.8916355,128.804 51.8206355,129.116 52.7286355,129.606 C53.5846355,130.068 54.1746355,131.008 55.1676355,131.154 C55.9496355,131.271 56.5096355,130.72 56.3746355,129.936" id="Fill-85" fill="#C49B67"></path>
            <path d="M59.9908355,136.6821 C58.6908355,136.6821 58.7108355,138.6751 60.0098355,138.6751 C61.3078355,138.6751 61.2888355,136.6821 59.9908355,136.6821" id="Fill-87" fill="#C49B67"></path>
            <path d="M68.7798355,133.2261 C68.2758355,132.6951 67.3308355,132.8841 67.0418355,133.5481 C66.7758355,134.1581 66.9778355,134.8831 67.6838355,135.0681 C68.0478355,135.1621 68.4398355,135.0541 68.7058355,134.7891 C68.8658355,134.6281 68.9398355,134.4491 68.9688355,134.2591 C69.1098355,133.9291 69.0668355,133.5291 68.7798355,133.2261" id="Fill-89" fill="#C49B67"></path>
            <path d="M83.1275355,135.7661 C81.8935355,135.7661 81.9155355,137.6621 83.1475355,137.6621 C84.3815355,137.6621 84.3615355,135.7661 83.1275355,135.7661" id="Fill-91" fill="#C49B67"></path>
            <path d="M95.2232355,131.7925 C94.8952355,131.6085 94.5572355,131.6245 94.2522355,131.7595 C93.7332355,131.8635 93.3272355,132.3145 93.3282355,132.8675 C93.3382355,133.6295 94.0742355,134.1055 94.7782355,133.9385 C95.2482355,133.8255 95.6102355,133.4795 95.7392355,133.0155 C95.8682355,132.5425 95.6452355,132.0325 95.2232355,131.7925" id="Fill-93" fill="#C49B67"></path>
            <path d="M109.912635,128.5024 C109.338635,128.3524 108.527635,128.8194 108.625635,129.4934 C108.636635,129.5654 108.646635,129.6444 108.658635,129.7164 C108.723635,130.1614 108.928635,130.5344 109.394635,130.6554 C109.867635,130.7784 110.533635,130.4934 110.609635,129.9564 C110.619635,129.8864 110.629635,129.8124 110.641635,129.7434 C110.721635,129.1924 110.496635,128.6544 109.912635,128.5024" id="Fill-95" fill="#C49B67"></path>
            <path d="M103.857035,132.3921 C102.622035,132.3921 102.643035,134.2871 103.876035,134.2871 C105.108035,134.2871 105.088035,132.3921 103.857035,132.3921" id="Fill-97" fill="#C49B67"></path>
            <path d="M96.6236355,135.7495 C95.0526355,135.7495 95.0766355,138.1615 96.6466355,138.1615 C98.2216355,138.1615 98.1936355,135.7495 96.6236355,135.7495" id="Fill-99" fill="#C49B67"></path>
            <path d="M74.9341355,131.5034 C74.4591355,131.4824 74.0571355,131.9244 74.0631355,132.3844 C74.0631355,132.6984 74.2371355,132.9394 74.4781355,133.0874 C74.6271355,133.3264 74.8641355,133.4914 75.1941355,133.4874 C75.6251355,133.4834 76.1271355,133.0854 76.0651355,132.6074 C75.9821355,131.9704 75.5961355,131.5344 74.9341355,131.5034" id="Fill-101" fill="#C49B67"></path>
            <path d="M36.5855355,131.6802 C36.0015355,131.0392 34.9075355,131.5682 34.9155355,132.3862 C34.9235355,133.2142 36.0215355,133.6942 36.6015355,133.0562 C37.0145355,132.6032 37.0045355,132.1402 36.5855355,131.6802" id="Fill-103" fill="#C49B67"></path>
            <path d="M38.4820355,125.4487 C38.4080355,125.3637 38.3320355,125.2767 38.2550355,125.1927 C37.6930355,124.5537 36.6210355,125.0907 36.6280355,125.8797 C36.6360355,126.6767 37.7120355,127.1647 38.2690355,126.5307 L38.4920355,126.2797 C38.7160355,126.0227 38.7060355,125.6997 38.4820355,125.4487" id="Fill-105" fill="#C49B67"></path>
            <path d="M40.2251355,119.2515 C39.6401355,119.2515 39.1471355,119.7505 39.1531355,120.3375 C39.1601355,120.9295 39.6621355,121.3975 40.2481355,121.3975 C40.8331355,121.3975 41.3281355,120.8975 41.3221355,120.3135 C41.3141355,119.7195 40.8121355,119.2515 40.2251355,119.2515" id="Fill-107" fill="#C49B67"></path>
            <path d="M15.7496355,120.8042 C15.4706355,120.7912 15.1046355,120.9172 14.9236355,120.9422 C14.6596355,120.9802 14.4326355,121.1012 14.3566355,121.3782 C14.2806355,121.6612 14.4586355,122.0542 14.7786355,122.0952 C15.0886355,122.1402 15.3826355,122.1992 15.6896355,122.1312 C16.1066355,122.0392 16.3866355,121.6382 16.3246355,121.2282 C16.2816355,120.9582 15.9986355,120.8192 15.7496355,120.8042" id="Fill-109" fill="#C49B67"></path>
            <path d="M42.7515355,134.4155 C42.3295355,134.4995 41.8455355,134.7875 41.4805355,135.0155 C40.6715355,135.5215 41.2155355,136.8995 42.1605355,136.5715 C42.5955355,136.4215 43.1285355,136.4095 43.5035355,136.1335 C44.3845355,135.4885 43.8295355,134.1965 42.7515355,134.4155" id="Fill-111" fill="#C49B67"></path>
        </g>
    </g>
</svg>