<?xml version="1.0" encoding="UTF-8"?>
<svg width="160px" height="105px" viewBox="0 0 160 105" version="1.1" xmlns="http://www.w3.org/2000/svg" xmlns:xlink="http://www.w3.org/1999/xlink">
    <!-- Generator: Sketch 53.1 (72631) - https://sketchapp.com -->
    <title>Group 78sticker14</title>
    <desc>Created with Sketch.</desc>
    <g id="Page-1" stroke="none" stroke-width="1" fill="none" fill-rule="evenodd">
        <g id="Group-78" transform="translate(0.081578, 0.830103)">
            <path d="M88.5541224,52.824497 C88.3861224,54.194497 88.2081224,56.099497 88.1671224,58.252497 C88.0251224,58.490497 87.9021224,58.737497 87.7881224,58.991497 C87.4951224,58.829497 87.1891224,58.680497 86.8651224,58.568497 C84.6671224,57.837497 82.5031224,57.751497 80.4291224,58.311497 C77.7221224,59.044497 75.5601224,60.820497 74.0081224,63.117497 C73.2031224,62.681497 72.3411224,62.383497 71.4501224,62.203497 C71.4971224,62.156497 71.5431224,62.107497 71.5881224,62.057497 C71.6831224,61.951497 71.7731224,61.845497 71.8641224,61.740497 C72.1551224,61.398497 72.4391224,61.046497 72.7371224,60.666497 L72.9021224,60.449497 C73.1801224,60.087497 73.4481224,59.714497 73.7011224,59.340497 C73.8061224,59.191497 73.9021224,59.046497 74.0051224,58.897497 C74.2581224,58.511497 74.5101224,58.119497 74.7561224,57.716497 C74.8321224,57.598497 75.0431224,57.231497 75.0431224,57.231497 C75.2001224,56.959497 75.3581224,56.685497 75.5131224,56.408497 C75.6221224,56.203497 75.7351224,55.999497 75.8461224,55.791497 C76.0411224,55.424497 76.2311224,55.048497 76.4121224,54.674497 C76.5271224,54.436497 76.6391224,54.199497 76.7771224,53.896497 C76.8611224,53.714497 76.9431224,53.526497 77.0211224,53.351497 C77.2921224,52.742497 77.5461224,52.125497 77.7831224,51.516497 C77.7881224,51.510497 77.7921224,51.489497 77.7961224,51.486497 C77.9271224,51.143497 78.0561224,50.796497 78.1811224,50.449497 L78.2381224,50.285497 C80.1461224,44.875497 80.9021224,39.271497 80.4131224,34.479497 C80.4151224,34.480497 80.4971224,34.378497 80.5381224,34.325497 C80.5751224,34.298497 80.7081224,34.201497 80.7381224,34.179497 C80.8061224,34.147497 80.8761224,34.110497 80.9561224,34.069497 L81.1611224,33.998497 L81.2491224,33.984497 C81.2691224,34.002497 81.2921224,34.017497 81.3121224,34.037497 C83.4291224,39.045497 87.5361224,43.955497 92.5951224,47.689497 C90.4061224,48.531497 88.8431224,50.473497 88.5541224,52.824497 M156.478122,37.013497 C154.814122,35.664497 152.599122,35.191497 150.560122,35.740497 C149.066122,36.143497 147.753122,37.077497 146.863122,38.365497 C144.954122,41.123497 144.066122,44.285497 143.447122,47.014497 C143.382122,47.291497 143.306122,47.588497 143.232122,47.890497 C142.242122,47.705497 141.302122,47.728497 140.527122,47.831497 C140.111122,47.886497 139.699122,47.970497 139.292122,48.084497 C138.423122,48.314497 137.611122,48.660497 136.853122,49.116497 C135.394122,48.287497 133.652122,48.057497 131.976122,48.513497 C130.843122,48.817497 129.820122,49.416497 129.001122,50.219497 C128.103122,49.637497 127.101122,49.172497 125.995122,48.868497 C125.050122,48.605497 124.083122,48.530497 123.134122,48.603497 C123.343122,48.427497 123.554122,48.253497 123.759122,48.068497 C123.878122,47.963497 123.993122,47.857497 124.120122,47.743497 C124.495122,47.388497 124.865122,47.029497 125.234122,46.651497 C125.320122,46.561497 125.548122,46.309497 125.548122,46.309497 C125.831122,46.006497 126.111122,45.695497 126.376122,45.387497 C126.376122,45.387497 126.617122,45.112497 126.697122,45.016497 C127.013122,44.633497 127.322122,44.243497 127.626122,43.843497 C127.738122,43.694497 127.853122,43.539497 127.974122,43.372497 C128.222122,43.033497 128.464122,42.689497 128.699122,42.339497 C133.378122,35.394497 135.558122,26.574497 134.386122,19.327497 C134.314122,18.855497 134.212122,18.365497 134.083122,17.783497 L134.011122,17.500497 C133.898122,17.034497 133.759122,16.553497 133.601122,16.067497 L133.505122,15.785497 C133.503122,15.184497 133.417122,14.576497 133.234122,13.980497 C132.956122,13.063497 132.519122,12.089497 131.925122,11.066497 C131.425122,10.213497 130.810122,9.39649701 130.034122,8.55349701 C129.357122,7.81849701 128.574122,7.14649701 127.654122,6.50149701 C127.615122,6.47049701 127.574122,6.44149701 127.531122,6.41549701 C126.572122,5.77849701 125.661122,5.29949701 124.755122,4.95149701 C123.724122,4.52749701 122.749122,4.31449701 121.913122,4.14449701 C121.845122,4.13149701 121.779122,4.12149701 121.712122,4.10749701 C120.851122,3.96749701 119.995122,3.88849701 119.079122,3.86349701 C118.556122,3.84449701 117.587122,3.83349701 116.568122,3.94049701 C108.859122,2.05449701 100.861122,0.76949701 93.3571224,0.21549701 C89.6421224,-0.0615029899 85.3311224,-0.25950299 81.1791224,0.86049701 C80.0071224,1.17849701 78.8921224,1.59249701 77.8701224,2.09249701 C74.7301224,3.62549701 72.3551224,6.40549701 71.5221224,9.52649701 C70.7971224,12.216497 71.2621224,14.970497 72.8281224,17.293497 C74.2761224,19.438497 76.8471224,20.500497 79.3571224,20.039497 C79.2511224,20.335497 79.1561224,20.635497 79.0701224,20.933497 L78.9781224,20.951497 C78.7021224,20.990497 78.2381224,21.063497 77.7041224,21.205497 C77.5461224,21.248497 77.3881224,21.296497 77.2341224,21.348497 L76.4711224,21.576497 C76.2311224,21.647497 76.0121224,21.727497 75.8211224,21.803497 C75.2181224,21.226497 74.5761224,20.700497 73.8981224,20.237497 C72.9161224,19.552497 71.8011224,18.981497 70.6331224,18.560497 C69.4921224,18.140497 68.3061224,17.864497 67.1001224,17.741497 C65.9061224,17.592497 64.8191224,17.644497 63.8231224,17.719497 C63.6761224,17.730497 63.5371224,17.747497 63.3931224,17.769497 L63.1291224,17.806497 C62.7951224,17.852497 62.3791224,17.909497 61.9751224,18.001497 L61.1721224,18.174497 C61.0861224,18.191497 60.9961224,18.213497 60.9121224,18.237497 C60.8781224,18.247497 60.5751224,18.336497 60.5751224,18.336497 C58.6471224,18.873497 56.8001224,19.796497 54.8921224,21.178497 C53.4211224,22.257497 52.0551224,23.553497 50.8301224,25.025497 C50.3611224,25.580497 49.9081224,26.166497 49.4641224,26.793497 C48.9511224,26.573497 48.4381224,26.377497 47.9221224,26.206497 C47.0891224,25.916497 46.2031224,25.689497 45.2311224,25.511497 C44.1991224,25.318497 43.2271224,25.261497 42.4081224,25.229497 C42.3221224,25.225497 42.2331224,25.225497 42.1471224,25.224497 C41.2931224,25.234497 40.2831224,25.272497 39.1671224,25.486497 C38.6961224,25.567497 38.2181224,25.673497 37.7381224,25.801497 C37.2631224,25.928497 36.7751224,26.084497 36.2811224,26.263497 C36.1721224,26.303497 36.0631224,26.346497 35.9551224,26.393497 L35.8031224,26.453497 C35.5181224,26.569497 35.0921224,26.739497 34.5981224,27.005497 L34.5211224,27.046497 C34.1801224,27.225497 33.7601224,27.443497 33.3451224,27.711497 L33.0181224,27.915497 C32.9751224,27.939497 32.7581224,28.081497 32.7581224,28.081497 C32.7011224,28.117497 32.3101224,28.392497 32.3101224,28.392497 C31.9511224,28.643497 31.5891224,28.919497 31.2331224,29.214497 C30.4491224,29.834497 29.8011224,30.484497 29.3061224,31.008497 C27.5731224,30.460497 25.8501224,29.956497 24.1601224,29.501497 C19.4301224,28.225497 13.9351224,26.983497 8.59812243,28.428497 C5.22212243,29.343497 2.36612243,31.624497 0.959122427,34.532497 C-0.254877573,37.036497 -0.318877573,39.832497 0.781122427,42.402497 C2.04112243,45.352497 5.31812243,46.945497 8.40612243,46.110497 C10.1521224,45.639497 11.6261224,44.440497 12.4531224,42.826497 C12.6661224,42.415497 12.8181224,42.140497 12.9261224,41.957497 C13.0821224,41.948497 13.2881224,41.935497 13.5681224,41.932497 C16.6151224,41.900497 20.1371224,42.995497 23.5421224,44.053497 L23.8331224,44.144497 C24.4681224,44.341497 25.1191224,44.554497 25.8111224,44.789497 L25.8441224,44.901497 C25.8671224,45.000497 25.8941224,45.097497 25.9241224,45.192497 C26.0331224,45.538497 26.1581224,45.865497 26.2841224,46.194497 L26.3561224,46.378497 C26.5231224,46.817497 26.7381224,47.230497 26.9891224,47.609497 C27.0341224,47.792497 27.0841224,47.977497 27.1411224,48.174497 C27.1761224,48.302497 27.2151224,48.431497 27.2511224,48.554497 C27.3841224,48.984497 27.5331224,49.410497 27.7011224,49.846497 C27.7671224,50.018497 27.8351224,50.190497 27.9081224,50.368497 C28.0721224,50.761497 28.2431224,51.153497 28.4311224,51.549497 C28.5051224,51.702497 28.5841224,51.853497 28.6631224,52.006497 L28.7081224,52.093497 C28.8431224,52.353497 28.9831224,52.615497 29.1231224,52.864497 C29.2831224,53.149497 29.4471224,53.428497 29.6251224,53.719497 C29.7681224,53.952497 29.9161224,54.184497 30.0651224,54.412497 C30.2091224,54.633497 30.3581224,54.854497 30.5141224,55.076497 C30.7021224,55.344497 30.8981224,55.611497 31.0931224,55.871497 C31.2891224,56.131497 31.4921224,56.387497 31.7051224,56.646497 L32.0001224,57.003497 C32.3341224,57.400497 32.6841224,57.794497 33.0691224,58.210497 L33.2721224,58.425497 C34.4221224,59.634497 35.7001224,60.775497 37.0551224,61.818497 L37.1501224,61.892497 C40.1471224,64.177497 43.5251224,65.964497 46.9801224,67.130497 C46.5591224,67.083497 46.1661224,67.041497 45.8061224,67.007497 C44.5091224,66.581497 43.0851224,66.515497 41.7101224,66.887497 C38.8621224,67.655497 36.9061224,70.083497 36.7251224,73.066497 C36.5681224,75.684497 36.9211224,78.328497 37.4021224,80.824497 C35.6561224,79.090497 33.2951224,77.162497 30.2401224,76.842497 C29.4261224,76.757497 28.6061224,76.818497 27.8141224,77.036497 C24.4471224,77.945497 22.3221224,81.313497 22.9761224,84.704497 C23.8101224,89.035497 27.5561224,92.178497 30.5641224,94.704497 C31.1211224,95.170497 31.6471224,95.613497 32.0041224,95.942497 L32.2971224,96.217497 C35.3331224,99.034497 39.4911224,102.897497 45.1221224,103.428497 C46.2971224,103.537497 47.4301224,103.448497 48.4841224,103.163497 C51.6141224,102.318497 53.7301224,99.912497 54.5291224,96.627497 C55.3131224,96.607497 56.1051224,96.493497 56.8891224,96.284497 C59.1971224,95.658497 61.0731224,94.304497 62.4411224,92.997497 C63.5581224,93.056497 64.6611224,92.945497 65.7181224,92.658497 C67.2491224,92.244497 68.5971224,91.483497 69.7311224,90.449497 C70.6011224,90.594497 71.4921224,90.645497 72.3761224,90.597497 C72.4241224,90.595497 72.7171224,90.576497 72.7171224,90.576497 C72.9681224,90.562497 73.1711224,90.549497 73.4931224,90.512497 C73.9641224,90.461497 74.3501224,90.388497 74.6121224,90.336497 C74.6121224,90.336497 74.9091224,90.281497 74.9871224,90.262497 C75.1851224,90.218497 75.3801224,90.169497 75.5761224,90.117497 C76.3931224,89.897497 77.1611224,89.605497 77.9111224,89.233497 C79.4781224,88.434497 80.8551224,87.252497 81.8761224,85.841497 C82.8181224,85.866497 83.7711224,85.753497 84.7081224,85.498497 C86.9641224,84.889497 88.7961224,83.575497 90.1401224,82.303497 C91.2261224,82.355497 92.2901224,82.244497 93.3181224,81.965497 C95.1891224,81.460497 96.7841224,80.436497 98.0401224,79.007497 C100.130122,79.809497 102.320122,79.944497 104.450122,79.368497 L104.454122,79.369497 C106.642122,78.776497 108.452122,77.542497 109.923122,76.039497 C111.476122,77.080497 113.265122,77.591497 115.187122,77.497497 C115.771122,77.469497 116.355122,77.377497 116.923122,77.225497 L116.925122,77.224497 C118.777122,76.720497 120.267122,75.642497 121.419122,74.345497 C122.896122,74.707497 124.464122,74.740497 126.052122,74.310497 C126.495122,74.190497 126.935122,74.032497 127.359122,73.849497 C129.126122,73.065497 130.642122,71.873497 131.835122,70.357497 C131.995122,70.488497 132.163122,70.610497 132.335122,70.727497 C133.990122,71.832497 136.034122,72.170497 137.949122,71.653497 C138.925122,71.387497 139.804122,70.916497 140.538122,70.284497 C142.220122,71.665497 144.458122,72.156497 146.634122,71.566497 C147.544122,71.319497 148.361122,70.902497 149.060122,70.363497 C149.111122,70.367497 149.159122,70.380497 149.212122,70.386497 C150.111122,70.482497 151.060122,70.407497 151.956122,70.164497 C153.839122,69.654497 155.384122,68.483497 156.300122,66.862497 C156.839122,65.906497 157.173122,64.998497 157.370122,63.925497 C157.736122,61.946497 157.226122,59.923497 156.070122,58.300497 C157.003122,56.227497 157.142122,54.192497 157.242122,52.639497 C157.275122,52.125497 157.306122,51.639497 157.361122,51.260497 C157.490122,50.370497 157.722122,49.386497 157.970122,48.343497 C158.378122,46.628497 158.845122,44.682497 158.960122,42.575497 C159.072122,40.439497 158.148122,38.363497 156.478122,37.013497" id="Fill-1" fill="#FFFFFF"></path>
            <path d="M118.177222,10.143797 C110.031222,7.95779701 101.347222,6.43679701 92.9472224,5.81479701 C88.9062224,5.51679701 84.0852224,5.30679701 80.3372224,7.13879701 C77.8392224,8.35679701 75.6522224,11.437797 77.4822224,14.152797 C77.8782224,14.738797 78.7772224,14.624797 78.9782224,13.931797 C79.9022224,10.780797 80.7302224,9.61479701 84.1812224,8.91479701 C88.1342224,8.11379701 92.4542224,8.62879701 96.4212224,9.07579701 C100.804222,9.56479701 105.154222,10.402797 109.472222,11.289797 C112.210222,11.854797 115.019222,12.747797 117.812222,12.966797 C119.482222,13.099797 119.722222,10.557797 118.177222,10.143797" id="Fill-3" fill="#000000"></path>
            <path d="M46.6645224,43.930897 C39.0725224,40.246897 30.8375224,37.118897 22.6985224,34.923897 C18.7885224,33.870897 14.0935224,32.755897 10.0675224,33.847897 C7.38552243,34.575897 4.65652243,37.185897 5.94352243,40.197897 C6.22252243,40.847897 7.12652243,40.907897 7.45652243,40.263897 C8.95452243,37.342897 9.98852243,36.353897 13.5085224,36.315897 C17.5435224,36.273897 21.6885224,37.597897 25.4995224,38.780897 C29.7125224,40.088897 33.8265224,41.729897 37.8985224,43.415897 C40.4835224,44.482897 43.0745224,45.889897 45.7745224,46.632897 C47.3895224,47.077897 48.1055224,44.626897 46.6645224,43.930897" id="Fill-5" fill="#000000"></path>
            <path d="M72.1840224,32.721897 C72.1890224,32.716897 72.1630224,32.652897 72.1710224,32.486897 C72.1750224,32.321897 72.1970224,32.084897 72.2500224,31.821897 C72.2970224,31.542897 72.4000224,31.234897 72.5410224,30.883897 C72.6980224,30.547897 72.8760224,30.159897 73.1660224,29.808897 C73.3020224,29.624897 73.4640224,29.448897 73.6340224,29.272897 C73.8220224,29.107897 74.0230224,28.950897 74.2380224,28.793897 C74.6590224,28.482897 75.1550224,28.210897 75.6180224,27.888897 C76.1190224,27.608897 76.6170224,27.293897 77.1810224,27.079897 C77.4580224,26.966897 77.7260224,26.824897 78.0170224,26.736897 L78.8920224,26.479897 C79.4700224,26.283897 80.0850224,26.254897 80.6710224,26.139897 C81.2590224,26.096897 81.8410224,26.097897 82.4060224,26.081897 C82.9580224,26.135897 83.4970224,26.188897 84.0050224,26.236897 C84.5090224,26.306897 84.9560224,26.473897 85.3720224,26.611897 C85.5780224,26.688897 85.7730224,26.761897 85.9600224,26.830897 C86.1440224,26.909897 86.3000224,27.013897 86.4560224,27.094897 C86.7590224,27.273897 87.0210224,27.433897 87.2320224,27.572897 C87.6500224,27.856897 87.8720224,28.034897 87.8720224,28.034897 C88.2160224,28.311897 88.2710224,28.814897 87.9960224,29.159897 C87.8220224,29.373897 87.5620224,29.476897 87.3100224,29.456897 L87.2030224,29.448897 C87.2030224,29.448897 86.9290224,29.423897 86.4760224,29.354897 C86.2530224,29.319897 85.9880224,29.265897 85.6870224,29.195897 C85.3920224,29.107897 85.0540224,29.059897 84.6910224,29.005897 C84.3280224,28.956897 83.9470224,28.837897 83.5460224,28.752897 C83.1400224,28.687897 82.7140224,28.617897 82.2710224,28.542897 C81.8330224,28.553897 81.3760224,28.544897 80.9150224,28.566897 C80.4700224,28.665897 79.9970224,28.683897 79.5640224,28.847897 C79.1220224,28.988897 78.6910224,29.151897 78.2980224,29.384897 C77.8840224,29.572897 77.5400224,29.878897 77.1870224,30.120897 C76.8590224,30.412897 76.5590224,30.708897 76.3300224,31.043897 C76.0870224,31.365897 75.8510224,31.651897 75.6040224,31.898897 C75.3460224,32.133897 75.1190224,32.367897 74.8690224,32.539897 C74.6550224,32.735897 74.4180224,32.888897 74.2390224,33.018897 C74.0450224,33.154897 73.8890224,33.239897 73.7810224,33.297897 C73.6640224,33.351897 73.5850224,33.409897 73.5890224,33.404897 C73.2020224,33.685897 72.6590224,33.598897 72.3760224,33.209897 C72.3160224,33.126897 72.2730224,33.035897 72.2470224,32.942897 L72.1840224,32.721897 Z" id="Fill-7" fill="#000000"></path>
            <path d="M51.9516224,36.288297 C51.9516224,36.288297 40.5826224,26.649297 33.8706224,36.939297 C25.7656224,49.370297 45.9296224,66.781297 61.4186224,62.449297 C73.0516224,59.195297 81.1396224,30.213297 68.7346224,25.423297 C56.3296224,20.633297 51.9516224,36.288297 51.9516224,36.288297" id="Fill-9" fill="#F97000"></path>
            <path d="M51.9516224,36.288297 C51.9516224,36.288297 40.5826224,26.649297 33.8706224,36.939297 C25.7656224,49.370297 45.9296224,66.781297 61.4186224,62.449297 C73.0516224,59.195297 81.1396224,30.213297 68.7346224,25.423297 C56.3296224,20.633297 51.9516224,36.288297 51.9516224,36.288297 Z" id="Stroke-11" stroke="#000000" stroke-width="2"></path>
            <path d="M107.112722,21.382097 C107.112722,21.382097 111.663722,5.82609701 122.725722,11.172097 C135.272722,17.236097 127.917722,44.095097 112.352722,48.154097 C100.665722,51.203097 78.8547224,32.723097 87.1437224,20.448097 C94.0837224,10.172097 107.112722,21.382097 107.112722,21.382097" id="Fill-13" fill="#F97000"></path>
            <path d="M107.112722,21.382097 C107.112722,21.382097 111.663722,5.82609701 122.725722,11.172097 C135.272722,17.236097 127.917722,44.095097 112.352722,48.154097 C100.665722,51.203097 78.8547224,32.723097 87.1437224,20.448097 C94.0837224,10.172097 107.112722,21.382097 107.112722,21.382097 Z" id="Stroke-15" stroke="#000000" stroke-width="2"></path>
            <path d="M31.4653224,44.411397 C31.3463224,44.125397 31.2213224,43.851397 31.1163224,43.555397 C31.0173224,43.228397 30.9103224,42.890397 30.8433224,42.557397 C30.7023224,41.895397 30.6203224,41.205397 30.6463224,40.500397 C30.6633224,39.795397 30.7803224,39.078397 30.9853224,38.390397 C31.2053224,37.703397 31.4843224,37.031397 31.8583224,36.428397 C32.2213224,35.818397 32.6423224,35.256397 33.1023224,34.744397 C33.5693224,34.244397 34.0513224,33.762397 34.5723224,33.355397 C34.8293224,33.142397 35.0893224,32.939397 35.3583224,32.754397 L35.5603224,32.611397 L35.6593224,32.541397 L35.8093224,32.446397 L36.1963224,32.210397 C36.4253224,32.057397 36.7873224,31.874397 37.1093224,31.707397 C37.4423224,31.526397 37.7603224,31.425397 38.0853224,31.286397 C38.7473224,31.052397 39.4263224,30.861397 40.1163224,30.752397 C40.8043224,30.617397 41.5043224,30.589397 42.1963224,30.587397 C43.5763224,30.621397 44.9323224,30.853397 46.1933224,31.289397 C47.4593224,31.713397 48.6393224,32.304397 49.7363224,32.994397 C50.2833224,33.343397 50.8143224,33.715397 51.3253224,34.110397 C51.8433224,34.516397 52.3093224,34.905397 52.8223224,35.413397 L50.7673224,35.951397 C51.0083224,35.211397 51.2773224,34.586397 51.5723224,33.926397 C51.8673224,33.277397 52.1913224,32.643397 52.5493224,32.031397 C53.2693224,30.806397 54.0693224,29.623397 55.0053224,28.540397 C55.9203224,27.446397 56.9593224,26.444397 58.1303224,25.577397 C59.3013224,24.725397 60.6103224,23.966397 62.0673224,23.548397 L62.3383224,23.467397 L62.6223224,23.401397 L63.1223224,23.288397 C63.4473224,23.211397 63.8633224,23.165397 64.2353224,23.104397 C64.9813224,23.043397 65.7353224,22.996397 66.5003224,23.097397 C67.2603224,23.167397 68.0233224,23.338397 68.7513224,23.611397 C69.4853224,23.875397 70.1933224,24.221397 70.8293224,24.671397 C72.1133224,25.553397 73.1413224,26.734397 73.8793224,28.023397 C74.2473224,28.671397 74.5563224,29.342397 74.7933224,30.035397 C75.0333224,30.736397 75.2213224,31.407397 75.3223224,32.188397 C75.3793224,32.616397 75.0753224,33.009397 74.6483224,33.065397 C74.2793224,33.113397 73.9353224,32.895397 73.8133224,32.560397 L73.7893224,32.496397 C73.5883224,31.951397 73.3303224,31.331397 73.0413224,30.780397 C72.7393224,30.223397 72.4213224,29.683397 72.0593224,29.182397 C71.3393224,28.179397 70.4753224,27.324397 69.4883224,26.705397 C68.5043224,26.077397 67.3873224,25.717397 66.2093224,25.562397 C65.6223224,25.480397 65.0103224,25.456397 64.3993224,25.462397 C64.0933224,25.480397 63.8303224,25.462397 63.4863224,25.503397 L62.9793224,25.557397 L62.7603224,25.579397 L62.5373224,25.615397 C61.9333224,25.691397 61.3423224,25.860397 60.7553224,26.069397 C60.1713224,26.275397 59.6163224,26.586397 59.0923224,26.935397 C58.5623224,27.280397 58.0833224,27.709397 57.6263224,28.156397 C57.1663224,28.601397 56.7623224,29.107397 56.3763224,29.625397 C55.6163224,30.674397 54.9813224,31.818397 54.4533224,33.010397 C54.1923224,33.603397 53.9463224,34.205397 53.7193224,34.813397 C53.4993224,35.413397 53.2913224,36.063397 53.1413224,36.626397 C52.9673224,37.277397 52.3003224,37.667397 51.6483224,37.494397 C51.4513224,37.440397 51.2783224,37.343397 51.1383224,37.216397 L51.0833224,37.165397 C50.7213224,36.833397 50.2513224,36.454397 49.8043224,36.129397 C49.3463224,35.798397 48.8723224,35.487397 48.3883224,35.201397 C47.4143224,34.640397 46.4023224,34.160397 45.3603224,33.838397 C44.3223224,33.514397 43.2603224,33.336397 42.2183224,33.372397 C41.7013224,33.411397 41.1853224,33.458397 40.6933224,33.592397 C40.1933224,33.707397 39.7173224,33.901397 39.2513224,34.112397 C39.0323224,34.233397 38.7783224,34.341397 38.5843224,34.466397 C38.3763224,34.593397 38.1973224,34.678397 37.9303224,34.876397 L37.5543224,35.134397 L37.2683224,35.357397 C37.0453224,35.523397 36.8223224,35.688397 36.6143224,35.865397 C36.1903224,36.210397 35.7843224,36.559397 35.4113224,36.931397 C35.0383224,37.298397 34.6903224,37.679397 34.3983224,38.086397 C34.1013224,38.491397 33.8423224,38.910397 33.6333224,39.358397 C33.4343224,39.809397 33.2453224,40.274397 33.1523224,40.776397 C33.0163224,41.274397 32.9843224,41.803397 32.9453224,42.344397 C32.9303224,42.614397 32.9443224,42.871397 32.9313224,43.144397 L32.9883224,44.058397 C33.0163224,44.495397 32.6843224,44.872397 32.2463224,44.898397 C31.9003224,44.921397 31.5923224,44.714397 31.4653224,44.411397" id="Fill-19" fill="#000000"></path>
            <path d="M126.644022,16.346897 C126.191022,15.903897 125.828022,15.587897 125.417022,15.224897 C125.019022,14.878897 124.607022,14.566897 124.197022,14.276897 C123.785022,13.988897 123.359022,13.742897 122.933022,13.503897 C122.492022,13.296897 122.062022,13.075897 121.603022,12.906897 C121.150022,12.732897 120.691022,12.552897 120.205022,12.425897 C119.734022,12.306897 119.199022,12.167897 118.736022,12.123897 C118.097022,12.069897 117.728022,12.065897 117.212022,12.102897 C116.714022,12.132897 116.220022,12.215897 115.736022,12.347897 C113.800022,12.865897 112.072022,14.131897 110.660022,15.734897 C109.953022,16.536897 109.316022,17.422897 108.755022,18.363897 C108.474022,18.831897 108.216022,19.315897 107.966022,19.803897 C107.720022,20.279897 107.474022,20.807897 107.296022,21.256897 L107.257022,21.348897 C107.025022,21.937897 106.357022,22.223897 105.769022,21.989897 C105.613022,21.926897 105.470022,21.827897 105.361022,21.710897 C104.980022,21.308897 104.482022,20.873897 104.015022,20.469897 C103.537022,20.065897 103.037022,19.679897 102.521022,19.320897 C101.484022,18.613897 100.384022,17.977897 99.2080224,17.553897 C98.0400224,17.118897 96.8080224,16.856897 95.5830224,16.880897 C94.9740224,16.883897 94.3670224,16.960897 93.7850224,17.111897 C93.2050224,17.238897 92.6190224,17.452897 92.1050224,17.677897 C91.4580224,17.954897 90.9800224,18.207897 90.4720224,18.516897 C89.9510224,18.807897 89.4920224,19.165897 89.0330224,19.514897 C88.6030224,19.894897 88.1830224,20.280897 87.8310224,20.720897 C87.4820224,21.161897 87.1810224,21.639897 86.9230224,22.145897 C86.4210224,23.162897 86.1360224,24.312897 86.0370224,25.508897 C85.9840224,26.107897 85.9780224,26.716897 86.0030224,27.331897 C86.0330224,27.936897 86.1170224,28.584897 86.2160224,29.137897 L86.2280224,29.201897 C86.3040224,29.628897 86.0210224,30.034897 85.5950224,30.109897 C85.2280224,30.175897 84.8760224,29.974897 84.7380224,29.643897 C84.4410224,28.936897 84.2690224,28.282897 84.1230224,27.576897 C83.9800224,26.879897 83.9040224,26.167897 83.8900224,25.447897 C83.8670224,24.003897 84.1130224,22.511897 84.7240224,21.128897 C85.3280224,19.743897 86.2960224,18.510897 87.4640224,17.578897 C88.0560224,17.126897 88.6810224,16.713897 89.3350224,16.406897 C89.9860224,16.076897 90.7340224,15.822897 91.3280224,15.642897 C92.0540224,15.424897 92.7480224,15.282897 93.4760224,15.211897 C94.1950224,15.138897 94.9140224,15.134897 95.6240224,15.173897 C97.0460224,15.247897 98.4330224,15.529897 99.7590224,15.961897 C101.083022,16.398897 102.367022,16.947897 103.570022,17.635897 C104.175022,17.974897 104.763022,18.342897 105.335022,18.735897 C105.919022,19.135897 106.443022,19.542897 107.013022,20.057897 L105.080022,20.512897 C105.287022,19.865897 105.505022,19.325897 105.753022,18.750897 C106.001022,18.190897 106.287022,17.645897 106.587022,17.107897 C107.187022,16.034897 107.882022,15.003897 108.687022,14.041897 C110.281022,12.125897 112.417022,10.459897 114.980022,9.70889701 C115.615022,9.52789701 116.263022,9.36489701 116.921022,9.29489701 C117.560022,9.20089701 118.357022,9.19289701 118.874022,9.20789701 C119.580022,9.22489701 120.193022,9.26389701 120.859022,9.36989701 C121.507022,9.49889701 122.169022,9.63089701 122.794022,9.89789701 C123.425022,10.132897 124.021022,10.475897 124.580022,10.855897 C125.130022,11.247897 125.648022,11.683897 126.091022,12.178897 C126.537022,12.676897 126.935022,13.203897 127.248022,13.773897 C127.558022,14.325897 127.849022,14.973897 127.982022,15.531897 L127.994022,15.582897 C128.095022,16.017897 127.828022,16.451897 127.392022,16.553897 C127.117022,16.619897 126.835022,16.528897 126.644022,16.346897" id="Fill-21" fill="#000000"></path>
            <path d="M49.0092224,91.215097 C48.4322224,88.482097 47.7502224,85.858097 47.3162224,83.078097 C46.8102224,79.836097 46.6262224,75.837097 44.9012224,72.992097 C44.2792224,71.968097 42.4182224,71.946097 42.3292224,73.404097 C42.0602224,77.878097 43.7942224,82.950097 44.4562224,87.408097 C44.6742224,88.875097 45.2172224,90.326097 45.5622224,91.770097 C46.0852224,93.961097 45.7172224,94.776097 43.5792224,93.570097 C40.6112224,91.896097 38.0512224,89.336097 35.5872224,87.015097 C34.0712224,85.586097 31.8722224,82.660097 29.6572224,82.425097 C28.9932224,82.356097 28.3592224,82.955097 28.4892224,83.639097 C29.0722224,86.659097 33.6862224,89.845097 35.8212224,91.823097 C38.5412224,94.343097 41.7772224,97.468097 45.6472224,97.836097 C49.5472224,98.200097 49.5622224,93.844097 49.0092224,91.215097" id="Fill-23" fill="#000000"></path>
            <path d="M57.1791224,80.601797 C57.0491224,80.129797 57.2631224,76.515797 58.1261224,76.728797 C59.4201224,77.045797 59.1861224,81.814797 59.1241224,82.663797 C59.1021224,82.999797 59.0541224,83.324797 58.9931224,83.644797 C58.1201224,82.833797 57.4851224,81.735797 57.1791224,80.601797 M66.2011224,83.437797 C64.6411224,85.248797 62.8831224,85.692797 61.0601224,84.957797 C61.7271224,82.464797 61.4431224,79.399797 60.7141224,77.257797 C59.7671224,74.474797 57.2801224,73.860797 55.7831224,76.674797 C54.0461224,79.948797 55.7311224,83.473797 58.3411224,85.553797 C57.7501224,86.710797 56.8391224,87.675797 55.5721224,88.356797 C52.3231224,90.108797 51.0871224,85.150797 50.9411224,82.932797 C50.6331224,78.362797 53.5051224,76.064797 57.3191224,74.443797 C57.3971224,74.409797 57.3971224,74.290797 57.3141224,74.259797 C50.9221224,72.133797 47.9961224,80.497797 48.9781224,85.357797 C49.4311224,87.595797 50.6711224,89.943797 52.9201224,90.775797 C55.7211224,91.810797 58.5471224,89.334797 60.0361224,87.234797 C60.1421224,87.088797 60.2381224,86.931797 60.3291224,86.773797 C63.0751224,87.995797 66.1181224,87.572797 67.3601224,84.059797 C67.6221224,83.324797 66.6811224,82.881797 66.2011224,83.437797" id="Fill-25" fill="#000000"></path>
            <path d="M84.9565224,70.079297 C84.8315224,69.618297 85.0365224,66.094297 85.8785224,66.299297 C87.1425224,66.613297 86.9115224,71.260297 86.8525224,72.085297 C86.8295224,72.414297 86.7865224,72.732297 86.7265224,73.042297 C85.8765224,72.255297 85.2535224,71.183297 84.9565224,70.079297 M93.7515224,72.840297 C92.2295224,74.605297 90.5185224,75.037297 88.7395224,74.326297 C89.3905224,71.893297 89.1105224,68.904297 88.4015224,66.818297 C87.4775224,64.101297 85.0525224,63.505297 83.5975224,66.251297 C81.9035224,69.440297 83.5465224,72.873297 86.0895224,74.902297 C85.5115224,76.031297 84.6245224,76.973297 83.3925224,77.638297 C80.2225224,79.343297 79.0195224,74.512297 78.8745224,72.350297 C78.5775224,67.897297 81.3765224,65.655297 85.0935224,64.074297 C85.1695224,64.042297 85.1695224,63.926297 85.0915224,63.899297 C78.8585224,61.825297 76.0065224,69.975297 76.9625224,74.710297 C77.4035224,76.891297 78.6125224,79.181297 80.8085224,79.992297 C83.5365224,81.003297 86.2905224,78.590297 87.7415224,76.542297 C87.8435224,76.400297 87.9355224,76.246297 88.0265224,76.091297 C90.7065224,77.284297 93.6695224,76.870297 94.8805224,73.449297 C95.1385224,72.730297 94.2205224,72.301297 93.7515224,72.840297" id="Fill-27" fill="#000000"></path>
            <path d="M107.337322,65.416197 C105.892322,68.560197 102.564322,73.694197 99.3373224,69.325197 C95.9603224,64.755197 97.6033224,58.315197 95.5563224,53.279197 C95.2713224,52.583197 94.2163224,52.804197 94.1283224,53.511197 C93.4113224,59.358197 93.2063224,70.076197 99.2963224,73.425197 C104.327322,76.188197 108.298322,69.949197 109.304322,65.890197 C109.593322,64.719197 107.792322,64.439197 107.337322,65.416197" id="Fill-29" fill="#000000"></path>
            <path d="M93.8061224,60.750197 C92.4721224,60.950197 92.8001224,62.992197 94.1281224,62.793197 C95.4621224,62.594197 95.1341224,60.551197 93.8061224,60.750197" id="Fill-31" fill="#000000"></path>
            <path d="M103.048322,57.715097 C99.7843224,58.482097 96.6943224,59.774097 93.5033224,60.756097 C92.2613224,61.138097 92.9253224,63.069097 94.1423224,62.870097 C97.3233224,62.357097 100.390322,61.404097 103.521322,60.675097 C105.405322,60.233097 104.944322,57.269097 103.048322,57.715097" id="Fill-33" fill="#000000"></path>
            <path d="M116.153822,66.685797 C115.690822,67.321797 115.333822,68.018797 114.829822,68.621797 C114.784822,68.679797 114.755822,68.711797 114.731822,68.740797 C114.315822,68.480797 113.688822,67.118797 113.409822,66.440797 C112.503822,64.230797 112.163822,61.823797 111.214822,59.632797 C110.926822,58.970797 109.948822,59.030797 109.686822,59.679797 C108.567822,62.451797 110.003822,66.647797 111.247822,69.146797 C111.973822,70.607797 113.145822,71.975797 114.909822,71.887797 C116.792822,71.795797 118.190822,69.638797 118.632822,68.018797 C119.036822,66.526797 117.147822,65.309797 116.153822,66.685797" id="Fill-35" fill="#000000"></path>
            <path d="M109.737722,54.268797 C109.032722,54.374797 108.526722,55.063797 108.639722,55.767797 C108.753722,56.481797 109.442722,56.951797 110.147722,56.847797 C110.852722,56.741797 111.356722,56.054797 111.243722,55.352797 C111.128722,54.636797 110.440722,54.166797 109.737722,54.268797" id="Fill-37" fill="#000000"></path>
            <path d="M123.970222,66.559797 C121.939222,67.136797 120.648222,64.006797 120.407222,62.532797 C120.181222,61.135797 120.437222,59.648797 120.907222,58.319797 C121.167222,60.770797 123.349222,63.084797 125.847222,63.293797 C126.077222,63.316797 126.310222,63.320797 126.540222,63.316797 C126.197222,64.611797 125.333222,66.169797 123.970222,66.559797 M126.783222,61.200797 C125.056222,61.230797 123.491222,59.822797 123.158222,58.199797 C122.741222,56.201797 124.181222,56.359797 125.281222,57.512797 C126.275222,58.553797 126.732222,59.848797 126.783222,61.200797 M132.968222,55.647797 C131.597222,57.283797 130.837222,59.217797 129.144222,60.361797 C128.798222,57.757797 127.058222,54.987797 124.503222,54.284797 C123.876222,54.113797 123.322222,54.161797 122.843222,54.353797 C121.652222,54.423797 120.331222,55.155797 119.616222,55.993797 C117.654222,58.296797 117.671222,62.099797 118.521222,64.810797 C119.300222,67.288797 122.388222,69.904797 125.087222,68.712797 C127.449222,67.664797 128.706222,65.272797 129.083222,62.808797 C131.857222,61.753797 134.148222,59.178797 134.329222,56.165797 C134.378222,55.393797 133.449222,55.068797 132.968222,55.647797" id="Fill-39" fill="#000000"></path>
            <path d="M144.505322,57.398697 C144.138322,55.680697 143.601322,53.085697 141.280322,53.395697 C138.808322,53.732697 137.491322,56.111697 136.638322,58.752697 C136.306322,57.014697 135.657322,55.396697 134.220322,54.099697 C133.730322,53.660697 132.944322,54.009697 132.718322,54.541697 C132.167322,55.821697 131.853322,56.624697 131.927322,57.986697 C131.931322,58.025697 131.984322,58.030697 132.005322,58.007697 C132.476322,57.472697 133.023322,56.895697 133.554322,56.351697 C135.228322,58.854697 134.644322,62.488697 135.007322,65.346697 C135.146322,66.417697 136.843322,66.642697 137.169322,65.571697 C137.651322,63.983697 137.976322,62.350697 138.448322,60.754697 C138.872322,59.326697 139.644322,56.099697 141.319322,55.612697 C142.122322,55.381697 142.480322,59.366697 142.610322,60.311697 C142.839322,62.001697 142.782322,64.415697 143.948322,65.784697 C144.679322,66.647697 146.237322,66.029697 146.019322,64.862697 C145.552322,62.377697 145.034322,59.873697 144.505322,57.398697" id="Fill-41" fill="#000000"></path>
            <path d="M151.483822,41.563697 C150.133822,43.509697 149.444822,45.964697 148.922822,48.254697 C148.378822,50.659697 147.204822,54.057697 148.465822,56.340697 C148.891822,57.107697 150.122822,57.426697 150.659822,56.554697 C151.766822,54.755697 151.504822,52.525697 151.799822,50.462697 C152.190822,47.731697 153.202822,45.024697 153.350822,42.274697 C153.405822,41.282697 152.092822,40.673697 151.483822,41.563697" id="Fill-43" fill="#000000"></path>
            <path d="M151.030722,61.070497 C150.296722,60.545497 149.270722,60.575497 148.571722,61.148497 C147.876722,61.712497 147.637722,62.697497 148.012722,63.512497 C148.214722,63.957497 148.643722,64.357497 149.130722,64.560497 C149.327722,64.686497 149.544722,64.773497 149.811722,64.800497 C150.368722,64.861497 151.118722,64.620497 151.411722,64.099497 C151.643722,63.685497 151.760722,63.372497 151.844722,62.901497 C151.973722,62.214497 151.579722,61.461497 151.030722,61.070497" id="Fill-45" fill="#000000"></path>
            <path d="M71.5825224,71.200397 C71.5825224,71.200397 71.5065224,71.189397 71.3085224,71.120397 C71.1185224,71.057397 70.8385224,70.971397 70.5515224,70.945397 C70.2555224,70.913397 70.0005224,70.985397 69.8805224,71.100397 C69.7035224,71.275397 69.5045224,71.474397 69.2855224,71.690397 C69.2035224,71.783397 69.1185224,71.879397 69.0335224,71.977397 L68.9975224,72.013397 L68.9825224,72.032397 C68.9095224,72.117397 69.0765224,71.919397 69.0555224,71.942397 L69.0515224,71.950397 L69.0375224,71.966397 L68.9415224,72.088397 C68.8855224,72.159397 68.7805224,72.283397 68.8045224,72.278397 C68.7935224,72.296397 68.7765224,72.310397 68.7585224,72.326397 L68.6585224,72.487397 C68.5825224,72.594397 68.5135224,72.728397 68.4365224,72.865397 C68.1335224,73.428397 67.8725224,74.196397 67.8065224,75.031397 C67.6425224,76.705397 67.9685224,78.598397 68.6025224,80.182397 C68.9265224,80.971397 69.3065224,81.711397 69.8635224,82.240397 C70.4185224,82.775397 71.1775224,83.025397 71.9605224,82.974397 C72.0655224,82.962397 72.4635224,82.921397 72.5795224,82.861397 C72.7305224,82.806397 72.9055224,82.750397 73.0745224,82.655397 C73.3975224,82.478397 73.6665224,82.246397 73.8935224,82.010397 C74.3345224,81.515397 74.6535224,81.011397 74.9935224,80.505397 C75.3205224,79.995397 75.5885224,79.455397 75.8065224,78.950397 C76.0345224,78.449397 76.2105224,77.980397 76.3595224,77.591397 C76.6505224,76.807397 76.8295224,76.331397 76.8275224,76.367397 C76.8415224,75.783397 77.3295224,75.323397 77.9135224,75.339397 C78.4975224,75.356397 78.9605224,75.843397 78.9445224,76.428397 C78.9355224,76.463397 79.1015224,77.044397 79.0755224,78.074397 C79.0605224,78.587397 78.9975224,79.213397 78.8335224,79.929397 C78.6515224,80.643397 78.3745224,81.453397 77.8705224,82.287397 C77.3865224,83.121397 76.5675224,83.939397 75.5065224,84.455397 C74.9755224,84.708397 74.3975224,84.879397 73.8225224,84.997397 C73.5345224,85.043397 73.2465224,85.109397 72.9225224,85.134397 C72.5625224,85.174397 72.4715224,85.164397 72.0845224,85.191397 C70.9015224,85.256397 69.5825224,85.019397 68.4215224,84.375397 C67.2625224,83.736397 66.3165224,82.763397 65.6865224,81.682397 C65.0515224,80.601397 64.6535224,79.444397 64.4135224,78.291397 C64.1855224,77.137397 64.0765224,75.989397 64.0995224,74.853397 C64.1175224,73.723397 64.1865224,72.592397 64.4855224,71.450397 C64.5655224,71.165397 64.6575224,70.884397 64.7795224,70.597397 L64.9775224,70.179397 C65.0715224,70.011397 65.1725224,69.844397 65.2735224,69.683397 C65.4015224,69.490397 65.4415224,69.457397 65.5105224,69.363397 L65.6075224,69.243397 L65.7135224,69.116397 L65.7475224,69.078397 L65.8205224,69.001397 C66.0045224,68.804397 66.2185224,68.620397 66.4265224,68.441397 C67.2795224,67.729397 68.5005224,67.212397 69.6705224,67.269397 C70.8435224,67.322397 71.6705224,67.840397 72.1555224,68.277397 C72.6545224,68.729397 72.9015224,69.145397 73.0585224,69.437397 C73.1995224,69.723397 73.2795224,69.928397 73.2765224,69.929397 C73.4725224,70.445397 73.2135224,71.020397 72.6975224,71.216397 C72.5435224,71.271397 72.3895224,71.291397 72.2365224,71.272397 L71.5825224,71.200397 Z" id="Fill-47" fill="#000000"></path>
        </g>
    </g>
</svg>