<?xml version="1.0" encoding="UTF-8"?>
<svg width="181px" height="77px" viewBox="0 0 181 77" version="1.1" xmlns="http://www.w3.org/2000/svg" xmlns:xlink="http://www.w3.org/1999/xlink">
    <!-- Generator: Sketch 53.1 (72631) - https://sketchapp.com -->
    <title>Group 76sticker11</title>
    <desc>Created with Sketch.</desc>
    <g id="Page-1" stroke="none" stroke-width="1" fill="none" fill-rule="evenodd">
        <g id="Group-76" transform="translate(0.372657, 0.148516)">
            <path d="M173.501343,13.3927839 C168.881343,8.63078391 162.444343,5.92778391 156.065343,4.37078391 C146.891343,1.19778391 95.3413429,-0.693216095 79.2273429,0.237783905 C71.1873429,0.702783905 63.1463429,1.16478391 55.1053429,1.63078391 C47.2453429,2.08678391 39.0313429,2.37178391 31.4393429,4.62678391 C30.3973429,4.93578391 29.3673429,5.27778391 28.3533429,5.64878391 C28.3363429,5.65178391 28.3183429,5.65478391 28.3023429,5.65778391 C28.2503429,5.67978391 28.1993429,5.70378391 28.1473429,5.72578391 C25.5753429,6.67778391 23.1063429,7.83578391 20.8083429,9.25278391 C17.4193429,11.0937839 14.2083429,13.1757839 11.3003429,15.5797839 C1.79234292,23.4377839 -4.02465708,37.6277839 3.31634292,48.8787839 C5.36534292,52.0197839 7.88534292,54.4267839 10.7213429,56.2777839 C15.7693429,60.5897839 22.6203429,63.3207839 28.5203429,64.7737839 C39.6203429,67.5097839 51.4363429,67.4477839 62.8013429,67.6517839 C68.6893429,67.7577839 74.5803429,67.7557839 80.4693429,67.6217839 C83.4253429,67.5547839 86.5593429,67.6047839 89.6873429,67.5137839 C89.6903429,69.3147839 89.8753429,71.1457839 90.2893429,73.0237839 C90.9923429,76.2097839 95.2923429,77.6997839 97.9513429,76.0377839 C103.986343,72.2637839 109.346343,68.5807839 116.303343,66.7187839 C122.659343,65.0157839 129.209343,64.3037839 135.726343,63.5177839 C148.517343,61.9757839 162.996343,60.5267839 173.100343,51.5877839 C178.687343,46.6447839 179.641343,39.3907839 180.177343,32.3157839 C180.718343,25.1607839 178.537343,18.5827839 173.501343,13.3927839" id="Fill-531" fill="#FFFDFE"></path>
            <path d="M163.329443,13.1886839 C142.519443,1.89968391 46.0024429,6.55768391 45.5804429,6.60468391 C47.1104429,6.64168391 30.9814429,6.55868391 17.3614429,17.2996839 C8.42544292,24.3486839 3.22044292,37.6466839 9.99444292,48.0286839 C18.3754429,60.8736839 35.2014429,60.5166839 48.7464429,60.3366839 C65.0404429,60.1196839 81.3294429,59.6486839 97.6104429,58.9586839 C96.8754429,61.6146839 94.6684429,69.0016839 95.2264429,69.8376839 C96.1124429,71.5126839 99.1054429,71.7926839 99.7704429,69.4456839 C109.198443,60.3946839 123.068443,59.5856839 135.393443,57.9456839 C147.321443,56.3576839 160.043443,53.2856839 167.812443,43.2866839 C171.254443,38.8576839 173.566443,32.9946839 172.463443,27.3356839 C171.435443,22.0646839 167.881443,15.6576839 163.329443,13.1886839" id="Fill-533" fill="#4C2030"></path>
            <path d="M163.329443,13.1886839 C142.519443,1.89968391 46.0024429,6.55768391 45.5804429,6.60468391 C47.1104429,6.64168391 30.9814429,6.55868391 17.3614429,17.2996839 C8.42544292,24.3486839 3.22044292,37.6466839 9.99444292,48.0286839 C18.3754429,60.8736839 35.2014429,60.5166839 48.7464429,60.3366839 C65.0404429,60.1196839 81.3294429,59.6486839 97.6104429,58.9586839 C96.8754429,61.6146839 94.6684429,69.0016839 95.2264429,69.8376839 C96.1124429,71.5126839 99.1054429,71.7926839 99.7704429,69.4456839 C109.198443,60.3946839 123.068443,59.5856839 135.393443,57.9456839 C147.321443,56.3576839 160.043443,53.2856839 167.812443,43.2866839 C171.254443,38.8576839 173.566443,32.9946839 172.463443,27.3356839 C171.435443,22.0646839 167.881443,15.6576839 163.329443,13.1886839 Z" id="Stroke-535" stroke="#020202" stroke-width="2"></path>
            <text id="See-You!" font-family="Amatic-Bold, Amatic" font-size="43.9292" font-style="condensed" font-weight="bold" fill="#FFFFFF">
                <tspan x="47.9100429" y="45.2853152">See You!</tspan>
            </text>
        </g>
    </g>
</svg>