<?xml version="1.0" encoding="UTF-8"?>
<svg width="121px" height="107px" viewBox="0 0 121 107" version="1.1" xmlns="http://www.w3.org/2000/svg" xmlns:xlink="http://www.w3.org/1999/xlink">
    <!-- Generator: Sketch 53.1 (72631) - https://sketchapp.com -->
    <title>Group 74sticker10</title>
    <desc>Created with Sketch.</desc>
    <g id="Page-1" stroke="none" stroke-width="1" fill="none" fill-rule="evenodd">
        <g id="Group-74" transform="translate(0.000000, 0.296000)">
            <g id="Group-546">
                <path d="M110.4043,90.2633 C108.3473,89.0893 106.8643,87.4003 105.1773,85.8283 C108.8983,82.0343 111.6623,76.7893 113.7003,71.2263 C119.7153,59.7413 121.7183,46.2243 118.6153,33.0113 C118.1793,29.1973 117.2773,25.2633 115.2893,22.3383 C115.1663,22.1583 115.0033,22.0603 114.8313,22.0183 C111.2193,14.2853 105.6703,7.3823 97.9073,3.8543 C86.8413,-1.1737 73.7073,0.0063 62.1033,2.2693 C38.2573,6.9193 15.2113,20.7183 5.3163,43.7233 C0.7663,54.3023 -0.9497,66.1563 1.3873,77.5033 C3.7103,88.7873 10.2733,100.2503 21.6333,104.2623 C28.4393,106.6653 35.9013,106.2303 42.9873,105.9203 C51.2393,105.5583 59.5053,105.1233 67.6673,103.7843 C75.6673,102.4723 83.6443,100.1143 90.7793,96.2983 C100.9873,102.1053 114.5743,100.9463 115.0623,100.6543 C115.6803,100.4963 116.0713,100.0773 116.2533,99.5613 C117.4573,97.9133 117.2323,95.6073 116.1023,93.9563 C114.7433,91.9693 112.3873,91.3953 110.4043,90.2633" id="Fill-540" fill="#FFFDFE"></path>
                <path d="M110.71,93.3854 C109.069,92.9504 107.451,92.4574 105.854,91.9034 C103.212,90.0944 100.436,88.0414 98.914,85.4654 C100.049,84.3784 120.063,61.2664 114.039,34.1494 C111.669,23.4774 105.356,12.3444 95.014,7.6444 C84.797,3.0024 72.671,4.0924 61.958,6.1804 C39.941,10.4734 18.663,23.2144 9.528,44.4534 C5.327,54.2204 3.744,65.1654 5.9,75.6414 C8.045,86.0594 14.105,96.6434 24.594,100.3474 C30.878,102.5664 37.767,102.1644 44.309,101.8784 C51.928,101.5444 59.559,101.1424 67.095,99.9064 C74.481,98.6954 81.846,96.5174 88.434,92.9944 C93.971,96.3094 100.277,97.8124 106.693,97.4894 C107.076,97.5914 110.39,97.1084 110.71,97.0544 C112.62,96.7314 112.422,93.8394 110.71,93.3854" id="Fill-542" fill="#F7CE7A"></path>
                <path d="M110.71,93.3854 C109.069,92.9504 107.451,92.4574 105.854,91.9034 C103.212,90.0944 100.436,88.0414 98.914,85.4654 C100.049,84.3784 120.063,61.2664 114.039,34.1494 C111.669,23.4774 105.356,12.3444 95.014,7.6444 C84.797,3.0024 72.671,4.0924 61.958,6.1804 C39.941,10.4734 18.663,23.2144 9.528,44.4534 C5.327,54.2204 3.744,65.1654 5.9,75.6414 C8.045,86.0594 14.105,96.6434 24.594,100.3474 C30.878,102.5664 37.767,102.1644 44.309,101.8784 C51.928,101.5444 59.559,101.1424 67.095,99.9064 C74.481,98.6954 81.846,96.5174 88.434,92.9944 C93.971,96.3094 100.277,97.8124 106.693,97.4894 C107.076,97.5914 110.39,97.1084 110.71,97.0544 C112.62,96.7314 112.422,93.8394 110.71,93.3854 Z" id="Stroke-544" stroke="#020202" stroke-width="2"></path>
            </g>
            <text id="Hello!" font-family="Amatic-Bold, Amatic" font-size="45.6634" font-style="condensed" font-weight="bold" fill="#020202">
                <tspan x="29.9517" y="69.1744469">Hello!</tspan>
            </text>
        </g>
    </g>
</svg>