<?xml version="1.0" encoding="UTF-8"?>
<svg width="75px" height="107px" viewBox="0 0 75 107" version="1.1" xmlns="http://www.w3.org/2000/svg" xmlns:xlink="http://www.w3.org/1999/xlink">
    <!-- Generator: Sketch 53.1 (72631) - https://sketchapp.com -->
    <title>Group 72ALienship</title>
    <desc>Created with Sketch.</desc>
    <defs>
        <path d="M7.351,12.402 C13.1,4.387 19.651,-0.756 21.982,0.917 C24.313,2.589 21.542,10.442 15.793,18.458 C10.043,26.473 3.493,31.616 1.162,29.943" id="path-1"></path>
        <linearGradient x1="60.7844506%" y1="60.208215%" x2="39.2152905%" y2="39.7912998%" id="linearGradient-3">
            <stop stop-color="#FFFFFF" offset="0%"></stop>
            <stop stop-color="#FFFFFF" offset="100%"></stop>
        </linearGradient>
        <path d="M0.914,24.817 C-0.274,20.762 8.297,6.739 14.282,2.28 C14.39,2.201 14.491,2.129 14.599,2.057 C14.699,1.985 14.8,1.913 14.908,1.848 C15.103,1.718 15.29,1.603 15.477,1.503 C15.787,1.344 16.075,1.207 16.349,1.113 C16.536,1.049 16.716,0.998 16.889,0.962 C17.472,0.854 17.977,0.919 18.401,1.2 C18.401,1.2 16.781,8.295 11.379,15.972 C5.977,23.657 1.296,25.501 1.296,25.501" id="path-4"></path>
        <linearGradient x1="100.002802%" y1="50.0007972%" x2="-0.000623091747%" y2="50.0007972%" id="linearGradient-6">
            <stop stop-color="#FFFFFF" offset="0%"></stop>
            <stop stop-color="#FFFFFF" offset="100%"></stop>
        </linearGradient>
        <path d="M15.489,11.831 C21.238,19.847 24.009,27.7 21.678,29.372 C19.347,31.044 12.796,25.902 7.046,17.886 C1.297,9.871 -1.474,2.017 0.857,0.345" id="path-7"></path>
        <linearGradient x1="39.2153795%" y1="60.209427%" x2="60.7848712%" y2="39.7923256%" id="linearGradient-9">
            <stop stop-color="#FFFFFF" offset="0%"></stop>
            <stop stop-color="#FFFFFF" offset="100%"></stop>
        </linearGradient>
        <path d="M0.674,0.503 C1.048,0.337 1.473,0.308 1.949,0.394 C2.122,0.43 2.302,0.481 2.489,0.546 C2.763,0.639 3.051,0.776 3.361,0.935 C3.548,1.035 3.735,1.151 3.929,1.28 C4.037,1.345 4.138,1.417 4.239,1.489 C4.347,1.561 4.448,1.633 4.556,1.713 C8.698,4.802 14.078,12.473 16.606,18.242 C14.279,17.673 11.557,16.73 8.863,15.152" id="path-10"></path>
        <linearGradient x1="99.9979105%" y1="50.0004529%" x2="-0.00125847351%" y2="50.0004529%" id="linearGradient-12">
            <stop stop-color="#FFFFFF" offset="0%"></stop>
            <stop stop-color="#FFFFFF" offset="100%"></stop>
        </linearGradient>
        <path d="M0.784,28.718 C1.583,25.498 2.779,22.25 4.558,19.369 C11.278,8.507 22.219,1.96 22.219,1.96 L24.61,0.75 L22.219,37.274 L21.066,54.906 L20.756,54.834 L7.101,51.708" id="path-13"></path>
        <linearGradient x1="99.9997624%" y1="50.0000336%" x2="0.00060228322%" y2="50.0000336%" id="linearGradient-15">
            <stop stop-color="#660400" offset="0%"></stop>
            <stop stop-color="#89113A" offset="100%"></stop>
        </linearGradient>
        <path d="M17.452,0.283 L5.515,43.707 L0.663,44.818 C0.663,44.818 2.691,33.46 6.597,22.792 C10.388,12.435 17.452,0.283 17.452,0.283 Z" id="path-16"></path>
        <linearGradient x1="99.9999297%" y1="49.9999978%" x2="-0.00263505867%" y2="49.9999978%" id="linearGradient-18">
            <stop stop-color="#660400" offset="0%"></stop>
            <stop stop-color="#89113A" offset="100%"></stop>
        </linearGradient>
        <path d="M8.262,14.109 C7.948,15.1 7.658,16.09 7.416,17.058 L7.416,17.058 C7.271,17.685 7.102,18.459 6.909,19.4 L6.909,19.4 L6.885,19.4 C6.16,22.953 5.145,28.582 4.106,34.549 L4.106,34.549 C3.744,36.627 3.381,38.753 3.019,40.856 L3.019,40.856 C1.762,48.249 0.627,55.256 0.071,58.613 L0.071,58.613 L1.28,58.59 L2.922,58.542 L3.163,58.517 L3.188,58.517 C3.261,58.275 3.333,58.01 3.406,57.72 L3.406,57.72 C3.502,57.381 3.622,57.019 3.72,56.633 L3.72,56.633 C4.034,55.666 4.348,54.555 4.71,53.347 L4.71,53.347 C4.879,52.767 5.072,52.139 5.266,51.486 L5.266,51.486 C5.701,49.964 6.184,48.345 6.691,46.63 L6.691,46.63 C7.03,45.518 7.367,44.407 7.682,43.248 L7.682,43.248 C8.189,41.532 8.697,39.793 9.204,38.029 L9.204,38.029 C9.518,36.966 9.808,35.903 10.098,34.863 L10.098,34.863 C10.122,34.767 10.17,34.671 10.194,34.574 L10.194,34.574 C10.339,34.018 10.508,33.438 10.678,32.882 L10.678,32.882 C10.75,32.568 10.847,32.254 10.944,31.94 L10.944,31.94 C11.161,31.143 11.379,30.37 11.596,29.597 L11.596,29.597 C11.644,29.452 11.668,29.331 11.717,29.186 L11.717,29.186 C11.958,28.292 12.2,27.422 12.441,26.6 L12.441,26.6 L12.441,26.553 C12.562,26.166 12.683,25.78 12.78,25.393 L12.78,25.393 C13.384,23.243 13.867,21.358 14.206,19.932 L14.206,19.932 C14.326,19.473 14.422,19.039 14.495,18.676 L14.495,18.676 C15.824,12.708 15.462,5.17 15.196,1.86 L15.196,1.86 C15.124,0.773 15.051,0.145 15.051,0.145 L15.051,0.145 C15.051,0.145 10.63,7.079 8.262,14.109" id="path-19"></path>
        <linearGradient x1="50.00062%" y1="100.001335%" x2="50.00062%" y2="-0.000528494219%" id="linearGradient-21">
            <stop stop-color="#E8DB3F" offset="0%"></stop>
            <stop stop-color="#E89300" offset="100%"></stop>
        </linearGradient>
        <path d="M0.336,1.86 C0.071,5.17 -0.292,12.708 1.037,18.676 L1.037,18.676 C1.4,20.343 2.149,23.194 3.09,26.673 L3.09,26.673 C3.646,28.582 4.226,30.684 4.854,32.882 L4.854,32.882 C6.255,37.788 7.826,43.151 9.203,47.886 L9.203,47.886 L9.203,47.911 C9.324,48.321 9.445,48.732 9.566,49.143 L9.566,49.143 C9.928,50.351 10.266,51.486 10.581,52.574 L10.581,52.574 C11.499,55.642 12.248,58.179 12.707,59.701 L12.707,59.701 C12.731,59.846 12.779,59.967 12.803,60.088 L12.803,60.088 L13.069,60.088 L14.518,60.039 L15.678,59.99 C15.292,57.599 13.987,49.505 12.513,40.856 L12.513,40.856 C12.417,40.325 12.32,39.768 12.223,39.237 L12.223,39.237 C11.958,37.666 11.691,36.096 11.426,34.549 L11.426,34.549 C10.871,31.288 10.29,28.147 9.783,25.393 L9.783,25.393 C9.372,23.073 8.962,21.02 8.648,19.4 L8.648,19.4 L8.623,19.4 C8.431,18.459 8.262,17.685 8.116,17.058 L8.116,17.058 C6.28,9.398 0.844,0.7 0.505,0.169 L0.505,0.169 L0.481,0.145 C0.481,0.145 0.409,0.773 0.336,1.86" id="path-22"></path>
        <linearGradient x1="50.0009719%" y1="99.9997177%" x2="50.0009719%" y2="-0.000518993043%" id="linearGradient-24">
            <stop stop-color="#E8B300" offset="0%"></stop>
            <stop stop-color="#E88702" offset="100%"></stop>
        </linearGradient>
        <path d="M0.203,13.886 L1.822,4.15 L1.822,4.101 L1.943,3.521 L2.402,0.719 L2.426,0.55 C2.692,2.096 2.958,3.666 3.223,5.237 C3.32,5.768 3.417,6.324 3.513,6.856 C4.987,15.505 6.292,23.599 6.678,25.991 L5.519,26.039 L4.069,26.088 L3.803,26.088 C3.779,25.967 3.731,25.846 3.707,25.701 C3.248,24.179 2.499,21.642 1.581,18.574 C1.266,17.487 0.928,16.351 0.566,15.143 C0.445,14.732 0.324,14.321 0.203,13.91 L0.203,13.886 Z" id="path-25"></path>
        <linearGradient x1="100.005855%" y1="49.9989776%" x2="0.00312432432%" y2="49.9989776%" id="linearGradient-27">
            <stop stop-color="#660400" offset="0%"></stop>
            <stop stop-color="#89113A" offset="100%"></stop>
        </linearGradient>
    </defs>
    <g id="Page-1" stroke="none" stroke-width="1" fill="none" fill-rule="evenodd">
        <g id="Desktop-HD" transform="translate(-451.000000, -3395.000000)">
            <g id="Group-72" transform="translate(451.000000, 3395.392800)">
                <polygon id="Fill-376" fill="#E23365" points="17.2411 80.9264 12.5041 86.4814 8.6331 65.0174 13.1981 66.2214"></polygon>
                <polygon id="Fill-378" fill="#5E0120" points="16.4792 81.8197 11.7432 70.1777 11.1432 73.6447 10.0222 65.3847 13.1982 66.2217 17.2412 80.9267"></polygon>
                <polygon id="Fill-380" fill="#E23365" points="57.2933 80.9264 62.0303 86.4814 65.9013 65.0174 61.3353 66.2214"></polygon>
                <polygon id="Fill-382" fill="#5E0120" points="64.7156 65.0179 63.0016 74.5449 57.2936 80.6669 61.3356 66.2219"></polygon>
                <polygon id="Fill-384" fill="#E23365" points="53.053 91.6688 48.457 104.5708 37.644 104.5708 25.697 105.3048 22.04 91.6688"></polygon>
                <polygon id="Fill-386" fill="#5E0120" points="51.6431 94.7952 37.9461 99.7092 24.4371 99.7092 22.0401 91.6692 53.0531 91.6692"></polygon>
                <polygon id="Fill-388" fill="#C1275A" points="39.3954 2.0607 35.2194 2.0607 35.2194 92.8427 40.0024 92.8427"></polygon>
                <path d="M39.3971,3.55271368e-14 L39.3971,94.795 L54.5151,91.334 L62.5221,62.202 L68.6981,39.743 C68.6981,39.743 66.9171,27.296 60.2991,17.285 C55.1591,9.513 47.7791,4.508 43.3001,1.977 C40.9481,0.644 39.3971,3.55271368e-14 39.3971,3.55271368e-14" id="Fill-390" fill="#F79E3C"></path>
                <path d="M5.9189,39.7438 L13.2009,66.2198 L13.7839,68.3448 L20.1009,91.3348 L33.7569,94.4608 L34.0659,94.5328 L35.2189,94.7918 L35.2189,0.0008 C35.2189,0.0008 22.1599,5.4308 14.3169,17.2868 C7.6979,27.2978 5.9189,39.7438 5.9189,39.7438" id="Fill-392" fill="#F79E3C"></path>
                <polygon id="Fill-394" fill="#E23365" points="39.3954 0.0021 37.6104 2.0611 38.3224 92.8431 39.3954 94.7951"></polygon>
                <polygon id="Fill-396" fill="#E23365" points="35.2198 0.0021 36.5018 2.0611 36.5018 92.8431 35.2198 94.7951"></polygon>
                <g id="Group-400" opacity="0.345656622" transform="translate(8.000000, 3.627200)">
                    <mask id="mask-2" fill="white">
                        <use xlink:href="#path-1"></use>
                    </mask>
                    <g id="Clip-399"></g>
                    <path d="M7.351,12.402 C1.601,20.418 -1.17,28.271 1.162,29.943 C3.493,31.616 10.043,26.473 15.793,18.458 C21.542,10.442 24.313,2.589 21.982,0.917 C19.651,-0.756 13.1,4.387 7.351,12.402" id="Fill-398" fill="url(#linearGradient-3)" mask="url(#mask-2)"></path>
                </g>
                <path d="M7.914,29.4441 C7.993,29.7181 8.123,29.9481 8.296,30.1281 C13.201,35.0691 29.846,8.7441 25.402,5.8271 C24.977,5.5461 24.472,5.4811 23.889,5.5901 C23.716,5.6261 23.536,5.6761 23.349,5.7411 C23.075,5.8341 22.787,5.9711 22.477,6.1301 C22.29,6.2311 22.103,6.3461 21.908,6.4751 C21.801,6.5401 21.699,6.6121 21.599,6.6841 C21.491,6.7561 21.39,6.8281 21.282,6.9071 C15.297,11.3661 6.726,25.3891 7.914,29.4441" id="Fill-401" fill="#00B8C4"></path>
                <g id="Group-405" opacity="0.249674479" transform="translate(7.000000, 4.627200)">
                    <mask id="mask-5" fill="white">
                        <use xlink:href="#path-4"></use>
                    </mask>
                    <g id="Clip-404"></g>
                    <path d="M0.914,24.817 C0.993,25.091 1.123,25.321 1.296,25.501 C1.296,25.501 5.977,23.657 11.379,15.972 C16.781,8.295 18.401,1.2 18.401,1.2 C17.977,0.919 17.472,0.854 16.889,0.962 C16.716,0.998 16.536,1.049 16.349,1.113 C16.075,1.207 15.787,1.344 15.477,1.503 C15.29,1.603 15.103,1.718 14.908,1.848 C14.8,1.913 14.699,1.985 14.599,2.057 C14.491,2.129 14.39,2.201 14.282,2.28 C8.297,6.739 -0.274,20.762 0.914,24.817" id="Fill-403" fill="url(#linearGradient-6)" mask="url(#mask-5)"></path>
                </g>
                <g id="Group-408" opacity="0.249674479" transform="translate(44.000000, 4.627200)">
                    <mask id="mask-8" fill="white">
                        <use xlink:href="#path-7"></use>
                    </mask>
                    <g id="Clip-407"></g>
                    <path d="M15.489,11.831 C21.238,19.847 24.009,27.7 21.678,29.372 C19.347,31.044 12.796,25.902 7.046,17.886 C1.297,9.871 -1.474,2.017 0.857,0.345 C3.188,-1.327 9.739,3.815 15.489,11.831" id="Fill-406" fill="url(#linearGradient-9)" mask="url(#mask-8)"></path>
                </g>
                <path d="M66.5421,30.5606 C66.7151,30.3806 66.8441,30.1496 66.9241,29.8766 C67.2911,28.6306 66.7291,26.4406 65.6061,23.8696 C63.0781,18.1006 57.6971,10.4296 53.5561,7.3396 C53.4481,7.2606 53.3471,7.1886 53.2391,7.1166 C53.1381,7.0446 53.0371,6.9726 52.9291,6.9076 C52.7351,6.7776 52.5481,6.6626 52.3601,6.5616 C52.0501,6.4036 51.7621,6.2666 51.4891,6.1726 C51.3011,6.1076 51.1211,6.0576 50.9491,6.0216 C50.4731,5.9356 50.0481,5.9636 49.6741,6.1296 C49.5951,6.1656 49.5151,6.2086 49.4361,6.2596 C44.9921,9.1766 61.6371,35.5016 66.5421,30.5606" id="Fill-409" fill="#00B8C4"></path>
                <path d="M51.7156,9.5664 C50.3276,9.1714 54.3116,17.4634 55.2566,16.8894 C55.7996,16.5594 53.2146,9.9934 51.7156,9.5664" id="Fill-411" fill="#00B8C4"></path>
                <path d="M55.4396,17.0692 C55.0496,17.3392 56.1896,19.3502 56.4596,19.1702 C56.8416,18.9162 55.7606,16.8472 55.4396,17.0692" id="Fill-413" fill="#00B8C4"></path>
                <g id="Group-417" opacity="0.480236235" transform="translate(49.000000, 5.627200)">
                    <mask id="mask-11" fill="white">
                        <use xlink:href="#path-10"></use>
                    </mask>
                    <g id="Clip-416"></g>
                    <path d="M0.674,0.503 C1.07,2.872 2.921,11.688 8.863,15.152 C11.557,16.73 14.279,17.673 16.606,18.242 C14.078,12.473 8.698,4.802 4.556,1.713 C4.448,1.633 4.347,1.561 4.239,1.489 C4.138,1.417 4.037,1.345 3.929,1.28 C3.735,1.151 3.548,1.035 3.361,0.935 C3.051,0.776 2.763,0.639 2.489,0.546 C2.302,0.481 2.122,0.43 1.949,0.394 C1.473,0.308 1.048,0.337 0.674,0.503" id="Fill-415" fill="url(#linearGradient-12)" mask="url(#mask-11)"></path>
                </g>
                <g id="Group-420" transform="translate(13.000000, 39.627200)">
                    <mask id="mask-14" fill="white">
                        <use xlink:href="#path-13"></use>
                    </mask>
                    <g id="Clip-419"></g>
                    <path d="M0.784,28.718 L7.101,51.708 L20.756,54.834 L21.066,54.906 L22.219,37.274 L24.61,0.75 L22.219,1.96 C22.219,1.96 11.278,8.507 4.558,19.369 C2.779,22.25 1.583,25.498 0.784,28.718" id="Fill-418" fill="url(#linearGradient-15)" mask="url(#mask-14)"></path>
                </g>
                <path d="M30.71,91.199 C30.783,91.924 30.879,92.625 30.976,93.349 C31.266,95.379 31.532,97.36 31.797,99.22 C31.966,100.501 32.136,101.733 32.305,102.869 C32.401,103.473 32.474,104.052 32.571,104.608 L33.223,104.584 L41.776,104.318 L42.573,104.294 C42.621,103.884 42.694,103.473 42.766,103.038 C43.008,101.25 43.274,99.269 43.588,97.191 C43.757,95.91 43.926,94.581 44.12,93.228 C44.216,92.552 44.313,91.876 44.385,91.199 C44.82,87.961 45.255,84.603 45.666,81.341 C46.705,72.837 47.502,64.985 47.43,61.433 C47.284,54.692 42.452,46.791 39.601,42.708 C39.529,42.563 39.432,42.442 39.335,42.322 C38.683,41.38 38.152,40.655 37.837,40.268 C37.644,40.027 37.548,39.906 37.548,39.906 L37.523,39.93 C37.427,40.075 37.016,40.558 36.436,41.355 C36.074,41.863 35.639,42.467 35.156,43.167 C32.426,47.13 28.294,54.088 27.738,60.321 C27.69,60.684 27.666,61.07 27.666,61.433 C27.545,66.338 29.116,79.481 30.71,91.199" id="Fill-421" fill="#C1275A"></path>
                <path d="M31.5075,91.199 C31.6045,91.996 31.7005,92.769 31.8215,93.543 L31.8215,93.567 C32.0635,95.524 32.3045,97.433 32.5225,99.22 C32.7155,100.573 32.8845,101.854 33.0535,103.038 C33.1015,103.569 33.1745,104.101 33.2225,104.584 L41.7755,104.318 C41.8245,103.956 41.8725,103.593 41.9205,103.207 C42.1625,101.467 42.4285,99.559 42.6695,97.505 C42.8635,96.2 43.0325,94.823 43.2255,93.422 C43.3225,92.697 43.4185,91.948 43.4915,91.199 C43.9505,87.744 44.3855,84.168 44.7715,80.761 C45.6655,73.078 46.3185,66.144 46.2455,63.003 C46.1245,56.866 42.1625,49.715 39.6255,45.777 C39.5285,45.632 39.4325,45.487 39.3355,45.342 C38.7075,44.375 38.1755,43.626 37.8615,43.192 C37.6685,42.902 37.5475,42.757 37.5475,42.757 C37.5475,42.757 37.4755,42.853 37.3545,43.023 L37.3305,43.046 C37.1365,43.312 36.8225,43.747 36.4365,44.327 C36.0735,44.859 35.6385,45.511 35.1555,46.26 C32.6195,50.271 28.9705,57.084 28.8255,62.979 L28.8255,63.003 C28.7285,67.521 30.1305,79.964 31.5075,91.199" id="Fill-423" fill="#F79E3C"></path>
                <g id="Group-427" transform="translate(49.000000, 47.627200)">
                    <mask id="mask-17" fill="white">
                        <use xlink:href="#path-16"></use>
                    </mask>
                    <g id="Clip-426"></g>
                    <path d="M17.452,0.283 C17.452,0.283 10.388,12.435 6.597,22.792 C2.691,33.46 0.663,44.818 0.663,44.818 L5.515,43.707 L17.452,0.283 Z" id="Fill-425" fill="url(#linearGradient-18)" mask="url(#mask-17)"></path>
                </g>
                <path d="M49.6626,92.445 C49.6626,92.445 54.7236,70.599 54.0476,57.995 C53.3716,45.39 39.3956,36.387 39.3956,36.387 L39.3956,35.007 C39.3956,35.007 53.0526,42.509 54.8736,57.335 C56.2946,68.9 50.2596,92.308 50.2596,92.308 L49.6626,92.445 Z" id="Fill-428" fill="#E23365"></path>
                <path d="M24.9529,92.445 C24.9529,92.445 19.8919,70.599 20.5679,57.995 C21.2439,45.39 35.2199,36.387 35.2199,36.387 L35.2199,35.007 C35.2199,35.007 20.5169,42.94 19.5649,58.394 C18.8889,69.339 24.3559,92.308 24.3559,92.308 L24.9529,92.445 Z" id="Fill-430" fill="#E23365"></path>
                <path d="M58.3463,104.2652 L59.0713,104.2412 L60.2793,104.2172 L61.9223,104.1682 L69.6293,67.0332 L73.3983,48.8882 L74.0513,45.7722 L73.0603,45.7722 C73.0603,45.7722 68.5903,50.8462 65.9083,60.0272 C65.5463,61.2592 65.1353,62.9742 64.7243,65.0282 C64.7013,65.1242 64.6763,65.2452 64.6523,65.3662 C64.0963,68.0242 63.5173,71.2132 62.9123,74.6442 C62.3093,78.1232 61.7053,81.8442 61.1493,85.4682 C59.9163,93.3682 58.8293,100.7862 58.3463,104.2652" id="Fill-432" fill="#E23365"></path>
                <g id="Group-437" transform="translate(59.000000, 45.627200)">
                    <mask id="mask-20" fill="white">
                        <use xlink:href="#path-19"></use>
                    </mask>
                    <g id="Clip-436"></g>
                    <path d="M8.262,14.109 C7.948,15.1 7.658,16.09 7.416,17.058 L7.416,17.058 C7.271,17.685 7.102,18.459 6.909,19.4 L6.909,19.4 L6.885,19.4 C6.16,22.953 5.145,28.582 4.106,34.549 L4.106,34.549 C3.744,36.627 3.381,38.753 3.019,40.856 L3.019,40.856 C1.762,48.249 0.627,55.256 0.071,58.613 L0.071,58.613 L1.28,58.59 L2.922,58.542 L3.163,58.517 L3.188,58.517 C3.261,58.275 3.333,58.01 3.406,57.72 L3.406,57.72 C3.502,57.381 3.622,57.019 3.72,56.633 L3.72,56.633 C4.034,55.666 4.348,54.555 4.71,53.347 L4.71,53.347 C4.879,52.767 5.072,52.139 5.266,51.486 L5.266,51.486 C5.701,49.964 6.184,48.345 6.691,46.63 L6.691,46.63 C7.03,45.518 7.367,44.407 7.682,43.248 L7.682,43.248 C8.189,41.532 8.697,39.793 9.204,38.029 L9.204,38.029 C9.518,36.966 9.808,35.903 10.098,34.863 L10.098,34.863 C10.122,34.767 10.17,34.671 10.194,34.574 L10.194,34.574 C10.339,34.018 10.508,33.438 10.678,32.882 L10.678,32.882 C10.75,32.568 10.847,32.254 10.944,31.94 L10.944,31.94 C11.161,31.143 11.379,30.37 11.596,29.597 L11.596,29.597 C11.644,29.452 11.668,29.331 11.717,29.186 L11.717,29.186 C11.958,28.292 12.2,27.422 12.441,26.6 L12.441,26.6 L12.441,26.553 C12.562,26.166 12.683,25.78 12.78,25.393 L12.78,25.393 C13.384,23.243 13.867,21.358 14.206,19.932 L14.206,19.932 C14.326,19.473 14.422,19.039 14.495,18.676 L14.495,18.676 C15.824,12.708 15.462,5.17 15.196,1.86 L15.196,1.86 C15.124,0.773 15.051,0.145 15.051,0.145 L15.051,0.145 C15.051,0.145 10.63,7.079 8.262,14.109" id="Fill-435" fill="url(#linearGradient-21)" mask="url(#mask-20)"></path>
                </g>
                <g id="Group-442" transform="translate(0.000000, 44.627200)">
                    <path d="M61.9222,59.5413 L62.1642,59.5173 C62.1642,59.5653 62.1402,59.6133 62.1402,59.6623 C62.1402,59.6133 62.1642,59.5653 62.1882,59.5173 C62.2602,59.2753 62.3332,59.0093 62.4052,58.7203 C62.5022,58.3813 62.6232,58.0193 62.7192,57.6323 C63.0342,56.6663 63.3482,55.5543 63.7102,54.3463 C63.8792,53.7673 64.0722,53.1383 64.2662,52.4863 C64.7012,50.9643 65.1842,49.3453 65.6912,47.6303 C66.0052,46.5423 66.3442,45.4073 66.6822,44.2473 C67.1892,42.5323 67.6962,40.7923 68.2042,39.0283 C68.4942,37.9653 68.8082,36.9023 69.0982,35.8633 C69.1222,35.7673 69.1702,35.6703 69.1942,35.5743 C69.3392,35.0183 69.5082,34.4383 69.6782,33.8823 C69.7502,33.5683 69.8472,33.2543 69.9432,32.9403 C70.1612,32.1433 70.3782,31.3693 70.5962,30.5963 C70.6442,30.4513 70.6682,30.3313 70.7172,30.1863 C70.9582,29.2923 71.2002,28.4223 71.4412,27.6003 L71.4412,27.5523 C71.5622,27.1413 71.6592,26.7553 71.7552,26.3683 C72.3602,24.2183 72.8432,22.3333 73.2052,20.9323 C73.3262,20.4733 73.4232,20.0383 73.4952,19.6763 C74.8242,13.7083 74.4612,6.1703 74.1962,2.8603 C73.9542,3.2713 73.6882,3.7303 73.3982,4.2613 C71.6352,7.4503 69.0012,12.6453 67.7452,17.5013 C67.6962,17.6953 67.6482,17.8643 67.6002,18.0573 C66.0052,24.7743 61.5592,51.7613 60.2792,59.5893 L61.9222,59.5413 Z" id="Fill-438" fill="#F79E3C"></path>
                    <path d="M0.4813,1.1447 L0.5053,1.1687 L2.7523,7.3057 L7.2463,19.5307 L9.6383,26.0067 L9.7833,26.3927 L9.8553,27.2387 L10.9433,38.5217 L11.1603,40.9857 C11.1603,41.0097 11.1603,41.0347 11.1843,41.0827 L13.0693,61.0877 L14.5183,61.0397 L15.6783,60.9907 L16.7653,60.9667 C16.4273,58.7677 15.1473,50.0467 13.6003,40.5747 C12.8753,36.2507 12.1263,31.7807 11.3773,27.6977 C10.9433,25.3057 10.5083,23.0587 10.0733,21.0777 C10.0733,21.0287 10.0733,21.0047 10.0493,20.9807 C10.0493,20.9087 10.0253,20.8357 10.0003,20.7637 C9.7353,19.4107 9.4693,18.2027 9.2033,17.1397 C6.6183,6.4597 1.5933,0.8787 1.5933,0.8787 L0.4813,1.1447 Z" id="Fill-440" fill="#E23365"></path>
                </g>
                <g id="Group-445" transform="translate(0.000000, 45.627200)">
                    <mask id="mask-23" fill="white">
                        <use xlink:href="#path-22"></use>
                    </mask>
                    <g id="Clip-444"></g>
                    <path d="M0.336,1.86 C0.071,5.17 -0.292,12.708 1.037,18.676 L1.037,18.676 C1.4,20.343 2.149,23.194 3.09,26.673 L3.09,26.673 C3.646,28.582 4.226,30.684 4.854,32.882 L4.854,32.882 C6.255,37.788 7.826,43.151 9.203,47.886 L9.203,47.886 L9.203,47.911 C9.324,48.321 9.445,48.732 9.566,49.143 L9.566,49.143 C9.928,50.351 10.266,51.486 10.581,52.574 L10.581,52.574 C11.499,55.642 12.248,58.179 12.707,59.701 L12.707,59.701 C12.731,59.846 12.779,59.967 12.803,60.088 L12.803,60.088 L13.069,60.088 L14.518,60.039 L15.678,59.99 C15.292,57.599 13.987,49.505 12.513,40.856 L12.513,40.856 C12.417,40.325 12.32,39.768 12.223,39.237 L12.223,39.237 C11.958,37.666 11.691,36.096 11.426,34.549 L11.426,34.549 C10.871,31.288 10.29,28.147 9.783,25.393 L9.783,25.393 C9.372,23.073 8.962,21.02 8.648,19.4 L8.648,19.4 L8.623,19.4 C8.431,18.459 8.262,17.685 8.116,17.058 L8.116,17.058 C6.28,9.398 0.844,0.7 0.505,0.169 L0.505,0.169 L0.481,0.145 C0.481,0.145 0.409,0.773 0.336,1.86" id="Fill-443" fill="url(#linearGradient-24)" mask="url(#mask-23)"></path>
                </g>
                <path d="M1.0369,64.3032 C1.3999,65.9702 2.1489,68.8212 3.0909,72.3002 C3.6469,74.2092 4.2259,76.3112 4.8539,78.5092 C6.2559,83.4142 7.8259,88.7782 9.2029,93.5132 L9.2029,93.5372 C9.3239,93.9482 9.4449,94.3592 9.5659,94.7702 C9.9279,95.9782 10.2659,97.1382 10.5809,98.2012 C11.4989,101.2692 12.2479,103.8062 12.7069,105.3282 C12.7309,105.4732 12.7789,105.5942 12.8269,105.7152 L13.0689,105.7152 L14.5189,105.6662 C14.1079,103.2502 12.7069,94.6732 11.1839,85.7092 C11.1599,85.6612 11.1599,85.6372 11.1599,85.6132 C11.0399,84.9852 10.9429,84.3812 10.8219,83.7772 L10.8219,83.7282 C9.4929,75.9972 8.1399,68.2652 7.2459,64.1582 C7.1499,63.6022 7.0289,63.0952 6.9319,62.6842 C6.0379,59.0122 4.3229,55.0742 2.7519,51.9332 C1.8339,50.1212 0.9649,48.5742 0.3359,47.4872 C0.0709,50.7972 -0.2921,58.3352 1.0369,64.3032" id="Fill-446" fill="#F79E3C"></path>
                <g id="Group-450" transform="translate(9.000000, 79.627200)">
                    <mask id="mask-26" fill="white">
                        <use xlink:href="#path-25"></use>
                    </mask>
                    <g id="Clip-449"></g>
                    <path d="M0.203,13.886 L0.203,13.91 C0.324,14.321 0.445,14.732 0.566,15.143 C0.928,16.351 1.266,17.487 1.581,18.574 C2.499,21.642 3.248,24.179 3.707,25.701 C3.731,25.846 3.779,25.967 3.803,26.088 L4.069,26.088 L5.519,26.039 L6.678,25.991 C6.292,23.599 4.987,15.505 3.513,6.856 C3.417,6.324 3.32,5.768 3.223,5.237 C2.958,3.666 2.692,2.096 2.426,0.55 L2.402,0.719 L1.943,3.521 L1.822,4.101 L1.822,4.15 L0.203,13.886 Z" id="Fill-448" fill="url(#linearGradient-27)" mask="url(#mask-26)"></path>
                </g>
            </g>
        </g>
    </g>
</svg>