<?xml version="1.0" encoding="UTF-8"?>
<svg width="82px" height="139px" viewBox="0 0 82 139" version="1.1" xmlns="http://www.w3.org/2000/svg" xmlns:xlink="http://www.w3.org/1999/xlink">
    <!-- Generator: Sketch 53.1 (72631) - https://sketchapp.com -->
    <title>Group 68Rocket</title>
    <desc>Created with Sketch.</desc>
    <defs>
        <path d="M7.364,59.521 C7.364,59.521 11.549,37.904 22.472,29.264 L22.472,29.264 C44.178,12.095 15.365,0.858 15.365,0.858 L15.365,0.858 C15.365,0.858 -12.622,25.463 7.364,59.521" id="path-1"></path>
        <path d="M1.806,0.98 C2.35,0.983 2.788,1.426 2.785,1.97 C2.782,2.514 2.339,2.953 1.795,2.95 C1.251,2.947 0.813,2.503 0.815,1.959 C0.817979603,1.41969192 1.25598277,0.98297443 1.79491782,0.98 L1.806,0.98" id="path-3"></path>
        <path d="M1.806,0.98 C2.35,0.983 2.788,1.426 2.785,1.97 C2.782,2.514 2.339,2.953 1.795,2.95 C1.251,2.947 0.813,2.503 0.815,1.959 C0.817979603,1.41969192 1.25598277,0.98297443 1.79491782,0.98 L1.806,0.98" id="path-5"></path>
        <path d="M1.806,0.98 C2.35,0.983 2.788,1.426 2.785,1.97 C2.782,2.514 2.339,2.953 1.795,2.95 C1.251,2.947 0.813,2.503 0.815,1.959 C0.817979603,1.41969192 1.25598277,0.98297443 1.79491782,0.98 L1.806,0.98" id="path-7"></path>
        <path d="M0.847,16.99 C10.265,9.457 26.38,10.262 34.42,15.963 L34.42,15.963 C34.43,14.041 27.953,1.043 18.007,0.989 L18.007,0.989 C17.986,0.989 17.966,0.989 17.945,0.989 L17.945,0.989 C7.585,0.99 1.107,15.143 0.847,16.99" id="path-9"></path>
        <path d="M0.847,16.99 C10.265,9.457 26.38,10.262 34.42,15.963 L34.42,15.963 C34.43,14.041 27.953,1.043 18.007,0.989 L18.007,0.989 C17.986,0.989 17.966,0.989 17.945,0.989 L17.945,0.989 C7.585,0.99 1.107,15.143 0.847,16.99" id="path-11"></path>
        <path d="M0.847,16.99 C10.265,9.457 26.38,10.262 34.42,15.963 L34.42,15.963 C34.43,14.041 27.953,1.043 18.007,0.989 L18.007,0.989 C17.986,0.989 17.966,0.989 17.945,0.989 L17.945,0.989 C7.585,0.99 1.107,15.143 0.847,16.99" id="path-13"></path>
        <path d="M0.847,16.99 C10.265,9.457 26.38,10.262 34.42,15.963 L34.42,15.963 C34.43,14.041 27.953,1.043 18.007,0.989 L18.007,0.989 C17.986,0.989 17.966,0.989 17.945,0.989 L17.945,0.989 C7.585,0.99 1.107,15.143 0.847,16.99" id="path-15"></path>
        <path d="M0.847,16.99 C10.265,9.457 26.38,10.262 34.42,15.963 L34.42,15.963 C34.43,14.041 27.953,1.043 18.007,0.989 L18.007,0.989 C17.986,0.989 17.966,0.989 17.945,0.989 L17.945,0.989 C7.585,0.99 1.107,15.143 0.847,16.99" id="path-17"></path>
        <path d="M0.847,16.99 C10.265,9.457 26.38,10.262 34.42,15.963 L34.42,15.963 C34.43,14.041 27.953,1.043 18.007,0.989 L18.007,0.989 C17.986,0.989 17.966,0.989 17.945,0.989 L17.945,0.989 C7.585,0.99 1.107,15.143 0.847,16.99" id="path-19"></path>
        <path d="M1.448,10.428 C-0.637,17.722 2.785,25.097 9.091,26.899 L9.091,26.899 C15.398,28.703 22.201,24.251 24.287,16.958 L24.287,16.958 C26.372,9.663 22.95,2.289 16.644,0.486 L16.644,0.486 C15.695,0.215 14.737,0.085 13.783,0.085 L13.783,0.085 C8.398,0.086 3.22,4.231 1.448,10.428" id="path-21"></path>
        <linearGradient x1="10.9361921%" y1="49.750318%" x2="89.0649192%" y2="50.251242%" id="linearGradient-23">
            <stop stop-color="#930034" offset="0%"></stop>
            <stop stop-color="#790D2A" offset="100%"></stop>
        </linearGradient>
        <path d="M0.66,10.539 C-1.353,17.58 1.945,24.698 8.028,26.437 L8.028,26.437 C8.631,26.609 9.24,26.722 9.848,26.779 L9.848,26.779 L11.614,26.789 C16.504,26.39 21.067,22.501 22.686,16.836 L22.686,16.836 C24.7,9.796 21.4,2.678 15.318,0.94 L15.318,0.94 C14.404,0.679 13.48,0.554 12.561,0.554 L12.561,0.554 C7.367,0.554 2.37,4.557 0.66,10.539" id="path-24"></path>
        <path d="M0.66,10.539 C-1.353,17.58 1.945,24.698 8.028,26.437 L8.028,26.437 C8.631,26.609 9.24,26.722 9.848,26.779 L9.848,26.779 L11.614,26.789 C16.504,26.39 21.067,22.501 22.686,16.836 L22.686,16.836 C24.7,9.796 21.4,2.678 15.318,0.94 L15.318,0.94 C14.404,0.679 13.48,0.554 12.561,0.554 L12.561,0.554 C7.367,0.554 2.37,4.557 0.66,10.539" id="path-26"></path>
        <path d="M0.66,10.539 C-1.353,17.58 1.945,24.698 8.028,26.437 L8.028,26.437 C8.631,26.609 9.24,26.722 9.848,26.779 L9.848,26.779 L11.614,26.789 C16.504,26.39 21.067,22.501 22.686,16.836 L22.686,16.836 C24.7,9.796 21.4,2.678 15.318,0.94 L15.318,0.94 C14.404,0.679 13.48,0.554 12.561,0.554 L12.561,0.554 C7.367,0.554 2.37,4.557 0.66,10.539" id="path-28"></path>
        <path d="M0.66,10.539 C-1.353,17.58 1.945,24.698 8.028,26.437 L8.028,26.437 C8.631,26.609 9.24,26.722 9.848,26.779 L9.848,26.779 L11.614,26.789 C16.504,26.39 21.067,22.501 22.686,16.836 L22.686,16.836 C24.7,9.796 21.4,2.678 15.318,0.94 L15.318,0.94 C14.404,0.679 13.48,0.554 12.561,0.554 L12.561,0.554 C7.367,0.554 2.37,4.557 0.66,10.539" id="path-30"></path>
        <path d="M0.66,10.539 C-1.353,17.58 1.945,24.698 8.028,26.437 L8.028,26.437 C8.631,26.609 9.24,26.722 9.848,26.779 L9.848,26.779 L11.614,26.789 C16.504,26.39 21.067,22.501 22.686,16.836 L22.686,16.836 C24.7,9.796 21.4,2.678 15.318,0.94 L15.318,0.94 C14.404,0.679 13.48,0.554 12.561,0.554 L12.561,0.554 C7.367,0.554 2.37,4.557 0.66,10.539" id="path-32"></path>
        <path d="M0.66,10.539 C-1.353,17.58 1.945,24.698 8.028,26.437 L8.028,26.437 C8.631,26.609 9.24,26.722 9.848,26.779 L9.848,26.779 L11.614,26.789 C16.504,26.39 21.067,22.501 22.686,16.836 L22.686,16.836 C24.7,9.796 21.4,2.678 15.318,0.94 L15.318,0.94 C14.404,0.679 13.48,0.554 12.561,0.554 L12.561,0.554 C7.367,0.554 2.37,4.557 0.66,10.539" id="path-34"></path>
        <path d="M0.66,10.539 C-1.353,17.58 1.945,24.698 8.028,26.437 L8.028,26.437 C8.631,26.609 9.24,26.722 9.848,26.779 L9.848,26.779 L11.614,26.789 C16.504,26.39 21.067,22.501 22.686,16.836 L22.686,16.836 C24.7,9.796 21.4,2.678 15.318,0.94 L15.318,0.94 C14.404,0.679 13.48,0.554 12.561,0.554 L12.561,0.554 C7.367,0.554 2.37,4.557 0.66,10.539" id="path-36"></path>
        <path d="M10.8090319,0.704974574 C14.9475858,2.50853555 15.0407945,11.4515808 12.554,17.806 C11.368,20.84 5.264,20.443 3.409,19.835 C2.66970217,19.8311575 1.20988018,18.9118949 0.246363976,16.9628367 C-0.0782669327,14.9233359 0.034329353,12.7274486 0.66,10.539 C2.17641225,5.23421749 6.27771442,1.48571644 10.8090319,0.704974574" id="path-38"></path>
        <radialGradient cx="50.0157787%" cy="49.9628548%" fx="50.0157787%" fy="49.9628548%" r="50.2328859%" gradientTransform="translate(0.500158,0.499629),scale(1.000000,0.751236),rotate(0.313728),scale(1.000000,1.318143),translate(-0.500158,-0.499629)" id="radialGradient-40">
            <stop stop-color="#FFFFFF" offset="0%"></stop>
            <stop stop-color="#FFFFFF" offset="100%"></stop>
        </radialGradient>
    </defs>
    <g id="Page-1" stroke="none" stroke-width="1" fill="none" fill-rule="evenodd">
        <g id="Desktop-HD" transform="translate(-588.000000, -3185.000000)">
            <g id="Group-68" transform="translate(588.000000, 3184.020000)">
                <g id="Group-89" transform="translate(1.000000, 75.000000)">
                    <mask id="mask-2" fill="white">
                        <use xlink:href="#path-1"></use>
                    </mask>
                    <g id="Clip-88"></g>
                    <path d="M7.364,59.521 C7.364,59.521 11.549,37.904 22.472,29.264 L22.472,29.264 C44.178,12.095 15.365,0.858 15.365,0.858 L15.365,0.858 C15.365,0.858 -12.622,25.463 7.364,59.521" id="Fill-87" mask="url(#mask-2)"></path>
                </g>
                <g id="Group-129">
                    <path d="M8.3637,134.5212 C8.3637,134.5212 10.8967,112.8952 19.8917,104.2442 C39.8397,85.0612 13.6107,75.8432 13.6107,75.8432 C13.6107,75.8432 -11.6223,100.4632 8.3637,134.5212" id="Fill-90" fill="#330A32"></path>
                    <path d="M14.8533,111.4665 C14.8533,111.4665 16.9553,107.8185 19.8923,104.2445 C37.4603,82.8615 13.6113,75.8425 13.6113,75.8425 C13.6113,75.8425 2.9303,92.0955 14.8533,111.4665" id="Fill-92" fill="#0B0A0C"></path>
                    <path d="M7.7119,82.4856 C10.2079,82.9466 77.4449,82.8676 77.4449,82.8676 L77.1009,77.8826 L7.7299,79.2676 L7.7119,82.4856 Z" id="Fill-94" fill="#0B0A0C"></path>
                    <path d="M75.5292,80.5725 C75.3812,107.6065 60.3432,120.1175 41.8782,120.0165 C23.4132,119.9155 8.5162,106.6205 8.6612,80.2065 C8.8382,47.8535 31.9972,21.7525 42.9672,21.8125 C55.1922,21.8795 75.7062,48.2195 75.5292,80.5725" id="Fill-96" fill="#F79E3C"></path>
                    <path d="M41.8592,123.4802 C39.4202,123.4672 37.9352,123.3392 35.6061502,122.7002 C35.5942,124.9632 37.7522,126.8092 39.0672,126.8172 L44.6142,126.8472 C45.9292,126.8542 48.1082,125.0312 48.1202,122.7682 C45.6992,123.4452 44.6222,123.4952 41.8592,123.4802" id="Fill-98" fill="#E23365"></path>
                    <path d="M41.8592,123.4802 C39.4202,123.4672 37.9352,123.3392 35.6061293,122.7002 C35.5942,124.9632 37.1122,125.2762 38.3082,125.4582 L44.6202,125.6652 C45.9362,125.6722 48.1052,125.5122 48.1202,122.7682 C45.6992,123.4452 44.6222,123.4952 41.8592,123.4802" id="Fill-100" fill="#330A32"></path>
                    <path d="M41.8773,120.1749 C37.0043,120.1479 34.0373,120.0119 29.3812406,119.3609 C29.3683,121.6239 31.4893,123.4699 34.1173,123.4839 L49.6003,123.5689 C52.2283,123.5839 54.3693,121.7609 54.3813,119.4979 C49.5483,120.1609 47.3963,120.2049 41.8773,120.1749" id="Fill-102" fill="#CE7B28"></path>
                    <path d="M41.8974,116.5028 C35.1164,116.4658 30.9874,116.2498 24.5092988,115.2018 C24.4894,118.8598 27.4374,121.8408 31.0944,121.8608 L52.6404,121.9788 C56.2984,121.9988 59.2794,119.0498 59.2994,115.3928 C52.5714,116.4718 49.5784,116.5448 41.8974,116.5028" id="Fill-104" fill="#F79E3C"></path>
                    <polygon id="Fill-106" fill="#330A32" points="42.9296 1.9216 42.8176 1.9206 41.8796 18.2966 43.5426 18.3006"></polygon>
                    <path d="M49.9554,21.197 C49.9384,24.224 46.7084,19.565 42.6934,19.543 C38.6774,19.521 35.3964,24.144 35.4134,21.117 C35.4294,18.09 38.7094,13.72 42.7254,13.742 C46.7404,13.764 49.9724,18.17 49.9554,21.197" id="Fill-108" fill="#595BD9"></path>
                    <g id="Group-122" transform="translate(41.000000, 0.000000)">
                        <path d="M2.7852,1.9702 C2.7822,2.5142 2.3392,2.9522 1.7952,2.9502 C1.2512,2.9472 0.8122,2.5032 0.8152,1.9592 C0.8182,1.4152 1.2622,0.9772 1.8062,0.9802 C2.3492,0.9832 2.7882,1.4262 2.7852,1.9702" id="Fill-110" fill="#00EBAA"></path>
                        <g id="Group-121">
                            <g id="Group-114">
                                <mask id="mask-4" fill="white">
                                    <use xlink:href="#path-3"></use>
                                </mask>
                                <g id="Clip-113"></g>
                                <path d="M2.6887,2.0161 C2.6857,2.5341 2.2637,2.9521 1.7447,2.9491 C1.2267,2.9471 0.8087,2.5241 0.8117,2.0061 C0.8147,1.4871 1.2367,1.0701 1.7557,1.0721 C2.2737,1.0751 2.6917,1.4981 2.6887,2.0161" id="Fill-112" fill="#00EBAA" mask="url(#mask-4)"></path>
                            </g>
                            <g id="Group-117">
                                <mask id="mask-6" fill="white">
                                    <use xlink:href="#path-5"></use>
                                </mask>
                                <g id="Clip-116"></g>
                                <path d="M2.5674,1.5476 C2.7054,1.9456 2.4164,2.4076 1.9224,2.5786 C1.4284,2.7496 0.9154,2.5646 0.7784,2.1656 C0.6404,1.7676 0.9294,1.3056 1.4234,1.1356 C1.9174,0.9646 2.4294,1.1486 2.5674,1.5476" id="Fill-115" fill="#00EBAA" mask="url(#mask-6)"></path>
                            </g>
                            <g id="Group-120">
                                <mask id="mask-8" fill="white">
                                    <use xlink:href="#path-7"></use>
                                </mask>
                                <g id="Clip-119"></g>
                                <path d="M1.9497,1.2358 C2.1487,1.4588 2.0817,1.8428 1.7997,2.0948 C1.5187,2.3468 1.1287,2.3698 0.9297,2.1468 C0.7307,1.9238 0.7977,1.5398 1.0797,1.2878 C1.3607,1.0368 1.7507,1.0128 1.9497,1.2358" id="Fill-118" fill="#00EBAA" mask="url(#mask-8)"></path>
                            </g>
                        </g>
                    </g>
                    <path d="M26.4659,33.2574 C29.9079,31.2454 42.1329,24.4144 58.9849,32.5464 C58.4079,30.5904 57.7159,29.5014 57.7159,29.5014 C57.7159,29.5014 37.6739,22.3574 32.2189,26.6024 C27.2669,30.4564 26.4659,33.2574 26.4659,33.2574" id="Fill-123" fill="#330A32"></path>
                    <path d="M58.6677,31.8062 C51.0287,27.0672 35.6077,26.5932 26.7547,32.5522 L25.8467,32.9902 C25.8467,32.9902 33.3857,18.5242 42.9977,18.5772 C52.1017,18.6272 59.4197,31.9632 59.4197,31.9632 L58.6677,31.8062 Z" id="Fill-125" fill="#330A32"></path>
                    <path d="M59.4196,31.9634 C51.3796,26.2614 35.2646,25.4564 25.8466,32.9904 C26.1076,31.1404 32.6106,16.9324 43.0066,16.9884 C52.9536,17.0434 59.4306,30.0404 59.4196,31.9634" id="Fill-127" fill="#330A32"></path>
                </g>
                <g id="Group-148" transform="translate(25.000000, 16.000000)">
                    <g id="Group-132">
                        <mask id="mask-10" fill="white">
                            <use xlink:href="#path-9"></use>
                        </mask>
                        <g id="Clip-131"></g>
                        <path d="M34.4196,15.9634 C26.3796,10.2614 10.2646,9.4564 0.8466,16.9904 C1.1076,15.1404 7.6106,0.9324 18.0066,0.9884 C27.9536,1.0434 34.4306,14.0404 34.4196,15.9634" id="Fill-130" fill="#330A32" mask="url(#mask-10)"></path>
                    </g>
                    <g id="Group-135">
                        <mask id="mask-12" fill="white">
                            <use xlink:href="#path-11"></use>
                        </mask>
                        <g id="Clip-134"></g>
                        <path d="M11.2288,20.3613 C7.6158,21.2033 2.6178,18.1733 0.8468,16.9903 C1.1068,15.1403 12.2418,-11.4337 26.6148,4.4113 C16.8328,-1.1487 11.0318,17.0463 11.2288,20.3613" id="Fill-133" fill="#330A32" mask="url(#mask-12)"></path>
                    </g>
                    <g id="Group-138">
                        <mask id="mask-14" fill="white">
                            <use xlink:href="#path-13"></use>
                        </mask>
                        <g id="Clip-137"></g>
                        <path d="M0.847,16.9903 C-1.419,5.5643 28.038,-23.6007 34.42,15.9633 C27.913,-0.8937 11.416,-2.0217 0.847,16.9903" id="Fill-136" fill="#330A32" mask="url(#mask-14)"></path>
                    </g>
                    <g id="Group-141">
                        <mask id="mask-16" fill="white">
                            <use xlink:href="#path-15"></use>
                        </mask>
                        <g id="Clip-140"></g>
                        <path d="M27.4571,15.4543 C26.0391,4.8303 22.9041,2.0563 20.1651,-0.5537 C18.7551,-1.8957 31.7931,-0.3197 34.4201,15.9633 C30.6611,15.8103 28.8551,15.2853 27.4571,15.4543" id="Fill-139" fill="#330A32" mask="url(#mask-16)"></path>
                    </g>
                    <g id="Group-144">
                        <mask id="mask-18" fill="white">
                            <use xlink:href="#path-17"></use>
                        </mask>
                        <g id="Clip-143"></g>
                        <path d="M32.3917,16.9785 C30.9737,6.3545 25.3987,3.6245 22.6587,1.0145 C21.2497,-0.3285 31.7927,-0.3195 34.4197,15.9635 C30.6607,15.8095 33.7897,16.8095 32.3917,16.9785" id="Fill-142" fill="#330A32" mask="url(#mask-18)"></path>
                    </g>
                    <g id="Group-147">
                        <mask id="mask-20" fill="white">
                            <use xlink:href="#path-19"></use>
                        </mask>
                        <g id="Clip-146"></g>
                        <path d="M17.2788,1.989 C11.3738,1.832 7.9028,5.355 7.0798,8.725 C6.0628,12.89 11.6258,10.826 12.9658,9.6 C14.3068,8.375 19.1618,2.039 17.2788,1.989" id="Fill-145" fill="#330A32" mask="url(#mask-20)"></path>
                    </g>
                </g>
                <g id="Group-159" transform="translate(15.000000, 38.000000)">
                    <path d="M54.9859,101.6952 C54.9859,101.6952 60.7909,81.1212 54.4309,42.2482 L60.5299,42.0902 C60.5299,42.0902 76.6209,76.7152 54.9859,101.6952" id="Fill-149" fill="#330A32"></path>
                    <path d="M54.9859,101.6952 C54.9859,101.6952 52.0759,78.5172 47.1159,71.9302 C56.8139,54.1252 54.4309,42.2482 54.4309,42.2482 C54.4309,42.2482 70.8509,72.6842 54.9859,101.6952" id="Fill-151" fill="#330A32"></path>
                    <path d="M3.1088,13.856 C5.5668,5.26 14.2278,-0.477 21.9108,1.72 C29.5938,3.917 34.7798,12.823 31.9248,22.553 C29.4068,31.131 19.6158,36.287 12.0998,33.706 C4.5418,31.11 0.6508,22.452 3.1088,13.856" id="Fill-153" fill="#0B0A0C"></path>
                    <path d="M2.1078,13.3486 C4.5658,4.7526 13.0798,-1.0264 20.5898,1.1216 C28.0998,3.2686 33.7298,11.5236 30.7638,21.8816 C28.3018,30.4776 18.6478,35.6456 10.7928,33.1106 C3.3598,30.7126 -0.3502,21.9446 2.1078,13.3486" id="Fill-155" fill="#595BD9"></path>
                    <path d="M1.571,12.9759 C4.008,4.4509 12.383,-1.3001 19.748,0.8059 C27.112,2.9119 32.615,11.0759 29.673,21.3479 C27.232,29.8729 17.741,35.0219 10.038,32.5329 C2.749,30.1779 -0.866,21.5009 1.571,12.9759" id="Fill-157" fill="#330A32"></path>
                </g>
                <g id="Group-162" transform="translate(17.000000, 41.000000)">
                    <mask id="mask-22" fill="white">
                        <use xlink:href="#path-21"></use>
                    </mask>
                    <g id="Clip-161"></g>
                    <path d="M1.448,10.428 C-0.637,17.722 2.785,25.097 9.091,26.899 L9.091,26.899 C15.398,28.703 22.201,24.251 24.287,16.958 L24.287,16.958 C26.372,9.663 22.95,2.289 16.644,0.486 L16.644,0.486 C15.695,0.215 14.737,0.085 13.783,0.085 L13.783,0.085 C8.398,0.086 3.22,4.231 1.448,10.428" id="Fill-160" fill="url(#linearGradient-23)" mask="url(#mask-22)"></path>
                </g>
                <path d="M18.6595,51.5391 C20.6725,44.4981 27.2355,40.2001 33.3175,41.9391 C39.4005,43.6781 42.6995,50.7961 40.6865,57.8371 C38.6735,64.8781 32.1105,69.1751 26.0275,67.4361 C19.9455,65.6971 16.6465,58.5801 18.6595,51.5391" id="Fill-163" fill="#00B8C4"></path>
                <g id="Group-190" opacity="0.358189174" transform="translate(18.000000, 41.000000)">
                    <g id="Group-167">
                        <mask id="mask-25" fill="white">
                            <use xlink:href="#path-24"></use>
                        </mask>
                        <g id="Clip-166"></g>
                        <path d="M29.3502,26.886 L-4.5588,26.7 C-4.4858,13.37 3.1832,-0.802 12.5462,-0.751 C21.9102,-0.699 29.4232,13.556 29.3502,26.886" id="Fill-165" fill="#08AAAC" mask="url(#mask-25)"></path>
                    </g>
                    <g id="Group-170">
                        <mask id="mask-27" fill="white">
                            <use xlink:href="#path-26"></use>
                        </mask>
                        <g id="Clip-169"></g>
                        <path d="M-3.1192,28.8575 L27.8078,29.0265 C28.8468,29.0325 29.6688,27.8715 29.6008,26.5055 C28.8928,12.2865 21.5448,-0.6955 12.5088,-0.7455 C3.4548,-0.7945 -4.0442,11.6255 -4.8852,26.3215 C-4.9632,27.6855 -4.1562,28.8515 -3.1192,28.8575" id="Fill-168" fill="#1CACB7" mask="url(#mask-27)"></path>
                    </g>
                    <g id="Group-173">
                        <mask id="mask-29" fill="white">
                            <use xlink:href="#path-28"></use>
                        </mask>
                        <g id="Clip-172"></g>
                        <path d="M-3.1192,28.8575 L27.8078,29.0265 C28.8468,29.0325 29.6688,27.8715 29.6008,26.5055 C28.8928,12.2865 21.5448,-0.6955 12.5088,-0.7455 C3.4548,-0.7945 -4.0442,11.6255 -4.8852,26.3215 C-4.9632,27.6855 -4.1562,28.8515 -3.1192,28.8575" id="Fill-171" fill="#FFFFFF" mask="url(#mask-29)"></path>
                    </g>
                    <g id="Group-176">
                        <mask id="mask-31" fill="white">
                            <use xlink:href="#path-30"></use>
                        </mask>
                        <g id="Clip-175"></g>
                        <path d="M-1.078,27.7956 L26.285,28.2136 C27.324,28.2196 28.147,27.0586 28.079,25.6926 C27.37,11.4726 22.359,-0.0774 12.506,-0.1314 C1.808,-0.1894 -3.085,13.4626 -3.149,25.2586 C-3.157,26.6256 -2.115,27.7896 -1.078,27.7956" id="Fill-174" fill="#1CACB7" mask="url(#mask-31)"></path>
                    </g>
                    <g id="Group-179">
                        <mask id="mask-33" fill="white">
                            <use xlink:href="#path-32"></use>
                        </mask>
                        <g id="Clip-178"></g>
                        <path d="M9.8326,26.1113 L9.8326,26.1113 C10.7956,26.1163 18.5636,24.4153 20.2076,16.7153 C21.7986,9.2613 20.7986,-0.0857 12.5126,-0.1307 C2.5976,-0.1857 -0.7184,8.0863 -0.7784,19.0203 C-0.8004,23.0003 6.3966,26.7603 9.8326,26.1113" id="Fill-177" fill="#FFFFFF" mask="url(#mask-33)"></path>
                    </g>
                    <g id="Group-182">
                        <mask id="mask-35" fill="white">
                            <use xlink:href="#path-34"></use>
                        </mask>
                        <g id="Clip-181"></g>
                        <path d="M9.3311,25.2083 L9.3311,25.2083 C12.5271,25.3803 18.3021,22.2923 19.1691,16.5413 C20.3061,8.9943 17.1711,1.2813 12.6171,1.2003 C4.1731,1.0503 -0.7159,10.6543 1.4631,20.0583 C2.2361,23.3953 8.3691,25.2033 9.3311,25.2083" id="Fill-180" fill="#FFFFFF" mask="url(#mask-35)"></path>
                    </g>
                    <g id="Group-185">
                        <mask id="mask-37" fill="white">
                            <use xlink:href="#path-36"></use>
                        </mask>
                        <g id="Clip-184"></g>
                        <path d="M5.2475,20.8534 L5.2475,20.8534 C6.7005,20.0734 7.4465,19.7444 8.2415,14.2304 C9.6555,4.4264 14.1355,2.6964 12.6125,1.9504 C7.8045,1.3874 -0.4815,9.3374 1.5545,18.7984 C2.0125,20.9274 4.0215,21.7954 5.2475,20.8534" id="Fill-183" fill="#FFFFFF" mask="url(#mask-37)"></path>
                    </g>
                    <g id="Group-188">
                        <mask id="mask-39" fill="white">
                            <use xlink:href="#path-38"></use>
                        </mask>
                        <g id="Clip-187"></g>
                        <path d="M3.409,19.835 L3.409,19.835 C5.264,20.443 11.368,20.84 12.554,17.806 C15.232,10.963 14.918,1.118 9.782,0.42 C6.09,-0.083 -2.272,6.457 -0.456,14.918 C0.265,18.275 2.447,19.83 3.409,19.835" id="Fill-186" fill="url(#radialGradient-40)" mask="url(#mask-39)"></path>
                    </g>
                    <path d="M19.685,0.159 C27.351,5.581 33.284,22.72 30.413,29.733 C27.542,36.746 22.58,26.448 22.58,26.448 C22.58,26.448 29.14,18.718 19.685,0.159" id="Fill-189"></path>
                </g>
                <path d="M7.727,79.7312 C10.223,80.1922 77.46,80.1132 77.46,80.1132 L77.116,75.1282 L7.745,76.5132 L7.727,79.7312 Z" id="Fill-191" fill="#330A32"></path>
            </g>
        </g>
    </g>
</svg>