<?xml version="1.0" encoding="UTF-8"?>
<svg width="1441px" height="751px" viewBox="0 0 1441 751" version="1.1" xmlns="http://www.w3.org/2000/svg" xmlns:xlink="http://www.w3.org/1999/xlink">
    <!-- Generator: Sketch 53.1 (72631) - https://sketchapp.com -->
    <title>Group 223Beach_invitation_bg</title>
    <desc>Created with Sketch.</desc>
    <defs>
        <polygon id="path-1" points="0.251 0.3293 394.499 0.3293 394.499 716.1743 0.251 716.1743"></polygon>
        <polygon id="path-3" points="0.499 0.0442674759 20.649353 0.0442674759 20.649353 64.2956813 0.499 64.2956813"></polygon>
        <polygon id="path-5" points="0.499 0.0867959329 1440.499 0.0867959329 1440.499 206.917 0.499 206.917"></polygon>
    </defs>
    <g id="Page-1" stroke="none" stroke-width="1" fill="none" fill-rule="evenodd">
        <g id="Group-223" transform="translate(0.000000, -1.000000)">
            <g id="Group-222">
                <polygon id="Fill-1" fill="#F7CE7A" points="0.499 751.999 1440.499 751.999 1440.499 0.999 0.499 0.999"></polygon>
                <g id="Group-221" transform="translate(0.000000, 1.082000)">
                    <g id="Group-4" transform="translate(1046.000000, 0.000000)">
                        <mask id="mask-2" fill="white">
                            <use xlink:href="#path-1"></use>
                        </mask>
                        <g id="Clip-3"></g>
                        <path d="M390.936,716.1743 L7.279,716.1743 C3.398,716.1743 0.251,713.0283 0.251,709.1473 L0.251,7.3563 C0.251,3.4753 3.398,0.3293 7.279,0.3293 L390.936,0.3293 C394.817,0.3293 397.962,3.4753 397.962,7.3563 L397.962,709.1473 C397.962,713.0283 394.817,716.1743 390.936,716.1743" id="Fill-2" fill="#08AAEB" mask="url(#mask-2)"></path>
                    </g>
                    <g id="Group-13" opacity="0.478655134" transform="translate(1120.000000, 462.000000)" fill="#FFFFFF">
                        <path d="M274.3208,88.0747 C269.4738,85.4757 266.6098,80.9417 264.0468,76.2497 C264.3108,76.1967 264.5758,76.1417 264.8368,76.0617 L264.0598,75.7507 C267.2558,72.6127 269.0808,68.1097 268.8868,63.6317 C268.8628,63.0577 268.7508,62.3937 268.2498,62.1137 C266.0078,62.8937 264.7178,65.2467 264.0568,67.5257 C263.3508,69.9617 263.1508,72.5327 263.4168,75.0537 C261.1778,70.7757 259.5938,66.5437 259.2098,61.8877 C261.2808,60.6937 263.2528,59.3197 264.8908,57.5867 C266.8668,55.4967 268.3478,52.8577 268.6818,50.0007 C268.7108,49.7547 268.7168,49.4697 268.5328,49.3027 C268.3368,49.1247 268.0298,49.1777 267.7748,49.2527 C265.0598,50.0547 262.8378,52.1087 261.3528,54.5187 C260.3428,56.1577 259.6558,57.9617 259.1138,59.8127 C259.1108,59.1397 259.1168,58.4637 259.1668,57.7697 C259.4298,54.1057 260.2808,50.4667 261.0858,46.8457 L261.2148,46.7367 C265.2928,45.9707 268.9418,43.1927 270.7648,39.4667 C271.4768,38.0117 271.9168,36.2847 271.3068,34.7847 C266.6628,36.4667 262.9458,40.4397 261.4568,45.1377 C262.1858,41.7307 262.7678,38.3377 262.7008,34.9517 C263.8348,32.2947 264.0408,29.9427 263.4248,26.7657 C263.1008,25.0947 262.5678,23.4637 261.8328,21.9287 C261.4678,21.1687 260.4218,19.1457 259.2898,19.1197 C259.0908,19.1147 258.8868,19.1727 258.6858,19.3097 C257.0918,20.3987 257.7558,25.2337 258.1108,26.7867 C258.7588,29.6207 260.3308,32.0237 261.4098,34.7037 C261.5878,38.3207 260.9718,41.9927 260.1948,45.6837 C259.5438,41.0987 257.2378,36.7617 253.7578,33.7037 C253.2168,33.2287 252.3928,32.7767 251.8388,33.2357 C251.3468,33.6417 251.5068,34.4207 251.7308,35.0177 C253.3948,39.4377 256.3258,43.3697 260.0788,46.2387 C259.0958,50.8207 257.9208,55.4287 257.7508,59.9937 C256.3948,57.5607 254.7298,55.3007 252.7738,53.3177 C251.6948,52.2237 250.5008,51.1897 249.0668,50.6387 C248.8368,50.5507 248.5818,50.4747 248.3478,50.5547 C247.8168,50.7397 247.8438,51.4977 248.0058,52.0367 C249.4028,56.7287 253.1488,60.6367 257.7568,62.2827 C257.7838,62.9037 257.8278,63.5237 257.9028,64.1417 C258.2868,67.2717 259.4448,70.2847 260.8498,73.1687 C258.2588,71.1027 255.0318,69.8287 251.7208,69.6397 C250.9848,69.5977 250.0068,69.8117 249.9568,70.5487 C249.9348,70.8607 250.1098,71.1517 250.2958,71.4047 C251.7168,73.3477 254.0128,74.4387 256.2808,75.2497 C258.2898,75.9677 260.4458,76.5207 262.5498,76.4347 C262.9438,77.1537 263.3388,77.8667 263.7288,78.5657 C266.1538,82.9047 269.1688,86.8937 273.6168,89.2787 C274.4098,89.7037 275.1138,88.4997 274.3208,88.0747" id="Fill-5"></path>
                        <path d="M229.4302,100.1992 C225.4902,98.0862 223.1602,94.4002 221.0762,90.5852 C221.2912,90.5412 221.5072,90.4972 221.7192,90.4322 L221.0872,90.1782 C223.6852,87.6272 225.1692,83.9662 225.0122,80.3252 C224.9932,79.8582 224.9022,79.3192 224.4932,79.0912 C222.6712,79.7252 221.6222,81.6382 221.0852,83.4912 C220.5112,85.4722 220.3482,87.5622 220.5642,89.6132 C218.7442,86.1342 217.4562,82.6932 217.1442,78.9072 C218.8272,77.9372 220.4312,76.8202 221.7632,75.4102 C223.3692,73.7112 224.5752,71.5652 224.8452,69.2422 C224.8682,69.0432 224.8732,68.8102 224.7252,68.6752 C224.5652,68.5302 224.3152,68.5732 224.1082,68.6342 C221.9012,69.2872 220.0942,70.9562 218.8862,72.9162 C218.0662,74.2482 217.5062,75.7152 217.0662,77.2202 C217.0642,76.6732 217.0692,76.1232 217.1092,75.5592 C217.3232,72.5802 218.0152,69.6212 218.6692,66.6772 L218.7742,66.5882 C222.0892,65.9662 225.0562,63.7072 226.5392,60.6772 C227.1182,59.4952 227.4762,58.0912 226.9802,56.8712 C223.2032,58.2382 220.1822,61.4692 218.9712,65.2882 C219.5642,62.5182 220.0372,59.7602 219.9832,57.0072 C220.9042,54.8462 221.0722,52.9342 220.5712,50.3512 C220.3082,48.9922 219.8742,47.6662 219.2772,46.4182 C218.9802,45.8002 218.1292,44.1552 217.2092,44.1342 C217.0462,44.1302 216.8822,44.1772 216.7182,44.2892 C215.4222,45.1742 215.9622,49.1062 216.2502,50.3682 C216.7782,52.6722 218.0552,54.6262 218.9332,56.8052 C219.0772,59.7452 218.5772,62.7312 217.9452,65.7322 C217.4152,62.0052 215.5402,58.4782 212.7112,55.9922 C212.2722,55.6052 211.6022,55.2382 211.1512,55.6112 C210.7512,55.9412 210.8802,56.5752 211.0632,57.0602 C212.4162,60.6542 214.7992,63.8512 217.8502,66.1832 C217.0512,69.9092 216.0962,73.6562 215.9572,77.3682 C214.8562,75.3892 213.5022,73.5522 211.9112,71.9402 C211.0342,71.0502 210.0632,70.2092 208.8972,69.7612 C208.7102,69.6892 208.5022,69.6282 208.3132,69.6932 C207.8802,69.8432 207.9042,70.4602 208.0342,70.8982 C209.1702,74.7132 212.2162,77.8902 215.9622,79.2292 C215.9852,79.7332 216.0202,80.2382 216.0812,80.7402 C216.3942,83.2842 217.3352,85.7352 218.4782,88.0792 C216.3712,86.3992 213.7472,85.3642 211.0552,85.2102 C210.4562,85.1762 209.6612,85.3502 209.6202,85.9492 C209.6032,86.2032 209.7452,86.4392 209.8962,86.6452 C211.0512,88.2252 212.9192,89.1122 214.7632,89.7712 C216.3962,90.3552 218.1492,90.8052 219.8602,90.7352 C220.1802,91.3202 220.5012,91.8992 220.8192,92.4682 C222.7902,95.9952 225.2412,99.2392 228.8582,101.1782 C229.5022,101.5232 230.0752,100.5452 229.4302,100.1992" id="Fill-7"></path>
                        <path d="M22.0835,125.7588 C18.1425,123.6458 15.8125,119.9598 13.7295,116.1448 C13.9445,116.1008 14.1595,116.0568 14.3715,115.9918 L13.7405,115.7378 C16.3385,113.1868 17.8225,109.5268 17.6655,105.8848 C17.6455,105.4178 17.5545,104.8788 17.1465,104.6508 C15.3245,105.2848 14.2755,107.1978 13.7375,109.0508 C13.1635,111.0318 13.0015,113.1218 13.2175,115.1728 C11.3965,111.6938 10.1095,108.2528 9.7965,104.4668 C11.4805,103.4968 13.0835,102.3798 14.4165,100.9698 C16.0225,99.2708 17.2275,97.1248 17.4985,94.8028 C17.5215,94.6028 17.5265,94.3698 17.3775,94.2348 C17.2185,94.0898 16.9685,94.1328 16.7615,94.1938 C14.5535,94.8468 12.7465,96.5158 11.5395,98.4758 C10.7195,99.8078 10.1595,101.2748 9.7185,102.7798 C9.7165,102.2328 9.7215,101.6828 9.7625,101.1188 C9.9765,98.1398 10.6675,95.1808 11.3215,92.2368 L11.4275,92.1478 C14.7425,91.5258 17.7095,89.2668 19.1925,86.2368 C19.7705,85.0548 20.1285,83.6508 19.6335,82.4308 C15.8565,83.7978 12.8355,87.0288 11.6235,90.8478 C12.2165,88.0778 12.6895,85.3198 12.6355,82.5668 C13.5575,80.4058 13.7245,78.4938 13.2245,75.9108 C12.9615,74.5518 12.5275,73.2258 11.9295,71.9778 C11.6335,71.3598 10.7815,69.7148 9.8615,69.6938 C9.6995,69.6898 9.5345,69.7368 9.3715,69.8488 C8.0755,70.7338 8.6145,74.6658 8.9035,75.9278 C9.4315,78.2318 10.7085,80.1858 11.5855,82.3648 C11.7295,85.3048 11.2295,88.2908 10.5985,91.2918 C10.0675,87.5648 8.1935,84.0378 5.3635,81.5518 C4.9245,81.1658 4.2545,80.7978 3.8035,81.1708 C3.4045,81.5018 3.5335,82.1348 3.7165,82.6198 C5.0695,86.2138 7.4525,89.4108 10.5035,91.7428 C9.7045,95.4688 8.7495,99.2158 8.6105,102.9278 C7.5085,100.9488 6.1545,99.1118 4.5645,97.4998 C3.6875,96.6098 2.7165,95.7688 1.5505,95.3208 C1.3625,95.2488 1.1555,95.1878 0.9665,95.2528 C0.5335,95.4028 0.5565,96.0198 0.6875,96.4578 C1.8235,100.2728 4.8695,103.4498 8.6155,104.7888 C8.6385,105.2928 8.6735,105.7978 8.7345,106.3008 C9.0465,108.8448 9.9885,111.2948 11.1305,113.6398 C9.0245,111.9588 6.4005,110.9238 3.7085,110.7698 C3.1095,110.7358 2.3135,110.9098 2.2725,111.5088 C2.2555,111.7628 2.3975,111.9988 2.5485,112.2048 C3.7045,113.7848 5.5715,114.6718 7.4155,115.3308 C9.0485,115.9148 10.8025,116.3648 12.5135,116.2948 C12.8325,116.8798 13.1535,117.4588 13.4725,118.0278 C15.4425,121.5548 17.8945,124.7988 21.5115,126.7378 C22.1545,127.0838 22.7285,126.1048 22.0835,125.7588" id="Fill-9"></path>
                        <path d="M303.1011,61 C302.6161,60.667 301.9541,60.874 301.4271,61.136 C298.7721,62.456 296.8911,64.823 295.2781,67.363 C296.5631,63.286 296.9861,58.859 296.7421,54.501 C297.2871,54.032 297.9201,53.642 298.5101,53.223 C301.3271,51.226 303.1451,47.887 303.2951,44.437 C303.3171,43.95 303.2961,43.429 303.0191,43.028 C302.6511,42.496 301.9031,42.329 301.2771,42.491 C300.6501,42.653 300.1271,43.083 299.6781,43.548 C298.1551,45.128 297.2571,47.225 296.7861,49.368 C296.6381,50.038 296.5381,50.716 296.4551,51.396 C296.4291,51.189 296.4131,50.98 296.3831,50.775 C295.9131,47.471 294.8611,44.039 293.6471,40.549 L293.7721,40.547 C296.8931,37.852 299.1621,34.184 300.1791,30.188 C300.4831,28.994 300.6571,27.648 300.0131,26.598 C299.8661,26.357 299.6521,26.125 299.3721,26.092 C299.0991,26.06 298.8451,26.224 298.6261,26.389 C296.5391,27.964 295.1601,30.337 294.3691,32.83 C293.6951,34.948 293.4191,37.165 293.2361,39.384 C291.9541,35.778 290.5491,32.12 289.4741,28.489 C290.7501,27.336 291.9021,26.05 293.0331,24.752 C295.1471,22.326 297.3671,19.66 297.6081,16.45 C297.6461,15.949 297.6291,15.427 297.4181,14.97 C297.2081,14.513 296.7661,14.134 296.2631,14.124 C295.6831,14.112 295.2081,14.56 294.8071,14.979 C293.0721,16.793 291.3511,18.7 290.3631,21.007 C289.8311,22.249 289.5271,23.573 289.2241,24.889 C289.1121,25.379 288.9991,25.868 288.8871,26.358 C287.7741,22.015 287.2651,17.732 288.1531,13.647 C289.7301,11.854 291.6571,10.393 293.4141,8.768 C295.3311,6.997 297.0981,4.88 297.6361,2.326 C297.7611,1.732 297.8011,1.059 297.4421,0.569 C297.0471,0.031 296.2691,-0.107 295.6271,0.079 C294.9871,0.264 294.4561,0.708 293.9711,1.166 C292.6101,2.448 291.4521,3.935 290.5041,5.547 C287.8641,9.148 286.5181,13.414 286.1901,17.983 C286.0121,20.468 286.3371,22.908 286.9281,25.31 C285.4591,22.868 283.7081,20.597 281.6911,18.586 C281.2981,18.195 280.8841,17.805 280.3721,17.59 C279.8621,17.376 279.2281,17.37 278.7921,17.712 C278.4631,17.97 278.2941,18.384 278.2101,18.793 C277.9621,20.008 278.3671,21.289 279.0751,22.306 C279.7841,23.323 280.7721,24.111 281.7911,24.815 C283.6151,26.074 285.5941,27.102 287.6621,27.897 C288.8241,31.538 290.4301,35.091 291.6801,38.574 C291.7481,38.764 291.8151,38.959 291.8811,39.151 C290.3441,37.382 288.6901,35.715 286.8901,34.213 C285.7331,33.248 284.4761,32.317 283.0061,31.984 C282.0381,31.764 280.8361,31.919 280.3441,32.783 C279.7521,33.823 280.5651,35.108 281.4721,35.888 C282.5621,36.825 283.8381,37.521 285.1421,38.125 C287.4371,39.189 289.8581,39.974 292.3341,40.493 C293.6971,44.662 294.7631,49.254 295.1641,53.85 C294.0521,52.188 292.6201,50.74 291.1541,49.366 C289.2031,47.538 286.8901,45.668 284.2191,45.801 C283.6521,45.829 282.9801,46.051 282.8581,46.605 C282.7951,46.889 282.9021,47.18 283.0181,47.445 C284.0921,49.888 286.2011,51.766 288.5631,53.006 C290.6561,54.105 292.9521,54.74 295.2651,55.251 C295.5621,60.474 294.9441,65.637 292.8791,70.119 C292.7811,69.394 292.6831,68.669 292.5841,67.944 C292.3411,66.147 292.0921,64.329 291.4081,62.65 C290.5201,60.472 288.8971,58.6 286.8661,57.413 C286.5891,57.252 286.2771,57.098 285.9631,57.16 C285.5751,57.237 285.3161,57.637 285.2751,58.031 C285.2341,58.426 285.3641,58.816 285.4971,59.189 C287.0321,63.458 289.4411,67.41 292.5321,70.729 L292.6061,70.702 C290.7961,74.35 287.9861,77.515 283.8601,79.841 C283.0771,80.282 283.7801,81.487 284.5641,81.045 C289.1461,78.462 292.2501,74.65 294.1951,70.251 C297.9871,69.312 301.3421,66.71 303.1541,63.247 C303.5361,62.518 303.7801,61.465 303.1011,61" id="Fill-11"></path>
                    </g>
                    <g id="Group-18" opacity="0.478655134" transform="translate(1164.000000, 506.000000)" fill="#FFFFFF">
                        <path d="M20.3198,69.2436 C16.2698,66.4106 14.1938,62.0616 12.4028,57.6036 C12.6448,57.5836 12.8868,57.5636 13.1288,57.5196 L12.4688,57.1596 C15.6518,54.6976 17.7578,50.8726 18.0588,46.8566 C18.0978,46.3416 18.0688,45.7376 17.6508,45.4346 C15.5678,45.8926 14.1678,47.8566 13.3368,49.8206 C12.4488,51.9186 11.9978,54.1916 11.9678,56.4706 C10.4238,52.4146 9.4588,48.4716 9.6078,44.2756 C11.5828,43.4296 13.4878,42.4126 15.1328,41.0396 C17.1178,39.3836 18.7188,37.1846 19.3188,34.6716 C19.3708,34.4546 19.4068,34.2006 19.2598,34.0326 C19.1038,33.8526 18.8238,33.8676 18.5898,33.9076 C16.0818,34.3366 13.8818,35.9326 12.2998,37.9276 C11.2258,39.2826 10.4218,40.8196 9.7418,42.4146 C9.8108,41.8136 9.8878,41.2106 10.0068,40.5966 C10.6288,37.3546 11.7728,34.1976 12.8748,31.0516 L13.0018,30.9676 C16.7208,30.7156 20.2718,28.6236 22.2938,25.4916 C23.0828,24.2686 23.6578,22.7746 23.2728,21.3716 C18.9508,22.3796 15.2138,25.5326 13.3858,29.5666 C14.3978,26.6036 15.2768,23.6376 15.5758,20.6086 C16.8678,18.3576 17.2998,16.2816 17.0878,13.3806 C16.9758,11.8556 16.6728,10.3436 16.1788,8.8966 C15.9338,8.1796 15.2148,6.2636 14.2078,6.1196 C14.0298,6.0946 13.8428,6.1246 13.6478,6.2266 C12.1108,7.0286 12.1908,11.4136 12.3438,12.8376 C12.6228,15.4346 13.7698,17.7446 14.4498,20.2506 C14.2248,23.4966 13.2878,26.7086 12.2028,29.9206 C12.1068,25.7606 10.5078,21.6456 7.7268,18.5486 C7.2948,18.0676 6.6068,17.5766 6.0638,17.9276 C5.5828,18.2386 5.6418,18.9506 5.7788,19.5066 C6.7968,23.6266 8.9958,27.4456 12.0398,30.4026 C10.6778,34.3886 9.1418,38.3756 8.5068,42.4316 C7.5538,40.1176 6.3078,37.9236 4.7728,35.9476 C3.9248,34.8566 2.9688,33.8076 1.7478,33.1636 C1.5518,33.0606 1.3318,32.9666 1.1158,33.0136 C0.6218,33.1216 0.5668,33.8016 0.6528,34.2996 C1.4028,38.6346 4.3328,42.5176 8.2688,44.4746 C8.2278,45.0316 8.2018,45.5896 8.2038,46.1496 C8.2148,48.9826 8.9288,51.7946 9.8778,54.5156 C7.7848,52.3976 5.0398,50.9196 2.1048,50.4006 C1.4528,50.2846 0.5568,50.3726 0.4338,51.0246 C0.3818,51.3016 0.5078,51.5786 0.6458,51.8246 C1.7088,53.7096 3.6418,54.9256 5.5798,55.8896 C7.2968,56.7426 9.1618,57.4646 11.0488,57.6106 C11.3238,58.2936 11.6008,58.9716 11.8758,59.6376 C13.5798,63.7646 15.8468,67.6436 19.5648,70.2436 C20.2268,70.7066 20.9828,69.7066 20.3198,69.2436" id="Fill-14"></path>
                        <path d="M63.189,55.6308 C62.792,55.2828 62.179,55.3978 61.681,55.5748 C59.172,56.4718 57.243,58.3848 55.535,60.4808 C57.113,56.9788 57.96,53.0728 58.203,49.1578 C58.738,48.7978 59.345,48.5158 59.916,48.2058 C62.64,46.7208 64.617,43.9338 65.116,40.8718 C65.187,40.4398 65.224,39.9718 65.019,39.5848 C64.747,39.0708 64.097,38.8428 63.521,38.9218 C62.945,38.9998 62.432,39.3268 61.982,39.6958 C60.457,40.9438 59.433,42.7198 58.785,44.5828 C58.583,45.1648 58.421,45.7588 58.276,46.3578 C58.275,46.1708 58.281,45.9818 58.277,45.7958 C58.207,42.7978 57.632,39.6228 56.918,36.3808 L57.03,36.3918 C60.101,34.3178 62.513,31.2848 63.844,27.8268 C64.242,26.7938 64.539,25.6108 64.076,24.6058 C63.97,24.3748 63.803,24.1458 63.557,24.0868 C63.317,24.0288 63.074,24.1478 62.861,24.2718 C60.831,25.4568 59.349,27.4278 58.379,29.5688 C57.554,31.3878 57.073,33.3368 56.674,35.2978 C55.912,31.9438 55.046,28.5308 54.471,25.1768 C55.733,24.2838 56.896,23.2578 58.043,22.2198 C60.186,20.2788 62.449,18.1338 63.004,15.2958 C63.09,14.8518 63.131,14.3838 62.992,13.9538 C62.852,13.5238 62.499,13.1398 62.05,13.0768 C61.534,13.0058 61.063,13.3548 60.661,13.6868 C58.919,15.1208 57.183,16.6398 56.056,18.5948 C55.451,19.6468 55.039,20.7958 54.629,21.9388 C54.477,22.3638 54.326,22.7888 54.173,23.2138 C53.639,19.2198 53.638,15.3448 54.864,11.7938 C56.46,10.3598 58.335,9.2598 60.076,7.9958 C61.973,6.6188 63.774,4.9168 64.524,2.6948 C64.699,2.1778 64.806,1.5818 64.537,1.1068 C64.242,0.5848 63.562,0.3788 62.97,0.4768 C62.378,0.5738 61.859,0.9148 61.377,1.2718 C60.026,2.2708 58.835,3.4758 57.819,4.8138 C55.082,7.7478 53.429,11.4118 52.653,15.4548 C52.231,17.6528 52.263,19.8648 52.536,22.0708 C51.484,19.7368 50.162,17.5248 48.574,15.5168 C48.265,15.1258 47.937,14.7338 47.503,14.4878 C47.07,14.2428 46.505,14.1698 46.081,14.4288 C45.759,14.6248 45.565,14.9768 45.447,15.3328 C45.096,16.3908 45.322,17.5758 45.846,18.5588 C46.371,19.5418 47.169,20.3498 48.004,21.0858 C49.499,22.4018 51.156,23.5288 52.917,24.4568 C53.569,27.8288 54.626,31.1698 55.373,34.4098 C55.414,34.5868 55.452,34.7678 55.491,34.9468 C54.306,33.2058 53.006,31.5418 51.559,30.0118 C50.629,29.0268 49.606,28.0648 48.33,27.6108 C47.488,27.3128 46.4,27.3238 45.87,28.0428 C45.231,28.9078 45.82,30.1408 46.547,30.9328 C47.421,31.8838 48.486,32.6398 49.585,33.3178 C51.521,34.5098 53.598,35.4668 55.753,36.1918 C56.527,40.0558 56.993,44.2668 56.864,48.4108 C56.047,46.8098 54.922,45.3658 53.759,43.9848 C52.211,42.1468 50.346,40.2338 47.949,40.0688 C47.44,40.0338 46.817,40.1608 46.65,40.6428 C46.564,40.8888 46.627,41.1598 46.704,41.4098 C47.403,43.7028 49.086,45.6018 51.063,46.9588 C52.814,48.1608 54.795,48.9708 56.805,49.6718 C56.518,54.3628 55.419,58.9048 53.102,62.6858 L53.07,60.7138 C53.043,59.0858 53.013,57.4358 52.58,55.8648 C52.018,53.8278 50.768,51.9858 49.082,50.7118 C48.852,50.5388 48.589,50.3678 48.303,50.3898 C47.948,50.4178 47.674,50.7468 47.596,51.0948 C47.518,51.4428 47.592,51.8038 47.672,52.1518 C48.589,56.1228 50.321,59.9048 52.728,63.1938 L52.796,63.1768 C50.796,66.2408 47.953,68.7678 44.025,70.4068 C43.279,70.7178 43.779,71.8668 44.526,71.5558 C48.887,69.7358 52.062,66.6638 54.262,62.9428 C57.746,62.5068 61.015,60.5408 62.999,57.6408 C63.417,57.0308 63.746,56.1178 63.189,55.6308" id="Fill-16"></path>
                    </g>
                    <g id="Group-24" transform="translate(0.000000, 591.000000)">
                        <g id="Group-21" transform="translate(0.000000, 14.000000)">
                            <mask id="mask-4" fill="white">
                                <use xlink:href="#path-3"></use>
                            </mask>
                            <g id="Clip-20"></g>
                            <path d="M17.5737,63.1762 C13.5237,60.3432 11.4477,55.9952 9.6567,51.5372 C9.8987,51.5162 10.1407,51.4962 10.3827,51.4522 L9.7217,51.0922 C12.9057,48.6302 15.0107,44.8062 15.3127,40.7892 C15.3507,40.2742 15.3227,39.6702 14.9037,39.3672 C12.8217,39.8252 11.4217,41.7892 10.5907,43.7532 C9.7027,45.8512 9.2517,48.1242 9.2207,50.4032 C7.6777,46.3472 6.7127,42.4042 6.8617,38.2082 C8.8367,37.3622 10.7407,36.3452 12.3867,34.9722 C14.3717,33.3162 15.9717,31.1182 16.5727,28.6042 C16.6247,28.3872 16.6597,28.1332 16.5137,27.9652 C16.3577,27.7852 16.0777,27.8002 15.8437,27.8402 C13.3347,28.2692 11.1347,29.8652 9.5537,31.8602 C8.4797,33.2152 7.6757,34.7522 6.9957,36.3472 C7.0637,35.7462 7.1407,35.1432 7.2597,34.5292 C7.8827,31.2872 9.0267,28.1312 10.1277,24.9842 L10.2557,24.9002 C13.9747,24.6492 17.5247,22.5562 19.5477,19.4242 C20.3367,18.2012 20.9117,16.7072 20.5267,15.3042 C16.2037,16.3132 12.4667,19.4652 10.6397,23.4992 C11.6517,20.5362 12.5297,17.5702 12.8287,14.5422 C14.1217,12.2902 14.5537,10.2142 14.3417,7.3132 C14.2297,5.7882 13.9267,4.2762 13.4317,2.8292 C13.1877,2.1122 12.4677,0.1962 11.4607,0.0522 C11.2827,0.0282 11.0957,0.0572 10.9017,0.1592 C9.3647,0.9622 9.4447,5.3462 9.5967,6.7702 C9.8767,9.3672 11.0227,11.6772 11.7027,14.1842 C11.4787,17.4292 10.5407,20.6412 9.4567,23.8532 C9.3607,19.6932 7.7617,15.5782 4.9797,12.4812 C4.5487,12.0002 3.8607,11.5092 3.3167,11.8602 C2.8367,12.1712 2.8947,12.8832 3.0327,13.4392 C4.0507,17.5592 6.2487,21.3792 9.2937,24.3352 C7.9317,28.3212 6.3947,32.3092 5.7607,36.3642 C4.8077,34.0502 3.5617,31.8562 2.0267,29.8802 C1.1787,28.7892 0.2227,27.7402 -0.9983,27.0962 C-1.1943,26.9932 -1.4143,26.8992 -1.6303,26.9462 C-2.1243,27.0542 -2.1803,27.7342 -2.0933,28.2322 C-1.3433,32.5672 1.5867,36.4502 5.5227,38.4072 C5.4817,38.9642 5.4557,39.5222 5.4577,40.0822 C5.4687,42.9152 6.1827,45.7272 7.1317,48.4492 C5.0387,46.3302 2.2937,44.8532 -0.6413,44.3332 C-1.2943,44.2182 -2.1903,44.3052 -2.3133,44.9572 C-2.3643,45.2342 -2.2383,45.5112 -2.1013,45.7572 C-1.0373,47.6422 0.8957,48.8582 2.8337,49.8222 C4.5507,50.6762 6.4157,51.3972 8.3027,51.5432 C8.5777,52.2262 8.8537,52.9042 9.1297,53.5702 C10.8337,57.6972 13.1007,61.5762 16.8177,64.1762 C17.4797,64.6392 18.2367,63.6392 17.5737,63.1762" id="Fill-19" fill="#FFFFFF" mask="url(#mask-4)"></path>
                        </g>
                        <path d="M46.1216,56.063 C45.7246,55.715 45.1116,55.83 44.6136,56.007 C42.1046,56.904 40.1766,58.817 38.4686,60.913 C40.0456,57.411 40.8926,53.505 41.1356,49.59 C41.6716,49.23 42.2776,48.948 42.8496,48.637 C45.5736,47.153 47.5496,44.366 48.0496,41.304 C48.1196,40.872 48.1566,40.404 47.9516,40.017 C47.6796,39.503 47.0296,39.275 46.4536,39.354 C45.8776,39.432 45.3656,39.759 44.9146,40.128 C43.3896,41.376 42.3656,43.152 41.7186,45.015 C41.5156,45.597 41.3536,46.191 41.2096,46.79 C41.2076,46.603 41.2146,46.414 41.2096,46.228 C41.1406,43.23 40.5646,40.055 39.8506,36.813 L39.9636,36.824 C43.0336,34.75 45.4456,31.717 46.7766,28.259 C47.1746,27.226 47.4726,26.043 47.0096,25.038 C46.9026,24.807 46.7356,24.578 46.4896,24.519 C46.2506,24.461 46.0066,24.58 45.7936,24.704 C43.7646,25.889 42.2826,27.86 41.3116,30.001 C40.4866,31.82 40.0066,33.769 39.6076,35.73 C38.8456,32.376 37.9786,28.963 37.4036,25.609 C38.6656,24.716 39.8286,23.69 40.9756,22.652 C43.1186,20.71 45.3826,18.566 45.9366,15.728 C46.0236,15.284 46.0636,14.816 45.9246,14.386 C45.7856,13.956 45.4316,13.572 44.9836,13.509 C44.4676,13.438 43.9956,13.787 43.5936,14.119 C41.8526,15.553 40.1156,17.072 38.9896,19.027 C38.3836,20.079 37.9716,21.228 37.5616,22.371 C37.4106,22.795 37.2586,23.221 37.1056,23.646 C36.5716,19.652 36.5716,15.777 37.7966,12.225 C39.3926,10.792 41.2676,9.692 43.0086,8.428 C44.9056,7.051 46.7066,5.349 47.4576,3.127 C47.6326,2.61 47.7386,2.014 47.4706,1.539 C47.1746,1.017 46.4946,0.811 45.9026,0.909 C45.3116,1.006 44.7916,1.347 44.3096,1.704 C42.9586,2.703 41.7676,3.908 40.7526,5.246 C38.0156,8.18 36.3616,11.844 35.5866,15.887 C35.1636,18.085 35.1956,20.297 35.4686,22.503 C34.4166,20.169 33.0956,17.957 31.5076,15.949 C31.1976,15.558 30.8696,15.166 30.4356,14.92 C30.0036,14.675 29.4376,14.602 29.0136,14.861 C28.6926,15.057 28.4976,15.408 28.3796,15.765 C28.0296,16.823 28.2556,18.008 28.7786,18.991 C29.3036,19.974 30.1016,20.781 30.9376,21.518 C32.4316,22.834 34.0886,23.96 35.8506,24.889 C36.5016,28.261 37.5586,31.602 38.3056,34.842 C38.3466,35.019 38.3846,35.2 38.4236,35.379 C37.2386,33.638 35.9386,31.974 34.4916,30.443 C33.5616,29.459 32.5396,28.496 31.2636,28.043 C30.4216,27.745 29.3326,27.756 28.8026,28.475 C28.1646,29.34 28.7536,30.573 29.4806,31.365 C30.3536,32.316 31.4186,33.072 32.5176,33.75 C34.4536,34.942 36.5306,35.899 38.6856,36.624 C39.4596,40.488 39.9256,44.699 39.7966,48.843 C38.9796,47.242 37.8546,45.798 36.6926,44.417 C35.1446,42.579 33.2786,40.666 30.8816,40.501 C30.3726,40.466 29.7506,40.593 29.5826,41.075 C29.4966,41.321 29.5596,41.592 29.6366,41.842 C30.3366,44.135 32.0186,46.034 33.9956,47.391 C35.7466,48.593 37.7276,49.403 39.7376,50.104 C39.4506,54.795 38.3526,59.337 36.0356,63.118 C36.0236,62.461 36.0136,61.803 36.0026,61.146 C35.9756,59.518 35.9456,57.868 35.5136,56.297 C34.9516,54.259 33.7006,52.418 32.0146,51.144 C31.7846,50.971 31.5216,50.8 31.2356,50.822 C30.8806,50.85 30.6076,51.179 30.5296,51.527 C30.4516,51.875 30.5246,52.236 30.6056,52.584 C31.5216,56.555 33.2536,60.337 35.6606,63.626 L35.7296,63.609 C33.7286,66.673 30.8856,69.2 26.9576,70.839 C26.2126,71.15 26.7116,72.299 27.4586,71.988 C31.8206,70.168 34.9946,67.095 37.1946,63.375 C40.6796,62.939 43.9476,60.973 45.9326,58.073 C46.3496,57.463 46.6786,56.55 46.1216,56.063" id="Fill-22" fill="#FFFFFF"></path>
                    </g>
                    <g id="Group-29" opacity="0.478655134" transform="translate(1051.000000, 506.000000)" fill="#FFFFFF">
                        <path d="M26.5669,80.8237 C21.7199,78.2247 18.8559,73.6907 16.2929,68.9987 C16.5569,68.9457 16.8219,68.8907 17.0839,68.8107 L16.3059,68.4997 C19.5019,65.3617 21.3279,60.8587 21.1329,56.3807 C21.1089,55.8067 20.9979,55.1427 20.4959,54.8627 C18.2539,55.6427 16.9639,57.9957 16.3029,60.2747 C15.5969,62.7107 15.3969,65.2817 15.6629,67.8027 C13.4239,63.5247 11.8399,59.2927 11.4559,54.6367 C13.5269,53.4427 15.4989,52.0687 17.1369,50.3357 C19.1129,48.2457 20.5939,45.6067 20.9279,42.7497 C20.9569,42.5037 20.9629,42.2187 20.7799,42.0517 C20.5839,41.8737 20.2759,41.9267 20.0219,42.0017 C17.3059,42.8037 15.0849,44.8577 13.5989,47.2677 C12.5899,48.9067 11.9019,50.7107 11.3599,52.5617 C11.3569,51.8887 11.3639,51.2127 11.4139,50.5187 C11.6759,46.8547 12.5269,43.2167 13.3319,39.5947 L13.4619,39.4857 C17.5389,38.7197 21.1879,35.9417 23.0119,32.2157 C23.7239,30.7607 24.1639,29.0337 23.5539,27.5337 C18.9099,29.2157 15.1929,33.1887 13.7039,37.8867 C14.4319,34.4797 15.0139,31.0867 14.9479,27.7007 C16.0809,25.0437 16.2869,22.6917 15.6709,19.5147 C15.3469,17.8447 14.8139,16.2127 14.0789,14.6777 C13.7139,13.9177 12.6679,11.8947 11.5359,11.8687 C11.3369,11.8637 11.1339,11.9217 10.9319,12.0587 C9.3379,13.1477 10.0029,17.9827 10.3579,19.5357 C11.0059,22.3697 12.5769,24.7727 13.6559,27.4527 C13.8339,31.0697 13.2179,34.7417 12.4419,38.4327 C11.7899,33.8477 9.4839,29.5107 6.0049,26.4527 C5.4629,25.9777 4.6389,25.5257 4.0849,25.9847 C3.5939,26.3907 3.7529,27.1697 3.9769,27.7667 C5.6419,32.1867 8.5729,36.1187 12.3249,38.9877 C11.3419,43.5697 10.1679,48.1777 9.9969,52.7427 C8.6409,50.3097 6.9769,48.0497 5.0209,46.0667 C3.9419,44.9727 2.7479,43.9387 1.3129,43.3877 C1.0839,43.2997 0.8279,43.2237 0.5949,43.3037 C0.0629,43.4887 0.0909,44.2467 0.2519,44.7857 C1.6489,49.4777 5.3959,53.3857 10.0029,55.0317 C10.0309,55.6527 10.0739,56.2727 10.1499,56.8907 C10.5339,60.0207 11.6919,63.0337 13.0959,65.9177 C10.5059,63.8517 7.2789,62.5777 3.9669,62.3887 C3.2309,62.3467 2.2529,62.5607 2.2029,63.2977 C2.1809,63.6097 2.3559,63.9007 2.5419,64.1537 C3.9629,66.0967 6.2599,67.1877 8.5269,67.9987 C10.5359,68.7167 12.6919,69.2697 14.7959,69.1837 C15.1899,69.9027 15.5849,70.6157 15.9759,71.3147 C18.3999,75.6537 21.4149,79.6427 25.8639,82.0277 C26.6559,82.4527 27.3599,81.2487 26.5669,80.8237" id="Fill-25"></path>
                        <path d="M59.7778,61.4014 C59.2928,61.0684 58.6308,61.2754 58.1038,61.5374 C55.4488,62.8574 53.5678,65.2244 51.9558,67.7644 C53.2398,63.6874 53.6628,59.2594 53.4188,54.9014 C53.9638,54.4334 54.5968,54.0424 55.1868,53.6244 C58.0038,51.6274 59.8218,48.2884 59.9718,44.8384 C59.9938,44.3514 59.9728,43.8304 59.6958,43.4294 C59.3278,42.8974 58.5798,42.7304 57.9538,42.8924 C57.3268,43.0544 56.8038,43.4834 56.3548,43.9494 C54.8318,45.5284 53.9338,47.6264 53.4628,49.7694 C53.3148,50.4394 53.2148,51.1164 53.1318,51.7974 C53.1058,51.5904 53.0898,51.3814 53.0598,51.1754 C52.5898,47.8724 51.5378,44.4394 50.3238,40.9504 L50.4498,40.9484 C53.5698,38.2534 55.8398,34.5854 56.8558,30.5894 C57.1598,29.3954 57.3338,28.0494 56.6898,26.9994 C56.5428,26.7584 56.3288,26.5264 56.0488,26.4934 C55.7758,26.4614 55.5218,26.6254 55.3028,26.7904 C53.2158,28.3654 51.8368,30.7384 51.0458,33.2304 C50.3718,35.3494 50.0958,37.5664 49.9128,39.7854 C48.6308,36.1794 47.2258,32.5214 46.1508,28.8904 C47.4268,27.7374 48.5788,26.4514 49.7098,25.1534 C51.8238,22.7274 54.0438,20.0614 54.2848,16.8514 C54.3228,16.3504 54.3058,15.8274 54.0948,15.3704 C53.8848,14.9134 53.4438,14.5354 52.9398,14.5254 C52.3598,14.5134 51.8848,14.9614 51.4838,15.3804 C49.7488,17.1944 48.0288,19.1004 47.0398,21.4084 C46.5078,22.6504 46.2038,23.9744 45.9008,25.2904 C45.7888,25.7804 45.6758,26.2694 45.5638,26.7594 C44.4508,22.4164 43.9418,18.1334 44.8298,14.0484 C46.4068,12.2554 48.3338,10.7944 50.0908,9.1694 C52.0078,7.3984 53.7748,5.2804 54.3128,2.7274 C54.4378,2.1324 54.4778,1.4604 54.1188,0.9704 C53.7238,0.4324 52.9458,0.2944 52.3048,0.4794 C51.6638,0.6654 51.1328,1.1094 50.6478,1.5674 C49.2868,2.8484 48.1288,4.3364 47.1808,5.9484 C44.5408,9.5494 43.1948,13.8154 42.8668,18.3844 C42.6888,20.8694 43.0138,23.3094 43.6048,25.7114 C42.1358,23.2694 40.3848,20.9984 38.3678,18.9874 C37.9748,18.5964 37.5608,18.2064 37.0488,17.9914 C36.5388,17.7764 35.9048,17.7704 35.4688,18.1134 C35.1398,18.3714 34.9708,18.7854 34.8868,19.1944 C34.6388,20.4094 35.0438,21.6904 35.7528,22.7074 C36.4608,23.7244 37.4488,24.5124 38.4678,25.2164 C40.2918,26.4754 42.2708,27.5034 44.3388,28.2984 C45.5008,31.9384 47.1068,35.4924 48.3578,38.9744 C48.4248,39.1654 48.4918,39.3604 48.5588,39.5524 C47.0208,37.7834 45.3668,36.1164 43.5668,34.6144 C42.4098,33.6484 41.1528,32.7184 39.6828,32.3854 C38.7148,32.1654 37.5128,32.3204 37.0208,33.1844 C36.4288,34.2244 37.2418,35.5094 38.1488,36.2894 C39.2388,37.2264 40.5148,37.9224 41.8188,38.5264 C44.1148,39.5904 46.5358,40.3754 49.0108,40.8944 C50.3738,45.0624 51.4398,49.6554 51.8408,54.2514 C50.7288,52.5894 49.2968,51.1414 47.8308,49.7674 C45.8798,47.9394 43.5668,46.0694 40.8958,46.2024 C40.3288,46.2304 39.6568,46.4524 39.5348,47.0064 C39.4718,47.2894 39.5788,47.5814 39.6958,47.8464 C40.7688,50.2894 42.8778,52.1674 45.2398,53.4074 C47.3328,54.5054 49.6288,55.1414 51.9418,55.6524 C52.2388,60.8754 51.6208,66.0384 49.5558,70.5204 C49.4578,69.7954 49.3598,69.0704 49.2608,68.3454 C49.0178,66.5484 48.7688,64.7304 48.0848,63.0514 C47.1968,60.8724 45.5738,59.0014 43.5428,57.8144 C43.2658,57.6534 42.9538,57.4994 42.6398,57.5614 C42.2518,57.6374 41.9928,58.0384 41.9518,58.4324 C41.9108,58.8264 42.0408,59.2174 42.1738,59.5904 C43.7088,63.8594 46.1178,67.8114 49.2088,71.1304 L49.2828,71.1034 C47.4728,74.7514 44.6628,77.9164 40.5368,80.2424 C39.7538,80.6834 40.4568,81.8884 41.2408,81.4464 C45.8228,78.8634 48.9278,75.0514 50.8718,70.6524 C54.6638,69.7134 58.0188,67.1114 59.8318,63.6474 C60.2128,62.9194 60.4568,61.8664 59.7778,61.4014" id="Fill-27"></path>
                    </g>
                    <g id="Group-32" transform="translate(0.000000, 544.000000)">
                        <mask id="mask-6" fill="white">
                            <use xlink:href="#path-5"></use>
                        </mask>
                        <g id="Clip-31"></g>
                        <path d="M1092.2407,43.4463 C985.6627,54.9523 927.7347,120.0563 813.4927,122.1873 C655.5807,125.1333 504.1677,106.0283 347.6177,99.6203 C250.7317,95.6543 151.2107,96.6063 55.5617,102.4133 C35.8817,103.6083 16.2247,105.0333 -2.9993,106.7763 L-2.9993,210.0003 L33.8557,210.0003 L1408.3437,209.5903 C1428.0357,209.5903 1443.9997,210.0003 1443.9997,210.0003 L1443.9997,0.2373 C1341.4337,-2.5047 1189.0397,32.9963 1092.2407,43.4463" id="Fill-30" fill="#BD6539" mask="url(#mask-6)"></path>
                    </g>
                    <path d="M1047.0415,475.8442 C1066.8035,452.2632 1100.5465,447.6402 1129.5455,448.2002 C1146.7675,448.5332 1163.8815,450.5522 1181.0835,451.2352 C1188.6005,451.5332 1196.1355,451.6562 1203.6505,451.2522 C1206.6185,451.0922 1209.5865,450.9082 1212.5425,450.6052 C1212.7285,450.5862 1217.1875,450.0372 1215.8065,450.2632 C1216.6405,450.1412 1217.4745,450.0202 1218.3065,449.8852 C1223.9465,448.9302 1229.5735,447.7632 1235.0425,446.0642 C1237.3745,445.3402 1239.6945,444.5682 1241.9755,443.6912 C1242.7215,443.3672 1244.3945,442.6632 1244.5935,442.5662 C1245.5555,442.1062 1246.5085,441.6272 1247.4515,441.1302 C1249.7565,439.8842 1252.0465,438.5932 1254.2055,437.1022 C1254.5375,436.8732 1256.9425,434.9572 1256.6475,435.2562 C1257.0595,434.9022 1257.4775,434.5562 1257.8775,434.1912 C1259.4975,432.6762 1261.0815,431.1122 1262.5275,429.4262 C1262.0965,429.8232 1265.2065,425.5462 1265.6645,424.7232 C1266.0225,424.0792 1268.6325,418.3172 1267.3075,421.8322 C1267.8875,420.2922 1268.4675,418.7492 1268.9125,417.1622 C1269.3735,415.5212 1269.8325,413.8752 1270.1535,412.1982 C1270.1875,412.0202 1270.6875,407.8882 1270.6455,408.8942 C1271.2295,401.1832 1270.9375,395.3942 1269.6505,389.4392 C1266.5475,375.0822 1260.3125,361.6282 1257.2265,347.2962 C1253.7995,331.3772 1254.1315,314.2162 1263.4845,300.1802 C1274.5775,283.5332 1291.7055,271.7092 1309.3915,262.8662 C1323.7485,255.6882 1338.7945,250.0112 1353.3475,243.2662 C1356.6885,241.5892 1360.0555,239.9672 1363.4185,238.3672 C1370.9265,234.5172 1379.4575,229.8352 1384.9495,225.1502 C1390.7835,220.1752 1396.4655,214.4772 1399.9525,209.2592 C1408.7825,196.0512 1413.5865,181.8402 1413.7335,166.6622 C1413.7585,164.1542 1413.6665,161.6652 1413.4785,159.1792 C1412.2295,153.5572 1410.5235,148.1342 1407.9795,143.2772 C1404.8015,140.9342 1402.9125,137.9922 1402.0855,134.8432 C1398.9905,131.5252 1395.1755,128.7462 1390.4245,126.7202 C1389.0695,126.1422 1387.6035,125.6112 1386.6885,124.4692 C1385.1915,122.5982 1385.7395,119.9242 1386.0475,117.5612 C1386.9065,110.9662 1385.0745,103.9142 1380.4875,99.0352 C1366.5335,84.1902 1339.0225,89.0622 1318.4635,90.5382 C1314.3355,91.3042 1310.2025,92.0352 1306.0475,92.6252 C1288.8175,95.0692 1272.3615,92.8332 1258.6255,81.1322 C1246.1435,70.4982 1241.6265,55.4602 1245.4145,40.7502 C1245.6745,36.5862 1245.9615,32.4072 1245.7375,28.2932 C1245.2385,19.1372 1241.2365,8.7792 1234.8875,0.3292 L1153.4535,0.3292 C1140.8805,1.5372 1127.5575,0.8772 1114.7115,0.3292 L1056.0525,0.3292 C1050.6395,0.3292 1046.2515,4.7172 1046.2515,10.1302 L1046.2515,476.8192 C1046.5155,476.4932 1046.7745,476.1632 1047.0415,475.8442" id="Fill-33" fill="#F7CE7A"></path>
                    <path d="M1371.3013,253.854 C1372.1633,250.401 1373.7803,247.373 1375.4873,244.284 C1376.6433,242.192 1376.8543,239.207 1379.5723,241.531 C1384.5183,245.758 1388.7383,252.181 1392.3553,257.544 C1394.8213,261.202 1397.4033,264.78 1399.9973,268.347 C1402.8633,272.286 1407.6983,279.151 1410.0473,283.438 C1411.1703,285.488 1412.2623,287.767 1412.7753,290.06 C1413.3223,292.505 1412.9123,295.271 1412.8273,297.803 C1412.8083,298.39 1412.8633,299.11 1413.3923,299.366 C1413.9553,299.639 1414.5853,299.162 1414.9973,298.691 C1416.7053,296.739 1417.7783,294.238 1418.0133,291.655 C1417.9943,293.76 1418.4323,295.867 1419.2843,297.791 C1419.5783,298.453 1419.9943,299.155 1420.6923,299.348 C1421.6133,299.603 1422.5483,298.774 1422.7733,297.846 C1422.9963,296.917 1422.7133,295.95 1422.4333,295.037 C1422.0363,293.748 1421.4793,292.395 1421.2883,291.076 C1422.1693,291.585 1422.6293,293.092 1423.2593,293.98 C1424.0493,295.096 1424.9823,296.11 1426.0303,296.989 C1426.4413,297.333 1426.9403,297.676 1427.4683,297.583 C1428.0043,297.489 1428.3743,296.952 1428.4443,296.412 C1428.5123,295.873 1428.3433,295.333 1428.1543,294.823 C1427.3473,292.652 1426.1293,290.636 1424.5823,288.912 C1425.6433,290.042 1426.9643,290.925 1428.4143,291.47 C1429.3113,291.808 1430.4573,291.963 1431.1123,291.263 C1431.6303,290.707 1431.5993,289.801 1431.2413,289.131 C1430.8843,288.46 1430.2673,287.972 1429.6633,287.511 C1424.3773,283.477 1419.7073,275.715 1416.7233,269.886 C1412.9513,262.521 1408.8613,255.361 1405.3703,247.844 C1400.4693,237.29 1395.2713,227.09 1389.4233,217.003 C1388.3423,215.138 1387.2453,213.273 1385.9253,211.568 C1381.4263,205.756 1374.4723,202.111 1367.2323,200.843 C1365.9933,200.626 1364.6993,200.458 1363.6453,199.774 C1361.8303,198.599 1361.2213,196.266 1360.8313,194.139 C1360.2683,191.071 1360.0063,187.991 1359.6083,184.904 C1359.3853,183.176 1359.0713,181.725 1357.3023,181.031 C1353.5343,179.555 1347.2783,182.157 1343.6873,183.228 C1344.1913,188.309 1343.6703,193.259 1343.7923,198.318 C1343.8303,199.87 1344.4803,200.782 1343.0303,201.633 C1341.4813,202.543 1338.2523,202.555 1336.4833,202.648 C1333.4273,202.809 1330.3583,202.321 1327.3083,202.573 C1318.9153,203.267 1313.4493,209.404 1309.5913,216.33 C1306.1933,222.43 1304.4653,229.289 1302.2813,235.922 C1298.2513,248.161 1292.5633,259.852 1285.4183,270.575 C1280.2473,278.338 1273.6393,282.942 1264.4133,284.709 C1263.7913,284.829 1263.1413,284.952 1262.6453,285.345 C1262.1493,285.737 1261.8753,286.493 1262.2263,287.02 C1262.3943,287.274 1262.6733,287.432 1262.9513,287.558 C1264.9733,288.47 1267.3113,288.133 1269.5003,287.778 C1268.1583,288.831 1266.5563,289.505 1265.1843,290.518 C1263.8123,291.53 1262.6243,293.056 1262.7163,294.759 C1262.7323,295.04 1262.7883,295.334 1262.9703,295.549 C1263.4683,296.142 1264.4243,295.763 1265.0703,295.336 C1267.0083,294.055 1268.8663,292.651 1270.6303,291.138 C1269.1103,292.768 1267.8063,294.6 1266.7633,296.57 C1266.3063,297.432 1266.0163,298.727 1266.8743,299.19 C1267.6223,299.593 1268.4843,298.916 1269.0333,298.269 C1270.2643,296.819 1271.3353,295.235 1272.2213,293.552 C1271.2283,296.105 1270.3073,299.233 1272.0113,301.378 C1272.4423,301.92 1273.1463,302.369 1273.7983,302.14 C1274.2723,301.974 1274.5643,301.505 1274.7923,301.057 C1275.8473,298.997 1276.3883,296.675 1276.3553,294.36 C1282.4943,291.485 1288.1753,287.632 1293.1163,282.99 C1294.3033,281.876 1295.4473,280.717 1296.5873,279.557 C1301.3253,274.738 1305.6363,270.336 1308.8133,264.289 C1311.8433,258.519 1314.1163,252.374 1317.3813,246.723 C1316.6063,248.066 1318.2953,251.731 1318.3563,253.327 C1318.5253,257.748 1317.4763,262.57 1316.4703,266.851 C1315.1553,272.448 1313.5863,278.298 1316.6073,283.663 C1322.5373,294.199 1340.8583,295.881 1351.2663,294.281 C1356.9653,293.406 1362.4973,291.417 1367.4193,288.411 C1373.6893,284.582 1377.8653,280.68 1376.0693,273.722 C1374.1643,266.348 1369.1643,262.4 1371.3013,253.854" id="Fill-35" fill="#E69786"></path>
                    <path d="M1320.6763,347.4775 C1321.3373,348.8995 1321.9413,350.3325 1322.4913,351.7775 C1323.8163,351.2355 1325.2083,350.8635 1326.6323,350.6525 C1324.3443,349.2795 1322.1253,347.7935 1319.9933,346.1695 C1320.2363,346.5865 1320.4643,347.0215 1320.6763,347.4775" id="Fill-37" fill="#FFC36D"></path>
                    <path d="M1376.0688,273.7221 C1374.1648,266.3481 1369.1648,262.4001 1371.3008,253.8541 C1372.1638,250.4011 1373.7798,247.3721 1375.4868,244.2841 C1376.3918,242.6451 1376.7228,240.4701 1378.1288,240.7161 C1377.8888,240.4251 1377.6158,240.1611 1377.3268,239.9281 C1377.1388,239.9471 1376.9528,239.9671 1376.7558,239.9731 C1365.8658,240.3021 1366.4468,259.4581 1368.2528,266.2411 C1369.7348,271.8101 1372.3858,276.2751 1375.6668,280.6511 C1376.5568,278.6891 1376.7708,276.4391 1376.0688,273.7221" id="Fill-39" fill="#B73759" opacity="0.370256696"></path>
                    <g id="Group-63" transform="translate(1109.000000, 295.000000)">
                        <path d="M82.397,72.6147 C77.291,38.6847 50.674,8.9817 17.505,0.1977 C15.798,3.4487 15.918,7.3447 16.472,10.9737 C18.636,25.1707 26.681,37.8597 36.272,48.5487 C48.246,61.8927 64.486,73.3347 82.401,72.6417" id="Fill-41" fill="#FCEBF0"></path>
                        <path d="M17.269,0.7275 C16.833,1.6795 16.536,2.6775 16.356,3.7065 C22.155,34.5295 51.852,51.2615 74.091,72.0775 C74.84,72.2015 75.59,72.3175 76.347,72.4015 C53.447,50.6755 21.696,33.4605 17.269,0.7275" id="Fill-43" fill="#F6A7BD"></path>
                        <path d="M50.1558,38.3554 C61.0058,48.6544 71.7258,59.5344 78.9318,72.6214 C79.4648,72.6464 80.0018,72.6314 80.5368,72.6364 C74.0768,60.5714 64.6568,50.1194 54.7588,40.7754 C42.2888,29.0054 30.2788,16.4994 21.8828,1.5064 C21.2448,1.2984 20.6058,1.0934 19.9628,0.9014 C27.6038,15.0774 38.5248,27.3144 50.1558,38.3554" id="Fill-45" fill="#F6A7BD"></path>
                        <path d="M82.9448,70.7456 C82.4508,69.5346 81.9068,68.3556 81.3738,67.1696 C81.6948,68.6276 81.9758,70.0946 82.2178,71.5696 C82.6798,71.6176 83.1648,71.2836 82.9448,70.7456" id="Fill-47" fill="#F6A7BD"></path>
                        <path d="M81.6001,71.1162 C81.7181,71.4072 81.9651,71.5432 82.2181,71.5702 C81.9761,70.0942 81.6951,68.6272 81.3731,67.1702 C70.3091,42.5562 51.1421,23.3032 31.4001,5.2682 C30.0891,4.6562 28.7641,4.0742 27.4231,3.5292 C48.9601,23.0352 70.4301,43.7522 81.6001,71.1162" id="Fill-49" fill="#F6A7BD"></path>
                        <path d="M84.1499,70.3974 L82.3539,71.1314 C82.9029,71.0094 83.4539,70.8914 84.0039,70.7804 C84.0499,70.6514 84.1039,70.5264 84.1499,70.3974" id="Fill-51" fill="#FCEBF0"></path>
                        <path d="M81.895,71.3188 C49.695,73.4598 18.847,90.8978 0.41,117.3828 C17.504,120.9708 35.866,118.1538 51.098,109.6078 C66.332,101.0598 78.304,86.8568 84.15,70.3978" id="Fill-53" fill="#FCEBF0"></path>
                        <path d="M82.354,71.1313 C82.015,71.2063 81.678,71.2843 81.34,71.3643 C81.525,71.3513 81.709,71.3313 81.895,71.3183 L82.354,71.1313 Z" id="Fill-55" fill="#F6A7BD"></path>
                        <path d="M82.354,71.1313 L81.895,71.3183 C81.709,71.3313 81.525,71.3513 81.34,71.3643 C70.268,73.9723 59.468,78.8473 49.559,83.4483 C31.912,91.6443 17.833,104.9443 1.747,115.5223 C1.296,116.1393 0.846,116.7563 0.41,117.3833 C0.673,117.4393 0.941,117.4793 1.206,117.5313 C16.71,107.5273 30.216,94.7363 46.784,86.3393 C55.904,81.7163 65.58,77.8453 75.291,74.6553 C77.949,73.7823 80.651,73.0223 83.38,72.4153 C83.592,71.8723 83.805,71.3293 84.003,70.7803 C83.454,70.8913 82.903,71.0093 82.354,71.1313" id="Fill-57" fill="#F6A7BD"></path>
                        <path d="M23.4878,110.4565 C19.5918,112.8385 15.6208,115.0935 11.5668,117.1935 C10.6598,117.6635 9.7368,118.1395 8.8058,118.6085 C9.8168,118.6975 10.8288,118.7645 11.8418,118.8105 C14.6408,117.3075 17.3448,115.6875 19.9088,114.2105 C28.1978,109.4315 36.1268,104.0495 44.2508,99.0015 C55.4568,92.0395 67.1818,85.9075 79.3878,80.9395 C79.7358,80.3075 80.0838,79.6755 80.4118,79.0335 C68.7568,83.6775 57.5388,89.3815 46.7498,95.8415 C38.8918,100.5465 31.2998,105.6795 23.4878,110.4565" id="Fill-59" fill="#F6A7BD"></path>
                        <path d="M29.562,115.8706 C28.179,116.6296 26.762,117.4166 25.318,118.1946 C26.683,118.0066 28.044,117.7906 29.397,117.5276 C36.065,113.9436 42.541,109.9966 49.049,106.1386 C55.55,102.2846 62.204,98.5146 69.083,95.3096 C69.833,94.4916 70.564,93.6556 71.277,92.8046 C64.927,95.5836 58.771,98.8806 52.759,102.3476 C45.004,106.8176 37.41,111.5596 29.562,115.8706" id="Fill-61" fill="#F6A7BD"></path>
                    </g>
                    <path d="M1312.9985,64.4316 C1315.8195,61.3836 1319.5505,59.1986 1323.5775,58.1896 C1323.2055,58.0636 1322.8345,57.9356 1322.4585,57.8136 C1319.3405,56.7986 1316.5115,54.9396 1314.2825,52.5386 C1312.0115,50.0906 1310.3535,47.0546 1309.6765,43.7756 C1309.3005,41.9526 1309.4495,39.6096 1311.1385,38.8256 C1311.8105,38.5136 1312.5885,38.5356 1313.3215,38.6426 C1317.3355,39.2266 1320.7325,42.1466 1322.7345,45.6746 C1323.7925,47.5376 1324.5135,49.5726 1325.0135,51.6516 C1325.2645,52.6946 1325.4865,53.7446 1325.6575,54.8036 C1325.8145,55.7726 1326.1135,56.9766 1325.9875,57.9576 C1325.9495,58.2506 1325.8625,58.4396 1325.7375,58.5546 L1325.8045,58.6616 C1325.5505,63.0226 1323.4575,67.2466 1320.1435,70.0926 C1318.7645,71.2756 1317.1015,72.2526 1315.2855,72.3276 C1313.4715,72.4026 1311.5265,71.3516 1311.0325,69.6046 C1310.5065,67.7466 1311.6865,65.8486 1312.9985,64.4316" id="Fill-64" fill="#0FA3D1"></path>
                    <path d="M1325.4048,57.8545 C1325.2528,57.8835 1325.0948,57.9035 1324.9468,57.9425 C1324.4728,53.5855 1321.3268,50.3935 1318.9098,46.9445 C1317.0948,44.3545 1315.7238,41.6115 1314.2938,38.8565 C1314.5088,38.9095 1314.7268,38.9545 1314.9388,39.0205 C1316.6338,42.1925 1318.2918,45.3085 1320.4438,48.3015 C1322.6118,51.3155 1324.9938,54.0285 1325.4048,57.8545" id="Fill-66" fill="#9AD6D4"></path>
                    <path d="M1324.6802,57.8564 C1324.8382,58.1174 1324.4182,58.3334 1324.2612,58.0754 C1322.0622,54.4594 1317.9242,52.6234 1314.9692,49.6944 C1312.4842,47.2314 1310.8992,44.4004 1309.5712,41.3254 C1309.6102,41.0414 1309.6712,40.7694 1309.7572,40.5084 C1311.3012,44.0884 1313.1662,47.2434 1316.0582,50.1094 C1318.8582,52.8854 1322.5742,54.3934 1324.6802,57.8564" id="Fill-68" fill="#9AD6D4"></path>
                    <path d="M1325.9946,57.7466 C1326.2816,57.7306 1326.3786,58.1706 1326.0826,58.2016 C1326.0266,58.2076 1325.9736,58.2226 1325.9196,58.2296 C1325.9466,58.1476 1325.9736,58.0666 1325.9876,57.9576 C1325.9966,57.8906 1325.9896,57.8156 1325.9946,57.7466" id="Fill-70" fill="#E69786"></path>
                    <path d="M1318.3149,62.8936 C1320.2239,60.8926 1322.2359,58.6526 1324.9469,57.9426 C1324.9499,57.9696 1324.9559,57.9956 1324.9579,58.0216 C1324.9739,58.1806 1325.1069,58.2216 1325.2269,58.1866 C1325.1649,58.2556 1325.1109,58.3316 1325.0489,58.4016 C1320.8359,59.5246 1317.5259,64.5456 1314.5699,67.3996 C1313.6749,68.2626 1312.5309,69.3846 1311.2719,70.1986 C1311.2119,70.0836 1311.1709,69.9586 1311.1259,69.8366 C1313.9809,68.1086 1316.7879,64.4946 1318.3149,62.8936" id="Fill-72" fill="#9AD6D4"></path>
                    <path d="M1325.3843,58.0293 C1325.3983,57.9943 1325.4213,57.9663 1325.4163,57.9223 C1325.4143,57.8993 1325.4073,57.8783 1325.4053,57.8543 C1325.5983,57.8173 1325.7823,57.7643 1325.9833,57.7433 C1325.9883,57.7423 1325.9893,57.7463 1325.9943,57.7463 C1325.9893,57.8163 1325.9963,57.8903 1325.9883,57.9583 C1325.9743,58.0673 1325.9463,58.1483 1325.9193,58.2303 C1325.8473,58.2393 1325.7763,58.2553 1325.7043,58.2673 C1325.7343,58.0823 1325.5493,57.9153 1325.3843,58.0293" id="Fill-74" fill="#E69786"></path>
                    <path d="M1325.4165,57.9224 C1325.4215,57.9654 1325.3975,57.9944 1325.3845,58.0294 C1325.3705,58.0394 1325.3545,58.0334 1325.3415,58.0474 C1325.3005,58.0924 1325.2675,58.1414 1325.2275,58.1864 C1325.1065,58.2214 1324.9745,58.1804 1324.9575,58.0214 C1324.9555,57.9954 1324.9495,57.9694 1324.9465,57.9434 C1325.0955,57.9034 1325.2525,57.8834 1325.4045,57.8544 C1325.4075,57.8784 1325.4145,57.8994 1325.4165,57.9224" id="Fill-76" fill="#E69786"></path>
                    <path d="M1320.6274,65.4492 C1321.8504,62.9192 1323.1954,60.5122 1325.0494,58.4022 C1325.2654,58.3442 1325.4834,58.3032 1325.7044,58.2672 C1325.6974,58.3102 1325.6934,58.3542 1325.6574,58.3942 C1322.8544,61.4392 1321.3054,65.2312 1319.4634,68.8802 C1319.1094,69.5802 1318.6634,70.5402 1318.1214,71.4932 C1317.8994,71.6122 1317.6744,71.7202 1317.4434,71.8172 C1318.8954,69.6172 1320.0254,66.6942 1320.6274,65.4492" id="Fill-78" fill="#9AD6D4"></path>
                    <path d="M1325.3843,58.0293 C1325.5493,57.9153 1325.7343,58.0823 1325.7043,58.2673 C1325.4843,58.3033 1325.2653,58.3443 1325.0493,58.4023 C1325.1113,58.3313 1325.1643,58.2563 1325.2273,58.1863 C1325.3013,58.1643 1325.3553,58.1063 1325.3843,58.0293" id="Fill-80" fill="#E69786"></path>
                    <path d="M1325.3843,58.0293 C1325.3553,58.1063 1325.3013,58.1643 1325.2273,58.1863 C1325.2673,58.1413 1325.3003,58.0923 1325.3413,58.0483 C1325.3553,58.0333 1325.3703,58.0393 1325.3843,58.0293" id="Fill-82" fill="#E69786"></path>
                    <path d="M1356.8794,37.7085 C1354.0854,34.4775 1350.3724,32.0495 1346.2934,30.7835 C1344.6274,30.2665 1342.8534,29.9395 1341.1384,30.2625 C1339.4244,30.5855 1337.7764,31.6575 1337.1334,33.2795 C1336.4894,34.9005 1337.1224,37.0315 1338.7134,37.7475 C1336.8924,37.2265 1334.8494,37.5425 1333.2704,38.5895 C1332.7024,38.9665 1332.1854,39.4435 1331.8614,40.0445 C1331.2804,41.1245 1331.4074,42.4745 1331.9004,43.5985 C1332.3924,44.7215 1333.2074,45.6665 1334.0114,46.5925" id="Fill-84" fill="#0FA3D1"></path>
                    <path d="M1355.5376,38.6328 C1355.7726,38.8188 1355.5206,39.2148 1355.2836,39.0278 C1355.0866,38.8718 1354.8816,38.7178 1354.6776,38.5648 L1355.1876,38.3658 C1355.3036,38.4548 1355.4246,38.5438 1355.5376,38.6328" id="Fill-86" fill="#E69786"></path>
                    <path d="M1338.5259,31.4556 C1338.7029,31.3136 1338.8879,31.1816 1339.0839,31.0616 C1344.7319,31.9116 1350.7819,34.9756 1355.1879,38.3656 L1354.6769,38.5646 C1350.2329,35.2076 1344.1359,32.1696 1338.5259,31.4556" id="Fill-88" fill="#9AD6D4"></path>
                    <path d="M1351.3589,40.498 C1351.6139,40.661 1351.3599,41.055 1351.1049,40.893 C1350.7939,40.694 1350.4759,40.511 1350.1619,40.318 L1350.7129,40.104 C1350.9269,40.238 1351.1459,40.362 1351.3589,40.498" id="Fill-90" fill="#E69786"></path>
                    <path d="M1336.9536,33.8994 C1341.7966,35.3494 1346.3916,37.4214 1350.7126,40.1044 L1350.1616,40.3184 C1345.9876,37.7624 1341.5606,35.7764 1336.9036,34.3734 C1336.9136,34.2144 1336.9236,34.0554 1336.9536,33.8994" id="Fill-92" fill="#9AD6D4"></path>
                    <path d="M1346.5522,42.9414 C1346.8032,43.1104 1346.5492,43.5054 1346.2982,43.3364 C1345.8152,43.0094 1345.3232,42.6974 1344.8302,42.3894 L1345.3712,42.1794 C1345.7662,42.4304 1346.1622,42.6784 1346.5522,42.9414" id="Fill-94" fill="#E69786"></path>
                    <path d="M1335.1558,37.7417 C1335.4448,37.6627 1335.7398,37.6067 1336.0378,37.5667 C1339.3018,38.7637 1342.4158,40.3027 1345.3718,42.1797 L1344.8308,42.3887 C1341.7718,40.4777 1338.5448,38.9247 1335.1558,37.7417" id="Fill-96" fill="#9AD6D4"></path>
                    <path d="M1341.438,45.3032 C1341.67,45.4922 1341.419,45.8882 1341.184,45.6982 C1340.648,45.2612 1340.097,44.8462 1339.541,44.4452 L1340.064,44.2412 C1340.529,44.5832 1340.988,44.9362 1341.438,45.3032" id="Fill-98" fill="#E69786"></path>
                    <path d="M1332.0249,39.8291 C1331.9749,39.9041 1331.9049,39.9651 1331.8619,40.0441 C1331.8279,40.1081 1331.8189,40.1791 1331.7899,40.2451" id="Fill-100" fill="#E69786"></path>
                    <path d="M1331.7896,40.2446 C1331.8186,40.1796 1331.8276,40.1076 1331.8616,40.0446 C1331.9046,39.9646 1331.9756,39.9046 1332.0246,39.8286 C1334.8896,40.9366 1337.5756,42.4106 1340.0636,44.2416 L1339.5406,44.4446 C1337.1356,42.7106 1334.5466,41.3056 1331.7896,40.2446" id="Fill-102" fill="#9AD6D4"></path>
                    <path d="M1331.7729,43.2222 C1331.8169,43.3472 1331.8469,43.4772 1331.8999,43.5982 C1331.9319,43.6722 1331.9769,43.7402 1332.0119,43.8132" id="Fill-104" fill="#E69786"></path>
                    <path d="M1338.8872,46.7241 C1339.1462,46.8821 1338.8912,47.2761 1338.6332,47.1191 C1337.8312,46.6291 1337.0112,46.1831 1336.1862,45.7481 L1336.7522,45.5281 C1337.4692,45.9141 1338.1882,46.2981 1338.8872,46.7241" id="Fill-106" fill="#E69786"></path>
                    <path d="M1331.7729,43.2222 C1333.4759,43.8892 1335.1359,44.6562 1336.7519,45.5282 L1336.1859,45.7482 C1334.8259,45.0292 1333.4339,44.3862 1332.0119,43.8132 C1331.9769,43.7402 1331.9319,43.6722 1331.8999,43.5982 C1331.8469,43.4772 1331.8169,43.3472 1331.7729,43.2222" id="Fill-108" fill="#9AD6D4"></path>
                    <path d="M1358.8442,66.3262 C1358.9942,66.4142 1359.0822,66.5852 1359.1072,66.7582 C1359.1312,66.9302 1359.0992,67.1062 1359.0572,67.2752 C1358.7712,68.4172 1358.2092,69.5612 1357.6872,70.6152 C1357.1122,71.7752 1356.4472,72.9002 1355.5922,73.8772 C1354.1482,75.5312 1352.0352,76.7522 1349.8472,76.5802 C1347.6582,76.4082 1345.5772,74.5072 1345.7072,72.3162 C1344.3802,72.9612 1342.9982,73.5962 1341.5252,73.6582 C1340.0512,73.7192 1338.4502,73.0722 1337.8122,71.7432 C1336.8512,69.7402 1338.3922,67.3222 1339.1962,65.5322" id="Fill-110" fill="#0FA3D1"></path>
                    <path d="M1356.395,66.9473 C1356.516,66.5893 1357.074,66.7703 1356.953,67.1293 C1355.726,70.7753 1352.828,74.3923 1349.423,76.5053 C1349.155,76.4573 1348.893,76.3853 1348.636,76.2893 C1352.127,74.2963 1355.154,70.6353 1356.395,66.9473" id="Fill-112" fill="#9AD6D4"></path>
                    <path d="M1351.9575,67.2168 C1352.0985,66.8678 1352.6565,67.0478 1352.5155,67.3988 C1351.3035,70.4078 1349.4265,73.1468 1346.7835,75.0588 C1346.6505,74.9148 1346.5195,74.7698 1346.4065,74.6108 C1348.9585,72.7748 1350.7965,70.1008 1351.9575,67.2168" id="Fill-114" fill="#9AD6D4"></path>
                    <path d="M1348.8442,68.7373 C1347.9772,70.1313 1346.8892,71.3503 1345.7182,72.4903 C1345.7182,72.4313 1345.7032,72.3753 1345.7072,72.3163 C1345.2912,72.5183 1344.8672,72.7123 1344.4402,72.8943 C1345.9112,71.5543 1347.2962,70.1143 1348.3512,68.4193 C1348.5512,68.0983 1349.0432,68.4163 1348.8442,68.7373" id="Fill-116" fill="#9AD6D4"></path>
                    <path d="M1345.3462,67.0269 C1345.4742,66.6729 1346.0332,66.8529 1345.9042,67.2089 C1344.8572,70.0919 1342.3642,71.8959 1339.7912,73.3979 C1339.5652,73.3179 1339.3502,73.2159 1339.1432,73.1009 C1341.7102,71.6369 1344.3082,69.8859 1345.3462,67.0269" id="Fill-118" fill="#9AD6D4"></path>
                    <path d="M1342.8198,65.0498 C1342.9158,64.6838 1343.4728,64.8678 1343.3778,65.2328 C1343.3358,65.3918 1343.2638,65.5388 1343.2118,65.6938 L1342.5968,65.6688 C1342.6728,65.4638 1342.7628,65.2638 1342.8198,65.0498" id="Fill-120" fill="#E69786"></path>
                    <path d="M1337.5591,70.9233 C1339.7451,69.7463 1341.7491,67.9673 1342.5971,65.6693 L1343.2111,65.6943 C1342.3501,68.2473 1340.1351,70.2293 1337.7331,71.4973 C1337.6621,71.3083 1337.5921,71.1183 1337.5591,70.9233" id="Fill-122" fill="#9AD6D4"></path>
                    <path d="M1346.3882,39.8838 C1346.3392,39.9028 1346.2902,39.9218 1346.2422,39.9408 C1340.1102,42.3438 1333.7092,46.0068 1329.4102,51.0268 C1328.9812,51.5288 1328.5642,52.0418 1328.1592,52.5648 C1327.0412,54.0098 1325.0052,56.1168 1324.9842,58.0408 C1324.9602,60.2358 1327.0492,61.0128 1328.6242,61.9398 C1331.1452,63.4228 1333.8052,64.6648 1336.5252,65.7348 C1341.6462,67.7498 1347.1402,68.8638 1352.6542,68.7488 C1362.4832,68.5428 1372.3672,64.1998 1378.3782,56.4198 C1376.8062,54.9588 1375.2342,53.4988 1373.6612,52.0378 C1375.6552,51.3488 1377.6022,50.5288 1379.4872,49.5848 C1376.0542,45.1348 1371.3942,40.7978 1365.9982,38.9248 C1359.5582,36.6898 1352.6522,37.4588 1346.3882,39.8838" id="Fill-124" fill="#FFFEEE"></path>
                    <path d="M1365.7241,65.958 C1365.3291,66.124 1364.9311,66.281 1364.5311,66.434 C1357.0011,58.812 1355.4751,47.724 1358.3641,37.611 C1358.7651,37.618 1359.1651,37.652 1359.5671,37.677 C1356.6391,47.639 1358.1391,58.527 1365.7241,65.958" id="Fill-126" fill="#0FA3D1"></path>
                    <path d="M1367.5779,47.7475 C1371.2749,46.9485 1372.5139,52.6805 1368.8169,53.4795 C1365.1209,54.2785 1363.8809,48.5465 1367.5779,47.7475 Z" id="Fill-128" fill="#0FA3D1"></path>
                    <path d="M1352.2056,50.605 C1350.6966,50.16 1349.6896,48.957 1349.6076,47.33 C1349.5236,45.654 1351.0106,44.435 1352.5666,44.366 C1352.9436,44.349 1352.9086,44.935 1352.5336,44.952 C1350.9206,45.023 1350.0146,46.409 1350.2546,47.928 C1350.4526,49.177 1351.6316,49.929 1352.7746,50.154 C1352.9206,50.182 1352.9606,50.288 1352.9576,50.398 C1353.0796,50.527 1353.1116,50.746 1352.9076,50.85 C1350.4406,52.107 1350.8416,56.938 1354.1206,56.121 C1354.4886,56.03 1354.6106,56.604 1354.2446,56.694 C1350.5356,57.618 1349.6496,52.472 1352.2056,50.605" id="Fill-130" fill="#0FA3D1"></path>
                    <path d="M1348.2935,48.1792 C1348.6265,47.9992 1348.8975,48.5192 1348.5645,48.6992 C1347.9145,49.0512 1347.4415,49.6072 1347.3385,50.3552 C1347.2065,51.3142 1348.2025,52.0802 1349.0865,51.7972 C1349.4465,51.6822 1349.5675,52.2572 1349.2105,52.3702 C1348.1365,52.7142 1347.1695,51.9982 1346.8135,51.0042 C1346.4055,49.8702 1347.3675,48.6792 1348.2935,48.1792" id="Fill-132" fill="#0FA3D1"></path>
                    <path d="M1344.1323,59.4346 C1343.3783,59.0236 1342.7633,58.3216 1342.6983,57.4366 C1342.6153,56.2876 1343.3133,55.2566 1344.4443,54.9856 C1344.8123,54.8976 1344.9353,55.4716 1344.5683,55.5596 C1343.7553,55.7536 1343.3093,56.4316 1343.2683,57.2446 C1343.2203,58.2176 1344.1753,58.9276 1344.9993,59.1636 C1345.1323,59.2006 1345.1733,59.3006 1345.1783,59.4046 C1345.1813,59.4176 1345.1773,59.4286 1345.1793,59.4416 C1345.1763,59.4766 1345.1803,59.5066 1345.1663,59.5396 C1345.1533,59.5966 1345.1193,59.6336 1345.0693,59.6676 C1345.0533,59.6806 1345.0393,59.6866 1345.0223,59.6956 C1344.9993,59.7036 1344.9923,59.7256 1344.9643,59.7286 C1344.1613,59.8126 1343.6643,60.8696 1343.5823,61.5876 C1343.4783,62.5046 1344.5953,62.8876 1345.2743,63.0736 C1345.6393,63.1726 1345.4563,63.7306 1345.0923,63.6306 C1344.2043,63.3886 1343.0453,62.8706 1343.0053,61.7896 C1342.9763,60.9896 1343.4113,59.9336 1344.1323,59.4346" id="Fill-134" fill="#0FA3D1"></path>
                    <path d="M1341.7134,57.8613 C1342.0844,57.7873 1342.2084,58.3613 1341.8374,58.4343 C1341.2944,58.5423 1340.9844,58.9763 1340.9484,59.5153 C1340.9054,60.1703 1341.5674,60.6333 1342.1164,60.7793 C1342.4824,60.8763 1342.2994,61.4333 1341.9344,61.3373 C1341.1574,61.1313 1340.4224,60.4923 1340.3724,59.6423 C1340.3224,58.7923 1340.8714,58.0283 1341.7134,57.8613" id="Fill-136" fill="#0FA3D1"></path>
                    <path d="M1335.7456,50.3208 C1336.1236,50.3268 1336.0906,50.9128 1335.7126,50.9058 C1334.8186,50.8908 1333.4686,51.8208 1333.8506,52.8298 C1334.1356,53.5798 1335.0906,53.8048 1335.7746,53.9928 C1336.1406,54.0928 1335.9576,54.6508 1335.5936,54.5498 C1334.4346,54.2338 1333.2286,53.7088 1333.1716,52.3418 C1333.1226,51.2038 1334.7926,50.3048 1335.7456,50.3208" id="Fill-138" fill="#0FA3D1"></path>
                    <path d="M1354.0132,61.332 C1354.3612,61.191 1354.6352,61.71 1354.2842,61.852 C1353.7452,62.07 1353.1812,62.315 1352.8302,62.801 C1352.2802,63.564 1353.1862,64.315 1353.7792,64.656 C1354.1082,64.844 1353.7882,65.336 1353.4612,65.149 C1352.7202,64.724 1351.8562,63.92 1352.1322,62.959 C1352.3842,62.083 1353.2242,61.651 1354.0132,61.332" id="Fill-140" fill="#0FA3D1"></path>
                    <path d="M1331.4038,59.1802 C1331.6178,58.2872 1332.6138,57.8062 1333.4548,57.9762 C1333.8248,58.0512 1333.6388,58.6072 1333.2728,58.5332 C1332.6778,58.4132 1332.1548,58.8232 1331.9618,59.3622 C1331.7128,60.0592 1332.2958,60.7542 1332.8688,61.0462 C1333.2058,61.2172 1332.8848,61.7082 1332.5508,61.5382 C1331.6708,61.0922 1331.1718,60.1532 1331.4038,59.1802" id="Fill-142" fill="#0FA3D1"></path>
                    <path d="M1328.7935,202.9111 C1328.1975,210.2351 1327.2625,217.5131 1325.9855,224.7501 C1325.8305,225.6291 1327.1745,226.0051 1327.3305,225.1201 C1328.6295,217.7611 1329.5825,210.3601 1330.1885,202.9111 C1330.2615,202.0141 1328.8655,202.0211 1328.7935,202.9111" id="Fill-144" fill="#FCEBF0"></path>
                    <path d="M1339.3579,248.623 C1339.5249,248.502 1339.6789,248.366 1339.7999,248.201 C1340.1119,247.775 1340.1619,247.218 1340.1839,246.692 C1340.2739,244.607 1340.1009,242.511 1339.6719,240.468 C1339.2729,238.571 1338.6569,236.727 1338.0409,234.889 C1336.1219,229.157 1333.0799,225.121 1329.3159,220.432 C1329.0039,220.043 1328.6259,219.621 1328.1279,219.616 C1327.7369,219.612 1327.3989,219.872 1327.1029,220.125 C1323.9909,222.793 1321.6459,226.349 1319.8839,230.026 C1317.5949,234.806 1316.2609,240.114 1316.8259,245.433 C1316.8809,245.958 1316.9629,246.505 1317.2709,246.934 C1317.5629,247.342 1318.0219,247.593 1318.4699,247.818 C1324.3999,250.793 1333.0709,252.539 1339.0469,248.828 C1339.1529,248.763 1339.2569,248.696 1339.3579,248.623" id="Fill-146" fill="#FCEBF0"></path>
                    <path d="M1365.9292,200.7642 C1363.2812,208.7772 1362.2002,217.0452 1362.7032,225.4702 C1362.7572,226.3642 1364.1522,226.3692 1364.0982,225.4702 C1363.6032,217.1702 1364.6642,209.0302 1367.2742,201.1352 C1367.5572,200.2782 1366.2092,199.9142 1365.9292,200.7642" id="Fill-148" fill="#FCEBF0"></path>
                    <path d="M1370.6724,251.9917 C1364.0364,253.8887 1353.6084,253.7707 1348.0064,249.1797 C1347.8664,249.0657 1347.7274,248.9447 1347.6354,248.7887 C1347.4194,248.4247 1347.5134,247.9637 1347.6134,247.5527 C1348.8184,242.6027 1349.6474,237.9277 1352.2594,233.4367 C1354.7154,229.2127 1358.1064,225.5217 1362.1754,222.8067 C1362.3754,222.6737 1362.6034,222.5367 1362.8394,222.5797 C1363.0604,222.6207 1363.2214,222.8067 1363.3624,222.9817 C1365.6974,225.8647 1368.0534,228.7787 1369.6844,232.1107 C1372.1324,237.1127 1372.8184,242.7847 1373.0484,248.3487 C1373.0874,249.3007 1373.0804,250.3537 1372.4504,251.0677 C1372.0024,251.5757 1371.3234,251.8057 1370.6724,251.9917" id="Fill-150" fill="#FCEBF0"></path>
                    <path d="M1336.2329,244.7534 C1340.5769,249.0884 1346.7539,247.8994 1352.0229,246.2104 C1352.6329,246.0144 1352.3729,245.0484 1351.7569,245.2464 C1346.8519,246.8184 1341.0219,248.1214 1336.9399,244.0454 C1336.4849,243.5904 1335.7769,244.2974 1336.2329,244.7534" id="Fill-152" fill="#FCEBF0"></path>
                    <path d="M1395.8472,324.039 C1395.3602,314.48 1393.0272,305.019 1389.0152,296.33 C1385.3882,288.474 1380.4392,281.309 1376.3482,273.684 C1376.2932,273.582 1376.2432,273.47 1376.1962,273.358 C1375.9012,273.198 1375.6112,273.033 1375.3392,272.836 C1366.5202,282.262 1353.4312,287.556 1340.5362,286.827 C1330.7372,286.272 1321.8362,281.441 1314.2872,275.495 C1312.9702,287.443 1307.1632,298.405 1295.9412,303.859 C1290.9182,306.301 1285.3552,307.403 1279.8222,308.161 C1260.7382,310.773 1240.7582,309.665 1222.9352,316.968 C1212.4242,321.274 1203.0042,328.557 1196.9652,338.178 C1190.9262,347.798 1188.4652,359.796 1191.1202,370.841 C1193.7562,363.323 1201.0232,358.12 1208.7422,356.15 C1216.4612,354.18 1224.6142,354.997 1232.4492,356.436 C1252.6302,360.145 1271.8272,367.847 1291.5642,373.459 C1311.3002,379.073 1332.3382,382.588 1352.2742,377.733 C1372.2102,372.878 1390.7692,358.041 1394.9392,337.951 C1395.8862,333.388 1396.0842,328.693 1395.8472,324.039" id="Fill-154" fill="#F6A821"></path>
                    <path d="M1360.8774,194.3726 C1360.8624,194.2946 1360.8454,194.2166 1360.8314,194.1396 C1360.2684,191.0706 1360.0064,187.9916 1359.6074,184.9036 C1359.5744,184.6436 1359.5364,184.3926 1359.4944,184.1466 C1356.0704,185.0366 1352.5134,185.5626 1349.0054,185.9316 C1347.2984,186.1096 1345.5884,186.2526 1343.8764,186.3786 C1343.9944,190.3696 1343.6954,194.3106 1343.7924,198.3176 C1343.8054,198.8226 1343.8794,199.2546 1343.9274,199.6436 C1349.6214,198.7336 1355.2124,196.6626 1360.5964,194.4886 C1360.6904,194.4506 1360.7834,194.4106 1360.8774,194.3726" id="Fill-156" fill="#B73759" opacity="0.280831473"></path>
                    <path d="M1351.8444,107.7606 C1346.1614,108.1816 1339.8574,107.8036 1334.3104,108.8156 C1323.6064,110.7696 1311.1514,117.6476 1306.5734,127.9766 C1303.7534,134.3396 1304.5264,141.6426 1305.3544,148.5536 C1305.7664,151.9996 1306.1784,155.4456 1306.5914,158.8906 C1307.2924,164.7546 1308.0504,170.7926 1310.9544,175.9346 C1315.2344,183.5096 1323.6674,188.0026 1332.2224,189.5886 C1350.1874,192.9186 1373.3564,190.0236 1386.3004,175.8616 C1398.8254,162.1576 1392.2734,133.8296 1384.0054,119.4946 C1378.0014,109.0836 1362.5134,106.9706 1351.8444,107.7606 Z" id="Fill-158" fill="#E69786"></path>
                    <path d="M1388.9829,154.0195 C1389.2739,151.7255 1390.6679,149.5955 1392.6549,148.4125 C1397.6639,145.4275 1406.1869,148.0295 1407.9349,153.7695 C1409.2969,158.2415 1407.1149,163.3025 1403.4039,166.1475 C1399.6939,168.9925 1394.7629,169.8655 1390.1049,169.4675" id="Fill-160" fill="#D68476"></path>
                    <path d="M1404.104,162.1475 C1404.538,161.4805 1404.878,160.7545 1405.125,159.9985 C1405.488,158.8745 1405.866,157.8745 1405.742,156.6655 C1405.626,155.5415 1405.24,154.4365 1404.874,153.3945 C1404.731,152.9875 1404.566,152.5785 1404.287,152.2485 C1404.008,151.9195 1403.594,151.6785 1403.164,151.7045 C1402.734,151.7295 1402.469,151.9975 1402.125,152.2105 C1401.846,152.3845 1401.526,152.5025 1401.23,152.6615 C1400.548,153.0255 1399.898,153.4555 1399.334,153.9865 C1396.792,156.3815 1394.98,159.5435 1394.199,162.9475 C1394.078,163.4735 1393.97,164.0585 1394.061,164.5975 C1394.127,164.9955 1394.157,165.6215 1394.383,165.9495 C1394.659,166.3485 1395.204,166.4435 1395.688,166.4535 C1398.979,166.5225 1402.294,164.9295 1404.104,162.1475" id="Fill-162" fill="#BC2A50" opacity="0.134695871"></path>
                    <path d="M1394.8589,165.543 C1394.7249,159.728 1398.0189,154.543 1403.3169,152.157 C1403.8169,151.932 1403.3829,151.199 1402.8869,151.422 C1397.3329,153.923 1393.8679,159.458 1394.0069,165.543 C1394.0199,166.091 1394.8709,166.092 1394.8589,165.543" id="Fill-164" fill="#964F4A"></path>
                    <path d="M1396.1128,159.3359 C1398.2558,159.3559 1400.3018,159.7839 1402.2648,160.6469 C1402.7618,160.8649 1403.1958,160.1319 1402.6948,159.9119 C1400.5918,158.9869 1398.4098,158.5059 1396.1128,158.4849 C1395.5638,158.4799 1395.5638,159.3309 1396.1128,159.3359" id="Fill-166" fill="#964F4A"></path>
                    <path d="M1328.3716,166.439 C1327.8936,160.552 1316.7376,161.235 1315.8376,166.467 C1315.6266,167.697 1316.2006,168.975 1317.1146,169.825 C1318.0276,170.675 1319.2376,171.145 1320.4596,171.398 C1322.2306,171.766 1324.1516,171.696 1325.7456,170.84 C1327.3386,169.985 1328.5176,168.242 1328.3716,166.439" id="Fill-168" fill="#C6385A" opacity="0.084077381"></path>
                    <path d="M1390.2095,153.4077 L1379.9225,122.8907 C1379.1405,123.3587 1378.3645,123.8597 1377.6025,124.3867 C1377.2955,125.6567 1376.4465,126.8247 1374.8675,127.6087 C1374.8165,127.6337 1374.7695,127.6697 1374.7185,127.6957 C1370.3245,133.7767 1367.2945,141.0337 1368.9645,148.6787 C1370.5365,155.8767 1375.2315,161.6187 1375.5715,169.1787 C1375.8285,174.8727 1374.9615,180.5077 1372.8295,185.4487 C1377.9285,183.1177 1382.5465,179.9687 1386.3005,175.8617 C1387.5895,174.4517 1388.6655,172.8797 1389.5685,171.1907 C1390.4755,165.3137 1390.7135,159.3337 1390.2095,153.4077" id="Fill-170" fill="#B73759" opacity="0.285179501"></path>
                    <path d="M1362.481,157.3682 C1360.461,151.7012 1347.11,154.9832 1349.035,161.2772 C1349.338,162.2682 1350.057,163.0942 1350.904,163.6912 C1352.441,164.7742 1354.429,165.1582 1356.282,164.8302 C1358.134,164.5032 1359.839,163.4912 1361.098,162.0932 C1362.252,160.8112 1363.059,158.9922 1362.481,157.3682" id="Fill-172" fill="#C6385A" opacity="0.084077381"></path>
                    <path d="M1380.6323,124.2358 C1373.4353,130.4978 1370.0713,140.8518 1372.2133,150.1478 C1373.6953,156.5818 1377.5523,162.3558 1378.4703,168.8948 C1379.0593,173.0948 1378.3963,177.3568 1377.8163,181.5588 C1377.2353,185.7608 1376.7403,190.0708 1377.6553,194.2128 C1378.5713,198.3548 1381.1573,202.3598 1385.1163,203.8808 C1389.0753,205.4028 1394.3203,203.6128 1395.6533,199.5868 C1396.8163,196.0798 1394.9193,192.3918 1393.4693,188.9938 C1391.6373,184.7028 1390.4503,180.1078 1390.2833,175.4438 C1390.0703,169.4658 1391.5203,163.5718 1392.7583,157.7188 C1393.9963,151.8658 1395.0313,145.8198 1393.9893,139.9298 C1392.9473,134.0388 1389.4453,128.2598 1383.8993,126.0168" id="Fill-174" fill="#F7CE7A"></path>
                    <path d="M1385.7856,118.2739 C1385.2336,120.9199 1383.1596,123.0599 1380.7486,124.2829 C1378.3376,125.5049 1375.6056,125.9309 1372.9146,126.1869 C1354.5986,127.9289 1336.1046,122.5669 1317.8376,124.7559 C1311.0106,125.5729 1304.3496,127.4349 1297.8116,129.5629 C1292.0346,131.4439 1286.1746,133.5649 1280.0996,133.4559 C1274.0256,133.3479 1265.9836,126.7989 1263.5776,121.2199 C1262.0026,117.5699 1263.9776,116.9029 1265.6906,113.3159 C1267.4026,109.7289 1270.3206,106.8199 1273.6036,104.5799 C1281.3906,99.2679 1291.1336,97.5519 1300.5576,97.5869 C1309.9836,97.6209 1319.3216,99.2649 1328.7136,100.0699 C1339.9286,101.0309 1351.2466,100.7939 1362.4116,99.3619 C1363.8976,99.1709 1365.4306,98.9619 1366.8756,99.3599 C1368.1356,99.7079 1369.2246,100.4899 1370.2466,101.3069 C1373.6246,104.0069 1376.5746,107.2419 1378.9536,110.8539" id="Fill-176" fill="#F7CE7A"></path>
                    <path d="M1327.9507,159.5664 C1328.7587,160.8714 1329.6857,162.1024 1330.7247,163.2314 C1332.5737,165.2394 1335.0117,167.0184 1337.7397,166.9414 C1339.5747,166.8904 1341.3387,165.9624 1342.5347,164.5694 C1343.7317,163.1774 1344.3787,161.3554 1344.4807,159.5224 C1344.5787,157.7864 1344.2107,156.0884 1343.6637,154.4294 C1339.0817,157.5474 1333.6487,159.1564 1327.9507,159.5664" id="Fill-178" fill="#933751"></path>
                    <path d="M1336.8745,162.0957 C1335.3785,162.8347 1334.1615,164.0527 1333.3205,165.4907 C1334.6555,166.3877 1336.1455,166.9867 1337.7395,166.9417 C1339.5745,166.8907 1341.3385,165.9617 1342.5345,164.5697 C1343.1965,163.7997 1343.6735,162.8917 1343.9995,161.9297 C1341.7285,161.0137 1339.0765,161.0077 1336.8745,162.0957" id="Fill-180" fill="#C6385A"></path>
                    <path d="M1335.7612,147.2212 C1332.8192,146.0032 1328.5742,146.6132 1328.3882,150.5002 C1328.2492,153.3842 1331.8312,155.3282 1334.2422,155.6342 C1335.1332,155.7462 1335.1222,154.3502 1334.2422,154.2392 C1332.4412,154.0112 1330.4382,152.7862 1329.8552,151.0002 C1329.4382,149.7232 1330.4962,148.5972 1331.5822,148.1542 C1332.8232,147.6462 1334.2242,148.0832 1335.3902,148.5662 C1336.2212,148.9102 1336.5792,147.5602 1335.7612,147.2212" id="Fill-182" fill="#933751"></path>
                    <path d="M1319.6851,149.9338 C1313.3901,149.9338 1313.3901,159.6968 1319.6851,159.6968 C1325.9811,159.6968 1325.9811,149.9338 1319.6851,149.9338 Z" id="Fill-184" fill="#933751"></path>
                    <path d="M1351.0376,144.0495 C1344.7416,144.0495 1344.7416,153.8125 1351.0376,153.8125 C1357.3336,153.8125 1357.3336,144.0495 1351.0376,144.0495 Z" id="Fill-186" fill="#933751"></path>
                    <path d="M1312.0972,148.3154 C1313.2012,146.3074 1315.0042,145.0074 1317.2442,144.5474 C1319.0062,144.1854 1318.2592,141.4974 1316.5032,141.8574 C1313.6002,142.4534 1311.1152,144.3154 1309.6892,146.9074 C1308.8222,148.4844 1311.2302,149.8914 1312.0972,148.3154" id="Fill-188" fill="#933751"></path>
                    <path d="M1347.4253,137.4463 C1350.1583,136.3363 1353.1433,136.7323 1355.3513,138.7503 C1356.6763,139.9603 1358.6543,137.9933 1357.3233,136.7773 C1354.4383,134.1413 1350.3413,133.2703 1346.6843,134.7573 C1345.0403,135.4253 1345.7583,138.1243 1347.4253,137.4463" id="Fill-190" fill="#933751"></path>
                    <g id="Group-204" transform="translate(1147.000000, 227.000000)" fill="#FFFFFF">
                        <path d="M64.3198,13.5449 C67.2798,20.8459 60.6508,27.2019 58.6478,33.8719 C56.5998,40.6909 62.9538,46.9679 59.9128,53.8149 C59.2788,55.2429 61.3848,56.4879 62.0238,55.0499 C65.6448,46.8979 58.7008,39.3479 62.2638,31.0049 C64.8628,24.9229 69.4778,19.8009 66.6768,12.8949 C66.0928,11.4529 63.7258,12.0829 64.3198,13.5449" id="Fill-192"></path>
                        <path d="M51.8999,13.6338 C53.4969,19.2788 53.6379,23.7858 49.6769,28.3148 C47.8379,30.4178 45.8949,32.2848 44.3839,34.6528 C39.9999,41.5238 48.6809,48.6698 44.8279,55.6378 C44.0639,57.0188 46.1749,58.2518 46.9389,56.8718 C48.4739,54.0968 48.5189,51.8588 48.0049,48.7708 C46.9449,42.3978 43.8719,38.3318 49.1769,32.4048 C54.9749,25.9288 56.7219,21.6918 54.2579,12.9838 C53.8299,11.4678 51.4699,12.1128 51.8999,13.6338" id="Fill-194"></path>
                        <path d="M40.5942,12.8564 C44.2252,23.4534 35.1912,26.3224 28.9952,32.0844 C22.6692,37.9684 27.8392,48.9324 16.6882,51.0354 C15.1392,51.3284 15.7972,53.6844 17.3382,53.3944 C29.7402,51.0544 25.2672,36.9644 34.2552,31.0944 C41.1792,26.5724 45.9422,20.9314 42.9512,12.2064 C42.4442,10.7234 40.0812,11.3604 40.5942,12.8564" id="Fill-196"></path>
                        <path d="M1.6177,35.4633 C4.0307,42.4263 14.5877,43.4523 18.1787,36.5803 C21.8097,29.6303 18.4427,21.7143 27.7567,18.2743 C31.9707,16.7163 34.0827,13.7513 34.0797,9.3073 C34.0797,7.7303 31.6337,7.7303 31.6347,9.3073 C31.6377,15.5793 23.0797,16.7563 19.7037,21.1963 C18.5977,22.6503 18.0067,24.8363 17.8347,26.5873 C17.6517,28.4793 17.4597,30.3703 17.2587,32.2603 C16.5827,37.2163 7.0037,43.5463 3.9757,34.8133 C3.4627,33.3323 1.0987,33.9693 1.6177,35.4633" id="Fill-198"></path>
                        <path d="M0.6265,15.3642 C3.2095,19.6582 9.2285,22.0042 13.4755,18.3022 C16.8325,15.3762 17.4615,11.2902 21.4065,8.6772 C24.0415,6.9302 26.2055,5.0612 26.7645,1.8252 C27.0295,0.2832 24.6735,-0.3768 24.4055,1.1752 C23.6295,5.6702 18.5295,7.0032 15.8325,10.2132 C14.9635,11.2472 14.4925,12.6542 13.9405,13.8692 C11.6515,18.9112 5.3775,18.5192 2.7385,14.1302 C1.9275,12.7802 -0.1875,14.0092 0.6265,15.3642" id="Fill-200"></path>
                        <path d="M74.9185,14.0723 C74.5035,18.1333 71.9055,21.4673 71.4025,25.5513 C70.6465,31.7103 75.8005,37.1583 71.6485,43.0923 C70.7425,44.3883 72.8635,45.6093 73.7615,44.3263 C76.1445,40.9203 76.0195,37.4043 75.2665,33.4513 C74.2615,28.1803 73.3415,24.6623 75.8735,19.4393 C76.7375,17.6553 77.1635,16.0323 77.3645,14.0723 C77.5245,12.5043 75.0775,12.5193 74.9185,14.0723" id="Fill-202"></path>
                    </g>
                    <path d="M1223.0503,194.9893 C1219.0143,190.3133 1212.4743,186.9903 1206.2963,186.3323 C1202.7853,185.9583 1199.2383,186.0403 1195.7203,186.2543 C1189.5173,186.6313 1185.2093,189.3833 1180.2173,192.9793 C1175.4503,196.4123 1171.4663,200.9543 1168.8163,206.2063 C1166.2023,211.3853 1164.8513,217.1013 1163.7923,222.8043 C1163.3053,225.4323 1162.8753,228.1383 1163.3753,230.7653 C1164.4723,236.5213 1170.4393,234.0023 1173.1563,230.7923 C1172.8473,232.5393 1172.5373,234.3263 1172.8213,236.0783 C1173.1073,237.8293 1174.1043,239.5693 1175.7373,240.2603 C1177.5283,241.0183 1179.6933,240.3223 1181.0853,238.9673 C1182.4793,237.6113 1183.2173,235.7173 1183.6623,233.8243 C1182.8303,236.6113 1183.2763,239.9083 1185.3373,241.9583 C1187.3993,244.0083 1191.1873,244.2733 1193.1343,242.1153 C1194.5723,240.5223 1194.7383,238.1563 1195.8313,236.3083 C1194.9753,238.6903 1195.7803,241.5723 1197.7473,243.1663 C1202.6183,247.1123 1206.2353,241.7903 1207.6233,237.4103 C1207.8733,239.3193 1207.8443,241.4363 1209.2123,243.0393 C1210.8523,244.9623 1213.9493,245.2183 1216.1393,243.9573 C1218.3283,242.6953 1219.6253,240.2113 1219.9183,237.7013 C1219.2433,240.1493 1220.2713,245.3873 1223.2493,245.8993 C1224.3763,246.0923 1225.5373,245.7663 1226.5573,245.2493 C1230.2673,243.3663 1231.4933,239.2273 1231.9603,235.3853 C1232.4803,231.1133 1232.8533,226.7743 1232.5833,222.4863 C1231.9343,212.1493 1230.0733,203.1263 1223.0503,194.9893" id="Fill-205" fill="#FFFFFF"></path>
                    <path d="M1193.0229,209.1583 C1187.5029,209.1583 1187.5029,217.7183 1193.0229,217.7183 C1198.5429,217.7183 1198.5429,209.1583 1193.0229,209.1583 Z" id="Fill-207" fill="#FFC36D"></path>
                    <path d="M1217.4791,211.6045 C1215.1461,211.6045 1213.2001,213.5515 1213.2001,215.8845 C1213.2001,218.2175 1215.1461,220.1645 1217.4791,220.1645 L1217.6831,220.1645 C1220.0161,220.1645 1221.9621,218.2175 1221.9621,215.8845 C1221.9621,213.5515 1220.0161,211.6045 1217.6831,211.6045 L1217.4791,211.6045 Z" id="Fill-209" fill="#FFC36D"></path>
                    <path d="M1200.439,214.5225 C1199.511,217.2325 1201.052,220.4425 1204.055,220.8305 C1207.151,221.2305 1209.674,218.8075 1209.446,215.6915 C1209.388,214.9105 1208.165,214.9045 1208.223,215.6915 C1208.391,217.9825 1206.822,219.7205 1204.502,219.6655 C1202.018,219.6065 1200.911,216.9145 1201.619,214.8475 C1201.875,214.0995 1200.693,213.7805 1200.439,214.5225" id="Fill-211" fill="#FFC36D"></path>
                    <path d="M1401.8833,125.1753 C1402.7783,124.5403 1403.6433,123.8653 1404.4773,123.1533 C1405.4893,122.2893 1406.4793,121.3373 1407.0263,120.1233 C1407.5713,118.9103 1407.5873,117.3743 1406.7453,116.3433 C1406.1333,115.5923 1405.1813,115.2173 1404.2633,114.9063 C1399.1393,113.1713 1394.4103,112.9533 1388.9713,112.6423 C1388.5043,106.9163 1386.0593,103.1233 1382.7333,98.4383 C1381.9353,97.3153 1381.0333,96.2153 1379.8293,95.5453 C1378.6253,94.8743 1377.0553,94.7103 1375.8943,95.4533 C1375.0713,95.9803 1374.5633,96.8723 1374.1313,97.7493 C1371.6103,102.8763 1371.0393,106.9513 1371.7623,112.6193 C1371.8343,113.1833 1371.9033,113.8213 1371.5403,114.2593 C1371.1963,114.6753 1370.5973,114.7473 1370.0583,114.7883 C1365.0323,115.1733 1361.2813,116.2063 1356.6153,118.1593 C1354.1563,119.1883 1351.3393,120.9843 1351.5703,123.6383 C1351.6913,125.0153 1352.6553,126.1703 1353.7063,127.0683 C1357.1523,130.0133 1361.7503,131.1353 1366.1633,132.1663 C1364.0193,136.9823 1361.6233,144.7813 1365.2703,149.3243 C1365.8643,150.0653 1366.6523,150.7543 1367.6003,150.8133 C1368.4193,150.8643 1369.1873,150.4343 1369.8703,149.9793 C1372.2913,148.3673 1374.6713,146.1153 1376.0953,143.5483 C1377.5153,140.9893 1377.6653,138.9113 1380.0703,136.8043 C1382.7323,141.1643 1386.6333,144.7583 1391.1953,147.0553 C1392.3373,147.6293 1393.5533,148.1323 1394.8293,148.1693 C1396.1063,148.2063 1397.4623,147.6963 1398.1483,146.6183 C1399.0013,145.2763 1398.6143,143.5243 1398.1653,141.9983 C1396.9253,137.7823 1395.0163,133.7643 1393.3333,129.7073 C1396.3643,128.5783 1399.2463,127.0493 1401.8833,125.1753" id="Fill-213" fill="#FFFFFF"></path>
                    <path d="M1338.6724,274.5869 L1338.6724,276.4829 C1338.6724,277.3819 1340.0674,277.3819 1340.0674,276.4829 L1340.0674,274.5869 C1340.0674,273.6879 1338.6724,273.6879 1338.6724,274.5869" id="Fill-215" fill="#C6385A"></path>
                    <path d="M1028.4194,702.9643 L56.4034,702.9643 C37.8954,702.9643 22.8904,687.9603 22.8904,669.4503 L22.8904,72.8563 C22.8904,54.3463 37.8954,39.3413 56.4034,39.3413 L1028.4194,39.3413 C1046.9284,39.3413 1061.9334,54.3463 1061.9334,72.8563 L1061.9334,669.4503 C1061.9334,687.9603 1046.9284,702.9643 1028.4194,702.9643" id="Fill-217" fill="#AEF4F2"></path>
                    <path d="M1028.4194,702.9643 L56.4034,702.9643 C37.8954,702.9643 22.8904,687.9603 22.8904,669.4503 L22.8904,72.8563 C22.8904,54.3463 37.8954,39.3413 56.4034,39.3413 L1028.4194,39.3413 C1046.9284,39.3413 1061.9334,54.3463 1061.9334,72.8563 L1061.9334,669.4503 C1061.9334,687.9603 1046.9284,702.9643 1028.4194,702.9643 Z" id="Stroke-219" stroke="#4C2030" stroke-width="4"></path>
                </g>
            </g>
        </g>
    </g>
</svg>