<?xml version="1.0" encoding="UTF-8"?>
<svg width="35px" height="36px" viewBox="0 0 35 36" version="1.1" xmlns="http://www.w3.org/2000/svg" xmlns:xlink="http://www.w3.org/1999/xlink">
    <!-- Generator: Sketch 53.1 (72631) - https://sketchapp.com -->
    <title>Group 19credits</title>
    <desc>Created with Sketch.</desc>
    <defs>
        <polygon id="path-1" points="0.0726796871 0.393591979 34.892 0.393591979 34.892 35.917737 0.0726796871 35.917737"></polygon>
    </defs>
    <g id="Page-1" stroke="none" stroke-width="1" fill="none" fill-rule="evenodd">
        <g id="Desktop-HD" transform="translate(-1287.000000, -645.000000)">
            <g id="Group-19" transform="translate(1287.000000, 644.780400)">
                <mask id="mask-2" fill="white">
                    <use xlink:href="#path-1"></use>
                </mask>
                <g id="Clip-18"></g>
                <path d="M21.3406,18.8979 L22.2516,24.2079 L17.4826,21.7009 L12.7136,24.2079 L13.6246,18.8979 L9.7666,15.1369 L15.0986,14.3629 L17.4826,9.5309 L19.8666,14.3629 L25.1986,15.1369 L21.3406,18.8979 Z M34.4486,20.1299 L33.9086,19.3959 C33.3266,18.5909 33.3116,17.5039 33.8876,16.6989 L34.4126,15.9579 C35.2186,14.8209 34.8446,13.2389 33.6136,12.5839 L32.8086,12.1519 C31.9306,11.6849 31.4556,10.7069 31.6216,9.7279 L31.7726,8.8289 C32.0026,7.4549 30.9816,6.1889 29.5856,6.1309 L28.6796,6.0959 C27.6866,6.0519 26.8306,5.3829 26.5576,4.4269 L26.3056,3.5489 C25.9176,2.2109 24.4496,1.5209 23.1696,2.0669 L22.3346,2.4269 C21.4216,2.8229 20.3636,2.5849 19.6946,1.8439 L19.0906,1.1679 C18.1556,0.1249 16.5296,0.1389 15.6166,1.1899 L15.0186,1.8729 C14.3646,2.6209 13.3066,2.8729 12.3936,2.4919 L11.5516,2.1459 C10.2646,1.6139 8.8036,2.3329 8.4366,3.6789 L8.1996,4.5559 C7.9406,5.5129 7.0916,6.1959 6.0996,6.2539 L5.1926,6.3039 C3.8046,6.3829 2.7976,7.6639 3.0496,9.0299 L3.2146,9.9219 C3.3946,10.9009 2.9266,11.8789 2.0636,12.3609 L1.2656,12.7999 C0.0496,13.4759 -0.3034,15.0659 0.5176,16.1879 L1.0566,16.9219 C1.6396,17.7269 1.6536,18.8139 1.0786,19.6189 L0.5526,20.3599 C-0.2524,21.4969 0.1216,23.0789 1.3516,23.7339 L2.1576,24.1649 C3.0346,24.6329 3.5096,25.6109 3.3446,26.5899 L3.1926,27.4889 C2.9626,28.8629 3.9846,30.1289 5.3796,30.1859 L6.2866,30.2219 C7.2786,30.2649 8.1346,30.9339 8.4086,31.8909 L8.6596,32.7689 C9.0486,34.1069 10.5156,34.7969 11.7966,34.2509 L12.6306,33.8909 C13.5446,33.4949 14.6016,33.7329 15.2706,34.4739 L15.8746,35.1499 C16.8026,36.1859 18.4286,36.1709 19.3426,35.1209 L19.9396,34.4379 C20.5936,33.6899 21.6516,33.4379 22.5646,33.8189 L23.4066,34.1639 C24.6946,34.6969 26.1546,33.9769 26.5216,32.6319 L26.7586,31.7539 C27.0176,30.7979 27.8666,30.1139 28.8596,30.0569 L29.7656,30.0059 C31.1536,29.9269 32.1606,28.6469 31.9096,27.2799 L31.7436,26.3879 C31.5636,25.4099 32.0316,24.4319 32.8946,23.9499 L33.6936,23.5109 C34.9156,22.8419 35.2686,21.2519 34.4486,20.1299 L34.4486,20.1299 Z" id="Fill-17" fill="#FFFFFF" mask="url(#mask-2)"></path>
            </g>
        </g>
    </g>
</svg>