<?xml version="1.0" encoding="UTF-8"?>
<svg width="66px" height="67px" viewBox="0 0 66 67" version="1.1" xmlns="http://www.w3.org/2000/svg" xmlns:xlink="http://www.w3.org/1999/xlink">
    <!-- Generator: Sketch 53.1 (72631) - https://sketchapp.com -->
    <title>Group 7Drag</title>
    <desc>Created with Sketch.</desc>
    <g id="Page-1" stroke="none" stroke-width="1" fill="none" fill-rule="evenodd">
        <g id="Desktop-HD" transform="translate(-943.000000, -875.000000)" fill="#FFFFFF">
            <g id="Group-7" transform="translate(943.422522, 875.813179)">
                <path d="M42.9017783,63.0033215 L27.9067783,63.2153215 C28.4517783,61.6103215 29.9607783,60.4423215 31.7477783,60.4143215 L37.2347783,60.3363215 C37.7897783,60.3283215 38.2867783,59.9863215 38.4907783,59.4703215 C38.6977783,58.9543215 38.5717783,58.3663215 38.1737783,57.9793215 L25.1617783,45.3303215 C24.8667783,45.0463215 24.6987783,44.6583215 24.6937783,44.2503215 C24.6877783,43.8413215 24.8437783,43.4513215 25.1307783,43.1573215 C25.7037783,42.5693215 26.7167783,42.5523215 27.3067783,43.1263215 L36.1467783,51.7203215 C36.6897783,52.2473215 37.5597783,52.2353215 38.0867783,51.6923215 C38.3497783,51.4203215 38.4787783,51.0673215 38.4737783,50.7153215 C38.4687783,50.3643215 38.3297783,50.0153215 38.0597783,49.7503215 L34.5817783,46.3683215 C34.2867783,46.0843215 34.1217783,45.6973215 34.1157783,45.2883215 C34.1097783,44.8793215 34.2637783,44.4903215 34.5507783,44.1953215 C35.1237783,43.6053215 36.1367783,43.5913215 36.7267783,44.1643215 L38.8137783,46.1933215 C39.3557783,46.7213215 40.2257783,46.7083215 40.7537783,46.1663215 C41.0157783,45.8933215 41.1457783,45.5403215 41.1407783,45.1893215 C41.1357783,44.8373215 40.9957783,44.4883215 40.7257783,44.2263215 L39.3347783,42.8733215 C39.0397783,42.5893215 38.8747783,42.2023215 38.8687783,41.7933215 C38.8637783,41.3843215 39.0167783,40.9953215 39.3037783,40.7003215 C39.8967783,40.0913215 40.8707783,40.0773215 41.4797783,40.6693215 L42.8707783,42.0223215 C43.4137783,42.5493215 44.2837783,42.5373215 44.8107783,41.9943215 C45.0737783,41.7223215 45.2027783,41.3693215 45.1977783,41.0173215 C45.1927783,40.6663215 45.0567783,40.3173215 44.7837783,40.0523215 C44.1747783,39.4593215 44.1607783,38.4853215 44.7527783,37.8763215 C45.3457783,37.2663215 46.3197783,37.2533215 46.9287783,37.8453215 L51.2417783,42.0383215 C53.5797783,44.3103215 54.8937783,47.3603215 54.9397783,50.6203215 C55.0347783,57.3533215 49.6357783,62.9083215 42.9017783,63.0033215 M53.1517783,40.0653215 L48.8387783,35.8723215 C47.1467783,34.2283215 44.4277783,34.2663215 42.7827783,35.9583215 C42.2907783,36.4673215 41.9477783,37.0683215 41.7557783,37.7023215 C40.2447783,37.1993215 38.5157783,37.5643215 37.3337783,38.7793215 C36.7137783,39.4173215 36.3357783,40.1993215 36.1907783,41.0133215 C34.8767783,40.8453215 33.5187783,41.3123215 32.5797783,42.2773215 C32.2017783,42.6643215 31.9137783,43.1073215 31.7117783,43.5793215 L29.2187783,41.1563215 C27.5767783,39.5603215 24.7567783,39.6053215 23.1627783,41.2413215 C22.3647783,42.0623215 21.9327783,43.1443215 21.9487783,44.2883215 C21.9647783,45.4333215 22.4277783,46.5023215 23.2487783,47.3003215 L33.8867783,57.6413215 L31.7107783,57.6723215 C27.9297783,57.7263215 24.8947783,60.8483215 24.9487783,64.6293215 C24.9587783,65.3863215 25.5827783,65.9923215 26.3397783,65.9823215 L42.9407783,65.7473215 C51.1857783,65.6303215 57.7997783,58.8263215 57.6837783,50.5813215 C57.6267783,46.5863215 56.0177783,42.8543215 53.1517783,40.0653215" id="Fill-25"></path>
                <path d="M9.70197826,53.8672215 C5.92097826,53.9202215 2.79897826,50.8852215 2.74497826,47.1042215 C2.69197826,43.3232215 5.72697826,40.2012215 9.50797826,40.1482215 C13.2889783,40.0942215 16.4109783,43.1292215 16.4649783,46.9102215 C16.5179783,50.6912215 13.4829783,53.8142215 9.70197826,53.8672215 M9.46897826,37.4032215 C4.17297826,37.4782215 -0.0740217409,41.8472215 0.000978259093,47.1432215 C0.0759782591,52.4392215 4.44497826,56.6862215 9.74097826,56.6112215 C15.0369783,56.5362215 19.2839783,52.1672215 19.2089783,46.8712215 C19.1339783,41.5762215 14.7649783,37.3292215 9.46897826,37.4032215" id="Fill-27"></path>
                <path d="M52.9646783,15.5848215 C52.2636783,15.2788215 51.6236783,14.8568215 51.0616783,14.3358215 C50.5076783,13.8168215 49.6386783,13.8508215 49.1226783,14.4068215 C48.6056783,14.9628215 48.6376783,15.8328215 49.1936783,16.3458215 C49.9806783,17.0788215 50.8776783,17.6668215 51.8556783,18.0978215 C52.0436783,18.1778215 52.2386783,18.2158215 52.4276783,18.2138215 C52.9496783,18.2058215 53.4446783,17.9028215 53.6676783,17.3948215 C53.9706783,16.6988215 53.6576783,15.8908215 52.9646783,15.5848215" id="Fill-29"></path>
                <path d="M52.0286783,0.440421492 C51.0436783,0.852421492 50.1346783,1.42242149 49.3356783,2.13642149 C48.7716783,2.63842149 48.7206783,3.50642149 49.2256783,4.06942149 C49.5016783,4.37842149 49.8856783,4.53542149 50.2696783,4.52942149 C50.5876783,4.52542149 50.9076783,4.41142149 51.1596783,4.18542149 C51.7346783,3.67442149 52.3816783,3.26542149 53.0876783,2.96942149 C53.7866783,2.67942149 54.1156783,1.87342149 53.8226783,1.17542149 C53.5306783,0.479421492 52.7276783,0.147421492 52.0286783,0.440421492" id="Fill-31"></path>
                <path d="M48.9498783,10.3749215 C48.8988783,10.0599215 48.8718783,9.73692149 48.8678783,9.40192149 C48.8608783,8.95692149 48.8988783,8.52292149 48.9728783,8.09992149 C49.1048783,7.35092149 48.6088783,6.63892149 47.8628783,6.50692149 C47.1098783,6.37792149 46.4028783,6.87292149 46.2708783,7.61592149 C46.1638783,8.20792149 46.1148783,8.81492149 46.1238783,9.43492149 C46.1298783,9.90192149 46.1668783,10.3569215 46.2358783,10.8029215 C46.3478783,11.4849215 46.9388783,11.9709215 47.6108783,11.9609215 C47.6768783,11.9599215 47.7428783,11.9539215 47.8088783,11.9449215 C48.5588783,11.8269215 49.0678783,11.1229215 48.9498783,10.3749215" id="Fill-33"></path>
                <path d="M61.1923783,1.40582149 C60.3113783,0.792821492 59.3383783,0.336821492 58.3053783,0.0498214918 C57.5783783,-0.151178508 56.8183783,0.273821492 56.6143783,1.00382149 C56.4103783,1.73682149 56.8383783,2.49082149 57.5683783,2.69482149 C58.3043783,2.89882149 58.9983783,3.22382149 59.6273783,3.65882149 C59.8713783,3.82882149 60.1493783,3.90682149 60.4263783,3.90282149 C60.8543783,3.89682149 61.2713783,3.69082149 61.5373783,3.31382149 C61.9703783,2.69282149 61.8163783,1.83882149 61.1923783,1.40582149" id="Fill-35"></path>
                <path d="M59.5187783,15.0228215 C58.8827783,15.4458215 58.1817783,15.7578215 57.4407783,15.9498215 C56.7077783,16.1388215 56.2657783,16.8858215 56.4537783,17.6208215 C56.6137783,18.2478215 57.1827783,18.6588215 57.7997783,18.6508215 C57.9067783,18.6488215 58.0167783,18.6368215 58.1257783,18.6078215 C59.1647783,18.3378215 60.1437783,17.9008215 61.0357783,17.3088215 C61.6697783,16.8918215 61.8387783,16.0378215 61.4207783,15.4078215 C61.0027783,14.7738215 60.1527783,14.6078215 59.5187783,15.0228215" id="Fill-37"></path>
                <path d="M64.9085783,6.46882149 C64.6845783,5.74782149 63.9235783,5.34682149 63.1915783,5.56282149 C62.4675783,5.78982149 62.0615783,6.55582149 62.2855783,7.27982149 C62.4775783,7.89982149 62.5775783,8.54882149 62.5865783,9.20782149 C62.5975783,9.97582149 62.4825783,10.7348215 62.2425783,11.4578215 C62.0055783,12.1768215 62.3955783,12.9538215 63.1155783,13.1908215 C63.2665783,13.2378215 63.4185783,13.2608215 63.5665783,13.2588215 C64.1345783,13.2508215 64.6615783,12.8858215 64.8515783,12.3178215 C65.1855783,11.3058215 65.3465783,10.2468215 65.3315783,9.17182149 C65.3185783,8.25282149 65.1765783,7.34282149 64.9085783,6.46882149" id="Fill-39"></path>
                <path d="M24.3442783,22.6779215 C23.6392783,23.2969215 22.9512783,23.9269215 22.2792783,24.5619215 C21.7302783,25.0829215 21.7042783,25.9539215 22.2242783,26.5039215 C22.4982783,26.7959215 22.8702783,26.9389215 23.2412783,26.9339215 C23.5732783,26.9289215 23.9032783,26.8059215 24.1662783,26.5609215 C24.8102783,25.9479215 25.4802783,25.3399215 26.1572783,24.7379215 C26.7262783,24.2359215 26.7832783,23.3679215 26.2812783,22.8019215 C25.7792783,22.2299215 24.9132783,22.1809215 24.3442783,22.6779215" id="Fill-41"></path>
                <path d="M18.3596783,28.5726215 C17.7086783,29.2986215 17.0956783,30.0206215 16.5296783,30.7306215 C16.0576783,31.3246215 16.1546783,32.1876215 16.7486783,32.6596215 C17.0046783,32.8646215 17.3156783,32.9626215 17.6206783,32.9576215 C18.0176783,32.9526215 18.4076783,32.7736215 18.6776783,32.4406215 C19.2116783,31.7686215 19.7866783,31.0916215 20.4026783,30.4076215 C20.9076783,29.8426215 20.8626783,28.9766215 20.2986783,28.4686215 C19.7316783,27.9626215 18.8676783,28.0086215 18.3596783,28.5726215" id="Fill-43"></path>
                <path d="M15.1836783,34.9325215 C14.5066783,34.5905215 13.6816783,34.8635215 13.3396783,35.5405215 C12.8276783,36.5605215 12.4646783,37.5265215 12.2636783,38.4155215 C12.0956783,39.1565215 12.5586783,39.8905215 13.2996783,40.0555215 C13.4096783,40.0815215 13.5166783,40.0915215 13.6236783,40.0895215 C14.2436783,40.0805215 14.8006783,39.6505215 14.9396783,39.0195215 C15.0916783,38.3505215 15.3776783,37.5945215 15.7916783,36.7765215 C16.1306783,36.0995215 15.8606783,35.2745215 15.1836783,34.9325215" id="Fill-45"></path>
                <path d="M47.5327783,10.6859215 C47.3927783,9.93892149 46.6777783,9.45492149 45.9337783,9.58292149 C45.0737783,9.74392149 44.1097783,10.0209215 43.0667783,10.4119215 C42.3567783,10.6799215 41.9967783,11.4699215 42.2627783,12.1789215 C42.4737783,12.7359215 43.0057783,13.0769215 43.5677783,13.0689215 C43.7217783,13.0669215 43.8777783,13.0399215 44.0297783,12.9829215 C44.9207783,12.6489215 45.7287783,12.4129215 46.4297783,12.2849215 C47.1777783,12.1459215 47.6697783,11.4299215 47.5327783,10.6859215" id="Fill-47"></path>
                <path d="M37.9250783,12.8691215 C37.1330783,13.3111215 36.3240783,13.7921215 35.5060783,14.3061215 C34.8640783,14.7101215 34.6670783,15.5551215 35.0680783,16.1971215 C35.3320783,16.6191215 35.7880783,16.8481215 36.2520783,16.8421215 C36.4940783,16.8381215 36.7370783,16.7691215 36.9600783,16.6321215 C37.7440783,16.1431215 38.5140783,15.6851215 39.2680783,15.2621215 C39.9300783,14.8911215 40.1650783,14.0561215 39.7930783,13.3941215 C39.4220783,12.7351215 38.5870783,12.4971215 37.9250783,12.8691215" id="Fill-49"></path>
                <path d="M30.8760783,17.4396215 C30.1290783,17.9856215 29.3850783,18.5446215 28.6470783,19.1206215 C28.0470783,19.5846215 27.9380783,20.4476215 28.4050783,21.0446215 C28.6790783,21.4006215 29.0930783,21.5816215 29.5070783,21.5756215 C29.7950783,21.5716215 30.0850783,21.4766215 30.3290783,21.2866215 C31.0460783,20.7276215 31.7680783,20.1846215 32.4910783,19.6586215 C33.1050783,19.2106215 33.2410783,18.3526215 32.7930783,17.7416215 C32.3450783,17.1276215 31.4900783,16.9916215 30.8760783,17.4396215" id="Fill-51"></path>
            </g>
        </g>
    </g>
</svg>