<?xml version="1.0" encoding="UTF-8"?>
<svg width="25px" height="26px" viewBox="0 0 25 26" version="1.1" xmlns="http://www.w3.org/2000/svg" xmlns:xlink="http://www.w3.org/1999/xlink">
    <!-- Generator: Sketch 53.1 (72631) - https://sketchapp.com -->
    <title>Group 4Rotate</title>
    <desc>Created with Sketch.</desc>
    <g id="Page-1" stroke="none" stroke-width="1" fill="none" fill-rule="evenodd">
        <g id="Desktop-HD" transform="translate(-396.000000, -903.000000)" fill="#FFFFFF">
            <g id="Group-4" transform="translate(396.045287, 903.000400)">
                <path d="M2.07691304,10.774 C2.90591304,10.774 3.65391304,10.276 3.97491304,9.512 C5.29791304,6.359 8.40991304,4.136 12.038913,4.136 C14.037913,4.136 15.870913,4.822 17.340913,5.959 L16.188913,6.137 C15.795913,6.198 15.489913,6.51 15.435913,6.905 C15.382913,7.299 15.594913,7.682 15.957913,7.845 L22.292913,10.695 C22.570913,10.819 22.892913,10.795 23.148913,10.631 C23.403913,10.466 23.558913,10.183 23.560913,9.879 L23.593913,2.899 C23.595913,2.502 23.336913,2.151 22.957913,2.035 C22.577913,1.919 22.166913,2.066 21.946913,2.397 L21.073913,3.709 C18.745913,1.417 15.555913,5.68434189e-14 12.038913,5.68434189e-14 C6.70491304,5.68434189e-14 2.11991304,3.257 0.163913039,7.886 C-0.107086961,8.528 -0.0390869615,9.263 0.345913039,9.843 C0.729913039,10.424 1.37991304,10.774 2.07691304,10.774" id="Fill-9"></path>
                <path d="M23.731513,15.9344 C23.346513,15.3534 22.696513,15.0034 22.000513,15.0034 C21.171513,15.0034 20.422513,15.5014 20.102513,16.2654 C18.778513,19.4194 15.666513,21.6414 12.038513,21.6414 C10.038513,21.6414 8.20551304,20.9554 6.73551304,19.8194 L7.88751304,19.6404 C8.28151304,19.5794 8.58751304,19.2674 8.64051304,18.8734 C8.69451304,18.4784 8.48151304,18.0964 8.11851304,17.9334 L1.78351304,15.0824 C1.50551304,14.9584 1.18451304,14.9824 0.928513039,15.1464 C0.672513039,15.3114 0.517513039,15.5944 0.515513039,15.8984 L0.482513039,22.8784 C0.480513039,23.2754 0.739513039,23.6274 1.11951304,23.7424 C1.49951304,23.8584 1.90951304,23.7114 2.12951304,23.3804 L3.00251304,22.0684 C5.33051304,24.3604 8.52151304,25.7774 12.038513,25.7774 C17.371513,25.7774 21.957513,22.5204 23.912513,17.8914 C24.184513,17.2494 24.116513,16.5154 23.731513,15.9344" id="Fill-11"></path>
            </g>
        </g>
    </g>
</svg>