<?xml version="1.0" encoding="UTF-8"?>
<svg width="27px" height="37px" viewBox="0 0 27 37" version="1.1" xmlns="http://www.w3.org/2000/svg" xmlns:xlink="http://www.w3.org/1999/xlink">
    <!-- Generator: Sketch 53.1 (72631) - https://sketchapp.com -->
    <title>GroupList</title>
    <desc>Created with Sketch.</desc>
    <g id="Page-1" stroke="none" stroke-width="1" fill="none" fill-rule="evenodd">
        <g id="Desktop-HD" transform="translate(-1224.000000, -641.000000)" fill="#FFFFFF">
            <g id="Group" transform="translate(1224.782000, 640.977900)">
                <path d="M23.258,32.295 C23.258,33.136 22.576,33.818 21.735,33.818 L4,33.818 C3.159,33.818 2.477,33.136 2.477,32.295 L2.477,10.87 C2.477,10.028 3.159,9.347 4,9.347 L6.118,9.347 C6.118,10.017 6.661,10.561 7.331,10.561 L18.403,10.561 C19.074,10.561 19.616,10.018 19.616,9.347 L21.735,9.347 C22.575,9.347 23.258,10.029 23.258,10.87 L23.258,32.295 Z M10.825,3.031 C10.825,2.036 11.633,1.224 12.626,1.224 C13.621,1.224 14.429,2.036 14.429,3.031 C14.429,3.6 14.164,4.089 13.749,4.442 L11.504,4.442 C11.09,4.088 10.825,3.6 10.825,3.031 L10.825,3.031 Z M19.618,6.869 L19.618,6.075 C19.618,5.172 18.886,4.441 17.985,4.441 L15.305,4.441 C15.528,4.038 15.655,3.538 15.655,3.03 C15.654,1.36 14.296,3.55271368e-14 12.627,3.55271368e-14 C10.959,3.55271368e-14 9.602,1.36 9.602,3.03 C9.602,3.538 9.729,4.038 9.952,4.441 L7.753,4.441 C6.851,4.441 6.12,5.172 6.12,6.075 L6.12,6.869 L2.477,6.869 C1.109,6.869 -1.13686838e-13,7.979 -1.13686838e-13,9.347 L-1.13686838e-13,33.769 C-1.13686838e-13,35.137 1.109,36.247 2.477,36.247 L23.258,36.247 C24.626,36.247 25.736,35.138 25.736,33.769 L25.736,9.347 C25.736,7.979 24.626,6.869 23.258,6.869 L19.618,6.869 Z" id="Fill-3"></path>
                <path d="M7.0449,12.6939 C8.2339,12.6939 9.1969,13.6579 9.1969,14.8459 C9.1969,16.0349 8.2339,16.9989 7.0449,16.9989 C5.8559,16.9989 4.8929,16.0349 4.8929,14.8459 C4.8929,13.6579 5.8559,12.6939 7.0449,12.6939" id="Fill-5"></path>
                <path d="M19.2909,13.6449 L11.9509,13.6449 C11.2749,13.6449 10.7269,14.1829 10.7269,14.8589 C10.7269,15.5339 11.2739,16.0729 11.9509,16.0729 L19.2929,16.0729 C19.9689,16.0729 20.5149,15.5339 20.5149,14.8589 C20.5149,14.1829 19.9679,13.6449 19.2909,13.6449" id="Fill-7"></path>
                <path d="M7.0449,18.7999 C8.2339,18.7999 9.1969,19.7639 9.1969,20.9519 C9.1969,22.1409 8.2339,23.1049 7.0449,23.1049 C5.8559,23.1049 4.8929,22.1409 4.8929,20.9519 C4.8929,19.7639 5.8559,18.7999 7.0449,18.7999" id="Fill-9"></path>
                <path d="M19.2909,19.7124 L11.9509,19.7124 C11.2749,19.7124 10.7269,20.2764 10.7269,20.9524 C10.7269,21.6284 11.2739,22.1904 11.9509,22.1904 L19.2929,22.1904 C19.9689,22.1904 20.5149,21.6284 20.5149,20.9524 C20.5149,20.2764 19.9679,19.7124 19.2909,19.7124" id="Fill-11"></path>
                <path d="M7.0449,25.3264 C8.2329,25.3264 9.1959,26.2894 9.1959,27.4774 C9.1959,28.6654 8.2329,29.6294 7.0449,29.6294 C5.8569,29.6294 4.8939,28.6654 4.8939,27.4774 C4.8939,26.2894 5.8569,25.3264 7.0449,25.3264" id="Fill-13"></path>
                <path d="M19.2909,26.2343 L11.9509,26.2343 C11.2749,26.2343 10.7269,26.7983 10.7269,27.4743 C10.7269,28.1503 11.2739,28.7123 11.9509,28.7123 L19.2929,28.7123 C19.9689,28.7123 20.5149,28.1483 20.5149,27.4743 C20.5149,26.7983 19.9679,26.2343 19.2909,26.2343" id="Fill-15"></path>
            </g>
        </g>
    </g>
</svg>