<?xml version="1.0" encoding="UTF-8"?>
<svg width="221px" height="76px" viewBox="0 0 221 76" version="1.1" xmlns="http://www.w3.org/2000/svg" xmlns:xlink="http://www.w3.org/1999/xlink">
    <!-- Generator: Sketch 53.1 (72631) - https://sketchapp.com -->
    <title>Group 37</title>
    <desc>Created with Sketch.</desc>
    <g id="Page-1" stroke="none" stroke-width="1" fill="none" fill-rule="evenodd">
        <g id="Group-37" transform="translate(0.083967, 0.412900)">
            <path d="M14.2010329,18.2393 C10.9220329,22.8913 7.64203288,27.5423 4.36203288,32.1943 C4.01603288,32.6853 4.92103288,33.2923 5.22303288,32.8633 L15.0610329,18.9073 C15.4080329,18.4173 14.5040329,17.8103 14.2010329,18.2393" id="Fill-366" fill="#A30047"></path>
            <path d="M13.5565329,16.6934 C8.87553288,19.0674 4.83353288,22.5694 1.63853288,27.0524 C1.32753288,27.4884 2.25453288,28.0494 2.51153288,27.6894 C5.66953288,23.2594 9.63653288,19.7894 14.2675329,17.4414 C14.7695329,17.1864 13.9295329,16.5044 13.5565329,16.6934" id="Fill-367" fill="#A30047"></path>
            <path d="M13.9305329,17.7378 C10.2535329,21.9758 5.48653288,25.0688 2.41153288,29.9318 C2.27153288,30.1548 3.20153288,30.7088 3.39053288,30.4078 C6.44053288,25.5858 11.1825329,22.5138 14.8295329,18.3088 C15.0565329,18.0468 14.1255329,17.5118 13.9305329,17.7378" id="Fill-368" fill="#A30047"></path>
            <path d="M14.3700329,18.6348 C12.5010329,23.8378 10.3030329,29.5548 6.83803288,33.7018 C6.57303288,34.0198 7.50903288,34.5588 7.72803288,34.2948 C11.2390329,30.0938 13.4560329,24.3808 15.3490329,19.1118 C15.4780329,18.7508 14.4960329,18.2838 14.3700329,18.6348" id="Fill-369" fill="#A30047"></path>
            <path d="M15.8270329,17.6763 C15.6950329,20.8703 16.1830329,23.9383 15.4700329,27.1013 C14.7730329,30.1853 13.4740329,33.5543 11.3540329,35.7543 C11.1400329,35.9773 12.0560329,36.5273 12.2580329,36.3183 C14.4200329,34.0723 15.7380329,30.7273 16.4480329,27.5783 C17.1700329,24.3833 16.6800329,21.2663 16.8120329,18.0323 C16.8250329,17.7383 15.8410329,17.3393 15.8270329,17.6763" id="Fill-370" fill="#A30047"></path>
            <path d="M1.01453288,27.8174 C2.79453288,24.9824 4.97553288,22.5104 7.53653288,20.5374 C8.88153288,19.5024 10.3205329,18.6084 11.8235329,17.8904 C13.1955329,17.2344 15.5935329,15.9654 15.5375329,18.6334 C15.4705329,21.8654 14.3065329,24.9224 13.2795329,27.9024 C12.1805329,31.0904 11.0025329,34.1744 9.14653288,36.9274 C8.85353288,37.3614 9.78553288,37.9094 10.0225329,37.5574 C12.2935329,34.1884 13.6135329,30.3304 14.9285329,26.4214 C15.5685329,24.5204 16.1705329,22.5814 16.4265329,20.5654 C16.5745329,19.4014 16.9055329,17.4814 16.0545329,16.5504 C14.2745329,14.6004 9.84153288,17.7354 8.28153288,18.7564 C4.98053288,20.9154 2.22053288,23.8614 0.0355328764,27.3404 C-0.194467124,27.7054 0.757532876,28.2254 1.01453288,27.8174" id="Fill-371" fill="#99D9D9"></path>
            <path d="M1.64053288,30.5244 C4.06953288,27.8834 6.58153288,25.3354 9.22053288,22.9544 C10.4555329,21.8384 11.6925329,20.7844 12.8355329,19.5504 C13.6035329,18.7224 15.1235329,16.6384 16.1955329,17.6964 C17.1455329,18.6344 16.7155329,21.5834 16.6305329,22.8114 C16.5005329,24.6854 16.2095329,26.5314 15.7195329,28.3324 C14.7605329,31.8504 13.6015329,35.2764 11.5585329,38.2114 C11.3425329,38.5224 12.2795329,39.0594 12.5365329,38.6884 C15.0095329,35.1364 16.5725329,30.4964 17.2895329,26.1024 C17.5985329,24.2124 17.7525329,22.2804 17.7035329,20.3624 C17.6675329,18.9844 17.7075329,18.0544 16.6805329,17.2574 C15.9315329,16.6764 15.5105329,16.3254 14.6165329,16.7034 C13.0335329,17.3734 11.9845329,19.0384 10.7395329,20.2244 C7.37053288,23.4314 3.93753288,26.4534 0.758532876,29.9084 C0.444532876,30.2504 1.36953288,30.8184 1.64053288,30.5244" id="Fill-372" fill="#99D9D9"></path>
            <path d="M3.51353288,33.0415 C7.67553288,27.9015 11.4965329,22.4105 16.0645329,17.6895 C16.4335329,17.3075 15.5215329,16.7045 15.1945329,17.0425 C10.6275329,21.7645 6.80553288,27.2545 2.64453288,32.3955 C2.29953288,32.8205 3.21753288,33.4075 3.51353288,33.0415" id="Fill-373" fill="#99D9D9"></path>
            <path d="M5.30163288,35.5767 C9.26463288,30.1667 12.4646329,24.1457 16.1026329,18.4747 C16.3296329,18.1207 15.3806329,17.5977 15.1236329,17.9977 C11.5196329,23.6177 8.35163288,29.5887 4.42463288,34.9497 C4.12163288,35.3627 5.05263288,35.9157 5.30163288,35.5767" id="Fill-374" fill="#99D9D9"></path>
            <path d="M7.87003288,35.9629 C11.6320329,30.6279 14.4320329,24.6319 16.1890329,18.1519 C16.2860329,17.7959 15.2940329,17.3669 15.2110329,17.6749 C13.4530329,24.1549 10.6530329,30.1509 6.89103288,35.4859 C6.73303288,35.7099 7.65103288,36.2739 7.87003288,35.9629" id="Fill-375" fill="#99D9D9"></path>
            <path d="M15.6444329,16.6592 C15.8904329,15.6562 16.2334329,14.7012 16.7314329,13.8162 C17.1424329,13.0872 19.0484329,10.4642 19.2314329,13.0862 C19.3694329,15.0562 17.5084329,17.0782 16.1294329,17.9332 C15.9544329,18.0432 16.7794329,18.6462 17.0364329,18.4872 C18.7724329,17.4112 21.7364329,13.8152 19.2514329,12.0342 C18.5584329,11.5372 17.7074329,11.0572 16.9594329,11.6592 C15.7604329,12.6242 15.0364329,14.6722 14.6654329,16.1822 C14.5914329,16.4842 15.5884329,16.8872 15.6444329,16.6592" id="Fill-376" fill="#99D9D9"></path>
            <path d="M15.4442329,15.4932 C16.0862329,15.9022 16.6162329,16.4622 17.0682329,17.1072 C17.2052329,17.3022 17.5062329,17.4362 17.7162329,17.4862 C17.8072329,17.5072 18.1122329,17.5712 17.9722329,17.3712 C17.3812329,16.5252 16.6512329,15.8692 15.8172329,15.3382 C15.7222329,15.2782 15.2712329,15.0242 15.1742329,15.1472 C15.0662329,15.2832 15.3622329,15.4412 15.4442329,15.4932" id="Fill-377" fill="#99D9D9"></path>
            <path d="M15.5233329,13.96 C16.0863329,14.733 16.6223329,15.532 17.1853329,16.305 C17.3353329,16.51 17.5903329,16.666 17.8263329,16.704 C17.9213329,16.719 18.2693329,16.731 18.1113329,16.515 C17.5473329,15.741 17.0123329,14.943 16.4493329,14.169 C16.3003329,13.965 16.0443329,13.809 15.8083329,13.771 C15.7123329,13.756 15.3663329,13.744 15.5233329,13.96" id="Fill-378" fill="#99D9D9"></path>
            <path d="M16.1581329,13.1084 C16.8571329,13.7754 17.4981329,14.5004 18.0721329,15.3014 C18.2241329,15.5134 18.5081329,15.7024 18.7641329,15.6384 C18.9711329,15.5864 19.1141329,15.3754 18.9571329,15.1564 C18.3321329,14.2854 17.6481329,13.4864 16.8871329,12.7604 C16.7201329,12.6024 16.3881329,12.4104 16.1691329,12.5564 C15.9661329,12.6914 15.9831329,12.9414 16.1581329,13.1084" id="Fill-379" fill="#99D9D9"></path>
            <path d="M31.6835329,31.7305 C29.0175329,36.8405 26.3515329,41.9505 23.6855329,47.0605 C23.4035329,47.5995 24.3755329,48.0605 24.6215329,47.5885 C27.2875329,42.4795 29.9545329,37.3695 32.6205329,32.2595 C32.9015329,31.7205 31.9295329,31.2595 31.6835329,31.7305" id="Fill-380" fill="#ED1C24"></path>
            <path d="M30.8504329,30.3003 C26.5104329,33.3723 22.9444329,37.4623 20.3404329,42.3923 C20.0874329,42.8713 21.0774329,43.2833 21.2864329,42.8873 C23.8594329,38.0153 27.3554329,33.9693 31.6494329,30.9303 C32.1154329,30.6003 31.1974329,30.0553 30.8504329,30.3003" id="Fill-381" fill="#ED1C24"></path>
            <path d="M31.3524329,31.2759 C28.2414329,36.0379 23.9054329,39.8349 21.4684329,45.1219 C21.3564329,45.3639 22.3474329,45.7689 22.4984329,45.4429 C24.9154329,40.1989 29.2284329,36.4259 32.3154329,31.7019 C32.5074329,31.4079 31.5184329,31.0229 31.3524329,31.2759" id="Fill-382" fill="#ED1C24"></path>
            <path d="M31.9003329,32.0957 C30.7013329,37.5337 29.2403329,43.5307 26.3273329,48.1697 C26.1043329,48.5247 27.0993329,48.9137 27.2843329,48.6187 C30.2353329,43.9197 31.7153329,37.9237 32.9303329,32.4167 C33.0133329,32.0387 31.9813329,31.7287 31.9003329,32.0957" id="Fill-383" fill="#ED1C24"></path>
            <path d="M33.2245329,30.9224 C33.4955329,34.1034 34.3635329,37.0644 34.0525329,40.3044 C33.7485329,43.4644 32.8845329,46.9984 31.0605329,49.5034 C30.8745329,49.7574 31.8515329,50.1604 32.0255329,49.9214 C33.8865329,47.3654 34.7725329,43.8514 35.0815329,40.6254 C35.3955329,37.3524 34.5195329,34.3434 34.2455329,31.1224 C34.2205329,30.8294 33.1965329,30.5864 33.2245329,30.9224" id="Fill-384" fill="#ED1C24"></path>
            <path d="M19.8182329,43.2451 C21.2272329,40.1641 23.0782329,37.3811 25.3682329,35.0341 C26.5702329,33.8011 27.8842329,32.6951 29.2832329,31.7521 C30.5612329,30.8911 32.7782329,29.2661 33.0572329,31.9141 C33.3962329,35.1231 32.6272329,38.3281 31.9822329,41.4351 C31.2932329,44.7601 30.5132329,47.9941 29.0192329,51.0051 C28.7842329,51.4801 29.7752329,51.8781 29.9662329,51.4941 C31.7952329,47.8081 32.6182329,43.7871 33.4312329,39.7161 C33.8272329,37.7351 34.1792329,35.7231 34.1802329,33.6881 C34.1802329,32.5151 34.2672329,30.5631 33.3082329,29.7731 C31.2992329,28.1181 27.3002329,31.9061 25.8822329,33.1561 C22.8822329,35.8021 20.5172329,39.1431 18.7882329,42.9241 C18.6062329,43.3211 19.6152329,43.6891 19.8182329,43.2451" id="Fill-385" fill="#F26522"></path>
            <path d="M20.7782329,45.8276 C22.8532329,42.8386 25.0232329,39.9296 27.3402329,37.1646 C28.4242329,35.8706 29.5162329,34.6366 30.4952329,33.2396 C31.1522329,32.3016 32.3962329,30.0046 33.5912329,30.8856 C34.6502329,31.6666 34.5942329,34.6516 34.6652329,35.8796 C34.7712329,37.7546 34.7152329,39.6266 34.4542329,41.4846 C33.9462329,45.1136 33.2262329,48.6836 31.5702329,51.9036 C31.3952329,52.2446 32.3902329,52.6316 32.6002329,52.2246 C34.6042329,48.3276 35.5702329,43.4946 35.7302329,39.0346 C35.7992329,37.1176 35.7102329,35.1816 35.4212329,33.2906 C35.2132329,31.9326 35.1352329,31.0056 34.0172329,30.3766 C33.2022329,29.9166 32.7412329,29.6346 31.9022329,30.1466 C30.4172329,31.0546 29.5882329,32.8636 28.5022329,34.2296 C25.5672329,37.9236 22.5432329,41.4436 19.8272329,45.3546 C19.5582329,45.7416 20.5472329,46.1606 20.7782329,45.8276" id="Fill-386" fill="#F26522"></path>
            <path d="M22.9501329,48.0293 C26.4291329,42.3003 29.5281329,36.2763 33.4611329,30.8983 C33.7791329,30.4633 32.8001329,30.0083 32.5181329,30.3933 C28.5851329,35.7703 25.4861329,41.7943 22.0081329,47.5243 C21.7201329,47.9983 22.7021329,48.4373 22.9501329,48.0293" id="Fill-387" fill="#F26522"></path>
            <path d="M25.0399329,50.2622 C28.2879329,44.2962 30.7039329,37.8442 33.5979329,31.6702 C33.7779329,31.2842 32.7719329,30.9132 32.5669329,31.3492 C29.7009329,37.4672 27.3109329,43.8652 24.0919329,49.7762 C23.8439329,50.2322 24.8359329,50.6362 25.0399329,50.2622" id="Fill-388" fill="#F26522"></path>
            <path d="M27.6327329,50.2476 C30.6917329,44.3876 32.7147329,38.0216 33.6427329,31.3366 C33.6947329,30.9696 32.6567329,30.6986 32.6127329,31.0166 C31.6847329,37.7006 29.6617329,44.0666 26.6037329,49.9266 C26.4757329,50.1726 27.4547329,50.5886 27.6327329,50.2476" id="Fill-389" fill="#F26522"></path>
            <path d="M32.9159329,29.9439 C33.0329329,28.9129 33.2539329,27.9159 33.6369329,26.9629 C33.9509329,26.1779 35.5129329,23.2869 36.0219329,25.8549 C36.4049329,27.7829 34.8159329,30.0709 33.5569329,31.1299 C33.3949329,31.2659 34.2899329,31.7349 34.5239329,31.5379 C36.1089329,30.2049 38.5949329,26.1889 35.9099329,24.8109 C35.1609329,24.4259 34.2579329,24.0809 33.5919329,24.7929 C32.5249329,25.9329 32.0629329,28.0719 31.8859329,29.6229 C31.8509329,29.9329 32.8889329,30.1779 32.9159329,29.9439" id="Fill-390" fill="#F26522"></path>
            <path d="M32.5712329,28.8213 C33.2582329,29.1263 33.8542329,29.5983 34.3832329,30.1673 C34.5422329,30.3393 34.8572329,30.4253 35.0732329,30.4423 C35.1662329,30.4483 35.4752329,30.4663 35.3112329,30.2893 C34.6192329,29.5433 33.8142329,29.0073 32.9212329,28.6103 C32.8202329,28.5653 32.3412329,28.3843 32.2592329,28.5203 C32.1702329,28.6723 32.4832329,28.7813 32.5712329,28.8213" id="Fill-391" fill="#F26522"></path>
            <path d="M32.4569329,27.291 C33.1119329,27.97 33.7429329,28.677 34.3979329,29.356 C34.5709329,29.535 34.8449329,29.65 35.0829329,29.651 C35.1799329,29.651 35.5249329,29.61 35.3419329,29.42 C34.6859329,28.742 34.0569329,28.034 33.4009329,27.355 C33.2279329,27.176 32.9539329,27.062 32.7159329,27.061 C32.6199329,27.06 32.2729329,27.102 32.4569329,27.291" id="Fill-392" fill="#F26522"></path>
            <path d="M32.9794329,26.3506 C33.7554329,26.9026 34.4814329,27.5216 35.1514329,28.2256 C35.3284329,28.4116 35.6324329,28.5556 35.8784329,28.4526 C36.0784329,28.3686 36.1924329,28.1386 36.0094329,27.9456 C35.2814329,27.1806 34.5024329,26.4946 33.6584329,25.8936 C33.4734329,25.7636 33.1204329,25.6236 32.9194329,25.8036 C32.7364329,25.9676 32.7844329,26.2126 32.9794329,26.3506" id="Fill-393" fill="#F26522"></path>
            <path d="M50.7001329,42.3823 C48.6991329,47.8503 46.6981329,53.3193 44.6971329,58.7873 C44.4851329,59.3643 45.5071329,59.6703 45.6911329,59.1663 C47.6921329,53.6973 49.6931329,48.2293 51.6941329,42.7603 C51.9051329,42.1833 50.8851329,41.8783 50.7001329,42.3823" id="Fill-394" fill="#F26522"></path>
            <path d="M49.6952329,41.0957 C45.7792329,44.8047 42.7582329,49.4037 40.7982329,54.6847 C40.6072329,55.1977 41.6382329,55.4527 41.7962329,55.0287 C43.7352329,49.8107 46.6912329,45.2657 50.5652329,41.5957 C50.9852329,41.1977 50.0072329,40.7997 49.6952329,41.0957" id="Fill-395" fill="#F26522"></path>
            <path d="M50.3143329,41.9834 C47.8293329,47.1764 44.0083329,51.6034 42.2563329,57.2114 C42.1763329,57.4684 43.2103329,57.7164 43.3173329,57.3704 C45.0543329,51.8074 48.8563329,47.4084 51.3223329,42.2564 C51.4753329,41.9354 50.4473329,41.7074 50.3143329,41.9834" id="Fill-396" fill="#F26522"></path>
            <path d="M50.9608329,42.71 C50.4538329,48.277 49.7588329,54.437 47.4538329,59.478 C47.2768329,59.864 48.3128329,60.095 48.4588329,59.774 C50.7938329,54.668 51.5088329,48.506 52.0218329,42.869 C52.0568329,42.482 50.9938329,42.335 50.9608329,42.71" id="Fill-397" fill="#F26522"></path>
            <path d="M52.1249329,41.3442 C52.7919329,44.4512 54.0229329,47.2472 54.1219329,50.5022 C54.2189329,53.6752 53.8059329,57.3062 52.3119329,60.0662 C52.1599329,60.3462 53.1779329,60.5942 53.3199329,60.3312 C54.8449329,57.5152 55.2809329,53.9002 55.1839329,50.6602 C55.0839329,47.3722 53.8369329,44.5302 53.1619329,41.3852 C53.1009329,41.0982 52.0549329,41.0162 52.1249329,41.3442" id="Fill-398" fill="#F26522"></path>
            <path d="M40.3866329,55.6094 C41.3966329,52.3434 42.8806329,49.3034 44.8566329,46.6264 C45.8936329,45.2214 47.0566329,43.9224 48.3236329,42.7744 C49.4826329,41.7244 51.4756329,39.7744 52.0846329,42.3514 C52.8226329,45.4754 52.4616329,48.7654 52.2136329,51.9404 C51.9476329,55.3364 51.5796329,58.6574 50.4776329,61.8684 C50.3036329,62.3744 51.3366329,62.6154 51.4776329,62.2054 C52.8256329,58.2764 53.1386329,54.1694 53.4336329,50.0144 C53.5766329,47.9934 53.6746329,45.9474 53.4196329,43.9344 C53.2726329,42.7734 53.1146329,40.8274 52.0646329,40.1934 C49.8656329,38.8664 46.3786329,43.2324 45.1306329,44.6894 C42.4896329,47.7704 40.5656329,51.4424 39.3256329,55.4514 C39.1956329,55.8724 40.2406329,56.0794 40.3866329,55.6094" id="Fill-399" fill="#C90E32"></path>
            <path d="M41.6620329,58.0171 C43.3440329,54.7391 45.1290329,51.5241 47.0770329,48.4311 C47.9890329,46.9821 48.9170329,45.5921 49.7120329,44.0591 C50.2450329,43.0291 51.1900329,40.5631 52.4840329,41.2511 C53.6320329,41.8611 53.9510329,44.8241 54.1740329,46.0281 C54.5160329,47.8671 54.6930329,49.7281 54.6690329,51.6071 C54.6200329,55.2771 54.3550329,58.9211 53.1180329,62.3631 C52.9870329,62.7271 54.0220329,62.9571 54.1790329,62.5211 C55.6760329,58.3561 56.0270329,53.4231 55.6270329,48.9851 C55.4540329,47.0771 55.1220329,45.1761 54.5990329,43.3491 C54.2230329,42.0381 54.0290329,41.1321 52.8430329,40.6821 C51.9760329,40.3531 51.4840329,40.1451 50.7180329,40.7811 C49.3600329,41.9081 48.7650329,43.8271 47.8600329,45.3471 C45.4160329,49.4551 42.8600329,53.4061 40.6600329,57.6951 C40.4420329,58.1201 41.4750329,58.3821 41.6620329,58.0171" id="Fill-400" fill="#C90E32"></path>
            <path d="M44.0897329,59.8604 C46.8187329,53.6524 49.1337329,47.2134 52.3567329,41.2844 C52.6167329,40.8044 51.5897329,40.5054 51.3597329,40.9294 C48.1367329,46.8584 45.8207329,53.2984 43.0927329,59.5054 C42.8667329,60.0194 43.8967329,60.3014 44.0897329,59.8604" id="Fill-401" fill="#C90E32"></path>
            <path d="M46.4403329,61.7471 C48.9113329,55.3421 50.4963329,48.5831 52.5883329,42.0271 C52.7193329,41.6171 51.6753329,41.4051 51.5283329,41.8691 C49.4543329,48.3651 47.8883329,55.0661 45.4403329,61.4131 C45.2523329,61.9021 46.2863329,62.1481 46.4403329,61.7471" id="Fill-402" fill="#C90E32"></path>
            <path d="M49.0087329,61.3325 C51.3047329,55.0605 52.5107329,48.4485 52.5917329,41.6905 C52.5967329,41.3185 51.5347329,41.2105 51.5307329,41.5315 C51.4497329,48.2905 50.2437329,54.9015 47.9477329,61.1735 C47.8527329,61.4365 48.8757329,61.6975 49.0087329,61.3325" id="Fill-403" fill="#C90E32"></path>
            <path d="M51.6962329,40.4238 C51.6832329,39.3848 51.7772329,38.3648 52.0372329,37.3618 C52.2512329,36.5368 53.4342329,33.4358 54.2612329,35.8978 C54.8832329,37.7468 53.5952329,40.2568 52.4802329,41.4988 C52.3382329,41.6578 53.2832329,41.9848 53.4902329,41.7528 C54.8942329,40.1888 56.8532329,35.8308 54.0202329,34.8818 C53.2282329,34.6168 52.2912329,34.4148 51.7202329,35.2218 C50.8062329,36.5148 50.6172329,38.7028 50.6352329,40.2658 C50.6392329,40.5778 51.6992329,40.6598 51.6962329,40.4238" id="Fill-404" fill="#C90E32"></path>
            <path d="M51.2137329,39.3657 C51.9337329,39.5627 52.5827329,39.9367 53.1787329,40.4187 C53.3587329,40.5637 53.6807329,40.6007 53.8967329,40.5837 C53.9887329,40.5757 54.2987329,40.5447 54.1137329,40.3957 C53.3337329,39.7647 52.4697329,39.3577 51.5337329,39.1027 C51.4287329,39.0737 50.9317329,38.9687 50.8677329,39.1157 C50.7977329,39.2807 51.1217329,39.3407 51.2137329,39.3657" id="Fill-405" fill="#C90E32"></path>
            <path d="M50.9090329,37.8696 C51.6430329,38.4396 52.3570329,39.0426 53.0920329,39.6126 C53.2860329,39.7636 53.5710329,39.8346 53.8070329,39.7996 C53.9030329,39.7846 54.2410329,39.6906 54.0350329,39.5306 C53.3010329,38.9606 52.5870329,38.3576 51.8520329,37.7876 C51.6580329,37.6366 51.3730329,37.5656 51.1370329,37.6016 C51.0420329,37.6156 50.7040329,37.7096 50.9090329,37.8696" id="Fill-406" fill="#C90E32"></path>
            <path d="M51.3085329,36.8579 C52.1475329,37.2839 52.9445329,37.7849 53.6965329,38.3779 C53.8955329,38.5349 54.2145329,38.6299 54.4465329,38.4899 C54.6325329,38.3769 54.7175329,38.1309 54.5115329,37.9679 C53.6935329,37.3239 52.8365329,36.7649 51.9235329,36.3009 C51.7245329,36.1999 51.3575329,36.1169 51.1815329,36.3249 C51.0205329,36.5169 51.0985329,36.7519 51.3085329,36.8579" id="Fill-407" fill="#C90E32"></path>
            <path d="M70.8797329,49.9868 L66.9887329,67.1488 C66.8527329,67.7528 67.9017329,67.8978 68.0227329,67.3698 C69.3187329,61.6498 70.6147329,55.9288 71.9117329,50.2078 C72.0497329,49.6048 70.9987329,49.4598 70.8797329,49.9868" id="Fill-408" fill="#370038"></path>
            <path d="M69.7225329,48.8691 C66.3075329,53.1441 63.8915329,58.1621 62.6105329,63.6901 C62.4865329,64.2271 63.5395329,64.3211 63.6435329,63.8771 C64.9095329,58.4131 67.2695329,53.4591 70.6475329,49.2291 C71.0135329,48.7701 69.9945329,48.5271 69.7225329,48.8691" id="Fill-409" fill="#370038"></path>
            <path d="M70.4481329,49.6519 C68.6361329,55.1749 65.4051329,60.1449 64.3741329,65.9659 C64.3261329,66.2329 65.3811329,66.3189 65.4441329,65.9589 C66.4681329,60.1869 69.6831329,55.2459 71.4801329,49.7669 C71.5931329,49.4249 70.5441329,49.3579 70.4481329,49.6519" id="Fill-410" fill="#370038"></path>
            <path d="M71.1786329,50.2715 C71.3756329,55.8585 71.4596329,62.0615 69.8076329,67.4065 C69.6816329,67.8155 70.7356329,67.8845 70.8406329,67.5445 C72.5136329,62.1305 72.4496329,55.9215 72.2496329,50.2645 C72.2366329,49.8765 71.1656329,49.8945 71.1786329,50.2715" id="Fill-411" fill="#370038"></path>
            <path d="M72.1620329,48.7398 C73.2130329,51.7118 74.7830329,54.2878 75.2900329,57.4938 C75.7830329,60.6198 75.8290329,64.2768 74.6950329,67.2388 C74.5800329,67.5398 75.6200329,67.6278 75.7270329,67.3448 C76.8850329,64.3228 76.8640329,60.6778 76.3600329,57.4868 C75.8500329,54.2488 74.2580329,51.6288 73.1940329,48.6198 C73.0980329,48.3458 72.0510329,48.4258 72.1620329,48.7398" id="Fill-412" fill="#370038"></path>
            <path d="M62.3192329,64.6694 C62.9102329,61.2814 64.0002329,58.0434 65.6212329,55.0884 C66.4722329,53.5384 67.4632329,52.0744 68.5742329,50.7414 C69.5902329,49.5244 71.3212329,47.2864 72.2482329,49.7434 C73.3712329,52.7204 73.4262329,56.0324 73.5782329,59.2124 C73.7412329,62.6144 73.7942329,65.9574 73.1032329,69.3044 C72.9952329,69.8334 74.0482329,69.9114 74.1362329,69.4844 C74.9802329,65.3874 74.7742329,61.2744 74.5462329,57.1184 C74.4342329,55.0964 74.2742329,53.0564 73.7692329,51.1034 C73.4782329,49.9764 73.0772329,48.0754 71.9582329,47.6104 C69.6132329,46.6364 66.7042329,51.4954 65.6502329,53.1294 C63.4202329,56.5864 61.9732329,60.5184 61.2482329,64.6764 C61.1722329,65.1124 62.2342329,65.1574 62.3192329,64.6694" id="Fill-413" fill="#4C2030"></path>
            <path d="M63.8846329,66.855 C65.1396329,63.351 66.5056329,59.895 68.0486329,56.533 C68.7716329,54.958 69.5156329,53.439 70.1106329,51.799 C70.5096329,50.697 71.1376329,48.112 72.5056329,48.592 C73.7196329,49.019 74.4066329,51.901 74.7796329,53.059 C75.3486329,54.826 75.7586329,56.641 75.9696329,58.503 C76.3816329,62.143 76.5756329,65.79 75.7816329,69.387 C75.6976329,69.768 76.7526329,69.835 76.8536329,69.38 C77.8146329,65.026 77.5426329,60.091 76.5896329,55.761 C76.1796329,53.899 75.6126329,52.069 74.8636329,50.342 C74.3266329,49.102 74.0226329,48.235 72.7896329,47.973 C71.8906329,47.782 71.3766329,47.652 70.6966329,48.4 C69.4916329,49.725 69.1436329,51.715 68.4376329,53.359 C66.5306329,57.802 64.4936329,62.107 62.8516329,66.691 C62.6896329,67.145 63.7446329,67.245 63.8846329,66.855" id="Fill-414" fill="#4C2030"></path>
            <path d="M66.5223329,68.3042 C68.4483329,61.7402 69.9333329,55.0102 72.3833329,48.6452 C72.5823329,48.1302 71.5263329,47.9922 71.3503329,48.4482 C68.9013329,54.8122 67.4153329,61.5432 65.4893329,68.1072 C65.3303329,68.6502 66.3853329,68.7712 66.5223329,68.3042" id="Fill-415" fill="#4C2030"></path>
            <path d="M69.0887329,69.8086 C70.7337329,63.0886 71.4557329,56.1546 72.7067329,49.3436 C72.7847329,48.9176 71.7237329,48.8696 71.6357329,49.3506 C70.3967329,56.1006 69.6857329,62.9736 68.0557329,69.6326 C67.9297329,70.1456 68.9847329,70.2296 69.0887329,69.8086" id="Fill-416" fill="#4C2030"></path>
            <path d="M71.5809329,69.0015 C73.0689329,62.4405 73.4349329,55.7105 72.6679329,49.0105 C72.6259329,48.6425 71.5599329,48.6985 71.5969329,49.0175 C72.3639329,55.7175 71.9979329,62.4475 70.5109329,69.0085 C70.4479329,69.2835 71.4949329,69.3835 71.5809329,69.0015" id="Fill-417" fill="#4C2030"></path>
            <path d="M71.6210329,47.895 C71.4780329,46.869 71.4420329,45.845 71.5740329,44.813 C71.6830329,43.963 72.4670329,40.711 73.5960329,43.02 C74.4430329,44.753 73.4820329,47.436 72.5330329,48.838 C72.4120329,49.017 73.3900329,49.194 73.5660329,48.934 C74.7610329,47.169 76.1550329,42.553 73.2280329,42.052 C72.4110329,41.912 71.4570329,41.857 70.9920329,42.744 C70.2490329,44.165 70.3360329,46.358 70.5510329,47.902 C70.5940329,48.21 71.6540329,48.128 71.6210329,47.895" id="Fill-418" fill="#4C2030"></path>
            <path d="M71.0106329,46.9229 C71.7476329,47.0059 72.4396329,47.2769 73.0886329,47.6609 C73.2846329,47.7769 73.6106329,47.7639 73.8226329,47.7139 C73.9126329,47.6919 74.2156329,47.6129 74.0136329,47.4939 C73.1616329,46.9899 72.2536329,46.7209 71.2946329,46.6129 C71.1876329,46.6009 70.6806329,46.5729 70.6366329,46.7289 C70.5876329,46.9019 70.9156329,46.9119 71.0106329,46.9229" id="Fill-419" fill="#4C2030"></path>
            <path d="M70.5213329,45.4888 C71.3203329,45.9398 72.1033329,46.4258 72.9023329,46.8778 C73.1143329,46.9968 73.4053329,47.0228 73.6353329,46.9508 C73.7273329,46.9218 74.0503329,46.7768 73.8273329,46.6508 C73.0273329,46.1988 72.2453329,45.7128 71.4453329,45.2618 C71.2343329,45.1428 70.9423329,45.1158 70.7123329,45.1888 C70.6203329,45.2178 70.2973329,45.3628 70.5213329,45.4888" id="Fill-420" fill="#4C2030"></path>
            <path d="M70.7899329,44.4263 C71.6749329,44.7183 72.5259329,45.0913 73.3469329,45.5613 C73.5629329,45.6863 73.8929329,45.7313 74.1029329,45.5563 C74.2739329,45.4153 74.3269329,45.1593 74.1029329,45.0303 C73.2119329,44.5193 72.2929329,44.0983 71.3299329,43.7803 C71.1199329,43.7113 70.7449329,43.6853 70.5979329,43.9183 C70.4609329,44.1333 70.5679329,44.3533 70.7899329,44.4263" id="Fill-421" fill="#4C2030"></path>
            <path d="M156.747933,45.2905 C158.169933,50.9605 159.590933,56.6305 161.012933,62.3005 C161.162933,62.8985 162.142933,62.4475 162.011933,61.9245 C160.589933,56.2545 159.168933,50.5845 157.746933,44.9155 C157.596933,44.3165 156.616933,44.7675 156.747933,45.2905" id="Fill-422" fill="#370038"></path>
            <path d="M155.241133,44.957 C154.174133,50.537 154.305133,56.212 155.655133,61.707 C155.786133,62.241 156.747133,61.743 156.638133,61.301 C155.304133,55.871 155.151133,50.282 156.208133,44.762 C156.323133,44.163 155.327133,44.511 155.241133,44.957" id="Fill-423" fill="#370038"></path>
            <path d="M156.222533,45.2373 C157.107533,51.0183 156.508533,57.0993 158.205533,62.7113 C158.284533,62.9683 159.241533,62.4643 159.136533,62.1173 C157.452533,56.5523 158.051533,50.5053 157.173533,44.7693 C157.118533,44.4123 156.175533,44.9293 156.222533,45.2373" id="Fill-424" fill="#370038"></path>
            <path d="M157.135633,45.3726 C159.798633,50.1066 162.638633,55.4366 163.583633,60.9766 C163.656633,61.3996 164.605633,60.8806 164.544633,60.5286 C163.587633,54.9186 160.762633,49.5726 158.066633,44.7786 C157.880633,44.4506 156.955633,45.0536 157.135633,45.3726" id="Fill-425" fill="#370038"></path>
            <path d="M157.309433,43.5059 C159.549433,45.5049 162.068433,46.8749 163.938433,49.3759 C165.762433,51.8139 167.433433,54.9579 167.767433,58.1479 C167.800433,58.4719 168.746433,57.9769 168.714433,57.6729 C168.374433,54.4189 166.731433,51.2709 164.869433,48.7819 C162.979433,46.2559 160.423433,44.8589 158.155433,42.8349 C157.949433,42.6509 157.072433,43.2949 157.309433,43.5059" id="Fill-426" fill="#370038"></path>
            <path d="M155.837833,62.7153 C154.841833,59.4543 154.346833,56.0493 154.441833,52.5993 C154.491833,50.7883 154.701833,48.9753 155.075833,47.2103 C155.418833,45.5973 155.928833,42.7073 157.831833,44.3283 C160.137833,46.2923 161.663833,49.1313 163.214833,51.8043 C164.872833,54.6633 166.409833,57.5323 167.301833,60.8123 C167.441833,61.3293 168.395833,60.8193 168.281833,60.4003 C167.190833,56.3863 165.175833,52.9353 163.122833,49.4583 C162.123833,47.7673 161.074833,46.0873 159.763833,44.6713 C159.007833,43.8553 157.810833,42.4283 156.627833,42.6393 C154.150833,43.0823 153.782833,48.8903 153.593833,50.8853 C153.191833,55.1063 153.684833,59.3073 154.907833,63.3093 C155.035833,63.7293 155.981833,63.1843 155.837833,62.7153" id="Fill-427" fill="#4C2030"></path>
            <path d="M158.176633,63.75 C157.707633,60.024 157.356633,56.278 157.200633,52.518 C157.127633,50.756 157.099633,49.031 156.886633,47.283 C156.742633,46.109 156.136633,43.524 157.542633,43.189 C158.790633,42.892 160.675633,45.013 161.516633,45.812 C162.799633,47.031 163.966633,48.378 164.981633,49.877 C166.963633,52.805 168.759633,55.859 169.672633,59.413 C169.769633,59.789 170.718633,59.268 170.602633,58.819 C169.497633,54.518 167.060633,50.389 164.298633,47.16 C163.111633,45.771 161.800633,44.497 160.378633,43.411 C159.357633,42.631 158.704633,42.047 157.514633,42.497 C156.645633,42.825 156.139633,42.994 155.880633,44.015 C155.422633,45.825 156.005633,47.742 156.124633,49.554 C156.444633,54.452 156.589633,59.3 157.203633,64.175 C157.264633,64.657 158.228633,64.165 158.176633,63.75" id="Fill-428" fill="#4C2030"></path>
            <path d="M161.121033,63.5581 C159.871033,56.8111 158.164033,50.1631 157.460033,43.3021 C157.403033,42.7461 156.422033,43.2061 156.472033,43.6981 C157.177033,50.5591 158.884033,57.2081 160.134033,63.9541 C160.237033,64.5121 161.210033,64.0371 161.121033,63.5581" id="Fill-429" fill="#4C2030"></path>
            <path d="M164.028233,63.4531 C162.464233,56.7251 160.001233,50.3201 158.053233,43.7301 C157.931233,43.3181 156.985233,43.8581 157.123233,44.3241 C159.053233,50.8541 161.500233,57.2011 163.049233,63.8671 C163.169233,64.3811 164.126233,63.8741 164.028233,63.4531" id="Fill-430" fill="#4C2030"></path>
            <path d="M165.839733,61.3853 C164.209733,54.8823 161.527733,48.8483 157.870733,43.4623 C157.669733,43.1663 156.766733,43.8013 156.940733,44.0563 C160.597733,49.4423 163.279733,55.4753 164.909733,61.9793 C164.978733,62.2513 165.935733,61.7633 165.839733,61.3853" id="Fill-431" fill="#4C2030"></path>
            <path d="M156.461833,43.0703 C155.879833,42.2593 155.391833,41.3913 155.045833,40.4243 C154.761833,39.6293 153.993833,36.3803 156.007833,37.7603 C157.519833,38.7983 157.878833,41.6513 157.676833,43.3863 C157.649833,43.6093 158.580833,43.2253 158.618833,42.9033 C158.872833,40.7173 158.028833,35.9513 155.255833,37.1233 C154.481833,37.4503 153.624833,37.9273 153.615833,38.9513 C153.601833,40.5903 154.655833,42.4443 155.531833,43.6643 C155.706833,43.9073 156.593833,43.2543 156.461833,43.0703" id="Fill-432" fill="#4C2030"></path>
            <path d="M155.496033,42.5625 C156.176033,42.2295 156.898033,42.0855 157.637033,42.0615 C157.859033,42.0545 158.136033,41.8645 158.298033,41.7055 C158.368033,41.6365 158.597033,41.4015 158.367033,41.4095 C157.400033,41.4405 156.489033,41.7055 155.605033,42.1385 C155.506033,42.1875 155.053033,42.4405 155.084033,42.6005 C155.118033,42.7765 155.409033,42.6055 155.496033,42.5625" id="Fill-433" fill="#4C2030"></path>
            <path d="M154.429533,41.5889 C155.326533,41.5409 156.226533,41.5329 157.123533,41.4849 C157.361533,41.4719 157.626533,41.3349 157.794533,41.1469 C157.863533,41.0699 158.078533,40.7669 157.827533,40.7809 C156.930533,40.8289 156.032533,40.8369 155.133533,40.8849 C154.896533,40.8979 154.630533,41.0349 154.462533,41.2229 C154.395533,41.2989 154.178533,41.6029 154.429533,41.5889" id="Fill-434" fill="#4C2030"></path>
            <path d="M154.190333,40.5205 C155.090333,40.2885 156.000333,40.1435 156.923333,40.1015 C157.169333,40.0895 157.475333,39.9485 157.581333,39.6815 C157.667333,39.4645 157.599333,39.2135 157.346333,39.2255 C156.341333,39.2705 155.353333,39.4115 154.372333,39.6645 C154.158333,39.7195 153.821333,39.9035 153.795333,40.1865 C153.772333,40.4465 153.964333,40.5785 154.190333,40.5205" id="Fill-435" fill="#4C2030"></path>
            <path d="M91.8299329,54.397 C91.2629329,60.258 90.6949329,66.12 90.1279329,71.981 C90.0669329,72.6 91.1269329,72.582 91.1789329,72.041 C91.7459329,66.179 92.3129329,60.318 92.8819329,54.457 C92.9409329,53.838 91.8829329,53.856 91.8299329,54.397" id="Fill-436" fill="#ED1C24"></path>
            <path d="M90.5428329,53.4692 C87.6958329,58.2282 85.9318329,63.5662 85.3558329,69.2352 C85.2988329,69.7852 86.3558329,69.7162 86.4018329,69.2602 C86.9718329,63.6572 88.6888329,58.3902 91.5048329,53.6832 C91.8108329,53.1722 90.7708329,53.0892 90.5428329,53.4692" id="Fill-437" fill="#ED1C24"></path>
            <path d="M91.3602329,54.1318 C90.2572329,59.8778 87.6792329,65.2948 87.3872329,71.2148 C87.3742329,71.4858 88.4292329,71.4078 88.4482329,71.0428 C88.7382329,65.1718 91.3042329,59.7858 92.3982329,54.0858 C92.4652329,53.7308 91.4192329,53.8258 91.3602329,54.1318" id="Fill-438" fill="#ED1C24"></path>
            <path d="M92.1620329,54.6318 C93.0580329,60.1308 93.9190329,66.2568 92.9530329,71.8008 C92.8790329,72.2248 93.9330329,72.1308 93.9940329,71.7778 C94.9730329,66.1618 94.1300329,60.0278 93.2230329,54.4598 C93.1600329,54.0778 92.1010329,54.2608 92.1620329,54.6318" id="Fill-439" fill="#ED1C24"></path>
            <path d="M92.9442329,52.9649 C94.3582329,55.7429 96.2382329,58.0509 97.1412329,61.1449 C98.0222329,64.1619 98.5272329,67.7739 97.7752329,70.8809 C97.6992329,71.1959 98.7402329,71.1229 98.8112329,70.8259 C99.5792329,67.6569 99.1012329,64.0529 98.2022329,60.9729 C97.2892329,57.8469 95.3832329,55.4999 93.9522329,52.6869 C93.8222329,52.4299 92.7952329,52.6709 92.9442329,52.9649" id="Fill-440" fill="#ED1C24"></path>
            <path d="M85.1893329,70.2485 C85.3493329,66.8045 86.0233329,63.4325 87.2593329,60.2575 C87.9083329,58.5925 88.7063329,56.9905 89.6403329,55.4995 C90.4943329,54.1385 91.9283329,51.6555 93.1553329,53.9445 C94.6413329,56.7175 95.1123329,59.9855 95.6623329,63.1095 C96.2493329,66.4515 96.7203329,69.7515 96.4573329,73.1705 C96.4163329,73.7095 97.4693329,73.6255 97.5023329,73.1885 C97.8263329,69.0045 97.1053329,64.9665 96.3573329,60.8885 C95.9933329,58.9045 95.5793329,56.9105 94.8343329,55.0555 C94.4033329,53.9845 93.7673329,52.1665 92.6003329,51.8785 C90.1543329,51.2765 87.8813329,56.5345 87.0423329,58.3145 C85.2653329,62.0805 84.3263329,66.1945 84.1283329,70.4205 C84.1083329,70.8645 85.1663329,70.7445 85.1893329,70.2485" id="Fill-441" fill="#F26522"></path>
            <path d="M87.0145329,72.1699 C87.8195329,68.5079 88.7395329,64.8769 89.8455329,61.3119 C90.3645329,59.6419 90.9105329,58.0239 91.2945329,56.3089 C91.5525329,55.1569 91.8505329,52.5019 93.2665329,52.7659 C94.5225329,52.9999 95.5655329,55.7469 96.0795329,56.8349 C96.8655329,58.4949 97.4985329,60.2279 97.9425329,62.0389 C98.8075329,65.5769 99.4575329,69.1559 99.1215329,72.8379 C99.0865329,73.2279 100.139533,73.1319 100.182533,72.6669 C100.588533,68.2099 99.7015329,63.3669 98.2125329,59.2289 C97.5735329,57.4499 96.7815329,55.7269 95.8235329,54.1329 C95.1345329,52.9889 94.7245329,52.1779 93.4705329,52.1089 C92.5555329,52.0589 92.0295329,52.0089 91.4505329,52.8549 C90.4225329,54.3519 90.3265329,56.3759 89.8325329,58.1109 C88.5005329,62.8029 87.0235329,67.3769 85.9705329,72.1679 C85.8665329,72.6409 86.9245329,72.5769 87.0145329,72.1699" id="Fill-442" fill="#F26522"></path>
            <path d="M89.8104329,73.1968 C90.8944329,66.4038 91.5224329,59.5138 93.1514329,52.8368 C93.2834329,52.2958 92.2194329,52.3228 92.1034329,52.8008 C90.4744329,59.4778 89.8464329,66.3678 88.7614329,73.1608 C88.6714329,73.7238 89.7334329,73.6798 89.8104329,73.1968" id="Fill-443" fill="#F26522"></path>
            <path d="M92.5419329,74.2891 C93.3279329,67.3851 93.1749329,60.4121 93.5599329,53.4781 C93.5839329,53.0451 92.5259329,53.1611 92.4989329,53.6511 C92.1179329,60.5211 92.2749329,67.4331 91.4959329,74.2741 C91.4359329,74.8021 92.4919329,74.7221 92.5419329,74.2891" id="Fill-444" fill="#F26522"></path>
            <path d="M94.9110329,73.106 C95.5610329,66.383 95.0800329,59.667 93.4790329,53.154 C93.3910329,52.796 92.3430329,53.017 92.4190329,53.327 C94.0190329,59.839 94.5020329,66.555 93.8500329,73.278 C93.8230329,73.56 94.8730329,73.497 94.9110329,73.106" id="Fill-445" fill="#F26522"></path>
            <path d="M92.3026329,52.2124 C92.0326329,51.2194 91.8676329,50.2114 91.8696329,49.1694 C91.8696329,48.3114 92.2396329,44.9724 93.6476329,47.0824 C94.7046329,48.6674 94.0886329,51.4704 93.3236329,53.0044 C93.2266329,53.2004 94.2176329,53.2254 94.3596329,52.9394 C95.3226329,51.0084 96.1246329,46.2264 93.1616329,46.1814 C92.3346329,46.1694 91.3816329,46.2624 91.0326329,47.2114 C90.4746329,48.7324 90.8356329,50.8904 91.2416329,52.3844 C91.3236329,52.6834 92.3646329,52.4384 92.3026329,52.2124" id="Fill-446" fill="#F26522"></path>
            <path d="M91.5760329,51.3442 C92.3170329,51.3122 93.0350329,51.4732 93.7270329,51.7542 C93.9360329,51.8382 94.2570329,51.7752 94.4610329,51.6932 C94.5480329,51.6572 94.8380329,51.5322 94.6230329,51.4462 C93.7160329,51.0782 92.7820329,50.9522 91.8180329,50.9932 C91.7100329,50.9982 91.2050329,51.0492 91.1800329,51.2102 C91.1540329,51.3892 91.4800329,51.3482 91.5760329,51.3442" id="Fill-447" fill="#F26522"></path>
            <path d="M90.9100329,50.001 C91.7600329,50.324 92.5960329,50.684 93.4440329,51.007 C93.6690329,51.092 93.9610329,51.074 94.1800329,50.967 C94.2680329,50.924 94.5690329,50.73 94.3320329,50.64 C93.4830329,50.317 92.6470329,49.957 91.7980329,49.634 C91.5740329,49.548 91.2810329,49.567 91.0620329,49.674 C90.9740329,49.717 90.6730329,49.911 90.9100329,50.001" id="Fill-448" fill="#F26522"></path>
            <path d="M91.0438329,48.9077 C91.9568329,49.0607 92.8478329,49.2977 93.7188329,49.6367 C93.9498329,49.7267 94.2808329,49.7197 94.4688329,49.5147 C94.6198329,49.3487 94.6408329,49.0867 94.4018329,48.9937 C93.4548329,48.6257 92.4908329,48.3517 91.4978329,48.1857 C91.2798329,48.1487 90.9058329,48.1817 90.7888329,48.4347 C90.6808329,48.6687 90.8148329,48.8697 91.0438329,48.9077" id="Fill-449" fill="#F26522"></path>
            <path d="M179.589733,32.8804 C181.584733,38.3304 183.579733,43.7804 185.575733,49.2314 C185.785733,49.8064 186.713733,49.2344 186.529733,48.7324 C184.534733,43.2824 182.538733,37.8314 180.543733,32.3814 C180.333733,31.8064 179.405733,32.3774 179.589733,32.8804" id="Fill-450" fill="#ED1C24"></path>
            <path d="M178.057533,32.7393 C177.569533,38.4153 178.284533,44.0333 180.189533,49.3193 C180.373533,49.8323 181.278533,49.2173 181.124533,48.7923 C179.242533,43.5693 178.515533,38.0383 178.998533,32.4233 C179.051533,31.8143 178.096533,32.2863 178.057533,32.7393" id="Fill-451" fill="#ED1C24"></path>
            <path d="M179.062433,32.8936 C180.535433,38.5226 180.565433,44.6366 182.828433,49.9936 C182.931433,50.2396 183.832433,49.6176 183.691433,49.2866 C181.447433,43.9736 181.420433,37.8936 179.959433,32.3096 C179.868433,31.9616 178.983433,32.5946 179.062433,32.8936" id="Fill-452" fill="#ED1C24"></path>
            <path d="M179.983333,32.9131 C183.117333,37.2771 186.487333,42.2111 187.995333,47.5911 C188.110333,48.0031 189.001333,47.3681 188.905333,47.0261 C187.378333,41.5761 184.020333,36.6251 180.847333,32.2051 C180.629333,31.9031 179.772333,32.6191 179.983333,32.9131" id="Fill-453" fill="#ED1C24"></path>
            <path d="M179.964733,31.0371 C182.397733,32.7391 185.040733,33.7811 187.156733,36.0281 C189.220733,38.2181 191.204733,41.1281 191.862733,44.2541 C191.930733,44.5711 192.818733,43.9611 192.756733,43.6631 C192.083733,40.4741 190.126733,37.5561 188.020733,35.3201 C185.882733,33.0511 183.198733,31.9871 180.736733,30.2641 C180.512733,30.1071 179.706733,30.8571 179.964733,31.0371" id="Fill-454" fill="#ED1C24"></path>
            <path d="M180.474533,50.2974 C179.149533,47.1854 178.307533,43.8674 178.048533,40.4284 C177.911533,38.6244 177.934533,36.7984 178.124533,34.9974 C178.299533,33.3534 178.509533,30.4194 180.568533,31.7874 C183.062533,33.4464 184.870533,36.0724 186.686533,38.5304 C188.628533,41.1604 190.451533,43.8144 191.674533,46.9584 C191.868533,47.4544 192.762533,46.8274 192.606533,46.4254 C191.109533,42.5784 188.752533,39.4054 186.354533,36.2134 C185.188533,34.6604 183.972533,33.1244 182.524533,31.8844 C181.688533,31.1694 180.351533,29.9034 179.198533,30.2634 C176.780533,31.0154 177.012533,36.8294 177.028533,38.8344 C177.063533,43.0764 177.984533,47.1854 179.611533,51.0044 C179.781533,51.4054 180.664533,50.7454 180.474533,50.2974" id="Fill-455" fill="#F97000"></path>
            <path d="M182.905133,51.0288 C182.056133,47.3888 181.323133,43.7138 180.782133,39.9988 C180.529133,38.2598 180.323133,36.5498 179.931133,34.8418 C179.669133,33.6938 178.801133,31.2038 180.164133,30.6938 C181.374133,30.2408 183.466133,32.1088 184.384133,32.7948 C185.784133,33.8428 187.083133,35.0338 188.245133,36.3938 C190.516133,39.0508 192.615133,41.8568 193.887133,45.2698 C194.022133,45.6308 194.912133,44.9938 194.751133,44.5618 C193.212133,40.4308 190.364133,36.6398 187.287133,33.7818 C185.965133,32.5528 184.531133,31.4538 183.006133,30.5548 C181.910133,29.9098 181.202133,29.4128 180.064133,30.0088 C179.235133,30.4448 178.749133,30.6768 178.597133,31.7238 C178.327133,33.5788 179.104133,35.4078 179.408133,37.1928 C180.229133,42.0148 180.872133,46.8108 181.982133,51.5738 C182.092133,52.0448 183.000133,51.4338 182.905133,51.0288" id="Fill-456" fill="#F97000"></path>
            <path d="M185.812433,50.4663 C183.877433,43.9253 181.498433,37.5393 180.093433,30.8163 C179.979433,30.2713 179.051433,30.8523 179.152433,31.3343 C180.556433,38.0573 182.936433,44.4443 184.872433,50.9843 C185.031433,51.5263 185.950433,50.9313 185.812433,50.4663" id="Fill-457" fill="#F97000"></path>
            <path d="M188.691333,49.9946 C186.446333,43.5126 183.339333,37.4636 180.727333,31.1656 C180.563333,30.7726 179.678333,31.4286 179.863333,31.8736 C182.453333,38.1136 185.536333,44.1066 187.760333,50.5296 C187.932333,51.0246 188.832333,50.4006 188.691333,49.9946" id="Fill-458" fill="#F97000"></path>
            <path d="M190.280133,47.7119 C187.992133,41.4609 184.706133,35.8089 180.517133,30.9229 C180.288133,30.6549 179.456133,31.3989 179.654133,31.6299 C183.843133,36.5159 187.129133,42.1679 189.417133,48.4199 C189.512133,48.6809 190.414133,48.0759 190.280133,47.7119" id="Fill-459" fill="#F97000"></path>
            <path d="M179.077033,30.7119 C178.416033,29.9809 177.841033,29.1799 177.398033,28.2639 C177.034033,27.5099 175.937033,24.3799 178.080033,25.4979 C179.689033,26.3369 180.340033,29.1239 180.317033,30.8729 C180.314033,31.0959 181.200033,30.5989 181.204033,30.2729 C181.232033,28.0709 179.905033,23.4449 177.267033,24.9599 C176.531033,25.3819 175.729033,25.9639 175.826033,26.9819 C175.979033,28.6109 177.219033,30.3189 178.214033,31.4199 C178.413033,31.6389 179.227033,30.8789 179.077033,30.7119" id="Fill-460" fill="#F97000"></path>
            <path d="M178.065333,30.3301 C178.707333,29.9131 179.410333,29.6791 180.141333,29.5621 C180.361333,29.5271 180.618333,29.3031 180.762333,29.1241 C180.824333,29.0471 181.027333,28.7851 180.800333,28.8221 C179.842333,28.9751 178.964333,29.3531 178.130333,29.8941 C178.036333,29.9551 177.611333,30.2651 177.659333,30.4191 C177.711333,30.5911 177.983333,30.3831 178.065333,30.3301" id="Fill-461" fill="#F97000"></path>
            <path d="M176.905133,29.4981 C177.793133,29.3371 178.685133,29.2151 179.573133,29.0541 C179.807133,29.0111 180.057133,28.8421 180.205133,28.6331 C180.264133,28.5491 180.449133,28.2211 180.200133,28.2661 C179.313133,28.4271 178.421133,28.5481 177.533133,28.7101 C177.299133,28.7521 177.048133,28.9221 176.900133,29.1301 C176.841133,29.2151 176.657133,29.5431 176.905133,29.4981" id="Fill-462" fill="#F97000"></path>
            <path d="M176.557533,28.4673 C177.429533,28.1223 178.317533,27.8633 179.231533,27.7053 C179.473533,27.6633 179.763533,27.4843 179.841533,27.2053 C179.905533,26.9793 179.811533,26.7383 179.561533,26.7823 C178.567533,26.9543 177.599533,27.2183 176.650533,27.5943 C176.443533,27.6753 176.126533,27.9013 176.130533,28.1853 C176.134533,28.4463 176.338533,28.5533 176.557533,28.4673" id="Fill-463" fill="#F97000"></path>
            <path d="M113.143433,55.5259 C113.316433,61.4149 113.489433,67.3029 113.662433,73.1909 C113.680433,73.8119 114.727433,73.6299 114.711433,73.0879 C114.539433,67.1989 114.365433,61.3109 114.192433,55.4229 C114.174433,54.8009 113.127433,54.9829 113.143433,55.5259" id="Fill-464" fill="#32A4A6"></path>
            <path d="M111.751833,54.8066 C109.526833,59.9556 108.447833,65.5106 108.588833,71.2096 C108.602833,71.7636 109.640833,71.5316 109.628833,71.0736 C109.489833,65.4406 110.530833,59.9636 112.731833,54.8696 C112.970833,54.3176 111.929833,54.3956 111.751833,54.8066" id="Fill-465" fill="#32A4A6"></path>
            <path d="M112.644433,55.3364 C112.273433,61.1924 110.398433,66.9514 110.851433,72.8554 C110.872433,73.1254 111.908433,72.8854 111.879433,72.5214 C111.430433,66.6664 113.298433,60.9404 113.666433,55.1304 C113.690433,54.7694 112.664433,55.0244 112.644433,55.3364" id="Fill-466" fill="#32A4A6"></path>
            <path d="M113.501833,55.7075 C115.079833,61.0105 116.700833,66.9395 116.439833,72.5765 C116.419833,73.0075 117.450833,72.7505 117.467833,72.3935 C117.732833,66.6845 116.128833,60.7435 114.530833,55.3735 C114.421833,55.0055 113.395833,55.3505 113.501833,55.7075" id="Fill-467" fill="#32A4A6"></path>
            <path d="M114.068233,53.937 C115.817233,56.468 117.969233,58.461 119.254233,61.384 C120.505233,64.233 121.458233,67.73 121.102233,70.92 C121.066233,71.244 122.089233,71.011 122.123233,70.707 C122.485233,67.452 121.560233,63.959 120.282233,61.05 C118.986233,58.098 116.803233,56.069 115.032233,53.506 C114.870233,53.272 113.882233,53.669 114.068233,53.937" id="Fill-468" fill="#32A4A6"></path>
            <path d="M108.551633,72.2388 C108.278633,68.8048 108.522633,65.3638 109.349633,62.0318 C109.783633,60.2828 110.372633,58.5748 111.112633,56.9558 C111.787633,55.4768 112.897633,52.7988 114.399633,54.8738 C116.220633,57.3878 117.096633,60.5508 118.032633,63.5568 C119.034633,66.7728 119.915633,69.9658 120.083633,73.3908 C120.110633,73.9308 121.143633,73.6838 121.122633,73.2468 C120.916633,69.0558 119.697633,65.1708 118.444633,61.2508 C117.833633,59.3438 117.173633,57.4348 116.201633,55.7138 C115.641633,54.7208 114.782633,53.0198 113.590633,52.9158 C111.091633,52.6968 109.498633,58.2508 108.890633,60.1418 C107.602633,64.1428 107.187633,68.3598 107.522633,72.5728 C107.557633,73.0148 108.590633,72.7328 108.551633,72.2388" id="Fill-469" fill="#99D9D9"></path>
            <path d="M110.601433,73.8579 C110.939433,70.1099 111.395433,66.3749 112.044433,62.6749 C112.348433,60.9429 112.688433,59.2569 112.853433,57.5009 C112.963433,56.3209 112.925433,53.6469 114.362433,53.6899 C115.636433,53.7279 117.014433,56.2849 117.661433,57.2819 C118.646433,58.8039 119.493433,60.4209 120.159433,62.1449 C121.459433,65.5129 122.552433,68.9539 122.682433,72.6499 C122.696433,73.0409 123.728433,72.7829 123.711433,72.3159 C123.554433,67.8429 122.068433,63.1879 120.074433,59.3229 C119.217433,57.6609 118.216433,56.0769 117.067433,54.6489 C116.242433,53.6219 115.733433,52.8839 114.481433,53.0089 C113.568433,53.0999 113.041433,53.1319 112.573433,54.0579 C111.743433,55.6989 111.901433,57.7159 111.630433,59.5099 C110.899433,64.3579 110.008433,69.1129 109.566433,74.0169 C109.522433,74.5019 110.563433,74.2749 110.601433,73.8579" id="Fill-470" fill="#99D9D9"></path>
            <path d="M113.499933,74.4429 C113.722933,67.5519 113.480933,60.6369 114.257933,53.7779 C114.319933,53.2229 113.269933,53.4129 113.213933,53.9049 C112.437933,60.7639 112.679933,67.6789 112.456933,74.5689 C112.437933,75.1399 113.483933,74.9329 113.499933,74.4429" id="Fill-471" fill="#99D9D9"></path>
            <path d="M116.343633,75.1021 C116.257633,68.1481 115.230633,61.2711 114.741633,54.3501 C114.711633,53.9171 113.678633,54.1951 113.712633,54.6851 C114.197633,61.5421 115.220633,68.3581 115.305633,75.2481 C115.312633,75.7801 116.349633,75.5381 116.343633,75.1021" id="Fill-472" fill="#99D9D9"></path>
            <path d="M118.542833,73.5649 C118.344833,66.8119 117.024833,60.2389 114.621833,54.0419 C114.489833,53.7009 113.478833,54.0819 113.592833,54.3759 C115.995833,60.5729 117.315833,67.1459 117.513833,73.8989 C117.521833,74.1819 118.554833,73.9579 118.542833,73.5649" id="Fill-473" fill="#99D9D9"></path>
            <path d="M113.337833,53.291 C112.944833,52.35 112.655833,51.377 112.526833,50.347 C112.419833,49.498 112.366833,46.136 114.025833,48.007 C115.273833,49.413 115.014833,52.281 114.448833,53.917 C114.376833,54.126 115.361833,53.998 115.467833,53.693 C116.179833,51.634 116.374833,46.777 113.433833,47.19 C112.610833,47.305 111.679833,47.545 111.452833,48.539 C111.089833,50.129 111.718833,52.209 112.308833,53.625 C112.426833,53.908 113.426833,53.505 113.337833,53.291" id="Fill-474" fill="#99D9D9"></path>
            <path d="M112.508733,52.5444 C113.238733,52.3984 113.971733,52.4474 114.692733,52.6174 C114.909733,52.6694 115.219733,52.5574 115.410733,52.4434 C115.492733,52.3954 115.764733,52.2274 115.540733,52.1744 C114.595733,51.9514 113.654733,51.9704 112.704733,52.1604 C112.598733,52.1814 112.103733,52.3094 112.100733,52.4724 C112.095733,52.6534 112.414733,52.5634 112.508733,52.5444" id="Fill-475" fill="#99D9D9"></path>
            <path d="M111.680533,51.3179 C112.562533,51.5059 113.436533,51.7339 114.318533,51.9219 C114.550533,51.9719 114.838533,51.9079 115.041533,51.7689 C115.123533,51.7129 115.398533,51.4749 115.151533,51.4219 C114.270533,51.2339 113.396533,51.0059 112.514533,50.8179 C112.281533,50.7679 111.993533,50.8309 111.790533,50.9709 C111.708533,51.0269 111.434533,51.2649 111.680533,51.3179" id="Fill-476" fill="#99D9D9"></path>
            <path d="M111.675633,50.2153 C112.599633,50.2253 113.512633,50.3223 114.417633,50.5233 C114.657633,50.5763 114.986633,50.5193 115.145633,50.2873 C115.275633,50.0993 115.262633,49.8373 115.014633,49.7823 C114.029633,49.5633 113.040633,49.4413 112.034633,49.4303 C111.815633,49.4283 111.447633,49.5183 111.363633,49.7873 C111.285633,50.0343 111.444633,50.2133 111.675633,50.2153" id="Fill-477" fill="#99D9D9"></path>
            <path d="M203.152233,18.8794 C205.847233,23.9424 208.543233,29.0054 211.237233,34.0694 C211.522233,34.6034 212.365233,33.8884 212.116233,33.4214 C209.421233,28.3584 206.726233,23.2944 204.031233,18.2314 C203.747233,17.6964 202.904233,18.4124 203.152233,18.8794" id="Fill-478" fill="#32A4A6"></path>
            <path d="M201.617033,18.9893 C201.884033,24.6793 203.333033,30.1173 205.917033,35.0323 C206.168033,35.5093 206.981033,34.7543 206.773033,34.3593 C204.220033,29.5023 202.770033,24.1533 202.507033,18.5243 C202.478033,17.9133 201.596033,18.5353 201.617033,18.9893" id="Fill-479" fill="#32A4A6"></path>
            <path d="M202.631733,18.9785 C204.833733,24.3035 205.670733,30.3425 208.618733,35.2705 C208.753733,35.4955 209.562733,34.7345 209.379733,34.4305 C206.455733,29.5425 205.626733,23.5375 203.442733,18.2545 C203.306733,17.9255 202.514733,18.6945 202.631733,18.9785" id="Fill-480" fill="#32A4A6"></path>
            <path d="M203.546733,18.8477 C207.224733,22.6527 211.212733,26.9817 213.415733,32.0547 C213.584733,32.4427 214.381733,31.6697 214.241733,31.3477 C212.010733,26.2087 208.032733,21.8607 204.307733,18.0077 C204.052733,17.7437 203.298733,18.5917 203.546733,18.8477" id="Fill-481" fill="#32A4A6"></path>
            <path d="M203.279233,16.9966 C205.912233,18.2836 208.667233,18.8836 211.058233,20.7606 C213.390233,22.5896 215.739233,25.1446 216.804233,28.1266 C216.912233,28.4296 217.712233,27.6816 217.610233,27.3976 C216.523233,24.3546 214.201233,21.7886 211.820233,19.9206 C209.404233,18.0256 206.607233,17.4096 203.942233,16.1066 C203.699233,15.9886 203.002233,16.8606 203.279233,16.9966" id="Fill-482" fill="#32A4A6"></path>
            <path d="M206.329033,35.9526 C204.605033,33.0916 203.335033,29.9486 202.624033,26.5916 C202.251033,24.8296 202.031033,23.0216 201.982033,21.2106 C201.937033,19.5566 201.758033,16.6216 203.976033,17.6406 C206.664033,18.8736 208.802033,21.1766 210.924033,23.3106 C213.194033,25.5946 215.349033,27.9216 216.975033,30.8306 C217.231033,31.2896 218.034033,30.5246 217.827033,30.1526 C215.836033,26.5926 213.085033,23.8406 210.289033,21.0746 C208.930033,19.7286 207.523033,18.4086 205.926033,17.4176 C205.004033,16.8466 203.514033,15.8136 202.419033,16.3556 C200.125033,17.4936 201.122033,23.2026 201.403033,25.1816 C201.998033,29.3696 203.453033,33.2816 205.567033,36.7916 C205.789033,37.1606 206.577033,36.3646 206.329033,35.9526" id="Fill-483" fill="#99D9D9"></path>
            <path d="M208.831933,36.2808 C207.510933,32.8198 206.298933,29.3068 205.272933,25.7228 C204.792933,24.0448 204.362933,22.3878 203.749933,20.7628 C203.337933,19.6708 202.148933,17.3508 203.432933,16.6238 C204.569933,15.9798 206.886933,17.4858 207.885933,18.0158 C209.410933,18.8238 210.852933,19.7898 212.184933,20.9458 C214.783933,23.2018 217.231933,25.6348 218.941933,28.8018 C219.122933,29.1358 219.919933,28.3628 219.702933,27.9618 C217.633933,24.1288 214.313933,20.8438 210.891933,18.5188 C209.418933,17.5198 207.853933,16.6658 206.226933,16.0258 C205.056933,15.5658 204.290933,15.1898 203.242933,15.9648 C202.478933,16.5298 202.028933,16.8378 202.016933,17.8978 C201.994933,19.7748 203.005933,21.4568 203.541933,23.1718 C204.991933,27.8048 206.261933,32.4418 207.989933,36.9698 C208.160933,37.4178 208.978933,36.6658 208.831933,36.2808" id="Fill-484" fill="#99D9D9"></path>
            <path d="M211.635633,35.2515 C208.855633,29.1005 205.656633,23.1745 203.377633,16.7565 C203.193633,16.2375 202.351633,16.9625 202.514633,17.4225 C204.792633,23.8405 207.991633,29.7665 210.772633,35.9175 C211.001633,36.4255 211.832633,35.6885 211.635633,35.2515" id="Fill-485" fill="#99D9D9"></path>
            <path d="M214.422733,34.3174 C211.343733,28.2754 207.469733,22.7994 204.051733,17.0004 C203.837733,16.6374 203.048733,17.4294 203.289733,17.8394 C206.677733,23.5874 210.521733,29.0094 213.571733,34.9974 C213.807733,35.4594 214.614733,34.6954 214.422733,34.3174" id="Fill-486" fill="#99D9D9"></path>
            <path d="M215.694233,31.8027 C212.603233,25.9947 208.603233,20.9427 203.812233,16.7937 C203.548233,16.5657 202.823233,17.4367 203.050233,17.6337 C207.842233,21.7817 211.841233,26.8347 214.932233,32.6417 C215.062233,32.8857 215.874233,32.1407 215.694233,31.8027" id="Fill-487" fill="#99D9D9"></path>
            <path d="M202.358333,16.8193 C201.607333,16.2043 200.932333,15.5063 200.373333,14.6723 C199.913333,13.9863 198.414333,11.0703 200.682333,11.8263 C202.386333,12.3943 203.398333,15.0443 203.607333,16.7773 C203.633333,16.9983 204.445333,16.3613 204.406333,16.0393 C204.143333,13.8583 202.217333,9.5023 199.807333,11.4273 C199.134333,11.9653 198.417333,12.6703 198.647333,13.6603 C199.014333,15.2463 200.466333,16.7333 201.597333,17.6593 C201.823333,17.8443 202.529333,16.9593 202.358333,16.8193" id="Fill-488" fill="#99D9D9"></path>
            <path d="M201.306533,16.6065 C201.885533,16.0905 202.551533,15.7445 203.259533,15.5095 C203.473533,15.4395 203.697533,15.1765 203.816533,14.9755 C203.868533,14.8895 204.034533,14.5975 203.814533,14.6705 C202.886533,14.9775 202.067533,15.4945 201.313533,16.1655 C201.228533,16.2415 200.848533,16.6165 200.915533,16.7605 C200.990533,16.9215 201.231533,16.6725 201.306533,16.6065" id="Fill-489" fill="#99D9D9"></path>
            <path d="M200.047733,15.9727 C200.904733,15.6687 201.772733,15.4037 202.629733,15.0997 C202.856733,15.0197 203.081733,14.8107 203.199733,14.5807 C203.247733,14.4887 203.386733,14.1337 203.147733,14.2187 C202.289733,14.5227 201.422733,14.7877 200.565733,15.0917 C200.338733,15.1717 200.112733,15.3797 199.994733,15.6107 C199.946733,15.7027 199.808733,16.0577 200.047733,15.9727" id="Fill-490" fill="#99D9D9"></path>
            <path d="M199.567233,15.0103 C200.384233,14.5283 201.230233,14.1273 202.114233,13.8223 C202.348233,13.7413 202.612233,13.5163 202.652233,13.2283 C202.685233,12.9953 202.560233,12.7723 202.319233,12.8563 C201.357233,13.1883 200.434233,13.6073 199.545233,14.1323 C199.350233,14.2463 199.066233,14.5203 199.108233,14.8013 C199.146233,15.0583 199.363233,15.1313 199.567233,15.0103" id="Fill-491" fill="#99D9D9"></path>
            <path d="M134.405133,53.3525 C135.315133,59.1525 136.225133,64.9535 137.134133,70.7535 C137.231133,71.3655 138.246133,71.0245 138.162133,70.4895 C137.252133,64.6885 136.342133,58.8885 135.431133,53.0885 C135.336133,52.4765 134.321133,52.8175 134.405133,53.3525" id="Fill-492" fill="#A30047"></path>
            <path d="M132.935433,52.8555 C131.377433,58.2945 131.004433,63.9585 131.859433,69.5775 C131.942433,70.1225 132.941433,69.7325 132.873433,69.2805 C132.029433,63.7285 132.373433,58.1475 133.914433,52.7675 C134.081433,52.1835 133.060433,52.4215 132.935433,52.8555" id="Fill-493" fill="#A30047"></path>
            <path d="M133.886633,53.2422 C134.252633,59.0942 133.117633,65.0832 134.307633,70.8562 C134.362633,71.1202 135.358633,70.7222 135.284633,70.3662 C134.105633,64.6412 135.238633,58.6862 134.873633,52.8802 C134.851633,52.5192 133.866633,52.9302 133.886633,53.2422" id="Fill-494" fill="#A30047"></path>
            <path d="M134.783133,53.4766 C137.012133,58.4816 139.362133,64.0986 139.810133,69.7166 C139.845133,70.1466 140.835133,69.7336 140.806133,69.3766 C140.353133,63.6856 138.017133,58.0556 135.761133,52.9876 C135.606133,52.6406 134.633133,53.1396 134.783133,53.4766" id="Fill-495" fill="#A30047"></path>
            <path d="M135.121933,51.6372 C137.172933,53.8722 139.555933,55.5122 141.193933,58.2062 C142.791933,60.8332 144.174933,64.1462 144.222933,67.3582 C144.226933,67.6842 145.211933,67.2952 145.206933,66.9892 C145.157933,63.7122 143.802933,60.3982 142.171933,57.7162 C140.517933,54.9952 138.099933,53.3242 136.022933,51.0622 C135.833933,50.8552 134.904933,51.4012 135.121933,51.6372" id="Fill-496" fill="#A30047"></path>
            <path d="M131.951033,70.6006 C131.250033,67.2456 131.060033,63.8016 131.462033,60.3766 C131.673033,58.5796 132.042033,56.7976 132.571033,55.0806 C133.055033,53.5126 133.819033,50.6906 135.568033,52.5126 C137.687033,54.7206 138.953033,57.7146 140.258033,60.5446 C141.654033,63.5736 142.928033,66.5966 143.523033,69.9596 C143.617033,70.4906 144.610033,70.0866 144.534033,69.6576 C143.805033,65.5416 142.108033,61.8856 140.375033,58.1996 C139.532033,56.4066 138.638033,54.6186 137.460033,53.0656 C136.780033,52.1706 135.716033,50.6186 134.520033,50.6996 C132.016033,50.8696 131.136033,56.6116 130.769033,58.5776 C129.995033,62.7356 130.112033,66.9726 130.973033,71.0906 C131.063033,71.5226 132.052033,71.0836 131.951033,70.6006" id="Fill-497" fill="#C90E32"></path>
            <path d="M134.185433,71.8867 C134.049433,68.1257 134.033433,64.3587 134.212433,60.5967 C134.296433,58.8357 134.421433,57.1157 134.365433,55.3517 C134.327433,54.1667 133.953433,51.5267 135.382433,51.3477 C136.650433,51.1887 138.335433,53.5057 139.101433,54.3927 C140.269433,55.7467 141.310433,57.2167 142.187433,58.8197 C143.898433,61.9507 145.414433,65.1887 146.005433,68.8257 C146.068433,69.2107 147.058433,68.7967 146.983433,68.3367 C146.267433,63.9337 144.209433,59.5567 141.748433,56.0397 C140.691433,54.5277 139.500433,53.1147 138.182433,51.8777 C137.236433,50.9907 136.639433,50.3377 135.414433,50.6547 C134.522433,50.8867 134.003433,50.9997 133.656433,51.9887 C133.039433,53.7397 133.449433,55.7117 133.406433,57.5287 C133.289433,62.4397 133.002433,67.2827 133.179433,72.2037 C133.197433,72.6897 134.200433,72.3047 134.185433,71.8867" id="Fill-498" fill="#C90E32"></path>
            <path d="M137.131733,72.0181 C136.486733,65.1641 135.380733,58.3581 135.289733,51.4511 C135.281733,50.8921 134.265733,51.2421 134.271733,51.7371 C134.361733,58.6451 135.469733,65.4511 136.112733,72.3041 C136.166733,72.8711 137.177733,72.5051 137.131733,72.0181" id="Fill-499" fill="#C90E32"></path>
            <path d="M140.032133,72.231 C139.074133,65.362 137.193133,58.716 135.842133,51.942 C135.757133,51.519 134.768133,51.953 134.864133,52.432 C136.203133,59.144 138.072133,65.731 139.021133,72.536 C139.095133,73.061 140.092133,72.662 140.032133,72.231" id="Fill-500" fill="#C90E32"></path>
            <path d="M142.018433,70.3706 C140.974433,63.7176 138.842433,57.4176 135.683433,51.6556 C135.510433,51.3386 134.555433,51.8706 134.706433,52.1446 C137.864433,57.9076 139.997433,64.2066 141.040433,70.8606 C141.083433,71.1386 142.079433,70.7576 142.018433,70.3706" id="Fill-501" fill="#C90E32"></path>
            <path d="M134.317233,51.1108 C133.810233,50.2398 133.402233,49.3218 133.144233,48.3218 C132.932233,47.4988 132.458233,44.1798 134.337233,45.7758 C135.749233,46.9738 135.852233,49.8528 135.497233,51.5588 C135.452233,51.7768 136.412233,51.4978 136.477233,51.1798 C136.924233,49.0318 136.509233,44.1948 133.646233,45.0588 C132.846233,45.2988 131.953233,45.6798 131.853233,46.6988 C131.693233,48.3288 132.577233,50.2898 133.339233,51.6008 C133.492233,51.8618 134.432233,51.3088 134.317233,51.1108" id="Fill-502" fill="#C90E32"></path>
            <path d="M133.402233,50.5 C134.107233,50.243 134.839233,50.178 135.575233,50.235 C135.797233,50.252 136.090233,50.094 136.265233,49.952 C136.340233,49.892 136.589233,49.683 136.360233,49.666 C135.395233,49.591 134.465233,49.755 133.548233,50.089 C133.445233,50.127 132.971233,50.33 132.988233,50.492 C133.006233,50.672 133.311233,50.533 133.402233,50.5" id="Fill-503" fill="#C90E32"></path>
            <path d="M132.427633,49.4141 C133.324633,49.4641 134.219633,49.5551 135.116633,49.6051 C135.354633,49.6181 135.630633,49.5111 135.814633,49.3411 C135.888633,49.2731 136.130633,48.9951 135.879633,48.9811 C134.982633,48.9311 134.087633,48.8401 133.191633,48.7901 C132.953633,48.7761 132.676633,48.8841 132.492633,49.0531 C132.418633,49.1221 132.176633,49.4001 132.427633,49.4141" id="Fill-504" fill="#C90E32"></path>
            <path d="M132.284033,48.3237 C133.201033,48.1907 134.118033,48.1457 135.041033,48.2047 C135.285033,48.2207 135.602033,48.1137 135.732033,47.8587 C135.837033,47.6537 135.791033,47.3957 135.539033,47.3797 C134.535033,47.3157 133.540033,47.3467 132.542033,47.4907 C132.324033,47.5227 131.972033,47.6687 131.922033,47.9477 C131.876033,48.2047 132.055033,48.3567 132.284033,48.3237" id="Fill-505" fill="#C90E32"></path>
            <path d="M0.694232876,9.23705556e-14 C0.694232876,9.23705556e-14 95.8962329,108.938 220.367233,0.619" id="Stroke-506" stroke="#545454" stroke-width="1.39"></path>
            <path d="M16.2001329,13.6152 C15.7181329,12.1312 15.1971329,10.3442 15.3331329,8.7682 C15.3841329,8.1722 15.7631329,6.5022 16.7411329,7.2502 C17.3701329,7.7302 17.0781329,8.9972 16.8931329,9.6252 C16.5911329,10.6552 16.3051329,11.8492 15.9171329,12.8282 C15.7641329,13.2132 15.9581329,13.2162 15.5871329,13.1762 C15.3301329,13.1482 14.9371329,12.7532 14.6711329,12.6272 C14.2051329,12.4072 13.7131329,12.2492 13.2071329,12.1552 C12.6201329,12.0472 10.4691329,12.0212 10.8021329,13.1582 C10.9601329,13.7032 11.9951329,14.1072 12.4741329,14.2402 C13.7771329,14.6032 14.7191329,14.0442 15.9951329,13.8882 C16.2081329,13.8622 16.2111329,13.5232 15.9951329,13.5502 C15.3941329,13.6232 14.8751329,13.8772 14.2841329,13.9892 C13.6781329,14.1042 12.9571329,14.0692 12.3681329,13.8602 C12.1591329,13.7852 11.3611329,13.4392 11.2911329,13.1662 C10.9561329,11.8852 13.6301329,12.5852 14.1211329,12.7742 C14.5721329,12.9472 15.3091329,13.6532 15.7351329,13.6762 C16.1321329,13.6982 16.1291329,13.4532 16.2321329,13.1512 C16.3691329,12.7552 16.3361329,12.2852 16.4711329,11.8702 C16.6011329,11.4692 16.7931329,11.0902 16.9291329,10.6912 C17.1431329,10.0602 17.4101329,9.3572 17.4791329,8.6932 C17.5441329,8.0692 17.3451329,7.2432 16.8451329,6.8112 C16.4021329,6.4282 16.1181329,6.6432 15.6551329,6.9782 C14.9181329,7.5122 14.9691329,8.1272 15.0041329,9.0172 C15.0671329,10.6212 15.3791329,12.1802 15.8741329,13.7052 C15.9401329,13.9112 16.2671329,13.8232 16.2001329,13.6152" id="Fill-507" fill="#545454"></path>
            <path d="M33.6346329,26.1807 C33.7056329,25.3837 33.6806329,24.6097 33.5336329,23.8217 C33.4526329,23.3887 33.3076329,22.9697 33.2666329,22.5277 C33.1976329,21.7997 33.4776329,21.2367 33.6586329,20.5687 C33.9506329,19.4977 33.7906329,19.0457 32.8856329,18.3087 C32.7176329,18.1727 32.4776329,18.4097 32.6466329,18.5477 C33.8416329,19.5207 32.7756329,21.0337 32.8876329,22.3297 C33.0016329,23.6487 33.4166329,24.8277 33.2956329,26.1807 C33.2776329,26.3977 33.6146329,26.3957 33.6346329,26.1807" id="Fill-508" fill="#545454"></path>
            <path d="M51.3710329,36.1006 C51.2330329,34.8556 50.5720329,32.8936 49.0990329,32.6436 C48.6310329,32.5646 48.2660329,32.7446 48.2490329,33.2536 C48.2250329,33.9436 48.8970329,34.5886 49.4010329,34.9516 C49.7610329,35.2106 50.2760329,35.3506 50.6020329,35.6316 C50.9860329,35.9616 50.5060329,35.8326 50.1700329,35.9756 C49.6650329,36.1916 48.6770329,36.8606 48.6080329,37.4546 C48.5720329,37.7676 48.7770329,38.0896 49.1180329,38.0606 C49.3740329,38.0386 49.5870329,37.7346 49.7460329,37.5806 C50.2820329,37.0626 50.8090329,36.5336 51.3400329,36.0096 C51.4950329,35.8566 51.2560329,35.6176 51.1000329,35.7696 C50.5990329,36.2656 50.0960329,36.9576 49.5070329,37.3416 C49.4180329,37.4296 49.3300329,37.5166 49.2410329,37.6036 C49.1080329,37.2926 49.1730329,37.0616 49.4350329,36.9126 C49.6270329,36.6276 50.0220329,36.4206 50.3270329,36.2956 C50.6160329,36.1776 51.3610329,36.2076 51.1990329,35.6846 C51.1220329,35.4356 50.7110329,35.3116 50.5260329,35.2196 C50.0160329,34.9626 49.4860329,34.6766 49.0970329,34.2496 C48.8620329,33.9916 47.9550329,32.6556 49.4790329,33.1756 C49.7850329,33.2796 50.2090329,33.8246 50.3720329,34.0746 C50.7700329,34.6836 50.9540329,35.3866 51.0330329,36.1006 C51.0570329,36.3146 51.3950329,36.3176 51.3710329,36.1006" id="Fill-509" fill="#545454"></path>
            <path d="M74.2782329,44.3843 C74.8342329,43.3393 75.7562329,42.7093 76.8412329,42.2863 C77.4112329,42.0653 79.6302329,41.2533 79.3892329,42.4983 C79.2352329,43.3003 77.5352329,43.5673 76.9002329,43.6733 C75.9762329,43.8273 75.0622329,43.8973 74.1642329,44.1783 C73.9852329,44.2343 74.0122329,44.5103 74.2092329,44.5103 C74.6862329,44.5093 75.1692329,44.4893 75.6462329,44.5153 C76.0782329,44.5383 76.7022329,44.5663 77.0782329,44.8473 C77.7992329,45.3873 78.0882329,46.4813 76.9292329,46.6113 C75.5062329,46.7703 74.9382329,45.3103 74.3542329,44.2563 C74.2492329,44.0653 73.9572329,44.2363 74.0622329,44.4263 C74.5382329,45.2853 74.9652329,46.3613 75.8952329,46.8203 C76.5012329,47.1183 77.3872329,47.1833 77.8752329,46.6163 C78.3742329,46.0363 78.0602329,45.2093 77.5332329,44.7593 C76.6402329,43.9983 75.2932329,44.1693 74.2092329,44.1723 C74.2232329,44.2823 74.2382329,44.3933 74.2542329,44.5043 C75.7632329,44.0313 77.5972329,44.2283 78.9732329,43.3563 C79.4182329,43.0733 80.0572329,42.6373 79.8142329,42.0733 C79.3712329,41.0433 77.8172329,41.5853 77.0832329,41.8413 C75.7912329,42.2903 74.6442329,42.9753 73.9862329,44.2133 C73.8832329,44.4053 74.1752329,44.5763 74.2782329,44.3843" id="Fill-510" fill="#545454"></path>
            <path d="M90.8915329,47.6851 C90.6295329,46.5241 89.5105329,45.2551 88.3195329,44.9781 C87.9765329,44.8981 87.5395329,44.8511 87.3095329,45.1631 C87.1135329,45.4291 87.0465329,45.8811 87.2675329,46.1411 C87.4095329,46.3081 87.6475329,46.0671 87.5065329,45.9021 C87.3415329,45.7071 87.5695329,45.4911 87.7085329,45.3961 C87.9245329,45.2501 88.0625329,45.2521 88.3115329,45.3251 C88.6695329,45.4311 89.0215329,45.6911 89.3115329,45.9211 C89.9225329,46.4051 90.3915329,47.0041 90.5655329,47.7751 C90.6135329,47.9871 90.9395329,47.8971 90.8915329,47.6851" id="Fill-511" fill="#545454"></path>
            <path d="M114.020433,48.8999 C113.521433,48.6249 115.246433,47.0679 115.483433,46.9019 C115.999433,46.5429 116.732433,46.0879 117.379433,46.2109 C118.503433,46.4239 118.063433,48.0149 117.059433,47.9039 C116.841433,47.8799 116.630433,47.8079 116.480433,47.6299 C115.855433,46.8979 116.869433,47.4439 117.067433,47.5779 C117.249433,47.6989 117.417433,47.4059 117.238433,47.2859 C116.972433,47.1069 116.303433,46.6939 115.993433,47.0149 C115.695433,47.3229 116.172433,47.8449 116.404433,48.0229 C117.122433,48.5749 118.299433,48.0889 118.390433,47.1839 C118.557433,45.5039 116.724433,45.7949 115.753433,46.3349 C115.255433,46.6109 112.734433,48.5769 113.849433,49.1919 C114.040433,49.2969 114.210433,49.0049 114.020433,48.8999" id="Fill-512" fill="#545454"></path>
            <path d="M113.460833,49.148 C114.347833,48.973 115.249833,48.962 116.148833,48.92 C116.416833,48.908 116.685833,48.881 116.953833,48.901 C118.061833,48.985 118.048833,50.474 116.890833,50.373 C116.673833,50.354 116.674833,50.692 116.890833,50.711 C117.762833,50.787 118.731833,49.615 117.954833,48.892 C117.558833,48.522 116.907833,48.549 116.406833,48.567 C115.393833,48.606 114.368833,48.625 113.370833,48.822 C113.157833,48.864 113.247833,49.19 113.460833,49.148" id="Fill-513" fill="#545454"></path>
            <path d="M135.989133,46.2046 C135.954133,45.7236 136.090133,43.3436 136.790133,43.6016 C137.347133,43.8076 135.979133,45.7226 135.736133,46.0766 C135.839133,46.0896 135.942133,46.1036 136.045133,46.1166 C135.646133,44.8736 135.586133,43.3706 134.427133,42.5486 C133.528133,41.9126 132.227133,41.7116 131.363133,42.5076 C130.576133,43.2316 131.033133,44.2326 131.686133,44.9046 C132.635133,45.8786 133.983133,46.2256 135.304133,46.2156 C135.522133,46.2136 135.523133,45.8756 135.304133,45.8766 C134.397133,45.8846 133.499133,45.7286 132.704133,45.2706 C131.664133,44.6726 130.487133,43.1026 132.256133,42.4466 C133.324133,42.0496 134.520133,42.8126 135.006133,43.7606 C135.387133,44.5076 135.465133,45.4126 135.718133,46.2066 C135.765133,46.3506 135.945133,46.3676 136.028133,46.2466 C136.278133,45.8836 138.165133,43.1806 137.074133,42.8126 C136.635133,42.6646 136.277133,43.4216 136.141133,43.6736 C135.718133,44.4596 135.587133,45.3236 135.651133,46.2046 C135.667133,46.4206 136.005133,46.4216 135.989133,46.2046" id="Fill-514" fill="#545454"></path>
            <path d="M155.940333,40.1792 C156.180333,38.3762 156.743333,36.6492 157.659333,35.0732 C158.113333,34.2922 158.651333,33.5562 159.256333,32.8862 C159.501333,32.6162 160.081333,32.0982 160.495333,32.4862 C160.876333,32.8422 160.413333,34.2482 160.268333,34.6662 C159.687333,36.3572 158.527333,37.9342 157.244333,39.1562 C156.992333,39.3962 156.421333,39.9542 156.013333,39.8592 C155.877333,39.8262 155.499333,39.4122 155.349333,39.3022 C154.840333,38.9242 154.284333,38.6192 153.695333,38.3862 C152.685333,37.9862 151.164333,37.5812 150.123333,38.0772 C149.781333,38.2402 149.185333,38.6292 149.373333,39.0872 C149.614333,39.6792 151.449333,39.7852 151.976333,39.9262 C153.253333,40.2642 154.560333,40.6412 155.893333,40.4982 C156.107333,40.4752 156.110333,40.1372 155.893333,40.1602 C154.864333,40.2712 153.861333,40.0582 152.867333,39.8102 C152.098333,39.6192 151.087333,39.4972 150.363333,39.1822 C149.301333,38.7222 150.329333,38.3552 151.038333,38.2152 C151.644333,38.0942 152.435333,38.3272 153.023333,38.5062 C154.201333,38.8622 155.204333,39.5202 156.063333,40.3912 C156.110333,40.4382 156.210333,40.4622 156.268333,40.4172 C157.936333,39.1352 159.311333,37.5402 160.219333,35.6322 C160.567333,34.9002 161.633333,32.3902 160.432333,31.8462 C159.398333,31.3772 158.006333,33.8692 157.586333,34.5392 C156.509333,36.2592 155.869333,38.1732 155.602333,40.1792 C155.573333,40.3942 155.912333,40.3922 155.940333,40.1792" id="Fill-515" fill="#545454"></path>
            <path d="M178.842633,29.8149 C180.345633,29.2649 181.530633,28.2369 182.426633,26.9179 C182.944633,26.1559 184.072633,24.4119 183.639633,23.3899 C183.337633,22.6769 182.266633,22.5079 181.631633,22.8019 C180.484633,23.3349 179.812633,25.0159 179.501633,26.1409 C179.369633,26.6169 179.281633,27.1069 179.179633,27.5889 C179.034633,28.2669 179.139633,29.1709 178.354633,29.3119 C178.038633,29.3679 177.368633,28.9959 177.046633,28.9419 C176.740633,28.8899 176.416633,28.8519 176.105633,28.8569 C175.114633,28.8739 173.367633,29.4119 173.159633,30.5939 C173.005633,31.4639 173.930633,31.5839 174.595633,31.5759 C176.412633,31.5569 178.075633,30.5769 179.504633,29.5509 C179.680633,29.4249 179.511633,29.1319 179.334633,29.2589 C178.322633,29.9849 177.260633,30.6519 176.053633,30.9989 C175.516633,31.1529 174.421633,31.4999 173.919633,31.1969 C172.654633,30.4349 174.793633,29.4119 175.318633,29.2869 C175.996633,29.1239 176.728633,29.2079 177.399633,29.3639 C177.716633,29.4369 178.306633,29.7929 178.632633,29.7239 C179.122633,29.6199 178.937633,29.6079 179.170633,29.2579 C179.446633,28.8469 179.456633,27.9089 179.561633,27.4159 C179.678633,26.8679 179.778633,26.3089 179.957633,25.7769 C180.271633,24.8559 181.647633,22.0459 183.030633,23.2019 C183.973633,23.9889 182.612633,26.0459 182.134633,26.7469 C181.290633,27.9859 180.169633,28.9699 178.752633,29.4889 C178.550633,29.5629 178.637633,29.8899 178.842633,29.8149" id="Fill-516" fill="#545454"></path>
            <path d="M202.368033,14.9478 C201.160033,13.8968 199.520033,13.2098 197.925033,13.0248 C197.190033,12.9398 195.263033,13.0038 195.029033,14.0088 C194.576033,15.9628 198.661033,16.8658 198.902033,14.6198 C198.926033,14.4048 198.587033,14.4058 198.564033,14.6198 C198.328033,16.8228 193.794033,14.8898 196.122033,13.5438 C196.722033,13.1968 197.743033,13.3238 198.352033,13.4448 C199.729033,13.7188 201.065033,14.2618 202.130033,15.1868 C202.293033,15.3288 202.533033,15.0908 202.368033,14.9478" id="Fill-517" fill="#545454"></path>
        </g>
    </g>
</svg>