<?xml version="1.0" encoding="UTF-8"?>
<svg width="90px" height="49px" viewBox="0 0 90 49" version="1.1" xmlns="http://www.w3.org/2000/svg" xmlns:xlink="http://www.w3.org/1999/xlink">
    <!-- Generator: Sketch 53.1 (72631) - https://sketchapp.com -->
    <title>Group 33</title>
    <desc>Created with Sketch.</desc>
    <g id="Page-1" stroke="none" stroke-width="1" fill="none" fill-rule="evenodd">
        <g id="Group-33" transform="translate(0.695800, -0.051300)">
            <path d="M14.1693,47.6703 C13.6863,47.6663 13.2963,47.3943 13.2983,47.0613 C13.3013,46.7293 13.6953,46.4623 14.1793,46.4663 C14.6623,46.4703 15.0523,46.7423 15.0503,47.0753 C15.0473,47.4073 14.6533,47.6733 14.1693,47.6703" id="Fill-166" fill="#D4A447"></path>
            <path d="M28.2191,46.6791 C28.2191,46.8401 27.9571,46.9711 27.6351,46.9711 C27.3131,46.9711 27.0511,46.8401 27.0511,46.6791 C27.0511,46.5181 27.3131,46.3871 27.6351,46.3871 C27.9571,46.3871 28.2191,46.5181 28.2191,46.6791" id="Fill-168" fill="#D4A447"></path>
            <path d="M24.1322,36.1698 C24.1322,36.3308 24.0012,36.4618 23.8402,36.4618 C23.6792,36.4618 23.5482,36.3308 23.5482,36.1698 C23.5482,36.0088 23.6792,35.8778 23.8402,35.8778 C24.0012,35.8778 24.1322,36.0088 24.1322,36.1698" id="Fill-170" fill="#D4A447"></path>
            <path d="M10.3793,40.6136 C10.3793,40.9006 10.0893,41.1326 9.7313,41.1326 C9.3723,41.1326 9.0823,40.9006 9.0823,40.6136 C9.0823,40.3266 9.3723,40.0946 9.7313,40.0946 C10.0893,40.0946 10.3793,40.3266 10.3793,40.6136" id="Fill-172" fill="#D4A447"></path>
            <path d="M3.5033,35.6834 C3.5033,35.8274 3.3573,35.9434 3.1793,35.9434 C2.9993,35.9434 2.8553,35.8274 2.8553,35.6834 C2.8553,35.5394 2.9993,35.4244 3.1793,35.4244 C3.3573,35.4244 3.5033,35.5394 3.5033,35.6834" id="Fill-174" fill="#D4A447"></path>
            <path d="M53.1937,44.7655 C53.1937,45.0155 52.8747,45.2195 52.4807,45.2195 C52.0867,45.2195 51.7667,45.0155 51.7667,44.7655 C51.7667,44.5145 52.0867,44.3115 52.4807,44.3115 C52.8747,44.3115 53.1937,44.5145 53.1937,44.7655" id="Fill-176" fill="#D4A447"></path>
            <path d="M70.3851,32.9588 C70.3851,33.1288 70.1531,33.2668 69.8651,33.2668 C69.5791,33.2668 69.3471,33.1288 69.3471,32.9588 C69.3471,32.7888 69.5791,32.6508 69.8651,32.6508 C70.1531,32.6508 70.3851,32.7888 70.3851,32.9588" id="Fill-178" fill="#D4A447"></path>
            <path d="M79.6615,30.1693 C79.6615,30.2633 79.5155,30.3393 79.3375,30.3393 C79.1575,30.3393 79.0135,30.2633 79.0135,30.1693 C79.0135,30.0753 79.1575,29.9993 79.3375,29.9993 C79.5155,29.9993 79.6615,30.0753 79.6615,30.1693" id="Fill-180" fill="#D4A447"></path>
            <path d="M89.1322,38.0189 C89.1322,38.3769 88.7832,38.6669 88.3542,38.6669 C87.9242,38.6669 87.5752,38.3769 87.5752,38.0189 C87.5752,37.6609 87.9242,37.3699 88.3542,37.3699 C88.7832,37.3699 89.1322,37.6609 89.1322,38.0189" id="Fill-182" fill="#D4A447"></path>
            <path d="M68.5033,46.452 C68.5033,46.739 68.2723,46.971 67.9843,46.971 C67.6983,46.971 67.4663,46.739 67.4663,46.452 C67.4663,46.165 67.6983,45.933 67.9843,45.933 C68.2723,45.933 68.5033,46.165 68.5033,46.452" id="Fill-184" fill="#D4A447"></path>
            <path d="M82.6459,47.8792 C82.6459,48.0942 82.3839,48.2682 82.0619,48.2682 C81.7389,48.2682 81.4779,48.0942 81.4779,47.8792 C81.4779,47.6642 81.7389,47.4902 82.0619,47.4902 C82.3839,47.4902 82.6459,47.6642 82.6459,47.8792" id="Fill-186" fill="#D4A447"></path>
            <path d="M28.0248,29.2611 C28.0248,29.4091 27.7628,29.5291 27.4408,29.5291 C27.1188,29.5291 26.8568,29.4091 26.8568,29.2611 C26.8568,29.1131 27.1188,28.9931 27.4408,28.9931 C27.7628,28.9931 28.0248,29.1131 28.0248,29.2611" id="Fill-188" fill="#D4A447"></path>
            <path d="M40.7435,47.4251 C41.0295,47.4281 41.2605,47.6051 41.2585,47.8201 C41.2555,48.0341 41.0215,48.2061 40.7345,48.2031 C40.4485,48.2001 40.2185,48.0241 40.2205,47.8091 C40.2225,47.5941 40.4565,47.4221 40.7435,47.4251" id="Fill-190" fill="#D4A447"></path>
            <path d="M2.725,45.0897 C2.725,45.4837 2.115,45.8027 1.363,45.8027 C0.61,45.8027 0,45.4837 0,45.0897 C0,44.6957 0.61,44.3767 1.363,44.3767 C2.115,44.3767 2.725,44.6957 2.725,45.0897" id="Fill-192" fill="#D4A447"></path>
            <path d="M19.9808,29.1317 C19.9808,29.3107 19.7188,29.4557 19.3968,29.4557 C19.0738,29.4557 18.8128,29.3107 18.8128,29.1317 C18.8128,28.9527 19.0738,28.8067 19.3968,28.8067 C19.7188,28.8067 19.9808,28.9527 19.9808,29.1317" id="Fill-194" fill="#D4A447"></path>
            <path d="M62.9242,44.4408 C62.9242,44.8358 62.1412,45.1548 61.1732,45.1548 C60.2052,45.1548 59.4212,44.8358 59.4212,44.4408 C59.4212,44.0468 60.2052,43.7278 61.1732,43.7278 C62.1412,43.7278 62.9242,44.0468 62.9242,44.4408" id="Fill-196" fill="#D4A447"></path>
            <path d="M84.9808,34.1263 C84.9808,34.4843 84.3128,34.7753 83.4888,34.7753 C82.6648,34.7753 81.9968,34.4843 81.9968,34.1263 C81.9968,33.7683 82.6648,33.4783 83.4888,33.4783 C84.3128,33.4783 84.9808,33.7683 84.9808,34.1263" id="Fill-198" fill="#D4A447"></path>
            <path d="M78.6234,41.9759 C78.6234,42.9429 76.8804,43.7269 74.7304,43.7269 C72.5814,43.7269 70.8394,42.9429 70.8394,41.9759 C70.8394,41.0089 72.5814,40.2249 74.7304,40.2249 C76.8804,40.2249 78.6234,41.0089 78.6234,41.9759" id="Fill-200" fill="#D4A447"></path>
            <path d="M73.9769,43.5169 C73.8629,43.5109 73.7499,43.4999 73.6389,43.4859 C73.5059,43.4679 73.3749,43.4449 73.2479,43.4159 C72.6659,43.2829 72.1529,43.0339 71.7589,42.7069 C71.7159,42.6719 71.6749,42.6349 71.6349,42.5979 C71.3529,42.3349 71.1439,42.0309 71.0319,41.7029 C71.0159,41.6589 71.0019,41.6149 70.9919,41.5699 C70.9459,41.3989 70.9269,41.2209 70.9369,41.0399 C70.9429,40.9379 70.9559,40.8369 70.9809,40.7389 C70.9909,40.6939 71.0029,40.6499 71.0169,40.6069 C71.1429,40.2149 71.4069,39.8669 71.7689,39.5889 C71.8189,39.5489 71.8719,39.5119 71.9259,39.4759 C72.3109,39.2189 72.7869,39.0359 73.3129,38.9509 C73.4509,38.9279 73.5909,38.9119 73.7339,38.9039 C73.8949,38.8939 74.0579,38.8939 74.2229,38.9029 C75.9699,38.9959 78.7129,40.9939 78.6889,41.4549 C78.6869,41.4919 78.6659,41.5369 78.6289,41.5889 C78.5879,41.6429 78.5289,41.7069 78.4509,41.7749 C78.4389,41.7869 78.4239,41.7989 78.4099,41.8109 C78.3359,41.8749 78.2489,41.9419 78.1509,42.0119 C77.2159,42.6759 75.2699,43.5859 73.9769,43.5169" id="Fill-202" fill="#FFFFC3"></path>
            <path d="M74.3676,42.2928 C75.6856,42.1068 77.0136,41.9508 78.3416,41.7898 C78.3696,41.7868 78.3886,41.7768 78.4016,41.7638 C78.4186,41.7688 78.4336,41.7718 78.4506,41.7748 C78.5286,41.7068 78.5886,41.6438 78.6296,41.5888 C78.6196,41.5818 78.6086,41.5758 78.5976,41.5698 C77.9486,40.7998 76.9386,40.1598 75.8456,39.6488 C75.2016,39.3488 74.4856,39.0848 73.7336,38.9038 C73.5916,38.9118 73.4506,38.9278 73.3126,38.9508 C74.1306,39.1188 74.9106,39.3908 75.6236,39.7068 C76.5676,40.1238 77.4506,40.6598 78.0966,41.2838 C76.3426,40.3498 74.1116,39.7738 71.9266,39.4758 C71.8716,39.5118 71.8186,39.5488 71.7686,39.5888 C74.0126,39.8828 76.3196,40.4748 78.0956,41.4528 C75.8906,40.7768 73.4086,40.5768 71.0166,40.6068 C71.0036,40.6498 70.9906,40.6938 70.9806,40.7388 C73.3476,40.7058 75.8156,40.8988 78.0016,41.5678 C77.4656,41.5148 76.9056,41.5508 76.3776,41.5718 C75.6056,41.6028 74.8266,41.5468 74.0506,41.5198 C73.0706,41.4848 71.9876,41.4468 70.9916,41.5698 C71.0026,41.6148 71.0156,41.6588 71.0316,41.7028 C72.0096,41.5798 73.0766,41.6198 74.0436,41.6518 C74.7406,41.6758 75.4486,41.7348 76.1426,41.7128 C76.7316,41.6948 77.3686,41.6378 77.9726,41.6978 C76.6266,41.8608 75.2806,42.0238 73.9456,42.2148 C73.1696,42.3258 72.3906,42.4438 71.6356,42.5978 C71.6756,42.6348 71.7166,42.6718 71.7596,42.7068 C71.8436,42.6938 71.9126,42.6828 71.9576,42.6738 C72.7496,42.5228 73.5586,42.4068 74.3676,42.2928" id="Fill-204" fill="#BFBF94"></path>
            <path d="M75.2064,43.1283 C75.8264,42.9503 76.3884,42.7143 76.9484,42.4743 C77.3244,42.3133 77.7214,42.1283 78.1504,42.0113 C78.2494,41.9413 78.3364,41.8753 78.4094,41.8113 C77.3874,41.9843 76.5424,42.5253 75.6354,42.8413 C74.8914,43.1013 74.0834,43.2923 73.2484,43.4163 C73.3754,43.4453 73.5064,43.4683 73.6394,43.4853 C74.1744,43.3933 74.6984,43.2743 75.2064,43.1283" id="Fill-206" fill="#BFBF94"></path>
            <path d="M11.8402,35.1732 C12.1822,35.0852 12.1412,34.7522 12.1942,34.4002 C12.3722,33.2292 12.7902,31.9152 13.4022,30.8412 C13.5112,30.6512 13.7842,30.1722 13.9432,30.6912 C14.2182,31.5922 13.9602,32.2622 13.8372,33.1232 C13.7392,33.7992 13.2742,34.8072 13.6652,35.5282 C14.9342,35.5282 16.2132,35.6262 17.5022,35.7422 C18.7982,35.8592 20.4392,35.9282 21.6982,36.3062 C21.8472,36.3512 22.4732,36.5072 22.3342,36.6732 C22.0472,37.0172 20.0822,36.8012 19.5692,36.7572 C18.1572,36.6362 16.6282,36.3272 15.2392,36.3392 C14.1262,36.3482 14.1842,36.7482 14.4442,37.3482 C14.9022,38.4002 15.4702,39.4392 15.8312,40.4952 C15.8772,40.6272 16.3752,42.1862 15.8762,42.0172 C15.1562,41.7752 14.1782,39.7612 13.7912,38.9792 C13.6122,38.6172 13.3872,36.9022 12.3452,36.8832 C11.8462,36.8752 11.3822,37.3842 11.1182,37.5682 C9.8422,38.4562 8.3072,39.6522 6.4482,40.1272 C5.9442,40.2562 5.7292,40.2532 5.9922,39.8822 C6.6292,38.9872 7.8372,38.2902 8.9422,37.6222 C9.6322,37.2032 12.0562,36.3232 10.5122,35.6262 C8.8672,34.8812 6.9972,34.2872 5.3292,33.5432 C5.3112,33.5352 4.1072,32.9472 4.4182,32.9202 C5.6902,32.8052 7.1532,33.5072 8.2232,33.9732 C9.1252,34.3672 10.0752,34.8852 11.1002,35.1212 C11.4542,35.2032 11.6862,35.2132 11.8402,35.1732" id="Fill-208" fill="#D4A447"></path>
            <path d="M11.8402,34.5892 C12.1822,34.5012 12.1412,34.1682 12.1942,33.8162 C12.3722,32.6452 12.7902,31.3312 13.4022,30.2572 C13.5112,30.0672 13.7842,29.5882 13.9432,30.1082 C14.2182,31.0082 13.9602,31.6782 13.8372,32.5392 C13.7392,33.2152 13.2742,34.2242 13.6652,34.9442 C14.9342,34.9452 16.2132,35.0432 17.5022,35.1582 C18.7982,35.2762 20.4392,35.3442 21.6982,35.7222 C21.8472,35.7672 22.4732,35.9232 22.3342,36.0892 C22.0472,36.4332 20.0822,36.2172 19.5692,36.1732 C18.1572,36.0522 16.6282,35.7432 15.2392,35.7552 C14.1262,35.7652 14.1842,36.1642 14.4442,36.7642 C14.9022,37.8162 15.4702,38.8552 15.8312,39.9112 C15.8772,40.0432 16.3752,41.6022 15.8762,41.4342 C15.1562,41.1912 14.1782,39.1782 13.7912,38.3952 C13.6122,38.0332 13.3872,36.3192 12.3452,36.2992 C11.8462,36.2912 11.3822,36.8002 11.1182,36.9842 C9.8422,37.8722 8.3072,39.0682 6.4482,39.5432 C5.9442,39.6722 5.7292,39.6692 5.9922,39.2982 C6.6292,38.4032 7.8372,37.7062 8.9422,37.0382 C9.6322,36.6202 12.0562,35.7392 10.5122,35.0422 C8.8672,34.2972 6.9972,33.7032 5.3292,32.9592 C5.3112,32.9512 4.1072,32.3632 4.4182,32.3362 C5.6902,32.2222 7.1532,32.9232 8.2232,33.3902 C9.1252,33.7832 10.0752,34.3012 11.1002,34.5372 C11.4542,34.6192 11.6862,34.6292 11.8402,34.5892" id="Fill-210" fill="#CD800F"></path>
            <path d="M64.1547,43.6502 C64.1547,45.1622 55.2957,46.3872 44.3667,46.3872 C33.4377,46.3872 24.5787,45.1622 24.5787,43.6502 C24.5787,42.1392 33.4377,40.9142 44.3667,40.9142 C55.2957,40.9142 64.1547,42.1392 64.1547,43.6502" id="Fill-212" fill="#D4A447"></path>
            <path d="M21.6215,26.5853 C21.6215,26.5853 27.0385,34.9083 34.0405,30.1513 L33.1155,26.7173 C33.1155,26.7173 26.2455,32.0023 22.6795,25.5283 L21.6215,26.5853 Z" id="Fill-214" fill="#F97000"></path>
            <path d="M25.1888,21.3011 C25.1888,25.8241 21.0788,29.4911 16.0068,29.4911 C10.9358,29.4911 6.8258,25.8241 6.8258,21.3011 C6.8258,21.0511 6.8578,20.7851 6.9178,20.5111 C7.3868,18.3021 9.5138,15.5091 9.5138,15.5091 L19.1118,22.7541 L16.0068,13.1101 C16.0068,13.1101 23.5938,16.1401 24.9738,20.0901 C25.1128,20.4851 25.1888,20.8891 25.1888,21.3011" id="Fill-216" fill="#F97000"></path>
            <path d="M25.1888,21.3011 C25.1888,25.8241 21.0788,29.4911 16.0068,29.4911 C10.9358,29.4911 6.8258,25.8241 6.8258,21.3011 C6.8258,21.0511 6.8578,20.7851 6.9178,20.5111 C11.4468,22.8781 20.7048,26.5821 24.9738,20.0901 C25.1128,20.4851 25.1888,20.8891 25.1888,21.3011" id="Fill-218" fill="#D15C05"></path>
            <path d="M67.4222,26.9374 C67.4222,26.9374 62.0062,35.2604 55.0042,30.5044 L55.9292,27.0694 C55.9292,27.0694 62.7992,32.3544 66.3652,25.8804 L67.4222,26.9374 Z" id="Fill-220" fill="#F97000"></path>
            <path d="M82.308,21.3011 C82.308,22.0541 82.194,22.7821 81.981,23.4741 C80.913,26.9431 77.353,29.4911 73.125,29.4911 C68.054,29.4911 63.944,25.8241 63.944,21.3011 C63.944,20.8651 64.029,20.4401 64.183,20.0231 C65.624,16.1061 73.125,13.1101 73.125,13.1101 L70.021,22.7541 L79.619,15.5091 C79.619,15.5091 82.308,19.0391 82.308,21.3011" id="Fill-222" fill="#F97000"></path>
            <path d="M81.9808,23.4745 C80.9138,26.9435 77.3528,29.4915 73.1258,29.4915 C68.0538,29.4915 63.9438,25.8245 63.9438,21.3015 C63.9438,20.8655 64.0288,20.4395 64.1828,20.0225 C68.4748,23.5385 75.0848,27.0455 81.9808,23.4745" id="Fill-224" fill="#D15C05"></path>
            <path d="M31.6859,35.6571 C31.6859,35.6571 26.6649,35.9211 28.1199,42.1311 L32.2139,36.7141 L31.6859,35.6571 Z" id="Fill-226" fill="#D15C05"></path>
            <path d="M34.3578,36.4588 C34.3578,36.4588 29.6378,38.1918 32.8578,43.6968 L35.1738,37.3128 L34.3578,36.4588 Z" id="Fill-228" fill="#D15C05"></path>
            <path d="M37.4867,37.8978 C37.4867,37.8978 33.3547,39.4148 36.1737,44.2348 L38.2017,38.6458 L37.4867,37.8978 Z" id="Fill-230" fill="#D15C05"></path>
            <path d="M57.4467,35.6571 C57.4467,35.6571 62.4677,35.9211 61.0127,42.1311 L56.9187,36.7141 L57.4467,35.6571 Z" id="Fill-232" fill="#D15C05"></path>
            <path d="M54.7758,36.4588 C54.7758,36.4588 59.4948,38.1918 56.2748,43.6968 L53.9588,37.3128 L54.7758,36.4588 Z" id="Fill-234" fill="#D15C05"></path>
            <path d="M51.6459,37.8978 C51.6459,37.8978 55.7779,39.4148 52.9589,44.2348 L50.9309,38.6458 L51.6459,37.8978 Z" id="Fill-236" fill="#D15C05"></path>
            <polygon id="Fill-238" fill="#D15C05" points="38.5765 20.1561 37.2555 14.7391 39.6345 13.8151 40.4265 19.6281"></polygon>
            <path d="M43.2445,9.6092 C43.2445,12.5642 40.5235,14.9602 37.1675,14.9602 C33.8115,14.9602 31.0915,12.5642 31.0915,9.6092 C31.0915,6.6542 33.8115,4.2582 37.1675,4.2582 C40.5235,4.2582 43.2445,6.6542 43.2445,9.6092" id="Fill-240" fill="#F97000"></path>
            <path d="M40.9545,9.4769 C40.9545,11.5569 39.1805,13.2429 36.9915,13.2429 C34.8035,13.2429 33.0275,11.5569 33.0275,9.4769 C33.0275,7.3969 34.8035,5.7119 36.9915,5.7119 C39.1805,5.7119 40.9545,7.3969 40.9545,9.4769" id="Fill-242" fill="#F0EBD5"></path>
            <path d="M39.4574,9.433 C39.4574,10.856 38.5114,12.009 37.3444,12.009 C36.1764,12.009 35.2294,10.856 35.2294,9.433 C35.2294,8.01 36.1764,6.857 37.3444,6.857 C38.5114,6.857 39.4574,8.01 39.4574,9.433" id="Fill-244" fill="#006984"></path>
            <path d="M38.4008,9.3006 C38.4008,10.2126 37.8688,10.9516 37.2118,10.9516 C36.5548,10.9516 36.0228,10.2126 36.0228,9.3006 C36.0228,8.3886 36.5548,7.6486 37.2118,7.6486 C37.8688,7.6486 38.4008,8.3886 38.4008,9.3006" id="Fill-246" fill="#333333"></path>
            <path d="M36.6136,8.0643 C36.5516,8.3493 36.0096,8.4733 35.4046,8.3423 C34.7986,8.2103 34.3566,7.8723 34.4196,7.5873 C34.4806,7.3023 35.0226,7.1773 35.6296,7.3093 C36.2346,7.4413 36.6756,7.7793 36.6136,8.0643" id="Fill-248" fill="#FFFFFF"></path>
            <polygon id="Fill-250" fill="#D15C05" points="50.8197 20.3324 52.1407 14.9154 49.7627 13.9904 48.9697 19.8034"></polygon>
            <path d="M58.0424,9.6092 C58.0424,12.5642 55.3204,14.9602 51.9654,14.9602 C48.6084,14.9602 45.8884,12.5642 45.8884,9.6092 C45.8884,6.6542 48.6084,4.2582 51.9654,4.2582 C55.3204,4.2582 58.0424,6.6542 58.0424,9.6092" id="Fill-252" fill="#F97000"></path>
            <path d="M55.7523,9.4769 C55.7523,11.5569 53.9783,13.2429 51.7883,13.2429 C49.6003,13.2429 47.8253,11.5569 47.8253,9.4769 C47.8253,7.3969 49.6003,5.7119 51.7883,5.7119 C53.9783,5.7119 55.7523,7.3969 55.7523,9.4769" id="Fill-254" fill="#F0EBD5"></path>
            <path d="M54.2543,9.433 C54.2543,10.856 53.3093,12.009 52.1413,12.009 C50.9743,12.009 50.0273,10.856 50.0273,9.433 C50.0273,8.01 50.9743,6.857 52.1413,6.857 C53.3093,6.857 54.2543,8.01 54.2543,9.433" id="Fill-256" fill="#006984"></path>
            <path d="M53.2865,9.3006 C53.2865,10.2126 52.7535,10.9516 52.0975,10.9516 C51.4395,10.9516 50.9075,10.2126 50.9075,9.3006 C50.9075,8.3886 51.4395,7.6486 52.0975,7.6486 C52.7535,7.6486 53.2865,8.3886 53.2865,9.3006" id="Fill-258" fill="#333333"></path>
            <path d="M51.3949,8.1283 C51.3159,8.4093 50.7679,8.5023 50.1709,8.3343 C49.5739,8.1673 49.1539,7.8043 49.2319,7.5233 C49.3109,7.2423 49.8589,7.1493 50.4569,7.3163 C51.0529,7.4843 51.4739,7.8473 51.3949,8.1283" id="Fill-260" fill="#FFFFFF"></path>
            <path d="M60.0892,29.7123 C60.0892,30.4133 60.0082,31.1003 59.8532,31.7673 C58.5692,37.2813 52.2142,41.4703 44.5672,41.4703 C35.9922,41.4703 29.0432,36.2053 29.0432,29.7123 C29.0432,29.2073 29.0852,28.7103 29.1672,28.2223 C30.1342,22.4313 36.6592,17.9543 44.5672,17.9543 C53.1402,17.9543 60.0892,23.2183 60.0892,29.7123" id="Fill-262" fill="#F97000"></path>
            <path d="M46.0541,19.0423 C46.0081,18.9843 45.9001,18.9883 45.8531,19.0423 C45.7351,19.1783 45.7221,19.3753 45.6901,19.5483 C45.6401,19.8193 45.5591,20.0893 45.4721,20.3513 C45.3131,20.8363 45.0731,21.3443 44.6841,21.6863 C43.7461,22.5123 42.9321,19.5563 42.9111,19.0113 C42.9061,18.8453 42.6541,18.8443 42.6541,19.0113 C42.6551,19.4243 42.6931,19.8303 42.7801,20.2343 C42.8791,20.7013 43.0921,21.0693 43.3151,21.4823 C43.5831,21.9803 44.0831,22.4613 44.6861,22.2293 C45.2441,22.0133 45.5831,21.3583 45.7991,20.8413 C45.9751,20.4203 46.3921,19.4623 46.0541,19.0423" id="Fill-264" fill="#782C17"></path>
            <path d="M59.8529,31.7674 C58.5699,37.2814 52.2139,41.4704 44.5669,41.4704 C35.9929,41.4704 29.0429,36.2054 29.0429,29.7124 C29.0429,29.2074 29.0849,28.7094 29.1669,28.2224 C34.0889,34.2924 52.4269,40.8084 59.8529,31.7674" id="Fill-266" fill="#D15C05"></path>
            <path d="M56.3011,3.0331 C57.0861,4.5211 56.6151,5.2271 55.8021,5.6561 C54.9891,6.0851 54.1411,6.0751 53.3561,4.5861 C52.5711,3.0971 52.9591,0.2651 52.9591,0.2651 C52.9591,0.2651 55.5161,1.5441 56.3011,3.0331" id="Fill-268" fill="#6D9B3D"></path>
            <path d="M56.3011,3.0331 C57.0861,4.5211 56.6151,5.2271 55.8021,5.6561 L52.9591,0.2651 C52.9591,0.2651 55.5161,1.5441 56.3011,3.0331" id="Fill-270" fill="#8FC930"></path>
            <path d="M60.1342,4.224 C59.1502,5.59 58.3082,5.482 57.5622,4.944 C56.8162,4.407 56.4482,3.642 57.4332,2.277 C58.4162,0.911 61.1262,9.9475983e-14 61.1262,9.9475983e-14 C61.1262,9.9475983e-14 61.1172,2.859 60.1342,4.224" id="Fill-272" fill="#6D9B3D"></path>
            <path d="M60.1342,4.224 C59.1502,5.59 58.3082,5.482 57.5622,4.944 L61.1262,9.9475983e-14 C61.1262,9.9475983e-14 61.1172,2.859 60.1342,4.224" id="Fill-274" fill="#8FC930"></path>
            <path d="M60.6635,8.1307 C58.9815,8.1837 58.5535,7.4507 58.5245,6.5317 C58.4955,5.6127 58.8775,4.8557 60.5595,4.8027 C62.2415,4.7497 64.6165,6.3407 64.6165,6.3407 C64.6165,6.3407 62.3465,8.0777 60.6635,8.1307" id="Fill-276" fill="#6D9B3D"></path>
            <path d="M60.6635,8.1307 C58.9815,8.1837 58.5535,7.4507 58.5245,6.5317 L64.6165,6.3407 C64.6165,6.3407 62.3465,8.0777 60.6635,8.1307" id="Fill-278" fill="#8FC930"></path>
            <path d="M57.8783,3.4569 C57.9463,3.8109 57.9663,4.1549 57.9423,4.4709 C57.8843,5.3049 57.5313,5.9419 57.0003,6.0439 C56.4693,6.1459 55.9053,5.6859 55.5423,4.9329 C55.4033,4.6469 55.2943,4.3209 55.2263,3.9669 C54.9783,2.6789 55.3713,1.5209 56.1033,1.3799 C56.8363,1.2389 57.6313,2.1689 57.8783,3.4569" id="Fill-280" fill="#FFFFFF"></path>
            <path d="M57.9427,4.471 C57.8837,5.305 57.5317,5.942 57.0007,6.044 C56.4687,6.146 55.9057,5.685 55.5427,4.933 C55.5437,4.188 55.9257,3.566 56.5027,3.455 C57.0797,3.344 57.6667,3.78 57.9427,4.471" id="Fill-282" fill="#FDE020"></path>
            <path d="M54.4203,4.7137 C54.7793,4.7397 55.1173,4.8097 55.4173,4.9137 C56.2073,5.1867 56.7313,5.6917 56.6913,6.2317 C56.6533,6.7707 56.0633,7.1957 55.2413,7.3517 C54.9303,7.4127 54.5853,7.4337 54.2263,7.4077 C52.9193,7.3137 51.9013,6.6337 51.9553,5.8907 C52.0083,5.1467 53.1123,4.6187 54.4203,4.7137" id="Fill-284" fill="#FFFFFF"></path>
            <path d="M55.4174,4.9139 C56.2074,5.1859 56.7304,5.6919 56.6914,6.2309 C56.6534,6.7699 56.0634,7.1959 55.2414,7.3519 C54.5224,7.1589 54.0214,6.6269 54.0634,6.0419 C54.1054,5.4559 54.6784,5.0019 55.4174,4.9139" id="Fill-286" fill="#FDE85F"></path>
            <path d="M54.7396,8.3788 C54.8576,8.0388 55.0126,7.7308 55.1906,7.4678 C55.6586,6.7748 56.2816,6.3998 56.7936,6.5778 C57.3036,6.7538 57.5616,7.4358 57.5006,8.2688 C57.4776,8.5858 57.4096,8.9228 57.2916,9.2638 C56.8616,10.5028 55.9426,11.3088 55.2386,11.0648 C54.5336,10.8198 54.3096,9.6178 54.7396,8.3788" id="Fill-288" fill="#FFFFFF"></path>
            <path d="M55.1908,7.4681 C55.6588,6.7751 56.2818,6.4001 56.7938,6.5771 C57.3038,6.7541 57.5618,7.4351 57.5008,8.2691 C57.1278,8.9131 56.4848,9.2601 55.9298,9.0681 C55.3758,8.8751 55.0848,8.2041 55.1908,7.4681" id="Fill-290" fill="#FDE020"></path>
            <path d="M58.3627,9.0194 C58.0637,8.8174 57.8067,8.5874 57.5987,8.3484 C57.0507,7.7164 56.8497,7.0174 57.1537,6.5684 C57.4567,6.1224 58.1807,6.0484 58.9707,6.3234 C59.2697,6.4274 59.5797,6.5814 59.8777,6.7834 C60.9627,7.5184 61.5037,8.6154 61.0857,9.2324 C60.6677,9.8504 59.4477,9.7544 58.3627,9.0194" id="Fill-292" fill="#FFFFFF"></path>
            <path d="M57.599,8.348 C57.051,7.717 56.85,7.017 57.154,6.569 C57.456,6.122 58.181,6.049 58.971,6.324 C59.496,6.851 59.665,7.562 59.336,8.048 C59.007,8.534 58.284,8.64 57.599,8.348" id="Fill-294" fill="#FDE85F"></path>
            <path d="M59.9877,5.889 C59.6857,6.085 59.3747,6.233 59.0727,6.33 C58.2777,6.59 57.5547,6.503 57.2597,6.049 C56.9667,5.596 57.1797,4.9 57.7407,4.28 C57.9527,4.044 58.2147,3.82 58.5167,3.623 C59.6157,2.91 60.8377,2.837 61.2437,3.463 C61.6497,4.089 61.0877,5.175 59.9877,5.889" id="Fill-296" fill="#FFFFFF"></path>
            <path d="M59.0726,6.3304 C58.2776,6.5894 57.5546,6.5024 57.2606,6.0494 C56.9666,5.5954 57.1796,4.9004 57.7406,4.2794 C58.4296,4.0004 59.1516,4.1214 59.4706,4.6134 C59.7916,5.1064 59.6076,5.8144 59.0726,6.3304" id="Fill-298" fill="#FDE85F"></path>
            <path d="M57.6,6.1063 C57.666,6.4493 57.442,6.7803 57.099,6.8463 C56.756,6.9123 56.425,6.6873 56.36,6.3453 C56.293,6.0023 56.518,5.6713 56.861,5.6053 C57.203,5.5393 57.535,5.7633 57.6,6.1063" id="Fill-300" fill="#C04922"></path>
        </g>
    </g>
</svg>