<?xml version="1.0" encoding="UTF-8"?>
<svg width="100px" height="109px" viewBox="0 0 100 109" version="1.1" xmlns="http://www.w3.org/2000/svg" xmlns:xlink="http://www.w3.org/1999/xlink">
    <!-- Generator: Sketch 53.1 (72631) - https://sketchapp.com -->
    <title>Group 30</title>
    <desc>Created with Sketch.</desc>
    <g id="Page-1" stroke="none" stroke-width="1" fill="none" fill-rule="evenodd">
        <g id="Group-30" transform="translate(0.055401, 0.838325)">
            <path d="M44.8154991,5.30207485 C44.8154991,5.30207485 46.2084991,-1.55292515 57.7444991,0.326074852 C57.7444991,0.326074852 51.9624991,6.72907485 57.4464991,10.0280749 C62.9294991,13.3280749 44.8154991,5.30207485 44.8154991,5.30207485" id="Fill-322" fill="#B5B5B5"></path>
            <path d="M9.05479906,11.3865749 C-11.6232009,13.7555749 9.58479906,17.2705749 9.58479906,17.2705749 C49.2557991,21.6405749 85.2817991,48.7645749 85.2817991,48.7645749 L87.1557991,46.5175749 C62.1537991,-20.8164251 9.05479906,11.3865749 9.05479906,11.3865749" id="Fill-324" fill="#B5B5B5"></path>
            <path d="M85.2813991,48.7644749 L85.3263991,48.7124749 C60.8153991,8.78547485 21.8133991,14.8084749 10.9143991,17.4294749 C50.0553991,22.2464749 85.2813991,48.7644749 85.2813991,48.7644749" id="Fill-326" fill="#F9F1C6"></path>
            <path d="M16.8213991,12.6687749 C16.7153991,13.1247749 16.2593991,13.4067749 15.8043991,13.2987749 C15.3483991,13.1907749 15.0673991,12.7357749 15.1743991,12.2797749 C15.2813991,11.8247749 15.7373991,11.5427749 16.1923991,11.6497749 C16.6473991,11.7577749 16.9283991,12.2137749 16.8213991,12.6687749" id="Fill-328" fill="#6E2816"></path>
            <path d="M27.8125991,20.8016749 C59.6455991,29.4646749 85.2815991,48.7646749 85.2815991,48.7646749 L87.1555991,46.5176749 C84.5525991,39.5096749 81.6425991,33.5936749 78.5245991,28.5926749 C44.5045991,11.3136749 30.7255991,18.6876749 27.8125991,20.8016749" id="Fill-330" fill="#B5B5B5"></path>
            <path d="M27.8067991,20.8055749 C59.6417991,29.4675749 85.2817991,48.7645749 85.2817991,48.7645749 L85.3267991,48.7125749 C73.6327991,29.6645749 58.6417991,21.0775749 44.9777991,17.5885749 C34.6047991,16.7105749 29.4527991,19.6085749 27.8067991,20.8055749" id="Fill-332" fill="#E0D7A6"></path>
            <path d="M78.4873991,47.7557749 C80.3133991,43.5027749 82.1563991,43.9117749 84.3133991,44.8397749 C86.4713991,45.7687749 86.5043991,48.8877749 85.2843991,51.1057749 C83.7463991,53.9037749 80.5083991,57.1897749 78.8113991,60.7417749 C78.8113991,60.7417749 76.6563991,52.0077749 78.4873991,47.7557749" id="Fill-334" fill="#B5B5B5"></path>
            <path d="M29.9414991,22.0813749 C29.2224991,19.5753749 30.4254991,19.0253749 32.0184991,18.5683749 C33.6144991,18.1133749 34.9114991,19.4123749 35.1354991,20.8243749 C35.4204991,22.6053749 34.9494991,25.2583749 35.4544991,27.4193749 C35.4544991,27.4193749 30.6584991,24.5903749 29.9414991,22.0813749" id="Fill-336" fill="#B5B5B5"></path>
            <path d="M86.8282991,40.1492749 C82.6092991,42.0512749 83.0512991,43.8862749 84.0172991,46.0262749 C84.9842991,48.1692749 88.1032991,48.1452749 90.2992991,46.8862749 C93.0692991,45.2962749 96.2982991,42.0032749 99.8192991,40.2402749 C99.8192991,40.2402749 91.0482991,38.2432749 86.8282991,40.1492749" id="Fill-338" fill="#B5B5B5"></path>
            <path d="M5.84779906,89.6482749 L90.3927991,89.6482749" id="Stroke-340" stroke="#09C9C9" stroke-width="2" stroke-linecap="round"></path>
            <path d="M20.0088991,93.4329749 L59.1718991,93.4329749" id="Stroke-342" stroke="#09C9C9" stroke-width="2" stroke-linecap="round"></path>
            <path d="M48.1114991,97.4505749 L82.5084991,97.4505749" id="Stroke-344" stroke="#09C9C9" stroke-width="2" stroke-linecap="round"></path>
            <path d="M13.5586991,100.287975 L41.6426991,100.287975" id="Stroke-346" stroke="#09C9C9" stroke-width="2" stroke-linecap="round"></path>
            <path d="M40.9209991,106.215175 L55.0079991,106.215175" id="Stroke-348" stroke="#09C9C9" stroke-width="2" stroke-linecap="round"></path>
        </g>
    </g>
</svg>