<?xml version="1.0" encoding="UTF-8"?>
<svg width="51px" height="102px" viewBox="0 0 51 102" version="1.1" xmlns="http://www.w3.org/2000/svg" xmlns:xlink="http://www.w3.org/1999/xlink">
    <!-- Generator: Sketch 53.1 (72631) - https://sketchapp.com -->
    <title>Group 28</title>
    <desc>Created with Sketch.</desc>
    <g id="Page-1" stroke="none" stroke-width="1" fill="none" fill-rule="evenodd">
        <g id="Group-28" transform="translate(0.233398, 0.258300)">
            <path d="M7.67080175,101.3655 C7.67080175,101.3655 -0.957198251,98.2525 0.0878017486,87.8065 C2.87280175,88.9905 5.31080175,91.2395 5.31080175,91.2395 C5.31080175,91.2395 2.25080175,77.2115 12.7338017,68.8545 C12.7338017,68.8545 25.6678017,73.0125 30.7838017,85.1105 C30.7838017,85.1105 29.7828017,80.0475 39.6328017,75.2715 C39.6328017,75.2715 43.3628017,83.4795 40.6768017,91.5375 C40.6768017,91.5375 43.3628017,87.3595 50.5248017,88.4035 C50.5248017,88.4035 52.6998017,94.7375 44.3008017,101.4935 L7.67080175,101.3655 Z" id="Fill-350" fill="#AEBC4A"></path>
            <polygon id="Fill-352" fill="#D6CCD0" points="28.2776017 97.3867 30.5456017 97.3867 30.5456017 56.3727 28.2776017 56.3727"></polygon>
            <path d="M20.1014017,101.055 L30.5454017,101.055 L30.5454017,97.387 L23.7694017,97.387 C21.7444017,97.387 20.1014017,99.03 20.1014017,101.055" id="Fill-354" fill="#D6CCD0"></path>
            <polygon id="Fill-355" fill="#F4E3E9" points="13.1991017 73.282 13.1991017 75.549 43.2391017 75.549 35.6651017 55.687 33.3981017 55.687 39.7851017 73.282"></polygon>
            <path d="M13.1991017,73.282 L13.1991017,73.282 C11.6451017,73.282 10.3861017,74.542 10.3861017,76.095 L10.3861017,77.712 C10.3861017,80.566 12.6991017,82.878 15.5521017,82.878 L15.5521017,73.282 L13.1991017,73.282 Z" id="Fill-356" fill="#F4E3E9"></path>
            <path d="M27.1659017,37.618 L22.1519017,37.618 L23.2519017,6.22 C23.3709017,2.821 20.6469017,-1.42108547e-14 17.2449017,-1.42108547e-14 L14.2459017,-1.42108547e-14 C11.3049017,-1.42108547e-14 8.92090175,2.384 8.92090175,5.325 C8.92090175,8.339 11.4219017,10.753 14.4349017,10.646 L18.1869017,10.513 L16.0929017,41.056 C15.4739017,50.08 22.6269017,57.741 31.6729017,57.741 L47.2889017,57.741 C47.2889017,46.627 38.2789017,37.618 27.1659017,37.618" id="Fill-357" fill="#F5638B"></path>
            <path d="M32.5516017,36.161 L28.7016017,36.161 C23.9516017,36.161 20.1016017,40.012 20.1016017,44.762 C20.1016017,49.512 23.9516017,53.362 28.7016017,53.362 L49.7526017,53.362 C49.7526017,43.862 42.0516017,36.161 32.5516017,36.161" id="Fill-358" fill="#FD95B8"></path>
            <path d="M14.6698017,6.5819 L12.7918017,8.6049 C11.6528017,9.8349 10.0518017,10.5319 8.37580175,10.5299 L6.14180175,10.5269 C6.05780175,10.5269 5.97380175,10.5269 5.89280175,10.5319 C4.36980175,10.5739 2.92280175,11.2169 1.86880175,12.3209 L1.02580175,13.2029 L1.02580175,9.8839 C1.02580175,6.5969 3.03680175,3.7809 5.89280175,2.5929 C6.82380175,2.2039 7.84680175,1.9889 8.92080175,1.9889 L10.0788017,1.9889 C10.0788017,6.9169 14.6698017,6.5819 14.6698017,6.5819" id="Fill-359" fill="#F4E3E9"></path>
            <path d="M5.89240175,2.5926 L5.89240175,10.5316 C4.37040175,10.5736 2.92240175,11.2176 1.86940175,12.3206 L1.02640175,13.2026 L1.02640175,9.8846 C1.02640175,6.5966 3.03740175,3.7806 5.89240175,2.5926" id="Fill-360" fill="#4C2030"></path>
            <path d="M16.2098017,4.158 C16.2098017,4.583 15.8648017,4.928 15.4388017,4.928 C15.0148017,4.928 14.6698017,4.583 14.6698017,4.158 C14.6698017,3.733 15.0148017,3.388 15.4388017,3.388 C15.8648017,3.388 16.2098017,3.733 16.2098017,4.158" id="Fill-361" fill="#17163F"></path>
            <path d="M31.6610017,47.0848 L31.6610017,47.0848 C31.4430017,47.3018 31.0910017,47.3018 30.8730017,47.0848 L27.0150017,43.2258 C26.7970017,43.0088 26.7970017,42.6558 27.0150017,42.4388 C27.2320017,42.2208 27.5850017,42.2208 27.8030017,42.4388 L31.6610017,46.2968 C31.8780017,46.5148 31.8780017,46.8668 31.6610017,47.0848" id="Fill-362" fill="#F4E3E9"></path>
            <path d="M37.2508017,47.0848 L37.2508017,47.0848 C37.0328017,47.3018 36.6808017,47.3018 36.4628017,47.0848 L32.6048017,43.2258 C32.3868017,43.0088 32.3868017,42.6558 32.6048017,42.4388 C32.8208017,42.2208 33.1748017,42.2208 33.3918017,42.4388 L37.2508017,46.2968 C37.4678017,46.5148 37.4678017,46.8668 37.2508017,47.0848" id="Fill-363" fill="#F4E3E9"></path>
            <path d="M42.8397017,47.0848 L42.8397017,47.0848 C42.6227017,47.3018 42.2697017,47.3018 42.0527017,47.0848 L38.1937017,43.2258 C37.9767017,43.0088 37.9767017,42.6558 38.1937017,42.4388 C38.4107017,42.2208 38.7637017,42.2208 38.9817017,42.4388 L42.8397017,46.2968 C43.0577017,46.5148 43.0577017,46.8668 42.8397017,47.0848" id="Fill-364" fill="#F4E3E9"></path>
        </g>
    </g>
</svg>