<?xml version="1.0" encoding="UTF-8"?>
<svg width="48px" height="106px" viewBox="0 0 48 106" version="1.1" xmlns="http://www.w3.org/2000/svg" xmlns:xlink="http://www.w3.org/1999/xlink">
    <!-- Generator: Sketch 53.1 (72631) - https://sketchapp.com -->
    <title>Group 35</title>
    <desc>Created with Sketch.</desc>
    <g id="Page-1" stroke="none" stroke-width="1" fill="none" fill-rule="evenodd">
        <g id="Group-35" transform="translate(0.573952, 0.492010)">
            <path d="M35.0011483,84.1059905 C32.5121483,79.9669905 28.0271483,77.4309905 23.4191483,77.1909905 C23.1161483,75.9619905 22.6971483,74.7579905 22.1531483,73.5389905 C21.7151483,72.5539905 20.3941483,72.4499905 19.5571483,72.8569905 C18.3991483,73.4199905 17.3051483,74.0909905 16.2761483,74.8479905 C11.3761483,77.2549905 7.45114834,82.9089905 6.53814834,88.0689905 C5.47114834,94.1079905 8.13914834,98.9169905 12.3221483,101.62999 C16.5261483,105.32499 22.7041483,106.33399 28.0681483,103.74099 C35.5641483,100.11899 39.5881483,91.7329905 35.0011483,84.1059905" id="Fill-76" fill="#CBDC98"></path>
            <path d="M31.6495483,89.0531905 C28.7995483,80.9131905 14.5925483,83.1731905 16.5475483,92.1181905 C17.2185483,95.1901905 21.0865483,97.5211905 23.7865483,95.1501905 C26.1865483,93.0421905 24.7185483,89.3391905 21.5205483,89.7671905 C20.6945483,89.8781905 20.5775483,91.0291905 21.1875483,91.2531905 C20.1035483,91.1451905 19.0195483,91.0371905 17.9365483,90.9301905 C18.1595483,90.1131905 18.3825483,89.2951905 18.6065483,88.4781905 C19.2745483,87.2121905 20.7955483,86.0781905 22.1145483,85.6091905 C25.2135483,84.5081905 28.6355483,86.1961905 29.9715483,89.0841905 C32.4935483,94.5381905 26.6185483,99.3931905 21.5375483,99.6371905 C15.0615483,99.9491905 11.2935483,93.6401905 13.3385483,87.8811905 C14.5935483,84.3481905 19.1595483,78.5481905 23.3645483,78.4241905 C24.3385483,78.3951905 24.3435483,76.8761905 23.3645483,76.9051905 C19.0505483,77.0321905 14.8325483,81.7471905 12.8895483,85.2641905 C10.4755483,89.6361905 10.3655483,95.0621905 14.2985483,98.6011905 C20.8735483,104.51619 35.0115483,98.6561905 31.6495483,89.0531905" id="Fill-78" fill="#86BA6F"></path>
            <path d="M26.1700483,44.7021905 C25.0620483,39.3601905 20.0230483,34.5041905 14.6560483,33.4931905 C12.3130483,33.0511905 10.0300483,33.4581905 8.00704834,34.4411905 C4.78004834,35.3101905 1.96204834,39.4861905 0.887048345,42.1871905 C-0.922951655,46.7331905 0.0240483448,52.3591905 3.84704834,55.6071905 C4.89904834,56.5021905 6.07604834,57.1951905 7.32504834,57.6981905 C7.07904834,59.0601905 7.03104834,60.4541905 7.64404834,61.5751905 C8.74504834,63.5891905 11.7510483,63.7531905 13.7670483,63.8691905 C15.8260483,63.9881905 18.9000483,64.1441905 19.6920483,61.7331905 C20.1140483,60.4521905 19.7570483,58.8721905 19.1830483,57.4281905 C23.9980483,55.3301905 27.4400483,50.8221905 26.1700483,44.7021905" id="Fill-80" fill="#FDE596"></path>
            <path d="M10.8517483,56.4364905 C9.36474834,53.9754905 7.87774834,51.5134905 6.39074834,49.0524905 C5.88674834,48.2164905 4.57874834,48.9884905 5.08474834,49.8274905 C6.57174834,52.2884905 8.05874834,54.7494905 9.54474834,57.2104905 C10.0497483,58.0464905 11.3587483,57.2754905 10.8517483,56.4364905" id="Fill-82" fill="#FDC565"></path>
            <path d="M12.0704483,47.5429905 C11.7954483,46.6069905 10.3324483,47.0149905 10.6094483,47.9559905 C11.4334483,50.7529905 11.9824483,53.5899905 12.2414483,56.4959905 C12.3284483,57.4619905 13.8464483,57.4609905 13.7594483,56.4859905 C13.4894483,53.4459905 12.9334483,50.4719905 12.0704483,47.5429905" id="Fill-84" fill="#FDC565"></path>
            <path d="M18.1427483,48.0898905 C17.2717483,50.8718905 16.3587483,53.6388905 15.4037483,56.3928905 C15.0817483,57.3178905 16.5517483,57.7048905 16.8707483,56.7868905 C17.8257483,54.0328905 18.7387483,51.2658905 19.6097483,48.4838905 C19.9027483,47.5488905 18.4347483,47.1598905 18.1427483,48.0898905" id="Fill-86" fill="#FDC565"></path>
            <path d="M24.5255483,43.0102905 C23.5545483,41.3392905 21.7675483,41.1212905 20.1015483,41.5402905 C20.4045483,39.7832905 19.3845483,37.6972905 17.8615483,36.8792905 C15.7135483,35.7262905 13.9975483,37.0782905 13.0785483,38.8842905 C12.1705483,37.4902905 10.5205483,36.7112905 8.69754834,36.9252905 C6.15254834,37.2252905 5.52254834,39.4252905 5.63854834,41.6102905 C4.28054834,41.2502905 2.78954834,41.6822905 1.92054834,42.9712905 C0.957548345,44.4002905 1.19554834,46.1152905 2.19454834,47.3412905 C1.62954834,47.8212905 1.25054834,48.5822905 1.18254834,49.3222905 C1.03254834,50.9662905 2.11954834,52.2932905 3.47754834,53.0702905 C4.32854834,53.5562905 5.08554834,52.2392905 4.23554834,51.7542905 C3.57954834,51.3792905 2.95454834,50.8652905 2.74754834,50.1042905 C2.59554834,49.5502905 2.77754834,48.1092905 3.68454834,48.4222905 C4.61054834,48.7402905 4.99854834,47.2712905 4.07954834,46.9552905 C4.03454834,46.9402905 3.99154834,46.9322905 3.94754834,46.9202905 C3.94454834,46.9182905 3.94254834,46.9152905 3.93954834,46.9132905 C2.96154834,46.2812905 2.47954834,45.0382905 3.08254834,43.9722905 C3.69954834,42.8812905 5.11554834,42.6512905 6.05854834,43.4652905 C6.74754834,44.0592905 7.70754834,43.1622905 7.22854834,42.5192905 C7.22754834,42.4792905 7.23954834,42.4452905 7.23254834,42.4042905 C6.95954834,40.7732905 6.98754834,38.5282905 9.09054834,38.4102905 C10.5855483,38.3262905 12.0545483,39.2362905 12.2545483,40.8002905 C12.3645483,41.6542905 13.5785483,41.7412905 13.7525483,41.0632905 C13.8665483,40.9742905 13.9635483,40.8582905 14.0095483,40.6792905 C14.3585483,39.3442905 15.2955483,37.3522905 17.0245483,38.1682905 C18.0885483,38.6712905 19.2815483,40.8412905 18.3645483,41.9342905 C17.8535483,42.5442905 18.4795483,43.3552905 19.0695483,43.2262905 C19.2615483,43.3172905 19.4905483,43.3422905 19.7305483,43.2382905 C21.3605483,42.5312905 23.3435483,42.7752905 23.5345483,44.8852905 C23.6755483,46.4462905 22.9595483,48.0962905 22.2705483,49.4572905 C21.8305483,50.3272905 23.1455483,51.0882905 23.5875483,50.2152905 C24.6405483,48.1322905 25.8215483,45.2412905 24.5255483,43.0102905" id="Fill-88" fill="#FDC565"></path>
            <path d="M46.1290483,69.0194905 C44.5390483,68.3584905 42.9800483,67.6414905 41.4310483,66.9024905 C42.1840483,66.6314905 42.9360483,66.3614905 43.6820483,66.0654905 C44.8640483,65.5974905 44.3490483,63.6624905 43.1500483,64.1374905 C41.7420483,64.6954905 40.3180483,65.1914905 38.8860483,65.6594905 C38.8200483,65.6254905 38.7540483,65.5964905 38.6890483,65.5624905 L41.8640483,57.8094905 C42.3520483,56.6194905 40.4180483,56.1014905 39.9360483,57.2774905 L37.5160483,63.1864905 C36.9830483,61.2744905 36.4690483,59.3564905 35.9890483,57.4274905 C35.6800483,56.1794905 33.7500483,56.7074905 34.0620483,57.9594905 C34.5590483,59.9604905 35.0940483,61.9494905 35.6480483,63.9334905 C33.7190483,62.8764905 31.8110483,61.7804905 29.9420483,60.6024905 C28.8510483,59.9144905 27.8460483,61.6444905 28.9340483,62.3304905 C31.2930483,63.8174905 33.7070483,65.1924905 36.1620483,66.4904905 L36.1620483,66.4914905 C34.4560483,66.9744905 32.7350483,67.4104905 30.9890483,67.7704905 C29.7300483,68.0304905 30.2630483,69.9584905 31.5210483,69.6994905 C32.7600483,69.4434905 33.9850483,69.1464905 35.2040483,68.8294905 C34.4790483,70.5994905 33.7540483,72.3694905 33.0280483,74.1394905 C32.5410483,75.3304905 34.4760483,75.8484905 34.9570483,74.6714905 C35.7030483,72.8514905 36.4480483,71.0304905 37.1940483,69.2104905 C37.8940483,71.4914905 38.6190483,73.7644905 39.3950483,76.0234905 C39.8100483,77.2344905 41.7420483,76.7144905 41.3230483,75.4924905 C40.4550483,72.9634905 39.6450483,70.4184905 38.8720483,67.8624905 C41.0790483,68.9564905 43.3140483,69.9984905 45.5980483,70.9474905 C46.7840483,71.4414905 47.3020483,69.5074905 46.1290483,69.0194905" id="Fill-90" fill="#FFFFFF"></path>
            <path d="M33.1632483,22.3627905 C31.9582483,22.8787905 30.7362483,23.3507905 29.5052483,23.7997905 C30.0632483,22.7837905 30.6172483,21.7657905 31.1912483,20.7587905 C31.8312483,19.6387905 30.1032483,18.6307905 29.4652483,19.7497905 C29.0692483,20.4427905 28.6892483,21.1447905 28.3042483,21.8427905 C28.2202483,20.8987905 28.1542483,19.9537905 28.1302483,19.0127905 C28.0962483,17.7277905 26.0962483,17.7227905 26.1302483,19.0127905 C26.1712483,20.5817905 26.3112483,22.1567905 26.4982483,23.7327905 C25.3682483,22.9407905 24.2492483,22.1337905 23.1532483,21.2917905 C22.1342483,20.5077905 21.1372483,22.2437905 22.1432483,23.0187905 C23.1782483,23.8137905 24.2332483,24.5747905 25.2972483,25.3237905 C24.6432483,25.5047905 24.0152483,25.6007905 23.5122483,25.4987905 C22.2552483,25.2427905 21.7182483,27.1697905 22.9792483,27.4267905 C23.7532483,27.5837905 24.5422483,27.4937905 25.3242483,27.3047905 C24.5552483,28.7547905 23.7842483,30.2037905 23.0402483,31.6667905 C22.4582483,32.8117905 24.1842483,33.8247905 24.7672483,32.6757905 C25.5322483,31.1727905 26.3222483,29.6837905 27.1142483,28.1947905 C27.3322483,29.6447905 27.5552483,31.0907905 27.7442483,32.5257905 C27.9102483,33.7837905 29.9122483,33.8007905 29.7442483,32.5257905 C29.5402483,30.9807905 29.2982483,29.4237905 29.0632483,27.8617905 C30.1562483,28.5647905 31.2582483,29.2537905 32.3822483,29.9117905 C33.4942483,30.5637905 34.5022483,28.8357905 33.3912483,28.1847905 C32.1212483,27.4417905 30.8772483,26.6587905 29.6452483,25.8587905 C31.1712483,25.3117905 32.6822483,24.7277905 34.1732483,24.0897905 C35.3522483,23.5857905 34.3352483,21.8627905 33.1632483,22.3627905" id="Fill-92" fill="#FFFFFF"></path>
            <path d="M37.8624483,13.7650905 C37.0574483,14.2880905 36.1124483,14.3200905 35.5444483,13.4750905 C35.2994483,13.1110905 35.1744483,12.6690905 35.1694483,12.2330905 C35.1684483,12.1010905 35.1914483,11.6620905 35.3014483,11.3800905 C35.4304483,11.3600905 35.5654483,11.3080905 35.7004483,11.2160905 C37.2584483,10.1560905 39.6104483,12.6270905 37.8624483,13.7650905 M39.9284483,10.9010905 C38.9404483,9.30709045 36.9284483,8.45009045 35.2144483,9.21609045 C33.3174483,9.67309045 32.8004483,11.9850905 33.4374483,13.6990905 C34.2164483,15.7920905 36.3174483,16.6730905 38.3544483,15.7580905 C40.3304483,14.8710905 41.0974483,12.7860905 39.9284483,10.9010905" id="Fill-94" fill="#FFFFFF"></path>
            <path d="M24.8272483,10.2265905 C24.6502483,9.41859045 23.8582483,9.11359045 23.1062483,9.14759045 C23.1042483,9.14159045 23.1062483,9.13359045 23.1052483,9.12759045 C22.9502483,8.56259045 22.4092483,8.33759045 21.8752483,8.42859045 C20.5352483,8.65659045 20.1302483,10.4205905 20.4352483,11.5495905 C20.6402483,12.3095905 21.3002483,12.8115905 22.0762483,12.8655905 C22.7982483,12.9155905 23.4152483,12.5705905 23.9382483,12.1055905 C24.4682483,11.6365905 24.9912483,10.9805905 24.8272483,10.2265905" id="Fill-96" fill="#FFFFFF"></path>
            <path d="M29.4649483,1.86869045 C28.9819483,1.53769045 28.4329483,1.45469045 27.9039483,1.54469045 C27.4769483,1.31769045 26.9179483,1.35569045 26.6159483,1.90269045 C26.5389483,2.04169045 26.4809483,2.18869045 26.4299483,2.33869045 C26.3889483,2.38069045 26.3429483,2.41869045 26.3049483,2.46369045 C25.9539483,2.87269045 25.9019483,3.47469045 26.3049483,3.87769045 C26.3389483,3.91069045 26.3869483,3.92869045 26.4269483,3.95669045 C26.5339483,4.26569045 26.6999483,4.55569045 26.9469483,4.79569045 C27.7259483,5.55469045 28.9939483,5.49569045 29.7689483,4.76369045 C30.6539483,3.92569045 30.4389483,2.53569045 29.4649483,1.86869045" id="Fill-98" fill="#FFFFFF"></path>
            <path d="M20.1925483,0.189490455 C19.8065483,-0.0115095453 19.4105483,-0.0415095453 19.0465483,0.0474904547 C18.8605483,0.0354904547 18.6765483,0.0584904547 18.5255483,0.173490455 C18.2945483,0.349490455 18.1165483,0.565490455 17.9865483,0.801490455 C17.9115483,0.912490455 17.8435483,1.03049045 17.7905483,1.15749045 C17.7295483,1.30349045 17.7285483,1.45849045 17.7625483,1.60749045 C17.7555483,1.95949045 17.8585483,2.31749045 18.0975483,2.64449045 C18.7235483,3.49849045 19.9465483,3.46049045 20.6165483,2.68049045 C21.2895483,1.89749045 21.1345483,0.679490455 20.1925483,0.189490455" id="Fill-100" fill="#FFFFFF"></path>
        </g>
    </g>
</svg>