<?xml version="1.0" encoding="UTF-8"?>
<svg width="86px" height="93px" viewBox="0 0 86 93" version="1.1" xmlns="http://www.w3.org/2000/svg" xmlns:xlink="http://www.w3.org/1999/xlink">
    <!-- Generator: Sketch 53.1 (72631) - https://sketchapp.com -->
    <title>Group 34</title>
    <desc>Created with Sketch.</desc>
    <g id="Page-1" stroke="none" stroke-width="1" fill="none" fill-rule="evenodd">
        <g id="Group-34" transform="translate(0.837069, 0.717709)">
            <path d="M42.9333308,72.3518912 C44.9313308,73.7388912 46.9873308,76.1308912 46.2723308,78.5228912 C45.4283308,81.3698912 39.6493308,82.9588912 37.2753308,83.7688912 C34.8933308,84.5808912 31.0323308,85.4778912 29.0393308,83.3138912 C28.1563308,82.3598912 28.0573308,81.2248912 27.9343308,79.9778912 C27.6883308,77.2988912 27.7803308,77.1078912 25.2983308,75.8228912 C18.9353308,72.5378912 9.50533083,67.6178912 9.79733083,59.2008912 C9.93033083,55.1528912 12.0343308,50.3618912 15.6483308,47.9248912 C20.5993308,43.2828912 28.4663308,41.9958912 34.8173308,45.0738912 C45.1623308,50.0968912 45.6873308,62.5858912 42.9333308,72.3518912" id="Fill-102" fill="#99D9D9"></path>
            <path d="M34.0593308,76.4285912 C29.7353308,72.5055912 26.3253308,66.9195912 22.8113308,62.2745912 C22.2223308,61.4955912 21.1003308,62.5185912 21.6873308,63.2935912 C25.2003308,67.9385912 28.6113308,73.5255912 32.9343308,77.4485912 C33.6513308,78.0985912 34.7853308,77.0865912 34.0593308,76.4285912" id="Fill-104" fill="#68BCBA"></path>
            <path d="M38.0290308,74.9710912 C35.4460308,69.9650912 32.9390308,64.9230912 30.5060308,59.8430912 C30.0840308,58.9620912 28.7330308,59.6570912 29.1560308,60.5390912 C31.5900308,65.6190912 34.0960308,70.6620912 36.6790308,75.6670912 C37.1270308,76.5340912 38.4780308,75.8420912 38.0290308,74.9710912" id="Fill-106" fill="#68BCBA"></path>
            <path d="M38.7282308,60.3289912 C38.6772308,59.3629912 37.1622308,59.2609912 37.2122308,60.2349912 C37.4542308,64.8619912 38.1132308,69.4019912 39.2282308,73.8999912 C39.4622308,74.8459912 40.9492308,74.5379912 40.7132308,73.5879912 C39.6312308,69.2249912 38.9612308,64.8199912 38.7282308,60.3289912" id="Fill-108" fill="#68BCBA"></path>
            <path d="M84.5456308,68.3489912 C85.7796308,63.0349912 83.2406308,56.5129912 78.7926308,53.3449912 C76.8506308,51.9619912 74.6076308,51.3739912 72.3586308,51.4179912 C69.0666308,50.8549912 64.7556308,53.4629912 62.6476308,55.4649912 C59.0986308,58.8329912 57.5996308,64.3389912 59.7076308,68.8899912 C60.2876308,70.1429912 61.0666308,71.2659912 61.9886308,72.2459912 C61.1936308,73.3799912 60.5666308,74.6259912 60.6516308,75.8989912 C60.8076308,78.1899912 63.4686308,79.5989912 65.2496308,80.5499912 C67.0686308,81.5209912 69.7946308,82.9519912 71.5246308,81.0949912 C72.4446308,80.1079912 72.7816308,78.5249912 72.8666308,76.9719912 C78.1186308,77.0869912 83.1326308,74.4369912 84.5456308,68.3489912" id="Fill-110" fill="#FDE596"></path>
            <path d="M65.7194308,72.5794912 C65.4014308,69.7214912 65.0834308,66.8634912 64.7654308,64.0054912 C64.6574308,63.0354912 63.1474308,63.1874912 63.2554308,64.1614912 C63.5734308,67.0194912 63.8904308,69.8774912 64.2084308,72.7354912 C64.3164308,73.7054912 65.8274308,73.5534912 65.7194308,72.5794912" id="Fill-112" fill="#FDC565"></path>
            <path d="M70.5554308,65.0164912 C70.6974308,64.0514912 69.1984308,63.8084912 69.0554308,64.7784912 C68.6304308,67.6634912 67.9404308,70.4704912 66.9564308,73.2164912 C66.6294308,74.1294912 68.0094308,74.7654912 68.3394308,73.8444912 C69.3684308,70.9704912 70.1114308,68.0374912 70.5554308,65.0164912" id="Fill-114" fill="#FDC565"></path>
            <path d="M75.8386308,68.0594912 C73.8806308,70.2194912 71.8916308,72.3484912 69.8696308,74.4484912 C69.1916308,75.1534912 70.3616308,76.1214912 71.0356308,75.4214912 C73.0586308,73.3214912 75.0476308,71.1914912 77.0046308,69.0324912 C77.6626308,68.3064912 76.4926308,67.3364912 75.8386308,68.0594912" id="Fill-116" fill="#FDC565"></path>
            <path d="M83.7624308,66.1238912 C83.5814308,64.1998912 82.0504308,63.2518912 80.3634308,62.9348912 C81.3734308,61.4668912 81.3244308,59.1448912 80.2834308,57.7638912 C78.8174308,55.8168912 76.6914308,56.3248912 75.1004308,57.5778912 C74.8604308,55.9318912 73.6904308,54.5328912 71.9454308,53.9628912 C69.5084308,53.1678912 68.0144308,54.9008912 67.2034308,56.9338912 C66.1204308,56.0368912 64.5864308,55.8048912 63.2554308,56.6108912 C61.7834308,57.5028912 61.2814308,59.1608912 61.6724308,60.6918912 C60.9584308,60.8908912 60.2964308,61.4228912 59.9244308,62.0668912 C59.0984308,63.4958912 59.5294308,65.1568912 60.4364308,66.4318912 C61.0044308,67.2288912 62.2434308,66.3518912 61.6764308,65.5548912 C61.2384308,64.9388912 60.8854308,64.2108912 61.0164308,63.4328912 C61.1124308,62.8658912 61.8804308,61.6338912 62.5734308,62.2988912 C63.2804308,62.9758912 64.2484308,61.8048912 63.5464308,61.1318912 C63.5124308,61.0998912 63.4764308,61.0748912 63.4424308,61.0448912 C63.4404308,61.0418912 63.4394308,61.0388912 63.4374308,61.0358912 C62.8134308,60.0518912 62.8984308,58.7218912 63.8914308,58.0058912 C64.9094308,57.2738912 66.2914308,57.6588912 66.8064308,58.7928912 C67.1824308,59.6218912 68.4314308,59.2098912 68.2664308,58.4258912 C68.2824308,58.3888912 68.3064308,58.3628912 68.3174308,58.3218912 C68.7524308,56.7278912 69.7194308,54.7008912 71.6794308,55.4758912 C73.0714308,56.0258912 74.0244308,57.4688912 73.5494308,58.9718912 C73.2904308,59.7928912 74.3564308,60.3828912 74.7984308,59.8388912 C74.9384308,59.8068912 75.0764308,59.7418912 75.1934308,59.5988912 C76.0704308,58.5328912 77.7554308,57.1168912 78.9834308,58.5828912 C79.7384308,59.4848912 79.9104308,61.9558912 78.6194308,62.5638912 C77.9014308,62.9028912 78.1284308,63.9018912 78.7184308,64.0318912 C78.8554308,64.1958912 79.0524308,64.3138912 79.3134308,64.3198912 C81.0894308,64.3618912 82.7874308,65.4158912 82.0764308,67.4108912 C81.5504308,68.8868912 80.2074308,70.0838912 79.0124308,71.0318912 C78.2474308,71.6368912 79.1224308,72.8788912 79.8894308,72.2708912 C81.7194308,70.8218912 84.0034308,68.6928912 83.7624308,66.1238912" id="Fill-118" fill="#FDC565"></path>
            <path d="M50.3835308,22.2351912 C47.9795308,23.1481912 45.5605308,24.0141912 43.1285308,24.8441912 C42.9655308,24.7541912 42.7995308,24.6671912 42.6365308,24.5751912 C43.5265308,22.3031912 44.3965308,20.0241912 45.2265308,17.7271912 C45.6645308,16.5141912 43.7325308,15.9921912 43.2975308,17.1951912 C42.6935308,18.8691912 42.0545308,20.5281912 41.4145308,22.1881912 C40.9795308,19.8741912 40.5685308,17.5561912 40.2065308,15.2261912 C40.0105308,13.9581912 38.0825308,14.4961912 38.2785308,15.7571912 C38.6425308,18.1061912 39.0575308,20.4431912 39.4965308,22.7751912 C37.9115308,21.8511912 36.3355308,20.9101912 34.7795308,19.9321912 C33.6865308,19.2451912 32.6815308,20.9751912 33.7705308,21.6591912 C35.8195308,22.9471912 37.8965308,24.1831912 39.9935308,25.3821912 C40.0155308,25.4881912 40.0335308,25.5951912 40.0555308,25.7011912 C40.0295308,25.7651912 40.0025308,25.8281912 39.9765308,25.8921912 C38.1585308,26.4841912 36.3365308,27.0621912 34.5035308,27.6091912 C33.2735308,27.9761912 33.7975308,29.9061912 35.0345308,29.5371912 C36.3555308,29.1431912 37.6705308,28.7371912 38.9835308,28.3201912 C38.0005308,30.7161912 36.9965308,33.1041912 35.9435308,35.4721912 C35.4245308,36.6371912 37.1475308,37.6561912 37.6705308,36.4811912 C38.7515308,34.0511912 39.7835308,31.6021912 40.7945308,29.1451912 C41.2625308,31.2731912 41.7495308,33.3981912 42.2815308,35.5141912 C42.5955308,36.7621912 44.5255308,36.2331912 44.2105308,34.9831912 C43.5605308,32.3961912 42.9735308,29.7981912 42.4205308,27.1931912 C42.5955308,27.1341912 42.7715308,27.0801912 42.9455308,27.0211912 C44.5535308,27.9021912 46.1705308,28.7681912 47.8105308,29.5971912 C48.9555308,30.1761912 49.9695308,28.4511912 48.8195308,27.8701912 C47.7025308,27.3051912 46.5945308,26.7251912 45.4925308,26.1341912 C47.3065308,25.4981912 49.1155308,24.8461912 50.9155308,24.1641912 C52.1075308,23.7121912 51.5905308,21.7771912 50.3835308,22.2351912" id="Fill-120" fill="#FFFFFF"></path>
            <path d="M20.3571308,27.6106912 C17.3361308,29.5596912 14.6431308,25.8396912 16.1241308,23.3286912 C16.3881308,23.3656912 16.6701308,23.3056912 16.9241308,23.0866912 C19.9621308,20.4586912 23.6621308,25.4766912 20.3571308,27.6106912 M22.6201308,22.1616912 C21.3461308,20.5056912 19.2581308,20.0646912 17.4161308,20.6326912 C17.1371308,20.3156912 16.6901308,20.1676912 16.2251308,20.4636912 C13.7211308,22.0536912 12.7821308,25.2386912 14.4441308,27.8106912 C16.0301308,30.2636912 19.3461308,30.8256912 21.6901308,29.1126912 C23.8781308,27.5126912 24.2651308,24.3006912 22.6201308,22.1616912" id="Fill-122" fill="#FFFFFF"></path>
            <path d="M31.8005308,4.51839125 C30.2775308,4.85739125 28.7535308,5.19739125 27.2305308,5.53739125 C27.5565308,4.51539125 27.8815308,3.49439125 28.2075308,2.47339125 C28.6005308,1.24439125 26.6695308,0.718391248 26.2795308,1.94139125 C26.2635308,1.99239125 26.2465308,2.04339125 26.2315308,2.09439125 C26.1505308,1.63739125 26.0695308,1.17939125 25.9885308,0.722391248 C25.7635308,-0.542608752 23.8355308,-0.00660875226 24.0595308,1.25439125 C24.3055308,2.64239125 24.5505308,4.03039125 24.7965308,5.41839125 L21.7735308,4.15839125 C20.5855308,3.66439125 20.0685308,5.59839125 21.2405308,6.08639125 L22.4675308,6.59739125 L21.2665308,6.86539125 C20.0105308,7.14439125 20.5415308,9.07339125 21.7985308,8.79339125 C22.6215308,8.61039125 23.4445308,8.42739125 24.2675308,8.24339125 C23.8165308,9.65739125 23.3645308,11.0713912 22.9135308,12.4843912 C22.5215308,13.7133912 24.4515308,14.2403912 24.8425308,13.0163912 C25.1205308,12.1433912 25.4005308,11.2703912 25.6785308,10.3973912 C25.8025308,11.1003912 25.9275308,11.8023912 26.0515308,12.5053912 C26.2765308,13.7703912 28.2035308,13.2343912 27.9805308,11.9743912 C27.7835308,10.8653912 27.5875308,9.75739125 27.3915308,8.64939125 L30.3295308,9.87339125 C31.5165308,10.3683912 32.0335308,8.43439125 30.8625308,7.94539125 C30.2515308,7.69039125 29.6415308,7.43639125 29.0305308,7.18239125 L32.3325308,6.44739125 C33.5875308,6.16739125 33.0565308,4.23839125 31.8005308,4.51839125" id="Fill-124" fill="#FFFFFF"></path>
            <path d="M70.0700308,39.2757912 L65.3030308,39.6917912 L67.4130308,36.2257912 C68.0850308,35.1237912 66.3550308,34.1167912 65.6860308,35.2157912 L65.2030308,36.0097912 L65.2150308,35.4787912 C65.2420308,34.1917912 63.2420308,34.1917912 63.2150308,35.4787912 C63.1920308,36.5287912 63.1690308,37.5787912 63.1460308,38.6297912 C62.1230308,37.9807912 60.6750308,37.0517912 60.7040308,36.9287912 C60.9840308,35.6747912 59.0560308,35.1397912 58.7750308,36.3967912 C58.4080308,38.0397912 59.9270308,38.7857912 61.0960308,39.5907912 L61.6990308,40.0057912 C60.4080308,40.1187912 59.1170308,40.2307912 57.8260308,40.3437912 C56.5530308,40.4547912 56.5420308,42.4557912 57.8260308,42.3437912 C59.0650308,42.2357912 60.3040308,42.1277912 61.5450308,42.0197912 L59.2640308,45.7637912 C58.5930308,46.8657912 60.3220308,47.8727912 60.9920308,46.7737912 C61.6750308,45.6497912 62.3590308,44.5257912 63.0440308,43.4027912 C63.0270308,44.1787912 63.0100308,44.9537912 62.9930308,45.7297912 C62.9660308,47.0167912 64.9660308,47.0167912 64.9930308,45.7297912 C65.0170308,44.5947912 65.0430308,43.4597912 65.0670308,42.3247912 C65.6590308,42.7327912 66.2510308,43.1397912 66.8420308,43.5477912 C67.9050308,44.2797912 68.9060308,42.5467912 67.8520308,41.8207912 C67.7010308,41.7167912 67.5490308,41.6127912 67.3980308,41.5087912 L70.0700308,41.2757912 C71.3420308,41.1647912 71.3540308,39.1637912 70.0700308,39.2757912" id="Fill-126" fill="#FFFFFF"></path>
            <path d="M49.0632308,89.7156912 C49.0642308,89.7156912 49.0642308,89.7156912 49.0642308,89.7156912 C49.0662308,89.7156912 49.0752308,89.7136912 49.0802308,89.7116912 C49.0772308,89.7106912 49.0772308,89.7106912 49.0752308,89.7096912 C49.0692308,89.7116912 49.0732308,89.7136912 49.0632308,89.7156912" id="Fill-128" fill="#FFFFFF"></path>
            <path d="M49.3757308,89.6043912 C49.3757308,89.6053912 49.3767308,89.6053912 49.3767308,89.6063912 C49.3837308,89.6033912 49.3747308,89.6053912 49.3757308,89.6043912" id="Fill-130" fill="#FFFFFF"></path>
            <path d="M48.5544308,86.9158912 C47.8954308,86.9088912 47.5784308,87.4288912 47.5944308,87.9408912 C47.3814308,88.2688912 47.2324308,88.6418912 47.1374308,89.0128912 C46.7884308,90.3888912 47.6304308,91.7578912 49.1264308,91.7038912 C50.3574308,91.6598912 51.4504308,90.7028912 51.3694308,89.4178912 C51.2814308,87.9778912 49.9434308,86.9298912 48.5544308,86.9158912" id="Fill-132" fill="#FFFFFF"></path>
            <path d="M49.3630308,89.6048912 C49.3860308,89.5968912 49.3790308,89.6018912 49.3760308,89.6048912 C49.3740308,89.5988912 49.3740308,89.6048912 49.3700308,89.5908912 C49.3530308,89.5308912 49.3820308,89.5988912 49.3630308,89.6048912" id="Fill-134" fill="#FFFFFF"></path>
            <path d="M15.3073308,84.9451912 C14.8973308,84.5931912 14.2953308,84.5431912 13.8933308,84.9451912 C13.5333308,85.3051912 13.4813308,86.0061912 13.8933308,86.3591912 C13.9133308,86.3801912 13.9163308,86.3811912 13.9293308,86.3931912 C13.8633308,86.4881912 13.9243308,86.5891912 13.7753308,86.6051912 C13.9563308,86.5851912 13.6803308,86.5041912 13.6213308,86.4481912 C13.4683308,86.3061912 13.4373308,86.1301912 13.4433308,85.9321912 C13.4833308,84.6451912 11.4833308,84.6461912 11.4433308,85.9321912 C11.3933308,87.5621912 13.0693308,89.1331912 14.6893308,88.3741912 C15.9303308,87.7921912 16.4153308,85.8961912 15.3073308,84.9451912" id="Fill-136" fill="#FFFFFF"></path>
            <path d="M4.48503083,80.4339912 C3.97203083,80.1339912 3.44403083,80.3609912 3.11703083,80.7929912 C2.92303083,81.0479912 2.48003083,81.6519912 2.09403083,81.6079912 C2.19003083,81.6189912 1.98903083,81.5549912 2.02403083,81.5549912 C2.63603083,80.6459912 1.35603083,79.4419912 0.502030834,80.3069912 C-0.464969166,81.2849912 0.0680308336,82.8479912 1.22503083,83.4029912 C2.69703083,84.1079912 4.01503083,82.8939912 4.84403083,81.8019912 C5.17103083,81.3709912 4.91203083,80.6839912 4.48503083,80.4339912" id="Fill-138" fill="#FFFFFF"></path>
            <path d="M10.6940308,75.7581912 C10.0740308,75.3541912 9.17603083,75.5171912 8.79203083,76.1621912 C8.15103083,76.5701912 7.94803083,77.4571912 8.44203083,78.0671912 C9.04103083,78.8081912 10.0440308,78.4641912 10.6290308,77.8821912 C11.2300308,77.2841912 11.5440308,76.3121912 10.6940308,75.7581912" id="Fill-140" fill="#FFFFFF"></path>
        </g>
    </g>
</svg>