<?xml version="1.0" encoding="UTF-8"?>
<svg width="110px" height="101px" viewBox="0 0 110 101" version="1.1" xmlns="http://www.w3.org/2000/svg" xmlns:xlink="http://www.w3.org/1999/xlink">
    <!-- Generator: Sketch 53.1 (72631) - https://sketchapp.com -->
    <title>Group 29</title>
    <desc>Created with Sketch.</desc>
    <g id="Page-1" stroke="none" stroke-width="1" fill="none" fill-rule="evenodd">
        <g id="Group-29" transform="translate(1.634600, 0.035100)">
            <path d="M106.832,66.8998 L39.336,66.8998 C39.336,66.8998 39.486,75.5858 45.438,76.3488 L96.155,76.3488 C96.155,76.3488 105.156,73.7538 106.832,66.8998" id="Fill-302" fill="#036633"></path>
            <polyline id="Fill-304" fill="#B7873E" points="90.6651 66.8998 85.4781 60.4928 61.9831 60.4928 56.3121 66.8998"></polyline>
            <polygon id="Fill-306" fill="#F7CE7A" points="74.5986 57.0175 108.1616 57.0175 74.5986 1.2525 74.5986 12.6525"></polygon>
            <polygon id="Fill-308" fill="#F7CE7A" points="68.8897 14.4799 46.2087 57.0179 68.8897 57.0179"></polygon>
            <path d="M71.5615,61.347 C71.0895,61.347 70.7105,60.967 70.7105,60.493 L70.7105,0.855 C70.7105,0.384 71.0895,1.03028697e-13 71.5615,1.03028697e-13 C72.0375,1.03028697e-13 72.4175,0.384 72.4175,0.855 L72.4175,60.493 C72.4175,60.967 72.0375,61.347 71.5615,61.347" id="Fill-310" fill="#B7873E"></path>
            <path d="M0,82.8685 L84.545,82.8685" id="Stroke-312" stroke="#09C9C9" stroke-width="2" stroke-linecap="round"></path>
            <path d="M14.1611,86.6532 L53.3241,86.6532" id="Stroke-314" stroke="#09C9C9" stroke-width="2" stroke-linecap="round"></path>
            <path d="M42.2627,90.6708 L76.6607,90.6708" id="Stroke-316" stroke="#09C9C9" stroke-width="2" stroke-linecap="round"></path>
            <path d="M7.711,93.5082 L35.795,93.5082" id="Stroke-318" stroke="#09C9C9" stroke-width="2" stroke-linecap="round"></path>
            <path d="M35.0733,99.4354 L49.1603,99.4354" id="Stroke-320" stroke="#09C9C9" stroke-width="2" stroke-linecap="round"></path>
        </g>
    </g>
</svg>