<?xml version="1.0" encoding="UTF-8"?>
<svg width="49px" height="72px" viewBox="0 0 49 72" version="1.1" xmlns="http://www.w3.org/2000/svg" xmlns:xlink="http://www.w3.org/1999/xlink">
    <!-- Generator: Sketch 53.1 (72631) - https://sketchapp.com -->
    <title>Group 36</title>
    <desc>Created with Sketch.</desc>
    <defs>
        <polygon id="path-1" points="0.713569846 0.303036923 4.101 0.303036923 4.101 4.30516031 0.713569846 4.30516031"></polygon>
    </defs>
    <g id="Page-1" stroke="none" stroke-width="1" fill="none" fill-rule="evenodd">
        <g id="Group-36" transform="translate(0.101186, 0.517961)">
            <path d="M45.4114144,45.5170388 C42.8884144,43.3150388 39.2994144,42.8910388 36.1284144,42.1090388 C33.2164144,41.3910388 30.2874144,40.7400388 27.3484144,40.1420388 C26.9824144,35.9470388 26.3954144,31.7920388 25.3084144,27.7220388 C24.8764144,26.1000388 22.6944144,25.9130388 21.8404144,27.2680388 C19.5954144,30.8300388 17.3874144,34.4150388 15.1974144,38.0100388 C13.6114144,37.7780388 12.0224144,37.5620388 10.4324144,37.3830388 C7.93341443,37.1020388 2.98941443,36.1000388 0.885414431,38.0300388 C-1.02258557,39.7780388 0.562414431,41.6040388 1.81341443,43.0810388 C3.83441443,45.4670388 5.87741443,47.8350388 7.92041443,50.2030388 C5.47741443,54.3720388 3.06041443,58.5560388 0.691414431,62.7680388 C-0.454585569,64.0070388 0.732414431,66.1480388 2.35641443,65.9000388 C2.61641443,65.8910388 2.87141443,65.8210388 3.10741443,65.6870388 C7.81441443,64.2100388 12.4724144,62.5960388 17.0834144,60.8620388 L19.9704144,64.2240388 C22.1284144,66.7370388 23.9584144,69.4820388 27.1284144,70.7080388 C28.6134144,71.2830388 29.6824144,69.6400388 29.4624144,68.3730388 C28.7774144,64.4220388 28.4434144,60.4130388 28.2194144,56.3880388 C33.9064144,53.9520388 39.5154144,51.3280388 45.0274144,48.4980388 C46.0684144,47.9640388 46.3054144,46.2970388 45.4114144,45.5170388" id="Fill-1" fill="#BD6539"></path>
            <path d="M20.2844144,37.4916388 C19.9374144,38.7816388 19.7274144,40.0926388 19.6404144,41.4246388 C19.5774144,42.4006388 21.0964144,42.3966388 21.1594144,41.4246388 C21.2374144,40.2256388 21.4364144,39.0556388 21.7484144,37.8956388 C22.0024144,36.9506388 20.5384144,36.5476388 20.2844144,37.4916388" id="Fill-3" fill="#A8522C"></path>
            <path d="M18.8704144,33.8427388 C18.3494144,34.9317388 17.8284144,36.0217388 17.3074144,37.1107388 C16.8874144,37.9887388 18.1954144,38.7597388 18.6184144,37.8777388 C19.1394144,36.7877388 19.6604144,35.6987388 20.1824144,34.6097388 C20.6014144,33.7317388 19.2924144,32.9607388 18.8704144,33.8427388" id="Fill-5" fill="#A8522C"></path>
            <path d="M24.7629144,34.4403388 C24.4099144,34.3383388 23.8839144,34.5643388 23.8289144,34.9703388 C23.6899144,35.9993388 23.5499144,37.0273388 23.4099144,38.0563388 C23.3549144,38.4663388 23.5089144,38.8663388 23.9409144,38.9903388 C24.2929144,39.0923388 24.8199144,38.8663388 24.8739144,38.4603388 C25.0139144,37.4313388 25.1539144,36.4023388 25.2929144,35.3743388 C25.3489144,34.9643388 25.1949144,34.5643388 24.7629144,34.4403388" id="Fill-7" fill="#A8522C"></path>
            <path d="M22.1272144,30.7240388 C21.9292144,31.3760388 21.7312144,32.0280388 21.5332144,32.6800388 C21.3582144,33.2570388 21.1152144,33.8150388 21.3032144,34.4160388 C21.5922144,35.3460388 23.0592144,34.9490388 22.7672144,34.0120388 C22.6532144,33.6500388 23.0382144,32.9520388 23.1462144,32.5950388 C23.2942144,32.1050388 23.4422144,31.6170388 23.5912144,31.1270388 C23.8752144,30.1900388 22.4102144,29.7900388 22.1272144,30.7240388" id="Fill-9" fill="#A8522C"></path>
            <path d="M14.9612144,44.8930388 C14.6782144,44.8180388 14.4472144,44.5540388 14.2052144,44.3940388 C13.9002144,44.1930388 13.5712144,44.0350388 13.2422144,43.8790388 C12.6102144,43.5800388 11.9932144,43.3090388 11.5282144,42.7680388 C10.8902144,42.0270388 9.81921443,43.1050388 10.4542144,43.8420388 C11.0042144,44.4800388 11.7292144,44.8360388 12.4772144,45.1900388 C13.1802144,45.5240388 13.8142144,46.1620388 14.5582144,46.3570388 C15.5042144,46.6060388 15.9072144,45.1420388 14.9612144,44.8930388" id="Fill-11" fill="#A8522C"></path>
            <path d="M14.8957144,41.3944388 C14.2267144,41.1354388 13.5757144,40.7744388 13.0067144,40.3344388 C12.6837144,40.0834388 12.2497144,40.0194388 11.9337144,40.3344388 C11.6717144,40.5964388 11.6077144,41.1554388 11.9337144,41.4084388 C12.7257144,42.0204388 13.5577144,42.4974388 14.4927144,42.8584388 C14.8747144,43.0064388 15.3257144,42.6954388 15.4257144,42.3284388 C15.5437144,41.8994388 15.2807144,41.5424388 14.8957144,41.3944388" id="Fill-13" fill="#A8522C"></path>
            <path d="M10.3264144,46.0346388 C9.60241443,45.5366388 8.87941443,45.0396388 8.15641443,44.5426388 C7.34841443,43.9876388 6.58941443,45.3036388 7.38941443,45.8536388 C8.11341443,46.3506388 8.83641443,46.8486388 9.55941443,47.3456388 C10.3664144,47.9006388 11.1274144,46.5856388 10.3264144,46.0346388" id="Fill-15" fill="#A8522C"></path>
            <path d="M5.72001443,43.5756388 L4.17901443,42.3236388 C3.86101443,42.0646388 3.41601443,42.0126388 3.10501443,42.3236388 C2.83801443,42.5906388 2.78501443,43.1376388 3.10501443,43.3966388 L4.64601443,44.6496388 C4.96401443,44.9076388 5.40801443,44.9606388 5.72001443,44.6496388 C5.98701443,44.3826388 6.03901443,43.8356388 5.72001443,43.5756388" id="Fill-17" fill="#A8522C"></path>
            <path d="M8.88011443,41.9081388 C8.04011443,41.5001388 7.28311443,40.9861388 6.60811443,40.3421388 C5.90111443,39.6671388 4.82511443,40.7391388 5.53411443,41.4151388 C6.29911443,42.1451388 7.16211443,42.7571388 8.11311443,43.2191388 C8.98811443,43.6441388 9.76011443,42.3351388 8.88011443,41.9081388" id="Fill-19" fill="#A8522C"></path>
            <path d="M9.95431443,39.0761388 C8.99731443,38.7821388 8.05231443,38.4561388 7.11631443,38.0981388 C6.20231443,37.7491388 5.80831443,39.2171388 6.71231443,39.5631388 C7.64731443,39.9201388 8.59431443,40.2461388 9.55131443,40.5401388 C10.4863144,40.8281388 10.8873144,39.3631388 9.95431443,39.0761388" id="Fill-21" fill="#A8522C"></path>
            <path d="M4.63501443,39.4520388 C3.99101443,39.1570388 3.36201443,38.8360388 2.74501443,38.4870388 C1.89401443,38.0050388 1.12701443,39.3160388 1.97901443,39.7980388 C2.59501443,40.1470388 3.22501443,40.4680388 3.86901443,40.7630388 C4.24101443,40.9330388 4.68701443,40.8690388 4.90701443,40.4910388 C5.09901443,40.1640388 5.01001443,39.6230388 4.63501443,39.4520388" id="Fill-23" fill="#A8522C"></path>
            <path d="M27.4026144,47.1029388 C26.6516144,47.2219388 25.8956144,47.2939388 25.1346144,47.3109388 C24.5116144,47.3249388 23.8666144,47.2289388 23.2686144,47.4359388 C22.3516144,47.7539388 22.7466144,49.2219388 23.6736144,48.9009388 C24.2846144,48.6879388 25.1046144,48.8429388 25.7556144,48.8039388 C26.4436144,48.7629388 27.1266144,48.6749388 27.8066144,48.5669388 C28.7686144,48.4149388 28.3606144,46.9509388 27.4026144,47.1029388" id="Fill-25" fill="#A8522C"></path>
            <path d="M29.1702144,42.7767388 C27.9572144,43.0177388 26.7462144,43.0517388 25.5182144,42.9167388 C24.5482144,42.8097388 24.5562144,44.3287388 25.5182144,44.4347388 C26.8842144,44.5857388 28.2282144,44.5087388 29.5742144,44.2407388 C30.5312144,44.0507388 30.1262144,42.5877388 29.1702144,42.7767388" id="Fill-27" fill="#A8522C"></path>
            <path d="M30.8918144,51.1195388 C29.7748144,51.1145388 28.6568144,51.1085388 27.5388144,51.1035388 C26.5618144,51.0985388 26.5608144,52.6175388 27.5388144,52.6215388 C28.6568144,52.6275388 29.7748144,52.6325388 30.8918144,52.6385388 C31.8698144,52.6425388 31.8708144,51.1235388 30.8918144,51.1195388" id="Fill-29" fill="#A8522C"></path>
            <path d="M33.6018144,46.5243388 C32.9178144,46.6333388 32.2398144,46.7643388 31.5658144,46.9263388 C31.0148144,47.0603388 30.3078144,47.1503388 29.8288144,47.4633388 C29.5178144,47.6663388 29.4238144,47.9693388 29.4788144,48.3203388 L29.4878144,48.3723388 C29.5278144,48.6293388 29.7848144,48.8323388 30.0178144,48.9023388 C30.0318144,48.9063388 30.0458144,48.9113388 30.0608144,48.9153388 C30.4048144,49.0193388 30.6738144,48.8863388 30.8328144,48.6643388 C31.2598144,48.4883388 31.8478144,48.4173388 32.2388144,48.3273388 C32.8238144,48.1933388 33.4128144,48.0833388 34.0048144,47.9883388 C34.9678144,47.8343388 34.5598144,46.3713388 33.6018144,46.5243388" id="Fill-31" fill="#A8522C"></path>
            <path d="M35.6272144,42.8554388 C34.5812144,43.0354388 33.5302144,43.1584388 32.4722144,43.2304388 C31.5022144,43.2974388 31.4952144,44.8164388 32.4722144,44.7494388 C33.6652144,44.6674388 34.8522144,44.5224388 36.0302144,44.3194388 C36.9912144,44.1544388 36.5842144,42.6904388 35.6272144,42.8554388" id="Fill-33" fill="#A8522C"></path>
            <path d="M37.0256144,49.5853388 C35.9856144,49.8603388 34.9326144,50.0683388 33.8626144,50.1883388 C32.9016144,50.2943388 32.8906144,51.8143388 33.8626144,51.7063388 C35.0686144,51.5713388 36.2556144,51.3603388 37.4296144,51.0493388 C38.3736144,50.7993388 37.9726144,49.3353388 37.0256144,49.5853388" id="Fill-35" fill="#A8522C"></path>
            <path d="M40.1741144,45.2216388 C39.3611144,45.3856388 38.5511144,45.5656388 37.7461144,45.7686388 C37.1931144,45.9086388 36.4061144,45.9646388 36.0961144,46.5096388 C35.6111144,47.3596388 36.9221144,48.1256388 37.4061144,47.2766388 C37.2061144,47.6276388 37.7231144,47.3426388 37.8821144,47.3016388 C38.1941144,47.2206388 38.5071144,47.1426388 38.8211144,47.0686388 C39.4041144,46.9296388 39.9901144,46.8046388 40.5781144,46.6856388 C41.5351144,46.4936388 41.1301144,45.0296388 40.1741144,45.2216388" id="Fill-37" fill="#A8522C"></path>
            <path d="M43.0256144,46.6356388 C42.4756144,46.8356388 41.9206144,47.0056388 41.3496144,47.1346388 C40.8686144,47.2426388 40.3386144,47.2566388 39.8786144,47.4316388 C38.9736144,47.7756388 39.3666144,49.2446388 40.2816144,48.8956388 C40.7426144,48.7206388 41.2716144,48.7066388 41.7536144,48.5986388 C42.3236144,48.4696388 42.8796144,48.2996388 43.4286144,48.0996388 C44.3396144,47.7686388 43.9466144,46.3016388 43.0256144,46.6356388" id="Fill-39" fill="#A8522C"></path>
            <path d="M14.5520144,51.5482388 C13.8940144,51.8962388 13.3970144,52.4742388 12.8440144,52.9612388 C12.2210144,53.5092388 11.5680144,54.0132388 10.8850144,54.4852388 C10.0870144,55.0382388 10.8460144,56.3542388 11.6520144,55.7962388 C12.2990144,55.3482388 12.9280144,54.8742388 13.5310144,54.3672388 C14.1130144,53.8792388 14.6450144,53.2152388 15.3190144,52.8592388 C16.1830144,52.4022388 15.4160144,51.0912388 14.5520144,51.5482388" id="Fill-41" fill="#A8522C"></path>
            <path d="M11.4055144,50.4706388 C10.7085144,50.5476388 10.2705144,50.9716388 9.74051443,51.3976388 C9.14251443,51.8776388 8.54551443,52.3566388 7.94851443,52.8366388 C7.18551443,53.4486388 8.26651443,54.5166388 9.02151443,53.9096388 C9.43951443,53.5746388 9.85851443,53.2396388 10.2765144,52.9036388 C10.4555144,52.7596388 10.6345144,52.6156388 10.8135144,52.4716388 C10.9315144,52.3776388 11.2605144,52.0056388 11.4055144,51.9896388 C12.3665144,51.8826388 12.3775144,50.3626388 11.4055144,50.4706388" id="Fill-43" fill="#A8522C"></path>
            <path d="M14.7024144,56.0487388 C13.8814144,56.8147388 13.0194144,57.5307388 12.1104144,58.1887388 C11.3254144,58.7567388 12.0834144,60.0737388 12.8764144,59.4997388 C13.8904144,58.7657388 14.8604144,57.9767388 15.7764144,57.1227388 C16.4924144,56.4547388 15.4174144,55.3827388 14.7024144,56.0487388" id="Fill-45" fill="#A8522C"></path>
            <path d="M10.4446144,56.9266388 C10.1736144,56.6556388 9.63661443,56.6116388 9.37161443,56.9266388 C8.77461443,57.6326388 8.09061443,58.2156388 7.28961443,58.6776388 C6.44361443,59.1666388 7.20761443,60.4796388 8.05561443,59.9896388 C8.96061443,59.4676388 9.77161443,58.7986388 10.4446144,58.0006388 C10.7096144,57.6866388 10.7526144,57.2336388 10.4446144,56.9266388" id="Fill-47" fill="#A8522C"></path>
            <path d="M7.21611443,55.1849388 C6.83311443,54.9559388 6.41811443,55.1279388 6.17711443,55.4569388 C5.57111443,56.2849388 4.96711443,57.1119388 4.36211443,57.9389388 C4.11811443,58.2729388 4.30811443,58.7829388 4.63411443,58.9779388 C5.01711443,59.2069388 5.43211443,59.0349388 5.67311443,58.7059388 C6.27911443,57.8779388 6.88311443,57.0509388 7.48811443,56.2239388 C7.73211443,55.8909388 7.54211443,55.3799388 7.21611443,55.1849388" id="Fill-49" fill="#A8522C"></path>
            <path d="M6.68871443,61.1723388 C6.49271443,60.8373388 5.99071443,60.6683388 5.64971443,60.9003388 C4.97271443,61.3613388 4.29571443,61.8223388 3.61971443,62.2833388 C3.28171443,62.5143388 3.12971443,62.9513388 3.34671443,63.3223388 C3.54271443,63.6583388 4.04471443,63.8273388 4.38571443,63.5953388 C5.06271443,63.1333388 5.73971443,62.6723388 6.41671443,62.2113388 C6.75371443,61.9803388 6.90571443,61.5443388 6.68871443,61.1723388" id="Fill-51" fill="#A8522C"></path>
            <path d="M11.8645144,60.3959388 C11.6715144,60.0639388 11.1635144,59.8869388 10.8255144,60.1239388 C10.1945144,60.5679388 9.56251443,61.0119388 8.93051443,61.4569388 C8.59551443,61.6919388 8.43851443,62.1199388 8.65851443,62.4949388 C8.85151443,62.8269388 9.35951443,63.0039388 9.69751443,62.7679388 C10.3285144,62.3229388 10.9605144,61.8789388 11.5925144,61.4349388 C11.9265144,61.1989388 12.0845144,60.7709388 11.8645144,60.3959388" id="Fill-53" fill="#A8522C"></path>
            <path d="M21.4680144,61.6205388 C20.9110144,60.7825388 20.3770144,59.9295388 19.8650144,59.0625388 C19.3690144,58.2225388 18.0560144,58.9855388 18.5550144,59.8295388 C19.0670144,60.6965388 19.6010144,61.5485388 20.1570144,62.3865388 C20.6960144,63.1975388 22.0110144,62.4375388 21.4680144,61.6205388" id="Fill-55" fill="#A8522C"></path>
            <path d="M22.1223144,56.7348388 C21.7143144,55.7678388 21.3063144,54.8008388 20.8973144,53.8338388 C20.7363144,53.4538388 20.1823144,53.3778388 19.8583144,53.5618388 C19.4653144,53.7858388 19.4283144,54.2248388 19.5863144,54.6008388 C19.9943144,55.5678388 20.4023144,56.5348388 20.8103144,57.5018388 C20.9723144,57.8818388 21.5263144,57.9578388 21.8503144,57.7738388 C22.2433144,57.5498388 22.2803144,57.1108388 22.1223144,56.7348388" id="Fill-57" fill="#A8522C"></path>
            <path d="M26.4690144,58.8910388 C26.0770144,57.9420388 25.7680144,56.9710388 25.5380144,55.9710388 C25.3200144,55.0180388 23.8550144,55.4210388 24.0730144,56.3740388 C24.3030144,57.3750388 24.6130144,58.3460388 25.0050144,59.2950388 C25.1620144,59.6760388 25.5070144,59.9390388 25.9390144,59.8250388 C26.2980144,59.7300388 26.6260144,59.2690388 26.4690144,58.8910388" id="Fill-59" fill="#A8522C"></path>
            <path d="M25.1370144,63.4403388 C24.8790144,62.2033388 24.4690144,61.0233388 23.9320144,59.8793388 C23.5170144,58.9963388 22.2070144,59.7663388 22.6210144,60.6463388 C23.1020144,61.6693388 23.4430144,62.7373388 23.6720144,63.8443388 C23.8710144,64.8003388 25.3350144,64.3953388 25.1370144,63.4403388" id="Fill-61" fill="#A8522C"></path>
            <path d="M25.0207144,67.4359388 C24.4867144,66.6889388 24.0567144,65.8919388 23.7547144,65.0229388 C23.4367144,64.1059388 21.9697144,64.4999388 22.2917144,65.4269388 C22.6347144,66.4179388 23.0987144,67.3489388 23.7087144,68.2019388 C24.2727144,68.9899388 25.5897144,68.2329388 25.0207144,67.4359388" id="Fill-63" fill="#A8522C"></path>
            <path d="M27.9299144,67.4286388 C27.5709144,66.4256388 27.3269144,65.3976388 27.2319144,64.3356388 C27.1459144,63.3696388 25.6259144,63.3616388 25.7129144,64.3356388 C25.8219144,65.5356388 26.0599144,66.6976388 26.4659144,67.8326388 C26.7929144,68.7456388 28.2609144,68.3516388 27.9299144,67.4286388" id="Fill-65" fill="#A8522C"></path>
            <path d="M16.4768144,8.14203877 C15.3298144,8.59203877 14.1518144,8.92403877 12.9618144,9.21203877 C13.0838144,9.01903877 13.2068144,8.82603877 13.3298144,8.63303877 C13.4958144,8.37103877 15.1408144,5.43903877 15.1108144,5.44003877 C16.3918144,5.37703877 16.3998144,3.37603877 15.1108144,3.44003877 C13.2988144,3.53003877 12.2308144,6.54703877 11.4018144,7.93303877 C10.9978144,5.53203877 10.5948144,3.13003877 10.2208144,0.724038767 C10.0238144,-0.543961233 8.09581443,-0.00596123305 8.29181443,1.25503877 C8.67381443,3.71503877 9.08481443,6.17003877 9.49881443,8.62403877 C8.02381443,7.46903877 6.55081443,6.30903877 5.10681443,5.11203877 C4.12281443,4.29703877 2.69981443,5.70403877 3.69281443,6.52603877 C5.21781443,7.78903877 6.77181443,9.01603877 8.33081443,10.2350388 C6.94781443,10.5480388 5.57581443,10.9030388 4.24281443,11.4090388 C3.05081443,11.8610388 3.56781443,13.7950388 4.77481443,13.3370388 C6.05481443,12.8510388 7.37281443,12.5050388 8.69981443,12.2010388 L5.57081443,17.1340388 C4.87881443,18.2250388 6.60981443,19.2290388 7.29681443,18.1440388 C8.30481443,16.5550388 9.31281443,14.9660388 10.3208144,13.3770388 C10.7338144,15.7100388 11.1448144,18.0430388 11.5848144,20.3720388 C11.8248144,21.6350388 13.7518144,21.1000388 13.5138144,19.8400388 C13.0998144,17.6530388 12.7138144,15.4620388 12.3268144,13.2700388 C13.3068144,14.0010388 14.2758144,14.7480388 15.2688144,15.4630388 C16.3158144,16.2150388 17.3148144,14.4810388 16.2788144,13.7360388 C15.1588144,12.9310388 14.0618144,12.0970388 12.9628144,11.2660388 C14.3328144,10.9500388 15.6908144,10.5870388 17.0088144,10.0700388 C18.1938144,9.60603877 17.6778144,7.67103877 16.4768144,8.14203877" id="Fill-67" fill="#FFFFFF"></path>
            <path d="M38.4202144,16.9896388 C37.5552144,17.0856388 36.6902144,17.1536388 35.8232144,17.2086388 C36.3782144,16.5286388 36.9332144,15.8496388 37.4612144,15.1466388 C38.2342144,14.1176388 36.4992144,13.1196388 35.7342144,14.1376388 C35.6422144,14.2606388 35.5412144,14.3766388 35.4482144,14.4986388 C35.5312144,13.8536388 35.6122144,13.2076388 35.7072144,12.5626388 C35.8922144,11.3036388 33.9652144,10.7606388 33.7782144,12.0316388 C33.6032144,13.2356388 33.4472144,14.4416388 33.3042144,15.6486388 C32.8552144,15.1296388 32.4012144,14.6146388 31.9652144,14.0846388 C31.1452144,13.0916388 29.7362144,14.5136388 30.5512144,15.4996388 C31.0622144,16.1176388 31.5902144,16.7216388 32.1162144,17.3276388 C31.4402144,17.3256388 30.7632144,17.3116388 30.0842144,17.2856388 C28.7972144,17.2356388 28.7992144,19.2356388 30.0842144,19.2856388 C30.5082144,19.3026388 30.9302144,19.3046388 31.3542144,19.3116388 C30.8312144,19.8746388 30.3232144,20.4506388 29.7822144,20.9966388 C28.8742144,21.9106388 30.2882144,23.3256388 31.1962144,22.4106388 C31.7422144,21.8606388 32.2742144,21.2976388 32.7982144,20.7276388 C32.7032144,21.9156388 32.6202144,23.1046388 32.5592144,24.2966388 C32.4922144,25.5836388 34.4922144,25.5796388 34.5592144,24.2966388 C34.6262144,22.9816388 34.7212144,21.6686388 34.8282144,20.3576388 C35.1782144,20.7396388 35.5242144,21.1256388 35.8812144,21.5006388 C36.7722144,22.4336388 38.1842144,21.0186388 37.2952144,20.0866388 C37.0082144,19.7856388 36.7332144,19.4756388 36.4512144,19.1706388 C37.1082144,19.1206388 37.7642144,19.0616388 38.4202144,18.9896388 C39.6852144,18.8496388 39.6992144,16.8476388 38.4202144,16.9896388" id="Fill-69" fill="#FFFFFF"></path>
            <path d="M41.0149144,36.7933388 C39.3149144,37.4633388 38.3399144,35.2873388 39.2619144,34.1073388 C39.4749144,34.1633388 39.7079144,34.1663388 39.9529144,34.0533388 C39.9679144,34.0463388 39.9819144,34.0443388 39.9969144,34.0383388 C40.2169144,34.0543388 40.4359144,34.0043388 40.6249144,33.9073388 C41.9889144,33.9473388 42.5989144,36.1693388 41.0149144,36.7933388 M43.7379144,34.0083388 C43.1519144,32.6563388 41.8209144,31.9613388 40.4589144,31.9883388 C40.2029144,31.7153388 39.8229144,31.4913388 39.4409144,31.6463388 C37.5599144,32.4073388 36.3099144,34.4443388 37.0369144,36.4673388 C37.7039144,38.3193388 39.9569144,39.3913388 41.7919144,38.6343388 C43.5309144,37.9183388 44.4939144,35.7553388 43.7379144,34.0083388" id="Fill-71" fill="#FFFFFF"></path>
            <g id="Group-75" transform="translate(43.898814, 24.156039)">
                <mask id="mask-2" fill="white">
                    <use xlink:href="#path-1"></use>
                </mask>
                <g id="Clip-74"></g>
                <path d="M3.0555,0.8761 C2.9675,0.6971 2.8475,0.5351 2.6825,0.4391 C2.1855,0.1471 1.6225,0.3521 1.3145,0.7971 C0.8695,1.4381 0.5495,2.2451 0.8035,3.0251 C1.0625,3.8171 1.8335,4.4151 2.6845,4.2881 C3.4955,4.1671 4.0765,3.4351 4.1005,2.6261 C4.1225,1.8881 3.6655,1.2511 3.0555,0.8761" id="Fill-73" fill="#FFFFFF" mask="url(#mask-2)"></path>
            </g>
        </g>
    </g>
</svg>