<?xml version="1.0" encoding="UTF-8"?>
<svg width="58px" height="130px" viewBox="0 0 58 130" version="1.1" xmlns="http://www.w3.org/2000/svg" xmlns:xlink="http://www.w3.org/1999/xlink">
    <!-- Generator: Sketch 53.1 (72631) - https://sketchapp.com -->
    <title>Group 31</title>
    <desc>Created with Sketch.</desc>
    <g id="Page-1" stroke="none" stroke-width="1" fill="none" fill-rule="evenodd">
        <g id="Group-31" transform="translate(0.019901, 0.000100)">
            <path d="M17.9535992,126.4206 C17.9535992,126.4206 -19.3864008,62.6946 13.6335992,0.5686 L23.2705992,121.9716 L17.9535992,126.4206 Z" id="Fill-142" fill="#C90E32"></path>
            <path d="M29.8549992,125.009 C29.8549992,125.009 56.9049992,56.281 14.6869992,7.10542736e-15 L23.9149992,121.435 L29.8549992,125.009 Z" id="Fill-144" fill="#C90E32"></path>
            <path d="M5.7758992,96.1613 L19.9588992,75.9393 L37.1938992,93.3893 C37.1938992,93.3893 35.1928992,112.6083 29.8548992,125.0093 L23.9148992,121.4343 L17.9538992,126.4203 C17.9538992,126.4203 9.2938992,111.3123 5.7758992,96.1613" id="Fill-146" fill="#99D9D9"></path>
            <polyline id="Stroke-148" stroke="#08AAEB" points="8.6078992 97.5266 20.2108992 80.5046 35.4628992 95.1606"></polyline>
            <polygon id="Fill-150" fill="#08AAEB" points="20.9740992 123.8938 22.7240992 103.3468 26.8500992 123.0548 23.9140992 121.4348"></polygon>
            <path d="M20.2992992,14.1745 C20.2992992,14.1745 35.2952992,33.9925 33.4682992,62.7395 C33.4682992,62.7395 27.0002992,31.3025 20.2992992,14.1745" id="Fill-152" fill="#FF8E8E"></path>
            <path d="M57.1742992,78.6721 C57.0912992,79.5121 56.9932992,80.3591 56.8802992,81.2201 C55.5612992,91.4001 51.7412992,108.2281 45.6412992,120.7541 L24.4622992,118.3091 C22.6352992,110.2711 22.3342992,97.4551 22.1032992,90.6041 C22.0742992,89.9721 22.0612992,89.3471 22.0512992,88.7261 C22.0412992,88.2701 22.0362992,87.8131 22.0362992,87.3571 C22.0232992,82.5661 22.3442992,78.0781 22.9332992,73.8941 C23.0232992,73.2421 23.1202992,72.6001 23.2232992,71.9641 C23.3642992,71.0691 23.5202992,70.1851 23.6862992,69.3211 C29.0302992,41.4841 45.5812992,28.3121 45.5812992,28.3121 C45.5812992,28.3121 53.3402992,38.1331 56.4062992,55.5581 C56.5642992,56.4781 56.7152992,57.4171 56.8482992,58.3821 C56.9122992,58.8601 56.9772992,59.3431 57.0362992,59.8301 C57.6502992,64.9061 57.8412992,70.5281 57.3582992,76.6631 C57.3062992,77.3241 57.2422992,77.9941 57.1742992,78.6721" id="Fill-154" fill="#4C2030"></path>
            <polygon id="Fill-156" fill="#17163F" points="36.8861992 119.1311 33.3551992 118.7231 34.8371992 105.8811 38.3681992 106.2891"></polygon>
            <path d="M57.3578992,76.6633 L30.5458992,87.1783 L30.5738992,82.7853 L22.0368992,87.3573 C22.0228992,82.5663 22.3438992,78.0783 22.9328992,73.8933 L37.1228992,67.6233 L37.4008992,73.5293 L57.0368992,59.8303 C57.6498992,64.9063 57.8408992,70.5283 57.3578992,76.6633" id="Fill-158" fill="#F97000"></path>
            <path d="M56.8480992,58.3825 L38.9670992,70.1065 L38.2270992,65.2935 L23.2230992,71.9645 C23.3650992,71.0695 23.5200992,70.1845 23.6860992,69.3205 L39.9240992,61.8135 L40.7860992,66.4435 L56.4070992,55.5575 C56.5640992,56.4785 56.7150992,57.4175 56.8480992,58.3825" id="Fill-160" fill="#C90E32"></path>
            <path d="M22.0512992,88.7263 L29.1602992,85.2523 L28.9822992,89.6323 L57.1742992,78.6723 C57.0912992,79.5123 56.9932992,80.3593 56.8802992,81.2203 L26.9592992,92.3933 L27.0562992,88.6853 L22.1032992,90.6043 L22.0512992,88.7263 Z" id="Fill-162" fill="#C90E32"></path>
            <path d="M47.5170992,117.5476 L15.0930992,117.5476 C10.7830992,117.5476 7.2880992,121.0416 7.2880992,125.3516 L7.2880992,129.6386 L55.3210992,129.6386 L55.3210992,125.3516 C55.3210992,121.0416 51.8270992,117.5476 47.5170992,117.5476" id="Fill-164" fill="#B7873E"></path>
        </g>
    </g>
</svg>